M48
; DRILL file {KiCad (6.0.1)} date Wed Mar 29 19:48:17 2023
; FORMAT={-:-/ absolute / metric / decimal}
; #@! TF.CreationDate,2023-03-29T19:48:17-04:00
; #@! TF.GenerationSoftware,Kicad,Pcbnew,(6.0.1)
; #@! TF.FileFunction,Plated,1,4,PTH
FMAT,2
METRIC
; #@! TA.AperFunction,Plated,PTH,ViaDrill
T1C0.200
; #@! TA.AperFunction,Plated,PTH,ViaDrill
T2C0.300
; #@! TA.AperFunction,Plated,PTH,ComponentDrill
T3C0.650
; #@! TA.AperFunction,Plated,PTH,ComponentDrill
T4C1.000
; #@! TA.AperFunction,Plated,PTH,ComponentDrill
T5C1.100
%
G90
G05
T1
X108.528Y-96.128
X109.575Y-91.418
X109.7Y-94.9
X110.1Y-116.1
X110.337Y-98.466
X110.583Y-94.939
X110.6Y-115.6
X111.351Y-98.711
X111.849Y-88.515
X112.022Y-80.985
X112.1Y-102.6
X112.168Y-98.037
X112.421Y-82.024
X112.444Y-99.57
X112.468Y-90.11
X113.4Y-116.8
X114.679Y-81.119
X114.7Y-111.4
X115.3Y-111.7
X115.307Y-79.288
X115.463Y-102.594
X115.493Y-80.026
X115.944Y-97.652
X116.704Y-103.65
X116.74Y-77.471
X117.109Y-89.805
X117.507Y-99.139
X117.788Y-112.55
X118.212Y-84.17
X118.62Y-91.949
X118.758Y-111.561
X119.016Y-102.403
X119.217Y-83.197
X121.937Y-101.9
X122.337Y-86.953
X122.38Y-93.009
X122.643Y-99.938
X122.679Y-91.418
X122.76Y-111.148
X122.771Y-112.643
X122.973Y-93.294
X123.013Y-71.017
X123.042Y-72.087
X123.05Y-111.918
X123.563Y-73.963
X123.728Y-98.426
X123.943Y-89.394
X124.027Y-85.95
X124.226Y-93.592
X124.234Y-100.44
X124.317Y-89.767
X124.359Y-94.264
X124.542Y-91.847
X124.578Y-98.85
X124.642Y-86.493
X124.642Y-92.55
X124.672Y-90.158
X124.684Y-85.086
X125.677Y-80.159
X125.69Y-82.632
X126.476Y-110.85
X126.626Y-82.48
X126.831Y-94.712
X126.851Y-90.356
X126.897Y-87.62
X127.096Y-87.092
X127.099Y-93.734
X127.101Y-97.37
X127.127Y-96.834
X127.13Y-94.262
X127.17Y-105.184
X127.253Y-93.188
X127.69Y-101.779
X127.966Y-93.342
X128.224Y-96.45
X128.626Y-84.967
X128.694Y-86.736
X128.7Y-113.4
X129.214Y-105.481
X129.4Y-119.3
X129.621Y-88.916
X129.769Y-105.362
X130.154Y-89.344
X130.166Y-105.01
X130.9Y-107.042
X130.92Y-98.382
X131.75Y-81.393
X131.937Y-96.425
X132.55Y-83.547
X133.0Y-119.3
X133.25Y-81.396
X134.261Y-105.471
X134.612Y-84.45
X135.05Y-80.85
X135.6Y-114.1
X135.8Y-115.5
X136.25Y-105.029
X136.595Y-105.583
X137.0Y-117.7
X137.0Y-118.3
X137.5Y-112.15
X138.081Y-76.57
X138.992Y-102.499
X139.056Y-107.294
X139.31Y-105.465
X139.341Y-114.309
X139.9Y-114.8
X140.061Y-108.081
X140.101Y-101.779
X140.234Y-79.276
X140.25Y-81.387
X140.519Y-70.502
X140.695Y-77.948
X140.911Y-105.471
X141.1Y-115.4
X141.25Y-81.385
X141.317Y-109.614
X141.452Y-105.332
X141.901Y-95.184
X141.997Y-110.85
X142.742Y-93.95
X143.65Y-107.911
X144.012Y-88.918
X144.334Y-112.833
X144.407Y-101.854
X144.421Y-110.427
X144.583Y-84.177
X144.757Y-89.45
X144.982Y-81.378
X145.397Y-96.911
X145.434Y-101.627
X145.71Y-102.523
X145.756Y-83.191
X145.817Y-104.958
X145.921Y-84.666
X145.944Y-96.299
X146.155Y-98.106
X146.158Y-85.702
X146.466Y-103.758
X146.631Y-80.289
X146.729Y-115.01
X146.92Y-118.102
X146.921Y-106.153
X148.01Y-103.922
X148.167Y-83.173
X148.304Y-99.35
X148.332Y-87.95
X148.401Y-88.498
X148.437Y-100.322
X148.449Y-111.517
X148.751Y-94.908
X148.787Y-86.535
X148.846Y-118.886
X148.895Y-110.078
X148.91Y-92.078
X149.095Y-86.096
X149.498Y-93.91
X149.504Y-95.412
X149.511Y-100.254
X149.708Y-102.375
X150.158Y-97.415
X150.169Y-86.855
X150.518Y-77.425
X151.169Y-92.078
X151.567Y-93.015
X151.992Y-86.415
X152.427Y-78.501
X152.534Y-109.529
X152.546Y-103.922
X152.784Y-91.07
X153.115Y-99.487
X153.214Y-94.005
X153.345Y-122.59
X153.425Y-98.55
X153.686Y-108.8
X154.396Y-120.35
X154.551Y-104.958
X154.973Y-88.496
X155.054Y-101.492
X155.547Y-90.346
X155.594Y-93.391
X155.931Y-90.709
X156.283Y-115.389
X156.486Y-91.974
X156.734Y-95.571
X156.802Y-112.891
X156.828Y-92.962
X156.967Y-91.245
X157.452Y-101.589
X157.694Y-92.611
X157.7Y-120.2
X157.865Y-106.815
X158.139Y-88.894
X158.268Y-90.104
X158.675Y-115.12
X158.749Y-86.981
X158.776Y-86.453
X158.777Y-79.761
X158.83Y-96.13
X159.18Y-84.891
X159.751Y-87.822
X159.8Y-86.5
X159.912Y-115.138
X160.444Y-79.949
X160.725Y-81.82
X160.806Y-92.259
X160.806Y-90.623
X160.844Y-94.127
X161.0Y-115.145
X161.059Y-83.453
X161.094Y-91.8
X161.1Y-120.3
X161.236Y-83.989
X161.253Y-81.897
X161.449Y-90.639
X161.636Y-113.97
X161.641Y-85.16
X161.927Y-94.569
X161.966Y-82.3
X162.116Y-82.845
X162.148Y-80.414
X162.169Y-81.217
X162.2Y-115.135
X162.433Y-79.8
X162.439Y-86.573
X162.8Y-87.045
X162.824Y-87.765
X162.86Y-79.238
X162.873Y-76.198
X162.914Y-100.831
X162.987Y-115.076
X163.296Y-81.724
X163.6Y-121.6
X163.644Y-82.121
X163.744Y-82.903
X163.788Y-86.144
X163.949Y-102.673
X164.442Y-75.304
X164.623Y-80.746
X164.688Y-83.254
X164.985Y-85.33
X165.081Y-85.849
X165.415Y-83.853
X165.95Y-83.37
X166.047Y-84.247
X166.107Y-82.426
X166.133Y-79.066
X166.367Y-76.751
X166.391Y-86.295
X166.478Y-83.35
X166.639Y-80.91
X166.652Y-82.352
X167.135Y-84.763
X167.354Y-92.908
X168.037Y-83.467
X168.302Y-80.32
X168.424Y-98.119
X168.444Y-77.344
X168.532Y-82.789
X168.809Y-83.265
X169.3Y-78.5
X169.37Y-94.375
X169.428Y-82.353
X169.468Y-91.396
X169.495Y-85.531
X169.672Y-76.63
X170.641Y-89.862
X171.261Y-81.512
X172.236Y-88.639
X172.236Y-101.81
X172.357Y-84.653
X172.506Y-90.022
X172.945Y-81.939
X172.975Y-87.751
X173.296Y-85.118
X173.412Y-78.592
X173.644Y-86.315
X174.321Y-76.368
X174.55Y-81.514
X174.571Y-97.939
X175.483Y-97.063
X175.753Y-86.87
X175.954Y-88.99
X175.965Y-85.118
X176.13Y-89.683
X176.259Y-88.548
X177.996Y-114.06
X178.737Y-117.325
X180.143Y-101.86
X180.469Y-114.986
T2
X105.6Y-93.7
X107.7Y-105.4
X108.8Y-90.0
X109.3Y-83.9
X109.3Y-87.1
X109.35Y-119.65
X109.4Y-114.3
X109.825Y-108.175
X109.9Y-81.4
X110.9Y-123.0
X111.175Y-110.2
X111.175Y-112.125
X111.2Y-108.1
X111.5Y-119.1
X111.7Y-83.9
X111.7Y-87.2
X112.1Y-100.8
X112.1Y-105.5
X114.0Y-118.9
X114.2Y-93.0
X114.2Y-97.9
X114.8Y-105.5
X116.2Y-93.0
X117.0Y-108.2
X117.0Y-115.0
X117.0Y-117.0
X117.5Y-116.0
X117.6Y-95.4
X117.7Y-81.8
X117.7Y-87.9
X117.7Y-100.5
X118.0Y-115.0
X118.0Y-117.0
X118.4Y-105.1
X118.7Y-121.8
X118.8Y-109.2
X120.5Y-81.1
X120.6Y-92.3
X121.0Y-100.1
X121.1Y-111.4
X121.7Y-108.9
X122.0Y-90.2
X122.5Y-119.1
X123.4Y-114.8
X123.8Y-84.7
X123.9Y-81.3
X124.1Y-97.3
X124.5Y-105.1
X125.9Y-108.8
X126.6Y-77.8
X127.0Y-115.0
X128.2Y-90.6
X128.6Y-87.9
X128.8Y-108.8
X129.1Y-80.6
X129.7Y-100.0
X129.9Y-106.4
X130.0Y-112.2
X131.6Y-74.7
X132.1Y-112.2
X132.6Y-90.5
X133.3Y-100.0
X134.2Y-112.2
X134.7Y-116.3
X134.7Y-118.3
X134.8Y-76.7
X134.8Y-87.9
X135.525Y-111.85
X136.7Y-92.0
X137.075Y-85.25
X137.2Y-119.1
X137.6Y-112.9
X137.6Y-113.9
X137.9Y-121.8
X138.5Y-81.3
X140.1Y-85.0
X140.1Y-91.1
X140.5Y-80.3
X140.6Y-99.9
X140.8Y-106.4
X141.0Y-102.0
X142.3Y-116.9
X143.1Y-87.9
X143.2Y-75.5
X143.3Y-79.1
X143.6Y-108.7
X144.0Y-98.8
X145.0Y-114.8
X145.5Y-86.5
X145.8Y-94.7
X146.0Y-97.4
X146.0Y-107.5
X146.9Y-112.7
X147.1Y-75.6
X147.1Y-78.4
X147.7Y-107.3
X149.0Y-115.3
X149.6Y-81.0
X149.8Y-107.3
X150.1Y-110.4
X150.7Y-96.2
X150.8Y-84.3
X150.9Y-75.6
X151.5Y-112.6
X151.8Y-82.2
X152.1Y-121.3
X153.8Y-110.5
X154.3Y-115.4
X154.4Y-84.1
X154.4Y-97.4
X155.2Y-106.4
X155.4Y-96.4
X155.8Y-75.5
X156.0Y-113.6
X158.1Y-72.3
X158.3Y-104.1
X158.6Y-75.9
X158.6Y-110.0
X160.3Y-74.7
X160.4Y-95.4
X161.2Y-97.2
X162.8Y-107.5
X163.8Y-78.8
X163.8Y-91.9
X164.3Y-109.3
X164.4Y-91.1
X164.5Y-112.8
X165.0Y-95.3
X165.2Y-79.1
X165.2Y-117.1
X165.475Y-122.55
X166.0Y-81.3
X166.0Y-114.1
X167.7Y-78.9
X167.7Y-85.6
X167.825Y-109.4
X168.0Y-91.9
X168.2Y-81.5
X170.35Y-103.125
X170.7Y-87.3
X170.9Y-84.3
X171.525Y-105.65
X172.5Y-87.0
X174.0Y-115.0
X175.4Y-92.2
X176.4Y-81.8
X176.6Y-121.6
X177.4Y-117.5
X180.2Y-90.7
X182.5Y-112.5
T3
X147.0Y-72.58
X147.0Y-73.85
X148.27Y-72.58
X148.27Y-73.85
X149.54Y-72.58
X149.54Y-73.85
X150.81Y-72.58
X150.81Y-73.85
X152.08Y-72.58
X152.08Y-73.85
X153.35Y-72.58
X153.35Y-73.85
X154.62Y-72.58
X154.62Y-73.85
T4
X101.1Y-92.4
X101.1Y-101.4
X101.11Y-87.4
X101.475Y-108.0
X103.64Y-92.4
X103.64Y-101.4
X103.65Y-87.4
X104.015Y-108.0
X106.555Y-108.0
X108.85Y-72.81
X108.85Y-75.35
X111.39Y-72.81
X111.39Y-75.35
X113.93Y-72.81
X113.93Y-75.35
X116.47Y-72.81
X116.47Y-75.35
X119.01Y-72.81
X119.01Y-75.35
X121.55Y-72.81
X121.55Y-75.35
X124.09Y-72.81
X124.09Y-75.35
X126.63Y-72.81
X126.63Y-75.35
X129.17Y-72.81
X129.17Y-75.35
X134.7Y-72.8
X137.24Y-72.8
X139.78Y-72.8
X142.32Y-72.8
X153.335Y-77.4
X153.36Y-81.4
X155.875Y-77.4
X155.9Y-81.4
X159.3Y-99.6
X160.86Y-72.8
X161.84Y-99.6
X163.4Y-72.8
X165.94Y-72.8
X168.48Y-72.8
X171.02Y-72.8
X172.6Y-77.46
X172.6Y-80.0
X173.56Y-72.8
X176.1Y-72.8
X176.9Y-77.46
X176.9Y-80.0
X177.3Y-94.735
X177.3Y-97.275
X178.64Y-72.8
X179.84Y-94.735
X179.84Y-97.275
X181.18Y-72.8
X182.38Y-94.735
X182.38Y-97.275
X183.72Y-72.8
X184.9Y-77.75
X184.9Y-80.29
X184.9Y-82.83
X184.9Y-85.37
X184.9Y-87.91
X184.9Y-90.45
X184.9Y-101.45
X184.9Y-103.99
X184.9Y-106.53
X184.9Y-109.07
X184.9Y-111.61
X184.9Y-114.15
X184.92Y-94.735
X184.92Y-97.275
T5
X101.66Y-119.6
X104.2Y-119.6
X143.93Y-119.6
X146.47Y-119.6
T0
M30
