G04 #@! TF.GenerationSoftware,KiCad,Pcbnew,(6.0.1)*
G04 #@! TF.CreationDate,2023-03-29T19:48:02-04:00*
G04 #@! TF.ProjectId,OBCProto,4f424350-726f-4746-9f2e-6b696361645f,rev?*
G04 #@! TF.SameCoordinates,Original*
G04 #@! TF.FileFunction,Legend,Bot*
G04 #@! TF.FilePolarity,Positive*
%FSLAX46Y46*%
G04 Gerber Fmt 4.6, Leading zero omitted, Abs format (unit mm)*
G04 Created by KiCad (PCBNEW (6.0.1)) date 2023-03-29 19:48:02*
%MOMM*%
%LPD*%
G01*
G04 APERTURE LIST*
%ADD10C,0.150000*%
%ADD11C,0.010000*%
%ADD12C,0.120000*%
%ADD13R,1.700000X1.700000*%
%ADD14O,1.700000X1.700000*%
%ADD15R,1.000000X1.000000*%
%ADD16O,1.000000X1.000000*%
%ADD17R,2.100000X2.100000*%
%ADD18C,2.100000*%
%ADD19R,2.000000X2.000000*%
%ADD20R,1.500000X1.500000*%
G04 APERTURE END LIST*
D10*
X125580952Y-101652380D02*
X125342857Y-102652380D01*
X125152380Y-101938095D01*
X124961904Y-102652380D01*
X124723809Y-101652380D01*
X124342857Y-102652380D02*
X124342857Y-101652380D01*
X124009523Y-101652380D02*
X123438095Y-101652380D01*
X123723809Y-102652380D02*
X123723809Y-101652380D01*
X122342857Y-102652380D02*
X122342857Y-101652380D01*
X121961904Y-101652380D01*
X121866666Y-101700000D01*
X121819047Y-101747619D01*
X121771428Y-101842857D01*
X121771428Y-101985714D01*
X121819047Y-102080952D01*
X121866666Y-102128571D01*
X121961904Y-102176190D01*
X122342857Y-102176190D01*
X121342857Y-102652380D02*
X121342857Y-101985714D01*
X121342857Y-101652380D02*
X121390476Y-101700000D01*
X121342857Y-101747619D01*
X121295238Y-101700000D01*
X121342857Y-101652380D01*
X121342857Y-101747619D01*
X120438095Y-102604761D02*
X120533333Y-102652380D01*
X120723809Y-102652380D01*
X120819047Y-102604761D01*
X120866666Y-102557142D01*
X120914285Y-102461904D01*
X120914285Y-102176190D01*
X120866666Y-102080952D01*
X120819047Y-102033333D01*
X120723809Y-101985714D01*
X120533333Y-101985714D01*
X120438095Y-102033333D01*
X119866666Y-102652380D02*
X119961904Y-102604761D01*
X120009523Y-102557142D01*
X120057142Y-102461904D01*
X120057142Y-102176190D01*
X120009523Y-102080952D01*
X119961904Y-102033333D01*
X119866666Y-101985714D01*
X119723809Y-101985714D01*
X119628571Y-102033333D01*
X119580952Y-102080952D01*
X119533333Y-102176190D01*
X119533333Y-102461904D01*
X119580952Y-102557142D01*
X119628571Y-102604761D01*
X119723809Y-102652380D01*
X119866666Y-102652380D01*
X119152380Y-102604761D02*
X119009523Y-102652380D01*
X118771428Y-102652380D01*
X118676190Y-102604761D01*
X118628571Y-102557142D01*
X118580952Y-102461904D01*
X118580952Y-102366666D01*
X118628571Y-102271428D01*
X118676190Y-102223809D01*
X118771428Y-102176190D01*
X118961904Y-102128571D01*
X119057142Y-102080952D01*
X119104761Y-102033333D01*
X119152380Y-101938095D01*
X119152380Y-101842857D01*
X119104761Y-101747619D01*
X119057142Y-101700000D01*
X118961904Y-101652380D01*
X118723809Y-101652380D01*
X118580952Y-101700000D01*
X117723809Y-102652380D02*
X117723809Y-102128571D01*
X117771428Y-102033333D01*
X117866666Y-101985714D01*
X118057142Y-101985714D01*
X118152380Y-102033333D01*
X117723809Y-102604761D02*
X117819047Y-102652380D01*
X118057142Y-102652380D01*
X118152380Y-102604761D01*
X118200000Y-102509523D01*
X118200000Y-102414285D01*
X118152380Y-102319047D01*
X118057142Y-102271428D01*
X117819047Y-102271428D01*
X117723809Y-102223809D01*
X117390476Y-101985714D02*
X117009523Y-101985714D01*
X117247619Y-101652380D02*
X117247619Y-102509523D01*
X117200000Y-102604761D01*
X117104761Y-102652380D01*
X117009523Y-102652380D01*
X115914285Y-102652380D02*
X115914285Y-101652380D01*
X115438095Y-101985714D02*
X115438095Y-102652380D01*
X115438095Y-102080952D02*
X115390476Y-102033333D01*
X115295238Y-101985714D01*
X115152380Y-101985714D01*
X115057142Y-102033333D01*
X115009523Y-102128571D01*
X115009523Y-102652380D01*
X114533333Y-102652380D02*
X114533333Y-101985714D01*
X114533333Y-101652380D02*
X114580952Y-101700000D01*
X114533333Y-101747619D01*
X114485714Y-101700000D01*
X114533333Y-101652380D01*
X114533333Y-101747619D01*
X114200000Y-101985714D02*
X113819047Y-101985714D01*
X114057142Y-101652380D02*
X114057142Y-102509523D01*
X114009523Y-102604761D01*
X113914285Y-102652380D01*
X113819047Y-102652380D01*
X113485714Y-102652380D02*
X113485714Y-101985714D01*
X113485714Y-101652380D02*
X113533333Y-101700000D01*
X113485714Y-101747619D01*
X113438095Y-101700000D01*
X113485714Y-101652380D01*
X113485714Y-101747619D01*
X112580952Y-102652380D02*
X112580952Y-102128571D01*
X112628571Y-102033333D01*
X112723809Y-101985714D01*
X112914285Y-101985714D01*
X113009523Y-102033333D01*
X112580952Y-102604761D02*
X112676190Y-102652380D01*
X112914285Y-102652380D01*
X113009523Y-102604761D01*
X113057142Y-102509523D01*
X113057142Y-102414285D01*
X113009523Y-102319047D01*
X112914285Y-102271428D01*
X112676190Y-102271428D01*
X112580952Y-102223809D01*
X112247619Y-101985714D02*
X111866666Y-101985714D01*
X112104761Y-101652380D02*
X112104761Y-102509523D01*
X112057142Y-102604761D01*
X111961904Y-102652380D01*
X111866666Y-102652380D01*
X111533333Y-102652380D02*
X111533333Y-101985714D01*
X111533333Y-101652380D02*
X111580952Y-101700000D01*
X111533333Y-101747619D01*
X111485714Y-101700000D01*
X111533333Y-101652380D01*
X111533333Y-101747619D01*
X111152380Y-101985714D02*
X110914285Y-102652380D01*
X110676190Y-101985714D01*
X109914285Y-102604761D02*
X110009523Y-102652380D01*
X110200000Y-102652380D01*
X110295238Y-102604761D01*
X110342857Y-102509523D01*
X110342857Y-102128571D01*
X110295238Y-102033333D01*
X110200000Y-101985714D01*
X110009523Y-101985714D01*
X109914285Y-102033333D01*
X109866666Y-102128571D01*
X109866666Y-102223809D01*
X110342857Y-102319047D01*
X185564285Y-121635535D02*
X185564285Y-120885535D01*
X185385714Y-120885535D01*
X185278571Y-120921250D01*
X185207142Y-120992678D01*
X185171428Y-121064107D01*
X185135714Y-121206964D01*
X185135714Y-121314107D01*
X185171428Y-121456964D01*
X185207142Y-121528392D01*
X185278571Y-121599821D01*
X185385714Y-121635535D01*
X185564285Y-121635535D01*
X184528571Y-121599821D02*
X184600000Y-121635535D01*
X184742857Y-121635535D01*
X184814285Y-121599821D01*
X184850000Y-121528392D01*
X184850000Y-121242678D01*
X184814285Y-121171250D01*
X184742857Y-121135535D01*
X184600000Y-121135535D01*
X184528571Y-121171250D01*
X184492857Y-121242678D01*
X184492857Y-121314107D01*
X184850000Y-121385535D01*
X184207142Y-121599821D02*
X184135714Y-121635535D01*
X183992857Y-121635535D01*
X183921428Y-121599821D01*
X183885714Y-121528392D01*
X183885714Y-121492678D01*
X183921428Y-121421250D01*
X183992857Y-121385535D01*
X184100000Y-121385535D01*
X184171428Y-121349821D01*
X184207142Y-121278392D01*
X184207142Y-121242678D01*
X184171428Y-121171250D01*
X184100000Y-121135535D01*
X183992857Y-121135535D01*
X183921428Y-121171250D01*
X183564285Y-121635535D02*
X183564285Y-121135535D01*
X183564285Y-120885535D02*
X183600000Y-120921250D01*
X183564285Y-120956964D01*
X183528571Y-120921250D01*
X183564285Y-120885535D01*
X183564285Y-120956964D01*
X182885714Y-121135535D02*
X182885714Y-121742678D01*
X182921428Y-121814107D01*
X182957142Y-121849821D01*
X183028571Y-121885535D01*
X183135714Y-121885535D01*
X183207142Y-121849821D01*
X182885714Y-121599821D02*
X182957142Y-121635535D01*
X183100000Y-121635535D01*
X183171428Y-121599821D01*
X183207142Y-121564107D01*
X183242857Y-121492678D01*
X183242857Y-121278392D01*
X183207142Y-121206964D01*
X183171428Y-121171250D01*
X183100000Y-121135535D01*
X182957142Y-121135535D01*
X182885714Y-121171250D01*
X182528571Y-121135535D02*
X182528571Y-121635535D01*
X182528571Y-121206964D02*
X182492857Y-121171250D01*
X182421428Y-121135535D01*
X182314285Y-121135535D01*
X182242857Y-121171250D01*
X182207142Y-121242678D01*
X182207142Y-121635535D01*
X181564285Y-121599821D02*
X181635714Y-121635535D01*
X181778571Y-121635535D01*
X181850000Y-121599821D01*
X181885714Y-121528392D01*
X181885714Y-121242678D01*
X181850000Y-121171250D01*
X181778571Y-121135535D01*
X181635714Y-121135535D01*
X181564285Y-121171250D01*
X181528571Y-121242678D01*
X181528571Y-121314107D01*
X181885714Y-121385535D01*
X180885714Y-121635535D02*
X180885714Y-120885535D01*
X180885714Y-121599821D02*
X180957142Y-121635535D01*
X181100000Y-121635535D01*
X181171428Y-121599821D01*
X181207142Y-121564107D01*
X181242857Y-121492678D01*
X181242857Y-121278392D01*
X181207142Y-121206964D01*
X181171428Y-121171250D01*
X181100000Y-121135535D01*
X180957142Y-121135535D01*
X180885714Y-121171250D01*
X179707142Y-121242678D02*
X179600000Y-121278392D01*
X179564285Y-121314107D01*
X179528571Y-121385535D01*
X179528571Y-121492678D01*
X179564285Y-121564107D01*
X179600000Y-121599821D01*
X179671428Y-121635535D01*
X179957142Y-121635535D01*
X179957142Y-120885535D01*
X179707142Y-120885535D01*
X179635714Y-120921250D01*
X179600000Y-120956964D01*
X179564285Y-121028392D01*
X179564285Y-121099821D01*
X179600000Y-121171250D01*
X179635714Y-121206964D01*
X179707142Y-121242678D01*
X179957142Y-121242678D01*
X179278571Y-121135535D02*
X179100000Y-121635535D01*
X178921428Y-121135535D02*
X179100000Y-121635535D01*
X179171428Y-121814107D01*
X179207142Y-121849821D01*
X179278571Y-121885535D01*
X178635714Y-121564107D02*
X178600000Y-121599821D01*
X178635714Y-121635535D01*
X178671428Y-121599821D01*
X178635714Y-121564107D01*
X178635714Y-121635535D01*
X178635714Y-121171250D02*
X178600000Y-121206964D01*
X178635714Y-121242678D01*
X178671428Y-121206964D01*
X178635714Y-121171250D01*
X178635714Y-121242678D01*
X186171428Y-122843035D02*
X186171428Y-122093035D01*
X185742857Y-122843035D02*
X186064285Y-122414464D01*
X185742857Y-122093035D02*
X186171428Y-122521607D01*
X185421428Y-122843035D02*
X185421428Y-122343035D01*
X185421428Y-122093035D02*
X185457142Y-122128750D01*
X185421428Y-122164464D01*
X185385714Y-122128750D01*
X185421428Y-122093035D01*
X185421428Y-122164464D01*
X184778571Y-122807321D02*
X184850000Y-122843035D01*
X184992857Y-122843035D01*
X185064285Y-122807321D01*
X185100000Y-122735892D01*
X185100000Y-122450178D01*
X185064285Y-122378750D01*
X184992857Y-122343035D01*
X184850000Y-122343035D01*
X184778571Y-122378750D01*
X184742857Y-122450178D01*
X184742857Y-122521607D01*
X185100000Y-122593035D01*
X184421428Y-122843035D02*
X184421428Y-122343035D01*
X184421428Y-122485892D02*
X184385714Y-122414464D01*
X184350000Y-122378750D01*
X184278571Y-122343035D01*
X184207142Y-122343035D01*
X183635714Y-122843035D02*
X183635714Y-122450178D01*
X183671428Y-122378750D01*
X183742857Y-122343035D01*
X183885714Y-122343035D01*
X183957142Y-122378750D01*
X183635714Y-122807321D02*
X183707142Y-122843035D01*
X183885714Y-122843035D01*
X183957142Y-122807321D01*
X183992857Y-122735892D01*
X183992857Y-122664464D01*
X183957142Y-122593035D01*
X183885714Y-122557321D01*
X183707142Y-122557321D01*
X183635714Y-122521607D01*
X183278571Y-122343035D02*
X183278571Y-122843035D01*
X183278571Y-122414464D02*
X183242857Y-122378750D01*
X183171428Y-122343035D01*
X183064285Y-122343035D01*
X182992857Y-122378750D01*
X182957142Y-122450178D01*
X182957142Y-122843035D01*
X182064285Y-122807321D02*
X181957142Y-122843035D01*
X181778571Y-122843035D01*
X181707142Y-122807321D01*
X181671428Y-122771607D01*
X181635714Y-122700178D01*
X181635714Y-122628750D01*
X181671428Y-122557321D01*
X181707142Y-122521607D01*
X181778571Y-122485892D01*
X181921428Y-122450178D01*
X181992857Y-122414464D01*
X182028571Y-122378750D01*
X182064285Y-122307321D01*
X182064285Y-122235892D01*
X182028571Y-122164464D01*
X181992857Y-122128750D01*
X181921428Y-122093035D01*
X181742857Y-122093035D01*
X181635714Y-122128750D01*
X181314285Y-122843035D02*
X181314285Y-122093035D01*
X180992857Y-122843035D02*
X180992857Y-122450178D01*
X181028571Y-122378750D01*
X181100000Y-122343035D01*
X181207142Y-122343035D01*
X181278571Y-122378750D01*
X181314285Y-122414464D01*
X180314285Y-122843035D02*
X180314285Y-122450178D01*
X180350000Y-122378750D01*
X180421428Y-122343035D01*
X180564285Y-122343035D01*
X180635714Y-122378750D01*
X180314285Y-122807321D02*
X180385714Y-122843035D01*
X180564285Y-122843035D01*
X180635714Y-122807321D01*
X180671428Y-122735892D01*
X180671428Y-122664464D01*
X180635714Y-122593035D01*
X180564285Y-122557321D01*
X180385714Y-122557321D01*
X180314285Y-122521607D01*
X179957142Y-122343035D02*
X179957142Y-122843035D01*
X179957142Y-122414464D02*
X179921428Y-122378750D01*
X179850000Y-122343035D01*
X179742857Y-122343035D01*
X179671428Y-122378750D01*
X179635714Y-122450178D01*
X179635714Y-122843035D01*
X179171428Y-122843035D02*
X179242857Y-122807321D01*
X179278571Y-122735892D01*
X179278571Y-122093035D01*
X178600000Y-122807321D02*
X178671428Y-122843035D01*
X178814285Y-122843035D01*
X178885714Y-122807321D01*
X178921428Y-122735892D01*
X178921428Y-122450178D01*
X178885714Y-122378750D01*
X178814285Y-122343035D01*
X178671428Y-122343035D01*
X178600000Y-122378750D01*
X178564285Y-122450178D01*
X178564285Y-122521607D01*
X178921428Y-122593035D01*
X178314285Y-122343035D02*
X178135714Y-122843035D01*
X177957142Y-122343035D02*
X178135714Y-122843035D01*
X178207142Y-123021607D01*
X178242857Y-123057321D01*
X178314285Y-123093035D01*
X125261904Y-103252380D02*
X125071428Y-103252380D01*
X124976190Y-103300000D01*
X124880952Y-103395238D01*
X124833333Y-103585714D01*
X124833333Y-103919047D01*
X124880952Y-104109523D01*
X124976190Y-104204761D01*
X125071428Y-104252380D01*
X125261904Y-104252380D01*
X125357142Y-104204761D01*
X125452380Y-104109523D01*
X125500000Y-103919047D01*
X125500000Y-103585714D01*
X125452380Y-103395238D01*
X125357142Y-103300000D01*
X125261904Y-103252380D01*
X124071428Y-103728571D02*
X123928571Y-103776190D01*
X123880952Y-103823809D01*
X123833333Y-103919047D01*
X123833333Y-104061904D01*
X123880952Y-104157142D01*
X123928571Y-104204761D01*
X124023809Y-104252380D01*
X124404761Y-104252380D01*
X124404761Y-103252380D01*
X124071428Y-103252380D01*
X123976190Y-103300000D01*
X123928571Y-103347619D01*
X123880952Y-103442857D01*
X123880952Y-103538095D01*
X123928571Y-103633333D01*
X123976190Y-103680952D01*
X124071428Y-103728571D01*
X124404761Y-103728571D01*
X122833333Y-104157142D02*
X122880952Y-104204761D01*
X123023809Y-104252380D01*
X123119047Y-104252380D01*
X123261904Y-104204761D01*
X123357142Y-104109523D01*
X123404761Y-104014285D01*
X123452380Y-103823809D01*
X123452380Y-103680952D01*
X123404761Y-103490476D01*
X123357142Y-103395238D01*
X123261904Y-103300000D01*
X123119047Y-103252380D01*
X123023809Y-103252380D01*
X122880952Y-103300000D01*
X122833333Y-103347619D01*
X122404761Y-104252380D02*
X122404761Y-103252380D01*
X122023809Y-103252380D01*
X121928571Y-103300000D01*
X121880952Y-103347619D01*
X121833333Y-103442857D01*
X121833333Y-103585714D01*
X121880952Y-103680952D01*
X121928571Y-103728571D01*
X122023809Y-103776190D01*
X122404761Y-103776190D01*
X121404761Y-104252380D02*
X121404761Y-103585714D01*
X121404761Y-103776190D02*
X121357142Y-103680952D01*
X121309523Y-103633333D01*
X121214285Y-103585714D01*
X121119047Y-103585714D01*
X120642857Y-104252380D02*
X120738095Y-104204761D01*
X120785714Y-104157142D01*
X120833333Y-104061904D01*
X120833333Y-103776190D01*
X120785714Y-103680952D01*
X120738095Y-103633333D01*
X120642857Y-103585714D01*
X120500000Y-103585714D01*
X120404761Y-103633333D01*
X120357142Y-103680952D01*
X120309523Y-103776190D01*
X120309523Y-104061904D01*
X120357142Y-104157142D01*
X120404761Y-104204761D01*
X120500000Y-104252380D01*
X120642857Y-104252380D01*
X120023809Y-103585714D02*
X119642857Y-103585714D01*
X119880952Y-103252380D02*
X119880952Y-104109523D01*
X119833333Y-104204761D01*
X119738095Y-104252380D01*
X119642857Y-104252380D01*
X119166666Y-104252380D02*
X119261904Y-104204761D01*
X119309523Y-104157142D01*
X119357142Y-104061904D01*
X119357142Y-103776190D01*
X119309523Y-103680952D01*
X119261904Y-103633333D01*
X119166666Y-103585714D01*
X119023809Y-103585714D01*
X118928571Y-103633333D01*
X118880952Y-103680952D01*
X118833333Y-103776190D01*
X118833333Y-104061904D01*
X118880952Y-104157142D01*
X118928571Y-104204761D01*
X119023809Y-104252380D01*
X119166666Y-104252380D01*
X117071428Y-104252380D02*
X117404761Y-103776190D01*
X117642857Y-104252380D02*
X117642857Y-103252380D01*
X117261904Y-103252380D01*
X117166666Y-103300000D01*
X117119047Y-103347619D01*
X117071428Y-103442857D01*
X117071428Y-103585714D01*
X117119047Y-103680952D01*
X117166666Y-103728571D01*
X117261904Y-103776190D01*
X117642857Y-103776190D01*
X116261904Y-104204761D02*
X116357142Y-104252380D01*
X116547619Y-104252380D01*
X116642857Y-104204761D01*
X116690476Y-104109523D01*
X116690476Y-103728571D01*
X116642857Y-103633333D01*
X116547619Y-103585714D01*
X116357142Y-103585714D01*
X116261904Y-103633333D01*
X116214285Y-103728571D01*
X116214285Y-103823809D01*
X116690476Y-103919047D01*
X115880952Y-103585714D02*
X115642857Y-104252380D01*
X115404761Y-103585714D01*
X114833333Y-103252380D02*
X114738095Y-103252380D01*
X114642857Y-103300000D01*
X114595238Y-103347619D01*
X114547619Y-103442857D01*
X114500000Y-103633333D01*
X114500000Y-103871428D01*
X114547619Y-104061904D01*
X114595238Y-104157142D01*
X114642857Y-104204761D01*
X114738095Y-104252380D01*
X114833333Y-104252380D01*
X114928571Y-104204761D01*
X114976190Y-104157142D01*
X115023809Y-104061904D01*
X115071428Y-103871428D01*
X115071428Y-103633333D01*
X115023809Y-103442857D01*
X114976190Y-103347619D01*
X114928571Y-103300000D01*
X114833333Y-103252380D01*
X160161904Y-115652380D02*
X159590476Y-115652380D01*
X159876190Y-116652380D02*
X159876190Y-115652380D01*
X159257142Y-116652380D02*
X159257142Y-115652380D01*
X158876190Y-115652380D01*
X158780952Y-115700000D01*
X158733333Y-115747619D01*
X158685714Y-115842857D01*
X158685714Y-115985714D01*
X158733333Y-116080952D01*
X158780952Y-116128571D01*
X158876190Y-116176190D01*
X159257142Y-116176190D01*
X158352380Y-115652380D02*
X157733333Y-115652380D01*
X158066666Y-116033333D01*
X157923809Y-116033333D01*
X157828571Y-116080952D01*
X157780952Y-116128571D01*
X157733333Y-116223809D01*
X157733333Y-116461904D01*
X157780952Y-116557142D01*
X157828571Y-116604761D01*
X157923809Y-116652380D01*
X158209523Y-116652380D01*
X158304761Y-116604761D01*
X158352380Y-116557142D01*
X160161904Y-114152380D02*
X159590476Y-114152380D01*
X159876190Y-115152380D02*
X159876190Y-114152380D01*
X159257142Y-115152380D02*
X159257142Y-114152380D01*
X158876190Y-114152380D01*
X158780952Y-114200000D01*
X158733333Y-114247619D01*
X158685714Y-114342857D01*
X158685714Y-114485714D01*
X158733333Y-114580952D01*
X158780952Y-114628571D01*
X158876190Y-114676190D01*
X159257142Y-114676190D01*
X157828571Y-114485714D02*
X157828571Y-115152380D01*
X158066666Y-114104761D02*
X158304761Y-114819047D01*
X157685714Y-114819047D01*
X116138095Y-114404380D02*
X115566666Y-114404380D01*
X115852380Y-115404380D02*
X115852380Y-114404380D01*
X115233333Y-115404380D02*
X115233333Y-114404380D01*
X114852380Y-114404380D01*
X114757142Y-114452000D01*
X114709523Y-114499619D01*
X114661904Y-114594857D01*
X114661904Y-114737714D01*
X114709523Y-114832952D01*
X114757142Y-114880571D01*
X114852380Y-114928190D01*
X115233333Y-114928190D01*
X113709523Y-115404380D02*
X114280952Y-115404380D01*
X113995238Y-115404380D02*
X113995238Y-114404380D01*
X114090476Y-114547238D01*
X114185714Y-114642476D01*
X114280952Y-114690095D01*
X113376190Y-114404380D02*
X112757142Y-114404380D01*
X113090476Y-114785333D01*
X112947619Y-114785333D01*
X112852380Y-114832952D01*
X112804761Y-114880571D01*
X112757142Y-114975809D01*
X112757142Y-115213904D01*
X112804761Y-115309142D01*
X112852380Y-115356761D01*
X112947619Y-115404380D01*
X113233333Y-115404380D01*
X113328571Y-115356761D01*
X113376190Y-115309142D01*
X166361904Y-85454380D02*
X165790476Y-85454380D01*
X166076190Y-86454380D02*
X166076190Y-85454380D01*
X165457142Y-86454380D02*
X165457142Y-85454380D01*
X165076190Y-85454380D01*
X164980952Y-85502000D01*
X164933333Y-85549619D01*
X164885714Y-85644857D01*
X164885714Y-85787714D01*
X164933333Y-85882952D01*
X164980952Y-85930571D01*
X165076190Y-85978190D01*
X165457142Y-85978190D01*
X164409523Y-86454380D02*
X164219047Y-86454380D01*
X164123809Y-86406761D01*
X164076190Y-86359142D01*
X163980952Y-86216285D01*
X163933333Y-86025809D01*
X163933333Y-85644857D01*
X163980952Y-85549619D01*
X164028571Y-85502000D01*
X164123809Y-85454380D01*
X164314285Y-85454380D01*
X164409523Y-85502000D01*
X164457142Y-85549619D01*
X164504761Y-85644857D01*
X164504761Y-85882952D01*
X164457142Y-85978190D01*
X164409523Y-86025809D01*
X164314285Y-86073428D01*
X164123809Y-86073428D01*
X164028571Y-86025809D01*
X163980952Y-85978190D01*
X163933333Y-85882952D01*
X177838095Y-101304380D02*
X177266666Y-101304380D01*
X177552380Y-102304380D02*
X177552380Y-101304380D01*
X176933333Y-102304380D02*
X176933333Y-101304380D01*
X176552380Y-101304380D01*
X176457142Y-101352000D01*
X176409523Y-101399619D01*
X176361904Y-101494857D01*
X176361904Y-101637714D01*
X176409523Y-101732952D01*
X176457142Y-101780571D01*
X176552380Y-101828190D01*
X176933333Y-101828190D01*
X175409523Y-102304380D02*
X175980952Y-102304380D01*
X175695238Y-102304380D02*
X175695238Y-101304380D01*
X175790476Y-101447238D01*
X175885714Y-101542476D01*
X175980952Y-101590095D01*
X175028571Y-101399619D02*
X174980952Y-101352000D01*
X174885714Y-101304380D01*
X174647619Y-101304380D01*
X174552380Y-101352000D01*
X174504761Y-101399619D01*
X174457142Y-101494857D01*
X174457142Y-101590095D01*
X174504761Y-101732952D01*
X175076190Y-102304380D01*
X174457142Y-102304380D01*
X153038095Y-92154380D02*
X152466666Y-92154380D01*
X152752380Y-93154380D02*
X152752380Y-92154380D01*
X152133333Y-93154380D02*
X152133333Y-92154380D01*
X151752380Y-92154380D01*
X151657142Y-92202000D01*
X151609523Y-92249619D01*
X151561904Y-92344857D01*
X151561904Y-92487714D01*
X151609523Y-92582952D01*
X151657142Y-92630571D01*
X151752380Y-92678190D01*
X152133333Y-92678190D01*
X150609523Y-93154380D02*
X151180952Y-93154380D01*
X150895238Y-93154380D02*
X150895238Y-92154380D01*
X150990476Y-92297238D01*
X151085714Y-92392476D01*
X151180952Y-92440095D01*
X149990476Y-92154380D02*
X149895238Y-92154380D01*
X149800000Y-92202000D01*
X149752380Y-92249619D01*
X149704761Y-92344857D01*
X149657142Y-92535333D01*
X149657142Y-92773428D01*
X149704761Y-92963904D01*
X149752380Y-93059142D01*
X149800000Y-93106761D01*
X149895238Y-93154380D01*
X149990476Y-93154380D01*
X150085714Y-93106761D01*
X150133333Y-93059142D01*
X150180952Y-92963904D01*
X150228571Y-92773428D01*
X150228571Y-92535333D01*
X150180952Y-92344857D01*
X150133333Y-92249619D01*
X150085714Y-92202000D01*
X149990476Y-92154380D01*
X157461904Y-114152380D02*
X156890476Y-114152380D01*
X157176190Y-115152380D02*
X157176190Y-114152380D01*
X156557142Y-115152380D02*
X156557142Y-114152380D01*
X156176190Y-114152380D01*
X156080952Y-114200000D01*
X156033333Y-114247619D01*
X155985714Y-114342857D01*
X155985714Y-114485714D01*
X156033333Y-114580952D01*
X156080952Y-114628571D01*
X156176190Y-114676190D01*
X156557142Y-114676190D01*
X155604761Y-114247619D02*
X155557142Y-114200000D01*
X155461904Y-114152380D01*
X155223809Y-114152380D01*
X155128571Y-114200000D01*
X155080952Y-114247619D01*
X155033333Y-114342857D01*
X155033333Y-114438095D01*
X155080952Y-114580952D01*
X155652380Y-115152380D01*
X155033333Y-115152380D01*
X156961904Y-115652380D02*
X156390476Y-115652380D01*
X156676190Y-116652380D02*
X156676190Y-115652380D01*
X156057142Y-116652380D02*
X156057142Y-115652380D01*
X155676190Y-115652380D01*
X155580952Y-115700000D01*
X155533333Y-115747619D01*
X155485714Y-115842857D01*
X155485714Y-115985714D01*
X155533333Y-116080952D01*
X155580952Y-116128571D01*
X155676190Y-116176190D01*
X156057142Y-116176190D01*
X154533333Y-116652380D02*
X155104761Y-116652380D01*
X154819047Y-116652380D02*
X154819047Y-115652380D01*
X154914285Y-115795238D01*
X155009523Y-115890476D01*
X155104761Y-115938095D01*
X174288095Y-101304380D02*
X173716666Y-101304380D01*
X174002380Y-102304380D02*
X174002380Y-101304380D01*
X173383333Y-102304380D02*
X173383333Y-101304380D01*
X173002380Y-101304380D01*
X172907142Y-101352000D01*
X172859523Y-101399619D01*
X172811904Y-101494857D01*
X172811904Y-101637714D01*
X172859523Y-101732952D01*
X172907142Y-101780571D01*
X173002380Y-101828190D01*
X173383333Y-101828190D01*
X171859523Y-102304380D02*
X172430952Y-102304380D01*
X172145238Y-102304380D02*
X172145238Y-101304380D01*
X172240476Y-101447238D01*
X172335714Y-101542476D01*
X172430952Y-101590095D01*
X170907142Y-102304380D02*
X171478571Y-102304380D01*
X171192857Y-102304380D02*
X171192857Y-101304380D01*
X171288095Y-101447238D01*
X171383333Y-101542476D01*
X171478571Y-101590095D01*
X170311904Y-85454380D02*
X169740476Y-85454380D01*
X170026190Y-86454380D02*
X170026190Y-85454380D01*
X169407142Y-86454380D02*
X169407142Y-85454380D01*
X169026190Y-85454380D01*
X168930952Y-85502000D01*
X168883333Y-85549619D01*
X168835714Y-85644857D01*
X168835714Y-85787714D01*
X168883333Y-85882952D01*
X168930952Y-85930571D01*
X169026190Y-85978190D01*
X169407142Y-85978190D01*
X168264285Y-85882952D02*
X168359523Y-85835333D01*
X168407142Y-85787714D01*
X168454761Y-85692476D01*
X168454761Y-85644857D01*
X168407142Y-85549619D01*
X168359523Y-85502000D01*
X168264285Y-85454380D01*
X168073809Y-85454380D01*
X167978571Y-85502000D01*
X167930952Y-85549619D01*
X167883333Y-85644857D01*
X167883333Y-85692476D01*
X167930952Y-85787714D01*
X167978571Y-85835333D01*
X168073809Y-85882952D01*
X168264285Y-85882952D01*
X168359523Y-85930571D01*
X168407142Y-85978190D01*
X168454761Y-86073428D01*
X168454761Y-86263904D01*
X168407142Y-86359142D01*
X168359523Y-86406761D01*
X168264285Y-86454380D01*
X168073809Y-86454380D01*
X167978571Y-86406761D01*
X167930952Y-86359142D01*
X167883333Y-86263904D01*
X167883333Y-86073428D01*
X167930952Y-85978190D01*
X167978571Y-85930571D01*
X168073809Y-85882952D01*
X136638095Y-113104380D02*
X136066666Y-113104380D01*
X136352380Y-114104380D02*
X136352380Y-113104380D01*
X135733333Y-114104380D02*
X135733333Y-113104380D01*
X135352380Y-113104380D01*
X135257142Y-113152000D01*
X135209523Y-113199619D01*
X135161904Y-113294857D01*
X135161904Y-113437714D01*
X135209523Y-113532952D01*
X135257142Y-113580571D01*
X135352380Y-113628190D01*
X135733333Y-113628190D01*
X134209523Y-114104380D02*
X134780952Y-114104380D01*
X134495238Y-114104380D02*
X134495238Y-113104380D01*
X134590476Y-113247238D01*
X134685714Y-113342476D01*
X134780952Y-113390095D01*
X133352380Y-113437714D02*
X133352380Y-114104380D01*
X133590476Y-113056761D02*
X133828571Y-113771047D01*
X133209523Y-113771047D01*
X163161904Y-115652380D02*
X162590476Y-115652380D01*
X162876190Y-116652380D02*
X162876190Y-115652380D01*
X162257142Y-116652380D02*
X162257142Y-115652380D01*
X161876190Y-115652380D01*
X161780952Y-115700000D01*
X161733333Y-115747619D01*
X161685714Y-115842857D01*
X161685714Y-115985714D01*
X161733333Y-116080952D01*
X161780952Y-116128571D01*
X161876190Y-116176190D01*
X162257142Y-116176190D01*
X160780952Y-115652380D02*
X161257142Y-115652380D01*
X161304761Y-116128571D01*
X161257142Y-116080952D01*
X161161904Y-116033333D01*
X160923809Y-116033333D01*
X160828571Y-116080952D01*
X160780952Y-116128571D01*
X160733333Y-116223809D01*
X160733333Y-116461904D01*
X160780952Y-116557142D01*
X160828571Y-116604761D01*
X160923809Y-116652380D01*
X161161904Y-116652380D01*
X161257142Y-116604761D01*
X161304761Y-116557142D01*
X162411904Y-85454380D02*
X161840476Y-85454380D01*
X162126190Y-86454380D02*
X162126190Y-85454380D01*
X161507142Y-86454380D02*
X161507142Y-85454380D01*
X161126190Y-85454380D01*
X161030952Y-85502000D01*
X160983333Y-85549619D01*
X160935714Y-85644857D01*
X160935714Y-85787714D01*
X160983333Y-85882952D01*
X161030952Y-85930571D01*
X161126190Y-85978190D01*
X161507142Y-85978190D01*
X160602380Y-85454380D02*
X159935714Y-85454380D01*
X160364285Y-86454380D01*
X163161904Y-114152380D02*
X162590476Y-114152380D01*
X162876190Y-115152380D02*
X162876190Y-114152380D01*
X162257142Y-115152380D02*
X162257142Y-114152380D01*
X161876190Y-114152380D01*
X161780952Y-114200000D01*
X161733333Y-114247619D01*
X161685714Y-114342857D01*
X161685714Y-114485714D01*
X161733333Y-114580952D01*
X161780952Y-114628571D01*
X161876190Y-114676190D01*
X162257142Y-114676190D01*
X160828571Y-114152380D02*
X161019047Y-114152380D01*
X161114285Y-114200000D01*
X161161904Y-114247619D01*
X161257142Y-114390476D01*
X161304761Y-114580952D01*
X161304761Y-114961904D01*
X161257142Y-115057142D01*
X161209523Y-115104761D01*
X161114285Y-115152380D01*
X160923809Y-115152380D01*
X160828571Y-115104761D01*
X160780952Y-115057142D01*
X160733333Y-114961904D01*
X160733333Y-114723809D01*
X160780952Y-114628571D01*
X160828571Y-114580952D01*
X160923809Y-114533333D01*
X161114285Y-114533333D01*
X161209523Y-114580952D01*
X161257142Y-114628571D01*
X161304761Y-114723809D01*
D11*
X124648527Y-105295717D02*
X124305851Y-105327368D01*
X124305851Y-105327368D02*
X124187200Y-105342849D01*
X124187200Y-105342849D02*
X123876815Y-105395440D01*
X123876815Y-105395440D02*
X123571279Y-105465614D01*
X123571279Y-105465614D02*
X123269256Y-105553830D01*
X123269256Y-105553830D02*
X122969407Y-105660546D01*
X122969407Y-105660546D02*
X122670397Y-105786221D01*
X122670397Y-105786221D02*
X122370887Y-105931313D01*
X122370887Y-105931313D02*
X122191934Y-106027021D01*
X122191934Y-106027021D02*
X122138588Y-106056678D01*
X122138588Y-106056678D02*
X122086791Y-106085797D01*
X122086791Y-106085797D02*
X122034502Y-106115580D01*
X122034502Y-106115580D02*
X121979676Y-106147231D01*
X121979676Y-106147231D02*
X121920271Y-106181951D01*
X121920271Y-106181951D02*
X121854244Y-106220943D01*
X121854244Y-106220943D02*
X121779550Y-106265408D01*
X121779550Y-106265408D02*
X121694148Y-106316549D01*
X121694148Y-106316549D02*
X121595993Y-106375568D01*
X121595993Y-106375568D02*
X121483043Y-106443668D01*
X121483043Y-106443668D02*
X121452393Y-106462168D01*
X121452393Y-106462168D02*
X121327555Y-106536920D01*
X121327555Y-106536920D02*
X121217199Y-106601542D01*
X121217199Y-106601542D02*
X121118943Y-106657240D01*
X121118943Y-106657240D02*
X121030407Y-106705221D01*
X121030407Y-106705221D02*
X120949208Y-106746691D01*
X120949208Y-106746691D02*
X120872965Y-106782856D01*
X120872965Y-106782856D02*
X120799296Y-106814923D01*
X120799296Y-106814923D02*
X120725820Y-106844098D01*
X120725820Y-106844098D02*
X120650156Y-106871587D01*
X120650156Y-106871587D02*
X120631200Y-106878138D01*
X120631200Y-106878138D02*
X120543657Y-106905463D01*
X120543657Y-106905463D02*
X120443393Y-106932329D01*
X120443393Y-106932329D02*
X120337958Y-106956905D01*
X120337958Y-106956905D02*
X120234904Y-106977358D01*
X120234904Y-106977358D02*
X120192259Y-106984580D01*
X120192259Y-106984580D02*
X120127915Y-106992314D01*
X120127915Y-106992314D02*
X120047815Y-106998032D01*
X120047815Y-106998032D02*
X119956425Y-107001733D01*
X119956425Y-107001733D02*
X119858207Y-107003415D01*
X119858207Y-107003415D02*
X119757628Y-107003078D01*
X119757628Y-107003078D02*
X119659150Y-107000720D01*
X119659150Y-107000720D02*
X119567239Y-106996340D01*
X119567239Y-106996340D02*
X119486359Y-106989936D01*
X119486359Y-106989936D02*
X119442480Y-106984780D01*
X119442480Y-106984780D02*
X119298483Y-106962788D01*
X119298483Y-106962788D02*
X119152692Y-106936162D01*
X119152692Y-106936162D02*
X119002596Y-106904276D01*
X119002596Y-106904276D02*
X118845683Y-106866508D01*
X118845683Y-106866508D02*
X118679444Y-106822232D01*
X118679444Y-106822232D02*
X118501367Y-106770826D01*
X118501367Y-106770826D02*
X118308940Y-106711664D01*
X118308940Y-106711664D02*
X118187720Y-106672887D01*
X118187720Y-106672887D02*
X118007557Y-106620236D01*
X118007557Y-106620236D02*
X117840117Y-106583201D01*
X117840117Y-106583201D02*
X117685123Y-106561786D01*
X117685123Y-106561786D02*
X117542295Y-106555991D01*
X117542295Y-106555991D02*
X117411353Y-106565821D01*
X117411353Y-106565821D02*
X117292017Y-106591276D01*
X117292017Y-106591276D02*
X117184009Y-106632360D01*
X117184009Y-106632360D02*
X117096576Y-106682483D01*
X117096576Y-106682483D02*
X117015805Y-106749433D01*
X117015805Y-106749433D02*
X116948942Y-106830991D01*
X116948942Y-106830991D02*
X116896044Y-106926899D01*
X116896044Y-106926899D02*
X116857164Y-107036899D01*
X116857164Y-107036899D02*
X116832358Y-107160734D01*
X116832358Y-107160734D02*
X116821681Y-107298146D01*
X116821681Y-107298146D02*
X116825187Y-107448877D01*
X116825187Y-107448877D02*
X116842932Y-107612670D01*
X116842932Y-107612670D02*
X116867849Y-107755080D01*
X116867849Y-107755080D02*
X116892794Y-107869616D01*
X116892794Y-107869616D02*
X116921466Y-107983798D01*
X116921466Y-107983798D02*
X116954646Y-108099815D01*
X116954646Y-108099815D02*
X116993111Y-108219859D01*
X116993111Y-108219859D02*
X117037642Y-108346121D01*
X117037642Y-108346121D02*
X117089018Y-108480791D01*
X117089018Y-108480791D02*
X117148019Y-108626059D01*
X117148019Y-108626059D02*
X117215425Y-108784117D01*
X117215425Y-108784117D02*
X117292013Y-108957155D01*
X117292013Y-108957155D02*
X117308884Y-108994600D01*
X117308884Y-108994600D02*
X117380624Y-109154235D01*
X117380624Y-109154235D02*
X117444064Y-109297487D01*
X117444064Y-109297487D02*
X117499840Y-109426226D01*
X117499840Y-109426226D02*
X117548586Y-109542318D01*
X117548586Y-109542318D02*
X117590936Y-109647633D01*
X117590936Y-109647633D02*
X117627525Y-109744038D01*
X117627525Y-109744038D02*
X117658987Y-109833402D01*
X117658987Y-109833402D02*
X117685957Y-109917593D01*
X117685957Y-109917593D02*
X117709068Y-109998479D01*
X117709068Y-109998479D02*
X117728956Y-110077930D01*
X117728956Y-110077930D02*
X117746255Y-110157812D01*
X117746255Y-110157812D02*
X117761599Y-110239995D01*
X117761599Y-110239995D02*
X117775622Y-110326347D01*
X117775622Y-110326347D02*
X117786532Y-110401226D01*
X117786532Y-110401226D02*
X117798649Y-110494117D01*
X117798649Y-110494117D02*
X117808321Y-110583522D01*
X117808321Y-110583522D02*
X117815707Y-110672883D01*
X117815707Y-110672883D02*
X117820962Y-110765645D01*
X117820962Y-110765645D02*
X117824245Y-110865249D01*
X117824245Y-110865249D02*
X117825711Y-110975140D01*
X117825711Y-110975140D02*
X117825519Y-111098760D01*
X117825519Y-111098760D02*
X117824054Y-111224720D01*
X117824054Y-111224720D02*
X117822497Y-111313452D01*
X117822497Y-111313452D02*
X117820526Y-111397765D01*
X117820526Y-111397765D02*
X117818007Y-111479795D01*
X117818007Y-111479795D02*
X117814808Y-111561678D01*
X117814808Y-111561678D02*
X117810796Y-111645547D01*
X117810796Y-111645547D02*
X117805836Y-111733539D01*
X117805836Y-111733539D02*
X117799797Y-111827790D01*
X117799797Y-111827790D02*
X117792543Y-111930434D01*
X117792543Y-111930434D02*
X117783944Y-112043606D01*
X117783944Y-112043606D02*
X117773864Y-112169443D01*
X117773864Y-112169443D02*
X117762171Y-112310079D01*
X117762171Y-112310079D02*
X117748732Y-112467650D01*
X117748732Y-112467650D02*
X117740682Y-112560760D01*
X117740682Y-112560760D02*
X117729056Y-112695363D01*
X117729056Y-112695363D02*
X117719116Y-112812427D01*
X117719116Y-112812427D02*
X117710709Y-112914649D01*
X117710709Y-112914649D02*
X117703681Y-113004727D01*
X117703681Y-113004727D02*
X117697879Y-113085358D01*
X117697879Y-113085358D02*
X117693148Y-113159240D01*
X117693148Y-113159240D02*
X117689334Y-113229070D01*
X117689334Y-113229070D02*
X117686285Y-113297545D01*
X117686285Y-113297545D02*
X117683847Y-113367363D01*
X117683847Y-113367363D02*
X117681865Y-113441222D01*
X117681865Y-113441222D02*
X117680187Y-113521818D01*
X117680187Y-113521818D02*
X117678657Y-113611850D01*
X117678657Y-113611850D02*
X117677873Y-113663120D01*
X117677873Y-113663120D02*
X117676334Y-113899965D01*
X117676334Y-113899965D02*
X117679227Y-114121555D01*
X117679227Y-114121555D02*
X117686789Y-114332513D01*
X117686789Y-114332513D02*
X117699257Y-114537465D01*
X117699257Y-114537465D02*
X117716868Y-114741037D01*
X117716868Y-114741037D02*
X117739858Y-114947855D01*
X117739858Y-114947855D02*
X117746288Y-114999160D01*
X117746288Y-114999160D02*
X117804192Y-115379655D01*
X117804192Y-115379655D02*
X117879083Y-115749004D01*
X117879083Y-115749004D02*
X117970925Y-116107157D01*
X117970925Y-116107157D02*
X118079682Y-116454064D01*
X118079682Y-116454064D02*
X118205320Y-116789676D01*
X118205320Y-116789676D02*
X118347802Y-117113943D01*
X118347802Y-117113943D02*
X118507093Y-117426816D01*
X118507093Y-117426816D02*
X118683158Y-117728245D01*
X118683158Y-117728245D02*
X118875960Y-118018179D01*
X118875960Y-118018179D02*
X119085464Y-118296570D01*
X119085464Y-118296570D02*
X119311634Y-118563369D01*
X119311634Y-118563369D02*
X119554435Y-118818524D01*
X119554435Y-118818524D02*
X119813832Y-119061987D01*
X119813832Y-119061987D02*
X120089788Y-119293708D01*
X120089788Y-119293708D02*
X120382268Y-119513637D01*
X120382268Y-119513637D02*
X120691236Y-119721726D01*
X120691236Y-119721726D02*
X121016657Y-119917923D01*
X121016657Y-119917923D02*
X121358496Y-120102179D01*
X121358496Y-120102179D02*
X121434316Y-120140322D01*
X121434316Y-120140322D02*
X121551631Y-120198615D01*
X121551631Y-120198615D02*
X121890928Y-120686863D01*
X121890928Y-120686863D02*
X122019925Y-120870835D01*
X122019925Y-120870835D02*
X122140068Y-121038613D01*
X122140068Y-121038613D02*
X122252538Y-121191671D01*
X122252538Y-121191671D02*
X122358513Y-121331486D01*
X122358513Y-121331486D02*
X122459173Y-121459532D01*
X122459173Y-121459532D02*
X122555699Y-121577286D01*
X122555699Y-121577286D02*
X122649269Y-121686223D01*
X122649269Y-121686223D02*
X122741063Y-121787817D01*
X122741063Y-121787817D02*
X122832260Y-121883546D01*
X122832260Y-121883546D02*
X122908649Y-121959898D01*
X122908649Y-121959898D02*
X123110008Y-122145470D01*
X123110008Y-122145470D02*
X123314021Y-122310960D01*
X123314021Y-122310960D02*
X123520850Y-122456450D01*
X123520850Y-122456450D02*
X123730654Y-122582024D01*
X123730654Y-122582024D02*
X123943594Y-122687765D01*
X123943594Y-122687765D02*
X124159831Y-122773757D01*
X124159831Y-122773757D02*
X124379524Y-122840083D01*
X124379524Y-122840083D02*
X124602834Y-122886827D01*
X124602834Y-122886827D02*
X124723638Y-122903799D01*
X124723638Y-122903799D02*
X124771248Y-122908066D01*
X124771248Y-122908066D02*
X124832658Y-122911637D01*
X124832658Y-122911637D02*
X124903521Y-122914447D01*
X124903521Y-122914447D02*
X124979492Y-122916429D01*
X124979492Y-122916429D02*
X125056224Y-122917519D01*
X125056224Y-122917519D02*
X125129371Y-122917650D01*
X125129371Y-122917650D02*
X125194588Y-122916756D01*
X125194588Y-122916756D02*
X125247528Y-122914773D01*
X125247528Y-122914773D02*
X125279400Y-122912207D01*
X125279400Y-122912207D02*
X125469395Y-122885197D01*
X125469395Y-122885197D02*
X125644500Y-122850644D01*
X125644500Y-122850644D02*
X125809165Y-122807238D01*
X125809165Y-122807238D02*
X125967839Y-122753671D01*
X125967839Y-122753671D02*
X126124974Y-122688633D01*
X126124974Y-122688633D02*
X126259840Y-122623768D01*
X126259840Y-122623768D02*
X126438606Y-122525097D01*
X126438606Y-122525097D02*
X126614553Y-122412429D01*
X126614553Y-122412429D02*
X126788582Y-122284959D01*
X126788582Y-122284959D02*
X126961594Y-122141880D01*
X126961594Y-122141880D02*
X127134490Y-121982389D01*
X127134490Y-121982389D02*
X127308171Y-121805680D01*
X127308171Y-121805680D02*
X127483538Y-121610948D01*
X127483538Y-121610948D02*
X127661492Y-121397388D01*
X127661492Y-121397388D02*
X127733040Y-121307225D01*
X127733040Y-121307225D02*
X127763470Y-121267375D01*
X127763470Y-121267375D02*
X127803789Y-121213028D01*
X127803789Y-121213028D02*
X127852382Y-121146438D01*
X127852382Y-121146438D02*
X127907634Y-121069857D01*
X127907634Y-121069857D02*
X127967930Y-120985540D01*
X127967930Y-120985540D02*
X128031654Y-120895738D01*
X128031654Y-120895738D02*
X128097192Y-120802705D01*
X128097192Y-120802705D02*
X128162927Y-120708694D01*
X128162927Y-120708694D02*
X128188911Y-120671326D01*
X128188911Y-120671326D02*
X128328129Y-120470778D01*
X128328129Y-120470778D02*
X126956084Y-120470778D01*
X126956084Y-120470778D02*
X126952089Y-120482050D01*
X126952089Y-120482050D02*
X126936248Y-120506715D01*
X126936248Y-120506715D02*
X126910079Y-120542856D01*
X126910079Y-120542856D02*
X126875101Y-120588561D01*
X126875101Y-120588561D02*
X126832832Y-120641912D01*
X126832832Y-120641912D02*
X126784791Y-120700997D01*
X126784791Y-120700997D02*
X126732494Y-120763900D01*
X126732494Y-120763900D02*
X126677462Y-120828706D01*
X126677462Y-120828706D02*
X126621212Y-120893500D01*
X126621212Y-120893500D02*
X126618100Y-120897040D01*
X126618100Y-120897040D02*
X126458137Y-121070292D01*
X126458137Y-121070292D02*
X126300176Y-121223854D01*
X126300176Y-121223854D02*
X126143523Y-121358173D01*
X126143523Y-121358173D02*
X125987482Y-121473700D01*
X125987482Y-121473700D02*
X125831359Y-121570883D01*
X125831359Y-121570883D02*
X125674458Y-121650171D01*
X125674458Y-121650171D02*
X125516085Y-121712013D01*
X125516085Y-121712013D02*
X125355545Y-121756858D01*
X125355545Y-121756858D02*
X125258070Y-121775764D01*
X125258070Y-121775764D02*
X125173142Y-121785219D01*
X125173142Y-121785219D02*
X125075410Y-121788874D01*
X125075410Y-121788874D02*
X124971474Y-121786971D01*
X124971474Y-121786971D02*
X124867931Y-121779749D01*
X124867931Y-121779749D02*
X124771380Y-121767447D01*
X124771380Y-121767447D02*
X124711220Y-121755882D01*
X124711220Y-121755882D02*
X124653738Y-121741806D01*
X124653738Y-121741806D02*
X124593773Y-121725442D01*
X124593773Y-121725442D02*
X124539513Y-121709106D01*
X124539513Y-121709106D02*
X124508020Y-121698458D01*
X124508020Y-121698458D02*
X124381514Y-121645624D01*
X124381514Y-121645624D02*
X124249631Y-121578031D01*
X124249631Y-121578031D02*
X124117196Y-121498494D01*
X124117196Y-121498494D02*
X123989037Y-121409826D01*
X123989037Y-121409826D02*
X123916177Y-121353393D01*
X123916177Y-121353393D02*
X123869297Y-121313472D01*
X123869297Y-121313472D02*
X123812102Y-121261628D01*
X123812102Y-121261628D02*
X123747851Y-121201058D01*
X123747851Y-121201058D02*
X123679802Y-121134960D01*
X123679802Y-121134960D02*
X123611214Y-121066532D01*
X123611214Y-121066532D02*
X123545346Y-120998972D01*
X123545346Y-120998972D02*
X123485455Y-120935478D01*
X123485455Y-120935478D02*
X123445986Y-120891960D01*
X123445986Y-120891960D02*
X123392746Y-120831080D01*
X123392746Y-120831080D02*
X123339955Y-120769139D01*
X123339955Y-120769139D02*
X123289160Y-120708099D01*
X123289160Y-120708099D02*
X123241904Y-120649926D01*
X123241904Y-120649926D02*
X123199733Y-120596584D01*
X123199733Y-120596584D02*
X123164192Y-120550037D01*
X123164192Y-120550037D02*
X123136825Y-120512250D01*
X123136825Y-120512250D02*
X123119177Y-120485186D01*
X123119177Y-120485186D02*
X123112793Y-120470812D01*
X123112793Y-120470812D02*
X123113479Y-120469156D01*
X123113479Y-120469156D02*
X123128877Y-120465374D01*
X123128877Y-120465374D02*
X123158607Y-120461112D01*
X123158607Y-120461112D02*
X123196720Y-120457196D01*
X123196720Y-120457196D02*
X123203530Y-120456631D01*
X123203530Y-120456631D02*
X123240407Y-120452983D01*
X123240407Y-120452983D02*
X123279978Y-120447523D01*
X123279978Y-120447523D02*
X123324430Y-120439760D01*
X123324430Y-120439760D02*
X123375953Y-120429202D01*
X123375953Y-120429202D02*
X123436733Y-120415357D01*
X123436733Y-120415357D02*
X123508960Y-120397733D01*
X123508960Y-120397733D02*
X123594819Y-120375838D01*
X123594819Y-120375838D02*
X123696501Y-120349181D01*
X123696501Y-120349181D02*
X123777871Y-120327529D01*
X123777871Y-120327529D02*
X123971126Y-120277298D01*
X123971126Y-120277298D02*
X124147772Y-120234535D01*
X124147772Y-120234535D02*
X124309970Y-120198932D01*
X124309970Y-120198932D02*
X124459885Y-120170181D01*
X124459885Y-120170181D02*
X124599679Y-120147976D01*
X124599679Y-120147976D02*
X124731517Y-120132009D01*
X124731517Y-120132009D02*
X124857562Y-120121973D01*
X124857562Y-120121973D02*
X124979977Y-120117561D01*
X124979977Y-120117561D02*
X125100926Y-120118467D01*
X125100926Y-120118467D02*
X125213084Y-120123752D01*
X125213084Y-120123752D02*
X125312506Y-120131197D01*
X125312506Y-120131197D02*
X125408266Y-120140608D01*
X125408266Y-120140608D02*
X125503048Y-120152494D01*
X125503048Y-120152494D02*
X125599535Y-120167364D01*
X125599535Y-120167364D02*
X125700414Y-120185725D01*
X125700414Y-120185725D02*
X125808367Y-120208086D01*
X125808367Y-120208086D02*
X125926080Y-120234955D01*
X125926080Y-120234955D02*
X126056237Y-120266841D01*
X126056237Y-120266841D02*
X126201521Y-120304252D01*
X126201521Y-120304252D02*
X126290320Y-120327760D01*
X126290320Y-120327760D02*
X126421233Y-120362255D01*
X126421233Y-120362255D02*
X126534119Y-120391018D01*
X126534119Y-120391018D02*
X126630354Y-120414347D01*
X126630354Y-120414347D02*
X126711317Y-120432541D01*
X126711317Y-120432541D02*
X126778384Y-120445900D01*
X126778384Y-120445900D02*
X126832933Y-120454723D01*
X126832933Y-120454723D02*
X126876340Y-120459309D01*
X126876340Y-120459309D02*
X126899837Y-120460160D01*
X126899837Y-120460160D02*
X126930048Y-120462165D01*
X126930048Y-120462165D02*
X126951107Y-120467267D01*
X126951107Y-120467267D02*
X126956084Y-120470778D01*
X126956084Y-120470778D02*
X128328129Y-120470778D01*
X128328129Y-120470778D02*
X128517782Y-120197578D01*
X128517782Y-120197578D02*
X128666313Y-120123129D01*
X128666313Y-120123129D02*
X129009718Y-119940936D01*
X129009718Y-119940936D02*
X129336746Y-119746835D01*
X129336746Y-119746835D02*
X129647367Y-119540860D01*
X129647367Y-119540860D02*
X129941549Y-119323046D01*
X129941549Y-119323046D02*
X130219262Y-119093426D01*
X130219262Y-119093426D02*
X130480475Y-118852036D01*
X130480475Y-118852036D02*
X130725156Y-118598911D01*
X130725156Y-118598911D02*
X130953276Y-118334084D01*
X130953276Y-118334084D02*
X131164803Y-118057591D01*
X131164803Y-118057591D02*
X131359706Y-117769466D01*
X131359706Y-117769466D02*
X131537955Y-117469744D01*
X131537955Y-117469744D02*
X131699518Y-117158459D01*
X131699518Y-117158459D02*
X131844366Y-116835645D01*
X131844366Y-116835645D02*
X131972466Y-116501338D01*
X131972466Y-116501338D02*
X132019179Y-116363891D01*
X132019179Y-116363891D02*
X132121957Y-116019611D01*
X132121957Y-116019611D02*
X132208479Y-115663650D01*
X132208479Y-115663650D02*
X132278659Y-115296631D01*
X132278659Y-115296631D02*
X132332412Y-114919179D01*
X132332412Y-114919179D02*
X132369652Y-114531918D01*
X132369652Y-114531918D02*
X132390292Y-114135472D01*
X132390292Y-114135472D02*
X132394247Y-113730466D01*
X132394247Y-113730466D02*
X132393017Y-113647880D01*
X132393017Y-113647880D02*
X132391268Y-113561362D01*
X132391268Y-113561362D02*
X132389391Y-113482812D01*
X132389391Y-113482812D02*
X132387235Y-113409758D01*
X132387235Y-113409758D02*
X132384651Y-113339730D01*
X132384651Y-113339730D02*
X132381490Y-113270259D01*
X132381490Y-113270259D02*
X132377601Y-113198873D01*
X132377601Y-113198873D02*
X132372836Y-113123102D01*
X132372836Y-113123102D02*
X132367045Y-113040476D01*
X132367045Y-113040476D02*
X132360078Y-112948525D01*
X132360078Y-112948525D02*
X132351786Y-112844778D01*
X132351786Y-112844778D02*
X132342020Y-112726765D01*
X132342020Y-112726765D02*
X132330629Y-112592017D01*
X132330629Y-112592017D02*
X132325362Y-112530280D01*
X132325362Y-112530280D02*
X132306214Y-112301528D01*
X132306214Y-112301528D02*
X132289533Y-112091518D01*
X132289533Y-112091518D02*
X132275279Y-111898828D01*
X132275279Y-111898828D02*
X132263412Y-111722035D01*
X132263412Y-111722035D02*
X132253893Y-111559716D01*
X132253893Y-111559716D02*
X132246684Y-111410448D01*
X132246684Y-111410448D02*
X132241746Y-111272809D01*
X132241746Y-111272809D02*
X132239038Y-111145375D01*
X132239038Y-111145375D02*
X132238522Y-111026725D01*
X132238522Y-111026725D02*
X132240158Y-110915435D01*
X132240158Y-110915435D02*
X132243909Y-110810083D01*
X132243909Y-110810083D02*
X132249733Y-110709245D01*
X132249733Y-110709245D02*
X132257593Y-110611500D01*
X132257593Y-110611500D02*
X132267448Y-110515424D01*
X132267448Y-110515424D02*
X132269422Y-110498280D01*
X132269422Y-110498280D02*
X132282664Y-110392671D01*
X132282664Y-110392671D02*
X132297189Y-110293742D01*
X132297189Y-110293742D02*
X132313658Y-110199444D01*
X132313658Y-110199444D02*
X132332728Y-110107727D01*
X132332728Y-110107727D02*
X132355061Y-110016543D01*
X132355061Y-110016543D02*
X132381315Y-109923842D01*
X132381315Y-109923842D02*
X132412151Y-109827575D01*
X132412151Y-109827575D02*
X132448227Y-109725693D01*
X132448227Y-109725693D02*
X132490203Y-109616148D01*
X132490203Y-109616148D02*
X132538739Y-109496889D01*
X132538739Y-109496889D02*
X132594494Y-109365869D01*
X132594494Y-109365869D02*
X132658128Y-109221037D01*
X132658128Y-109221037D02*
X132730301Y-109060344D01*
X132730301Y-109060344D02*
X132737072Y-109045400D01*
X132737072Y-109045400D02*
X132819494Y-108861075D01*
X132819494Y-108861075D02*
X132892443Y-108692290D01*
X132892443Y-108692290D02*
X132956627Y-108537001D01*
X132956627Y-108537001D02*
X133012759Y-108393165D01*
X133012759Y-108393165D02*
X133061547Y-108258737D01*
X133061547Y-108258737D02*
X133103701Y-108131673D01*
X133103701Y-108131673D02*
X133139932Y-108009929D01*
X133139932Y-108009929D02*
X133170951Y-107891463D01*
X133170951Y-107891463D02*
X133197466Y-107774228D01*
X133197466Y-107774228D02*
X133203965Y-107740462D01*
X133203965Y-107740462D02*
X132386320Y-107740462D01*
X132386320Y-107740462D02*
X132381770Y-107820637D01*
X132381770Y-107820637D02*
X132367877Y-107911319D01*
X132367877Y-107911319D02*
X132344281Y-108013985D01*
X132344281Y-108013985D02*
X132310617Y-108130108D01*
X132310617Y-108130108D02*
X132266525Y-108261164D01*
X132266525Y-108261164D02*
X132241807Y-108329120D01*
X132241807Y-108329120D02*
X132214084Y-108402320D01*
X132214084Y-108402320D02*
X132185418Y-108474883D01*
X132185418Y-108474883D02*
X132154718Y-108549273D01*
X132154718Y-108549273D02*
X132120893Y-108627959D01*
X132120893Y-108627959D02*
X132082853Y-108713406D01*
X132082853Y-108713406D02*
X132039505Y-108808080D01*
X132039505Y-108808080D02*
X131989759Y-108914450D01*
X131989759Y-108914450D02*
X131932523Y-109034980D01*
X131932523Y-109034980D02*
X131894298Y-109114780D01*
X131894298Y-109114780D02*
X131853470Y-109200104D01*
X131853470Y-109200104D02*
X131813602Y-109284004D01*
X131813602Y-109284004D02*
X131775983Y-109363726D01*
X131775983Y-109363726D02*
X131741901Y-109436517D01*
X131741901Y-109436517D02*
X131712647Y-109499622D01*
X131712647Y-109499622D02*
X131689508Y-109550286D01*
X131689508Y-109550286D02*
X131673773Y-109585756D01*
X131673773Y-109585756D02*
X131672402Y-109588960D01*
X131672402Y-109588960D02*
X131606146Y-109753111D01*
X131606146Y-109753111D02*
X131552065Y-109906879D01*
X131552065Y-109906879D02*
X131508917Y-110055138D01*
X131508917Y-110055138D02*
X131475460Y-110202764D01*
X131475460Y-110202764D02*
X131450449Y-110354633D01*
X131450449Y-110354633D02*
X131432644Y-110515620D01*
X131432644Y-110515620D02*
X131430867Y-110536575D01*
X131430867Y-110536575D02*
X131426327Y-110610812D01*
X131426327Y-110610812D02*
X131423273Y-110703308D01*
X131423273Y-110703308D02*
X131421666Y-110812058D01*
X131421666Y-110812058D02*
X131421468Y-110935060D01*
X131421468Y-110935060D02*
X131422642Y-111070307D01*
X131422642Y-111070307D02*
X131425150Y-111215797D01*
X131425150Y-111215797D02*
X131428954Y-111369526D01*
X131428954Y-111369526D02*
X131434015Y-111529489D01*
X131434015Y-111529489D02*
X131440296Y-111693682D01*
X131440296Y-111693682D02*
X131447759Y-111860101D01*
X131447759Y-111860101D02*
X131456366Y-112026742D01*
X131456366Y-112026742D02*
X131460439Y-112098480D01*
X131460439Y-112098480D02*
X131475630Y-112365610D01*
X131475630Y-112365610D02*
X131488860Y-112613328D01*
X131488860Y-112613328D02*
X131500154Y-112842441D01*
X131500154Y-112842441D02*
X131509537Y-113053759D01*
X131509537Y-113053759D02*
X131517036Y-113248092D01*
X131517036Y-113248092D02*
X131522674Y-113426248D01*
X131522674Y-113426248D02*
X131526478Y-113589038D01*
X131526478Y-113589038D02*
X131528474Y-113737270D01*
X131528474Y-113737270D02*
X131528685Y-113871753D01*
X131528685Y-113871753D02*
X131527139Y-113993297D01*
X131527139Y-113993297D02*
X131523859Y-114102711D01*
X131523859Y-114102711D02*
X131523556Y-114110160D01*
X131523556Y-114110160D02*
X131511174Y-114348191D01*
X131511174Y-114348191D02*
X131494170Y-114569518D01*
X131494170Y-114569518D02*
X131471996Y-114777345D01*
X131471996Y-114777345D02*
X131444103Y-114974873D01*
X131444103Y-114974873D02*
X131409941Y-115165307D01*
X131409941Y-115165307D02*
X131368961Y-115351850D01*
X131368961Y-115351850D02*
X131320615Y-115537705D01*
X131320615Y-115537705D02*
X131264352Y-115726075D01*
X131264352Y-115726075D02*
X131226922Y-115840582D01*
X131226922Y-115840582D02*
X131185112Y-115961486D01*
X131185112Y-115961486D02*
X131145371Y-116068608D01*
X131145371Y-116068608D02*
X131105145Y-116167956D01*
X131105145Y-116167956D02*
X131061881Y-116265534D01*
X131061881Y-116265534D02*
X131013024Y-116367347D01*
X131013024Y-116367347D02*
X130956019Y-116479403D01*
X130956019Y-116479403D02*
X130951755Y-116487600D01*
X130951755Y-116487600D02*
X130786841Y-116783832D01*
X130786841Y-116783832D02*
X130603407Y-117075394D01*
X130603407Y-117075394D02*
X130403137Y-117359781D01*
X130403137Y-117359781D02*
X130187714Y-117634486D01*
X130187714Y-117634486D02*
X130152838Y-117676320D01*
X130152838Y-117676320D02*
X130106586Y-117729313D01*
X130106586Y-117729313D02*
X130048446Y-117792736D01*
X130048446Y-117792736D02*
X129981160Y-117863849D01*
X129981160Y-117863849D02*
X129907472Y-117939908D01*
X129907472Y-117939908D02*
X129830123Y-118018172D01*
X129830123Y-118018172D02*
X129751858Y-118095899D01*
X129751858Y-118095899D02*
X129675418Y-118170349D01*
X129675418Y-118170349D02*
X129603547Y-118238778D01*
X129603547Y-118238778D02*
X129538988Y-118298445D01*
X129538988Y-118298445D02*
X129484483Y-118346608D01*
X129484483Y-118346608D02*
X129470400Y-118358489D01*
X129470400Y-118358489D02*
X129236467Y-118542585D01*
X129236467Y-118542585D02*
X129001286Y-118706712D01*
X129001286Y-118706712D02*
X128764262Y-118851209D01*
X128764262Y-118851209D02*
X128524800Y-118976416D01*
X128524800Y-118976416D02*
X128282307Y-119082673D01*
X128282307Y-119082673D02*
X128068388Y-119159973D01*
X128068388Y-119159973D02*
X127867001Y-119219173D01*
X127867001Y-119219173D02*
X127666820Y-119264404D01*
X127666820Y-119264404D02*
X127464414Y-119296068D01*
X127464414Y-119296068D02*
X127256354Y-119314566D01*
X127256354Y-119314566D02*
X127039210Y-119320299D01*
X127039210Y-119320299D02*
X126809552Y-119313670D01*
X126809552Y-119313670D02*
X126772920Y-119311580D01*
X126772920Y-119311580D02*
X126576330Y-119295675D01*
X126576330Y-119295675D02*
X126398650Y-119272874D01*
X126398650Y-119272874D02*
X126239643Y-119243090D01*
X126239643Y-119243090D02*
X126099073Y-119206235D01*
X126099073Y-119206235D02*
X125976705Y-119162220D01*
X125976705Y-119162220D02*
X125872301Y-119110959D01*
X125872301Y-119110959D02*
X125785627Y-119052363D01*
X125785627Y-119052363D02*
X125716446Y-118986345D01*
X125716446Y-118986345D02*
X125664521Y-118912816D01*
X125664521Y-118912816D02*
X125655621Y-118896083D01*
X125655621Y-118896083D02*
X125603039Y-118776638D01*
X125603039Y-118776638D02*
X125563305Y-118654229D01*
X125563305Y-118654229D02*
X125536897Y-118532005D01*
X125536897Y-118532005D02*
X125524297Y-118413119D01*
X125524297Y-118413119D02*
X125525983Y-118300721D01*
X125525983Y-118300721D02*
X125542435Y-118197962D01*
X125542435Y-118197962D02*
X125546846Y-118181280D01*
X125546846Y-118181280D02*
X125586319Y-118070642D01*
X125586319Y-118070642D02*
X125640840Y-117967806D01*
X125640840Y-117967806D02*
X125712182Y-117869934D01*
X125712182Y-117869934D02*
X125799013Y-117777169D01*
X125799013Y-117777169D02*
X125850424Y-117729340D01*
X125850424Y-117729340D02*
X125902878Y-117684415D01*
X125902878Y-117684415D02*
X125958399Y-117641120D01*
X125958399Y-117641120D02*
X126019006Y-117598185D01*
X126019006Y-117598185D02*
X126086721Y-117554336D01*
X126086721Y-117554336D02*
X126163565Y-117508302D01*
X126163565Y-117508302D02*
X126251559Y-117458811D01*
X126251559Y-117458811D02*
X126352725Y-117404591D01*
X126352725Y-117404591D02*
X126469083Y-117344370D01*
X126469083Y-117344370D02*
X126559560Y-117298514D01*
X126559560Y-117298514D02*
X126685732Y-117234609D01*
X126685732Y-117234609D02*
X126795217Y-117178223D01*
X126795217Y-117178223D02*
X126889758Y-117128313D01*
X126889758Y-117128313D02*
X126971096Y-117083834D01*
X126971096Y-117083834D02*
X127040974Y-117043742D01*
X127040974Y-117043742D02*
X127101134Y-117006995D01*
X127101134Y-117006995D02*
X127153316Y-116972547D01*
X127153316Y-116972547D02*
X127199263Y-116939356D01*
X127199263Y-116939356D02*
X127240716Y-116906377D01*
X127240716Y-116906377D02*
X127279418Y-116872567D01*
X127279418Y-116872567D02*
X127296007Y-116857174D01*
X127296007Y-116857174D02*
X127364748Y-116784819D01*
X127364748Y-116784819D02*
X127416515Y-116712435D01*
X127416515Y-116712435D02*
X127454208Y-116635750D01*
X127454208Y-116635750D02*
X127463540Y-116610286D01*
X127463540Y-116610286D02*
X127493706Y-116493547D01*
X127493706Y-116493547D02*
X127508251Y-116370008D01*
X127508251Y-116370008D02*
X127507881Y-116242654D01*
X127507881Y-116242654D02*
X127493301Y-116114469D01*
X127493301Y-116114469D02*
X127465216Y-115988438D01*
X127465216Y-115988438D02*
X127424331Y-115867544D01*
X127424331Y-115867544D02*
X127371351Y-115754773D01*
X127371351Y-115754773D02*
X127306981Y-115653108D01*
X127306981Y-115653108D02*
X127231926Y-115565534D01*
X127231926Y-115565534D02*
X127212290Y-115546842D01*
X127212290Y-115546842D02*
X127184368Y-115523561D01*
X127184368Y-115523561D02*
X127151169Y-115499089D01*
X127151169Y-115499089D02*
X127116855Y-115476070D01*
X127116855Y-115476070D02*
X127085587Y-115457146D01*
X127085587Y-115457146D02*
X127061528Y-115444960D01*
X127061528Y-115444960D02*
X127048840Y-115442154D01*
X127048840Y-115442154D02*
X127048214Y-115442652D01*
X127048214Y-115442652D02*
X127042213Y-115452649D01*
X127042213Y-115452649D02*
X127029128Y-115475416D01*
X127029128Y-115475416D02*
X127012037Y-115505593D01*
X127012037Y-115505593D02*
X126965909Y-115577260D01*
X126965909Y-115577260D02*
X126905564Y-115654928D01*
X126905564Y-115654928D02*
X126834394Y-115734462D01*
X126834394Y-115734462D02*
X126777045Y-115791812D01*
X126777045Y-115791812D02*
X126652254Y-115897616D01*
X126652254Y-115897616D02*
X126511132Y-115993278D01*
X126511132Y-115993278D02*
X126355144Y-116078460D01*
X126355144Y-116078460D02*
X126185759Y-116152826D01*
X126185759Y-116152826D02*
X126004443Y-116216039D01*
X126004443Y-116216039D02*
X125812662Y-116267760D01*
X125812662Y-116267760D02*
X125611883Y-116307654D01*
X125611883Y-116307654D02*
X125403573Y-116335382D01*
X125403573Y-116335382D02*
X125189198Y-116350609D01*
X125189198Y-116350609D02*
X124970224Y-116352995D01*
X124970224Y-116352995D02*
X124748120Y-116342206D01*
X124748120Y-116342206D02*
X124524350Y-116317903D01*
X124524350Y-116317903D02*
X124502160Y-116314749D01*
X124502160Y-116314749D02*
X124276469Y-116273048D01*
X124276469Y-116273048D02*
X124060628Y-116215059D01*
X124060628Y-116215059D02*
X123856006Y-116141190D01*
X123856006Y-116141190D02*
X123730000Y-116085014D01*
X123730000Y-116085014D02*
X123570191Y-115999764D01*
X123570191Y-115999764D02*
X123428219Y-115906357D01*
X123428219Y-115906357D02*
X123302907Y-115803797D01*
X123302907Y-115803797D02*
X123193077Y-115691090D01*
X123193077Y-115691090D02*
X123097551Y-115567240D01*
X123097551Y-115567240D02*
X123072944Y-115530020D01*
X123072944Y-115530020D02*
X123048768Y-115493197D01*
X123048768Y-115493197D02*
X123028226Y-115463814D01*
X123028226Y-115463814D02*
X123013914Y-115445470D01*
X123013914Y-115445470D02*
X123008895Y-115441120D01*
X123008895Y-115441120D02*
X122992544Y-115447326D01*
X122992544Y-115447326D02*
X122965079Y-115463919D01*
X122965079Y-115463919D02*
X122930641Y-115487861D01*
X122930641Y-115487861D02*
X122893372Y-115516114D01*
X122893372Y-115516114D02*
X122857409Y-115545638D01*
X122857409Y-115545638D02*
X122826895Y-115573395D01*
X122826895Y-115573395D02*
X122821983Y-115578292D01*
X122821983Y-115578292D02*
X122736503Y-115679347D01*
X122736503Y-115679347D02*
X122665285Y-115793342D01*
X122665285Y-115793342D02*
X122609268Y-115917872D01*
X122609268Y-115917872D02*
X122569393Y-116050532D01*
X122569393Y-116050532D02*
X122546600Y-116188919D01*
X122546600Y-116188919D02*
X122541280Y-116296216D01*
X122541280Y-116296216D02*
X122547130Y-116410319D01*
X122547130Y-116410319D02*
X122565394Y-116510857D01*
X122565394Y-116510857D02*
X122597144Y-116601129D01*
X122597144Y-116601129D02*
X122643453Y-116684429D01*
X122643453Y-116684429D02*
X122686200Y-116741682D01*
X122686200Y-116741682D02*
X122726166Y-116785987D01*
X122726166Y-116785987D02*
X122773175Y-116830188D01*
X122773175Y-116830188D02*
X122828724Y-116875254D01*
X122828724Y-116875254D02*
X122894309Y-116922155D01*
X122894309Y-116922155D02*
X122971428Y-116971861D01*
X122971428Y-116971861D02*
X123061579Y-117025342D01*
X123061579Y-117025342D02*
X123166258Y-117083566D01*
X123166258Y-117083566D02*
X123286962Y-117147504D01*
X123286962Y-117147504D02*
X123409960Y-117210444D01*
X123409960Y-117210444D02*
X123489155Y-117250657D01*
X123489155Y-117250657D02*
X123568228Y-117291203D01*
X123568228Y-117291203D02*
X123643859Y-117330350D01*
X123643859Y-117330350D02*
X123712725Y-117366365D01*
X123712725Y-117366365D02*
X123771504Y-117397518D01*
X123771504Y-117397518D02*
X123816874Y-117422075D01*
X123816874Y-117422075D02*
X123831600Y-117430269D01*
X123831600Y-117430269D02*
X123988692Y-117525158D01*
X123988692Y-117525158D02*
X124125794Y-117621590D01*
X124125794Y-117621590D02*
X124243207Y-117720026D01*
X124243207Y-117720026D02*
X124341234Y-117820925D01*
X124341234Y-117820925D02*
X124420174Y-117924749D01*
X124420174Y-117924749D02*
X124480330Y-118031957D01*
X124480330Y-118031957D02*
X124522002Y-118143010D01*
X124522002Y-118143010D02*
X124545492Y-118258368D01*
X124545492Y-118258368D02*
X124551102Y-118378492D01*
X124551102Y-118378492D02*
X124539133Y-118503843D01*
X124539133Y-118503843D02*
X124538147Y-118509846D01*
X124538147Y-118509846D02*
X124501899Y-118667820D01*
X124501899Y-118667820D02*
X124447258Y-118821658D01*
X124447258Y-118821658D02*
X124421685Y-118878594D01*
X124421685Y-118878594D02*
X124377918Y-118953730D01*
X124377918Y-118953730D02*
X124322127Y-119019354D01*
X124322127Y-119019354D02*
X124252546Y-119076799D01*
X124252546Y-119076799D02*
X124167408Y-119127399D01*
X124167408Y-119127399D02*
X124064949Y-119172486D01*
X124064949Y-119172486D02*
X124003206Y-119194540D01*
X124003206Y-119194540D02*
X123878825Y-119230852D01*
X123878825Y-119230852D02*
X123741790Y-119260750D01*
X123741790Y-119260750D02*
X123590567Y-119284453D01*
X123590567Y-119284453D02*
X123423627Y-119302180D01*
X123423627Y-119302180D02*
X123239437Y-119314147D01*
X123239437Y-119314147D02*
X123135640Y-119318189D01*
X123135640Y-119318189D02*
X122897994Y-119318356D01*
X122897994Y-119318356D02*
X122670314Y-119303368D01*
X122670314Y-119303368D02*
X122448400Y-119272636D01*
X122448400Y-119272636D02*
X122228051Y-119225571D01*
X122228051Y-119225571D02*
X122005067Y-119161585D01*
X122005067Y-119161585D02*
X121995296Y-119158426D01*
X121995296Y-119158426D02*
X121751326Y-119068906D01*
X121751326Y-119068906D02*
X121509410Y-118959754D01*
X121509410Y-118959754D02*
X121270311Y-118831615D01*
X121270311Y-118831615D02*
X121034794Y-118685135D01*
X121034794Y-118685135D02*
X120803620Y-118520961D01*
X120803620Y-118520961D02*
X120577554Y-118339738D01*
X120577554Y-118339738D02*
X120357359Y-118142113D01*
X120357359Y-118142113D02*
X120143797Y-117928731D01*
X120143797Y-117928731D02*
X119937633Y-117700239D01*
X119937633Y-117700239D02*
X119739629Y-117457284D01*
X119739629Y-117457284D02*
X119550549Y-117200510D01*
X119550549Y-117200510D02*
X119380160Y-116944800D01*
X119380160Y-116944800D02*
X119216689Y-116671717D01*
X119216689Y-116671717D02*
X119072783Y-116398253D01*
X119072783Y-116398253D02*
X118947750Y-116122454D01*
X118947750Y-116122454D02*
X118840895Y-115842363D01*
X118840895Y-115842363D02*
X118751526Y-115556023D01*
X118751526Y-115556023D02*
X118678949Y-115261481D01*
X118678949Y-115261481D02*
X118622472Y-114956779D01*
X118622472Y-114956779D02*
X118589596Y-114714680D01*
X118589596Y-114714680D02*
X118577952Y-114609472D01*
X118577952Y-114609472D02*
X118568364Y-114511662D01*
X118568364Y-114511662D02*
X118560655Y-114417643D01*
X118560655Y-114417643D02*
X118554649Y-114323811D01*
X118554649Y-114323811D02*
X118550171Y-114226558D01*
X118550171Y-114226558D02*
X118547044Y-114122279D01*
X118547044Y-114122279D02*
X118545092Y-114007367D01*
X118545092Y-114007367D02*
X118544140Y-113878216D01*
X118544140Y-113878216D02*
X118543974Y-113779960D01*
X118543974Y-113779960D02*
X118544105Y-113686675D01*
X118544105Y-113686675D02*
X118544534Y-113598889D01*
X118544534Y-113598889D02*
X118545333Y-113514628D01*
X118545333Y-113514628D02*
X118546571Y-113431915D01*
X118546571Y-113431915D02*
X118548322Y-113348775D01*
X118548322Y-113348775D02*
X118550655Y-113263233D01*
X118550655Y-113263233D02*
X118553643Y-113173313D01*
X118553643Y-113173313D02*
X118557357Y-113077040D01*
X118557357Y-113077040D02*
X118561868Y-112972438D01*
X118561868Y-112972438D02*
X118567248Y-112857532D01*
X118567248Y-112857532D02*
X118573568Y-112730346D01*
X118573568Y-112730346D02*
X118580899Y-112588906D01*
X118580899Y-112588906D02*
X118589313Y-112431235D01*
X118589313Y-112431235D02*
X118598881Y-112255358D01*
X118598881Y-112255358D02*
X118599404Y-112245800D01*
X118599404Y-112245800D02*
X118608257Y-112083780D01*
X118608257Y-112083780D02*
X118616021Y-111940284D01*
X118616021Y-111940284D02*
X118622768Y-111813548D01*
X118622768Y-111813548D02*
X118628567Y-111701809D01*
X118628567Y-111701809D02*
X118633489Y-111603302D01*
X118633489Y-111603302D02*
X118637605Y-111516265D01*
X118637605Y-111516265D02*
X118640984Y-111438934D01*
X118640984Y-111438934D02*
X118643698Y-111369545D01*
X118643698Y-111369545D02*
X118645817Y-111306336D01*
X118645817Y-111306336D02*
X118647412Y-111247541D01*
X118647412Y-111247541D02*
X118648552Y-111191399D01*
X118648552Y-111191399D02*
X118649308Y-111136145D01*
X118649308Y-111136145D02*
X118649751Y-111080017D01*
X118649751Y-111080017D02*
X118649952Y-111021249D01*
X118649952Y-111021249D02*
X118649985Y-110979815D01*
X118649985Y-110979815D02*
X118648952Y-110825510D01*
X118648952Y-110825510D02*
X118645444Y-110684233D01*
X118645444Y-110684233D02*
X118638874Y-110553663D01*
X118638874Y-110553663D02*
X118628653Y-110431478D01*
X118628653Y-110431478D02*
X118614193Y-110315354D01*
X118614193Y-110315354D02*
X118594908Y-110202972D01*
X118594908Y-110202972D02*
X118570209Y-110092008D01*
X118570209Y-110092008D02*
X118539508Y-109980141D01*
X118539508Y-109980141D02*
X118502217Y-109865049D01*
X118502217Y-109865049D02*
X118457749Y-109744409D01*
X118457749Y-109744409D02*
X118405516Y-109615901D01*
X118405516Y-109615901D02*
X118344929Y-109477201D01*
X118344929Y-109477201D02*
X118275402Y-109325988D01*
X118275402Y-109325988D02*
X118196347Y-109159941D01*
X118196347Y-109159941D02*
X118181487Y-109129182D01*
X118181487Y-109129182D02*
X118119770Y-109001062D01*
X118119770Y-109001062D02*
X118066239Y-108888565D01*
X118066239Y-108888565D02*
X118019786Y-108789244D01*
X118019786Y-108789244D02*
X117979302Y-108700653D01*
X117979302Y-108700653D02*
X117943679Y-108620343D01*
X117943679Y-108620343D02*
X117911808Y-108545869D01*
X117911808Y-108545869D02*
X117882581Y-108474784D01*
X117882581Y-108474784D02*
X117865058Y-108430720D01*
X117865058Y-108430720D02*
X117837907Y-108358996D01*
X117837907Y-108358996D02*
X117809758Y-108280070D01*
X117809758Y-108280070D02*
X117781982Y-108198197D01*
X117781982Y-108198197D02*
X117755948Y-108117632D01*
X117755948Y-108117632D02*
X117733027Y-108042631D01*
X117733027Y-108042631D02*
X117714589Y-107977449D01*
X117714589Y-107977449D02*
X117702005Y-107926341D01*
X117702005Y-107926341D02*
X117700800Y-107920608D01*
X117700800Y-107920608D02*
X117693071Y-107871282D01*
X117693071Y-107871282D02*
X117687907Y-107814783D01*
X117687907Y-107814783D02*
X117685402Y-107756440D01*
X117685402Y-107756440D02*
X117685645Y-107701583D01*
X117685645Y-107701583D02*
X117688731Y-107655543D01*
X117688731Y-107655543D02*
X117694750Y-107623649D01*
X117694750Y-107623649D02*
X117695637Y-107621121D01*
X117695637Y-107621121D02*
X117724410Y-107573459D01*
X117724410Y-107573459D02*
X117770685Y-107535959D01*
X117770685Y-107535959D02*
X117834312Y-107508720D01*
X117834312Y-107508720D02*
X117886130Y-107496339D01*
X117886130Y-107496339D02*
X117925916Y-107491036D01*
X117925916Y-107491036D02*
X117967225Y-107489925D01*
X117967225Y-107489925D02*
X118012586Y-107493514D01*
X118012586Y-107493514D02*
X118064529Y-107502310D01*
X118064529Y-107502310D02*
X118125585Y-107516822D01*
X118125585Y-107516822D02*
X118198282Y-107537556D01*
X118198282Y-107537556D02*
X118285152Y-107565020D01*
X118285152Y-107565020D02*
X118370600Y-107593552D01*
X118370600Y-107593552D02*
X118448775Y-107619700D01*
X118448775Y-107619700D02*
X118529923Y-107646145D01*
X118529923Y-107646145D02*
X118609210Y-107671361D01*
X118609210Y-107671361D02*
X118681800Y-107693821D01*
X118681800Y-107693821D02*
X118742858Y-107711999D01*
X118742858Y-107711999D02*
X118771185Y-107720007D01*
X118771185Y-107720007D02*
X119060227Y-107791384D01*
X119060227Y-107791384D02*
X119341360Y-107844791D01*
X119341360Y-107844791D02*
X119614395Y-107880235D01*
X119614395Y-107880235D02*
X119879143Y-107897722D01*
X119879143Y-107897722D02*
X120135415Y-107897260D01*
X120135415Y-107897260D02*
X120383022Y-107878854D01*
X120383022Y-107878854D02*
X120621775Y-107842511D01*
X120621775Y-107842511D02*
X120851485Y-107788239D01*
X120851485Y-107788239D02*
X121071962Y-107716042D01*
X121071962Y-107716042D02*
X121268862Y-107632675D01*
X121268862Y-107632675D02*
X121315863Y-107609813D01*
X121315863Y-107609813D02*
X121364939Y-107584546D01*
X121364939Y-107584546D02*
X121418044Y-107555734D01*
X121418044Y-107555734D02*
X121477134Y-107522235D01*
X121477134Y-107522235D02*
X121544165Y-107482908D01*
X121544165Y-107482908D02*
X121621091Y-107436614D01*
X121621091Y-107436614D02*
X121709869Y-107382210D01*
X121709869Y-107382210D02*
X121812453Y-107318556D01*
X121812453Y-107318556D02*
X121885960Y-107272621D01*
X121885960Y-107272621D02*
X122030054Y-107182820D01*
X122030054Y-107182820D02*
X122159574Y-107103099D01*
X122159574Y-107103099D02*
X122276785Y-107032167D01*
X122276785Y-107032167D02*
X122383951Y-106968731D01*
X122383951Y-106968731D02*
X122483337Y-106911497D01*
X122483337Y-106911497D02*
X122577208Y-106859172D01*
X122577208Y-106859172D02*
X122667828Y-106810464D01*
X122667828Y-106810464D02*
X122757462Y-106764078D01*
X122757462Y-106764078D02*
X122848374Y-106718723D01*
X122848374Y-106718723D02*
X122899957Y-106693644D01*
X122899957Y-106693644D02*
X123156567Y-106577217D01*
X123156567Y-106577217D02*
X123409251Y-106477775D01*
X123409251Y-106477775D02*
X123661905Y-106394199D01*
X123661905Y-106394199D02*
X123918427Y-106325371D01*
X123918427Y-106325371D02*
X124182713Y-106270175D01*
X124182713Y-106270175D02*
X124458661Y-106227492D01*
X124458661Y-106227492D02*
X124573280Y-106213660D01*
X124573280Y-106213660D02*
X124624732Y-106209421D01*
X124624732Y-106209421D02*
X124694823Y-106206017D01*
X124694823Y-106206017D02*
X124781886Y-106203489D01*
X124781886Y-106203489D02*
X124884256Y-106201883D01*
X124884256Y-106201883D02*
X125000267Y-106201242D01*
X125000267Y-106201242D02*
X125045720Y-106201257D01*
X125045720Y-106201257D02*
X125149092Y-106201629D01*
X125149092Y-106201629D02*
X125235474Y-106202434D01*
X125235474Y-106202434D02*
X125308196Y-106203811D01*
X125308196Y-106203811D02*
X125370586Y-106205899D01*
X125370586Y-106205899D02*
X125425975Y-106208839D01*
X125425975Y-106208839D02*
X125477689Y-106212771D01*
X125477689Y-106212771D02*
X125529059Y-106217832D01*
X125529059Y-106217832D02*
X125579120Y-106223638D01*
X125579120Y-106223638D02*
X125858506Y-106265047D01*
X125858506Y-106265047D02*
X126128467Y-106320178D01*
X126128467Y-106320178D02*
X126392128Y-106389995D01*
X126392128Y-106389995D02*
X126652613Y-106475463D01*
X126652613Y-106475463D02*
X126913045Y-106577546D01*
X126913045Y-106577546D02*
X127176548Y-106697207D01*
X127176548Y-106697207D02*
X127280920Y-106748898D01*
X127280920Y-106748898D02*
X127352359Y-106785404D01*
X127352359Y-106785404D02*
X127420115Y-106820814D01*
X127420115Y-106820814D02*
X127486393Y-106856406D01*
X127486393Y-106856406D02*
X127553401Y-106893458D01*
X127553401Y-106893458D02*
X127623342Y-106933249D01*
X127623342Y-106933249D02*
X127698422Y-106977056D01*
X127698422Y-106977056D02*
X127780848Y-107026157D01*
X127780848Y-107026157D02*
X127872824Y-107081831D01*
X127872824Y-107081831D02*
X127976556Y-107145356D01*
X127976556Y-107145356D02*
X128094249Y-107218010D01*
X128094249Y-107218010D02*
X128149600Y-107252315D01*
X128149600Y-107252315D02*
X128253174Y-107316524D01*
X128253174Y-107316524D02*
X128341358Y-107371060D01*
X128341358Y-107371060D02*
X128415996Y-107417018D01*
X128415996Y-107417018D02*
X128478935Y-107455487D01*
X128478935Y-107455487D02*
X128532018Y-107487561D01*
X128532018Y-107487561D02*
X128577093Y-107514330D01*
X128577093Y-107514330D02*
X128616002Y-107536887D01*
X128616002Y-107536887D02*
X128650592Y-107556324D01*
X128650592Y-107556324D02*
X128682707Y-107573733D01*
X128682707Y-107573733D02*
X128714194Y-107590204D01*
X128714194Y-107590204D02*
X128746896Y-107606831D01*
X128746896Y-107606831D02*
X128758788Y-107612797D01*
X128758788Y-107612797D02*
X128961818Y-107703175D01*
X128961818Y-107703175D02*
X129175513Y-107776560D01*
X129175513Y-107776560D02*
X129399320Y-107832902D01*
X129399320Y-107832902D02*
X129632689Y-107872155D01*
X129632689Y-107872155D02*
X129875068Y-107894268D01*
X129875068Y-107894268D02*
X130125907Y-107899195D01*
X130125907Y-107899195D02*
X130384654Y-107886886D01*
X130384654Y-107886886D02*
X130650758Y-107857293D01*
X130650758Y-107857293D02*
X130923669Y-107810368D01*
X130923669Y-107810368D02*
X130948680Y-107805265D01*
X130948680Y-107805265D02*
X131078434Y-107776526D01*
X131078434Y-107776526D02*
X131211406Y-107743088D01*
X131211406Y-107743088D02*
X131351340Y-107703903D01*
X131351340Y-107703903D02*
X131501982Y-107657921D01*
X131501982Y-107657921D02*
X131667075Y-107604091D01*
X131667075Y-107604091D02*
X131670040Y-107603098D01*
X131670040Y-107603098D02*
X131772829Y-107569154D01*
X131772829Y-107569154D02*
X131859006Y-107541960D01*
X131859006Y-107541960D02*
X131930942Y-107521015D01*
X131930942Y-107521015D02*
X131991009Y-107505822D01*
X131991009Y-107505822D02*
X132041578Y-107495882D01*
X132041578Y-107495882D02*
X132085020Y-107490696D01*
X132085020Y-107490696D02*
X132123706Y-107489765D01*
X132123706Y-107489765D02*
X132160009Y-107492590D01*
X132160009Y-107492590D02*
X132180607Y-107495701D01*
X132180607Y-107495701D02*
X132252939Y-107513270D01*
X132252939Y-107513270D02*
X132307642Y-107538926D01*
X132307642Y-107538926D02*
X132346506Y-107574798D01*
X132346506Y-107574798D02*
X132371319Y-107623014D01*
X132371319Y-107623014D02*
X132383871Y-107685703D01*
X132383871Y-107685703D02*
X132386320Y-107740462D01*
X132386320Y-107740462D02*
X133203965Y-107740462D01*
X133203965Y-107740462D02*
X133220188Y-107656183D01*
X133220188Y-107656183D02*
X133220665Y-107653480D01*
X133220665Y-107653480D02*
X133232687Y-107568825D01*
X133232687Y-107568825D02*
X133240833Y-107476444D01*
X133240833Y-107476444D02*
X133245059Y-107381190D01*
X133245059Y-107381190D02*
X133245319Y-107287918D01*
X133245319Y-107287918D02*
X133241568Y-107201482D01*
X133241568Y-107201482D02*
X133233760Y-107126737D01*
X133233760Y-107126737D02*
X133225984Y-107084520D01*
X133225984Y-107084520D02*
X133200480Y-106998668D01*
X133200480Y-106998668D02*
X133165049Y-106913397D01*
X133165049Y-106913397D02*
X133123127Y-106836343D01*
X133123127Y-106836343D02*
X133097112Y-106798317D01*
X133097112Y-106798317D02*
X133029701Y-106725659D01*
X133029701Y-106725659D02*
X132947178Y-106665320D01*
X132947178Y-106665320D02*
X132850936Y-106617765D01*
X132850936Y-106617765D02*
X132742368Y-106583462D01*
X132742368Y-106583462D02*
X132622867Y-106562877D01*
X132622867Y-106562877D02*
X132493826Y-106556475D01*
X132493826Y-106556475D02*
X132389427Y-106561453D01*
X132389427Y-106561453D02*
X132318760Y-106568798D01*
X132318760Y-106568798D02*
X132250498Y-106578573D01*
X132250498Y-106578573D02*
X132181032Y-106591604D01*
X132181032Y-106591604D02*
X132106753Y-106608715D01*
X132106753Y-106608715D02*
X132024051Y-106630733D01*
X132024051Y-106630733D02*
X131929319Y-106658483D01*
X131929319Y-106658483D02*
X131828514Y-106689760D01*
X131828514Y-106689760D02*
X131597539Y-106760809D01*
X131597539Y-106760809D02*
X131382949Y-106822507D01*
X131382949Y-106822507D02*
X131183198Y-106875057D01*
X131183198Y-106875057D02*
X130996738Y-106918662D01*
X130996738Y-106918662D02*
X130822022Y-106953526D01*
X130822022Y-106953526D02*
X130657503Y-106979853D01*
X130657503Y-106979853D02*
X130501633Y-106997847D01*
X130501633Y-106997847D02*
X130352865Y-107007710D01*
X130352865Y-107007710D02*
X130209652Y-107009648D01*
X130209652Y-107009648D02*
X130070446Y-107003862D01*
X130070446Y-107003862D02*
X129933700Y-106990557D01*
X129933700Y-106990557D02*
X129797867Y-106969937D01*
X129797867Y-106969937D02*
X129757073Y-106962357D01*
X129757073Y-106962357D02*
X129667621Y-106943775D01*
X129667621Y-106943775D02*
X129582205Y-106923089D01*
X129582205Y-106923089D02*
X129498949Y-106899454D01*
X129498949Y-106899454D02*
X129415981Y-106872025D01*
X129415981Y-106872025D02*
X129331426Y-106839956D01*
X129331426Y-106839956D02*
X129243411Y-106802402D01*
X129243411Y-106802402D02*
X129150062Y-106758517D01*
X129150062Y-106758517D02*
X129049504Y-106707457D01*
X129049504Y-106707457D02*
X128939865Y-106648374D01*
X128939865Y-106648374D02*
X128819269Y-106580425D01*
X128819269Y-106580425D02*
X128685843Y-106502764D01*
X128685843Y-106502764D02*
X128537714Y-106414544D01*
X128537714Y-106414544D02*
X128522276Y-106405263D01*
X128522276Y-106405263D02*
X128362436Y-106309510D01*
X128362436Y-106309510D02*
X128217822Y-106223818D01*
X128217822Y-106223818D02*
X128086603Y-106147199D01*
X128086603Y-106147199D02*
X127966951Y-106078667D01*
X127966951Y-106078667D02*
X127857036Y-106017235D01*
X127857036Y-106017235D02*
X127755028Y-105961916D01*
X127755028Y-105961916D02*
X127659099Y-105911724D01*
X127659099Y-105911724D02*
X127567419Y-105865672D01*
X127567419Y-105865672D02*
X127478158Y-105822772D01*
X127478158Y-105822772D02*
X127389488Y-105782037D01*
X127389488Y-105782037D02*
X127299579Y-105742482D01*
X127299579Y-105742482D02*
X127270760Y-105730131D01*
X127270760Y-105730131D02*
X126963154Y-105610055D01*
X126963154Y-105610055D02*
X126647944Y-105508540D01*
X126647944Y-105508540D02*
X126326050Y-105425703D01*
X126326050Y-105425703D02*
X125998393Y-105361658D01*
X125998393Y-105361658D02*
X125665892Y-105316522D01*
X125665892Y-105316522D02*
X125329468Y-105290409D01*
X125329468Y-105290409D02*
X124990039Y-105283435D01*
X124990039Y-105283435D02*
X124648527Y-105295717D01*
X124648527Y-105295717D02*
X124648527Y-105295717D01*
G36*
X128162927Y-120708694D02*
G01*
X128097192Y-120802705D01*
X128031654Y-120895738D01*
X127967930Y-120985540D01*
X127907634Y-121069857D01*
X127852382Y-121146438D01*
X127803789Y-121213028D01*
X127763470Y-121267375D01*
X127733040Y-121307225D01*
X127661492Y-121397388D01*
X127483538Y-121610948D01*
X127308171Y-121805680D01*
X127134490Y-121982389D01*
X126961594Y-122141880D01*
X126788582Y-122284959D01*
X126614553Y-122412429D01*
X126438606Y-122525097D01*
X126259840Y-122623768D01*
X126124974Y-122688633D01*
X125967839Y-122753671D01*
X125809165Y-122807238D01*
X125644500Y-122850644D01*
X125469395Y-122885197D01*
X125279400Y-122912207D01*
X125247528Y-122914773D01*
X125194588Y-122916756D01*
X125129371Y-122917650D01*
X125056224Y-122917519D01*
X124979492Y-122916429D01*
X124903521Y-122914447D01*
X124832658Y-122911637D01*
X124771248Y-122908066D01*
X124723638Y-122903799D01*
X124602834Y-122886827D01*
X124379524Y-122840083D01*
X124159831Y-122773757D01*
X123943594Y-122687765D01*
X123730654Y-122582024D01*
X123520850Y-122456450D01*
X123314021Y-122310960D01*
X123110008Y-122145470D01*
X122908649Y-121959898D01*
X122832260Y-121883546D01*
X122741063Y-121787817D01*
X122649269Y-121686223D01*
X122555699Y-121577286D01*
X122459173Y-121459532D01*
X122358513Y-121331486D01*
X122252538Y-121191671D01*
X122140068Y-121038613D01*
X122019925Y-120870835D01*
X121890928Y-120686863D01*
X121740788Y-120470812D01*
X123112793Y-120470812D01*
X123119177Y-120485186D01*
X123136825Y-120512250D01*
X123164192Y-120550037D01*
X123199733Y-120596584D01*
X123241904Y-120649926D01*
X123289160Y-120708099D01*
X123339955Y-120769139D01*
X123392746Y-120831080D01*
X123445986Y-120891960D01*
X123485455Y-120935478D01*
X123545346Y-120998972D01*
X123611214Y-121066532D01*
X123679802Y-121134960D01*
X123747851Y-121201058D01*
X123812102Y-121261628D01*
X123869297Y-121313472D01*
X123916177Y-121353393D01*
X123989037Y-121409826D01*
X124117196Y-121498494D01*
X124249631Y-121578031D01*
X124381514Y-121645624D01*
X124508020Y-121698458D01*
X124539513Y-121709106D01*
X124593773Y-121725442D01*
X124653738Y-121741806D01*
X124711220Y-121755882D01*
X124771380Y-121767447D01*
X124867931Y-121779749D01*
X124971474Y-121786971D01*
X125075410Y-121788874D01*
X125173142Y-121785219D01*
X125258070Y-121775764D01*
X125355545Y-121756858D01*
X125516085Y-121712013D01*
X125674458Y-121650171D01*
X125831359Y-121570883D01*
X125987482Y-121473700D01*
X126143523Y-121358173D01*
X126300176Y-121223854D01*
X126458137Y-121070292D01*
X126618100Y-120897040D01*
X126621212Y-120893500D01*
X126677462Y-120828706D01*
X126732494Y-120763900D01*
X126784791Y-120700997D01*
X126832832Y-120641912D01*
X126875101Y-120588561D01*
X126910079Y-120542856D01*
X126936248Y-120506715D01*
X126952089Y-120482050D01*
X126956084Y-120470778D01*
X126951107Y-120467267D01*
X126930048Y-120462165D01*
X126899837Y-120460160D01*
X126876340Y-120459309D01*
X126832933Y-120454723D01*
X126778384Y-120445900D01*
X126711317Y-120432541D01*
X126630354Y-120414347D01*
X126534119Y-120391018D01*
X126421233Y-120362255D01*
X126290320Y-120327760D01*
X126201521Y-120304252D01*
X126056237Y-120266841D01*
X125926080Y-120234955D01*
X125808367Y-120208086D01*
X125700414Y-120185725D01*
X125599535Y-120167364D01*
X125503048Y-120152494D01*
X125408266Y-120140608D01*
X125312506Y-120131197D01*
X125213084Y-120123752D01*
X125100926Y-120118467D01*
X124979977Y-120117561D01*
X124857562Y-120121973D01*
X124731517Y-120132009D01*
X124599679Y-120147976D01*
X124459885Y-120170181D01*
X124309970Y-120198932D01*
X124147772Y-120234535D01*
X123971126Y-120277298D01*
X123777871Y-120327529D01*
X123696501Y-120349181D01*
X123594819Y-120375838D01*
X123508960Y-120397733D01*
X123436733Y-120415357D01*
X123375953Y-120429202D01*
X123324430Y-120439760D01*
X123279978Y-120447523D01*
X123240407Y-120452983D01*
X123203530Y-120456631D01*
X123196720Y-120457196D01*
X123158607Y-120461112D01*
X123128877Y-120465374D01*
X123113479Y-120469156D01*
X123112793Y-120470812D01*
X121740788Y-120470812D01*
X121551631Y-120198615D01*
X121434316Y-120140322D01*
X121358496Y-120102179D01*
X121016657Y-119917923D01*
X120691236Y-119721726D01*
X120382268Y-119513637D01*
X120089788Y-119293708D01*
X119813832Y-119061987D01*
X119554435Y-118818524D01*
X119311634Y-118563369D01*
X119085464Y-118296570D01*
X118875960Y-118018179D01*
X118683158Y-117728245D01*
X118507093Y-117426816D01*
X118347802Y-117113943D01*
X118205320Y-116789676D01*
X118079682Y-116454064D01*
X117970925Y-116107157D01*
X117879083Y-115749004D01*
X117804192Y-115379655D01*
X117746288Y-114999160D01*
X117739858Y-114947855D01*
X117716868Y-114741037D01*
X117699257Y-114537465D01*
X117686789Y-114332513D01*
X117679227Y-114121555D01*
X117676334Y-113899965D01*
X117677873Y-113663120D01*
X117678657Y-113611850D01*
X117680187Y-113521818D01*
X117681865Y-113441222D01*
X117683847Y-113367363D01*
X117686285Y-113297545D01*
X117689334Y-113229070D01*
X117693148Y-113159240D01*
X117697879Y-113085358D01*
X117703681Y-113004727D01*
X117710709Y-112914649D01*
X117719116Y-112812427D01*
X117729056Y-112695363D01*
X117740682Y-112560760D01*
X117748732Y-112467650D01*
X117762171Y-112310079D01*
X117773864Y-112169443D01*
X117783944Y-112043606D01*
X117792543Y-111930434D01*
X117799797Y-111827790D01*
X117805836Y-111733539D01*
X117810796Y-111645547D01*
X117814808Y-111561678D01*
X117818007Y-111479795D01*
X117820526Y-111397765D01*
X117822497Y-111313452D01*
X117824054Y-111224720D01*
X117825519Y-111098760D01*
X117825711Y-110975140D01*
X117824245Y-110865249D01*
X117820962Y-110765645D01*
X117815707Y-110672883D01*
X117808321Y-110583522D01*
X117798649Y-110494117D01*
X117786532Y-110401226D01*
X117775622Y-110326347D01*
X117761599Y-110239995D01*
X117746255Y-110157812D01*
X117728956Y-110077930D01*
X117709068Y-109998479D01*
X117685957Y-109917593D01*
X117658987Y-109833402D01*
X117627525Y-109744038D01*
X117590936Y-109647633D01*
X117548586Y-109542318D01*
X117499840Y-109426226D01*
X117444064Y-109297487D01*
X117380624Y-109154235D01*
X117308884Y-108994600D01*
X117292013Y-108957155D01*
X117215425Y-108784117D01*
X117148019Y-108626059D01*
X117089018Y-108480791D01*
X117037642Y-108346121D01*
X116993111Y-108219859D01*
X116954646Y-108099815D01*
X116921466Y-107983798D01*
X116892794Y-107869616D01*
X116868145Y-107756440D01*
X117685402Y-107756440D01*
X117687907Y-107814783D01*
X117693071Y-107871282D01*
X117700800Y-107920608D01*
X117702005Y-107926341D01*
X117714589Y-107977449D01*
X117733027Y-108042631D01*
X117755948Y-108117632D01*
X117781982Y-108198197D01*
X117809758Y-108280070D01*
X117837907Y-108358996D01*
X117865058Y-108430720D01*
X117882581Y-108474784D01*
X117911808Y-108545869D01*
X117943679Y-108620343D01*
X117979302Y-108700653D01*
X118019786Y-108789244D01*
X118066239Y-108888565D01*
X118119770Y-109001062D01*
X118181487Y-109129182D01*
X118196347Y-109159941D01*
X118275402Y-109325988D01*
X118344929Y-109477201D01*
X118405516Y-109615901D01*
X118457749Y-109744409D01*
X118502217Y-109865049D01*
X118539508Y-109980141D01*
X118570209Y-110092008D01*
X118594908Y-110202972D01*
X118614193Y-110315354D01*
X118628653Y-110431478D01*
X118638874Y-110553663D01*
X118645444Y-110684233D01*
X118648952Y-110825510D01*
X118649985Y-110979815D01*
X118649952Y-111021249D01*
X118649751Y-111080017D01*
X118649308Y-111136145D01*
X118648552Y-111191399D01*
X118647412Y-111247541D01*
X118645817Y-111306336D01*
X118643698Y-111369545D01*
X118640984Y-111438934D01*
X118637605Y-111516265D01*
X118633489Y-111603302D01*
X118628567Y-111701809D01*
X118622768Y-111813548D01*
X118616021Y-111940284D01*
X118608257Y-112083780D01*
X118599404Y-112245800D01*
X118598881Y-112255358D01*
X118589313Y-112431235D01*
X118580899Y-112588906D01*
X118573568Y-112730346D01*
X118567248Y-112857532D01*
X118561868Y-112972438D01*
X118557357Y-113077040D01*
X118553643Y-113173313D01*
X118550655Y-113263233D01*
X118548322Y-113348775D01*
X118546571Y-113431915D01*
X118545333Y-113514628D01*
X118544534Y-113598889D01*
X118544105Y-113686675D01*
X118543974Y-113779960D01*
X118544140Y-113878216D01*
X118545092Y-114007367D01*
X118547044Y-114122279D01*
X118550171Y-114226558D01*
X118554649Y-114323811D01*
X118560655Y-114417643D01*
X118568364Y-114511662D01*
X118577952Y-114609472D01*
X118589596Y-114714680D01*
X118622472Y-114956779D01*
X118678949Y-115261481D01*
X118751526Y-115556023D01*
X118840895Y-115842363D01*
X118947750Y-116122454D01*
X119072783Y-116398253D01*
X119216689Y-116671717D01*
X119380160Y-116944800D01*
X119550549Y-117200510D01*
X119739629Y-117457284D01*
X119937633Y-117700239D01*
X120143797Y-117928731D01*
X120357359Y-118142113D01*
X120577554Y-118339738D01*
X120803620Y-118520961D01*
X121034794Y-118685135D01*
X121270311Y-118831615D01*
X121509410Y-118959754D01*
X121751326Y-119068906D01*
X121995296Y-119158426D01*
X122005067Y-119161585D01*
X122228051Y-119225571D01*
X122448400Y-119272636D01*
X122670314Y-119303368D01*
X122897994Y-119318356D01*
X123135640Y-119318189D01*
X123239437Y-119314147D01*
X123423627Y-119302180D01*
X123590567Y-119284453D01*
X123741790Y-119260750D01*
X123878825Y-119230852D01*
X124003206Y-119194540D01*
X124064949Y-119172486D01*
X124167408Y-119127399D01*
X124252546Y-119076799D01*
X124322127Y-119019354D01*
X124377918Y-118953730D01*
X124421685Y-118878594D01*
X124447258Y-118821658D01*
X124501899Y-118667820D01*
X124538147Y-118509846D01*
X124539133Y-118503843D01*
X124551102Y-118378492D01*
X124545492Y-118258368D01*
X124522002Y-118143010D01*
X124480330Y-118031957D01*
X124420174Y-117924749D01*
X124341234Y-117820925D01*
X124243207Y-117720026D01*
X124125794Y-117621590D01*
X123988692Y-117525158D01*
X123831600Y-117430269D01*
X123816874Y-117422075D01*
X123771504Y-117397518D01*
X123712725Y-117366365D01*
X123643859Y-117330350D01*
X123568228Y-117291203D01*
X123489155Y-117250657D01*
X123409960Y-117210444D01*
X123286962Y-117147504D01*
X123166258Y-117083566D01*
X123061579Y-117025342D01*
X122971428Y-116971861D01*
X122894309Y-116922155D01*
X122828724Y-116875254D01*
X122773175Y-116830188D01*
X122726166Y-116785987D01*
X122686200Y-116741682D01*
X122643453Y-116684429D01*
X122597144Y-116601129D01*
X122565394Y-116510857D01*
X122547130Y-116410319D01*
X122541280Y-116296216D01*
X122546600Y-116188919D01*
X122569393Y-116050532D01*
X122609268Y-115917872D01*
X122665285Y-115793342D01*
X122736503Y-115679347D01*
X122821983Y-115578292D01*
X122826895Y-115573395D01*
X122857409Y-115545638D01*
X122893372Y-115516114D01*
X122930641Y-115487861D01*
X122965079Y-115463919D01*
X122992544Y-115447326D01*
X123008895Y-115441120D01*
X123013914Y-115445470D01*
X123028226Y-115463814D01*
X123048768Y-115493197D01*
X123072944Y-115530020D01*
X123097551Y-115567240D01*
X123193077Y-115691090D01*
X123302907Y-115803797D01*
X123428219Y-115906357D01*
X123570191Y-115999764D01*
X123730000Y-116085014D01*
X123856006Y-116141190D01*
X124060628Y-116215059D01*
X124276469Y-116273048D01*
X124502160Y-116314749D01*
X124524350Y-116317903D01*
X124748120Y-116342206D01*
X124970224Y-116352995D01*
X125189198Y-116350609D01*
X125403573Y-116335382D01*
X125611883Y-116307654D01*
X125812662Y-116267760D01*
X126004443Y-116216039D01*
X126185759Y-116152826D01*
X126355144Y-116078460D01*
X126511132Y-115993278D01*
X126652254Y-115897616D01*
X126777045Y-115791812D01*
X126834394Y-115734462D01*
X126905564Y-115654928D01*
X126965909Y-115577260D01*
X127012037Y-115505593D01*
X127029128Y-115475416D01*
X127042213Y-115452649D01*
X127048214Y-115442652D01*
X127048840Y-115442154D01*
X127061528Y-115444960D01*
X127085587Y-115457146D01*
X127116855Y-115476070D01*
X127151169Y-115499089D01*
X127184368Y-115523561D01*
X127212290Y-115546842D01*
X127231926Y-115565534D01*
X127306981Y-115653108D01*
X127371351Y-115754773D01*
X127424331Y-115867544D01*
X127465216Y-115988438D01*
X127493301Y-116114469D01*
X127507881Y-116242654D01*
X127508251Y-116370008D01*
X127493706Y-116493547D01*
X127463540Y-116610286D01*
X127454208Y-116635750D01*
X127416515Y-116712435D01*
X127364748Y-116784819D01*
X127296007Y-116857174D01*
X127279418Y-116872567D01*
X127240716Y-116906377D01*
X127199263Y-116939356D01*
X127153316Y-116972547D01*
X127101134Y-117006995D01*
X127040974Y-117043742D01*
X126971096Y-117083834D01*
X126889758Y-117128313D01*
X126795217Y-117178223D01*
X126685732Y-117234609D01*
X126559560Y-117298514D01*
X126469083Y-117344370D01*
X126352725Y-117404591D01*
X126251559Y-117458811D01*
X126163565Y-117508302D01*
X126086721Y-117554336D01*
X126019006Y-117598185D01*
X125958399Y-117641120D01*
X125902878Y-117684415D01*
X125850424Y-117729340D01*
X125799013Y-117777169D01*
X125712182Y-117869934D01*
X125640840Y-117967806D01*
X125586319Y-118070642D01*
X125546846Y-118181280D01*
X125542435Y-118197962D01*
X125525983Y-118300721D01*
X125524297Y-118413119D01*
X125536897Y-118532005D01*
X125563305Y-118654229D01*
X125603039Y-118776638D01*
X125655621Y-118896083D01*
X125664521Y-118912816D01*
X125716446Y-118986345D01*
X125785627Y-119052363D01*
X125872301Y-119110959D01*
X125976705Y-119162220D01*
X126099073Y-119206235D01*
X126239643Y-119243090D01*
X126398650Y-119272874D01*
X126576330Y-119295675D01*
X126772920Y-119311580D01*
X126809552Y-119313670D01*
X127039210Y-119320299D01*
X127256354Y-119314566D01*
X127464414Y-119296068D01*
X127666820Y-119264404D01*
X127867001Y-119219173D01*
X128068388Y-119159973D01*
X128282307Y-119082673D01*
X128524800Y-118976416D01*
X128764262Y-118851209D01*
X129001286Y-118706712D01*
X129236467Y-118542585D01*
X129470400Y-118358489D01*
X129484483Y-118346608D01*
X129538988Y-118298445D01*
X129603547Y-118238778D01*
X129675418Y-118170349D01*
X129751858Y-118095899D01*
X129830123Y-118018172D01*
X129907472Y-117939908D01*
X129981160Y-117863849D01*
X130048446Y-117792736D01*
X130106586Y-117729313D01*
X130152838Y-117676320D01*
X130187714Y-117634486D01*
X130403137Y-117359781D01*
X130603407Y-117075394D01*
X130786841Y-116783832D01*
X130951755Y-116487600D01*
X130956019Y-116479403D01*
X131013024Y-116367347D01*
X131061881Y-116265534D01*
X131105145Y-116167956D01*
X131145371Y-116068608D01*
X131185112Y-115961486D01*
X131226922Y-115840582D01*
X131264352Y-115726075D01*
X131320615Y-115537705D01*
X131368961Y-115351850D01*
X131409941Y-115165307D01*
X131444103Y-114974873D01*
X131471996Y-114777345D01*
X131494170Y-114569518D01*
X131511174Y-114348191D01*
X131523556Y-114110160D01*
X131523859Y-114102711D01*
X131527139Y-113993297D01*
X131528685Y-113871753D01*
X131528474Y-113737270D01*
X131526478Y-113589038D01*
X131522674Y-113426248D01*
X131517036Y-113248092D01*
X131509537Y-113053759D01*
X131500154Y-112842441D01*
X131488860Y-112613328D01*
X131475630Y-112365610D01*
X131460439Y-112098480D01*
X131456366Y-112026742D01*
X131447759Y-111860101D01*
X131440296Y-111693682D01*
X131434015Y-111529489D01*
X131428954Y-111369526D01*
X131425150Y-111215797D01*
X131422642Y-111070307D01*
X131421468Y-110935060D01*
X131421666Y-110812058D01*
X131423273Y-110703308D01*
X131426327Y-110610812D01*
X131430867Y-110536575D01*
X131432644Y-110515620D01*
X131450449Y-110354633D01*
X131475460Y-110202764D01*
X131508917Y-110055138D01*
X131552065Y-109906879D01*
X131606146Y-109753111D01*
X131672402Y-109588960D01*
X131673773Y-109585756D01*
X131689508Y-109550286D01*
X131712647Y-109499622D01*
X131741901Y-109436517D01*
X131775983Y-109363726D01*
X131813602Y-109284004D01*
X131853470Y-109200104D01*
X131894298Y-109114780D01*
X131932523Y-109034980D01*
X131989759Y-108914450D01*
X132039505Y-108808080D01*
X132082853Y-108713406D01*
X132120893Y-108627959D01*
X132154718Y-108549273D01*
X132185418Y-108474883D01*
X132214084Y-108402320D01*
X132241807Y-108329120D01*
X132266525Y-108261164D01*
X132310617Y-108130108D01*
X132344281Y-108013985D01*
X132367877Y-107911319D01*
X132381770Y-107820637D01*
X132386320Y-107740462D01*
X132383871Y-107685703D01*
X132371319Y-107623014D01*
X132346506Y-107574798D01*
X132307642Y-107538926D01*
X132252939Y-107513270D01*
X132180607Y-107495701D01*
X132160009Y-107492590D01*
X132123706Y-107489765D01*
X132085020Y-107490696D01*
X132041578Y-107495882D01*
X131991009Y-107505822D01*
X131930942Y-107521015D01*
X131859006Y-107541960D01*
X131772829Y-107569154D01*
X131670040Y-107603098D01*
X131667075Y-107604091D01*
X131501982Y-107657921D01*
X131351340Y-107703903D01*
X131211406Y-107743088D01*
X131078434Y-107776526D01*
X130948680Y-107805265D01*
X130923669Y-107810368D01*
X130650758Y-107857293D01*
X130384654Y-107886886D01*
X130125907Y-107899195D01*
X129875068Y-107894268D01*
X129632689Y-107872155D01*
X129399320Y-107832902D01*
X129175513Y-107776560D01*
X128961818Y-107703175D01*
X128758788Y-107612797D01*
X128746896Y-107606831D01*
X128714194Y-107590204D01*
X128682707Y-107573733D01*
X128650592Y-107556324D01*
X128616002Y-107536887D01*
X128577093Y-107514330D01*
X128532018Y-107487561D01*
X128478935Y-107455487D01*
X128415996Y-107417018D01*
X128341358Y-107371060D01*
X128253174Y-107316524D01*
X128149600Y-107252315D01*
X128094249Y-107218010D01*
X127976556Y-107145356D01*
X127872824Y-107081831D01*
X127780848Y-107026157D01*
X127698422Y-106977056D01*
X127623342Y-106933249D01*
X127553401Y-106893458D01*
X127486393Y-106856406D01*
X127420115Y-106820814D01*
X127352359Y-106785404D01*
X127280920Y-106748898D01*
X127176548Y-106697207D01*
X126913045Y-106577546D01*
X126652613Y-106475463D01*
X126392128Y-106389995D01*
X126128467Y-106320178D01*
X125858506Y-106265047D01*
X125579120Y-106223638D01*
X125529059Y-106217832D01*
X125477689Y-106212771D01*
X125425975Y-106208839D01*
X125370586Y-106205899D01*
X125308196Y-106203811D01*
X125235474Y-106202434D01*
X125149092Y-106201629D01*
X125045720Y-106201257D01*
X125000267Y-106201242D01*
X124884256Y-106201883D01*
X124781886Y-106203489D01*
X124694823Y-106206017D01*
X124624732Y-106209421D01*
X124573280Y-106213660D01*
X124458661Y-106227492D01*
X124182713Y-106270175D01*
X123918427Y-106325371D01*
X123661905Y-106394199D01*
X123409251Y-106477775D01*
X123156567Y-106577217D01*
X122899957Y-106693644D01*
X122848374Y-106718723D01*
X122757462Y-106764078D01*
X122667828Y-106810464D01*
X122577208Y-106859172D01*
X122483337Y-106911497D01*
X122383951Y-106968731D01*
X122276785Y-107032167D01*
X122159574Y-107103099D01*
X122030054Y-107182820D01*
X121885960Y-107272621D01*
X121812453Y-107318556D01*
X121709869Y-107382210D01*
X121621091Y-107436614D01*
X121544165Y-107482908D01*
X121477134Y-107522235D01*
X121418044Y-107555734D01*
X121364939Y-107584546D01*
X121315863Y-107609813D01*
X121268862Y-107632675D01*
X121071962Y-107716042D01*
X120851485Y-107788239D01*
X120621775Y-107842511D01*
X120383022Y-107878854D01*
X120135415Y-107897260D01*
X119879143Y-107897722D01*
X119614395Y-107880235D01*
X119341360Y-107844791D01*
X119060227Y-107791384D01*
X118771185Y-107720007D01*
X118742858Y-107711999D01*
X118681800Y-107693821D01*
X118609210Y-107671361D01*
X118529923Y-107646145D01*
X118448775Y-107619700D01*
X118370600Y-107593552D01*
X118285152Y-107565020D01*
X118198282Y-107537556D01*
X118125585Y-107516822D01*
X118064529Y-107502310D01*
X118012586Y-107493514D01*
X117967225Y-107489925D01*
X117925916Y-107491036D01*
X117886130Y-107496339D01*
X117834312Y-107508720D01*
X117770685Y-107535959D01*
X117724410Y-107573459D01*
X117695637Y-107621121D01*
X117694750Y-107623649D01*
X117688731Y-107655543D01*
X117685645Y-107701583D01*
X117685402Y-107756440D01*
X116868145Y-107756440D01*
X116867849Y-107755080D01*
X116842932Y-107612670D01*
X116825187Y-107448877D01*
X116821681Y-107298146D01*
X116832358Y-107160734D01*
X116857164Y-107036899D01*
X116896044Y-106926899D01*
X116948942Y-106830991D01*
X117015805Y-106749433D01*
X117096576Y-106682483D01*
X117184009Y-106632360D01*
X117292017Y-106591276D01*
X117411353Y-106565821D01*
X117542295Y-106555991D01*
X117685123Y-106561786D01*
X117840117Y-106583201D01*
X118007557Y-106620236D01*
X118187720Y-106672887D01*
X118308940Y-106711664D01*
X118501367Y-106770826D01*
X118679444Y-106822232D01*
X118845683Y-106866508D01*
X119002596Y-106904276D01*
X119152692Y-106936162D01*
X119298483Y-106962788D01*
X119442480Y-106984780D01*
X119486359Y-106989936D01*
X119567239Y-106996340D01*
X119659150Y-107000720D01*
X119757628Y-107003078D01*
X119858207Y-107003415D01*
X119956425Y-107001733D01*
X120047815Y-106998032D01*
X120127915Y-106992314D01*
X120192259Y-106984580D01*
X120234904Y-106977358D01*
X120337958Y-106956905D01*
X120443393Y-106932329D01*
X120543657Y-106905463D01*
X120631200Y-106878138D01*
X120650156Y-106871587D01*
X120725820Y-106844098D01*
X120799296Y-106814923D01*
X120872965Y-106782856D01*
X120949208Y-106746691D01*
X121030407Y-106705221D01*
X121118943Y-106657240D01*
X121217199Y-106601542D01*
X121327555Y-106536920D01*
X121452393Y-106462168D01*
X121483043Y-106443668D01*
X121595993Y-106375568D01*
X121694148Y-106316549D01*
X121779550Y-106265408D01*
X121854244Y-106220943D01*
X121920271Y-106181951D01*
X121979676Y-106147231D01*
X122034502Y-106115580D01*
X122086791Y-106085797D01*
X122138588Y-106056678D01*
X122191934Y-106027021D01*
X122370887Y-105931313D01*
X122670397Y-105786221D01*
X122969407Y-105660546D01*
X123269256Y-105553830D01*
X123571279Y-105465614D01*
X123876815Y-105395440D01*
X124187200Y-105342849D01*
X124305851Y-105327368D01*
X124648527Y-105295717D01*
X124990039Y-105283435D01*
X125329468Y-105290409D01*
X125665892Y-105316522D01*
X125998393Y-105361658D01*
X126326050Y-105425703D01*
X126647944Y-105508540D01*
X126963154Y-105610055D01*
X127270760Y-105730131D01*
X127299579Y-105742482D01*
X127389488Y-105782037D01*
X127478158Y-105822772D01*
X127567419Y-105865672D01*
X127659099Y-105911724D01*
X127755028Y-105961916D01*
X127857036Y-106017235D01*
X127966951Y-106078667D01*
X128086603Y-106147199D01*
X128217822Y-106223818D01*
X128362436Y-106309510D01*
X128522276Y-106405263D01*
X128537714Y-106414544D01*
X128685843Y-106502764D01*
X128819269Y-106580425D01*
X128939865Y-106648374D01*
X129049504Y-106707457D01*
X129150062Y-106758517D01*
X129243411Y-106802402D01*
X129331426Y-106839956D01*
X129415981Y-106872025D01*
X129498949Y-106899454D01*
X129582205Y-106923089D01*
X129667621Y-106943775D01*
X129757073Y-106962357D01*
X129797867Y-106969937D01*
X129933700Y-106990557D01*
X130070446Y-107003862D01*
X130209652Y-107009648D01*
X130352865Y-107007710D01*
X130501633Y-106997847D01*
X130657503Y-106979853D01*
X130822022Y-106953526D01*
X130996738Y-106918662D01*
X131183198Y-106875057D01*
X131382949Y-106822507D01*
X131597539Y-106760809D01*
X131828514Y-106689760D01*
X131929319Y-106658483D01*
X132024051Y-106630733D01*
X132106753Y-106608715D01*
X132181032Y-106591604D01*
X132250498Y-106578573D01*
X132318760Y-106568798D01*
X132389427Y-106561453D01*
X132493826Y-106556475D01*
X132622867Y-106562877D01*
X132742368Y-106583462D01*
X132850936Y-106617765D01*
X132947178Y-106665320D01*
X133029701Y-106725659D01*
X133097112Y-106798317D01*
X133123127Y-106836343D01*
X133165049Y-106913397D01*
X133200480Y-106998668D01*
X133225984Y-107084520D01*
X133233760Y-107126737D01*
X133241568Y-107201482D01*
X133245319Y-107287918D01*
X133245059Y-107381190D01*
X133240833Y-107476444D01*
X133232687Y-107568825D01*
X133220665Y-107653480D01*
X133220188Y-107656183D01*
X133203965Y-107740462D01*
X133197466Y-107774228D01*
X133170951Y-107891463D01*
X133139932Y-108009929D01*
X133103701Y-108131673D01*
X133061547Y-108258737D01*
X133012759Y-108393165D01*
X132956627Y-108537001D01*
X132892443Y-108692290D01*
X132819494Y-108861075D01*
X132737072Y-109045400D01*
X132730301Y-109060344D01*
X132658128Y-109221037D01*
X132594494Y-109365869D01*
X132538739Y-109496889D01*
X132490203Y-109616148D01*
X132448227Y-109725693D01*
X132412151Y-109827575D01*
X132381315Y-109923842D01*
X132355061Y-110016543D01*
X132332728Y-110107727D01*
X132313658Y-110199444D01*
X132297189Y-110293742D01*
X132282664Y-110392671D01*
X132269422Y-110498280D01*
X132267448Y-110515424D01*
X132257593Y-110611500D01*
X132249733Y-110709245D01*
X132243909Y-110810083D01*
X132240158Y-110915435D01*
X132238522Y-111026725D01*
X132239038Y-111145375D01*
X132241746Y-111272809D01*
X132246684Y-111410448D01*
X132253893Y-111559716D01*
X132263412Y-111722035D01*
X132275279Y-111898828D01*
X132289533Y-112091518D01*
X132306214Y-112301528D01*
X132325362Y-112530280D01*
X132330629Y-112592017D01*
X132342020Y-112726765D01*
X132351786Y-112844778D01*
X132360078Y-112948525D01*
X132367045Y-113040476D01*
X132372836Y-113123102D01*
X132377601Y-113198873D01*
X132381490Y-113270259D01*
X132384651Y-113339730D01*
X132387235Y-113409758D01*
X132389391Y-113482812D01*
X132391268Y-113561362D01*
X132393017Y-113647880D01*
X132394247Y-113730466D01*
X132390292Y-114135472D01*
X132369652Y-114531918D01*
X132332412Y-114919179D01*
X132278659Y-115296631D01*
X132208479Y-115663650D01*
X132121957Y-116019611D01*
X132019179Y-116363891D01*
X131972466Y-116501338D01*
X131844366Y-116835645D01*
X131699518Y-117158459D01*
X131537955Y-117469744D01*
X131359706Y-117769466D01*
X131164803Y-118057591D01*
X130953276Y-118334084D01*
X130725156Y-118598911D01*
X130480475Y-118852036D01*
X130219262Y-119093426D01*
X129941549Y-119323046D01*
X129647367Y-119540860D01*
X129336746Y-119746835D01*
X129009718Y-119940936D01*
X128666313Y-120123129D01*
X128517782Y-120197578D01*
X128328129Y-120470778D01*
X128188911Y-120671326D01*
X128162927Y-120708694D01*
G37*
X128162927Y-120708694D02*
X128097192Y-120802705D01*
X128031654Y-120895738D01*
X127967930Y-120985540D01*
X127907634Y-121069857D01*
X127852382Y-121146438D01*
X127803789Y-121213028D01*
X127763470Y-121267375D01*
X127733040Y-121307225D01*
X127661492Y-121397388D01*
X127483538Y-121610948D01*
X127308171Y-121805680D01*
X127134490Y-121982389D01*
X126961594Y-122141880D01*
X126788582Y-122284959D01*
X126614553Y-122412429D01*
X126438606Y-122525097D01*
X126259840Y-122623768D01*
X126124974Y-122688633D01*
X125967839Y-122753671D01*
X125809165Y-122807238D01*
X125644500Y-122850644D01*
X125469395Y-122885197D01*
X125279400Y-122912207D01*
X125247528Y-122914773D01*
X125194588Y-122916756D01*
X125129371Y-122917650D01*
X125056224Y-122917519D01*
X124979492Y-122916429D01*
X124903521Y-122914447D01*
X124832658Y-122911637D01*
X124771248Y-122908066D01*
X124723638Y-122903799D01*
X124602834Y-122886827D01*
X124379524Y-122840083D01*
X124159831Y-122773757D01*
X123943594Y-122687765D01*
X123730654Y-122582024D01*
X123520850Y-122456450D01*
X123314021Y-122310960D01*
X123110008Y-122145470D01*
X122908649Y-121959898D01*
X122832260Y-121883546D01*
X122741063Y-121787817D01*
X122649269Y-121686223D01*
X122555699Y-121577286D01*
X122459173Y-121459532D01*
X122358513Y-121331486D01*
X122252538Y-121191671D01*
X122140068Y-121038613D01*
X122019925Y-120870835D01*
X121890928Y-120686863D01*
X121740788Y-120470812D01*
X123112793Y-120470812D01*
X123119177Y-120485186D01*
X123136825Y-120512250D01*
X123164192Y-120550037D01*
X123199733Y-120596584D01*
X123241904Y-120649926D01*
X123289160Y-120708099D01*
X123339955Y-120769139D01*
X123392746Y-120831080D01*
X123445986Y-120891960D01*
X123485455Y-120935478D01*
X123545346Y-120998972D01*
X123611214Y-121066532D01*
X123679802Y-121134960D01*
X123747851Y-121201058D01*
X123812102Y-121261628D01*
X123869297Y-121313472D01*
X123916177Y-121353393D01*
X123989037Y-121409826D01*
X124117196Y-121498494D01*
X124249631Y-121578031D01*
X124381514Y-121645624D01*
X124508020Y-121698458D01*
X124539513Y-121709106D01*
X124593773Y-121725442D01*
X124653738Y-121741806D01*
X124711220Y-121755882D01*
X124771380Y-121767447D01*
X124867931Y-121779749D01*
X124971474Y-121786971D01*
X125075410Y-121788874D01*
X125173142Y-121785219D01*
X125258070Y-121775764D01*
X125355545Y-121756858D01*
X125516085Y-121712013D01*
X125674458Y-121650171D01*
X125831359Y-121570883D01*
X125987482Y-121473700D01*
X126143523Y-121358173D01*
X126300176Y-121223854D01*
X126458137Y-121070292D01*
X126618100Y-120897040D01*
X126621212Y-120893500D01*
X126677462Y-120828706D01*
X126732494Y-120763900D01*
X126784791Y-120700997D01*
X126832832Y-120641912D01*
X126875101Y-120588561D01*
X126910079Y-120542856D01*
X126936248Y-120506715D01*
X126952089Y-120482050D01*
X126956084Y-120470778D01*
X126951107Y-120467267D01*
X126930048Y-120462165D01*
X126899837Y-120460160D01*
X126876340Y-120459309D01*
X126832933Y-120454723D01*
X126778384Y-120445900D01*
X126711317Y-120432541D01*
X126630354Y-120414347D01*
X126534119Y-120391018D01*
X126421233Y-120362255D01*
X126290320Y-120327760D01*
X126201521Y-120304252D01*
X126056237Y-120266841D01*
X125926080Y-120234955D01*
X125808367Y-120208086D01*
X125700414Y-120185725D01*
X125599535Y-120167364D01*
X125503048Y-120152494D01*
X125408266Y-120140608D01*
X125312506Y-120131197D01*
X125213084Y-120123752D01*
X125100926Y-120118467D01*
X124979977Y-120117561D01*
X124857562Y-120121973D01*
X124731517Y-120132009D01*
X124599679Y-120147976D01*
X124459885Y-120170181D01*
X124309970Y-120198932D01*
X124147772Y-120234535D01*
X123971126Y-120277298D01*
X123777871Y-120327529D01*
X123696501Y-120349181D01*
X123594819Y-120375838D01*
X123508960Y-120397733D01*
X123436733Y-120415357D01*
X123375953Y-120429202D01*
X123324430Y-120439760D01*
X123279978Y-120447523D01*
X123240407Y-120452983D01*
X123203530Y-120456631D01*
X123196720Y-120457196D01*
X123158607Y-120461112D01*
X123128877Y-120465374D01*
X123113479Y-120469156D01*
X123112793Y-120470812D01*
X121740788Y-120470812D01*
X121551631Y-120198615D01*
X121434316Y-120140322D01*
X121358496Y-120102179D01*
X121016657Y-119917923D01*
X120691236Y-119721726D01*
X120382268Y-119513637D01*
X120089788Y-119293708D01*
X119813832Y-119061987D01*
X119554435Y-118818524D01*
X119311634Y-118563369D01*
X119085464Y-118296570D01*
X118875960Y-118018179D01*
X118683158Y-117728245D01*
X118507093Y-117426816D01*
X118347802Y-117113943D01*
X118205320Y-116789676D01*
X118079682Y-116454064D01*
X117970925Y-116107157D01*
X117879083Y-115749004D01*
X117804192Y-115379655D01*
X117746288Y-114999160D01*
X117739858Y-114947855D01*
X117716868Y-114741037D01*
X117699257Y-114537465D01*
X117686789Y-114332513D01*
X117679227Y-114121555D01*
X117676334Y-113899965D01*
X117677873Y-113663120D01*
X117678657Y-113611850D01*
X117680187Y-113521818D01*
X117681865Y-113441222D01*
X117683847Y-113367363D01*
X117686285Y-113297545D01*
X117689334Y-113229070D01*
X117693148Y-113159240D01*
X117697879Y-113085358D01*
X117703681Y-113004727D01*
X117710709Y-112914649D01*
X117719116Y-112812427D01*
X117729056Y-112695363D01*
X117740682Y-112560760D01*
X117748732Y-112467650D01*
X117762171Y-112310079D01*
X117773864Y-112169443D01*
X117783944Y-112043606D01*
X117792543Y-111930434D01*
X117799797Y-111827790D01*
X117805836Y-111733539D01*
X117810796Y-111645547D01*
X117814808Y-111561678D01*
X117818007Y-111479795D01*
X117820526Y-111397765D01*
X117822497Y-111313452D01*
X117824054Y-111224720D01*
X117825519Y-111098760D01*
X117825711Y-110975140D01*
X117824245Y-110865249D01*
X117820962Y-110765645D01*
X117815707Y-110672883D01*
X117808321Y-110583522D01*
X117798649Y-110494117D01*
X117786532Y-110401226D01*
X117775622Y-110326347D01*
X117761599Y-110239995D01*
X117746255Y-110157812D01*
X117728956Y-110077930D01*
X117709068Y-109998479D01*
X117685957Y-109917593D01*
X117658987Y-109833402D01*
X117627525Y-109744038D01*
X117590936Y-109647633D01*
X117548586Y-109542318D01*
X117499840Y-109426226D01*
X117444064Y-109297487D01*
X117380624Y-109154235D01*
X117308884Y-108994600D01*
X117292013Y-108957155D01*
X117215425Y-108784117D01*
X117148019Y-108626059D01*
X117089018Y-108480791D01*
X117037642Y-108346121D01*
X116993111Y-108219859D01*
X116954646Y-108099815D01*
X116921466Y-107983798D01*
X116892794Y-107869616D01*
X116868145Y-107756440D01*
X117685402Y-107756440D01*
X117687907Y-107814783D01*
X117693071Y-107871282D01*
X117700800Y-107920608D01*
X117702005Y-107926341D01*
X117714589Y-107977449D01*
X117733027Y-108042631D01*
X117755948Y-108117632D01*
X117781982Y-108198197D01*
X117809758Y-108280070D01*
X117837907Y-108358996D01*
X117865058Y-108430720D01*
X117882581Y-108474784D01*
X117911808Y-108545869D01*
X117943679Y-108620343D01*
X117979302Y-108700653D01*
X118019786Y-108789244D01*
X118066239Y-108888565D01*
X118119770Y-109001062D01*
X118181487Y-109129182D01*
X118196347Y-109159941D01*
X118275402Y-109325988D01*
X118344929Y-109477201D01*
X118405516Y-109615901D01*
X118457749Y-109744409D01*
X118502217Y-109865049D01*
X118539508Y-109980141D01*
X118570209Y-110092008D01*
X118594908Y-110202972D01*
X118614193Y-110315354D01*
X118628653Y-110431478D01*
X118638874Y-110553663D01*
X118645444Y-110684233D01*
X118648952Y-110825510D01*
X118649985Y-110979815D01*
X118649952Y-111021249D01*
X118649751Y-111080017D01*
X118649308Y-111136145D01*
X118648552Y-111191399D01*
X118647412Y-111247541D01*
X118645817Y-111306336D01*
X118643698Y-111369545D01*
X118640984Y-111438934D01*
X118637605Y-111516265D01*
X118633489Y-111603302D01*
X118628567Y-111701809D01*
X118622768Y-111813548D01*
X118616021Y-111940284D01*
X118608257Y-112083780D01*
X118599404Y-112245800D01*
X118598881Y-112255358D01*
X118589313Y-112431235D01*
X118580899Y-112588906D01*
X118573568Y-112730346D01*
X118567248Y-112857532D01*
X118561868Y-112972438D01*
X118557357Y-113077040D01*
X118553643Y-113173313D01*
X118550655Y-113263233D01*
X118548322Y-113348775D01*
X118546571Y-113431915D01*
X118545333Y-113514628D01*
X118544534Y-113598889D01*
X118544105Y-113686675D01*
X118543974Y-113779960D01*
X118544140Y-113878216D01*
X118545092Y-114007367D01*
X118547044Y-114122279D01*
X118550171Y-114226558D01*
X118554649Y-114323811D01*
X118560655Y-114417643D01*
X118568364Y-114511662D01*
X118577952Y-114609472D01*
X118589596Y-114714680D01*
X118622472Y-114956779D01*
X118678949Y-115261481D01*
X118751526Y-115556023D01*
X118840895Y-115842363D01*
X118947750Y-116122454D01*
X119072783Y-116398253D01*
X119216689Y-116671717D01*
X119380160Y-116944800D01*
X119550549Y-117200510D01*
X119739629Y-117457284D01*
X119937633Y-117700239D01*
X120143797Y-117928731D01*
X120357359Y-118142113D01*
X120577554Y-118339738D01*
X120803620Y-118520961D01*
X121034794Y-118685135D01*
X121270311Y-118831615D01*
X121509410Y-118959754D01*
X121751326Y-119068906D01*
X121995296Y-119158426D01*
X122005067Y-119161585D01*
X122228051Y-119225571D01*
X122448400Y-119272636D01*
X122670314Y-119303368D01*
X122897994Y-119318356D01*
X123135640Y-119318189D01*
X123239437Y-119314147D01*
X123423627Y-119302180D01*
X123590567Y-119284453D01*
X123741790Y-119260750D01*
X123878825Y-119230852D01*
X124003206Y-119194540D01*
X124064949Y-119172486D01*
X124167408Y-119127399D01*
X124252546Y-119076799D01*
X124322127Y-119019354D01*
X124377918Y-118953730D01*
X124421685Y-118878594D01*
X124447258Y-118821658D01*
X124501899Y-118667820D01*
X124538147Y-118509846D01*
X124539133Y-118503843D01*
X124551102Y-118378492D01*
X124545492Y-118258368D01*
X124522002Y-118143010D01*
X124480330Y-118031957D01*
X124420174Y-117924749D01*
X124341234Y-117820925D01*
X124243207Y-117720026D01*
X124125794Y-117621590D01*
X123988692Y-117525158D01*
X123831600Y-117430269D01*
X123816874Y-117422075D01*
X123771504Y-117397518D01*
X123712725Y-117366365D01*
X123643859Y-117330350D01*
X123568228Y-117291203D01*
X123489155Y-117250657D01*
X123409960Y-117210444D01*
X123286962Y-117147504D01*
X123166258Y-117083566D01*
X123061579Y-117025342D01*
X122971428Y-116971861D01*
X122894309Y-116922155D01*
X122828724Y-116875254D01*
X122773175Y-116830188D01*
X122726166Y-116785987D01*
X122686200Y-116741682D01*
X122643453Y-116684429D01*
X122597144Y-116601129D01*
X122565394Y-116510857D01*
X122547130Y-116410319D01*
X122541280Y-116296216D01*
X122546600Y-116188919D01*
X122569393Y-116050532D01*
X122609268Y-115917872D01*
X122665285Y-115793342D01*
X122736503Y-115679347D01*
X122821983Y-115578292D01*
X122826895Y-115573395D01*
X122857409Y-115545638D01*
X122893372Y-115516114D01*
X122930641Y-115487861D01*
X122965079Y-115463919D01*
X122992544Y-115447326D01*
X123008895Y-115441120D01*
X123013914Y-115445470D01*
X123028226Y-115463814D01*
X123048768Y-115493197D01*
X123072944Y-115530020D01*
X123097551Y-115567240D01*
X123193077Y-115691090D01*
X123302907Y-115803797D01*
X123428219Y-115906357D01*
X123570191Y-115999764D01*
X123730000Y-116085014D01*
X123856006Y-116141190D01*
X124060628Y-116215059D01*
X124276469Y-116273048D01*
X124502160Y-116314749D01*
X124524350Y-116317903D01*
X124748120Y-116342206D01*
X124970224Y-116352995D01*
X125189198Y-116350609D01*
X125403573Y-116335382D01*
X125611883Y-116307654D01*
X125812662Y-116267760D01*
X126004443Y-116216039D01*
X126185759Y-116152826D01*
X126355144Y-116078460D01*
X126511132Y-115993278D01*
X126652254Y-115897616D01*
X126777045Y-115791812D01*
X126834394Y-115734462D01*
X126905564Y-115654928D01*
X126965909Y-115577260D01*
X127012037Y-115505593D01*
X127029128Y-115475416D01*
X127042213Y-115452649D01*
X127048214Y-115442652D01*
X127048840Y-115442154D01*
X127061528Y-115444960D01*
X127085587Y-115457146D01*
X127116855Y-115476070D01*
X127151169Y-115499089D01*
X127184368Y-115523561D01*
X127212290Y-115546842D01*
X127231926Y-115565534D01*
X127306981Y-115653108D01*
X127371351Y-115754773D01*
X127424331Y-115867544D01*
X127465216Y-115988438D01*
X127493301Y-116114469D01*
X127507881Y-116242654D01*
X127508251Y-116370008D01*
X127493706Y-116493547D01*
X127463540Y-116610286D01*
X127454208Y-116635750D01*
X127416515Y-116712435D01*
X127364748Y-116784819D01*
X127296007Y-116857174D01*
X127279418Y-116872567D01*
X127240716Y-116906377D01*
X127199263Y-116939356D01*
X127153316Y-116972547D01*
X127101134Y-117006995D01*
X127040974Y-117043742D01*
X126971096Y-117083834D01*
X126889758Y-117128313D01*
X126795217Y-117178223D01*
X126685732Y-117234609D01*
X126559560Y-117298514D01*
X126469083Y-117344370D01*
X126352725Y-117404591D01*
X126251559Y-117458811D01*
X126163565Y-117508302D01*
X126086721Y-117554336D01*
X126019006Y-117598185D01*
X125958399Y-117641120D01*
X125902878Y-117684415D01*
X125850424Y-117729340D01*
X125799013Y-117777169D01*
X125712182Y-117869934D01*
X125640840Y-117967806D01*
X125586319Y-118070642D01*
X125546846Y-118181280D01*
X125542435Y-118197962D01*
X125525983Y-118300721D01*
X125524297Y-118413119D01*
X125536897Y-118532005D01*
X125563305Y-118654229D01*
X125603039Y-118776638D01*
X125655621Y-118896083D01*
X125664521Y-118912816D01*
X125716446Y-118986345D01*
X125785627Y-119052363D01*
X125872301Y-119110959D01*
X125976705Y-119162220D01*
X126099073Y-119206235D01*
X126239643Y-119243090D01*
X126398650Y-119272874D01*
X126576330Y-119295675D01*
X126772920Y-119311580D01*
X126809552Y-119313670D01*
X127039210Y-119320299D01*
X127256354Y-119314566D01*
X127464414Y-119296068D01*
X127666820Y-119264404D01*
X127867001Y-119219173D01*
X128068388Y-119159973D01*
X128282307Y-119082673D01*
X128524800Y-118976416D01*
X128764262Y-118851209D01*
X129001286Y-118706712D01*
X129236467Y-118542585D01*
X129470400Y-118358489D01*
X129484483Y-118346608D01*
X129538988Y-118298445D01*
X129603547Y-118238778D01*
X129675418Y-118170349D01*
X129751858Y-118095899D01*
X129830123Y-118018172D01*
X129907472Y-117939908D01*
X129981160Y-117863849D01*
X130048446Y-117792736D01*
X130106586Y-117729313D01*
X130152838Y-117676320D01*
X130187714Y-117634486D01*
X130403137Y-117359781D01*
X130603407Y-117075394D01*
X130786841Y-116783832D01*
X130951755Y-116487600D01*
X130956019Y-116479403D01*
X131013024Y-116367347D01*
X131061881Y-116265534D01*
X131105145Y-116167956D01*
X131145371Y-116068608D01*
X131185112Y-115961486D01*
X131226922Y-115840582D01*
X131264352Y-115726075D01*
X131320615Y-115537705D01*
X131368961Y-115351850D01*
X131409941Y-115165307D01*
X131444103Y-114974873D01*
X131471996Y-114777345D01*
X131494170Y-114569518D01*
X131511174Y-114348191D01*
X131523556Y-114110160D01*
X131523859Y-114102711D01*
X131527139Y-113993297D01*
X131528685Y-113871753D01*
X131528474Y-113737270D01*
X131526478Y-113589038D01*
X131522674Y-113426248D01*
X131517036Y-113248092D01*
X131509537Y-113053759D01*
X131500154Y-112842441D01*
X131488860Y-112613328D01*
X131475630Y-112365610D01*
X131460439Y-112098480D01*
X131456366Y-112026742D01*
X131447759Y-111860101D01*
X131440296Y-111693682D01*
X131434015Y-111529489D01*
X131428954Y-111369526D01*
X131425150Y-111215797D01*
X131422642Y-111070307D01*
X131421468Y-110935060D01*
X131421666Y-110812058D01*
X131423273Y-110703308D01*
X131426327Y-110610812D01*
X131430867Y-110536575D01*
X131432644Y-110515620D01*
X131450449Y-110354633D01*
X131475460Y-110202764D01*
X131508917Y-110055138D01*
X131552065Y-109906879D01*
X131606146Y-109753111D01*
X131672402Y-109588960D01*
X131673773Y-109585756D01*
X131689508Y-109550286D01*
X131712647Y-109499622D01*
X131741901Y-109436517D01*
X131775983Y-109363726D01*
X131813602Y-109284004D01*
X131853470Y-109200104D01*
X131894298Y-109114780D01*
X131932523Y-109034980D01*
X131989759Y-108914450D01*
X132039505Y-108808080D01*
X132082853Y-108713406D01*
X132120893Y-108627959D01*
X132154718Y-108549273D01*
X132185418Y-108474883D01*
X132214084Y-108402320D01*
X132241807Y-108329120D01*
X132266525Y-108261164D01*
X132310617Y-108130108D01*
X132344281Y-108013985D01*
X132367877Y-107911319D01*
X132381770Y-107820637D01*
X132386320Y-107740462D01*
X132383871Y-107685703D01*
X132371319Y-107623014D01*
X132346506Y-107574798D01*
X132307642Y-107538926D01*
X132252939Y-107513270D01*
X132180607Y-107495701D01*
X132160009Y-107492590D01*
X132123706Y-107489765D01*
X132085020Y-107490696D01*
X132041578Y-107495882D01*
X131991009Y-107505822D01*
X131930942Y-107521015D01*
X131859006Y-107541960D01*
X131772829Y-107569154D01*
X131670040Y-107603098D01*
X131667075Y-107604091D01*
X131501982Y-107657921D01*
X131351340Y-107703903D01*
X131211406Y-107743088D01*
X131078434Y-107776526D01*
X130948680Y-107805265D01*
X130923669Y-107810368D01*
X130650758Y-107857293D01*
X130384654Y-107886886D01*
X130125907Y-107899195D01*
X129875068Y-107894268D01*
X129632689Y-107872155D01*
X129399320Y-107832902D01*
X129175513Y-107776560D01*
X128961818Y-107703175D01*
X128758788Y-107612797D01*
X128746896Y-107606831D01*
X128714194Y-107590204D01*
X128682707Y-107573733D01*
X128650592Y-107556324D01*
X128616002Y-107536887D01*
X128577093Y-107514330D01*
X128532018Y-107487561D01*
X128478935Y-107455487D01*
X128415996Y-107417018D01*
X128341358Y-107371060D01*
X128253174Y-107316524D01*
X128149600Y-107252315D01*
X128094249Y-107218010D01*
X127976556Y-107145356D01*
X127872824Y-107081831D01*
X127780848Y-107026157D01*
X127698422Y-106977056D01*
X127623342Y-106933249D01*
X127553401Y-106893458D01*
X127486393Y-106856406D01*
X127420115Y-106820814D01*
X127352359Y-106785404D01*
X127280920Y-106748898D01*
X127176548Y-106697207D01*
X126913045Y-106577546D01*
X126652613Y-106475463D01*
X126392128Y-106389995D01*
X126128467Y-106320178D01*
X125858506Y-106265047D01*
X125579120Y-106223638D01*
X125529059Y-106217832D01*
X125477689Y-106212771D01*
X125425975Y-106208839D01*
X125370586Y-106205899D01*
X125308196Y-106203811D01*
X125235474Y-106202434D01*
X125149092Y-106201629D01*
X125045720Y-106201257D01*
X125000267Y-106201242D01*
X124884256Y-106201883D01*
X124781886Y-106203489D01*
X124694823Y-106206017D01*
X124624732Y-106209421D01*
X124573280Y-106213660D01*
X124458661Y-106227492D01*
X124182713Y-106270175D01*
X123918427Y-106325371D01*
X123661905Y-106394199D01*
X123409251Y-106477775D01*
X123156567Y-106577217D01*
X122899957Y-106693644D01*
X122848374Y-106718723D01*
X122757462Y-106764078D01*
X122667828Y-106810464D01*
X122577208Y-106859172D01*
X122483337Y-106911497D01*
X122383951Y-106968731D01*
X122276785Y-107032167D01*
X122159574Y-107103099D01*
X122030054Y-107182820D01*
X121885960Y-107272621D01*
X121812453Y-107318556D01*
X121709869Y-107382210D01*
X121621091Y-107436614D01*
X121544165Y-107482908D01*
X121477134Y-107522235D01*
X121418044Y-107555734D01*
X121364939Y-107584546D01*
X121315863Y-107609813D01*
X121268862Y-107632675D01*
X121071962Y-107716042D01*
X120851485Y-107788239D01*
X120621775Y-107842511D01*
X120383022Y-107878854D01*
X120135415Y-107897260D01*
X119879143Y-107897722D01*
X119614395Y-107880235D01*
X119341360Y-107844791D01*
X119060227Y-107791384D01*
X118771185Y-107720007D01*
X118742858Y-107711999D01*
X118681800Y-107693821D01*
X118609210Y-107671361D01*
X118529923Y-107646145D01*
X118448775Y-107619700D01*
X118370600Y-107593552D01*
X118285152Y-107565020D01*
X118198282Y-107537556D01*
X118125585Y-107516822D01*
X118064529Y-107502310D01*
X118012586Y-107493514D01*
X117967225Y-107489925D01*
X117925916Y-107491036D01*
X117886130Y-107496339D01*
X117834312Y-107508720D01*
X117770685Y-107535959D01*
X117724410Y-107573459D01*
X117695637Y-107621121D01*
X117694750Y-107623649D01*
X117688731Y-107655543D01*
X117685645Y-107701583D01*
X117685402Y-107756440D01*
X116868145Y-107756440D01*
X116867849Y-107755080D01*
X116842932Y-107612670D01*
X116825187Y-107448877D01*
X116821681Y-107298146D01*
X116832358Y-107160734D01*
X116857164Y-107036899D01*
X116896044Y-106926899D01*
X116948942Y-106830991D01*
X117015805Y-106749433D01*
X117096576Y-106682483D01*
X117184009Y-106632360D01*
X117292017Y-106591276D01*
X117411353Y-106565821D01*
X117542295Y-106555991D01*
X117685123Y-106561786D01*
X117840117Y-106583201D01*
X118007557Y-106620236D01*
X118187720Y-106672887D01*
X118308940Y-106711664D01*
X118501367Y-106770826D01*
X118679444Y-106822232D01*
X118845683Y-106866508D01*
X119002596Y-106904276D01*
X119152692Y-106936162D01*
X119298483Y-106962788D01*
X119442480Y-106984780D01*
X119486359Y-106989936D01*
X119567239Y-106996340D01*
X119659150Y-107000720D01*
X119757628Y-107003078D01*
X119858207Y-107003415D01*
X119956425Y-107001733D01*
X120047815Y-106998032D01*
X120127915Y-106992314D01*
X120192259Y-106984580D01*
X120234904Y-106977358D01*
X120337958Y-106956905D01*
X120443393Y-106932329D01*
X120543657Y-106905463D01*
X120631200Y-106878138D01*
X120650156Y-106871587D01*
X120725820Y-106844098D01*
X120799296Y-106814923D01*
X120872965Y-106782856D01*
X120949208Y-106746691D01*
X121030407Y-106705221D01*
X121118943Y-106657240D01*
X121217199Y-106601542D01*
X121327555Y-106536920D01*
X121452393Y-106462168D01*
X121483043Y-106443668D01*
X121595993Y-106375568D01*
X121694148Y-106316549D01*
X121779550Y-106265408D01*
X121854244Y-106220943D01*
X121920271Y-106181951D01*
X121979676Y-106147231D01*
X122034502Y-106115580D01*
X122086791Y-106085797D01*
X122138588Y-106056678D01*
X122191934Y-106027021D01*
X122370887Y-105931313D01*
X122670397Y-105786221D01*
X122969407Y-105660546D01*
X123269256Y-105553830D01*
X123571279Y-105465614D01*
X123876815Y-105395440D01*
X124187200Y-105342849D01*
X124305851Y-105327368D01*
X124648527Y-105295717D01*
X124990039Y-105283435D01*
X125329468Y-105290409D01*
X125665892Y-105316522D01*
X125998393Y-105361658D01*
X126326050Y-105425703D01*
X126647944Y-105508540D01*
X126963154Y-105610055D01*
X127270760Y-105730131D01*
X127299579Y-105742482D01*
X127389488Y-105782037D01*
X127478158Y-105822772D01*
X127567419Y-105865672D01*
X127659099Y-105911724D01*
X127755028Y-105961916D01*
X127857036Y-106017235D01*
X127966951Y-106078667D01*
X128086603Y-106147199D01*
X128217822Y-106223818D01*
X128362436Y-106309510D01*
X128522276Y-106405263D01*
X128537714Y-106414544D01*
X128685843Y-106502764D01*
X128819269Y-106580425D01*
X128939865Y-106648374D01*
X129049504Y-106707457D01*
X129150062Y-106758517D01*
X129243411Y-106802402D01*
X129331426Y-106839956D01*
X129415981Y-106872025D01*
X129498949Y-106899454D01*
X129582205Y-106923089D01*
X129667621Y-106943775D01*
X129757073Y-106962357D01*
X129797867Y-106969937D01*
X129933700Y-106990557D01*
X130070446Y-107003862D01*
X130209652Y-107009648D01*
X130352865Y-107007710D01*
X130501633Y-106997847D01*
X130657503Y-106979853D01*
X130822022Y-106953526D01*
X130996738Y-106918662D01*
X131183198Y-106875057D01*
X131382949Y-106822507D01*
X131597539Y-106760809D01*
X131828514Y-106689760D01*
X131929319Y-106658483D01*
X132024051Y-106630733D01*
X132106753Y-106608715D01*
X132181032Y-106591604D01*
X132250498Y-106578573D01*
X132318760Y-106568798D01*
X132389427Y-106561453D01*
X132493826Y-106556475D01*
X132622867Y-106562877D01*
X132742368Y-106583462D01*
X132850936Y-106617765D01*
X132947178Y-106665320D01*
X133029701Y-106725659D01*
X133097112Y-106798317D01*
X133123127Y-106836343D01*
X133165049Y-106913397D01*
X133200480Y-106998668D01*
X133225984Y-107084520D01*
X133233760Y-107126737D01*
X133241568Y-107201482D01*
X133245319Y-107287918D01*
X133245059Y-107381190D01*
X133240833Y-107476444D01*
X133232687Y-107568825D01*
X133220665Y-107653480D01*
X133220188Y-107656183D01*
X133203965Y-107740462D01*
X133197466Y-107774228D01*
X133170951Y-107891463D01*
X133139932Y-108009929D01*
X133103701Y-108131673D01*
X133061547Y-108258737D01*
X133012759Y-108393165D01*
X132956627Y-108537001D01*
X132892443Y-108692290D01*
X132819494Y-108861075D01*
X132737072Y-109045400D01*
X132730301Y-109060344D01*
X132658128Y-109221037D01*
X132594494Y-109365869D01*
X132538739Y-109496889D01*
X132490203Y-109616148D01*
X132448227Y-109725693D01*
X132412151Y-109827575D01*
X132381315Y-109923842D01*
X132355061Y-110016543D01*
X132332728Y-110107727D01*
X132313658Y-110199444D01*
X132297189Y-110293742D01*
X132282664Y-110392671D01*
X132269422Y-110498280D01*
X132267448Y-110515424D01*
X132257593Y-110611500D01*
X132249733Y-110709245D01*
X132243909Y-110810083D01*
X132240158Y-110915435D01*
X132238522Y-111026725D01*
X132239038Y-111145375D01*
X132241746Y-111272809D01*
X132246684Y-111410448D01*
X132253893Y-111559716D01*
X132263412Y-111722035D01*
X132275279Y-111898828D01*
X132289533Y-112091518D01*
X132306214Y-112301528D01*
X132325362Y-112530280D01*
X132330629Y-112592017D01*
X132342020Y-112726765D01*
X132351786Y-112844778D01*
X132360078Y-112948525D01*
X132367045Y-113040476D01*
X132372836Y-113123102D01*
X132377601Y-113198873D01*
X132381490Y-113270259D01*
X132384651Y-113339730D01*
X132387235Y-113409758D01*
X132389391Y-113482812D01*
X132391268Y-113561362D01*
X132393017Y-113647880D01*
X132394247Y-113730466D01*
X132390292Y-114135472D01*
X132369652Y-114531918D01*
X132332412Y-114919179D01*
X132278659Y-115296631D01*
X132208479Y-115663650D01*
X132121957Y-116019611D01*
X132019179Y-116363891D01*
X131972466Y-116501338D01*
X131844366Y-116835645D01*
X131699518Y-117158459D01*
X131537955Y-117469744D01*
X131359706Y-117769466D01*
X131164803Y-118057591D01*
X130953276Y-118334084D01*
X130725156Y-118598911D01*
X130480475Y-118852036D01*
X130219262Y-119093426D01*
X129941549Y-119323046D01*
X129647367Y-119540860D01*
X129336746Y-119746835D01*
X129009718Y-119940936D01*
X128666313Y-120123129D01*
X128517782Y-120197578D01*
X128328129Y-120470778D01*
X128188911Y-120671326D01*
X128162927Y-120708694D01*
X120043998Y-111249735D02*
X120041268Y-111262566D01*
X120041268Y-111262566D02*
X120039396Y-111292719D01*
X120039396Y-111292719D02*
X120038326Y-111337219D01*
X120038326Y-111337219D02*
X120038003Y-111393087D01*
X120038003Y-111393087D02*
X120038372Y-111457349D01*
X120038372Y-111457349D02*
X120039378Y-111527026D01*
X120039378Y-111527026D02*
X120040965Y-111599142D01*
X120040965Y-111599142D02*
X120043078Y-111670720D01*
X120043078Y-111670720D02*
X120045662Y-111738784D01*
X120045662Y-111738784D02*
X120048662Y-111800357D01*
X120048662Y-111800357D02*
X120052022Y-111852462D01*
X120052022Y-111852462D02*
X120055687Y-111892123D01*
X120055687Y-111892123D02*
X120055960Y-111894406D01*
X120055960Y-111894406D02*
X120092068Y-112123666D01*
X120092068Y-112123666D02*
X120142817Y-112338886D01*
X120142817Y-112338886D02*
X120208200Y-112540051D01*
X120208200Y-112540051D02*
X120288208Y-112727148D01*
X120288208Y-112727148D02*
X120382835Y-112900160D01*
X120382835Y-112900160D02*
X120492072Y-113059075D01*
X120492072Y-113059075D02*
X120615912Y-113203878D01*
X120615912Y-113203878D02*
X120754347Y-113334555D01*
X120754347Y-113334555D02*
X120869960Y-113424877D01*
X120869960Y-113424877D02*
X120938138Y-113469759D01*
X120938138Y-113469759D02*
X121020028Y-113517075D01*
X121020028Y-113517075D02*
X121109750Y-113563882D01*
X121109750Y-113563882D02*
X121201422Y-113607233D01*
X121201422Y-113607233D02*
X121289162Y-113644185D01*
X121289162Y-113644185D02*
X121356156Y-113668329D01*
X121356156Y-113668329D02*
X121497572Y-113709121D01*
X121497572Y-113709121D02*
X121639160Y-113739329D01*
X121639160Y-113739329D02*
X121785048Y-113759456D01*
X121785048Y-113759456D02*
X121939366Y-113770004D01*
X121939366Y-113770004D02*
X122106244Y-113771478D01*
X122106244Y-113771478D02*
X122185583Y-113769350D01*
X122185583Y-113769350D02*
X122294783Y-113765519D01*
X122294783Y-113765519D02*
X122385899Y-113762758D01*
X122385899Y-113762758D02*
X122461141Y-113761127D01*
X122461141Y-113761127D02*
X122522719Y-113760691D01*
X122522719Y-113760691D02*
X122572844Y-113761510D01*
X122572844Y-113761510D02*
X122613727Y-113763647D01*
X122613727Y-113763647D02*
X122647577Y-113767164D01*
X122647577Y-113767164D02*
X122676605Y-113772122D01*
X122676605Y-113772122D02*
X122703023Y-113778586D01*
X122703023Y-113778586D02*
X122722409Y-113784443D01*
X122722409Y-113784443D02*
X122817999Y-113825079D01*
X122817999Y-113825079D02*
X122901730Y-113880822D01*
X122901730Y-113880822D02*
X122972040Y-113949983D01*
X122972040Y-113949983D02*
X123027363Y-114030872D01*
X123027363Y-114030872D02*
X123066137Y-114121801D01*
X123066137Y-114121801D02*
X123078530Y-114169080D01*
X123078530Y-114169080D02*
X123086429Y-114226954D01*
X123086429Y-114226954D02*
X123089240Y-114295931D01*
X123089240Y-114295931D02*
X123087033Y-114367459D01*
X123087033Y-114367459D02*
X123079879Y-114432987D01*
X123079879Y-114432987D02*
X123076191Y-114453060D01*
X123076191Y-114453060D02*
X123069731Y-114485630D01*
X123069731Y-114485630D02*
X123065887Y-114508536D01*
X123065887Y-114508536D02*
X123065451Y-114516560D01*
X123065451Y-114516560D02*
X123072886Y-114509538D01*
X123072886Y-114509538D02*
X123089406Y-114491407D01*
X123089406Y-114491407D02*
X123105141Y-114473380D01*
X123105141Y-114473380D02*
X123174813Y-114381397D01*
X123174813Y-114381397D02*
X123240461Y-114273523D01*
X123240461Y-114273523D02*
X123300059Y-114154084D01*
X123300059Y-114154084D02*
X123351581Y-114027410D01*
X123351581Y-114027410D02*
X123393002Y-113897829D01*
X123393002Y-113897829D02*
X123413443Y-113814587D01*
X123413443Y-113814587D02*
X123439010Y-113669950D01*
X123439010Y-113669950D02*
X123452001Y-113528891D01*
X123452001Y-113528891D02*
X123453213Y-113381906D01*
X123453213Y-113381906D02*
X123452208Y-113353240D01*
X123452208Y-113353240D02*
X123436120Y-113173565D01*
X123436120Y-113173565D02*
X123402825Y-113004215D01*
X123402825Y-113004215D02*
X123351879Y-112844030D01*
X123351879Y-112844030D02*
X123282840Y-112691853D01*
X123282840Y-112691853D02*
X123195265Y-112546526D01*
X123195265Y-112546526D02*
X123092028Y-112410817D01*
X123092028Y-112410817D02*
X123000101Y-112313561D01*
X123000101Y-112313561D02*
X122889410Y-112217192D01*
X122889410Y-112217192D02*
X122761511Y-112122612D01*
X122761511Y-112122612D02*
X122617962Y-112030724D01*
X122617962Y-112030724D02*
X122460317Y-111942430D01*
X122460317Y-111942430D02*
X122290134Y-111858631D01*
X122290134Y-111858631D02*
X122108968Y-111780231D01*
X122108968Y-111780231D02*
X121918377Y-111708130D01*
X121918377Y-111708130D02*
X121825000Y-111676352D01*
X121825000Y-111676352D02*
X121737973Y-111648576D01*
X121737973Y-111648576D02*
X121650480Y-111622387D01*
X121650480Y-111622387D02*
X121560004Y-111597175D01*
X121560004Y-111597175D02*
X121464028Y-111572327D01*
X121464028Y-111572327D02*
X121360033Y-111547231D01*
X121360033Y-111547231D02*
X121245501Y-111521275D01*
X121245501Y-111521275D02*
X121117914Y-111493847D01*
X121117914Y-111493847D02*
X120974754Y-111464335D01*
X120974754Y-111464335D02*
X120849640Y-111439273D01*
X120849640Y-111439273D02*
X120721727Y-111413771D01*
X120721727Y-111413771D02*
X120611729Y-111391493D01*
X120611729Y-111391493D02*
X120517581Y-111371963D01*
X120517581Y-111371963D02*
X120437216Y-111354706D01*
X120437216Y-111354706D02*
X120368570Y-111339246D01*
X120368570Y-111339246D02*
X120309577Y-111325107D01*
X120309577Y-111325107D02*
X120258171Y-111311813D01*
X120258171Y-111311813D02*
X120212288Y-111298889D01*
X120212288Y-111298889D02*
X120169861Y-111285859D01*
X120169861Y-111285859D02*
X120138051Y-111275388D01*
X120138051Y-111275388D02*
X120098643Y-111262683D01*
X120098643Y-111262683D02*
X120067037Y-111253653D01*
X120067037Y-111253653D02*
X120047720Y-111249520D01*
X120047720Y-111249520D02*
X120043998Y-111249735D01*
X120043998Y-111249735D02*
X120043998Y-111249735D01*
G36*
X120067037Y-111253653D02*
G01*
X120098643Y-111262683D01*
X120138051Y-111275388D01*
X120169861Y-111285859D01*
X120212288Y-111298889D01*
X120258171Y-111311813D01*
X120309577Y-111325107D01*
X120368570Y-111339246D01*
X120437216Y-111354706D01*
X120517581Y-111371963D01*
X120611729Y-111391493D01*
X120721727Y-111413771D01*
X120849640Y-111439273D01*
X120974754Y-111464335D01*
X121117914Y-111493847D01*
X121245501Y-111521275D01*
X121360033Y-111547231D01*
X121464028Y-111572327D01*
X121560004Y-111597175D01*
X121650480Y-111622387D01*
X121737973Y-111648576D01*
X121825000Y-111676352D01*
X121918377Y-111708130D01*
X122108968Y-111780231D01*
X122290134Y-111858631D01*
X122460317Y-111942430D01*
X122617962Y-112030724D01*
X122761511Y-112122612D01*
X122889410Y-112217192D01*
X123000101Y-112313561D01*
X123092028Y-112410817D01*
X123195265Y-112546526D01*
X123282840Y-112691853D01*
X123351879Y-112844030D01*
X123402825Y-113004215D01*
X123436120Y-113173565D01*
X123452208Y-113353240D01*
X123453213Y-113381906D01*
X123452001Y-113528891D01*
X123439010Y-113669950D01*
X123413443Y-113814587D01*
X123393002Y-113897829D01*
X123351581Y-114027410D01*
X123300059Y-114154084D01*
X123240461Y-114273523D01*
X123174813Y-114381397D01*
X123105141Y-114473380D01*
X123089406Y-114491407D01*
X123072886Y-114509538D01*
X123065451Y-114516560D01*
X123065887Y-114508536D01*
X123069731Y-114485630D01*
X123076191Y-114453060D01*
X123079879Y-114432987D01*
X123087033Y-114367459D01*
X123089240Y-114295931D01*
X123086429Y-114226954D01*
X123078530Y-114169080D01*
X123066137Y-114121801D01*
X123027363Y-114030872D01*
X122972040Y-113949983D01*
X122901730Y-113880822D01*
X122817999Y-113825079D01*
X122722409Y-113784443D01*
X122703023Y-113778586D01*
X122676605Y-113772122D01*
X122647577Y-113767164D01*
X122613727Y-113763647D01*
X122572844Y-113761510D01*
X122522719Y-113760691D01*
X122461141Y-113761127D01*
X122385899Y-113762758D01*
X122294783Y-113765519D01*
X122185583Y-113769350D01*
X122106244Y-113771478D01*
X121939366Y-113770004D01*
X121785048Y-113759456D01*
X121639160Y-113739329D01*
X121497572Y-113709121D01*
X121356156Y-113668329D01*
X121289162Y-113644185D01*
X121201422Y-113607233D01*
X121109750Y-113563882D01*
X121020028Y-113517075D01*
X120938138Y-113469759D01*
X120869960Y-113424877D01*
X120754347Y-113334555D01*
X120615912Y-113203878D01*
X120492072Y-113059075D01*
X120382835Y-112900160D01*
X120288208Y-112727148D01*
X120208200Y-112540051D01*
X120142817Y-112338886D01*
X120092068Y-112123666D01*
X120055960Y-111894406D01*
X120055687Y-111892123D01*
X120052022Y-111852462D01*
X120048662Y-111800357D01*
X120045662Y-111738784D01*
X120043078Y-111670720D01*
X120040965Y-111599142D01*
X120039378Y-111527026D01*
X120038372Y-111457349D01*
X120038003Y-111393087D01*
X120038326Y-111337219D01*
X120039396Y-111292719D01*
X120041268Y-111262566D01*
X120043998Y-111249735D01*
X120047720Y-111249520D01*
X120067037Y-111253653D01*
G37*
X120067037Y-111253653D02*
X120098643Y-111262683D01*
X120138051Y-111275388D01*
X120169861Y-111285859D01*
X120212288Y-111298889D01*
X120258171Y-111311813D01*
X120309577Y-111325107D01*
X120368570Y-111339246D01*
X120437216Y-111354706D01*
X120517581Y-111371963D01*
X120611729Y-111391493D01*
X120721727Y-111413771D01*
X120849640Y-111439273D01*
X120974754Y-111464335D01*
X121117914Y-111493847D01*
X121245501Y-111521275D01*
X121360033Y-111547231D01*
X121464028Y-111572327D01*
X121560004Y-111597175D01*
X121650480Y-111622387D01*
X121737973Y-111648576D01*
X121825000Y-111676352D01*
X121918377Y-111708130D01*
X122108968Y-111780231D01*
X122290134Y-111858631D01*
X122460317Y-111942430D01*
X122617962Y-112030724D01*
X122761511Y-112122612D01*
X122889410Y-112217192D01*
X123000101Y-112313561D01*
X123092028Y-112410817D01*
X123195265Y-112546526D01*
X123282840Y-112691853D01*
X123351879Y-112844030D01*
X123402825Y-113004215D01*
X123436120Y-113173565D01*
X123452208Y-113353240D01*
X123453213Y-113381906D01*
X123452001Y-113528891D01*
X123439010Y-113669950D01*
X123413443Y-113814587D01*
X123393002Y-113897829D01*
X123351581Y-114027410D01*
X123300059Y-114154084D01*
X123240461Y-114273523D01*
X123174813Y-114381397D01*
X123105141Y-114473380D01*
X123089406Y-114491407D01*
X123072886Y-114509538D01*
X123065451Y-114516560D01*
X123065887Y-114508536D01*
X123069731Y-114485630D01*
X123076191Y-114453060D01*
X123079879Y-114432987D01*
X123087033Y-114367459D01*
X123089240Y-114295931D01*
X123086429Y-114226954D01*
X123078530Y-114169080D01*
X123066137Y-114121801D01*
X123027363Y-114030872D01*
X122972040Y-113949983D01*
X122901730Y-113880822D01*
X122817999Y-113825079D01*
X122722409Y-113784443D01*
X122703023Y-113778586D01*
X122676605Y-113772122D01*
X122647577Y-113767164D01*
X122613727Y-113763647D01*
X122572844Y-113761510D01*
X122522719Y-113760691D01*
X122461141Y-113761127D01*
X122385899Y-113762758D01*
X122294783Y-113765519D01*
X122185583Y-113769350D01*
X122106244Y-113771478D01*
X121939366Y-113770004D01*
X121785048Y-113759456D01*
X121639160Y-113739329D01*
X121497572Y-113709121D01*
X121356156Y-113668329D01*
X121289162Y-113644185D01*
X121201422Y-113607233D01*
X121109750Y-113563882D01*
X121020028Y-113517075D01*
X120938138Y-113469759D01*
X120869960Y-113424877D01*
X120754347Y-113334555D01*
X120615912Y-113203878D01*
X120492072Y-113059075D01*
X120382835Y-112900160D01*
X120288208Y-112727148D01*
X120208200Y-112540051D01*
X120142817Y-112338886D01*
X120092068Y-112123666D01*
X120055960Y-111894406D01*
X120055687Y-111892123D01*
X120052022Y-111852462D01*
X120048662Y-111800357D01*
X120045662Y-111738784D01*
X120043078Y-111670720D01*
X120040965Y-111599142D01*
X120039378Y-111527026D01*
X120038372Y-111457349D01*
X120038003Y-111393087D01*
X120038326Y-111337219D01*
X120039396Y-111292719D01*
X120041268Y-111262566D01*
X120043998Y-111249735D01*
X120047720Y-111249520D01*
X120067037Y-111253653D01*
X129945054Y-111271533D02*
X129901054Y-111285830D01*
X129901054Y-111285830D02*
X129851799Y-111300306D01*
X129851799Y-111300306D02*
X129795450Y-111315386D01*
X129795450Y-111315386D02*
X129730165Y-111331495D01*
X129730165Y-111331495D02*
X129654104Y-111349058D01*
X129654104Y-111349058D02*
X129565427Y-111368499D01*
X129565427Y-111368499D02*
X129462294Y-111390244D01*
X129462294Y-111390244D02*
X129342863Y-111414716D01*
X129342863Y-111414716D02*
X129205296Y-111442342D01*
X129205296Y-111442342D02*
X129203384Y-111442723D01*
X129203384Y-111442723D02*
X129104319Y-111462704D01*
X129104319Y-111462704D02*
X129004343Y-111483318D01*
X129004343Y-111483318D02*
X128906789Y-111503847D01*
X128906789Y-111503847D02*
X128814988Y-111523573D01*
X128814988Y-111523573D02*
X128732276Y-111541777D01*
X128732276Y-111541777D02*
X128661983Y-111557741D01*
X128661983Y-111557741D02*
X128607443Y-111570747D01*
X128607443Y-111570747D02*
X128596287Y-111573547D01*
X128596287Y-111573547D02*
X128325946Y-111649835D01*
X128325946Y-111649835D02*
X128070523Y-111737159D01*
X128070523Y-111737159D02*
X127830636Y-111835253D01*
X127830636Y-111835253D02*
X127606906Y-111943846D01*
X127606906Y-111943846D02*
X127399951Y-112062671D01*
X127399951Y-112062671D02*
X127270760Y-112148030D01*
X127270760Y-112148030D02*
X127128861Y-112258648D01*
X127128861Y-112258648D02*
X127004109Y-112380100D01*
X127004109Y-112380100D02*
X126896332Y-112512643D01*
X126896332Y-112512643D02*
X126805362Y-112656533D01*
X126805362Y-112656533D02*
X126731029Y-112812029D01*
X126731029Y-112812029D02*
X126673161Y-112979385D01*
X126673161Y-112979385D02*
X126644403Y-113094160D01*
X126644403Y-113094160D02*
X126636471Y-113133366D01*
X126636471Y-113133366D02*
X126630543Y-113170124D01*
X126630543Y-113170124D02*
X126626332Y-113208483D01*
X126626332Y-113208483D02*
X126623550Y-113252493D01*
X126623550Y-113252493D02*
X126621909Y-113306201D01*
X126621909Y-113306201D02*
X126621120Y-113373657D01*
X126621120Y-113373657D02*
X126620933Y-113424360D01*
X126620933Y-113424360D02*
X126621049Y-113502555D01*
X126621049Y-113502555D02*
X126621909Y-113564626D01*
X126621909Y-113564626D02*
X126623797Y-113614766D01*
X126623797Y-113614766D02*
X126626997Y-113657164D01*
X126626997Y-113657164D02*
X126631792Y-113696013D01*
X126631792Y-113696013D02*
X126638466Y-113735504D01*
X126638466Y-113735504D02*
X126643850Y-113763031D01*
X126643850Y-113763031D02*
X126683900Y-113924629D01*
X126683900Y-113924629D02*
X126736548Y-114078466D01*
X126736548Y-114078466D02*
X126800569Y-114221833D01*
X126800569Y-114221833D02*
X126874740Y-114352019D01*
X126874740Y-114352019D02*
X126957836Y-114466315D01*
X126957836Y-114466315D02*
X126965871Y-114475920D01*
X126965871Y-114475920D02*
X126987184Y-114500649D01*
X126987184Y-114500649D02*
X126997995Y-114510947D01*
X126997995Y-114510947D02*
X127000791Y-114508008D01*
X127000791Y-114508008D02*
X126998063Y-114493025D01*
X126998063Y-114493025D02*
X126997639Y-114491160D01*
X126997639Y-114491160D02*
X126991706Y-114453336D01*
X126991706Y-114453336D02*
X126987322Y-114402291D01*
X126987322Y-114402291D02*
X126984621Y-114344060D01*
X126984621Y-114344060D02*
X126983737Y-114284681D01*
X126983737Y-114284681D02*
X126984802Y-114230191D01*
X126984802Y-114230191D02*
X126987951Y-114186626D01*
X126987951Y-114186626D02*
X126990537Y-114169903D01*
X126990537Y-114169903D02*
X127020144Y-114074597D01*
X127020144Y-114074597D02*
X127066250Y-113989616D01*
X127066250Y-113989616D02*
X127127233Y-113916091D01*
X127127233Y-113916091D02*
X127201473Y-113855152D01*
X127201473Y-113855152D02*
X127287348Y-113807930D01*
X127287348Y-113807930D02*
X127383236Y-113775553D01*
X127383236Y-113775553D02*
X127487516Y-113759153D01*
X127487516Y-113759153D02*
X127580640Y-113758564D01*
X127580640Y-113758564D02*
X127691708Y-113764398D01*
X127691708Y-113764398D02*
X127802385Y-113768680D01*
X127802385Y-113768680D02*
X127909383Y-113771378D01*
X127909383Y-113771378D02*
X128009411Y-113772455D01*
X128009411Y-113772455D02*
X128099179Y-113771879D01*
X128099179Y-113771879D02*
X128175398Y-113769614D01*
X128175398Y-113769614D02*
X128234777Y-113765625D01*
X128234777Y-113765625D02*
X128236495Y-113765456D01*
X128236495Y-113765456D02*
X128444222Y-113735524D01*
X128444222Y-113735524D02*
X128640908Y-113688623D01*
X128640908Y-113688623D02*
X128826198Y-113625064D01*
X128826198Y-113625064D02*
X128999736Y-113545163D01*
X128999736Y-113545163D02*
X129161166Y-113449233D01*
X129161166Y-113449233D02*
X129310131Y-113337588D01*
X129310131Y-113337588D02*
X129446277Y-113210541D01*
X129446277Y-113210541D02*
X129569246Y-113068408D01*
X129569246Y-113068408D02*
X129678682Y-112911500D01*
X129678682Y-112911500D02*
X129774231Y-112740133D01*
X129774231Y-112740133D02*
X129855535Y-112554621D01*
X129855535Y-112554621D02*
X129922239Y-112355276D01*
X129922239Y-112355276D02*
X129948675Y-112255960D01*
X129948675Y-112255960D02*
X129970900Y-112159705D01*
X129970900Y-112159705D02*
X129988567Y-112069058D01*
X129988567Y-112069058D02*
X130002210Y-111979435D01*
X130002210Y-111979435D02*
X130012364Y-111886252D01*
X130012364Y-111886252D02*
X130019561Y-111784925D01*
X130019561Y-111784925D02*
X130024336Y-111670870D01*
X130024336Y-111670870D02*
X130026377Y-111588599D01*
X130026377Y-111588599D02*
X130027564Y-111514443D01*
X130027564Y-111514443D02*
X130028159Y-111445309D01*
X130028159Y-111445309D02*
X130028175Y-111384307D01*
X130028175Y-111384307D02*
X130027627Y-111334549D01*
X130027627Y-111334549D02*
X130026527Y-111299145D01*
X130026527Y-111299145D02*
X130025049Y-111281975D01*
X130025049Y-111281975D02*
X130018388Y-111246472D01*
X130018388Y-111246472D02*
X129945054Y-111271533D01*
X129945054Y-111271533D02*
X129945054Y-111271533D01*
G36*
X130025049Y-111281975D02*
G01*
X130026527Y-111299145D01*
X130027627Y-111334549D01*
X130028175Y-111384307D01*
X130028159Y-111445309D01*
X130027564Y-111514443D01*
X130026377Y-111588599D01*
X130024336Y-111670870D01*
X130019561Y-111784925D01*
X130012364Y-111886252D01*
X130002210Y-111979435D01*
X129988567Y-112069058D01*
X129970900Y-112159705D01*
X129948675Y-112255960D01*
X129922239Y-112355276D01*
X129855535Y-112554621D01*
X129774231Y-112740133D01*
X129678682Y-112911500D01*
X129569246Y-113068408D01*
X129446277Y-113210541D01*
X129310131Y-113337588D01*
X129161166Y-113449233D01*
X128999736Y-113545163D01*
X128826198Y-113625064D01*
X128640908Y-113688623D01*
X128444222Y-113735524D01*
X128236495Y-113765456D01*
X128234777Y-113765625D01*
X128175398Y-113769614D01*
X128099179Y-113771879D01*
X128009411Y-113772455D01*
X127909383Y-113771378D01*
X127802385Y-113768680D01*
X127691708Y-113764398D01*
X127580640Y-113758564D01*
X127487516Y-113759153D01*
X127383236Y-113775553D01*
X127287348Y-113807930D01*
X127201473Y-113855152D01*
X127127233Y-113916091D01*
X127066250Y-113989616D01*
X127020144Y-114074597D01*
X126990537Y-114169903D01*
X126987951Y-114186626D01*
X126984802Y-114230191D01*
X126983737Y-114284681D01*
X126984621Y-114344060D01*
X126987322Y-114402291D01*
X126991706Y-114453336D01*
X126997639Y-114491160D01*
X126998063Y-114493025D01*
X127000791Y-114508008D01*
X126997995Y-114510947D01*
X126987184Y-114500649D01*
X126965871Y-114475920D01*
X126957836Y-114466315D01*
X126874740Y-114352019D01*
X126800569Y-114221833D01*
X126736548Y-114078466D01*
X126683900Y-113924629D01*
X126643850Y-113763031D01*
X126638466Y-113735504D01*
X126631792Y-113696013D01*
X126626997Y-113657164D01*
X126623797Y-113614766D01*
X126621909Y-113564626D01*
X126621049Y-113502555D01*
X126620933Y-113424360D01*
X126621120Y-113373657D01*
X126621909Y-113306201D01*
X126623550Y-113252493D01*
X126626332Y-113208483D01*
X126630543Y-113170124D01*
X126636471Y-113133366D01*
X126644403Y-113094160D01*
X126673161Y-112979385D01*
X126731029Y-112812029D01*
X126805362Y-112656533D01*
X126896332Y-112512643D01*
X127004109Y-112380100D01*
X127128861Y-112258648D01*
X127270760Y-112148030D01*
X127399951Y-112062671D01*
X127606906Y-111943846D01*
X127830636Y-111835253D01*
X128070523Y-111737159D01*
X128325946Y-111649835D01*
X128596287Y-111573547D01*
X128607443Y-111570747D01*
X128661983Y-111557741D01*
X128732276Y-111541777D01*
X128814988Y-111523573D01*
X128906789Y-111503847D01*
X129004343Y-111483318D01*
X129104319Y-111462704D01*
X129203384Y-111442723D01*
X129205296Y-111442342D01*
X129342863Y-111414716D01*
X129462294Y-111390244D01*
X129565427Y-111368499D01*
X129654104Y-111349058D01*
X129730165Y-111331495D01*
X129795450Y-111315386D01*
X129851799Y-111300306D01*
X129901054Y-111285830D01*
X129945054Y-111271533D01*
X130018388Y-111246472D01*
X130025049Y-111281975D01*
G37*
X130025049Y-111281975D02*
X130026527Y-111299145D01*
X130027627Y-111334549D01*
X130028175Y-111384307D01*
X130028159Y-111445309D01*
X130027564Y-111514443D01*
X130026377Y-111588599D01*
X130024336Y-111670870D01*
X130019561Y-111784925D01*
X130012364Y-111886252D01*
X130002210Y-111979435D01*
X129988567Y-112069058D01*
X129970900Y-112159705D01*
X129948675Y-112255960D01*
X129922239Y-112355276D01*
X129855535Y-112554621D01*
X129774231Y-112740133D01*
X129678682Y-112911500D01*
X129569246Y-113068408D01*
X129446277Y-113210541D01*
X129310131Y-113337588D01*
X129161166Y-113449233D01*
X128999736Y-113545163D01*
X128826198Y-113625064D01*
X128640908Y-113688623D01*
X128444222Y-113735524D01*
X128236495Y-113765456D01*
X128234777Y-113765625D01*
X128175398Y-113769614D01*
X128099179Y-113771879D01*
X128009411Y-113772455D01*
X127909383Y-113771378D01*
X127802385Y-113768680D01*
X127691708Y-113764398D01*
X127580640Y-113758564D01*
X127487516Y-113759153D01*
X127383236Y-113775553D01*
X127287348Y-113807930D01*
X127201473Y-113855152D01*
X127127233Y-113916091D01*
X127066250Y-113989616D01*
X127020144Y-114074597D01*
X126990537Y-114169903D01*
X126987951Y-114186626D01*
X126984802Y-114230191D01*
X126983737Y-114284681D01*
X126984621Y-114344060D01*
X126987322Y-114402291D01*
X126991706Y-114453336D01*
X126997639Y-114491160D01*
X126998063Y-114493025D01*
X127000791Y-114508008D01*
X126997995Y-114510947D01*
X126987184Y-114500649D01*
X126965871Y-114475920D01*
X126957836Y-114466315D01*
X126874740Y-114352019D01*
X126800569Y-114221833D01*
X126736548Y-114078466D01*
X126683900Y-113924629D01*
X126643850Y-113763031D01*
X126638466Y-113735504D01*
X126631792Y-113696013D01*
X126626997Y-113657164D01*
X126623797Y-113614766D01*
X126621909Y-113564626D01*
X126621049Y-113502555D01*
X126620933Y-113424360D01*
X126621120Y-113373657D01*
X126621909Y-113306201D01*
X126623550Y-113252493D01*
X126626332Y-113208483D01*
X126630543Y-113170124D01*
X126636471Y-113133366D01*
X126644403Y-113094160D01*
X126673161Y-112979385D01*
X126731029Y-112812029D01*
X126805362Y-112656533D01*
X126896332Y-112512643D01*
X127004109Y-112380100D01*
X127128861Y-112258648D01*
X127270760Y-112148030D01*
X127399951Y-112062671D01*
X127606906Y-111943846D01*
X127830636Y-111835253D01*
X128070523Y-111737159D01*
X128325946Y-111649835D01*
X128596287Y-111573547D01*
X128607443Y-111570747D01*
X128661983Y-111557741D01*
X128732276Y-111541777D01*
X128814988Y-111523573D01*
X128906789Y-111503847D01*
X129004343Y-111483318D01*
X129104319Y-111462704D01*
X129203384Y-111442723D01*
X129205296Y-111442342D01*
X129342863Y-111414716D01*
X129462294Y-111390244D01*
X129565427Y-111368499D01*
X129654104Y-111349058D01*
X129730165Y-111331495D01*
X129795450Y-111315386D01*
X129851799Y-111300306D01*
X129901054Y-111285830D01*
X129945054Y-111271533D01*
X130018388Y-111246472D01*
X130025049Y-111281975D01*
D12*
X157800000Y-120600000D02*
X157800000Y-123000000D01*
X160200000Y-123000000D02*
X160200000Y-120600000D01*
X157800000Y-123000000D02*
X160200000Y-123000000D01*
X160200000Y-120600000D02*
X157800000Y-120600000D01*
X160200000Y-119900000D02*
X160200000Y-117500000D01*
X160200000Y-117500000D02*
X157800000Y-117500000D01*
X157800000Y-117500000D02*
X157800000Y-119900000D01*
X157800000Y-119900000D02*
X160200000Y-119900000D01*
X115100000Y-115700000D02*
X113700000Y-115700000D01*
X113700000Y-115700000D02*
X113700000Y-117100000D01*
X113700000Y-117100000D02*
X115100000Y-117100000D01*
X115100000Y-117100000D02*
X115100000Y-115700000D01*
X163900000Y-86800000D02*
X163900000Y-89200000D01*
X163900000Y-89200000D02*
X166300000Y-89200000D01*
X166300000Y-86800000D02*
X163900000Y-86800000D01*
X166300000Y-89200000D02*
X166300000Y-86800000D01*
X177050000Y-102550000D02*
X175150000Y-102550000D01*
X177050000Y-104450000D02*
X177050000Y-102550000D01*
X175150000Y-102550000D02*
X175150000Y-104450000D01*
X175150000Y-104450000D02*
X177050000Y-104450000D01*
X150100000Y-93500000D02*
X150100000Y-95900000D01*
X152500000Y-95900000D02*
X152500000Y-93500000D01*
X150100000Y-95900000D02*
X152500000Y-95900000D01*
X152500000Y-93500000D02*
X150100000Y-93500000D01*
X157100000Y-119900000D02*
X157100000Y-117500000D01*
X157100000Y-117500000D02*
X154700000Y-117500000D01*
X154700000Y-117500000D02*
X154700000Y-119900000D01*
X154700000Y-119900000D02*
X157100000Y-119900000D01*
X157100000Y-120600000D02*
X154700000Y-120600000D01*
X157100000Y-123000000D02*
X157100000Y-120600000D01*
X154700000Y-123000000D02*
X157100000Y-123000000D01*
X154700000Y-120600000D02*
X154700000Y-123000000D01*
X171600000Y-102550000D02*
X171600000Y-104450000D01*
X173500000Y-102550000D02*
X171600000Y-102550000D01*
X173500000Y-104450000D02*
X173500000Y-102550000D01*
X171600000Y-104450000D02*
X173500000Y-104450000D01*
X167850000Y-89200000D02*
X170250000Y-89200000D01*
X170250000Y-89200000D02*
X170250000Y-86800000D01*
X170250000Y-86800000D02*
X167850000Y-86800000D01*
X167850000Y-86800000D02*
X167850000Y-89200000D01*
G36*
X182932233Y-114556197D02*
G01*
X182706442Y-114793038D01*
X182359173Y-115070827D01*
X181874774Y-115405598D01*
X181524188Y-115642208D01*
X180890083Y-116100648D01*
X180269836Y-116593957D01*
X179634212Y-117147006D01*
X178953978Y-117784661D01*
X178199900Y-118531793D01*
X177905770Y-118831142D01*
X177218766Y-119548869D01*
X176608751Y-120219095D01*
X176037528Y-120885877D01*
X175466897Y-121593270D01*
X174858660Y-122385331D01*
X174659637Y-122646833D01*
X174389987Y-122992287D01*
X174163110Y-123272541D01*
X173998298Y-123463936D01*
X173914842Y-123542813D01*
X173715815Y-123586468D01*
X173449413Y-123572916D01*
X173246984Y-123492167D01*
X173239407Y-123485607D01*
X173129492Y-123364631D01*
X172945983Y-123140609D01*
X172712571Y-122843099D01*
X172452951Y-122501656D01*
X172413601Y-122449225D01*
X171807058Y-121668577D01*
X171180777Y-120917587D01*
X170505649Y-120163677D01*
X169752567Y-119374268D01*
X168892421Y-118516784D01*
X168489955Y-118129918D01*
X167821602Y-117511372D01*
X167133557Y-116900365D01*
X166453065Y-116319959D01*
X165807373Y-115793217D01*
X165223727Y-115343202D01*
X164729373Y-114992976D01*
X164432324Y-114778495D01*
X164159156Y-114509722D01*
X164048652Y-114263716D01*
X164058937Y-114216843D01*
X166589869Y-114216843D01*
X166612113Y-114508390D01*
X166730934Y-114835000D01*
X166863665Y-115081530D01*
X167152794Y-115509660D01*
X167543911Y-116012813D01*
X168019271Y-116572927D01*
X168561130Y-117171939D01*
X169151743Y-117791787D01*
X169773367Y-118414411D01*
X170408256Y-119021746D01*
X171038668Y-119595733D01*
X171646856Y-120118308D01*
X172215078Y-120571410D01*
X172725589Y-120936977D01*
X172748692Y-120952245D01*
X173054699Y-121134804D01*
X173325444Y-121240845D01*
X173587940Y-121264421D01*
X173869203Y-121199583D01*
X174196245Y-121040384D01*
X174596081Y-120780874D01*
X175095723Y-120415107D01*
X175307135Y-120253477D01*
X175984762Y-119706711D01*
X176671757Y-119112733D01*
X177352157Y-118488249D01*
X178009999Y-117849964D01*
X178629320Y-117214583D01*
X179194156Y-116598813D01*
X179688544Y-116019358D01*
X180096523Y-115492924D01*
X180402127Y-115036217D01*
X180589395Y-114665941D01*
X180735110Y-114284392D01*
X180470147Y-113755363D01*
X180205634Y-113302533D01*
X179786766Y-112721541D01*
X179231374Y-112049569D01*
X178538286Y-111285210D01*
X177706333Y-110427054D01*
X177461429Y-110182878D01*
X176691844Y-109440108D01*
X175985005Y-108796340D01*
X175348051Y-108257140D01*
X174788118Y-107828073D01*
X174312344Y-107514706D01*
X173927864Y-107322604D01*
X173641817Y-107257333D01*
X173614062Y-107257956D01*
X173270745Y-107337442D01*
X172833560Y-107546386D01*
X172309716Y-107879425D01*
X171706423Y-108331194D01*
X171030891Y-108896327D01*
X170290329Y-109569461D01*
X169491948Y-110345230D01*
X168815151Y-111034686D01*
X168239955Y-111650100D01*
X167768220Y-112192524D01*
X167385800Y-112679016D01*
X167078551Y-113126632D01*
X166832326Y-113552431D01*
X166668660Y-113903974D01*
X166589869Y-114216843D01*
X164058937Y-114216843D01*
X164100463Y-114027593D01*
X164314238Y-113788470D01*
X164689625Y-113533460D01*
X165031215Y-113323070D01*
X165828383Y-112764633D01*
X166688714Y-112077883D01*
X167597600Y-111275444D01*
X168540433Y-110369942D01*
X169502604Y-109374000D01*
X169584816Y-109285582D01*
X170129642Y-108688009D01*
X170685093Y-108060723D01*
X171225422Y-107433936D01*
X171724885Y-106837860D01*
X172157736Y-106302708D01*
X172498228Y-105858691D01*
X172543178Y-105797750D01*
X172833266Y-105416449D01*
X173055315Y-105154682D01*
X173230427Y-104992457D01*
X173379704Y-104909782D01*
X173524249Y-104886667D01*
X173528061Y-104886669D01*
X173727085Y-104900262D01*
X173889849Y-104957065D01*
X174048094Y-105082025D01*
X174233562Y-105300085D01*
X174477995Y-105636191D01*
X174527815Y-105705854D01*
X174877552Y-106160845D01*
X175329264Y-106705523D01*
X175863270Y-107319168D01*
X176459890Y-107981060D01*
X177099442Y-108670479D01*
X177762246Y-109366706D01*
X178428621Y-110049020D01*
X179078886Y-110696703D01*
X179693359Y-111289033D01*
X180252361Y-111805291D01*
X180736209Y-112224758D01*
X181030517Y-112460905D01*
X181427680Y-112761205D01*
X181802826Y-113026953D01*
X182103186Y-113219738D01*
X182480518Y-113465165D01*
X182800085Y-113728606D01*
X183008281Y-113970252D01*
X183082666Y-114168367D01*
X183062570Y-114284392D01*
X183052198Y-114344273D01*
X182932233Y-114556197D01*
G37*
G36*
X180168949Y-114487232D02*
G01*
X180064669Y-114733371D01*
X179878593Y-115041936D01*
X179546332Y-115492502D01*
X179114252Y-116011345D01*
X178601569Y-116579889D01*
X178027500Y-117179557D01*
X177411261Y-117791774D01*
X176772070Y-118397963D01*
X176171387Y-118941334D01*
X176129141Y-118979549D01*
X175501692Y-119517955D01*
X174908940Y-119994605D01*
X174370101Y-120390924D01*
X173904391Y-120688335D01*
X173793632Y-120750378D01*
X173605858Y-120848499D01*
X173510743Y-120887647D01*
X173470895Y-120878175D01*
X173297416Y-120785521D01*
X173029859Y-120608209D01*
X172692619Y-120363655D01*
X172310090Y-120069274D01*
X171906666Y-119742482D01*
X171716169Y-119582430D01*
X171080554Y-119025398D01*
X170989799Y-118941334D01*
X173007333Y-118941334D01*
X174376884Y-118941334D01*
X174331091Y-118623834D01*
X174318885Y-118524885D01*
X174291316Y-118235046D01*
X174262195Y-117861289D01*
X174236096Y-117459667D01*
X174223152Y-117250793D01*
X174194696Y-116856662D01*
X174165438Y-116519547D01*
X174140005Y-116295500D01*
X174093116Y-115978000D01*
X173116847Y-115978000D01*
X173062090Y-116625774D01*
X173053621Y-116735989D01*
X173030006Y-117164534D01*
X173013527Y-117650103D01*
X173007333Y-118107441D01*
X173007333Y-118941334D01*
X170989799Y-118941334D01*
X170438331Y-118430524D01*
X169806642Y-117816027D01*
X169202624Y-117200123D01*
X168643417Y-116601029D01*
X168146161Y-116036963D01*
X167727993Y-115526141D01*
X167406055Y-115086782D01*
X167197485Y-114737102D01*
X166979981Y-114292542D01*
X166991047Y-114268611D01*
X169874666Y-114268611D01*
X169913687Y-114437175D01*
X170092009Y-114696660D01*
X170390907Y-114961458D01*
X170784121Y-115212897D01*
X171245392Y-115432305D01*
X171748460Y-115601010D01*
X171901534Y-115632503D01*
X172283869Y-115676127D01*
X172770719Y-115703553D01*
X173321027Y-115714809D01*
X173893734Y-115709923D01*
X174447782Y-115688919D01*
X174942112Y-115651827D01*
X175335666Y-115598671D01*
X175907410Y-115465807D01*
X176663001Y-115196925D01*
X177301667Y-114850476D01*
X177329829Y-114831312D01*
X177656334Y-114544345D01*
X177813658Y-114251850D01*
X177801825Y-113954873D01*
X177620854Y-113654459D01*
X177270769Y-113351656D01*
X177082367Y-113231343D01*
X176716521Y-113035754D01*
X176375819Y-112892095D01*
X175913960Y-112735104D01*
X175376050Y-113038242D01*
X174838141Y-113341379D01*
X175340050Y-113563347D01*
X175606906Y-113691402D01*
X175980138Y-113929772D01*
X176184103Y-114164016D01*
X176218810Y-114393736D01*
X176084269Y-114618537D01*
X175780487Y-114838020D01*
X175307473Y-115051790D01*
X175194952Y-115091116D01*
X174697094Y-115209185D01*
X174128848Y-115273237D01*
X173519931Y-115286785D01*
X172900057Y-115253344D01*
X172298943Y-115176426D01*
X171746305Y-115059544D01*
X171271858Y-114906213D01*
X170905319Y-114719945D01*
X170676403Y-114504253D01*
X170593632Y-114362741D01*
X170583077Y-114234351D01*
X170673863Y-114068958D01*
X170928774Y-113791986D01*
X171272177Y-113613945D01*
X171644070Y-113583052D01*
X171765633Y-113597547D01*
X171908941Y-113585413D01*
X171991266Y-113489216D01*
X172065773Y-113269413D01*
X172093357Y-113170777D01*
X172134741Y-112971423D01*
X172132638Y-112873750D01*
X172060239Y-112872487D01*
X171862433Y-112909990D01*
X171581993Y-112978447D01*
X171260130Y-113066095D01*
X170938056Y-113161170D01*
X170656980Y-113251906D01*
X170458113Y-113326540D01*
X170382666Y-113373307D01*
X170385676Y-113390034D01*
X170470898Y-113438000D01*
X170475090Y-113470415D01*
X170386906Y-113588592D01*
X170216898Y-113763557D01*
X170086543Y-113900903D01*
X169933852Y-114111006D01*
X169874666Y-114268611D01*
X166991047Y-114268611D01*
X167187343Y-113844104D01*
X167296276Y-113632999D01*
X167605707Y-113148889D01*
X168021919Y-112595682D01*
X168400534Y-112142203D01*
X172426510Y-112142203D01*
X172453063Y-112212476D01*
X172576605Y-112244845D01*
X172833122Y-112252667D01*
X173000926Y-112258295D01*
X173177304Y-112283834D01*
X173227850Y-112323013D01*
X173218354Y-112368590D01*
X173203188Y-112561571D01*
X173189601Y-112874944D01*
X173178792Y-113278287D01*
X173171959Y-113741180D01*
X173159544Y-115089000D01*
X174135002Y-115140590D01*
X174080485Y-113696628D01*
X174025968Y-112252667D01*
X174372376Y-112252667D01*
X174463565Y-112250826D01*
X174645580Y-112219783D01*
X174679849Y-112146834D01*
X174656616Y-112079350D01*
X174585798Y-111868122D01*
X174478749Y-111546183D01*
X174345120Y-111142573D01*
X174194559Y-110686334D01*
X174081657Y-110347146D01*
X173940598Y-109933640D01*
X173821876Y-109597351D01*
X173735419Y-109366244D01*
X173691153Y-109268285D01*
X173655341Y-109309248D01*
X173564334Y-109478031D01*
X173432340Y-109749514D01*
X173272134Y-110094875D01*
X173096492Y-110485294D01*
X172918191Y-110891948D01*
X172750006Y-111286017D01*
X172604713Y-111638680D01*
X172495089Y-111921115D01*
X172433909Y-112104500D01*
X172426510Y-112142203D01*
X168400534Y-112142203D01*
X168524706Y-111993479D01*
X169093861Y-111362382D01*
X169709178Y-110722491D01*
X170350450Y-110093906D01*
X170997473Y-109496730D01*
X171630038Y-108951061D01*
X172227940Y-108477002D01*
X172770973Y-108094653D01*
X173238931Y-107824115D01*
X173356794Y-107767649D01*
X173544276Y-107699624D01*
X173692316Y-107705738D01*
X173875953Y-107780897D01*
X173986921Y-107838428D01*
X174374715Y-108086245D01*
X174845193Y-108439739D01*
X175379536Y-108880489D01*
X175958928Y-109390073D01*
X176564551Y-109950072D01*
X177177586Y-110542065D01*
X177779217Y-111147631D01*
X178350626Y-111748349D01*
X178711100Y-112146834D01*
X178872994Y-112325800D01*
X179327506Y-112861561D01*
X179695342Y-113337212D01*
X179957685Y-113734334D01*
X180117016Y-114036506D01*
X180181814Y-114251850D01*
X180188417Y-114273795D01*
X180168949Y-114487232D01*
G37*
X135600000Y-115800000D02*
X135600000Y-114400000D01*
X134200000Y-114400000D02*
X134200000Y-115800000D01*
X135600000Y-114400000D02*
X134200000Y-114400000D01*
X134200000Y-115800000D02*
X135600000Y-115800000D01*
X160900000Y-123000000D02*
X163300000Y-123000000D01*
X160900000Y-120600000D02*
X160900000Y-123000000D01*
X163300000Y-123000000D02*
X163300000Y-120600000D01*
X163300000Y-120600000D02*
X160900000Y-120600000D01*
X159950000Y-89200000D02*
X162350000Y-89200000D01*
X159950000Y-86800000D02*
X159950000Y-89200000D01*
X162350000Y-89200000D02*
X162350000Y-86800000D01*
X162350000Y-86800000D02*
X159950000Y-86800000D01*
X163300000Y-119900000D02*
X163300000Y-117500000D01*
X160900000Y-119900000D02*
X163300000Y-119900000D01*
X160900000Y-117500000D02*
X160900000Y-119900000D01*
X163300000Y-117500000D02*
X160900000Y-117500000D01*
%LPC*%
D13*
X184900000Y-77750000D03*
D14*
X184900000Y-80290000D03*
X184900000Y-82830000D03*
X184900000Y-85370000D03*
X184900000Y-87910000D03*
X184900000Y-90450000D03*
D13*
X177300000Y-97275000D03*
D14*
X177300000Y-94735000D03*
X179840000Y-97275000D03*
X179840000Y-94735000D03*
X182380000Y-97275000D03*
X182380000Y-94735000D03*
X184920000Y-97275000D03*
X184920000Y-94735000D03*
D13*
X103650000Y-87400000D03*
D14*
X101110000Y-87400000D03*
D13*
X155900000Y-81400000D03*
D14*
X153360000Y-81400000D03*
D13*
X101100000Y-92400000D03*
D14*
X103640000Y-92400000D03*
D13*
X108850000Y-75350000D03*
D14*
X108850000Y-72810000D03*
X111390000Y-75350000D03*
X111390000Y-72810000D03*
X113930000Y-75350000D03*
X113930000Y-72810000D03*
X116470000Y-75350000D03*
X116470000Y-72810000D03*
X119010000Y-75350000D03*
X119010000Y-72810000D03*
X121550000Y-75350000D03*
X121550000Y-72810000D03*
X124090000Y-75350000D03*
X124090000Y-72810000D03*
X126630000Y-75350000D03*
X126630000Y-72810000D03*
X129170000Y-75350000D03*
X129170000Y-72810000D03*
D15*
X147000000Y-73850000D03*
D16*
X147000000Y-72580000D03*
X148270000Y-73850000D03*
X148270000Y-72580000D03*
X149540000Y-73850000D03*
X149540000Y-72580000D03*
X150810000Y-73850000D03*
X150810000Y-72580000D03*
X152080000Y-73850000D03*
X152080000Y-72580000D03*
X153350000Y-73850000D03*
X153350000Y-72580000D03*
X154620000Y-73850000D03*
X154620000Y-72580000D03*
D13*
X134700000Y-72800000D03*
D14*
X137240000Y-72800000D03*
X139780000Y-72800000D03*
X142320000Y-72800000D03*
D13*
X155875000Y-77400000D03*
D14*
X153335000Y-77400000D03*
D13*
X160860000Y-72800000D03*
D14*
X163400000Y-72800000D03*
X165940000Y-72800000D03*
X168480000Y-72800000D03*
X171020000Y-72800000D03*
X173560000Y-72800000D03*
X176100000Y-72800000D03*
X178640000Y-72800000D03*
X181180000Y-72800000D03*
X183720000Y-72800000D03*
D13*
X101475000Y-108000000D03*
D14*
X104015000Y-108000000D03*
X106555000Y-108000000D03*
D13*
X159300000Y-99600000D03*
D14*
X161840000Y-99600000D03*
D17*
X143930000Y-119600000D03*
D18*
X146470000Y-119600000D03*
D17*
X104200000Y-119600000D03*
D18*
X101660000Y-119600000D03*
D13*
X184900000Y-101450000D03*
D14*
X184900000Y-103990000D03*
X184900000Y-106530000D03*
X184900000Y-109070000D03*
X184900000Y-111610000D03*
X184900000Y-114150000D03*
D13*
X172600000Y-80000000D03*
D14*
X172600000Y-77460000D03*
D13*
X101100000Y-101400000D03*
D14*
X103640000Y-101400000D03*
D13*
X176900000Y-80000000D03*
D14*
X176900000Y-77460000D03*
D19*
X159000000Y-121800000D03*
X159000000Y-118700000D03*
D15*
X114400000Y-116400000D03*
D19*
X165100000Y-88000000D03*
D20*
X176100000Y-103500000D03*
D19*
X151300000Y-94700000D03*
X155900000Y-118700000D03*
X155900000Y-121800000D03*
D20*
X172550000Y-103500000D03*
D19*
X169050000Y-88000000D03*
D15*
X134900000Y-115100000D03*
D19*
X162100000Y-121800000D03*
X161150000Y-88000000D03*
X162100000Y-118700000D03*
M02*
