G04 #@! TF.GenerationSoftware,KiCad,Pcbnew,(6.0.1)*
G04 #@! TF.CreationDate,2023-03-29T19:48:02-04:00*
G04 #@! TF.ProjectId,OBCProto,4f424350-726f-4746-9f2e-6b696361645f,rev?*
G04 #@! TF.SameCoordinates,Original*
G04 #@! TF.FileFunction,Paste,Top*
G04 #@! TF.FilePolarity,Positive*
%FSLAX46Y46*%
G04 Gerber Fmt 4.6, Leading zero omitted, Abs format (unit mm)*
G04 Created by KiCad (PCBNEW (6.0.1)) date 2023-03-29 19:48:02*
%MOMM*%
%LPD*%
G01*
G04 APERTURE LIST*
G04 Aperture macros list*
%AMRoundRect*
0 Rectangle with rounded corners*
0 $1 Rounding radius*
0 $2 $3 $4 $5 $6 $7 $8 $9 X,Y pos of 4 corners*
0 Add a 4 corners polygon primitive as box body*
4,1,4,$2,$3,$4,$5,$6,$7,$8,$9,$2,$3,0*
0 Add four circle primitives for the rounded corners*
1,1,$1+$1,$2,$3*
1,1,$1+$1,$4,$5*
1,1,$1+$1,$6,$7*
1,1,$1+$1,$8,$9*
0 Add four rect primitives between the rounded corners*
20,1,$1+$1,$2,$3,$4,$5,0*
20,1,$1+$1,$4,$5,$6,$7,0*
20,1,$1+$1,$6,$7,$8,$9,0*
20,1,$1+$1,$8,$9,$2,$3,0*%
G04 Aperture macros list end*
%ADD10C,0.100000*%
%ADD11C,0.010000*%
%ADD12R,0.450000X1.050000*%
%ADD13RoundRect,0.140000X-0.140000X-0.170000X0.140000X-0.170000X0.140000X0.170000X-0.140000X0.170000X0*%
%ADD14RoundRect,0.140000X0.140000X0.170000X-0.140000X0.170000X-0.140000X-0.170000X0.140000X-0.170000X0*%
%ADD15RoundRect,0.135000X-0.135000X-0.185000X0.135000X-0.185000X0.135000X0.185000X-0.135000X0.185000X0*%
%ADD16R,1.050000X1.000000*%
%ADD17R,2.200000X1.050000*%
%ADD18RoundRect,0.140000X-0.170000X0.140000X-0.170000X-0.140000X0.170000X-0.140000X0.170000X0.140000X0*%
%ADD19RoundRect,0.135000X-0.185000X0.135000X-0.185000X-0.135000X0.185000X-0.135000X0.185000X0.135000X0*%
%ADD20R,2.100000X1.400000*%
%ADD21R,0.600000X0.350000*%
%ADD22R,1.100000X1.700000*%
%ADD23RoundRect,0.140000X0.170000X-0.140000X0.170000X0.140000X-0.170000X0.140000X-0.170000X-0.140000X0*%
%ADD24C,0.216000*%
%ADD25R,1.475000X0.300000*%
%ADD26R,0.300000X1.475000*%
%ADD27RoundRect,0.014000X0.216000X0.161000X-0.216000X0.161000X-0.216000X-0.161000X0.216000X-0.161000X0*%
%ADD28R,0.800000X1.600000*%
%ADD29R,0.950000X0.450000*%
%ADD30R,3.450000X4.350000*%
%ADD31R,1.150000X1.000000*%
%ADD32RoundRect,0.250000X-0.850000X0.375000X-0.850000X-0.375000X0.850000X-0.375000X0.850000X0.375000X0*%
%ADD33R,0.650000X0.300000*%
%ADD34R,1.750000X2.750000*%
%ADD35RoundRect,0.250000X0.325000X2.350000X-0.325000X2.350000X-0.325000X-2.350000X0.325000X-2.350000X0*%
%ADD36RoundRect,0.008100X-0.421900X-0.126900X0.421900X-0.126900X0.421900X0.126900X-0.421900X0.126900X0*%
%ADD37RoundRect,0.250000X2.350000X-0.325000X2.350000X0.325000X-2.350000X0.325000X-2.350000X-0.325000X0*%
%ADD38RoundRect,0.250000X0.850000X-0.375000X0.850000X0.375000X-0.850000X0.375000X-0.850000X-0.375000X0*%
%ADD39R,0.200000X0.750000*%
%ADD40R,0.750000X0.200000*%
%ADD41R,1.750000X1.590000*%
%ADD42C,0.370000*%
%ADD43R,1.475000X0.450000*%
%ADD44R,1.050000X0.450000*%
G04 APERTURE END LIST*
D10*
X164650000Y-84800000D02*
G75*
G03*
X164650000Y-84800000I-50000J0D01*
G01*
X163650000Y-84300000D02*
G75*
G03*
X163650000Y-84300000I-50000J0D01*
G01*
X167150000Y-83800000D02*
G75*
G03*
X167150000Y-83800000I-50000J0D01*
G01*
X165650000Y-79800000D02*
G75*
G03*
X165650000Y-79800000I-50000J0D01*
G01*
X166150000Y-83800000D02*
G75*
G03*
X166150000Y-83800000I-50000J0D01*
G01*
X167650000Y-80300000D02*
G75*
G03*
X167650000Y-80300000I-50000J0D01*
G01*
X164150000Y-84300000D02*
G75*
G03*
X164150000Y-84300000I-50000J0D01*
G01*
X167650000Y-83300000D02*
G75*
G03*
X167650000Y-83300000I-50000J0D01*
G01*
X166150000Y-84800000D02*
G75*
G03*
X166150000Y-84800000I-50000J0D01*
G01*
X166150000Y-80300000D02*
G75*
G03*
X166150000Y-80300000I-50000J0D01*
G01*
X164150000Y-79800000D02*
G75*
G03*
X164150000Y-79800000I-50000J0D01*
G01*
X166650000Y-83800000D02*
G75*
G03*
X166650000Y-83800000I-50000J0D01*
G01*
X164150000Y-84800000D02*
G75*
G03*
X164150000Y-84800000I-50000J0D01*
G01*
X164150000Y-80300000D02*
G75*
G03*
X164150000Y-80300000I-50000J0D01*
G01*
X163650000Y-80300000D02*
G75*
G03*
X163650000Y-80300000I-50000J0D01*
G01*
X163150000Y-82800000D02*
G75*
G03*
X163150000Y-82800000I-50000J0D01*
G01*
X167150000Y-81300000D02*
G75*
G03*
X167150000Y-81300000I-50000J0D01*
G01*
X163150000Y-79800000D02*
G75*
G03*
X163150000Y-79800000I-50000J0D01*
G01*
X166650000Y-79800000D02*
G75*
G03*
X166650000Y-79800000I-50000J0D01*
G01*
X163150000Y-81800000D02*
G75*
G03*
X163150000Y-81800000I-50000J0D01*
G01*
X167150000Y-83300000D02*
G75*
G03*
X167150000Y-83300000I-50000J0D01*
G01*
X167650000Y-81300000D02*
G75*
G03*
X167650000Y-81300000I-50000J0D01*
G01*
X167650000Y-79800000D02*
G75*
G03*
X167650000Y-79800000I-50000J0D01*
G01*
X162650000Y-84800000D02*
G75*
G03*
X162650000Y-84800000I-50000J0D01*
G01*
X164650000Y-80300000D02*
G75*
G03*
X164650000Y-80300000I-50000J0D01*
G01*
X164650000Y-79800000D02*
G75*
G03*
X164650000Y-79800000I-50000J0D01*
G01*
X162650000Y-80300000D02*
G75*
G03*
X162650000Y-80300000I-50000J0D01*
G01*
X165650000Y-80300000D02*
G75*
G03*
X165650000Y-80300000I-50000J0D01*
G01*
X163150000Y-83300000D02*
G75*
G03*
X163150000Y-83300000I-50000J0D01*
G01*
X162650000Y-83300000D02*
G75*
G03*
X162650000Y-83300000I-50000J0D01*
G01*
X166650000Y-80300000D02*
G75*
G03*
X166650000Y-80300000I-50000J0D01*
G01*
X163150000Y-80800000D02*
G75*
G03*
X163150000Y-80800000I-50000J0D01*
G01*
X165650000Y-84800000D02*
G75*
G03*
X165650000Y-84800000I-50000J0D01*
G01*
X167150000Y-81800000D02*
G75*
G03*
X167150000Y-81800000I-50000J0D01*
G01*
X165150000Y-79800000D02*
G75*
G03*
X165150000Y-79800000I-50000J0D01*
G01*
X167650000Y-80800000D02*
G75*
G03*
X167650000Y-80800000I-50000J0D01*
G01*
X163150000Y-81300000D02*
G75*
G03*
X163150000Y-81300000I-50000J0D01*
G01*
X162650000Y-82300000D02*
G75*
G03*
X162650000Y-82300000I-50000J0D01*
G01*
X167650000Y-81800000D02*
G75*
G03*
X167650000Y-81800000I-50000J0D01*
G01*
X163150000Y-84300000D02*
G75*
G03*
X163150000Y-84300000I-50000J0D01*
G01*
X167650000Y-84800000D02*
G75*
G03*
X167650000Y-84800000I-50000J0D01*
G01*
X162650000Y-81300000D02*
G75*
G03*
X162650000Y-81300000I-50000J0D01*
G01*
X167650000Y-83800000D02*
G75*
G03*
X167650000Y-83800000I-50000J0D01*
G01*
X164650000Y-84300000D02*
G75*
G03*
X164650000Y-84300000I-50000J0D01*
G01*
X162650000Y-82800000D02*
G75*
G03*
X162650000Y-82800000I-50000J0D01*
G01*
X163150000Y-83800000D02*
G75*
G03*
X163150000Y-83800000I-50000J0D01*
G01*
X167150000Y-84300000D02*
G75*
G03*
X167150000Y-84300000I-50000J0D01*
G01*
X165150000Y-80300000D02*
G75*
G03*
X165150000Y-80300000I-50000J0D01*
G01*
X167150000Y-79800000D02*
G75*
G03*
X167150000Y-79800000I-50000J0D01*
G01*
X163150000Y-84800000D02*
G75*
G03*
X163150000Y-84800000I-50000J0D01*
G01*
X163150000Y-82300000D02*
G75*
G03*
X163150000Y-82300000I-50000J0D01*
G01*
X166650000Y-84300000D02*
G75*
G03*
X166650000Y-84300000I-50000J0D01*
G01*
X162650000Y-83800000D02*
G75*
G03*
X162650000Y-83800000I-50000J0D01*
G01*
X167650000Y-82800000D02*
G75*
G03*
X167650000Y-82800000I-50000J0D01*
G01*
X167150000Y-82300000D02*
G75*
G03*
X167150000Y-82300000I-50000J0D01*
G01*
X163150000Y-80300000D02*
G75*
G03*
X163150000Y-80300000I-50000J0D01*
G01*
X165150000Y-84300000D02*
G75*
G03*
X165150000Y-84300000I-50000J0D01*
G01*
X162650000Y-84300000D02*
G75*
G03*
X162650000Y-84300000I-50000J0D01*
G01*
X163650000Y-84800000D02*
G75*
G03*
X163650000Y-84800000I-50000J0D01*
G01*
X162650000Y-81800000D02*
G75*
G03*
X162650000Y-81800000I-50000J0D01*
G01*
X163650000Y-80800000D02*
G75*
G03*
X163650000Y-80800000I-50000J0D01*
G01*
X165650000Y-84300000D02*
G75*
G03*
X165650000Y-84300000I-50000J0D01*
G01*
X166150000Y-79800000D02*
G75*
G03*
X166150000Y-79800000I-50000J0D01*
G01*
X167150000Y-80800000D02*
G75*
G03*
X167150000Y-80800000I-50000J0D01*
G01*
X162650000Y-80800000D02*
G75*
G03*
X162650000Y-80800000I-50000J0D01*
G01*
X167150000Y-82800000D02*
G75*
G03*
X167150000Y-82800000I-50000J0D01*
G01*
X163650000Y-79800000D02*
G75*
G03*
X163650000Y-79800000I-50000J0D01*
G01*
X167650000Y-82300000D02*
G75*
G03*
X167650000Y-82300000I-50000J0D01*
G01*
X167150000Y-80300000D02*
G75*
G03*
X167150000Y-80300000I-50000J0D01*
G01*
X167650000Y-84300000D02*
G75*
G03*
X167650000Y-84300000I-50000J0D01*
G01*
X165150000Y-84800000D02*
G75*
G03*
X165150000Y-84800000I-50000J0D01*
G01*
D11*
X109160000Y-103910000D02*
X109040000Y-103910000D01*
X109040000Y-103910000D02*
X109040000Y-102890000D01*
X109040000Y-102890000D02*
X109160000Y-102890000D01*
X109160000Y-102890000D02*
X109160000Y-103910000D01*
G36*
X109160000Y-103910000D02*
G01*
X109040000Y-103910000D01*
X109040000Y-102890000D01*
X109160000Y-102890000D01*
X109160000Y-103910000D01*
G37*
X109160000Y-103910000D02*
X109040000Y-103910000D01*
X109040000Y-102890000D01*
X109160000Y-102890000D01*
X109160000Y-103910000D01*
D12*
X112575000Y-113975000D03*
X111925000Y-113975000D03*
X111275000Y-113975000D03*
X110625000Y-113975000D03*
X110625000Y-116625000D03*
X111275000Y-116625000D03*
X111925000Y-116625000D03*
X112575000Y-116625000D03*
D13*
X148820000Y-84200000D03*
X149780000Y-84200000D03*
D14*
X120980000Y-93000000D03*
X120020000Y-93000000D03*
D15*
X173990000Y-90000000D03*
X175010000Y-90000000D03*
D13*
X155820000Y-99900000D03*
X156780000Y-99900000D03*
D16*
X162525000Y-105000000D03*
D17*
X161000000Y-106475000D03*
X161000000Y-103525000D03*
D18*
X120480000Y-118720000D03*
X120480000Y-119680000D03*
D19*
X162200000Y-113490000D03*
X162200000Y-114510000D03*
D20*
X168150000Y-117150000D03*
X177250000Y-117150000D03*
X168150000Y-121650000D03*
X177250000Y-121650000D03*
D13*
X176920000Y-87300000D03*
X177880000Y-87300000D03*
D14*
X165180000Y-120400000D03*
X164220000Y-120400000D03*
D21*
X163050000Y-90950000D03*
X163050000Y-91600000D03*
X163050000Y-92250000D03*
X165150000Y-92250000D03*
X165150000Y-91600000D03*
X165150000Y-90950000D03*
D22*
X164100000Y-91600000D03*
D23*
X170100000Y-84380000D03*
X170100000Y-83420000D03*
D18*
X116000000Y-112620000D03*
X116000000Y-113580000D03*
D24*
X112680000Y-121000000D03*
X112280000Y-121000000D03*
X111880000Y-121000000D03*
X112680000Y-120600000D03*
X112280000Y-120600000D03*
X111880000Y-120600000D03*
X112680000Y-120200000D03*
X112280000Y-120200000D03*
X111880000Y-120200000D03*
D25*
X125762000Y-84450000D03*
X125762000Y-84950000D03*
X125762000Y-85450000D03*
X125762000Y-85950000D03*
X125762000Y-86450000D03*
X125762000Y-86950000D03*
X125762000Y-87450000D03*
X125762000Y-87950000D03*
X125762000Y-88450000D03*
X125762000Y-88950000D03*
X125762000Y-89450000D03*
X125762000Y-89950000D03*
X125762000Y-90450000D03*
X125762000Y-90950000D03*
X125762000Y-91450000D03*
X125762000Y-91950000D03*
X125762000Y-92450000D03*
X125762000Y-92950000D03*
X125762000Y-93450000D03*
X125762000Y-93950000D03*
X125762000Y-94450000D03*
X125762000Y-94950000D03*
X125762000Y-95450000D03*
X125762000Y-95950000D03*
X125762000Y-96450000D03*
X125762000Y-96950000D03*
X125762000Y-97450000D03*
X125762000Y-97950000D03*
X125762000Y-98450000D03*
X125762000Y-98950000D03*
X125762000Y-99450000D03*
X125762000Y-99950000D03*
X125762000Y-100450000D03*
X125762000Y-100950000D03*
X125762000Y-101450000D03*
X125762000Y-101950000D03*
D26*
X127750000Y-103938000D03*
X128250000Y-103938000D03*
X128750000Y-103938000D03*
X129250000Y-103938000D03*
X129750000Y-103938000D03*
X130250000Y-103938000D03*
X130750000Y-103938000D03*
X131250000Y-103938000D03*
X131750000Y-103938000D03*
X132250000Y-103938000D03*
X132750000Y-103938000D03*
X133250000Y-103938000D03*
X133750000Y-103938000D03*
X134250000Y-103938000D03*
X134750000Y-103938000D03*
X135250000Y-103938000D03*
X135750000Y-103938000D03*
X136250000Y-103938000D03*
X136750000Y-103938000D03*
X137250000Y-103938000D03*
X137750000Y-103938000D03*
X138250000Y-103938000D03*
X138750000Y-103938000D03*
X139250000Y-103938000D03*
X139750000Y-103938000D03*
X140250000Y-103938000D03*
X140750000Y-103938000D03*
X141250000Y-103938000D03*
X141750000Y-103938000D03*
X142250000Y-103938000D03*
X142750000Y-103938000D03*
X143250000Y-103938000D03*
X143750000Y-103938000D03*
X144250000Y-103938000D03*
X144750000Y-103938000D03*
X145250000Y-103938000D03*
D25*
X147238000Y-101950000D03*
X147238000Y-101450000D03*
X147238000Y-100950000D03*
X147238000Y-100450000D03*
X147238000Y-99950000D03*
X147238000Y-99450000D03*
X147238000Y-98950000D03*
X147238000Y-98450000D03*
X147238000Y-97950000D03*
X147238000Y-97450000D03*
X147238000Y-96950000D03*
X147238000Y-96450000D03*
X147238000Y-95950000D03*
X147238000Y-95450000D03*
X147238000Y-94950000D03*
X147238000Y-94450000D03*
X147238000Y-93950000D03*
X147238000Y-93450000D03*
X147238000Y-92950000D03*
X147238000Y-92450000D03*
X147238000Y-91950000D03*
X147238000Y-91450000D03*
X147238000Y-90950000D03*
X147238000Y-90450000D03*
X147238000Y-89950000D03*
X147238000Y-89450000D03*
X147238000Y-88950000D03*
X147238000Y-88450000D03*
X147238000Y-87950000D03*
X147238000Y-87450000D03*
X147238000Y-86950000D03*
X147238000Y-86450000D03*
X147238000Y-85950000D03*
X147238000Y-85450000D03*
X147238000Y-84950000D03*
X147238000Y-84450000D03*
D26*
X145250000Y-82462000D03*
X144750000Y-82462000D03*
X144250000Y-82462000D03*
X143750000Y-82462000D03*
X143250000Y-82462000D03*
X142750000Y-82462000D03*
X142250000Y-82462000D03*
X141750000Y-82462000D03*
X141250000Y-82462000D03*
X140750000Y-82462000D03*
X140250000Y-82462000D03*
X139750000Y-82462000D03*
X139250000Y-82462000D03*
X138750000Y-82462000D03*
X138250000Y-82462000D03*
X137750000Y-82462000D03*
X137250000Y-82462000D03*
X136750000Y-82462000D03*
X136250000Y-82462000D03*
X135750000Y-82462000D03*
X135250000Y-82462000D03*
X134750000Y-82462000D03*
X134250000Y-82462000D03*
X133750000Y-82462000D03*
X133250000Y-82462000D03*
X132750000Y-82462000D03*
X132250000Y-82462000D03*
X131750000Y-82462000D03*
X131250000Y-82462000D03*
X130750000Y-82462000D03*
X130250000Y-82462000D03*
X129750000Y-82462000D03*
X129250000Y-82462000D03*
X128750000Y-82462000D03*
X128250000Y-82462000D03*
X127750000Y-82462000D03*
D15*
X176910000Y-85320000D03*
X177930000Y-85320000D03*
D13*
X176910000Y-88790000D03*
X177870000Y-88790000D03*
X111300000Y-118100000D03*
X112260000Y-118100000D03*
D18*
X140000000Y-105520000D03*
X140000000Y-106480000D03*
D27*
X110285000Y-104150000D03*
X110285000Y-103650000D03*
X110285000Y-103150000D03*
X110285000Y-102650000D03*
X107915000Y-102650000D03*
X107915000Y-103150000D03*
X107915000Y-103650000D03*
X107915000Y-104150000D03*
D18*
X144200000Y-105520000D03*
X144200000Y-106480000D03*
D23*
X139200000Y-80880000D03*
X139200000Y-79920000D03*
D15*
X174000000Y-85320000D03*
X175020000Y-85320000D03*
D20*
X160550000Y-121650000D03*
X151450000Y-121650000D03*
X160550000Y-117150000D03*
X151450000Y-117150000D03*
D18*
X114900000Y-112620000D03*
X114900000Y-113580000D03*
D28*
X180300000Y-100700000D03*
X179200000Y-100700000D03*
X178100000Y-100700000D03*
X177000000Y-100700000D03*
X175900000Y-100700000D03*
X174800000Y-100700000D03*
X173700000Y-100700000D03*
X170700000Y-100700000D03*
X169600000Y-100700000D03*
X168500000Y-100700000D03*
X167400000Y-100700000D03*
X166300000Y-100700000D03*
X166300000Y-112900000D03*
X167400000Y-112900000D03*
X168500000Y-112900000D03*
X169600000Y-112900000D03*
X170700000Y-112900000D03*
X173700000Y-112900000D03*
X174800000Y-112900000D03*
X175900000Y-112900000D03*
X177000000Y-112900000D03*
X178100000Y-112900000D03*
X179200000Y-112900000D03*
X180300000Y-112900000D03*
D14*
X158880000Y-95500000D03*
X157920000Y-95500000D03*
D18*
X145300000Y-105520000D03*
X145300000Y-106480000D03*
D13*
X164220000Y-121600000D03*
X165180000Y-121600000D03*
D19*
X163400000Y-113490000D03*
X163400000Y-114510000D03*
D29*
X114400000Y-87505000D03*
X114400000Y-86235000D03*
X114400000Y-84965000D03*
X114400000Y-83695000D03*
X106600000Y-83695000D03*
X106600000Y-84965000D03*
X106600000Y-86235000D03*
X106600000Y-87505000D03*
D30*
X110500000Y-85600000D03*
D23*
X134200000Y-80880000D03*
X134200000Y-79920000D03*
D31*
X119625000Y-96200000D03*
X121375000Y-96200000D03*
X121375000Y-94800000D03*
X119625000Y-94800000D03*
D32*
X121280000Y-114725000D03*
X121280000Y-116875000D03*
D18*
X135250000Y-105520000D03*
X135250000Y-106480000D03*
D13*
X116120000Y-80700000D03*
X117080000Y-80700000D03*
X180020000Y-115800000D03*
X180980000Y-115800000D03*
D33*
X116080000Y-114750000D03*
X116080000Y-115250000D03*
X116080000Y-115750000D03*
X116080000Y-116250000D03*
X116080000Y-116750000D03*
X116080000Y-117250000D03*
X118880000Y-117250000D03*
X118880000Y-116750000D03*
X118880000Y-116250000D03*
X118880000Y-115750000D03*
X118880000Y-115250000D03*
X118880000Y-114750000D03*
D34*
X117480000Y-116000000D03*
D35*
X113425000Y-110200000D03*
X111175000Y-110200000D03*
D14*
X103580000Y-84900000D03*
X102620000Y-84900000D03*
X125680000Y-119600000D03*
X124720000Y-119600000D03*
D15*
X176890000Y-90100000D03*
X177910000Y-90100000D03*
D36*
X127115000Y-118050000D03*
X127115000Y-118550000D03*
X127115000Y-119050000D03*
X127115000Y-119550000D03*
X128485000Y-119550000D03*
X128485000Y-119050000D03*
X128485000Y-118550000D03*
X128485000Y-118050000D03*
D23*
X107600000Y-122880000D03*
X107600000Y-121920000D03*
D37*
X132100000Y-114425000D03*
X132100000Y-112175000D03*
D14*
X128480000Y-114400000D03*
X127520000Y-114400000D03*
D18*
X169900000Y-80320000D03*
X169900000Y-81280000D03*
D13*
X180020000Y-117000000D03*
X180980000Y-117000000D03*
D14*
X104680000Y-105200000D03*
X103720000Y-105200000D03*
X123980000Y-92500000D03*
X123020000Y-92500000D03*
X104680000Y-103900000D03*
X103720000Y-103900000D03*
X105080000Y-96650000D03*
X104120000Y-96650000D03*
D38*
X131000000Y-118575000D03*
X131000000Y-116425000D03*
D21*
X136550000Y-112750000D03*
X136550000Y-113400000D03*
X136550000Y-114050000D03*
X138650000Y-114050000D03*
X138650000Y-113400000D03*
X138650000Y-112750000D03*
D22*
X137600000Y-113400000D03*
D14*
X164580000Y-77700000D03*
X163620000Y-77700000D03*
D21*
X112550000Y-79250000D03*
X112550000Y-79900000D03*
X112550000Y-80550000D03*
X114650000Y-80550000D03*
X114650000Y-79900000D03*
X114650000Y-79250000D03*
D22*
X113600000Y-79900000D03*
D13*
X148820000Y-96500000D03*
X149780000Y-96500000D03*
D15*
X173990000Y-88800000D03*
X175010000Y-88800000D03*
D14*
X105080000Y-97900000D03*
X104120000Y-97900000D03*
X168080000Y-87000000D03*
X167120000Y-87000000D03*
D15*
X169690000Y-98500000D03*
X170710000Y-98500000D03*
D13*
X139720000Y-113400000D03*
X140680000Y-113400000D03*
D14*
X128460000Y-115700000D03*
X127500000Y-115700000D03*
D23*
X169900000Y-79280000D03*
X169900000Y-78320000D03*
D21*
X120030000Y-111250000D03*
X120030000Y-111900000D03*
X120030000Y-112550000D03*
X122130000Y-112550000D03*
X122130000Y-111900000D03*
X122130000Y-111250000D03*
D22*
X121080000Y-111900000D03*
D19*
X157500000Y-113490000D03*
X157500000Y-114510000D03*
D14*
X105080000Y-95400000D03*
X104120000Y-95400000D03*
D13*
X120020000Y-98000000D03*
X120980000Y-98000000D03*
D19*
X161000000Y-113490000D03*
X161000000Y-114510000D03*
D23*
X127500000Y-80880000D03*
X127500000Y-79920000D03*
D14*
X123980000Y-87000000D03*
X123020000Y-87000000D03*
D19*
X158675000Y-113500000D03*
X158675000Y-114520000D03*
D13*
X156520000Y-87000000D03*
X157480000Y-87000000D03*
D23*
X171300000Y-83380000D03*
X171300000Y-82420000D03*
D14*
X120980000Y-85500000D03*
X120020000Y-85500000D03*
D13*
X148820000Y-85300000D03*
X149780000Y-85300000D03*
D23*
X172400000Y-83380000D03*
X172400000Y-82420000D03*
D39*
X154000000Y-98500000D03*
X154400000Y-98500000D03*
X154800000Y-98500000D03*
X155200000Y-98500000D03*
X155600000Y-98500000D03*
X156000000Y-98500000D03*
D40*
X156500000Y-98000000D03*
X156500000Y-97600000D03*
X156500000Y-97200000D03*
X156500000Y-96800000D03*
X156500000Y-96400000D03*
X156500000Y-96000000D03*
D39*
X156000000Y-95500000D03*
X155600000Y-95500000D03*
X155200000Y-95500000D03*
X154800000Y-95500000D03*
X154400000Y-95500000D03*
X154000000Y-95500000D03*
D40*
X153500000Y-96000000D03*
X153500000Y-96400000D03*
X153500000Y-96800000D03*
X153500000Y-97200000D03*
X153500000Y-97600000D03*
X153500000Y-98000000D03*
D41*
X155000000Y-97000000D03*
D19*
X159850000Y-113490000D03*
X159850000Y-114510000D03*
D42*
X108900000Y-93500000D03*
X109900000Y-93500000D03*
X110900000Y-93500000D03*
X111900000Y-93500000D03*
X107900000Y-94500000D03*
X108900000Y-94500000D03*
X109900000Y-94500000D03*
X110900000Y-94500000D03*
X111900000Y-94500000D03*
X107900000Y-95500000D03*
X108900000Y-95500000D03*
X109900000Y-95500000D03*
X110900000Y-95500000D03*
X111900000Y-95500000D03*
X107900000Y-96500000D03*
X108900000Y-96500000D03*
X109900000Y-96500000D03*
X110900000Y-96500000D03*
X111900000Y-96500000D03*
X107900000Y-97500000D03*
X108900000Y-97500000D03*
X109900000Y-97500000D03*
X110900000Y-97500000D03*
X111900000Y-97500000D03*
D13*
X120020000Y-90500000D03*
X120980000Y-90500000D03*
D43*
X153862000Y-88550000D03*
X153862000Y-89200000D03*
X153862000Y-89850000D03*
X153862000Y-90500000D03*
X153862000Y-91150000D03*
X153862000Y-91800000D03*
X153862000Y-92450000D03*
X159738000Y-92450000D03*
X159738000Y-91800000D03*
X159738000Y-91150000D03*
X159738000Y-90500000D03*
X159738000Y-89850000D03*
X159738000Y-89200000D03*
X159738000Y-88550000D03*
D15*
X174000000Y-87310000D03*
X175020000Y-87310000D03*
D13*
X157920000Y-96800000D03*
X158880000Y-96800000D03*
D44*
X133375000Y-116325000D03*
X133375000Y-116975000D03*
X133375000Y-117625000D03*
X133375000Y-118275000D03*
X136025000Y-118275000D03*
X136025000Y-117625000D03*
X136025000Y-116975000D03*
X136025000Y-116325000D03*
D18*
X118080000Y-118720000D03*
X118080000Y-119680000D03*
D13*
X160670000Y-86300000D03*
X161630000Y-86300000D03*
D31*
X119625000Y-88700000D03*
X121375000Y-88700000D03*
X121375000Y-87300000D03*
X119625000Y-87300000D03*
D18*
X119280000Y-118720000D03*
X119280000Y-119680000D03*
X128500000Y-105540000D03*
X128500000Y-106500000D03*
M02*
