%FSLAX45Y45*%
G04 Gerber Fmt 4.5, Leading zero omitted, Abs format (unit mm)*
G04 Created by KiCad (PCBNEW (6.0.1)) date 2023-03-29 19:48:18*
%MOMM*%
%LPD*%
G01*
G04 APERTURE LIST*
%TA.AperFunction,Profile*%
%ADD10C,0.100000*%
%TD*%
%ADD11C,0.200000*%
G04 APERTURE END LIST*
D10*
X18700000Y-12100000D02*
X18700000Y-12300000D01*
X18700000Y-12400000D02*
X9800000Y-12400000D01*
X9800000Y-12400000D02*
X9800000Y-7000000D01*
X18700000Y-7000000D02*
X18700000Y-12100000D01*
X18700000Y-12300000D02*
X18700000Y-12400000D01*
X9800000Y-7000000D02*
X18700000Y-7000000D01*
D11*
X10052619Y-12715476D02*
X10052619Y-12515476D01*
X10100238Y-12515476D01*
X10128810Y-12525000D01*
X10147857Y-12544048D01*
X10157381Y-12563095D01*
X10166905Y-12601190D01*
X10166905Y-12629762D01*
X10157381Y-12667857D01*
X10147857Y-12686905D01*
X10128810Y-12705952D01*
X10100238Y-12715476D01*
X10052619Y-12715476D01*
X10252619Y-12715476D02*
X10252619Y-12582143D01*
X10252619Y-12620238D02*
X10262143Y-12601190D01*
X10271667Y-12591667D01*
X10290714Y-12582143D01*
X10309762Y-12582143D01*
X10376429Y-12715476D02*
X10376429Y-12582143D01*
X10376429Y-12515476D02*
X10366905Y-12525000D01*
X10376429Y-12534524D01*
X10385952Y-12525000D01*
X10376429Y-12515476D01*
X10376429Y-12534524D01*
X10500238Y-12715476D02*
X10481190Y-12705952D01*
X10471667Y-12686905D01*
X10471667Y-12515476D01*
X10605000Y-12715476D02*
X10585952Y-12705952D01*
X10576429Y-12686905D01*
X10576429Y-12515476D01*
X10833571Y-12715476D02*
X10833571Y-12515476D01*
X10900238Y-12658333D01*
X10966905Y-12515476D01*
X10966905Y-12715476D01*
X11147857Y-12715476D02*
X11147857Y-12610714D01*
X11138333Y-12591667D01*
X11119286Y-12582143D01*
X11081190Y-12582143D01*
X11062143Y-12591667D01*
X11147857Y-12705952D02*
X11128810Y-12715476D01*
X11081190Y-12715476D01*
X11062143Y-12705952D01*
X11052619Y-12686905D01*
X11052619Y-12667857D01*
X11062143Y-12648809D01*
X11081190Y-12639286D01*
X11128810Y-12639286D01*
X11147857Y-12629762D01*
X11243095Y-12582143D02*
X11243095Y-12782143D01*
X11243095Y-12591667D02*
X11262143Y-12582143D01*
X11300238Y-12582143D01*
X11319286Y-12591667D01*
X11328809Y-12601190D01*
X11338333Y-12620238D01*
X11338333Y-12677381D01*
X11328809Y-12696428D01*
X11319286Y-12705952D01*
X11300238Y-12715476D01*
X11262143Y-12715476D01*
X11243095Y-12705952D01*
X11424048Y-12696428D02*
X11433571Y-12705952D01*
X11424048Y-12715476D01*
X11414524Y-12705952D01*
X11424048Y-12696428D01*
X11424048Y-12715476D01*
X11424048Y-12591667D02*
X11433571Y-12601190D01*
X11424048Y-12610714D01*
X11414524Y-12601190D01*
X11424048Y-12591667D01*
X11424048Y-12610714D01*
M02*
