G04 #@! TF.GenerationSoftware,KiCad,Pcbnew,(6.0.1)*
G04 #@! TF.CreationDate,2023-03-29T19:48:02-04:00*
G04 #@! TF.ProjectId,OBCProto,4f424350-726f-4746-9f2e-6b696361645f,rev?*
G04 #@! TF.SameCoordinates,Original*
G04 #@! TF.FileFunction,Legend,Top*
G04 #@! TF.FilePolarity,Positive*
%FSLAX46Y46*%
G04 Gerber Fmt 4.6, Leading zero omitted, Abs format (unit mm)*
G04 Created by KiCad (PCBNEW (6.0.1)) date 2023-03-29 19:48:02*
%MOMM*%
%LPD*%
G01*
G04 APERTURE LIST*
G04 Aperture macros list*
%AMRoundRect*
0 Rectangle with rounded corners*
0 $1 Rounding radius*
0 $2 $3 $4 $5 $6 $7 $8 $9 X,Y pos of 4 corners*
0 Add a 4 corners polygon primitive as box body*
4,1,4,$2,$3,$4,$5,$6,$7,$8,$9,$2,$3,0*
0 Add four circle primitives for the rounded corners*
1,1,$1+$1,$2,$3*
1,1,$1+$1,$4,$5*
1,1,$1+$1,$6,$7*
1,1,$1+$1,$8,$9*
0 Add four rect primitives between the rounded corners*
20,1,$1+$1,$2,$3,$4,$5,0*
20,1,$1+$1,$4,$5,$6,$7,0*
20,1,$1+$1,$6,$7,$8,$9,0*
20,1,$1+$1,$8,$9,$2,$3,0*%
G04 Aperture macros list end*
%ADD10C,0.200000*%
%ADD11C,0.150000*%
%ADD12C,0.254000*%
%ADD13C,0.120000*%
%ADD14C,0.100000*%
%ADD15C,0.250000*%
%ADD16C,0.203200*%
%ADD17C,0.050000*%
%ADD18C,0.127000*%
%ADD19R,0.450000X1.050000*%
%ADD20RoundRect,0.140000X-0.140000X-0.170000X0.140000X-0.170000X0.140000X0.170000X-0.140000X0.170000X0*%
%ADD21RoundRect,0.140000X0.140000X0.170000X-0.140000X0.170000X-0.140000X-0.170000X0.140000X-0.170000X0*%
%ADD22RoundRect,0.135000X-0.135000X-0.185000X0.135000X-0.185000X0.135000X0.185000X-0.135000X0.185000X0*%
%ADD23R,1.700000X1.700000*%
%ADD24O,1.700000X1.700000*%
%ADD25R,1.050000X1.000000*%
%ADD26R,2.200000X1.050000*%
%ADD27RoundRect,0.140000X-0.170000X0.140000X-0.170000X-0.140000X0.170000X-0.140000X0.170000X0.140000X0*%
%ADD28RoundRect,0.135000X-0.185000X0.135000X-0.185000X-0.135000X0.185000X-0.135000X0.185000X0.135000X0*%
%ADD29R,2.100000X1.400000*%
%ADD30R,0.600000X0.350000*%
%ADD31R,1.100000X1.700000*%
%ADD32RoundRect,0.140000X0.170000X-0.140000X0.170000X0.140000X-0.170000X0.140000X-0.170000X-0.140000X0*%
%ADD33C,0.216000*%
%ADD34R,1.475000X0.300000*%
%ADD35R,0.300000X1.475000*%
%ADD36RoundRect,0.014000X0.216000X0.161000X-0.216000X0.161000X-0.216000X-0.161000X0.216000X-0.161000X0*%
%ADD37R,0.200000X1.600000*%
%ADD38R,1.000000X1.000000*%
%ADD39O,1.000000X1.000000*%
%ADD40RoundRect,0.063500X0.400000X-0.800000X0.400000X0.800000X-0.400000X0.800000X-0.400000X-0.800000X0*%
%ADD41R,0.950000X0.450000*%
%ADD42R,3.450000X4.350000*%
%ADD43R,1.150000X1.000000*%
%ADD44RoundRect,0.250000X-0.850000X0.375000X-0.850000X-0.375000X0.850000X-0.375000X0.850000X0.375000X0*%
%ADD45R,0.650000X0.300000*%
%ADD46R,1.750000X2.750000*%
%ADD47RoundRect,0.250000X0.325000X2.350000X-0.325000X2.350000X-0.325000X-2.350000X0.325000X-2.350000X0*%
%ADD48R,2.100000X2.100000*%
%ADD49C,2.100000*%
%ADD50RoundRect,0.008100X-0.421900X-0.126900X0.421900X-0.126900X0.421900X0.126900X-0.421900X0.126900X0*%
%ADD51RoundRect,0.250000X2.350000X-0.325000X2.350000X0.325000X-2.350000X0.325000X-2.350000X-0.325000X0*%
%ADD52RoundRect,0.250000X0.850000X-0.375000X0.850000X0.375000X-0.850000X0.375000X-0.850000X-0.375000X0*%
%ADD53R,0.200000X0.750000*%
%ADD54R,0.750000X0.200000*%
%ADD55R,1.750000X1.590000*%
%ADD56C,0.370000*%
%ADD57R,1.475000X0.450000*%
%ADD58R,1.050000X0.450000*%
G04 APERTURE END LIST*
D10*
X183007142Y-84650000D02*
X183078571Y-84435714D01*
X183078571Y-84078571D01*
X183007142Y-83935714D01*
X182935714Y-83864285D01*
X182792857Y-83792857D01*
X182650000Y-83792857D01*
X182507142Y-83864285D01*
X182435714Y-83935714D01*
X182364285Y-84078571D01*
X182292857Y-84364285D01*
X182221428Y-84507142D01*
X182150000Y-84578571D01*
X182007142Y-84650000D01*
X181864285Y-84650000D01*
X181721428Y-84578571D01*
X181650000Y-84507142D01*
X181578571Y-84364285D01*
X181578571Y-84007142D01*
X181650000Y-83792857D01*
X183078571Y-83150000D02*
X181578571Y-83150000D01*
X181578571Y-82578571D01*
X181650000Y-82435714D01*
X181721428Y-82364285D01*
X181864285Y-82292857D01*
X182078571Y-82292857D01*
X182221428Y-82364285D01*
X182292857Y-82435714D01*
X182364285Y-82578571D01*
X182364285Y-83150000D01*
X183078571Y-81650000D02*
X181578571Y-81650000D01*
X182078571Y-80292857D02*
X183078571Y-80292857D01*
X181507142Y-80650000D02*
X182578571Y-81007142D01*
X182578571Y-80078571D01*
D11*
X114038095Y-104652380D02*
X114228571Y-104652380D01*
X114323809Y-104700000D01*
X114419047Y-104795238D01*
X114466666Y-104985714D01*
X114466666Y-105319047D01*
X114419047Y-105509523D01*
X114323809Y-105604761D01*
X114228571Y-105652380D01*
X114038095Y-105652380D01*
X113942857Y-105604761D01*
X113847619Y-105509523D01*
X113800000Y-105319047D01*
X113800000Y-104985714D01*
X113847619Y-104795238D01*
X113942857Y-104700000D01*
X114038095Y-104652380D01*
X115228571Y-105128571D02*
X115371428Y-105176190D01*
X115419047Y-105223809D01*
X115466666Y-105319047D01*
X115466666Y-105461904D01*
X115419047Y-105557142D01*
X115371428Y-105604761D01*
X115276190Y-105652380D01*
X114895238Y-105652380D01*
X114895238Y-104652380D01*
X115228571Y-104652380D01*
X115323809Y-104700000D01*
X115371428Y-104747619D01*
X115419047Y-104842857D01*
X115419047Y-104938095D01*
X115371428Y-105033333D01*
X115323809Y-105080952D01*
X115228571Y-105128571D01*
X114895238Y-105128571D01*
X116466666Y-105557142D02*
X116419047Y-105604761D01*
X116276190Y-105652380D01*
X116180952Y-105652380D01*
X116038095Y-105604761D01*
X115942857Y-105509523D01*
X115895238Y-105414285D01*
X115847619Y-105223809D01*
X115847619Y-105080952D01*
X115895238Y-104890476D01*
X115942857Y-104795238D01*
X116038095Y-104700000D01*
X116180952Y-104652380D01*
X116276190Y-104652380D01*
X116419047Y-104700000D01*
X116466666Y-104747619D01*
X116895238Y-105652380D02*
X116895238Y-104652380D01*
X117276190Y-104652380D01*
X117371428Y-104700000D01*
X117419047Y-104747619D01*
X117466666Y-104842857D01*
X117466666Y-104985714D01*
X117419047Y-105080952D01*
X117371428Y-105128571D01*
X117276190Y-105176190D01*
X116895238Y-105176190D01*
X117895238Y-105652380D02*
X117895238Y-104985714D01*
X117895238Y-105176190D02*
X117942857Y-105080952D01*
X117990476Y-105033333D01*
X118085714Y-104985714D01*
X118180952Y-104985714D01*
X118657142Y-105652380D02*
X118561904Y-105604761D01*
X118514285Y-105557142D01*
X118466666Y-105461904D01*
X118466666Y-105176190D01*
X118514285Y-105080952D01*
X118561904Y-105033333D01*
X118657142Y-104985714D01*
X118800000Y-104985714D01*
X118895238Y-105033333D01*
X118942857Y-105080952D01*
X118990476Y-105176190D01*
X118990476Y-105461904D01*
X118942857Y-105557142D01*
X118895238Y-105604761D01*
X118800000Y-105652380D01*
X118657142Y-105652380D01*
X119276190Y-104985714D02*
X119657142Y-104985714D01*
X119419047Y-104652380D02*
X119419047Y-105509523D01*
X119466666Y-105604761D01*
X119561904Y-105652380D01*
X119657142Y-105652380D01*
X120133333Y-105652380D02*
X120038095Y-105604761D01*
X119990476Y-105557142D01*
X119942857Y-105461904D01*
X119942857Y-105176190D01*
X119990476Y-105080952D01*
X120038095Y-105033333D01*
X120133333Y-104985714D01*
X120276190Y-104985714D01*
X120371428Y-105033333D01*
X120419047Y-105080952D01*
X120466666Y-105176190D01*
X120466666Y-105461904D01*
X120419047Y-105557142D01*
X120371428Y-105604761D01*
X120276190Y-105652380D01*
X120133333Y-105652380D01*
X122228571Y-105652380D02*
X121895238Y-105176190D01*
X121657142Y-105652380D02*
X121657142Y-104652380D01*
X122038095Y-104652380D01*
X122133333Y-104700000D01*
X122180952Y-104747619D01*
X122228571Y-104842857D01*
X122228571Y-104985714D01*
X122180952Y-105080952D01*
X122133333Y-105128571D01*
X122038095Y-105176190D01*
X121657142Y-105176190D01*
X123038095Y-105604761D02*
X122942857Y-105652380D01*
X122752380Y-105652380D01*
X122657142Y-105604761D01*
X122609523Y-105509523D01*
X122609523Y-105128571D01*
X122657142Y-105033333D01*
X122752380Y-104985714D01*
X122942857Y-104985714D01*
X123038095Y-105033333D01*
X123085714Y-105128571D01*
X123085714Y-105223809D01*
X122609523Y-105319047D01*
X123419047Y-104985714D02*
X123657142Y-105652380D01*
X123895238Y-104985714D01*
X124466666Y-104652380D02*
X124561904Y-104652380D01*
X124657142Y-104700000D01*
X124704761Y-104747619D01*
X124752380Y-104842857D01*
X124800000Y-105033333D01*
X124800000Y-105271428D01*
X124752380Y-105461904D01*
X124704761Y-105557142D01*
X124657142Y-105604761D01*
X124561904Y-105652380D01*
X124466666Y-105652380D01*
X124371428Y-105604761D01*
X124323809Y-105557142D01*
X124276190Y-105461904D01*
X124228571Y-105271428D01*
X124228571Y-105033333D01*
X124276190Y-104842857D01*
X124323809Y-104747619D01*
X124371428Y-104700000D01*
X124466666Y-104652380D01*
X169966666Y-114152380D02*
X170204761Y-115152380D01*
X170395238Y-114438095D01*
X170585714Y-115152380D01*
X170823809Y-114152380D01*
X171157142Y-114866666D02*
X171633333Y-114866666D01*
X171061904Y-115152380D02*
X171395238Y-114152380D01*
X171728571Y-115152380D01*
X172061904Y-115152380D02*
X172061904Y-114152380D01*
X172633333Y-115152380D02*
X172204761Y-114580952D01*
X172633333Y-114152380D02*
X172061904Y-114723809D01*
X173061904Y-114628571D02*
X173395238Y-114628571D01*
X173538095Y-115152380D02*
X173061904Y-115152380D01*
X173061904Y-114152380D01*
X173538095Y-114152380D01*
X173966666Y-114152380D02*
X173966666Y-114961904D01*
X174014285Y-115057142D01*
X174061904Y-115104761D01*
X174157142Y-115152380D01*
X174347619Y-115152380D01*
X174442857Y-115104761D01*
X174490476Y-115057142D01*
X174538095Y-114961904D01*
X174538095Y-114152380D01*
X175014285Y-115152380D02*
X175014285Y-114152380D01*
X175395238Y-114152380D01*
X175490476Y-114200000D01*
X175538095Y-114247619D01*
X175585714Y-114342857D01*
X175585714Y-114485714D01*
X175538095Y-114580952D01*
X175490476Y-114628571D01*
X175395238Y-114676190D01*
X175014285Y-114676190D01*
X137728571Y-74552380D02*
X137728571Y-75361904D01*
X137776190Y-75457142D01*
X137823809Y-75504761D01*
X137919047Y-75552380D01*
X138109523Y-75552380D01*
X138204761Y-75504761D01*
X138252380Y-75457142D01*
X138300000Y-75361904D01*
X138300000Y-74552380D01*
X138728571Y-75266666D02*
X139204761Y-75266666D01*
X138633333Y-75552380D02*
X138966666Y-74552380D01*
X139300000Y-75552380D01*
X140204761Y-75552380D02*
X139871428Y-75076190D01*
X139633333Y-75552380D02*
X139633333Y-74552380D01*
X140014285Y-74552380D01*
X140109523Y-74600000D01*
X140157142Y-74647619D01*
X140204761Y-74742857D01*
X140204761Y-74885714D01*
X140157142Y-74980952D01*
X140109523Y-75028571D01*
X140014285Y-75076190D01*
X139633333Y-75076190D01*
X140490476Y-74552380D02*
X141061904Y-74552380D01*
X140776190Y-75552380D02*
X140776190Y-74552380D01*
X141347619Y-74647619D02*
X141395238Y-74600000D01*
X141490476Y-74552380D01*
X141728571Y-74552380D01*
X141823809Y-74600000D01*
X141871428Y-74647619D01*
X141919047Y-74742857D01*
X141919047Y-74838095D01*
X141871428Y-74980952D01*
X141300000Y-75552380D01*
X141919047Y-75552380D01*
D10*
X183107142Y-110450000D02*
X183178571Y-110235714D01*
X183178571Y-109878571D01*
X183107142Y-109735714D01*
X183035714Y-109664285D01*
X182892857Y-109592857D01*
X182750000Y-109592857D01*
X182607142Y-109664285D01*
X182535714Y-109735714D01*
X182464285Y-109878571D01*
X182392857Y-110164285D01*
X182321428Y-110307142D01*
X182250000Y-110378571D01*
X182107142Y-110450000D01*
X181964285Y-110450000D01*
X181821428Y-110378571D01*
X181750000Y-110307142D01*
X181678571Y-110164285D01*
X181678571Y-109807142D01*
X181750000Y-109592857D01*
X183178571Y-108950000D02*
X181678571Y-108950000D01*
X181678571Y-108378571D01*
X181750000Y-108235714D01*
X181821428Y-108164285D01*
X181964285Y-108092857D01*
X182178571Y-108092857D01*
X182321428Y-108164285D01*
X182392857Y-108235714D01*
X182464285Y-108378571D01*
X182464285Y-108950000D01*
X183178571Y-107450000D02*
X181678571Y-107450000D01*
X181821428Y-106807142D02*
X181750000Y-106735714D01*
X181678571Y-106592857D01*
X181678571Y-106235714D01*
X181750000Y-106092857D01*
X181821428Y-106021428D01*
X181964285Y-105950000D01*
X182107142Y-105950000D01*
X182321428Y-106021428D01*
X183178571Y-106878571D01*
X183178571Y-105950000D01*
X101792857Y-112685357D02*
X102007142Y-112756785D01*
X102078571Y-112828214D01*
X102150000Y-112971071D01*
X102150000Y-113185357D01*
X102078571Y-113328214D01*
X102007142Y-113399642D01*
X101864285Y-113471071D01*
X101292857Y-113471071D01*
X101292857Y-111971071D01*
X101792857Y-111971071D01*
X101935714Y-112042500D01*
X102007142Y-112113928D01*
X102078571Y-112256785D01*
X102078571Y-112399642D01*
X102007142Y-112542500D01*
X101935714Y-112613928D01*
X101792857Y-112685357D01*
X101292857Y-112685357D01*
X102721428Y-113042500D02*
X103435714Y-113042500D01*
X102578571Y-113471071D02*
X103078571Y-111971071D01*
X103578571Y-113471071D01*
X103864285Y-111971071D02*
X104721428Y-111971071D01*
X104292857Y-113471071D02*
X104292857Y-111971071D01*
X100828571Y-115314642D02*
X101971428Y-115314642D01*
X103828571Y-115314642D02*
X104971428Y-115314642D01*
X104400000Y-115886071D02*
X104400000Y-114743214D01*
X144700000Y-77007142D02*
X144914285Y-77078571D01*
X145271428Y-77078571D01*
X145414285Y-77007142D01*
X145485714Y-76935714D01*
X145557142Y-76792857D01*
X145557142Y-76650000D01*
X145485714Y-76507142D01*
X145414285Y-76435714D01*
X145271428Y-76364285D01*
X144985714Y-76292857D01*
X144842857Y-76221428D01*
X144771428Y-76150000D01*
X144700000Y-76007142D01*
X144700000Y-75864285D01*
X144771428Y-75721428D01*
X144842857Y-75650000D01*
X144985714Y-75578571D01*
X145342857Y-75578571D01*
X145557142Y-75650000D01*
X145985714Y-75578571D02*
X146842857Y-75578571D01*
X146414285Y-77078571D02*
X146414285Y-75578571D01*
X148057142Y-77078571D02*
X147342857Y-77078571D01*
X147342857Y-75578571D01*
X148557142Y-77078571D02*
X148557142Y-75578571D01*
X149271428Y-77078571D02*
X149271428Y-75578571D01*
X150128571Y-77078571D01*
X150128571Y-75578571D01*
X150842857Y-77078571D02*
X150842857Y-75578571D01*
X151700000Y-77078571D02*
X151057142Y-76221428D01*
X151700000Y-75578571D02*
X150842857Y-76435714D01*
D11*
X110647619Y-78052380D02*
X110647619Y-77052380D01*
X110885714Y-77052380D01*
X111028571Y-77100000D01*
X111123809Y-77195238D01*
X111171428Y-77290476D01*
X111219047Y-77480952D01*
X111219047Y-77623809D01*
X111171428Y-77814285D01*
X111123809Y-77909523D01*
X111028571Y-78004761D01*
X110885714Y-78052380D01*
X110647619Y-78052380D01*
X112219047Y-77957142D02*
X112171428Y-78004761D01*
X112028571Y-78052380D01*
X111933333Y-78052380D01*
X111790476Y-78004761D01*
X111695238Y-77909523D01*
X111647619Y-77814285D01*
X111600000Y-77623809D01*
X111600000Y-77480952D01*
X111647619Y-77290476D01*
X111695238Y-77195238D01*
X111790476Y-77100000D01*
X111933333Y-77052380D01*
X112028571Y-77052380D01*
X112171428Y-77100000D01*
X112219047Y-77147619D01*
X112647619Y-78052380D02*
X112647619Y-77052380D01*
X112980952Y-77766666D01*
X113314285Y-77052380D01*
X113314285Y-78052380D01*
X113790476Y-78052380D02*
X113790476Y-77052380D01*
X115600000Y-77957142D02*
X115552380Y-78004761D01*
X115409523Y-78052380D01*
X115314285Y-78052380D01*
X115171428Y-78004761D01*
X115076190Y-77909523D01*
X115028571Y-77814285D01*
X114980952Y-77623809D01*
X114980952Y-77480952D01*
X115028571Y-77290476D01*
X115076190Y-77195238D01*
X115171428Y-77100000D01*
X115314285Y-77052380D01*
X115409523Y-77052380D01*
X115552380Y-77100000D01*
X115600000Y-77147619D01*
X116457142Y-78052380D02*
X116457142Y-77528571D01*
X116409523Y-77433333D01*
X116314285Y-77385714D01*
X116123809Y-77385714D01*
X116028571Y-77433333D01*
X116457142Y-78004761D02*
X116361904Y-78052380D01*
X116123809Y-78052380D01*
X116028571Y-78004761D01*
X115980952Y-77909523D01*
X115980952Y-77814285D01*
X116028571Y-77719047D01*
X116123809Y-77671428D01*
X116361904Y-77671428D01*
X116457142Y-77623809D01*
X116933333Y-78052380D02*
X116933333Y-77385714D01*
X116933333Y-77480952D02*
X116980952Y-77433333D01*
X117076190Y-77385714D01*
X117219047Y-77385714D01*
X117314285Y-77433333D01*
X117361904Y-77528571D01*
X117361904Y-78052380D01*
X117361904Y-77528571D02*
X117409523Y-77433333D01*
X117504761Y-77385714D01*
X117647619Y-77385714D01*
X117742857Y-77433333D01*
X117790476Y-77528571D01*
X117790476Y-78052380D01*
X118647619Y-78004761D02*
X118552380Y-78052380D01*
X118361904Y-78052380D01*
X118266666Y-78004761D01*
X118219047Y-77909523D01*
X118219047Y-77528571D01*
X118266666Y-77433333D01*
X118361904Y-77385714D01*
X118552380Y-77385714D01*
X118647619Y-77433333D01*
X118695238Y-77528571D01*
X118695238Y-77623809D01*
X118219047Y-77719047D01*
X119123809Y-78052380D02*
X119123809Y-77385714D01*
X119123809Y-77576190D02*
X119171428Y-77480952D01*
X119219047Y-77433333D01*
X119314285Y-77385714D01*
X119409523Y-77385714D01*
X120171428Y-78052380D02*
X120171428Y-77528571D01*
X120123809Y-77433333D01*
X120028571Y-77385714D01*
X119838095Y-77385714D01*
X119742857Y-77433333D01*
X120171428Y-78004761D02*
X120076190Y-78052380D01*
X119838095Y-78052380D01*
X119742857Y-78004761D01*
X119695238Y-77909523D01*
X119695238Y-77814285D01*
X119742857Y-77719047D01*
X119838095Y-77671428D01*
X120076190Y-77671428D01*
X120171428Y-77623809D01*
X121409523Y-78052380D02*
X121409523Y-77052380D01*
X121885714Y-77385714D02*
X121885714Y-78052380D01*
X121885714Y-77480952D02*
X121933333Y-77433333D01*
X122028571Y-77385714D01*
X122171428Y-77385714D01*
X122266666Y-77433333D01*
X122314285Y-77528571D01*
X122314285Y-78052380D01*
X122647619Y-77385714D02*
X123028571Y-77385714D01*
X122790476Y-77052380D02*
X122790476Y-77909523D01*
X122838095Y-78004761D01*
X122933333Y-78052380D01*
X123028571Y-78052380D01*
X123742857Y-78004761D02*
X123647619Y-78052380D01*
X123457142Y-78052380D01*
X123361904Y-78004761D01*
X123314285Y-77909523D01*
X123314285Y-77528571D01*
X123361904Y-77433333D01*
X123457142Y-77385714D01*
X123647619Y-77385714D01*
X123742857Y-77433333D01*
X123790476Y-77528571D01*
X123790476Y-77623809D01*
X123314285Y-77719047D01*
X124219047Y-78052380D02*
X124219047Y-77385714D01*
X124219047Y-77576190D02*
X124266666Y-77480952D01*
X124314285Y-77433333D01*
X124409523Y-77385714D01*
X124504761Y-77385714D01*
X124695238Y-77385714D02*
X125076190Y-77385714D01*
X124838095Y-78052380D02*
X124838095Y-77195238D01*
X124885714Y-77100000D01*
X124980952Y-77052380D01*
X125076190Y-77052380D01*
X125838095Y-78052380D02*
X125838095Y-77528571D01*
X125790476Y-77433333D01*
X125695238Y-77385714D01*
X125504761Y-77385714D01*
X125409523Y-77433333D01*
X125838095Y-78004761D02*
X125742857Y-78052380D01*
X125504761Y-78052380D01*
X125409523Y-78004761D01*
X125361904Y-77909523D01*
X125361904Y-77814285D01*
X125409523Y-77719047D01*
X125504761Y-77671428D01*
X125742857Y-77671428D01*
X125838095Y-77623809D01*
X126742857Y-78004761D02*
X126647619Y-78052380D01*
X126457142Y-78052380D01*
X126361904Y-78004761D01*
X126314285Y-77957142D01*
X126266666Y-77861904D01*
X126266666Y-77576190D01*
X126314285Y-77480952D01*
X126361904Y-77433333D01*
X126457142Y-77385714D01*
X126647619Y-77385714D01*
X126742857Y-77433333D01*
X127552380Y-78004761D02*
X127457142Y-78052380D01*
X127266666Y-78052380D01*
X127171428Y-78004761D01*
X127123809Y-77909523D01*
X127123809Y-77528571D01*
X127171428Y-77433333D01*
X127266666Y-77385714D01*
X127457142Y-77385714D01*
X127552380Y-77433333D01*
X127600000Y-77528571D01*
X127600000Y-77623809D01*
X127123809Y-77719047D01*
X111519047Y-103252380D02*
X111757142Y-104252380D01*
X111947619Y-103538095D01*
X112138095Y-104252380D01*
X112376190Y-103252380D01*
X112757142Y-104252380D02*
X112757142Y-103252380D01*
X113090476Y-103252380D02*
X113661904Y-103252380D01*
X113376190Y-104252380D02*
X113376190Y-103252380D01*
X114757142Y-104252380D02*
X114757142Y-103252380D01*
X115138095Y-103252380D01*
X115233333Y-103300000D01*
X115280952Y-103347619D01*
X115328571Y-103442857D01*
X115328571Y-103585714D01*
X115280952Y-103680952D01*
X115233333Y-103728571D01*
X115138095Y-103776190D01*
X114757142Y-103776190D01*
X115757142Y-104252380D02*
X115757142Y-103585714D01*
X115757142Y-103252380D02*
X115709523Y-103300000D01*
X115757142Y-103347619D01*
X115804761Y-103300000D01*
X115757142Y-103252380D01*
X115757142Y-103347619D01*
X116661904Y-104204761D02*
X116566666Y-104252380D01*
X116376190Y-104252380D01*
X116280952Y-104204761D01*
X116233333Y-104157142D01*
X116185714Y-104061904D01*
X116185714Y-103776190D01*
X116233333Y-103680952D01*
X116280952Y-103633333D01*
X116376190Y-103585714D01*
X116566666Y-103585714D01*
X116661904Y-103633333D01*
X117233333Y-104252380D02*
X117138095Y-104204761D01*
X117090476Y-104157142D01*
X117042857Y-104061904D01*
X117042857Y-103776190D01*
X117090476Y-103680952D01*
X117138095Y-103633333D01*
X117233333Y-103585714D01*
X117376190Y-103585714D01*
X117471428Y-103633333D01*
X117519047Y-103680952D01*
X117566666Y-103776190D01*
X117566666Y-104061904D01*
X117519047Y-104157142D01*
X117471428Y-104204761D01*
X117376190Y-104252380D01*
X117233333Y-104252380D01*
X117947619Y-104204761D02*
X118090476Y-104252380D01*
X118328571Y-104252380D01*
X118423809Y-104204761D01*
X118471428Y-104157142D01*
X118519047Y-104061904D01*
X118519047Y-103966666D01*
X118471428Y-103871428D01*
X118423809Y-103823809D01*
X118328571Y-103776190D01*
X118138095Y-103728571D01*
X118042857Y-103680952D01*
X117995238Y-103633333D01*
X117947619Y-103538095D01*
X117947619Y-103442857D01*
X117995238Y-103347619D01*
X118042857Y-103300000D01*
X118138095Y-103252380D01*
X118376190Y-103252380D01*
X118519047Y-103300000D01*
X119376190Y-104252380D02*
X119376190Y-103728571D01*
X119328571Y-103633333D01*
X119233333Y-103585714D01*
X119042857Y-103585714D01*
X118947619Y-103633333D01*
X119376190Y-104204761D02*
X119280952Y-104252380D01*
X119042857Y-104252380D01*
X118947619Y-104204761D01*
X118900000Y-104109523D01*
X118900000Y-104014285D01*
X118947619Y-103919047D01*
X119042857Y-103871428D01*
X119280952Y-103871428D01*
X119376190Y-103823809D01*
X119709523Y-103585714D02*
X120090476Y-103585714D01*
X119852380Y-103252380D02*
X119852380Y-104109523D01*
X119900000Y-104204761D01*
X119995238Y-104252380D01*
X120090476Y-104252380D01*
X121185714Y-104252380D02*
X121185714Y-103252380D01*
X121661904Y-103585714D02*
X121661904Y-104252380D01*
X121661904Y-103680952D02*
X121709523Y-103633333D01*
X121804761Y-103585714D01*
X121947619Y-103585714D01*
X122042857Y-103633333D01*
X122090476Y-103728571D01*
X122090476Y-104252380D01*
X122566666Y-104252380D02*
X122566666Y-103585714D01*
X122566666Y-103252380D02*
X122519047Y-103300000D01*
X122566666Y-103347619D01*
X122614285Y-103300000D01*
X122566666Y-103252380D01*
X122566666Y-103347619D01*
X122900000Y-103585714D02*
X123280952Y-103585714D01*
X123042857Y-103252380D02*
X123042857Y-104109523D01*
X123090476Y-104204761D01*
X123185714Y-104252380D01*
X123280952Y-104252380D01*
X123614285Y-104252380D02*
X123614285Y-103585714D01*
X123614285Y-103252380D02*
X123566666Y-103300000D01*
X123614285Y-103347619D01*
X123661904Y-103300000D01*
X123614285Y-103252380D01*
X123614285Y-103347619D01*
X124519047Y-104252380D02*
X124519047Y-103728571D01*
X124471428Y-103633333D01*
X124376190Y-103585714D01*
X124185714Y-103585714D01*
X124090476Y-103633333D01*
X124519047Y-104204761D02*
X124423809Y-104252380D01*
X124185714Y-104252380D01*
X124090476Y-104204761D01*
X124042857Y-104109523D01*
X124042857Y-104014285D01*
X124090476Y-103919047D01*
X124185714Y-103871428D01*
X124423809Y-103871428D01*
X124519047Y-103823809D01*
X124852380Y-103585714D02*
X125233333Y-103585714D01*
X124995238Y-103252380D02*
X124995238Y-104109523D01*
X125042857Y-104204761D01*
X125138095Y-104252380D01*
X125233333Y-104252380D01*
X125566666Y-104252380D02*
X125566666Y-103585714D01*
X125566666Y-103252380D02*
X125519047Y-103300000D01*
X125566666Y-103347619D01*
X125614285Y-103300000D01*
X125566666Y-103252380D01*
X125566666Y-103347619D01*
X125947619Y-103585714D02*
X126185714Y-104252380D01*
X126423809Y-103585714D01*
X127185714Y-104204761D02*
X127090476Y-104252380D01*
X126900000Y-104252380D01*
X126804761Y-104204761D01*
X126757142Y-104109523D01*
X126757142Y-103728571D01*
X126804761Y-103633333D01*
X126900000Y-103585714D01*
X127090476Y-103585714D01*
X127185714Y-103633333D01*
X127233333Y-103728571D01*
X127233333Y-103823809D01*
X126757142Y-103919047D01*
D10*
X142350000Y-111871071D02*
X142850000Y-113371071D01*
X143350000Y-111871071D01*
X144350000Y-112585357D02*
X144564285Y-112656785D01*
X144635714Y-112728214D01*
X144707142Y-112871071D01*
X144707142Y-113085357D01*
X144635714Y-113228214D01*
X144564285Y-113299642D01*
X144421428Y-113371071D01*
X143850000Y-113371071D01*
X143850000Y-111871071D01*
X144350000Y-111871071D01*
X144492857Y-111942500D01*
X144564285Y-112013928D01*
X144635714Y-112156785D01*
X144635714Y-112299642D01*
X144564285Y-112442500D01*
X144492857Y-112513928D01*
X144350000Y-112585357D01*
X143850000Y-112585357D01*
X145350000Y-111871071D02*
X145350000Y-113085357D01*
X145421428Y-113228214D01*
X145492857Y-113299642D01*
X145635714Y-113371071D01*
X145921428Y-113371071D01*
X146064285Y-113299642D01*
X146135714Y-113228214D01*
X146207142Y-113085357D01*
X146207142Y-111871071D01*
X146850000Y-113299642D02*
X147064285Y-113371071D01*
X147421428Y-113371071D01*
X147564285Y-113299642D01*
X147635714Y-113228214D01*
X147707142Y-113085357D01*
X147707142Y-112942500D01*
X147635714Y-112799642D01*
X147564285Y-112728214D01*
X147421428Y-112656785D01*
X147135714Y-112585357D01*
X146992857Y-112513928D01*
X146921428Y-112442500D01*
X146850000Y-112299642D01*
X146850000Y-112156785D01*
X146921428Y-112013928D01*
X146992857Y-111942500D01*
X147135714Y-111871071D01*
X147492857Y-111871071D01*
X147707142Y-111942500D01*
X143028571Y-115214642D02*
X144171428Y-115214642D01*
X143600000Y-115786071D02*
X143600000Y-114643214D01*
X146028571Y-115214642D02*
X147171428Y-115214642D01*
D11*
X151847619Y-115152380D02*
X151514285Y-114676190D01*
X151276190Y-115152380D02*
X151276190Y-114152380D01*
X151657142Y-114152380D01*
X151752380Y-114200000D01*
X151800000Y-114247619D01*
X151847619Y-114342857D01*
X151847619Y-114485714D01*
X151800000Y-114580952D01*
X151752380Y-114628571D01*
X151657142Y-114676190D01*
X151276190Y-114676190D01*
X152276190Y-114628571D02*
X152609523Y-114628571D01*
X152752380Y-115152380D02*
X152276190Y-115152380D01*
X152276190Y-114152380D01*
X152752380Y-114152380D01*
X153133333Y-115104761D02*
X153276190Y-115152380D01*
X153514285Y-115152380D01*
X153609523Y-115104761D01*
X153657142Y-115057142D01*
X153704761Y-114961904D01*
X153704761Y-114866666D01*
X153657142Y-114771428D01*
X153609523Y-114723809D01*
X153514285Y-114676190D01*
X153323809Y-114628571D01*
X153228571Y-114580952D01*
X153180952Y-114533333D01*
X153133333Y-114438095D01*
X153133333Y-114342857D01*
X153180952Y-114247619D01*
X153228571Y-114200000D01*
X153323809Y-114152380D01*
X153561904Y-114152380D01*
X153704761Y-114200000D01*
X154133333Y-114628571D02*
X154466666Y-114628571D01*
X154609523Y-115152380D02*
X154133333Y-115152380D01*
X154133333Y-114152380D01*
X154609523Y-114152380D01*
X154895238Y-114152380D02*
X155466666Y-114152380D01*
X155180952Y-115152380D02*
X155180952Y-114152380D01*
X99280952Y-70527380D02*
X99519047Y-71527380D01*
X99709523Y-70813095D01*
X99900000Y-71527380D01*
X100138095Y-70527380D01*
X100900000Y-71479761D02*
X100804761Y-71527380D01*
X100614285Y-71527380D01*
X100519047Y-71479761D01*
X100471428Y-71384523D01*
X100471428Y-71003571D01*
X100519047Y-70908333D01*
X100614285Y-70860714D01*
X100804761Y-70860714D01*
X100900000Y-70908333D01*
X100947619Y-71003571D01*
X100947619Y-71098809D01*
X100471428Y-71194047D01*
X101376190Y-70860714D02*
X101376190Y-71527380D01*
X101376190Y-70955952D02*
X101423809Y-70908333D01*
X101519047Y-70860714D01*
X101661904Y-70860714D01*
X101757142Y-70908333D01*
X101804761Y-71003571D01*
X101804761Y-71527380D01*
X102138095Y-70860714D02*
X102519047Y-70860714D01*
X102280952Y-70527380D02*
X102280952Y-71384523D01*
X102328571Y-71479761D01*
X102423809Y-71527380D01*
X102519047Y-71527380D01*
X102757142Y-70860714D02*
X102947619Y-71527380D01*
X103138095Y-71051190D01*
X103328571Y-71527380D01*
X103519047Y-70860714D01*
X104042857Y-71527380D02*
X103947619Y-71479761D01*
X103900000Y-71432142D01*
X103852380Y-71336904D01*
X103852380Y-71051190D01*
X103900000Y-70955952D01*
X103947619Y-70908333D01*
X104042857Y-70860714D01*
X104185714Y-70860714D01*
X104280952Y-70908333D01*
X104328571Y-70955952D01*
X104376190Y-71051190D01*
X104376190Y-71336904D01*
X104328571Y-71432142D01*
X104280952Y-71479761D01*
X104185714Y-71527380D01*
X104042857Y-71527380D01*
X104804761Y-71527380D02*
X104804761Y-70860714D01*
X104804761Y-71051190D02*
X104852380Y-70955952D01*
X104900000Y-70908333D01*
X104995238Y-70860714D01*
X105090476Y-70860714D01*
X105280952Y-70860714D02*
X105661904Y-70860714D01*
X105423809Y-70527380D02*
X105423809Y-71384523D01*
X105471428Y-71479761D01*
X105566666Y-71527380D01*
X105661904Y-71527380D01*
X105995238Y-71527380D02*
X105995238Y-70527380D01*
X106423809Y-71527380D02*
X106423809Y-71003571D01*
X106376190Y-70908333D01*
X106280952Y-70860714D01*
X106138095Y-70860714D01*
X106042857Y-70908333D01*
X105995238Y-70955952D01*
X99161904Y-73137380D02*
X99161904Y-72137380D01*
X99638095Y-72470714D02*
X99638095Y-73137380D01*
X99638095Y-72565952D02*
X99685714Y-72518333D01*
X99780952Y-72470714D01*
X99923809Y-72470714D01*
X100019047Y-72518333D01*
X100066666Y-72613571D01*
X100066666Y-73137380D01*
X100495238Y-73089761D02*
X100590476Y-73137380D01*
X100780952Y-73137380D01*
X100876190Y-73089761D01*
X100923809Y-72994523D01*
X100923809Y-72946904D01*
X100876190Y-72851666D01*
X100780952Y-72804047D01*
X100638095Y-72804047D01*
X100542857Y-72756428D01*
X100495238Y-72661190D01*
X100495238Y-72613571D01*
X100542857Y-72518333D01*
X100638095Y-72470714D01*
X100780952Y-72470714D01*
X100876190Y-72518333D01*
X101352380Y-73137380D02*
X101352380Y-72470714D01*
X101352380Y-72137380D02*
X101304761Y-72185000D01*
X101352380Y-72232619D01*
X101400000Y-72185000D01*
X101352380Y-72137380D01*
X101352380Y-72232619D01*
X101685714Y-72470714D02*
X102066666Y-72470714D01*
X101828571Y-72137380D02*
X101828571Y-72994523D01*
X101876190Y-73089761D01*
X101971428Y-73137380D01*
X102066666Y-73137380D01*
X102828571Y-72470714D02*
X102828571Y-73137380D01*
X102400000Y-72470714D02*
X102400000Y-72994523D01*
X102447619Y-73089761D01*
X102542857Y-73137380D01*
X102685714Y-73137380D01*
X102780952Y-73089761D01*
X102828571Y-73042142D01*
X103161904Y-72470714D02*
X103542857Y-72470714D01*
X103304761Y-72137380D02*
X103304761Y-72994523D01*
X103352380Y-73089761D01*
X103447619Y-73137380D01*
X103542857Y-73137380D01*
X104257142Y-73089761D02*
X104161904Y-73137380D01*
X103971428Y-73137380D01*
X103876190Y-73089761D01*
X103828571Y-72994523D01*
X103828571Y-72613571D01*
X103876190Y-72518333D01*
X103971428Y-72470714D01*
X104161904Y-72470714D01*
X104257142Y-72518333D01*
X104304761Y-72613571D01*
X104304761Y-72708809D01*
X103828571Y-72804047D01*
X105685714Y-72137380D02*
X105876190Y-72137380D01*
X105971428Y-72185000D01*
X106066666Y-72280238D01*
X106114285Y-72470714D01*
X106114285Y-72804047D01*
X106066666Y-72994523D01*
X105971428Y-73089761D01*
X105876190Y-73137380D01*
X105685714Y-73137380D01*
X105590476Y-73089761D01*
X105495238Y-72994523D01*
X105447619Y-72804047D01*
X105447619Y-72470714D01*
X105495238Y-72280238D01*
X105590476Y-72185000D01*
X105685714Y-72137380D01*
X106400000Y-72470714D02*
X106780952Y-72470714D01*
X106542857Y-73137380D02*
X106542857Y-72280238D01*
X106590476Y-72185000D01*
X106685714Y-72137380D01*
X106780952Y-72137380D01*
X98852380Y-73747380D02*
X99423809Y-73747380D01*
X99138095Y-74747380D02*
X99138095Y-73747380D01*
X100138095Y-74699761D02*
X100042857Y-74747380D01*
X99852380Y-74747380D01*
X99757142Y-74699761D01*
X99709523Y-74604523D01*
X99709523Y-74223571D01*
X99757142Y-74128333D01*
X99852380Y-74080714D01*
X100042857Y-74080714D01*
X100138095Y-74128333D01*
X100185714Y-74223571D01*
X100185714Y-74318809D01*
X99709523Y-74414047D01*
X101042857Y-74699761D02*
X100947619Y-74747380D01*
X100757142Y-74747380D01*
X100661904Y-74699761D01*
X100614285Y-74652142D01*
X100566666Y-74556904D01*
X100566666Y-74271190D01*
X100614285Y-74175952D01*
X100661904Y-74128333D01*
X100757142Y-74080714D01*
X100947619Y-74080714D01*
X101042857Y-74128333D01*
X101471428Y-74747380D02*
X101471428Y-73747380D01*
X101900000Y-74747380D02*
X101900000Y-74223571D01*
X101852380Y-74128333D01*
X101757142Y-74080714D01*
X101614285Y-74080714D01*
X101519047Y-74128333D01*
X101471428Y-74175952D01*
X102376190Y-74080714D02*
X102376190Y-74747380D01*
X102376190Y-74175952D02*
X102423809Y-74128333D01*
X102519047Y-74080714D01*
X102661904Y-74080714D01*
X102757142Y-74128333D01*
X102804761Y-74223571D01*
X102804761Y-74747380D01*
X103423809Y-74747380D02*
X103328571Y-74699761D01*
X103280952Y-74652142D01*
X103233333Y-74556904D01*
X103233333Y-74271190D01*
X103280952Y-74175952D01*
X103328571Y-74128333D01*
X103423809Y-74080714D01*
X103566666Y-74080714D01*
X103661904Y-74128333D01*
X103709523Y-74175952D01*
X103757142Y-74271190D01*
X103757142Y-74556904D01*
X103709523Y-74652142D01*
X103661904Y-74699761D01*
X103566666Y-74747380D01*
X103423809Y-74747380D01*
X104328571Y-74747380D02*
X104233333Y-74699761D01*
X104185714Y-74604523D01*
X104185714Y-73747380D01*
X104852380Y-74747380D02*
X104757142Y-74699761D01*
X104709523Y-74652142D01*
X104661904Y-74556904D01*
X104661904Y-74271190D01*
X104709523Y-74175952D01*
X104757142Y-74128333D01*
X104852380Y-74080714D01*
X104995238Y-74080714D01*
X105090476Y-74128333D01*
X105138095Y-74175952D01*
X105185714Y-74271190D01*
X105185714Y-74556904D01*
X105138095Y-74652142D01*
X105090476Y-74699761D01*
X104995238Y-74747380D01*
X104852380Y-74747380D01*
X106042857Y-74080714D02*
X106042857Y-74890238D01*
X105995238Y-74985476D01*
X105947619Y-75033095D01*
X105852380Y-75080714D01*
X105709523Y-75080714D01*
X105614285Y-75033095D01*
X106042857Y-74699761D02*
X105947619Y-74747380D01*
X105757142Y-74747380D01*
X105661904Y-74699761D01*
X105614285Y-74652142D01*
X105566666Y-74556904D01*
X105566666Y-74271190D01*
X105614285Y-74175952D01*
X105661904Y-74128333D01*
X105757142Y-74080714D01*
X105947619Y-74080714D01*
X106042857Y-74128333D01*
X106423809Y-74080714D02*
X106661904Y-74747380D01*
X106900000Y-74080714D02*
X106661904Y-74747380D01*
X106566666Y-74985476D01*
X106519047Y-75033095D01*
X106423809Y-75080714D01*
X100304761Y-77967380D02*
X100304761Y-76967380D01*
X100685714Y-76967380D01*
X100780952Y-77015000D01*
X100828571Y-77062619D01*
X100876190Y-77157857D01*
X100876190Y-77300714D01*
X100828571Y-77395952D01*
X100780952Y-77443571D01*
X100685714Y-77491190D01*
X100304761Y-77491190D01*
X101304761Y-77967380D02*
X101304761Y-77300714D01*
X101304761Y-76967380D02*
X101257142Y-77015000D01*
X101304761Y-77062619D01*
X101352380Y-77015000D01*
X101304761Y-76967380D01*
X101304761Y-77062619D01*
X102209523Y-77919761D02*
X102114285Y-77967380D01*
X101923809Y-77967380D01*
X101828571Y-77919761D01*
X101780952Y-77872142D01*
X101733333Y-77776904D01*
X101733333Y-77491190D01*
X101780952Y-77395952D01*
X101828571Y-77348333D01*
X101923809Y-77300714D01*
X102114285Y-77300714D01*
X102209523Y-77348333D01*
X102780952Y-77967380D02*
X102685714Y-77919761D01*
X102638095Y-77872142D01*
X102590476Y-77776904D01*
X102590476Y-77491190D01*
X102638095Y-77395952D01*
X102685714Y-77348333D01*
X102780952Y-77300714D01*
X102923809Y-77300714D01*
X103019047Y-77348333D01*
X103066666Y-77395952D01*
X103114285Y-77491190D01*
X103114285Y-77776904D01*
X103066666Y-77872142D01*
X103019047Y-77919761D01*
X102923809Y-77967380D01*
X102780952Y-77967380D01*
X103495238Y-77919761D02*
X103638095Y-77967380D01*
X103876190Y-77967380D01*
X103971428Y-77919761D01*
X104019047Y-77872142D01*
X104066666Y-77776904D01*
X104066666Y-77681666D01*
X104019047Y-77586428D01*
X103971428Y-77538809D01*
X103876190Y-77491190D01*
X103685714Y-77443571D01*
X103590476Y-77395952D01*
X103542857Y-77348333D01*
X103495238Y-77253095D01*
X103495238Y-77157857D01*
X103542857Y-77062619D01*
X103590476Y-77015000D01*
X103685714Y-76967380D01*
X103923809Y-76967380D01*
X104066666Y-77015000D01*
X104923809Y-77967380D02*
X104923809Y-77443571D01*
X104876190Y-77348333D01*
X104780952Y-77300714D01*
X104590476Y-77300714D01*
X104495238Y-77348333D01*
X104923809Y-77919761D02*
X104828571Y-77967380D01*
X104590476Y-77967380D01*
X104495238Y-77919761D01*
X104447619Y-77824523D01*
X104447619Y-77729285D01*
X104495238Y-77634047D01*
X104590476Y-77586428D01*
X104828571Y-77586428D01*
X104923809Y-77538809D01*
X105257142Y-77300714D02*
X105638095Y-77300714D01*
X105400000Y-76967380D02*
X105400000Y-77824523D01*
X105447619Y-77919761D01*
X105542857Y-77967380D01*
X105638095Y-77967380D01*
X99900000Y-79577380D02*
X99900000Y-78577380D01*
X100376190Y-78910714D02*
X100376190Y-79577380D01*
X100376190Y-79005952D02*
X100423809Y-78958333D01*
X100519047Y-78910714D01*
X100661904Y-78910714D01*
X100757142Y-78958333D01*
X100804761Y-79053571D01*
X100804761Y-79577380D01*
X101280952Y-79577380D02*
X101280952Y-78910714D01*
X101280952Y-78577380D02*
X101233333Y-78625000D01*
X101280952Y-78672619D01*
X101328571Y-78625000D01*
X101280952Y-78577380D01*
X101280952Y-78672619D01*
X101614285Y-78910714D02*
X101995238Y-78910714D01*
X101757142Y-78577380D02*
X101757142Y-79434523D01*
X101804761Y-79529761D01*
X101900000Y-79577380D01*
X101995238Y-79577380D01*
X102328571Y-79577380D02*
X102328571Y-78910714D01*
X102328571Y-78577380D02*
X102280952Y-78625000D01*
X102328571Y-78672619D01*
X102376190Y-78625000D01*
X102328571Y-78577380D01*
X102328571Y-78672619D01*
X103233333Y-79577380D02*
X103233333Y-79053571D01*
X103185714Y-78958333D01*
X103090476Y-78910714D01*
X102900000Y-78910714D01*
X102804761Y-78958333D01*
X103233333Y-79529761D02*
X103138095Y-79577380D01*
X102900000Y-79577380D01*
X102804761Y-79529761D01*
X102757142Y-79434523D01*
X102757142Y-79339285D01*
X102804761Y-79244047D01*
X102900000Y-79196428D01*
X103138095Y-79196428D01*
X103233333Y-79148809D01*
X103566666Y-78910714D02*
X103947619Y-78910714D01*
X103709523Y-78577380D02*
X103709523Y-79434523D01*
X103757142Y-79529761D01*
X103852380Y-79577380D01*
X103947619Y-79577380D01*
X104280952Y-79577380D02*
X104280952Y-78910714D01*
X104280952Y-78577380D02*
X104233333Y-78625000D01*
X104280952Y-78672619D01*
X104328571Y-78625000D01*
X104280952Y-78577380D01*
X104280952Y-78672619D01*
X104661904Y-78910714D02*
X104900000Y-79577380D01*
X105138095Y-78910714D01*
X105900000Y-79529761D02*
X105804761Y-79577380D01*
X105614285Y-79577380D01*
X105519047Y-79529761D01*
X105471428Y-79434523D01*
X105471428Y-79053571D01*
X105519047Y-78958333D01*
X105614285Y-78910714D01*
X105804761Y-78910714D01*
X105900000Y-78958333D01*
X105947619Y-79053571D01*
X105947619Y-79148809D01*
X105471428Y-79244047D01*
D12*
X109474523Y-116439761D02*
X108204523Y-116439761D01*
X109353571Y-115109285D02*
X109414047Y-115169761D01*
X109474523Y-115351190D01*
X109474523Y-115472142D01*
X109414047Y-115653571D01*
X109293095Y-115774523D01*
X109172142Y-115835000D01*
X108930238Y-115895476D01*
X108748809Y-115895476D01*
X108506904Y-115835000D01*
X108385952Y-115774523D01*
X108265000Y-115653571D01*
X108204523Y-115472142D01*
X108204523Y-115351190D01*
X108265000Y-115169761D01*
X108325476Y-115109285D01*
X108204523Y-114020714D02*
X108204523Y-114262619D01*
X108265000Y-114383571D01*
X108325476Y-114444047D01*
X108506904Y-114565000D01*
X108748809Y-114625476D01*
X109232619Y-114625476D01*
X109353571Y-114565000D01*
X109414047Y-114504523D01*
X109474523Y-114383571D01*
X109474523Y-114141666D01*
X109414047Y-114020714D01*
X109353571Y-113960238D01*
X109232619Y-113899761D01*
X108930238Y-113899761D01*
X108809285Y-113960238D01*
X108748809Y-114020714D01*
X108688333Y-114141666D01*
X108688333Y-114383571D01*
X108748809Y-114504523D01*
X108809285Y-114565000D01*
X108930238Y-114625476D01*
D11*
X151233333Y-84457142D02*
X151185714Y-84504761D01*
X151042857Y-84552380D01*
X150947619Y-84552380D01*
X150804761Y-84504761D01*
X150709523Y-84409523D01*
X150661904Y-84314285D01*
X150614285Y-84123809D01*
X150614285Y-83980952D01*
X150661904Y-83790476D01*
X150709523Y-83695238D01*
X150804761Y-83600000D01*
X150947619Y-83552380D01*
X151042857Y-83552380D01*
X151185714Y-83600000D01*
X151233333Y-83647619D01*
X152138095Y-83552380D02*
X151661904Y-83552380D01*
X151614285Y-84028571D01*
X151661904Y-83980952D01*
X151757142Y-83933333D01*
X151995238Y-83933333D01*
X152090476Y-83980952D01*
X152138095Y-84028571D01*
X152185714Y-84123809D01*
X152185714Y-84361904D01*
X152138095Y-84457142D01*
X152090476Y-84504761D01*
X151995238Y-84552380D01*
X151757142Y-84552380D01*
X151661904Y-84504761D01*
X151614285Y-84457142D01*
X116857142Y-93357142D02*
X116809523Y-93404761D01*
X116666666Y-93452380D01*
X116571428Y-93452380D01*
X116428571Y-93404761D01*
X116333333Y-93309523D01*
X116285714Y-93214285D01*
X116238095Y-93023809D01*
X116238095Y-92880952D01*
X116285714Y-92690476D01*
X116333333Y-92595238D01*
X116428571Y-92500000D01*
X116571428Y-92452380D01*
X116666666Y-92452380D01*
X116809523Y-92500000D01*
X116857142Y-92547619D01*
X117190476Y-92452380D02*
X117809523Y-92452380D01*
X117476190Y-92833333D01*
X117619047Y-92833333D01*
X117714285Y-92880952D01*
X117761904Y-92928571D01*
X117809523Y-93023809D01*
X117809523Y-93261904D01*
X117761904Y-93357142D01*
X117714285Y-93404761D01*
X117619047Y-93452380D01*
X117333333Y-93452380D01*
X117238095Y-93404761D01*
X117190476Y-93357142D01*
X118666666Y-92452380D02*
X118476190Y-92452380D01*
X118380952Y-92500000D01*
X118333333Y-92547619D01*
X118238095Y-92690476D01*
X118190476Y-92880952D01*
X118190476Y-93261904D01*
X118238095Y-93357142D01*
X118285714Y-93404761D01*
X118380952Y-93452380D01*
X118571428Y-93452380D01*
X118666666Y-93404761D01*
X118714285Y-93357142D01*
X118761904Y-93261904D01*
X118761904Y-93023809D01*
X118714285Y-92928571D01*
X118666666Y-92880952D01*
X118571428Y-92833333D01*
X118380952Y-92833333D01*
X118285714Y-92880952D01*
X118238095Y-92928571D01*
X118190476Y-93023809D01*
X179852380Y-92366666D02*
X179376190Y-92700000D01*
X179852380Y-92938095D02*
X178852380Y-92938095D01*
X178852380Y-92557142D01*
X178900000Y-92461904D01*
X178947619Y-92414285D01*
X179042857Y-92366666D01*
X179185714Y-92366666D01*
X179280952Y-92414285D01*
X179328571Y-92461904D01*
X179376190Y-92557142D01*
X179376190Y-92938095D01*
X178852380Y-92033333D02*
X178852380Y-91366666D01*
X179852380Y-91795238D01*
X153257142Y-100257142D02*
X153209523Y-100304761D01*
X153066666Y-100352380D01*
X152971428Y-100352380D01*
X152828571Y-100304761D01*
X152733333Y-100209523D01*
X152685714Y-100114285D01*
X152638095Y-99923809D01*
X152638095Y-99780952D01*
X152685714Y-99590476D01*
X152733333Y-99495238D01*
X152828571Y-99400000D01*
X152971428Y-99352380D01*
X153066666Y-99352380D01*
X153209523Y-99400000D01*
X153257142Y-99447619D01*
X153638095Y-99447619D02*
X153685714Y-99400000D01*
X153780952Y-99352380D01*
X154019047Y-99352380D01*
X154114285Y-99400000D01*
X154161904Y-99447619D01*
X154209523Y-99542857D01*
X154209523Y-99638095D01*
X154161904Y-99780952D01*
X153590476Y-100352380D01*
X154209523Y-100352380D01*
X154780952Y-99780952D02*
X154685714Y-99733333D01*
X154638095Y-99685714D01*
X154590476Y-99590476D01*
X154590476Y-99542857D01*
X154638095Y-99447619D01*
X154685714Y-99400000D01*
X154780952Y-99352380D01*
X154971428Y-99352380D01*
X155066666Y-99400000D01*
X155114285Y-99447619D01*
X155161904Y-99542857D01*
X155161904Y-99590476D01*
X155114285Y-99685714D01*
X155066666Y-99733333D01*
X154971428Y-99780952D01*
X154780952Y-99780952D01*
X154685714Y-99828571D01*
X154638095Y-99876190D01*
X154590476Y-99971428D01*
X154590476Y-100161904D01*
X154638095Y-100257142D01*
X154685714Y-100304761D01*
X154780952Y-100352380D01*
X154971428Y-100352380D01*
X155066666Y-100304761D01*
X155114285Y-100257142D01*
X155161904Y-100161904D01*
X155161904Y-99971428D01*
X155114285Y-99876190D01*
X155066666Y-99828571D01*
X154971428Y-99780952D01*
X184566666Y-74872380D02*
X184566666Y-75586666D01*
X184519047Y-75729523D01*
X184423809Y-75824761D01*
X184280952Y-75872380D01*
X184185714Y-75872380D01*
X185566666Y-75872380D02*
X184995238Y-75872380D01*
X185280952Y-75872380D02*
X185280952Y-74872380D01*
X185185714Y-75015238D01*
X185090476Y-75110476D01*
X184995238Y-75158095D01*
D12*
X157804523Y-106028095D02*
X158711666Y-106028095D01*
X158893095Y-106088571D01*
X159014047Y-106209523D01*
X159074523Y-106390952D01*
X159074523Y-106511904D01*
X159074523Y-104758095D02*
X159074523Y-105483809D01*
X159074523Y-105120952D02*
X157804523Y-105120952D01*
X157985952Y-105241904D01*
X158106904Y-105362857D01*
X158167380Y-105483809D01*
X157925476Y-104274285D02*
X157865000Y-104213809D01*
X157804523Y-104092857D01*
X157804523Y-103790476D01*
X157865000Y-103669523D01*
X157925476Y-103609047D01*
X158046428Y-103548571D01*
X158167380Y-103548571D01*
X158348809Y-103609047D01*
X159074523Y-104334761D01*
X159074523Y-103548571D01*
D11*
X120837142Y-122442857D02*
X120884761Y-122490476D01*
X120932380Y-122633333D01*
X120932380Y-122728571D01*
X120884761Y-122871428D01*
X120789523Y-122966666D01*
X120694285Y-123014285D01*
X120503809Y-123061904D01*
X120360952Y-123061904D01*
X120170476Y-123014285D01*
X120075238Y-122966666D01*
X119980000Y-122871428D01*
X119932380Y-122728571D01*
X119932380Y-122633333D01*
X119980000Y-122490476D01*
X120027619Y-122442857D01*
X120027619Y-122061904D02*
X119980000Y-122014285D01*
X119932380Y-121919047D01*
X119932380Y-121680952D01*
X119980000Y-121585714D01*
X120027619Y-121538095D01*
X120122857Y-121490476D01*
X120218095Y-121490476D01*
X120360952Y-121538095D01*
X120932380Y-122109523D01*
X120932380Y-121490476D01*
X119932380Y-120871428D02*
X119932380Y-120776190D01*
X119980000Y-120680952D01*
X120027619Y-120633333D01*
X120122857Y-120585714D01*
X120313333Y-120538095D01*
X120551428Y-120538095D01*
X120741904Y-120585714D01*
X120837142Y-120633333D01*
X120884761Y-120680952D01*
X120932380Y-120776190D01*
X120932380Y-120871428D01*
X120884761Y-120966666D01*
X120837142Y-121014285D01*
X120741904Y-121061904D01*
X120551428Y-121109523D01*
X120313333Y-121109523D01*
X120122857Y-121061904D01*
X120027619Y-121014285D01*
X119980000Y-120966666D01*
X119932380Y-120871428D01*
X174422380Y-96814523D02*
X175136666Y-96814523D01*
X175279523Y-96862142D01*
X175374761Y-96957380D01*
X175422380Y-97100238D01*
X175422380Y-97195476D01*
X175422380Y-95814523D02*
X175422380Y-96385952D01*
X175422380Y-96100238D02*
X174422380Y-96100238D01*
X174565238Y-96195476D01*
X174660476Y-96290714D01*
X174708095Y-96385952D01*
X174422380Y-95195476D02*
X174422380Y-95100238D01*
X174470000Y-95005000D01*
X174517619Y-94957380D01*
X174612857Y-94909761D01*
X174803333Y-94862142D01*
X175041428Y-94862142D01*
X175231904Y-94909761D01*
X175327142Y-94957380D01*
X175374761Y-95005000D01*
X175422380Y-95100238D01*
X175422380Y-95195476D01*
X175374761Y-95290714D01*
X175327142Y-95338333D01*
X175231904Y-95385952D01*
X175041428Y-95433571D01*
X174803333Y-95433571D01*
X174612857Y-95385952D01*
X174517619Y-95338333D01*
X174470000Y-95290714D01*
X174422380Y-95195476D01*
X162752380Y-112266666D02*
X162276190Y-112600000D01*
X162752380Y-112838095D02*
X161752380Y-112838095D01*
X161752380Y-112457142D01*
X161800000Y-112361904D01*
X161847619Y-112314285D01*
X161942857Y-112266666D01*
X162085714Y-112266666D01*
X162180952Y-112314285D01*
X162228571Y-112361904D01*
X162276190Y-112457142D01*
X162276190Y-112838095D01*
X161752380Y-111409523D02*
X161752380Y-111600000D01*
X161800000Y-111695238D01*
X161847619Y-111742857D01*
X161990476Y-111838095D01*
X162180952Y-111885714D01*
X162561904Y-111885714D01*
X162657142Y-111838095D01*
X162704761Y-111790476D01*
X162752380Y-111695238D01*
X162752380Y-111504761D01*
X162704761Y-111409523D01*
X162657142Y-111361904D01*
X162561904Y-111314285D01*
X162323809Y-111314285D01*
X162228571Y-111361904D01*
X162180952Y-111409523D01*
X162133333Y-111504761D01*
X162133333Y-111695238D01*
X162180952Y-111790476D01*
X162228571Y-111838095D01*
X162323809Y-111885714D01*
D12*
X170855476Y-119974523D02*
X170855476Y-118704523D01*
X172185952Y-119853571D02*
X172125476Y-119914047D01*
X171944047Y-119974523D01*
X171823095Y-119974523D01*
X171641666Y-119914047D01*
X171520714Y-119793095D01*
X171460238Y-119672142D01*
X171399761Y-119430238D01*
X171399761Y-119248809D01*
X171460238Y-119006904D01*
X171520714Y-118885952D01*
X171641666Y-118765000D01*
X171823095Y-118704523D01*
X171944047Y-118704523D01*
X172125476Y-118765000D01*
X172185952Y-118825476D01*
X173395476Y-119974523D02*
X172669761Y-119974523D01*
X173032619Y-119974523D02*
X173032619Y-118704523D01*
X172911666Y-118885952D01*
X172790714Y-119006904D01*
X172669761Y-119067380D01*
X174544523Y-118704523D02*
X173939761Y-118704523D01*
X173879285Y-119309285D01*
X173939761Y-119248809D01*
X174060714Y-119188333D01*
X174363095Y-119188333D01*
X174484047Y-119248809D01*
X174544523Y-119309285D01*
X174605000Y-119430238D01*
X174605000Y-119732619D01*
X174544523Y-119853571D01*
X174484047Y-119914047D01*
X174363095Y-119974523D01*
X174060714Y-119974523D01*
X173939761Y-119914047D01*
X173879285Y-119853571D01*
D11*
X182457142Y-88042857D02*
X182504761Y-88090476D01*
X182552380Y-88233333D01*
X182552380Y-88328571D01*
X182504761Y-88471428D01*
X182409523Y-88566666D01*
X182314285Y-88614285D01*
X182123809Y-88661904D01*
X181980952Y-88661904D01*
X181790476Y-88614285D01*
X181695238Y-88566666D01*
X181600000Y-88471428D01*
X181552380Y-88328571D01*
X181552380Y-88233333D01*
X181600000Y-88090476D01*
X181647619Y-88042857D01*
X181647619Y-87661904D02*
X181600000Y-87614285D01*
X181552380Y-87519047D01*
X181552380Y-87280952D01*
X181600000Y-87185714D01*
X181647619Y-87138095D01*
X181742857Y-87090476D01*
X181838095Y-87090476D01*
X181980952Y-87138095D01*
X182552380Y-87709523D01*
X182552380Y-87090476D01*
X181552380Y-86185714D02*
X181552380Y-86661904D01*
X182028571Y-86709523D01*
X181980952Y-86661904D01*
X181933333Y-86566666D01*
X181933333Y-86328571D01*
X181980952Y-86233333D01*
X182028571Y-86185714D01*
X182123809Y-86138095D01*
X182361904Y-86138095D01*
X182457142Y-86185714D01*
X182504761Y-86233333D01*
X182552380Y-86328571D01*
X182552380Y-86566666D01*
X182504761Y-86661904D01*
X182457142Y-86709523D01*
X98452380Y-88233333D02*
X99166666Y-88233333D01*
X99309523Y-88280952D01*
X99404761Y-88376190D01*
X99452380Y-88519047D01*
X99452380Y-88614285D01*
X99452380Y-87757142D02*
X98452380Y-87757142D01*
X98452380Y-87376190D01*
X98500000Y-87280952D01*
X98547619Y-87233333D01*
X98642857Y-87185714D01*
X98785714Y-87185714D01*
X98880952Y-87233333D01*
X98928571Y-87280952D01*
X98976190Y-87376190D01*
X98976190Y-87757142D01*
X98452380Y-86852380D02*
X98452380Y-86233333D01*
X98833333Y-86566666D01*
X98833333Y-86423809D01*
X98880952Y-86328571D01*
X98928571Y-86280952D01*
X99023809Y-86233333D01*
X99261904Y-86233333D01*
X99357142Y-86280952D01*
X99404761Y-86328571D01*
X99452380Y-86423809D01*
X99452380Y-86709523D01*
X99404761Y-86804761D01*
X99357142Y-86852380D01*
X164057142Y-119557142D02*
X164009523Y-119604761D01*
X163866666Y-119652380D01*
X163771428Y-119652380D01*
X163628571Y-119604761D01*
X163533333Y-119509523D01*
X163485714Y-119414285D01*
X163438095Y-119223809D01*
X163438095Y-119080952D01*
X163485714Y-118890476D01*
X163533333Y-118795238D01*
X163628571Y-118700000D01*
X163771428Y-118652380D01*
X163866666Y-118652380D01*
X164009523Y-118700000D01*
X164057142Y-118747619D01*
X164961904Y-118652380D02*
X164485714Y-118652380D01*
X164438095Y-119128571D01*
X164485714Y-119080952D01*
X164580952Y-119033333D01*
X164819047Y-119033333D01*
X164914285Y-119080952D01*
X164961904Y-119128571D01*
X165009523Y-119223809D01*
X165009523Y-119461904D01*
X164961904Y-119557142D01*
X164914285Y-119604761D01*
X164819047Y-119652380D01*
X164580952Y-119652380D01*
X164485714Y-119604761D01*
X164438095Y-119557142D01*
X165628571Y-118652380D02*
X165723809Y-118652380D01*
X165819047Y-118700000D01*
X165866666Y-118747619D01*
X165914285Y-118842857D01*
X165961904Y-119033333D01*
X165961904Y-119271428D01*
X165914285Y-119461904D01*
X165866666Y-119557142D01*
X165819047Y-119604761D01*
X165723809Y-119652380D01*
X165628571Y-119652380D01*
X165533333Y-119604761D01*
X165485714Y-119557142D01*
X165438095Y-119461904D01*
X165390476Y-119271428D01*
X165390476Y-119033333D01*
X165438095Y-118842857D01*
X165485714Y-118747619D01*
X165533333Y-118700000D01*
X165628571Y-118652380D01*
X157852380Y-82233333D02*
X158566666Y-82233333D01*
X158709523Y-82280952D01*
X158804761Y-82376190D01*
X158852380Y-82519047D01*
X158852380Y-82614285D01*
X158852380Y-81757142D02*
X157852380Y-81757142D01*
X157852380Y-81376190D01*
X157900000Y-81280952D01*
X157947619Y-81233333D01*
X158042857Y-81185714D01*
X158185714Y-81185714D01*
X158280952Y-81233333D01*
X158328571Y-81280952D01*
X158376190Y-81376190D01*
X158376190Y-81757142D01*
X157852380Y-80852380D02*
X157852380Y-80185714D01*
X158852380Y-80614285D01*
D12*
X162860238Y-94374523D02*
X162860238Y-93104523D01*
X164190714Y-94253571D02*
X164130238Y-94314047D01*
X163948809Y-94374523D01*
X163827857Y-94374523D01*
X163646428Y-94314047D01*
X163525476Y-94193095D01*
X163465000Y-94072142D01*
X163404523Y-93830238D01*
X163404523Y-93648809D01*
X163465000Y-93406904D01*
X163525476Y-93285952D01*
X163646428Y-93165000D01*
X163827857Y-93104523D01*
X163948809Y-93104523D01*
X164130238Y-93165000D01*
X164190714Y-93225476D01*
X165279285Y-93527857D02*
X165279285Y-94374523D01*
X164976904Y-93044047D02*
X164674523Y-93951190D01*
X165460714Y-93951190D01*
D11*
X98222380Y-93233333D02*
X98936666Y-93233333D01*
X99079523Y-93280952D01*
X99174761Y-93376190D01*
X99222380Y-93519047D01*
X99222380Y-93614285D01*
X99222380Y-92757142D02*
X98222380Y-92757142D01*
X98222380Y-92376190D01*
X98270000Y-92280952D01*
X98317619Y-92233333D01*
X98412857Y-92185714D01*
X98555714Y-92185714D01*
X98650952Y-92233333D01*
X98698571Y-92280952D01*
X98746190Y-92376190D01*
X98746190Y-92757142D01*
X98555714Y-91328571D02*
X99222380Y-91328571D01*
X98174761Y-91566666D02*
X98889047Y-91804761D01*
X98889047Y-91185714D01*
X170457142Y-86842857D02*
X170504761Y-86890476D01*
X170552380Y-87033333D01*
X170552380Y-87128571D01*
X170504761Y-87271428D01*
X170409523Y-87366666D01*
X170314285Y-87414285D01*
X170123809Y-87461904D01*
X169980952Y-87461904D01*
X169790476Y-87414285D01*
X169695238Y-87366666D01*
X169600000Y-87271428D01*
X169552380Y-87128571D01*
X169552380Y-87033333D01*
X169600000Y-86890476D01*
X169647619Y-86842857D01*
X169885714Y-85985714D02*
X170552380Y-85985714D01*
X169504761Y-86223809D02*
X170219047Y-86461904D01*
X170219047Y-85842857D01*
X170552380Y-84938095D02*
X170552380Y-85509523D01*
X170552380Y-85223809D02*
X169552380Y-85223809D01*
X169695238Y-85319047D01*
X169790476Y-85414285D01*
X169838095Y-85509523D01*
X116457142Y-111342857D02*
X116504761Y-111390476D01*
X116552380Y-111533333D01*
X116552380Y-111628571D01*
X116504761Y-111771428D01*
X116409523Y-111866666D01*
X116314285Y-111914285D01*
X116123809Y-111961904D01*
X115980952Y-111961904D01*
X115790476Y-111914285D01*
X115695238Y-111866666D01*
X115600000Y-111771428D01*
X115552380Y-111628571D01*
X115552380Y-111533333D01*
X115600000Y-111390476D01*
X115647619Y-111342857D01*
X116552380Y-110390476D02*
X116552380Y-110961904D01*
X116552380Y-110676190D02*
X115552380Y-110676190D01*
X115695238Y-110771428D01*
X115790476Y-110866666D01*
X115838095Y-110961904D01*
X115552380Y-109485714D02*
X115552380Y-109961904D01*
X116028571Y-110009523D01*
X115980952Y-109961904D01*
X115933333Y-109866666D01*
X115933333Y-109628571D01*
X115980952Y-109533333D01*
X116028571Y-109485714D01*
X116123809Y-109438095D01*
X116361904Y-109438095D01*
X116457142Y-109485714D01*
X116504761Y-109533333D01*
X116552380Y-109628571D01*
X116552380Y-109866666D01*
X116504761Y-109961904D01*
X116457142Y-110009523D01*
D12*
X107760238Y-120274523D02*
X107760238Y-119004523D01*
X109090714Y-120153571D02*
X109030238Y-120214047D01*
X108848809Y-120274523D01*
X108727857Y-120274523D01*
X108546428Y-120214047D01*
X108425476Y-120093095D01*
X108365000Y-119972142D01*
X108304523Y-119730238D01*
X108304523Y-119548809D01*
X108365000Y-119306904D01*
X108425476Y-119185952D01*
X108546428Y-119065000D01*
X108727857Y-119004523D01*
X108848809Y-119004523D01*
X109030238Y-119065000D01*
X109090714Y-119125476D01*
X109514047Y-119004523D02*
X110300238Y-119004523D01*
X109876904Y-119488333D01*
X110058333Y-119488333D01*
X110179285Y-119548809D01*
X110239761Y-119609285D01*
X110300238Y-119730238D01*
X110300238Y-120032619D01*
X110239761Y-120153571D01*
X110179285Y-120214047D01*
X110058333Y-120274523D01*
X109695476Y-120274523D01*
X109574523Y-120214047D01*
X109514047Y-120153571D01*
D11*
X161037201Y-76951738D02*
X161037201Y-77762211D01*
X161084876Y-77857561D01*
X161132551Y-77905236D01*
X161227901Y-77952911D01*
X161418600Y-77952911D01*
X161513950Y-77905236D01*
X161561625Y-77857561D01*
X161609300Y-77762211D01*
X161609300Y-76951738D01*
X162038374Y-77047088D02*
X162086049Y-76999413D01*
X162181399Y-76951738D01*
X162419773Y-76951738D01*
X162515123Y-76999413D01*
X162562798Y-77047088D01*
X162610473Y-77142438D01*
X162610473Y-77237788D01*
X162562798Y-77380812D01*
X161990699Y-77952911D01*
X162610473Y-77952911D01*
D12*
X135260238Y-93774523D02*
X135260238Y-92504523D01*
X136590714Y-93653571D02*
X136530238Y-93714047D01*
X136348809Y-93774523D01*
X136227857Y-93774523D01*
X136046428Y-93714047D01*
X135925476Y-93593095D01*
X135865000Y-93472142D01*
X135804523Y-93230238D01*
X135804523Y-93048809D01*
X135865000Y-92806904D01*
X135925476Y-92685952D01*
X136046428Y-92565000D01*
X136227857Y-92504523D01*
X136348809Y-92504523D01*
X136530238Y-92565000D01*
X136590714Y-92625476D01*
X137800238Y-93774523D02*
X137074523Y-93774523D01*
X137437380Y-93774523D02*
X137437380Y-92504523D01*
X137316428Y-92685952D01*
X137195476Y-92806904D01*
X137074523Y-92867380D01*
D11*
X180952380Y-86042857D02*
X180476190Y-86376190D01*
X180952380Y-86614285D02*
X179952380Y-86614285D01*
X179952380Y-86233333D01*
X180000000Y-86138095D01*
X180047619Y-86090476D01*
X180142857Y-86042857D01*
X180285714Y-86042857D01*
X180380952Y-86090476D01*
X180428571Y-86138095D01*
X180476190Y-86233333D01*
X180476190Y-86614285D01*
X180952380Y-85090476D02*
X180952380Y-85661904D01*
X180952380Y-85376190D02*
X179952380Y-85376190D01*
X180095238Y-85471428D01*
X180190476Y-85566666D01*
X180238095Y-85661904D01*
X180952380Y-84138095D02*
X180952380Y-84709523D01*
X180952380Y-84423809D02*
X179952380Y-84423809D01*
X180095238Y-84519047D01*
X180190476Y-84614285D01*
X180238095Y-84709523D01*
X181157142Y-90542857D02*
X181204761Y-90590476D01*
X181252380Y-90733333D01*
X181252380Y-90828571D01*
X181204761Y-90971428D01*
X181109523Y-91066666D01*
X181014285Y-91114285D01*
X180823809Y-91161904D01*
X180680952Y-91161904D01*
X180490476Y-91114285D01*
X180395238Y-91066666D01*
X180300000Y-90971428D01*
X180252380Y-90828571D01*
X180252380Y-90733333D01*
X180300000Y-90590476D01*
X180347619Y-90542857D01*
X180347619Y-90161904D02*
X180300000Y-90114285D01*
X180252380Y-90019047D01*
X180252380Y-89780952D01*
X180300000Y-89685714D01*
X180347619Y-89638095D01*
X180442857Y-89590476D01*
X180538095Y-89590476D01*
X180680952Y-89638095D01*
X181252380Y-90209523D01*
X181252380Y-89590476D01*
X180252380Y-88733333D02*
X180252380Y-88923809D01*
X180300000Y-89019047D01*
X180347619Y-89066666D01*
X180490476Y-89161904D01*
X180680952Y-89209523D01*
X181061904Y-89209523D01*
X181157142Y-89161904D01*
X181204761Y-89114285D01*
X181252380Y-89019047D01*
X181252380Y-88828571D01*
X181204761Y-88733333D01*
X181157142Y-88685714D01*
X181061904Y-88638095D01*
X180823809Y-88638095D01*
X180728571Y-88685714D01*
X180680952Y-88733333D01*
X180633333Y-88828571D01*
X180633333Y-89019047D01*
X180680952Y-89114285D01*
X180728571Y-89161904D01*
X180823809Y-89209523D01*
X108237142Y-118457142D02*
X108189523Y-118504761D01*
X108046666Y-118552380D01*
X107951428Y-118552380D01*
X107808571Y-118504761D01*
X107713333Y-118409523D01*
X107665714Y-118314285D01*
X107618095Y-118123809D01*
X107618095Y-117980952D01*
X107665714Y-117790476D01*
X107713333Y-117695238D01*
X107808571Y-117600000D01*
X107951428Y-117552380D01*
X108046666Y-117552380D01*
X108189523Y-117600000D01*
X108237142Y-117647619D01*
X108618095Y-117647619D02*
X108665714Y-117600000D01*
X108760952Y-117552380D01*
X108999047Y-117552380D01*
X109094285Y-117600000D01*
X109141904Y-117647619D01*
X109189523Y-117742857D01*
X109189523Y-117838095D01*
X109141904Y-117980952D01*
X108570476Y-118552380D01*
X109189523Y-118552380D01*
X109522857Y-117552380D02*
X110141904Y-117552380D01*
X109808571Y-117933333D01*
X109951428Y-117933333D01*
X110046666Y-117980952D01*
X110094285Y-118028571D01*
X110141904Y-118123809D01*
X110141904Y-118361904D01*
X110094285Y-118457142D01*
X110046666Y-118504761D01*
X109951428Y-118552380D01*
X109665714Y-118552380D01*
X109570476Y-118504761D01*
X109522857Y-118457142D01*
X140357142Y-109142857D02*
X140404761Y-109190476D01*
X140452380Y-109333333D01*
X140452380Y-109428571D01*
X140404761Y-109571428D01*
X140309523Y-109666666D01*
X140214285Y-109714285D01*
X140023809Y-109761904D01*
X139880952Y-109761904D01*
X139690476Y-109714285D01*
X139595238Y-109666666D01*
X139500000Y-109571428D01*
X139452380Y-109428571D01*
X139452380Y-109333333D01*
X139500000Y-109190476D01*
X139547619Y-109142857D01*
X140452380Y-108190476D02*
X140452380Y-108761904D01*
X140452380Y-108476190D02*
X139452380Y-108476190D01*
X139595238Y-108571428D01*
X139690476Y-108666666D01*
X139738095Y-108761904D01*
X139547619Y-107809523D02*
X139500000Y-107761904D01*
X139452380Y-107666666D01*
X139452380Y-107428571D01*
X139500000Y-107333333D01*
X139547619Y-107285714D01*
X139642857Y-107238095D01*
X139738095Y-107238095D01*
X139880952Y-107285714D01*
X140452380Y-107857142D01*
X140452380Y-107238095D01*
X107266666Y-76952380D02*
X107266666Y-77666666D01*
X107219047Y-77809523D01*
X107123809Y-77904761D01*
X106980952Y-77952380D01*
X106885714Y-77952380D01*
X108171428Y-77285714D02*
X108171428Y-77952380D01*
X107933333Y-76904761D02*
X107695238Y-77619047D01*
X108314285Y-77619047D01*
X107363095Y-104987380D02*
X107363095Y-105796904D01*
X107410714Y-105892142D01*
X107458333Y-105939761D01*
X107553571Y-105987380D01*
X107744047Y-105987380D01*
X107839285Y-105939761D01*
X107886904Y-105892142D01*
X107934523Y-105796904D01*
X107934523Y-104987380D01*
X108315476Y-104987380D02*
X108934523Y-104987380D01*
X108601190Y-105368333D01*
X108744047Y-105368333D01*
X108839285Y-105415952D01*
X108886904Y-105463571D01*
X108934523Y-105558809D01*
X108934523Y-105796904D01*
X108886904Y-105892142D01*
X108839285Y-105939761D01*
X108744047Y-105987380D01*
X108458333Y-105987380D01*
X108363095Y-105939761D01*
X108315476Y-105892142D01*
X144657142Y-108166666D02*
X144704761Y-108214285D01*
X144752380Y-108357142D01*
X144752380Y-108452380D01*
X144704761Y-108595238D01*
X144609523Y-108690476D01*
X144514285Y-108738095D01*
X144323809Y-108785714D01*
X144180952Y-108785714D01*
X143990476Y-108738095D01*
X143895238Y-108690476D01*
X143800000Y-108595238D01*
X143752380Y-108452380D01*
X143752380Y-108357142D01*
X143800000Y-108214285D01*
X143847619Y-108166666D01*
X144752380Y-107214285D02*
X144752380Y-107785714D01*
X144752380Y-107500000D02*
X143752380Y-107500000D01*
X143895238Y-107595238D01*
X143990476Y-107690476D01*
X144038095Y-107785714D01*
X139557142Y-78542857D02*
X139604761Y-78590476D01*
X139652380Y-78733333D01*
X139652380Y-78828571D01*
X139604761Y-78971428D01*
X139509523Y-79066666D01*
X139414285Y-79114285D01*
X139223809Y-79161904D01*
X139080952Y-79161904D01*
X138890476Y-79114285D01*
X138795238Y-79066666D01*
X138700000Y-78971428D01*
X138652380Y-78828571D01*
X138652380Y-78733333D01*
X138700000Y-78590476D01*
X138747619Y-78542857D01*
X139652380Y-77590476D02*
X139652380Y-78161904D01*
X139652380Y-77876190D02*
X138652380Y-77876190D01*
X138795238Y-77971428D01*
X138890476Y-78066666D01*
X138938095Y-78161904D01*
X139652380Y-76638095D02*
X139652380Y-77209523D01*
X139652380Y-76923809D02*
X138652380Y-76923809D01*
X138795238Y-77019047D01*
X138890476Y-77114285D01*
X138938095Y-77209523D01*
X144757380Y-73548333D02*
X145471666Y-73548333D01*
X145614523Y-73595952D01*
X145709761Y-73691190D01*
X145757380Y-73834047D01*
X145757380Y-73929285D01*
X144757380Y-73167380D02*
X144757380Y-72548333D01*
X145138333Y-72881666D01*
X145138333Y-72738809D01*
X145185952Y-72643571D01*
X145233571Y-72595952D01*
X145328809Y-72548333D01*
X145566904Y-72548333D01*
X145662142Y-72595952D01*
X145709761Y-72643571D01*
X145757380Y-72738809D01*
X145757380Y-73024523D01*
X145709761Y-73119761D01*
X145662142Y-73167380D01*
X131822380Y-73133333D02*
X132536666Y-73133333D01*
X132679523Y-73180952D01*
X132774761Y-73276190D01*
X132822380Y-73419047D01*
X132822380Y-73514285D01*
X131822380Y-72752380D02*
X131822380Y-72085714D01*
X132822380Y-72514285D01*
X179552380Y-86042857D02*
X179076190Y-86376190D01*
X179552380Y-86614285D02*
X178552380Y-86614285D01*
X178552380Y-86233333D01*
X178600000Y-86138095D01*
X178647619Y-86090476D01*
X178742857Y-86042857D01*
X178885714Y-86042857D01*
X178980952Y-86090476D01*
X179028571Y-86138095D01*
X179076190Y-86233333D01*
X179076190Y-86614285D01*
X179552380Y-85090476D02*
X179552380Y-85661904D01*
X179552380Y-85376190D02*
X178552380Y-85376190D01*
X178695238Y-85471428D01*
X178790476Y-85566666D01*
X178838095Y-85661904D01*
X178552380Y-84471428D02*
X178552380Y-84376190D01*
X178600000Y-84280952D01*
X178647619Y-84233333D01*
X178742857Y-84185714D01*
X178933333Y-84138095D01*
X179171428Y-84138095D01*
X179361904Y-84185714D01*
X179457142Y-84233333D01*
X179504761Y-84280952D01*
X179552380Y-84376190D01*
X179552380Y-84471428D01*
X179504761Y-84566666D01*
X179457142Y-84614285D01*
X179361904Y-84661904D01*
X179171428Y-84709523D01*
X178933333Y-84709523D01*
X178742857Y-84661904D01*
X178647619Y-84614285D01*
X178600000Y-84566666D01*
X178552380Y-84471428D01*
D12*
X154155476Y-119974523D02*
X154155476Y-118704523D01*
X155485952Y-119853571D02*
X155425476Y-119914047D01*
X155244047Y-119974523D01*
X155123095Y-119974523D01*
X154941666Y-119914047D01*
X154820714Y-119793095D01*
X154760238Y-119672142D01*
X154699761Y-119430238D01*
X154699761Y-119248809D01*
X154760238Y-119006904D01*
X154820714Y-118885952D01*
X154941666Y-118765000D01*
X155123095Y-118704523D01*
X155244047Y-118704523D01*
X155425476Y-118765000D01*
X155485952Y-118825476D01*
X156695476Y-119974523D02*
X155969761Y-119974523D01*
X156332619Y-119974523D02*
X156332619Y-118704523D01*
X156211666Y-118885952D01*
X156090714Y-119006904D01*
X155969761Y-119067380D01*
X157784047Y-119127857D02*
X157784047Y-119974523D01*
X157481666Y-118644047D02*
X157179285Y-119551190D01*
X157965476Y-119551190D01*
D11*
X115257142Y-111342857D02*
X115304761Y-111390476D01*
X115352380Y-111533333D01*
X115352380Y-111628571D01*
X115304761Y-111771428D01*
X115209523Y-111866666D01*
X115114285Y-111914285D01*
X114923809Y-111961904D01*
X114780952Y-111961904D01*
X114590476Y-111914285D01*
X114495238Y-111866666D01*
X114400000Y-111771428D01*
X114352380Y-111628571D01*
X114352380Y-111533333D01*
X114400000Y-111390476D01*
X114447619Y-111342857D01*
X115352380Y-110390476D02*
X115352380Y-110961904D01*
X115352380Y-110676190D02*
X114352380Y-110676190D01*
X114495238Y-110771428D01*
X114590476Y-110866666D01*
X114638095Y-110961904D01*
X114685714Y-109533333D02*
X115352380Y-109533333D01*
X114304761Y-109771428D02*
X115019047Y-110009523D01*
X115019047Y-109390476D01*
D13*
X172052380Y-107283904D02*
X172861904Y-107283904D01*
X172957142Y-107236285D01*
X173004761Y-107188666D01*
X173052380Y-107093428D01*
X173052380Y-106902952D01*
X173004761Y-106807714D01*
X172957142Y-106760095D01*
X172861904Y-106712476D01*
X172052380Y-106712476D01*
X172385714Y-105807714D02*
X173052380Y-105807714D01*
X172004761Y-106045809D02*
X172719047Y-106283904D01*
X172719047Y-105664857D01*
D11*
X157852380Y-78233333D02*
X158566666Y-78233333D01*
X158709523Y-78280952D01*
X158804761Y-78376190D01*
X158852380Y-78519047D01*
X158852380Y-78614285D01*
X158852380Y-77757142D02*
X157852380Y-77757142D01*
X157852380Y-77376190D01*
X157900000Y-77280952D01*
X157947619Y-77233333D01*
X158042857Y-77185714D01*
X158185714Y-77185714D01*
X158280952Y-77233333D01*
X158328571Y-77280952D01*
X158376190Y-77376190D01*
X158376190Y-77757142D01*
X157947619Y-76804761D02*
X157900000Y-76757142D01*
X157852380Y-76661904D01*
X157852380Y-76423809D01*
X157900000Y-76328571D01*
X157947619Y-76280952D01*
X158042857Y-76233333D01*
X158138095Y-76233333D01*
X158280952Y-76280952D01*
X158852380Y-76852380D01*
X158852380Y-76233333D01*
X160257142Y-95857142D02*
X160209523Y-95904761D01*
X160066666Y-95952380D01*
X159971428Y-95952380D01*
X159828571Y-95904761D01*
X159733333Y-95809523D01*
X159685714Y-95714285D01*
X159638095Y-95523809D01*
X159638095Y-95380952D01*
X159685714Y-95190476D01*
X159733333Y-95095238D01*
X159828571Y-95000000D01*
X159971428Y-94952380D01*
X160066666Y-94952380D01*
X160209523Y-95000000D01*
X160257142Y-95047619D01*
X160638095Y-95047619D02*
X160685714Y-95000000D01*
X160780952Y-94952380D01*
X161019047Y-94952380D01*
X161114285Y-95000000D01*
X161161904Y-95047619D01*
X161209523Y-95142857D01*
X161209523Y-95238095D01*
X161161904Y-95380952D01*
X160590476Y-95952380D01*
X161209523Y-95952380D01*
X161542857Y-94952380D02*
X162209523Y-94952380D01*
X161780952Y-95952380D01*
X157982380Y-73609523D02*
X158696666Y-73609523D01*
X158839523Y-73657142D01*
X158934761Y-73752380D01*
X158982380Y-73895238D01*
X158982380Y-73990476D01*
X158982380Y-72609523D02*
X158982380Y-73180952D01*
X158982380Y-72895238D02*
X157982380Y-72895238D01*
X158125238Y-72990476D01*
X158220476Y-73085714D01*
X158268095Y-73180952D01*
X158982380Y-71657142D02*
X158982380Y-72228571D01*
X158982380Y-71942857D02*
X157982380Y-71942857D01*
X158125238Y-72038095D01*
X158220476Y-72133333D01*
X158268095Y-72228571D01*
X145957142Y-108166666D02*
X146004761Y-108214285D01*
X146052380Y-108357142D01*
X146052380Y-108452380D01*
X146004761Y-108595238D01*
X145909523Y-108690476D01*
X145814285Y-108738095D01*
X145623809Y-108785714D01*
X145480952Y-108785714D01*
X145290476Y-108738095D01*
X145195238Y-108690476D01*
X145100000Y-108595238D01*
X145052380Y-108452380D01*
X145052380Y-108357142D01*
X145100000Y-108214285D01*
X145147619Y-108166666D01*
X145052380Y-107309523D02*
X145052380Y-107500000D01*
X145100000Y-107595238D01*
X145147619Y-107642857D01*
X145290476Y-107738095D01*
X145480952Y-107785714D01*
X145861904Y-107785714D01*
X145957142Y-107738095D01*
X146004761Y-107690476D01*
X146052380Y-107595238D01*
X146052380Y-107404761D01*
X146004761Y-107309523D01*
X145957142Y-107261904D01*
X145861904Y-107214285D01*
X145623809Y-107214285D01*
X145528571Y-107261904D01*
X145480952Y-107309523D01*
X145433333Y-107404761D01*
X145433333Y-107595238D01*
X145480952Y-107690476D01*
X145528571Y-107738095D01*
X145623809Y-107785714D01*
X164057142Y-118257142D02*
X164009523Y-118304761D01*
X163866666Y-118352380D01*
X163771428Y-118352380D01*
X163628571Y-118304761D01*
X163533333Y-118209523D01*
X163485714Y-118114285D01*
X163438095Y-117923809D01*
X163438095Y-117780952D01*
X163485714Y-117590476D01*
X163533333Y-117495238D01*
X163628571Y-117400000D01*
X163771428Y-117352380D01*
X163866666Y-117352380D01*
X164009523Y-117400000D01*
X164057142Y-117447619D01*
X164961904Y-117352380D02*
X164485714Y-117352380D01*
X164438095Y-117828571D01*
X164485714Y-117780952D01*
X164580952Y-117733333D01*
X164819047Y-117733333D01*
X164914285Y-117780952D01*
X164961904Y-117828571D01*
X165009523Y-117923809D01*
X165009523Y-118161904D01*
X164961904Y-118257142D01*
X164914285Y-118304761D01*
X164819047Y-118352380D01*
X164580952Y-118352380D01*
X164485714Y-118304761D01*
X164438095Y-118257142D01*
X165961904Y-118352380D02*
X165390476Y-118352380D01*
X165676190Y-118352380D02*
X165676190Y-117352380D01*
X165580952Y-117495238D01*
X165485714Y-117590476D01*
X165390476Y-117638095D01*
X163952380Y-112266666D02*
X163476190Y-112600000D01*
X163952380Y-112838095D02*
X162952380Y-112838095D01*
X162952380Y-112457142D01*
X163000000Y-112361904D01*
X163047619Y-112314285D01*
X163142857Y-112266666D01*
X163285714Y-112266666D01*
X163380952Y-112314285D01*
X163428571Y-112361904D01*
X163476190Y-112457142D01*
X163476190Y-112838095D01*
X162952380Y-111361904D02*
X162952380Y-111838095D01*
X163428571Y-111885714D01*
X163380952Y-111838095D01*
X163333333Y-111742857D01*
X163333333Y-111504761D01*
X163380952Y-111409523D01*
X163428571Y-111361904D01*
X163523809Y-111314285D01*
X163761904Y-111314285D01*
X163857142Y-111361904D01*
X163904761Y-111409523D01*
X163952380Y-111504761D01*
X163952380Y-111742857D01*
X163904761Y-111838095D01*
X163857142Y-111885714D01*
X98597380Y-108833333D02*
X99311666Y-108833333D01*
X99454523Y-108880952D01*
X99549761Y-108976190D01*
X99597380Y-109119047D01*
X99597380Y-109214285D01*
X99597380Y-108357142D02*
X98597380Y-108357142D01*
X98597380Y-107976190D01*
X98645000Y-107880952D01*
X98692619Y-107833333D01*
X98787857Y-107785714D01*
X98930714Y-107785714D01*
X99025952Y-107833333D01*
X99073571Y-107880952D01*
X99121190Y-107976190D01*
X99121190Y-108357142D01*
X98597380Y-106880952D02*
X98597380Y-107357142D01*
X99073571Y-107404761D01*
X99025952Y-107357142D01*
X98978333Y-107261904D01*
X98978333Y-107023809D01*
X99025952Y-106928571D01*
X99073571Y-106880952D01*
X99168809Y-106833333D01*
X99406904Y-106833333D01*
X99502142Y-106880952D01*
X99549761Y-106928571D01*
X99597380Y-107023809D01*
X99597380Y-107261904D01*
X99549761Y-107357142D01*
X99502142Y-107404761D01*
D12*
X105555476Y-82174523D02*
X105555476Y-80904523D01*
X106885952Y-82053571D02*
X106825476Y-82114047D01*
X106644047Y-82174523D01*
X106523095Y-82174523D01*
X106341666Y-82114047D01*
X106220714Y-81993095D01*
X106160238Y-81872142D01*
X106099761Y-81630238D01*
X106099761Y-81448809D01*
X106160238Y-81206904D01*
X106220714Y-81085952D01*
X106341666Y-80965000D01*
X106523095Y-80904523D01*
X106644047Y-80904523D01*
X106825476Y-80965000D01*
X106885952Y-81025476D01*
X108095476Y-82174523D02*
X107369761Y-82174523D01*
X107732619Y-82174523D02*
X107732619Y-80904523D01*
X107611666Y-81085952D01*
X107490714Y-81206904D01*
X107369761Y-81267380D01*
X109305000Y-82174523D02*
X108579285Y-82174523D01*
X108942142Y-82174523D02*
X108942142Y-80904523D01*
X108821190Y-81085952D01*
X108700238Y-81206904D01*
X108579285Y-81267380D01*
D11*
X134557142Y-78666666D02*
X134604761Y-78714285D01*
X134652380Y-78857142D01*
X134652380Y-78952380D01*
X134604761Y-79095238D01*
X134509523Y-79190476D01*
X134414285Y-79238095D01*
X134223809Y-79285714D01*
X134080952Y-79285714D01*
X133890476Y-79238095D01*
X133795238Y-79190476D01*
X133700000Y-79095238D01*
X133652380Y-78952380D01*
X133652380Y-78857142D01*
X133700000Y-78714285D01*
X133747619Y-78666666D01*
X134652380Y-78190476D02*
X134652380Y-78000000D01*
X134604761Y-77904761D01*
X134557142Y-77857142D01*
X134414285Y-77761904D01*
X134223809Y-77714285D01*
X133842857Y-77714285D01*
X133747619Y-77761904D01*
X133700000Y-77809523D01*
X133652380Y-77904761D01*
X133652380Y-78095238D01*
X133700000Y-78190476D01*
X133747619Y-78238095D01*
X133842857Y-78285714D01*
X134080952Y-78285714D01*
X134176190Y-78238095D01*
X134223809Y-78190476D01*
X134271428Y-78095238D01*
X134271428Y-77904761D01*
X134223809Y-77809523D01*
X134176190Y-77761904D01*
X134080952Y-77714285D01*
X117023809Y-95476190D02*
X117023809Y-95952380D01*
X116690476Y-94952380D02*
X117023809Y-95476190D01*
X117357142Y-94952380D01*
X118214285Y-95952380D02*
X117642857Y-95952380D01*
X117928571Y-95952380D02*
X117928571Y-94952380D01*
X117833333Y-95095238D01*
X117738095Y-95190476D01*
X117642857Y-95238095D01*
X123782380Y-115966666D02*
X123782380Y-116442857D01*
X122782380Y-116442857D01*
X123782380Y-115109523D02*
X123782380Y-115680952D01*
X123782380Y-115395238D02*
X122782380Y-115395238D01*
X122925238Y-115490476D01*
X123020476Y-115585714D01*
X123068095Y-115680952D01*
X136877142Y-106166666D02*
X136924761Y-106214285D01*
X136972380Y-106357142D01*
X136972380Y-106452380D01*
X136924761Y-106595238D01*
X136829523Y-106690476D01*
X136734285Y-106738095D01*
X136543809Y-106785714D01*
X136400952Y-106785714D01*
X136210476Y-106738095D01*
X136115238Y-106690476D01*
X136020000Y-106595238D01*
X135972380Y-106452380D01*
X135972380Y-106357142D01*
X136020000Y-106214285D01*
X136067619Y-106166666D01*
X136400952Y-105595238D02*
X136353333Y-105690476D01*
X136305714Y-105738095D01*
X136210476Y-105785714D01*
X136162857Y-105785714D01*
X136067619Y-105738095D01*
X136020000Y-105690476D01*
X135972380Y-105595238D01*
X135972380Y-105404761D01*
X136020000Y-105309523D01*
X136067619Y-105261904D01*
X136162857Y-105214285D01*
X136210476Y-105214285D01*
X136305714Y-105261904D01*
X136353333Y-105309523D01*
X136400952Y-105404761D01*
X136400952Y-105595238D01*
X136448571Y-105690476D01*
X136496190Y-105738095D01*
X136591428Y-105785714D01*
X136781904Y-105785714D01*
X136877142Y-105738095D01*
X136924761Y-105690476D01*
X136972380Y-105595238D01*
X136972380Y-105404761D01*
X136924761Y-105309523D01*
X136877142Y-105261904D01*
X136781904Y-105214285D01*
X136591428Y-105214285D01*
X136496190Y-105261904D01*
X136448571Y-105309523D01*
X136400952Y-105404761D01*
X116057142Y-79897142D02*
X116009523Y-79944761D01*
X115866666Y-79992380D01*
X115771428Y-79992380D01*
X115628571Y-79944761D01*
X115533333Y-79849523D01*
X115485714Y-79754285D01*
X115438095Y-79563809D01*
X115438095Y-79420952D01*
X115485714Y-79230476D01*
X115533333Y-79135238D01*
X115628571Y-79040000D01*
X115771428Y-78992380D01*
X115866666Y-78992380D01*
X116009523Y-79040000D01*
X116057142Y-79087619D01*
X116914285Y-79325714D02*
X116914285Y-79992380D01*
X116676190Y-78944761D02*
X116438095Y-79659047D01*
X117057142Y-79659047D01*
X117580952Y-79420952D02*
X117485714Y-79373333D01*
X117438095Y-79325714D01*
X117390476Y-79230476D01*
X117390476Y-79182857D01*
X117438095Y-79087619D01*
X117485714Y-79040000D01*
X117580952Y-78992380D01*
X117771428Y-78992380D01*
X117866666Y-79040000D01*
X117914285Y-79087619D01*
X117961904Y-79182857D01*
X117961904Y-79230476D01*
X117914285Y-79325714D01*
X117866666Y-79373333D01*
X117771428Y-79420952D01*
X117580952Y-79420952D01*
X117485714Y-79468571D01*
X117438095Y-79516190D01*
X117390476Y-79611428D01*
X117390476Y-79801904D01*
X117438095Y-79897142D01*
X117485714Y-79944761D01*
X117580952Y-79992380D01*
X117771428Y-79992380D01*
X117866666Y-79944761D01*
X117914285Y-79897142D01*
X117961904Y-79801904D01*
X117961904Y-79611428D01*
X117914285Y-79516190D01*
X117866666Y-79468571D01*
X117771428Y-79420952D01*
X182257142Y-117057142D02*
X182209523Y-117104761D01*
X182066666Y-117152380D01*
X181971428Y-117152380D01*
X181828571Y-117104761D01*
X181733333Y-117009523D01*
X181685714Y-116914285D01*
X181638095Y-116723809D01*
X181638095Y-116580952D01*
X181685714Y-116390476D01*
X181733333Y-116295238D01*
X181828571Y-116200000D01*
X181971428Y-116152380D01*
X182066666Y-116152380D01*
X182209523Y-116200000D01*
X182257142Y-116247619D01*
X183161904Y-116152380D02*
X182685714Y-116152380D01*
X182638095Y-116628571D01*
X182685714Y-116580952D01*
X182780952Y-116533333D01*
X183019047Y-116533333D01*
X183114285Y-116580952D01*
X183161904Y-116628571D01*
X183209523Y-116723809D01*
X183209523Y-116961904D01*
X183161904Y-117057142D01*
X183114285Y-117104761D01*
X183019047Y-117152380D01*
X182780952Y-117152380D01*
X182685714Y-117104761D01*
X182638095Y-117057142D01*
X183542857Y-116152380D02*
X184161904Y-116152380D01*
X183828571Y-116533333D01*
X183971428Y-116533333D01*
X184066666Y-116580952D01*
X184114285Y-116628571D01*
X184161904Y-116723809D01*
X184161904Y-116961904D01*
X184114285Y-117057142D01*
X184066666Y-117104761D01*
X183971428Y-117152380D01*
X183685714Y-117152380D01*
X183590476Y-117104761D01*
X183542857Y-117057142D01*
X164266666Y-97852380D02*
X164266666Y-98566666D01*
X164219047Y-98709523D01*
X164123809Y-98804761D01*
X163980952Y-98852380D01*
X163885714Y-98852380D01*
X164742857Y-98852380D02*
X164742857Y-97852380D01*
X165123809Y-97852380D01*
X165219047Y-97900000D01*
X165266666Y-97947619D01*
X165314285Y-98042857D01*
X165314285Y-98185714D01*
X165266666Y-98280952D01*
X165219047Y-98328571D01*
X165123809Y-98376190D01*
X164742857Y-98376190D01*
X166266666Y-98852380D02*
X165695238Y-98852380D01*
X165980952Y-98852380D02*
X165980952Y-97852380D01*
X165885714Y-97995238D01*
X165790476Y-98090476D01*
X165695238Y-98138095D01*
D12*
X114760238Y-119274523D02*
X114760238Y-118004523D01*
X116090714Y-119153571D02*
X116030238Y-119214047D01*
X115848809Y-119274523D01*
X115727857Y-119274523D01*
X115546428Y-119214047D01*
X115425476Y-119093095D01*
X115365000Y-118972142D01*
X115304523Y-118730238D01*
X115304523Y-118548809D01*
X115365000Y-118306904D01*
X115425476Y-118185952D01*
X115546428Y-118065000D01*
X115727857Y-118004523D01*
X115848809Y-118004523D01*
X116030238Y-118065000D01*
X116090714Y-118125476D01*
X116574523Y-118125476D02*
X116635000Y-118065000D01*
X116755952Y-118004523D01*
X117058333Y-118004523D01*
X117179285Y-118065000D01*
X117239761Y-118125476D01*
X117300238Y-118246428D01*
X117300238Y-118367380D01*
X117239761Y-118548809D01*
X116514047Y-119274523D01*
X117300238Y-119274523D01*
D11*
X109952380Y-109342857D02*
X109476190Y-109676190D01*
X109952380Y-109914285D02*
X108952380Y-109914285D01*
X108952380Y-109533333D01*
X109000000Y-109438095D01*
X109047619Y-109390476D01*
X109142857Y-109342857D01*
X109285714Y-109342857D01*
X109380952Y-109390476D01*
X109428571Y-109438095D01*
X109476190Y-109533333D01*
X109476190Y-109914285D01*
X109952380Y-108390476D02*
X109952380Y-108961904D01*
X109952380Y-108676190D02*
X108952380Y-108676190D01*
X109095238Y-108771428D01*
X109190476Y-108866666D01*
X109238095Y-108961904D01*
X109285714Y-107533333D02*
X109952380Y-107533333D01*
X108904761Y-107771428D02*
X109619047Y-108009523D01*
X109619047Y-107390476D01*
X99957142Y-85257142D02*
X99909523Y-85304761D01*
X99766666Y-85352380D01*
X99671428Y-85352380D01*
X99528571Y-85304761D01*
X99433333Y-85209523D01*
X99385714Y-85114285D01*
X99338095Y-84923809D01*
X99338095Y-84780952D01*
X99385714Y-84590476D01*
X99433333Y-84495238D01*
X99528571Y-84400000D01*
X99671428Y-84352380D01*
X99766666Y-84352380D01*
X99909523Y-84400000D01*
X99957142Y-84447619D01*
X100290476Y-84352380D02*
X100909523Y-84352380D01*
X100576190Y-84733333D01*
X100719047Y-84733333D01*
X100814285Y-84780952D01*
X100861904Y-84828571D01*
X100909523Y-84923809D01*
X100909523Y-85161904D01*
X100861904Y-85257142D01*
X100814285Y-85304761D01*
X100719047Y-85352380D01*
X100433333Y-85352380D01*
X100338095Y-85304761D01*
X100290476Y-85257142D01*
X101528571Y-84352380D02*
X101623809Y-84352380D01*
X101719047Y-84400000D01*
X101766666Y-84447619D01*
X101814285Y-84542857D01*
X101861904Y-84733333D01*
X101861904Y-84971428D01*
X101814285Y-85161904D01*
X101766666Y-85257142D01*
X101719047Y-85304761D01*
X101623809Y-85352380D01*
X101528571Y-85352380D01*
X101433333Y-85304761D01*
X101385714Y-85257142D01*
X101338095Y-85161904D01*
X101290476Y-84971428D01*
X101290476Y-84733333D01*
X101338095Y-84542857D01*
X101385714Y-84447619D01*
X101433333Y-84400000D01*
X101528571Y-84352380D01*
X124557142Y-121157142D02*
X124509523Y-121204761D01*
X124366666Y-121252380D01*
X124271428Y-121252380D01*
X124128571Y-121204761D01*
X124033333Y-121109523D01*
X123985714Y-121014285D01*
X123938095Y-120823809D01*
X123938095Y-120680952D01*
X123985714Y-120490476D01*
X124033333Y-120395238D01*
X124128571Y-120300000D01*
X124271428Y-120252380D01*
X124366666Y-120252380D01*
X124509523Y-120300000D01*
X124557142Y-120347619D01*
X125509523Y-121252380D02*
X124938095Y-121252380D01*
X125223809Y-121252380D02*
X125223809Y-120252380D01*
X125128571Y-120395238D01*
X125033333Y-120490476D01*
X124938095Y-120538095D01*
X126366666Y-120252380D02*
X126176190Y-120252380D01*
X126080952Y-120300000D01*
X126033333Y-120347619D01*
X125938095Y-120490476D01*
X125890476Y-120680952D01*
X125890476Y-121061904D01*
X125938095Y-121157142D01*
X125985714Y-121204761D01*
X126080952Y-121252380D01*
X126271428Y-121252380D01*
X126366666Y-121204761D01*
X126414285Y-121157142D01*
X126461904Y-121061904D01*
X126461904Y-120823809D01*
X126414285Y-120728571D01*
X126366666Y-120680952D01*
X126271428Y-120633333D01*
X126080952Y-120633333D01*
X125985714Y-120680952D01*
X125938095Y-120728571D01*
X125890476Y-120823809D01*
X181252380Y-92366666D02*
X180776190Y-92700000D01*
X181252380Y-92938095D02*
X180252380Y-92938095D01*
X180252380Y-92557142D01*
X180300000Y-92461904D01*
X180347619Y-92414285D01*
X180442857Y-92366666D01*
X180585714Y-92366666D01*
X180680952Y-92414285D01*
X180728571Y-92461904D01*
X180776190Y-92557142D01*
X180776190Y-92938095D01*
X180680952Y-91795238D02*
X180633333Y-91890476D01*
X180585714Y-91938095D01*
X180490476Y-91985714D01*
X180442857Y-91985714D01*
X180347619Y-91938095D01*
X180300000Y-91890476D01*
X180252380Y-91795238D01*
X180252380Y-91604761D01*
X180300000Y-91509523D01*
X180347619Y-91461904D01*
X180442857Y-91414285D01*
X180490476Y-91414285D01*
X180585714Y-91461904D01*
X180633333Y-91509523D01*
X180680952Y-91604761D01*
X180680952Y-91795238D01*
X180728571Y-91890476D01*
X180776190Y-91938095D01*
X180871428Y-91985714D01*
X181061904Y-91985714D01*
X181157142Y-91938095D01*
X181204761Y-91890476D01*
X181252380Y-91795238D01*
X181252380Y-91604761D01*
X181204761Y-91509523D01*
X181157142Y-91461904D01*
X181061904Y-91414285D01*
X180871428Y-91414285D01*
X180776190Y-91461904D01*
X180728571Y-91509523D01*
X180680952Y-91604761D01*
X140666666Y-121052380D02*
X140666666Y-121766666D01*
X140619047Y-121909523D01*
X140523809Y-122004761D01*
X140380952Y-122052380D01*
X140285714Y-122052380D01*
X141095238Y-121147619D02*
X141142857Y-121100000D01*
X141238095Y-121052380D01*
X141476190Y-121052380D01*
X141571428Y-121100000D01*
X141619047Y-121147619D01*
X141666666Y-121242857D01*
X141666666Y-121338095D01*
X141619047Y-121480952D01*
X141047619Y-122052380D01*
X141666666Y-122052380D01*
X127684380Y-116661123D02*
X127684380Y-117179219D01*
X127714857Y-117240171D01*
X127745333Y-117270647D01*
X127806285Y-117301123D01*
X127928190Y-117301123D01*
X127989142Y-117270647D01*
X128019619Y-117240171D01*
X128050095Y-117179219D01*
X128050095Y-116661123D01*
X128690095Y-117301123D02*
X128324380Y-117301123D01*
X128507238Y-117301123D02*
X128507238Y-116661123D01*
X128446285Y-116752552D01*
X128385333Y-116813504D01*
X128324380Y-116843980D01*
X109357142Y-123042857D02*
X109404761Y-123090476D01*
X109452380Y-123233333D01*
X109452380Y-123328571D01*
X109404761Y-123471428D01*
X109309523Y-123566666D01*
X109214285Y-123614285D01*
X109023809Y-123661904D01*
X108880952Y-123661904D01*
X108690476Y-123614285D01*
X108595238Y-123566666D01*
X108500000Y-123471428D01*
X108452380Y-123328571D01*
X108452380Y-123233333D01*
X108500000Y-123090476D01*
X108547619Y-123042857D01*
X108547619Y-122661904D02*
X108500000Y-122614285D01*
X108452380Y-122519047D01*
X108452380Y-122280952D01*
X108500000Y-122185714D01*
X108547619Y-122138095D01*
X108642857Y-122090476D01*
X108738095Y-122090476D01*
X108880952Y-122138095D01*
X109452380Y-122709523D01*
X109452380Y-122090476D01*
X108547619Y-121709523D02*
X108500000Y-121661904D01*
X108452380Y-121566666D01*
X108452380Y-121328571D01*
X108500000Y-121233333D01*
X108547619Y-121185714D01*
X108642857Y-121138095D01*
X108738095Y-121138095D01*
X108880952Y-121185714D01*
X109452380Y-121757142D01*
X109452380Y-121138095D01*
X131357142Y-110952380D02*
X131023809Y-110476190D01*
X130785714Y-110952380D02*
X130785714Y-109952380D01*
X131166666Y-109952380D01*
X131261904Y-110000000D01*
X131309523Y-110047619D01*
X131357142Y-110142857D01*
X131357142Y-110285714D01*
X131309523Y-110380952D01*
X131261904Y-110428571D01*
X131166666Y-110476190D01*
X130785714Y-110476190D01*
X132309523Y-110952380D02*
X131738095Y-110952380D01*
X132023809Y-110952380D02*
X132023809Y-109952380D01*
X131928571Y-110095238D01*
X131833333Y-110190476D01*
X131738095Y-110238095D01*
X133214285Y-109952380D02*
X132738095Y-109952380D01*
X132690476Y-110428571D01*
X132738095Y-110380952D01*
X132833333Y-110333333D01*
X133071428Y-110333333D01*
X133166666Y-110380952D01*
X133214285Y-110428571D01*
X133261904Y-110523809D01*
X133261904Y-110761904D01*
X133214285Y-110857142D01*
X133166666Y-110904761D01*
X133071428Y-110952380D01*
X132833333Y-110952380D01*
X132738095Y-110904761D01*
X132690476Y-110857142D01*
X124757142Y-114757142D02*
X124709523Y-114804761D01*
X124566666Y-114852380D01*
X124471428Y-114852380D01*
X124328571Y-114804761D01*
X124233333Y-114709523D01*
X124185714Y-114614285D01*
X124138095Y-114423809D01*
X124138095Y-114280952D01*
X124185714Y-114090476D01*
X124233333Y-113995238D01*
X124328571Y-113900000D01*
X124471428Y-113852380D01*
X124566666Y-113852380D01*
X124709523Y-113900000D01*
X124757142Y-113947619D01*
X125138095Y-113947619D02*
X125185714Y-113900000D01*
X125280952Y-113852380D01*
X125519047Y-113852380D01*
X125614285Y-113900000D01*
X125661904Y-113947619D01*
X125709523Y-114042857D01*
X125709523Y-114138095D01*
X125661904Y-114280952D01*
X125090476Y-114852380D01*
X125709523Y-114852380D01*
X126661904Y-114852380D02*
X126090476Y-114852380D01*
X126376190Y-114852380D02*
X126376190Y-113852380D01*
X126280952Y-113995238D01*
X126185714Y-114090476D01*
X126090476Y-114138095D01*
X98652380Y-122333333D02*
X99366666Y-122333333D01*
X99509523Y-122380952D01*
X99604761Y-122476190D01*
X99652380Y-122619047D01*
X99652380Y-122714285D01*
X98652380Y-121428571D02*
X98652380Y-121619047D01*
X98700000Y-121714285D01*
X98747619Y-121761904D01*
X98890476Y-121857142D01*
X99080952Y-121904761D01*
X99461904Y-121904761D01*
X99557142Y-121857142D01*
X99604761Y-121809523D01*
X99652380Y-121714285D01*
X99652380Y-121523809D01*
X99604761Y-121428571D01*
X99557142Y-121380952D01*
X99461904Y-121333333D01*
X99223809Y-121333333D01*
X99128571Y-121380952D01*
X99080952Y-121428571D01*
X99033333Y-121523809D01*
X99033333Y-121714285D01*
X99080952Y-121809523D01*
X99128571Y-121857142D01*
X99223809Y-121904761D01*
X170257142Y-77042857D02*
X170304761Y-77090476D01*
X170352380Y-77233333D01*
X170352380Y-77328571D01*
X170304761Y-77471428D01*
X170209523Y-77566666D01*
X170114285Y-77614285D01*
X169923809Y-77661904D01*
X169780952Y-77661904D01*
X169590476Y-77614285D01*
X169495238Y-77566666D01*
X169400000Y-77471428D01*
X169352380Y-77328571D01*
X169352380Y-77233333D01*
X169400000Y-77090476D01*
X169447619Y-77042857D01*
X169685714Y-76185714D02*
X170352380Y-76185714D01*
X169304761Y-76423809D02*
X170019047Y-76661904D01*
X170019047Y-76042857D01*
X169685714Y-75233333D02*
X170352380Y-75233333D01*
X169304761Y-75471428D02*
X170019047Y-75709523D01*
X170019047Y-75090476D01*
X182257142Y-118357142D02*
X182209523Y-118404761D01*
X182066666Y-118452380D01*
X181971428Y-118452380D01*
X181828571Y-118404761D01*
X181733333Y-118309523D01*
X181685714Y-118214285D01*
X181638095Y-118023809D01*
X181638095Y-117880952D01*
X181685714Y-117690476D01*
X181733333Y-117595238D01*
X181828571Y-117500000D01*
X181971428Y-117452380D01*
X182066666Y-117452380D01*
X182209523Y-117500000D01*
X182257142Y-117547619D01*
X183161904Y-117452380D02*
X182685714Y-117452380D01*
X182638095Y-117928571D01*
X182685714Y-117880952D01*
X182780952Y-117833333D01*
X183019047Y-117833333D01*
X183114285Y-117880952D01*
X183161904Y-117928571D01*
X183209523Y-118023809D01*
X183209523Y-118261904D01*
X183161904Y-118357142D01*
X183114285Y-118404761D01*
X183019047Y-118452380D01*
X182780952Y-118452380D01*
X182685714Y-118404761D01*
X182638095Y-118357142D01*
X183590476Y-117547619D02*
X183638095Y-117500000D01*
X183733333Y-117452380D01*
X183971428Y-117452380D01*
X184066666Y-117500000D01*
X184114285Y-117547619D01*
X184161904Y-117642857D01*
X184161904Y-117738095D01*
X184114285Y-117880952D01*
X183542857Y-118452380D01*
X184161904Y-118452380D01*
X100557142Y-105557142D02*
X100509523Y-105604761D01*
X100366666Y-105652380D01*
X100271428Y-105652380D01*
X100128571Y-105604761D01*
X100033333Y-105509523D01*
X99985714Y-105414285D01*
X99938095Y-105223809D01*
X99938095Y-105080952D01*
X99985714Y-104890476D01*
X100033333Y-104795238D01*
X100128571Y-104700000D01*
X100271428Y-104652380D01*
X100366666Y-104652380D01*
X100509523Y-104700000D01*
X100557142Y-104747619D01*
X100890476Y-104652380D02*
X101509523Y-104652380D01*
X101176190Y-105033333D01*
X101319047Y-105033333D01*
X101414285Y-105080952D01*
X101461904Y-105128571D01*
X101509523Y-105223809D01*
X101509523Y-105461904D01*
X101461904Y-105557142D01*
X101414285Y-105604761D01*
X101319047Y-105652380D01*
X101033333Y-105652380D01*
X100938095Y-105604761D01*
X100890476Y-105557142D01*
X102366666Y-104985714D02*
X102366666Y-105652380D01*
X102128571Y-104604761D02*
X101890476Y-105319047D01*
X102509523Y-105319047D01*
X122857142Y-94127142D02*
X122809523Y-94174761D01*
X122666666Y-94222380D01*
X122571428Y-94222380D01*
X122428571Y-94174761D01*
X122333333Y-94079523D01*
X122285714Y-93984285D01*
X122238095Y-93793809D01*
X122238095Y-93650952D01*
X122285714Y-93460476D01*
X122333333Y-93365238D01*
X122428571Y-93270000D01*
X122571428Y-93222380D01*
X122666666Y-93222380D01*
X122809523Y-93270000D01*
X122857142Y-93317619D01*
X123809523Y-94222380D02*
X123238095Y-94222380D01*
X123523809Y-94222380D02*
X123523809Y-93222380D01*
X123428571Y-93365238D01*
X123333333Y-93460476D01*
X123238095Y-93508095D01*
X124428571Y-93222380D02*
X124523809Y-93222380D01*
X124619047Y-93270000D01*
X124666666Y-93317619D01*
X124714285Y-93412857D01*
X124761904Y-93603333D01*
X124761904Y-93841428D01*
X124714285Y-94031904D01*
X124666666Y-94127142D01*
X124619047Y-94174761D01*
X124523809Y-94222380D01*
X124428571Y-94222380D01*
X124333333Y-94174761D01*
X124285714Y-94127142D01*
X124238095Y-94031904D01*
X124190476Y-93841428D01*
X124190476Y-93603333D01*
X124238095Y-93412857D01*
X124285714Y-93317619D01*
X124333333Y-93270000D01*
X124428571Y-93222380D01*
X100557142Y-104257142D02*
X100509523Y-104304761D01*
X100366666Y-104352380D01*
X100271428Y-104352380D01*
X100128571Y-104304761D01*
X100033333Y-104209523D01*
X99985714Y-104114285D01*
X99938095Y-103923809D01*
X99938095Y-103780952D01*
X99985714Y-103590476D01*
X100033333Y-103495238D01*
X100128571Y-103400000D01*
X100271428Y-103352380D01*
X100366666Y-103352380D01*
X100509523Y-103400000D01*
X100557142Y-103447619D01*
X100890476Y-103352380D02*
X101509523Y-103352380D01*
X101176190Y-103733333D01*
X101319047Y-103733333D01*
X101414285Y-103780952D01*
X101461904Y-103828571D01*
X101509523Y-103923809D01*
X101509523Y-104161904D01*
X101461904Y-104257142D01*
X101414285Y-104304761D01*
X101319047Y-104352380D01*
X101033333Y-104352380D01*
X100938095Y-104304761D01*
X100890476Y-104257142D01*
X102414285Y-103352380D02*
X101938095Y-103352380D01*
X101890476Y-103828571D01*
X101938095Y-103780952D01*
X102033333Y-103733333D01*
X102271428Y-103733333D01*
X102366666Y-103780952D01*
X102414285Y-103828571D01*
X102461904Y-103923809D01*
X102461904Y-104161904D01*
X102414285Y-104257142D01*
X102366666Y-104304761D01*
X102271428Y-104352380D01*
X102033333Y-104352380D01*
X101938095Y-104304761D01*
X101890476Y-104257142D01*
X100957142Y-97027142D02*
X100909523Y-97074761D01*
X100766666Y-97122380D01*
X100671428Y-97122380D01*
X100528571Y-97074761D01*
X100433333Y-96979523D01*
X100385714Y-96884285D01*
X100338095Y-96693809D01*
X100338095Y-96550952D01*
X100385714Y-96360476D01*
X100433333Y-96265238D01*
X100528571Y-96170000D01*
X100671428Y-96122380D01*
X100766666Y-96122380D01*
X100909523Y-96170000D01*
X100957142Y-96217619D01*
X101290476Y-96122380D02*
X101909523Y-96122380D01*
X101576190Y-96503333D01*
X101719047Y-96503333D01*
X101814285Y-96550952D01*
X101861904Y-96598571D01*
X101909523Y-96693809D01*
X101909523Y-96931904D01*
X101861904Y-97027142D01*
X101814285Y-97074761D01*
X101719047Y-97122380D01*
X101433333Y-97122380D01*
X101338095Y-97074761D01*
X101290476Y-97027142D01*
X102242857Y-96122380D02*
X102861904Y-96122380D01*
X102528571Y-96503333D01*
X102671428Y-96503333D01*
X102766666Y-96550952D01*
X102814285Y-96598571D01*
X102861904Y-96693809D01*
X102861904Y-96931904D01*
X102814285Y-97027142D01*
X102766666Y-97074761D01*
X102671428Y-97122380D01*
X102385714Y-97122380D01*
X102290476Y-97074761D01*
X102242857Y-97027142D01*
X130833333Y-120652380D02*
X130357142Y-120652380D01*
X130357142Y-119652380D01*
X131119047Y-119747619D02*
X131166666Y-119700000D01*
X131261904Y-119652380D01*
X131500000Y-119652380D01*
X131595238Y-119700000D01*
X131642857Y-119747619D01*
X131690476Y-119842857D01*
X131690476Y-119938095D01*
X131642857Y-120080952D01*
X131071428Y-120652380D01*
X131690476Y-120652380D01*
D12*
X137155476Y-116274523D02*
X137155476Y-115004523D01*
X138485952Y-116153571D02*
X138425476Y-116214047D01*
X138244047Y-116274523D01*
X138123095Y-116274523D01*
X137941666Y-116214047D01*
X137820714Y-116093095D01*
X137760238Y-115972142D01*
X137699761Y-115730238D01*
X137699761Y-115548809D01*
X137760238Y-115306904D01*
X137820714Y-115185952D01*
X137941666Y-115065000D01*
X138123095Y-115004523D01*
X138244047Y-115004523D01*
X138425476Y-115065000D01*
X138485952Y-115125476D01*
X139695476Y-116274523D02*
X138969761Y-116274523D01*
X139332619Y-116274523D02*
X139332619Y-115004523D01*
X139211666Y-115185952D01*
X139090714Y-115306904D01*
X138969761Y-115367380D01*
X140118809Y-115004523D02*
X140905000Y-115004523D01*
X140481666Y-115488333D01*
X140663095Y-115488333D01*
X140784047Y-115548809D01*
X140844523Y-115609285D01*
X140905000Y-115730238D01*
X140905000Y-116032619D01*
X140844523Y-116153571D01*
X140784047Y-116214047D01*
X140663095Y-116274523D01*
X140300238Y-116274523D01*
X140179285Y-116214047D01*
X140118809Y-116153571D01*
D11*
X163457142Y-76857142D02*
X163409523Y-76904761D01*
X163266666Y-76952380D01*
X163171428Y-76952380D01*
X163028571Y-76904761D01*
X162933333Y-76809523D01*
X162885714Y-76714285D01*
X162838095Y-76523809D01*
X162838095Y-76380952D01*
X162885714Y-76190476D01*
X162933333Y-76095238D01*
X163028571Y-76000000D01*
X163171428Y-75952380D01*
X163266666Y-75952380D01*
X163409523Y-76000000D01*
X163457142Y-76047619D01*
X164314285Y-76285714D02*
X164314285Y-76952380D01*
X164076190Y-75904761D02*
X163838095Y-76619047D01*
X164457142Y-76619047D01*
X165028571Y-75952380D02*
X165123809Y-75952380D01*
X165219047Y-76000000D01*
X165266666Y-76047619D01*
X165314285Y-76142857D01*
X165361904Y-76333333D01*
X165361904Y-76571428D01*
X165314285Y-76761904D01*
X165266666Y-76857142D01*
X165219047Y-76904761D01*
X165123809Y-76952380D01*
X165028571Y-76952380D01*
X164933333Y-76904761D01*
X164885714Y-76857142D01*
X164838095Y-76761904D01*
X164790476Y-76571428D01*
X164790476Y-76333333D01*
X164838095Y-76142857D01*
X164885714Y-76047619D01*
X164933333Y-76000000D01*
X165028571Y-75952380D01*
D12*
X108960238Y-80474523D02*
X108960238Y-79204523D01*
X110290714Y-80353571D02*
X110230238Y-80414047D01*
X110048809Y-80474523D01*
X109927857Y-80474523D01*
X109746428Y-80414047D01*
X109625476Y-80293095D01*
X109565000Y-80172142D01*
X109504523Y-79930238D01*
X109504523Y-79748809D01*
X109565000Y-79506904D01*
X109625476Y-79385952D01*
X109746428Y-79265000D01*
X109927857Y-79204523D01*
X110048809Y-79204523D01*
X110230238Y-79265000D01*
X110290714Y-79325476D01*
X111016428Y-79748809D02*
X110895476Y-79688333D01*
X110835000Y-79627857D01*
X110774523Y-79506904D01*
X110774523Y-79446428D01*
X110835000Y-79325476D01*
X110895476Y-79265000D01*
X111016428Y-79204523D01*
X111258333Y-79204523D01*
X111379285Y-79265000D01*
X111439761Y-79325476D01*
X111500238Y-79446428D01*
X111500238Y-79506904D01*
X111439761Y-79627857D01*
X111379285Y-79688333D01*
X111258333Y-79748809D01*
X111016428Y-79748809D01*
X110895476Y-79809285D01*
X110835000Y-79869761D01*
X110774523Y-79990714D01*
X110774523Y-80232619D01*
X110835000Y-80353571D01*
X110895476Y-80414047D01*
X111016428Y-80474523D01*
X111258333Y-80474523D01*
X111379285Y-80414047D01*
X111439761Y-80353571D01*
X111500238Y-80232619D01*
X111500238Y-79990714D01*
X111439761Y-79869761D01*
X111379285Y-79809285D01*
X111258333Y-79748809D01*
D11*
X149133333Y-95587142D02*
X149085714Y-95634761D01*
X148942857Y-95682380D01*
X148847619Y-95682380D01*
X148704761Y-95634761D01*
X148609523Y-95539523D01*
X148561904Y-95444285D01*
X148514285Y-95253809D01*
X148514285Y-95110952D01*
X148561904Y-94920476D01*
X148609523Y-94825238D01*
X148704761Y-94730000D01*
X148847619Y-94682380D01*
X148942857Y-94682380D01*
X149085714Y-94730000D01*
X149133333Y-94777619D01*
X149466666Y-94682380D02*
X150133333Y-94682380D01*
X149704761Y-95682380D01*
X179852380Y-90542857D02*
X179376190Y-90876190D01*
X179852380Y-91114285D02*
X178852380Y-91114285D01*
X178852380Y-90733333D01*
X178900000Y-90638095D01*
X178947619Y-90590476D01*
X179042857Y-90542857D01*
X179185714Y-90542857D01*
X179280952Y-90590476D01*
X179328571Y-90638095D01*
X179376190Y-90733333D01*
X179376190Y-91114285D01*
X179852380Y-89590476D02*
X179852380Y-90161904D01*
X179852380Y-89876190D02*
X178852380Y-89876190D01*
X178995238Y-89971428D01*
X179090476Y-90066666D01*
X179138095Y-90161904D01*
X178947619Y-89209523D02*
X178900000Y-89161904D01*
X178852380Y-89066666D01*
X178852380Y-88828571D01*
X178900000Y-88733333D01*
X178947619Y-88685714D01*
X179042857Y-88638095D01*
X179138095Y-88638095D01*
X179280952Y-88685714D01*
X179852380Y-89257142D01*
X179852380Y-88638095D01*
X100957142Y-98257142D02*
X100909523Y-98304761D01*
X100766666Y-98352380D01*
X100671428Y-98352380D01*
X100528571Y-98304761D01*
X100433333Y-98209523D01*
X100385714Y-98114285D01*
X100338095Y-97923809D01*
X100338095Y-97780952D01*
X100385714Y-97590476D01*
X100433333Y-97495238D01*
X100528571Y-97400000D01*
X100671428Y-97352380D01*
X100766666Y-97352380D01*
X100909523Y-97400000D01*
X100957142Y-97447619D01*
X101290476Y-97352380D02*
X101909523Y-97352380D01*
X101576190Y-97733333D01*
X101719047Y-97733333D01*
X101814285Y-97780952D01*
X101861904Y-97828571D01*
X101909523Y-97923809D01*
X101909523Y-98161904D01*
X101861904Y-98257142D01*
X101814285Y-98304761D01*
X101719047Y-98352380D01*
X101433333Y-98352380D01*
X101338095Y-98304761D01*
X101290476Y-98257142D01*
X102290476Y-97447619D02*
X102338095Y-97400000D01*
X102433333Y-97352380D01*
X102671428Y-97352380D01*
X102766666Y-97400000D01*
X102814285Y-97447619D01*
X102861904Y-97542857D01*
X102861904Y-97638095D01*
X102814285Y-97780952D01*
X102242857Y-98352380D01*
X102861904Y-98352380D01*
X184566666Y-98852380D02*
X184566666Y-99566666D01*
X184519047Y-99709523D01*
X184423809Y-99804761D01*
X184280952Y-99852380D01*
X184185714Y-99852380D01*
X185519047Y-98852380D02*
X185042857Y-98852380D01*
X184995238Y-99328571D01*
X185042857Y-99280952D01*
X185138095Y-99233333D01*
X185376190Y-99233333D01*
X185471428Y-99280952D01*
X185519047Y-99328571D01*
X185566666Y-99423809D01*
X185566666Y-99661904D01*
X185519047Y-99757142D01*
X185471428Y-99804761D01*
X185376190Y-99852380D01*
X185138095Y-99852380D01*
X185042857Y-99804761D01*
X184995238Y-99757142D01*
X166857142Y-88517142D02*
X166809523Y-88564761D01*
X166666666Y-88612380D01*
X166571428Y-88612380D01*
X166428571Y-88564761D01*
X166333333Y-88469523D01*
X166285714Y-88374285D01*
X166238095Y-88183809D01*
X166238095Y-88040952D01*
X166285714Y-87850476D01*
X166333333Y-87755238D01*
X166428571Y-87660000D01*
X166571428Y-87612380D01*
X166666666Y-87612380D01*
X166809523Y-87660000D01*
X166857142Y-87707619D01*
X167714285Y-87945714D02*
X167714285Y-88612380D01*
X167476190Y-87564761D02*
X167238095Y-88279047D01*
X167857142Y-88279047D01*
X168666666Y-87612380D02*
X168476190Y-87612380D01*
X168380952Y-87660000D01*
X168333333Y-87707619D01*
X168238095Y-87850476D01*
X168190476Y-88040952D01*
X168190476Y-88421904D01*
X168238095Y-88517142D01*
X168285714Y-88564761D01*
X168380952Y-88612380D01*
X168571428Y-88612380D01*
X168666666Y-88564761D01*
X168714285Y-88517142D01*
X168761904Y-88421904D01*
X168761904Y-88183809D01*
X168714285Y-88088571D01*
X168666666Y-88040952D01*
X168571428Y-87993333D01*
X168380952Y-87993333D01*
X168285714Y-88040952D01*
X168238095Y-88088571D01*
X168190476Y-88183809D01*
X169557142Y-97782380D02*
X169223809Y-97306190D01*
X168985714Y-97782380D02*
X168985714Y-96782380D01*
X169366666Y-96782380D01*
X169461904Y-96830000D01*
X169509523Y-96877619D01*
X169557142Y-96972857D01*
X169557142Y-97115714D01*
X169509523Y-97210952D01*
X169461904Y-97258571D01*
X169366666Y-97306190D01*
X168985714Y-97306190D01*
X170509523Y-97782380D02*
X169938095Y-97782380D01*
X170223809Y-97782380D02*
X170223809Y-96782380D01*
X170128571Y-96925238D01*
X170033333Y-97020476D01*
X169938095Y-97068095D01*
X170842857Y-96782380D02*
X171461904Y-96782380D01*
X171128571Y-97163333D01*
X171271428Y-97163333D01*
X171366666Y-97210952D01*
X171414285Y-97258571D01*
X171461904Y-97353809D01*
X171461904Y-97591904D01*
X171414285Y-97687142D01*
X171366666Y-97734761D01*
X171271428Y-97782380D01*
X170985714Y-97782380D01*
X170890476Y-97734761D01*
X170842857Y-97687142D01*
X139557142Y-112597142D02*
X139509523Y-112644761D01*
X139366666Y-112692380D01*
X139271428Y-112692380D01*
X139128571Y-112644761D01*
X139033333Y-112549523D01*
X138985714Y-112454285D01*
X138938095Y-112263809D01*
X138938095Y-112120952D01*
X138985714Y-111930476D01*
X139033333Y-111835238D01*
X139128571Y-111740000D01*
X139271428Y-111692380D01*
X139366666Y-111692380D01*
X139509523Y-111740000D01*
X139557142Y-111787619D01*
X140414285Y-112025714D02*
X140414285Y-112692380D01*
X140176190Y-111644761D02*
X139938095Y-112359047D01*
X140557142Y-112359047D01*
X140985714Y-112692380D02*
X141176190Y-112692380D01*
X141271428Y-112644761D01*
X141319047Y-112597142D01*
X141414285Y-112454285D01*
X141461904Y-112263809D01*
X141461904Y-111882857D01*
X141414285Y-111787619D01*
X141366666Y-111740000D01*
X141271428Y-111692380D01*
X141080952Y-111692380D01*
X140985714Y-111740000D01*
X140938095Y-111787619D01*
X140890476Y-111882857D01*
X140890476Y-112120952D01*
X140938095Y-112216190D01*
X140985714Y-112263809D01*
X141080952Y-112311428D01*
X141271428Y-112311428D01*
X141366666Y-112263809D01*
X141414285Y-112216190D01*
X141461904Y-112120952D01*
X173666666Y-81952380D02*
X173666666Y-82666666D01*
X173619047Y-82809523D01*
X173523809Y-82904761D01*
X173380952Y-82952380D01*
X173285714Y-82952380D01*
X174190476Y-82952380D02*
X174380952Y-82952380D01*
X174476190Y-82904761D01*
X174523809Y-82857142D01*
X174619047Y-82714285D01*
X174666666Y-82523809D01*
X174666666Y-82142857D01*
X174619047Y-82047619D01*
X174571428Y-82000000D01*
X174476190Y-81952380D01*
X174285714Y-81952380D01*
X174190476Y-82000000D01*
X174142857Y-82047619D01*
X174095238Y-82142857D01*
X174095238Y-82380952D01*
X174142857Y-82476190D01*
X174190476Y-82523809D01*
X174285714Y-82571428D01*
X174476190Y-82571428D01*
X174571428Y-82523809D01*
X174619047Y-82476190D01*
X174666666Y-82380952D01*
X124657142Y-116057142D02*
X124609523Y-116104761D01*
X124466666Y-116152380D01*
X124371428Y-116152380D01*
X124228571Y-116104761D01*
X124133333Y-116009523D01*
X124085714Y-115914285D01*
X124038095Y-115723809D01*
X124038095Y-115580952D01*
X124085714Y-115390476D01*
X124133333Y-115295238D01*
X124228571Y-115200000D01*
X124371428Y-115152380D01*
X124466666Y-115152380D01*
X124609523Y-115200000D01*
X124657142Y-115247619D01*
X125609523Y-116152380D02*
X125038095Y-116152380D01*
X125323809Y-116152380D02*
X125323809Y-115152380D01*
X125228571Y-115295238D01*
X125133333Y-115390476D01*
X125038095Y-115438095D01*
X126085714Y-116152380D02*
X126276190Y-116152380D01*
X126371428Y-116104761D01*
X126419047Y-116057142D01*
X126514285Y-115914285D01*
X126561904Y-115723809D01*
X126561904Y-115342857D01*
X126514285Y-115247619D01*
X126466666Y-115200000D01*
X126371428Y-115152380D01*
X126180952Y-115152380D01*
X126085714Y-115200000D01*
X126038095Y-115247619D01*
X125990476Y-115342857D01*
X125990476Y-115580952D01*
X126038095Y-115676190D01*
X126085714Y-115723809D01*
X126180952Y-115771428D01*
X126371428Y-115771428D01*
X126466666Y-115723809D01*
X126514285Y-115676190D01*
X126561904Y-115580952D01*
X168957142Y-77042857D02*
X169004761Y-77090476D01*
X169052380Y-77233333D01*
X169052380Y-77328571D01*
X169004761Y-77471428D01*
X168909523Y-77566666D01*
X168814285Y-77614285D01*
X168623809Y-77661904D01*
X168480952Y-77661904D01*
X168290476Y-77614285D01*
X168195238Y-77566666D01*
X168100000Y-77471428D01*
X168052380Y-77328571D01*
X168052380Y-77233333D01*
X168100000Y-77090476D01*
X168147619Y-77042857D01*
X168385714Y-76185714D02*
X169052380Y-76185714D01*
X168004761Y-76423809D02*
X168719047Y-76661904D01*
X168719047Y-76042857D01*
X168052380Y-75757142D02*
X168052380Y-75138095D01*
X168433333Y-75471428D01*
X168433333Y-75328571D01*
X168480952Y-75233333D01*
X168528571Y-75185714D01*
X168623809Y-75138095D01*
X168861904Y-75138095D01*
X168957142Y-75185714D01*
X169004761Y-75233333D01*
X169052380Y-75328571D01*
X169052380Y-75614285D01*
X169004761Y-75709523D01*
X168957142Y-75757142D01*
D12*
X119235476Y-110074523D02*
X119235476Y-108804523D01*
X120565952Y-109953571D02*
X120505476Y-110014047D01*
X120324047Y-110074523D01*
X120203095Y-110074523D01*
X120021666Y-110014047D01*
X119900714Y-109893095D01*
X119840238Y-109772142D01*
X119779761Y-109530238D01*
X119779761Y-109348809D01*
X119840238Y-109106904D01*
X119900714Y-108985952D01*
X120021666Y-108865000D01*
X120203095Y-108804523D01*
X120324047Y-108804523D01*
X120505476Y-108865000D01*
X120565952Y-108925476D01*
X121775476Y-110074523D02*
X121049761Y-110074523D01*
X121412619Y-110074523D02*
X121412619Y-108804523D01*
X121291666Y-108985952D01*
X121170714Y-109106904D01*
X121049761Y-109167380D01*
X122259285Y-108925476D02*
X122319761Y-108865000D01*
X122440714Y-108804523D01*
X122743095Y-108804523D01*
X122864047Y-108865000D01*
X122924523Y-108925476D01*
X122985000Y-109046428D01*
X122985000Y-109167380D01*
X122924523Y-109348809D01*
X122198809Y-110074523D01*
X122985000Y-110074523D01*
D11*
X157952380Y-112266666D02*
X157476190Y-112600000D01*
X157952380Y-112838095D02*
X156952380Y-112838095D01*
X156952380Y-112457142D01*
X157000000Y-112361904D01*
X157047619Y-112314285D01*
X157142857Y-112266666D01*
X157285714Y-112266666D01*
X157380952Y-112314285D01*
X157428571Y-112361904D01*
X157476190Y-112457142D01*
X157476190Y-112838095D01*
X157047619Y-111885714D02*
X157000000Y-111838095D01*
X156952380Y-111742857D01*
X156952380Y-111504761D01*
X157000000Y-111409523D01*
X157047619Y-111361904D01*
X157142857Y-111314285D01*
X157238095Y-111314285D01*
X157380952Y-111361904D01*
X157952380Y-111933333D01*
X157952380Y-111314285D01*
X100957142Y-95797142D02*
X100909523Y-95844761D01*
X100766666Y-95892380D01*
X100671428Y-95892380D01*
X100528571Y-95844761D01*
X100433333Y-95749523D01*
X100385714Y-95654285D01*
X100338095Y-95463809D01*
X100338095Y-95320952D01*
X100385714Y-95130476D01*
X100433333Y-95035238D01*
X100528571Y-94940000D01*
X100671428Y-94892380D01*
X100766666Y-94892380D01*
X100909523Y-94940000D01*
X100957142Y-94987619D01*
X101290476Y-94892380D02*
X101909523Y-94892380D01*
X101576190Y-95273333D01*
X101719047Y-95273333D01*
X101814285Y-95320952D01*
X101861904Y-95368571D01*
X101909523Y-95463809D01*
X101909523Y-95701904D01*
X101861904Y-95797142D01*
X101814285Y-95844761D01*
X101719047Y-95892380D01*
X101433333Y-95892380D01*
X101338095Y-95844761D01*
X101290476Y-95797142D01*
X102861904Y-95892380D02*
X102290476Y-95892380D01*
X102576190Y-95892380D02*
X102576190Y-94892380D01*
X102480952Y-95035238D01*
X102385714Y-95130476D01*
X102290476Y-95178095D01*
X116857142Y-98357142D02*
X116809523Y-98404761D01*
X116666666Y-98452380D01*
X116571428Y-98452380D01*
X116428571Y-98404761D01*
X116333333Y-98309523D01*
X116285714Y-98214285D01*
X116238095Y-98023809D01*
X116238095Y-97880952D01*
X116285714Y-97690476D01*
X116333333Y-97595238D01*
X116428571Y-97500000D01*
X116571428Y-97452380D01*
X116666666Y-97452380D01*
X116809523Y-97500000D01*
X116857142Y-97547619D01*
X117190476Y-97452380D02*
X117809523Y-97452380D01*
X117476190Y-97833333D01*
X117619047Y-97833333D01*
X117714285Y-97880952D01*
X117761904Y-97928571D01*
X117809523Y-98023809D01*
X117809523Y-98261904D01*
X117761904Y-98357142D01*
X117714285Y-98404761D01*
X117619047Y-98452380D01*
X117333333Y-98452380D01*
X117238095Y-98404761D01*
X117190476Y-98357142D01*
X118142857Y-97452380D02*
X118809523Y-97452380D01*
X118380952Y-98452380D01*
X161552380Y-112266666D02*
X161076190Y-112600000D01*
X161552380Y-112838095D02*
X160552380Y-112838095D01*
X160552380Y-112457142D01*
X160600000Y-112361904D01*
X160647619Y-112314285D01*
X160742857Y-112266666D01*
X160885714Y-112266666D01*
X160980952Y-112314285D01*
X161028571Y-112361904D01*
X161076190Y-112457142D01*
X161076190Y-112838095D01*
X160552380Y-111933333D02*
X160552380Y-111314285D01*
X160933333Y-111647619D01*
X160933333Y-111504761D01*
X160980952Y-111409523D01*
X161028571Y-111361904D01*
X161123809Y-111314285D01*
X161361904Y-111314285D01*
X161457142Y-111361904D01*
X161504761Y-111409523D01*
X161552380Y-111504761D01*
X161552380Y-111790476D01*
X161504761Y-111885714D01*
X161457142Y-111933333D01*
X126587142Y-80566666D02*
X126634761Y-80614285D01*
X126682380Y-80757142D01*
X126682380Y-80852380D01*
X126634761Y-80995238D01*
X126539523Y-81090476D01*
X126444285Y-81138095D01*
X126253809Y-81185714D01*
X126110952Y-81185714D01*
X125920476Y-81138095D01*
X125825238Y-81090476D01*
X125730000Y-80995238D01*
X125682380Y-80852380D01*
X125682380Y-80757142D01*
X125730000Y-80614285D01*
X125777619Y-80566666D01*
X126015714Y-79709523D02*
X126682380Y-79709523D01*
X125634761Y-79947619D02*
X126349047Y-80185714D01*
X126349047Y-79566666D01*
X123333333Y-88627142D02*
X123285714Y-88674761D01*
X123142857Y-88722380D01*
X123047619Y-88722380D01*
X122904761Y-88674761D01*
X122809523Y-88579523D01*
X122761904Y-88484285D01*
X122714285Y-88293809D01*
X122714285Y-88150952D01*
X122761904Y-87960476D01*
X122809523Y-87865238D01*
X122904761Y-87770000D01*
X123047619Y-87722380D01*
X123142857Y-87722380D01*
X123285714Y-87770000D01*
X123333333Y-87817619D01*
X123666666Y-87722380D02*
X124285714Y-87722380D01*
X123952380Y-88103333D01*
X124095238Y-88103333D01*
X124190476Y-88150952D01*
X124238095Y-88198571D01*
X124285714Y-88293809D01*
X124285714Y-88531904D01*
X124238095Y-88627142D01*
X124190476Y-88674761D01*
X124095238Y-88722380D01*
X123809523Y-88722380D01*
X123714285Y-88674761D01*
X123666666Y-88627142D01*
X98222380Y-102233333D02*
X98936666Y-102233333D01*
X99079523Y-102280952D01*
X99174761Y-102376190D01*
X99222380Y-102519047D01*
X99222380Y-102614285D01*
X99222380Y-101757142D02*
X98222380Y-101757142D01*
X98222380Y-101376190D01*
X98270000Y-101280952D01*
X98317619Y-101233333D01*
X98412857Y-101185714D01*
X98555714Y-101185714D01*
X98650952Y-101233333D01*
X98698571Y-101280952D01*
X98746190Y-101376190D01*
X98746190Y-101757142D01*
X98222380Y-100328571D02*
X98222380Y-100519047D01*
X98270000Y-100614285D01*
X98317619Y-100661904D01*
X98460476Y-100757142D01*
X98650952Y-100804761D01*
X99031904Y-100804761D01*
X99127142Y-100757142D01*
X99174761Y-100709523D01*
X99222380Y-100614285D01*
X99222380Y-100423809D01*
X99174761Y-100328571D01*
X99127142Y-100280952D01*
X99031904Y-100233333D01*
X98793809Y-100233333D01*
X98698571Y-100280952D01*
X98650952Y-100328571D01*
X98603333Y-100423809D01*
X98603333Y-100614285D01*
X98650952Y-100709523D01*
X98698571Y-100757142D01*
X98793809Y-100804761D01*
X159152380Y-112266666D02*
X158676190Y-112600000D01*
X159152380Y-112838095D02*
X158152380Y-112838095D01*
X158152380Y-112457142D01*
X158200000Y-112361904D01*
X158247619Y-112314285D01*
X158342857Y-112266666D01*
X158485714Y-112266666D01*
X158580952Y-112314285D01*
X158628571Y-112361904D01*
X158676190Y-112457142D01*
X158676190Y-112838095D01*
X159152380Y-111314285D02*
X159152380Y-111885714D01*
X159152380Y-111600000D02*
X158152380Y-111600000D01*
X158295238Y-111695238D01*
X158390476Y-111790476D01*
X158438095Y-111885714D01*
X156357142Y-86087142D02*
X156309523Y-86134761D01*
X156166666Y-86182380D01*
X156071428Y-86182380D01*
X155928571Y-86134761D01*
X155833333Y-86039523D01*
X155785714Y-85944285D01*
X155738095Y-85753809D01*
X155738095Y-85610952D01*
X155785714Y-85420476D01*
X155833333Y-85325238D01*
X155928571Y-85230000D01*
X156071428Y-85182380D01*
X156166666Y-85182380D01*
X156309523Y-85230000D01*
X156357142Y-85277619D01*
X156738095Y-85277619D02*
X156785714Y-85230000D01*
X156880952Y-85182380D01*
X157119047Y-85182380D01*
X157214285Y-85230000D01*
X157261904Y-85277619D01*
X157309523Y-85372857D01*
X157309523Y-85468095D01*
X157261904Y-85610952D01*
X156690476Y-86182380D01*
X157309523Y-86182380D01*
X158166666Y-85515714D02*
X158166666Y-86182380D01*
X157928571Y-85134761D02*
X157690476Y-85849047D01*
X158309523Y-85849047D01*
X171757142Y-86342857D02*
X171804761Y-86390476D01*
X171852380Y-86533333D01*
X171852380Y-86628571D01*
X171804761Y-86771428D01*
X171709523Y-86866666D01*
X171614285Y-86914285D01*
X171423809Y-86961904D01*
X171280952Y-86961904D01*
X171090476Y-86914285D01*
X170995238Y-86866666D01*
X170900000Y-86771428D01*
X170852380Y-86628571D01*
X170852380Y-86533333D01*
X170900000Y-86390476D01*
X170947619Y-86342857D01*
X171185714Y-85485714D02*
X171852380Y-85485714D01*
X170804761Y-85723809D02*
X171519047Y-85961904D01*
X171519047Y-85342857D01*
X170852380Y-85057142D02*
X170852380Y-84390476D01*
X171852380Y-84819047D01*
X116857142Y-85857142D02*
X116809523Y-85904761D01*
X116666666Y-85952380D01*
X116571428Y-85952380D01*
X116428571Y-85904761D01*
X116333333Y-85809523D01*
X116285714Y-85714285D01*
X116238095Y-85523809D01*
X116238095Y-85380952D01*
X116285714Y-85190476D01*
X116333333Y-85095238D01*
X116428571Y-85000000D01*
X116571428Y-84952380D01*
X116666666Y-84952380D01*
X116809523Y-85000000D01*
X116857142Y-85047619D01*
X117190476Y-84952380D02*
X117809523Y-84952380D01*
X117476190Y-85333333D01*
X117619047Y-85333333D01*
X117714285Y-85380952D01*
X117761904Y-85428571D01*
X117809523Y-85523809D01*
X117809523Y-85761904D01*
X117761904Y-85857142D01*
X117714285Y-85904761D01*
X117619047Y-85952380D01*
X117333333Y-85952380D01*
X117238095Y-85904761D01*
X117190476Y-85857142D01*
X118380952Y-85380952D02*
X118285714Y-85333333D01*
X118238095Y-85285714D01*
X118190476Y-85190476D01*
X118190476Y-85142857D01*
X118238095Y-85047619D01*
X118285714Y-85000000D01*
X118380952Y-84952380D01*
X118571428Y-84952380D01*
X118666666Y-85000000D01*
X118714285Y-85047619D01*
X118761904Y-85142857D01*
X118761904Y-85190476D01*
X118714285Y-85285714D01*
X118666666Y-85333333D01*
X118571428Y-85380952D01*
X118380952Y-85380952D01*
X118285714Y-85428571D01*
X118238095Y-85476190D01*
X118190476Y-85571428D01*
X118190476Y-85761904D01*
X118238095Y-85857142D01*
X118285714Y-85904761D01*
X118380952Y-85952380D01*
X118571428Y-85952380D01*
X118666666Y-85904761D01*
X118714285Y-85857142D01*
X118761904Y-85761904D01*
X118761904Y-85571428D01*
X118714285Y-85476190D01*
X118666666Y-85428571D01*
X118571428Y-85380952D01*
X151233333Y-85657142D02*
X151185714Y-85704761D01*
X151042857Y-85752380D01*
X150947619Y-85752380D01*
X150804761Y-85704761D01*
X150709523Y-85609523D01*
X150661904Y-85514285D01*
X150614285Y-85323809D01*
X150614285Y-85180952D01*
X150661904Y-84990476D01*
X150709523Y-84895238D01*
X150804761Y-84800000D01*
X150947619Y-84752380D01*
X151042857Y-84752380D01*
X151185714Y-84800000D01*
X151233333Y-84847619D01*
X151614285Y-84847619D02*
X151661904Y-84800000D01*
X151757142Y-84752380D01*
X151995238Y-84752380D01*
X152090476Y-84800000D01*
X152138095Y-84847619D01*
X152185714Y-84942857D01*
X152185714Y-85038095D01*
X152138095Y-85180952D01*
X151566666Y-85752380D01*
X152185714Y-85752380D01*
X172957142Y-86242857D02*
X173004761Y-86290476D01*
X173052380Y-86433333D01*
X173052380Y-86528571D01*
X173004761Y-86671428D01*
X172909523Y-86766666D01*
X172814285Y-86814285D01*
X172623809Y-86861904D01*
X172480952Y-86861904D01*
X172290476Y-86814285D01*
X172195238Y-86766666D01*
X172100000Y-86671428D01*
X172052380Y-86528571D01*
X172052380Y-86433333D01*
X172100000Y-86290476D01*
X172147619Y-86242857D01*
X172385714Y-85385714D02*
X173052380Y-85385714D01*
X172004761Y-85623809D02*
X172719047Y-85861904D01*
X172719047Y-85242857D01*
X172147619Y-84909523D02*
X172100000Y-84861904D01*
X172052380Y-84766666D01*
X172052380Y-84528571D01*
X172100000Y-84433333D01*
X172147619Y-84385714D01*
X172242857Y-84338095D01*
X172338095Y-84338095D01*
X172480952Y-84385714D01*
X173052380Y-84957142D01*
X173052380Y-84338095D01*
D12*
X152374523Y-98239761D02*
X151104523Y-98239761D01*
X152253571Y-96909285D02*
X152314047Y-96969761D01*
X152374523Y-97151190D01*
X152374523Y-97272142D01*
X152314047Y-97453571D01*
X152193095Y-97574523D01*
X152072142Y-97635000D01*
X151830238Y-97695476D01*
X151648809Y-97695476D01*
X151406904Y-97635000D01*
X151285952Y-97574523D01*
X151165000Y-97453571D01*
X151104523Y-97272142D01*
X151104523Y-97151190D01*
X151165000Y-96969761D01*
X151225476Y-96909285D01*
X152374523Y-96304523D02*
X152374523Y-96062619D01*
X152314047Y-95941666D01*
X152253571Y-95881190D01*
X152072142Y-95760238D01*
X151830238Y-95699761D01*
X151346428Y-95699761D01*
X151225476Y-95760238D01*
X151165000Y-95820714D01*
X151104523Y-95941666D01*
X151104523Y-96183571D01*
X151165000Y-96304523D01*
X151225476Y-96365000D01*
X151346428Y-96425476D01*
X151648809Y-96425476D01*
X151769761Y-96365000D01*
X151830238Y-96304523D01*
X151890714Y-96183571D01*
X151890714Y-95941666D01*
X151830238Y-95820714D01*
X151769761Y-95760238D01*
X151648809Y-95699761D01*
D11*
X160352380Y-111766666D02*
X159876190Y-112100000D01*
X160352380Y-112338095D02*
X159352380Y-112338095D01*
X159352380Y-111957142D01*
X159400000Y-111861904D01*
X159447619Y-111814285D01*
X159542857Y-111766666D01*
X159685714Y-111766666D01*
X159780952Y-111814285D01*
X159828571Y-111861904D01*
X159876190Y-111957142D01*
X159876190Y-112338095D01*
X159685714Y-110909523D02*
X160352380Y-110909523D01*
X159304761Y-111147619D02*
X160019047Y-111385714D01*
X160019047Y-110766666D01*
D12*
X106055476Y-101274523D02*
X106055476Y-100004523D01*
X107385952Y-101153571D02*
X107325476Y-101214047D01*
X107144047Y-101274523D01*
X107023095Y-101274523D01*
X106841666Y-101214047D01*
X106720714Y-101093095D01*
X106660238Y-100972142D01*
X106599761Y-100730238D01*
X106599761Y-100548809D01*
X106660238Y-100306904D01*
X106720714Y-100185952D01*
X106841666Y-100065000D01*
X107023095Y-100004523D01*
X107144047Y-100004523D01*
X107325476Y-100065000D01*
X107385952Y-100125476D01*
X108595476Y-101274523D02*
X107869761Y-101274523D01*
X108232619Y-101274523D02*
X108232619Y-100004523D01*
X108111666Y-100185952D01*
X107990714Y-100306904D01*
X107869761Y-100367380D01*
X109381666Y-100004523D02*
X109502619Y-100004523D01*
X109623571Y-100065000D01*
X109684047Y-100125476D01*
X109744523Y-100246428D01*
X109805000Y-100488333D01*
X109805000Y-100790714D01*
X109744523Y-101032619D01*
X109684047Y-101153571D01*
X109623571Y-101214047D01*
X109502619Y-101274523D01*
X109381666Y-101274523D01*
X109260714Y-101214047D01*
X109200238Y-101153571D01*
X109139761Y-101032619D01*
X109079285Y-100790714D01*
X109079285Y-100488333D01*
X109139761Y-100246428D01*
X109200238Y-100125476D01*
X109260714Y-100065000D01*
X109381666Y-100004523D01*
D11*
X116857142Y-90857142D02*
X116809523Y-90904761D01*
X116666666Y-90952380D01*
X116571428Y-90952380D01*
X116428571Y-90904761D01*
X116333333Y-90809523D01*
X116285714Y-90714285D01*
X116238095Y-90523809D01*
X116238095Y-90380952D01*
X116285714Y-90190476D01*
X116333333Y-90095238D01*
X116428571Y-90000000D01*
X116571428Y-89952380D01*
X116666666Y-89952380D01*
X116809523Y-90000000D01*
X116857142Y-90047619D01*
X117190476Y-89952380D02*
X117809523Y-89952380D01*
X117476190Y-90333333D01*
X117619047Y-90333333D01*
X117714285Y-90380952D01*
X117761904Y-90428571D01*
X117809523Y-90523809D01*
X117809523Y-90761904D01*
X117761904Y-90857142D01*
X117714285Y-90904761D01*
X117619047Y-90952380D01*
X117333333Y-90952380D01*
X117238095Y-90904761D01*
X117190476Y-90857142D01*
X118285714Y-90952380D02*
X118476190Y-90952380D01*
X118571428Y-90904761D01*
X118619047Y-90857142D01*
X118714285Y-90714285D01*
X118761904Y-90523809D01*
X118761904Y-90142857D01*
X118714285Y-90047619D01*
X118666666Y-90000000D01*
X118571428Y-89952380D01*
X118380952Y-89952380D01*
X118285714Y-90000000D01*
X118238095Y-90047619D01*
X118190476Y-90142857D01*
X118190476Y-90380952D01*
X118238095Y-90476190D01*
X118285714Y-90523809D01*
X118380952Y-90571428D01*
X118571428Y-90571428D01*
X118666666Y-90523809D01*
X118714285Y-90476190D01*
X118761904Y-90380952D01*
D12*
X155560238Y-91074523D02*
X155560238Y-89804523D01*
X156890714Y-90953571D02*
X156830238Y-91014047D01*
X156648809Y-91074523D01*
X156527857Y-91074523D01*
X156346428Y-91014047D01*
X156225476Y-90893095D01*
X156165000Y-90772142D01*
X156104523Y-90530238D01*
X156104523Y-90348809D01*
X156165000Y-90106904D01*
X156225476Y-89985952D01*
X156346428Y-89865000D01*
X156527857Y-89804523D01*
X156648809Y-89804523D01*
X156830238Y-89865000D01*
X156890714Y-89925476D01*
X158039761Y-89804523D02*
X157435000Y-89804523D01*
X157374523Y-90409285D01*
X157435000Y-90348809D01*
X157555952Y-90288333D01*
X157858333Y-90288333D01*
X157979285Y-90348809D01*
X158039761Y-90409285D01*
X158100238Y-90530238D01*
X158100238Y-90832619D01*
X158039761Y-90953571D01*
X157979285Y-91014047D01*
X157858333Y-91074523D01*
X157555952Y-91074523D01*
X157435000Y-91014047D01*
X157374523Y-90953571D01*
D11*
X179852380Y-87766666D02*
X179376190Y-88100000D01*
X179852380Y-88338095D02*
X178852380Y-88338095D01*
X178852380Y-87957142D01*
X178900000Y-87861904D01*
X178947619Y-87814285D01*
X179042857Y-87766666D01*
X179185714Y-87766666D01*
X179280952Y-87814285D01*
X179328571Y-87861904D01*
X179376190Y-87957142D01*
X179376190Y-88338095D01*
X179852380Y-87290476D02*
X179852380Y-87100000D01*
X179804761Y-87004761D01*
X179757142Y-86957142D01*
X179614285Y-86861904D01*
X179423809Y-86814285D01*
X179042857Y-86814285D01*
X178947619Y-86861904D01*
X178900000Y-86909523D01*
X178852380Y-87004761D01*
X178852380Y-87195238D01*
X178900000Y-87290476D01*
X178947619Y-87338095D01*
X179042857Y-87385714D01*
X179280952Y-87385714D01*
X179376190Y-87338095D01*
X179423809Y-87290476D01*
X179471428Y-87195238D01*
X179471428Y-87004761D01*
X179423809Y-86909523D01*
X179376190Y-86861904D01*
X179280952Y-86814285D01*
X160257142Y-97157142D02*
X160209523Y-97204761D01*
X160066666Y-97252380D01*
X159971428Y-97252380D01*
X159828571Y-97204761D01*
X159733333Y-97109523D01*
X159685714Y-97014285D01*
X159638095Y-96823809D01*
X159638095Y-96680952D01*
X159685714Y-96490476D01*
X159733333Y-96395238D01*
X159828571Y-96300000D01*
X159971428Y-96252380D01*
X160066666Y-96252380D01*
X160209523Y-96300000D01*
X160257142Y-96347619D01*
X160638095Y-96347619D02*
X160685714Y-96300000D01*
X160780952Y-96252380D01*
X161019047Y-96252380D01*
X161114285Y-96300000D01*
X161161904Y-96347619D01*
X161209523Y-96442857D01*
X161209523Y-96538095D01*
X161161904Y-96680952D01*
X160590476Y-97252380D01*
X161209523Y-97252380D01*
X161685714Y-97252380D02*
X161876190Y-97252380D01*
X161971428Y-97204761D01*
X162019047Y-97157142D01*
X162114285Y-97014285D01*
X162161904Y-96823809D01*
X162161904Y-96442857D01*
X162114285Y-96347619D01*
X162066666Y-96300000D01*
X161971428Y-96252380D01*
X161780952Y-96252380D01*
X161685714Y-96300000D01*
X161638095Y-96347619D01*
X161590476Y-96442857D01*
X161590476Y-96680952D01*
X161638095Y-96776190D01*
X161685714Y-96823809D01*
X161780952Y-96871428D01*
X161971428Y-96871428D01*
X162066666Y-96823809D01*
X162114285Y-96776190D01*
X162161904Y-96680952D01*
D12*
X133460238Y-120774523D02*
X133460238Y-119504523D01*
X134790714Y-120653571D02*
X134730238Y-120714047D01*
X134548809Y-120774523D01*
X134427857Y-120774523D01*
X134246428Y-120714047D01*
X134125476Y-120593095D01*
X134065000Y-120472142D01*
X134004523Y-120230238D01*
X134004523Y-120048809D01*
X134065000Y-119806904D01*
X134125476Y-119685952D01*
X134246428Y-119565000D01*
X134427857Y-119504523D01*
X134548809Y-119504523D01*
X134730238Y-119565000D01*
X134790714Y-119625476D01*
X135214047Y-119504523D02*
X136060714Y-119504523D01*
X135516428Y-120774523D01*
D11*
X118437142Y-122442857D02*
X118484761Y-122490476D01*
X118532380Y-122633333D01*
X118532380Y-122728571D01*
X118484761Y-122871428D01*
X118389523Y-122966666D01*
X118294285Y-123014285D01*
X118103809Y-123061904D01*
X117960952Y-123061904D01*
X117770476Y-123014285D01*
X117675238Y-122966666D01*
X117580000Y-122871428D01*
X117532380Y-122728571D01*
X117532380Y-122633333D01*
X117580000Y-122490476D01*
X117627619Y-122442857D01*
X118532380Y-121490476D02*
X118532380Y-122061904D01*
X118532380Y-121776190D02*
X117532380Y-121776190D01*
X117675238Y-121871428D01*
X117770476Y-121966666D01*
X117818095Y-122061904D01*
X117532380Y-121157142D02*
X117532380Y-120490476D01*
X118532380Y-120919047D01*
X161557142Y-87857142D02*
X161509523Y-87904761D01*
X161366666Y-87952380D01*
X161271428Y-87952380D01*
X161128571Y-87904761D01*
X161033333Y-87809523D01*
X160985714Y-87714285D01*
X160938095Y-87523809D01*
X160938095Y-87380952D01*
X160985714Y-87190476D01*
X161033333Y-87095238D01*
X161128571Y-87000000D01*
X161271428Y-86952380D01*
X161366666Y-86952380D01*
X161509523Y-87000000D01*
X161557142Y-87047619D01*
X162414285Y-87285714D02*
X162414285Y-87952380D01*
X162176190Y-86904761D02*
X161938095Y-87619047D01*
X162557142Y-87619047D01*
X163414285Y-86952380D02*
X162938095Y-86952380D01*
X162890476Y-87428571D01*
X162938095Y-87380952D01*
X163033333Y-87333333D01*
X163271428Y-87333333D01*
X163366666Y-87380952D01*
X163414285Y-87428571D01*
X163461904Y-87523809D01*
X163461904Y-87761904D01*
X163414285Y-87857142D01*
X163366666Y-87904761D01*
X163271428Y-87952380D01*
X163033333Y-87952380D01*
X162938095Y-87904761D01*
X162890476Y-87857142D01*
X117023809Y-87976190D02*
X117023809Y-88452380D01*
X116690476Y-87452380D02*
X117023809Y-87976190D01*
X117357142Y-87452380D01*
X117642857Y-87547619D02*
X117690476Y-87500000D01*
X117785714Y-87452380D01*
X118023809Y-87452380D01*
X118119047Y-87500000D01*
X118166666Y-87547619D01*
X118214285Y-87642857D01*
X118214285Y-87738095D01*
X118166666Y-87880952D01*
X117595238Y-88452380D01*
X118214285Y-88452380D01*
X119637142Y-122442857D02*
X119684761Y-122490476D01*
X119732380Y-122633333D01*
X119732380Y-122728571D01*
X119684761Y-122871428D01*
X119589523Y-122966666D01*
X119494285Y-123014285D01*
X119303809Y-123061904D01*
X119160952Y-123061904D01*
X118970476Y-123014285D01*
X118875238Y-122966666D01*
X118780000Y-122871428D01*
X118732380Y-122728571D01*
X118732380Y-122633333D01*
X118780000Y-122490476D01*
X118827619Y-122442857D01*
X119732380Y-121490476D02*
X119732380Y-122061904D01*
X119732380Y-121776190D02*
X118732380Y-121776190D01*
X118875238Y-121871428D01*
X118970476Y-121966666D01*
X119018095Y-122061904D01*
X119160952Y-120919047D02*
X119113333Y-121014285D01*
X119065714Y-121061904D01*
X118970476Y-121109523D01*
X118922857Y-121109523D01*
X118827619Y-121061904D01*
X118780000Y-121014285D01*
X118732380Y-120919047D01*
X118732380Y-120728571D01*
X118780000Y-120633333D01*
X118827619Y-120585714D01*
X118922857Y-120538095D01*
X118970476Y-120538095D01*
X119065714Y-120585714D01*
X119113333Y-120633333D01*
X119160952Y-120728571D01*
X119160952Y-120919047D01*
X119208571Y-121014285D01*
X119256190Y-121061904D01*
X119351428Y-121109523D01*
X119541904Y-121109523D01*
X119637142Y-121061904D01*
X119684761Y-121014285D01*
X119732380Y-120919047D01*
X119732380Y-120728571D01*
X119684761Y-120633333D01*
X119637142Y-120585714D01*
X119541904Y-120538095D01*
X119351428Y-120538095D01*
X119256190Y-120585714D01*
X119208571Y-120633333D01*
X119160952Y-120728571D01*
X176566666Y-81782380D02*
X176566666Y-82496666D01*
X176519047Y-82639523D01*
X176423809Y-82734761D01*
X176280952Y-82782380D01*
X176185714Y-82782380D01*
X177185714Y-82210952D02*
X177090476Y-82163333D01*
X177042857Y-82115714D01*
X176995238Y-82020476D01*
X176995238Y-81972857D01*
X177042857Y-81877619D01*
X177090476Y-81830000D01*
X177185714Y-81782380D01*
X177376190Y-81782380D01*
X177471428Y-81830000D01*
X177519047Y-81877619D01*
X177566666Y-81972857D01*
X177566666Y-82020476D01*
X177519047Y-82115714D01*
X177471428Y-82163333D01*
X177376190Y-82210952D01*
X177185714Y-82210952D01*
X177090476Y-82258571D01*
X177042857Y-82306190D01*
X176995238Y-82401428D01*
X176995238Y-82591904D01*
X177042857Y-82687142D01*
X177090476Y-82734761D01*
X177185714Y-82782380D01*
X177376190Y-82782380D01*
X177471428Y-82734761D01*
X177519047Y-82687142D01*
X177566666Y-82591904D01*
X177566666Y-82401428D01*
X177519047Y-82306190D01*
X177471428Y-82258571D01*
X177376190Y-82210952D01*
X128957142Y-109142857D02*
X129004761Y-109190476D01*
X129052380Y-109333333D01*
X129052380Y-109428571D01*
X129004761Y-109571428D01*
X128909523Y-109666666D01*
X128814285Y-109714285D01*
X128623809Y-109761904D01*
X128480952Y-109761904D01*
X128290476Y-109714285D01*
X128195238Y-109666666D01*
X128100000Y-109571428D01*
X128052380Y-109428571D01*
X128052380Y-109333333D01*
X128100000Y-109190476D01*
X128147619Y-109142857D01*
X129052380Y-108190476D02*
X129052380Y-108761904D01*
X129052380Y-108476190D02*
X128052380Y-108476190D01*
X128195238Y-108571428D01*
X128290476Y-108666666D01*
X128338095Y-108761904D01*
X128052380Y-107857142D02*
X128052380Y-107238095D01*
X128433333Y-107571428D01*
X128433333Y-107428571D01*
X128480952Y-107333333D01*
X128528571Y-107285714D01*
X128623809Y-107238095D01*
X128861904Y-107238095D01*
X128957142Y-107285714D01*
X129004761Y-107333333D01*
X129052380Y-107428571D01*
X129052380Y-107714285D01*
X129004761Y-107809523D01*
X128957142Y-107857142D01*
D10*
X113150000Y-113450000D02*
X113150000Y-114500000D01*
X110150000Y-115750000D02*
X110150000Y-114850000D01*
X113050000Y-114850000D02*
X113050000Y-115750000D01*
X110150000Y-114850000D02*
X113050000Y-114850000D01*
X113050000Y-115750000D02*
X110150000Y-115750000D01*
D13*
X174346359Y-90380000D02*
X174653641Y-90380000D01*
X174346359Y-89620000D02*
X174653641Y-89620000D01*
X183570000Y-77750000D02*
X183570000Y-76420000D01*
X186230000Y-79020000D02*
X186230000Y-91780000D01*
X183570000Y-91780000D02*
X186230000Y-91780000D01*
X183570000Y-79020000D02*
X183570000Y-91780000D01*
X183570000Y-79020000D02*
X186230000Y-79020000D01*
X183570000Y-76420000D02*
X184900000Y-76420000D01*
D14*
X159700000Y-106300000D02*
X159700000Y-103700000D01*
D10*
X163500000Y-104900000D02*
X163500000Y-104900000D01*
X163500000Y-105100000D02*
X163500000Y-105100000D01*
X163500000Y-104900000D02*
G75*
G03*
X163500000Y-105100000I0J-100000D01*
G01*
X163500000Y-105100000D02*
G75*
G03*
X163500000Y-104900000I0J100000D01*
G01*
D13*
X178570000Y-96005000D02*
X175970000Y-96005000D01*
X175970000Y-98605000D02*
X175970000Y-97275000D01*
X175970000Y-93405000D02*
X186250000Y-93405000D01*
X178570000Y-98605000D02*
X186250000Y-98605000D01*
X186250000Y-98605000D02*
X186250000Y-93405000D01*
X178570000Y-98605000D02*
X178570000Y-96005000D01*
X175970000Y-96005000D02*
X175970000Y-93405000D01*
X177300000Y-98605000D02*
X175970000Y-98605000D01*
X161820000Y-113846359D02*
X161820000Y-114153641D01*
X162580000Y-113846359D02*
X162580000Y-114153641D01*
D10*
X170200000Y-116400000D02*
X175200000Y-116400000D01*
X175700000Y-118400000D02*
X175700000Y-120400000D01*
D14*
X166600000Y-117200000D02*
X166600000Y-117200000D01*
X166600000Y-117100000D02*
X166600000Y-117100000D01*
D10*
X170200000Y-122400000D02*
X175200000Y-122400000D01*
X169700000Y-118400000D02*
X169700000Y-120400000D01*
D14*
X166600000Y-117100000D02*
G75*
G03*
X166600000Y-117200000I0J-50000D01*
G01*
X166600000Y-117200000D02*
G75*
G03*
X166600000Y-117100000I0J50000D01*
G01*
D13*
X104980000Y-86070000D02*
X104980000Y-87400000D01*
X102380000Y-86070000D02*
X102380000Y-88730000D01*
X102380000Y-88730000D02*
X99780000Y-88730000D01*
X103650000Y-86070000D02*
X104980000Y-86070000D01*
X102380000Y-86070000D02*
X99780000Y-86070000D01*
X99780000Y-86070000D02*
X99780000Y-88730000D01*
X154630000Y-80070000D02*
X152030000Y-80070000D01*
X152030000Y-80070000D02*
X152030000Y-82730000D01*
X154630000Y-82730000D02*
X152030000Y-82730000D01*
X154630000Y-80070000D02*
X154630000Y-82730000D01*
X155900000Y-80070000D02*
X157230000Y-80070000D01*
X157230000Y-80070000D02*
X157230000Y-81400000D01*
D15*
X162875000Y-90275000D02*
G75*
G03*
X162875000Y-90275000I-125000J0D01*
G01*
D13*
X102370000Y-91070000D02*
X104970000Y-91070000D01*
X102370000Y-93730000D02*
X102370000Y-91070000D01*
X102370000Y-93730000D02*
X104970000Y-93730000D01*
X99770000Y-93730000D02*
X99770000Y-92400000D01*
X101100000Y-93730000D02*
X99770000Y-93730000D01*
X104970000Y-93730000D02*
X104970000Y-91070000D01*
X169740000Y-84007836D02*
X169740000Y-83792164D01*
X170460000Y-84007836D02*
X170460000Y-83792164D01*
D10*
X111422000Y-119742000D02*
X113138000Y-119742000D01*
X113138000Y-119742000D02*
X113138000Y-121000000D01*
X111422000Y-121458000D02*
X111422000Y-119742000D01*
X113138000Y-121000000D02*
X112680000Y-121458000D01*
X112680000Y-121458000D02*
X111422000Y-121458000D01*
X113238000Y-121458000D02*
G75*
G03*
X113238000Y-121458000I-100000J0D01*
G01*
D16*
X162100000Y-79400000D02*
X162100000Y-85200000D01*
X168100000Y-85200000D02*
X168100000Y-79400000D01*
X168100000Y-79400000D02*
X162100000Y-79400000D01*
X162100000Y-85200000D02*
X168100000Y-85200000D01*
D17*
X161900000Y-79800000D02*
G75*
G03*
X161900000Y-79800000I-100000J0D01*
G01*
D10*
X146150000Y-83550000D02*
X146150000Y-102850000D01*
X126850000Y-83550000D02*
X146150000Y-83550000D01*
X146150000Y-102850000D02*
X126850000Y-102850000D01*
X126850000Y-102850000D02*
X126850000Y-83550000D01*
D15*
X125400000Y-83700000D02*
G75*
G03*
X125400000Y-83700000I-125000J0D01*
G01*
D13*
X177266359Y-85700000D02*
X177573641Y-85700000D01*
X177266359Y-84940000D02*
X177573641Y-84940000D01*
X108850000Y-76680000D02*
X107520000Y-76680000D01*
X110120000Y-74080000D02*
X107520000Y-74080000D01*
X107520000Y-76680000D02*
X107520000Y-75350000D01*
X110120000Y-76680000D02*
X110120000Y-74080000D01*
X110120000Y-76680000D02*
X130500000Y-76680000D01*
X107520000Y-71480000D02*
X130500000Y-71480000D01*
X130500000Y-76680000D02*
X130500000Y-71480000D01*
X107520000Y-74080000D02*
X107520000Y-71480000D01*
D18*
X110600000Y-104645000D02*
X107600000Y-104645000D01*
X110600000Y-102155000D02*
X107600000Y-102155000D01*
D10*
X111330000Y-104150000D02*
G75*
G03*
X111330000Y-104150000I-100000J0D01*
G01*
D13*
X146305000Y-73090000D02*
X146305000Y-72887530D01*
X146436529Y-73090000D02*
X146305000Y-73090000D01*
X147760000Y-73286529D02*
X147760000Y-73143471D01*
X147706529Y-73090000D02*
X147563471Y-73090000D01*
X146305000Y-71450000D02*
X155315000Y-71450000D01*
X147760000Y-74980000D02*
X147760000Y-74413471D01*
X146240000Y-74980000D02*
X146240000Y-73850000D01*
X147000000Y-74980000D02*
X146240000Y-74980000D01*
X147760000Y-74980000D02*
X155315000Y-74980000D01*
X155315000Y-73542470D02*
X155315000Y-72887530D01*
X155315000Y-74980000D02*
X155315000Y-74157530D01*
X146305000Y-72272470D02*
X146305000Y-71450000D01*
X155315000Y-72272470D02*
X155315000Y-71450000D01*
X135970000Y-71470000D02*
X143650000Y-71470000D01*
X133370000Y-74130000D02*
X133370000Y-72800000D01*
X135970000Y-74130000D02*
X143650000Y-74130000D01*
X135970000Y-74130000D02*
X135970000Y-71470000D01*
X134700000Y-74130000D02*
X133370000Y-74130000D01*
X143650000Y-74130000D02*
X143650000Y-71470000D01*
X174356359Y-84940000D02*
X174663641Y-84940000D01*
X174356359Y-85700000D02*
X174663641Y-85700000D01*
D10*
X158500000Y-116400000D02*
X153500000Y-116400000D01*
X159000000Y-120400000D02*
X159000000Y-118400000D01*
D14*
X162100000Y-121600000D02*
X162100000Y-121600000D01*
X162100000Y-121700000D02*
X162100000Y-121700000D01*
D10*
X153000000Y-120400000D02*
X153000000Y-118400000D01*
X158500000Y-122400000D02*
X153500000Y-122400000D01*
D14*
X162100000Y-121600000D02*
G75*
G03*
X162100000Y-121700000I0J-50000D01*
G01*
X162100000Y-121700000D02*
G75*
G03*
X162100000Y-121600000I0J50000D01*
G01*
D18*
X181300000Y-112900000D02*
X180850000Y-112900000D01*
X181300000Y-100700000D02*
X180850000Y-100700000D01*
X165300000Y-112900000D02*
X165750000Y-112900000D01*
X181300000Y-112900000D02*
X181300000Y-112300000D01*
X165300000Y-100700000D02*
X165300000Y-101300000D01*
X181300000Y-100700000D02*
X181300000Y-101300000D01*
X165300000Y-112900000D02*
X165300000Y-112300000D01*
X165300000Y-100700000D02*
X165750000Y-100700000D01*
X182041418Y-100600000D02*
G75*
G03*
X182041418Y-100600000I-141418J0D01*
G01*
D13*
X157205000Y-76070000D02*
X157205000Y-77400000D01*
X154605000Y-76070000D02*
X154605000Y-78730000D01*
X154605000Y-78730000D02*
X152005000Y-78730000D01*
X155875000Y-76070000D02*
X157205000Y-76070000D01*
X154605000Y-76070000D02*
X152005000Y-76070000D01*
X152005000Y-76070000D02*
X152005000Y-78730000D01*
X185050000Y-74130000D02*
X185050000Y-71470000D01*
X160860000Y-74130000D02*
X159530000Y-74130000D01*
X159530000Y-74130000D02*
X159530000Y-72800000D01*
X162130000Y-74130000D02*
X185050000Y-74130000D01*
X162130000Y-71470000D02*
X185050000Y-71470000D01*
X162130000Y-74130000D02*
X162130000Y-71470000D01*
X163780000Y-113846359D02*
X163780000Y-114153641D01*
X163020000Y-113846359D02*
X163020000Y-114153641D01*
X102745000Y-106670000D02*
X107885000Y-106670000D01*
X107885000Y-109330000D02*
X107885000Y-106670000D01*
X102745000Y-109330000D02*
X102745000Y-106670000D01*
X101475000Y-109330000D02*
X100145000Y-109330000D01*
X102745000Y-109330000D02*
X107885000Y-109330000D01*
X100145000Y-109330000D02*
X100145000Y-108000000D01*
D15*
X115000000Y-88230000D02*
G75*
G03*
X115000000Y-88230000I-125000J0D01*
G01*
D13*
X118850000Y-94100000D02*
X118850000Y-96900000D01*
X118850000Y-96900000D02*
X122150000Y-96900000D01*
X122390000Y-115538748D02*
X122390000Y-116061252D01*
X120170000Y-115538748D02*
X120170000Y-116061252D01*
X116492164Y-80340000D02*
X116707836Y-80340000D01*
X116492164Y-81060000D02*
X116707836Y-81060000D01*
X180392164Y-116160000D02*
X180607836Y-116160000D01*
X180392164Y-115440000D02*
X180607836Y-115440000D01*
X160570000Y-100930000D02*
X160570000Y-98270000D01*
X160570000Y-98270000D02*
X163170000Y-98270000D01*
X157970000Y-100930000D02*
X157970000Y-99600000D01*
X163170000Y-100930000D02*
X163170000Y-98270000D01*
X159300000Y-100930000D02*
X157970000Y-100930000D01*
X160570000Y-100930000D02*
X163170000Y-100930000D01*
D15*
X115880000Y-114100000D02*
G75*
G03*
X115880000Y-114100000I-125000J0D01*
G01*
D13*
X112661252Y-112810000D02*
X111938748Y-112810000D01*
X112661252Y-107590000D02*
X111938748Y-107590000D01*
X177246359Y-89720000D02*
X177553641Y-89720000D01*
X177246359Y-90480000D02*
X177553641Y-90480000D01*
X142310000Y-122970000D02*
X148090000Y-122970000D01*
X142310000Y-117350000D02*
X148090000Y-117350000D01*
X148090000Y-116230000D02*
X148090000Y-122970000D01*
X142070000Y-123210000D02*
X142470000Y-123210000D01*
X142310000Y-116230000D02*
X148090000Y-116230000D01*
X142310000Y-116230000D02*
X142310000Y-122970000D01*
X142310000Y-122450000D02*
X148090000Y-122450000D01*
X142070000Y-122570000D02*
X142070000Y-123210000D01*
D18*
X127050000Y-117595000D02*
X128550000Y-117595000D01*
X127050000Y-120005000D02*
X128550000Y-120005000D01*
D10*
X126155000Y-118050000D02*
G75*
G03*
X126155000Y-118050000I-100000J0D01*
G01*
D13*
X134710000Y-113661252D02*
X134710000Y-112938748D01*
X129490000Y-113661252D02*
X129490000Y-112938748D01*
X100040000Y-122970000D02*
X100040000Y-116230000D01*
X105820000Y-122970000D02*
X100040000Y-122970000D01*
X105820000Y-121850000D02*
X100040000Y-121850000D01*
X106060000Y-116630000D02*
X106060000Y-115990000D01*
X105820000Y-122970000D02*
X105820000Y-116230000D01*
X105820000Y-116230000D02*
X100040000Y-116230000D01*
X105820000Y-116750000D02*
X100040000Y-116750000D01*
X106060000Y-115990000D02*
X105660000Y-115990000D01*
X169540000Y-80692164D02*
X169540000Y-80907836D01*
X170260000Y-80692164D02*
X170260000Y-80907836D01*
X180392164Y-116640000D02*
X180607836Y-116640000D01*
X180392164Y-117360000D02*
X180607836Y-117360000D01*
X129890000Y-117761252D02*
X129890000Y-117238748D01*
X132110000Y-117761252D02*
X132110000Y-117238748D01*
D15*
X136375000Y-112075000D02*
G75*
G03*
X136375000Y-112075000I-125000J0D01*
G01*
D13*
X164207836Y-78060000D02*
X163992164Y-78060000D01*
X164207836Y-77340000D02*
X163992164Y-77340000D01*
D15*
X112375000Y-78575000D02*
G75*
G03*
X112375000Y-78575000I-125000J0D01*
G01*
D13*
X174346359Y-89180000D02*
X174653641Y-89180000D01*
X174346359Y-88420000D02*
X174653641Y-88420000D01*
X183570000Y-102720000D02*
X183570000Y-115480000D01*
X183570000Y-101450000D02*
X183570000Y-100120000D01*
X183570000Y-100120000D02*
X184900000Y-100120000D01*
X183570000Y-102720000D02*
X186230000Y-102720000D01*
X183570000Y-115480000D02*
X186230000Y-115480000D01*
X186230000Y-102720000D02*
X186230000Y-115480000D01*
X167707836Y-87360000D02*
X167492164Y-87360000D01*
X167707836Y-86640000D02*
X167492164Y-86640000D01*
X170046359Y-98120000D02*
X170353641Y-98120000D01*
X170046359Y-98880000D02*
X170353641Y-98880000D01*
X140092164Y-113040000D02*
X140307836Y-113040000D01*
X140092164Y-113760000D02*
X140307836Y-113760000D01*
X173930000Y-80000000D02*
X173930000Y-81330000D01*
X173930000Y-81330000D02*
X172600000Y-81330000D01*
X173930000Y-78730000D02*
X173930000Y-76130000D01*
X171270000Y-78730000D02*
X171270000Y-76130000D01*
X173930000Y-78730000D02*
X171270000Y-78730000D01*
X173930000Y-76130000D02*
X171270000Y-76130000D01*
X170260000Y-78907836D02*
X170260000Y-78692164D01*
X169540000Y-78907836D02*
X169540000Y-78692164D01*
D15*
X119855000Y-110575000D02*
G75*
G03*
X119855000Y-110575000I-125000J0D01*
G01*
D13*
X157880000Y-113846359D02*
X157880000Y-114153641D01*
X157120000Y-113846359D02*
X157120000Y-114153641D01*
X161380000Y-113846359D02*
X161380000Y-114153641D01*
X160620000Y-113846359D02*
X160620000Y-114153641D01*
X101100000Y-102730000D02*
X99770000Y-102730000D01*
X102370000Y-102730000D02*
X104970000Y-102730000D01*
X102370000Y-100070000D02*
X104970000Y-100070000D01*
X104970000Y-102730000D02*
X104970000Y-100070000D01*
X99770000Y-102730000D02*
X99770000Y-101400000D01*
X102370000Y-102730000D02*
X102370000Y-100070000D01*
X158295000Y-113856359D02*
X158295000Y-114163641D01*
X159055000Y-113856359D02*
X159055000Y-114163641D01*
X171660000Y-83007836D02*
X171660000Y-82792164D01*
X170940000Y-83007836D02*
X170940000Y-82792164D01*
X172040000Y-83007836D02*
X172040000Y-82792164D01*
X172760000Y-83007836D02*
X172760000Y-82792164D01*
D10*
X153500000Y-98875000D02*
G75*
G03*
X153500000Y-98875000I-100000J0D01*
G01*
D13*
X159470000Y-113846359D02*
X159470000Y-114153641D01*
X160230000Y-113846359D02*
X160230000Y-114153641D01*
D10*
X106900000Y-99500000D02*
X106900000Y-93500000D01*
X106900000Y-93500000D02*
X108900000Y-91500000D01*
X108900000Y-91500000D02*
X112900000Y-91500000D01*
X112900000Y-91500000D02*
X112900000Y-99500000D01*
X112900000Y-99500000D02*
X106900000Y-99500000D01*
X107000000Y-91500000D02*
G75*
G03*
X107000000Y-91500000I-100000J0D01*
G01*
X154950000Y-88000000D02*
X158650000Y-88000000D01*
X153125000Y-87975000D02*
X154600000Y-87975000D01*
X154950000Y-93000000D02*
X154950000Y-88000000D01*
X158650000Y-93000000D02*
X154950000Y-93000000D01*
X158650000Y-88000000D02*
X158650000Y-93000000D01*
D13*
X174356359Y-86930000D02*
X174663641Y-86930000D01*
X174356359Y-87690000D02*
X174663641Y-87690000D01*
D10*
X134250000Y-115850000D02*
X135150000Y-115850000D01*
X135150000Y-115850000D02*
X135150000Y-118750000D01*
X135150000Y-118750000D02*
X134250000Y-118750000D01*
X134250000Y-118750000D02*
X134250000Y-115850000D01*
X132850000Y-115750000D02*
X133900000Y-115750000D01*
D13*
X161042164Y-85940000D02*
X161257836Y-85940000D01*
X161042164Y-86660000D02*
X161257836Y-86660000D01*
X118850000Y-86600000D02*
X118850000Y-89400000D01*
X118850000Y-89400000D02*
X122150000Y-89400000D01*
X178230000Y-76130000D02*
X175570000Y-76130000D01*
X178230000Y-81330000D02*
X176900000Y-81330000D01*
X175570000Y-78730000D02*
X175570000Y-76130000D01*
X178230000Y-78730000D02*
X178230000Y-76130000D01*
X178230000Y-78730000D02*
X175570000Y-78730000D01*
X178230000Y-80000000D02*
X178230000Y-81330000D01*
%LPC*%
D11*
X164675000Y-80300000D02*
G75*
G03*
X164675000Y-80300000I-75000J0D01*
G01*
X167175000Y-80300000D02*
G75*
G03*
X167175000Y-80300000I-75000J0D01*
G01*
X164675000Y-84800000D02*
G75*
G03*
X164675000Y-84800000I-75000J0D01*
G01*
X163675000Y-80800000D02*
G75*
G03*
X163675000Y-80800000I-75000J0D01*
G01*
X162675000Y-81800000D02*
G75*
G03*
X162675000Y-81800000I-75000J0D01*
G01*
X163175000Y-84300000D02*
G75*
G03*
X163175000Y-84300000I-75000J0D01*
G01*
X164675000Y-84300000D02*
G75*
G03*
X164675000Y-84300000I-75000J0D01*
G01*
X162675000Y-84800000D02*
G75*
G03*
X162675000Y-84800000I-75000J0D01*
G01*
X162675000Y-82300000D02*
G75*
G03*
X162675000Y-82300000I-75000J0D01*
G01*
X162675000Y-81300000D02*
G75*
G03*
X162675000Y-81300000I-75000J0D01*
G01*
X167675000Y-80300000D02*
G75*
G03*
X167675000Y-80300000I-75000J0D01*
G01*
X162675000Y-84300000D02*
G75*
G03*
X162675000Y-84300000I-75000J0D01*
G01*
X167675000Y-82800000D02*
G75*
G03*
X167675000Y-82800000I-75000J0D01*
G01*
X162675000Y-80300000D02*
G75*
G03*
X162675000Y-80300000I-75000J0D01*
G01*
X167175000Y-83800000D02*
G75*
G03*
X167175000Y-83800000I-75000J0D01*
G01*
X166675000Y-84300000D02*
G75*
G03*
X166675000Y-84300000I-75000J0D01*
G01*
X167675000Y-83800000D02*
G75*
G03*
X167675000Y-83800000I-75000J0D01*
G01*
X167175000Y-82800000D02*
G75*
G03*
X167175000Y-82800000I-75000J0D01*
G01*
X166675000Y-79800000D02*
G75*
G03*
X166675000Y-79800000I-75000J0D01*
G01*
X163175000Y-83300000D02*
G75*
G03*
X163175000Y-83300000I-75000J0D01*
G01*
X166175000Y-79800000D02*
G75*
G03*
X166175000Y-79800000I-75000J0D01*
G01*
X166675000Y-80300000D02*
G75*
G03*
X166675000Y-80300000I-75000J0D01*
G01*
X167675000Y-83300000D02*
G75*
G03*
X167675000Y-83300000I-75000J0D01*
G01*
X163675000Y-80300000D02*
G75*
G03*
X163675000Y-80300000I-75000J0D01*
G01*
X164175000Y-84800000D02*
G75*
G03*
X164175000Y-84800000I-75000J0D01*
G01*
X165175000Y-80300000D02*
G75*
G03*
X165175000Y-80300000I-75000J0D01*
G01*
X165175000Y-84800000D02*
G75*
G03*
X165175000Y-84800000I-75000J0D01*
G01*
X167175000Y-83300000D02*
G75*
G03*
X167175000Y-83300000I-75000J0D01*
G01*
X167175000Y-84300000D02*
G75*
G03*
X167175000Y-84300000I-75000J0D01*
G01*
X163175000Y-83800000D02*
G75*
G03*
X163175000Y-83800000I-75000J0D01*
G01*
X163675000Y-84800000D02*
G75*
G03*
X163675000Y-84800000I-75000J0D01*
G01*
X162675000Y-83800000D02*
G75*
G03*
X162675000Y-83800000I-75000J0D01*
G01*
X165675000Y-79800000D02*
G75*
G03*
X165675000Y-79800000I-75000J0D01*
G01*
X163175000Y-81800000D02*
G75*
G03*
X163175000Y-81800000I-75000J0D01*
G01*
X167675000Y-84800000D02*
G75*
G03*
X167675000Y-84800000I-75000J0D01*
G01*
X167675000Y-79800000D02*
G75*
G03*
X167675000Y-79800000I-75000J0D01*
G01*
X163175000Y-82800000D02*
G75*
G03*
X163175000Y-82800000I-75000J0D01*
G01*
X165675000Y-84300000D02*
G75*
G03*
X165675000Y-84300000I-75000J0D01*
G01*
X163175000Y-80300000D02*
G75*
G03*
X163175000Y-80300000I-75000J0D01*
G01*
X166175000Y-84800000D02*
G75*
G03*
X166175000Y-84800000I-75000J0D01*
G01*
X167675000Y-80800000D02*
G75*
G03*
X167675000Y-80800000I-75000J0D01*
G01*
X167175000Y-80800000D02*
G75*
G03*
X167175000Y-80800000I-75000J0D01*
G01*
X167675000Y-81800000D02*
G75*
G03*
X167675000Y-81800000I-75000J0D01*
G01*
X162675000Y-82800000D02*
G75*
G03*
X162675000Y-82800000I-75000J0D01*
G01*
X167175000Y-81800000D02*
G75*
G03*
X167175000Y-81800000I-75000J0D01*
G01*
X163175000Y-81300000D02*
G75*
G03*
X163175000Y-81300000I-75000J0D01*
G01*
X164675000Y-79800000D02*
G75*
G03*
X164675000Y-79800000I-75000J0D01*
G01*
X163175000Y-82300000D02*
G75*
G03*
X163175000Y-82300000I-75000J0D01*
G01*
X164175000Y-79800000D02*
G75*
G03*
X164175000Y-79800000I-75000J0D01*
G01*
X165675000Y-80300000D02*
G75*
G03*
X165675000Y-80300000I-75000J0D01*
G01*
X165175000Y-84300000D02*
G75*
G03*
X165175000Y-84300000I-75000J0D01*
G01*
X163675000Y-79800000D02*
G75*
G03*
X163675000Y-79800000I-75000J0D01*
G01*
X167675000Y-82300000D02*
G75*
G03*
X167675000Y-82300000I-75000J0D01*
G01*
X167675000Y-81300000D02*
G75*
G03*
X167675000Y-81300000I-75000J0D01*
G01*
X163175000Y-79800000D02*
G75*
G03*
X163175000Y-79800000I-75000J0D01*
G01*
X167175000Y-79800000D02*
G75*
G03*
X167175000Y-79800000I-75000J0D01*
G01*
X167675000Y-84300000D02*
G75*
G03*
X167675000Y-84300000I-75000J0D01*
G01*
X163675000Y-84300000D02*
G75*
G03*
X163675000Y-84300000I-75000J0D01*
G01*
X164175000Y-80300000D02*
G75*
G03*
X164175000Y-80300000I-75000J0D01*
G01*
X166175000Y-80300000D02*
G75*
G03*
X166175000Y-80300000I-75000J0D01*
G01*
X166175000Y-83800000D02*
G75*
G03*
X166175000Y-83800000I-75000J0D01*
G01*
X167175000Y-81300000D02*
G75*
G03*
X167175000Y-81300000I-75000J0D01*
G01*
X166675000Y-83800000D02*
G75*
G03*
X166675000Y-83800000I-75000J0D01*
G01*
X162675000Y-80800000D02*
G75*
G03*
X162675000Y-80800000I-75000J0D01*
G01*
X163175000Y-84800000D02*
G75*
G03*
X163175000Y-84800000I-75000J0D01*
G01*
X165175000Y-79800000D02*
G75*
G03*
X165175000Y-79800000I-75000J0D01*
G01*
X167175000Y-82300000D02*
G75*
G03*
X167175000Y-82300000I-75000J0D01*
G01*
X164175000Y-84300000D02*
G75*
G03*
X164175000Y-84300000I-75000J0D01*
G01*
X165675000Y-84800000D02*
G75*
G03*
X165675000Y-84800000I-75000J0D01*
G01*
X163175000Y-80800000D02*
G75*
G03*
X163175000Y-80800000I-75000J0D01*
G01*
X162675000Y-83300000D02*
G75*
G03*
X162675000Y-83300000I-75000J0D01*
G01*
D19*
X112575000Y-113975000D03*
X111925000Y-113975000D03*
X111275000Y-113975000D03*
X110625000Y-113975000D03*
X110625000Y-116625000D03*
X111275000Y-116625000D03*
X111925000Y-116625000D03*
X112575000Y-116625000D03*
D20*
X148820000Y-84200000D03*
X149780000Y-84200000D03*
D21*
X120980000Y-93000000D03*
X120020000Y-93000000D03*
D22*
X173990000Y-90000000D03*
X175010000Y-90000000D03*
D20*
X155820000Y-99900000D03*
X156780000Y-99900000D03*
D23*
X184900000Y-77750000D03*
D24*
X184900000Y-80290000D03*
X184900000Y-82830000D03*
X184900000Y-85370000D03*
X184900000Y-87910000D03*
X184900000Y-90450000D03*
D25*
X162525000Y-105000000D03*
D26*
X161000000Y-106475000D03*
X161000000Y-103525000D03*
D27*
X120480000Y-118720000D03*
X120480000Y-119680000D03*
D23*
X177300000Y-97275000D03*
D24*
X177300000Y-94735000D03*
X179840000Y-97275000D03*
X179840000Y-94735000D03*
X182380000Y-97275000D03*
X182380000Y-94735000D03*
X184920000Y-97275000D03*
X184920000Y-94735000D03*
D28*
X162200000Y-113490000D03*
X162200000Y-114510000D03*
D29*
X168150000Y-117150000D03*
X177250000Y-117150000D03*
X168150000Y-121650000D03*
X177250000Y-121650000D03*
D20*
X176920000Y-87300000D03*
X177880000Y-87300000D03*
D23*
X103650000Y-87400000D03*
D24*
X101110000Y-87400000D03*
D21*
X165180000Y-120400000D03*
X164220000Y-120400000D03*
D23*
X155900000Y-81400000D03*
D24*
X153360000Y-81400000D03*
D30*
X163050000Y-90950000D03*
X163050000Y-91600000D03*
X163050000Y-92250000D03*
X165150000Y-92250000D03*
X165150000Y-91600000D03*
X165150000Y-90950000D03*
D31*
X164100000Y-91600000D03*
D23*
X101100000Y-92400000D03*
D24*
X103640000Y-92400000D03*
D32*
X170100000Y-84380000D03*
X170100000Y-83420000D03*
D27*
X116000000Y-112620000D03*
X116000000Y-113580000D03*
D33*
X112680000Y-121000000D03*
X112280000Y-121000000D03*
X111880000Y-121000000D03*
X112680000Y-120600000D03*
X112280000Y-120600000D03*
X111880000Y-120600000D03*
X112680000Y-120200000D03*
X112280000Y-120200000D03*
X111880000Y-120200000D03*
D34*
X125762000Y-84450000D03*
X125762000Y-84950000D03*
X125762000Y-85450000D03*
X125762000Y-85950000D03*
X125762000Y-86450000D03*
X125762000Y-86950000D03*
X125762000Y-87450000D03*
X125762000Y-87950000D03*
X125762000Y-88450000D03*
X125762000Y-88950000D03*
X125762000Y-89450000D03*
X125762000Y-89950000D03*
X125762000Y-90450000D03*
X125762000Y-90950000D03*
X125762000Y-91450000D03*
X125762000Y-91950000D03*
X125762000Y-92450000D03*
X125762000Y-92950000D03*
X125762000Y-93450000D03*
X125762000Y-93950000D03*
X125762000Y-94450000D03*
X125762000Y-94950000D03*
X125762000Y-95450000D03*
X125762000Y-95950000D03*
X125762000Y-96450000D03*
X125762000Y-96950000D03*
X125762000Y-97450000D03*
X125762000Y-97950000D03*
X125762000Y-98450000D03*
X125762000Y-98950000D03*
X125762000Y-99450000D03*
X125762000Y-99950000D03*
X125762000Y-100450000D03*
X125762000Y-100950000D03*
X125762000Y-101450000D03*
X125762000Y-101950000D03*
D35*
X127750000Y-103938000D03*
X128250000Y-103938000D03*
X128750000Y-103938000D03*
X129250000Y-103938000D03*
X129750000Y-103938000D03*
X130250000Y-103938000D03*
X130750000Y-103938000D03*
X131250000Y-103938000D03*
X131750000Y-103938000D03*
X132250000Y-103938000D03*
X132750000Y-103938000D03*
X133250000Y-103938000D03*
X133750000Y-103938000D03*
X134250000Y-103938000D03*
X134750000Y-103938000D03*
X135250000Y-103938000D03*
X135750000Y-103938000D03*
X136250000Y-103938000D03*
X136750000Y-103938000D03*
X137250000Y-103938000D03*
X137750000Y-103938000D03*
X138250000Y-103938000D03*
X138750000Y-103938000D03*
X139250000Y-103938000D03*
X139750000Y-103938000D03*
X140250000Y-103938000D03*
X140750000Y-103938000D03*
X141250000Y-103938000D03*
X141750000Y-103938000D03*
X142250000Y-103938000D03*
X142750000Y-103938000D03*
X143250000Y-103938000D03*
X143750000Y-103938000D03*
X144250000Y-103938000D03*
X144750000Y-103938000D03*
X145250000Y-103938000D03*
D34*
X147238000Y-101950000D03*
X147238000Y-101450000D03*
X147238000Y-100950000D03*
X147238000Y-100450000D03*
X147238000Y-99950000D03*
X147238000Y-99450000D03*
X147238000Y-98950000D03*
X147238000Y-98450000D03*
X147238000Y-97950000D03*
X147238000Y-97450000D03*
X147238000Y-96950000D03*
X147238000Y-96450000D03*
X147238000Y-95950000D03*
X147238000Y-95450000D03*
X147238000Y-94950000D03*
X147238000Y-94450000D03*
X147238000Y-93950000D03*
X147238000Y-93450000D03*
X147238000Y-92950000D03*
X147238000Y-92450000D03*
X147238000Y-91950000D03*
X147238000Y-91450000D03*
X147238000Y-90950000D03*
X147238000Y-90450000D03*
X147238000Y-89950000D03*
X147238000Y-89450000D03*
X147238000Y-88950000D03*
X147238000Y-88450000D03*
X147238000Y-87950000D03*
X147238000Y-87450000D03*
X147238000Y-86950000D03*
X147238000Y-86450000D03*
X147238000Y-85950000D03*
X147238000Y-85450000D03*
X147238000Y-84950000D03*
X147238000Y-84450000D03*
D35*
X145250000Y-82462000D03*
X144750000Y-82462000D03*
X144250000Y-82462000D03*
X143750000Y-82462000D03*
X143250000Y-82462000D03*
X142750000Y-82462000D03*
X142250000Y-82462000D03*
X141750000Y-82462000D03*
X141250000Y-82462000D03*
X140750000Y-82462000D03*
X140250000Y-82462000D03*
X139750000Y-82462000D03*
X139250000Y-82462000D03*
X138750000Y-82462000D03*
X138250000Y-82462000D03*
X137750000Y-82462000D03*
X137250000Y-82462000D03*
X136750000Y-82462000D03*
X136250000Y-82462000D03*
X135750000Y-82462000D03*
X135250000Y-82462000D03*
X134750000Y-82462000D03*
X134250000Y-82462000D03*
X133750000Y-82462000D03*
X133250000Y-82462000D03*
X132750000Y-82462000D03*
X132250000Y-82462000D03*
X131750000Y-82462000D03*
X131250000Y-82462000D03*
X130750000Y-82462000D03*
X130250000Y-82462000D03*
X129750000Y-82462000D03*
X129250000Y-82462000D03*
X128750000Y-82462000D03*
X128250000Y-82462000D03*
X127750000Y-82462000D03*
D22*
X176910000Y-85320000D03*
X177930000Y-85320000D03*
D20*
X176910000Y-88790000D03*
X177870000Y-88790000D03*
X111300000Y-118100000D03*
X112260000Y-118100000D03*
D27*
X140000000Y-105520000D03*
X140000000Y-106480000D03*
D23*
X108850000Y-75350000D03*
D24*
X108850000Y-72810000D03*
X111390000Y-75350000D03*
X111390000Y-72810000D03*
X113930000Y-75350000D03*
X113930000Y-72810000D03*
X116470000Y-75350000D03*
X116470000Y-72810000D03*
X119010000Y-75350000D03*
X119010000Y-72810000D03*
X121550000Y-75350000D03*
X121550000Y-72810000D03*
X124090000Y-75350000D03*
X124090000Y-72810000D03*
X126630000Y-75350000D03*
X126630000Y-72810000D03*
X129170000Y-75350000D03*
X129170000Y-72810000D03*
D36*
X110285000Y-104150000D03*
X110285000Y-103650000D03*
X110285000Y-103150000D03*
X110285000Y-102650000D03*
X107915000Y-102650000D03*
X107915000Y-103150000D03*
X107915000Y-103650000D03*
X107915000Y-104150000D03*
D37*
X109100000Y-103400000D03*
D27*
X144200000Y-105520000D03*
X144200000Y-106480000D03*
D32*
X139200000Y-80880000D03*
X139200000Y-79920000D03*
D38*
X147000000Y-73850000D03*
D39*
X147000000Y-72580000D03*
X148270000Y-73850000D03*
X148270000Y-72580000D03*
X149540000Y-73850000D03*
X149540000Y-72580000D03*
X150810000Y-73850000D03*
X150810000Y-72580000D03*
X152080000Y-73850000D03*
X152080000Y-72580000D03*
X153350000Y-73850000D03*
X153350000Y-72580000D03*
X154620000Y-73850000D03*
X154620000Y-72580000D03*
D23*
X134700000Y-72800000D03*
D24*
X137240000Y-72800000D03*
X139780000Y-72800000D03*
X142320000Y-72800000D03*
D22*
X174000000Y-85320000D03*
X175020000Y-85320000D03*
D29*
X160550000Y-121650000D03*
X151450000Y-121650000D03*
X160550000Y-117150000D03*
X151450000Y-117150000D03*
D27*
X114900000Y-112620000D03*
X114900000Y-113580000D03*
D40*
X180300000Y-100700000D03*
X179200000Y-100700000D03*
X178100000Y-100700000D03*
X177000000Y-100700000D03*
X175900000Y-100700000D03*
X174800000Y-100700000D03*
X173700000Y-100700000D03*
X170700000Y-100700000D03*
X169600000Y-100700000D03*
X168500000Y-100700000D03*
X167400000Y-100700000D03*
X166300000Y-100700000D03*
X166300000Y-112900000D03*
X167400000Y-112900000D03*
X168500000Y-112900000D03*
X169600000Y-112900000D03*
X170700000Y-112900000D03*
X173700000Y-112900000D03*
X174800000Y-112900000D03*
X175900000Y-112900000D03*
X177000000Y-112900000D03*
X178100000Y-112900000D03*
X179200000Y-112900000D03*
X180300000Y-112900000D03*
D23*
X155875000Y-77400000D03*
D24*
X153335000Y-77400000D03*
D21*
X158880000Y-95500000D03*
X157920000Y-95500000D03*
D23*
X160860000Y-72800000D03*
D24*
X163400000Y-72800000D03*
X165940000Y-72800000D03*
X168480000Y-72800000D03*
X171020000Y-72800000D03*
X173560000Y-72800000D03*
X176100000Y-72800000D03*
X178640000Y-72800000D03*
X181180000Y-72800000D03*
X183720000Y-72800000D03*
D27*
X145300000Y-105520000D03*
X145300000Y-106480000D03*
D20*
X164220000Y-121600000D03*
X165180000Y-121600000D03*
D28*
X163400000Y-113490000D03*
X163400000Y-114510000D03*
D23*
X101475000Y-108000000D03*
D24*
X104015000Y-108000000D03*
X106555000Y-108000000D03*
D41*
X114400000Y-87505000D03*
X114400000Y-86235000D03*
X114400000Y-84965000D03*
X114400000Y-83695000D03*
X106600000Y-83695000D03*
X106600000Y-84965000D03*
X106600000Y-86235000D03*
X106600000Y-87505000D03*
D42*
X110500000Y-85600000D03*
D32*
X134200000Y-80880000D03*
X134200000Y-79920000D03*
D43*
X119625000Y-96200000D03*
X121375000Y-96200000D03*
X121375000Y-94800000D03*
X119625000Y-94800000D03*
D44*
X121280000Y-114725000D03*
X121280000Y-116875000D03*
D27*
X135250000Y-105520000D03*
X135250000Y-106480000D03*
D20*
X116120000Y-80700000D03*
X117080000Y-80700000D03*
X180020000Y-115800000D03*
X180980000Y-115800000D03*
D23*
X159300000Y-99600000D03*
D24*
X161840000Y-99600000D03*
D45*
X116080000Y-114750000D03*
X116080000Y-115250000D03*
X116080000Y-115750000D03*
X116080000Y-116250000D03*
X116080000Y-116750000D03*
X116080000Y-117250000D03*
X118880000Y-117250000D03*
X118880000Y-116750000D03*
X118880000Y-116250000D03*
X118880000Y-115750000D03*
X118880000Y-115250000D03*
X118880000Y-114750000D03*
D46*
X117480000Y-116000000D03*
D47*
X113425000Y-110200000D03*
X111175000Y-110200000D03*
D21*
X103580000Y-84900000D03*
X102620000Y-84900000D03*
X125680000Y-119600000D03*
X124720000Y-119600000D03*
D22*
X176890000Y-90100000D03*
X177910000Y-90100000D03*
D48*
X143930000Y-119600000D03*
D49*
X146470000Y-119600000D03*
D50*
X127115000Y-118050000D03*
X127115000Y-118550000D03*
X127115000Y-119050000D03*
X127115000Y-119550000D03*
X128485000Y-119550000D03*
X128485000Y-119050000D03*
X128485000Y-118550000D03*
X128485000Y-118050000D03*
D32*
X107600000Y-122880000D03*
X107600000Y-121920000D03*
D51*
X132100000Y-114425000D03*
X132100000Y-112175000D03*
D21*
X128480000Y-114400000D03*
X127520000Y-114400000D03*
D48*
X104200000Y-119600000D03*
D49*
X101660000Y-119600000D03*
D27*
X169900000Y-80320000D03*
X169900000Y-81280000D03*
D20*
X180020000Y-117000000D03*
X180980000Y-117000000D03*
D21*
X104680000Y-105200000D03*
X103720000Y-105200000D03*
X123980000Y-92500000D03*
X123020000Y-92500000D03*
X104680000Y-103900000D03*
X103720000Y-103900000D03*
X105080000Y-96650000D03*
X104120000Y-96650000D03*
D52*
X131000000Y-118575000D03*
X131000000Y-116425000D03*
D30*
X136550000Y-112750000D03*
X136550000Y-113400000D03*
X136550000Y-114050000D03*
X138650000Y-114050000D03*
X138650000Y-113400000D03*
X138650000Y-112750000D03*
D31*
X137600000Y-113400000D03*
D21*
X164580000Y-77700000D03*
X163620000Y-77700000D03*
D30*
X112550000Y-79250000D03*
X112550000Y-79900000D03*
X112550000Y-80550000D03*
X114650000Y-80550000D03*
X114650000Y-79900000D03*
X114650000Y-79250000D03*
D31*
X113600000Y-79900000D03*
D20*
X148820000Y-96500000D03*
X149780000Y-96500000D03*
D22*
X173990000Y-88800000D03*
X175010000Y-88800000D03*
D21*
X105080000Y-97900000D03*
X104120000Y-97900000D03*
D23*
X184900000Y-101450000D03*
D24*
X184900000Y-103990000D03*
X184900000Y-106530000D03*
X184900000Y-109070000D03*
X184900000Y-111610000D03*
X184900000Y-114150000D03*
D21*
X168080000Y-87000000D03*
X167120000Y-87000000D03*
D22*
X169690000Y-98500000D03*
X170710000Y-98500000D03*
D20*
X139720000Y-113400000D03*
X140680000Y-113400000D03*
D23*
X172600000Y-80000000D03*
D24*
X172600000Y-77460000D03*
D21*
X128460000Y-115700000D03*
X127500000Y-115700000D03*
D32*
X169900000Y-79280000D03*
X169900000Y-78320000D03*
D30*
X120030000Y-111250000D03*
X120030000Y-111900000D03*
X120030000Y-112550000D03*
X122130000Y-112550000D03*
X122130000Y-111900000D03*
X122130000Y-111250000D03*
D31*
X121080000Y-111900000D03*
D28*
X157500000Y-113490000D03*
X157500000Y-114510000D03*
D21*
X105080000Y-95400000D03*
X104120000Y-95400000D03*
D20*
X120020000Y-98000000D03*
X120980000Y-98000000D03*
D28*
X161000000Y-113490000D03*
X161000000Y-114510000D03*
D32*
X127500000Y-80880000D03*
X127500000Y-79920000D03*
D21*
X123980000Y-87000000D03*
X123020000Y-87000000D03*
D23*
X101100000Y-101400000D03*
D24*
X103640000Y-101400000D03*
D28*
X158675000Y-113500000D03*
X158675000Y-114520000D03*
D20*
X156520000Y-87000000D03*
X157480000Y-87000000D03*
D32*
X171300000Y-83380000D03*
X171300000Y-82420000D03*
D21*
X120980000Y-85500000D03*
X120020000Y-85500000D03*
D20*
X148820000Y-85300000D03*
X149780000Y-85300000D03*
D32*
X172400000Y-83380000D03*
X172400000Y-82420000D03*
D53*
X154000000Y-98500000D03*
X154400000Y-98500000D03*
X154800000Y-98500000D03*
X155200000Y-98500000D03*
X155600000Y-98500000D03*
X156000000Y-98500000D03*
D54*
X156500000Y-98000000D03*
X156500000Y-97600000D03*
X156500000Y-97200000D03*
X156500000Y-96800000D03*
X156500000Y-96400000D03*
X156500000Y-96000000D03*
D53*
X156000000Y-95500000D03*
X155600000Y-95500000D03*
X155200000Y-95500000D03*
X154800000Y-95500000D03*
X154400000Y-95500000D03*
X154000000Y-95500000D03*
D54*
X153500000Y-96000000D03*
X153500000Y-96400000D03*
X153500000Y-96800000D03*
X153500000Y-97200000D03*
X153500000Y-97600000D03*
X153500000Y-98000000D03*
D55*
X155000000Y-97000000D03*
D28*
X159850000Y-113490000D03*
X159850000Y-114510000D03*
D56*
X108900000Y-93500000D03*
X109900000Y-93500000D03*
X110900000Y-93500000D03*
X111900000Y-93500000D03*
X107900000Y-94500000D03*
X108900000Y-94500000D03*
X109900000Y-94500000D03*
X110900000Y-94500000D03*
X111900000Y-94500000D03*
X107900000Y-95500000D03*
X108900000Y-95500000D03*
X109900000Y-95500000D03*
X110900000Y-95500000D03*
X111900000Y-95500000D03*
X107900000Y-96500000D03*
X108900000Y-96500000D03*
X109900000Y-96500000D03*
X110900000Y-96500000D03*
X111900000Y-96500000D03*
X107900000Y-97500000D03*
X108900000Y-97500000D03*
X109900000Y-97500000D03*
X110900000Y-97500000D03*
X111900000Y-97500000D03*
D20*
X120020000Y-90500000D03*
X120980000Y-90500000D03*
D57*
X153862000Y-88550000D03*
X153862000Y-89200000D03*
X153862000Y-89850000D03*
X153862000Y-90500000D03*
X153862000Y-91150000D03*
X153862000Y-91800000D03*
X153862000Y-92450000D03*
X159738000Y-92450000D03*
X159738000Y-91800000D03*
X159738000Y-91150000D03*
X159738000Y-90500000D03*
X159738000Y-89850000D03*
X159738000Y-89200000D03*
X159738000Y-88550000D03*
D22*
X174000000Y-87310000D03*
X175020000Y-87310000D03*
D20*
X157920000Y-96800000D03*
X158880000Y-96800000D03*
D58*
X133375000Y-116325000D03*
X133375000Y-116975000D03*
X133375000Y-117625000D03*
X133375000Y-118275000D03*
X136025000Y-118275000D03*
X136025000Y-117625000D03*
X136025000Y-116975000D03*
X136025000Y-116325000D03*
D27*
X118080000Y-118720000D03*
X118080000Y-119680000D03*
D20*
X160670000Y-86300000D03*
X161630000Y-86300000D03*
D43*
X119625000Y-88700000D03*
X121375000Y-88700000D03*
X121375000Y-87300000D03*
X119625000Y-87300000D03*
D27*
X119280000Y-118720000D03*
X119280000Y-119680000D03*
D23*
X176900000Y-80000000D03*
D24*
X176900000Y-77460000D03*
D27*
X128500000Y-105540000D03*
X128500000Y-106500000D03*
M02*
