G04 #@! TF.GenerationSoftware,KiCad,Pcbnew,(6.0.1)*
G04 #@! TF.CreationDate,2023-03-29T19:48:02-04:00*
G04 #@! TF.ProjectId,OBCProto,4f424350-726f-4746-9f2e-6b696361645f,rev?*
G04 #@! TF.SameCoordinates,Original*
G04 #@! TF.FileFunction,Soldermask,Bot*
G04 #@! TF.FilePolarity,Negative*
%FSLAX46Y46*%
G04 Gerber Fmt 4.6, Leading zero omitted, Abs format (unit mm)*
G04 Created by KiCad (PCBNEW (6.0.1)) date 2023-03-29 19:48:02*
%MOMM*%
%LPD*%
G01*
G04 APERTURE LIST*
%ADD10R,1.700000X1.700000*%
%ADD11O,1.700000X1.700000*%
%ADD12R,1.000000X1.000000*%
%ADD13O,1.000000X1.000000*%
%ADD14R,2.100000X2.100000*%
%ADD15C,2.100000*%
%ADD16R,2.000000X2.000000*%
%ADD17R,1.500000X1.500000*%
G04 APERTURE END LIST*
D10*
X184900000Y-77750000D03*
D11*
X184900000Y-80290000D03*
X184900000Y-82830000D03*
X184900000Y-85370000D03*
X184900000Y-87910000D03*
X184900000Y-90450000D03*
D10*
X177300000Y-97275000D03*
D11*
X177300000Y-94735000D03*
X179840000Y-97275000D03*
X179840000Y-94735000D03*
X182380000Y-97275000D03*
X182380000Y-94735000D03*
X184920000Y-97275000D03*
X184920000Y-94735000D03*
D10*
X103650000Y-87400000D03*
D11*
X101110000Y-87400000D03*
D10*
X155900000Y-81400000D03*
D11*
X153360000Y-81400000D03*
D10*
X101100000Y-92400000D03*
D11*
X103640000Y-92400000D03*
D10*
X108850000Y-75350000D03*
D11*
X108850000Y-72810000D03*
X111390000Y-75350000D03*
X111390000Y-72810000D03*
X113930000Y-75350000D03*
X113930000Y-72810000D03*
X116470000Y-75350000D03*
X116470000Y-72810000D03*
X119010000Y-75350000D03*
X119010000Y-72810000D03*
X121550000Y-75350000D03*
X121550000Y-72810000D03*
X124090000Y-75350000D03*
X124090000Y-72810000D03*
X126630000Y-75350000D03*
X126630000Y-72810000D03*
X129170000Y-75350000D03*
X129170000Y-72810000D03*
D12*
X147000000Y-73850000D03*
D13*
X147000000Y-72580000D03*
X148270000Y-73850000D03*
X148270000Y-72580000D03*
X149540000Y-73850000D03*
X149540000Y-72580000D03*
X150810000Y-73850000D03*
X150810000Y-72580000D03*
X152080000Y-73850000D03*
X152080000Y-72580000D03*
X153350000Y-73850000D03*
X153350000Y-72580000D03*
X154620000Y-73850000D03*
X154620000Y-72580000D03*
D10*
X134700000Y-72800000D03*
D11*
X137240000Y-72800000D03*
X139780000Y-72800000D03*
X142320000Y-72800000D03*
D10*
X155875000Y-77400000D03*
D11*
X153335000Y-77400000D03*
D10*
X160860000Y-72800000D03*
D11*
X163400000Y-72800000D03*
X165940000Y-72800000D03*
X168480000Y-72800000D03*
X171020000Y-72800000D03*
X173560000Y-72800000D03*
X176100000Y-72800000D03*
X178640000Y-72800000D03*
X181180000Y-72800000D03*
X183720000Y-72800000D03*
D10*
X101475000Y-108000000D03*
D11*
X104015000Y-108000000D03*
X106555000Y-108000000D03*
D10*
X159300000Y-99600000D03*
D11*
X161840000Y-99600000D03*
D14*
X143930000Y-119600000D03*
D15*
X146470000Y-119600000D03*
D14*
X104200000Y-119600000D03*
D15*
X101660000Y-119600000D03*
D10*
X184900000Y-101450000D03*
D11*
X184900000Y-103990000D03*
X184900000Y-106530000D03*
X184900000Y-109070000D03*
X184900000Y-111610000D03*
X184900000Y-114150000D03*
D10*
X172600000Y-80000000D03*
D11*
X172600000Y-77460000D03*
D10*
X101100000Y-101400000D03*
D11*
X103640000Y-101400000D03*
D10*
X176900000Y-80000000D03*
D11*
X176900000Y-77460000D03*
D16*
X159000000Y-121800000D03*
X159000000Y-118700000D03*
D12*
X114400000Y-116400000D03*
D16*
X165100000Y-88000000D03*
D17*
X176100000Y-103500000D03*
D16*
X151300000Y-94700000D03*
X155900000Y-118700000D03*
X155900000Y-121800000D03*
D17*
X172550000Y-103500000D03*
D16*
X169050000Y-88000000D03*
D12*
X134900000Y-115100000D03*
D16*
X162100000Y-121800000D03*
X161150000Y-88000000D03*
X162100000Y-118700000D03*
M02*
