%FSLAX45Y45*%
G04 Gerber Fmt 4.5, Leading zero omitted, Abs format (unit mm)*
G04 Created by KiCad (PCBNEW (6.0.1)) date 2023-03-29 19:48:18*
%MOMM*%
%LPD*%
G01*
G04 APERTURE LIST*
%TA.AperFunction,Profile*%
%ADD10C,0.100000*%
%TD*%
%ADD11C,0.200000*%
%ADD12C,0.020000*%
%ADD13C,0.030000*%
%ADD14C,0.065000*%
%ADD15C,0.100000*%
%ADD16C,0.110000*%
G04 APERTURE END LIST*
D10*
X18700000Y-12100000D02*
X18700000Y-12300000D01*
X18700000Y-12400000D02*
X9800000Y-12400000D01*
X9800000Y-12400000D02*
X9800000Y-7000000D01*
X18700000Y-7000000D02*
X18700000Y-12100000D01*
X18700000Y-12300000D02*
X18700000Y-12400000D01*
X9800000Y-7000000D02*
X18700000Y-7000000D01*
D11*
D12*
X10842830Y-9602830D02*
X10862830Y-9622830D01*
X10862830Y-9602830D02*
X10842830Y-9622830D01*
X10947520Y-9131850D02*
X10967520Y-9151850D01*
X10967520Y-9131850D02*
X10947520Y-9151850D01*
X10960000Y-9480000D02*
X10980000Y-9500000D01*
X10980000Y-9480000D02*
X10960000Y-9500000D01*
X11000000Y-11600000D02*
X11020000Y-11620000D01*
X11020000Y-11600000D02*
X11000000Y-11620000D01*
X11023730Y-9836600D02*
X11043730Y-9856600D01*
X11043730Y-9836600D02*
X11023730Y-9856600D01*
X11048290Y-9483920D02*
X11068290Y-9503920D01*
X11068290Y-9483920D02*
X11048290Y-9503920D01*
X11050000Y-11550000D02*
X11070000Y-11570000D01*
X11070000Y-11550000D02*
X11050000Y-11570000D01*
X11125130Y-9861060D02*
X11145130Y-9881060D01*
X11145130Y-9861060D02*
X11125130Y-9881060D01*
X11174900Y-8841530D02*
X11194900Y-8861530D01*
X11194900Y-8841530D02*
X11174900Y-8861530D01*
X11192190Y-8088500D02*
X11212190Y-8108500D01*
X11212190Y-8088500D02*
X11192190Y-8108500D01*
X11200000Y-10250000D02*
X11220000Y-10270000D01*
X11220000Y-10250000D02*
X11200000Y-10270000D01*
X11206800Y-9793670D02*
X11226800Y-9813670D01*
X11226800Y-9793670D02*
X11206800Y-9813670D01*
X11232110Y-8192420D02*
X11252110Y-8212420D01*
X11252110Y-8192420D02*
X11232110Y-8212420D01*
X11234380Y-9947010D02*
X11254380Y-9967010D01*
X11254380Y-9947010D02*
X11234380Y-9967010D01*
X11236850Y-9000970D02*
X11256850Y-9020970D01*
X11256850Y-9000970D02*
X11236850Y-9020970D01*
X11330000Y-11670000D02*
X11350000Y-11690000D01*
X11350000Y-11670000D02*
X11330000Y-11690000D01*
X11457880Y-8101870D02*
X11477880Y-8121870D01*
X11477880Y-8101870D02*
X11457880Y-8121870D01*
X11460000Y-11130000D02*
X11480000Y-11150000D01*
X11480000Y-11130000D02*
X11460000Y-11150000D01*
X11520000Y-11160000D02*
X11540000Y-11180000D01*
X11540000Y-11160000D02*
X11520000Y-11180000D01*
X11520750Y-7918790D02*
X11540750Y-7938790D01*
X11540750Y-7918790D02*
X11520750Y-7938790D01*
X11536300Y-10249370D02*
X11556300Y-10269370D01*
X11556300Y-10249370D02*
X11536300Y-10269370D01*
X11539340Y-7992650D02*
X11559340Y-8012650D01*
X11559340Y-7992650D02*
X11539340Y-8012650D01*
X11584390Y-9755160D02*
X11604390Y-9775160D01*
X11604390Y-9755160D02*
X11584390Y-9775160D01*
X11660380Y-10355000D02*
X11680380Y-10375000D01*
X11680380Y-10355000D02*
X11660380Y-10375000D01*
X11663980Y-7737100D02*
X11683980Y-7757100D01*
X11683980Y-7737100D02*
X11663980Y-7757100D01*
X11700880Y-8970550D02*
X11720880Y-8990550D01*
X11720880Y-8970550D02*
X11700880Y-8990550D01*
X11740730Y-9903870D02*
X11760730Y-9923870D01*
X11760730Y-9903870D02*
X11740730Y-9923870D01*
X11768780Y-11245000D02*
X11788780Y-11265000D01*
X11788780Y-11245000D02*
X11768780Y-11265000D01*
X11811190Y-8407040D02*
X11831190Y-8427040D01*
X11831190Y-8407040D02*
X11811190Y-8427040D01*
X11852010Y-9184910D02*
X11872010Y-9204910D01*
X11872010Y-9184910D02*
X11852010Y-9204910D01*
X11865770Y-11146080D02*
X11885770Y-11166080D01*
X11885770Y-11146080D02*
X11865770Y-11166080D01*
X11891650Y-10230290D02*
X11911650Y-10250290D01*
X11911650Y-10230290D02*
X11891650Y-10250290D01*
X11911700Y-8309690D02*
X11931700Y-8329690D01*
X11931700Y-8309690D02*
X11911700Y-8329690D01*
X12183680Y-10179970D02*
X12203680Y-10199970D01*
X12203680Y-10179970D02*
X12183680Y-10199970D01*
X12223720Y-8685280D02*
X12243720Y-8705280D01*
X12243720Y-8685280D02*
X12223720Y-8705280D01*
X12227980Y-9290940D02*
X12247980Y-9310940D01*
X12247980Y-9290940D02*
X12227980Y-9310940D01*
X12254280Y-9983840D02*
X12274280Y-10003840D01*
X12274280Y-9983840D02*
X12254280Y-10003840D01*
X12257880Y-9131850D02*
X12277880Y-9151850D01*
X12277880Y-9131850D02*
X12257880Y-9151850D01*
X12265970Y-11104840D02*
X12285970Y-11124840D01*
X12285970Y-11104840D02*
X12265970Y-11124840D01*
X12267150Y-11254280D02*
X12287150Y-11274280D01*
X12287150Y-11254280D02*
X12267150Y-11274280D01*
X12287320Y-9319440D02*
X12307320Y-9339440D01*
X12307320Y-9319440D02*
X12287320Y-9339440D01*
X12291270Y-7091720D02*
X12311270Y-7111720D01*
X12311270Y-7091720D02*
X12291270Y-7111720D01*
X12294250Y-7198730D02*
X12314250Y-7218730D01*
X12314250Y-7198730D02*
X12294250Y-7218730D01*
X12295000Y-11181760D02*
X12315000Y-11201760D01*
X12315000Y-11181760D02*
X12295000Y-11201760D01*
X12346330Y-7386350D02*
X12366330Y-7406350D01*
X12366330Y-7386350D02*
X12346330Y-7406350D01*
X12362820Y-9832620D02*
X12382820Y-9852620D01*
X12382820Y-9832620D02*
X12362820Y-9852620D01*
X12384330Y-8929360D02*
X12404330Y-8949360D01*
X12404330Y-8929360D02*
X12384330Y-8949360D01*
X12392670Y-8585000D02*
X12412670Y-8605000D01*
X12412670Y-8585000D02*
X12392670Y-8605000D01*
X12412640Y-9349220D02*
X12432640Y-9369220D01*
X12432640Y-9349220D02*
X12412640Y-9369220D01*
X12413430Y-10034030D02*
X12433430Y-10054030D01*
X12433430Y-10034030D02*
X12413430Y-10054030D01*
X12421690Y-8966720D02*
X12441690Y-8986720D01*
X12441690Y-8966720D02*
X12421690Y-8986720D01*
X12425920Y-9416420D02*
X12445920Y-9436420D01*
X12445920Y-9416420D02*
X12425920Y-9436420D01*
X12444160Y-9174660D02*
X12464160Y-9194660D01*
X12464160Y-9174660D02*
X12444160Y-9194660D01*
X12447760Y-9875030D02*
X12467760Y-9895030D01*
X12467760Y-9875030D02*
X12447760Y-9895030D01*
X12454250Y-8639330D02*
X12474250Y-8659330D01*
X12474250Y-8639330D02*
X12454250Y-8659330D01*
X12454250Y-9245000D02*
X12474250Y-9265000D01*
X12474250Y-9245000D02*
X12454250Y-9265000D01*
X12457250Y-9005850D02*
X12477250Y-9025850D01*
X12477250Y-9005850D02*
X12457250Y-9025850D01*
X12458410Y-8498630D02*
X12478410Y-8518630D01*
X12478410Y-8498630D02*
X12458410Y-8518630D01*
X12557660Y-8005870D02*
X12577660Y-8025870D01*
X12577660Y-8005870D02*
X12557660Y-8025870D01*
X12559020Y-8253160D02*
X12579020Y-8273160D01*
X12579020Y-8253160D02*
X12559020Y-8273160D01*
X12637580Y-11074970D02*
X12657580Y-11094970D01*
X12657580Y-11074970D02*
X12637580Y-11094970D01*
X12652610Y-8238030D02*
X12672610Y-8258030D01*
X12672610Y-8238030D02*
X12652610Y-8258030D01*
X12673120Y-9461240D02*
X12693120Y-9481240D01*
X12693120Y-9461240D02*
X12673120Y-9481240D01*
X12675090Y-9025620D02*
X12695090Y-9045620D01*
X12695090Y-9025620D02*
X12675090Y-9045620D01*
X12679730Y-8752040D02*
X12699730Y-8772040D01*
X12699730Y-8752040D02*
X12679730Y-8772040D01*
X12699610Y-8699220D02*
X12719610Y-8719220D01*
X12719610Y-8699220D02*
X12699610Y-8719220D01*
X12699950Y-9363360D02*
X12719950Y-9383360D01*
X12719950Y-9363360D02*
X12699950Y-9383360D01*
X12700100Y-9726970D02*
X12720100Y-9746970D01*
X12720100Y-9726970D02*
X12700100Y-9746970D01*
X12702670Y-9673390D02*
X12722670Y-9693390D01*
X12722670Y-9673390D02*
X12702670Y-9693390D01*
X12702960Y-9416180D02*
X12722960Y-9436180D01*
X12722960Y-9416180D02*
X12702960Y-9436180D01*
X12706960Y-10508370D02*
X12726960Y-10528370D01*
X12726960Y-10508370D02*
X12706960Y-10528370D01*
X12715300Y-9308770D02*
X12735300Y-9328770D01*
X12735300Y-9308770D02*
X12715300Y-9328770D01*
X12758970Y-10167870D02*
X12778970Y-10187870D01*
X12778970Y-10167870D02*
X12758970Y-10187870D01*
X12786650Y-9324160D02*
X12806650Y-9344160D01*
X12806650Y-9324160D02*
X12786650Y-9344160D01*
X12812380Y-9635000D02*
X12832380Y-9655000D01*
X12832380Y-9635000D02*
X12812380Y-9655000D01*
X12852570Y-8486700D02*
X12872570Y-8506700D01*
X12872570Y-8486700D02*
X12852570Y-8506700D01*
X12859390Y-8663580D02*
X12879390Y-8683580D01*
X12879390Y-8663580D02*
X12859390Y-8683580D01*
X12860000Y-11330000D02*
X12880000Y-11350000D01*
X12880000Y-11330000D02*
X12860000Y-11350000D01*
X12911370Y-10538070D02*
X12931370Y-10558070D01*
X12931370Y-10538070D02*
X12911370Y-10558070D01*
X12930000Y-11920000D02*
X12950000Y-11940000D01*
X12950000Y-11920000D02*
X12930000Y-11940000D01*
X12952090Y-8881570D02*
X12972090Y-8901570D01*
X12972090Y-8881570D02*
X12952090Y-8901570D01*
X12966880Y-10526220D02*
X12986880Y-10546220D01*
X12986880Y-10526220D02*
X12966880Y-10546220D01*
X13005420Y-8924380D02*
X13025420Y-8944380D01*
X13025420Y-8924380D02*
X13005420Y-8944380D01*
X13006580Y-10491020D02*
X13026580Y-10511020D01*
X13026580Y-10491020D02*
X13006580Y-10511020D01*
X13080050Y-10694160D02*
X13100050Y-10714160D01*
X13100050Y-10694160D02*
X13080050Y-10714160D01*
X13081970Y-9828170D02*
X13101970Y-9848170D01*
X13101970Y-9828170D02*
X13081970Y-9848170D01*
X13165000Y-8129320D02*
X13185000Y-8149320D01*
X13185000Y-8129320D02*
X13165000Y-8149320D01*
X13183720Y-9632550D02*
X13203720Y-9652550D01*
X13203720Y-9632550D02*
X13183720Y-9652550D01*
X13245050Y-8344710D02*
X13265050Y-8364710D01*
X13265050Y-8344710D02*
X13245050Y-8364710D01*
X13290000Y-11920000D02*
X13310000Y-11940000D01*
X13310000Y-11920000D02*
X13290000Y-11940000D01*
X13315000Y-8129580D02*
X13335000Y-8149580D01*
X13335000Y-8129580D02*
X13315000Y-8149580D01*
X13416050Y-10537070D02*
X13436050Y-10557070D01*
X13436050Y-10537070D02*
X13416050Y-10557070D01*
X13451230Y-8435000D02*
X13471230Y-8455000D01*
X13471230Y-8435000D02*
X13451230Y-8455000D01*
X13495000Y-8075000D02*
X13515000Y-8095000D01*
X13515000Y-8075000D02*
X13495000Y-8095000D01*
X13550000Y-11400000D02*
X13570000Y-11420000D01*
X13570000Y-11400000D02*
X13550000Y-11420000D01*
X13570000Y-11540000D02*
X13590000Y-11560000D01*
X13590000Y-11540000D02*
X13570000Y-11560000D01*
X13615000Y-10492860D02*
X13635000Y-10512860D01*
X13635000Y-10492860D02*
X13615000Y-10512860D01*
X13649490Y-10548300D02*
X13669490Y-10568300D01*
X13669490Y-10548300D02*
X13649490Y-10568300D01*
X13690000Y-11760000D02*
X13710000Y-11780000D01*
X13710000Y-11760000D02*
X13690000Y-11780000D01*
X13690000Y-11820000D02*
X13710000Y-11840000D01*
X13710000Y-11820000D02*
X13690000Y-11840000D01*
X13740000Y-11205050D02*
X13760000Y-11225050D01*
X13760000Y-11205050D02*
X13740000Y-11225050D01*
X13798050Y-7647040D02*
X13818050Y-7667040D01*
X13818050Y-7647040D02*
X13798050Y-7667040D01*
X13889170Y-10239880D02*
X13909170Y-10259880D01*
X13909170Y-10239880D02*
X13889170Y-10259880D01*
X13895640Y-10719390D02*
X13915640Y-10739390D01*
X13915640Y-10719390D02*
X13895640Y-10739390D01*
X13921000Y-10536550D02*
X13941000Y-10556550D01*
X13941000Y-10536550D02*
X13921000Y-10556550D01*
X13924063Y-11420871D02*
X13944063Y-11440871D01*
X13944063Y-11420871D02*
X13924063Y-11440871D01*
X13980000Y-11470000D02*
X14000000Y-11490000D01*
X14000000Y-11470000D02*
X13980000Y-11490000D01*
X13996090Y-10798100D02*
X14016090Y-10818100D01*
X14016090Y-10798100D02*
X13996090Y-10818100D01*
X14000100Y-10167870D02*
X14020100Y-10187870D01*
X14020100Y-10167870D02*
X14000100Y-10187870D01*
X14013420Y-7917630D02*
X14033420Y-7937630D01*
X14033420Y-7917630D02*
X14013420Y-7937630D01*
X14015000Y-8128720D02*
X14035000Y-8148720D01*
X14035000Y-8128720D02*
X14015000Y-8148720D01*
X14041950Y-7040160D02*
X14061950Y-7060160D01*
X14061950Y-7040160D02*
X14041950Y-7060160D01*
X14059530Y-7784850D02*
X14079530Y-7804850D01*
X14079530Y-7784850D02*
X14059530Y-7804850D01*
X14081060Y-10537070D02*
X14101060Y-10557070D01*
X14101060Y-10537070D02*
X14081060Y-10557070D01*
X14100000Y-11530000D02*
X14120000Y-11550000D01*
X14120000Y-11530000D02*
X14100000Y-11550000D01*
X14115000Y-8128530D02*
X14135000Y-8148530D01*
X14135000Y-8128530D02*
X14115000Y-8148530D01*
X14121750Y-10951350D02*
X14141750Y-10971350D01*
X14141750Y-10951350D02*
X14121750Y-10971350D01*
X14135230Y-10523190D02*
X14155230Y-10543190D01*
X14155230Y-10523190D02*
X14135230Y-10543190D01*
X14180070Y-9508380D02*
X14200070Y-9528380D01*
X14200070Y-9508380D02*
X14180070Y-9528380D01*
X14189660Y-11074970D02*
X14209660Y-11094970D01*
X14209660Y-11074970D02*
X14189660Y-11094970D01*
X14264180Y-9385000D02*
X14284180Y-9405000D01*
X14284180Y-9385000D02*
X14264180Y-9405000D01*
X14354960Y-10781130D02*
X14374960Y-10801130D01*
X14374960Y-10781130D02*
X14354960Y-10801130D01*
X14391230Y-8881840D02*
X14411230Y-8901840D01*
X14411230Y-8881840D02*
X14391230Y-8901840D01*
X14423390Y-11273310D02*
X14443390Y-11293310D01*
X14443390Y-11273310D02*
X14423390Y-11293310D01*
X14430660Y-10175430D02*
X14450660Y-10195430D01*
X14450660Y-10175430D02*
X14430660Y-10195430D01*
X14432140Y-11032660D02*
X14452140Y-11052660D01*
X14452140Y-11032660D02*
X14432140Y-11052660D01*
X14448350Y-8407690D02*
X14468350Y-8427690D01*
X14468350Y-8407690D02*
X14448350Y-8427690D01*
X14465690Y-8935000D02*
X14485690Y-8955000D01*
X14485690Y-8935000D02*
X14465690Y-8955000D01*
X14488200Y-8127810D02*
X14508200Y-8147810D01*
X14508200Y-8127810D02*
X14488200Y-8147810D01*
X14529690Y-9681060D02*
X14549690Y-9701060D01*
X14549690Y-9681060D02*
X14529690Y-9701060D01*
X14533450Y-10152660D02*
X14553450Y-10172660D01*
X14553450Y-10152660D02*
X14533450Y-10172660D01*
X14560960Y-10242340D02*
X14580960Y-10262340D01*
X14580960Y-10242340D02*
X14560960Y-10262340D01*
X14565590Y-8309080D02*
X14585590Y-8329080D01*
X14585590Y-8309080D02*
X14565590Y-8329080D01*
X14571700Y-10485830D02*
X14591700Y-10505830D01*
X14591700Y-10485830D02*
X14571700Y-10505830D01*
X14582100Y-8456570D02*
X14602100Y-8476570D01*
X14602100Y-8456570D02*
X14582100Y-8476570D01*
X14584350Y-9619940D02*
X14604350Y-9639940D01*
X14604350Y-9619940D02*
X14584350Y-9639940D01*
X14605520Y-9800580D02*
X14625520Y-9820580D01*
X14625520Y-9800580D02*
X14605520Y-9820580D01*
X14605800Y-8560220D02*
X14625800Y-8580220D01*
X14625800Y-8560220D02*
X14605800Y-8580220D01*
X14636640Y-10365850D02*
X14656640Y-10385850D01*
X14656640Y-10365850D02*
X14636640Y-10385850D01*
X14653090Y-8018930D02*
X14673090Y-8038930D01*
X14673090Y-8018930D02*
X14653090Y-8038930D01*
X14662920Y-11491040D02*
X14682920Y-11511040D01*
X14682920Y-11491040D02*
X14662920Y-11511040D01*
X14681960Y-11800210D02*
X14701960Y-11820210D01*
X14701960Y-11800210D02*
X14681960Y-11820210D01*
X14682100Y-10605330D02*
X14702100Y-10625330D01*
X14702100Y-10605330D02*
X14682100Y-10625330D01*
X14790950Y-10382220D02*
X14810950Y-10402220D01*
X14810950Y-10382220D02*
X14790950Y-10402220D01*
X14806730Y-8307280D02*
X14826730Y-8327280D01*
X14826730Y-8307280D02*
X14806730Y-8327280D01*
X14820400Y-9924960D02*
X14840400Y-9944960D01*
X14840400Y-9924960D02*
X14820400Y-9944960D01*
X14823230Y-8785000D02*
X14843230Y-8805000D01*
X14843230Y-8785000D02*
X14823230Y-8805000D01*
X14830130Y-8839840D02*
X14850130Y-8859840D01*
X14850130Y-8839840D02*
X14830130Y-8859840D01*
X14833730Y-10022200D02*
X14853730Y-10042200D01*
X14853730Y-10022200D02*
X14833730Y-10042200D01*
X14834870Y-11141730D02*
X14854870Y-11161730D01*
X14854870Y-11141730D02*
X14834870Y-11161730D01*
X14865140Y-9480770D02*
X14885140Y-9500770D01*
X14885140Y-9480770D02*
X14865140Y-9500770D01*
X14868680Y-8643510D02*
X14888680Y-8663510D01*
X14888680Y-8643510D02*
X14868680Y-8663510D01*
X14874630Y-11878610D02*
X14894630Y-11898610D01*
X14894630Y-11878610D02*
X14874630Y-11898610D01*
X14879460Y-10997850D02*
X14899460Y-11017850D01*
X14899460Y-10997850D02*
X14879460Y-11017850D01*
X14880970Y-9197800D02*
X14900970Y-9217800D01*
X14900970Y-9197800D02*
X14880970Y-9217800D01*
X14899500Y-8599630D02*
X14919500Y-8619630D01*
X14919500Y-8599630D02*
X14899500Y-8619630D01*
X14939830Y-9381050D02*
X14959830Y-9401050D01*
X14959830Y-9381050D02*
X14939830Y-9401050D01*
X14940360Y-9531160D02*
X14960360Y-9551160D01*
X14960360Y-9531160D02*
X14940360Y-9551160D01*
X14941090Y-10015380D02*
X14961090Y-10035380D01*
X14961090Y-10015380D02*
X14941090Y-10035380D01*
X14960850Y-10227540D02*
X14980850Y-10247540D01*
X14980850Y-10227540D02*
X14960850Y-10247540D01*
X15005770Y-9731540D02*
X15025770Y-9751540D01*
X15025770Y-9731540D02*
X15005770Y-9751540D01*
X15006890Y-8675490D02*
X15026890Y-8695490D01*
X15026890Y-8675490D02*
X15006890Y-8695490D01*
X15041790Y-7732550D02*
X15061790Y-7752550D01*
X15061790Y-7732550D02*
X15041790Y-7752550D01*
X15106910Y-9197800D02*
X15126910Y-9217800D01*
X15126910Y-9197800D02*
X15106910Y-9217800D01*
X15146710Y-9291510D02*
X15166710Y-9311510D01*
X15166710Y-9291510D02*
X15146710Y-9311510D01*
X15189210Y-8631460D02*
X15209210Y-8651460D01*
X15209210Y-8631460D02*
X15189210Y-8651460D01*
X15232720Y-7840130D02*
X15252720Y-7860130D01*
X15252720Y-7840130D02*
X15232720Y-7860130D01*
X15243390Y-10942920D02*
X15263390Y-10962920D01*
X15263390Y-10942920D02*
X15243390Y-10962920D01*
X15244580Y-10382220D02*
X15264580Y-10402220D01*
X15264580Y-10382220D02*
X15244580Y-10402220D01*
X15268430Y-9097020D02*
X15288430Y-9117020D01*
X15288430Y-9097020D02*
X15268430Y-9117020D01*
X15301480Y-9938710D02*
X15321480Y-9958710D01*
X15321480Y-9938710D02*
X15301480Y-9958710D01*
X15311420Y-9390480D02*
X15331420Y-9410480D01*
X15331420Y-9390480D02*
X15311420Y-9410480D01*
X15324520Y-12249000D02*
X15344520Y-12269000D01*
X15344520Y-12249000D02*
X15324520Y-12269000D01*
X15332500Y-9845000D02*
X15352500Y-9865000D01*
X15352500Y-9845000D02*
X15332500Y-9865000D01*
X15358590Y-10870050D02*
X15378590Y-10890050D01*
X15378590Y-10870050D02*
X15358590Y-10890050D01*
X15429560Y-12025010D02*
X15449560Y-12045010D01*
X15449560Y-12025010D02*
X15429560Y-12045010D01*
X15445060Y-10485830D02*
X15465060Y-10505830D01*
X15465060Y-10485830D02*
X15445060Y-10505830D01*
X15487320Y-8839620D02*
X15507320Y-8859620D01*
X15507320Y-8839620D02*
X15487320Y-8859620D01*
X15495420Y-10139160D02*
X15515420Y-10159160D01*
X15515420Y-10139160D02*
X15495420Y-10159160D01*
X15544660Y-9024640D02*
X15564660Y-9044640D01*
X15564660Y-9024640D02*
X15544660Y-9044640D01*
X15549370Y-9329070D02*
X15569370Y-9349070D01*
X15569370Y-9329070D02*
X15549370Y-9349070D01*
X15583110Y-9060900D02*
X15603110Y-9080900D01*
X15603110Y-9060900D02*
X15583110Y-9080900D01*
X15618310Y-11528890D02*
X15638310Y-11548890D01*
X15638310Y-11528890D02*
X15618310Y-11548890D01*
X15638580Y-9187450D02*
X15658580Y-9207450D01*
X15658580Y-9187450D02*
X15638580Y-9207450D01*
X15663450Y-9547070D02*
X15683450Y-9567070D01*
X15683450Y-9547070D02*
X15663450Y-9567070D01*
X15670230Y-11279090D02*
X15690230Y-11299090D01*
X15690230Y-11279090D02*
X15670230Y-11299090D01*
X15672820Y-9286250D02*
X15692820Y-9306250D01*
X15692820Y-9286250D02*
X15672820Y-9306250D01*
X15686680Y-9114450D02*
X15706680Y-9134450D01*
X15706680Y-9114450D02*
X15686680Y-9134450D01*
X15735220Y-10148900D02*
X15755220Y-10168900D01*
X15755220Y-10148900D02*
X15735220Y-10168900D01*
X15759360Y-9251070D02*
X15779360Y-9271070D01*
X15779360Y-9251070D02*
X15759360Y-9271070D01*
X15760000Y-12010000D02*
X15780000Y-12030000D01*
X15780000Y-12010000D02*
X15760000Y-12030000D01*
X15776510Y-10671500D02*
X15796510Y-10691500D01*
X15796510Y-10671500D02*
X15776510Y-10691500D01*
X15803920Y-8879440D02*
X15823920Y-8899440D01*
X15823920Y-8879440D02*
X15803920Y-8899440D01*
X15816820Y-9000370D02*
X15836820Y-9020370D01*
X15836820Y-9000370D02*
X15816820Y-9020370D01*
X15857500Y-11502030D02*
X15877500Y-11522030D01*
X15877500Y-11502030D02*
X15857500Y-11522030D01*
X15864950Y-8688120D02*
X15884950Y-8708120D01*
X15884950Y-8688120D02*
X15864950Y-8708120D01*
X15867580Y-8635300D02*
X15887580Y-8655300D01*
X15887580Y-8635300D02*
X15867580Y-8655300D01*
X15867690Y-7966130D02*
X15887690Y-7986130D01*
X15887690Y-7966130D02*
X15867690Y-7986130D01*
X15873000Y-9603000D02*
X15893000Y-9623000D01*
X15893000Y-9603000D02*
X15873000Y-9623000D01*
X15908040Y-8479128D02*
X15928040Y-8499128D01*
X15928040Y-8479128D02*
X15908040Y-8499128D01*
X15965070Y-8772240D02*
X15985070Y-8792240D01*
X15985070Y-8772240D02*
X15965070Y-8792240D01*
X15970000Y-8640000D02*
X15990000Y-8660000D01*
X15990000Y-8640000D02*
X15970000Y-8660000D01*
X15981160Y-11503770D02*
X16001160Y-11523770D01*
X16001160Y-11503770D02*
X15981160Y-11523770D01*
X16034430Y-7984920D02*
X16054430Y-8004920D01*
X16054430Y-7984920D02*
X16034430Y-8004920D01*
X16062460Y-8171990D02*
X16082460Y-8191990D01*
X16082460Y-8171990D02*
X16062460Y-8191990D01*
X16070580Y-9215900D02*
X16090580Y-9235900D01*
X16090580Y-9215900D02*
X16070580Y-9235900D01*
X16070600Y-9052280D02*
X16090600Y-9072280D01*
X16090600Y-9052280D02*
X16070600Y-9072280D01*
X16074420Y-9402680D02*
X16094420Y-9422680D01*
X16094420Y-9402680D02*
X16074420Y-9422680D01*
X16090000Y-11504470D02*
X16110000Y-11524470D01*
X16110000Y-11504470D02*
X16090000Y-11524470D01*
X16095920Y-8335320D02*
X16115920Y-8355320D01*
X16115920Y-8335320D02*
X16095920Y-8355320D01*
X16099380Y-9170000D02*
X16119380Y-9190000D01*
X16119380Y-9170000D02*
X16099380Y-9190000D01*
X16100000Y-12020000D02*
X16120000Y-12040000D01*
X16120000Y-12020000D02*
X16100000Y-12040000D01*
X16113610Y-8388950D02*
X16133610Y-8408950D01*
X16133610Y-8388950D02*
X16113610Y-8408950D01*
X16115280Y-8179710D02*
X16135280Y-8199710D01*
X16135280Y-8179710D02*
X16115280Y-8199710D01*
X16134930Y-9053900D02*
X16154930Y-9073900D01*
X16154930Y-9053900D02*
X16134930Y-9073900D01*
X16153630Y-11387020D02*
X16173630Y-11407020D01*
X16173630Y-11387020D02*
X16153630Y-11407020D01*
X16154080Y-8506040D02*
X16174080Y-8526040D01*
X16174080Y-8506040D02*
X16154080Y-8526040D01*
X16182740Y-9446870D02*
X16202740Y-9466870D01*
X16202740Y-9446870D02*
X16182740Y-9466870D01*
X16186650Y-8220000D02*
X16206650Y-8240000D01*
X16206650Y-8220000D02*
X16186650Y-8240000D01*
X16201590Y-8274540D02*
X16221590Y-8294540D01*
X16221590Y-8274540D02*
X16201590Y-8294540D01*
X16204830Y-8031360D02*
X16224830Y-8051360D01*
X16224830Y-8031360D02*
X16204830Y-8051360D01*
X16206950Y-8111710D02*
X16226950Y-8131710D01*
X16226950Y-8111710D02*
X16206950Y-8131710D01*
X16210000Y-11503460D02*
X16230000Y-11523460D01*
X16230000Y-11503460D02*
X16210000Y-11523460D01*
X16233330Y-7970000D02*
X16253330Y-7990000D01*
X16253330Y-7970000D02*
X16233330Y-7990000D01*
X16233940Y-8647280D02*
X16253940Y-8667280D01*
X16253940Y-8647280D02*
X16233940Y-8667280D01*
X16270000Y-8694490D02*
X16290000Y-8714490D01*
X16290000Y-8694490D02*
X16270000Y-8714490D01*
X16272360Y-8766490D02*
X16292360Y-8786490D01*
X16292360Y-8766490D02*
X16272360Y-8786490D01*
X16275990Y-7913800D02*
X16295990Y-7933800D01*
X16295990Y-7913800D02*
X16275990Y-7933800D01*
X16277330Y-7609760D02*
X16297330Y-7629760D01*
X16297330Y-7609760D02*
X16277330Y-7629760D01*
X16281440Y-10073100D02*
X16301440Y-10093100D01*
X16301440Y-10073100D02*
X16281440Y-10093100D01*
X16288710Y-11497620D02*
X16308710Y-11517620D01*
X16308710Y-11497620D02*
X16288710Y-11517620D01*
X16319611Y-8162391D02*
X16339611Y-8182391D01*
X16339611Y-8162391D02*
X16319611Y-8182391D01*
X16350000Y-12150000D02*
X16370000Y-12170000D01*
X16370000Y-12150000D02*
X16350000Y-12170000D01*
X16354374Y-8202066D02*
X16374374Y-8222066D01*
X16374374Y-8202066D02*
X16354374Y-8222066D01*
X16364438Y-8280266D02*
X16384438Y-8300266D01*
X16384438Y-8280266D02*
X16364438Y-8300266D01*
X16368785Y-8604375D02*
X16388785Y-8624375D01*
X16388785Y-8604375D02*
X16368785Y-8624375D01*
X16384890Y-10257330D02*
X16404890Y-10277330D01*
X16404890Y-10257330D02*
X16384890Y-10277330D01*
X16434220Y-7520450D02*
X16454220Y-7540450D01*
X16454220Y-7520450D02*
X16434220Y-7540450D01*
X16452280Y-8064590D02*
X16472280Y-8084590D01*
X16472280Y-8064590D02*
X16452280Y-8084590D01*
X16458832Y-8315430D02*
X16478832Y-8335430D01*
X16478832Y-8315430D02*
X16458832Y-8335430D01*
X16488516Y-8523001D02*
X16508516Y-8543001D01*
X16508516Y-8523001D02*
X16488516Y-8543001D01*
X16498150Y-8574864D02*
X16518150Y-8594864D01*
X16518150Y-8574864D02*
X16498150Y-8594864D01*
X16531450Y-8375260D02*
X16551450Y-8395260D01*
X16551450Y-8375260D02*
X16531450Y-8395260D01*
X16585030Y-8326980D02*
X16605030Y-8346980D01*
X16605030Y-8326980D02*
X16585030Y-8346980D01*
X16594680Y-8414680D02*
X16614680Y-8434680D01*
X16614680Y-8414680D02*
X16594680Y-8434680D01*
X16600730Y-8232570D02*
X16620730Y-8252570D01*
X16620730Y-8232570D02*
X16600730Y-8252570D01*
X16603290Y-7896630D02*
X16623290Y-7916630D01*
X16623290Y-7896630D02*
X16603290Y-7916630D01*
X16626700Y-7665060D02*
X16646700Y-7685060D01*
X16646700Y-7665060D02*
X16626700Y-7685060D01*
X16629100Y-8619531D02*
X16649100Y-8639531D01*
X16649100Y-8619531D02*
X16629100Y-8639531D01*
X16637850Y-8324960D02*
X16657850Y-8344960D01*
X16657850Y-8324960D02*
X16637850Y-8344960D01*
X16653900Y-8081010D02*
X16673900Y-8101010D01*
X16673900Y-8081010D02*
X16653900Y-8101010D01*
X16655200Y-8225200D02*
X16675200Y-8245200D01*
X16675200Y-8225200D02*
X16655200Y-8245200D01*
X16703520Y-8466300D02*
X16723520Y-8486300D01*
X16723520Y-8466300D02*
X16703520Y-8486300D01*
X16725360Y-9280780D02*
X16745360Y-9300780D01*
X16745360Y-9280780D02*
X16725360Y-9300780D01*
X16793710Y-8336710D02*
X16813710Y-8356710D01*
X16813710Y-8336710D02*
X16793710Y-8356710D01*
X16820200Y-8022000D02*
X16840200Y-8042000D01*
X16840200Y-8022000D02*
X16820200Y-8042000D01*
X16832400Y-9801900D02*
X16852400Y-9821900D01*
X16852400Y-9801900D02*
X16832400Y-9821900D01*
X16834360Y-7724450D02*
X16854360Y-7744450D01*
X16854360Y-7724450D02*
X16834360Y-7744450D01*
X16843240Y-8268910D02*
X16863240Y-8288910D01*
X16863240Y-8268910D02*
X16843240Y-8288910D01*
X16870920Y-8316530D02*
X16890920Y-8336530D01*
X16890920Y-8316530D02*
X16870920Y-8336530D01*
X16920000Y-7840000D02*
X16940000Y-7860000D01*
X16940000Y-7840000D02*
X16920000Y-7860000D01*
X16927030Y-9427510D02*
X16947030Y-9447510D01*
X16947030Y-9427510D02*
X16927030Y-9447510D01*
X16932840Y-8225280D02*
X16952840Y-8245280D01*
X16952840Y-8225280D02*
X16932840Y-8245280D01*
X16936770Y-9129630D02*
X16956770Y-9149630D01*
X16956770Y-9129630D02*
X16936770Y-9149630D01*
X16939540Y-8543150D02*
X16959540Y-8563150D01*
X16959540Y-8543150D02*
X16939540Y-8563150D01*
X16957230Y-7652980D02*
X16977230Y-7672980D01*
X16977230Y-7652980D02*
X16957230Y-7672980D01*
X17054140Y-8976210D02*
X17074140Y-8996210D01*
X17074140Y-8976210D02*
X17054140Y-8996210D01*
X17116130Y-8141170D02*
X17136130Y-8161170D01*
X17136130Y-8141170D02*
X17116130Y-8161170D01*
X17213630Y-8853910D02*
X17233630Y-8873910D01*
X17233630Y-8853910D02*
X17213630Y-8873910D01*
X17213630Y-10171020D02*
X17233630Y-10191020D01*
X17233630Y-10171020D02*
X17213630Y-10191020D01*
X17225720Y-8455260D02*
X17245720Y-8475260D01*
X17245720Y-8455260D02*
X17225720Y-8475260D01*
X17240570Y-8992160D02*
X17260570Y-9012160D01*
X17260570Y-8992160D02*
X17240570Y-9012160D01*
X17284480Y-8183890D02*
X17304480Y-8203890D01*
X17304480Y-8183890D02*
X17284480Y-8203890D01*
X17287450Y-8765050D02*
X17307450Y-8785050D01*
X17307450Y-8765050D02*
X17287450Y-8785050D01*
X17319560Y-8501790D02*
X17339560Y-8521790D01*
X17339560Y-8501790D02*
X17319560Y-8521790D01*
X17331180Y-7849230D02*
X17351180Y-7869230D01*
X17351180Y-7849230D02*
X17331180Y-7869230D01*
X17354390Y-8621500D02*
X17374390Y-8641500D01*
X17374390Y-8621500D02*
X17354390Y-8641500D01*
X17422120Y-7626850D02*
X17442120Y-7646850D01*
X17442120Y-7626850D02*
X17422120Y-7646850D01*
X17445040Y-8141380D02*
X17465040Y-8161380D01*
X17465040Y-8141380D02*
X17445040Y-8161380D01*
X17447130Y-9783880D02*
X17467130Y-9803880D01*
X17467130Y-9783880D02*
X17447130Y-9803880D01*
X17538320Y-9696280D02*
X17558320Y-9716280D01*
X17558320Y-9696280D02*
X17538320Y-9716280D01*
X17565300Y-8677000D02*
X17585300Y-8697000D01*
X17585300Y-8677000D02*
X17565300Y-8697000D01*
X17585380Y-8889000D02*
X17605380Y-8909000D01*
X17605380Y-8889000D02*
X17585380Y-8909000D01*
X17586500Y-8501760D02*
X17606500Y-8521760D01*
X17606500Y-8501760D02*
X17586500Y-8521760D01*
X17602980Y-8958300D02*
X17622980Y-8978300D01*
X17622980Y-8958300D02*
X17602980Y-8978300D01*
X17615920Y-8844830D02*
X17635920Y-8864830D01*
X17635920Y-8844830D02*
X17615920Y-8864830D01*
X17789600Y-11396050D02*
X17809600Y-11416050D01*
X17809600Y-11396050D02*
X17789600Y-11416050D01*
X17863720Y-11722470D02*
X17883720Y-11742470D01*
X17883720Y-11722470D02*
X17863720Y-11742470D01*
X18004310Y-10176000D02*
X18024310Y-10196000D01*
X18024310Y-10176000D02*
X18004310Y-10196000D01*
X18036920Y-11488610D02*
X18056920Y-11508610D01*
X18056920Y-11488610D02*
X18036920Y-11508610D01*
D13*
X10575000Y-9370000D02*
G75*
G03*
X10575000Y-9370000I-15000J0D01*
G01*
X10785000Y-10540000D02*
G75*
G03*
X10785000Y-10540000I-15000J0D01*
G01*
X10895000Y-9000000D02*
G75*
G03*
X10895000Y-9000000I-15000J0D01*
G01*
X10945000Y-8390000D02*
G75*
G03*
X10945000Y-8390000I-15000J0D01*
G01*
X10945000Y-8710000D02*
G75*
G03*
X10945000Y-8710000I-15000J0D01*
G01*
X10950000Y-11965000D02*
G75*
G03*
X10950000Y-11965000I-15000J0D01*
G01*
X10955000Y-11430000D02*
G75*
G03*
X10955000Y-11430000I-15000J0D01*
G01*
X10997500Y-10817500D02*
G75*
G03*
X10997500Y-10817500I-15000J0D01*
G01*
X11005000Y-8140000D02*
G75*
G03*
X11005000Y-8140000I-15000J0D01*
G01*
X11105000Y-12300000D02*
G75*
G03*
X11105000Y-12300000I-15000J0D01*
G01*
X11132500Y-11020000D02*
G75*
G03*
X11132500Y-11020000I-15000J0D01*
G01*
X11132500Y-11212500D02*
G75*
G03*
X11132500Y-11212500I-15000J0D01*
G01*
X11135000Y-10810000D02*
G75*
G03*
X11135000Y-10810000I-15000J0D01*
G01*
X11165000Y-11910000D02*
G75*
G03*
X11165000Y-11910000I-15000J0D01*
G01*
X11185000Y-8390000D02*
G75*
G03*
X11185000Y-8390000I-15000J0D01*
G01*
X11185000Y-8720000D02*
G75*
G03*
X11185000Y-8720000I-15000J0D01*
G01*
X11225000Y-10080000D02*
G75*
G03*
X11225000Y-10080000I-15000J0D01*
G01*
X11225000Y-10550000D02*
G75*
G03*
X11225000Y-10550000I-15000J0D01*
G01*
X11415000Y-11890000D02*
G75*
G03*
X11415000Y-11890000I-15000J0D01*
G01*
X11435000Y-9300000D02*
G75*
G03*
X11435000Y-9300000I-15000J0D01*
G01*
X11435000Y-9790000D02*
G75*
G03*
X11435000Y-9790000I-15000J0D01*
G01*
X11495000Y-10550000D02*
G75*
G03*
X11495000Y-10550000I-15000J0D01*
G01*
X11635000Y-9300000D02*
G75*
G03*
X11635000Y-9300000I-15000J0D01*
G01*
X11715000Y-10820000D02*
G75*
G03*
X11715000Y-10820000I-15000J0D01*
G01*
X11715000Y-11500000D02*
G75*
G03*
X11715000Y-11500000I-15000J0D01*
G01*
X11715000Y-11700000D02*
G75*
G03*
X11715000Y-11700000I-15000J0D01*
G01*
X11765000Y-11600000D02*
G75*
G03*
X11765000Y-11600000I-15000J0D01*
G01*
X11775000Y-9540000D02*
G75*
G03*
X11775000Y-9540000I-15000J0D01*
G01*
X11785000Y-8180000D02*
G75*
G03*
X11785000Y-8180000I-15000J0D01*
G01*
X11785000Y-8790000D02*
G75*
G03*
X11785000Y-8790000I-15000J0D01*
G01*
X11785000Y-10050000D02*
G75*
G03*
X11785000Y-10050000I-15000J0D01*
G01*
X11815000Y-11500000D02*
G75*
G03*
X11815000Y-11500000I-15000J0D01*
G01*
X11815000Y-11700000D02*
G75*
G03*
X11815000Y-11700000I-15000J0D01*
G01*
X11855000Y-10510000D02*
G75*
G03*
X11855000Y-10510000I-15000J0D01*
G01*
X11885000Y-12180000D02*
G75*
G03*
X11885000Y-12180000I-15000J0D01*
G01*
X11895000Y-10920000D02*
G75*
G03*
X11895000Y-10920000I-15000J0D01*
G01*
X12065000Y-8110000D02*
G75*
G03*
X12065000Y-8110000I-15000J0D01*
G01*
X12075000Y-9230000D02*
G75*
G03*
X12075000Y-9230000I-15000J0D01*
G01*
X12115000Y-10010000D02*
G75*
G03*
X12115000Y-10010000I-15000J0D01*
G01*
X12125000Y-11140000D02*
G75*
G03*
X12125000Y-11140000I-15000J0D01*
G01*
X12185000Y-10890000D02*
G75*
G03*
X12185000Y-10890000I-15000J0D01*
G01*
X12215000Y-9020000D02*
G75*
G03*
X12215000Y-9020000I-15000J0D01*
G01*
X12265000Y-11910000D02*
G75*
G03*
X12265000Y-11910000I-15000J0D01*
G01*
X12355000Y-11480000D02*
G75*
G03*
X12355000Y-11480000I-15000J0D01*
G01*
X12395000Y-8470000D02*
G75*
G03*
X12395000Y-8470000I-15000J0D01*
G01*
X12405000Y-8130000D02*
G75*
G03*
X12405000Y-8130000I-15000J0D01*
G01*
X12425000Y-9730000D02*
G75*
G03*
X12425000Y-9730000I-15000J0D01*
G01*
X12465000Y-10510000D02*
G75*
G03*
X12465000Y-10510000I-15000J0D01*
G01*
X12605000Y-10880000D02*
G75*
G03*
X12605000Y-10880000I-15000J0D01*
G01*
X12675000Y-7780000D02*
G75*
G03*
X12675000Y-7780000I-15000J0D01*
G01*
X12715000Y-11500000D02*
G75*
G03*
X12715000Y-11500000I-15000J0D01*
G01*
X12835000Y-9060000D02*
G75*
G03*
X12835000Y-9060000I-15000J0D01*
G01*
X12875000Y-8790000D02*
G75*
G03*
X12875000Y-8790000I-15000J0D01*
G01*
X12895000Y-10880000D02*
G75*
G03*
X12895000Y-10880000I-15000J0D01*
G01*
X12925000Y-8060000D02*
G75*
G03*
X12925000Y-8060000I-15000J0D01*
G01*
X12985000Y-10000000D02*
G75*
G03*
X12985000Y-10000000I-15000J0D01*
G01*
X13005000Y-10640000D02*
G75*
G03*
X13005000Y-10640000I-15000J0D01*
G01*
X13015000Y-11220000D02*
G75*
G03*
X13015000Y-11220000I-15000J0D01*
G01*
X13175000Y-7470000D02*
G75*
G03*
X13175000Y-7470000I-15000J0D01*
G01*
X13225000Y-11220000D02*
G75*
G03*
X13225000Y-11220000I-15000J0D01*
G01*
X13275000Y-9050000D02*
G75*
G03*
X13275000Y-9050000I-15000J0D01*
G01*
X13345000Y-10000000D02*
G75*
G03*
X13345000Y-10000000I-15000J0D01*
G01*
X13435000Y-11220000D02*
G75*
G03*
X13435000Y-11220000I-15000J0D01*
G01*
X13485000Y-11630000D02*
G75*
G03*
X13485000Y-11630000I-15000J0D01*
G01*
X13485000Y-11830000D02*
G75*
G03*
X13485000Y-11830000I-15000J0D01*
G01*
X13495000Y-7670000D02*
G75*
G03*
X13495000Y-7670000I-15000J0D01*
G01*
X13495000Y-8790000D02*
G75*
G03*
X13495000Y-8790000I-15000J0D01*
G01*
X13567500Y-11185000D02*
G75*
G03*
X13567500Y-11185000I-15000J0D01*
G01*
X13685000Y-9200000D02*
G75*
G03*
X13685000Y-9200000I-15000J0D01*
G01*
X13722500Y-8525000D02*
G75*
G03*
X13722500Y-8525000I-15000J0D01*
G01*
X13735000Y-11910000D02*
G75*
G03*
X13735000Y-11910000I-15000J0D01*
G01*
X13775000Y-11290000D02*
G75*
G03*
X13775000Y-11290000I-15000J0D01*
G01*
X13775000Y-11390000D02*
G75*
G03*
X13775000Y-11390000I-15000J0D01*
G01*
X13805000Y-12180000D02*
G75*
G03*
X13805000Y-12180000I-15000J0D01*
G01*
X13865000Y-8130000D02*
G75*
G03*
X13865000Y-8130000I-15000J0D01*
G01*
X14025000Y-8500000D02*
G75*
G03*
X14025000Y-8500000I-15000J0D01*
G01*
X14025000Y-9110000D02*
G75*
G03*
X14025000Y-9110000I-15000J0D01*
G01*
X14065000Y-8030000D02*
G75*
G03*
X14065000Y-8030000I-15000J0D01*
G01*
X14075000Y-9990000D02*
G75*
G03*
X14075000Y-9990000I-15000J0D01*
G01*
X14095000Y-10640000D02*
G75*
G03*
X14095000Y-10640000I-15000J0D01*
G01*
X14115000Y-10200000D02*
G75*
G03*
X14115000Y-10200000I-15000J0D01*
G01*
X14245000Y-11690000D02*
G75*
G03*
X14245000Y-11690000I-15000J0D01*
G01*
X14325000Y-8790000D02*
G75*
G03*
X14325000Y-8790000I-15000J0D01*
G01*
X14335000Y-7550000D02*
G75*
G03*
X14335000Y-7550000I-15000J0D01*
G01*
X14345000Y-7910000D02*
G75*
G03*
X14345000Y-7910000I-15000J0D01*
G01*
X14375000Y-10870000D02*
G75*
G03*
X14375000Y-10870000I-15000J0D01*
G01*
X14415000Y-9880000D02*
G75*
G03*
X14415000Y-9880000I-15000J0D01*
G01*
X14515000Y-11480000D02*
G75*
G03*
X14515000Y-11480000I-15000J0D01*
G01*
X14565000Y-8650000D02*
G75*
G03*
X14565000Y-8650000I-15000J0D01*
G01*
X14595000Y-9470000D02*
G75*
G03*
X14595000Y-9470000I-15000J0D01*
G01*
X14615000Y-9740000D02*
G75*
G03*
X14615000Y-9740000I-15000J0D01*
G01*
X14615000Y-10750000D02*
G75*
G03*
X14615000Y-10750000I-15000J0D01*
G01*
X14705000Y-11270000D02*
G75*
G03*
X14705000Y-11270000I-15000J0D01*
G01*
X14725000Y-7560000D02*
G75*
G03*
X14725000Y-7560000I-15000J0D01*
G01*
X14725000Y-7840000D02*
G75*
G03*
X14725000Y-7840000I-15000J0D01*
G01*
X14785000Y-10730000D02*
G75*
G03*
X14785000Y-10730000I-15000J0D01*
G01*
X14915000Y-11530000D02*
G75*
G03*
X14915000Y-11530000I-15000J0D01*
G01*
X14975000Y-8100000D02*
G75*
G03*
X14975000Y-8100000I-15000J0D01*
G01*
X14995000Y-10730000D02*
G75*
G03*
X14995000Y-10730000I-15000J0D01*
G01*
X15025000Y-11040000D02*
G75*
G03*
X15025000Y-11040000I-15000J0D01*
G01*
X15085000Y-9620000D02*
G75*
G03*
X15085000Y-9620000I-15000J0D01*
G01*
X15095000Y-8430000D02*
G75*
G03*
X15095000Y-8430000I-15000J0D01*
G01*
X15105000Y-7560000D02*
G75*
G03*
X15105000Y-7560000I-15000J0D01*
G01*
X15165000Y-11260000D02*
G75*
G03*
X15165000Y-11260000I-15000J0D01*
G01*
X15195000Y-8220000D02*
G75*
G03*
X15195000Y-8220000I-15000J0D01*
G01*
X15225000Y-12130000D02*
G75*
G03*
X15225000Y-12130000I-15000J0D01*
G01*
X15395000Y-11050000D02*
G75*
G03*
X15395000Y-11050000I-15000J0D01*
G01*
X15445000Y-11540000D02*
G75*
G03*
X15445000Y-11540000I-15000J0D01*
G01*
X15455000Y-8410000D02*
G75*
G03*
X15455000Y-8410000I-15000J0D01*
G01*
X15455000Y-9740000D02*
G75*
G03*
X15455000Y-9740000I-15000J0D01*
G01*
X15535000Y-10640000D02*
G75*
G03*
X15535000Y-10640000I-15000J0D01*
G01*
X15555000Y-9640000D02*
G75*
G03*
X15555000Y-9640000I-15000J0D01*
G01*
X15595000Y-7550000D02*
G75*
G03*
X15595000Y-7550000I-15000J0D01*
G01*
X15615000Y-11360000D02*
G75*
G03*
X15615000Y-11360000I-15000J0D01*
G01*
X15825000Y-7230000D02*
G75*
G03*
X15825000Y-7230000I-15000J0D01*
G01*
X15845000Y-10410000D02*
G75*
G03*
X15845000Y-10410000I-15000J0D01*
G01*
X15875000Y-7590000D02*
G75*
G03*
X15875000Y-7590000I-15000J0D01*
G01*
X15875000Y-11000000D02*
G75*
G03*
X15875000Y-11000000I-15000J0D01*
G01*
X16045000Y-7470000D02*
G75*
G03*
X16045000Y-7470000I-15000J0D01*
G01*
X16055000Y-9540000D02*
G75*
G03*
X16055000Y-9540000I-15000J0D01*
G01*
X16135000Y-9720000D02*
G75*
G03*
X16135000Y-9720000I-15000J0D01*
G01*
X16295000Y-10750000D02*
G75*
G03*
X16295000Y-10750000I-15000J0D01*
G01*
X16395000Y-7880000D02*
G75*
G03*
X16395000Y-7880000I-15000J0D01*
G01*
X16395000Y-9190000D02*
G75*
G03*
X16395000Y-9190000I-15000J0D01*
G01*
X16445000Y-10930000D02*
G75*
G03*
X16445000Y-10930000I-15000J0D01*
G01*
X16455000Y-9110000D02*
G75*
G03*
X16455000Y-9110000I-15000J0D01*
G01*
X16465000Y-11280000D02*
G75*
G03*
X16465000Y-11280000I-15000J0D01*
G01*
X16515000Y-9530000D02*
G75*
G03*
X16515000Y-9530000I-15000J0D01*
G01*
X16535000Y-7910000D02*
G75*
G03*
X16535000Y-7910000I-15000J0D01*
G01*
X16535000Y-11710000D02*
G75*
G03*
X16535000Y-11710000I-15000J0D01*
G01*
X16562500Y-12255000D02*
G75*
G03*
X16562500Y-12255000I-15000J0D01*
G01*
X16615000Y-8130000D02*
G75*
G03*
X16615000Y-8130000I-15000J0D01*
G01*
X16615000Y-11410000D02*
G75*
G03*
X16615000Y-11410000I-15000J0D01*
G01*
X16785000Y-7890000D02*
G75*
G03*
X16785000Y-7890000I-15000J0D01*
G01*
X16785000Y-8560000D02*
G75*
G03*
X16785000Y-8560000I-15000J0D01*
G01*
X16797500Y-10940000D02*
G75*
G03*
X16797500Y-10940000I-15000J0D01*
G01*
X16815000Y-9190000D02*
G75*
G03*
X16815000Y-9190000I-15000J0D01*
G01*
X16835000Y-8150000D02*
G75*
G03*
X16835000Y-8150000I-15000J0D01*
G01*
X17050000Y-10312500D02*
G75*
G03*
X17050000Y-10312500I-15000J0D01*
G01*
X17085000Y-8730000D02*
G75*
G03*
X17085000Y-8730000I-15000J0D01*
G01*
X17105000Y-8430000D02*
G75*
G03*
X17105000Y-8430000I-15000J0D01*
G01*
X17167500Y-10565000D02*
G75*
G03*
X17167500Y-10565000I-15000J0D01*
G01*
X17265000Y-8700000D02*
G75*
G03*
X17265000Y-8700000I-15000J0D01*
G01*
X17415000Y-11500000D02*
G75*
G03*
X17415000Y-11500000I-15000J0D01*
G01*
X17555000Y-9220000D02*
G75*
G03*
X17555000Y-9220000I-15000J0D01*
G01*
X17655000Y-8180000D02*
G75*
G03*
X17655000Y-8180000I-15000J0D01*
G01*
X17675000Y-12160000D02*
G75*
G03*
X17675000Y-12160000I-15000J0D01*
G01*
X17755000Y-11750000D02*
G75*
G03*
X17755000Y-11750000I-15000J0D01*
G01*
X18035000Y-9070000D02*
G75*
G03*
X18035000Y-9070000I-15000J0D01*
G01*
X18265000Y-11250000D02*
G75*
G03*
X18265000Y-11250000I-15000J0D01*
G01*
D14*
X14700000Y-7225500D02*
X14700000Y-7290500D01*
X14667500Y-7258000D02*
X14732500Y-7258000D01*
X14700000Y-7352500D02*
X14700000Y-7417500D01*
X14667500Y-7385000D02*
X14732500Y-7385000D01*
X14827000Y-7225500D02*
X14827000Y-7290500D01*
X14794500Y-7258000D02*
X14859500Y-7258000D01*
X14827000Y-7352500D02*
X14827000Y-7417500D01*
X14794500Y-7385000D02*
X14859500Y-7385000D01*
X14954000Y-7225500D02*
X14954000Y-7290500D01*
X14921500Y-7258000D02*
X14986500Y-7258000D01*
X14954000Y-7352500D02*
X14954000Y-7417500D01*
X14921500Y-7385000D02*
X14986500Y-7385000D01*
X15081000Y-7225500D02*
X15081000Y-7290500D01*
X15048500Y-7258000D02*
X15113500Y-7258000D01*
X15081000Y-7352500D02*
X15081000Y-7417500D01*
X15048500Y-7385000D02*
X15113500Y-7385000D01*
X15208000Y-7225500D02*
X15208000Y-7290500D01*
X15175500Y-7258000D02*
X15240500Y-7258000D01*
X15208000Y-7352500D02*
X15208000Y-7417500D01*
X15175500Y-7385000D02*
X15240500Y-7385000D01*
X15335000Y-7225500D02*
X15335000Y-7290500D01*
X15302500Y-7258000D02*
X15367500Y-7258000D01*
X15335000Y-7352500D02*
X15335000Y-7417500D01*
X15302500Y-7385000D02*
X15367500Y-7385000D01*
X15462000Y-7225500D02*
X15462000Y-7290500D01*
X15429500Y-7258000D02*
X15494500Y-7258000D01*
X15462000Y-7352500D02*
X15462000Y-7417500D01*
X15429500Y-7385000D02*
X15494500Y-7385000D01*
D15*
X10145356Y-9275356D02*
X10145356Y-9204644D01*
X10074644Y-9204644D01*
X10074644Y-9275356D01*
X10145356Y-9275356D01*
X10145356Y-10175356D02*
X10145356Y-10104644D01*
X10074644Y-10104644D01*
X10074644Y-10175356D01*
X10145356Y-10175356D01*
X10146356Y-8775356D02*
X10146356Y-8704644D01*
X10075644Y-8704644D01*
X10075644Y-8775356D01*
X10146356Y-8775356D01*
X10182856Y-10835356D02*
X10182856Y-10764644D01*
X10112144Y-10764644D01*
X10112144Y-10835356D01*
X10182856Y-10835356D01*
X10399356Y-9275356D02*
X10399356Y-9204644D01*
X10328644Y-9204644D01*
X10328644Y-9275356D01*
X10399356Y-9275356D01*
X10399356Y-10175356D02*
X10399356Y-10104644D01*
X10328644Y-10104644D01*
X10328644Y-10175356D01*
X10399356Y-10175356D01*
X10400356Y-8775356D02*
X10400356Y-8704644D01*
X10329644Y-8704644D01*
X10329644Y-8775356D01*
X10400356Y-8775356D01*
X10436856Y-10835356D02*
X10436856Y-10764644D01*
X10366144Y-10764644D01*
X10366144Y-10835356D01*
X10436856Y-10835356D01*
X10690856Y-10835356D02*
X10690856Y-10764644D01*
X10620144Y-10764644D01*
X10620144Y-10835356D01*
X10690856Y-10835356D01*
X10920356Y-7316356D02*
X10920356Y-7245644D01*
X10849644Y-7245644D01*
X10849644Y-7316356D01*
X10920356Y-7316356D01*
X10920356Y-7570356D02*
X10920356Y-7499644D01*
X10849644Y-7499644D01*
X10849644Y-7570356D01*
X10920356Y-7570356D01*
X11174356Y-7316356D02*
X11174356Y-7245644D01*
X11103644Y-7245644D01*
X11103644Y-7316356D01*
X11174356Y-7316356D01*
X11174356Y-7570356D02*
X11174356Y-7499644D01*
X11103644Y-7499644D01*
X11103644Y-7570356D01*
X11174356Y-7570356D01*
X11428356Y-7316356D02*
X11428356Y-7245644D01*
X11357644Y-7245644D01*
X11357644Y-7316356D01*
X11428356Y-7316356D01*
X11428356Y-7570356D02*
X11428356Y-7499644D01*
X11357644Y-7499644D01*
X11357644Y-7570356D01*
X11428356Y-7570356D01*
X11682356Y-7316356D02*
X11682356Y-7245644D01*
X11611644Y-7245644D01*
X11611644Y-7316356D01*
X11682356Y-7316356D01*
X11682356Y-7570356D02*
X11682356Y-7499644D01*
X11611644Y-7499644D01*
X11611644Y-7570356D01*
X11682356Y-7570356D01*
X11936356Y-7316356D02*
X11936356Y-7245644D01*
X11865644Y-7245644D01*
X11865644Y-7316356D01*
X11936356Y-7316356D01*
X11936356Y-7570356D02*
X11936356Y-7499644D01*
X11865644Y-7499644D01*
X11865644Y-7570356D01*
X11936356Y-7570356D01*
X12190356Y-7316356D02*
X12190356Y-7245644D01*
X12119644Y-7245644D01*
X12119644Y-7316356D01*
X12190356Y-7316356D01*
X12190356Y-7570356D02*
X12190356Y-7499644D01*
X12119644Y-7499644D01*
X12119644Y-7570356D01*
X12190356Y-7570356D01*
X12444356Y-7316356D02*
X12444356Y-7245644D01*
X12373644Y-7245644D01*
X12373644Y-7316356D01*
X12444356Y-7316356D01*
X12444356Y-7570356D02*
X12444356Y-7499644D01*
X12373644Y-7499644D01*
X12373644Y-7570356D01*
X12444356Y-7570356D01*
X12698356Y-7316356D02*
X12698356Y-7245644D01*
X12627644Y-7245644D01*
X12627644Y-7316356D01*
X12698356Y-7316356D01*
X12698356Y-7570356D02*
X12698356Y-7499644D01*
X12627644Y-7499644D01*
X12627644Y-7570356D01*
X12698356Y-7570356D01*
X12952356Y-7316356D02*
X12952356Y-7245644D01*
X12881644Y-7245644D01*
X12881644Y-7316356D01*
X12952356Y-7316356D01*
X12952356Y-7570356D02*
X12952356Y-7499644D01*
X12881644Y-7499644D01*
X12881644Y-7570356D01*
X12952356Y-7570356D01*
X13505356Y-7315356D02*
X13505356Y-7244644D01*
X13434644Y-7244644D01*
X13434644Y-7315356D01*
X13505356Y-7315356D01*
X13759356Y-7315356D02*
X13759356Y-7244644D01*
X13688644Y-7244644D01*
X13688644Y-7315356D01*
X13759356Y-7315356D01*
X14013356Y-7315356D02*
X14013356Y-7244644D01*
X13942644Y-7244644D01*
X13942644Y-7315356D01*
X14013356Y-7315356D01*
X14267356Y-7315356D02*
X14267356Y-7244644D01*
X14196644Y-7244644D01*
X14196644Y-7315356D01*
X14267356Y-7315356D01*
X15368856Y-7775356D02*
X15368856Y-7704644D01*
X15298144Y-7704644D01*
X15298144Y-7775356D01*
X15368856Y-7775356D01*
X15371356Y-8175356D02*
X15371356Y-8104644D01*
X15300644Y-8104644D01*
X15300644Y-8175356D01*
X15371356Y-8175356D01*
X15622856Y-7775356D02*
X15622856Y-7704644D01*
X15552144Y-7704644D01*
X15552144Y-7775356D01*
X15622856Y-7775356D01*
X15625356Y-8175356D02*
X15625356Y-8104644D01*
X15554644Y-8104644D01*
X15554644Y-8175356D01*
X15625356Y-8175356D01*
X15965356Y-9995356D02*
X15965356Y-9924644D01*
X15894644Y-9924644D01*
X15894644Y-9995356D01*
X15965356Y-9995356D01*
X16121356Y-7315356D02*
X16121356Y-7244644D01*
X16050644Y-7244644D01*
X16050644Y-7315356D01*
X16121356Y-7315356D01*
X16219356Y-9995356D02*
X16219356Y-9924644D01*
X16148644Y-9924644D01*
X16148644Y-9995356D01*
X16219356Y-9995356D01*
X16375356Y-7315356D02*
X16375356Y-7244644D01*
X16304644Y-7244644D01*
X16304644Y-7315356D01*
X16375356Y-7315356D01*
X16629356Y-7315356D02*
X16629356Y-7244644D01*
X16558644Y-7244644D01*
X16558644Y-7315356D01*
X16629356Y-7315356D01*
X16883356Y-7315356D02*
X16883356Y-7244644D01*
X16812644Y-7244644D01*
X16812644Y-7315356D01*
X16883356Y-7315356D01*
X17137356Y-7315356D02*
X17137356Y-7244644D01*
X17066644Y-7244644D01*
X17066644Y-7315356D01*
X17137356Y-7315356D01*
X17295356Y-7781356D02*
X17295356Y-7710644D01*
X17224644Y-7710644D01*
X17224644Y-7781356D01*
X17295356Y-7781356D01*
X17295356Y-8035356D02*
X17295356Y-7964644D01*
X17224644Y-7964644D01*
X17224644Y-8035356D01*
X17295356Y-8035356D01*
X17391356Y-7315356D02*
X17391356Y-7244644D01*
X17320644Y-7244644D01*
X17320644Y-7315356D01*
X17391356Y-7315356D01*
X17645356Y-7315356D02*
X17645356Y-7244644D01*
X17574644Y-7244644D01*
X17574644Y-7315356D01*
X17645356Y-7315356D01*
X17725356Y-7781356D02*
X17725356Y-7710644D01*
X17654644Y-7710644D01*
X17654644Y-7781356D01*
X17725356Y-7781356D01*
X17725356Y-8035356D02*
X17725356Y-7964644D01*
X17654644Y-7964644D01*
X17654644Y-8035356D01*
X17725356Y-8035356D01*
X17765356Y-9508856D02*
X17765356Y-9438144D01*
X17694644Y-9438144D01*
X17694644Y-9508856D01*
X17765356Y-9508856D01*
X17765356Y-9762856D02*
X17765356Y-9692144D01*
X17694644Y-9692144D01*
X17694644Y-9762856D01*
X17765356Y-9762856D01*
X17899356Y-7315356D02*
X17899356Y-7244644D01*
X17828644Y-7244644D01*
X17828644Y-7315356D01*
X17899356Y-7315356D01*
X18019356Y-9508856D02*
X18019356Y-9438144D01*
X17948644Y-9438144D01*
X17948644Y-9508856D01*
X18019356Y-9508856D01*
X18019356Y-9762856D02*
X18019356Y-9692144D01*
X17948644Y-9692144D01*
X17948644Y-9762856D01*
X18019356Y-9762856D01*
X18153356Y-7315356D02*
X18153356Y-7244644D01*
X18082644Y-7244644D01*
X18082644Y-7315356D01*
X18153356Y-7315356D01*
X18273356Y-9508856D02*
X18273356Y-9438144D01*
X18202644Y-9438144D01*
X18202644Y-9508856D01*
X18273356Y-9508856D01*
X18273356Y-9762856D02*
X18273356Y-9692144D01*
X18202644Y-9692144D01*
X18202644Y-9762856D01*
X18273356Y-9762856D01*
X18407356Y-7315356D02*
X18407356Y-7244644D01*
X18336644Y-7244644D01*
X18336644Y-7315356D01*
X18407356Y-7315356D01*
X18525356Y-7810356D02*
X18525356Y-7739644D01*
X18454644Y-7739644D01*
X18454644Y-7810356D01*
X18525356Y-7810356D01*
X18525356Y-8064356D02*
X18525356Y-7993644D01*
X18454644Y-7993644D01*
X18454644Y-8064356D01*
X18525356Y-8064356D01*
X18525356Y-8318356D02*
X18525356Y-8247644D01*
X18454644Y-8247644D01*
X18454644Y-8318356D01*
X18525356Y-8318356D01*
X18525356Y-8572356D02*
X18525356Y-8501644D01*
X18454644Y-8501644D01*
X18454644Y-8572356D01*
X18525356Y-8572356D01*
X18525356Y-8826356D02*
X18525356Y-8755644D01*
X18454644Y-8755644D01*
X18454644Y-8826356D01*
X18525356Y-8826356D01*
X18525356Y-9080356D02*
X18525356Y-9009644D01*
X18454644Y-9009644D01*
X18454644Y-9080356D01*
X18525356Y-9080356D01*
X18525356Y-10180356D02*
X18525356Y-10109644D01*
X18454644Y-10109644D01*
X18454644Y-10180356D01*
X18525356Y-10180356D01*
X18525356Y-10434356D02*
X18525356Y-10363644D01*
X18454644Y-10363644D01*
X18454644Y-10434356D01*
X18525356Y-10434356D01*
X18525356Y-10688356D02*
X18525356Y-10617644D01*
X18454644Y-10617644D01*
X18454644Y-10688356D01*
X18525356Y-10688356D01*
X18525356Y-10942356D02*
X18525356Y-10871644D01*
X18454644Y-10871644D01*
X18454644Y-10942356D01*
X18525356Y-10942356D01*
X18525356Y-11196356D02*
X18525356Y-11125644D01*
X18454644Y-11125644D01*
X18454644Y-11196356D01*
X18525356Y-11196356D01*
X18525356Y-11450356D02*
X18525356Y-11379644D01*
X18454644Y-11379644D01*
X18454644Y-11450356D01*
X18525356Y-11450356D01*
X18527356Y-9508856D02*
X18527356Y-9438144D01*
X18456644Y-9438144D01*
X18456644Y-9508856D01*
X18527356Y-9508856D01*
X18527356Y-9762856D02*
X18527356Y-9692144D01*
X18456644Y-9692144D01*
X18456644Y-9762856D01*
X18527356Y-9762856D01*
D16*
X10166000Y-12015000D02*
X10221000Y-11960000D01*
X10166000Y-11905000D01*
X10111000Y-11960000D01*
X10166000Y-12015000D01*
X10420000Y-12015000D02*
X10475000Y-11960000D01*
X10420000Y-11905000D01*
X10365000Y-11960000D01*
X10420000Y-12015000D01*
X14393000Y-12015000D02*
X14448000Y-11960000D01*
X14393000Y-11905000D01*
X14338000Y-11960000D01*
X14393000Y-12015000D01*
X14647000Y-12015000D02*
X14702000Y-11960000D01*
X14647000Y-11905000D01*
X14592000Y-11960000D01*
X14647000Y-12015000D01*
D11*
X10052619Y-12715476D02*
X10052619Y-12515476D01*
X10100238Y-12515476D01*
X10128810Y-12525000D01*
X10147857Y-12544048D01*
X10157381Y-12563095D01*
X10166905Y-12601190D01*
X10166905Y-12629762D01*
X10157381Y-12667857D01*
X10147857Y-12686905D01*
X10128810Y-12705952D01*
X10100238Y-12715476D01*
X10052619Y-12715476D01*
X10252619Y-12715476D02*
X10252619Y-12582143D01*
X10252619Y-12620238D02*
X10262143Y-12601190D01*
X10271667Y-12591667D01*
X10290714Y-12582143D01*
X10309762Y-12582143D01*
X10376429Y-12715476D02*
X10376429Y-12582143D01*
X10376429Y-12515476D02*
X10366905Y-12525000D01*
X10376429Y-12534524D01*
X10385952Y-12525000D01*
X10376429Y-12515476D01*
X10376429Y-12534524D01*
X10500238Y-12715476D02*
X10481190Y-12705952D01*
X10471667Y-12686905D01*
X10471667Y-12515476D01*
X10605000Y-12715476D02*
X10585952Y-12705952D01*
X10576429Y-12686905D01*
X10576429Y-12515476D01*
X10833571Y-12715476D02*
X10833571Y-12515476D01*
X10900238Y-12658333D01*
X10966905Y-12515476D01*
X10966905Y-12715476D01*
X11147857Y-12715476D02*
X11147857Y-12610714D01*
X11138333Y-12591667D01*
X11119286Y-12582143D01*
X11081190Y-12582143D01*
X11062143Y-12591667D01*
X11147857Y-12705952D02*
X11128810Y-12715476D01*
X11081190Y-12715476D01*
X11062143Y-12705952D01*
X11052619Y-12686905D01*
X11052619Y-12667857D01*
X11062143Y-12648809D01*
X11081190Y-12639286D01*
X11128810Y-12639286D01*
X11147857Y-12629762D01*
X11243095Y-12582143D02*
X11243095Y-12782143D01*
X11243095Y-12591667D02*
X11262143Y-12582143D01*
X11300238Y-12582143D01*
X11319286Y-12591667D01*
X11328809Y-12601190D01*
X11338333Y-12620238D01*
X11338333Y-12677381D01*
X11328809Y-12696428D01*
X11319286Y-12705952D01*
X11300238Y-12715476D01*
X11262143Y-12715476D01*
X11243095Y-12705952D01*
X11424048Y-12696428D02*
X11433571Y-12705952D01*
X11424048Y-12715476D01*
X11414524Y-12705952D01*
X11424048Y-12696428D01*
X11424048Y-12715476D01*
X11424048Y-12591667D02*
X11433571Y-12601190D01*
X11424048Y-12610714D01*
X11414524Y-12601190D01*
X11424048Y-12591667D01*
X11424048Y-12610714D01*
D12*
X9775000Y-13035000D02*
X9795000Y-13055000D01*
X9795000Y-13035000D02*
X9775000Y-13055000D01*
D11*
X10090714Y-12935476D02*
X10109762Y-12935476D01*
X10128810Y-12945000D01*
X10138333Y-12954524D01*
X10147857Y-12973571D01*
X10157381Y-13011667D01*
X10157381Y-13059286D01*
X10147857Y-13097381D01*
X10138333Y-13116428D01*
X10128810Y-13125952D01*
X10109762Y-13135476D01*
X10090714Y-13135476D01*
X10071667Y-13125952D01*
X10062143Y-13116428D01*
X10052619Y-13097381D01*
X10043095Y-13059286D01*
X10043095Y-13011667D01*
X10052619Y-12973571D01*
X10062143Y-12954524D01*
X10071667Y-12945000D01*
X10090714Y-12935476D01*
X10243095Y-13116428D02*
X10252619Y-13125952D01*
X10243095Y-13135476D01*
X10233571Y-13125952D01*
X10243095Y-13116428D01*
X10243095Y-13135476D01*
X10328810Y-12954524D02*
X10338333Y-12945000D01*
X10357381Y-12935476D01*
X10405000Y-12935476D01*
X10424048Y-12945000D01*
X10433571Y-12954524D01*
X10443095Y-12973571D01*
X10443095Y-12992619D01*
X10433571Y-13021190D01*
X10319286Y-13135476D01*
X10443095Y-13135476D01*
X10566905Y-12935476D02*
X10585952Y-12935476D01*
X10605000Y-12945000D01*
X10614524Y-12954524D01*
X10624048Y-12973571D01*
X10633571Y-13011667D01*
X10633571Y-13059286D01*
X10624048Y-13097381D01*
X10614524Y-13116428D01*
X10605000Y-13125952D01*
X10585952Y-13135476D01*
X10566905Y-13135476D01*
X10547857Y-13125952D01*
X10538333Y-13116428D01*
X10528810Y-13097381D01*
X10519286Y-13059286D01*
X10519286Y-13011667D01*
X10528810Y-12973571D01*
X10538333Y-12954524D01*
X10547857Y-12945000D01*
X10566905Y-12935476D01*
X10757381Y-12935476D02*
X10776429Y-12935476D01*
X10795476Y-12945000D01*
X10805000Y-12954524D01*
X10814524Y-12973571D01*
X10824048Y-13011667D01*
X10824048Y-13059286D01*
X10814524Y-13097381D01*
X10805000Y-13116428D01*
X10795476Y-13125952D01*
X10776429Y-13135476D01*
X10757381Y-13135476D01*
X10738333Y-13125952D01*
X10728810Y-13116428D01*
X10719286Y-13097381D01*
X10709762Y-13059286D01*
X10709762Y-13011667D01*
X10719286Y-12973571D01*
X10728810Y-12954524D01*
X10738333Y-12945000D01*
X10757381Y-12935476D01*
X10909762Y-13135476D02*
X10909762Y-13002143D01*
X10909762Y-13021190D02*
X10919286Y-13011667D01*
X10938333Y-13002143D01*
X10966905Y-13002143D01*
X10985952Y-13011667D01*
X10995476Y-13030714D01*
X10995476Y-13135476D01*
X10995476Y-13030714D02*
X11005000Y-13011667D01*
X11024048Y-13002143D01*
X11052619Y-13002143D01*
X11071667Y-13011667D01*
X11081190Y-13030714D01*
X11081190Y-13135476D01*
X11176429Y-13135476D02*
X11176429Y-13002143D01*
X11176429Y-13021190D02*
X11185952Y-13011667D01*
X11205000Y-13002143D01*
X11233571Y-13002143D01*
X11252619Y-13011667D01*
X11262143Y-13030714D01*
X11262143Y-13135476D01*
X11262143Y-13030714D02*
X11271667Y-13011667D01*
X11290714Y-13002143D01*
X11319286Y-13002143D01*
X11338333Y-13011667D01*
X11347857Y-13030714D01*
X11347857Y-13135476D01*
X11738333Y-12925952D02*
X11566905Y-13183095D01*
X11995476Y-12935476D02*
X12014524Y-12935476D01*
X12033571Y-12945000D01*
X12043095Y-12954524D01*
X12052619Y-12973571D01*
X12062143Y-13011667D01*
X12062143Y-13059286D01*
X12052619Y-13097381D01*
X12043095Y-13116428D01*
X12033571Y-13125952D01*
X12014524Y-13135476D01*
X11995476Y-13135476D01*
X11976428Y-13125952D01*
X11966905Y-13116428D01*
X11957381Y-13097381D01*
X11947857Y-13059286D01*
X11947857Y-13011667D01*
X11957381Y-12973571D01*
X11966905Y-12954524D01*
X11976428Y-12945000D01*
X11995476Y-12935476D01*
X12147857Y-13116428D02*
X12157381Y-13125952D01*
X12147857Y-13135476D01*
X12138333Y-13125952D01*
X12147857Y-13116428D01*
X12147857Y-13135476D01*
X12281190Y-12935476D02*
X12300238Y-12935476D01*
X12319286Y-12945000D01*
X12328809Y-12954524D01*
X12338333Y-12973571D01*
X12347857Y-13011667D01*
X12347857Y-13059286D01*
X12338333Y-13097381D01*
X12328809Y-13116428D01*
X12319286Y-13125952D01*
X12300238Y-13135476D01*
X12281190Y-13135476D01*
X12262143Y-13125952D01*
X12252619Y-13116428D01*
X12243095Y-13097381D01*
X12233571Y-13059286D01*
X12233571Y-13011667D01*
X12243095Y-12973571D01*
X12252619Y-12954524D01*
X12262143Y-12945000D01*
X12281190Y-12935476D01*
X12471667Y-12935476D02*
X12490714Y-12935476D01*
X12509762Y-12945000D01*
X12519286Y-12954524D01*
X12528809Y-12973571D01*
X12538333Y-13011667D01*
X12538333Y-13059286D01*
X12528809Y-13097381D01*
X12519286Y-13116428D01*
X12509762Y-13125952D01*
X12490714Y-13135476D01*
X12471667Y-13135476D01*
X12452619Y-13125952D01*
X12443095Y-13116428D01*
X12433571Y-13097381D01*
X12424048Y-13059286D01*
X12424048Y-13011667D01*
X12433571Y-12973571D01*
X12443095Y-12954524D01*
X12452619Y-12945000D01*
X12471667Y-12935476D01*
X12605000Y-12935476D02*
X12738333Y-12935476D01*
X12652619Y-13135476D01*
X12824048Y-13135476D02*
X12862143Y-13135476D01*
X12881190Y-13125952D01*
X12890714Y-13116428D01*
X12909762Y-13087857D01*
X12919286Y-13049762D01*
X12919286Y-12973571D01*
X12909762Y-12954524D01*
X12900238Y-12945000D01*
X12881190Y-12935476D01*
X12843095Y-12935476D01*
X12824048Y-12945000D01*
X12814524Y-12954524D01*
X12805000Y-12973571D01*
X12805000Y-13021190D01*
X12814524Y-13040238D01*
X12824048Y-13049762D01*
X12843095Y-13059286D01*
X12881190Y-13059286D01*
X12900238Y-13049762D01*
X12909762Y-13040238D01*
X12919286Y-13021190D01*
X12995476Y-12935476D02*
X12995476Y-12973571D01*
X13071667Y-12935476D02*
X13071667Y-12973571D01*
X13366905Y-13211667D02*
X13357381Y-13202143D01*
X13338333Y-13173571D01*
X13328809Y-13154524D01*
X13319286Y-13125952D01*
X13309762Y-13078333D01*
X13309762Y-13040238D01*
X13319286Y-12992619D01*
X13328809Y-12964048D01*
X13338333Y-12945000D01*
X13357381Y-12916428D01*
X13366905Y-12906905D01*
X13433571Y-12954524D02*
X13443095Y-12945000D01*
X13462143Y-12935476D01*
X13509762Y-12935476D01*
X13528809Y-12945000D01*
X13538333Y-12954524D01*
X13547857Y-12973571D01*
X13547857Y-12992619D01*
X13538333Y-13021190D01*
X13424048Y-13135476D01*
X13547857Y-13135476D01*
X13643095Y-13135476D02*
X13681190Y-13135476D01*
X13700238Y-13125952D01*
X13709762Y-13116428D01*
X13728809Y-13087857D01*
X13738333Y-13049762D01*
X13738333Y-12973571D01*
X13728809Y-12954524D01*
X13719286Y-12945000D01*
X13700238Y-12935476D01*
X13662143Y-12935476D01*
X13643095Y-12945000D01*
X13633571Y-12954524D01*
X13624048Y-12973571D01*
X13624048Y-13021190D01*
X13633571Y-13040238D01*
X13643095Y-13049762D01*
X13662143Y-13059286D01*
X13700238Y-13059286D01*
X13719286Y-13049762D01*
X13728809Y-13040238D01*
X13738333Y-13021190D01*
X13862143Y-12935476D02*
X13881190Y-12935476D01*
X13900238Y-12945000D01*
X13909762Y-12954524D01*
X13919286Y-12973571D01*
X13928809Y-13011667D01*
X13928809Y-13059286D01*
X13919286Y-13097381D01*
X13909762Y-13116428D01*
X13900238Y-13125952D01*
X13881190Y-13135476D01*
X13862143Y-13135476D01*
X13843095Y-13125952D01*
X13833571Y-13116428D01*
X13824048Y-13097381D01*
X13814524Y-13059286D01*
X13814524Y-13011667D01*
X13824048Y-12973571D01*
X13833571Y-12954524D01*
X13843095Y-12945000D01*
X13862143Y-12935476D01*
X14166905Y-13135476D02*
X14166905Y-12935476D01*
X14252619Y-13135476D02*
X14252619Y-13030714D01*
X14243095Y-13011667D01*
X14224048Y-13002143D01*
X14195476Y-13002143D01*
X14176428Y-13011667D01*
X14166905Y-13021190D01*
X14376428Y-13135476D02*
X14357381Y-13125952D01*
X14347857Y-13116428D01*
X14338333Y-13097381D01*
X14338333Y-13040238D01*
X14347857Y-13021190D01*
X14357381Y-13011667D01*
X14376428Y-13002143D01*
X14405000Y-13002143D01*
X14424048Y-13011667D01*
X14433571Y-13021190D01*
X14443095Y-13040238D01*
X14443095Y-13097381D01*
X14433571Y-13116428D01*
X14424048Y-13125952D01*
X14405000Y-13135476D01*
X14376428Y-13135476D01*
X14557381Y-13135476D02*
X14538333Y-13125952D01*
X14528809Y-13106905D01*
X14528809Y-12935476D01*
X14709762Y-13125952D02*
X14690714Y-13135476D01*
X14652619Y-13135476D01*
X14633571Y-13125952D01*
X14624048Y-13106905D01*
X14624048Y-13030714D01*
X14633571Y-13011667D01*
X14652619Y-13002143D01*
X14690714Y-13002143D01*
X14709762Y-13011667D01*
X14719286Y-13030714D01*
X14719286Y-13049762D01*
X14624048Y-13068809D01*
X14795476Y-13125952D02*
X14814524Y-13135476D01*
X14852619Y-13135476D01*
X14871667Y-13125952D01*
X14881190Y-13106905D01*
X14881190Y-13097381D01*
X14871667Y-13078333D01*
X14852619Y-13068809D01*
X14824048Y-13068809D01*
X14805000Y-13059286D01*
X14795476Y-13040238D01*
X14795476Y-13030714D01*
X14805000Y-13011667D01*
X14824048Y-13002143D01*
X14852619Y-13002143D01*
X14871667Y-13011667D01*
X14947857Y-13211667D02*
X14957381Y-13202143D01*
X14976428Y-13173571D01*
X14985952Y-13154524D01*
X14995476Y-13125952D01*
X15005000Y-13078333D01*
X15005000Y-13040238D01*
X14995476Y-12992619D01*
X14985952Y-12964048D01*
X14976428Y-12945000D01*
X14957381Y-12916428D01*
X14947857Y-12906905D01*
D13*
X9795000Y-13309000D02*
G75*
G03*
X9795000Y-13309000I-15000J0D01*
G01*
D11*
X10090714Y-13199476D02*
X10109762Y-13199476D01*
X10128810Y-13209000D01*
X10138333Y-13218524D01*
X10147857Y-13237571D01*
X10157381Y-13275667D01*
X10157381Y-13323286D01*
X10147857Y-13361381D01*
X10138333Y-13380428D01*
X10128810Y-13389952D01*
X10109762Y-13399476D01*
X10090714Y-13399476D01*
X10071667Y-13389952D01*
X10062143Y-13380428D01*
X10052619Y-13361381D01*
X10043095Y-13323286D01*
X10043095Y-13275667D01*
X10052619Y-13237571D01*
X10062143Y-13218524D01*
X10071667Y-13209000D01*
X10090714Y-13199476D01*
X10243095Y-13380428D02*
X10252619Y-13389952D01*
X10243095Y-13399476D01*
X10233571Y-13389952D01*
X10243095Y-13380428D01*
X10243095Y-13399476D01*
X10319286Y-13199476D02*
X10443095Y-13199476D01*
X10376429Y-13275667D01*
X10405000Y-13275667D01*
X10424048Y-13285190D01*
X10433571Y-13294714D01*
X10443095Y-13313762D01*
X10443095Y-13361381D01*
X10433571Y-13380428D01*
X10424048Y-13389952D01*
X10405000Y-13399476D01*
X10347857Y-13399476D01*
X10328810Y-13389952D01*
X10319286Y-13380428D01*
X10566905Y-13199476D02*
X10585952Y-13199476D01*
X10605000Y-13209000D01*
X10614524Y-13218524D01*
X10624048Y-13237571D01*
X10633571Y-13275667D01*
X10633571Y-13323286D01*
X10624048Y-13361381D01*
X10614524Y-13380428D01*
X10605000Y-13389952D01*
X10585952Y-13399476D01*
X10566905Y-13399476D01*
X10547857Y-13389952D01*
X10538333Y-13380428D01*
X10528810Y-13361381D01*
X10519286Y-13323286D01*
X10519286Y-13275667D01*
X10528810Y-13237571D01*
X10538333Y-13218524D01*
X10547857Y-13209000D01*
X10566905Y-13199476D01*
X10757381Y-13199476D02*
X10776429Y-13199476D01*
X10795476Y-13209000D01*
X10805000Y-13218524D01*
X10814524Y-13237571D01*
X10824048Y-13275667D01*
X10824048Y-13323286D01*
X10814524Y-13361381D01*
X10805000Y-13380428D01*
X10795476Y-13389952D01*
X10776429Y-13399476D01*
X10757381Y-13399476D01*
X10738333Y-13389952D01*
X10728810Y-13380428D01*
X10719286Y-13361381D01*
X10709762Y-13323286D01*
X10709762Y-13275667D01*
X10719286Y-13237571D01*
X10728810Y-13218524D01*
X10738333Y-13209000D01*
X10757381Y-13199476D01*
X10909762Y-13399476D02*
X10909762Y-13266143D01*
X10909762Y-13285190D02*
X10919286Y-13275667D01*
X10938333Y-13266143D01*
X10966905Y-13266143D01*
X10985952Y-13275667D01*
X10995476Y-13294714D01*
X10995476Y-13399476D01*
X10995476Y-13294714D02*
X11005000Y-13275667D01*
X11024048Y-13266143D01*
X11052619Y-13266143D01*
X11071667Y-13275667D01*
X11081190Y-13294714D01*
X11081190Y-13399476D01*
X11176429Y-13399476D02*
X11176429Y-13266143D01*
X11176429Y-13285190D02*
X11185952Y-13275667D01*
X11205000Y-13266143D01*
X11233571Y-13266143D01*
X11252619Y-13275667D01*
X11262143Y-13294714D01*
X11262143Y-13399476D01*
X11262143Y-13294714D02*
X11271667Y-13275667D01*
X11290714Y-13266143D01*
X11319286Y-13266143D01*
X11338333Y-13275667D01*
X11347857Y-13294714D01*
X11347857Y-13399476D01*
X11738333Y-13189952D02*
X11566905Y-13447095D01*
X11995476Y-13199476D02*
X12014524Y-13199476D01*
X12033571Y-13209000D01*
X12043095Y-13218524D01*
X12052619Y-13237571D01*
X12062143Y-13275667D01*
X12062143Y-13323286D01*
X12052619Y-13361381D01*
X12043095Y-13380428D01*
X12033571Y-13389952D01*
X12014524Y-13399476D01*
X11995476Y-13399476D01*
X11976428Y-13389952D01*
X11966905Y-13380428D01*
X11957381Y-13361381D01*
X11947857Y-13323286D01*
X11947857Y-13275667D01*
X11957381Y-13237571D01*
X11966905Y-13218524D01*
X11976428Y-13209000D01*
X11995476Y-13199476D01*
X12147857Y-13380428D02*
X12157381Y-13389952D01*
X12147857Y-13399476D01*
X12138333Y-13389952D01*
X12147857Y-13380428D01*
X12147857Y-13399476D01*
X12281190Y-13199476D02*
X12300238Y-13199476D01*
X12319286Y-13209000D01*
X12328809Y-13218524D01*
X12338333Y-13237571D01*
X12347857Y-13275667D01*
X12347857Y-13323286D01*
X12338333Y-13361381D01*
X12328809Y-13380428D01*
X12319286Y-13389952D01*
X12300238Y-13399476D01*
X12281190Y-13399476D01*
X12262143Y-13389952D01*
X12252619Y-13380428D01*
X12243095Y-13361381D01*
X12233571Y-13323286D01*
X12233571Y-13275667D01*
X12243095Y-13237571D01*
X12252619Y-13218524D01*
X12262143Y-13209000D01*
X12281190Y-13199476D01*
X12538333Y-13399476D02*
X12424048Y-13399476D01*
X12481190Y-13399476D02*
X12481190Y-13199476D01*
X12462143Y-13228048D01*
X12443095Y-13247095D01*
X12424048Y-13256619D01*
X12728809Y-13399476D02*
X12614524Y-13399476D01*
X12671667Y-13399476D02*
X12671667Y-13199476D01*
X12652619Y-13228048D01*
X12633571Y-13247095D01*
X12614524Y-13256619D01*
X12843095Y-13285190D02*
X12824048Y-13275667D01*
X12814524Y-13266143D01*
X12805000Y-13247095D01*
X12805000Y-13237571D01*
X12814524Y-13218524D01*
X12824048Y-13209000D01*
X12843095Y-13199476D01*
X12881190Y-13199476D01*
X12900238Y-13209000D01*
X12909762Y-13218524D01*
X12919286Y-13237571D01*
X12919286Y-13247095D01*
X12909762Y-13266143D01*
X12900238Y-13275667D01*
X12881190Y-13285190D01*
X12843095Y-13285190D01*
X12824048Y-13294714D01*
X12814524Y-13304238D01*
X12805000Y-13323286D01*
X12805000Y-13361381D01*
X12814524Y-13380428D01*
X12824048Y-13389952D01*
X12843095Y-13399476D01*
X12881190Y-13399476D01*
X12900238Y-13389952D01*
X12909762Y-13380428D01*
X12919286Y-13361381D01*
X12919286Y-13323286D01*
X12909762Y-13304238D01*
X12900238Y-13294714D01*
X12881190Y-13285190D01*
X12995476Y-13199476D02*
X12995476Y-13237571D01*
X13071667Y-13199476D02*
X13071667Y-13237571D01*
X13366905Y-13475667D02*
X13357381Y-13466143D01*
X13338333Y-13437571D01*
X13328809Y-13418524D01*
X13319286Y-13389952D01*
X13309762Y-13342333D01*
X13309762Y-13304238D01*
X13319286Y-13256619D01*
X13328809Y-13228048D01*
X13338333Y-13209000D01*
X13357381Y-13180428D01*
X13366905Y-13170905D01*
X13547857Y-13399476D02*
X13433571Y-13399476D01*
X13490714Y-13399476D02*
X13490714Y-13199476D01*
X13471667Y-13228048D01*
X13452619Y-13247095D01*
X13433571Y-13256619D01*
X13728809Y-13199476D02*
X13633571Y-13199476D01*
X13624048Y-13294714D01*
X13633571Y-13285190D01*
X13652619Y-13275667D01*
X13700238Y-13275667D01*
X13719286Y-13285190D01*
X13728809Y-13294714D01*
X13738333Y-13313762D01*
X13738333Y-13361381D01*
X13728809Y-13380428D01*
X13719286Y-13389952D01*
X13700238Y-13399476D01*
X13652619Y-13399476D01*
X13633571Y-13389952D01*
X13624048Y-13380428D01*
X13862143Y-13199476D02*
X13881190Y-13199476D01*
X13900238Y-13209000D01*
X13909762Y-13218524D01*
X13919286Y-13237571D01*
X13928809Y-13275667D01*
X13928809Y-13323286D01*
X13919286Y-13361381D01*
X13909762Y-13380428D01*
X13900238Y-13389952D01*
X13881190Y-13399476D01*
X13862143Y-13399476D01*
X13843095Y-13389952D01*
X13833571Y-13380428D01*
X13824048Y-13361381D01*
X13814524Y-13323286D01*
X13814524Y-13275667D01*
X13824048Y-13237571D01*
X13833571Y-13218524D01*
X13843095Y-13209000D01*
X13862143Y-13199476D01*
X14166905Y-13399476D02*
X14166905Y-13199476D01*
X14252619Y-13399476D02*
X14252619Y-13294714D01*
X14243095Y-13275667D01*
X14224048Y-13266143D01*
X14195476Y-13266143D01*
X14176428Y-13275667D01*
X14166905Y-13285190D01*
X14376428Y-13399476D02*
X14357381Y-13389952D01*
X14347857Y-13380428D01*
X14338333Y-13361381D01*
X14338333Y-13304238D01*
X14347857Y-13285190D01*
X14357381Y-13275667D01*
X14376428Y-13266143D01*
X14405000Y-13266143D01*
X14424048Y-13275667D01*
X14433571Y-13285190D01*
X14443095Y-13304238D01*
X14443095Y-13361381D01*
X14433571Y-13380428D01*
X14424048Y-13389952D01*
X14405000Y-13399476D01*
X14376428Y-13399476D01*
X14557381Y-13399476D02*
X14538333Y-13389952D01*
X14528809Y-13370905D01*
X14528809Y-13199476D01*
X14709762Y-13389952D02*
X14690714Y-13399476D01*
X14652619Y-13399476D01*
X14633571Y-13389952D01*
X14624048Y-13370905D01*
X14624048Y-13294714D01*
X14633571Y-13275667D01*
X14652619Y-13266143D01*
X14690714Y-13266143D01*
X14709762Y-13275667D01*
X14719286Y-13294714D01*
X14719286Y-13313762D01*
X14624048Y-13332809D01*
X14795476Y-13389952D02*
X14814524Y-13399476D01*
X14852619Y-13399476D01*
X14871667Y-13389952D01*
X14881190Y-13370905D01*
X14881190Y-13361381D01*
X14871667Y-13342333D01*
X14852619Y-13332809D01*
X14824048Y-13332809D01*
X14805000Y-13323286D01*
X14795476Y-13304238D01*
X14795476Y-13294714D01*
X14805000Y-13275667D01*
X14824048Y-13266143D01*
X14852619Y-13266143D01*
X14871667Y-13275667D01*
X14947857Y-13475667D02*
X14957381Y-13466143D01*
X14976428Y-13437571D01*
X14985952Y-13418524D01*
X14995476Y-13389952D01*
X15005000Y-13342333D01*
X15005000Y-13304238D01*
X14995476Y-13256619D01*
X14985952Y-13228048D01*
X14976428Y-13209000D01*
X14957381Y-13180428D01*
X14947857Y-13170905D01*
D14*
X9762500Y-13540500D02*
X9762500Y-13605500D01*
X9730000Y-13573000D02*
X9795000Y-13573000D01*
D11*
X10090714Y-13463476D02*
X10109762Y-13463476D01*
X10128810Y-13473000D01*
X10138333Y-13482524D01*
X10147857Y-13501571D01*
X10157381Y-13539667D01*
X10157381Y-13587286D01*
X10147857Y-13625381D01*
X10138333Y-13644428D01*
X10128810Y-13653952D01*
X10109762Y-13663476D01*
X10090714Y-13663476D01*
X10071667Y-13653952D01*
X10062143Y-13644428D01*
X10052619Y-13625381D01*
X10043095Y-13587286D01*
X10043095Y-13539667D01*
X10052619Y-13501571D01*
X10062143Y-13482524D01*
X10071667Y-13473000D01*
X10090714Y-13463476D01*
X10243095Y-13644428D02*
X10252619Y-13653952D01*
X10243095Y-13663476D01*
X10233571Y-13653952D01*
X10243095Y-13644428D01*
X10243095Y-13663476D01*
X10424048Y-13463476D02*
X10385952Y-13463476D01*
X10366905Y-13473000D01*
X10357381Y-13482524D01*
X10338333Y-13511095D01*
X10328810Y-13549190D01*
X10328810Y-13625381D01*
X10338333Y-13644428D01*
X10347857Y-13653952D01*
X10366905Y-13663476D01*
X10405000Y-13663476D01*
X10424048Y-13653952D01*
X10433571Y-13644428D01*
X10443095Y-13625381D01*
X10443095Y-13577762D01*
X10433571Y-13558714D01*
X10424048Y-13549190D01*
X10405000Y-13539667D01*
X10366905Y-13539667D01*
X10347857Y-13549190D01*
X10338333Y-13558714D01*
X10328810Y-13577762D01*
X10624048Y-13463476D02*
X10528810Y-13463476D01*
X10519286Y-13558714D01*
X10528810Y-13549190D01*
X10547857Y-13539667D01*
X10595476Y-13539667D01*
X10614524Y-13549190D01*
X10624048Y-13558714D01*
X10633571Y-13577762D01*
X10633571Y-13625381D01*
X10624048Y-13644428D01*
X10614524Y-13653952D01*
X10595476Y-13663476D01*
X10547857Y-13663476D01*
X10528810Y-13653952D01*
X10519286Y-13644428D01*
X10757381Y-13463476D02*
X10776429Y-13463476D01*
X10795476Y-13473000D01*
X10805000Y-13482524D01*
X10814524Y-13501571D01*
X10824048Y-13539667D01*
X10824048Y-13587286D01*
X10814524Y-13625381D01*
X10805000Y-13644428D01*
X10795476Y-13653952D01*
X10776429Y-13663476D01*
X10757381Y-13663476D01*
X10738333Y-13653952D01*
X10728810Y-13644428D01*
X10719286Y-13625381D01*
X10709762Y-13587286D01*
X10709762Y-13539667D01*
X10719286Y-13501571D01*
X10728810Y-13482524D01*
X10738333Y-13473000D01*
X10757381Y-13463476D01*
X10909762Y-13663476D02*
X10909762Y-13530143D01*
X10909762Y-13549190D02*
X10919286Y-13539667D01*
X10938333Y-13530143D01*
X10966905Y-13530143D01*
X10985952Y-13539667D01*
X10995476Y-13558714D01*
X10995476Y-13663476D01*
X10995476Y-13558714D02*
X11005000Y-13539667D01*
X11024048Y-13530143D01*
X11052619Y-13530143D01*
X11071667Y-13539667D01*
X11081190Y-13558714D01*
X11081190Y-13663476D01*
X11176429Y-13663476D02*
X11176429Y-13530143D01*
X11176429Y-13549190D02*
X11185952Y-13539667D01*
X11205000Y-13530143D01*
X11233571Y-13530143D01*
X11252619Y-13539667D01*
X11262143Y-13558714D01*
X11262143Y-13663476D01*
X11262143Y-13558714D02*
X11271667Y-13539667D01*
X11290714Y-13530143D01*
X11319286Y-13530143D01*
X11338333Y-13539667D01*
X11347857Y-13558714D01*
X11347857Y-13663476D01*
X11738333Y-13453952D02*
X11566905Y-13711095D01*
X11995476Y-13463476D02*
X12014524Y-13463476D01*
X12033571Y-13473000D01*
X12043095Y-13482524D01*
X12052619Y-13501571D01*
X12062143Y-13539667D01*
X12062143Y-13587286D01*
X12052619Y-13625381D01*
X12043095Y-13644428D01*
X12033571Y-13653952D01*
X12014524Y-13663476D01*
X11995476Y-13663476D01*
X11976428Y-13653952D01*
X11966905Y-13644428D01*
X11957381Y-13625381D01*
X11947857Y-13587286D01*
X11947857Y-13539667D01*
X11957381Y-13501571D01*
X11966905Y-13482524D01*
X11976428Y-13473000D01*
X11995476Y-13463476D01*
X12147857Y-13644428D02*
X12157381Y-13653952D01*
X12147857Y-13663476D01*
X12138333Y-13653952D01*
X12147857Y-13644428D01*
X12147857Y-13663476D01*
X12281190Y-13463476D02*
X12300238Y-13463476D01*
X12319286Y-13473000D01*
X12328809Y-13482524D01*
X12338333Y-13501571D01*
X12347857Y-13539667D01*
X12347857Y-13587286D01*
X12338333Y-13625381D01*
X12328809Y-13644428D01*
X12319286Y-13653952D01*
X12300238Y-13663476D01*
X12281190Y-13663476D01*
X12262143Y-13653952D01*
X12252619Y-13644428D01*
X12243095Y-13625381D01*
X12233571Y-13587286D01*
X12233571Y-13539667D01*
X12243095Y-13501571D01*
X12252619Y-13482524D01*
X12262143Y-13473000D01*
X12281190Y-13463476D01*
X12424048Y-13482524D02*
X12433571Y-13473000D01*
X12452619Y-13463476D01*
X12500238Y-13463476D01*
X12519286Y-13473000D01*
X12528809Y-13482524D01*
X12538333Y-13501571D01*
X12538333Y-13520619D01*
X12528809Y-13549190D01*
X12414524Y-13663476D01*
X12538333Y-13663476D01*
X12719286Y-13463476D02*
X12624048Y-13463476D01*
X12614524Y-13558714D01*
X12624048Y-13549190D01*
X12643095Y-13539667D01*
X12690714Y-13539667D01*
X12709762Y-13549190D01*
X12719286Y-13558714D01*
X12728809Y-13577762D01*
X12728809Y-13625381D01*
X12719286Y-13644428D01*
X12709762Y-13653952D01*
X12690714Y-13663476D01*
X12643095Y-13663476D01*
X12624048Y-13653952D01*
X12614524Y-13644428D01*
X12900238Y-13463476D02*
X12862143Y-13463476D01*
X12843095Y-13473000D01*
X12833571Y-13482524D01*
X12814524Y-13511095D01*
X12805000Y-13549190D01*
X12805000Y-13625381D01*
X12814524Y-13644428D01*
X12824048Y-13653952D01*
X12843095Y-13663476D01*
X12881190Y-13663476D01*
X12900238Y-13653952D01*
X12909762Y-13644428D01*
X12919286Y-13625381D01*
X12919286Y-13577762D01*
X12909762Y-13558714D01*
X12900238Y-13549190D01*
X12881190Y-13539667D01*
X12843095Y-13539667D01*
X12824048Y-13549190D01*
X12814524Y-13558714D01*
X12805000Y-13577762D01*
X12995476Y-13463476D02*
X12995476Y-13501571D01*
X13071667Y-13463476D02*
X13071667Y-13501571D01*
X13366905Y-13739667D02*
X13357381Y-13730143D01*
X13338333Y-13701571D01*
X13328809Y-13682524D01*
X13319286Y-13653952D01*
X13309762Y-13606333D01*
X13309762Y-13568238D01*
X13319286Y-13520619D01*
X13328809Y-13492048D01*
X13338333Y-13473000D01*
X13357381Y-13444428D01*
X13366905Y-13434905D01*
X13547857Y-13663476D02*
X13433571Y-13663476D01*
X13490714Y-13663476D02*
X13490714Y-13463476D01*
X13471667Y-13492048D01*
X13452619Y-13511095D01*
X13433571Y-13520619D01*
X13719286Y-13530143D02*
X13719286Y-13663476D01*
X13671667Y-13453952D02*
X13624048Y-13596809D01*
X13747857Y-13596809D01*
X13976428Y-13663476D02*
X13976428Y-13463476D01*
X14062143Y-13663476D02*
X14062143Y-13558714D01*
X14052619Y-13539667D01*
X14033571Y-13530143D01*
X14005000Y-13530143D01*
X13985952Y-13539667D01*
X13976428Y-13549190D01*
X14185952Y-13663476D02*
X14166905Y-13653952D01*
X14157381Y-13644428D01*
X14147857Y-13625381D01*
X14147857Y-13568238D01*
X14157381Y-13549190D01*
X14166905Y-13539667D01*
X14185952Y-13530143D01*
X14214524Y-13530143D01*
X14233571Y-13539667D01*
X14243095Y-13549190D01*
X14252619Y-13568238D01*
X14252619Y-13625381D01*
X14243095Y-13644428D01*
X14233571Y-13653952D01*
X14214524Y-13663476D01*
X14185952Y-13663476D01*
X14366905Y-13663476D02*
X14347857Y-13653952D01*
X14338333Y-13634905D01*
X14338333Y-13463476D01*
X14519286Y-13653952D02*
X14500238Y-13663476D01*
X14462143Y-13663476D01*
X14443095Y-13653952D01*
X14433571Y-13634905D01*
X14433571Y-13558714D01*
X14443095Y-13539667D01*
X14462143Y-13530143D01*
X14500238Y-13530143D01*
X14519286Y-13539667D01*
X14528809Y-13558714D01*
X14528809Y-13577762D01*
X14433571Y-13596809D01*
X14605000Y-13653952D02*
X14624048Y-13663476D01*
X14662143Y-13663476D01*
X14681190Y-13653952D01*
X14690714Y-13634905D01*
X14690714Y-13625381D01*
X14681190Y-13606333D01*
X14662143Y-13596809D01*
X14633571Y-13596809D01*
X14614524Y-13587286D01*
X14605000Y-13568238D01*
X14605000Y-13558714D01*
X14614524Y-13539667D01*
X14633571Y-13530143D01*
X14662143Y-13530143D01*
X14681190Y-13539667D01*
X14757381Y-13739667D02*
X14766905Y-13730143D01*
X14785952Y-13701571D01*
X14795476Y-13682524D01*
X14805000Y-13653952D01*
X14814524Y-13606333D01*
X14814524Y-13568238D01*
X14805000Y-13520619D01*
X14795476Y-13492048D01*
X14785952Y-13473000D01*
X14766905Y-13444428D01*
X14757381Y-13434905D01*
D15*
X9780356Y-13872356D02*
X9780356Y-13801644D01*
X9709644Y-13801644D01*
X9709644Y-13872356D01*
X9780356Y-13872356D01*
D11*
X10157381Y-13927476D02*
X10043095Y-13927476D01*
X10100238Y-13927476D02*
X10100238Y-13727476D01*
X10081190Y-13756048D01*
X10062143Y-13775095D01*
X10043095Y-13784619D01*
X10243095Y-13908428D02*
X10252619Y-13917952D01*
X10243095Y-13927476D01*
X10233571Y-13917952D01*
X10243095Y-13908428D01*
X10243095Y-13927476D01*
X10376429Y-13727476D02*
X10395476Y-13727476D01*
X10414524Y-13737000D01*
X10424048Y-13746524D01*
X10433571Y-13765571D01*
X10443095Y-13803667D01*
X10443095Y-13851286D01*
X10433571Y-13889381D01*
X10424048Y-13908428D01*
X10414524Y-13917952D01*
X10395476Y-13927476D01*
X10376429Y-13927476D01*
X10357381Y-13917952D01*
X10347857Y-13908428D01*
X10338333Y-13889381D01*
X10328810Y-13851286D01*
X10328810Y-13803667D01*
X10338333Y-13765571D01*
X10347857Y-13746524D01*
X10357381Y-13737000D01*
X10376429Y-13727476D01*
X10566905Y-13727476D02*
X10585952Y-13727476D01*
X10605000Y-13737000D01*
X10614524Y-13746524D01*
X10624048Y-13765571D01*
X10633571Y-13803667D01*
X10633571Y-13851286D01*
X10624048Y-13889381D01*
X10614524Y-13908428D01*
X10605000Y-13917952D01*
X10585952Y-13927476D01*
X10566905Y-13927476D01*
X10547857Y-13917952D01*
X10538333Y-13908428D01*
X10528810Y-13889381D01*
X10519286Y-13851286D01*
X10519286Y-13803667D01*
X10528810Y-13765571D01*
X10538333Y-13746524D01*
X10547857Y-13737000D01*
X10566905Y-13727476D01*
X10757381Y-13727476D02*
X10776429Y-13727476D01*
X10795476Y-13737000D01*
X10805000Y-13746524D01*
X10814524Y-13765571D01*
X10824048Y-13803667D01*
X10824048Y-13851286D01*
X10814524Y-13889381D01*
X10805000Y-13908428D01*
X10795476Y-13917952D01*
X10776429Y-13927476D01*
X10757381Y-13927476D01*
X10738333Y-13917952D01*
X10728810Y-13908428D01*
X10719286Y-13889381D01*
X10709762Y-13851286D01*
X10709762Y-13803667D01*
X10719286Y-13765571D01*
X10728810Y-13746524D01*
X10738333Y-13737000D01*
X10757381Y-13727476D01*
X10909762Y-13927476D02*
X10909762Y-13794143D01*
X10909762Y-13813190D02*
X10919286Y-13803667D01*
X10938333Y-13794143D01*
X10966905Y-13794143D01*
X10985952Y-13803667D01*
X10995476Y-13822714D01*
X10995476Y-13927476D01*
X10995476Y-13822714D02*
X11005000Y-13803667D01*
X11024048Y-13794143D01*
X11052619Y-13794143D01*
X11071667Y-13803667D01*
X11081190Y-13822714D01*
X11081190Y-13927476D01*
X11176429Y-13927476D02*
X11176429Y-13794143D01*
X11176429Y-13813190D02*
X11185952Y-13803667D01*
X11205000Y-13794143D01*
X11233571Y-13794143D01*
X11252619Y-13803667D01*
X11262143Y-13822714D01*
X11262143Y-13927476D01*
X11262143Y-13822714D02*
X11271667Y-13803667D01*
X11290714Y-13794143D01*
X11319286Y-13794143D01*
X11338333Y-13803667D01*
X11347857Y-13822714D01*
X11347857Y-13927476D01*
X11738333Y-13717952D02*
X11566905Y-13975095D01*
X11995476Y-13727476D02*
X12014524Y-13727476D01*
X12033571Y-13737000D01*
X12043095Y-13746524D01*
X12052619Y-13765571D01*
X12062143Y-13803667D01*
X12062143Y-13851286D01*
X12052619Y-13889381D01*
X12043095Y-13908428D01*
X12033571Y-13917952D01*
X12014524Y-13927476D01*
X11995476Y-13927476D01*
X11976428Y-13917952D01*
X11966905Y-13908428D01*
X11957381Y-13889381D01*
X11947857Y-13851286D01*
X11947857Y-13803667D01*
X11957381Y-13765571D01*
X11966905Y-13746524D01*
X11976428Y-13737000D01*
X11995476Y-13727476D01*
X12147857Y-13908428D02*
X12157381Y-13917952D01*
X12147857Y-13927476D01*
X12138333Y-13917952D01*
X12147857Y-13908428D01*
X12147857Y-13927476D01*
X12281190Y-13727476D02*
X12300238Y-13727476D01*
X12319286Y-13737000D01*
X12328809Y-13746524D01*
X12338333Y-13765571D01*
X12347857Y-13803667D01*
X12347857Y-13851286D01*
X12338333Y-13889381D01*
X12328809Y-13908428D01*
X12319286Y-13917952D01*
X12300238Y-13927476D01*
X12281190Y-13927476D01*
X12262143Y-13917952D01*
X12252619Y-13908428D01*
X12243095Y-13889381D01*
X12233571Y-13851286D01*
X12233571Y-13803667D01*
X12243095Y-13765571D01*
X12252619Y-13746524D01*
X12262143Y-13737000D01*
X12281190Y-13727476D01*
X12414524Y-13727476D02*
X12538333Y-13727476D01*
X12471667Y-13803667D01*
X12500238Y-13803667D01*
X12519286Y-13813190D01*
X12528809Y-13822714D01*
X12538333Y-13841762D01*
X12538333Y-13889381D01*
X12528809Y-13908428D01*
X12519286Y-13917952D01*
X12500238Y-13927476D01*
X12443095Y-13927476D01*
X12424048Y-13917952D01*
X12414524Y-13908428D01*
X12633571Y-13927476D02*
X12671667Y-13927476D01*
X12690714Y-13917952D01*
X12700238Y-13908428D01*
X12719286Y-13879857D01*
X12728809Y-13841762D01*
X12728809Y-13765571D01*
X12719286Y-13746524D01*
X12709762Y-13737000D01*
X12690714Y-13727476D01*
X12652619Y-13727476D01*
X12633571Y-13737000D01*
X12624048Y-13746524D01*
X12614524Y-13765571D01*
X12614524Y-13813190D01*
X12624048Y-13832238D01*
X12633571Y-13841762D01*
X12652619Y-13851286D01*
X12690714Y-13851286D01*
X12709762Y-13841762D01*
X12719286Y-13832238D01*
X12728809Y-13813190D01*
X12900238Y-13794143D02*
X12900238Y-13927476D01*
X12852619Y-13717952D02*
X12805000Y-13860809D01*
X12928809Y-13860809D01*
X12995476Y-13727476D02*
X12995476Y-13765571D01*
X13071667Y-13727476D02*
X13071667Y-13765571D01*
X13366905Y-14003667D02*
X13357381Y-13994143D01*
X13338333Y-13965571D01*
X13328809Y-13946524D01*
X13319286Y-13917952D01*
X13309762Y-13870333D01*
X13309762Y-13832238D01*
X13319286Y-13784619D01*
X13328809Y-13756048D01*
X13338333Y-13737000D01*
X13357381Y-13708428D01*
X13366905Y-13698905D01*
X13424048Y-13727476D02*
X13557381Y-13727476D01*
X13471667Y-13927476D01*
X13738333Y-13927476D02*
X13624048Y-13927476D01*
X13681190Y-13927476D02*
X13681190Y-13727476D01*
X13662143Y-13756048D01*
X13643095Y-13775095D01*
X13624048Y-13784619D01*
X13976428Y-13927476D02*
X13976428Y-13727476D01*
X14062143Y-13927476D02*
X14062143Y-13822714D01*
X14052619Y-13803667D01*
X14033571Y-13794143D01*
X14005000Y-13794143D01*
X13985952Y-13803667D01*
X13976428Y-13813190D01*
X14185952Y-13927476D02*
X14166905Y-13917952D01*
X14157381Y-13908428D01*
X14147857Y-13889381D01*
X14147857Y-13832238D01*
X14157381Y-13813190D01*
X14166905Y-13803667D01*
X14185952Y-13794143D01*
X14214524Y-13794143D01*
X14233571Y-13803667D01*
X14243095Y-13813190D01*
X14252619Y-13832238D01*
X14252619Y-13889381D01*
X14243095Y-13908428D01*
X14233571Y-13917952D01*
X14214524Y-13927476D01*
X14185952Y-13927476D01*
X14366905Y-13927476D02*
X14347857Y-13917952D01*
X14338333Y-13898905D01*
X14338333Y-13727476D01*
X14519286Y-13917952D02*
X14500238Y-13927476D01*
X14462143Y-13927476D01*
X14443095Y-13917952D01*
X14433571Y-13898905D01*
X14433571Y-13822714D01*
X14443095Y-13803667D01*
X14462143Y-13794143D01*
X14500238Y-13794143D01*
X14519286Y-13803667D01*
X14528809Y-13822714D01*
X14528809Y-13841762D01*
X14433571Y-13860809D01*
X14605000Y-13917952D02*
X14624048Y-13927476D01*
X14662143Y-13927476D01*
X14681190Y-13917952D01*
X14690714Y-13898905D01*
X14690714Y-13889381D01*
X14681190Y-13870333D01*
X14662143Y-13860809D01*
X14633571Y-13860809D01*
X14614524Y-13851286D01*
X14605000Y-13832238D01*
X14605000Y-13822714D01*
X14614524Y-13803667D01*
X14633571Y-13794143D01*
X14662143Y-13794143D01*
X14681190Y-13803667D01*
X14757381Y-14003667D02*
X14766905Y-13994143D01*
X14785952Y-13965571D01*
X14795476Y-13946524D01*
X14805000Y-13917952D01*
X14814524Y-13870333D01*
X14814524Y-13832238D01*
X14805000Y-13784619D01*
X14795476Y-13756048D01*
X14785952Y-13737000D01*
X14766905Y-13708428D01*
X14757381Y-13698905D01*
D16*
X9740000Y-14156000D02*
X9795000Y-14101000D01*
X9740000Y-14046000D01*
X9685000Y-14101000D01*
X9740000Y-14156000D01*
D11*
X10157381Y-14191476D02*
X10043095Y-14191476D01*
X10100238Y-14191476D02*
X10100238Y-13991476D01*
X10081190Y-14020048D01*
X10062143Y-14039095D01*
X10043095Y-14048619D01*
X10243095Y-14172428D02*
X10252619Y-14181952D01*
X10243095Y-14191476D01*
X10233571Y-14181952D01*
X10243095Y-14172428D01*
X10243095Y-14191476D01*
X10443095Y-14191476D02*
X10328810Y-14191476D01*
X10385952Y-14191476D02*
X10385952Y-13991476D01*
X10366905Y-14020048D01*
X10347857Y-14039095D01*
X10328810Y-14048619D01*
X10566905Y-13991476D02*
X10585952Y-13991476D01*
X10605000Y-14001000D01*
X10614524Y-14010524D01*
X10624048Y-14029571D01*
X10633571Y-14067667D01*
X10633571Y-14115286D01*
X10624048Y-14153381D01*
X10614524Y-14172428D01*
X10605000Y-14181952D01*
X10585952Y-14191476D01*
X10566905Y-14191476D01*
X10547857Y-14181952D01*
X10538333Y-14172428D01*
X10528810Y-14153381D01*
X10519286Y-14115286D01*
X10519286Y-14067667D01*
X10528810Y-14029571D01*
X10538333Y-14010524D01*
X10547857Y-14001000D01*
X10566905Y-13991476D01*
X10757381Y-13991476D02*
X10776429Y-13991476D01*
X10795476Y-14001000D01*
X10805000Y-14010524D01*
X10814524Y-14029571D01*
X10824048Y-14067667D01*
X10824048Y-14115286D01*
X10814524Y-14153381D01*
X10805000Y-14172428D01*
X10795476Y-14181952D01*
X10776429Y-14191476D01*
X10757381Y-14191476D01*
X10738333Y-14181952D01*
X10728810Y-14172428D01*
X10719286Y-14153381D01*
X10709762Y-14115286D01*
X10709762Y-14067667D01*
X10719286Y-14029571D01*
X10728810Y-14010524D01*
X10738333Y-14001000D01*
X10757381Y-13991476D01*
X10909762Y-14191476D02*
X10909762Y-14058143D01*
X10909762Y-14077190D02*
X10919286Y-14067667D01*
X10938333Y-14058143D01*
X10966905Y-14058143D01*
X10985952Y-14067667D01*
X10995476Y-14086714D01*
X10995476Y-14191476D01*
X10995476Y-14086714D02*
X11005000Y-14067667D01*
X11024048Y-14058143D01*
X11052619Y-14058143D01*
X11071667Y-14067667D01*
X11081190Y-14086714D01*
X11081190Y-14191476D01*
X11176429Y-14191476D02*
X11176429Y-14058143D01*
X11176429Y-14077190D02*
X11185952Y-14067667D01*
X11205000Y-14058143D01*
X11233571Y-14058143D01*
X11252619Y-14067667D01*
X11262143Y-14086714D01*
X11262143Y-14191476D01*
X11262143Y-14086714D02*
X11271667Y-14067667D01*
X11290714Y-14058143D01*
X11319286Y-14058143D01*
X11338333Y-14067667D01*
X11347857Y-14086714D01*
X11347857Y-14191476D01*
X11738333Y-13981952D02*
X11566905Y-14239095D01*
X11995476Y-13991476D02*
X12014524Y-13991476D01*
X12033571Y-14001000D01*
X12043095Y-14010524D01*
X12052619Y-14029571D01*
X12062143Y-14067667D01*
X12062143Y-14115286D01*
X12052619Y-14153381D01*
X12043095Y-14172428D01*
X12033571Y-14181952D01*
X12014524Y-14191476D01*
X11995476Y-14191476D01*
X11976428Y-14181952D01*
X11966905Y-14172428D01*
X11957381Y-14153381D01*
X11947857Y-14115286D01*
X11947857Y-14067667D01*
X11957381Y-14029571D01*
X11966905Y-14010524D01*
X11976428Y-14001000D01*
X11995476Y-13991476D01*
X12147857Y-14172428D02*
X12157381Y-14181952D01*
X12147857Y-14191476D01*
X12138333Y-14181952D01*
X12147857Y-14172428D01*
X12147857Y-14191476D01*
X12281190Y-13991476D02*
X12300238Y-13991476D01*
X12319286Y-14001000D01*
X12328809Y-14010524D01*
X12338333Y-14029571D01*
X12347857Y-14067667D01*
X12347857Y-14115286D01*
X12338333Y-14153381D01*
X12328809Y-14172428D01*
X12319286Y-14181952D01*
X12300238Y-14191476D01*
X12281190Y-14191476D01*
X12262143Y-14181952D01*
X12252619Y-14172428D01*
X12243095Y-14153381D01*
X12233571Y-14115286D01*
X12233571Y-14067667D01*
X12243095Y-14029571D01*
X12252619Y-14010524D01*
X12262143Y-14001000D01*
X12281190Y-13991476D01*
X12519286Y-14058143D02*
X12519286Y-14191476D01*
X12471667Y-13981952D02*
X12424048Y-14124809D01*
X12547857Y-14124809D01*
X12605000Y-13991476D02*
X12728809Y-13991476D01*
X12662143Y-14067667D01*
X12690714Y-14067667D01*
X12709762Y-14077190D01*
X12719286Y-14086714D01*
X12728809Y-14105762D01*
X12728809Y-14153381D01*
X12719286Y-14172428D01*
X12709762Y-14181952D01*
X12690714Y-14191476D01*
X12633571Y-14191476D01*
X12614524Y-14181952D01*
X12605000Y-14172428D01*
X12795476Y-13991476D02*
X12919286Y-13991476D01*
X12852619Y-14067667D01*
X12881190Y-14067667D01*
X12900238Y-14077190D01*
X12909762Y-14086714D01*
X12919286Y-14105762D01*
X12919286Y-14153381D01*
X12909762Y-14172428D01*
X12900238Y-14181952D01*
X12881190Y-14191476D01*
X12824048Y-14191476D01*
X12805000Y-14181952D01*
X12795476Y-14172428D01*
X12995476Y-13991476D02*
X12995476Y-14029571D01*
X13071667Y-13991476D02*
X13071667Y-14029571D01*
X13366905Y-14267667D02*
X13357381Y-14258143D01*
X13338333Y-14229571D01*
X13328809Y-14210524D01*
X13319286Y-14181952D01*
X13309762Y-14134333D01*
X13309762Y-14096238D01*
X13319286Y-14048619D01*
X13328809Y-14020048D01*
X13338333Y-14001000D01*
X13357381Y-13972428D01*
X13366905Y-13962905D01*
X13528809Y-14058143D02*
X13528809Y-14191476D01*
X13481190Y-13981952D02*
X13433571Y-14124809D01*
X13557381Y-14124809D01*
X13785952Y-14191476D02*
X13785952Y-13991476D01*
X13871667Y-14191476D02*
X13871667Y-14086714D01*
X13862143Y-14067667D01*
X13843095Y-14058143D01*
X13814524Y-14058143D01*
X13795476Y-14067667D01*
X13785952Y-14077190D01*
X13995476Y-14191476D02*
X13976428Y-14181952D01*
X13966905Y-14172428D01*
X13957381Y-14153381D01*
X13957381Y-14096238D01*
X13966905Y-14077190D01*
X13976428Y-14067667D01*
X13995476Y-14058143D01*
X14024048Y-14058143D01*
X14043095Y-14067667D01*
X14052619Y-14077190D01*
X14062143Y-14096238D01*
X14062143Y-14153381D01*
X14052619Y-14172428D01*
X14043095Y-14181952D01*
X14024048Y-14191476D01*
X13995476Y-14191476D01*
X14176428Y-14191476D02*
X14157381Y-14181952D01*
X14147857Y-14162905D01*
X14147857Y-13991476D01*
X14328809Y-14181952D02*
X14309762Y-14191476D01*
X14271667Y-14191476D01*
X14252619Y-14181952D01*
X14243095Y-14162905D01*
X14243095Y-14086714D01*
X14252619Y-14067667D01*
X14271667Y-14058143D01*
X14309762Y-14058143D01*
X14328809Y-14067667D01*
X14338333Y-14086714D01*
X14338333Y-14105762D01*
X14243095Y-14124809D01*
X14414524Y-14181952D02*
X14433571Y-14191476D01*
X14471667Y-14191476D01*
X14490714Y-14181952D01*
X14500238Y-14162905D01*
X14500238Y-14153381D01*
X14490714Y-14134333D01*
X14471667Y-14124809D01*
X14443095Y-14124809D01*
X14424048Y-14115286D01*
X14414524Y-14096238D01*
X14414524Y-14086714D01*
X14424048Y-14067667D01*
X14443095Y-14058143D01*
X14471667Y-14058143D01*
X14490714Y-14067667D01*
X14566905Y-14267667D02*
X14576428Y-14258143D01*
X14595476Y-14229571D01*
X14605000Y-14210524D01*
X14614524Y-14181952D01*
X14624048Y-14134333D01*
X14624048Y-14096238D01*
X14614524Y-14048619D01*
X14605000Y-14020048D01*
X14595476Y-14001000D01*
X14576428Y-13972428D01*
X14566905Y-13962905D01*
M02*
