M48
; DRILL file {KiCad (6.0.1)} date Wed Mar 29 19:46:18 2023
; FORMAT={-:-/ absolute / metric / decimal}
; #@! TF.CreationDate,2023-03-29T19:46:18-04:00
; #@! TF.GenerationSoftware,Kicad,Pcbnew,(6.0.1)
; #@! TF.FileFunction,Plated,1,2,PTH
FMAT,2
METRIC
; #@! TA.AperFunction,Plated,PTH,ComponentDrill
T1C1.000
%
G90
G05
T1
X88.5Y-82.0
X91.04Y-82.0
X92.0Y-45.0
X94.54Y-45.0
X97.08Y-45.0
X99.62Y-45.0
X101.0Y-82.0
X102.16Y-45.0
X103.54Y-82.0
X104.7Y-45.0
X106.08Y-82.0
X107.24Y-45.0
X108.62Y-82.0
X109.78Y-45.0
X111.16Y-82.0
X113.7Y-82.0
X132.5Y-82.0
X135.04Y-82.0
X137.125Y-45.0
X139.665Y-45.0
X142.205Y-45.0
X144.745Y-45.0
X145.65Y-82.0
X147.285Y-45.0
X148.19Y-82.0
X149.825Y-45.0
X150.73Y-82.0
X152.365Y-45.0
X153.27Y-82.0
X154.905Y-45.0
X155.81Y-82.0
X158.35Y-82.0
T0
M30
