%FSLAX45Y45*%
G04 Gerber Fmt 4.5, Leading zero omitted, Abs format (unit mm)*
G04 Created by KiCad (PCBNEW (6.0.1)) date 2023-03-29 19:46:21*
%MOMM*%
%LPD*%
G01*
G04 APERTURE LIST*
%TA.AperFunction,Profile*%
%ADD10C,0.100000*%
%TD*%
%ADD11C,0.200000*%
%ADD12C,0.100000*%
G04 APERTURE END LIST*
D10*
X7550000Y-9300000D02*
X7550000Y-3500000D01*
X17150000Y-3500000D02*
X17150000Y-9300000D01*
X7550000Y-3500000D02*
X17150000Y-3500000D01*
X17150000Y-9300000D02*
X7550000Y-9300000D01*
D11*
D12*
X8800000Y-8150000D02*
X8900000Y-8250000D01*
X8900000Y-8150000D02*
X8800000Y-8250000D01*
X9054000Y-8150000D02*
X9154000Y-8250000D01*
X9154000Y-8150000D02*
X9054000Y-8250000D01*
X9150000Y-4450000D02*
X9250000Y-4550000D01*
X9250000Y-4450000D02*
X9150000Y-4550000D01*
X9404000Y-4450000D02*
X9504000Y-4550000D01*
X9504000Y-4450000D02*
X9404000Y-4550000D01*
X9658000Y-4450000D02*
X9758000Y-4550000D01*
X9758000Y-4450000D02*
X9658000Y-4550000D01*
X9912000Y-4450000D02*
X10012000Y-4550000D01*
X10012000Y-4450000D02*
X9912000Y-4550000D01*
X10050000Y-8150000D02*
X10150000Y-8250000D01*
X10150000Y-8150000D02*
X10050000Y-8250000D01*
X10166000Y-4450000D02*
X10266000Y-4550000D01*
X10266000Y-4450000D02*
X10166000Y-4550000D01*
X10304000Y-8150000D02*
X10404000Y-8250000D01*
X10404000Y-8150000D02*
X10304000Y-8250000D01*
X10420000Y-4450000D02*
X10520000Y-4550000D01*
X10520000Y-4450000D02*
X10420000Y-4550000D01*
X10558000Y-8150000D02*
X10658000Y-8250000D01*
X10658000Y-8150000D02*
X10558000Y-8250000D01*
X10674000Y-4450000D02*
X10774000Y-4550000D01*
X10774000Y-4450000D02*
X10674000Y-4550000D01*
X10812000Y-8150000D02*
X10912000Y-8250000D01*
X10912000Y-8150000D02*
X10812000Y-8250000D01*
X10928000Y-4450000D02*
X11028000Y-4550000D01*
X11028000Y-4450000D02*
X10928000Y-4550000D01*
X11066000Y-8150000D02*
X11166000Y-8250000D01*
X11166000Y-8150000D02*
X11066000Y-8250000D01*
X11320000Y-8150000D02*
X11420000Y-8250000D01*
X11420000Y-8150000D02*
X11320000Y-8250000D01*
X13200000Y-8150000D02*
X13300000Y-8250000D01*
X13300000Y-8150000D02*
X13200000Y-8250000D01*
X13454000Y-8150000D02*
X13554000Y-8250000D01*
X13554000Y-8150000D02*
X13454000Y-8250000D01*
X13662500Y-4450000D02*
X13762500Y-4550000D01*
X13762500Y-4450000D02*
X13662500Y-4550000D01*
X13916500Y-4450000D02*
X14016500Y-4550000D01*
X14016500Y-4450000D02*
X13916500Y-4550000D01*
X14170500Y-4450000D02*
X14270500Y-4550000D01*
X14270500Y-4450000D02*
X14170500Y-4550000D01*
X14424500Y-4450000D02*
X14524500Y-4550000D01*
X14524500Y-4450000D02*
X14424500Y-4550000D01*
X14515000Y-8150000D02*
X14615000Y-8250000D01*
X14615000Y-8150000D02*
X14515000Y-8250000D01*
X14678500Y-4450000D02*
X14778500Y-4550000D01*
X14778500Y-4450000D02*
X14678500Y-4550000D01*
X14769000Y-8150000D02*
X14869000Y-8250000D01*
X14869000Y-8150000D02*
X14769000Y-8250000D01*
X14932500Y-4450000D02*
X15032500Y-4550000D01*
X15032500Y-4450000D02*
X14932500Y-4550000D01*
X15023000Y-8150000D02*
X15123000Y-8250000D01*
X15123000Y-8150000D02*
X15023000Y-8250000D01*
X15186500Y-4450000D02*
X15286500Y-4550000D01*
X15286500Y-4450000D02*
X15186500Y-4550000D01*
X15277000Y-8150000D02*
X15377000Y-8250000D01*
X15377000Y-8150000D02*
X15277000Y-8250000D01*
X15440500Y-4450000D02*
X15540500Y-4550000D01*
X15540500Y-4450000D02*
X15440500Y-4550000D01*
X15531000Y-8150000D02*
X15631000Y-8250000D01*
X15631000Y-8150000D02*
X15531000Y-8250000D01*
X15785000Y-8150000D02*
X15885000Y-8250000D01*
X15885000Y-8150000D02*
X15785000Y-8250000D01*
D11*
X7802619Y-9615476D02*
X7802619Y-9415476D01*
X7850238Y-9415476D01*
X7878809Y-9425000D01*
X7897857Y-9444048D01*
X7907381Y-9463095D01*
X7916905Y-9501190D01*
X7916905Y-9529762D01*
X7907381Y-9567857D01*
X7897857Y-9586905D01*
X7878809Y-9605952D01*
X7850238Y-9615476D01*
X7802619Y-9615476D01*
X8002619Y-9615476D02*
X8002619Y-9482143D01*
X8002619Y-9520238D02*
X8012143Y-9501190D01*
X8021667Y-9491667D01*
X8040714Y-9482143D01*
X8059762Y-9482143D01*
X8126428Y-9615476D02*
X8126428Y-9482143D01*
X8126428Y-9415476D02*
X8116905Y-9425000D01*
X8126428Y-9434524D01*
X8135952Y-9425000D01*
X8126428Y-9415476D01*
X8126428Y-9434524D01*
X8250238Y-9615476D02*
X8231190Y-9605952D01*
X8221667Y-9586905D01*
X8221667Y-9415476D01*
X8355000Y-9615476D02*
X8335952Y-9605952D01*
X8326428Y-9586905D01*
X8326428Y-9415476D01*
X8583571Y-9615476D02*
X8583571Y-9415476D01*
X8650238Y-9558333D01*
X8716905Y-9415476D01*
X8716905Y-9615476D01*
X8897857Y-9615476D02*
X8897857Y-9510714D01*
X8888333Y-9491667D01*
X8869286Y-9482143D01*
X8831190Y-9482143D01*
X8812143Y-9491667D01*
X8897857Y-9605952D02*
X8878810Y-9615476D01*
X8831190Y-9615476D01*
X8812143Y-9605952D01*
X8802619Y-9586905D01*
X8802619Y-9567857D01*
X8812143Y-9548810D01*
X8831190Y-9539286D01*
X8878810Y-9539286D01*
X8897857Y-9529762D01*
X8993095Y-9482143D02*
X8993095Y-9682143D01*
X8993095Y-9491667D02*
X9012143Y-9482143D01*
X9050238Y-9482143D01*
X9069286Y-9491667D01*
X9078810Y-9501190D01*
X9088333Y-9520238D01*
X9088333Y-9577381D01*
X9078810Y-9596429D01*
X9069286Y-9605952D01*
X9050238Y-9615476D01*
X9012143Y-9615476D01*
X8993095Y-9605952D01*
X9174048Y-9596429D02*
X9183571Y-9605952D01*
X9174048Y-9615476D01*
X9164524Y-9605952D01*
X9174048Y-9596429D01*
X9174048Y-9615476D01*
X9174048Y-9491667D02*
X9183571Y-9501190D01*
X9174048Y-9510714D01*
X9164524Y-9501190D01*
X9174048Y-9491667D01*
X9174048Y-9510714D01*
D12*
X7445000Y-9895000D02*
X7545000Y-9995000D01*
X7545000Y-9895000D02*
X7445000Y-9995000D01*
D11*
X7907381Y-10035476D02*
X7793095Y-10035476D01*
X7850238Y-10035476D02*
X7850238Y-9835476D01*
X7831190Y-9864048D01*
X7812143Y-9883095D01*
X7793095Y-9892619D01*
X7993095Y-10016429D02*
X8002619Y-10025952D01*
X7993095Y-10035476D01*
X7983571Y-10025952D01*
X7993095Y-10016429D01*
X7993095Y-10035476D01*
X8126428Y-9835476D02*
X8145476Y-9835476D01*
X8164524Y-9845000D01*
X8174048Y-9854524D01*
X8183571Y-9873571D01*
X8193095Y-9911667D01*
X8193095Y-9959286D01*
X8183571Y-9997381D01*
X8174048Y-10016429D01*
X8164524Y-10025952D01*
X8145476Y-10035476D01*
X8126428Y-10035476D01*
X8107381Y-10025952D01*
X8097857Y-10016429D01*
X8088333Y-9997381D01*
X8078809Y-9959286D01*
X8078809Y-9911667D01*
X8088333Y-9873571D01*
X8097857Y-9854524D01*
X8107381Y-9845000D01*
X8126428Y-9835476D01*
X8316905Y-9835476D02*
X8335952Y-9835476D01*
X8355000Y-9845000D01*
X8364524Y-9854524D01*
X8374048Y-9873571D01*
X8383571Y-9911667D01*
X8383571Y-9959286D01*
X8374048Y-9997381D01*
X8364524Y-10016429D01*
X8355000Y-10025952D01*
X8335952Y-10035476D01*
X8316905Y-10035476D01*
X8297857Y-10025952D01*
X8288333Y-10016429D01*
X8278809Y-9997381D01*
X8269286Y-9959286D01*
X8269286Y-9911667D01*
X8278809Y-9873571D01*
X8288333Y-9854524D01*
X8297857Y-9845000D01*
X8316905Y-9835476D01*
X8507381Y-9835476D02*
X8526429Y-9835476D01*
X8545476Y-9845000D01*
X8555000Y-9854524D01*
X8564524Y-9873571D01*
X8574048Y-9911667D01*
X8574048Y-9959286D01*
X8564524Y-9997381D01*
X8555000Y-10016429D01*
X8545476Y-10025952D01*
X8526429Y-10035476D01*
X8507381Y-10035476D01*
X8488333Y-10025952D01*
X8478810Y-10016429D01*
X8469286Y-9997381D01*
X8459762Y-9959286D01*
X8459762Y-9911667D01*
X8469286Y-9873571D01*
X8478810Y-9854524D01*
X8488333Y-9845000D01*
X8507381Y-9835476D01*
X8659762Y-10035476D02*
X8659762Y-9902143D01*
X8659762Y-9921190D02*
X8669286Y-9911667D01*
X8688333Y-9902143D01*
X8716905Y-9902143D01*
X8735952Y-9911667D01*
X8745476Y-9930714D01*
X8745476Y-10035476D01*
X8745476Y-9930714D02*
X8755000Y-9911667D01*
X8774048Y-9902143D01*
X8802619Y-9902143D01*
X8821667Y-9911667D01*
X8831190Y-9930714D01*
X8831190Y-10035476D01*
X8926429Y-10035476D02*
X8926429Y-9902143D01*
X8926429Y-9921190D02*
X8935952Y-9911667D01*
X8955000Y-9902143D01*
X8983571Y-9902143D01*
X9002619Y-9911667D01*
X9012143Y-9930714D01*
X9012143Y-10035476D01*
X9012143Y-9930714D02*
X9021667Y-9911667D01*
X9040714Y-9902143D01*
X9069286Y-9902143D01*
X9088333Y-9911667D01*
X9097857Y-9930714D01*
X9097857Y-10035476D01*
X9488333Y-9825952D02*
X9316905Y-10083095D01*
X9745476Y-9835476D02*
X9764524Y-9835476D01*
X9783571Y-9845000D01*
X9793095Y-9854524D01*
X9802619Y-9873571D01*
X9812143Y-9911667D01*
X9812143Y-9959286D01*
X9802619Y-9997381D01*
X9793095Y-10016429D01*
X9783571Y-10025952D01*
X9764524Y-10035476D01*
X9745476Y-10035476D01*
X9726429Y-10025952D01*
X9716905Y-10016429D01*
X9707381Y-9997381D01*
X9697857Y-9959286D01*
X9697857Y-9911667D01*
X9707381Y-9873571D01*
X9716905Y-9854524D01*
X9726429Y-9845000D01*
X9745476Y-9835476D01*
X9897857Y-10016429D02*
X9907381Y-10025952D01*
X9897857Y-10035476D01*
X9888333Y-10025952D01*
X9897857Y-10016429D01*
X9897857Y-10035476D01*
X10031190Y-9835476D02*
X10050238Y-9835476D01*
X10069286Y-9845000D01*
X10078810Y-9854524D01*
X10088333Y-9873571D01*
X10097857Y-9911667D01*
X10097857Y-9959286D01*
X10088333Y-9997381D01*
X10078810Y-10016429D01*
X10069286Y-10025952D01*
X10050238Y-10035476D01*
X10031190Y-10035476D01*
X10012143Y-10025952D01*
X10002619Y-10016429D01*
X9993095Y-9997381D01*
X9983571Y-9959286D01*
X9983571Y-9911667D01*
X9993095Y-9873571D01*
X10002619Y-9854524D01*
X10012143Y-9845000D01*
X10031190Y-9835476D01*
X10164524Y-9835476D02*
X10288333Y-9835476D01*
X10221667Y-9911667D01*
X10250238Y-9911667D01*
X10269286Y-9921190D01*
X10278810Y-9930714D01*
X10288333Y-9949762D01*
X10288333Y-9997381D01*
X10278810Y-10016429D01*
X10269286Y-10025952D01*
X10250238Y-10035476D01*
X10193095Y-10035476D01*
X10174048Y-10025952D01*
X10164524Y-10016429D01*
X10383571Y-10035476D02*
X10421667Y-10035476D01*
X10440714Y-10025952D01*
X10450238Y-10016429D01*
X10469286Y-9987857D01*
X10478810Y-9949762D01*
X10478810Y-9873571D01*
X10469286Y-9854524D01*
X10459762Y-9845000D01*
X10440714Y-9835476D01*
X10402619Y-9835476D01*
X10383571Y-9845000D01*
X10374048Y-9854524D01*
X10364524Y-9873571D01*
X10364524Y-9921190D01*
X10374048Y-9940238D01*
X10383571Y-9949762D01*
X10402619Y-9959286D01*
X10440714Y-9959286D01*
X10459762Y-9949762D01*
X10469286Y-9940238D01*
X10478810Y-9921190D01*
X10650238Y-9902143D02*
X10650238Y-10035476D01*
X10602619Y-9825952D02*
X10555000Y-9968810D01*
X10678810Y-9968810D01*
X10745476Y-9835476D02*
X10745476Y-9873571D01*
X10821667Y-9835476D02*
X10821667Y-9873571D01*
X11116905Y-10111667D02*
X11107381Y-10102143D01*
X11088333Y-10073571D01*
X11078810Y-10054524D01*
X11069286Y-10025952D01*
X11059762Y-9978333D01*
X11059762Y-9940238D01*
X11069286Y-9892619D01*
X11078810Y-9864048D01*
X11088333Y-9845000D01*
X11107381Y-9816429D01*
X11116905Y-9806905D01*
X11174048Y-9835476D02*
X11297857Y-9835476D01*
X11231190Y-9911667D01*
X11259762Y-9911667D01*
X11278809Y-9921190D01*
X11288333Y-9930714D01*
X11297857Y-9949762D01*
X11297857Y-9997381D01*
X11288333Y-10016429D01*
X11278809Y-10025952D01*
X11259762Y-10035476D01*
X11202619Y-10035476D01*
X11183571Y-10025952D01*
X11174048Y-10016429D01*
X11374048Y-9854524D02*
X11383571Y-9845000D01*
X11402619Y-9835476D01*
X11450238Y-9835476D01*
X11469286Y-9845000D01*
X11478809Y-9854524D01*
X11488333Y-9873571D01*
X11488333Y-9892619D01*
X11478809Y-9921190D01*
X11364524Y-10035476D01*
X11488333Y-10035476D01*
X11726428Y-10035476D02*
X11726428Y-9835476D01*
X11812143Y-10035476D02*
X11812143Y-9930714D01*
X11802619Y-9911667D01*
X11783571Y-9902143D01*
X11755000Y-9902143D01*
X11735952Y-9911667D01*
X11726428Y-9921190D01*
X11935952Y-10035476D02*
X11916905Y-10025952D01*
X11907381Y-10016429D01*
X11897857Y-9997381D01*
X11897857Y-9940238D01*
X11907381Y-9921190D01*
X11916905Y-9911667D01*
X11935952Y-9902143D01*
X11964524Y-9902143D01*
X11983571Y-9911667D01*
X11993095Y-9921190D01*
X12002619Y-9940238D01*
X12002619Y-9997381D01*
X11993095Y-10016429D01*
X11983571Y-10025952D01*
X11964524Y-10035476D01*
X11935952Y-10035476D01*
X12116905Y-10035476D02*
X12097857Y-10025952D01*
X12088333Y-10006905D01*
X12088333Y-9835476D01*
X12269286Y-10025952D02*
X12250238Y-10035476D01*
X12212143Y-10035476D01*
X12193095Y-10025952D01*
X12183571Y-10006905D01*
X12183571Y-9930714D01*
X12193095Y-9911667D01*
X12212143Y-9902143D01*
X12250238Y-9902143D01*
X12269286Y-9911667D01*
X12278809Y-9930714D01*
X12278809Y-9949762D01*
X12183571Y-9968810D01*
X12355000Y-10025952D02*
X12374048Y-10035476D01*
X12412143Y-10035476D01*
X12431190Y-10025952D01*
X12440714Y-10006905D01*
X12440714Y-9997381D01*
X12431190Y-9978333D01*
X12412143Y-9968810D01*
X12383571Y-9968810D01*
X12364524Y-9959286D01*
X12355000Y-9940238D01*
X12355000Y-9930714D01*
X12364524Y-9911667D01*
X12383571Y-9902143D01*
X12412143Y-9902143D01*
X12431190Y-9911667D01*
X12507381Y-10111667D02*
X12516905Y-10102143D01*
X12535952Y-10073571D01*
X12545476Y-10054524D01*
X12555000Y-10025952D01*
X12564524Y-9978333D01*
X12564524Y-9940238D01*
X12555000Y-9892619D01*
X12545476Y-9864048D01*
X12535952Y-9845000D01*
X12516905Y-9816429D01*
X12507381Y-9806905D01*
M02*
