G04 #@! TF.GenerationSoftware,KiCad,Pcbnew,(6.0.1)*
G04 #@! TF.CreationDate,2023-03-29T19:46:05-04:00*
G04 #@! TF.ProjectId,G-NiceRF Breakout Board,472d4e69-6365-4524-9620-427265616b6f,rev?*
G04 #@! TF.SameCoordinates,Original*
G04 #@! TF.FileFunction,Legend,Top*
G04 #@! TF.FilePolarity,Positive*
%FSLAX46Y46*%
G04 Gerber Fmt 4.6, Leading zero omitted, Abs format (unit mm)*
G04 Created by KiCad (PCBNEW (6.0.1)) date 2023-03-29 19:46:05*
%MOMM*%
%LPD*%
G01*
G04 APERTURE LIST*
G04 Aperture macros list*
%AMRoundRect*
0 Rectangle with rounded corners*
0 $1 Rounding radius*
0 $2 $3 $4 $5 $6 $7 $8 $9 X,Y pos of 4 corners*
0 Add a 4 corners polygon primitive as box body*
4,1,4,$2,$3,$4,$5,$6,$7,$8,$9,$2,$3,0*
0 Add four circle primitives for the rounded corners*
1,1,$1+$1,$2,$3*
1,1,$1+$1,$4,$5*
1,1,$1+$1,$6,$7*
1,1,$1+$1,$8,$9*
0 Add four rect primitives between the rounded corners*
20,1,$1+$1,$2,$3,$4,$5,0*
20,1,$1+$1,$4,$5,$6,$7,0*
20,1,$1+$1,$6,$7,$8,$9,0*
20,1,$1+$1,$8,$9,$2,$3,0*%
G04 Aperture macros list end*
%ADD10C,0.150000*%
%ADD11C,0.120000*%
%ADD12R,1.700000X1.700000*%
%ADD13O,1.700000X1.700000*%
%ADD14RoundRect,0.450000X-0.450000X-1.050000X0.450000X-1.050000X0.450000X1.050000X-0.450000X1.050000X0*%
G04 APERTURE END LIST*
D10*
X153702380Y-87071428D02*
X152702380Y-87071428D01*
X153416666Y-86738095D01*
X152702380Y-86404761D01*
X153702380Y-86404761D01*
X152702380Y-85738095D02*
X152702380Y-85547619D01*
X152750000Y-85452380D01*
X152845238Y-85357142D01*
X153035714Y-85309523D01*
X153369047Y-85309523D01*
X153559523Y-85357142D01*
X153654761Y-85452380D01*
X153702380Y-85547619D01*
X153702380Y-85738095D01*
X153654761Y-85833333D01*
X153559523Y-85928571D01*
X153369047Y-85976190D01*
X153035714Y-85976190D01*
X152845238Y-85928571D01*
X152750000Y-85833333D01*
X152702380Y-85738095D01*
X153654761Y-84928571D02*
X153702380Y-84785714D01*
X153702380Y-84547619D01*
X153654761Y-84452380D01*
X153607142Y-84404761D01*
X153511904Y-84357142D01*
X153416666Y-84357142D01*
X153321428Y-84404761D01*
X153273809Y-84452380D01*
X153226190Y-84547619D01*
X153178571Y-84738095D01*
X153130952Y-84833333D01*
X153083333Y-84880952D01*
X152988095Y-84928571D01*
X152892857Y-84928571D01*
X152797619Y-84880952D01*
X152750000Y-84833333D01*
X152702380Y-84738095D01*
X152702380Y-84500000D01*
X152750000Y-84357142D01*
X153702380Y-83928571D02*
X152702380Y-83928571D01*
X94321428Y-64452380D02*
X93845238Y-64452380D01*
X93845238Y-63452380D01*
X94797619Y-64452380D02*
X94702380Y-64404761D01*
X94654761Y-64357142D01*
X94607142Y-64261904D01*
X94607142Y-63976190D01*
X94654761Y-63880952D01*
X94702380Y-63833333D01*
X94797619Y-63785714D01*
X94940476Y-63785714D01*
X95035714Y-63833333D01*
X95083333Y-63880952D01*
X95130952Y-63976190D01*
X95130952Y-64261904D01*
X95083333Y-64357142D01*
X95035714Y-64404761D01*
X94940476Y-64452380D01*
X94797619Y-64452380D01*
X96130952Y-64452380D02*
X95797619Y-63976190D01*
X95559523Y-64452380D02*
X95559523Y-63452380D01*
X95940476Y-63452380D01*
X96035714Y-63500000D01*
X96083333Y-63547619D01*
X96130952Y-63642857D01*
X96130952Y-63785714D01*
X96083333Y-63880952D01*
X96035714Y-63928571D01*
X95940476Y-63976190D01*
X95559523Y-63976190D01*
X96988095Y-64452380D02*
X96988095Y-63928571D01*
X96940476Y-63833333D01*
X96845238Y-63785714D01*
X96654761Y-63785714D01*
X96559523Y-63833333D01*
X96988095Y-64404761D02*
X96892857Y-64452380D01*
X96654761Y-64452380D01*
X96559523Y-64404761D01*
X96511904Y-64309523D01*
X96511904Y-64214285D01*
X96559523Y-64119047D01*
X96654761Y-64071428D01*
X96892857Y-64071428D01*
X96988095Y-64023809D01*
X97988095Y-64452380D02*
X97416666Y-64452380D01*
X97702380Y-64452380D02*
X97702380Y-63452380D01*
X97607142Y-63595238D01*
X97511904Y-63690476D01*
X97416666Y-63738095D01*
X98369047Y-63547619D02*
X98416666Y-63500000D01*
X98511904Y-63452380D01*
X98750000Y-63452380D01*
X98845238Y-63500000D01*
X98892857Y-63547619D01*
X98940476Y-63642857D01*
X98940476Y-63738095D01*
X98892857Y-63880952D01*
X98321428Y-64452380D01*
X98940476Y-64452380D01*
X99273809Y-63452380D02*
X99940476Y-63452380D01*
X99511904Y-64452380D01*
X100464285Y-63880952D02*
X100369047Y-63833333D01*
X100321428Y-63785714D01*
X100273809Y-63690476D01*
X100273809Y-63642857D01*
X100321428Y-63547619D01*
X100369047Y-63500000D01*
X100464285Y-63452380D01*
X100654761Y-63452380D01*
X100750000Y-63500000D01*
X100797619Y-63547619D01*
X100845238Y-63642857D01*
X100845238Y-63690476D01*
X100797619Y-63785714D01*
X100750000Y-63833333D01*
X100654761Y-63880952D01*
X100464285Y-63880952D01*
X100369047Y-63928571D01*
X100321428Y-63976190D01*
X100273809Y-64071428D01*
X100273809Y-64261904D01*
X100321428Y-64357142D01*
X100369047Y-64404761D01*
X100464285Y-64452380D01*
X100654761Y-64452380D01*
X100750000Y-64404761D01*
X100797619Y-64357142D01*
X100845238Y-64261904D01*
X100845238Y-64071428D01*
X100797619Y-63976190D01*
X100750000Y-63928571D01*
X100654761Y-63880952D01*
X101607142Y-63928571D02*
X101273809Y-63928571D01*
X101273809Y-64452380D02*
X101273809Y-63452380D01*
X101750000Y-63452380D01*
X102035714Y-63452380D02*
X102654761Y-63452380D01*
X102321428Y-63833333D01*
X102464285Y-63833333D01*
X102559523Y-63880952D01*
X102607142Y-63928571D01*
X102654761Y-64023809D01*
X102654761Y-64261904D01*
X102607142Y-64357142D01*
X102559523Y-64404761D01*
X102464285Y-64452380D01*
X102178571Y-64452380D01*
X102083333Y-64404761D01*
X102035714Y-64357142D01*
X103273809Y-63452380D02*
X103369047Y-63452380D01*
X103464285Y-63500000D01*
X103511904Y-63547619D01*
X103559523Y-63642857D01*
X103607142Y-63833333D01*
X103607142Y-64071428D01*
X103559523Y-64261904D01*
X103511904Y-64357142D01*
X103464285Y-64404761D01*
X103369047Y-64452380D01*
X103273809Y-64452380D01*
X103178571Y-64404761D01*
X103130952Y-64357142D01*
X103083333Y-64261904D01*
X103035714Y-64071428D01*
X103035714Y-63833333D01*
X103083333Y-63642857D01*
X103130952Y-63547619D01*
X103178571Y-63500000D01*
X103273809Y-63452380D01*
X104035714Y-64071428D02*
X104797619Y-64071428D01*
X105702380Y-63785714D02*
X105702380Y-64452380D01*
X105464285Y-63404761D02*
X105226190Y-64119047D01*
X105845238Y-64119047D01*
X106130952Y-63452380D02*
X106749999Y-63452380D01*
X106416666Y-63833333D01*
X106559523Y-63833333D01*
X106654761Y-63880952D01*
X106702380Y-63928571D01*
X106749999Y-64023809D01*
X106749999Y-64261904D01*
X106702380Y-64357142D01*
X106654761Y-64404761D01*
X106559523Y-64452380D01*
X106273809Y-64452380D01*
X106178571Y-64404761D01*
X106130952Y-64357142D01*
X107083333Y-63452380D02*
X107702380Y-63452380D01*
X107369047Y-63833333D01*
X107511904Y-63833333D01*
X107607142Y-63880952D01*
X107654761Y-63928571D01*
X107702380Y-64023809D01*
X107702380Y-64261904D01*
X107654761Y-64357142D01*
X107607142Y-64404761D01*
X107511904Y-64452380D01*
X107226190Y-64452380D01*
X107130952Y-64404761D01*
X107083333Y-64357142D01*
X139071428Y-64452380D02*
X138595238Y-64452380D01*
X138595238Y-63452380D01*
X139547619Y-64452380D02*
X139452380Y-64404761D01*
X139404761Y-64357142D01*
X139357142Y-64261904D01*
X139357142Y-63976190D01*
X139404761Y-63880952D01*
X139452380Y-63833333D01*
X139547619Y-63785714D01*
X139690476Y-63785714D01*
X139785714Y-63833333D01*
X139833333Y-63880952D01*
X139880952Y-63976190D01*
X139880952Y-64261904D01*
X139833333Y-64357142D01*
X139785714Y-64404761D01*
X139690476Y-64452380D01*
X139547619Y-64452380D01*
X140880952Y-64452380D02*
X140547619Y-63976190D01*
X140309523Y-64452380D02*
X140309523Y-63452380D01*
X140690476Y-63452380D01*
X140785714Y-63500000D01*
X140833333Y-63547619D01*
X140880952Y-63642857D01*
X140880952Y-63785714D01*
X140833333Y-63880952D01*
X140785714Y-63928571D01*
X140690476Y-63976190D01*
X140309523Y-63976190D01*
X141738095Y-64452380D02*
X141738095Y-63928571D01*
X141690476Y-63833333D01*
X141595238Y-63785714D01*
X141404761Y-63785714D01*
X141309523Y-63833333D01*
X141738095Y-64404761D02*
X141642857Y-64452380D01*
X141404761Y-64452380D01*
X141309523Y-64404761D01*
X141261904Y-64309523D01*
X141261904Y-64214285D01*
X141309523Y-64119047D01*
X141404761Y-64071428D01*
X141642857Y-64071428D01*
X141738095Y-64023809D01*
X142738095Y-64452380D02*
X142166666Y-64452380D01*
X142452380Y-64452380D02*
X142452380Y-63452380D01*
X142357142Y-63595238D01*
X142261904Y-63690476D01*
X142166666Y-63738095D01*
X143119047Y-63547619D02*
X143166666Y-63500000D01*
X143261904Y-63452380D01*
X143500000Y-63452380D01*
X143595238Y-63500000D01*
X143642857Y-63547619D01*
X143690476Y-63642857D01*
X143690476Y-63738095D01*
X143642857Y-63880952D01*
X143071428Y-64452380D01*
X143690476Y-64452380D01*
X144547619Y-63452380D02*
X144357142Y-63452380D01*
X144261904Y-63500000D01*
X144214285Y-63547619D01*
X144119047Y-63690476D01*
X144071428Y-63880952D01*
X144071428Y-64261904D01*
X144119047Y-64357142D01*
X144166666Y-64404761D01*
X144261904Y-64452380D01*
X144452380Y-64452380D01*
X144547619Y-64404761D01*
X144595238Y-64357142D01*
X144642857Y-64261904D01*
X144642857Y-64023809D01*
X144595238Y-63928571D01*
X144547619Y-63880952D01*
X144452380Y-63833333D01*
X144261904Y-63833333D01*
X144166666Y-63880952D01*
X144119047Y-63928571D01*
X144071428Y-64023809D01*
X145214285Y-63880952D02*
X145119047Y-63833333D01*
X145071428Y-63785714D01*
X145023809Y-63690476D01*
X145023809Y-63642857D01*
X145071428Y-63547619D01*
X145119047Y-63500000D01*
X145214285Y-63452380D01*
X145404761Y-63452380D01*
X145500000Y-63500000D01*
X145547619Y-63547619D01*
X145595238Y-63642857D01*
X145595238Y-63690476D01*
X145547619Y-63785714D01*
X145500000Y-63833333D01*
X145404761Y-63880952D01*
X145214285Y-63880952D01*
X145119047Y-63928571D01*
X145071428Y-63976190D01*
X145023809Y-64071428D01*
X145023809Y-64261904D01*
X145071428Y-64357142D01*
X145119047Y-64404761D01*
X145214285Y-64452380D01*
X145404761Y-64452380D01*
X145500000Y-64404761D01*
X145547619Y-64357142D01*
X145595238Y-64261904D01*
X145595238Y-64071428D01*
X145547619Y-63976190D01*
X145500000Y-63928571D01*
X145404761Y-63880952D01*
X146357142Y-63928571D02*
X146023809Y-63928571D01*
X146023809Y-64452380D02*
X146023809Y-63452380D01*
X146500000Y-63452380D01*
X146785714Y-63452380D02*
X147404761Y-63452380D01*
X147071428Y-63833333D01*
X147214285Y-63833333D01*
X147309523Y-63880952D01*
X147357142Y-63928571D01*
X147404761Y-64023809D01*
X147404761Y-64261904D01*
X147357142Y-64357142D01*
X147309523Y-64404761D01*
X147214285Y-64452380D01*
X146928571Y-64452380D01*
X146833333Y-64404761D01*
X146785714Y-64357142D01*
X148023809Y-63452380D02*
X148119047Y-63452380D01*
X148214285Y-63500000D01*
X148261904Y-63547619D01*
X148309523Y-63642857D01*
X148357142Y-63833333D01*
X148357142Y-64071428D01*
X148309523Y-64261904D01*
X148261904Y-64357142D01*
X148214285Y-64404761D01*
X148119047Y-64452380D01*
X148023809Y-64452380D01*
X147928571Y-64404761D01*
X147880952Y-64357142D01*
X147833333Y-64261904D01*
X147785714Y-64071428D01*
X147785714Y-63833333D01*
X147833333Y-63642857D01*
X147880952Y-63547619D01*
X147928571Y-63500000D01*
X148023809Y-63452380D01*
X148785714Y-64071428D02*
X149547619Y-64071428D01*
X150452380Y-63785714D02*
X150452380Y-64452380D01*
X150214285Y-63404761D02*
X149976190Y-64119047D01*
X150595238Y-64119047D01*
X150880952Y-63452380D02*
X151500000Y-63452380D01*
X151166666Y-63833333D01*
X151309523Y-63833333D01*
X151404761Y-63880952D01*
X151452380Y-63928571D01*
X151500000Y-64023809D01*
X151500000Y-64261904D01*
X151452380Y-64357142D01*
X151404761Y-64404761D01*
X151309523Y-64452380D01*
X151023809Y-64452380D01*
X150928571Y-64404761D01*
X150880952Y-64357142D01*
X151833333Y-63452380D02*
X152452380Y-63452380D01*
X152119047Y-63833333D01*
X152261904Y-63833333D01*
X152357142Y-63880952D01*
X152404761Y-63928571D01*
X152452380Y-64023809D01*
X152452380Y-64261904D01*
X152404761Y-64357142D01*
X152357142Y-64404761D01*
X152261904Y-64452380D01*
X151976190Y-64452380D01*
X151880952Y-64404761D01*
X151833333Y-64357142D01*
X102702380Y-42797619D02*
X101702380Y-42797619D01*
X102702380Y-42226190D01*
X101702380Y-42226190D01*
X102702380Y-41178571D02*
X102226190Y-41511904D01*
X102702380Y-41750000D02*
X101702380Y-41750000D01*
X101702380Y-41369047D01*
X101750000Y-41273809D01*
X101797619Y-41226190D01*
X101892857Y-41178571D01*
X102035714Y-41178571D01*
X102130952Y-41226190D01*
X102178571Y-41273809D01*
X102226190Y-41369047D01*
X102226190Y-41750000D01*
X102178571Y-40750000D02*
X102178571Y-40416666D01*
X102702380Y-40273809D02*
X102702380Y-40750000D01*
X101702380Y-40750000D01*
X101702380Y-40273809D01*
X102654761Y-39892857D02*
X102702380Y-39750000D01*
X102702380Y-39511904D01*
X102654761Y-39416666D01*
X102607142Y-39369047D01*
X102511904Y-39321428D01*
X102416666Y-39321428D01*
X102321428Y-39369047D01*
X102273809Y-39416666D01*
X102226190Y-39511904D01*
X102178571Y-39702380D01*
X102130952Y-39797619D01*
X102083333Y-39845238D01*
X101988095Y-39892857D01*
X101892857Y-39892857D01*
X101797619Y-39845238D01*
X101750000Y-39797619D01*
X101702380Y-39702380D01*
X101702380Y-39464285D01*
X101750000Y-39321428D01*
X102178571Y-38892857D02*
X102178571Y-38559523D01*
X102702380Y-38416666D02*
X102702380Y-38892857D01*
X101702380Y-38892857D01*
X101702380Y-38416666D01*
X101702380Y-38130952D02*
X101702380Y-37559523D01*
X102702380Y-37845238D02*
X101702380Y-37845238D01*
X97702380Y-42750000D02*
X96702380Y-42750000D01*
X96702380Y-42511904D01*
X96750000Y-42369047D01*
X96845238Y-42273809D01*
X96940476Y-42226190D01*
X97130952Y-42178571D01*
X97273809Y-42178571D01*
X97464285Y-42226190D01*
X97559523Y-42273809D01*
X97654761Y-42369047D01*
X97702380Y-42511904D01*
X97702380Y-42750000D01*
X97702380Y-41750000D02*
X96702380Y-41750000D01*
X96702380Y-41083333D02*
X96702380Y-40892857D01*
X96750000Y-40797619D01*
X96845238Y-40702380D01*
X97035714Y-40654761D01*
X97369047Y-40654761D01*
X97559523Y-40702380D01*
X97654761Y-40797619D01*
X97702380Y-40892857D01*
X97702380Y-41083333D01*
X97654761Y-41178571D01*
X97559523Y-41273809D01*
X97369047Y-41321428D01*
X97035714Y-41321428D01*
X96845238Y-41273809D01*
X96750000Y-41178571D01*
X96702380Y-41083333D01*
X96702380Y-39750000D02*
X96702380Y-40226190D01*
X97178571Y-40273809D01*
X97130952Y-40226190D01*
X97083333Y-40130952D01*
X97083333Y-39892857D01*
X97130952Y-39797619D01*
X97178571Y-39750000D01*
X97273809Y-39702380D01*
X97511904Y-39702380D01*
X97607142Y-39750000D01*
X97654761Y-39797619D01*
X97702380Y-39892857D01*
X97702380Y-40130952D01*
X97654761Y-40226190D01*
X97607142Y-40273809D01*
X142702380Y-42785714D02*
X141702380Y-42785714D01*
X142702380Y-42214285D01*
X141702380Y-42214285D01*
X142607142Y-41166666D02*
X142654761Y-41214285D01*
X142702380Y-41357142D01*
X142702380Y-41452380D01*
X142654761Y-41595238D01*
X142559523Y-41690476D01*
X142464285Y-41738095D01*
X142273809Y-41785714D01*
X142130952Y-41785714D01*
X141940476Y-41738095D01*
X141845238Y-41690476D01*
X141750000Y-41595238D01*
X141702380Y-41452380D01*
X141702380Y-41357142D01*
X141750000Y-41214285D01*
X141797619Y-41166666D01*
X88666666Y-86142857D02*
X88666666Y-85666666D01*
X88952380Y-86238095D02*
X87952380Y-85904761D01*
X88952380Y-85571428D01*
X88952380Y-85238095D02*
X87952380Y-85238095D01*
X88952380Y-84666666D01*
X87952380Y-84666666D01*
X87952380Y-84333333D02*
X87952380Y-83761904D01*
X88952380Y-84047619D02*
X87952380Y-84047619D01*
X132666666Y-86142857D02*
X132666666Y-85666666D01*
X132952380Y-86238095D02*
X131952380Y-85904761D01*
X132952380Y-85571428D01*
X132952380Y-85238095D02*
X131952380Y-85238095D01*
X132952380Y-84666666D01*
X131952380Y-84666666D01*
X131952380Y-84333333D02*
X131952380Y-83761904D01*
X132952380Y-84047619D02*
X131952380Y-84047619D01*
X114154761Y-87035714D02*
X114202380Y-86892857D01*
X114202380Y-86654761D01*
X114154761Y-86559523D01*
X114107142Y-86511904D01*
X114011904Y-86464285D01*
X113916666Y-86464285D01*
X113821428Y-86511904D01*
X113773809Y-86559523D01*
X113726190Y-86654761D01*
X113678571Y-86845238D01*
X113630952Y-86940476D01*
X113583333Y-86988095D01*
X113488095Y-87035714D01*
X113392857Y-87035714D01*
X113297619Y-86988095D01*
X113250000Y-86940476D01*
X113202380Y-86845238D01*
X113202380Y-86607142D01*
X113250000Y-86464285D01*
X114107142Y-85464285D02*
X114154761Y-85511904D01*
X114202380Y-85654761D01*
X114202380Y-85750000D01*
X114154761Y-85892857D01*
X114059523Y-85988095D01*
X113964285Y-86035714D01*
X113773809Y-86083333D01*
X113630952Y-86083333D01*
X113440476Y-86035714D01*
X113345238Y-85988095D01*
X113250000Y-85892857D01*
X113202380Y-85750000D01*
X113202380Y-85654761D01*
X113250000Y-85511904D01*
X113297619Y-85464285D01*
X114202380Y-85035714D02*
X113202380Y-85035714D01*
X114202380Y-84464285D02*
X113630952Y-84892857D01*
X113202380Y-84464285D02*
X113773809Y-85035714D01*
X105202380Y-42750000D02*
X104202380Y-42750000D01*
X104202380Y-42511904D01*
X104250000Y-42369047D01*
X104345238Y-42273809D01*
X104440476Y-42226190D01*
X104630952Y-42178571D01*
X104773809Y-42178571D01*
X104964285Y-42226190D01*
X105059523Y-42273809D01*
X105154761Y-42369047D01*
X105202380Y-42511904D01*
X105202380Y-42750000D01*
X105202380Y-41750000D02*
X104202380Y-41750000D01*
X104202380Y-41083333D02*
X104202380Y-40892857D01*
X104250000Y-40797619D01*
X104345238Y-40702380D01*
X104535714Y-40654761D01*
X104869047Y-40654761D01*
X105059523Y-40702380D01*
X105154761Y-40797619D01*
X105202380Y-40892857D01*
X105202380Y-41083333D01*
X105154761Y-41178571D01*
X105059523Y-41273809D01*
X104869047Y-41321428D01*
X104535714Y-41321428D01*
X104345238Y-41273809D01*
X104250000Y-41178571D01*
X104202380Y-41083333D01*
X104202380Y-40035714D02*
X104202380Y-39940476D01*
X104250000Y-39845238D01*
X104297619Y-39797619D01*
X104392857Y-39750000D01*
X104583333Y-39702380D01*
X104821428Y-39702380D01*
X105011904Y-39750000D01*
X105107142Y-39797619D01*
X105154761Y-39845238D01*
X105202380Y-39940476D01*
X105202380Y-40035714D01*
X105154761Y-40130952D01*
X105107142Y-40178571D01*
X105011904Y-40226190D01*
X104821428Y-40273809D01*
X104583333Y-40273809D01*
X104392857Y-40226190D01*
X104297619Y-40178571D01*
X104250000Y-40130952D01*
X104202380Y-40035714D01*
X103952380Y-87500000D02*
X102952380Y-87500000D01*
X102952380Y-87261904D01*
X103000000Y-87119047D01*
X103095238Y-87023809D01*
X103190476Y-86976190D01*
X103380952Y-86928571D01*
X103523809Y-86928571D01*
X103714285Y-86976190D01*
X103809523Y-87023809D01*
X103904761Y-87119047D01*
X103952380Y-87261904D01*
X103952380Y-87500000D01*
X103952380Y-86500000D02*
X102952380Y-86500000D01*
X102952380Y-85833333D02*
X102952380Y-85642857D01*
X103000000Y-85547619D01*
X103095238Y-85452380D01*
X103285714Y-85404761D01*
X103619047Y-85404761D01*
X103809523Y-85452380D01*
X103904761Y-85547619D01*
X103952380Y-85642857D01*
X103952380Y-85833333D01*
X103904761Y-85928571D01*
X103809523Y-86023809D01*
X103619047Y-86071428D01*
X103285714Y-86071428D01*
X103095238Y-86023809D01*
X103000000Y-85928571D01*
X102952380Y-85833333D01*
X103952380Y-84452380D02*
X103952380Y-85023809D01*
X103952380Y-84738095D02*
X102952380Y-84738095D01*
X103095238Y-84833333D01*
X103190476Y-84928571D01*
X103238095Y-85023809D01*
X154500000Y-42511904D02*
X154452380Y-42607142D01*
X154452380Y-42750000D01*
X154500000Y-42892857D01*
X154595238Y-42988095D01*
X154690476Y-43035714D01*
X154880952Y-43083333D01*
X155023809Y-43083333D01*
X155214285Y-43035714D01*
X155309523Y-42988095D01*
X155404761Y-42892857D01*
X155452380Y-42750000D01*
X155452380Y-42654761D01*
X155404761Y-42511904D01*
X155357142Y-42464285D01*
X155023809Y-42464285D01*
X155023809Y-42654761D01*
X155452380Y-42035714D02*
X154452380Y-42035714D01*
X155452380Y-41464285D01*
X154452380Y-41464285D01*
X155452380Y-40988095D02*
X154452380Y-40988095D01*
X154452380Y-40750000D01*
X154500000Y-40607142D01*
X154595238Y-40511904D01*
X154690476Y-40464285D01*
X154880952Y-40416666D01*
X155023809Y-40416666D01*
X155214285Y-40464285D01*
X155309523Y-40511904D01*
X155404761Y-40607142D01*
X155452380Y-40750000D01*
X155452380Y-40988095D01*
X152952380Y-42988095D02*
X151952380Y-42988095D01*
X152952380Y-42416666D01*
X151952380Y-42416666D01*
X152904761Y-41988095D02*
X152952380Y-41845238D01*
X152952380Y-41607142D01*
X152904761Y-41511904D01*
X152857142Y-41464285D01*
X152761904Y-41416666D01*
X152666666Y-41416666D01*
X152571428Y-41464285D01*
X152523809Y-41511904D01*
X152476190Y-41607142D01*
X152428571Y-41797619D01*
X152380952Y-41892857D01*
X152333333Y-41940476D01*
X152238095Y-41988095D01*
X152142857Y-41988095D01*
X152047619Y-41940476D01*
X152000000Y-41892857D01*
X151952380Y-41797619D01*
X151952380Y-41559523D01*
X152000000Y-41416666D01*
X152904761Y-41035714D02*
X152952380Y-40892857D01*
X152952380Y-40654761D01*
X152904761Y-40559523D01*
X152857142Y-40511904D01*
X152761904Y-40464285D01*
X152666666Y-40464285D01*
X152571428Y-40511904D01*
X152523809Y-40559523D01*
X152476190Y-40654761D01*
X152428571Y-40845238D01*
X152380952Y-40940476D01*
X152333333Y-40988095D01*
X152238095Y-41035714D01*
X152142857Y-41035714D01*
X152047619Y-40988095D01*
X152000000Y-40940476D01*
X151952380Y-40845238D01*
X151952380Y-40607142D01*
X152000000Y-40464285D01*
X106702380Y-87500000D02*
X105702380Y-87500000D01*
X105702380Y-87261904D01*
X105750000Y-87119047D01*
X105845238Y-87023809D01*
X105940476Y-86976190D01*
X106130952Y-86928571D01*
X106273809Y-86928571D01*
X106464285Y-86976190D01*
X106559523Y-87023809D01*
X106654761Y-87119047D01*
X106702380Y-87261904D01*
X106702380Y-87500000D01*
X106702380Y-86500000D02*
X105702380Y-86500000D01*
X105702380Y-85833333D02*
X105702380Y-85642857D01*
X105750000Y-85547619D01*
X105845238Y-85452380D01*
X106035714Y-85404761D01*
X106369047Y-85404761D01*
X106559523Y-85452380D01*
X106654761Y-85547619D01*
X106702380Y-85642857D01*
X106702380Y-85833333D01*
X106654761Y-85928571D01*
X106559523Y-86023809D01*
X106369047Y-86071428D01*
X106035714Y-86071428D01*
X105845238Y-86023809D01*
X105750000Y-85928571D01*
X105702380Y-85833333D01*
X105797619Y-85023809D02*
X105750000Y-84976190D01*
X105702380Y-84880952D01*
X105702380Y-84642857D01*
X105750000Y-84547619D01*
X105797619Y-84500000D01*
X105892857Y-84452380D01*
X105988095Y-84452380D01*
X106130952Y-84500000D01*
X106702380Y-85071428D01*
X106702380Y-84452380D01*
X134500000Y-85761904D02*
X134452380Y-85857142D01*
X134452380Y-86000000D01*
X134500000Y-86142857D01*
X134595238Y-86238095D01*
X134690476Y-86285714D01*
X134880952Y-86333333D01*
X135023809Y-86333333D01*
X135214285Y-86285714D01*
X135309523Y-86238095D01*
X135404761Y-86142857D01*
X135452380Y-86000000D01*
X135452380Y-85904761D01*
X135404761Y-85761904D01*
X135357142Y-85714285D01*
X135023809Y-85714285D01*
X135023809Y-85904761D01*
X135452380Y-85285714D02*
X134452380Y-85285714D01*
X135452380Y-84714285D01*
X134452380Y-84714285D01*
X135452380Y-84238095D02*
X134452380Y-84238095D01*
X134452380Y-84000000D01*
X134500000Y-83857142D01*
X134595238Y-83761904D01*
X134690476Y-83714285D01*
X134880952Y-83666666D01*
X135023809Y-83666666D01*
X135214285Y-83714285D01*
X135309523Y-83761904D01*
X135404761Y-83857142D01*
X135452380Y-84000000D01*
X135452380Y-84238095D01*
X91452380Y-42833333D02*
X92452380Y-42500000D01*
X91452380Y-42166666D01*
X92357142Y-41261904D02*
X92404761Y-41309523D01*
X92452380Y-41452380D01*
X92452380Y-41547619D01*
X92404761Y-41690476D01*
X92309523Y-41785714D01*
X92214285Y-41833333D01*
X92023809Y-41880952D01*
X91880952Y-41880952D01*
X91690476Y-41833333D01*
X91595238Y-41785714D01*
X91500000Y-41690476D01*
X91452380Y-41547619D01*
X91452380Y-41452380D01*
X91500000Y-41309523D01*
X91547619Y-41261904D01*
X92357142Y-40261904D02*
X92404761Y-40309523D01*
X92452380Y-40452380D01*
X92452380Y-40547619D01*
X92404761Y-40690476D01*
X92309523Y-40785714D01*
X92214285Y-40833333D01*
X92023809Y-40880952D01*
X91880952Y-40880952D01*
X91690476Y-40833333D01*
X91595238Y-40785714D01*
X91500000Y-40690476D01*
X91452380Y-40547619D01*
X91452380Y-40452380D01*
X91500000Y-40309523D01*
X91547619Y-40261904D01*
X158107142Y-37037380D02*
X158345238Y-38037380D01*
X158535714Y-37323095D01*
X158726190Y-38037380D01*
X158964285Y-37037380D01*
X159345238Y-38037380D02*
X159345238Y-37037380D01*
X159678571Y-37037380D02*
X160250000Y-37037380D01*
X159964285Y-38037380D02*
X159964285Y-37037380D01*
X161345238Y-37656428D02*
X162107142Y-37656428D01*
X163345238Y-38037380D02*
X163345238Y-37037380D01*
X163726190Y-37037380D01*
X163821428Y-37085000D01*
X163869047Y-37132619D01*
X163916666Y-37227857D01*
X163916666Y-37370714D01*
X163869047Y-37465952D01*
X163821428Y-37513571D01*
X163726190Y-37561190D01*
X163345238Y-37561190D01*
X164345238Y-38037380D02*
X164345238Y-37370714D01*
X164345238Y-37037380D02*
X164297619Y-37085000D01*
X164345238Y-37132619D01*
X164392857Y-37085000D01*
X164345238Y-37037380D01*
X164345238Y-37132619D01*
X165250000Y-37989761D02*
X165154761Y-38037380D01*
X164964285Y-38037380D01*
X164869047Y-37989761D01*
X164821428Y-37942142D01*
X164773809Y-37846904D01*
X164773809Y-37561190D01*
X164821428Y-37465952D01*
X164869047Y-37418333D01*
X164964285Y-37370714D01*
X165154761Y-37370714D01*
X165250000Y-37418333D01*
X165821428Y-38037380D02*
X165726190Y-37989761D01*
X165678571Y-37942142D01*
X165630952Y-37846904D01*
X165630952Y-37561190D01*
X165678571Y-37465952D01*
X165726190Y-37418333D01*
X165821428Y-37370714D01*
X165964285Y-37370714D01*
X166059523Y-37418333D01*
X166107142Y-37465952D01*
X166154761Y-37561190D01*
X166154761Y-37846904D01*
X166107142Y-37942142D01*
X166059523Y-37989761D01*
X165964285Y-38037380D01*
X165821428Y-38037380D01*
X167297619Y-37989761D02*
X167440476Y-38037380D01*
X167678571Y-38037380D01*
X167773809Y-37989761D01*
X167821428Y-37942142D01*
X167869047Y-37846904D01*
X167869047Y-37751666D01*
X167821428Y-37656428D01*
X167773809Y-37608809D01*
X167678571Y-37561190D01*
X167488095Y-37513571D01*
X167392857Y-37465952D01*
X167345238Y-37418333D01*
X167297619Y-37323095D01*
X167297619Y-37227857D01*
X167345238Y-37132619D01*
X167392857Y-37085000D01*
X167488095Y-37037380D01*
X167726190Y-37037380D01*
X167869047Y-37085000D01*
X168726190Y-38037380D02*
X168726190Y-37513571D01*
X168678571Y-37418333D01*
X168583333Y-37370714D01*
X168392857Y-37370714D01*
X168297619Y-37418333D01*
X168726190Y-37989761D02*
X168630952Y-38037380D01*
X168392857Y-38037380D01*
X168297619Y-37989761D01*
X168250000Y-37894523D01*
X168250000Y-37799285D01*
X168297619Y-37704047D01*
X168392857Y-37656428D01*
X168630952Y-37656428D01*
X168726190Y-37608809D01*
X169059523Y-37370714D02*
X169440476Y-37370714D01*
X169202380Y-37037380D02*
X169202380Y-37894523D01*
X169250000Y-37989761D01*
X169345238Y-38037380D01*
X169440476Y-38037380D01*
X157750000Y-39647380D02*
X157750000Y-38647380D01*
X158083333Y-39361666D01*
X158416666Y-38647380D01*
X158416666Y-39647380D01*
X158892857Y-39647380D02*
X158892857Y-38980714D01*
X158892857Y-38647380D02*
X158845238Y-38695000D01*
X158892857Y-38742619D01*
X158940476Y-38695000D01*
X158892857Y-38647380D01*
X158892857Y-38742619D01*
X159797619Y-39599761D02*
X159702380Y-39647380D01*
X159511904Y-39647380D01*
X159416666Y-39599761D01*
X159369047Y-39552142D01*
X159321428Y-39456904D01*
X159321428Y-39171190D01*
X159369047Y-39075952D01*
X159416666Y-39028333D01*
X159511904Y-38980714D01*
X159702380Y-38980714D01*
X159797619Y-39028333D01*
X160226190Y-39647380D02*
X160226190Y-38647380D01*
X160654761Y-39647380D02*
X160654761Y-39123571D01*
X160607142Y-39028333D01*
X160511904Y-38980714D01*
X160369047Y-38980714D01*
X160273809Y-39028333D01*
X160226190Y-39075952D01*
X161559523Y-39647380D02*
X161559523Y-39123571D01*
X161511904Y-39028333D01*
X161416666Y-38980714D01*
X161226190Y-38980714D01*
X161130952Y-39028333D01*
X161559523Y-39599761D02*
X161464285Y-39647380D01*
X161226190Y-39647380D01*
X161130952Y-39599761D01*
X161083333Y-39504523D01*
X161083333Y-39409285D01*
X161130952Y-39314047D01*
X161226190Y-39266428D01*
X161464285Y-39266428D01*
X161559523Y-39218809D01*
X162416666Y-39599761D02*
X162321428Y-39647380D01*
X162130952Y-39647380D01*
X162035714Y-39599761D01*
X161988095Y-39504523D01*
X161988095Y-39123571D01*
X162035714Y-39028333D01*
X162130952Y-38980714D01*
X162321428Y-38980714D01*
X162416666Y-39028333D01*
X162464285Y-39123571D01*
X162464285Y-39218809D01*
X161988095Y-39314047D01*
X163035714Y-39647380D02*
X162940476Y-39599761D01*
X162892857Y-39504523D01*
X162892857Y-38647380D01*
X164130952Y-39599761D02*
X164273809Y-39647380D01*
X164511904Y-39647380D01*
X164607142Y-39599761D01*
X164654761Y-39552142D01*
X164702380Y-39456904D01*
X164702380Y-39361666D01*
X164654761Y-39266428D01*
X164607142Y-39218809D01*
X164511904Y-39171190D01*
X164321428Y-39123571D01*
X164226190Y-39075952D01*
X164178571Y-39028333D01*
X164130952Y-38933095D01*
X164130952Y-38837857D01*
X164178571Y-38742619D01*
X164226190Y-38695000D01*
X164321428Y-38647380D01*
X164559523Y-38647380D01*
X164702380Y-38695000D01*
X165273809Y-39647380D02*
X165178571Y-39599761D01*
X165130952Y-39552142D01*
X165083333Y-39456904D01*
X165083333Y-39171190D01*
X165130952Y-39075952D01*
X165178571Y-39028333D01*
X165273809Y-38980714D01*
X165416666Y-38980714D01*
X165511904Y-39028333D01*
X165559523Y-39075952D01*
X165607142Y-39171190D01*
X165607142Y-39456904D01*
X165559523Y-39552142D01*
X165511904Y-39599761D01*
X165416666Y-39647380D01*
X165273809Y-39647380D01*
X166035714Y-38980714D02*
X166035714Y-39647380D01*
X166035714Y-39075952D02*
X166083333Y-39028333D01*
X166178571Y-38980714D01*
X166321428Y-38980714D01*
X166416666Y-39028333D01*
X166464285Y-39123571D01*
X166464285Y-39647380D01*
X166940476Y-38980714D02*
X166940476Y-39647380D01*
X166940476Y-39075952D02*
X166988095Y-39028333D01*
X167083333Y-38980714D01*
X167226190Y-38980714D01*
X167321428Y-39028333D01*
X167369047Y-39123571D01*
X167369047Y-39647380D01*
X167702380Y-38980714D02*
X168083333Y-38980714D01*
X167845238Y-38647380D02*
X167845238Y-39504523D01*
X167892857Y-39599761D01*
X167988095Y-39647380D01*
X168083333Y-39647380D01*
X168845238Y-39647380D02*
X168845238Y-39123571D01*
X168797619Y-39028333D01*
X168702380Y-38980714D01*
X168511904Y-38980714D01*
X168416666Y-39028333D01*
X168845238Y-39599761D02*
X168750000Y-39647380D01*
X168511904Y-39647380D01*
X168416666Y-39599761D01*
X168369047Y-39504523D01*
X168369047Y-39409285D01*
X168416666Y-39314047D01*
X168511904Y-39266428D01*
X168750000Y-39266428D01*
X168845238Y-39218809D01*
X169750000Y-38980714D02*
X169750000Y-39790238D01*
X169702380Y-39885476D01*
X169654761Y-39933095D01*
X169559523Y-39980714D01*
X169416666Y-39980714D01*
X169321428Y-39933095D01*
X169750000Y-39599761D02*
X169654761Y-39647380D01*
X169464285Y-39647380D01*
X169369047Y-39599761D01*
X169321428Y-39552142D01*
X169273809Y-39456904D01*
X169273809Y-39171190D01*
X169321428Y-39075952D01*
X169369047Y-39028333D01*
X169464285Y-38980714D01*
X169654761Y-38980714D01*
X169750000Y-39028333D01*
X160130952Y-41257380D02*
X160130952Y-40257380D01*
X160702380Y-41257380D01*
X160702380Y-40257380D01*
X161321428Y-41257380D02*
X161226190Y-41209761D01*
X161178571Y-41162142D01*
X161130952Y-41066904D01*
X161130952Y-40781190D01*
X161178571Y-40685952D01*
X161226190Y-40638333D01*
X161321428Y-40590714D01*
X161464285Y-40590714D01*
X161559523Y-40638333D01*
X161607142Y-40685952D01*
X161654761Y-40781190D01*
X161654761Y-41066904D01*
X161607142Y-41162142D01*
X161559523Y-41209761D01*
X161464285Y-41257380D01*
X161321428Y-41257380D01*
X162083333Y-41257380D02*
X162083333Y-40590714D01*
X162083333Y-40781190D02*
X162130952Y-40685952D01*
X162178571Y-40638333D01*
X162273809Y-40590714D01*
X162369047Y-40590714D01*
X163130952Y-41257380D02*
X163130952Y-40733571D01*
X163083333Y-40638333D01*
X162988095Y-40590714D01*
X162797619Y-40590714D01*
X162702380Y-40638333D01*
X163130952Y-41209761D02*
X163035714Y-41257380D01*
X162797619Y-41257380D01*
X162702380Y-41209761D01*
X162654761Y-41114523D01*
X162654761Y-41019285D01*
X162702380Y-40924047D01*
X162797619Y-40876428D01*
X163035714Y-40876428D01*
X163130952Y-40828809D01*
X163607142Y-40590714D02*
X163607142Y-41257380D01*
X163607142Y-40685952D02*
X163654761Y-40638333D01*
X163750000Y-40590714D01*
X163892857Y-40590714D01*
X163988095Y-40638333D01*
X164035714Y-40733571D01*
X164035714Y-41257380D01*
X165559523Y-40257380D02*
X165559523Y-40971666D01*
X165511904Y-41114523D01*
X165416666Y-41209761D01*
X165273809Y-41257380D01*
X165178571Y-41257380D01*
X166464285Y-41257380D02*
X166464285Y-40733571D01*
X166416666Y-40638333D01*
X166321428Y-40590714D01*
X166130952Y-40590714D01*
X166035714Y-40638333D01*
X166464285Y-41209761D02*
X166369047Y-41257380D01*
X166130952Y-41257380D01*
X166035714Y-41209761D01*
X165988095Y-41114523D01*
X165988095Y-41019285D01*
X166035714Y-40924047D01*
X166130952Y-40876428D01*
X166369047Y-40876428D01*
X166464285Y-40828809D01*
X166940476Y-40590714D02*
X166940476Y-41257380D01*
X166940476Y-40685952D02*
X166988095Y-40638333D01*
X167083333Y-40590714D01*
X167226190Y-40590714D01*
X167321428Y-40638333D01*
X167369047Y-40733571D01*
X167369047Y-41257380D01*
X159892857Y-42819761D02*
X160035714Y-42867380D01*
X160273809Y-42867380D01*
X160369047Y-42819761D01*
X160416666Y-42772142D01*
X160464285Y-42676904D01*
X160464285Y-42581666D01*
X160416666Y-42486428D01*
X160369047Y-42438809D01*
X160273809Y-42391190D01*
X160083333Y-42343571D01*
X159988095Y-42295952D01*
X159940476Y-42248333D01*
X159892857Y-42153095D01*
X159892857Y-42057857D01*
X159940476Y-41962619D01*
X159988095Y-41915000D01*
X160083333Y-41867380D01*
X160321428Y-41867380D01*
X160464285Y-41915000D01*
X161321428Y-42200714D02*
X161321428Y-42867380D01*
X160892857Y-42200714D02*
X160892857Y-42724523D01*
X160940476Y-42819761D01*
X161035714Y-42867380D01*
X161178571Y-42867380D01*
X161273809Y-42819761D01*
X161321428Y-42772142D01*
X161940476Y-42867380D02*
X161845238Y-42819761D01*
X161797619Y-42724523D01*
X161797619Y-41867380D01*
X162178571Y-42200714D02*
X162559523Y-42200714D01*
X162321428Y-41867380D02*
X162321428Y-42724523D01*
X162369047Y-42819761D01*
X162464285Y-42867380D01*
X162559523Y-42867380D01*
X163321428Y-42867380D02*
X163321428Y-42343571D01*
X163273809Y-42248333D01*
X163178571Y-42200714D01*
X162988095Y-42200714D01*
X162892857Y-42248333D01*
X163321428Y-42819761D02*
X163226190Y-42867380D01*
X162988095Y-42867380D01*
X162892857Y-42819761D01*
X162845238Y-42724523D01*
X162845238Y-42629285D01*
X162892857Y-42534047D01*
X162988095Y-42486428D01*
X163226190Y-42486428D01*
X163321428Y-42438809D01*
X163797619Y-42200714D02*
X163797619Y-42867380D01*
X163797619Y-42295952D02*
X163845238Y-42248333D01*
X163940476Y-42200714D01*
X164083333Y-42200714D01*
X164178571Y-42248333D01*
X164226190Y-42343571D01*
X164226190Y-42867380D01*
X165750000Y-41867380D02*
X165750000Y-42581666D01*
X165702380Y-42724523D01*
X165607142Y-42819761D01*
X165464285Y-42867380D01*
X165369047Y-42867380D01*
X166654761Y-42867380D02*
X166654761Y-42343571D01*
X166607142Y-42248333D01*
X166511904Y-42200714D01*
X166321428Y-42200714D01*
X166226190Y-42248333D01*
X166654761Y-42819761D02*
X166559523Y-42867380D01*
X166321428Y-42867380D01*
X166226190Y-42819761D01*
X166178571Y-42724523D01*
X166178571Y-42629285D01*
X166226190Y-42534047D01*
X166321428Y-42486428D01*
X166559523Y-42486428D01*
X166654761Y-42438809D01*
X167130952Y-42200714D02*
X167130952Y-42867380D01*
X167130952Y-42295952D02*
X167178571Y-42248333D01*
X167273809Y-42200714D01*
X167416666Y-42200714D01*
X167511904Y-42248333D01*
X167559523Y-42343571D01*
X167559523Y-42867380D01*
X109250000Y-42261904D02*
X109202380Y-42357142D01*
X109202380Y-42500000D01*
X109250000Y-42642857D01*
X109345238Y-42738095D01*
X109440476Y-42785714D01*
X109630952Y-42833333D01*
X109773809Y-42833333D01*
X109964285Y-42785714D01*
X110059523Y-42738095D01*
X110154761Y-42642857D01*
X110202380Y-42500000D01*
X110202380Y-42404761D01*
X110154761Y-42261904D01*
X110107142Y-42214285D01*
X109773809Y-42214285D01*
X109773809Y-42404761D01*
X110202380Y-41785714D02*
X109202380Y-41785714D01*
X110202380Y-41214285D01*
X109202380Y-41214285D01*
X110202380Y-40738095D02*
X109202380Y-40738095D01*
X109202380Y-40500000D01*
X109250000Y-40357142D01*
X109345238Y-40261904D01*
X109440476Y-40214285D01*
X109630952Y-40166666D01*
X109773809Y-40166666D01*
X109964285Y-40214285D01*
X110059523Y-40261904D01*
X110154761Y-40357142D01*
X110202380Y-40500000D01*
X110202380Y-40738095D01*
X158904761Y-86785714D02*
X158952380Y-86642857D01*
X158952380Y-86404761D01*
X158904761Y-86309523D01*
X158857142Y-86261904D01*
X158761904Y-86214285D01*
X158666666Y-86214285D01*
X158571428Y-86261904D01*
X158523809Y-86309523D01*
X158476190Y-86404761D01*
X158428571Y-86595238D01*
X158380952Y-86690476D01*
X158333333Y-86738095D01*
X158238095Y-86785714D01*
X158142857Y-86785714D01*
X158047619Y-86738095D01*
X158000000Y-86690476D01*
X157952380Y-86595238D01*
X157952380Y-86357142D01*
X158000000Y-86214285D01*
X158857142Y-85214285D02*
X158904761Y-85261904D01*
X158952380Y-85404761D01*
X158952380Y-85500000D01*
X158904761Y-85642857D01*
X158809523Y-85738095D01*
X158714285Y-85785714D01*
X158523809Y-85833333D01*
X158380952Y-85833333D01*
X158190476Y-85785714D01*
X158095238Y-85738095D01*
X158000000Y-85642857D01*
X157952380Y-85500000D01*
X157952380Y-85404761D01*
X158000000Y-85261904D01*
X158047619Y-85214285D01*
X158952380Y-84785714D02*
X157952380Y-84785714D01*
X158952380Y-84214285D02*
X158380952Y-84642857D01*
X157952380Y-84214285D02*
X158523809Y-84785714D01*
X109202380Y-87571428D02*
X108202380Y-87571428D01*
X108916666Y-87238095D01*
X108202380Y-86904761D01*
X109202380Y-86904761D01*
X108202380Y-86238095D02*
X108202380Y-86047619D01*
X108250000Y-85952380D01*
X108345238Y-85857142D01*
X108535714Y-85809523D01*
X108869047Y-85809523D01*
X109059523Y-85857142D01*
X109154761Y-85952380D01*
X109202380Y-86047619D01*
X109202380Y-86238095D01*
X109154761Y-86333333D01*
X109059523Y-86428571D01*
X108869047Y-86476190D01*
X108535714Y-86476190D01*
X108345238Y-86428571D01*
X108250000Y-86333333D01*
X108202380Y-86238095D01*
X109154761Y-85428571D02*
X109202380Y-85285714D01*
X109202380Y-85047619D01*
X109154761Y-84952380D01*
X109107142Y-84904761D01*
X109011904Y-84857142D01*
X108916666Y-84857142D01*
X108821428Y-84904761D01*
X108773809Y-84952380D01*
X108726190Y-85047619D01*
X108678571Y-85238095D01*
X108630952Y-85333333D01*
X108583333Y-85380952D01*
X108488095Y-85428571D01*
X108392857Y-85428571D01*
X108297619Y-85380952D01*
X108250000Y-85333333D01*
X108202380Y-85238095D01*
X108202380Y-85000000D01*
X108250000Y-84857142D01*
X109202380Y-84428571D02*
X108202380Y-84428571D01*
X147702380Y-43047619D02*
X146702380Y-43047619D01*
X147702380Y-42476190D01*
X146702380Y-42476190D01*
X147702380Y-41428571D02*
X147226190Y-41761904D01*
X147702380Y-42000000D02*
X146702380Y-42000000D01*
X146702380Y-41619047D01*
X146750000Y-41523809D01*
X146797619Y-41476190D01*
X146892857Y-41428571D01*
X147035714Y-41428571D01*
X147130952Y-41476190D01*
X147178571Y-41523809D01*
X147226190Y-41619047D01*
X147226190Y-42000000D01*
X147178571Y-41000000D02*
X147178571Y-40666666D01*
X147702380Y-40523809D02*
X147702380Y-41000000D01*
X146702380Y-41000000D01*
X146702380Y-40523809D01*
X147654761Y-40142857D02*
X147702380Y-40000000D01*
X147702380Y-39761904D01*
X147654761Y-39666666D01*
X147607142Y-39619047D01*
X147511904Y-39571428D01*
X147416666Y-39571428D01*
X147321428Y-39619047D01*
X147273809Y-39666666D01*
X147226190Y-39761904D01*
X147178571Y-39952380D01*
X147130952Y-40047619D01*
X147083333Y-40095238D01*
X146988095Y-40142857D01*
X146892857Y-40142857D01*
X146797619Y-40095238D01*
X146750000Y-40047619D01*
X146702380Y-39952380D01*
X146702380Y-39714285D01*
X146750000Y-39571428D01*
X147178571Y-39142857D02*
X147178571Y-38809523D01*
X147702380Y-38666666D02*
X147702380Y-39142857D01*
X146702380Y-39142857D01*
X146702380Y-38666666D01*
X146702380Y-38380952D02*
X146702380Y-37809523D01*
X147702380Y-38095238D02*
X146702380Y-38095238D01*
X156452380Y-87071428D02*
X155452380Y-87071428D01*
X156166666Y-86738095D01*
X155452380Y-86404761D01*
X156452380Y-86404761D01*
X156452380Y-85928571D02*
X155452380Y-85928571D01*
X156404761Y-85500000D02*
X156452380Y-85357142D01*
X156452380Y-85119047D01*
X156404761Y-85023809D01*
X156357142Y-84976190D01*
X156261904Y-84928571D01*
X156166666Y-84928571D01*
X156071428Y-84976190D01*
X156023809Y-85023809D01*
X155976190Y-85119047D01*
X155928571Y-85309523D01*
X155880952Y-85404761D01*
X155833333Y-85452380D01*
X155738095Y-85500000D01*
X155642857Y-85500000D01*
X155547619Y-85452380D01*
X155500000Y-85404761D01*
X155452380Y-85309523D01*
X155452380Y-85071428D01*
X155500000Y-84928571D01*
X155452380Y-84309523D02*
X155452380Y-84119047D01*
X155500000Y-84023809D01*
X155595238Y-83928571D01*
X155785714Y-83880952D01*
X156119047Y-83880952D01*
X156309523Y-83928571D01*
X156404761Y-84023809D01*
X156452380Y-84119047D01*
X156452380Y-84309523D01*
X156404761Y-84404761D01*
X156309523Y-84500000D01*
X156119047Y-84547619D01*
X155785714Y-84547619D01*
X155595238Y-84500000D01*
X155500000Y-84404761D01*
X155452380Y-84309523D01*
X107702380Y-42738095D02*
X106702380Y-42738095D01*
X107702380Y-42166666D01*
X106702380Y-42166666D01*
X107654761Y-41738095D02*
X107702380Y-41595238D01*
X107702380Y-41357142D01*
X107654761Y-41261904D01*
X107607142Y-41214285D01*
X107511904Y-41166666D01*
X107416666Y-41166666D01*
X107321428Y-41214285D01*
X107273809Y-41261904D01*
X107226190Y-41357142D01*
X107178571Y-41547619D01*
X107130952Y-41642857D01*
X107083333Y-41690476D01*
X106988095Y-41738095D01*
X106892857Y-41738095D01*
X106797619Y-41690476D01*
X106750000Y-41642857D01*
X106702380Y-41547619D01*
X106702380Y-41309523D01*
X106750000Y-41166666D01*
X107654761Y-40785714D02*
X107702380Y-40642857D01*
X107702380Y-40404761D01*
X107654761Y-40309523D01*
X107607142Y-40261904D01*
X107511904Y-40214285D01*
X107416666Y-40214285D01*
X107321428Y-40261904D01*
X107273809Y-40309523D01*
X107226190Y-40404761D01*
X107178571Y-40595238D01*
X107130952Y-40690476D01*
X107083333Y-40738095D01*
X106988095Y-40785714D01*
X106892857Y-40785714D01*
X106797619Y-40738095D01*
X106750000Y-40690476D01*
X106702380Y-40595238D01*
X106702380Y-40357142D01*
X106750000Y-40214285D01*
X151202380Y-86285714D02*
X150202380Y-86285714D01*
X151202380Y-85714285D01*
X150202380Y-85714285D01*
X151107142Y-84666666D02*
X151154761Y-84714285D01*
X151202380Y-84857142D01*
X151202380Y-84952380D01*
X151154761Y-85095238D01*
X151059523Y-85190476D01*
X150964285Y-85238095D01*
X150773809Y-85285714D01*
X150630952Y-85285714D01*
X150440476Y-85238095D01*
X150345238Y-85190476D01*
X150250000Y-85095238D01*
X150202380Y-84952380D01*
X150202380Y-84857142D01*
X150250000Y-84714285D01*
X150297619Y-84666666D01*
X146202380Y-87000000D02*
X145202380Y-87000000D01*
X145202380Y-86761904D01*
X145250000Y-86619047D01*
X145345238Y-86523809D01*
X145440476Y-86476190D01*
X145630952Y-86428571D01*
X145773809Y-86428571D01*
X145964285Y-86476190D01*
X146059523Y-86523809D01*
X146154761Y-86619047D01*
X146202380Y-86761904D01*
X146202380Y-87000000D01*
X146202380Y-86000000D02*
X145202380Y-86000000D01*
X145202380Y-85333333D02*
X145202380Y-85142857D01*
X145250000Y-85047619D01*
X145345238Y-84952380D01*
X145535714Y-84904761D01*
X145869047Y-84904761D01*
X146059523Y-84952380D01*
X146154761Y-85047619D01*
X146202380Y-85142857D01*
X146202380Y-85333333D01*
X146154761Y-85428571D01*
X146059523Y-85523809D01*
X145869047Y-85571428D01*
X145535714Y-85571428D01*
X145345238Y-85523809D01*
X145250000Y-85428571D01*
X145202380Y-85333333D01*
X145202380Y-84571428D02*
X145202380Y-83952380D01*
X145583333Y-84285714D01*
X145583333Y-84142857D01*
X145630952Y-84047619D01*
X145678571Y-84000000D01*
X145773809Y-83952380D01*
X146011904Y-83952380D01*
X146107142Y-84000000D01*
X146154761Y-84047619D01*
X146202380Y-84142857D01*
X146202380Y-84428571D01*
X146154761Y-84523809D01*
X146107142Y-84571428D01*
X149678571Y-42607142D02*
X149726190Y-42464285D01*
X149773809Y-42416666D01*
X149869047Y-42369047D01*
X150011904Y-42369047D01*
X150107142Y-42416666D01*
X150154761Y-42464285D01*
X150202380Y-42559523D01*
X150202380Y-42940476D01*
X149202380Y-42940476D01*
X149202380Y-42607142D01*
X149250000Y-42511904D01*
X149297619Y-42464285D01*
X149392857Y-42416666D01*
X149488095Y-42416666D01*
X149583333Y-42464285D01*
X149630952Y-42511904D01*
X149678571Y-42607142D01*
X149678571Y-42940476D01*
X149202380Y-41940476D02*
X150011904Y-41940476D01*
X150107142Y-41892857D01*
X150154761Y-41845238D01*
X150202380Y-41750000D01*
X150202380Y-41559523D01*
X150154761Y-41464285D01*
X150107142Y-41416666D01*
X150011904Y-41369047D01*
X149202380Y-41369047D01*
X150154761Y-40940476D02*
X150202380Y-40797619D01*
X150202380Y-40559523D01*
X150154761Y-40464285D01*
X150107142Y-40416666D01*
X150011904Y-40369047D01*
X149916666Y-40369047D01*
X149821428Y-40416666D01*
X149773809Y-40464285D01*
X149726190Y-40559523D01*
X149678571Y-40750000D01*
X149630952Y-40845238D01*
X149583333Y-40892857D01*
X149488095Y-40940476D01*
X149392857Y-40940476D01*
X149297619Y-40892857D01*
X149250000Y-40845238D01*
X149202380Y-40750000D01*
X149202380Y-40511904D01*
X149250000Y-40369047D01*
X149726190Y-39750000D02*
X150202380Y-39750000D01*
X149202380Y-40083333D02*
X149726190Y-39750000D01*
X149202380Y-39416666D01*
X148702380Y-87000000D02*
X147702380Y-87000000D01*
X147702380Y-86761904D01*
X147750000Y-86619047D01*
X147845238Y-86523809D01*
X147940476Y-86476190D01*
X148130952Y-86428571D01*
X148273809Y-86428571D01*
X148464285Y-86476190D01*
X148559523Y-86523809D01*
X148654761Y-86619047D01*
X148702380Y-86761904D01*
X148702380Y-87000000D01*
X148702380Y-86000000D02*
X147702380Y-86000000D01*
X147702380Y-85333333D02*
X147702380Y-85142857D01*
X147750000Y-85047619D01*
X147845238Y-84952380D01*
X148035714Y-84904761D01*
X148369047Y-84904761D01*
X148559523Y-84952380D01*
X148654761Y-85047619D01*
X148702380Y-85142857D01*
X148702380Y-85333333D01*
X148654761Y-85428571D01*
X148559523Y-85523809D01*
X148369047Y-85571428D01*
X148035714Y-85571428D01*
X147845238Y-85523809D01*
X147750000Y-85428571D01*
X147702380Y-85333333D01*
X148702380Y-83952380D02*
X148702380Y-84523809D01*
X148702380Y-84238095D02*
X147702380Y-84238095D01*
X147845238Y-84333333D01*
X147940476Y-84428571D01*
X147988095Y-84523809D01*
X94000000Y-42261904D02*
X93952380Y-42357142D01*
X93952380Y-42500000D01*
X94000000Y-42642857D01*
X94095238Y-42738095D01*
X94190476Y-42785714D01*
X94380952Y-42833333D01*
X94523809Y-42833333D01*
X94714285Y-42785714D01*
X94809523Y-42738095D01*
X94904761Y-42642857D01*
X94952380Y-42500000D01*
X94952380Y-42404761D01*
X94904761Y-42261904D01*
X94857142Y-42214285D01*
X94523809Y-42214285D01*
X94523809Y-42404761D01*
X94952380Y-41785714D02*
X93952380Y-41785714D01*
X94952380Y-41214285D01*
X93952380Y-41214285D01*
X94952380Y-40738095D02*
X93952380Y-40738095D01*
X93952380Y-40500000D01*
X94000000Y-40357142D01*
X94095238Y-40261904D01*
X94190476Y-40214285D01*
X94380952Y-40166666D01*
X94523809Y-40166666D01*
X94714285Y-40214285D01*
X94809523Y-40261904D01*
X94904761Y-40357142D01*
X94952380Y-40500000D01*
X94952380Y-40738095D01*
X136702380Y-43083333D02*
X137702380Y-42750000D01*
X136702380Y-42416666D01*
X137607142Y-41511904D02*
X137654761Y-41559523D01*
X137702380Y-41702380D01*
X137702380Y-41797619D01*
X137654761Y-41940476D01*
X137559523Y-42035714D01*
X137464285Y-42083333D01*
X137273809Y-42130952D01*
X137130952Y-42130952D01*
X136940476Y-42083333D01*
X136845238Y-42035714D01*
X136750000Y-41940476D01*
X136702380Y-41797619D01*
X136702380Y-41702380D01*
X136750000Y-41559523D01*
X136797619Y-41511904D01*
X137607142Y-40511904D02*
X137654761Y-40559523D01*
X137702380Y-40702380D01*
X137702380Y-40797619D01*
X137654761Y-40940476D01*
X137559523Y-41035714D01*
X137464285Y-41083333D01*
X137273809Y-41130952D01*
X137130952Y-41130952D01*
X136940476Y-41083333D01*
X136845238Y-41035714D01*
X136750000Y-40940476D01*
X136702380Y-40797619D01*
X136702380Y-40702380D01*
X136750000Y-40559523D01*
X136797619Y-40511904D01*
X145202380Y-42785714D02*
X144202380Y-42785714D01*
X145202380Y-42214285D01*
X144202380Y-42214285D01*
X145107142Y-41166666D02*
X145154761Y-41214285D01*
X145202380Y-41357142D01*
X145202380Y-41452380D01*
X145154761Y-41595238D01*
X145059523Y-41690476D01*
X144964285Y-41738095D01*
X144773809Y-41785714D01*
X144630952Y-41785714D01*
X144440476Y-41738095D01*
X144345238Y-41690476D01*
X144250000Y-41595238D01*
X144202380Y-41452380D01*
X144202380Y-41357142D01*
X144250000Y-41214285D01*
X144297619Y-41166666D01*
X100202380Y-42750000D02*
X99202380Y-42750000D01*
X99202380Y-42511904D01*
X99250000Y-42369047D01*
X99345238Y-42273809D01*
X99440476Y-42226190D01*
X99630952Y-42178571D01*
X99773809Y-42178571D01*
X99964285Y-42226190D01*
X100059523Y-42273809D01*
X100154761Y-42369047D01*
X100202380Y-42511904D01*
X100202380Y-42750000D01*
X100202380Y-41750000D02*
X99202380Y-41750000D01*
X99202380Y-41083333D02*
X99202380Y-40892857D01*
X99250000Y-40797619D01*
X99345238Y-40702380D01*
X99535714Y-40654761D01*
X99869047Y-40654761D01*
X100059523Y-40702380D01*
X100154761Y-40797619D01*
X100202380Y-40892857D01*
X100202380Y-41083333D01*
X100154761Y-41178571D01*
X100059523Y-41273809D01*
X99869047Y-41321428D01*
X99535714Y-41321428D01*
X99345238Y-41273809D01*
X99250000Y-41178571D01*
X99202380Y-41083333D01*
X99202380Y-40321428D02*
X99202380Y-39702380D01*
X99583333Y-40035714D01*
X99583333Y-39892857D01*
X99630952Y-39797619D01*
X99678571Y-39750000D01*
X99773809Y-39702380D01*
X100011904Y-39702380D01*
X100107142Y-39750000D01*
X100154761Y-39797619D01*
X100202380Y-39892857D01*
X100202380Y-40178571D01*
X100154761Y-40273809D01*
X100107142Y-40321428D01*
X139250000Y-42511904D02*
X139202380Y-42607142D01*
X139202380Y-42750000D01*
X139250000Y-42892857D01*
X139345238Y-42988095D01*
X139440476Y-43035714D01*
X139630952Y-43083333D01*
X139773809Y-43083333D01*
X139964285Y-43035714D01*
X140059523Y-42988095D01*
X140154761Y-42892857D01*
X140202380Y-42750000D01*
X140202380Y-42654761D01*
X140154761Y-42511904D01*
X140107142Y-42464285D01*
X139773809Y-42464285D01*
X139773809Y-42654761D01*
X140202380Y-42035714D02*
X139202380Y-42035714D01*
X140202380Y-41464285D01*
X139202380Y-41464285D01*
X140202380Y-40988095D02*
X139202380Y-40988095D01*
X139202380Y-40750000D01*
X139250000Y-40607142D01*
X139345238Y-40511904D01*
X139440476Y-40464285D01*
X139630952Y-40416666D01*
X139773809Y-40416666D01*
X139964285Y-40464285D01*
X140059523Y-40511904D01*
X140154761Y-40607142D01*
X140202380Y-40750000D01*
X140202380Y-40988095D01*
X111702380Y-87571428D02*
X110702380Y-87571428D01*
X111416666Y-87238095D01*
X110702380Y-86904761D01*
X111702380Y-86904761D01*
X111702380Y-86428571D02*
X110702380Y-86428571D01*
X111654761Y-86000000D02*
X111702380Y-85857142D01*
X111702380Y-85619047D01*
X111654761Y-85523809D01*
X111607142Y-85476190D01*
X111511904Y-85428571D01*
X111416666Y-85428571D01*
X111321428Y-85476190D01*
X111273809Y-85523809D01*
X111226190Y-85619047D01*
X111178571Y-85809523D01*
X111130952Y-85904761D01*
X111083333Y-85952380D01*
X110988095Y-86000000D01*
X110892857Y-86000000D01*
X110797619Y-85952380D01*
X110750000Y-85904761D01*
X110702380Y-85809523D01*
X110702380Y-85571428D01*
X110750000Y-85428571D01*
X110702380Y-84809523D02*
X110702380Y-84619047D01*
X110750000Y-84523809D01*
X110845238Y-84428571D01*
X111035714Y-84380952D01*
X111369047Y-84380952D01*
X111559523Y-84428571D01*
X111654761Y-84523809D01*
X111702380Y-84619047D01*
X111702380Y-84809523D01*
X111654761Y-84904761D01*
X111559523Y-85000000D01*
X111369047Y-85047619D01*
X111035714Y-85047619D01*
X110845238Y-85000000D01*
X110750000Y-84904761D01*
X110702380Y-84809523D01*
X90500000Y-85761904D02*
X90452380Y-85857142D01*
X90452380Y-86000000D01*
X90500000Y-86142857D01*
X90595238Y-86238095D01*
X90690476Y-86285714D01*
X90880952Y-86333333D01*
X91023809Y-86333333D01*
X91214285Y-86285714D01*
X91309523Y-86238095D01*
X91404761Y-86142857D01*
X91452380Y-86000000D01*
X91452380Y-85904761D01*
X91404761Y-85761904D01*
X91357142Y-85714285D01*
X91023809Y-85714285D01*
X91023809Y-85904761D01*
X91452380Y-85285714D02*
X90452380Y-85285714D01*
X91452380Y-84714285D01*
X90452380Y-84714285D01*
X91452380Y-84238095D02*
X90452380Y-84238095D01*
X90452380Y-84000000D01*
X90500000Y-83857142D01*
X90595238Y-83761904D01*
X90690476Y-83714285D01*
X90880952Y-83666666D01*
X91023809Y-83666666D01*
X91214285Y-83714285D01*
X91309523Y-83761904D01*
X91404761Y-83857142D01*
X91452380Y-84000000D01*
X91452380Y-84238095D01*
X101452380Y-87500000D02*
X100452380Y-87500000D01*
X100452380Y-87261904D01*
X100500000Y-87119047D01*
X100595238Y-87023809D01*
X100690476Y-86976190D01*
X100880952Y-86928571D01*
X101023809Y-86928571D01*
X101214285Y-86976190D01*
X101309523Y-87023809D01*
X101404761Y-87119047D01*
X101452380Y-87261904D01*
X101452380Y-87500000D01*
X101452380Y-86500000D02*
X100452380Y-86500000D01*
X100452380Y-85833333D02*
X100452380Y-85642857D01*
X100500000Y-85547619D01*
X100595238Y-85452380D01*
X100785714Y-85404761D01*
X101119047Y-85404761D01*
X101309523Y-85452380D01*
X101404761Y-85547619D01*
X101452380Y-85642857D01*
X101452380Y-85833333D01*
X101404761Y-85928571D01*
X101309523Y-86023809D01*
X101119047Y-86071428D01*
X100785714Y-86071428D01*
X100595238Y-86023809D01*
X100500000Y-85928571D01*
X100452380Y-85833333D01*
X100785714Y-84547619D02*
X101452380Y-84547619D01*
X100404761Y-84785714D02*
X101119047Y-85023809D01*
X101119047Y-84404761D01*
D11*
X138395000Y-46330000D02*
X138395000Y-43670000D01*
X138395000Y-46330000D02*
X156235000Y-46330000D01*
X137125000Y-46330000D02*
X135795000Y-46330000D01*
X156235000Y-46330000D02*
X156235000Y-43670000D01*
X135795000Y-46330000D02*
X135795000Y-45000000D01*
X138395000Y-43670000D02*
X156235000Y-43670000D01*
X144320000Y-83330000D02*
X144320000Y-82000000D01*
X145650000Y-83330000D02*
X144320000Y-83330000D01*
X146920000Y-83330000D02*
X146920000Y-80670000D01*
X159680000Y-83330000D02*
X159680000Y-80670000D01*
X146920000Y-83330000D02*
X159680000Y-83330000D01*
X146920000Y-80670000D02*
X159680000Y-80670000D01*
X89770000Y-83330000D02*
X92370000Y-83330000D01*
X88500000Y-83330000D02*
X87170000Y-83330000D01*
X89770000Y-83330000D02*
X89770000Y-80670000D01*
X87170000Y-83330000D02*
X87170000Y-82000000D01*
X89770000Y-80670000D02*
X92370000Y-80670000D01*
X92370000Y-83330000D02*
X92370000Y-80670000D01*
X92000000Y-46330000D02*
X90670000Y-46330000D01*
X111110000Y-46330000D02*
X111110000Y-43670000D01*
X93270000Y-46330000D02*
X93270000Y-43670000D01*
X93270000Y-46330000D02*
X111110000Y-46330000D01*
X93270000Y-43670000D02*
X111110000Y-43670000D01*
X90670000Y-46330000D02*
X90670000Y-45000000D01*
X136370000Y-83330000D02*
X136370000Y-80670000D01*
X133770000Y-83330000D02*
X136370000Y-83330000D01*
X133770000Y-80670000D02*
X136370000Y-80670000D01*
X132500000Y-83330000D02*
X131170000Y-83330000D01*
X131170000Y-83330000D02*
X131170000Y-82000000D01*
X133770000Y-83330000D02*
X133770000Y-80670000D01*
X81950000Y-54000000D02*
X120000000Y-54000000D01*
X120000000Y-54000000D02*
X120000000Y-74000000D01*
X120000000Y-74000000D02*
X81950000Y-74000000D01*
X81950000Y-74000000D02*
X81950000Y-54000000D01*
X125950000Y-54000000D02*
X164000000Y-54000000D01*
X164000000Y-54000000D02*
X164000000Y-74000000D01*
X164000000Y-74000000D02*
X125950000Y-74000000D01*
X125950000Y-74000000D02*
X125950000Y-54000000D01*
X101000000Y-83330000D02*
X99670000Y-83330000D01*
X99670000Y-83330000D02*
X99670000Y-82000000D01*
X102270000Y-80670000D02*
X115030000Y-80670000D01*
X102270000Y-83330000D02*
X115030000Y-83330000D01*
X102270000Y-83330000D02*
X102270000Y-80670000D01*
X115030000Y-83330000D02*
X115030000Y-80670000D01*
%LPC*%
D12*
X137125000Y-45000000D03*
D13*
X139665000Y-45000000D03*
X142205000Y-45000000D03*
X144745000Y-45000000D03*
X147285000Y-45000000D03*
X149825000Y-45000000D03*
X152365000Y-45000000D03*
X154905000Y-45000000D03*
D12*
X145650000Y-82000000D03*
D13*
X148190000Y-82000000D03*
X150730000Y-82000000D03*
X153270000Y-82000000D03*
X155810000Y-82000000D03*
X158350000Y-82000000D03*
D12*
X88500000Y-82000000D03*
D13*
X91040000Y-82000000D03*
D12*
X92000000Y-45000000D03*
D13*
X94540000Y-45000000D03*
X97080000Y-45000000D03*
X99620000Y-45000000D03*
X102160000Y-45000000D03*
X104700000Y-45000000D03*
X107240000Y-45000000D03*
X109780000Y-45000000D03*
D12*
X132500000Y-82000000D03*
D13*
X135040000Y-82000000D03*
D14*
X87000000Y-54000000D03*
X91000000Y-54000000D03*
X95000000Y-54000000D03*
X99000000Y-54000000D03*
X103000000Y-54000000D03*
X107000000Y-54000000D03*
X111000000Y-54000000D03*
X115000000Y-54000000D03*
X87000000Y-74000000D03*
X91000000Y-74000000D03*
X95000000Y-74000000D03*
X99000000Y-74000000D03*
X103000000Y-74000000D03*
X107000000Y-74000000D03*
X111000000Y-74000000D03*
X115000000Y-74000000D03*
X131000000Y-54000000D03*
X135000000Y-54000000D03*
X139000000Y-54000000D03*
X143000000Y-54000000D03*
X147000000Y-54000000D03*
X151000000Y-54000000D03*
X155000000Y-54000000D03*
X159000000Y-54000000D03*
X131000000Y-74000000D03*
X135000000Y-74000000D03*
X139000000Y-74000000D03*
X143000000Y-74000000D03*
X147000000Y-74000000D03*
X151000000Y-74000000D03*
X155000000Y-74000000D03*
X159000000Y-74000000D03*
D12*
X101000000Y-82000000D03*
D13*
X103540000Y-82000000D03*
X106080000Y-82000000D03*
X108620000Y-82000000D03*
X111160000Y-82000000D03*
X113700000Y-82000000D03*
M02*
