G04 #@! TF.GenerationSoftware,KiCad,Pcbnew,(6.0.1)*
G04 #@! TF.CreationDate,2023-03-29T19:46:05-04:00*
G04 #@! TF.ProjectId,G-NiceRF Breakout Board,472d4e69-6365-4524-9620-427265616b6f,rev?*
G04 #@! TF.SameCoordinates,Original*
G04 #@! TF.FileFunction,Copper,L2,Bot*
G04 #@! TF.FilePolarity,Positive*
%FSLAX46Y46*%
G04 Gerber Fmt 4.6, Leading zero omitted, Abs format (unit mm)*
G04 Created by KiCad (PCBNEW (6.0.1)) date 2023-03-29 19:46:05*
%MOMM*%
%LPD*%
G01*
G04 APERTURE LIST*
G04 #@! TA.AperFunction,ComponentPad*
%ADD10R,1.700000X1.700000*%
G04 #@! TD*
G04 #@! TA.AperFunction,ComponentPad*
%ADD11O,1.700000X1.700000*%
G04 #@! TD*
G04 APERTURE END LIST*
D10*
X137125000Y-45000000D03*
D11*
X139665000Y-45000000D03*
X142205000Y-45000000D03*
X144745000Y-45000000D03*
X147285000Y-45000000D03*
X149825000Y-45000000D03*
X152365000Y-45000000D03*
X154905000Y-45000000D03*
D10*
X145650000Y-82000000D03*
D11*
X148190000Y-82000000D03*
X150730000Y-82000000D03*
X153270000Y-82000000D03*
X155810000Y-82000000D03*
X158350000Y-82000000D03*
D10*
X88500000Y-82000000D03*
D11*
X91040000Y-82000000D03*
D10*
X92000000Y-45000000D03*
D11*
X94540000Y-45000000D03*
X97080000Y-45000000D03*
X99620000Y-45000000D03*
X102160000Y-45000000D03*
X104700000Y-45000000D03*
X107240000Y-45000000D03*
X109780000Y-45000000D03*
D10*
X132500000Y-82000000D03*
D11*
X135040000Y-82000000D03*
D10*
X101000000Y-82000000D03*
D11*
X103540000Y-82000000D03*
X106080000Y-82000000D03*
X108620000Y-82000000D03*
X111160000Y-82000000D03*
X113700000Y-82000000D03*
G04 #@! TA.AperFunction,Conductor*
G36*
X170934121Y-35528002D02*
G01*
X170980614Y-35581658D01*
X170992000Y-35634000D01*
X170992000Y-92366000D01*
X170971998Y-92434121D01*
X170918342Y-92480614D01*
X170866000Y-92492000D01*
X76134000Y-92492000D01*
X76065879Y-92471998D01*
X76019386Y-92418342D01*
X76008000Y-92366000D01*
X76008000Y-82898134D01*
X87141500Y-82898134D01*
X87148255Y-82960316D01*
X87199385Y-83096705D01*
X87286739Y-83213261D01*
X87403295Y-83300615D01*
X87539684Y-83351745D01*
X87601866Y-83358500D01*
X89398134Y-83358500D01*
X89460316Y-83351745D01*
X89596705Y-83300615D01*
X89713261Y-83213261D01*
X89800615Y-83096705D01*
X89851745Y-82960316D01*
X89858500Y-82898134D01*
X99641500Y-82898134D01*
X99648255Y-82960316D01*
X99699385Y-83096705D01*
X99786739Y-83213261D01*
X99903295Y-83300615D01*
X100039684Y-83351745D01*
X100101866Y-83358500D01*
X101898134Y-83358500D01*
X101960316Y-83351745D01*
X102096705Y-83300615D01*
X102213261Y-83213261D01*
X102300615Y-83096705D01*
X102322799Y-83037529D01*
X102344598Y-82979382D01*
X102387240Y-82922618D01*
X102453802Y-82897918D01*
X102523150Y-82913126D01*
X102557817Y-82941114D01*
X102586250Y-82973938D01*
X102758126Y-83116632D01*
X102951000Y-83229338D01*
X103159692Y-83309030D01*
X103164760Y-83310061D01*
X103164763Y-83310062D01*
X103272017Y-83331883D01*
X103378597Y-83353567D01*
X103383772Y-83353757D01*
X103383774Y-83353757D01*
X103596673Y-83361564D01*
X103596677Y-83361564D01*
X103601837Y-83361753D01*
X103606957Y-83361097D01*
X103606959Y-83361097D01*
X103818288Y-83334025D01*
X103818289Y-83334025D01*
X103823416Y-83333368D01*
X103828366Y-83331883D01*
X104032429Y-83270661D01*
X104032434Y-83270659D01*
X104037384Y-83269174D01*
X104237994Y-83170896D01*
X104419860Y-83041173D01*
X104578096Y-82883489D01*
X104708453Y-82702077D01*
X104709776Y-82703028D01*
X104756645Y-82659857D01*
X104826580Y-82647625D01*
X104892026Y-82675144D01*
X104919875Y-82706994D01*
X104979987Y-82805088D01*
X105126250Y-82973938D01*
X105298126Y-83116632D01*
X105491000Y-83229338D01*
X105699692Y-83309030D01*
X105704760Y-83310061D01*
X105704763Y-83310062D01*
X105812017Y-83331883D01*
X105918597Y-83353567D01*
X105923772Y-83353757D01*
X105923774Y-83353757D01*
X106136673Y-83361564D01*
X106136677Y-83361564D01*
X106141837Y-83361753D01*
X106146957Y-83361097D01*
X106146959Y-83361097D01*
X106358288Y-83334025D01*
X106358289Y-83334025D01*
X106363416Y-83333368D01*
X106368366Y-83331883D01*
X106572429Y-83270661D01*
X106572434Y-83270659D01*
X106577384Y-83269174D01*
X106777994Y-83170896D01*
X106959860Y-83041173D01*
X107118096Y-82883489D01*
X107248453Y-82702077D01*
X107249776Y-82703028D01*
X107296645Y-82659857D01*
X107366580Y-82647625D01*
X107432026Y-82675144D01*
X107459875Y-82706994D01*
X107519987Y-82805088D01*
X107666250Y-82973938D01*
X107838126Y-83116632D01*
X108031000Y-83229338D01*
X108239692Y-83309030D01*
X108244760Y-83310061D01*
X108244763Y-83310062D01*
X108352017Y-83331883D01*
X108458597Y-83353567D01*
X108463772Y-83353757D01*
X108463774Y-83353757D01*
X108676673Y-83361564D01*
X108676677Y-83361564D01*
X108681837Y-83361753D01*
X108686957Y-83361097D01*
X108686959Y-83361097D01*
X108898288Y-83334025D01*
X108898289Y-83334025D01*
X108903416Y-83333368D01*
X108908366Y-83331883D01*
X109112429Y-83270661D01*
X109112434Y-83270659D01*
X109117384Y-83269174D01*
X109317994Y-83170896D01*
X109499860Y-83041173D01*
X109658096Y-82883489D01*
X109788453Y-82702077D01*
X109789776Y-82703028D01*
X109836645Y-82659857D01*
X109906580Y-82647625D01*
X109972026Y-82675144D01*
X109999875Y-82706994D01*
X110059987Y-82805088D01*
X110206250Y-82973938D01*
X110378126Y-83116632D01*
X110571000Y-83229338D01*
X110779692Y-83309030D01*
X110784760Y-83310061D01*
X110784763Y-83310062D01*
X110892017Y-83331883D01*
X110998597Y-83353567D01*
X111003772Y-83353757D01*
X111003774Y-83353757D01*
X111216673Y-83361564D01*
X111216677Y-83361564D01*
X111221837Y-83361753D01*
X111226957Y-83361097D01*
X111226959Y-83361097D01*
X111438288Y-83334025D01*
X111438289Y-83334025D01*
X111443416Y-83333368D01*
X111448366Y-83331883D01*
X111652429Y-83270661D01*
X111652434Y-83270659D01*
X111657384Y-83269174D01*
X111857994Y-83170896D01*
X112039860Y-83041173D01*
X112198096Y-82883489D01*
X112328453Y-82702077D01*
X112329776Y-82703028D01*
X112376645Y-82659857D01*
X112446580Y-82647625D01*
X112512026Y-82675144D01*
X112539875Y-82706994D01*
X112599987Y-82805088D01*
X112746250Y-82973938D01*
X112918126Y-83116632D01*
X113111000Y-83229338D01*
X113319692Y-83309030D01*
X113324760Y-83310061D01*
X113324763Y-83310062D01*
X113432017Y-83331883D01*
X113538597Y-83353567D01*
X113543772Y-83353757D01*
X113543774Y-83353757D01*
X113756673Y-83361564D01*
X113756677Y-83361564D01*
X113761837Y-83361753D01*
X113766957Y-83361097D01*
X113766959Y-83361097D01*
X113978288Y-83334025D01*
X113978289Y-83334025D01*
X113983416Y-83333368D01*
X113988366Y-83331883D01*
X114192429Y-83270661D01*
X114192434Y-83270659D01*
X114197384Y-83269174D01*
X114397994Y-83170896D01*
X114579860Y-83041173D01*
X114723400Y-82898134D01*
X131141500Y-82898134D01*
X131148255Y-82960316D01*
X131199385Y-83096705D01*
X131286739Y-83213261D01*
X131403295Y-83300615D01*
X131539684Y-83351745D01*
X131601866Y-83358500D01*
X133398134Y-83358500D01*
X133460316Y-83351745D01*
X133596705Y-83300615D01*
X133713261Y-83213261D01*
X133800615Y-83096705D01*
X133851745Y-82960316D01*
X133858500Y-82898134D01*
X144291500Y-82898134D01*
X144298255Y-82960316D01*
X144349385Y-83096705D01*
X144436739Y-83213261D01*
X144553295Y-83300615D01*
X144689684Y-83351745D01*
X144751866Y-83358500D01*
X146548134Y-83358500D01*
X146610316Y-83351745D01*
X146746705Y-83300615D01*
X146863261Y-83213261D01*
X146950615Y-83096705D01*
X146972799Y-83037529D01*
X146994598Y-82979382D01*
X147037240Y-82922618D01*
X147103802Y-82897918D01*
X147173150Y-82913126D01*
X147207817Y-82941114D01*
X147236250Y-82973938D01*
X147408126Y-83116632D01*
X147601000Y-83229338D01*
X147809692Y-83309030D01*
X147814760Y-83310061D01*
X147814763Y-83310062D01*
X147922017Y-83331883D01*
X148028597Y-83353567D01*
X148033772Y-83353757D01*
X148033774Y-83353757D01*
X148246673Y-83361564D01*
X148246677Y-83361564D01*
X148251837Y-83361753D01*
X148256957Y-83361097D01*
X148256959Y-83361097D01*
X148468288Y-83334025D01*
X148468289Y-83334025D01*
X148473416Y-83333368D01*
X148478366Y-83331883D01*
X148682429Y-83270661D01*
X148682434Y-83270659D01*
X148687384Y-83269174D01*
X148887994Y-83170896D01*
X149069860Y-83041173D01*
X149228096Y-82883489D01*
X149358453Y-82702077D01*
X149359776Y-82703028D01*
X149406645Y-82659857D01*
X149476580Y-82647625D01*
X149542026Y-82675144D01*
X149569875Y-82706994D01*
X149629987Y-82805088D01*
X149776250Y-82973938D01*
X149948126Y-83116632D01*
X150141000Y-83229338D01*
X150349692Y-83309030D01*
X150354760Y-83310061D01*
X150354763Y-83310062D01*
X150462017Y-83331883D01*
X150568597Y-83353567D01*
X150573772Y-83353757D01*
X150573774Y-83353757D01*
X150786673Y-83361564D01*
X150786677Y-83361564D01*
X150791837Y-83361753D01*
X150796957Y-83361097D01*
X150796959Y-83361097D01*
X151008288Y-83334025D01*
X151008289Y-83334025D01*
X151013416Y-83333368D01*
X151018366Y-83331883D01*
X151222429Y-83270661D01*
X151222434Y-83270659D01*
X151227384Y-83269174D01*
X151427994Y-83170896D01*
X151609860Y-83041173D01*
X151768096Y-82883489D01*
X151898453Y-82702077D01*
X151899776Y-82703028D01*
X151946645Y-82659857D01*
X152016580Y-82647625D01*
X152082026Y-82675144D01*
X152109875Y-82706994D01*
X152169987Y-82805088D01*
X152316250Y-82973938D01*
X152488126Y-83116632D01*
X152681000Y-83229338D01*
X152889692Y-83309030D01*
X152894760Y-83310061D01*
X152894763Y-83310062D01*
X153002017Y-83331883D01*
X153108597Y-83353567D01*
X153113772Y-83353757D01*
X153113774Y-83353757D01*
X153326673Y-83361564D01*
X153326677Y-83361564D01*
X153331837Y-83361753D01*
X153336957Y-83361097D01*
X153336959Y-83361097D01*
X153548288Y-83334025D01*
X153548289Y-83334025D01*
X153553416Y-83333368D01*
X153558366Y-83331883D01*
X153762429Y-83270661D01*
X153762434Y-83270659D01*
X153767384Y-83269174D01*
X153967994Y-83170896D01*
X154149860Y-83041173D01*
X154308096Y-82883489D01*
X154438453Y-82702077D01*
X154439776Y-82703028D01*
X154486645Y-82659857D01*
X154556580Y-82647625D01*
X154622026Y-82675144D01*
X154649875Y-82706994D01*
X154709987Y-82805088D01*
X154856250Y-82973938D01*
X155028126Y-83116632D01*
X155221000Y-83229338D01*
X155429692Y-83309030D01*
X155434760Y-83310061D01*
X155434763Y-83310062D01*
X155542017Y-83331883D01*
X155648597Y-83353567D01*
X155653772Y-83353757D01*
X155653774Y-83353757D01*
X155866673Y-83361564D01*
X155866677Y-83361564D01*
X155871837Y-83361753D01*
X155876957Y-83361097D01*
X155876959Y-83361097D01*
X156088288Y-83334025D01*
X156088289Y-83334025D01*
X156093416Y-83333368D01*
X156098366Y-83331883D01*
X156302429Y-83270661D01*
X156302434Y-83270659D01*
X156307384Y-83269174D01*
X156507994Y-83170896D01*
X156689860Y-83041173D01*
X156848096Y-82883489D01*
X156978453Y-82702077D01*
X156979776Y-82703028D01*
X157026645Y-82659857D01*
X157096580Y-82647625D01*
X157162026Y-82675144D01*
X157189875Y-82706994D01*
X157249987Y-82805088D01*
X157396250Y-82973938D01*
X157568126Y-83116632D01*
X157761000Y-83229338D01*
X157969692Y-83309030D01*
X157974760Y-83310061D01*
X157974763Y-83310062D01*
X158082017Y-83331883D01*
X158188597Y-83353567D01*
X158193772Y-83353757D01*
X158193774Y-83353757D01*
X158406673Y-83361564D01*
X158406677Y-83361564D01*
X158411837Y-83361753D01*
X158416957Y-83361097D01*
X158416959Y-83361097D01*
X158628288Y-83334025D01*
X158628289Y-83334025D01*
X158633416Y-83333368D01*
X158638366Y-83331883D01*
X158842429Y-83270661D01*
X158842434Y-83270659D01*
X158847384Y-83269174D01*
X159047994Y-83170896D01*
X159229860Y-83041173D01*
X159388096Y-82883489D01*
X159518453Y-82702077D01*
X159539320Y-82659857D01*
X159615136Y-82506453D01*
X159615137Y-82506451D01*
X159617430Y-82501811D01*
X159682370Y-82288069D01*
X159711529Y-82066590D01*
X159713156Y-82000000D01*
X159694852Y-81777361D01*
X159640431Y-81560702D01*
X159551354Y-81355840D01*
X159430014Y-81168277D01*
X159279670Y-81003051D01*
X159275619Y-80999852D01*
X159275615Y-80999848D01*
X159108414Y-80867800D01*
X159108410Y-80867798D01*
X159104359Y-80864598D01*
X158908789Y-80756638D01*
X158903920Y-80754914D01*
X158903916Y-80754912D01*
X158703087Y-80683795D01*
X158703083Y-80683794D01*
X158698212Y-80682069D01*
X158693119Y-80681162D01*
X158693116Y-80681161D01*
X158483373Y-80643800D01*
X158483367Y-80643799D01*
X158478284Y-80642894D01*
X158404452Y-80641992D01*
X158260081Y-80640228D01*
X158260079Y-80640228D01*
X158254911Y-80640165D01*
X158034091Y-80673955D01*
X157821756Y-80743357D01*
X157623607Y-80846507D01*
X157619474Y-80849610D01*
X157619471Y-80849612D01*
X157449100Y-80977530D01*
X157444965Y-80980635D01*
X157441393Y-80984373D01*
X157333729Y-81097037D01*
X157290629Y-81142138D01*
X157183201Y-81299621D01*
X157128293Y-81344621D01*
X157057768Y-81352792D01*
X156994021Y-81321538D01*
X156973324Y-81297054D01*
X156892822Y-81172617D01*
X156892820Y-81172614D01*
X156890014Y-81168277D01*
X156739670Y-81003051D01*
X156735619Y-80999852D01*
X156735615Y-80999848D01*
X156568414Y-80867800D01*
X156568410Y-80867798D01*
X156564359Y-80864598D01*
X156368789Y-80756638D01*
X156363920Y-80754914D01*
X156363916Y-80754912D01*
X156163087Y-80683795D01*
X156163083Y-80683794D01*
X156158212Y-80682069D01*
X156153119Y-80681162D01*
X156153116Y-80681161D01*
X155943373Y-80643800D01*
X155943367Y-80643799D01*
X155938284Y-80642894D01*
X155864452Y-80641992D01*
X155720081Y-80640228D01*
X155720079Y-80640228D01*
X155714911Y-80640165D01*
X155494091Y-80673955D01*
X155281756Y-80743357D01*
X155083607Y-80846507D01*
X155079474Y-80849610D01*
X155079471Y-80849612D01*
X154909100Y-80977530D01*
X154904965Y-80980635D01*
X154901393Y-80984373D01*
X154793729Y-81097037D01*
X154750629Y-81142138D01*
X154643201Y-81299621D01*
X154588293Y-81344621D01*
X154517768Y-81352792D01*
X154454021Y-81321538D01*
X154433324Y-81297054D01*
X154352822Y-81172617D01*
X154352820Y-81172614D01*
X154350014Y-81168277D01*
X154199670Y-81003051D01*
X154195619Y-80999852D01*
X154195615Y-80999848D01*
X154028414Y-80867800D01*
X154028410Y-80867798D01*
X154024359Y-80864598D01*
X153828789Y-80756638D01*
X153823920Y-80754914D01*
X153823916Y-80754912D01*
X153623087Y-80683795D01*
X153623083Y-80683794D01*
X153618212Y-80682069D01*
X153613119Y-80681162D01*
X153613116Y-80681161D01*
X153403373Y-80643800D01*
X153403367Y-80643799D01*
X153398284Y-80642894D01*
X153324452Y-80641992D01*
X153180081Y-80640228D01*
X153180079Y-80640228D01*
X153174911Y-80640165D01*
X152954091Y-80673955D01*
X152741756Y-80743357D01*
X152543607Y-80846507D01*
X152539474Y-80849610D01*
X152539471Y-80849612D01*
X152369100Y-80977530D01*
X152364965Y-80980635D01*
X152361393Y-80984373D01*
X152253729Y-81097037D01*
X152210629Y-81142138D01*
X152103201Y-81299621D01*
X152048293Y-81344621D01*
X151977768Y-81352792D01*
X151914021Y-81321538D01*
X151893324Y-81297054D01*
X151812822Y-81172617D01*
X151812820Y-81172614D01*
X151810014Y-81168277D01*
X151659670Y-81003051D01*
X151655619Y-80999852D01*
X151655615Y-80999848D01*
X151488414Y-80867800D01*
X151488410Y-80867798D01*
X151484359Y-80864598D01*
X151288789Y-80756638D01*
X151283920Y-80754914D01*
X151283916Y-80754912D01*
X151083087Y-80683795D01*
X151083083Y-80683794D01*
X151078212Y-80682069D01*
X151073119Y-80681162D01*
X151073116Y-80681161D01*
X150863373Y-80643800D01*
X150863367Y-80643799D01*
X150858284Y-80642894D01*
X150784452Y-80641992D01*
X150640081Y-80640228D01*
X150640079Y-80640228D01*
X150634911Y-80640165D01*
X150414091Y-80673955D01*
X150201756Y-80743357D01*
X150003607Y-80846507D01*
X149999474Y-80849610D01*
X149999471Y-80849612D01*
X149829100Y-80977530D01*
X149824965Y-80980635D01*
X149821393Y-80984373D01*
X149713729Y-81097037D01*
X149670629Y-81142138D01*
X149563201Y-81299621D01*
X149508293Y-81344621D01*
X149437768Y-81352792D01*
X149374021Y-81321538D01*
X149353324Y-81297054D01*
X149272822Y-81172617D01*
X149272820Y-81172614D01*
X149270014Y-81168277D01*
X149119670Y-81003051D01*
X149115619Y-80999852D01*
X149115615Y-80999848D01*
X148948414Y-80867800D01*
X148948410Y-80867798D01*
X148944359Y-80864598D01*
X148748789Y-80756638D01*
X148743920Y-80754914D01*
X148743916Y-80754912D01*
X148543087Y-80683795D01*
X148543083Y-80683794D01*
X148538212Y-80682069D01*
X148533119Y-80681162D01*
X148533116Y-80681161D01*
X148323373Y-80643800D01*
X148323367Y-80643799D01*
X148318284Y-80642894D01*
X148244452Y-80641992D01*
X148100081Y-80640228D01*
X148100079Y-80640228D01*
X148094911Y-80640165D01*
X147874091Y-80673955D01*
X147661756Y-80743357D01*
X147463607Y-80846507D01*
X147459474Y-80849610D01*
X147459471Y-80849612D01*
X147289100Y-80977530D01*
X147284965Y-80980635D01*
X147228537Y-81039684D01*
X147204283Y-81065064D01*
X147142759Y-81100494D01*
X147071846Y-81097037D01*
X147014060Y-81055791D01*
X146995207Y-81022243D01*
X146953767Y-80911703D01*
X146950615Y-80903295D01*
X146863261Y-80786739D01*
X146746705Y-80699385D01*
X146610316Y-80648255D01*
X146548134Y-80641500D01*
X144751866Y-80641500D01*
X144689684Y-80648255D01*
X144553295Y-80699385D01*
X144436739Y-80786739D01*
X144349385Y-80903295D01*
X144298255Y-81039684D01*
X144291500Y-81101866D01*
X144291500Y-82898134D01*
X133858500Y-82898134D01*
X133858500Y-81101866D01*
X133851745Y-81039684D01*
X133800615Y-80903295D01*
X133713261Y-80786739D01*
X133596705Y-80699385D01*
X133460316Y-80648255D01*
X133398134Y-80641500D01*
X131601866Y-80641500D01*
X131539684Y-80648255D01*
X131403295Y-80699385D01*
X131286739Y-80786739D01*
X131199385Y-80903295D01*
X131148255Y-81039684D01*
X131141500Y-81101866D01*
X131141500Y-82898134D01*
X114723400Y-82898134D01*
X114738096Y-82883489D01*
X114868453Y-82702077D01*
X114889320Y-82659857D01*
X114965136Y-82506453D01*
X114965137Y-82506451D01*
X114967430Y-82501811D01*
X115032370Y-82288069D01*
X115061529Y-82066590D01*
X115063156Y-82000000D01*
X115044852Y-81777361D01*
X114990431Y-81560702D01*
X114901354Y-81355840D01*
X114780014Y-81168277D01*
X114629670Y-81003051D01*
X114625619Y-80999852D01*
X114625615Y-80999848D01*
X114458414Y-80867800D01*
X114458410Y-80867798D01*
X114454359Y-80864598D01*
X114258789Y-80756638D01*
X114253920Y-80754914D01*
X114253916Y-80754912D01*
X114053087Y-80683795D01*
X114053083Y-80683794D01*
X114048212Y-80682069D01*
X114043119Y-80681162D01*
X114043116Y-80681161D01*
X113833373Y-80643800D01*
X113833367Y-80643799D01*
X113828284Y-80642894D01*
X113754452Y-80641992D01*
X113610081Y-80640228D01*
X113610079Y-80640228D01*
X113604911Y-80640165D01*
X113384091Y-80673955D01*
X113171756Y-80743357D01*
X112973607Y-80846507D01*
X112969474Y-80849610D01*
X112969471Y-80849612D01*
X112799100Y-80977530D01*
X112794965Y-80980635D01*
X112791393Y-80984373D01*
X112683729Y-81097037D01*
X112640629Y-81142138D01*
X112533201Y-81299621D01*
X112478293Y-81344621D01*
X112407768Y-81352792D01*
X112344021Y-81321538D01*
X112323324Y-81297054D01*
X112242822Y-81172617D01*
X112242820Y-81172614D01*
X112240014Y-81168277D01*
X112089670Y-81003051D01*
X112085619Y-80999852D01*
X112085615Y-80999848D01*
X111918414Y-80867800D01*
X111918410Y-80867798D01*
X111914359Y-80864598D01*
X111718789Y-80756638D01*
X111713920Y-80754914D01*
X111713916Y-80754912D01*
X111513087Y-80683795D01*
X111513083Y-80683794D01*
X111508212Y-80682069D01*
X111503119Y-80681162D01*
X111503116Y-80681161D01*
X111293373Y-80643800D01*
X111293367Y-80643799D01*
X111288284Y-80642894D01*
X111214452Y-80641992D01*
X111070081Y-80640228D01*
X111070079Y-80640228D01*
X111064911Y-80640165D01*
X110844091Y-80673955D01*
X110631756Y-80743357D01*
X110433607Y-80846507D01*
X110429474Y-80849610D01*
X110429471Y-80849612D01*
X110259100Y-80977530D01*
X110254965Y-80980635D01*
X110251393Y-80984373D01*
X110143729Y-81097037D01*
X110100629Y-81142138D01*
X109993201Y-81299621D01*
X109938293Y-81344621D01*
X109867768Y-81352792D01*
X109804021Y-81321538D01*
X109783324Y-81297054D01*
X109702822Y-81172617D01*
X109702820Y-81172614D01*
X109700014Y-81168277D01*
X109549670Y-81003051D01*
X109545619Y-80999852D01*
X109545615Y-80999848D01*
X109378414Y-80867800D01*
X109378410Y-80867798D01*
X109374359Y-80864598D01*
X109178789Y-80756638D01*
X109173920Y-80754914D01*
X109173916Y-80754912D01*
X108973087Y-80683795D01*
X108973083Y-80683794D01*
X108968212Y-80682069D01*
X108963119Y-80681162D01*
X108963116Y-80681161D01*
X108753373Y-80643800D01*
X108753367Y-80643799D01*
X108748284Y-80642894D01*
X108674452Y-80641992D01*
X108530081Y-80640228D01*
X108530079Y-80640228D01*
X108524911Y-80640165D01*
X108304091Y-80673955D01*
X108091756Y-80743357D01*
X107893607Y-80846507D01*
X107889474Y-80849610D01*
X107889471Y-80849612D01*
X107719100Y-80977530D01*
X107714965Y-80980635D01*
X107711393Y-80984373D01*
X107603729Y-81097037D01*
X107560629Y-81142138D01*
X107453201Y-81299621D01*
X107398293Y-81344621D01*
X107327768Y-81352792D01*
X107264021Y-81321538D01*
X107243324Y-81297054D01*
X107162822Y-81172617D01*
X107162820Y-81172614D01*
X107160014Y-81168277D01*
X107009670Y-81003051D01*
X107005619Y-80999852D01*
X107005615Y-80999848D01*
X106838414Y-80867800D01*
X106838410Y-80867798D01*
X106834359Y-80864598D01*
X106638789Y-80756638D01*
X106633920Y-80754914D01*
X106633916Y-80754912D01*
X106433087Y-80683795D01*
X106433083Y-80683794D01*
X106428212Y-80682069D01*
X106423119Y-80681162D01*
X106423116Y-80681161D01*
X106213373Y-80643800D01*
X106213367Y-80643799D01*
X106208284Y-80642894D01*
X106134452Y-80641992D01*
X105990081Y-80640228D01*
X105990079Y-80640228D01*
X105984911Y-80640165D01*
X105764091Y-80673955D01*
X105551756Y-80743357D01*
X105353607Y-80846507D01*
X105349474Y-80849610D01*
X105349471Y-80849612D01*
X105179100Y-80977530D01*
X105174965Y-80980635D01*
X105171393Y-80984373D01*
X105063729Y-81097037D01*
X105020629Y-81142138D01*
X104913201Y-81299621D01*
X104858293Y-81344621D01*
X104787768Y-81352792D01*
X104724021Y-81321538D01*
X104703324Y-81297054D01*
X104622822Y-81172617D01*
X104622820Y-81172614D01*
X104620014Y-81168277D01*
X104469670Y-81003051D01*
X104465619Y-80999852D01*
X104465615Y-80999848D01*
X104298414Y-80867800D01*
X104298410Y-80867798D01*
X104294359Y-80864598D01*
X104098789Y-80756638D01*
X104093920Y-80754914D01*
X104093916Y-80754912D01*
X103893087Y-80683795D01*
X103893083Y-80683794D01*
X103888212Y-80682069D01*
X103883119Y-80681162D01*
X103883116Y-80681161D01*
X103673373Y-80643800D01*
X103673367Y-80643799D01*
X103668284Y-80642894D01*
X103594452Y-80641992D01*
X103450081Y-80640228D01*
X103450079Y-80640228D01*
X103444911Y-80640165D01*
X103224091Y-80673955D01*
X103011756Y-80743357D01*
X102813607Y-80846507D01*
X102809474Y-80849610D01*
X102809471Y-80849612D01*
X102639100Y-80977530D01*
X102634965Y-80980635D01*
X102578537Y-81039684D01*
X102554283Y-81065064D01*
X102492759Y-81100494D01*
X102421846Y-81097037D01*
X102364060Y-81055791D01*
X102345207Y-81022243D01*
X102303767Y-80911703D01*
X102300615Y-80903295D01*
X102213261Y-80786739D01*
X102096705Y-80699385D01*
X101960316Y-80648255D01*
X101898134Y-80641500D01*
X100101866Y-80641500D01*
X100039684Y-80648255D01*
X99903295Y-80699385D01*
X99786739Y-80786739D01*
X99699385Y-80903295D01*
X99648255Y-81039684D01*
X99641500Y-81101866D01*
X99641500Y-82898134D01*
X89858500Y-82898134D01*
X89858500Y-81101866D01*
X89851745Y-81039684D01*
X89800615Y-80903295D01*
X89713261Y-80786739D01*
X89596705Y-80699385D01*
X89460316Y-80648255D01*
X89398134Y-80641500D01*
X87601866Y-80641500D01*
X87539684Y-80648255D01*
X87403295Y-80699385D01*
X87286739Y-80786739D01*
X87199385Y-80903295D01*
X87148255Y-81039684D01*
X87141500Y-81101866D01*
X87141500Y-82898134D01*
X76008000Y-82898134D01*
X76008000Y-45898134D01*
X90641500Y-45898134D01*
X90648255Y-45960316D01*
X90699385Y-46096705D01*
X90786739Y-46213261D01*
X90903295Y-46300615D01*
X91039684Y-46351745D01*
X91101866Y-46358500D01*
X92898134Y-46358500D01*
X92960316Y-46351745D01*
X93096705Y-46300615D01*
X93213261Y-46213261D01*
X93300615Y-46096705D01*
X93351745Y-45960316D01*
X93358500Y-45898134D01*
X93358500Y-44966695D01*
X95717251Y-44966695D01*
X95717548Y-44971848D01*
X95717548Y-44971851D01*
X95723011Y-45066590D01*
X95730110Y-45189715D01*
X95731247Y-45194761D01*
X95731248Y-45194767D01*
X95751119Y-45282939D01*
X95779222Y-45407639D01*
X95863266Y-45614616D01*
X95914019Y-45697438D01*
X95977291Y-45800688D01*
X95979987Y-45805088D01*
X96126250Y-45973938D01*
X96298126Y-46116632D01*
X96491000Y-46229338D01*
X96699692Y-46309030D01*
X96704760Y-46310061D01*
X96704763Y-46310062D01*
X96812017Y-46331883D01*
X96918597Y-46353567D01*
X96923772Y-46353757D01*
X96923774Y-46353757D01*
X97136673Y-46361564D01*
X97136677Y-46361564D01*
X97141837Y-46361753D01*
X97146957Y-46361097D01*
X97146959Y-46361097D01*
X97358288Y-46334025D01*
X97358289Y-46334025D01*
X97363416Y-46333368D01*
X97368366Y-46331883D01*
X97572429Y-46270661D01*
X97572434Y-46270659D01*
X97577384Y-46269174D01*
X97777994Y-46170896D01*
X97959860Y-46041173D01*
X98118096Y-45883489D01*
X98177594Y-45800689D01*
X98248453Y-45702077D01*
X98249776Y-45703028D01*
X98296645Y-45659857D01*
X98366580Y-45647625D01*
X98432026Y-45675144D01*
X98459875Y-45706994D01*
X98519987Y-45805088D01*
X98666250Y-45973938D01*
X98838126Y-46116632D01*
X99031000Y-46229338D01*
X99239692Y-46309030D01*
X99244760Y-46310061D01*
X99244763Y-46310062D01*
X99352017Y-46331883D01*
X99458597Y-46353567D01*
X99463772Y-46353757D01*
X99463774Y-46353757D01*
X99676673Y-46361564D01*
X99676677Y-46361564D01*
X99681837Y-46361753D01*
X99686957Y-46361097D01*
X99686959Y-46361097D01*
X99898288Y-46334025D01*
X99898289Y-46334025D01*
X99903416Y-46333368D01*
X99908366Y-46331883D01*
X100112429Y-46270661D01*
X100112434Y-46270659D01*
X100117384Y-46269174D01*
X100317994Y-46170896D01*
X100499860Y-46041173D01*
X100658096Y-45883489D01*
X100717594Y-45800689D01*
X100788453Y-45702077D01*
X100789776Y-45703028D01*
X100836645Y-45659857D01*
X100906580Y-45647625D01*
X100972026Y-45675144D01*
X100999875Y-45706994D01*
X101059987Y-45805088D01*
X101206250Y-45973938D01*
X101378126Y-46116632D01*
X101571000Y-46229338D01*
X101779692Y-46309030D01*
X101784760Y-46310061D01*
X101784763Y-46310062D01*
X101892017Y-46331883D01*
X101998597Y-46353567D01*
X102003772Y-46353757D01*
X102003774Y-46353757D01*
X102216673Y-46361564D01*
X102216677Y-46361564D01*
X102221837Y-46361753D01*
X102226957Y-46361097D01*
X102226959Y-46361097D01*
X102438288Y-46334025D01*
X102438289Y-46334025D01*
X102443416Y-46333368D01*
X102448366Y-46331883D01*
X102652429Y-46270661D01*
X102652434Y-46270659D01*
X102657384Y-46269174D01*
X102857994Y-46170896D01*
X103039860Y-46041173D01*
X103198096Y-45883489D01*
X103257594Y-45800689D01*
X103328453Y-45702077D01*
X103329776Y-45703028D01*
X103376645Y-45659857D01*
X103446580Y-45647625D01*
X103512026Y-45675144D01*
X103539875Y-45706994D01*
X103599987Y-45805088D01*
X103746250Y-45973938D01*
X103918126Y-46116632D01*
X104111000Y-46229338D01*
X104319692Y-46309030D01*
X104324760Y-46310061D01*
X104324763Y-46310062D01*
X104432017Y-46331883D01*
X104538597Y-46353567D01*
X104543772Y-46353757D01*
X104543774Y-46353757D01*
X104756673Y-46361564D01*
X104756677Y-46361564D01*
X104761837Y-46361753D01*
X104766957Y-46361097D01*
X104766959Y-46361097D01*
X104978288Y-46334025D01*
X104978289Y-46334025D01*
X104983416Y-46333368D01*
X104988366Y-46331883D01*
X105192429Y-46270661D01*
X105192434Y-46270659D01*
X105197384Y-46269174D01*
X105397994Y-46170896D01*
X105579860Y-46041173D01*
X105738096Y-45883489D01*
X105797594Y-45800689D01*
X105868453Y-45702077D01*
X105869776Y-45703028D01*
X105916645Y-45659857D01*
X105986580Y-45647625D01*
X106052026Y-45675144D01*
X106079875Y-45706994D01*
X106139987Y-45805088D01*
X106286250Y-45973938D01*
X106458126Y-46116632D01*
X106651000Y-46229338D01*
X106859692Y-46309030D01*
X106864760Y-46310061D01*
X106864763Y-46310062D01*
X106972017Y-46331883D01*
X107078597Y-46353567D01*
X107083772Y-46353757D01*
X107083774Y-46353757D01*
X107296673Y-46361564D01*
X107296677Y-46361564D01*
X107301837Y-46361753D01*
X107306957Y-46361097D01*
X107306959Y-46361097D01*
X107518288Y-46334025D01*
X107518289Y-46334025D01*
X107523416Y-46333368D01*
X107528366Y-46331883D01*
X107732429Y-46270661D01*
X107732434Y-46270659D01*
X107737384Y-46269174D01*
X107937994Y-46170896D01*
X108119860Y-46041173D01*
X108263400Y-45898134D01*
X135766500Y-45898134D01*
X135773255Y-45960316D01*
X135824385Y-46096705D01*
X135911739Y-46213261D01*
X136028295Y-46300615D01*
X136164684Y-46351745D01*
X136226866Y-46358500D01*
X138023134Y-46358500D01*
X138085316Y-46351745D01*
X138221705Y-46300615D01*
X138338261Y-46213261D01*
X138425615Y-46096705D01*
X138476745Y-45960316D01*
X138483500Y-45898134D01*
X138483500Y-44966695D01*
X140842251Y-44966695D01*
X140842548Y-44971848D01*
X140842548Y-44971851D01*
X140848011Y-45066590D01*
X140855110Y-45189715D01*
X140856247Y-45194761D01*
X140856248Y-45194767D01*
X140876119Y-45282939D01*
X140904222Y-45407639D01*
X140988266Y-45614616D01*
X141039019Y-45697438D01*
X141102291Y-45800688D01*
X141104987Y-45805088D01*
X141251250Y-45973938D01*
X141423126Y-46116632D01*
X141616000Y-46229338D01*
X141824692Y-46309030D01*
X141829760Y-46310061D01*
X141829763Y-46310062D01*
X141937017Y-46331883D01*
X142043597Y-46353567D01*
X142048772Y-46353757D01*
X142048774Y-46353757D01*
X142261673Y-46361564D01*
X142261677Y-46361564D01*
X142266837Y-46361753D01*
X142271957Y-46361097D01*
X142271959Y-46361097D01*
X142483288Y-46334025D01*
X142483289Y-46334025D01*
X142488416Y-46333368D01*
X142493366Y-46331883D01*
X142697429Y-46270661D01*
X142697434Y-46270659D01*
X142702384Y-46269174D01*
X142902994Y-46170896D01*
X143084860Y-46041173D01*
X143243096Y-45883489D01*
X143302594Y-45800689D01*
X143373453Y-45702077D01*
X143374776Y-45703028D01*
X143421645Y-45659857D01*
X143491580Y-45647625D01*
X143557026Y-45675144D01*
X143584875Y-45706994D01*
X143644987Y-45805088D01*
X143791250Y-45973938D01*
X143963126Y-46116632D01*
X144156000Y-46229338D01*
X144364692Y-46309030D01*
X144369760Y-46310061D01*
X144369763Y-46310062D01*
X144477017Y-46331883D01*
X144583597Y-46353567D01*
X144588772Y-46353757D01*
X144588774Y-46353757D01*
X144801673Y-46361564D01*
X144801677Y-46361564D01*
X144806837Y-46361753D01*
X144811957Y-46361097D01*
X144811959Y-46361097D01*
X145023288Y-46334025D01*
X145023289Y-46334025D01*
X145028416Y-46333368D01*
X145033366Y-46331883D01*
X145237429Y-46270661D01*
X145237434Y-46270659D01*
X145242384Y-46269174D01*
X145442994Y-46170896D01*
X145624860Y-46041173D01*
X145783096Y-45883489D01*
X145842594Y-45800689D01*
X145913453Y-45702077D01*
X145914776Y-45703028D01*
X145961645Y-45659857D01*
X146031580Y-45647625D01*
X146097026Y-45675144D01*
X146124875Y-45706994D01*
X146184987Y-45805088D01*
X146331250Y-45973938D01*
X146503126Y-46116632D01*
X146696000Y-46229338D01*
X146904692Y-46309030D01*
X146909760Y-46310061D01*
X146909763Y-46310062D01*
X147017017Y-46331883D01*
X147123597Y-46353567D01*
X147128772Y-46353757D01*
X147128774Y-46353757D01*
X147341673Y-46361564D01*
X147341677Y-46361564D01*
X147346837Y-46361753D01*
X147351957Y-46361097D01*
X147351959Y-46361097D01*
X147563288Y-46334025D01*
X147563289Y-46334025D01*
X147568416Y-46333368D01*
X147573366Y-46331883D01*
X147777429Y-46270661D01*
X147777434Y-46270659D01*
X147782384Y-46269174D01*
X147982994Y-46170896D01*
X148164860Y-46041173D01*
X148323096Y-45883489D01*
X148382594Y-45800689D01*
X148453453Y-45702077D01*
X148454776Y-45703028D01*
X148501645Y-45659857D01*
X148571580Y-45647625D01*
X148637026Y-45675144D01*
X148664875Y-45706994D01*
X148724987Y-45805088D01*
X148871250Y-45973938D01*
X149043126Y-46116632D01*
X149236000Y-46229338D01*
X149444692Y-46309030D01*
X149449760Y-46310061D01*
X149449763Y-46310062D01*
X149557017Y-46331883D01*
X149663597Y-46353567D01*
X149668772Y-46353757D01*
X149668774Y-46353757D01*
X149881673Y-46361564D01*
X149881677Y-46361564D01*
X149886837Y-46361753D01*
X149891957Y-46361097D01*
X149891959Y-46361097D01*
X150103288Y-46334025D01*
X150103289Y-46334025D01*
X150108416Y-46333368D01*
X150113366Y-46331883D01*
X150317429Y-46270661D01*
X150317434Y-46270659D01*
X150322384Y-46269174D01*
X150522994Y-46170896D01*
X150704860Y-46041173D01*
X150863096Y-45883489D01*
X150922594Y-45800689D01*
X150993453Y-45702077D01*
X150994776Y-45703028D01*
X151041645Y-45659857D01*
X151111580Y-45647625D01*
X151177026Y-45675144D01*
X151204875Y-45706994D01*
X151264987Y-45805088D01*
X151411250Y-45973938D01*
X151583126Y-46116632D01*
X151776000Y-46229338D01*
X151984692Y-46309030D01*
X151989760Y-46310061D01*
X151989763Y-46310062D01*
X152097017Y-46331883D01*
X152203597Y-46353567D01*
X152208772Y-46353757D01*
X152208774Y-46353757D01*
X152421673Y-46361564D01*
X152421677Y-46361564D01*
X152426837Y-46361753D01*
X152431957Y-46361097D01*
X152431959Y-46361097D01*
X152643288Y-46334025D01*
X152643289Y-46334025D01*
X152648416Y-46333368D01*
X152653366Y-46331883D01*
X152857429Y-46270661D01*
X152857434Y-46270659D01*
X152862384Y-46269174D01*
X153062994Y-46170896D01*
X153244860Y-46041173D01*
X153403096Y-45883489D01*
X153462594Y-45800689D01*
X153530435Y-45706277D01*
X153533453Y-45702077D01*
X153554320Y-45659857D01*
X153630136Y-45506453D01*
X153630137Y-45506451D01*
X153632430Y-45501811D01*
X153697370Y-45288069D01*
X153726529Y-45066590D01*
X153728156Y-45000000D01*
X153709852Y-44777361D01*
X153655431Y-44560702D01*
X153566354Y-44355840D01*
X153445014Y-44168277D01*
X153294670Y-44003051D01*
X153290619Y-43999852D01*
X153290615Y-43999848D01*
X153123414Y-43867800D01*
X153123410Y-43867798D01*
X153119359Y-43864598D01*
X152923789Y-43756638D01*
X152918920Y-43754914D01*
X152918916Y-43754912D01*
X152718087Y-43683795D01*
X152718083Y-43683794D01*
X152713212Y-43682069D01*
X152708119Y-43681162D01*
X152708116Y-43681161D01*
X152498373Y-43643800D01*
X152498367Y-43643799D01*
X152493284Y-43642894D01*
X152419452Y-43641992D01*
X152275081Y-43640228D01*
X152275079Y-43640228D01*
X152269911Y-43640165D01*
X152049091Y-43673955D01*
X151836756Y-43743357D01*
X151638607Y-43846507D01*
X151634474Y-43849610D01*
X151634471Y-43849612D01*
X151464100Y-43977530D01*
X151459965Y-43980635D01*
X151305629Y-44142138D01*
X151198201Y-44299621D01*
X151143293Y-44344621D01*
X151072768Y-44352792D01*
X151009021Y-44321538D01*
X150988324Y-44297054D01*
X150907822Y-44172617D01*
X150907820Y-44172614D01*
X150905014Y-44168277D01*
X150754670Y-44003051D01*
X150750619Y-43999852D01*
X150750615Y-43999848D01*
X150583414Y-43867800D01*
X150583410Y-43867798D01*
X150579359Y-43864598D01*
X150383789Y-43756638D01*
X150378920Y-43754914D01*
X150378916Y-43754912D01*
X150178087Y-43683795D01*
X150178083Y-43683794D01*
X150173212Y-43682069D01*
X150168119Y-43681162D01*
X150168116Y-43681161D01*
X149958373Y-43643800D01*
X149958367Y-43643799D01*
X149953284Y-43642894D01*
X149879452Y-43641992D01*
X149735081Y-43640228D01*
X149735079Y-43640228D01*
X149729911Y-43640165D01*
X149509091Y-43673955D01*
X149296756Y-43743357D01*
X149098607Y-43846507D01*
X149094474Y-43849610D01*
X149094471Y-43849612D01*
X148924100Y-43977530D01*
X148919965Y-43980635D01*
X148765629Y-44142138D01*
X148658201Y-44299621D01*
X148603293Y-44344621D01*
X148532768Y-44352792D01*
X148469021Y-44321538D01*
X148448324Y-44297054D01*
X148367822Y-44172617D01*
X148367820Y-44172614D01*
X148365014Y-44168277D01*
X148214670Y-44003051D01*
X148210619Y-43999852D01*
X148210615Y-43999848D01*
X148043414Y-43867800D01*
X148043410Y-43867798D01*
X148039359Y-43864598D01*
X147843789Y-43756638D01*
X147838920Y-43754914D01*
X147838916Y-43754912D01*
X147638087Y-43683795D01*
X147638083Y-43683794D01*
X147633212Y-43682069D01*
X147628119Y-43681162D01*
X147628116Y-43681161D01*
X147418373Y-43643800D01*
X147418367Y-43643799D01*
X147413284Y-43642894D01*
X147339452Y-43641992D01*
X147195081Y-43640228D01*
X147195079Y-43640228D01*
X147189911Y-43640165D01*
X146969091Y-43673955D01*
X146756756Y-43743357D01*
X146558607Y-43846507D01*
X146554474Y-43849610D01*
X146554471Y-43849612D01*
X146384100Y-43977530D01*
X146379965Y-43980635D01*
X146225629Y-44142138D01*
X146118201Y-44299621D01*
X146063293Y-44344621D01*
X145992768Y-44352792D01*
X145929021Y-44321538D01*
X145908324Y-44297054D01*
X145827822Y-44172617D01*
X145827820Y-44172614D01*
X145825014Y-44168277D01*
X145674670Y-44003051D01*
X145670619Y-43999852D01*
X145670615Y-43999848D01*
X145503414Y-43867800D01*
X145503410Y-43867798D01*
X145499359Y-43864598D01*
X145303789Y-43756638D01*
X145298920Y-43754914D01*
X145298916Y-43754912D01*
X145098087Y-43683795D01*
X145098083Y-43683794D01*
X145093212Y-43682069D01*
X145088119Y-43681162D01*
X145088116Y-43681161D01*
X144878373Y-43643800D01*
X144878367Y-43643799D01*
X144873284Y-43642894D01*
X144799452Y-43641992D01*
X144655081Y-43640228D01*
X144655079Y-43640228D01*
X144649911Y-43640165D01*
X144429091Y-43673955D01*
X144216756Y-43743357D01*
X144018607Y-43846507D01*
X144014474Y-43849610D01*
X144014471Y-43849612D01*
X143844100Y-43977530D01*
X143839965Y-43980635D01*
X143685629Y-44142138D01*
X143578201Y-44299621D01*
X143523293Y-44344621D01*
X143452768Y-44352792D01*
X143389021Y-44321538D01*
X143368324Y-44297054D01*
X143287822Y-44172617D01*
X143287820Y-44172614D01*
X143285014Y-44168277D01*
X143134670Y-44003051D01*
X143130619Y-43999852D01*
X143130615Y-43999848D01*
X142963414Y-43867800D01*
X142963410Y-43867798D01*
X142959359Y-43864598D01*
X142763789Y-43756638D01*
X142758920Y-43754914D01*
X142758916Y-43754912D01*
X142558087Y-43683795D01*
X142558083Y-43683794D01*
X142553212Y-43682069D01*
X142548119Y-43681162D01*
X142548116Y-43681161D01*
X142338373Y-43643800D01*
X142338367Y-43643799D01*
X142333284Y-43642894D01*
X142259452Y-43641992D01*
X142115081Y-43640228D01*
X142115079Y-43640228D01*
X142109911Y-43640165D01*
X141889091Y-43673955D01*
X141676756Y-43743357D01*
X141478607Y-43846507D01*
X141474474Y-43849610D01*
X141474471Y-43849612D01*
X141304100Y-43977530D01*
X141299965Y-43980635D01*
X141145629Y-44142138D01*
X141019743Y-44326680D01*
X140925688Y-44529305D01*
X140865989Y-44744570D01*
X140842251Y-44966695D01*
X138483500Y-44966695D01*
X138483500Y-44101866D01*
X138476745Y-44039684D01*
X138425615Y-43903295D01*
X138338261Y-43786739D01*
X138221705Y-43699385D01*
X138085316Y-43648255D01*
X138023134Y-43641500D01*
X136226866Y-43641500D01*
X136164684Y-43648255D01*
X136028295Y-43699385D01*
X135911739Y-43786739D01*
X135824385Y-43903295D01*
X135773255Y-44039684D01*
X135766500Y-44101866D01*
X135766500Y-45898134D01*
X108263400Y-45898134D01*
X108278096Y-45883489D01*
X108337594Y-45800689D01*
X108405435Y-45706277D01*
X108408453Y-45702077D01*
X108429320Y-45659857D01*
X108505136Y-45506453D01*
X108505137Y-45506451D01*
X108507430Y-45501811D01*
X108572370Y-45288069D01*
X108601529Y-45066590D01*
X108603156Y-45000000D01*
X108584852Y-44777361D01*
X108530431Y-44560702D01*
X108441354Y-44355840D01*
X108320014Y-44168277D01*
X108169670Y-44003051D01*
X108165619Y-43999852D01*
X108165615Y-43999848D01*
X107998414Y-43867800D01*
X107998410Y-43867798D01*
X107994359Y-43864598D01*
X107798789Y-43756638D01*
X107793920Y-43754914D01*
X107793916Y-43754912D01*
X107593087Y-43683795D01*
X107593083Y-43683794D01*
X107588212Y-43682069D01*
X107583119Y-43681162D01*
X107583116Y-43681161D01*
X107373373Y-43643800D01*
X107373367Y-43643799D01*
X107368284Y-43642894D01*
X107294452Y-43641992D01*
X107150081Y-43640228D01*
X107150079Y-43640228D01*
X107144911Y-43640165D01*
X106924091Y-43673955D01*
X106711756Y-43743357D01*
X106513607Y-43846507D01*
X106509474Y-43849610D01*
X106509471Y-43849612D01*
X106339100Y-43977530D01*
X106334965Y-43980635D01*
X106180629Y-44142138D01*
X106073201Y-44299621D01*
X106018293Y-44344621D01*
X105947768Y-44352792D01*
X105884021Y-44321538D01*
X105863324Y-44297054D01*
X105782822Y-44172617D01*
X105782820Y-44172614D01*
X105780014Y-44168277D01*
X105629670Y-44003051D01*
X105625619Y-43999852D01*
X105625615Y-43999848D01*
X105458414Y-43867800D01*
X105458410Y-43867798D01*
X105454359Y-43864598D01*
X105258789Y-43756638D01*
X105253920Y-43754914D01*
X105253916Y-43754912D01*
X105053087Y-43683795D01*
X105053083Y-43683794D01*
X105048212Y-43682069D01*
X105043119Y-43681162D01*
X105043116Y-43681161D01*
X104833373Y-43643800D01*
X104833367Y-43643799D01*
X104828284Y-43642894D01*
X104754452Y-43641992D01*
X104610081Y-43640228D01*
X104610079Y-43640228D01*
X104604911Y-43640165D01*
X104384091Y-43673955D01*
X104171756Y-43743357D01*
X103973607Y-43846507D01*
X103969474Y-43849610D01*
X103969471Y-43849612D01*
X103799100Y-43977530D01*
X103794965Y-43980635D01*
X103640629Y-44142138D01*
X103533201Y-44299621D01*
X103478293Y-44344621D01*
X103407768Y-44352792D01*
X103344021Y-44321538D01*
X103323324Y-44297054D01*
X103242822Y-44172617D01*
X103242820Y-44172614D01*
X103240014Y-44168277D01*
X103089670Y-44003051D01*
X103085619Y-43999852D01*
X103085615Y-43999848D01*
X102918414Y-43867800D01*
X102918410Y-43867798D01*
X102914359Y-43864598D01*
X102718789Y-43756638D01*
X102713920Y-43754914D01*
X102713916Y-43754912D01*
X102513087Y-43683795D01*
X102513083Y-43683794D01*
X102508212Y-43682069D01*
X102503119Y-43681162D01*
X102503116Y-43681161D01*
X102293373Y-43643800D01*
X102293367Y-43643799D01*
X102288284Y-43642894D01*
X102214452Y-43641992D01*
X102070081Y-43640228D01*
X102070079Y-43640228D01*
X102064911Y-43640165D01*
X101844091Y-43673955D01*
X101631756Y-43743357D01*
X101433607Y-43846507D01*
X101429474Y-43849610D01*
X101429471Y-43849612D01*
X101259100Y-43977530D01*
X101254965Y-43980635D01*
X101100629Y-44142138D01*
X100993201Y-44299621D01*
X100938293Y-44344621D01*
X100867768Y-44352792D01*
X100804021Y-44321538D01*
X100783324Y-44297054D01*
X100702822Y-44172617D01*
X100702820Y-44172614D01*
X100700014Y-44168277D01*
X100549670Y-44003051D01*
X100545619Y-43999852D01*
X100545615Y-43999848D01*
X100378414Y-43867800D01*
X100378410Y-43867798D01*
X100374359Y-43864598D01*
X100178789Y-43756638D01*
X100173920Y-43754914D01*
X100173916Y-43754912D01*
X99973087Y-43683795D01*
X99973083Y-43683794D01*
X99968212Y-43682069D01*
X99963119Y-43681162D01*
X99963116Y-43681161D01*
X99753373Y-43643800D01*
X99753367Y-43643799D01*
X99748284Y-43642894D01*
X99674452Y-43641992D01*
X99530081Y-43640228D01*
X99530079Y-43640228D01*
X99524911Y-43640165D01*
X99304091Y-43673955D01*
X99091756Y-43743357D01*
X98893607Y-43846507D01*
X98889474Y-43849610D01*
X98889471Y-43849612D01*
X98719100Y-43977530D01*
X98714965Y-43980635D01*
X98560629Y-44142138D01*
X98453201Y-44299621D01*
X98398293Y-44344621D01*
X98327768Y-44352792D01*
X98264021Y-44321538D01*
X98243324Y-44297054D01*
X98162822Y-44172617D01*
X98162820Y-44172614D01*
X98160014Y-44168277D01*
X98009670Y-44003051D01*
X98005619Y-43999852D01*
X98005615Y-43999848D01*
X97838414Y-43867800D01*
X97838410Y-43867798D01*
X97834359Y-43864598D01*
X97638789Y-43756638D01*
X97633920Y-43754914D01*
X97633916Y-43754912D01*
X97433087Y-43683795D01*
X97433083Y-43683794D01*
X97428212Y-43682069D01*
X97423119Y-43681162D01*
X97423116Y-43681161D01*
X97213373Y-43643800D01*
X97213367Y-43643799D01*
X97208284Y-43642894D01*
X97134452Y-43641992D01*
X96990081Y-43640228D01*
X96990079Y-43640228D01*
X96984911Y-43640165D01*
X96764091Y-43673955D01*
X96551756Y-43743357D01*
X96353607Y-43846507D01*
X96349474Y-43849610D01*
X96349471Y-43849612D01*
X96179100Y-43977530D01*
X96174965Y-43980635D01*
X96020629Y-44142138D01*
X95894743Y-44326680D01*
X95800688Y-44529305D01*
X95740989Y-44744570D01*
X95717251Y-44966695D01*
X93358500Y-44966695D01*
X93358500Y-44101866D01*
X93351745Y-44039684D01*
X93300615Y-43903295D01*
X93213261Y-43786739D01*
X93096705Y-43699385D01*
X92960316Y-43648255D01*
X92898134Y-43641500D01*
X91101866Y-43641500D01*
X91039684Y-43648255D01*
X90903295Y-43699385D01*
X90786739Y-43786739D01*
X90699385Y-43903295D01*
X90648255Y-44039684D01*
X90641500Y-44101866D01*
X90641500Y-45898134D01*
X76008000Y-45898134D01*
X76008000Y-35634000D01*
X76028002Y-35565879D01*
X76081658Y-35519386D01*
X76134000Y-35508000D01*
X170866000Y-35508000D01*
X170934121Y-35528002D01*
G37*
G04 #@! TD.AperFunction*
M02*
