G04 #@! TF.GenerationSoftware,KiCad,Pcbnew,7.0.2*
G04 #@! TF.CreationDate,2023-06-06T15:17:54-04:00*
G04 #@! TF.ProjectId,TopExternalFaceRev1,546f7045-7874-4657-926e-616c46616365,rev?*
G04 #@! TF.SameCoordinates,Original*
G04 #@! TF.FileFunction,Copper,L2,Inr*
G04 #@! TF.FilePolarity,Positive*
%FSLAX46Y46*%
G04 Gerber Fmt 4.6, Leading zero omitted, Abs format (unit mm)*
G04 Created by KiCad (PCBNEW 7.0.2) date 2023-06-06 15:17:54*
%MOMM*%
%LPD*%
G01*
G04 APERTURE LIST*
G04 #@! TA.AperFunction,ViaPad*
%ADD10C,0.600000*%
G04 #@! TD*
G04 #@! TA.AperFunction,ViaPad*
%ADD11C,0.400000*%
G04 #@! TD*
G04 #@! TA.AperFunction,ViaPad*
%ADD12C,0.500000*%
G04 #@! TD*
G04 #@! TA.AperFunction,Conductor*
%ADD13C,0.400000*%
G04 #@! TD*
G04 #@! TA.AperFunction,Conductor*
%ADD14C,0.100400*%
G04 #@! TD*
G04 #@! TA.AperFunction,Conductor*
%ADD15C,0.200000*%
G04 #@! TD*
G04 APERTURE END LIST*
D10*
X131200000Y-107700000D03*
X144500000Y-127600000D03*
X118700000Y-109100000D03*
X109600000Y-115400000D03*
X122500000Y-122300000D03*
X122500000Y-127900000D03*
X114200000Y-103000000D03*
X147000000Y-147000000D03*
X128100000Y-127900000D03*
X147000000Y-103000000D03*
X148900000Y-108900000D03*
X103000000Y-147000000D03*
X113500000Y-147000000D03*
X103000000Y-103000000D03*
X146000000Y-122200000D03*
X144300000Y-109200000D03*
X143800000Y-118200000D03*
D11*
X139800000Y-105700000D03*
D12*
X141000000Y-125200000D03*
D10*
X124000000Y-109400000D03*
D11*
X141800000Y-110400000D03*
X137000000Y-104800000D03*
D12*
X109700000Y-110100000D03*
D11*
X140700000Y-114800000D03*
D10*
X128000000Y-122300000D03*
D11*
X141100000Y-114200000D03*
X132650000Y-109100000D03*
X134000000Y-109000000D03*
X137800000Y-105000000D03*
X128200000Y-109300000D03*
D12*
X108800000Y-110800000D03*
X141200000Y-112900000D03*
X108900000Y-113700000D03*
D11*
X130350000Y-107050000D03*
D12*
X126100000Y-109400000D03*
D11*
X136100000Y-104800000D03*
D12*
X109700000Y-110800000D03*
D11*
X137900000Y-109000000D03*
D12*
X142400000Y-119300000D03*
D13*
X143700000Y-105600000D02*
X139900000Y-105600000D01*
X139900000Y-105600000D02*
X139800000Y-105700000D01*
X146300000Y-109400000D02*
X146300000Y-108200000D01*
X146300000Y-119900000D02*
X141000000Y-125200000D01*
X146300000Y-108200000D02*
X143700000Y-105600000D01*
X146300000Y-109400000D02*
X146300000Y-119900000D01*
D14*
X110500800Y-110300400D02*
X110500800Y-139899600D01*
X138697400Y-111903400D02*
X112103800Y-111903400D01*
X110300400Y-110100000D02*
X110300400Y-140100000D01*
X111101900Y-139298500D02*
X139498900Y-139298500D01*
X138296600Y-138096200D02*
X138296600Y-112304200D01*
X114308000Y-114107600D02*
X114308000Y-136092400D01*
X111502700Y-138897700D02*
X139098100Y-138897700D01*
X129680400Y-129480000D02*
X129680400Y-120920400D01*
X135491300Y-115109400D02*
X115309800Y-115109400D01*
X140300400Y-110300400D02*
X110500800Y-110300400D01*
X138897800Y-138697400D02*
X138897800Y-111703000D01*
X113706800Y-136693600D02*
X136894000Y-136693600D01*
X119918500Y-119718100D02*
X119918500Y-130481900D01*
X139699300Y-139498900D02*
X139699300Y-110901500D01*
X114708700Y-114508300D02*
X114708700Y-135691700D01*
X118115100Y-132285300D02*
X132485700Y-132285300D01*
X118916600Y-118716200D02*
X118916600Y-131483800D01*
X139298500Y-111302300D02*
X111502700Y-111302300D01*
X134890200Y-134689800D02*
X134890200Y-115710600D01*
X134289100Y-116311700D02*
X116512100Y-116311700D01*
X128878900Y-128678500D02*
X128878900Y-121721900D01*
X139298500Y-139098100D02*
X139298500Y-111302300D01*
X131483800Y-131283400D02*
X131483800Y-119117000D01*
X120319300Y-120118900D02*
X120319300Y-130081100D01*
X138296600Y-112304200D02*
X112504600Y-112304200D01*
X117514000Y-117313600D02*
X117514000Y-132886400D01*
X118315500Y-132084900D02*
X132285300Y-132084900D01*
X139899600Y-139699200D02*
X139899600Y-110701100D01*
X116512100Y-116311700D02*
X116512100Y-133888300D01*
X139699300Y-110901500D02*
X111101900Y-110901500D01*
X115109500Y-135290900D02*
X135491300Y-135290900D01*
X113105700Y-112905300D02*
X113105700Y-137294700D01*
X139498900Y-111101900D02*
X111302300Y-111101900D01*
X136092500Y-114508300D02*
X114708700Y-114508300D01*
X111703000Y-138697400D02*
X138897800Y-138697400D01*
X115309800Y-115109400D02*
X115309800Y-135090600D01*
X138497000Y-138296600D02*
X138497000Y-112103800D01*
X121721900Y-128678500D02*
X128878900Y-128678500D01*
X129880800Y-129680400D02*
X129880800Y-120720000D01*
X130682300Y-130481900D02*
X130682300Y-119918500D01*
X114107600Y-136292800D02*
X136493200Y-136292800D01*
X139098100Y-138897700D02*
X139098100Y-111502600D01*
X116311700Y-134088700D02*
X134289100Y-134088700D01*
X113907200Y-136493200D02*
X136693600Y-136493200D01*
X116712500Y-133687900D02*
X133888300Y-133687900D01*
X118115100Y-117914700D02*
X118115100Y-132285300D01*
X121120800Y-129279600D02*
X129480000Y-129279600D01*
X113105700Y-137294700D02*
X137495100Y-137294700D01*
X129880800Y-120720000D02*
X120920400Y-120720000D01*
X132686000Y-117914700D02*
X118115100Y-117914700D01*
X132485700Y-118115100D02*
X118315500Y-118115100D01*
X120720000Y-129680400D02*
X129880800Y-129680400D01*
X138697400Y-138497000D02*
X138697400Y-111903400D01*
X132485700Y-132285300D02*
X132485700Y-118115100D01*
X116912900Y-116712500D02*
X116912900Y-133487500D01*
X131684200Y-118916600D02*
X119117000Y-118916600D01*
X114909100Y-135491300D02*
X135691700Y-135491300D01*
X115710600Y-115510200D02*
X115710600Y-134689800D01*
X114508300Y-114307900D02*
X114508300Y-135892100D01*
X136693600Y-113907200D02*
X114107600Y-113907200D01*
X131684200Y-131483800D02*
X131684200Y-118916600D01*
X118716300Y-131684100D02*
X131884500Y-131684100D01*
X119718200Y-130682200D02*
X130882600Y-130682200D01*
X137895900Y-112704900D02*
X112905300Y-112704900D01*
X137895900Y-137695500D02*
X137895900Y-112704900D01*
X138096200Y-112504500D02*
X112704900Y-112504500D01*
X136292800Y-114307900D02*
X114508300Y-114307900D01*
X138096200Y-137895800D02*
X138096200Y-112504500D01*
X132886400Y-117714400D02*
X117914800Y-117714400D01*
X130481900Y-120118900D02*
X120319300Y-120118900D01*
X137294700Y-137094300D02*
X137294700Y-113306000D01*
X137094400Y-136894000D02*
X137094400Y-113506400D01*
X119517800Y-130882600D02*
X131083000Y-130882600D01*
X112504600Y-112304200D02*
X112504600Y-137895800D01*
X136493200Y-114107600D02*
X114308000Y-114107600D01*
X128678500Y-128478100D02*
X128678500Y-121922300D01*
X132285300Y-132084900D02*
X132285300Y-118315500D01*
X110300400Y-140100000D02*
X140300400Y-140100000D01*
X121521600Y-121321200D02*
X121521600Y-128878800D01*
X120319300Y-130081100D02*
X130281500Y-130081100D01*
X131083000Y-130882600D02*
X131083000Y-119517800D01*
X134088700Y-116512100D02*
X116712500Y-116512100D01*
X121321200Y-121120800D02*
X121321200Y-129079200D01*
X116111400Y-115911000D02*
X116111400Y-134289000D01*
X117313600Y-133086800D02*
X133287200Y-133086800D01*
X111903400Y-111703000D02*
X111903400Y-138497000D01*
X131884500Y-118716200D02*
X118916600Y-118716200D01*
X138497000Y-112103800D02*
X112304200Y-112103800D01*
X120519700Y-120319300D02*
X120519700Y-129880700D01*
X115911000Y-115710600D02*
X115911000Y-134489400D01*
X115109500Y-114909100D02*
X115109500Y-135290900D01*
X131884500Y-131684100D02*
X131884500Y-118716200D01*
X133086800Y-117514000D02*
X117714400Y-117514000D01*
X132084900Y-118515900D02*
X118716300Y-118515900D01*
X110701200Y-110500800D02*
X110701200Y-139699200D01*
X118315500Y-118115100D02*
X118315500Y-132084900D01*
X120118900Y-130281500D02*
X130481900Y-130281500D01*
X128377700Y-121922300D02*
X128000000Y-122300000D01*
X110901500Y-110701100D02*
X110901500Y-139498900D01*
X136292800Y-136092400D02*
X136292800Y-114307900D01*
X117714400Y-117514000D02*
X117714400Y-132686000D01*
X116512100Y-133888300D02*
X134088700Y-133888300D01*
X137495100Y-113105700D02*
X113306100Y-113105700D01*
X113506400Y-136894000D02*
X137094400Y-136894000D01*
X112905300Y-137495100D02*
X137695500Y-137495100D01*
X110500800Y-139899600D02*
X140100000Y-139899600D01*
X134489400Y-116111300D02*
X116311700Y-116111300D01*
X130081100Y-120519600D02*
X120720000Y-120519600D01*
X113306100Y-113105700D02*
X113306100Y-137094300D01*
X118515900Y-131884500D02*
X132084900Y-131884500D01*
X115510200Y-134890200D02*
X135090600Y-134890200D01*
X117914800Y-132485600D02*
X132686000Y-132485600D01*
X131283400Y-119317400D02*
X119517800Y-119317400D01*
X110701200Y-139699200D02*
X139899600Y-139699200D01*
X133086800Y-132886400D02*
X133086800Y-117514000D01*
X130682300Y-119918500D02*
X120118900Y-119918500D01*
X135491300Y-135290900D02*
X135491300Y-115109400D01*
X121721900Y-121521500D02*
X121721900Y-128678500D01*
X136493200Y-136292800D02*
X136493200Y-114107600D01*
X120720000Y-120519600D02*
X120720000Y-129680400D01*
X116111400Y-134289000D02*
X134489400Y-134289000D01*
X129079200Y-128878800D02*
X129079200Y-121521500D01*
X114107600Y-113907200D02*
X114107600Y-136292800D01*
X137294700Y-113306000D02*
X113506400Y-113306000D01*
X140100000Y-139899600D02*
X140100000Y-110500800D01*
X115710600Y-134689800D02*
X134890200Y-134689800D01*
X130281500Y-130081100D02*
X130281500Y-120319300D01*
X112504600Y-137895800D02*
X138096200Y-137895800D01*
X130882600Y-130682200D02*
X130882600Y-119718100D01*
X133487600Y-117113200D02*
X117313600Y-117113200D01*
X132686000Y-132485600D02*
X132686000Y-117914700D01*
X117914800Y-117714400D02*
X117914800Y-132485600D01*
X137495100Y-137294700D02*
X137495100Y-113105700D01*
X119317400Y-131083000D02*
X131283400Y-131083000D01*
X140500800Y-110100000D02*
X140600000Y-110199200D01*
X117514000Y-132886400D02*
X133086800Y-132886400D01*
X115309800Y-135090600D02*
X135291000Y-135090600D01*
X111903400Y-138497000D02*
X138697400Y-138497000D01*
X131483800Y-119117000D02*
X119317400Y-119117000D01*
X131283400Y-131083000D02*
X131283400Y-119317400D01*
X135892100Y-135691700D02*
X135892100Y-114708700D01*
X133287200Y-133086800D02*
X133287200Y-117313600D01*
X128678500Y-121922300D02*
X128377700Y-121922300D01*
X121922300Y-121721900D02*
X121922300Y-128478100D01*
X116912900Y-133487500D02*
X133687900Y-133487500D01*
X135090600Y-115510200D02*
X115710600Y-115510200D01*
X118515900Y-118315500D02*
X118515900Y-131884500D01*
X121321200Y-129079200D02*
X129279600Y-129079200D01*
X132285300Y-118315500D02*
X118515900Y-118315500D01*
X135892100Y-114708700D02*
X114909100Y-114708700D01*
X130081100Y-129880700D02*
X130081100Y-120519600D01*
X117113200Y-116912800D02*
X117113200Y-133287200D01*
X120118900Y-119918500D02*
X120118900Y-130281500D01*
X137695500Y-112905300D02*
X113105700Y-112905300D01*
X111703000Y-111502600D02*
X111703000Y-138697400D01*
X121922300Y-128478100D02*
X128678500Y-128478100D01*
X140600000Y-113700000D02*
X141100000Y-114200000D01*
X117113200Y-133287200D02*
X133487600Y-133287200D01*
X136894000Y-136693600D02*
X136894000Y-113706800D01*
X120920400Y-129480000D02*
X129680400Y-129480000D01*
X136894000Y-113706800D02*
X113907200Y-113706800D01*
X140300400Y-140100000D02*
X140300400Y-110300400D01*
X111101900Y-110901500D02*
X111101900Y-139298500D01*
X133687900Y-133487500D02*
X133687900Y-116912800D01*
X120920400Y-120720000D02*
X120920400Y-129480000D01*
X134890200Y-115710600D02*
X115911000Y-115710600D01*
X121120800Y-120920400D02*
X121120800Y-129279600D01*
X119517800Y-119317400D02*
X119517800Y-130882600D01*
X110901500Y-139498900D02*
X139699300Y-139498900D01*
X128878900Y-121721900D02*
X121922300Y-121721900D01*
X118916600Y-131483800D02*
X131684200Y-131483800D01*
X134489400Y-134289000D02*
X134489400Y-116111300D01*
X119117000Y-118916600D02*
X119117000Y-131283400D01*
X117714400Y-132686000D02*
X132886400Y-132686000D01*
X118716300Y-118515900D02*
X118716300Y-131684100D01*
X140500800Y-110100000D02*
X110300400Y-110100000D01*
X117313600Y-117113200D02*
X117313600Y-133086800D01*
X119718200Y-119517800D02*
X119718200Y-130682200D01*
X136092500Y-135892100D02*
X136092500Y-114508300D01*
X133487600Y-133287200D02*
X133487600Y-117113200D01*
X131083000Y-119517800D02*
X119718200Y-119517800D01*
X115510200Y-115309800D02*
X115510200Y-134890200D01*
X134689800Y-115911000D02*
X116111400Y-115911000D01*
X113506400Y-113306000D02*
X113506400Y-136894000D01*
X129279600Y-129079200D02*
X129279600Y-121321200D01*
X129480000Y-121120800D02*
X121321200Y-121120800D01*
X133888300Y-133687900D02*
X133888300Y-116712500D01*
X119117000Y-131283400D02*
X131483800Y-131283400D01*
X112704900Y-112504500D02*
X112704900Y-137695500D01*
X136693600Y-136493200D02*
X136693600Y-113907200D01*
X112304200Y-112103800D02*
X112304200Y-138096200D01*
X133287200Y-117313600D02*
X117514000Y-117313600D01*
X119918500Y-130481900D02*
X130682300Y-130481900D01*
X132084900Y-131884500D02*
X132084900Y-118515900D01*
X130481900Y-130281500D02*
X130481900Y-120118900D01*
X134088700Y-133888300D02*
X134088700Y-116512100D01*
X135291000Y-115309800D02*
X115510200Y-115309800D01*
X120519700Y-129880700D02*
X130081100Y-129880700D01*
X137695500Y-137495100D02*
X137695500Y-112905300D01*
X133888300Y-116712500D02*
X116912900Y-116712500D01*
X140100000Y-110500800D02*
X110701200Y-110500800D01*
X135691700Y-135491300D02*
X135691700Y-114909100D01*
X140600000Y-110199200D02*
X140600000Y-113700000D01*
X139498900Y-139298500D02*
X139498900Y-111101900D01*
X111302300Y-111101900D02*
X111302300Y-139098100D01*
X112103800Y-111903400D02*
X112103800Y-138296600D01*
X112304200Y-138096200D02*
X138296600Y-138096200D01*
X138897800Y-111703000D02*
X111903400Y-111703000D01*
X133687900Y-116912800D02*
X117113200Y-116912800D01*
X112905300Y-112704900D02*
X112905300Y-137495100D01*
X114708700Y-135691700D02*
X135892100Y-135691700D01*
X129279600Y-121321200D02*
X121521600Y-121321200D01*
X135291000Y-135090600D02*
X135291000Y-115309800D01*
X130882600Y-119718100D02*
X119918500Y-119718100D01*
X111502700Y-111302300D02*
X111502700Y-138897700D01*
X112103800Y-138296600D02*
X138497000Y-138296600D01*
X139098100Y-111502600D02*
X111703000Y-111502600D01*
X134289100Y-134088700D02*
X134289100Y-116311700D01*
X135691700Y-114909100D02*
X115109500Y-114909100D01*
X114508300Y-135892100D02*
X136092500Y-135892100D01*
X132886400Y-132686000D02*
X132886400Y-117714400D01*
X112704900Y-137695500D02*
X137895900Y-137695500D01*
X129079200Y-121521500D02*
X121721900Y-121521500D01*
X111302300Y-139098100D02*
X139298500Y-139098100D01*
X116311700Y-116111300D02*
X116311700Y-134088700D01*
X114308000Y-136092400D02*
X136292800Y-136092400D01*
X114909100Y-114708700D02*
X114909100Y-135491300D01*
X130281500Y-120319300D02*
X120519700Y-120319300D01*
X113907200Y-113706800D02*
X113907200Y-136493200D01*
X139899600Y-110701100D02*
X110901500Y-110701100D01*
X113306100Y-137094300D02*
X137294700Y-137094300D01*
X134689800Y-134489400D02*
X134689800Y-115911000D01*
X121521600Y-128878800D02*
X129079200Y-128878800D01*
X116712500Y-116512100D02*
X116712500Y-133687900D01*
X119317400Y-119117000D02*
X119317400Y-131083000D01*
X129480000Y-129279600D02*
X129480000Y-121120800D01*
X129680400Y-120920400D02*
X121120800Y-120920400D01*
X113706800Y-113506400D02*
X113706800Y-136693600D01*
X137094400Y-113506400D02*
X113706800Y-113506400D01*
X135090600Y-134890200D02*
X135090600Y-115510200D01*
X115911000Y-134489400D02*
X134689800Y-134489400D01*
D15*
X138600000Y-109700000D02*
X140600000Y-109700000D01*
X141200000Y-112000000D02*
X142400000Y-113200000D01*
X142400000Y-113200000D02*
X142400000Y-119300000D01*
X140600000Y-109700000D02*
X141200000Y-110300000D01*
X137900000Y-109000000D02*
X138600000Y-109700000D01*
X141200000Y-110300000D02*
X141200000Y-112000000D01*
G04 #@! TA.AperFunction,Conductor*
G36*
X127503440Y-121991507D02*
G01*
X127539404Y-122041007D01*
X127539404Y-122102193D01*
X127535302Y-122112727D01*
X127514834Y-122157544D01*
X127494352Y-122300000D01*
X127514834Y-122442455D01*
X127514835Y-122442457D01*
X127574623Y-122573373D01*
X127668872Y-122682143D01*
X127668874Y-122682145D01*
X127735059Y-122724679D01*
X127789947Y-122759953D01*
X127928039Y-122800500D01*
X128071961Y-122800500D01*
X128210053Y-122759953D01*
X128275278Y-122718035D01*
X128334451Y-122702481D01*
X128391468Y-122724679D01*
X128424547Y-122776152D01*
X128427800Y-122801320D01*
X128427800Y-128128400D01*
X128408893Y-128186591D01*
X128359393Y-128222555D01*
X128328800Y-128227400D01*
X122272000Y-128227400D01*
X122213809Y-128208493D01*
X122177845Y-128158993D01*
X122173000Y-128128400D01*
X122173000Y-122071600D01*
X122191907Y-122013409D01*
X122241407Y-121977445D01*
X122272000Y-121972600D01*
X127445249Y-121972600D01*
X127503440Y-121991507D01*
G37*
G04 #@! TD.AperFunction*
G04 #@! TA.AperFunction,Conductor*
G36*
X149933691Y-100044407D02*
G01*
X149969655Y-100093907D01*
X149974500Y-100124500D01*
X149974500Y-149875500D01*
X149955593Y-149933691D01*
X149906093Y-149969655D01*
X149875500Y-149974500D01*
X100124500Y-149974500D01*
X100066309Y-149955593D01*
X100030345Y-149906093D01*
X100025500Y-149875500D01*
X100025500Y-147569182D01*
X116474499Y-147569182D01*
X116488869Y-147622810D01*
X116510312Y-147702836D01*
X116579495Y-147822665D01*
X116677335Y-147920505D01*
X116797164Y-147989688D01*
X116930817Y-148025500D01*
X116930818Y-148025500D01*
X133069182Y-148025500D01*
X133069183Y-148025500D01*
X133202836Y-147989688D01*
X133322665Y-147920505D01*
X133420505Y-147822665D01*
X133489688Y-147702836D01*
X133525500Y-147569183D01*
X133525500Y-147430817D01*
X133489688Y-147297164D01*
X133420505Y-147177335D01*
X133322665Y-147079495D01*
X133202836Y-147010312D01*
X133069183Y-146974500D01*
X133005072Y-146974500D01*
X125005072Y-146974500D01*
X117008285Y-146974500D01*
X117000000Y-146974500D01*
X116930817Y-146974500D01*
X116797163Y-147010311D01*
X116797164Y-147010312D01*
X116677336Y-147079494D01*
X116579494Y-147177336D01*
X116510312Y-147297164D01*
X116474499Y-147430817D01*
X116474499Y-147569182D01*
X100025500Y-147569182D01*
X100025500Y-142000000D01*
X106219520Y-142000000D01*
X106239406Y-142265364D01*
X106298622Y-142524803D01*
X106298623Y-142524805D01*
X106395844Y-142772521D01*
X106510692Y-142971445D01*
X106528900Y-143002981D01*
X106694817Y-143211034D01*
X106842721Y-143348268D01*
X106889890Y-143392035D01*
X107109761Y-143541940D01*
X107349518Y-143657401D01*
X107603806Y-143735839D01*
X107603807Y-143735839D01*
X107603810Y-143735840D01*
X107866943Y-143775500D01*
X107866945Y-143775500D01*
X108133057Y-143775500D01*
X108396189Y-143735840D01*
X108396190Y-143735839D01*
X108396194Y-143735839D01*
X108650482Y-143657401D01*
X108890240Y-143541940D01*
X109110110Y-143392035D01*
X109305183Y-143211033D01*
X109471101Y-143002980D01*
X109604156Y-142772521D01*
X109701377Y-142524805D01*
X109760593Y-142265367D01*
X109780479Y-142000000D01*
X109780479Y-141999999D01*
X140219520Y-141999999D01*
X140239406Y-142265364D01*
X140298622Y-142524803D01*
X140298623Y-142524805D01*
X140395844Y-142772521D01*
X140510692Y-142971445D01*
X140528900Y-143002981D01*
X140694817Y-143211034D01*
X140842721Y-143348268D01*
X140889890Y-143392035D01*
X141109761Y-143541940D01*
X141349518Y-143657401D01*
X141603806Y-143735839D01*
X141603807Y-143735839D01*
X141603810Y-143735840D01*
X141866943Y-143775500D01*
X141866945Y-143775500D01*
X142133057Y-143775500D01*
X142396189Y-143735840D01*
X142396190Y-143735839D01*
X142396194Y-143735839D01*
X142650482Y-143657401D01*
X142890240Y-143541940D01*
X143110110Y-143392035D01*
X143305183Y-143211033D01*
X143471101Y-143002980D01*
X143604156Y-142772521D01*
X143701377Y-142524805D01*
X143760593Y-142265367D01*
X143780479Y-142000000D01*
X143760593Y-141734633D01*
X143701377Y-141475195D01*
X143604156Y-141227479D01*
X143471101Y-140997020D01*
X143335547Y-140827042D01*
X143305182Y-140788965D01*
X143110113Y-140607968D01*
X143110110Y-140607965D01*
X142890240Y-140458060D01*
X142650482Y-140342599D01*
X142534620Y-140306860D01*
X142396189Y-140264159D01*
X142133057Y-140224500D01*
X142133055Y-140224500D01*
X141866945Y-140224500D01*
X141866943Y-140224500D01*
X141603810Y-140264159D01*
X141349515Y-140342600D01*
X141109764Y-140458058D01*
X140889886Y-140607968D01*
X140694817Y-140788965D01*
X140528900Y-140997018D01*
X140395844Y-141227478D01*
X140298622Y-141475196D01*
X140239406Y-141734635D01*
X140219520Y-141999999D01*
X109780479Y-141999999D01*
X109760593Y-141734633D01*
X109701377Y-141475195D01*
X109604156Y-141227479D01*
X109471101Y-140997020D01*
X109335547Y-140827042D01*
X109305182Y-140788965D01*
X109110113Y-140607968D01*
X109110110Y-140607965D01*
X108890240Y-140458060D01*
X108650482Y-140342599D01*
X108534620Y-140306860D01*
X108396189Y-140264159D01*
X108133057Y-140224500D01*
X108133055Y-140224500D01*
X107866945Y-140224500D01*
X107866943Y-140224500D01*
X107603810Y-140264159D01*
X107349515Y-140342600D01*
X107109764Y-140458058D01*
X106889886Y-140607968D01*
X106694817Y-140788965D01*
X106528900Y-140997018D01*
X106395844Y-141227478D01*
X106298622Y-141475196D01*
X106239406Y-141734635D01*
X106219520Y-142000000D01*
X100025500Y-142000000D01*
X100025500Y-117035922D01*
X101974498Y-117035922D01*
X101974499Y-117035935D01*
X101974499Y-125014616D01*
X101974500Y-125014621D01*
X101974500Y-132991714D01*
X101974500Y-132991715D01*
X101974500Y-133000000D01*
X101974500Y-133069183D01*
X102010312Y-133202836D01*
X102079495Y-133322665D01*
X102177335Y-133420505D01*
X102297164Y-133489688D01*
X102430817Y-133525500D01*
X102430818Y-133525500D01*
X102569182Y-133525500D01*
X102569183Y-133525500D01*
X102702836Y-133489688D01*
X102822665Y-133420505D01*
X102920505Y-133322665D01*
X102989688Y-133202836D01*
X103025500Y-133069183D01*
X103025500Y-133000000D01*
X103025500Y-132991715D01*
X103025500Y-124994928D01*
X103025500Y-116994928D01*
X103025500Y-116930817D01*
X102989688Y-116797164D01*
X102920505Y-116677335D01*
X102822665Y-116579495D01*
X102702836Y-116510312D01*
X102569183Y-116474500D01*
X102430817Y-116474500D01*
X102297163Y-116510311D01*
X102297164Y-116510312D01*
X102177336Y-116579494D01*
X102079494Y-116677336D01*
X102010312Y-116797164D01*
X101974499Y-116930818D01*
X101974498Y-117035922D01*
X100025500Y-117035922D01*
X100025500Y-113699999D01*
X108444866Y-113699999D01*
X108463302Y-113828227D01*
X108517116Y-113946062D01*
X108568744Y-114005644D01*
X108601951Y-114043967D01*
X108710931Y-114114004D01*
X108835228Y-114150500D01*
X108964772Y-114150500D01*
X109089069Y-114114004D01*
X109198049Y-114043967D01*
X109282882Y-113946063D01*
X109282881Y-113946063D01*
X109282883Y-113946062D01*
X109336697Y-113828227D01*
X109355133Y-113699999D01*
X109336697Y-113571772D01*
X109282883Y-113453937D01*
X109198050Y-113356034D01*
X109198049Y-113356033D01*
X109143559Y-113321014D01*
X109089068Y-113285995D01*
X108964772Y-113249500D01*
X108835228Y-113249500D01*
X108710931Y-113285995D01*
X108601949Y-113356034D01*
X108517116Y-113453937D01*
X108463302Y-113571772D01*
X108444866Y-113699999D01*
X100025500Y-113699999D01*
X100025500Y-110800000D01*
X108344866Y-110800000D01*
X108363302Y-110928227D01*
X108417116Y-111046062D01*
X108450299Y-111084357D01*
X108501951Y-111143967D01*
X108610931Y-111214004D01*
X108735228Y-111250500D01*
X108864772Y-111250500D01*
X108989069Y-111214004D01*
X109098049Y-111143967D01*
X109175180Y-111054951D01*
X109227575Y-111023355D01*
X109288536Y-111028590D01*
X109324818Y-111054951D01*
X109401949Y-111143965D01*
X109401951Y-111143967D01*
X109510931Y-111214004D01*
X109635228Y-111250500D01*
X109764772Y-111250500D01*
X109889069Y-111214004D01*
X109897175Y-111208794D01*
X109956348Y-111193238D01*
X110013365Y-111215435D01*
X110046447Y-111266906D01*
X110049700Y-111292077D01*
X110049700Y-140065554D01*
X110047798Y-140084866D01*
X110044788Y-140099998D01*
X110064245Y-140197818D01*
X110119654Y-140280745D01*
X110175064Y-140317768D01*
X110202582Y-140336155D01*
X110234978Y-140342599D01*
X110300400Y-140355612D01*
X110315532Y-140352602D01*
X110334845Y-140350700D01*
X140265955Y-140350700D01*
X140285267Y-140352602D01*
X140300400Y-140355612D01*
X140356513Y-140344450D01*
X140365823Y-140342599D01*
X140371197Y-140341529D01*
X140398218Y-140336155D01*
X140481145Y-140280745D01*
X140536555Y-140197818D01*
X140556012Y-140100000D01*
X140553002Y-140084866D01*
X140551100Y-140065554D01*
X140551100Y-133069183D01*
X146974500Y-133069183D01*
X147010312Y-133202836D01*
X147079495Y-133322665D01*
X147177335Y-133420505D01*
X147297164Y-133489688D01*
X147430817Y-133525500D01*
X147430818Y-133525500D01*
X147569182Y-133525500D01*
X147569183Y-133525500D01*
X147702836Y-133489688D01*
X147822665Y-133420505D01*
X147920505Y-133322665D01*
X147989688Y-133202836D01*
X148025500Y-133069183D01*
X148025500Y-133000000D01*
X148025500Y-132991715D01*
X148025500Y-124994928D01*
X148025500Y-124994927D01*
X148025500Y-116994928D01*
X148025500Y-116930817D01*
X147989688Y-116797164D01*
X147920505Y-116677335D01*
X147822665Y-116579495D01*
X147702836Y-116510312D01*
X147569183Y-116474500D01*
X147430817Y-116474500D01*
X147297163Y-116510311D01*
X147297164Y-116510312D01*
X147177336Y-116579494D01*
X147177335Y-116579495D01*
X147079495Y-116677335D01*
X147010312Y-116797164D01*
X146974500Y-116930817D01*
X146974500Y-116994928D01*
X146974500Y-124994927D01*
X146974500Y-124994928D01*
X146974500Y-132991714D01*
X146974500Y-132991715D01*
X146974500Y-133000000D01*
X146974500Y-133069183D01*
X140551100Y-133069183D01*
X140551100Y-125628325D01*
X140570007Y-125570134D01*
X140619507Y-125534170D01*
X140680693Y-125534170D01*
X140703617Y-125545037D01*
X140810931Y-125614004D01*
X140935228Y-125650500D01*
X141064772Y-125650500D01*
X141189069Y-125614004D01*
X141298049Y-125543967D01*
X141382882Y-125446063D01*
X141428042Y-125347175D01*
X141448087Y-125318304D01*
X146605484Y-120160909D01*
X146605484Y-120160908D01*
X146616844Y-120149549D01*
X146616848Y-120149543D01*
X146628050Y-120138342D01*
X146639002Y-120116846D01*
X146647117Y-120103605D01*
X146661296Y-120084090D01*
X146668749Y-120061146D01*
X146674695Y-120046794D01*
X146685646Y-120025304D01*
X146689421Y-120001462D01*
X146693043Y-119986382D01*
X146700500Y-119963433D01*
X146700500Y-119836567D01*
X146700500Y-119836566D01*
X146700500Y-109368481D01*
X146700500Y-108168481D01*
X146700500Y-108161452D01*
X146700499Y-108161438D01*
X146700499Y-108136566D01*
X146693047Y-108113633D01*
X146689419Y-108098523D01*
X146685646Y-108074696D01*
X146674696Y-108053205D01*
X146668750Y-108038853D01*
X146661296Y-108015910D01*
X146661294Y-108015907D01*
X146647119Y-107996397D01*
X146639000Y-107983148D01*
X146628051Y-107961659D01*
X146538342Y-107871949D01*
X143938342Y-105271949D01*
X143916850Y-105260998D01*
X143903610Y-105252885D01*
X143884090Y-105238704D01*
X143861141Y-105231247D01*
X143846796Y-105225305D01*
X143825304Y-105214354D01*
X143825303Y-105214353D01*
X143825302Y-105214353D01*
X143801474Y-105210579D01*
X143786373Y-105206953D01*
X143763433Y-105199500D01*
X143731519Y-105199500D01*
X139868481Y-105199500D01*
X139860294Y-105199500D01*
X139860282Y-105199501D01*
X139836566Y-105199501D01*
X139813626Y-105206954D01*
X139798523Y-105210580D01*
X139774693Y-105214354D01*
X139753198Y-105225306D01*
X139738852Y-105231249D01*
X139715908Y-105238704D01*
X139696393Y-105252883D01*
X139683149Y-105260999D01*
X139661660Y-105271948D01*
X139661657Y-105271950D01*
X139661658Y-105271950D01*
X139639092Y-105294516D01*
X139639091Y-105294517D01*
X139494516Y-105439091D01*
X139494513Y-105439094D01*
X139494501Y-105439104D01*
X139471949Y-105461658D01*
X139460997Y-105483151D01*
X139452887Y-105496386D01*
X139438704Y-105515908D01*
X139431249Y-105538853D01*
X139425305Y-105553200D01*
X139414352Y-105574695D01*
X139410577Y-105598528D01*
X139406953Y-105613624D01*
X139399500Y-105636565D01*
X139399500Y-105660690D01*
X139398281Y-105676177D01*
X139394508Y-105699999D01*
X139398281Y-105723820D01*
X139399500Y-105739308D01*
X139399500Y-105763433D01*
X139406953Y-105786373D01*
X139410579Y-105801474D01*
X139414353Y-105825303D01*
X139414354Y-105825304D01*
X139425304Y-105846794D01*
X139431247Y-105861142D01*
X139438703Y-105884090D01*
X139452882Y-105903605D01*
X139460999Y-105916851D01*
X139471949Y-105938341D01*
X139489008Y-105955401D01*
X139499094Y-105967211D01*
X139513270Y-105986722D01*
X139513272Y-105986723D01*
X139513274Y-105986726D01*
X139532791Y-106000906D01*
X139544595Y-106010988D01*
X139554538Y-106020930D01*
X139561658Y-106028050D01*
X139583150Y-106039000D01*
X139596392Y-106047116D01*
X139615907Y-106061295D01*
X139615909Y-106061295D01*
X139615910Y-106061296D01*
X139638851Y-106068749D01*
X139653202Y-106074694D01*
X139674695Y-106085646D01*
X139682739Y-106086920D01*
X139698517Y-106089418D01*
X139713622Y-106093045D01*
X139736566Y-106100500D01*
X139736567Y-106100500D01*
X139760690Y-106100500D01*
X139776177Y-106101719D01*
X139800000Y-106105492D01*
X139823823Y-106101719D01*
X139839310Y-106100500D01*
X139863432Y-106100500D01*
X139863433Y-106100500D01*
X139886382Y-106093043D01*
X139901462Y-106089421D01*
X139925304Y-106085646D01*
X139946798Y-106074693D01*
X139961146Y-106068749D01*
X139984090Y-106061296D01*
X140003606Y-106047115D01*
X140016846Y-106039002D01*
X140038342Y-106028050D01*
X140038342Y-106028049D01*
X140052316Y-106020930D01*
X140052603Y-106021493D01*
X140091407Y-106001720D01*
X140106899Y-106000500D01*
X143493099Y-106000500D01*
X143551290Y-106019407D01*
X143563103Y-106029496D01*
X145870504Y-108336896D01*
X145898281Y-108391413D01*
X145899500Y-108406900D01*
X145899500Y-119693098D01*
X145880593Y-119751289D01*
X145870504Y-119763102D01*
X140880723Y-124752882D01*
X140838611Y-124777868D01*
X140810929Y-124785996D01*
X140703623Y-124854958D01*
X140644448Y-124870513D01*
X140587432Y-124848314D01*
X140554352Y-124796842D01*
X140551100Y-124771674D01*
X140551100Y-115297822D01*
X140570007Y-115239631D01*
X140619507Y-115203667D01*
X140665584Y-115200041D01*
X140700000Y-115205492D01*
X140825304Y-115185646D01*
X140938342Y-115128050D01*
X141028050Y-115038342D01*
X141085646Y-114925304D01*
X141105492Y-114800000D01*
X141090791Y-114707182D01*
X141100362Y-114646752D01*
X141143627Y-114603488D01*
X141173083Y-114593916D01*
X141225304Y-114585646D01*
X141338342Y-114528050D01*
X141428050Y-114438342D01*
X141485646Y-114325304D01*
X141505492Y-114200000D01*
X141485646Y-114074696D01*
X141428050Y-113961658D01*
X141338342Y-113871950D01*
X141225304Y-113814354D01*
X141225303Y-113814353D01*
X141225302Y-113814353D01*
X141084514Y-113792055D01*
X141084799Y-113790250D01*
X141045398Y-113784006D01*
X141020349Y-113765805D01*
X140879696Y-113625152D01*
X140851919Y-113570635D01*
X140850700Y-113555148D01*
X140850700Y-113392335D01*
X140869607Y-113334144D01*
X140919107Y-113298180D01*
X140980293Y-113298180D01*
X141003223Y-113309050D01*
X141010931Y-113314004D01*
X141135228Y-113350500D01*
X141264772Y-113350500D01*
X141389069Y-113314004D01*
X141498049Y-113243967D01*
X141560273Y-113172156D01*
X141582881Y-113146065D01*
X141590214Y-113130008D01*
X141629681Y-113043587D01*
X141671053Y-112998510D01*
X141731020Y-112986359D01*
X141786676Y-113011777D01*
X141789739Y-113014710D01*
X142070504Y-113295475D01*
X142098281Y-113349992D01*
X142099500Y-113365479D01*
X142099500Y-118921936D01*
X142080593Y-118980127D01*
X142075320Y-118986767D01*
X142017115Y-119053939D01*
X141963302Y-119171772D01*
X141944866Y-119300000D01*
X141963302Y-119428227D01*
X142017116Y-119546062D01*
X142101949Y-119643965D01*
X142101951Y-119643967D01*
X142210931Y-119714004D01*
X142335228Y-119750500D01*
X142464772Y-119750500D01*
X142589069Y-119714004D01*
X142698049Y-119643967D01*
X142782882Y-119546063D01*
X142782881Y-119546063D01*
X142782883Y-119546062D01*
X142836697Y-119428227D01*
X142855133Y-119300000D01*
X142836697Y-119171772D01*
X142782884Y-119053939D01*
X142724680Y-118986767D01*
X142700863Y-118930407D01*
X142700500Y-118921936D01*
X142700500Y-118200000D01*
X143294352Y-118200000D01*
X143314834Y-118342455D01*
X143314835Y-118342457D01*
X143374623Y-118473373D01*
X143468872Y-118582143D01*
X143468874Y-118582145D01*
X143589945Y-118659952D01*
X143589947Y-118659953D01*
X143728039Y-118700500D01*
X143871961Y-118700500D01*
X144010053Y-118659953D01*
X144131128Y-118582143D01*
X144225377Y-118473373D01*
X144285165Y-118342457D01*
X144305647Y-118200000D01*
X144285165Y-118057543D01*
X144225377Y-117926627D01*
X144131128Y-117817857D01*
X144131127Y-117817856D01*
X144131125Y-117817854D01*
X144010054Y-117740047D01*
X143871961Y-117699500D01*
X143728039Y-117699500D01*
X143589945Y-117740047D01*
X143468874Y-117817854D01*
X143374622Y-117926628D01*
X143314834Y-118057544D01*
X143294352Y-118200000D01*
X142700500Y-118200000D01*
X142700500Y-113265166D01*
X142703097Y-113249246D01*
X142700606Y-113195357D01*
X142700500Y-113190785D01*
X142700500Y-113172156D01*
X142700480Y-113172050D01*
X142698898Y-113158430D01*
X142697585Y-113130008D01*
X142693612Y-113121012D01*
X142686866Y-113099223D01*
X142685061Y-113089567D01*
X142670088Y-113065384D01*
X142663696Y-113053257D01*
X142659427Y-113043588D01*
X142652206Y-113027235D01*
X142652205Y-113027234D01*
X142652205Y-113027233D01*
X142645256Y-113020284D01*
X142631090Y-113002399D01*
X142625919Y-112994048D01*
X142603221Y-112976907D01*
X142592879Y-112967908D01*
X141529496Y-111904524D01*
X141501719Y-111850007D01*
X141500500Y-111834520D01*
X141500500Y-110858441D01*
X141519407Y-110800250D01*
X141568907Y-110764286D01*
X141630093Y-110764286D01*
X141644437Y-110770228D01*
X141674696Y-110785646D01*
X141799999Y-110805492D01*
X141799999Y-110805491D01*
X141800000Y-110805492D01*
X141925304Y-110785646D01*
X142038342Y-110728050D01*
X142128050Y-110638342D01*
X142185646Y-110525304D01*
X142205492Y-110400000D01*
X142185646Y-110274696D01*
X142128050Y-110161658D01*
X142038342Y-110071950D01*
X141925304Y-110014354D01*
X141925303Y-110014353D01*
X141925302Y-110014353D01*
X141800000Y-109994507D01*
X141674697Y-110014353D01*
X141561656Y-110071951D01*
X141551580Y-110082027D01*
X141497063Y-110109804D01*
X141436631Y-110100231D01*
X141421917Y-110091025D01*
X141403222Y-110076907D01*
X141392879Y-110067908D01*
X141053336Y-109728365D01*
X141025559Y-109673848D01*
X141035130Y-109613416D01*
X141078395Y-109570151D01*
X141138827Y-109560580D01*
X141166292Y-109569164D01*
X141349518Y-109657401D01*
X141603806Y-109735839D01*
X141603807Y-109735839D01*
X141603810Y-109735840D01*
X141866943Y-109775500D01*
X141866945Y-109775500D01*
X142133057Y-109775500D01*
X142396189Y-109735840D01*
X142396190Y-109735839D01*
X142396194Y-109735839D01*
X142650482Y-109657401D01*
X142890240Y-109541940D01*
X143110110Y-109392035D01*
X143305183Y-109211033D01*
X143471101Y-109002980D01*
X143604156Y-108772521D01*
X143701377Y-108524805D01*
X143760593Y-108265367D01*
X143780479Y-108000000D01*
X143760593Y-107734633D01*
X143701377Y-107475195D01*
X143604156Y-107227479D01*
X143471101Y-106997020D01*
X143335547Y-106827042D01*
X143305182Y-106788965D01*
X143110113Y-106607968D01*
X143110110Y-106607965D01*
X142890240Y-106458060D01*
X142650482Y-106342599D01*
X142534620Y-106306860D01*
X142396189Y-106264159D01*
X142133057Y-106224500D01*
X142133055Y-106224500D01*
X141866945Y-106224500D01*
X141866943Y-106224500D01*
X141603810Y-106264159D01*
X141349515Y-106342600D01*
X141109764Y-106458058D01*
X140889886Y-106607968D01*
X140694817Y-106788965D01*
X140528900Y-106997018D01*
X140395844Y-107227478D01*
X140298622Y-107475196D01*
X140239406Y-107734635D01*
X140219520Y-108000000D01*
X140239406Y-108265364D01*
X140298622Y-108524803D01*
X140356373Y-108671950D01*
X140395844Y-108772521D01*
X140528899Y-109002980D01*
X140626448Y-109125302D01*
X140694817Y-109211033D01*
X140712799Y-109227718D01*
X140742596Y-109281158D01*
X140735292Y-109341905D01*
X140693676Y-109386758D01*
X140633644Y-109398583D01*
X140622797Y-109396661D01*
X140614121Y-109394620D01*
X140585947Y-109398551D01*
X140572269Y-109399500D01*
X138765480Y-109399500D01*
X138707289Y-109380593D01*
X138695476Y-109370504D01*
X138324570Y-108999598D01*
X138296794Y-108945083D01*
X138285646Y-108874696D01*
X138228050Y-108761658D01*
X138138342Y-108671950D01*
X138025304Y-108614354D01*
X138025303Y-108614353D01*
X138025302Y-108614353D01*
X137900000Y-108594507D01*
X137774697Y-108614353D01*
X137661659Y-108671949D01*
X137571949Y-108761659D01*
X137514353Y-108874697D01*
X137494507Y-109000000D01*
X137514353Y-109125302D01*
X137514353Y-109125303D01*
X137514354Y-109125304D01*
X137571950Y-109238342D01*
X137661658Y-109328050D01*
X137774696Y-109385646D01*
X137845082Y-109396793D01*
X137899598Y-109424570D01*
X137899599Y-109424570D01*
X138155325Y-109680296D01*
X138183102Y-109734813D01*
X138173531Y-109795245D01*
X138130266Y-109838510D01*
X138085321Y-109849300D01*
X128416479Y-109849300D01*
X128358288Y-109830393D01*
X128322324Y-109780893D01*
X128322324Y-109719707D01*
X128358288Y-109670207D01*
X128371528Y-109662093D01*
X128438342Y-109628050D01*
X128528050Y-109538342D01*
X128585646Y-109425304D01*
X128605492Y-109300000D01*
X128585646Y-109174696D01*
X128547586Y-109100000D01*
X132244507Y-109100000D01*
X132264353Y-109225302D01*
X132264353Y-109225303D01*
X132264354Y-109225304D01*
X132321950Y-109338342D01*
X132411658Y-109428050D01*
X132524696Y-109485646D01*
X132650000Y-109505492D01*
X132775304Y-109485646D01*
X132888342Y-109428050D01*
X132978050Y-109338342D01*
X133035646Y-109225304D01*
X133055492Y-109100000D01*
X133039654Y-109000000D01*
X133594507Y-109000000D01*
X133614353Y-109125302D01*
X133614353Y-109125303D01*
X133614354Y-109125304D01*
X133671950Y-109238342D01*
X133761658Y-109328050D01*
X133874696Y-109385646D01*
X134000000Y-109405492D01*
X134125304Y-109385646D01*
X134238342Y-109328050D01*
X134328050Y-109238342D01*
X134385646Y-109125304D01*
X134405492Y-109000000D01*
X134385646Y-108874696D01*
X134328050Y-108761658D01*
X134238342Y-108671950D01*
X134125304Y-108614354D01*
X134125303Y-108614353D01*
X134125302Y-108614353D01*
X134000000Y-108594507D01*
X133874697Y-108614353D01*
X133761659Y-108671949D01*
X133671949Y-108761659D01*
X133614353Y-108874697D01*
X133594507Y-109000000D01*
X133039654Y-109000000D01*
X133035646Y-108974696D01*
X132978050Y-108861658D01*
X132888342Y-108771950D01*
X132775304Y-108714354D01*
X132775303Y-108714353D01*
X132775302Y-108714353D01*
X132649999Y-108694507D01*
X132524697Y-108714353D01*
X132411659Y-108771949D01*
X132321949Y-108861659D01*
X132264353Y-108974697D01*
X132244507Y-109100000D01*
X128547586Y-109100000D01*
X128528050Y-109061658D01*
X128438342Y-108971950D01*
X128325304Y-108914354D01*
X128325303Y-108914353D01*
X128325302Y-108914353D01*
X128200000Y-108894507D01*
X128074697Y-108914353D01*
X127961659Y-108971949D01*
X127871949Y-109061659D01*
X127814353Y-109174697D01*
X127794507Y-109300000D01*
X127814353Y-109425302D01*
X127814353Y-109425303D01*
X127814354Y-109425304D01*
X127871950Y-109538342D01*
X127961658Y-109628050D01*
X128028467Y-109662091D01*
X128071731Y-109705355D01*
X128081302Y-109765787D01*
X128053525Y-109820304D01*
X127999008Y-109848081D01*
X127983521Y-109849300D01*
X126523557Y-109849300D01*
X126465366Y-109830393D01*
X126429402Y-109780893D01*
X126429402Y-109719707D01*
X126448737Y-109685469D01*
X126453219Y-109680296D01*
X126482882Y-109646063D01*
X126482882Y-109646061D01*
X126482884Y-109646060D01*
X126536697Y-109528227D01*
X126555133Y-109399999D01*
X126536697Y-109271772D01*
X126482883Y-109153937D01*
X126398050Y-109056034D01*
X126398049Y-109056033D01*
X126338641Y-109017854D01*
X126289068Y-108985995D01*
X126164772Y-108949500D01*
X126035228Y-108949500D01*
X125910931Y-108985995D01*
X125801949Y-109056034D01*
X125717116Y-109153937D01*
X125663302Y-109271772D01*
X125644866Y-109400000D01*
X125663302Y-109528227D01*
X125717115Y-109646060D01*
X125751263Y-109685469D01*
X125775080Y-109741829D01*
X125761221Y-109801424D01*
X125714980Y-109841491D01*
X125676443Y-109849300D01*
X124489715Y-109849300D01*
X124431524Y-109830393D01*
X124395560Y-109780893D01*
X124395560Y-109719707D01*
X124414893Y-109685471D01*
X124425377Y-109673373D01*
X124485165Y-109542457D01*
X124505647Y-109400000D01*
X124504873Y-109394620D01*
X124485165Y-109257544D01*
X124470442Y-109225304D01*
X124425377Y-109126627D01*
X124331128Y-109017857D01*
X124331127Y-109017856D01*
X124331125Y-109017854D01*
X124210054Y-108940047D01*
X124071961Y-108899500D01*
X123928039Y-108899500D01*
X123789945Y-108940047D01*
X123668874Y-109017854D01*
X123574622Y-109126628D01*
X123514834Y-109257544D01*
X123494352Y-109399999D01*
X123514834Y-109542455D01*
X123527483Y-109570151D01*
X123574623Y-109673373D01*
X123585105Y-109685470D01*
X123608922Y-109741829D01*
X123595063Y-109801424D01*
X123548822Y-109841491D01*
X123510285Y-109849300D01*
X110334845Y-109849300D01*
X110315533Y-109847398D01*
X110312277Y-109846750D01*
X110300400Y-109844388D01*
X110300399Y-109844388D01*
X110275704Y-109849300D01*
X110192112Y-109865927D01*
X110145940Y-109878947D01*
X110088538Y-109857767D01*
X110075013Y-109844855D01*
X109998050Y-109756034D01*
X109998049Y-109756033D01*
X109943559Y-109721014D01*
X109889068Y-109685995D01*
X109764772Y-109649500D01*
X109635228Y-109649500D01*
X109510931Y-109685995D01*
X109401949Y-109756034D01*
X109317116Y-109853937D01*
X109263302Y-109971772D01*
X109244866Y-110100000D01*
X109263302Y-110228227D01*
X109317115Y-110346060D01*
X109351002Y-110385168D01*
X109374819Y-110441528D01*
X109360960Y-110501123D01*
X109351002Y-110514829D01*
X109324819Y-110545047D01*
X109272424Y-110576644D01*
X109211463Y-110571409D01*
X109175181Y-110545049D01*
X109098049Y-110456033D01*
X109010860Y-110400000D01*
X108989068Y-110385995D01*
X108864772Y-110349500D01*
X108735228Y-110349500D01*
X108610931Y-110385995D01*
X108501949Y-110456034D01*
X108417116Y-110553937D01*
X108363302Y-110671772D01*
X108344866Y-110800000D01*
X100025500Y-110800000D01*
X100025500Y-108000000D01*
X106219520Y-108000000D01*
X106239406Y-108265364D01*
X106298622Y-108524803D01*
X106356373Y-108671950D01*
X106395844Y-108772521D01*
X106526946Y-108999598D01*
X106528900Y-109002981D01*
X106694817Y-109211034D01*
X106770393Y-109281158D01*
X106889890Y-109392035D01*
X107109761Y-109541940D01*
X107349518Y-109657401D01*
X107603806Y-109735839D01*
X107603807Y-109735839D01*
X107603810Y-109735840D01*
X107866943Y-109775500D01*
X107866945Y-109775500D01*
X108133057Y-109775500D01*
X108396189Y-109735840D01*
X108396190Y-109735839D01*
X108396194Y-109735839D01*
X108650482Y-109657401D01*
X108890240Y-109541940D01*
X109110110Y-109392035D01*
X109305183Y-109211033D01*
X109471101Y-109002980D01*
X109604156Y-108772521D01*
X109701377Y-108524805D01*
X109760593Y-108265367D01*
X109780479Y-108000000D01*
X109760593Y-107734633D01*
X109701377Y-107475195D01*
X109604156Y-107227479D01*
X109501689Y-107050000D01*
X129944507Y-107050000D01*
X129964353Y-107175302D01*
X129964353Y-107175303D01*
X129964354Y-107175304D01*
X130021950Y-107288342D01*
X130111658Y-107378050D01*
X130224696Y-107435646D01*
X130287347Y-107445568D01*
X130349999Y-107455492D01*
X130349999Y-107455491D01*
X130350000Y-107455492D01*
X130475304Y-107435646D01*
X130588342Y-107378050D01*
X130678050Y-107288342D01*
X130735646Y-107175304D01*
X130755492Y-107050000D01*
X130735646Y-106924696D01*
X130678050Y-106811658D01*
X130588342Y-106721950D01*
X130475304Y-106664354D01*
X130475303Y-106664353D01*
X130475302Y-106664353D01*
X130350000Y-106644507D01*
X130224697Y-106664353D01*
X130111659Y-106721949D01*
X130021949Y-106811659D01*
X129964353Y-106924697D01*
X129944507Y-107050000D01*
X109501689Y-107050000D01*
X109471101Y-106997020D01*
X109335547Y-106827042D01*
X109305182Y-106788965D01*
X109110113Y-106607968D01*
X109110110Y-106607965D01*
X108890240Y-106458060D01*
X108650482Y-106342599D01*
X108534620Y-106306860D01*
X108396189Y-106264159D01*
X108133057Y-106224500D01*
X108133055Y-106224500D01*
X107866945Y-106224500D01*
X107866943Y-106224500D01*
X107603810Y-106264159D01*
X107349515Y-106342600D01*
X107109764Y-106458058D01*
X106889886Y-106607968D01*
X106694817Y-106788965D01*
X106528900Y-106997018D01*
X106395844Y-107227478D01*
X106298622Y-107475196D01*
X106239406Y-107734635D01*
X106219520Y-108000000D01*
X100025500Y-108000000D01*
X100025500Y-104800000D01*
X135694507Y-104800000D01*
X135714353Y-104925302D01*
X135714353Y-104925303D01*
X135714354Y-104925304D01*
X135771950Y-105038342D01*
X135861658Y-105128050D01*
X135974696Y-105185646D01*
X136037348Y-105195568D01*
X136099999Y-105205492D01*
X136099999Y-105205491D01*
X136100000Y-105205492D01*
X136225304Y-105185646D01*
X136338342Y-105128050D01*
X136428050Y-105038342D01*
X136461791Y-104972120D01*
X136505055Y-104928858D01*
X136565487Y-104919286D01*
X136620003Y-104947063D01*
X136638206Y-104972117D01*
X136671950Y-105038342D01*
X136761658Y-105128050D01*
X136874696Y-105185646D01*
X136937347Y-105195568D01*
X136999999Y-105205492D01*
X136999999Y-105205491D01*
X137000000Y-105205492D01*
X137125304Y-105185646D01*
X137238342Y-105128050D01*
X137259518Y-105106873D01*
X137314032Y-105079096D01*
X137374465Y-105088667D01*
X137417730Y-105131931D01*
X137471948Y-105238339D01*
X137471950Y-105238342D01*
X137561658Y-105328050D01*
X137674696Y-105385646D01*
X137800000Y-105405492D01*
X137925304Y-105385646D01*
X138038342Y-105328050D01*
X138128050Y-105238342D01*
X138185646Y-105125304D01*
X138205492Y-105000000D01*
X138185646Y-104874696D01*
X138128050Y-104761658D01*
X138038342Y-104671950D01*
X137925304Y-104614354D01*
X137925303Y-104614353D01*
X137925302Y-104614353D01*
X137800000Y-104594507D01*
X137674697Y-104614353D01*
X137561656Y-104671951D01*
X137540480Y-104693127D01*
X137485963Y-104720903D01*
X137425532Y-104711331D01*
X137382268Y-104668067D01*
X137354900Y-104614354D01*
X137328050Y-104561658D01*
X137238342Y-104471950D01*
X137125304Y-104414354D01*
X137125303Y-104414353D01*
X137125302Y-104414353D01*
X137000000Y-104394507D01*
X136874697Y-104414353D01*
X136761659Y-104471949D01*
X136671949Y-104561659D01*
X136655212Y-104594508D01*
X136645101Y-104614353D01*
X136638210Y-104627877D01*
X136594945Y-104671142D01*
X136534513Y-104680713D01*
X136479996Y-104652935D01*
X136461790Y-104627877D01*
X136454900Y-104614354D01*
X136428050Y-104561658D01*
X136338342Y-104471950D01*
X136225304Y-104414354D01*
X136225303Y-104414353D01*
X136225302Y-104414353D01*
X136100000Y-104394507D01*
X135974697Y-104414353D01*
X135861659Y-104471949D01*
X135771949Y-104561659D01*
X135714353Y-104674697D01*
X135694507Y-104800000D01*
X100025500Y-104800000D01*
X100025500Y-102569182D01*
X116474499Y-102569182D01*
X116488869Y-102622810D01*
X116510312Y-102702836D01*
X116579495Y-102822665D01*
X116677335Y-102920505D01*
X116797164Y-102989688D01*
X116930817Y-103025500D01*
X116930818Y-103025500D01*
X133069182Y-103025500D01*
X133069183Y-103025500D01*
X133202836Y-102989688D01*
X133322665Y-102920505D01*
X133420505Y-102822665D01*
X133489688Y-102702836D01*
X133525500Y-102569183D01*
X133525500Y-102430817D01*
X133489688Y-102297164D01*
X133420505Y-102177335D01*
X133322665Y-102079495D01*
X133202836Y-102010312D01*
X133069183Y-101974500D01*
X133005072Y-101974500D01*
X125005072Y-101974500D01*
X117008285Y-101974500D01*
X117000000Y-101974500D01*
X116930817Y-101974500D01*
X116797164Y-102010311D01*
X116797164Y-102010312D01*
X116677336Y-102079494D01*
X116579494Y-102177336D01*
X116510312Y-102297164D01*
X116474499Y-102430817D01*
X116474499Y-102569182D01*
X100025500Y-102569182D01*
X100025500Y-100124500D01*
X100044407Y-100066309D01*
X100093907Y-100030345D01*
X100124500Y-100025500D01*
X149875500Y-100025500D01*
X149933691Y-100044407D01*
G37*
G04 #@! TD.AperFunction*
M02*
