M48
; DRILL file {KiCad 7.0.2} date Tue Jun  6 15:18:01 2023
; FORMAT={-:-/ absolute / metric / decimal}
; #@! TF.CreationDate,2023-06-06T15:18:01-04:00
; #@! TF.GenerationSoftware,Kicad,Pcbnew,7.0.2
; #@! TF.FileFunction,Plated,1,4,PTH
FMAT,2
METRIC
; #@! TA.AperFunction,Plated,PTH,ViaDrill
T1C0.200
; #@! TA.AperFunction,Plated,PTH,ViaDrill
T2C0.300
%
G90
G05
T1
X128.2Y-109.3
X130.35Y-107.05
X132.65Y-109.1
X134.0Y-109.0
X136.1Y-104.8
X137.0Y-104.8
X137.8Y-105.0
X137.9Y-109.0
X139.8Y-105.7
X140.7Y-114.8
X141.1Y-114.2
X141.8Y-110.4
T2
X103.0Y-103.0
X103.0Y-147.0
X108.8Y-110.8
X108.9Y-113.7
X109.6Y-115.4
X109.7Y-110.1
X109.7Y-110.8
X113.5Y-147.0
X114.2Y-103.0
X118.7Y-109.1
X122.5Y-122.3
X122.5Y-127.9
X124.0Y-109.4
X126.1Y-109.4
X128.0Y-122.3
X128.1Y-127.9
X131.2Y-107.7
X141.0Y-125.2
X141.2Y-112.9
X142.4Y-119.3
X143.8Y-118.2
X144.3Y-109.2
X144.5Y-127.6
X146.0Y-122.2
X147.0Y-103.0
X147.0Y-147.0
X148.9Y-108.9
T0
M30
