G04 #@! TF.GenerationSoftware,KiCad,Pcbnew,7.0.2*
G04 #@! TF.CreationDate,2023-06-06T15:17:54-04:00*
G04 #@! TF.ProjectId,TopExternalFaceRev1,546f7045-7874-4657-926e-616c46616365,rev?*
G04 #@! TF.SameCoordinates,Original*
G04 #@! TF.FileFunction,Legend,Top*
G04 #@! TF.FilePolarity,Positive*
%FSLAX46Y46*%
G04 Gerber Fmt 4.6, Leading zero omitted, Abs format (unit mm)*
G04 Created by KiCad (PCBNEW 7.0.2) date 2023-06-06 15:17:54*
%MOMM*%
%LPD*%
G01*
G04 APERTURE LIST*
G04 Aperture macros list*
%AMRoundRect*
0 Rectangle with rounded corners*
0 $1 Rounding radius*
0 $2 $3 $4 $5 $6 $7 $8 $9 X,Y pos of 4 corners*
0 Add a 4 corners polygon primitive as box body*
4,1,4,$2,$3,$4,$5,$6,$7,$8,$9,$2,$3,0*
0 Add four circle primitives for the rounded corners*
1,1,$1+$1,$2,$3*
1,1,$1+$1,$4,$5*
1,1,$1+$1,$6,$7*
1,1,$1+$1,$8,$9*
0 Add four rect primitives between the rounded corners*
20,1,$1+$1,$2,$3,$4,$5,0*
20,1,$1+$1,$4,$5,$6,$7,0*
20,1,$1+$1,$6,$7,$8,$9,0*
20,1,$1+$1,$8,$9,$2,$3,0*%
G04 Aperture macros list end*
%ADD10C,0.150000*%
%ADD11C,0.254000*%
%ADD12C,0.120000*%
%ADD13C,0.200000*%
%ADD14C,0.250000*%
%ADD15C,3.500000*%
%ADD16R,1.000000X1.000000*%
%ADD17RoundRect,0.140000X-0.170000X0.140000X-0.170000X-0.140000X0.170000X-0.140000X0.170000X0.140000X0*%
%ADD18RoundRect,0.140000X0.170000X-0.140000X0.170000X0.140000X-0.170000X0.140000X-0.170000X-0.140000X0*%
%ADD19R,0.620000X0.300000*%
%ADD20RoundRect,0.660750X0.660750X2.839250X-0.660750X2.839250X-0.660750X-2.839250X0.660750X-2.839250X0*%
%ADD21RoundRect,0.660750X-0.660750X-2.839250X0.660750X-2.839250X0.660750X2.839250X-0.660750X2.839250X0*%
%ADD22R,0.600000X0.350000*%
%ADD23R,1.100000X1.700000*%
G04 APERTURE END LIST*
D10*
X122000000Y-121800000D02*
X128600000Y-121800000D01*
X128600000Y-128400000D01*
X122000000Y-128400000D01*
X122000000Y-121800000D01*
X128600000Y-121800000D02*
X122000000Y-128400000D01*
X122000000Y-121800000D02*
X128600000Y-128400000D01*
X131690476Y-103972857D02*
X131738095Y-103925238D01*
X131738095Y-103925238D02*
X131833333Y-103877619D01*
X131833333Y-103877619D02*
X132071428Y-103877619D01*
X132071428Y-103877619D02*
X132166666Y-103925238D01*
X132166666Y-103925238D02*
X132214285Y-103972857D01*
X132214285Y-103972857D02*
X132261904Y-104068095D01*
X132261904Y-104068095D02*
X132261904Y-104163333D01*
X132261904Y-104163333D02*
X132214285Y-104306190D01*
X132214285Y-104306190D02*
X131642857Y-104877619D01*
X131642857Y-104877619D02*
X132261904Y-104877619D01*
X133928571Y-104877619D02*
X133452381Y-104877619D01*
X133452381Y-104877619D02*
X133452381Y-103877619D01*
X134690476Y-104877619D02*
X134690476Y-104353809D01*
X134690476Y-104353809D02*
X134642857Y-104258571D01*
X134642857Y-104258571D02*
X134547619Y-104210952D01*
X134547619Y-104210952D02*
X134357143Y-104210952D01*
X134357143Y-104210952D02*
X134261905Y-104258571D01*
X134690476Y-104830000D02*
X134595238Y-104877619D01*
X134595238Y-104877619D02*
X134357143Y-104877619D01*
X134357143Y-104877619D02*
X134261905Y-104830000D01*
X134261905Y-104830000D02*
X134214286Y-104734761D01*
X134214286Y-104734761D02*
X134214286Y-104639523D01*
X134214286Y-104639523D02*
X134261905Y-104544285D01*
X134261905Y-104544285D02*
X134357143Y-104496666D01*
X134357143Y-104496666D02*
X134595238Y-104496666D01*
X134595238Y-104496666D02*
X134690476Y-104449047D01*
X135071429Y-104210952D02*
X135309524Y-104877619D01*
X135547619Y-104210952D02*
X135309524Y-104877619D01*
X135309524Y-104877619D02*
X135214286Y-105115714D01*
X135214286Y-105115714D02*
X135166667Y-105163333D01*
X135166667Y-105163333D02*
X135071429Y-105210952D01*
X136309524Y-104830000D02*
X136214286Y-104877619D01*
X136214286Y-104877619D02*
X136023810Y-104877619D01*
X136023810Y-104877619D02*
X135928572Y-104830000D01*
X135928572Y-104830000D02*
X135880953Y-104734761D01*
X135880953Y-104734761D02*
X135880953Y-104353809D01*
X135880953Y-104353809D02*
X135928572Y-104258571D01*
X135928572Y-104258571D02*
X136023810Y-104210952D01*
X136023810Y-104210952D02*
X136214286Y-104210952D01*
X136214286Y-104210952D02*
X136309524Y-104258571D01*
X136309524Y-104258571D02*
X136357143Y-104353809D01*
X136357143Y-104353809D02*
X136357143Y-104449047D01*
X136357143Y-104449047D02*
X135880953Y-104544285D01*
X136785715Y-104877619D02*
X136785715Y-104210952D01*
X136785715Y-104401428D02*
X136833334Y-104306190D01*
X136833334Y-104306190D02*
X136880953Y-104258571D01*
X136880953Y-104258571D02*
X136976191Y-104210952D01*
X136976191Y-104210952D02*
X137071429Y-104210952D01*
X138642858Y-103877619D02*
X138166668Y-103877619D01*
X138166668Y-103877619D02*
X138119049Y-104353809D01*
X138119049Y-104353809D02*
X138166668Y-104306190D01*
X138166668Y-104306190D02*
X138261906Y-104258571D01*
X138261906Y-104258571D02*
X138500001Y-104258571D01*
X138500001Y-104258571D02*
X138595239Y-104306190D01*
X138595239Y-104306190D02*
X138642858Y-104353809D01*
X138642858Y-104353809D02*
X138690477Y-104449047D01*
X138690477Y-104449047D02*
X138690477Y-104687142D01*
X138690477Y-104687142D02*
X138642858Y-104782380D01*
X138642858Y-104782380D02*
X138595239Y-104830000D01*
X138595239Y-104830000D02*
X138500001Y-104877619D01*
X138500001Y-104877619D02*
X138261906Y-104877619D01*
X138261906Y-104877619D02*
X138166668Y-104830000D01*
X138166668Y-104830000D02*
X138119049Y-104782380D01*
X139309525Y-103877619D02*
X139404763Y-103877619D01*
X139404763Y-103877619D02*
X139500001Y-103925238D01*
X139500001Y-103925238D02*
X139547620Y-103972857D01*
X139547620Y-103972857D02*
X139595239Y-104068095D01*
X139595239Y-104068095D02*
X139642858Y-104258571D01*
X139642858Y-104258571D02*
X139642858Y-104496666D01*
X139642858Y-104496666D02*
X139595239Y-104687142D01*
X139595239Y-104687142D02*
X139547620Y-104782380D01*
X139547620Y-104782380D02*
X139500001Y-104830000D01*
X139500001Y-104830000D02*
X139404763Y-104877619D01*
X139404763Y-104877619D02*
X139309525Y-104877619D01*
X139309525Y-104877619D02*
X139214287Y-104830000D01*
X139214287Y-104830000D02*
X139166668Y-104782380D01*
X139166668Y-104782380D02*
X139119049Y-104687142D01*
X139119049Y-104687142D02*
X139071430Y-104496666D01*
X139071430Y-104496666D02*
X139071430Y-104258571D01*
X139071430Y-104258571D02*
X139119049Y-104068095D01*
X139119049Y-104068095D02*
X139166668Y-103972857D01*
X139166668Y-103972857D02*
X139214287Y-103925238D01*
X139214287Y-103925238D02*
X139309525Y-103877619D01*
X141023811Y-103877619D02*
X141214287Y-103877619D01*
X141214287Y-103877619D02*
X141309525Y-103925238D01*
X141309525Y-103925238D02*
X141404763Y-104020476D01*
X141404763Y-104020476D02*
X141452382Y-104210952D01*
X141452382Y-104210952D02*
X141452382Y-104544285D01*
X141452382Y-104544285D02*
X141404763Y-104734761D01*
X141404763Y-104734761D02*
X141309525Y-104830000D01*
X141309525Y-104830000D02*
X141214287Y-104877619D01*
X141214287Y-104877619D02*
X141023811Y-104877619D01*
X141023811Y-104877619D02*
X140928573Y-104830000D01*
X140928573Y-104830000D02*
X140833335Y-104734761D01*
X140833335Y-104734761D02*
X140785716Y-104544285D01*
X140785716Y-104544285D02*
X140785716Y-104210952D01*
X140785716Y-104210952D02*
X140833335Y-104020476D01*
X140833335Y-104020476D02*
X140928573Y-103925238D01*
X140928573Y-103925238D02*
X141023811Y-103877619D01*
X141880954Y-104877619D02*
X141880954Y-103877619D01*
X142309525Y-104877619D02*
X142309525Y-104353809D01*
X142309525Y-104353809D02*
X142261906Y-104258571D01*
X142261906Y-104258571D02*
X142166668Y-104210952D01*
X142166668Y-104210952D02*
X142023811Y-104210952D01*
X142023811Y-104210952D02*
X141928573Y-104258571D01*
X141928573Y-104258571D02*
X141880954Y-104306190D01*
X142785716Y-104877619D02*
X142785716Y-104210952D01*
X142785716Y-104306190D02*
X142833335Y-104258571D01*
X142833335Y-104258571D02*
X142928573Y-104210952D01*
X142928573Y-104210952D02*
X143071430Y-104210952D01*
X143071430Y-104210952D02*
X143166668Y-104258571D01*
X143166668Y-104258571D02*
X143214287Y-104353809D01*
X143214287Y-104353809D02*
X143214287Y-104877619D01*
X143214287Y-104353809D02*
X143261906Y-104258571D01*
X143261906Y-104258571D02*
X143357144Y-104210952D01*
X143357144Y-104210952D02*
X143500001Y-104210952D01*
X143500001Y-104210952D02*
X143595240Y-104258571D01*
X143595240Y-104258571D02*
X143642859Y-104353809D01*
X143642859Y-104353809D02*
X143642859Y-104877619D01*
X145452382Y-104782380D02*
X145404763Y-104830000D01*
X145404763Y-104830000D02*
X145261906Y-104877619D01*
X145261906Y-104877619D02*
X145166668Y-104877619D01*
X145166668Y-104877619D02*
X145023811Y-104830000D01*
X145023811Y-104830000D02*
X144928573Y-104734761D01*
X144928573Y-104734761D02*
X144880954Y-104639523D01*
X144880954Y-104639523D02*
X144833335Y-104449047D01*
X144833335Y-104449047D02*
X144833335Y-104306190D01*
X144833335Y-104306190D02*
X144880954Y-104115714D01*
X144880954Y-104115714D02*
X144928573Y-104020476D01*
X144928573Y-104020476D02*
X145023811Y-103925238D01*
X145023811Y-103925238D02*
X145166668Y-103877619D01*
X145166668Y-103877619D02*
X145261906Y-103877619D01*
X145261906Y-103877619D02*
X145404763Y-103925238D01*
X145404763Y-103925238D02*
X145452382Y-103972857D01*
X146023811Y-104877619D02*
X145928573Y-104830000D01*
X145928573Y-104830000D02*
X145880954Y-104782380D01*
X145880954Y-104782380D02*
X145833335Y-104687142D01*
X145833335Y-104687142D02*
X145833335Y-104401428D01*
X145833335Y-104401428D02*
X145880954Y-104306190D01*
X145880954Y-104306190D02*
X145928573Y-104258571D01*
X145928573Y-104258571D02*
X146023811Y-104210952D01*
X146023811Y-104210952D02*
X146166668Y-104210952D01*
X146166668Y-104210952D02*
X146261906Y-104258571D01*
X146261906Y-104258571D02*
X146309525Y-104306190D01*
X146309525Y-104306190D02*
X146357144Y-104401428D01*
X146357144Y-104401428D02*
X146357144Y-104687142D01*
X146357144Y-104687142D02*
X146309525Y-104782380D01*
X146309525Y-104782380D02*
X146261906Y-104830000D01*
X146261906Y-104830000D02*
X146166668Y-104877619D01*
X146166668Y-104877619D02*
X146023811Y-104877619D01*
X146785716Y-104877619D02*
X146785716Y-104210952D01*
X146785716Y-103877619D02*
X146738097Y-103925238D01*
X146738097Y-103925238D02*
X146785716Y-103972857D01*
X146785716Y-103972857D02*
X146833335Y-103925238D01*
X146833335Y-103925238D02*
X146785716Y-103877619D01*
X146785716Y-103877619D02*
X146785716Y-103972857D01*
X147404763Y-104877619D02*
X147309525Y-104830000D01*
X147309525Y-104830000D02*
X147261906Y-104734761D01*
X147261906Y-104734761D02*
X147261906Y-103877619D01*
X100595238Y-100577619D02*
X101166666Y-100577619D01*
X100880952Y-101577619D02*
X100880952Y-100577619D01*
X101642857Y-101577619D02*
X101547619Y-101530000D01*
X101547619Y-101530000D02*
X101500000Y-101482380D01*
X101500000Y-101482380D02*
X101452381Y-101387142D01*
X101452381Y-101387142D02*
X101452381Y-101101428D01*
X101452381Y-101101428D02*
X101500000Y-101006190D01*
X101500000Y-101006190D02*
X101547619Y-100958571D01*
X101547619Y-100958571D02*
X101642857Y-100910952D01*
X101642857Y-100910952D02*
X101785714Y-100910952D01*
X101785714Y-100910952D02*
X101880952Y-100958571D01*
X101880952Y-100958571D02*
X101928571Y-101006190D01*
X101928571Y-101006190D02*
X101976190Y-101101428D01*
X101976190Y-101101428D02*
X101976190Y-101387142D01*
X101976190Y-101387142D02*
X101928571Y-101482380D01*
X101928571Y-101482380D02*
X101880952Y-101530000D01*
X101880952Y-101530000D02*
X101785714Y-101577619D01*
X101785714Y-101577619D02*
X101642857Y-101577619D01*
X102404762Y-100910952D02*
X102404762Y-101910952D01*
X102404762Y-100958571D02*
X102500000Y-100910952D01*
X102500000Y-100910952D02*
X102690476Y-100910952D01*
X102690476Y-100910952D02*
X102785714Y-100958571D01*
X102785714Y-100958571D02*
X102833333Y-101006190D01*
X102833333Y-101006190D02*
X102880952Y-101101428D01*
X102880952Y-101101428D02*
X102880952Y-101387142D01*
X102880952Y-101387142D02*
X102833333Y-101482380D01*
X102833333Y-101482380D02*
X102785714Y-101530000D01*
X102785714Y-101530000D02*
X102690476Y-101577619D01*
X102690476Y-101577619D02*
X102500000Y-101577619D01*
X102500000Y-101577619D02*
X102404762Y-101530000D01*
X103309524Y-101053809D02*
X103642857Y-101053809D01*
X103785714Y-101577619D02*
X103309524Y-101577619D01*
X103309524Y-101577619D02*
X103309524Y-100577619D01*
X103309524Y-100577619D02*
X103785714Y-100577619D01*
X104119048Y-101577619D02*
X104642857Y-100910952D01*
X104119048Y-100910952D02*
X104642857Y-101577619D01*
X104880953Y-100910952D02*
X105261905Y-100910952D01*
X105023810Y-100577619D02*
X105023810Y-101434761D01*
X105023810Y-101434761D02*
X105071429Y-101530000D01*
X105071429Y-101530000D02*
X105166667Y-101577619D01*
X105166667Y-101577619D02*
X105261905Y-101577619D01*
X105976191Y-101530000D02*
X105880953Y-101577619D01*
X105880953Y-101577619D02*
X105690477Y-101577619D01*
X105690477Y-101577619D02*
X105595239Y-101530000D01*
X105595239Y-101530000D02*
X105547620Y-101434761D01*
X105547620Y-101434761D02*
X105547620Y-101053809D01*
X105547620Y-101053809D02*
X105595239Y-100958571D01*
X105595239Y-100958571D02*
X105690477Y-100910952D01*
X105690477Y-100910952D02*
X105880953Y-100910952D01*
X105880953Y-100910952D02*
X105976191Y-100958571D01*
X105976191Y-100958571D02*
X106023810Y-101053809D01*
X106023810Y-101053809D02*
X106023810Y-101149047D01*
X106023810Y-101149047D02*
X105547620Y-101244285D01*
X106452382Y-101577619D02*
X106452382Y-100910952D01*
X106452382Y-101101428D02*
X106500001Y-101006190D01*
X106500001Y-101006190D02*
X106547620Y-100958571D01*
X106547620Y-100958571D02*
X106642858Y-100910952D01*
X106642858Y-100910952D02*
X106738096Y-100910952D01*
X107071430Y-100910952D02*
X107071430Y-101577619D01*
X107071430Y-101006190D02*
X107119049Y-100958571D01*
X107119049Y-100958571D02*
X107214287Y-100910952D01*
X107214287Y-100910952D02*
X107357144Y-100910952D01*
X107357144Y-100910952D02*
X107452382Y-100958571D01*
X107452382Y-100958571D02*
X107500001Y-101053809D01*
X107500001Y-101053809D02*
X107500001Y-101577619D01*
X108404763Y-101577619D02*
X108404763Y-101053809D01*
X108404763Y-101053809D02*
X108357144Y-100958571D01*
X108357144Y-100958571D02*
X108261906Y-100910952D01*
X108261906Y-100910952D02*
X108071430Y-100910952D01*
X108071430Y-100910952D02*
X107976192Y-100958571D01*
X108404763Y-101530000D02*
X108309525Y-101577619D01*
X108309525Y-101577619D02*
X108071430Y-101577619D01*
X108071430Y-101577619D02*
X107976192Y-101530000D01*
X107976192Y-101530000D02*
X107928573Y-101434761D01*
X107928573Y-101434761D02*
X107928573Y-101339523D01*
X107928573Y-101339523D02*
X107976192Y-101244285D01*
X107976192Y-101244285D02*
X108071430Y-101196666D01*
X108071430Y-101196666D02*
X108309525Y-101196666D01*
X108309525Y-101196666D02*
X108404763Y-101149047D01*
X109023811Y-101577619D02*
X108928573Y-101530000D01*
X108928573Y-101530000D02*
X108880954Y-101434761D01*
X108880954Y-101434761D02*
X108880954Y-100577619D01*
X109738097Y-101053809D02*
X109404764Y-101053809D01*
X109404764Y-101577619D02*
X109404764Y-100577619D01*
X109404764Y-100577619D02*
X109880954Y-100577619D01*
X110690478Y-101577619D02*
X110690478Y-101053809D01*
X110690478Y-101053809D02*
X110642859Y-100958571D01*
X110642859Y-100958571D02*
X110547621Y-100910952D01*
X110547621Y-100910952D02*
X110357145Y-100910952D01*
X110357145Y-100910952D02*
X110261907Y-100958571D01*
X110690478Y-101530000D02*
X110595240Y-101577619D01*
X110595240Y-101577619D02*
X110357145Y-101577619D01*
X110357145Y-101577619D02*
X110261907Y-101530000D01*
X110261907Y-101530000D02*
X110214288Y-101434761D01*
X110214288Y-101434761D02*
X110214288Y-101339523D01*
X110214288Y-101339523D02*
X110261907Y-101244285D01*
X110261907Y-101244285D02*
X110357145Y-101196666D01*
X110357145Y-101196666D02*
X110595240Y-101196666D01*
X110595240Y-101196666D02*
X110690478Y-101149047D01*
X111595240Y-101530000D02*
X111500002Y-101577619D01*
X111500002Y-101577619D02*
X111309526Y-101577619D01*
X111309526Y-101577619D02*
X111214288Y-101530000D01*
X111214288Y-101530000D02*
X111166669Y-101482380D01*
X111166669Y-101482380D02*
X111119050Y-101387142D01*
X111119050Y-101387142D02*
X111119050Y-101101428D01*
X111119050Y-101101428D02*
X111166669Y-101006190D01*
X111166669Y-101006190D02*
X111214288Y-100958571D01*
X111214288Y-100958571D02*
X111309526Y-100910952D01*
X111309526Y-100910952D02*
X111500002Y-100910952D01*
X111500002Y-100910952D02*
X111595240Y-100958571D01*
X112404764Y-101530000D02*
X112309526Y-101577619D01*
X112309526Y-101577619D02*
X112119050Y-101577619D01*
X112119050Y-101577619D02*
X112023812Y-101530000D01*
X112023812Y-101530000D02*
X111976193Y-101434761D01*
X111976193Y-101434761D02*
X111976193Y-101053809D01*
X111976193Y-101053809D02*
X112023812Y-100958571D01*
X112023812Y-100958571D02*
X112119050Y-100910952D01*
X112119050Y-100910952D02*
X112309526Y-100910952D01*
X112309526Y-100910952D02*
X112404764Y-100958571D01*
X112404764Y-100958571D02*
X112452383Y-101053809D01*
X112452383Y-101053809D02*
X112452383Y-101149047D01*
X112452383Y-101149047D02*
X111976193Y-101244285D01*
X113452383Y-101577619D02*
X113119050Y-101101428D01*
X112880955Y-101577619D02*
X112880955Y-100577619D01*
X112880955Y-100577619D02*
X113261907Y-100577619D01*
X113261907Y-100577619D02*
X113357145Y-100625238D01*
X113357145Y-100625238D02*
X113404764Y-100672857D01*
X113404764Y-100672857D02*
X113452383Y-100768095D01*
X113452383Y-100768095D02*
X113452383Y-100910952D01*
X113452383Y-100910952D02*
X113404764Y-101006190D01*
X113404764Y-101006190D02*
X113357145Y-101053809D01*
X113357145Y-101053809D02*
X113261907Y-101101428D01*
X113261907Y-101101428D02*
X112880955Y-101101428D01*
X114261907Y-101530000D02*
X114166669Y-101577619D01*
X114166669Y-101577619D02*
X113976193Y-101577619D01*
X113976193Y-101577619D02*
X113880955Y-101530000D01*
X113880955Y-101530000D02*
X113833336Y-101434761D01*
X113833336Y-101434761D02*
X113833336Y-101053809D01*
X113833336Y-101053809D02*
X113880955Y-100958571D01*
X113880955Y-100958571D02*
X113976193Y-100910952D01*
X113976193Y-100910952D02*
X114166669Y-100910952D01*
X114166669Y-100910952D02*
X114261907Y-100958571D01*
X114261907Y-100958571D02*
X114309526Y-101053809D01*
X114309526Y-101053809D02*
X114309526Y-101149047D01*
X114309526Y-101149047D02*
X113833336Y-101244285D01*
X114642860Y-100910952D02*
X114880955Y-101577619D01*
X114880955Y-101577619D02*
X115119050Y-100910952D01*
X115690479Y-100577619D02*
X115785717Y-100577619D01*
X115785717Y-100577619D02*
X115880955Y-100625238D01*
X115880955Y-100625238D02*
X115928574Y-100672857D01*
X115928574Y-100672857D02*
X115976193Y-100768095D01*
X115976193Y-100768095D02*
X116023812Y-100958571D01*
X116023812Y-100958571D02*
X116023812Y-101196666D01*
X116023812Y-101196666D02*
X115976193Y-101387142D01*
X115976193Y-101387142D02*
X115928574Y-101482380D01*
X115928574Y-101482380D02*
X115880955Y-101530000D01*
X115880955Y-101530000D02*
X115785717Y-101577619D01*
X115785717Y-101577619D02*
X115690479Y-101577619D01*
X115690479Y-101577619D02*
X115595241Y-101530000D01*
X115595241Y-101530000D02*
X115547622Y-101482380D01*
X115547622Y-101482380D02*
X115500003Y-101387142D01*
X115500003Y-101387142D02*
X115452384Y-101196666D01*
X115452384Y-101196666D02*
X115452384Y-100958571D01*
X115452384Y-100958571D02*
X115500003Y-100768095D01*
X115500003Y-100768095D02*
X115547622Y-100672857D01*
X115547622Y-100672857D02*
X115595241Y-100625238D01*
X115595241Y-100625238D02*
X115690479Y-100577619D01*
X104261904Y-134585000D02*
X104119047Y-134537380D01*
X104119047Y-134537380D02*
X103880952Y-134537380D01*
X103880952Y-134537380D02*
X103785714Y-134585000D01*
X103785714Y-134585000D02*
X103738095Y-134632619D01*
X103738095Y-134632619D02*
X103690476Y-134727857D01*
X103690476Y-134727857D02*
X103690476Y-134823095D01*
X103690476Y-134823095D02*
X103738095Y-134918333D01*
X103738095Y-134918333D02*
X103785714Y-134965952D01*
X103785714Y-134965952D02*
X103880952Y-135013571D01*
X103880952Y-135013571D02*
X104071428Y-135061190D01*
X104071428Y-135061190D02*
X104166666Y-135108809D01*
X104166666Y-135108809D02*
X104214285Y-135156428D01*
X104214285Y-135156428D02*
X104261904Y-135251666D01*
X104261904Y-135251666D02*
X104261904Y-135346904D01*
X104261904Y-135346904D02*
X104214285Y-135442142D01*
X104214285Y-135442142D02*
X104166666Y-135489761D01*
X104166666Y-135489761D02*
X104071428Y-135537380D01*
X104071428Y-135537380D02*
X103833333Y-135537380D01*
X103833333Y-135537380D02*
X103690476Y-135489761D01*
X102738095Y-134537380D02*
X103309523Y-134537380D01*
X103023809Y-134537380D02*
X103023809Y-135537380D01*
X103023809Y-135537380D02*
X103119047Y-135394523D01*
X103119047Y-135394523D02*
X103214285Y-135299285D01*
X103214285Y-135299285D02*
X103309523Y-135251666D01*
X108338095Y-104062619D02*
X108909523Y-104062619D01*
X108623809Y-105062619D02*
X108623809Y-104062619D01*
X109242857Y-105062619D02*
X109242857Y-104062619D01*
X109242857Y-104062619D02*
X109623809Y-104062619D01*
X109623809Y-104062619D02*
X109719047Y-104110238D01*
X109719047Y-104110238D02*
X109766666Y-104157857D01*
X109766666Y-104157857D02*
X109814285Y-104253095D01*
X109814285Y-104253095D02*
X109814285Y-104395952D01*
X109814285Y-104395952D02*
X109766666Y-104491190D01*
X109766666Y-104491190D02*
X109719047Y-104538809D01*
X109719047Y-104538809D02*
X109623809Y-104586428D01*
X109623809Y-104586428D02*
X109242857Y-104586428D01*
X110147619Y-104062619D02*
X110766666Y-104062619D01*
X110766666Y-104062619D02*
X110433333Y-104443571D01*
X110433333Y-104443571D02*
X110576190Y-104443571D01*
X110576190Y-104443571D02*
X110671428Y-104491190D01*
X110671428Y-104491190D02*
X110719047Y-104538809D01*
X110719047Y-104538809D02*
X110766666Y-104634047D01*
X110766666Y-104634047D02*
X110766666Y-104872142D01*
X110766666Y-104872142D02*
X110719047Y-104967380D01*
X110719047Y-104967380D02*
X110671428Y-105015000D01*
X110671428Y-105015000D02*
X110576190Y-105062619D01*
X110576190Y-105062619D02*
X110290476Y-105062619D01*
X110290476Y-105062619D02*
X110195238Y-105015000D01*
X110195238Y-105015000D02*
X110147619Y-104967380D01*
X140027380Y-110266666D02*
X140075000Y-110314285D01*
X140075000Y-110314285D02*
X140122619Y-110457142D01*
X140122619Y-110457142D02*
X140122619Y-110552380D01*
X140122619Y-110552380D02*
X140075000Y-110695237D01*
X140075000Y-110695237D02*
X139979761Y-110790475D01*
X139979761Y-110790475D02*
X139884523Y-110838094D01*
X139884523Y-110838094D02*
X139694047Y-110885713D01*
X139694047Y-110885713D02*
X139551190Y-110885713D01*
X139551190Y-110885713D02*
X139360714Y-110838094D01*
X139360714Y-110838094D02*
X139265476Y-110790475D01*
X139265476Y-110790475D02*
X139170238Y-110695237D01*
X139170238Y-110695237D02*
X139122619Y-110552380D01*
X139122619Y-110552380D02*
X139122619Y-110457142D01*
X139122619Y-110457142D02*
X139170238Y-110314285D01*
X139170238Y-110314285D02*
X139217857Y-110266666D01*
X140122619Y-109790475D02*
X140122619Y-109599999D01*
X140122619Y-109599999D02*
X140075000Y-109504761D01*
X140075000Y-109504761D02*
X140027380Y-109457142D01*
X140027380Y-109457142D02*
X139884523Y-109361904D01*
X139884523Y-109361904D02*
X139694047Y-109314285D01*
X139694047Y-109314285D02*
X139313095Y-109314285D01*
X139313095Y-109314285D02*
X139217857Y-109361904D01*
X139217857Y-109361904D02*
X139170238Y-109409523D01*
X139170238Y-109409523D02*
X139122619Y-109504761D01*
X139122619Y-109504761D02*
X139122619Y-109695237D01*
X139122619Y-109695237D02*
X139170238Y-109790475D01*
X139170238Y-109790475D02*
X139217857Y-109838094D01*
X139217857Y-109838094D02*
X139313095Y-109885713D01*
X139313095Y-109885713D02*
X139551190Y-109885713D01*
X139551190Y-109885713D02*
X139646428Y-109838094D01*
X139646428Y-109838094D02*
X139694047Y-109790475D01*
X139694047Y-109790475D02*
X139741666Y-109695237D01*
X139741666Y-109695237D02*
X139741666Y-109504761D01*
X139741666Y-109504761D02*
X139694047Y-109409523D01*
X139694047Y-109409523D02*
X139646428Y-109361904D01*
X139646428Y-109361904D02*
X139551190Y-109314285D01*
X111667380Y-110866666D02*
X111715000Y-110914285D01*
X111715000Y-110914285D02*
X111762619Y-111057142D01*
X111762619Y-111057142D02*
X111762619Y-111152380D01*
X111762619Y-111152380D02*
X111715000Y-111295237D01*
X111715000Y-111295237D02*
X111619761Y-111390475D01*
X111619761Y-111390475D02*
X111524523Y-111438094D01*
X111524523Y-111438094D02*
X111334047Y-111485713D01*
X111334047Y-111485713D02*
X111191190Y-111485713D01*
X111191190Y-111485713D02*
X111000714Y-111438094D01*
X111000714Y-111438094D02*
X110905476Y-111390475D01*
X110905476Y-111390475D02*
X110810238Y-111295237D01*
X110810238Y-111295237D02*
X110762619Y-111152380D01*
X110762619Y-111152380D02*
X110762619Y-111057142D01*
X110762619Y-111057142D02*
X110810238Y-110914285D01*
X110810238Y-110914285D02*
X110857857Y-110866666D01*
X110762619Y-110009523D02*
X110762619Y-110199999D01*
X110762619Y-110199999D02*
X110810238Y-110295237D01*
X110810238Y-110295237D02*
X110857857Y-110342856D01*
X110857857Y-110342856D02*
X111000714Y-110438094D01*
X111000714Y-110438094D02*
X111191190Y-110485713D01*
X111191190Y-110485713D02*
X111572142Y-110485713D01*
X111572142Y-110485713D02*
X111667380Y-110438094D01*
X111667380Y-110438094D02*
X111715000Y-110390475D01*
X111715000Y-110390475D02*
X111762619Y-110295237D01*
X111762619Y-110295237D02*
X111762619Y-110104761D01*
X111762619Y-110104761D02*
X111715000Y-110009523D01*
X111715000Y-110009523D02*
X111667380Y-109961904D01*
X111667380Y-109961904D02*
X111572142Y-109914285D01*
X111572142Y-109914285D02*
X111334047Y-109914285D01*
X111334047Y-109914285D02*
X111238809Y-109961904D01*
X111238809Y-109961904D02*
X111191190Y-110009523D01*
X111191190Y-110009523D02*
X111143571Y-110104761D01*
X111143571Y-110104761D02*
X111143571Y-110295237D01*
X111143571Y-110295237D02*
X111191190Y-110390475D01*
X111191190Y-110390475D02*
X111238809Y-110438094D01*
X111238809Y-110438094D02*
X111334047Y-110485713D01*
D11*
X138170237Y-115287526D02*
X138170237Y-114017526D01*
X139500714Y-115166573D02*
X139440238Y-115227050D01*
X139440238Y-115227050D02*
X139258809Y-115287526D01*
X139258809Y-115287526D02*
X139137857Y-115287526D01*
X139137857Y-115287526D02*
X138956428Y-115227050D01*
X138956428Y-115227050D02*
X138835476Y-115106097D01*
X138835476Y-115106097D02*
X138774999Y-114985145D01*
X138774999Y-114985145D02*
X138714523Y-114743240D01*
X138714523Y-114743240D02*
X138714523Y-114561811D01*
X138714523Y-114561811D02*
X138774999Y-114319907D01*
X138774999Y-114319907D02*
X138835476Y-114198954D01*
X138835476Y-114198954D02*
X138956428Y-114078002D01*
X138956428Y-114078002D02*
X139137857Y-114017526D01*
X139137857Y-114017526D02*
X139258809Y-114017526D01*
X139258809Y-114017526D02*
X139440238Y-114078002D01*
X139440238Y-114078002D02*
X139500714Y-114138478D01*
X139924047Y-114017526D02*
X140710238Y-114017526D01*
X140710238Y-114017526D02*
X140286904Y-114501335D01*
X140286904Y-114501335D02*
X140468333Y-114501335D01*
X140468333Y-114501335D02*
X140589285Y-114561811D01*
X140589285Y-114561811D02*
X140649761Y-114622288D01*
X140649761Y-114622288D02*
X140710238Y-114743240D01*
X140710238Y-114743240D02*
X140710238Y-115045621D01*
X140710238Y-115045621D02*
X140649761Y-115166573D01*
X140649761Y-115166573D02*
X140589285Y-115227050D01*
X140589285Y-115227050D02*
X140468333Y-115287526D01*
X140468333Y-115287526D02*
X140105476Y-115287526D01*
X140105476Y-115287526D02*
X139984523Y-115227050D01*
X139984523Y-115227050D02*
X139924047Y-115166573D01*
D10*
X134161904Y-142985000D02*
X134019047Y-142937380D01*
X134019047Y-142937380D02*
X133780952Y-142937380D01*
X133780952Y-142937380D02*
X133685714Y-142985000D01*
X133685714Y-142985000D02*
X133638095Y-143032619D01*
X133638095Y-143032619D02*
X133590476Y-143127857D01*
X133590476Y-143127857D02*
X133590476Y-143223095D01*
X133590476Y-143223095D02*
X133638095Y-143318333D01*
X133638095Y-143318333D02*
X133685714Y-143365952D01*
X133685714Y-143365952D02*
X133780952Y-143413571D01*
X133780952Y-143413571D02*
X133971428Y-143461190D01*
X133971428Y-143461190D02*
X134066666Y-143508809D01*
X134066666Y-143508809D02*
X134114285Y-143556428D01*
X134114285Y-143556428D02*
X134161904Y-143651666D01*
X134161904Y-143651666D02*
X134161904Y-143746904D01*
X134161904Y-143746904D02*
X134114285Y-143842142D01*
X134114285Y-143842142D02*
X134066666Y-143889761D01*
X134066666Y-143889761D02*
X133971428Y-143937380D01*
X133971428Y-143937380D02*
X133733333Y-143937380D01*
X133733333Y-143937380D02*
X133590476Y-143889761D01*
X133257142Y-143937380D02*
X132638095Y-143937380D01*
X132638095Y-143937380D02*
X132971428Y-143556428D01*
X132971428Y-143556428D02*
X132828571Y-143556428D01*
X132828571Y-143556428D02*
X132733333Y-143508809D01*
X132733333Y-143508809D02*
X132685714Y-143461190D01*
X132685714Y-143461190D02*
X132638095Y-143365952D01*
X132638095Y-143365952D02*
X132638095Y-143127857D01*
X132638095Y-143127857D02*
X132685714Y-143032619D01*
X132685714Y-143032619D02*
X132733333Y-142985000D01*
X132733333Y-142985000D02*
X132828571Y-142937380D01*
X132828571Y-142937380D02*
X133114285Y-142937380D01*
X133114285Y-142937380D02*
X133209523Y-142985000D01*
X133209523Y-142985000D02*
X133257142Y-143032619D01*
X115838095Y-107115000D02*
X115980952Y-107162619D01*
X115980952Y-107162619D02*
X116219047Y-107162619D01*
X116219047Y-107162619D02*
X116314285Y-107115000D01*
X116314285Y-107115000D02*
X116361904Y-107067380D01*
X116361904Y-107067380D02*
X116409523Y-106972142D01*
X116409523Y-106972142D02*
X116409523Y-106876904D01*
X116409523Y-106876904D02*
X116361904Y-106781666D01*
X116361904Y-106781666D02*
X116314285Y-106734047D01*
X116314285Y-106734047D02*
X116219047Y-106686428D01*
X116219047Y-106686428D02*
X116028571Y-106638809D01*
X116028571Y-106638809D02*
X115933333Y-106591190D01*
X115933333Y-106591190D02*
X115885714Y-106543571D01*
X115885714Y-106543571D02*
X115838095Y-106448333D01*
X115838095Y-106448333D02*
X115838095Y-106353095D01*
X115838095Y-106353095D02*
X115885714Y-106257857D01*
X115885714Y-106257857D02*
X115933333Y-106210238D01*
X115933333Y-106210238D02*
X116028571Y-106162619D01*
X116028571Y-106162619D02*
X116266666Y-106162619D01*
X116266666Y-106162619D02*
X116409523Y-106210238D01*
X116790476Y-106257857D02*
X116838095Y-106210238D01*
X116838095Y-106210238D02*
X116933333Y-106162619D01*
X116933333Y-106162619D02*
X117171428Y-106162619D01*
X117171428Y-106162619D02*
X117266666Y-106210238D01*
X117266666Y-106210238D02*
X117314285Y-106257857D01*
X117314285Y-106257857D02*
X117361904Y-106353095D01*
X117361904Y-106353095D02*
X117361904Y-106448333D01*
X117361904Y-106448333D02*
X117314285Y-106591190D01*
X117314285Y-106591190D02*
X116742857Y-107162619D01*
X116742857Y-107162619D02*
X117361904Y-107162619D01*
D11*
X107760237Y-115287526D02*
X107760237Y-114017526D01*
X109090714Y-115166573D02*
X109030238Y-115227050D01*
X109030238Y-115227050D02*
X108848809Y-115287526D01*
X108848809Y-115287526D02*
X108727857Y-115287526D01*
X108727857Y-115287526D02*
X108546428Y-115227050D01*
X108546428Y-115227050D02*
X108425476Y-115106097D01*
X108425476Y-115106097D02*
X108364999Y-114985145D01*
X108364999Y-114985145D02*
X108304523Y-114743240D01*
X108304523Y-114743240D02*
X108304523Y-114561811D01*
X108304523Y-114561811D02*
X108364999Y-114319907D01*
X108364999Y-114319907D02*
X108425476Y-114198954D01*
X108425476Y-114198954D02*
X108546428Y-114078002D01*
X108546428Y-114078002D02*
X108727857Y-114017526D01*
X108727857Y-114017526D02*
X108848809Y-114017526D01*
X108848809Y-114017526D02*
X109030238Y-114078002D01*
X109030238Y-114078002D02*
X109090714Y-114138478D01*
X109574523Y-114138478D02*
X109634999Y-114078002D01*
X109634999Y-114078002D02*
X109755952Y-114017526D01*
X109755952Y-114017526D02*
X110058333Y-114017526D01*
X110058333Y-114017526D02*
X110179285Y-114078002D01*
X110179285Y-114078002D02*
X110239761Y-114138478D01*
X110239761Y-114138478D02*
X110300238Y-114259430D01*
X110300238Y-114259430D02*
X110300238Y-114380383D01*
X110300238Y-114380383D02*
X110239761Y-114561811D01*
X110239761Y-114561811D02*
X109514047Y-115287526D01*
X109514047Y-115287526D02*
X110300238Y-115287526D01*
D12*
X147500000Y-136100000D02*
X147500000Y-134100000D01*
X147500000Y-136100000D02*
X145500000Y-136100000D01*
X147500000Y-114100000D02*
X147500000Y-116100000D01*
X147500000Y-114100000D02*
X145500000Y-114100000D01*
X102500000Y-136100000D02*
X104500000Y-136100000D01*
X102500000Y-136100000D02*
X102500000Y-134100000D01*
X102500000Y-114100000D02*
X104500000Y-114100000D01*
X102500000Y-114100000D02*
X102500000Y-116100000D01*
X111500000Y-103900000D02*
X112900000Y-103900000D01*
X111500000Y-105300000D02*
X111500000Y-103900000D01*
X112900000Y-103900000D02*
X112900000Y-105300000D01*
X112900000Y-105300000D02*
X111500000Y-105300000D01*
X138860000Y-109992164D02*
X138860000Y-110207836D01*
X138140000Y-109992164D02*
X138140000Y-110207836D01*
X110940000Y-112807836D02*
X110940000Y-112592164D01*
X111660000Y-112807836D02*
X111660000Y-112592164D01*
D13*
X138190000Y-111300000D02*
X138810000Y-111300000D01*
X139160000Y-111400000D02*
X139660000Y-111400000D01*
X139160000Y-113500000D02*
X139160000Y-111400000D01*
X139660000Y-111400000D02*
X139660000Y-113500000D01*
X139660000Y-113500000D02*
X139160000Y-113500000D01*
D12*
X136500000Y-144300000D02*
X136500000Y-141300000D01*
X136500000Y-144300000D02*
X133500000Y-144300000D01*
X136500000Y-136300000D02*
X136500000Y-139300000D01*
X136500000Y-136300000D02*
X133500000Y-136300000D01*
X113500000Y-144300000D02*
X116500000Y-144300000D01*
X113500000Y-144300000D02*
X113500000Y-141300000D01*
X113500000Y-136300000D02*
X116500000Y-136300000D01*
X113500000Y-136300000D02*
X113500000Y-139300000D01*
X113478500Y-105900000D02*
X113478500Y-108900000D01*
X113478500Y-105900000D02*
X116478500Y-105900000D01*
X113478500Y-113900000D02*
X113478500Y-110900000D01*
X113478500Y-113900000D02*
X116478500Y-113900000D01*
X136478500Y-105900000D02*
X133478500Y-105900000D01*
X136478500Y-105900000D02*
X136478500Y-108900000D01*
X136478500Y-113900000D02*
X133478500Y-113900000D01*
X136478500Y-113900000D02*
X136478500Y-110900000D01*
D14*
X107725000Y-111025000D02*
G75*
G03*
X107725000Y-111025000I-125000J0D01*
G01*
%LPC*%
D15*
X144500000Y-125100000D03*
X105500000Y-125100000D03*
D16*
X112200000Y-104600000D03*
D17*
X138500000Y-109620000D03*
X138500000Y-110580000D03*
D18*
X111300000Y-113180000D03*
X111300000Y-112220000D03*
D19*
X138500000Y-111700000D03*
X138500000Y-112200000D03*
X138500000Y-112700000D03*
X138500000Y-113200000D03*
X140320000Y-113200000D03*
X140320000Y-112700000D03*
X140320000Y-112200000D03*
X140320000Y-111700000D03*
D20*
X114178500Y-140300000D03*
X135821500Y-140300000D03*
D21*
X135800000Y-109900000D03*
X114157000Y-109900000D03*
D22*
X107900000Y-111700000D03*
X107900000Y-112350000D03*
X107900000Y-113000000D03*
X110000000Y-113000000D03*
X110000000Y-112350000D03*
X110000000Y-111700000D03*
D23*
X108950000Y-112350000D03*
%LPD*%
M02*
