G04 #@! TF.GenerationSoftware,KiCad,Pcbnew,7.0.2*
G04 #@! TF.CreationDate,2023-06-06T15:17:54-04:00*
G04 #@! TF.ProjectId,TopExternalFaceRev1,546f7045-7874-4657-926e-616c46616365,rev?*
G04 #@! TF.SameCoordinates,Original*
G04 #@! TF.FileFunction,Profile,NP*
%FSLAX46Y46*%
G04 Gerber Fmt 4.6, Leading zero omitted, Abs format (unit mm)*
G04 Created by KiCad (PCBNEW 7.0.2) date 2023-06-06 15:17:54*
%MOMM*%
%LPD*%
G01*
G04 APERTURE LIST*
G04 #@! TA.AperFunction,Profile*
%ADD10C,0.100000*%
G04 #@! TD*
G04 APERTURE END LIST*
D10*
X147000000Y-117000000D02*
X147000000Y-125000000D01*
X103000000Y-117000000D02*
G75*
G03*
X102000000Y-117000000I-500000J0D01*
G01*
X125000000Y-103000000D02*
X133000000Y-103000000D01*
X133000000Y-148000000D02*
G75*
G03*
X133000000Y-147000000I0J500000D01*
G01*
X125000000Y-147000000D02*
X117000000Y-147000000D01*
X117000000Y-103000000D02*
X125000000Y-103000000D01*
X143750000Y-142000000D02*
G75*
G03*
X143750000Y-142000000I-1750000J0D01*
G01*
X125000000Y-148000000D02*
X133000000Y-148000000D01*
X117000000Y-147000000D02*
G75*
G03*
X117000000Y-148000000I0J-500000D01*
G01*
X117000000Y-148000000D02*
X125000000Y-148000000D01*
X102000000Y-125000000D02*
X102000000Y-133000000D01*
X117000000Y-102000000D02*
G75*
G03*
X117000000Y-103000000I0J-500000D01*
G01*
X147000000Y-125000000D02*
X147000000Y-133000000D01*
X148000000Y-117000000D02*
G75*
G03*
X147000000Y-117000000I-500000J0D01*
G01*
X103000000Y-133000000D02*
X103000000Y-125000000D01*
X150000000Y-150000000D02*
X100000000Y-150000000D01*
X109750000Y-142000000D02*
G75*
G03*
X109750000Y-142000000I-1750000J0D01*
G01*
X148000000Y-125000000D02*
X148000000Y-117000000D01*
X150000000Y-100000000D02*
X150000000Y-150000000D01*
X100000000Y-150000000D02*
X100000000Y-100000000D01*
X147000000Y-133000000D02*
G75*
G03*
X148000000Y-133000000I500000J0D01*
G01*
X102000000Y-117000000D02*
X102000000Y-125000000D01*
X102000000Y-133000000D02*
G75*
G03*
X103000000Y-133000000I500000J0D01*
G01*
X133000000Y-103000000D02*
G75*
G03*
X133000000Y-102000000I0J500000D01*
G01*
X109750000Y-108000000D02*
G75*
G03*
X109750000Y-108000000I-1750000J0D01*
G01*
X103000000Y-125000000D02*
X103000000Y-117000000D01*
X143750000Y-108000000D02*
G75*
G03*
X143750000Y-108000000I-1750000J0D01*
G01*
X133000000Y-147000000D02*
X125000000Y-147000000D01*
X100000000Y-100000000D02*
X150000000Y-100000000D01*
X148000000Y-133000000D02*
X148000000Y-125000000D01*
X125000000Y-102000000D02*
X117000000Y-102000000D01*
X133000000Y-102000000D02*
X125000000Y-102000000D01*
M02*
