%TF.GenerationSoftware,KiCad,Pcbnew,7.0.2*%
%TF.CreationDate,2023-07-30T22:14:57-04:00*%
%TF.ProjectId,ExternalFaces,45787465-726e-4616-9c46-616365732e6b,rev?*%
%TF.SameCoordinates,Original*%
%TF.FileFunction,Copper,L4,Bot*%
%TF.FilePolarity,Positive*%
%FSLAX46Y46*%
G04 Gerber Fmt 4.6, Leading zero omitted, Abs format (unit mm)*
G04 Created by KiCad (PCBNEW 7.0.2) date 2023-07-30 22:14:57*
%MOMM*%
%LPD*%
G01*
G04 APERTURE LIST*
G04 Aperture macros list*
%AMRoundRect*
0 Rectangle with rounded corners*
0 $1 Rounding radius*
0 $2 $3 $4 $5 $6 $7 $8 $9 X,Y pos of 4 corners*
0 Add a 4 corners polygon primitive as box body*
4,1,4,$2,$3,$4,$5,$6,$7,$8,$9,$2,$3,0*
0 Add four circle primitives for the rounded corners*
1,1,$1+$1,$2,$3*
1,1,$1+$1,$4,$5*
1,1,$1+$1,$6,$7*
1,1,$1+$1,$8,$9*
0 Add four rect primitives between the rounded corners*
20,1,$1+$1,$2,$3,$4,$5,0*
20,1,$1+$1,$4,$5,$6,$7,0*
20,1,$1+$1,$6,$7,$8,$9,0*
20,1,$1+$1,$8,$9,$2,$3,0*%
G04 Aperture macros list end*
%TA.AperFunction,SMDPad,CuDef*%
%ADD10RoundRect,0.135000X-0.185000X0.135000X-0.185000X-0.135000X0.185000X-0.135000X0.185000X0.135000X0*%
%TD*%
%TA.AperFunction,SMDPad,CuDef*%
%ADD11R,1.500000X1.000000*%
%TD*%
%TA.AperFunction,SMDPad,CuDef*%
%ADD12R,0.380000X1.520000*%
%TD*%
%TA.AperFunction,SMDPad,CuDef*%
%ADD13R,1.400000X2.290000*%
%TD*%
%TA.AperFunction,SMDPad,CuDef*%
%ADD14RoundRect,0.140000X0.140000X0.170000X-0.140000X0.170000X-0.140000X-0.170000X0.140000X-0.170000X0*%
%TD*%
%TA.AperFunction,SMDPad,CuDef*%
%ADD15RoundRect,0.140000X0.170000X-0.140000X0.170000X0.140000X-0.170000X0.140000X-0.170000X-0.140000X0*%
%TD*%
%TA.AperFunction,SMDPad,CuDef*%
%ADD16R,0.700000X0.300000*%
%TD*%
%TA.AperFunction,SMDPad,CuDef*%
%ADD17R,1.000000X1.700000*%
%TD*%
%TA.AperFunction,SMDPad,CuDef*%
%ADD18RoundRect,0.140000X-0.170000X0.140000X-0.170000X-0.140000X0.170000X-0.140000X0.170000X0.140000X0*%
%TD*%
%TA.AperFunction,SMDPad,CuDef*%
%ADD19R,1.475000X0.450000*%
%TD*%
%TA.AperFunction,SMDPad,CuDef*%
%ADD20RoundRect,0.135000X0.135000X0.185000X-0.135000X0.185000X-0.135000X-0.185000X0.135000X-0.185000X0*%
%TD*%
%TA.AperFunction,SMDPad,CuDef*%
%ADD21RoundRect,0.140000X-0.140000X-0.170000X0.140000X-0.170000X0.140000X0.170000X-0.140000X0.170000X0*%
%TD*%
%TA.AperFunction,SMDPad,CuDef*%
%ADD22R,3.700000X1.200000*%
%TD*%
%TA.AperFunction,SMDPad,CuDef*%
%ADD23R,1.200000X0.900000*%
%TD*%
%TA.AperFunction,SMDPad,CuDef*%
%ADD24RoundRect,0.135000X-0.135000X-0.185000X0.135000X-0.185000X0.135000X0.185000X-0.135000X0.185000X0*%
%TD*%
%TA.AperFunction,ViaPad*%
%ADD25C,0.600000*%
%TD*%
%TA.AperFunction,ViaPad*%
%ADD26C,0.500000*%
%TD*%
%TA.AperFunction,ViaPad*%
%ADD27C,0.400000*%
%TD*%
%TA.AperFunction,Conductor*%
%ADD28C,0.200000*%
%TD*%
%TA.AperFunction,Conductor*%
%ADD29C,0.150000*%
%TD*%
%TA.AperFunction,Conductor*%
%ADD30C,0.400000*%
%TD*%
%TA.AperFunction,Conductor*%
%ADD31C,0.700000*%
%TD*%
%TA.AperFunction,Conductor*%
%ADD32C,1.000000*%
%TD*%
%TA.AperFunction,Conductor*%
%ADD33C,0.300000*%
%TD*%
%TA.AperFunction,Conductor*%
%ADD34C,0.500000*%
%TD*%
G04 APERTURE END LIST*
D10*
X139720000Y-110830000D03*
X139720000Y-111850000D03*
D11*
X125450000Y-92400000D03*
X125450000Y-91100000D03*
D12*
X120577500Y-112070000D03*
X119942500Y-112070000D03*
X121847500Y-112070000D03*
X121212500Y-112070000D03*
X123117500Y-112070000D03*
X122482500Y-112070000D03*
X124387500Y-112070000D03*
X123752500Y-112070000D03*
X125657500Y-112070000D03*
X125022500Y-112070000D03*
D13*
X127510000Y-115500000D03*
X118090000Y-115500000D03*
D14*
X132480000Y-107100000D03*
X131520000Y-107100000D03*
D15*
X147000000Y-114180000D03*
X147000000Y-113220000D03*
D16*
X148300000Y-115270000D03*
X148300000Y-115770000D03*
X148300000Y-116270000D03*
X148300000Y-116770000D03*
X146200000Y-116770000D03*
X146200000Y-116270000D03*
X146200000Y-115770000D03*
X146200000Y-115270000D03*
D17*
X147250000Y-116020000D03*
D18*
X140660000Y-110830000D03*
X140660000Y-111790000D03*
D19*
X141088000Y-107595000D03*
X141088000Y-108245000D03*
X141088000Y-108895000D03*
X141088000Y-109545000D03*
X135212000Y-109545000D03*
X135212000Y-108895000D03*
X135212000Y-108245000D03*
X135212000Y-107595000D03*
D20*
X132570000Y-105920000D03*
X131550000Y-105920000D03*
D12*
X131977500Y-112070000D03*
X131342500Y-112070000D03*
X133247500Y-112070000D03*
X132612500Y-112070000D03*
X134517500Y-112070000D03*
X133882500Y-112070000D03*
X135787500Y-112070000D03*
X135152500Y-112070000D03*
X137057500Y-112070000D03*
X136422500Y-112070000D03*
D13*
X138910000Y-115500000D03*
X129490000Y-115500000D03*
D10*
X142392000Y-113130000D03*
X142392000Y-114150000D03*
D21*
X149800000Y-112400000D03*
X150760000Y-112400000D03*
D11*
X133550000Y-92400000D03*
X133550000Y-91100000D03*
D15*
X146000000Y-114180000D03*
X146000000Y-113220000D03*
D18*
X143430000Y-113180000D03*
X143430000Y-114140000D03*
D11*
X130750000Y-92400000D03*
X130750000Y-91100000D03*
D22*
X145310000Y-108230000D03*
X145310000Y-111030000D03*
D11*
X128150000Y-92400000D03*
X128150000Y-91100000D03*
D18*
X141650000Y-110830000D03*
X141650000Y-111790000D03*
X148000000Y-113232500D03*
X148000000Y-114192500D03*
D23*
X150020000Y-107650000D03*
X150020000Y-110950000D03*
D24*
X140690000Y-106100000D03*
X141710000Y-106100000D03*
D12*
X121582500Y-81730000D03*
X122217500Y-81730000D03*
X120312500Y-81730000D03*
X120947500Y-81730000D03*
X119042500Y-81730000D03*
X119677500Y-81730000D03*
X117772500Y-81730000D03*
X118407500Y-81730000D03*
X116502500Y-81730000D03*
X117137500Y-81730000D03*
D13*
X114650000Y-78300000D03*
X124070000Y-78300000D03*
D25*
X129600000Y-94400000D03*
D26*
X132300000Y-93400000D03*
X144200000Y-118300000D03*
X132400000Y-119450000D03*
X152000000Y-95600000D03*
X107000000Y-73300000D03*
X147400000Y-121500000D03*
X106950000Y-95550000D03*
X107500000Y-119650000D03*
X152000000Y-73300000D03*
X125950000Y-118500000D03*
X136000000Y-72400000D03*
D25*
X133100000Y-96700000D03*
D26*
X137950000Y-73250000D03*
X152000000Y-108550000D03*
X127000000Y-119800000D03*
X152000000Y-97800000D03*
X121250000Y-72500000D03*
X151950000Y-112400000D03*
X117500000Y-119000000D03*
D27*
X147553173Y-118234462D03*
D26*
X107000000Y-97800000D03*
X151950000Y-110900000D03*
D25*
X125500000Y-99600000D03*
D26*
X140700000Y-121400000D03*
X131400000Y-96200000D03*
X144900000Y-118300000D03*
X129450000Y-92500000D03*
X132100000Y-98700000D03*
X143400000Y-118300000D03*
X128400000Y-118200000D03*
X129000000Y-118800000D03*
D27*
X145950000Y-118280000D03*
X150330000Y-118630000D03*
X148950000Y-118010000D03*
X149510000Y-117980000D03*
D26*
X132700000Y-100200000D03*
D28*
X132300000Y-92400000D02*
X132300000Y-93400000D01*
D29*
X144200000Y-118300000D02*
X144040000Y-118140000D01*
D28*
X130750000Y-91100000D02*
X131000000Y-91100000D01*
D29*
X143147182Y-117775000D02*
X143092182Y-117830000D01*
X143982463Y-118140000D02*
X143617463Y-117775000D01*
X140431694Y-117703219D02*
X138568306Y-117703219D01*
X143617463Y-117775000D02*
X143147182Y-117775000D01*
D28*
X130600000Y-93400000D02*
X132300000Y-93400000D01*
D29*
X138441525Y-117830000D02*
X137155686Y-117830000D01*
X143092182Y-117830000D02*
X140558475Y-117830000D01*
X138568306Y-117703219D02*
X138441525Y-117830000D01*
D28*
X129600000Y-94400000D02*
X130600000Y-93400000D01*
D29*
X140558475Y-117830000D02*
X140431694Y-117703219D01*
X144040000Y-118140000D02*
X143982463Y-118140000D01*
D28*
X131000000Y-91100000D02*
X132300000Y-92400000D01*
D29*
X133247500Y-113921814D02*
X133247500Y-112070000D01*
X137155686Y-117830000D02*
X133247500Y-113921814D01*
D28*
X147835823Y-118234462D02*
X148300000Y-117770285D01*
X147700000Y-116770000D02*
X147250000Y-116320000D01*
X148300000Y-117770285D02*
X148300000Y-116770000D01*
X147553173Y-118234462D02*
X147835823Y-118234462D01*
X148300000Y-116770000D02*
X147700000Y-116770000D01*
X147250000Y-116320000D02*
X147250000Y-116020000D01*
D30*
X129150000Y-93250000D02*
X129900000Y-93250000D01*
D28*
X129110000Y-93290000D02*
X129110000Y-94602965D01*
X129150000Y-93250000D02*
X129110000Y-93290000D01*
D30*
X128150000Y-92400000D02*
X125550000Y-92400000D01*
D28*
X130707035Y-96200000D02*
X131400000Y-96200000D01*
D30*
X129900000Y-93250000D02*
X130750000Y-92400000D01*
D28*
X133550000Y-92400000D02*
X133550000Y-94050000D01*
X133550000Y-94050000D02*
X131400000Y-96200000D01*
D30*
X128150000Y-92400000D02*
X128300000Y-92400000D01*
D28*
X129110000Y-94602965D02*
X130707035Y-96200000D01*
D30*
X128300000Y-92400000D02*
X129150000Y-93250000D01*
D28*
X139100000Y-111230000D02*
X139100000Y-109860000D01*
X135212000Y-109545000D02*
X138785000Y-109545000D01*
X139720000Y-111850000D02*
X139720000Y-112146817D01*
X141632000Y-112370000D02*
X142392000Y-113130000D01*
X139720000Y-111850000D02*
X139100000Y-111230000D01*
X139720000Y-112146817D02*
X139943183Y-112370000D01*
X138785000Y-109545000D02*
X139100000Y-109860000D01*
D31*
X142442000Y-113180000D02*
X142392000Y-113130000D01*
D28*
X139943183Y-112370000D02*
X141632000Y-112370000D01*
D31*
X143430000Y-113180000D02*
X142442000Y-113180000D01*
D29*
X140647378Y-117353219D02*
X138423332Y-117353219D01*
X144097437Y-117760000D02*
X143762437Y-117425000D01*
D28*
X129450000Y-91850000D02*
X129450000Y-92500000D01*
D29*
X137353224Y-117480000D02*
X134627500Y-114754276D01*
X142926496Y-117430000D02*
X140724159Y-117430000D01*
X144900000Y-118222182D02*
X144437818Y-117760000D01*
X138296551Y-117480000D02*
X137353224Y-117480000D01*
D28*
X128700000Y-91100000D02*
X129450000Y-91850000D01*
D29*
X138423332Y-117353219D02*
X138296551Y-117480000D01*
D28*
X128150000Y-91100000D02*
X128600000Y-91100000D01*
D29*
X144437818Y-117760000D02*
X144097437Y-117760000D01*
D28*
X128600000Y-91100000D02*
X128700000Y-91100000D01*
D29*
X142931496Y-117425000D02*
X142926496Y-117430000D01*
X140724159Y-117430000D02*
X140647378Y-117353219D01*
X143762437Y-117425000D02*
X142931496Y-117425000D01*
X134627500Y-114754276D02*
X134627500Y-114577500D01*
X133882500Y-113832500D02*
X133882500Y-112070000D01*
X134627500Y-114577500D02*
X133882500Y-113832500D01*
X144900000Y-118300000D02*
X144900000Y-118222182D01*
D28*
X132612500Y-113852500D02*
X132612500Y-112070000D01*
X134850000Y-92150000D02*
X134850000Y-94050000D01*
X138607211Y-118230000D02*
X136990000Y-118230000D01*
X133800000Y-91100000D02*
X134850000Y-92150000D01*
X143400000Y-118300000D02*
X143330000Y-118230000D01*
X143330000Y-118230000D02*
X140392789Y-118230000D01*
X133550000Y-91100000D02*
X133800000Y-91100000D01*
X140241008Y-118078219D02*
X138758992Y-118078219D01*
X134850000Y-94050000D02*
X132100000Y-96800000D01*
X136990000Y-118230000D02*
X132612500Y-113852500D01*
X138758992Y-118078219D02*
X138607211Y-118230000D01*
X140392789Y-118230000D02*
X140241008Y-118078219D01*
X132100000Y-96800000D02*
X132100000Y-98700000D01*
D32*
X151230000Y-114610000D02*
X149130000Y-112510000D01*
X139072356Y-118943581D02*
X139500000Y-118882094D01*
X146536302Y-120400000D02*
X147613246Y-119323056D01*
X134060000Y-119030000D02*
X138883124Y-119030000D01*
X149640252Y-119600000D02*
X150632793Y-119600000D01*
X150632793Y-119600000D02*
X151230000Y-119002793D01*
X151230000Y-119002793D02*
X151230000Y-114610000D01*
X130455000Y-117345000D02*
X132375000Y-117345000D01*
X148720000Y-111030000D02*
X145310000Y-111030000D01*
X139500000Y-118882094D02*
X139927644Y-118943581D01*
X132375000Y-117345000D02*
X134060000Y-119030000D01*
X148720000Y-112100000D02*
X148720000Y-111030000D01*
X129000000Y-118800000D02*
X128400000Y-118200000D01*
X139927644Y-118943581D02*
X141384063Y-120400000D01*
X149320642Y-119323056D02*
X149640252Y-119600000D01*
X138883124Y-119030000D02*
X139072356Y-118943581D01*
X129000000Y-118800000D02*
X130455000Y-117345000D01*
X149130000Y-112510000D02*
X148720000Y-112100000D01*
X141384063Y-120400000D02*
X146536302Y-120400000D01*
X147613246Y-119323056D02*
X149320642Y-119323056D01*
D28*
X149636396Y-115270000D02*
X148300000Y-115270000D01*
D30*
X144235000Y-116935000D02*
X144700000Y-117400000D01*
X146000000Y-114180000D02*
X147000000Y-114180000D01*
X135152500Y-112070000D02*
X135152500Y-114052500D01*
X147012500Y-114192500D02*
X147000000Y-114180000D01*
X135152500Y-114052500D02*
X138035000Y-116935000D01*
D28*
X150300000Y-118600000D02*
X150300000Y-115933604D01*
D30*
X148300000Y-115270000D02*
X148300000Y-114492500D01*
X144700000Y-117400000D02*
X145070000Y-117400000D01*
X145070000Y-117400000D02*
X145950000Y-118280000D01*
D28*
X150300000Y-115933604D02*
X149636396Y-115270000D01*
D30*
X148000000Y-114192500D02*
X147012500Y-114192500D01*
X146200000Y-115270000D02*
X146200000Y-114380000D01*
X148300000Y-114492500D02*
X148000000Y-114192500D01*
X138035000Y-116935000D02*
X144235000Y-116935000D01*
D28*
X150330000Y-118630000D02*
X150300000Y-118600000D01*
D30*
X146200000Y-114380000D02*
X146000000Y-114180000D01*
D33*
X148950000Y-118010000D02*
X148950000Y-117390000D01*
X149510000Y-117980000D02*
X149510000Y-115780000D01*
X149000000Y-117340000D02*
X149000000Y-116320000D01*
X148950000Y-117390000D02*
X149000000Y-117340000D01*
X149510000Y-115780000D02*
X149500000Y-115770000D01*
X149000000Y-116320000D02*
X148950000Y-116270000D01*
X148950000Y-116270000D02*
X148300000Y-116270000D01*
X149500000Y-115770000D02*
X148300000Y-115770000D01*
D28*
X141500000Y-115500000D02*
X144198628Y-115500000D01*
X137665000Y-114055000D02*
X140055000Y-114055000D01*
X140055000Y-114055000D02*
X141500000Y-115500000D01*
X137057500Y-113447500D02*
X137665000Y-114055000D01*
X144198628Y-115500000D02*
X145468628Y-116770000D01*
X145468628Y-116770000D02*
X146200000Y-116770000D01*
X137057500Y-112070000D02*
X137057500Y-113447500D01*
X136422500Y-112070000D02*
X136422500Y-111110000D01*
X136522500Y-111010000D02*
X137547500Y-111010000D01*
X138095000Y-113655000D02*
X140075685Y-113655000D01*
X137547500Y-113107500D02*
X138095000Y-113655000D01*
X145378044Y-116270000D02*
X146200000Y-116270000D01*
X140075685Y-113655000D02*
X140310000Y-113889315D01*
X140310000Y-113889315D02*
X140310000Y-113900584D01*
X140310000Y-113900584D02*
X141619915Y-115210499D01*
X136422500Y-111110000D02*
X136522500Y-111010000D01*
X141619915Y-115210499D02*
X144318543Y-115210499D01*
X144318543Y-115210499D02*
X145378044Y-116270000D01*
X137547500Y-111010000D02*
X137547500Y-113107500D01*
X137693185Y-110590000D02*
X137947500Y-110844315D01*
X140241371Y-113255000D02*
X141907369Y-114920998D01*
X144438458Y-114920998D02*
X145287460Y-115770000D01*
X136307500Y-110590000D02*
X137693185Y-110590000D01*
X138260686Y-113255000D02*
X140241371Y-113255000D01*
X145287460Y-115770000D02*
X146200000Y-115770000D01*
X135787500Y-111110000D02*
X136307500Y-110590000D01*
X137947500Y-112941814D02*
X138260686Y-113255000D01*
X141907369Y-114920998D02*
X144438458Y-114920998D01*
X135787500Y-112070000D02*
X135787500Y-111110000D01*
X137947500Y-110844315D02*
X137947500Y-112941814D01*
X135860000Y-106240000D02*
X135600000Y-106500000D01*
X135600000Y-106500000D02*
X133150000Y-106500000D01*
X131520000Y-106970000D02*
X132570000Y-105920000D01*
X140550000Y-106240000D02*
X140690000Y-106100000D01*
X139950000Y-106240000D02*
X141088000Y-107378000D01*
X131520000Y-107100000D02*
X131520000Y-106970000D01*
X139950000Y-106240000D02*
X140550000Y-106240000D01*
X139950000Y-106240000D02*
X135860000Y-106240000D01*
X141088000Y-107378000D02*
X141088000Y-107595000D01*
X133150000Y-106500000D02*
X132570000Y-105920000D01*
D34*
X148235499Y-109434501D02*
X143045499Y-109434501D01*
X143045499Y-109434501D02*
X141650000Y-110830000D01*
X150020000Y-105120000D02*
X148000000Y-103100000D01*
D31*
X140660000Y-109973000D02*
X140963000Y-109670000D01*
D30*
X131712500Y-110910000D02*
X131977500Y-111175000D01*
D34*
X150020000Y-107650000D02*
X148235499Y-109434501D01*
D30*
X131977500Y-111175000D02*
X131977500Y-112070000D01*
D31*
X140963000Y-109670000D02*
X141088000Y-109670000D01*
D34*
X133222685Y-103100000D02*
X129360000Y-106962685D01*
X129360000Y-106962685D02*
X129360000Y-110237818D01*
D30*
X130600000Y-110910000D02*
X131712500Y-110910000D01*
D31*
X140660000Y-110830000D02*
X139750000Y-110830000D01*
D34*
X150020000Y-107650000D02*
X150020000Y-105120000D01*
X130032182Y-110910000D02*
X130600000Y-110910000D01*
X148000000Y-103100000D02*
X133222685Y-103100000D01*
D31*
X140660000Y-110830000D02*
X140660000Y-109973000D01*
D34*
X129360000Y-110237818D02*
X130032182Y-110910000D01*
D31*
X141650000Y-110830000D02*
X140660000Y-110830000D01*
D30*
X141088000Y-108895000D02*
X144645000Y-108895000D01*
X141710000Y-106100000D02*
X143180000Y-106100000D01*
X143180000Y-106100000D02*
X145310000Y-108230000D01*
X144645000Y-108895000D02*
X145310000Y-108230000D01*
D28*
X134274500Y-107595000D02*
X135212000Y-107595000D01*
X129910000Y-107910000D02*
X133959500Y-107910000D01*
X134107500Y-110700000D02*
X132427500Y-110700000D01*
X129910000Y-107560000D02*
X131550000Y-105920000D01*
X132427500Y-110700000D02*
X129910000Y-108182500D01*
X133959500Y-107910000D02*
X134274500Y-107595000D01*
X134517500Y-111110000D02*
X134107500Y-110700000D01*
X129910000Y-108182500D02*
X129910000Y-107910000D01*
X129910000Y-107910000D02*
X129910000Y-107560000D01*
X134517500Y-112070000D02*
X134517500Y-111110000D01*
X121582500Y-81730000D02*
X121582500Y-109143630D01*
X119562500Y-111163630D02*
X119562500Y-113020000D01*
X120322500Y-113020000D02*
X120577500Y-112765000D01*
X119562500Y-113020000D02*
X120322500Y-113020000D01*
X121582500Y-109143630D02*
X119562500Y-111163630D01*
X120577500Y-112765000D02*
X120577500Y-112070000D01*
X122217500Y-108918046D02*
X119942500Y-111193046D01*
X119942500Y-111193046D02*
X119942500Y-112070000D01*
X122217500Y-81730000D02*
X122217500Y-108918046D01*
X118982999Y-110924299D02*
X118982999Y-113259331D01*
X118982999Y-113259331D02*
X119323169Y-113599501D01*
X121400499Y-113599501D02*
X121847500Y-113152500D01*
X120312500Y-109594798D02*
X118982999Y-110924299D01*
X121847500Y-113152500D02*
X121847500Y-112070000D01*
X120312500Y-81730000D02*
X120312500Y-109594798D01*
X119323169Y-113599501D02*
X121400499Y-113599501D01*
X119272500Y-113139416D02*
X119443084Y-113310000D01*
X119443084Y-113310000D02*
X121177500Y-113310000D01*
X121212500Y-113275000D02*
X121212500Y-112070000D01*
X121177500Y-113310000D02*
X121212500Y-113275000D01*
X119272500Y-111044214D02*
X119272500Y-113139416D01*
X120947500Y-81730000D02*
X120947500Y-109369214D01*
X120947500Y-109369214D02*
X119272500Y-111044214D01*
X118351502Y-113446666D02*
X119104836Y-114200000D01*
X119042500Y-110002336D02*
X118351502Y-110693334D01*
X122100000Y-114200000D02*
X123117500Y-113182500D01*
X123117500Y-113182500D02*
X123117500Y-112070000D01*
X119104836Y-114200000D02*
X122100000Y-114200000D01*
X119042500Y-81730000D02*
X119042500Y-110002336D01*
X118351502Y-110693334D02*
X118351502Y-113446666D01*
X122482500Y-113030000D02*
X122482500Y-112070000D01*
X119677500Y-81730000D02*
X119677500Y-109820382D01*
X119677500Y-109820382D02*
X118692999Y-110804883D01*
X119203753Y-113889501D02*
X121622999Y-113889501D01*
X121622999Y-113889501D02*
X122482500Y-113030000D01*
X118692999Y-110804883D02*
X118692999Y-113378747D01*
X118692999Y-113378747D02*
X119203753Y-113889501D01*
X116910000Y-116955122D02*
X117079878Y-117125000D01*
X116910000Y-113998004D02*
X116910000Y-116955122D01*
X117772500Y-113135504D02*
X116910000Y-113998004D01*
X124387500Y-113481168D02*
X124387500Y-112070000D01*
X117772500Y-81730000D02*
X117772500Y-113135504D01*
X117079878Y-117125000D02*
X120743668Y-117125000D01*
X120743668Y-117125000D02*
X124387500Y-113481168D01*
X118062001Y-110573419D02*
X118062001Y-113255419D01*
X119947500Y-116835000D02*
X123752500Y-113030000D01*
X118407500Y-81730000D02*
X118407500Y-110227920D01*
X117200000Y-114117420D02*
X117200000Y-116835000D01*
X117200000Y-116835000D02*
X119947500Y-116835000D01*
X118062001Y-113255419D02*
X117200000Y-114117420D01*
X123752500Y-113030000D02*
X123752500Y-112070000D01*
X118407500Y-110227920D02*
X118062001Y-110573419D01*
X116502500Y-81730000D02*
X116330000Y-81902500D01*
X116330000Y-117195366D02*
X116934634Y-117800000D01*
X120887500Y-117800000D02*
X125657500Y-113030000D01*
X125657500Y-113030000D02*
X125657500Y-112070000D01*
X116330000Y-81902500D02*
X116330000Y-117195366D01*
X116934634Y-117800000D02*
X120887500Y-117800000D01*
X117044756Y-117500000D02*
X120778084Y-117500000D01*
X116620000Y-113878588D02*
X116620000Y-117075244D01*
X120778084Y-117500000D02*
X125022500Y-113255584D01*
X116620000Y-117075244D02*
X117044756Y-117500000D01*
X125022500Y-113255584D02*
X125022500Y-112070000D01*
X117137500Y-113361088D02*
X116620000Y-113878588D01*
X117137500Y-81730000D02*
X117137500Y-113361088D01*
%TA.AperFunction,Conductor*%
G36*
X136433691Y-71844407D02*
G01*
X136469655Y-71893907D01*
X136474500Y-71924500D01*
X136474500Y-72791714D01*
X136474500Y-72791715D01*
X136474500Y-72800000D01*
X136474500Y-72869183D01*
X136510312Y-73002836D01*
X136579495Y-73122665D01*
X136677335Y-73220505D01*
X136797164Y-73289688D01*
X136930817Y-73325500D01*
X136930818Y-73325500D01*
X137069182Y-73325500D01*
X137069183Y-73325500D01*
X137202836Y-73289688D01*
X137322665Y-73220505D01*
X137420505Y-73122665D01*
X137489688Y-73002836D01*
X137517543Y-72898875D01*
X137550867Y-72847563D01*
X137607989Y-72825636D01*
X137613170Y-72825500D01*
X139494928Y-72825500D01*
X152375500Y-72825500D01*
X152433691Y-72844407D01*
X152469655Y-72893907D01*
X152474500Y-72924500D01*
X152474500Y-120475500D01*
X152455593Y-120533691D01*
X152406093Y-120569655D01*
X152375500Y-120574500D01*
X149113170Y-120574500D01*
X149054979Y-120555593D01*
X149019015Y-120506093D01*
X149017548Y-120501142D01*
X148989688Y-120397164D01*
X148920505Y-120277335D01*
X148835727Y-120192557D01*
X148807952Y-120138043D01*
X148817523Y-120077611D01*
X148860788Y-120034346D01*
X148905733Y-120023556D01*
X149022444Y-120023556D01*
X149080635Y-120042463D01*
X149087269Y-120047732D01*
X149106595Y-120064478D01*
X149141639Y-120094844D01*
X149150910Y-120104013D01*
X149172322Y-120128182D01*
X149207743Y-120152631D01*
X149211401Y-120155293D01*
X149213544Y-120157150D01*
X149245471Y-120178674D01*
X149312322Y-120224818D01*
X149312324Y-120224818D01*
X149315535Y-120227035D01*
X149319201Y-120228379D01*
X149319205Y-120228382D01*
X149395449Y-120256343D01*
X149471380Y-120285140D01*
X149471383Y-120285140D01*
X149475037Y-120286526D01*
X149478915Y-120286953D01*
X149478916Y-120286954D01*
X149529004Y-120292478D01*
X149559641Y-120295857D01*
X149564636Y-120296463D01*
X149597880Y-120300500D01*
X149600721Y-120300500D01*
X149605221Y-120300883D01*
X149636722Y-120304358D01*
X149648001Y-120305602D01*
X149648001Y-120305601D01*
X149648002Y-120305602D01*
X149680004Y-120301359D01*
X149693017Y-120300500D01*
X150608638Y-120300500D01*
X150614616Y-120300681D01*
X150675398Y-120304358D01*
X150675398Y-120304357D01*
X150675399Y-120304358D01*
X150735327Y-120293375D01*
X150741212Y-120292479D01*
X150801665Y-120285140D01*
X150813265Y-120280740D01*
X150830507Y-120275933D01*
X150842725Y-120273695D01*
X150898292Y-120248685D01*
X150903767Y-120246417D01*
X150960723Y-120224818D01*
X150970934Y-120217768D01*
X150986542Y-120208966D01*
X150997850Y-120203878D01*
X151045793Y-120166315D01*
X151050606Y-120162775D01*
X151100722Y-120128183D01*
X151141121Y-120082580D01*
X151145170Y-120078278D01*
X151708278Y-119515170D01*
X151712580Y-119511121D01*
X151758183Y-119470722D01*
X151792778Y-119420600D01*
X151796321Y-119415787D01*
X151826275Y-119377554D01*
X151833878Y-119367850D01*
X151838970Y-119356533D01*
X151847766Y-119340938D01*
X151854818Y-119330723D01*
X151876410Y-119273786D01*
X151878699Y-119268259D01*
X151893585Y-119235185D01*
X151903694Y-119212725D01*
X151905929Y-119200524D01*
X151910742Y-119183261D01*
X151915140Y-119171664D01*
X151922483Y-119111186D01*
X151923373Y-119105331D01*
X151934357Y-119045399D01*
X151930680Y-118984625D01*
X151930500Y-118978649D01*
X151930500Y-114634142D01*
X151930681Y-114628164D01*
X151932105Y-114604632D01*
X151933746Y-114577500D01*
X151934357Y-114567395D01*
X151934357Y-114567394D01*
X151923373Y-114507456D01*
X151922483Y-114501605D01*
X151915140Y-114441128D01*
X151910742Y-114429532D01*
X151905929Y-114412268D01*
X151903694Y-114400068D01*
X151885831Y-114360378D01*
X151878701Y-114344536D01*
X151876412Y-114339010D01*
X151868620Y-114318464D01*
X151854818Y-114282070D01*
X151851159Y-114276769D01*
X151847767Y-114271854D01*
X151838962Y-114256242D01*
X151833878Y-114244945D01*
X151833877Y-114244944D01*
X151833877Y-114244943D01*
X151796326Y-114197013D01*
X151792783Y-114192197D01*
X151758182Y-114142069D01*
X151712601Y-114101688D01*
X151708246Y-114097590D01*
X150308048Y-112697391D01*
X150280271Y-112642874D01*
X150279916Y-112615821D01*
X150279865Y-112616348D01*
X150279913Y-112615601D01*
X150279899Y-112614465D01*
X150280500Y-112609901D01*
X150280499Y-112190100D01*
X150273972Y-112140513D01*
X150223224Y-112031684D01*
X150138316Y-111946776D01*
X150138314Y-111946775D01*
X150138313Y-111946774D01*
X150029488Y-111896028D01*
X149983114Y-111889923D01*
X149979901Y-111889500D01*
X149976660Y-111889500D01*
X149623342Y-111889500D01*
X149623326Y-111889500D01*
X149620100Y-111889501D01*
X149616894Y-111889922D01*
X149616893Y-111889923D01*
X149562509Y-111897081D01*
X149502348Y-111885928D01*
X149479587Y-111868931D01*
X149449495Y-111838838D01*
X149421719Y-111784323D01*
X149420500Y-111768836D01*
X149420500Y-110944943D01*
X149411717Y-110909311D01*
X149409562Y-110897558D01*
X149405140Y-110861128D01*
X149405139Y-110861126D01*
X149405139Y-110861124D01*
X149392127Y-110826814D01*
X149388572Y-110815409D01*
X149379790Y-110779775D01*
X149362737Y-110747283D01*
X149357830Y-110736381D01*
X149344818Y-110702070D01*
X149323968Y-110671864D01*
X149317786Y-110661638D01*
X149300734Y-110629148D01*
X149300732Y-110629146D01*
X149300732Y-110629145D01*
X149276404Y-110601684D01*
X149269033Y-110592276D01*
X149248184Y-110562072D01*
X149220715Y-110537737D01*
X149212261Y-110529283D01*
X149203471Y-110519361D01*
X149187929Y-110501817D01*
X149157718Y-110480963D01*
X149148319Y-110473599D01*
X149120852Y-110449266D01*
X149120850Y-110449265D01*
X149120848Y-110449263D01*
X149088363Y-110432213D01*
X149078134Y-110426030D01*
X149047927Y-110405180D01*
X149013615Y-110392167D01*
X149002714Y-110387261D01*
X148970226Y-110370210D01*
X148934589Y-110361426D01*
X148923179Y-110357870D01*
X148888873Y-110344860D01*
X148852442Y-110340436D01*
X148840689Y-110338282D01*
X148805056Y-110329500D01*
X148805054Y-110329500D01*
X147386903Y-110329500D01*
X147328712Y-110310593D01*
X147304587Y-110285501D01*
X147304552Y-110285448D01*
X147238231Y-110241133D01*
X147179748Y-110229500D01*
X143440252Y-110229500D01*
X143434310Y-110230682D01*
X143381768Y-110241133D01*
X143315447Y-110285447D01*
X143271133Y-110351768D01*
X143269942Y-110357757D01*
X143259500Y-110410252D01*
X143259500Y-111649748D01*
X143271133Y-111708230D01*
X143271133Y-111708231D01*
X143315447Y-111774552D01*
X143346764Y-111795477D01*
X143381769Y-111818867D01*
X143440252Y-111830500D01*
X143440253Y-111830500D01*
X147179747Y-111830500D01*
X147179748Y-111830500D01*
X147238231Y-111818867D01*
X147304552Y-111774552D01*
X147304587Y-111774498D01*
X147352637Y-111736619D01*
X147386903Y-111730500D01*
X147920500Y-111730500D01*
X147978691Y-111749407D01*
X148014655Y-111798907D01*
X148019500Y-111829500D01*
X148019500Y-112075844D01*
X148019319Y-112081822D01*
X148015641Y-112142604D01*
X148026622Y-112202529D01*
X148027521Y-112208437D01*
X148034860Y-112268873D01*
X148039256Y-112280465D01*
X148044067Y-112297721D01*
X148046305Y-112309932D01*
X148071302Y-112365473D01*
X148073581Y-112370974D01*
X148088465Y-112410219D01*
X148095182Y-112427931D01*
X148102228Y-112438138D01*
X148111031Y-112453746D01*
X148116121Y-112465056D01*
X148153676Y-112512991D01*
X148157220Y-112517807D01*
X148191818Y-112567931D01*
X148237398Y-112608311D01*
X148241752Y-112612409D01*
X148604691Y-112975347D01*
X148604710Y-112975367D01*
X149560825Y-113931482D01*
X150500504Y-114871160D01*
X150528281Y-114925677D01*
X150529500Y-114941164D01*
X150529500Y-115499124D01*
X150510593Y-115557315D01*
X150461093Y-115593279D01*
X150399907Y-115593279D01*
X150360497Y-115569128D01*
X149894963Y-115103595D01*
X149885542Y-115090501D01*
X149845669Y-115054152D01*
X149842363Y-115050995D01*
X149829192Y-115037825D01*
X149829093Y-115037757D01*
X149818350Y-115029247D01*
X149797330Y-115010085D01*
X149797329Y-115010084D01*
X149788158Y-115006531D01*
X149767983Y-114995896D01*
X149759877Y-114990344D01*
X149732193Y-114983832D01*
X149719100Y-114979777D01*
X149692571Y-114969500D01*
X149692569Y-114969500D01*
X149682744Y-114969500D01*
X149660078Y-114966870D01*
X149650515Y-114964621D01*
X149650514Y-114964621D01*
X149622343Y-114968551D01*
X149608665Y-114969500D01*
X148815682Y-114969500D01*
X148760679Y-114952814D01*
X148744497Y-114942001D01*
X148706618Y-114893950D01*
X148700500Y-114859687D01*
X148700500Y-114429065D01*
X148693045Y-114406122D01*
X148689418Y-114391014D01*
X148685646Y-114367195D01*
X148674694Y-114345702D01*
X148668748Y-114331346D01*
X148661297Y-114308412D01*
X148661296Y-114308410D01*
X148647107Y-114288881D01*
X148639006Y-114275661D01*
X148628050Y-114254158D01*
X148605486Y-114231594D01*
X148605484Y-114231591D01*
X148566090Y-114192197D01*
X148539495Y-114165601D01*
X148511718Y-114111084D01*
X148510499Y-114095598D01*
X148510499Y-114015842D01*
X148510499Y-114012600D01*
X148503972Y-113963013D01*
X148453224Y-113854184D01*
X148368316Y-113769276D01*
X148368314Y-113769275D01*
X148368313Y-113769274D01*
X148259488Y-113718528D01*
X148213114Y-113712423D01*
X148209901Y-113712000D01*
X148206660Y-113712000D01*
X147793342Y-113712000D01*
X147793326Y-113712000D01*
X147790100Y-113712001D01*
X147786892Y-113712423D01*
X147786880Y-113712424D01*
X147740513Y-113718527D01*
X147615864Y-113776653D01*
X147614962Y-113774719D01*
X147583440Y-113790781D01*
X147567953Y-113792000D01*
X147444547Y-113792000D01*
X147386356Y-113773093D01*
X147374549Y-113763009D01*
X147368316Y-113756776D01*
X147368314Y-113756775D01*
X147368313Y-113756774D01*
X147259488Y-113706028D01*
X147213114Y-113699923D01*
X147209901Y-113699500D01*
X147206660Y-113699500D01*
X146793342Y-113699500D01*
X146793326Y-113699500D01*
X146790100Y-113699501D01*
X146786892Y-113699923D01*
X146786880Y-113699924D01*
X146740513Y-113706027D01*
X146615864Y-113764153D01*
X146614962Y-113762219D01*
X146583440Y-113778281D01*
X146567953Y-113779500D01*
X146432047Y-113779500D01*
X146384225Y-113763962D01*
X146384137Y-113764153D01*
X146382584Y-113763428D01*
X146373856Y-113760593D01*
X146370673Y-113757874D01*
X146259488Y-113706028D01*
X146213114Y-113699923D01*
X146209901Y-113699500D01*
X146206660Y-113699500D01*
X145793342Y-113699500D01*
X145793326Y-113699500D01*
X145790100Y-113699501D01*
X145786892Y-113699923D01*
X145786880Y-113699924D01*
X145740513Y-113706027D01*
X145631685Y-113756775D01*
X145546774Y-113841686D01*
X145496028Y-113950511D01*
X145489923Y-113996885D01*
X145489500Y-114000099D01*
X145489500Y-114003338D01*
X145489500Y-114003339D01*
X145489500Y-114356657D01*
X145489500Y-114356672D01*
X145489501Y-114359900D01*
X145489923Y-114363108D01*
X145489924Y-114363119D01*
X145496027Y-114409486D01*
X145510782Y-114441127D01*
X145546776Y-114518316D01*
X145631684Y-114603224D01*
X145740513Y-114653972D01*
X145740517Y-114653972D01*
X145742339Y-114654822D01*
X145787087Y-114696550D01*
X145799500Y-114744547D01*
X145799500Y-114859687D01*
X145780593Y-114917878D01*
X145755502Y-114942002D01*
X145705447Y-114975447D01*
X145661133Y-115041768D01*
X145649500Y-115100253D01*
X145649500Y-115370500D01*
X145630593Y-115428691D01*
X145581093Y-115464655D01*
X145550500Y-115469500D01*
X145452939Y-115469500D01*
X145394748Y-115450593D01*
X145382935Y-115440504D01*
X144697024Y-114754593D01*
X144687603Y-114741499D01*
X144647731Y-114705150D01*
X144644425Y-114701993D01*
X144631254Y-114688823D01*
X144631155Y-114688755D01*
X144620412Y-114680245D01*
X144605304Y-114666472D01*
X144599391Y-114661082D01*
X144590220Y-114657529D01*
X144570045Y-114646894D01*
X144561939Y-114641342D01*
X144534255Y-114634830D01*
X144521162Y-114630775D01*
X144494633Y-114620498D01*
X144494631Y-114620498D01*
X144484806Y-114620498D01*
X144462140Y-114617868D01*
X144452577Y-114615619D01*
X144452576Y-114615619D01*
X144424405Y-114619549D01*
X144410727Y-114620498D01*
X142072848Y-114620498D01*
X142014657Y-114601591D01*
X142002844Y-114591502D01*
X140499937Y-113088595D01*
X140490516Y-113075501D01*
X140471349Y-113058028D01*
X140450644Y-113039152D01*
X140447338Y-113035995D01*
X140434167Y-113022825D01*
X140434068Y-113022757D01*
X140423325Y-113014247D01*
X140402305Y-112995085D01*
X140402304Y-112995084D01*
X140393133Y-112991531D01*
X140372958Y-112980896D01*
X140364852Y-112975344D01*
X140337168Y-112968832D01*
X140324075Y-112964777D01*
X140297546Y-112954500D01*
X140297544Y-112954500D01*
X140287719Y-112954500D01*
X140265053Y-112951870D01*
X140255490Y-112949621D01*
X140255489Y-112949621D01*
X140227318Y-112953551D01*
X140213640Y-112954500D01*
X138426165Y-112954500D01*
X138367974Y-112935593D01*
X138356161Y-112925503D01*
X138276996Y-112846337D01*
X138249219Y-112791820D01*
X138248000Y-112776334D01*
X138248000Y-110909482D01*
X138250597Y-110893562D01*
X138249177Y-110862853D01*
X138248106Y-110839673D01*
X138248000Y-110835101D01*
X138248000Y-110816471D01*
X138247980Y-110816365D01*
X138246398Y-110802745D01*
X138245085Y-110774324D01*
X138241114Y-110765331D01*
X138234366Y-110743540D01*
X138232561Y-110733882D01*
X138217586Y-110709696D01*
X138211193Y-110697566D01*
X138199706Y-110671549D01*
X138192756Y-110664599D01*
X138178590Y-110646714D01*
X138173419Y-110638363D01*
X138150721Y-110621222D01*
X138140379Y-110612223D01*
X137951751Y-110423595D01*
X137942330Y-110410501D01*
X137936495Y-110405182D01*
X137902458Y-110374152D01*
X137899152Y-110370995D01*
X137885981Y-110357825D01*
X137885882Y-110357757D01*
X137875139Y-110349247D01*
X137870198Y-110344743D01*
X137854118Y-110330084D01*
X137844947Y-110326531D01*
X137824772Y-110315896D01*
X137816666Y-110310344D01*
X137788982Y-110303832D01*
X137775889Y-110299777D01*
X137749360Y-110289500D01*
X137749358Y-110289500D01*
X137739533Y-110289500D01*
X137716867Y-110286870D01*
X137707304Y-110284621D01*
X137707303Y-110284621D01*
X137679132Y-110288551D01*
X137665454Y-110289500D01*
X136372665Y-110289500D01*
X136356744Y-110286902D01*
X136302858Y-110289394D01*
X136298286Y-110289500D01*
X136279654Y-110289500D01*
X136279531Y-110289523D01*
X136265920Y-110291101D01*
X136237508Y-110292414D01*
X136228515Y-110296385D01*
X136206728Y-110303132D01*
X136197066Y-110304938D01*
X136172881Y-110319912D01*
X136160761Y-110326301D01*
X136134734Y-110337794D01*
X136127785Y-110344743D01*
X136109908Y-110358904D01*
X136101547Y-110364081D01*
X136084407Y-110386777D01*
X136075410Y-110397117D01*
X135621089Y-110851438D01*
X135607997Y-110860859D01*
X135571641Y-110900737D01*
X135568489Y-110904038D01*
X135555325Y-110917203D01*
X135555254Y-110917307D01*
X135546756Y-110928034D01*
X135527583Y-110949067D01*
X135524030Y-110958238D01*
X135513395Y-110978414D01*
X135507843Y-110986519D01*
X135501330Y-111014207D01*
X135497276Y-111027299D01*
X135488097Y-111050993D01*
X135449446Y-111098424D01*
X135390297Y-111114078D01*
X135376471Y-111112328D01*
X135362251Y-111109500D01*
X135362248Y-111109500D01*
X134942752Y-111109500D01*
X134942751Y-111109500D01*
X134931424Y-111111753D01*
X134870663Y-111104561D01*
X134825733Y-111063027D01*
X134821547Y-111054645D01*
X134815085Y-111040010D01*
X134815085Y-111040009D01*
X134811114Y-111031016D01*
X134804366Y-111009225D01*
X134802561Y-110999567D01*
X134802560Y-110999565D01*
X134787586Y-110975381D01*
X134781193Y-110963251D01*
X134769706Y-110937234D01*
X134762756Y-110930284D01*
X134748590Y-110912399D01*
X134743419Y-110904048D01*
X134720721Y-110886907D01*
X134710379Y-110877908D01*
X134366066Y-110533595D01*
X134356645Y-110520501D01*
X134316773Y-110484152D01*
X134313467Y-110480995D01*
X134300296Y-110467825D01*
X134300197Y-110467757D01*
X134289454Y-110459247D01*
X134268434Y-110440085D01*
X134268433Y-110440084D01*
X134259262Y-110436531D01*
X134239087Y-110425896D01*
X134230981Y-110420344D01*
X134203297Y-110413832D01*
X134190204Y-110409777D01*
X134163675Y-110399500D01*
X134163673Y-110399500D01*
X134153848Y-110399500D01*
X134131182Y-110396870D01*
X134121619Y-110394621D01*
X134121618Y-110394621D01*
X134093447Y-110398551D01*
X134079769Y-110399500D01*
X132592979Y-110399500D01*
X132534788Y-110380593D01*
X132522975Y-110370504D01*
X130531975Y-108379504D01*
X130504198Y-108324987D01*
X130513769Y-108264555D01*
X130557034Y-108221290D01*
X130601979Y-108210500D01*
X133894335Y-108210500D01*
X133910255Y-108213097D01*
X133917264Y-108212772D01*
X133917265Y-108212773D01*
X133964141Y-108210606D01*
X133968714Y-108210500D01*
X133987344Y-108210500D01*
X133987451Y-108210480D01*
X134001071Y-108208898D01*
X134029492Y-108207585D01*
X134038482Y-108203615D01*
X134060272Y-108196866D01*
X134069933Y-108195061D01*
X134094123Y-108180082D01*
X134106222Y-108173704D01*
X134132265Y-108162206D01*
X134139210Y-108155259D01*
X134157097Y-108141091D01*
X134165452Y-108135919D01*
X134182595Y-108113216D01*
X134191582Y-108102887D01*
X134272481Y-108021988D01*
X134326996Y-107994213D01*
X134387428Y-108003784D01*
X134396012Y-108008815D01*
X134396267Y-108008865D01*
X134396269Y-108008867D01*
X134454752Y-108020500D01*
X134454753Y-108020500D01*
X135969247Y-108020500D01*
X135969248Y-108020500D01*
X136027731Y-108008867D01*
X136094052Y-107964552D01*
X136138367Y-107898231D01*
X136150000Y-107839748D01*
X136150000Y-107350252D01*
X136138367Y-107291769D01*
X136111734Y-107251910D01*
X136094052Y-107225447D01*
X136027731Y-107181133D01*
X136023302Y-107180252D01*
X135969248Y-107169500D01*
X134454752Y-107169500D01*
X134425510Y-107175316D01*
X134396268Y-107181133D01*
X134329946Y-107225448D01*
X134312265Y-107251910D01*
X134264215Y-107289789D01*
X134248163Y-107294218D01*
X134246560Y-107294518D01*
X134232920Y-107296101D01*
X134204508Y-107297414D01*
X134195515Y-107301385D01*
X134173728Y-107308132D01*
X134164066Y-107309938D01*
X134139881Y-107324912D01*
X134127761Y-107331301D01*
X134101734Y-107342794D01*
X134094785Y-107349743D01*
X134076908Y-107363904D01*
X134068547Y-107369081D01*
X134051404Y-107391781D01*
X134042407Y-107402120D01*
X133864026Y-107580503D01*
X133809510Y-107608281D01*
X133794022Y-107609500D01*
X132032788Y-107609500D01*
X131974597Y-107590593D01*
X131938633Y-107541093D01*
X131938633Y-107479907D01*
X131943063Y-107468661D01*
X131943224Y-107468316D01*
X131993972Y-107359487D01*
X132000500Y-107309901D01*
X132000499Y-106955476D01*
X132019406Y-106897286D01*
X132029489Y-106885480D01*
X132445474Y-106469496D01*
X132499991Y-106441719D01*
X132515478Y-106440500D01*
X132624521Y-106440500D01*
X132682712Y-106459407D01*
X132694525Y-106469496D01*
X132891436Y-106666407D01*
X132900857Y-106679501D01*
X132940726Y-106715847D01*
X132944031Y-106719003D01*
X132957201Y-106732173D01*
X132957295Y-106732237D01*
X132968039Y-106740746D01*
X132989067Y-106759916D01*
X132993684Y-106761704D01*
X132998225Y-106763464D01*
X133018411Y-106774103D01*
X133026519Y-106779657D01*
X133054214Y-106786170D01*
X133067290Y-106790219D01*
X133093827Y-106800500D01*
X133103653Y-106800500D01*
X133126318Y-106803129D01*
X133135881Y-106805379D01*
X133164053Y-106801448D01*
X133177730Y-106800500D01*
X135534835Y-106800500D01*
X135550755Y-106803097D01*
X135557764Y-106802772D01*
X135557765Y-106802773D01*
X135604641Y-106800606D01*
X135609214Y-106800500D01*
X135627844Y-106800500D01*
X135627951Y-106800480D01*
X135641571Y-106798898D01*
X135669992Y-106797585D01*
X135678982Y-106793615D01*
X135700772Y-106786866D01*
X135710433Y-106785061D01*
X135734623Y-106770082D01*
X135746722Y-106763704D01*
X135772765Y-106752206D01*
X135779710Y-106745259D01*
X135797598Y-106731090D01*
X135805952Y-106725919D01*
X135823098Y-106703212D01*
X135832085Y-106692884D01*
X135930221Y-106594750D01*
X135955476Y-106569496D01*
X136009993Y-106541719D01*
X136025479Y-106540500D01*
X139784521Y-106540500D01*
X139842712Y-106559407D01*
X139854525Y-106569496D01*
X140303199Y-107018170D01*
X140330976Y-107072687D01*
X140321405Y-107133119D01*
X140288198Y-107170489D01*
X140205947Y-107225448D01*
X140161633Y-107291768D01*
X140158026Y-107309901D01*
X140150000Y-107350252D01*
X140150000Y-107839748D01*
X140161632Y-107898230D01*
X140161633Y-107898231D01*
X140205947Y-107964552D01*
X140250262Y-107994162D01*
X140272269Y-108008867D01*
X140330752Y-108020500D01*
X140330753Y-108020500D01*
X141845247Y-108020500D01*
X141845248Y-108020500D01*
X141903731Y-108008867D01*
X141970052Y-107964552D01*
X142014367Y-107898231D01*
X142026000Y-107839748D01*
X142026000Y-107350252D01*
X142014367Y-107291769D01*
X141987734Y-107251910D01*
X141970052Y-107225447D01*
X141903731Y-107181133D01*
X141899302Y-107180252D01*
X141845248Y-107169500D01*
X141845247Y-107169500D01*
X141345479Y-107169500D01*
X141287288Y-107150593D01*
X141275475Y-107140504D01*
X140901211Y-106766240D01*
X140873434Y-106711723D01*
X140883005Y-106651291D01*
X140926270Y-106608026D01*
X140929312Y-106606541D01*
X141020404Y-106564065D01*
X141104065Y-106480404D01*
X141110276Y-106467083D01*
X141152003Y-106422337D01*
X141212064Y-106410662D01*
X141267517Y-106436520D01*
X141289722Y-106467081D01*
X141295935Y-106480404D01*
X141379596Y-106564065D01*
X141486827Y-106614068D01*
X141535684Y-106620500D01*
X141538925Y-106620500D01*
X141881075Y-106620500D01*
X141884316Y-106620500D01*
X141933173Y-106614068D01*
X142040404Y-106564065D01*
X142063969Y-106540500D01*
X142074974Y-106529496D01*
X142129491Y-106501719D01*
X142144977Y-106500500D01*
X142973099Y-106500500D01*
X143031290Y-106519407D01*
X143043103Y-106529496D01*
X143774103Y-107260496D01*
X143801880Y-107315013D01*
X143792309Y-107375445D01*
X143749044Y-107418710D01*
X143704099Y-107429500D01*
X143440252Y-107429500D01*
X143411010Y-107435316D01*
X143381768Y-107441133D01*
X143315447Y-107485447D01*
X143271133Y-107551768D01*
X143265417Y-107580503D01*
X143259797Y-107608762D01*
X143259500Y-107610253D01*
X143259500Y-108395500D01*
X143240593Y-108453691D01*
X143191093Y-108489655D01*
X143160500Y-108494500D01*
X141953767Y-108494500D01*
X141921080Y-108484584D01*
X141903731Y-108481133D01*
X141845248Y-108469500D01*
X140330752Y-108469500D01*
X140301510Y-108475316D01*
X140272268Y-108481133D01*
X140205947Y-108525447D01*
X140161633Y-108591768D01*
X140150000Y-108650253D01*
X140150000Y-109139747D01*
X140162121Y-109200685D01*
X140162121Y-109239312D01*
X140150000Y-109300251D01*
X140150000Y-109739181D01*
X140146328Y-109765890D01*
X140145034Y-109770511D01*
X140138895Y-109792419D01*
X140135666Y-109802021D01*
X140120122Y-109841438D01*
X140118068Y-109861417D01*
X140114918Y-109877992D01*
X140109500Y-109897332D01*
X140109500Y-109939700D01*
X140108981Y-109949825D01*
X140104647Y-109991971D01*
X140108060Y-110011759D01*
X140109500Y-110028583D01*
X140109500Y-110180500D01*
X140090593Y-110238691D01*
X140041093Y-110274655D01*
X140010500Y-110279500D01*
X139712342Y-110279500D01*
X139709007Y-110279958D01*
X139708997Y-110279959D01*
X139600078Y-110294930D01*
X139538941Y-110321486D01*
X139478036Y-110327327D01*
X139425328Y-110296253D01*
X139400952Y-110240133D01*
X139400500Y-110230682D01*
X139400500Y-109925166D01*
X139403097Y-109909246D01*
X139400606Y-109855357D01*
X139400500Y-109850785D01*
X139400500Y-109832156D01*
X139400480Y-109832050D01*
X139398898Y-109818430D01*
X139397585Y-109790008D01*
X139393612Y-109781012D01*
X139386866Y-109759223D01*
X139385061Y-109749567D01*
X139378630Y-109739181D01*
X139370088Y-109725384D01*
X139363696Y-109713257D01*
X139352205Y-109687233D01*
X139345256Y-109680284D01*
X139331090Y-109662399D01*
X139325919Y-109654048D01*
X139303221Y-109636907D01*
X139292879Y-109627908D01*
X139043566Y-109378595D01*
X139034145Y-109365501D01*
X138994273Y-109329152D01*
X138990967Y-109325995D01*
X138977796Y-109312825D01*
X138977697Y-109312757D01*
X138966954Y-109304247D01*
X138945934Y-109285085D01*
X138945933Y-109285084D01*
X138936762Y-109281531D01*
X138916587Y-109270896D01*
X138908481Y-109265344D01*
X138880797Y-109258832D01*
X138867704Y-109254777D01*
X138841175Y-109244500D01*
X138841173Y-109244500D01*
X138831348Y-109244500D01*
X138808682Y-109241870D01*
X138799119Y-109239621D01*
X138799118Y-109239621D01*
X138770947Y-109243551D01*
X138757269Y-109244500D01*
X136193108Y-109244500D01*
X136134917Y-109225593D01*
X136110793Y-109200502D01*
X136094052Y-109175447D01*
X136027731Y-109131133D01*
X136000030Y-109125623D01*
X135969248Y-109119500D01*
X134454752Y-109119500D01*
X134432144Y-109123997D01*
X134396268Y-109131133D01*
X134329947Y-109175447D01*
X134285633Y-109241768D01*
X134282552Y-109257259D01*
X134274000Y-109300252D01*
X134274000Y-109789748D01*
X134283184Y-109835919D01*
X134285633Y-109848231D01*
X134329947Y-109914552D01*
X134367584Y-109939700D01*
X134396269Y-109958867D01*
X134454752Y-109970500D01*
X134454753Y-109970500D01*
X135969247Y-109970500D01*
X135969248Y-109970500D01*
X136027731Y-109958867D01*
X136094052Y-109914552D01*
X136105558Y-109897332D01*
X136110793Y-109889498D01*
X136158843Y-109851619D01*
X136193108Y-109845500D01*
X138619521Y-109845500D01*
X138677712Y-109864407D01*
X138689525Y-109874496D01*
X138770504Y-109955475D01*
X138798281Y-110009992D01*
X138799500Y-110025479D01*
X138799500Y-111164834D01*
X138796902Y-111180758D01*
X138799394Y-111234641D01*
X138799500Y-111239213D01*
X138799500Y-111257845D01*
X138799521Y-111257958D01*
X138801101Y-111271578D01*
X138802414Y-111299991D01*
X138806384Y-111308982D01*
X138813132Y-111330773D01*
X138814938Y-111340432D01*
X138829911Y-111364616D01*
X138836300Y-111376736D01*
X138847794Y-111402765D01*
X138847795Y-111402766D01*
X138854743Y-111409715D01*
X138868910Y-111427600D01*
X138874081Y-111435953D01*
X138896776Y-111453090D01*
X138907120Y-111462091D01*
X139170503Y-111725473D01*
X139198281Y-111779990D01*
X139199500Y-111795477D01*
X139199500Y-112024316D01*
X139199923Y-112027529D01*
X139205932Y-112073174D01*
X139255933Y-112180401D01*
X139255934Y-112180402D01*
X139255935Y-112180404D01*
X139339596Y-112264065D01*
X139339597Y-112264065D01*
X139339598Y-112264066D01*
X139452796Y-112316852D01*
X139488374Y-112348460D01*
X139516772Y-112369904D01*
X139527117Y-112378905D01*
X139684619Y-112536407D01*
X139694040Y-112549501D01*
X139699224Y-112554227D01*
X139699225Y-112554228D01*
X139714254Y-112567929D01*
X139733909Y-112585847D01*
X139737214Y-112589003D01*
X139750384Y-112602173D01*
X139750478Y-112602237D01*
X139761222Y-112610746D01*
X139782250Y-112629916D01*
X139791413Y-112633465D01*
X139811596Y-112644103D01*
X139819702Y-112649656D01*
X139847394Y-112656169D01*
X139860481Y-112660222D01*
X139887010Y-112670500D01*
X139896835Y-112670500D01*
X139919500Y-112673129D01*
X139929064Y-112675379D01*
X139957236Y-112671448D01*
X139970914Y-112670500D01*
X141466521Y-112670500D01*
X141524712Y-112689407D01*
X141536525Y-112699496D01*
X141814929Y-112977900D01*
X141842706Y-113032417D01*
X141843867Y-113051283D01*
X141839237Y-113186824D01*
X141874496Y-113331509D01*
X141876463Y-113342022D01*
X141877931Y-113353172D01*
X141927933Y-113460401D01*
X141927934Y-113460402D01*
X141927935Y-113460404D01*
X142011596Y-113544065D01*
X142024606Y-113550132D01*
X142055117Y-113572282D01*
X142091317Y-113611042D01*
X142091319Y-113611043D01*
X142091320Y-113611044D01*
X142106485Y-113620266D01*
X142127519Y-113633057D01*
X142135900Y-113638761D01*
X142169658Y-113664361D01*
X142188340Y-113671728D01*
X142203461Y-113679239D01*
X142220616Y-113689671D01*
X142220618Y-113689672D01*
X142261422Y-113701104D01*
X142271010Y-113704328D01*
X142310436Y-113719876D01*
X142330415Y-113721929D01*
X142346992Y-113725080D01*
X142366335Y-113730500D01*
X142408700Y-113730500D01*
X142418823Y-113731018D01*
X142427783Y-113731940D01*
X142460971Y-113735352D01*
X142460971Y-113735351D01*
X142460972Y-113735352D01*
X142480763Y-113731939D01*
X142497583Y-113730500D01*
X143464279Y-113730500D01*
X143467658Y-113730500D01*
X143579920Y-113715070D01*
X143718720Y-113654780D01*
X143750787Y-113628690D01*
X143771419Y-113615765D01*
X143798316Y-113603224D01*
X143883224Y-113518316D01*
X143914914Y-113450353D01*
X143923268Y-113435952D01*
X143923375Y-113435648D01*
X143923377Y-113435647D01*
X143926941Y-113425616D01*
X143930505Y-113416920D01*
X143935003Y-113407276D01*
X143938240Y-113393825D01*
X143974054Y-113293056D01*
X143977064Y-113249055D01*
X143984381Y-113142079D01*
X143972764Y-113086173D01*
X143953593Y-112993917D01*
X143942934Y-112973346D01*
X143939451Y-112962263D01*
X143914255Y-112908231D01*
X143883224Y-112841684D01*
X143798316Y-112756776D01*
X143798314Y-112756775D01*
X143798313Y-112756774D01*
X143782778Y-112749530D01*
X143773178Y-112744393D01*
X143651384Y-112670328D01*
X143553397Y-112642874D01*
X143505665Y-112629500D01*
X143505664Y-112629500D01*
X142642231Y-112629500D01*
X142605913Y-112622598D01*
X142590064Y-112616348D01*
X142523564Y-112590124D01*
X142373028Y-112574648D01*
X142373027Y-112574648D01*
X142373026Y-112574648D01*
X142328551Y-112582315D01*
X142267994Y-112573568D01*
X142241729Y-112554758D01*
X141890566Y-112203595D01*
X141881145Y-112190501D01*
X141870069Y-112180404D01*
X141841273Y-112154152D01*
X141837967Y-112150995D01*
X141824796Y-112137825D01*
X141824697Y-112137757D01*
X141813954Y-112129247D01*
X141792934Y-112110085D01*
X141792933Y-112110084D01*
X141783762Y-112106531D01*
X141763587Y-112095896D01*
X141755481Y-112090344D01*
X141727797Y-112083832D01*
X141714704Y-112079777D01*
X141688175Y-112069500D01*
X141688173Y-112069500D01*
X141678348Y-112069500D01*
X141655682Y-112066870D01*
X141646119Y-112064621D01*
X141646118Y-112064621D01*
X141617947Y-112068551D01*
X141604269Y-112069500D01*
X140339500Y-112069500D01*
X140281309Y-112050593D01*
X140245345Y-112001093D01*
X140240500Y-111970500D01*
X140240500Y-111678924D01*
X140240500Y-111675684D01*
X140234068Y-111626827D01*
X140184878Y-111521339D01*
X140177421Y-111460610D01*
X140207084Y-111407096D01*
X140262537Y-111381238D01*
X140274602Y-111380500D01*
X140584335Y-111380500D01*
X140637803Y-111380500D01*
X140644559Y-111380731D01*
X140697920Y-111384381D01*
X140697920Y-111384380D01*
X140697921Y-111384381D01*
X140702304Y-111383470D01*
X140706632Y-111382571D01*
X140726775Y-111380500D01*
X141684279Y-111380500D01*
X141687658Y-111380500D01*
X141799920Y-111365070D01*
X141938720Y-111304780D01*
X141970787Y-111278690D01*
X141991419Y-111265765D01*
X142018316Y-111253224D01*
X142103224Y-111168316D01*
X142134914Y-111100353D01*
X142143268Y-111085952D01*
X142143375Y-111085648D01*
X142143377Y-111085647D01*
X142146941Y-111075616D01*
X142150505Y-111066920D01*
X142153972Y-111059487D01*
X142153972Y-111059485D01*
X142155002Y-111057277D01*
X142158237Y-111043831D01*
X142194054Y-110943056D01*
X142194054Y-110943052D01*
X142197602Y-110933070D01*
X142220880Y-110896221D01*
X143203105Y-109913997D01*
X143257623Y-109886220D01*
X143273110Y-109885001D01*
X148204635Y-109885001D01*
X148215718Y-109885623D01*
X148218094Y-109885890D01*
X148252534Y-109889771D01*
X148309192Y-109879049D01*
X148312766Y-109878442D01*
X148369786Y-109869849D01*
X148369789Y-109869847D01*
X148373223Y-109869330D01*
X148382903Y-109866145D01*
X148385969Y-109864524D01*
X148385971Y-109864524D01*
X148436943Y-109837583D01*
X148440227Y-109835925D01*
X148492141Y-109810926D01*
X148492142Y-109810924D01*
X148495261Y-109809423D01*
X148503587Y-109803515D01*
X148506032Y-109801069D01*
X148506037Y-109801067D01*
X148546815Y-109760287D01*
X148549426Y-109757772D01*
X148591693Y-109718556D01*
X148591694Y-109718553D01*
X148594231Y-109716200D01*
X148605202Y-109701900D01*
X149977606Y-108329495D01*
X150032124Y-108301719D01*
X150047611Y-108300500D01*
X150639747Y-108300500D01*
X150639748Y-108300500D01*
X150698231Y-108288867D01*
X150764552Y-108244552D01*
X150808867Y-108178231D01*
X150820500Y-108119748D01*
X150820500Y-107180252D01*
X150808867Y-107121769D01*
X150776071Y-107072687D01*
X150764552Y-107055447D01*
X150698231Y-107011133D01*
X150673768Y-107006267D01*
X150639748Y-106999500D01*
X150639747Y-106999500D01*
X150569500Y-106999500D01*
X150511309Y-106980593D01*
X150475345Y-106931093D01*
X150470500Y-106900500D01*
X150470500Y-105150862D01*
X150471122Y-105139779D01*
X150475270Y-105102965D01*
X150464553Y-105046327D01*
X150463933Y-105042675D01*
X150454831Y-104982284D01*
X150451644Y-104972596D01*
X150450023Y-104969529D01*
X150450023Y-104969528D01*
X150423077Y-104918546D01*
X150421436Y-104915296D01*
X150396425Y-104863358D01*
X150396423Y-104863356D01*
X150394921Y-104860236D01*
X150389015Y-104851912D01*
X150345811Y-104808707D01*
X150343242Y-104806040D01*
X150301706Y-104761273D01*
X150287396Y-104750293D01*
X148340366Y-102803263D01*
X148332968Y-102794983D01*
X148309878Y-102766028D01*
X148262259Y-102733562D01*
X148259241Y-102731421D01*
X148236695Y-102714781D01*
X148212882Y-102697207D01*
X148212880Y-102697206D01*
X148210094Y-102695150D01*
X148200976Y-102690547D01*
X148142596Y-102672539D01*
X148139081Y-102671382D01*
X148081439Y-102651213D01*
X148071353Y-102649500D01*
X148067902Y-102649500D01*
X148010284Y-102649500D01*
X148006582Y-102649431D01*
X147945532Y-102647146D01*
X147927655Y-102649500D01*
X133253549Y-102649500D01*
X133242466Y-102648878D01*
X133227093Y-102647146D01*
X133205650Y-102644730D01*
X133205649Y-102644730D01*
X133205648Y-102644730D01*
X133149024Y-102655443D01*
X133145376Y-102656063D01*
X133084982Y-102665166D01*
X133075259Y-102668366D01*
X133021236Y-102696917D01*
X133017934Y-102698584D01*
X132962939Y-102725069D01*
X132954582Y-102730999D01*
X132911417Y-102774163D01*
X132908754Y-102776729D01*
X132863955Y-102818298D01*
X132852980Y-102832600D01*
X129063265Y-106622315D01*
X129054989Y-106629710D01*
X129026030Y-106652805D01*
X128993556Y-106700434D01*
X128991416Y-106703450D01*
X128955156Y-106752581D01*
X128950543Y-106761719D01*
X128932536Y-106820095D01*
X128931380Y-106823608D01*
X128911214Y-106881242D01*
X128909500Y-106891333D01*
X128909500Y-106952400D01*
X128909431Y-106956102D01*
X128907146Y-107017154D01*
X128909500Y-107035029D01*
X128909500Y-110206954D01*
X128908878Y-110218037D01*
X128904730Y-110254855D01*
X128915444Y-110311482D01*
X128916064Y-110315130D01*
X128925168Y-110375528D01*
X128928363Y-110385238D01*
X128956905Y-110439242D01*
X128958574Y-110442546D01*
X128985075Y-110497575D01*
X128990993Y-110505915D01*
X129034199Y-110549122D01*
X129036768Y-110551789D01*
X129078299Y-110596549D01*
X129092601Y-110607523D01*
X129691810Y-111206731D01*
X129699207Y-111215009D01*
X129722303Y-111243971D01*
X129769926Y-111276440D01*
X129772944Y-111278581D01*
X129792655Y-111293128D01*
X129819300Y-111312793D01*
X129819302Y-111312793D01*
X129822091Y-111314852D01*
X129831201Y-111319451D01*
X129834507Y-111320470D01*
X129834509Y-111320472D01*
X129889607Y-111337466D01*
X129893107Y-111338618D01*
X129947483Y-111357646D01*
X129947484Y-111357646D01*
X129950751Y-111358789D01*
X129960818Y-111360500D01*
X129964280Y-111360500D01*
X130021898Y-111360500D01*
X130025600Y-111360569D01*
X130083192Y-111362724D01*
X130083193Y-111362723D01*
X130086649Y-111362853D01*
X130104527Y-111360500D01*
X130633763Y-111360500D01*
X130650567Y-111357967D01*
X130734287Y-111345348D01*
X130786291Y-111320304D01*
X130829246Y-111310500D01*
X131477999Y-111310500D01*
X131536190Y-111329407D01*
X131572154Y-111378907D01*
X131576999Y-111409500D01*
X131576999Y-112101519D01*
X131583176Y-112140513D01*
X131585336Y-112154152D01*
X131585781Y-112156958D01*
X131587000Y-112172446D01*
X131587000Y-112849746D01*
X131598633Y-112908231D01*
X131642947Y-112974552D01*
X131680424Y-112999593D01*
X131709269Y-113018867D01*
X131767752Y-113030500D01*
X131767753Y-113030500D01*
X132187245Y-113030500D01*
X132187248Y-113030500D01*
X132193686Y-113029219D01*
X132254446Y-113036410D01*
X132299377Y-113077942D01*
X132312000Y-113126317D01*
X132312000Y-113787334D01*
X132309402Y-113803258D01*
X132311894Y-113857141D01*
X132312000Y-113861713D01*
X132312000Y-113880345D01*
X132312021Y-113880458D01*
X132313601Y-113894078D01*
X132314914Y-113922491D01*
X132318884Y-113931482D01*
X132325632Y-113953273D01*
X132327438Y-113962932D01*
X132342411Y-113987116D01*
X132348800Y-113999236D01*
X132360294Y-114025265D01*
X132360295Y-114025266D01*
X132367243Y-114032215D01*
X132381410Y-114050100D01*
X132386581Y-114058453D01*
X132409272Y-114075587D01*
X132419617Y-114084588D01*
X136495525Y-118160496D01*
X136523302Y-118215013D01*
X136513731Y-118275445D01*
X136470466Y-118318710D01*
X136425521Y-118329500D01*
X134391165Y-118329500D01*
X134332974Y-118310593D01*
X134321161Y-118300504D01*
X132887401Y-116866744D01*
X132883302Y-116862389D01*
X132842929Y-116816817D01*
X132792799Y-116782214D01*
X132787991Y-116778676D01*
X132740056Y-116741121D01*
X132728746Y-116736031D01*
X132713138Y-116727228D01*
X132702931Y-116720182D01*
X132685219Y-116713465D01*
X132645974Y-116698581D01*
X132640481Y-116696305D01*
X132584932Y-116671305D01*
X132572721Y-116669067D01*
X132555465Y-116664256D01*
X132543873Y-116659860D01*
X132483437Y-116652521D01*
X132477529Y-116651622D01*
X132417604Y-116640641D01*
X132356823Y-116644319D01*
X132350845Y-116644500D01*
X130489500Y-116644500D01*
X130431309Y-116625593D01*
X130395345Y-116576093D01*
X130390500Y-116545500D01*
X130390500Y-114335253D01*
X130390500Y-114335252D01*
X130378867Y-114276769D01*
X130357601Y-114244943D01*
X130334552Y-114210447D01*
X130268231Y-114166133D01*
X130265556Y-114165601D01*
X130209748Y-114154500D01*
X128770252Y-114154500D01*
X128741010Y-114160316D01*
X128711768Y-114166133D01*
X128645447Y-114210447D01*
X128601133Y-114276768D01*
X128597098Y-114297055D01*
X128567201Y-114350439D01*
X128511636Y-114376055D01*
X128451626Y-114364118D01*
X128410094Y-114319188D01*
X128402902Y-114297055D01*
X128401666Y-114290842D01*
X128398867Y-114276769D01*
X128377601Y-114244943D01*
X128354552Y-114210447D01*
X128288231Y-114166133D01*
X128285556Y-114165601D01*
X128229748Y-114154500D01*
X126790252Y-114154500D01*
X126761010Y-114160316D01*
X126731768Y-114166133D01*
X126665447Y-114210447D01*
X126621133Y-114276768D01*
X126619063Y-114287174D01*
X126609500Y-114335252D01*
X126609500Y-116664748D01*
X126616021Y-116697529D01*
X126621133Y-116723231D01*
X126665447Y-116789552D01*
X126706252Y-116816817D01*
X126731769Y-116833867D01*
X126790252Y-116845500D01*
X126790253Y-116845500D01*
X128229747Y-116845500D01*
X128229748Y-116845500D01*
X128288231Y-116833867D01*
X128354552Y-116789552D01*
X128398867Y-116723231D01*
X128402902Y-116702943D01*
X128432798Y-116649560D01*
X128488363Y-116623944D01*
X128548373Y-116635881D01*
X128589906Y-116680810D01*
X128597098Y-116702944D01*
X128601133Y-116723231D01*
X128645447Y-116789552D01*
X128686252Y-116816817D01*
X128711769Y-116833867D01*
X128770252Y-116845500D01*
X129724834Y-116845500D01*
X129783025Y-116864407D01*
X129818989Y-116913907D01*
X129818989Y-116975093D01*
X129794838Y-117014504D01*
X129070003Y-117739338D01*
X129015486Y-117767115D01*
X128955054Y-117757544D01*
X128929995Y-117739338D01*
X128867476Y-117676819D01*
X128865367Y-117674710D01*
X128826843Y-117644528D01*
X128765059Y-117596123D01*
X128609928Y-117526303D01*
X128442606Y-117495641D01*
X128272804Y-117505913D01*
X128110395Y-117556521D01*
X127964816Y-117644527D01*
X127844527Y-117764816D01*
X127756521Y-117910395D01*
X127705913Y-118072804D01*
X127695641Y-118242606D01*
X127726303Y-118409928D01*
X127796123Y-118565059D01*
X127857944Y-118643967D01*
X127874710Y-118665367D01*
X128444528Y-119235184D01*
X128444528Y-119235185D01*
X128477602Y-119268259D01*
X128564814Y-119355472D01*
X128596218Y-119374456D01*
X128606058Y-119381248D01*
X128634941Y-119403877D01*
X128634942Y-119403877D01*
X128634943Y-119403878D01*
X128668412Y-119418941D01*
X128678981Y-119424488D01*
X128710394Y-119443478D01*
X128745436Y-119454397D01*
X128756601Y-119458631D01*
X128790068Y-119473694D01*
X128826170Y-119480309D01*
X128837766Y-119483168D01*
X128872800Y-119494085D01*
X128872804Y-119494086D01*
X128909449Y-119496302D01*
X128921293Y-119497741D01*
X128957394Y-119504357D01*
X128994026Y-119502141D01*
X129005960Y-119502141D01*
X129042606Y-119504358D01*
X129078720Y-119497739D01*
X129090558Y-119496301D01*
X129127196Y-119494086D01*
X129162228Y-119483169D01*
X129173820Y-119480312D01*
X129209932Y-119473695D01*
X129243403Y-119458629D01*
X129254571Y-119454393D01*
X129289606Y-119443478D01*
X129321022Y-119424485D01*
X129331580Y-119418944D01*
X129365057Y-119403878D01*
X129393950Y-119381240D01*
X129403773Y-119374460D01*
X129435185Y-119355472D01*
X129555472Y-119235185D01*
X129555471Y-119235185D01*
X130127644Y-118663012D01*
X130716161Y-118074496D01*
X130770678Y-118046719D01*
X130786165Y-118045500D01*
X132043835Y-118045500D01*
X132102026Y-118064407D01*
X132113839Y-118074496D01*
X133547596Y-119508253D01*
X133551695Y-119512608D01*
X133592071Y-119558183D01*
X133642204Y-119592788D01*
X133647009Y-119596324D01*
X133688117Y-119628530D01*
X133694944Y-119633878D01*
X133706254Y-119638968D01*
X133721853Y-119647765D01*
X133732070Y-119654818D01*
X133732071Y-119654818D01*
X133732072Y-119654819D01*
X133761407Y-119665943D01*
X133789006Y-119676410D01*
X133794512Y-119678690D01*
X133850069Y-119703695D01*
X133862277Y-119705932D01*
X133879540Y-119710745D01*
X133891128Y-119715140D01*
X133951575Y-119722479D01*
X133957470Y-119723376D01*
X134017394Y-119734358D01*
X134078177Y-119730681D01*
X134084155Y-119730500D01*
X138812683Y-119730500D01*
X138829992Y-119732024D01*
X138844386Y-119734581D01*
X138902957Y-119730714D01*
X138909477Y-119730500D01*
X138922510Y-119730500D01*
X138925496Y-119730500D01*
X138945803Y-119728033D01*
X138951154Y-119727533D01*
X139014129Y-119723377D01*
X139023843Y-119720290D01*
X139041878Y-119716367D01*
X139051996Y-119715140D01*
X139111012Y-119692757D01*
X139116105Y-119690984D01*
X139135578Y-119684800D01*
X139150167Y-119678136D01*
X139156131Y-119675645D01*
X139211054Y-119654818D01*
X139223085Y-119646513D01*
X139238195Y-119637936D01*
X139247081Y-119633878D01*
X139258794Y-119628529D01*
X139285825Y-119620591D01*
X139485916Y-119591822D01*
X139514084Y-119591822D01*
X139564560Y-119599079D01*
X139619467Y-119626076D01*
X139620473Y-119627067D01*
X139715988Y-119722582D01*
X139743765Y-119777099D01*
X139734194Y-119837531D01*
X139690929Y-119880796D01*
X139630497Y-119890367D01*
X139620361Y-119888213D01*
X139592680Y-119880796D01*
X139569183Y-119874500D01*
X139430817Y-119874500D01*
X139297163Y-119910311D01*
X139297164Y-119910312D01*
X139177336Y-119979494D01*
X139079494Y-120077336D01*
X139030181Y-120162750D01*
X139010312Y-120197164D01*
X138982456Y-120301124D01*
X138949133Y-120352437D01*
X138892011Y-120374364D01*
X138886830Y-120374500D01*
X129324765Y-120374500D01*
X129314204Y-120372399D01*
X129300002Y-120372399D01*
X129300001Y-120372399D01*
X129300000Y-120372399D01*
X129294928Y-120374500D01*
X129286468Y-120378004D01*
X129280484Y-120380482D01*
X129280482Y-120380484D01*
X129272399Y-120400000D01*
X129272399Y-120414204D01*
X129274500Y-120424765D01*
X129274500Y-120475500D01*
X129255593Y-120533691D01*
X129206093Y-120569655D01*
X129175500Y-120574500D01*
X127824500Y-120574500D01*
X127766309Y-120555593D01*
X127730345Y-120506093D01*
X127725500Y-120475500D01*
X127725500Y-120424765D01*
X127727600Y-120414204D01*
X127727601Y-120400000D01*
X127719517Y-120380484D01*
X127719517Y-120380483D01*
X127705072Y-120374500D01*
X127700000Y-120372399D01*
X127685796Y-120372399D01*
X127675235Y-120374500D01*
X118113170Y-120374500D01*
X118054979Y-120355593D01*
X118019015Y-120306093D01*
X118017548Y-120301142D01*
X117989688Y-120197164D01*
X117920505Y-120077335D01*
X117822665Y-119979495D01*
X117702836Y-119910312D01*
X117569183Y-119874500D01*
X117430817Y-119874500D01*
X117297163Y-119910311D01*
X117297164Y-119910312D01*
X117177336Y-119979494D01*
X117079494Y-120077336D01*
X117010312Y-120197164D01*
X116974499Y-120330818D01*
X116974498Y-120435910D01*
X116974500Y-120435936D01*
X116974500Y-122075500D01*
X116955593Y-122133691D01*
X116906093Y-122169655D01*
X116875500Y-122174500D01*
X109124500Y-122174500D01*
X109066309Y-122155593D01*
X109030345Y-122106093D01*
X109025500Y-122075500D01*
X109025500Y-120530817D01*
X109018875Y-120506093D01*
X108989688Y-120397164D01*
X108920505Y-120277335D01*
X108822665Y-120179495D01*
X108702836Y-120110312D01*
X108569183Y-120074500D01*
X108430817Y-120074500D01*
X108297164Y-120110311D01*
X108297164Y-120110312D01*
X108177336Y-120179494D01*
X108079494Y-120277336D01*
X108023397Y-120374500D01*
X108010312Y-120397164D01*
X107982456Y-120501124D01*
X107949133Y-120552437D01*
X107892011Y-120574364D01*
X107886830Y-120574500D01*
X106624500Y-120574500D01*
X106566309Y-120555593D01*
X106530345Y-120506093D01*
X106525500Y-120475500D01*
X106525500Y-81888379D01*
X116024621Y-81888379D01*
X116028551Y-81916553D01*
X116029500Y-81930230D01*
X116029500Y-117130200D01*
X116026902Y-117146124D01*
X116029394Y-117200007D01*
X116029500Y-117204579D01*
X116029500Y-117223211D01*
X116029521Y-117223324D01*
X116031101Y-117236944D01*
X116032414Y-117265357D01*
X116036384Y-117274348D01*
X116043132Y-117296139D01*
X116044938Y-117305798D01*
X116059911Y-117329982D01*
X116066300Y-117342102D01*
X116077794Y-117368131D01*
X116077795Y-117368132D01*
X116084743Y-117375081D01*
X116098908Y-117392963D01*
X116101020Y-117396375D01*
X116104081Y-117401319D01*
X116126772Y-117418453D01*
X116137117Y-117427454D01*
X116676071Y-117966409D01*
X116685490Y-117979500D01*
X116725349Y-118015837D01*
X116728654Y-118018993D01*
X116741834Y-118032173D01*
X116741837Y-118032175D01*
X116741934Y-118032241D01*
X116752684Y-118040757D01*
X116773698Y-118059914D01*
X116773699Y-118059914D01*
X116773701Y-118059916D01*
X116782862Y-118063464D01*
X116803051Y-118074106D01*
X116811152Y-118079656D01*
X116811154Y-118079657D01*
X116838853Y-118086172D01*
X116851930Y-118090222D01*
X116878461Y-118100500D01*
X116888287Y-118100500D01*
X116910952Y-118103129D01*
X116920515Y-118105379D01*
X116948687Y-118101448D01*
X116962364Y-118100500D01*
X120822335Y-118100500D01*
X120838255Y-118103097D01*
X120845264Y-118102772D01*
X120845265Y-118102773D01*
X120892141Y-118100606D01*
X120896714Y-118100500D01*
X120915344Y-118100500D01*
X120915451Y-118100480D01*
X120929071Y-118098898D01*
X120957492Y-118097585D01*
X120966482Y-118093615D01*
X120988272Y-118086866D01*
X120997933Y-118085061D01*
X121022123Y-118070082D01*
X121034222Y-118063704D01*
X121060265Y-118052206D01*
X121067210Y-118045259D01*
X121085097Y-118031091D01*
X121093452Y-118025919D01*
X121110595Y-118003216D01*
X121119582Y-117992887D01*
X125823905Y-113288564D01*
X125836996Y-113279147D01*
X125841725Y-113273959D01*
X125841728Y-113273958D01*
X125873377Y-113239239D01*
X125876494Y-113235975D01*
X125889674Y-113222797D01*
X125889738Y-113222702D01*
X125898245Y-113211961D01*
X125917416Y-113190933D01*
X125920966Y-113181766D01*
X125931609Y-113161578D01*
X125937157Y-113153480D01*
X125943671Y-113125782D01*
X125947723Y-113112700D01*
X125958000Y-113086173D01*
X125958000Y-113076348D01*
X125960630Y-113053679D01*
X125967117Y-113026102D01*
X125970888Y-113026989D01*
X125975739Y-112999593D01*
X125982666Y-112991963D01*
X125981112Y-112990925D01*
X125996925Y-112967259D01*
X126036367Y-112908231D01*
X126048000Y-112849748D01*
X126048000Y-111290252D01*
X126036367Y-111231769D01*
X126006964Y-111187765D01*
X125992052Y-111165447D01*
X125925731Y-111121133D01*
X125867248Y-111109500D01*
X125447752Y-111109500D01*
X125389269Y-111121133D01*
X125389268Y-111121133D01*
X125369955Y-111124975D01*
X125369840Y-111124398D01*
X125336113Y-111133911D01*
X125306347Y-111124239D01*
X125267628Y-111116537D01*
X125232248Y-111109500D01*
X124812752Y-111109500D01*
X124754269Y-111121133D01*
X124754268Y-111121133D01*
X124734955Y-111124975D01*
X124734840Y-111124398D01*
X124701113Y-111133911D01*
X124671347Y-111124239D01*
X124632628Y-111116537D01*
X124597248Y-111109500D01*
X124177752Y-111109500D01*
X124119269Y-111121133D01*
X124119268Y-111121133D01*
X124099955Y-111124975D01*
X124099840Y-111124398D01*
X124066107Y-111133910D01*
X124036350Y-111124240D01*
X124020731Y-111121133D01*
X123962248Y-111109500D01*
X123542752Y-111109500D01*
X123484269Y-111121133D01*
X123484268Y-111121133D01*
X123464955Y-111124975D01*
X123464840Y-111124398D01*
X123431107Y-111133910D01*
X123401350Y-111124240D01*
X123385731Y-111121133D01*
X123327248Y-111109500D01*
X122907752Y-111109500D01*
X122849269Y-111121133D01*
X122849268Y-111121133D01*
X122829955Y-111124975D01*
X122829840Y-111124398D01*
X122796113Y-111133911D01*
X122766347Y-111124239D01*
X122727628Y-111116537D01*
X122692248Y-111109500D01*
X122272752Y-111109500D01*
X122214269Y-111121133D01*
X122214268Y-111121133D01*
X122194955Y-111124975D01*
X122194840Y-111124397D01*
X122161106Y-111133909D01*
X122131347Y-111124239D01*
X122092628Y-111116537D01*
X122057248Y-111109500D01*
X121637752Y-111109500D01*
X121579269Y-111121133D01*
X121579268Y-111121133D01*
X121559955Y-111124975D01*
X121559840Y-111124398D01*
X121526113Y-111133911D01*
X121496347Y-111124239D01*
X121457628Y-111116537D01*
X121422248Y-111109500D01*
X121002752Y-111109500D01*
X120944269Y-111121133D01*
X120944268Y-111121133D01*
X120924955Y-111124975D01*
X120924840Y-111124398D01*
X120891113Y-111133911D01*
X120861347Y-111124239D01*
X120822628Y-111116537D01*
X120787248Y-111109500D01*
X120787247Y-111109500D01*
X120690025Y-111109500D01*
X120631834Y-111090593D01*
X120595870Y-111041093D01*
X120595870Y-110979907D01*
X120620021Y-110940496D01*
X121060989Y-110499528D01*
X122383905Y-109176610D01*
X122396996Y-109167193D01*
X122401725Y-109162005D01*
X122401728Y-109162004D01*
X122433377Y-109127285D01*
X122436494Y-109124021D01*
X122449674Y-109110843D01*
X122449738Y-109110748D01*
X122458245Y-109100007D01*
X122477416Y-109078979D01*
X122480964Y-109069817D01*
X122491603Y-109049633D01*
X122497157Y-109041527D01*
X122503671Y-109013828D01*
X122507720Y-109000751D01*
X122518000Y-108974219D01*
X122518000Y-108964392D01*
X122520630Y-108941725D01*
X122522879Y-108932165D01*
X122518949Y-108903990D01*
X122518000Y-108890314D01*
X122518000Y-100200000D01*
X132244866Y-100200000D01*
X132263302Y-100328227D01*
X132317116Y-100446062D01*
X132401949Y-100543965D01*
X132401951Y-100543967D01*
X132510931Y-100614004D01*
X132635228Y-100650500D01*
X132764772Y-100650500D01*
X132889069Y-100614004D01*
X132998049Y-100543967D01*
X133082882Y-100446063D01*
X133082881Y-100446063D01*
X133082883Y-100446062D01*
X133136697Y-100328227D01*
X133155133Y-100200000D01*
X133136697Y-100071772D01*
X133082883Y-99953937D01*
X132998050Y-99856034D01*
X132998049Y-99856033D01*
X132943558Y-99821014D01*
X132889068Y-99785995D01*
X132764772Y-99749500D01*
X132635228Y-99749500D01*
X132510931Y-99785995D01*
X132401949Y-99856034D01*
X132317116Y-99953937D01*
X132263302Y-100071772D01*
X132244866Y-100200000D01*
X122518000Y-100200000D01*
X122518000Y-92919746D01*
X124499500Y-92919746D01*
X124511133Y-92978231D01*
X124555447Y-93044552D01*
X124599761Y-93074162D01*
X124621769Y-93088867D01*
X124680252Y-93100500D01*
X124680253Y-93100500D01*
X126219747Y-93100500D01*
X126219748Y-93100500D01*
X126278231Y-93088867D01*
X126344552Y-93044552D01*
X126388867Y-92978231D01*
X126400500Y-92919748D01*
X126400500Y-92899499D01*
X126419407Y-92841309D01*
X126468907Y-92805345D01*
X126499500Y-92800500D01*
X127100500Y-92800500D01*
X127158691Y-92819407D01*
X127194655Y-92868907D01*
X127199500Y-92899500D01*
X127199499Y-92919746D01*
X127211133Y-92978231D01*
X127255447Y-93044552D01*
X127299761Y-93074162D01*
X127321769Y-93088867D01*
X127380252Y-93100500D01*
X128393099Y-93100500D01*
X128451290Y-93119407D01*
X128463102Y-93129496D01*
X128780503Y-93446896D01*
X128808281Y-93501413D01*
X128809500Y-93516900D01*
X128809500Y-94537799D01*
X128806902Y-94553723D01*
X128809394Y-94607606D01*
X128809500Y-94612178D01*
X128809500Y-94630810D01*
X128809521Y-94630923D01*
X128811101Y-94644543D01*
X128812414Y-94672956D01*
X128816384Y-94681947D01*
X128823132Y-94703738D01*
X128824938Y-94713397D01*
X128839911Y-94737581D01*
X128846300Y-94749701D01*
X128857794Y-94775730D01*
X128857795Y-94775731D01*
X128864743Y-94782680D01*
X128878910Y-94800565D01*
X128884081Y-94808918D01*
X128906772Y-94826052D01*
X128917117Y-94835053D01*
X130448472Y-96366409D01*
X130457891Y-96379500D01*
X130497750Y-96415837D01*
X130501055Y-96418993D01*
X130514235Y-96432173D01*
X130514238Y-96432175D01*
X130514335Y-96432241D01*
X130525085Y-96440757D01*
X130546099Y-96459914D01*
X130546100Y-96459914D01*
X130546102Y-96459916D01*
X130555263Y-96463464D01*
X130575452Y-96474107D01*
X130583553Y-96479656D01*
X130583555Y-96479657D01*
X130611239Y-96486167D01*
X130624334Y-96490222D01*
X130650862Y-96500500D01*
X130660689Y-96500500D01*
X130683353Y-96503129D01*
X130692917Y-96505379D01*
X130721090Y-96501449D01*
X130734767Y-96500500D01*
X131019074Y-96500500D01*
X131077265Y-96519407D01*
X131093893Y-96534668D01*
X131101952Y-96543968D01*
X131210929Y-96614003D01*
X131210931Y-96614004D01*
X131335228Y-96650500D01*
X131464772Y-96650500D01*
X131589069Y-96614004D01*
X131672909Y-96560123D01*
X131732081Y-96544569D01*
X131789097Y-96566767D01*
X131822177Y-96618239D01*
X131822800Y-96666077D01*
X131813831Y-96704205D01*
X131809777Y-96717296D01*
X131799500Y-96743826D01*
X131799500Y-96753653D01*
X131796870Y-96776319D01*
X131794620Y-96785882D01*
X131798550Y-96814056D01*
X131799499Y-96827730D01*
X131799499Y-98321937D01*
X131780592Y-98380128D01*
X131775319Y-98386767D01*
X131717117Y-98453937D01*
X131663302Y-98571774D01*
X131644866Y-98700000D01*
X131663302Y-98828227D01*
X131717116Y-98946062D01*
X131801949Y-99043965D01*
X131801951Y-99043967D01*
X131910931Y-99114004D01*
X132035228Y-99150500D01*
X132164772Y-99150500D01*
X132289069Y-99114004D01*
X132398049Y-99043967D01*
X132482882Y-98946063D01*
X132482881Y-98946063D01*
X132482883Y-98946062D01*
X132536697Y-98828227D01*
X132555133Y-98699999D01*
X132536697Y-98571772D01*
X132482883Y-98453937D01*
X132424680Y-98386767D01*
X132400862Y-98330408D01*
X132400500Y-98321959D01*
X132400500Y-96965478D01*
X132419407Y-96907287D01*
X132429490Y-96895480D01*
X135016405Y-94308564D01*
X135029496Y-94299147D01*
X135034225Y-94293959D01*
X135034228Y-94293958D01*
X135065877Y-94259239D01*
X135068994Y-94255975D01*
X135082174Y-94242797D01*
X135082238Y-94242702D01*
X135090745Y-94231961D01*
X135109916Y-94210933D01*
X135113466Y-94201766D01*
X135124104Y-94181585D01*
X135129656Y-94173481D01*
X135136169Y-94145785D01*
X135140221Y-94132702D01*
X135150500Y-94106173D01*
X135150500Y-94096347D01*
X135153130Y-94073679D01*
X135153131Y-94073675D01*
X135155379Y-94064119D01*
X135151449Y-94035946D01*
X135150500Y-94022268D01*
X135150500Y-92215166D01*
X135153097Y-92199246D01*
X135150606Y-92145357D01*
X135150500Y-92140785D01*
X135150500Y-92122156D01*
X135150480Y-92122050D01*
X135148898Y-92108430D01*
X135147585Y-92080008D01*
X135143612Y-92071012D01*
X135136866Y-92049223D01*
X135135061Y-92039567D01*
X135120088Y-92015384D01*
X135113696Y-92003257D01*
X135102205Y-91977233D01*
X135095256Y-91970284D01*
X135081090Y-91952399D01*
X135075919Y-91944048D01*
X135053221Y-91926907D01*
X135042879Y-91917908D01*
X134529496Y-91404524D01*
X134501719Y-91350007D01*
X134500500Y-91334520D01*
X134500500Y-90580253D01*
X134500500Y-90580252D01*
X134488867Y-90521769D01*
X134474162Y-90499761D01*
X134444552Y-90455447D01*
X134378231Y-90411133D01*
X134378230Y-90411133D01*
X134319748Y-90399500D01*
X132780252Y-90399500D01*
X132751010Y-90405316D01*
X132721768Y-90411133D01*
X132655447Y-90455447D01*
X132611133Y-90521768D01*
X132611132Y-90521769D01*
X132611133Y-90521769D01*
X132599500Y-90580252D01*
X132599500Y-91619748D01*
X132610935Y-91677235D01*
X132611133Y-91678231D01*
X132622336Y-91694997D01*
X132638945Y-91753885D01*
X132622337Y-91804999D01*
X132611133Y-91821766D01*
X132599500Y-91880253D01*
X132599500Y-92035521D01*
X132580593Y-92093712D01*
X132531093Y-92129676D01*
X132469907Y-92129676D01*
X132430496Y-92105525D01*
X131729495Y-91404524D01*
X131701718Y-91350007D01*
X131700499Y-91334520D01*
X131700499Y-91034520D01*
X131700500Y-90580252D01*
X131688867Y-90521769D01*
X131674162Y-90499761D01*
X131644552Y-90455447D01*
X131578231Y-90411133D01*
X131578230Y-90411133D01*
X131519748Y-90399500D01*
X129980252Y-90399500D01*
X129951010Y-90405316D01*
X129921768Y-90411133D01*
X129855447Y-90455447D01*
X129811133Y-90521768D01*
X129799500Y-90580253D01*
X129799500Y-91535520D01*
X129780593Y-91593711D01*
X129731093Y-91629675D01*
X129669907Y-91629675D01*
X129630496Y-91605524D01*
X129129496Y-91104524D01*
X129101719Y-91050007D01*
X129100500Y-91034520D01*
X129100500Y-90580253D01*
X129100500Y-90580252D01*
X129088867Y-90521769D01*
X129074162Y-90499761D01*
X129044552Y-90455447D01*
X128978231Y-90411133D01*
X128978230Y-90411133D01*
X128919748Y-90399500D01*
X127380252Y-90399500D01*
X127351010Y-90405316D01*
X127321768Y-90411133D01*
X127255447Y-90455447D01*
X127211133Y-90521768D01*
X127211132Y-90521769D01*
X127211133Y-90521769D01*
X127199500Y-90580252D01*
X127199500Y-91619748D01*
X127210935Y-91677235D01*
X127211133Y-91678231D01*
X127222337Y-91694999D01*
X127238945Y-91753887D01*
X127222337Y-91805001D01*
X127211133Y-91821768D01*
X127199499Y-91880253D01*
X127199500Y-91900500D01*
X127180593Y-91958691D01*
X127131093Y-91994655D01*
X127100500Y-91999500D01*
X126499500Y-91999500D01*
X126441309Y-91980593D01*
X126405345Y-91931093D01*
X126400500Y-91900500D01*
X126400500Y-91880253D01*
X126400500Y-91880252D01*
X126388867Y-91821769D01*
X126360963Y-91780008D01*
X126344552Y-91755447D01*
X126278231Y-91711133D01*
X126278230Y-91711133D01*
X126219748Y-91699500D01*
X124680252Y-91699500D01*
X124651010Y-91705316D01*
X124621768Y-91711133D01*
X124555447Y-91755447D01*
X124511133Y-91821768D01*
X124499500Y-91880253D01*
X124499500Y-92919746D01*
X122518000Y-92919746D01*
X122518000Y-82710221D01*
X122536907Y-82652030D01*
X122546601Y-82642709D01*
X122552050Y-82634552D01*
X122552052Y-82634552D01*
X122596367Y-82568231D01*
X122608000Y-82509748D01*
X122608000Y-80950252D01*
X122596367Y-80891769D01*
X122581662Y-80869761D01*
X122552052Y-80825447D01*
X122485731Y-80781133D01*
X122427248Y-80769500D01*
X122007752Y-80769500D01*
X121949269Y-80781133D01*
X121949268Y-80781133D01*
X121929955Y-80784975D01*
X121929840Y-80784398D01*
X121896113Y-80793911D01*
X121866347Y-80784239D01*
X121827628Y-80776537D01*
X121792248Y-80769500D01*
X121372752Y-80769500D01*
X121314269Y-80781133D01*
X121314268Y-80781133D01*
X121294955Y-80784975D01*
X121294840Y-80784398D01*
X121261113Y-80793911D01*
X121231347Y-80784239D01*
X121192628Y-80776537D01*
X121157248Y-80769500D01*
X120737752Y-80769500D01*
X120679269Y-80781133D01*
X120679268Y-80781133D01*
X120659955Y-80784975D01*
X120659840Y-80784398D01*
X120626107Y-80793910D01*
X120596350Y-80784240D01*
X120580731Y-80781133D01*
X120522248Y-80769500D01*
X120102752Y-80769500D01*
X120044269Y-80781133D01*
X120044268Y-80781133D01*
X120024955Y-80784975D01*
X120024840Y-80784398D01*
X119991113Y-80793911D01*
X119961347Y-80784239D01*
X119922628Y-80776537D01*
X119887248Y-80769500D01*
X119467752Y-80769500D01*
X119409269Y-80781133D01*
X119409268Y-80781133D01*
X119389955Y-80784975D01*
X119389840Y-80784398D01*
X119356113Y-80793911D01*
X119326347Y-80784239D01*
X119287628Y-80776537D01*
X119252248Y-80769500D01*
X118832752Y-80769500D01*
X118774269Y-80781133D01*
X118774268Y-80781133D01*
X118754955Y-80784975D01*
X118754840Y-80784397D01*
X118721106Y-80793909D01*
X118691347Y-80784239D01*
X118652628Y-80776537D01*
X118617248Y-80769500D01*
X118197752Y-80769500D01*
X118139269Y-80781133D01*
X118139268Y-80781133D01*
X118119955Y-80784975D01*
X118119840Y-80784398D01*
X118086113Y-80793911D01*
X118056347Y-80784239D01*
X118017628Y-80776537D01*
X117982248Y-80769500D01*
X117562752Y-80769500D01*
X117504269Y-80781133D01*
X117504268Y-80781133D01*
X117484955Y-80784975D01*
X117484840Y-80784398D01*
X117451113Y-80793911D01*
X117421347Y-80784239D01*
X117382628Y-80776537D01*
X117347248Y-80769500D01*
X116927752Y-80769500D01*
X116869269Y-80781133D01*
X116869268Y-80781133D01*
X116849955Y-80784975D01*
X116849840Y-80784397D01*
X116816106Y-80793909D01*
X116786347Y-80784239D01*
X116747628Y-80776537D01*
X116712248Y-80769500D01*
X116292752Y-80769500D01*
X116263510Y-80775316D01*
X116234268Y-80781133D01*
X116167947Y-80825447D01*
X116123633Y-80891768D01*
X116112000Y-80950253D01*
X116112000Y-81657233D01*
X116093093Y-81715424D01*
X116086164Y-81723927D01*
X116070082Y-81741568D01*
X116066530Y-81750738D01*
X116055895Y-81770914D01*
X116050343Y-81779019D01*
X116043830Y-81806707D01*
X116039777Y-81819796D01*
X116029500Y-81846326D01*
X116029500Y-81856153D01*
X116026870Y-81878819D01*
X116024621Y-81888379D01*
X106525500Y-81888379D01*
X106525500Y-79464746D01*
X113749500Y-79464746D01*
X113761133Y-79523231D01*
X113805447Y-79589552D01*
X113849762Y-79619162D01*
X113871769Y-79633867D01*
X113930252Y-79645500D01*
X113930253Y-79645500D01*
X115369747Y-79645500D01*
X115369748Y-79645500D01*
X115428231Y-79633867D01*
X115494552Y-79589552D01*
X115538867Y-79523231D01*
X115550500Y-79464748D01*
X115550500Y-79464746D01*
X123169500Y-79464746D01*
X123181133Y-79523231D01*
X123225447Y-79589552D01*
X123269762Y-79619162D01*
X123291769Y-79633867D01*
X123350252Y-79645500D01*
X123350253Y-79645500D01*
X124789747Y-79645500D01*
X124789748Y-79645500D01*
X124848231Y-79633867D01*
X124914552Y-79589552D01*
X124958867Y-79523231D01*
X124970500Y-79464748D01*
X124970500Y-77135252D01*
X124958867Y-77076769D01*
X124944162Y-77054761D01*
X124914552Y-77010447D01*
X124848231Y-76966133D01*
X124848231Y-76966132D01*
X124789748Y-76954500D01*
X123350252Y-76954500D01*
X123321010Y-76960316D01*
X123291768Y-76966133D01*
X123225447Y-77010447D01*
X123181133Y-77076768D01*
X123169500Y-77135253D01*
X123169500Y-79464746D01*
X115550500Y-79464746D01*
X115550500Y-77135252D01*
X115538867Y-77076769D01*
X115524162Y-77054762D01*
X115494552Y-77010447D01*
X115428231Y-76966133D01*
X115369748Y-76954500D01*
X113930252Y-76954500D01*
X113901010Y-76960316D01*
X113871768Y-76966133D01*
X113805447Y-77010447D01*
X113761133Y-77076768D01*
X113749500Y-77135253D01*
X113749500Y-79464746D01*
X106525500Y-79464746D01*
X106525500Y-72924500D01*
X106544407Y-72866309D01*
X106593907Y-72830345D01*
X106624500Y-72825500D01*
X111895500Y-72825500D01*
X111953691Y-72844407D01*
X111989655Y-72893907D01*
X111994500Y-72924500D01*
X111994500Y-73165236D01*
X111992398Y-73175805D01*
X111992399Y-73189999D01*
X111992399Y-73190000D01*
X111994500Y-73195072D01*
X112000483Y-73209517D01*
X112020000Y-73217601D01*
X112034205Y-73217601D01*
X112044766Y-73215500D01*
X117885234Y-73215500D01*
X117895795Y-73217601D01*
X117910000Y-73217601D01*
X117929517Y-73209517D01*
X117935500Y-73195072D01*
X117937601Y-73190000D01*
X117937600Y-73189997D01*
X117937601Y-73175805D01*
X117935500Y-73165236D01*
X117935500Y-72924500D01*
X117954407Y-72866309D01*
X118003907Y-72830345D01*
X118034500Y-72825500D01*
X118504928Y-72825500D01*
X119386830Y-72825500D01*
X119445021Y-72844407D01*
X119480985Y-72893907D01*
X119482451Y-72898857D01*
X119510312Y-73002836D01*
X119579495Y-73122665D01*
X119677335Y-73220505D01*
X119797164Y-73289688D01*
X119930817Y-73325500D01*
X119930818Y-73325500D01*
X120069182Y-73325500D01*
X120069183Y-73325500D01*
X120202836Y-73289688D01*
X120322665Y-73220505D01*
X120420505Y-73122665D01*
X120489688Y-73002836D01*
X120525500Y-72869183D01*
X120525500Y-72800000D01*
X120525500Y-72791715D01*
X120525500Y-71924500D01*
X120544407Y-71866309D01*
X120593907Y-71830345D01*
X120624500Y-71825500D01*
X136375500Y-71825500D01*
X136433691Y-71844407D01*
G37*
%TD.AperFunction*%
%TA.AperFunction,Conductor*%
G36*
X148152458Y-120042463D02*
G01*
X148188422Y-120091963D01*
X148188422Y-120153149D01*
X148164272Y-120192557D01*
X148110424Y-120246406D01*
X148079494Y-120277336D01*
X148010312Y-120397164D01*
X147974500Y-120530817D01*
X147974500Y-122075500D01*
X147955593Y-122133691D01*
X147906093Y-122169655D01*
X147875500Y-122174500D01*
X140124500Y-122174500D01*
X140066309Y-122155593D01*
X140030345Y-122106093D01*
X140025500Y-122075500D01*
X140025500Y-120330817D01*
X140018875Y-120306093D01*
X140011786Y-120279635D01*
X140014988Y-120218536D01*
X140053494Y-120170986D01*
X140112594Y-120155150D01*
X140169716Y-120177076D01*
X140177411Y-120184005D01*
X140239813Y-120246406D01*
X140871653Y-120878246D01*
X140875751Y-120882601D01*
X140916131Y-120928180D01*
X140916134Y-120928183D01*
X140966267Y-120962787D01*
X140971074Y-120966325D01*
X141019003Y-121003876D01*
X141019006Y-121003877D01*
X141019007Y-121003878D01*
X141030313Y-121008966D01*
X141045922Y-121017770D01*
X141056132Y-121024818D01*
X141091735Y-121038320D01*
X141113069Y-121046410D01*
X141118575Y-121048690D01*
X141174132Y-121073695D01*
X141186340Y-121075932D01*
X141203603Y-121080745D01*
X141215191Y-121085140D01*
X141275638Y-121092479D01*
X141281533Y-121093376D01*
X141341457Y-121104358D01*
X141402240Y-121100681D01*
X141408218Y-121100500D01*
X146512147Y-121100500D01*
X146518125Y-121100681D01*
X146578907Y-121104358D01*
X146578907Y-121104357D01*
X146578908Y-121104358D01*
X146638836Y-121093375D01*
X146644721Y-121092479D01*
X146705174Y-121085140D01*
X146716774Y-121080740D01*
X146734016Y-121075933D01*
X146746234Y-121073695D01*
X146801801Y-121048685D01*
X146807276Y-121046417D01*
X146864232Y-121024818D01*
X146874443Y-121017768D01*
X146890051Y-121008966D01*
X146901359Y-121003878D01*
X146949302Y-120966315D01*
X146954115Y-120962775D01*
X147004231Y-120928183D01*
X147044629Y-120882580D01*
X147048697Y-120878261D01*
X147874408Y-120052552D01*
X147928924Y-120024775D01*
X147944411Y-120023556D01*
X148094267Y-120023556D01*
X148152458Y-120042463D01*
G37*
%TD.AperFunction*%
%TA.AperFunction,Conductor*%
G36*
X147615774Y-114608537D02*
G01*
X147615863Y-114608347D01*
X147617415Y-114609071D01*
X147626144Y-114611907D01*
X147629326Y-114614625D01*
X147721341Y-114657532D01*
X147740513Y-114666472D01*
X147790099Y-114673000D01*
X147800492Y-114672999D01*
X147858683Y-114691901D01*
X147894652Y-114741397D01*
X147899500Y-114771999D01*
X147899500Y-114859687D01*
X147880593Y-114917878D01*
X147855502Y-114942002D01*
X147805447Y-114975447D01*
X147761133Y-115041768D01*
X147749500Y-115100253D01*
X147749500Y-115439748D01*
X147761621Y-115500687D01*
X147761621Y-115539313D01*
X147749500Y-115600251D01*
X147749500Y-115939747D01*
X147761621Y-116000685D01*
X147761621Y-116039312D01*
X147749500Y-116100251D01*
X147749500Y-116100252D01*
X147749500Y-116439748D01*
X147761133Y-116498230D01*
X147761133Y-116498231D01*
X147805447Y-116564552D01*
X147840368Y-116587885D01*
X147871769Y-116608867D01*
X147930252Y-116620500D01*
X148241512Y-116620500D01*
X148550500Y-116620500D01*
X148608691Y-116639407D01*
X148644655Y-116688907D01*
X148649500Y-116719500D01*
X148649500Y-117171448D01*
X148638949Y-117203919D01*
X148642846Y-117205258D01*
X148639754Y-117214261D01*
X148632312Y-117228717D01*
X148616717Y-117281097D01*
X148615470Y-117284990D01*
X148597728Y-117336672D01*
X148597157Y-117340592D01*
X148599415Y-117395175D01*
X148599500Y-117399267D01*
X148599500Y-117791949D01*
X148588710Y-117836893D01*
X148564354Y-117884695D01*
X148544507Y-118010000D01*
X148564353Y-118135302D01*
X148564353Y-118135303D01*
X148564354Y-118135304D01*
X148621950Y-118248342D01*
X148711658Y-118338050D01*
X148824696Y-118395646D01*
X148950000Y-118415492D01*
X149075304Y-118395646D01*
X149188342Y-118338050D01*
X149188342Y-118338049D01*
X149202313Y-118330931D01*
X149202881Y-118332046D01*
X149239988Y-118313137D01*
X149300419Y-118322704D01*
X149384696Y-118365646D01*
X149510000Y-118385492D01*
X149635304Y-118365646D01*
X149748342Y-118308050D01*
X149830498Y-118225893D01*
X149885013Y-118198118D01*
X149945445Y-118207689D01*
X149988710Y-118250954D01*
X149999500Y-118295899D01*
X149999500Y-118372697D01*
X149988710Y-118417641D01*
X149944354Y-118504695D01*
X149924507Y-118630000D01*
X149934364Y-118692233D01*
X149924792Y-118752665D01*
X149881528Y-118795929D01*
X149821095Y-118805500D01*
X149780344Y-118789194D01*
X149753153Y-118770425D01*
X149749493Y-118767763D01*
X149747350Y-118765906D01*
X149744882Y-118764242D01*
X149744874Y-118764236D01*
X149715422Y-118744381D01*
X149645360Y-118696020D01*
X149565443Y-118666711D01*
X149519692Y-118649361D01*
X149489514Y-118637916D01*
X149489510Y-118637915D01*
X149485857Y-118636530D01*
X149481978Y-118636102D01*
X149401251Y-118627198D01*
X149363014Y-118622556D01*
X149360173Y-118622556D01*
X149355660Y-118622170D01*
X149312893Y-118617453D01*
X149280889Y-118621697D01*
X149267877Y-118622556D01*
X147637401Y-118622556D01*
X147631423Y-118622375D01*
X147570641Y-118618697D01*
X147510716Y-118629678D01*
X147504808Y-118630577D01*
X147459312Y-118636102D01*
X147444374Y-118637916D01*
X147432773Y-118642314D01*
X147415527Y-118647122D01*
X147411793Y-118647806D01*
X147403313Y-118649361D01*
X147347780Y-118674354D01*
X147342259Y-118676641D01*
X147285314Y-118698238D01*
X147275101Y-118705288D01*
X147259504Y-118714085D01*
X147248190Y-118719177D01*
X147200250Y-118756734D01*
X147195438Y-118760275D01*
X147145315Y-118794874D01*
X147104941Y-118840446D01*
X147100844Y-118844798D01*
X146275141Y-119670503D01*
X146220624Y-119698281D01*
X146205137Y-119699500D01*
X141715227Y-119699500D01*
X141657036Y-119680593D01*
X141645223Y-119670504D01*
X140674224Y-118699504D01*
X140646447Y-118644987D01*
X140656018Y-118584555D01*
X140699283Y-118541290D01*
X140744228Y-118530500D01*
X142958421Y-118530500D01*
X143016612Y-118549407D01*
X143033235Y-118564664D01*
X143101951Y-118643967D01*
X143210931Y-118714004D01*
X143335228Y-118750500D01*
X143464772Y-118750500D01*
X143589069Y-118714004D01*
X143698049Y-118643967D01*
X143725181Y-118612654D01*
X143777576Y-118581058D01*
X143838537Y-118586293D01*
X143874818Y-118612653D01*
X143901951Y-118643967D01*
X144010931Y-118714004D01*
X144135228Y-118750500D01*
X144264772Y-118750500D01*
X144389069Y-118714004D01*
X144496478Y-118644976D01*
X144555651Y-118629422D01*
X144603521Y-118644976D01*
X144710931Y-118714004D01*
X144835228Y-118750500D01*
X144964772Y-118750500D01*
X145089069Y-118714004D01*
X145198049Y-118643967D01*
X145269812Y-118561146D01*
X145282883Y-118546062D01*
X145338642Y-118423969D01*
X145380014Y-118378891D01*
X145439980Y-118366740D01*
X145495636Y-118392158D01*
X145498699Y-118395092D01*
X145689079Y-118585473D01*
X145689086Y-118585479D01*
X145689091Y-118585484D01*
X145689094Y-118585486D01*
X145711658Y-118608050D01*
X145733161Y-118619006D01*
X145746381Y-118627107D01*
X145765910Y-118641296D01*
X145765911Y-118641296D01*
X145765912Y-118641297D01*
X145788846Y-118648748D01*
X145803202Y-118654694D01*
X145824695Y-118665646D01*
X145832739Y-118666920D01*
X145848517Y-118669418D01*
X145863622Y-118673045D01*
X145886566Y-118680500D01*
X145886567Y-118680500D01*
X145910690Y-118680500D01*
X145926177Y-118681719D01*
X145950000Y-118685492D01*
X145973823Y-118681719D01*
X145989310Y-118680500D01*
X146013432Y-118680500D01*
X146013433Y-118680500D01*
X146036382Y-118673043D01*
X146051462Y-118669421D01*
X146075304Y-118665646D01*
X146096796Y-118654694D01*
X146111140Y-118648752D01*
X146134090Y-118641296D01*
X146153608Y-118627114D01*
X146166847Y-118619001D01*
X146188342Y-118608050D01*
X146205400Y-118590990D01*
X146217208Y-118580906D01*
X146236726Y-118566726D01*
X146250907Y-118547206D01*
X146260990Y-118535400D01*
X146278050Y-118518342D01*
X146289001Y-118496847D01*
X146297114Y-118483608D01*
X146311296Y-118464090D01*
X146318752Y-118441140D01*
X146324696Y-118426792D01*
X146335646Y-118405304D01*
X146339421Y-118381462D01*
X146343043Y-118366382D01*
X146350500Y-118343433D01*
X146350500Y-118319308D01*
X146351719Y-118303820D01*
X146352324Y-118300000D01*
X146355492Y-118280000D01*
X146351719Y-118256177D01*
X146350500Y-118240690D01*
X146350500Y-118216565D01*
X146343045Y-118193622D01*
X146339418Y-118178514D01*
X146335646Y-118154695D01*
X146324694Y-118133202D01*
X146318748Y-118118846D01*
X146311297Y-118095912D01*
X146311296Y-118095910D01*
X146297107Y-118076381D01*
X146289006Y-118063161D01*
X146278050Y-118041658D01*
X146255486Y-118019094D01*
X146255484Y-118019091D01*
X145475897Y-117239503D01*
X145448120Y-117184987D01*
X145457691Y-117124555D01*
X145500956Y-117081290D01*
X145545901Y-117070500D01*
X145684318Y-117070500D01*
X145739320Y-117087185D01*
X145771769Y-117108867D01*
X145830252Y-117120500D01*
X145830253Y-117120500D01*
X146569747Y-117120500D01*
X146569748Y-117120500D01*
X146628231Y-117108867D01*
X146694552Y-117064552D01*
X146738867Y-116998231D01*
X146750500Y-116939748D01*
X146750500Y-116600252D01*
X146738867Y-116541769D01*
X146738865Y-116541766D01*
X146738378Y-116539316D01*
X146738378Y-116500687D01*
X146745260Y-116466093D01*
X146750500Y-116439748D01*
X146750500Y-116100252D01*
X146738867Y-116041769D01*
X146738865Y-116041767D01*
X146738378Y-116039315D01*
X146738378Y-116000685D01*
X146738865Y-115998232D01*
X146738867Y-115998231D01*
X146750500Y-115939748D01*
X146750500Y-115600252D01*
X146738867Y-115541769D01*
X146738865Y-115541767D01*
X146738378Y-115539315D01*
X146738378Y-115500685D01*
X146738865Y-115498232D01*
X146738867Y-115498231D01*
X146750500Y-115439748D01*
X146750500Y-115100252D01*
X146738867Y-115041769D01*
X146717696Y-115010085D01*
X146694552Y-114975447D01*
X146644498Y-114942002D01*
X146606619Y-114893952D01*
X146600500Y-114859687D01*
X146600500Y-114744081D01*
X146619407Y-114685890D01*
X146668907Y-114649926D01*
X146730093Y-114649926D01*
X146740286Y-114653942D01*
X146740512Y-114653971D01*
X146740513Y-114653972D01*
X146790099Y-114660500D01*
X147209900Y-114660499D01*
X147259487Y-114653972D01*
X147368316Y-114603224D01*
X147368316Y-114603223D01*
X147370349Y-114602276D01*
X147412189Y-114593000D01*
X147567953Y-114593000D01*
X147615774Y-114608537D01*
G37*
%TD.AperFunction*%
M02*
