%TF.GenerationSoftware,KiCad,Pcbnew,7.0.2*%
%TF.CreationDate,2023-07-30T22:15:09-04:00*%
%TF.ProjectId,ExternalFaces,45787465-726e-4616-9c46-616365732e6b,rev?*%
%TF.SameCoordinates,Original*%
%TF.FileFunction,Drillmap*%
%TF.FilePolarity,Positive*%
%FSLAX45Y45*%
G04 Gerber Fmt 4.5, Leading zero omitted, Abs format (unit mm)*
G04 Created by KiCad (PCBNEW 7.0.2) date 2023-07-30 22:15:09*
%MOMM*%
%LPD*%
G01*
G04 APERTURE LIST*
%ADD10C,0.100000*%
%ADD11C,0.050000*%
%ADD12C,0.200000*%
%ADD13C,0.020000*%
%ADD14C,0.030000*%
G04 APERTURE END LIST*
D10*
X10650000Y-7280000D02*
X11202000Y-7280000D01*
X13650000Y-7180000D02*
X12050000Y-7180000D01*
X10650000Y-12060000D02*
X10650000Y-7280000D01*
D11*
X11202000Y-7319000D02*
X11202000Y-7280000D01*
D10*
X11700000Y-12040000D02*
X11700000Y-12060000D01*
D11*
X11791000Y-7280000D02*
X11791000Y-7319000D01*
D10*
X13650000Y-7280000D02*
X13650000Y-7180000D01*
X12050000Y-7180000D02*
X12050000Y-7280000D01*
X14900000Y-12060000D02*
G75*
G03*
X14800000Y-12060000I-50000J0D01*
G01*
X14000000Y-12060000D02*
X14000000Y-12220000D01*
D11*
X11791000Y-7319000D02*
X11202000Y-7319000D01*
D10*
X11700000Y-12220000D02*
X10900000Y-12220000D01*
X13950000Y-7280000D02*
X13750000Y-7280000D01*
X14900000Y-12060000D02*
X15050000Y-12060000D01*
X10900000Y-12060000D02*
G75*
G03*
X10800000Y-12060000I-50000J0D01*
G01*
X14000000Y-12040000D02*
G75*
G03*
X13900000Y-12040000I-50000J0D01*
G01*
X12930000Y-12040000D02*
X12930000Y-12060000D01*
D11*
X11851000Y-7280000D02*
X11791000Y-7280000D01*
D10*
X12770000Y-12040000D02*
X12770000Y-12060000D01*
X11700000Y-12060000D02*
X11700000Y-12220000D01*
X11950000Y-7280000D02*
G75*
G03*
X12050000Y-7280000I50000J0D01*
G01*
X15050000Y-12060000D02*
X15250000Y-12060000D01*
X12770000Y-12040000D02*
X11800000Y-12040000D01*
X14800000Y-12220000D02*
X14800000Y-12060000D01*
X10900000Y-12220000D02*
X10900000Y-12060000D01*
X15250000Y-7280000D02*
X15250000Y-12060000D01*
X10800000Y-12060000D02*
X10650000Y-12060000D01*
X11800000Y-12040000D02*
G75*
G03*
X11700000Y-12040000I-50000J0D01*
G01*
D11*
X11950000Y-7280000D02*
X11851000Y-7280000D01*
D10*
X13650000Y-7280000D02*
G75*
G03*
X13750000Y-7280000I50000J0D01*
G01*
X12930000Y-12060000D02*
X12770000Y-12060000D01*
X14000000Y-12220000D02*
X14800000Y-12220000D01*
X14000000Y-12040000D02*
X14000000Y-12060000D01*
X13900000Y-12040000D02*
X12930000Y-12040000D01*
X15250000Y-7280000D02*
X13950000Y-7280000D01*
D12*
D13*
X14585000Y-11818000D02*
X14605000Y-11838000D01*
X14605000Y-11818000D02*
X14585000Y-11838000D01*
X14745317Y-11813446D02*
X14765317Y-11833446D01*
X14765317Y-11813446D02*
X14745317Y-11833446D01*
X14885000Y-11791000D02*
X14905000Y-11811000D01*
X14905000Y-11791000D02*
X14885000Y-11811000D01*
X14941000Y-11788000D02*
X14961000Y-11808000D01*
X14961000Y-11788000D02*
X14941000Y-11808000D01*
X15023000Y-11853000D02*
X15043000Y-11873000D01*
X15043000Y-11853000D02*
X15023000Y-11873000D01*
D14*
X10710000Y-9555000D02*
G75*
G03*
X10710000Y-9555000I-15000J0D01*
G01*
X10715000Y-7330000D02*
G75*
G03*
X10715000Y-7330000I-15000J0D01*
G01*
X10715000Y-9780000D02*
G75*
G03*
X10715000Y-9780000I-15000J0D01*
G01*
X10765000Y-11965000D02*
G75*
G03*
X10765000Y-11965000I-15000J0D01*
G01*
X11765000Y-11900000D02*
G75*
G03*
X11765000Y-11900000I-15000J0D01*
G01*
X12140000Y-7250000D02*
G75*
G03*
X12140000Y-7250000I-15000J0D01*
G01*
X12565000Y-9960000D02*
G75*
G03*
X12565000Y-9960000I-15000J0D01*
G01*
X12610000Y-11850000D02*
G75*
G03*
X12610000Y-11850000I-15000J0D01*
G01*
X12715000Y-11980000D02*
G75*
G03*
X12715000Y-11980000I-15000J0D01*
G01*
X12855000Y-11820000D02*
G75*
G03*
X12855000Y-11820000I-15000J0D01*
G01*
X12915000Y-11880000D02*
G75*
G03*
X12915000Y-11880000I-15000J0D01*
G01*
X12960000Y-9250000D02*
G75*
G03*
X12960000Y-9250000I-15000J0D01*
G01*
X12975000Y-9440000D02*
G75*
G03*
X12975000Y-9440000I-15000J0D01*
G01*
X13155000Y-9620000D02*
G75*
G03*
X13155000Y-9620000I-15000J0D01*
G01*
X13225000Y-9870000D02*
G75*
G03*
X13225000Y-9870000I-15000J0D01*
G01*
X13245000Y-9340000D02*
G75*
G03*
X13245000Y-9340000I-15000J0D01*
G01*
X13255000Y-11945000D02*
G75*
G03*
X13255000Y-11945000I-15000J0D01*
G01*
X13285000Y-10020000D02*
G75*
G03*
X13285000Y-10020000I-15000J0D01*
G01*
X13325000Y-9670000D02*
G75*
G03*
X13325000Y-9670000I-15000J0D01*
G01*
X13615000Y-7240000D02*
G75*
G03*
X13615000Y-7240000I-15000J0D01*
G01*
X13810000Y-7325000D02*
G75*
G03*
X13810000Y-7325000I-15000J0D01*
G01*
X14085000Y-12140000D02*
G75*
G03*
X14085000Y-12140000I-15000J0D01*
G01*
X14355000Y-11830000D02*
G75*
G03*
X14355000Y-11830000I-15000J0D01*
G01*
X14435000Y-11830000D02*
G75*
G03*
X14435000Y-11830000I-15000J0D01*
G01*
X14505000Y-11830000D02*
G75*
G03*
X14505000Y-11830000I-15000J0D01*
G01*
X14755000Y-12150000D02*
G75*
G03*
X14755000Y-12150000I-15000J0D01*
G01*
X15210000Y-11090000D02*
G75*
G03*
X15210000Y-11090000I-15000J0D01*
G01*
X15210000Y-11240000D02*
G75*
G03*
X15210000Y-11240000I-15000J0D01*
G01*
X15215000Y-7330000D02*
G75*
G03*
X15215000Y-7330000I-15000J0D01*
G01*
X15215000Y-9560000D02*
G75*
G03*
X15215000Y-9560000I-15000J0D01*
G01*
X15215000Y-9780000D02*
G75*
G03*
X15215000Y-9780000I-15000J0D01*
G01*
X15215000Y-10855000D02*
G75*
G03*
X15215000Y-10855000I-15000J0D01*
G01*
D12*
X10892619Y-12537524D02*
X10892619Y-12337524D01*
X10892619Y-12337524D02*
X10940238Y-12337524D01*
X10940238Y-12337524D02*
X10968810Y-12347048D01*
X10968810Y-12347048D02*
X10987857Y-12366095D01*
X10987857Y-12366095D02*
X10997381Y-12385143D01*
X10997381Y-12385143D02*
X11006905Y-12423238D01*
X11006905Y-12423238D02*
X11006905Y-12451809D01*
X11006905Y-12451809D02*
X10997381Y-12489905D01*
X10997381Y-12489905D02*
X10987857Y-12508952D01*
X10987857Y-12508952D02*
X10968810Y-12528000D01*
X10968810Y-12528000D02*
X10940238Y-12537524D01*
X10940238Y-12537524D02*
X10892619Y-12537524D01*
X11092619Y-12537524D02*
X11092619Y-12404190D01*
X11092619Y-12442286D02*
X11102143Y-12423238D01*
X11102143Y-12423238D02*
X11111667Y-12413714D01*
X11111667Y-12413714D02*
X11130714Y-12404190D01*
X11130714Y-12404190D02*
X11149762Y-12404190D01*
X11216428Y-12537524D02*
X11216428Y-12404190D01*
X11216428Y-12337524D02*
X11206905Y-12347048D01*
X11206905Y-12347048D02*
X11216428Y-12356571D01*
X11216428Y-12356571D02*
X11225952Y-12347048D01*
X11225952Y-12347048D02*
X11216428Y-12337524D01*
X11216428Y-12337524D02*
X11216428Y-12356571D01*
X11340238Y-12537524D02*
X11321190Y-12528000D01*
X11321190Y-12528000D02*
X11311667Y-12508952D01*
X11311667Y-12508952D02*
X11311667Y-12337524D01*
X11445000Y-12537524D02*
X11425952Y-12528000D01*
X11425952Y-12528000D02*
X11416428Y-12508952D01*
X11416428Y-12508952D02*
X11416428Y-12337524D01*
X11673571Y-12537524D02*
X11673571Y-12337524D01*
X11673571Y-12337524D02*
X11740238Y-12480381D01*
X11740238Y-12480381D02*
X11806905Y-12337524D01*
X11806905Y-12337524D02*
X11806905Y-12537524D01*
X11987857Y-12537524D02*
X11987857Y-12432762D01*
X11987857Y-12432762D02*
X11978333Y-12413714D01*
X11978333Y-12413714D02*
X11959286Y-12404190D01*
X11959286Y-12404190D02*
X11921190Y-12404190D01*
X11921190Y-12404190D02*
X11902143Y-12413714D01*
X11987857Y-12528000D02*
X11968809Y-12537524D01*
X11968809Y-12537524D02*
X11921190Y-12537524D01*
X11921190Y-12537524D02*
X11902143Y-12528000D01*
X11902143Y-12528000D02*
X11892619Y-12508952D01*
X11892619Y-12508952D02*
X11892619Y-12489905D01*
X11892619Y-12489905D02*
X11902143Y-12470857D01*
X11902143Y-12470857D02*
X11921190Y-12461333D01*
X11921190Y-12461333D02*
X11968809Y-12461333D01*
X11968809Y-12461333D02*
X11987857Y-12451809D01*
X12083095Y-12404190D02*
X12083095Y-12604190D01*
X12083095Y-12413714D02*
X12102143Y-12404190D01*
X12102143Y-12404190D02*
X12140238Y-12404190D01*
X12140238Y-12404190D02*
X12159286Y-12413714D01*
X12159286Y-12413714D02*
X12168809Y-12423238D01*
X12168809Y-12423238D02*
X12178333Y-12442286D01*
X12178333Y-12442286D02*
X12178333Y-12499428D01*
X12178333Y-12499428D02*
X12168809Y-12518476D01*
X12168809Y-12518476D02*
X12159286Y-12528000D01*
X12159286Y-12528000D02*
X12140238Y-12537524D01*
X12140238Y-12537524D02*
X12102143Y-12537524D01*
X12102143Y-12537524D02*
X12083095Y-12528000D01*
X12264048Y-12518476D02*
X12273571Y-12528000D01*
X12273571Y-12528000D02*
X12264048Y-12537524D01*
X12264048Y-12537524D02*
X12254524Y-12528000D01*
X12254524Y-12528000D02*
X12264048Y-12518476D01*
X12264048Y-12518476D02*
X12264048Y-12537524D01*
X12264048Y-12413714D02*
X12273571Y-12423238D01*
X12273571Y-12423238D02*
X12264048Y-12432762D01*
X12264048Y-12432762D02*
X12254524Y-12423238D01*
X12254524Y-12423238D02*
X12264048Y-12413714D01*
X12264048Y-12413714D02*
X12264048Y-12432762D01*
D13*
X10625000Y-12855000D02*
X10645000Y-12875000D01*
X10645000Y-12855000D02*
X10625000Y-12875000D01*
D12*
X10930714Y-12757524D02*
X10949762Y-12757524D01*
X10949762Y-12757524D02*
X10968810Y-12767048D01*
X10968810Y-12767048D02*
X10978333Y-12776571D01*
X10978333Y-12776571D02*
X10987857Y-12795619D01*
X10987857Y-12795619D02*
X10997381Y-12833714D01*
X10997381Y-12833714D02*
X10997381Y-12881333D01*
X10997381Y-12881333D02*
X10987857Y-12919428D01*
X10987857Y-12919428D02*
X10978333Y-12938476D01*
X10978333Y-12938476D02*
X10968810Y-12948000D01*
X10968810Y-12948000D02*
X10949762Y-12957524D01*
X10949762Y-12957524D02*
X10930714Y-12957524D01*
X10930714Y-12957524D02*
X10911667Y-12948000D01*
X10911667Y-12948000D02*
X10902143Y-12938476D01*
X10902143Y-12938476D02*
X10892619Y-12919428D01*
X10892619Y-12919428D02*
X10883095Y-12881333D01*
X10883095Y-12881333D02*
X10883095Y-12833714D01*
X10883095Y-12833714D02*
X10892619Y-12795619D01*
X10892619Y-12795619D02*
X10902143Y-12776571D01*
X10902143Y-12776571D02*
X10911667Y-12767048D01*
X10911667Y-12767048D02*
X10930714Y-12757524D01*
X11083095Y-12938476D02*
X11092619Y-12948000D01*
X11092619Y-12948000D02*
X11083095Y-12957524D01*
X11083095Y-12957524D02*
X11073571Y-12948000D01*
X11073571Y-12948000D02*
X11083095Y-12938476D01*
X11083095Y-12938476D02*
X11083095Y-12957524D01*
X11168810Y-12776571D02*
X11178333Y-12767048D01*
X11178333Y-12767048D02*
X11197381Y-12757524D01*
X11197381Y-12757524D02*
X11245000Y-12757524D01*
X11245000Y-12757524D02*
X11264048Y-12767048D01*
X11264048Y-12767048D02*
X11273571Y-12776571D01*
X11273571Y-12776571D02*
X11283095Y-12795619D01*
X11283095Y-12795619D02*
X11283095Y-12814667D01*
X11283095Y-12814667D02*
X11273571Y-12843238D01*
X11273571Y-12843238D02*
X11159286Y-12957524D01*
X11159286Y-12957524D02*
X11283095Y-12957524D01*
X11406905Y-12757524D02*
X11425952Y-12757524D01*
X11425952Y-12757524D02*
X11445000Y-12767048D01*
X11445000Y-12767048D02*
X11454524Y-12776571D01*
X11454524Y-12776571D02*
X11464048Y-12795619D01*
X11464048Y-12795619D02*
X11473571Y-12833714D01*
X11473571Y-12833714D02*
X11473571Y-12881333D01*
X11473571Y-12881333D02*
X11464048Y-12919428D01*
X11464048Y-12919428D02*
X11454524Y-12938476D01*
X11454524Y-12938476D02*
X11445000Y-12948000D01*
X11445000Y-12948000D02*
X11425952Y-12957524D01*
X11425952Y-12957524D02*
X11406905Y-12957524D01*
X11406905Y-12957524D02*
X11387857Y-12948000D01*
X11387857Y-12948000D02*
X11378333Y-12938476D01*
X11378333Y-12938476D02*
X11368809Y-12919428D01*
X11368809Y-12919428D02*
X11359286Y-12881333D01*
X11359286Y-12881333D02*
X11359286Y-12833714D01*
X11359286Y-12833714D02*
X11368809Y-12795619D01*
X11368809Y-12795619D02*
X11378333Y-12776571D01*
X11378333Y-12776571D02*
X11387857Y-12767048D01*
X11387857Y-12767048D02*
X11406905Y-12757524D01*
X11597381Y-12757524D02*
X11616429Y-12757524D01*
X11616429Y-12757524D02*
X11635476Y-12767048D01*
X11635476Y-12767048D02*
X11645000Y-12776571D01*
X11645000Y-12776571D02*
X11654524Y-12795619D01*
X11654524Y-12795619D02*
X11664048Y-12833714D01*
X11664048Y-12833714D02*
X11664048Y-12881333D01*
X11664048Y-12881333D02*
X11654524Y-12919428D01*
X11654524Y-12919428D02*
X11645000Y-12938476D01*
X11645000Y-12938476D02*
X11635476Y-12948000D01*
X11635476Y-12948000D02*
X11616429Y-12957524D01*
X11616429Y-12957524D02*
X11597381Y-12957524D01*
X11597381Y-12957524D02*
X11578333Y-12948000D01*
X11578333Y-12948000D02*
X11568809Y-12938476D01*
X11568809Y-12938476D02*
X11559286Y-12919428D01*
X11559286Y-12919428D02*
X11549762Y-12881333D01*
X11549762Y-12881333D02*
X11549762Y-12833714D01*
X11549762Y-12833714D02*
X11559286Y-12795619D01*
X11559286Y-12795619D02*
X11568809Y-12776571D01*
X11568809Y-12776571D02*
X11578333Y-12767048D01*
X11578333Y-12767048D02*
X11597381Y-12757524D01*
X11749762Y-12957524D02*
X11749762Y-12824190D01*
X11749762Y-12843238D02*
X11759286Y-12833714D01*
X11759286Y-12833714D02*
X11778333Y-12824190D01*
X11778333Y-12824190D02*
X11806905Y-12824190D01*
X11806905Y-12824190D02*
X11825952Y-12833714D01*
X11825952Y-12833714D02*
X11835476Y-12852762D01*
X11835476Y-12852762D02*
X11835476Y-12957524D01*
X11835476Y-12852762D02*
X11845000Y-12833714D01*
X11845000Y-12833714D02*
X11864048Y-12824190D01*
X11864048Y-12824190D02*
X11892619Y-12824190D01*
X11892619Y-12824190D02*
X11911667Y-12833714D01*
X11911667Y-12833714D02*
X11921190Y-12852762D01*
X11921190Y-12852762D02*
X11921190Y-12957524D01*
X12016429Y-12957524D02*
X12016429Y-12824190D01*
X12016429Y-12843238D02*
X12025952Y-12833714D01*
X12025952Y-12833714D02*
X12045000Y-12824190D01*
X12045000Y-12824190D02*
X12073571Y-12824190D01*
X12073571Y-12824190D02*
X12092619Y-12833714D01*
X12092619Y-12833714D02*
X12102143Y-12852762D01*
X12102143Y-12852762D02*
X12102143Y-12957524D01*
X12102143Y-12852762D02*
X12111667Y-12833714D01*
X12111667Y-12833714D02*
X12130714Y-12824190D01*
X12130714Y-12824190D02*
X12159286Y-12824190D01*
X12159286Y-12824190D02*
X12178333Y-12833714D01*
X12178333Y-12833714D02*
X12187857Y-12852762D01*
X12187857Y-12852762D02*
X12187857Y-12957524D01*
X12578333Y-12748000D02*
X12406905Y-13005143D01*
X12835476Y-12757524D02*
X12854524Y-12757524D01*
X12854524Y-12757524D02*
X12873572Y-12767048D01*
X12873572Y-12767048D02*
X12883095Y-12776571D01*
X12883095Y-12776571D02*
X12892619Y-12795619D01*
X12892619Y-12795619D02*
X12902143Y-12833714D01*
X12902143Y-12833714D02*
X12902143Y-12881333D01*
X12902143Y-12881333D02*
X12892619Y-12919428D01*
X12892619Y-12919428D02*
X12883095Y-12938476D01*
X12883095Y-12938476D02*
X12873572Y-12948000D01*
X12873572Y-12948000D02*
X12854524Y-12957524D01*
X12854524Y-12957524D02*
X12835476Y-12957524D01*
X12835476Y-12957524D02*
X12816429Y-12948000D01*
X12816429Y-12948000D02*
X12806905Y-12938476D01*
X12806905Y-12938476D02*
X12797381Y-12919428D01*
X12797381Y-12919428D02*
X12787857Y-12881333D01*
X12787857Y-12881333D02*
X12787857Y-12833714D01*
X12787857Y-12833714D02*
X12797381Y-12795619D01*
X12797381Y-12795619D02*
X12806905Y-12776571D01*
X12806905Y-12776571D02*
X12816429Y-12767048D01*
X12816429Y-12767048D02*
X12835476Y-12757524D01*
X12987857Y-12938476D02*
X12997381Y-12948000D01*
X12997381Y-12948000D02*
X12987857Y-12957524D01*
X12987857Y-12957524D02*
X12978333Y-12948000D01*
X12978333Y-12948000D02*
X12987857Y-12938476D01*
X12987857Y-12938476D02*
X12987857Y-12957524D01*
X13121191Y-12757524D02*
X13140238Y-12757524D01*
X13140238Y-12757524D02*
X13159286Y-12767048D01*
X13159286Y-12767048D02*
X13168810Y-12776571D01*
X13168810Y-12776571D02*
X13178333Y-12795619D01*
X13178333Y-12795619D02*
X13187857Y-12833714D01*
X13187857Y-12833714D02*
X13187857Y-12881333D01*
X13187857Y-12881333D02*
X13178333Y-12919428D01*
X13178333Y-12919428D02*
X13168810Y-12938476D01*
X13168810Y-12938476D02*
X13159286Y-12948000D01*
X13159286Y-12948000D02*
X13140238Y-12957524D01*
X13140238Y-12957524D02*
X13121191Y-12957524D01*
X13121191Y-12957524D02*
X13102143Y-12948000D01*
X13102143Y-12948000D02*
X13092619Y-12938476D01*
X13092619Y-12938476D02*
X13083095Y-12919428D01*
X13083095Y-12919428D02*
X13073572Y-12881333D01*
X13073572Y-12881333D02*
X13073572Y-12833714D01*
X13073572Y-12833714D02*
X13083095Y-12795619D01*
X13083095Y-12795619D02*
X13092619Y-12776571D01*
X13092619Y-12776571D02*
X13102143Y-12767048D01*
X13102143Y-12767048D02*
X13121191Y-12757524D01*
X13311667Y-12757524D02*
X13330714Y-12757524D01*
X13330714Y-12757524D02*
X13349762Y-12767048D01*
X13349762Y-12767048D02*
X13359286Y-12776571D01*
X13359286Y-12776571D02*
X13368810Y-12795619D01*
X13368810Y-12795619D02*
X13378333Y-12833714D01*
X13378333Y-12833714D02*
X13378333Y-12881333D01*
X13378333Y-12881333D02*
X13368810Y-12919428D01*
X13368810Y-12919428D02*
X13359286Y-12938476D01*
X13359286Y-12938476D02*
X13349762Y-12948000D01*
X13349762Y-12948000D02*
X13330714Y-12957524D01*
X13330714Y-12957524D02*
X13311667Y-12957524D01*
X13311667Y-12957524D02*
X13292619Y-12948000D01*
X13292619Y-12948000D02*
X13283095Y-12938476D01*
X13283095Y-12938476D02*
X13273572Y-12919428D01*
X13273572Y-12919428D02*
X13264048Y-12881333D01*
X13264048Y-12881333D02*
X13264048Y-12833714D01*
X13264048Y-12833714D02*
X13273572Y-12795619D01*
X13273572Y-12795619D02*
X13283095Y-12776571D01*
X13283095Y-12776571D02*
X13292619Y-12767048D01*
X13292619Y-12767048D02*
X13311667Y-12757524D01*
X13445000Y-12757524D02*
X13578333Y-12757524D01*
X13578333Y-12757524D02*
X13492619Y-12957524D01*
X13664048Y-12957524D02*
X13702143Y-12957524D01*
X13702143Y-12957524D02*
X13721191Y-12948000D01*
X13721191Y-12948000D02*
X13730714Y-12938476D01*
X13730714Y-12938476D02*
X13749762Y-12909905D01*
X13749762Y-12909905D02*
X13759286Y-12871809D01*
X13759286Y-12871809D02*
X13759286Y-12795619D01*
X13759286Y-12795619D02*
X13749762Y-12776571D01*
X13749762Y-12776571D02*
X13740238Y-12767048D01*
X13740238Y-12767048D02*
X13721191Y-12757524D01*
X13721191Y-12757524D02*
X13683095Y-12757524D01*
X13683095Y-12757524D02*
X13664048Y-12767048D01*
X13664048Y-12767048D02*
X13654524Y-12776571D01*
X13654524Y-12776571D02*
X13645000Y-12795619D01*
X13645000Y-12795619D02*
X13645000Y-12843238D01*
X13645000Y-12843238D02*
X13654524Y-12862286D01*
X13654524Y-12862286D02*
X13664048Y-12871809D01*
X13664048Y-12871809D02*
X13683095Y-12881333D01*
X13683095Y-12881333D02*
X13721191Y-12881333D01*
X13721191Y-12881333D02*
X13740238Y-12871809D01*
X13740238Y-12871809D02*
X13749762Y-12862286D01*
X13749762Y-12862286D02*
X13759286Y-12843238D01*
X13835476Y-12757524D02*
X13835476Y-12795619D01*
X13911667Y-12757524D02*
X13911667Y-12795619D01*
X14206905Y-13033714D02*
X14197381Y-13024190D01*
X14197381Y-13024190D02*
X14178334Y-12995619D01*
X14178334Y-12995619D02*
X14168810Y-12976571D01*
X14168810Y-12976571D02*
X14159286Y-12948000D01*
X14159286Y-12948000D02*
X14149762Y-12900381D01*
X14149762Y-12900381D02*
X14149762Y-12862286D01*
X14149762Y-12862286D02*
X14159286Y-12814667D01*
X14159286Y-12814667D02*
X14168810Y-12786095D01*
X14168810Y-12786095D02*
X14178334Y-12767048D01*
X14178334Y-12767048D02*
X14197381Y-12738476D01*
X14197381Y-12738476D02*
X14206905Y-12728952D01*
X14378334Y-12757524D02*
X14283095Y-12757524D01*
X14283095Y-12757524D02*
X14273572Y-12852762D01*
X14273572Y-12852762D02*
X14283095Y-12843238D01*
X14283095Y-12843238D02*
X14302143Y-12833714D01*
X14302143Y-12833714D02*
X14349762Y-12833714D01*
X14349762Y-12833714D02*
X14368810Y-12843238D01*
X14368810Y-12843238D02*
X14378334Y-12852762D01*
X14378334Y-12852762D02*
X14387857Y-12871809D01*
X14387857Y-12871809D02*
X14387857Y-12919428D01*
X14387857Y-12919428D02*
X14378334Y-12938476D01*
X14378334Y-12938476D02*
X14368810Y-12948000D01*
X14368810Y-12948000D02*
X14349762Y-12957524D01*
X14349762Y-12957524D02*
X14302143Y-12957524D01*
X14302143Y-12957524D02*
X14283095Y-12948000D01*
X14283095Y-12948000D02*
X14273572Y-12938476D01*
X14625953Y-12957524D02*
X14625953Y-12757524D01*
X14711667Y-12957524D02*
X14711667Y-12852762D01*
X14711667Y-12852762D02*
X14702143Y-12833714D01*
X14702143Y-12833714D02*
X14683096Y-12824190D01*
X14683096Y-12824190D02*
X14654524Y-12824190D01*
X14654524Y-12824190D02*
X14635476Y-12833714D01*
X14635476Y-12833714D02*
X14625953Y-12843238D01*
X14835476Y-12957524D02*
X14816429Y-12948000D01*
X14816429Y-12948000D02*
X14806905Y-12938476D01*
X14806905Y-12938476D02*
X14797381Y-12919428D01*
X14797381Y-12919428D02*
X14797381Y-12862286D01*
X14797381Y-12862286D02*
X14806905Y-12843238D01*
X14806905Y-12843238D02*
X14816429Y-12833714D01*
X14816429Y-12833714D02*
X14835476Y-12824190D01*
X14835476Y-12824190D02*
X14864048Y-12824190D01*
X14864048Y-12824190D02*
X14883096Y-12833714D01*
X14883096Y-12833714D02*
X14892619Y-12843238D01*
X14892619Y-12843238D02*
X14902143Y-12862286D01*
X14902143Y-12862286D02*
X14902143Y-12919428D01*
X14902143Y-12919428D02*
X14892619Y-12938476D01*
X14892619Y-12938476D02*
X14883096Y-12948000D01*
X14883096Y-12948000D02*
X14864048Y-12957524D01*
X14864048Y-12957524D02*
X14835476Y-12957524D01*
X15016429Y-12957524D02*
X14997381Y-12948000D01*
X14997381Y-12948000D02*
X14987857Y-12928952D01*
X14987857Y-12928952D02*
X14987857Y-12757524D01*
X15168810Y-12948000D02*
X15149762Y-12957524D01*
X15149762Y-12957524D02*
X15111667Y-12957524D01*
X15111667Y-12957524D02*
X15092619Y-12948000D01*
X15092619Y-12948000D02*
X15083096Y-12928952D01*
X15083096Y-12928952D02*
X15083096Y-12852762D01*
X15083096Y-12852762D02*
X15092619Y-12833714D01*
X15092619Y-12833714D02*
X15111667Y-12824190D01*
X15111667Y-12824190D02*
X15149762Y-12824190D01*
X15149762Y-12824190D02*
X15168810Y-12833714D01*
X15168810Y-12833714D02*
X15178334Y-12852762D01*
X15178334Y-12852762D02*
X15178334Y-12871809D01*
X15178334Y-12871809D02*
X15083096Y-12890857D01*
X15254524Y-12948000D02*
X15273572Y-12957524D01*
X15273572Y-12957524D02*
X15311667Y-12957524D01*
X15311667Y-12957524D02*
X15330715Y-12948000D01*
X15330715Y-12948000D02*
X15340238Y-12928952D01*
X15340238Y-12928952D02*
X15340238Y-12919428D01*
X15340238Y-12919428D02*
X15330715Y-12900381D01*
X15330715Y-12900381D02*
X15311667Y-12890857D01*
X15311667Y-12890857D02*
X15283096Y-12890857D01*
X15283096Y-12890857D02*
X15264048Y-12881333D01*
X15264048Y-12881333D02*
X15254524Y-12862286D01*
X15254524Y-12862286D02*
X15254524Y-12852762D01*
X15254524Y-12852762D02*
X15264048Y-12833714D01*
X15264048Y-12833714D02*
X15283096Y-12824190D01*
X15283096Y-12824190D02*
X15311667Y-12824190D01*
X15311667Y-12824190D02*
X15330715Y-12833714D01*
X15406905Y-13033714D02*
X15416429Y-13024190D01*
X15416429Y-13024190D02*
X15435477Y-12995619D01*
X15435477Y-12995619D02*
X15445000Y-12976571D01*
X15445000Y-12976571D02*
X15454524Y-12948000D01*
X15454524Y-12948000D02*
X15464048Y-12900381D01*
X15464048Y-12900381D02*
X15464048Y-12862286D01*
X15464048Y-12862286D02*
X15454524Y-12814667D01*
X15454524Y-12814667D02*
X15445000Y-12786095D01*
X15445000Y-12786095D02*
X15435477Y-12767048D01*
X15435477Y-12767048D02*
X15416429Y-12738476D01*
X15416429Y-12738476D02*
X15406905Y-12728952D01*
D14*
X10645000Y-13129000D02*
G75*
G03*
X10645000Y-13129000I-15000J0D01*
G01*
D12*
X10930714Y-13021524D02*
X10949762Y-13021524D01*
X10949762Y-13021524D02*
X10968810Y-13031048D01*
X10968810Y-13031048D02*
X10978333Y-13040571D01*
X10978333Y-13040571D02*
X10987857Y-13059619D01*
X10987857Y-13059619D02*
X10997381Y-13097714D01*
X10997381Y-13097714D02*
X10997381Y-13145333D01*
X10997381Y-13145333D02*
X10987857Y-13183428D01*
X10987857Y-13183428D02*
X10978333Y-13202476D01*
X10978333Y-13202476D02*
X10968810Y-13212000D01*
X10968810Y-13212000D02*
X10949762Y-13221524D01*
X10949762Y-13221524D02*
X10930714Y-13221524D01*
X10930714Y-13221524D02*
X10911667Y-13212000D01*
X10911667Y-13212000D02*
X10902143Y-13202476D01*
X10902143Y-13202476D02*
X10892619Y-13183428D01*
X10892619Y-13183428D02*
X10883095Y-13145333D01*
X10883095Y-13145333D02*
X10883095Y-13097714D01*
X10883095Y-13097714D02*
X10892619Y-13059619D01*
X10892619Y-13059619D02*
X10902143Y-13040571D01*
X10902143Y-13040571D02*
X10911667Y-13031048D01*
X10911667Y-13031048D02*
X10930714Y-13021524D01*
X11083095Y-13202476D02*
X11092619Y-13212000D01*
X11092619Y-13212000D02*
X11083095Y-13221524D01*
X11083095Y-13221524D02*
X11073571Y-13212000D01*
X11073571Y-13212000D02*
X11083095Y-13202476D01*
X11083095Y-13202476D02*
X11083095Y-13221524D01*
X11159286Y-13021524D02*
X11283095Y-13021524D01*
X11283095Y-13021524D02*
X11216428Y-13097714D01*
X11216428Y-13097714D02*
X11245000Y-13097714D01*
X11245000Y-13097714D02*
X11264048Y-13107238D01*
X11264048Y-13107238D02*
X11273571Y-13116762D01*
X11273571Y-13116762D02*
X11283095Y-13135809D01*
X11283095Y-13135809D02*
X11283095Y-13183428D01*
X11283095Y-13183428D02*
X11273571Y-13202476D01*
X11273571Y-13202476D02*
X11264048Y-13212000D01*
X11264048Y-13212000D02*
X11245000Y-13221524D01*
X11245000Y-13221524D02*
X11187857Y-13221524D01*
X11187857Y-13221524D02*
X11168810Y-13212000D01*
X11168810Y-13212000D02*
X11159286Y-13202476D01*
X11406905Y-13021524D02*
X11425952Y-13021524D01*
X11425952Y-13021524D02*
X11445000Y-13031048D01*
X11445000Y-13031048D02*
X11454524Y-13040571D01*
X11454524Y-13040571D02*
X11464048Y-13059619D01*
X11464048Y-13059619D02*
X11473571Y-13097714D01*
X11473571Y-13097714D02*
X11473571Y-13145333D01*
X11473571Y-13145333D02*
X11464048Y-13183428D01*
X11464048Y-13183428D02*
X11454524Y-13202476D01*
X11454524Y-13202476D02*
X11445000Y-13212000D01*
X11445000Y-13212000D02*
X11425952Y-13221524D01*
X11425952Y-13221524D02*
X11406905Y-13221524D01*
X11406905Y-13221524D02*
X11387857Y-13212000D01*
X11387857Y-13212000D02*
X11378333Y-13202476D01*
X11378333Y-13202476D02*
X11368809Y-13183428D01*
X11368809Y-13183428D02*
X11359286Y-13145333D01*
X11359286Y-13145333D02*
X11359286Y-13097714D01*
X11359286Y-13097714D02*
X11368809Y-13059619D01*
X11368809Y-13059619D02*
X11378333Y-13040571D01*
X11378333Y-13040571D02*
X11387857Y-13031048D01*
X11387857Y-13031048D02*
X11406905Y-13021524D01*
X11597381Y-13021524D02*
X11616429Y-13021524D01*
X11616429Y-13021524D02*
X11635476Y-13031048D01*
X11635476Y-13031048D02*
X11645000Y-13040571D01*
X11645000Y-13040571D02*
X11654524Y-13059619D01*
X11654524Y-13059619D02*
X11664048Y-13097714D01*
X11664048Y-13097714D02*
X11664048Y-13145333D01*
X11664048Y-13145333D02*
X11654524Y-13183428D01*
X11654524Y-13183428D02*
X11645000Y-13202476D01*
X11645000Y-13202476D02*
X11635476Y-13212000D01*
X11635476Y-13212000D02*
X11616429Y-13221524D01*
X11616429Y-13221524D02*
X11597381Y-13221524D01*
X11597381Y-13221524D02*
X11578333Y-13212000D01*
X11578333Y-13212000D02*
X11568809Y-13202476D01*
X11568809Y-13202476D02*
X11559286Y-13183428D01*
X11559286Y-13183428D02*
X11549762Y-13145333D01*
X11549762Y-13145333D02*
X11549762Y-13097714D01*
X11549762Y-13097714D02*
X11559286Y-13059619D01*
X11559286Y-13059619D02*
X11568809Y-13040571D01*
X11568809Y-13040571D02*
X11578333Y-13031048D01*
X11578333Y-13031048D02*
X11597381Y-13021524D01*
X11749762Y-13221524D02*
X11749762Y-13088190D01*
X11749762Y-13107238D02*
X11759286Y-13097714D01*
X11759286Y-13097714D02*
X11778333Y-13088190D01*
X11778333Y-13088190D02*
X11806905Y-13088190D01*
X11806905Y-13088190D02*
X11825952Y-13097714D01*
X11825952Y-13097714D02*
X11835476Y-13116762D01*
X11835476Y-13116762D02*
X11835476Y-13221524D01*
X11835476Y-13116762D02*
X11845000Y-13097714D01*
X11845000Y-13097714D02*
X11864048Y-13088190D01*
X11864048Y-13088190D02*
X11892619Y-13088190D01*
X11892619Y-13088190D02*
X11911667Y-13097714D01*
X11911667Y-13097714D02*
X11921190Y-13116762D01*
X11921190Y-13116762D02*
X11921190Y-13221524D01*
X12016429Y-13221524D02*
X12016429Y-13088190D01*
X12016429Y-13107238D02*
X12025952Y-13097714D01*
X12025952Y-13097714D02*
X12045000Y-13088190D01*
X12045000Y-13088190D02*
X12073571Y-13088190D01*
X12073571Y-13088190D02*
X12092619Y-13097714D01*
X12092619Y-13097714D02*
X12102143Y-13116762D01*
X12102143Y-13116762D02*
X12102143Y-13221524D01*
X12102143Y-13116762D02*
X12111667Y-13097714D01*
X12111667Y-13097714D02*
X12130714Y-13088190D01*
X12130714Y-13088190D02*
X12159286Y-13088190D01*
X12159286Y-13088190D02*
X12178333Y-13097714D01*
X12178333Y-13097714D02*
X12187857Y-13116762D01*
X12187857Y-13116762D02*
X12187857Y-13221524D01*
X12578333Y-13012000D02*
X12406905Y-13269143D01*
X12835476Y-13021524D02*
X12854524Y-13021524D01*
X12854524Y-13021524D02*
X12873572Y-13031048D01*
X12873572Y-13031048D02*
X12883095Y-13040571D01*
X12883095Y-13040571D02*
X12892619Y-13059619D01*
X12892619Y-13059619D02*
X12902143Y-13097714D01*
X12902143Y-13097714D02*
X12902143Y-13145333D01*
X12902143Y-13145333D02*
X12892619Y-13183428D01*
X12892619Y-13183428D02*
X12883095Y-13202476D01*
X12883095Y-13202476D02*
X12873572Y-13212000D01*
X12873572Y-13212000D02*
X12854524Y-13221524D01*
X12854524Y-13221524D02*
X12835476Y-13221524D01*
X12835476Y-13221524D02*
X12816429Y-13212000D01*
X12816429Y-13212000D02*
X12806905Y-13202476D01*
X12806905Y-13202476D02*
X12797381Y-13183428D01*
X12797381Y-13183428D02*
X12787857Y-13145333D01*
X12787857Y-13145333D02*
X12787857Y-13097714D01*
X12787857Y-13097714D02*
X12797381Y-13059619D01*
X12797381Y-13059619D02*
X12806905Y-13040571D01*
X12806905Y-13040571D02*
X12816429Y-13031048D01*
X12816429Y-13031048D02*
X12835476Y-13021524D01*
X12987857Y-13202476D02*
X12997381Y-13212000D01*
X12997381Y-13212000D02*
X12987857Y-13221524D01*
X12987857Y-13221524D02*
X12978333Y-13212000D01*
X12978333Y-13212000D02*
X12987857Y-13202476D01*
X12987857Y-13202476D02*
X12987857Y-13221524D01*
X13121191Y-13021524D02*
X13140238Y-13021524D01*
X13140238Y-13021524D02*
X13159286Y-13031048D01*
X13159286Y-13031048D02*
X13168810Y-13040571D01*
X13168810Y-13040571D02*
X13178333Y-13059619D01*
X13178333Y-13059619D02*
X13187857Y-13097714D01*
X13187857Y-13097714D02*
X13187857Y-13145333D01*
X13187857Y-13145333D02*
X13178333Y-13183428D01*
X13178333Y-13183428D02*
X13168810Y-13202476D01*
X13168810Y-13202476D02*
X13159286Y-13212000D01*
X13159286Y-13212000D02*
X13140238Y-13221524D01*
X13140238Y-13221524D02*
X13121191Y-13221524D01*
X13121191Y-13221524D02*
X13102143Y-13212000D01*
X13102143Y-13212000D02*
X13092619Y-13202476D01*
X13092619Y-13202476D02*
X13083095Y-13183428D01*
X13083095Y-13183428D02*
X13073572Y-13145333D01*
X13073572Y-13145333D02*
X13073572Y-13097714D01*
X13073572Y-13097714D02*
X13083095Y-13059619D01*
X13083095Y-13059619D02*
X13092619Y-13040571D01*
X13092619Y-13040571D02*
X13102143Y-13031048D01*
X13102143Y-13031048D02*
X13121191Y-13021524D01*
X13378333Y-13221524D02*
X13264048Y-13221524D01*
X13321191Y-13221524D02*
X13321191Y-13021524D01*
X13321191Y-13021524D02*
X13302143Y-13050095D01*
X13302143Y-13050095D02*
X13283095Y-13069143D01*
X13283095Y-13069143D02*
X13264048Y-13078667D01*
X13568810Y-13221524D02*
X13454524Y-13221524D01*
X13511667Y-13221524D02*
X13511667Y-13021524D01*
X13511667Y-13021524D02*
X13492619Y-13050095D01*
X13492619Y-13050095D02*
X13473572Y-13069143D01*
X13473572Y-13069143D02*
X13454524Y-13078667D01*
X13683095Y-13107238D02*
X13664048Y-13097714D01*
X13664048Y-13097714D02*
X13654524Y-13088190D01*
X13654524Y-13088190D02*
X13645000Y-13069143D01*
X13645000Y-13069143D02*
X13645000Y-13059619D01*
X13645000Y-13059619D02*
X13654524Y-13040571D01*
X13654524Y-13040571D02*
X13664048Y-13031048D01*
X13664048Y-13031048D02*
X13683095Y-13021524D01*
X13683095Y-13021524D02*
X13721191Y-13021524D01*
X13721191Y-13021524D02*
X13740238Y-13031048D01*
X13740238Y-13031048D02*
X13749762Y-13040571D01*
X13749762Y-13040571D02*
X13759286Y-13059619D01*
X13759286Y-13059619D02*
X13759286Y-13069143D01*
X13759286Y-13069143D02*
X13749762Y-13088190D01*
X13749762Y-13088190D02*
X13740238Y-13097714D01*
X13740238Y-13097714D02*
X13721191Y-13107238D01*
X13721191Y-13107238D02*
X13683095Y-13107238D01*
X13683095Y-13107238D02*
X13664048Y-13116762D01*
X13664048Y-13116762D02*
X13654524Y-13126286D01*
X13654524Y-13126286D02*
X13645000Y-13145333D01*
X13645000Y-13145333D02*
X13645000Y-13183428D01*
X13645000Y-13183428D02*
X13654524Y-13202476D01*
X13654524Y-13202476D02*
X13664048Y-13212000D01*
X13664048Y-13212000D02*
X13683095Y-13221524D01*
X13683095Y-13221524D02*
X13721191Y-13221524D01*
X13721191Y-13221524D02*
X13740238Y-13212000D01*
X13740238Y-13212000D02*
X13749762Y-13202476D01*
X13749762Y-13202476D02*
X13759286Y-13183428D01*
X13759286Y-13183428D02*
X13759286Y-13145333D01*
X13759286Y-13145333D02*
X13749762Y-13126286D01*
X13749762Y-13126286D02*
X13740238Y-13116762D01*
X13740238Y-13116762D02*
X13721191Y-13107238D01*
X13835476Y-13021524D02*
X13835476Y-13059619D01*
X13911667Y-13021524D02*
X13911667Y-13059619D01*
X14206905Y-13297714D02*
X14197381Y-13288190D01*
X14197381Y-13288190D02*
X14178334Y-13259619D01*
X14178334Y-13259619D02*
X14168810Y-13240571D01*
X14168810Y-13240571D02*
X14159286Y-13212000D01*
X14159286Y-13212000D02*
X14149762Y-13164381D01*
X14149762Y-13164381D02*
X14149762Y-13126286D01*
X14149762Y-13126286D02*
X14159286Y-13078667D01*
X14159286Y-13078667D02*
X14168810Y-13050095D01*
X14168810Y-13050095D02*
X14178334Y-13031048D01*
X14178334Y-13031048D02*
X14197381Y-13002476D01*
X14197381Y-13002476D02*
X14206905Y-12992952D01*
X14264048Y-13021524D02*
X14387857Y-13021524D01*
X14387857Y-13021524D02*
X14321191Y-13097714D01*
X14321191Y-13097714D02*
X14349762Y-13097714D01*
X14349762Y-13097714D02*
X14368810Y-13107238D01*
X14368810Y-13107238D02*
X14378334Y-13116762D01*
X14378334Y-13116762D02*
X14387857Y-13135809D01*
X14387857Y-13135809D02*
X14387857Y-13183428D01*
X14387857Y-13183428D02*
X14378334Y-13202476D01*
X14378334Y-13202476D02*
X14368810Y-13212000D01*
X14368810Y-13212000D02*
X14349762Y-13221524D01*
X14349762Y-13221524D02*
X14292619Y-13221524D01*
X14292619Y-13221524D02*
X14273572Y-13212000D01*
X14273572Y-13212000D02*
X14264048Y-13202476D01*
X14464048Y-13040571D02*
X14473572Y-13031048D01*
X14473572Y-13031048D02*
X14492619Y-13021524D01*
X14492619Y-13021524D02*
X14540238Y-13021524D01*
X14540238Y-13021524D02*
X14559286Y-13031048D01*
X14559286Y-13031048D02*
X14568810Y-13040571D01*
X14568810Y-13040571D02*
X14578334Y-13059619D01*
X14578334Y-13059619D02*
X14578334Y-13078667D01*
X14578334Y-13078667D02*
X14568810Y-13107238D01*
X14568810Y-13107238D02*
X14454524Y-13221524D01*
X14454524Y-13221524D02*
X14578334Y-13221524D01*
X14816429Y-13221524D02*
X14816429Y-13021524D01*
X14902143Y-13221524D02*
X14902143Y-13116762D01*
X14902143Y-13116762D02*
X14892619Y-13097714D01*
X14892619Y-13097714D02*
X14873572Y-13088190D01*
X14873572Y-13088190D02*
X14845000Y-13088190D01*
X14845000Y-13088190D02*
X14825953Y-13097714D01*
X14825953Y-13097714D02*
X14816429Y-13107238D01*
X15025953Y-13221524D02*
X15006905Y-13212000D01*
X15006905Y-13212000D02*
X14997381Y-13202476D01*
X14997381Y-13202476D02*
X14987857Y-13183428D01*
X14987857Y-13183428D02*
X14987857Y-13126286D01*
X14987857Y-13126286D02*
X14997381Y-13107238D01*
X14997381Y-13107238D02*
X15006905Y-13097714D01*
X15006905Y-13097714D02*
X15025953Y-13088190D01*
X15025953Y-13088190D02*
X15054524Y-13088190D01*
X15054524Y-13088190D02*
X15073572Y-13097714D01*
X15073572Y-13097714D02*
X15083096Y-13107238D01*
X15083096Y-13107238D02*
X15092619Y-13126286D01*
X15092619Y-13126286D02*
X15092619Y-13183428D01*
X15092619Y-13183428D02*
X15083096Y-13202476D01*
X15083096Y-13202476D02*
X15073572Y-13212000D01*
X15073572Y-13212000D02*
X15054524Y-13221524D01*
X15054524Y-13221524D02*
X15025953Y-13221524D01*
X15206905Y-13221524D02*
X15187857Y-13212000D01*
X15187857Y-13212000D02*
X15178334Y-13192952D01*
X15178334Y-13192952D02*
X15178334Y-13021524D01*
X15359286Y-13212000D02*
X15340238Y-13221524D01*
X15340238Y-13221524D02*
X15302143Y-13221524D01*
X15302143Y-13221524D02*
X15283096Y-13212000D01*
X15283096Y-13212000D02*
X15273572Y-13192952D01*
X15273572Y-13192952D02*
X15273572Y-13116762D01*
X15273572Y-13116762D02*
X15283096Y-13097714D01*
X15283096Y-13097714D02*
X15302143Y-13088190D01*
X15302143Y-13088190D02*
X15340238Y-13088190D01*
X15340238Y-13088190D02*
X15359286Y-13097714D01*
X15359286Y-13097714D02*
X15368810Y-13116762D01*
X15368810Y-13116762D02*
X15368810Y-13135809D01*
X15368810Y-13135809D02*
X15273572Y-13154857D01*
X15445000Y-13212000D02*
X15464048Y-13221524D01*
X15464048Y-13221524D02*
X15502143Y-13221524D01*
X15502143Y-13221524D02*
X15521191Y-13212000D01*
X15521191Y-13212000D02*
X15530715Y-13192952D01*
X15530715Y-13192952D02*
X15530715Y-13183428D01*
X15530715Y-13183428D02*
X15521191Y-13164381D01*
X15521191Y-13164381D02*
X15502143Y-13154857D01*
X15502143Y-13154857D02*
X15473572Y-13154857D01*
X15473572Y-13154857D02*
X15454524Y-13145333D01*
X15454524Y-13145333D02*
X15445000Y-13126286D01*
X15445000Y-13126286D02*
X15445000Y-13116762D01*
X15445000Y-13116762D02*
X15454524Y-13097714D01*
X15454524Y-13097714D02*
X15473572Y-13088190D01*
X15473572Y-13088190D02*
X15502143Y-13088190D01*
X15502143Y-13088190D02*
X15521191Y-13097714D01*
X15597381Y-13297714D02*
X15606905Y-13288190D01*
X15606905Y-13288190D02*
X15625953Y-13259619D01*
X15625953Y-13259619D02*
X15635477Y-13240571D01*
X15635477Y-13240571D02*
X15645000Y-13212000D01*
X15645000Y-13212000D02*
X15654524Y-13164381D01*
X15654524Y-13164381D02*
X15654524Y-13126286D01*
X15654524Y-13126286D02*
X15645000Y-13078667D01*
X15645000Y-13078667D02*
X15635477Y-13050095D01*
X15635477Y-13050095D02*
X15625953Y-13031048D01*
X15625953Y-13031048D02*
X15606905Y-13002476D01*
X15606905Y-13002476D02*
X15597381Y-12992952D01*
M02*
