%TF.GenerationSoftware,KiCad,Pcbnew,7.0.2*%
%TF.CreationDate,2023-07-30T22:14:57-04:00*%
%TF.ProjectId,ExternalFaces,45787465-726e-4616-9c46-616365732e6b,rev?*%
%TF.SameCoordinates,Original*%
%TF.FileFunction,Copper,L2,Inr*%
%TF.FilePolarity,Positive*%
%FSLAX46Y46*%
G04 Gerber Fmt 4.6, Leading zero omitted, Abs format (unit mm)*
G04 Created by KiCad (PCBNEW 7.0.2) date 2023-07-30 22:14:57*
%MOMM*%
%LPD*%
G01*
G04 APERTURE LIST*
%TA.AperFunction,ViaPad*%
%ADD10C,0.600000*%
%TD*%
%TA.AperFunction,ViaPad*%
%ADD11C,0.500000*%
%TD*%
%TA.AperFunction,ViaPad*%
%ADD12C,0.400000*%
%TD*%
%TA.AperFunction,Conductor*%
%ADD13C,0.105100*%
%TD*%
%TA.AperFunction,Conductor*%
%ADD14C,0.300000*%
%TD*%
%TA.AperFunction,Conductor*%
%ADD15C,0.127000*%
%TD*%
%TA.AperFunction,Conductor*%
%ADD16C,0.200000*%
%TD*%
G04 APERTURE END LIST*
D10*
X129600000Y-94400000D03*
D11*
X132300000Y-93400000D03*
X144200000Y-118300000D03*
X132400000Y-119450000D03*
X152000000Y-95600000D03*
X107000000Y-73300000D03*
X147400000Y-121500000D03*
X106950000Y-95550000D03*
X107500000Y-119650000D03*
X152000000Y-73300000D03*
X125950000Y-118500000D03*
X136000000Y-72400000D03*
D10*
X133100000Y-96700000D03*
D11*
X137950000Y-73250000D03*
X152000000Y-108550000D03*
X127000000Y-119800000D03*
X152000000Y-97800000D03*
X121250000Y-72500000D03*
X151950000Y-112400000D03*
X117500000Y-119000000D03*
D12*
X147553173Y-118234462D03*
D11*
X107000000Y-97800000D03*
X151950000Y-110900000D03*
D10*
X125500000Y-99600000D03*
D11*
X140700000Y-121400000D03*
X131400000Y-96200000D03*
X144900000Y-118300000D03*
X129450000Y-92500000D03*
X132100000Y-98700000D03*
X143400000Y-118300000D03*
X128400000Y-118200000D03*
X129000000Y-118800000D03*
D12*
X145950000Y-118280000D03*
X150330000Y-118630000D03*
X148950000Y-118010000D03*
X149510000Y-117980000D03*
D11*
X132700000Y-100200000D03*
D13*
X150859400Y-117292350D02*
X150859400Y-74317850D01*
X113012100Y-112165150D02*
X145732200Y-112165150D01*
X123061400Y-102115850D02*
X135682900Y-102115850D01*
X134657500Y-90519750D02*
X124291900Y-90519750D01*
X122651200Y-88879050D02*
X122651200Y-102526050D01*
X143886500Y-110319350D02*
X143886500Y-81290750D01*
X145322100Y-111755050D02*
X145322100Y-79855150D01*
X147783100Y-77394150D02*
X111166300Y-77394150D01*
X139579600Y-106012550D02*
X139579600Y-85597650D01*
X110345900Y-114831350D02*
X148398400Y-114831350D01*
X148808600Y-76368650D02*
X110140800Y-76368650D01*
X116088400Y-82316250D02*
X116088400Y-109088850D01*
X136503300Y-102936250D02*
X136503300Y-88673950D01*
X118754500Y-106422750D02*
X139989800Y-106422750D01*
X140400000Y-106832850D02*
X140400000Y-84777250D01*
X143066100Y-109499050D02*
X143066100Y-82111150D01*
X143476300Y-81700950D02*
X115473100Y-81700950D01*
X112396800Y-78624650D02*
X112396800Y-112780450D01*
X123676600Y-101500650D02*
X135067700Y-101500650D01*
X120395200Y-86623050D02*
X120395200Y-104782050D01*
X139374500Y-85802750D02*
X119574900Y-85802750D01*
X134862600Y-101295550D02*
X134862600Y-90314650D01*
X140605000Y-107037950D02*
X140605000Y-84572250D01*
X114447700Y-80675550D02*
X114447700Y-110729550D01*
X138759300Y-105192150D02*
X138759300Y-86417950D01*
X115473100Y-109704150D02*
X143271200Y-109704150D01*
X143476300Y-109909250D02*
X143476300Y-81700950D01*
X115268000Y-81495850D02*
X115268000Y-109909250D01*
X147988200Y-114421150D02*
X147988200Y-77189050D01*
X144091500Y-81085750D02*
X114857900Y-81085750D01*
X115678200Y-81906050D02*
X115678200Y-109499050D01*
X119780000Y-105397250D02*
X138964300Y-105397250D01*
X134862600Y-90314650D02*
X124086800Y-90314650D01*
X116293500Y-82521350D02*
X116293500Y-108883750D01*
X109115400Y-116061850D02*
X149628900Y-116061850D01*
X146142400Y-112575350D02*
X146142400Y-79034850D01*
X109115400Y-75343250D02*
X109115400Y-116061850D01*
X121215600Y-87443450D02*
X121215600Y-103961650D01*
X135272800Y-101705750D02*
X135272800Y-89904450D01*
X116088400Y-109088850D02*
X142655900Y-109088850D01*
X119369800Y-105807450D02*
X139374500Y-105807450D01*
X135067700Y-90109550D02*
X123881700Y-90109550D01*
X142655900Y-82521350D02*
X116293500Y-82521350D01*
X145937300Y-112370250D02*
X145937300Y-79239950D01*
X150449300Y-74727950D02*
X108500100Y-74727950D01*
X112601900Y-78829750D02*
X112601900Y-112575350D01*
X149423800Y-115856750D02*
X149423800Y-75753450D01*
X123881700Y-90109550D02*
X123881700Y-101295550D01*
X109320500Y-75548350D02*
X109320500Y-115856750D01*
X118139300Y-84367150D02*
X118139300Y-107037950D01*
X123471500Y-89699350D02*
X123471500Y-101705750D01*
X111781500Y-78009350D02*
X111781500Y-113395750D01*
X141425400Y-107858350D02*
X141425400Y-83751850D01*
X108295100Y-116882150D02*
X150449300Y-116882150D01*
X135888000Y-89289250D02*
X123061400Y-89289250D01*
X148398400Y-114831350D02*
X148398400Y-76778850D01*
X108705200Y-116472050D02*
X150039100Y-116472050D01*
X110551000Y-76778850D02*
X110551000Y-114626250D01*
X118344400Y-84572250D02*
X118344400Y-106832850D01*
X136708400Y-88468850D02*
X122241000Y-88468850D01*
X123676600Y-89904450D02*
X123676600Y-101500650D01*
X107679800Y-117497450D02*
X151064500Y-117497450D01*
X151064500Y-74112750D02*
X107884900Y-74112750D01*
X136093100Y-89084150D02*
X122856300Y-89084150D01*
X121010500Y-87238350D02*
X121010500Y-104166750D01*
X139169400Y-86007850D02*
X119780000Y-86007850D01*
X146757700Y-78419550D02*
X112191700Y-78419550D01*
X144911900Y-111344850D02*
X144911900Y-80265350D01*
X142245800Y-108678650D02*
X142245800Y-82931450D01*
X122241000Y-88468850D02*
X122241000Y-102936250D01*
X124086800Y-90314650D02*
X124086800Y-101090450D01*
X111371400Y-77599250D02*
X111371400Y-113805850D01*
X109525600Y-75753450D02*
X109525600Y-115651650D01*
X147578000Y-114010950D02*
X147578000Y-77599250D01*
X137733800Y-104166750D02*
X137733800Y-87443450D01*
X117524000Y-107653250D02*
X141220300Y-107653250D01*
X118959600Y-85187450D02*
X118959600Y-106217650D01*
X122856300Y-89084150D02*
X122856300Y-102320950D01*
X136093100Y-102526050D02*
X136093100Y-89084150D01*
X120395200Y-104782050D02*
X138349100Y-104782050D01*
X150859400Y-74317850D02*
X108090000Y-74317850D01*
X148603500Y-76573750D02*
X110345900Y-76573750D01*
X146757700Y-113190650D02*
X146757700Y-78419550D01*
X135477900Y-101910750D02*
X135477900Y-89699350D01*
X148398400Y-76778850D02*
X110551000Y-76778850D01*
X121625800Y-87853650D02*
X121625800Y-103551450D01*
X113012100Y-79239950D02*
X113012100Y-112165150D01*
X113422200Y-111755050D02*
X145322100Y-111755050D01*
X138349100Y-86828150D02*
X120600300Y-86828150D01*
X123266500Y-101910750D02*
X135477900Y-101910750D01*
X145732200Y-79445050D02*
X113217200Y-79445050D01*
X143066100Y-82111150D02*
X115883300Y-82111150D01*
X137323600Y-87853650D02*
X121625800Y-87853650D01*
X147167900Y-113600750D02*
X147167900Y-78009350D01*
X122035900Y-103141350D02*
X136708400Y-103141350D01*
X150244200Y-74933050D02*
X108705200Y-74933050D01*
X139374500Y-105807450D02*
X139374500Y-85802750D01*
X138964300Y-86212950D02*
X119985100Y-86212950D01*
X139784700Y-106217650D02*
X139784700Y-85392550D01*
X138759300Y-86417950D02*
X120190100Y-86417950D01*
X111576500Y-113600750D02*
X147167900Y-113600750D01*
X122241000Y-102936250D02*
X136503300Y-102936250D01*
X114447700Y-110729550D02*
X144296600Y-110729550D01*
X122856300Y-102320950D02*
X135888000Y-102320950D01*
X121215600Y-103961650D02*
X137528700Y-103961650D01*
X117934200Y-107243050D02*
X140810100Y-107243050D01*
X107884900Y-117292350D02*
X150859400Y-117292350D01*
X142245800Y-82931450D02*
X116703600Y-82931450D01*
X114037500Y-111139750D02*
X144706800Y-111139750D01*
X139989800Y-85187450D02*
X118959600Y-85187450D01*
X135888000Y-102320950D02*
X135888000Y-89289250D01*
X146142400Y-79034850D02*
X112807000Y-79034850D01*
X113627300Y-111549950D02*
X145117000Y-111549950D01*
X141835600Y-108268550D02*
X141835600Y-83341650D01*
X124291900Y-90519750D02*
X124291900Y-100885350D01*
X111986600Y-113190650D02*
X146757700Y-113190650D01*
X138554200Y-104987150D02*
X138554200Y-86623050D01*
D14*
X151412350Y-117970000D02*
X151474700Y-117907650D01*
D13*
X137938900Y-87238350D02*
X121010500Y-87238350D01*
X117524000Y-83751850D02*
X117524000Y-107653250D01*
X143681400Y-81495850D02*
X115268000Y-81495850D01*
X134657500Y-101090450D02*
X134657500Y-90519750D01*
X140400000Y-84777250D02*
X118549400Y-84777250D01*
X140810100Y-107243050D02*
X140810100Y-84367150D01*
X136298200Y-88879050D02*
X122651200Y-88879050D01*
X115883300Y-109293950D02*
X142861000Y-109293950D01*
X113217200Y-111960050D02*
X145527200Y-111960050D01*
X150449300Y-116882150D02*
X150449300Y-74727950D01*
X145322100Y-79855150D02*
X113627300Y-79855150D01*
X144091500Y-110524450D02*
X144091500Y-81085750D01*
X121830800Y-103346450D02*
X136913500Y-103346450D01*
X119574900Y-105602350D02*
X139169400Y-105602350D01*
X151269600Y-73907650D02*
X107679800Y-73907650D01*
X137528700Y-103961650D02*
X137528700Y-87648550D01*
X111371400Y-113805850D02*
X147372900Y-113805850D01*
X111781500Y-113395750D02*
X146962800Y-113395750D01*
X150039100Y-116472050D02*
X150039100Y-75138150D01*
X122446100Y-88673950D02*
X122446100Y-102731150D01*
X107679800Y-73907650D02*
X107679800Y-117497450D01*
X147783100Y-114216050D02*
X147783100Y-77394150D01*
X107474700Y-117702550D02*
X151269600Y-117702550D01*
X144296600Y-80880650D02*
X114652800Y-80880650D01*
X114652800Y-80880650D02*
X114652800Y-110524450D01*
X119985100Y-105192150D02*
X138759300Y-105192150D01*
X145117000Y-80060250D02*
X113832400Y-80060250D01*
X117318900Y-107858350D02*
X141425400Y-107858350D01*
X141425400Y-83751850D02*
X117524000Y-83751850D01*
X110961200Y-77189050D02*
X110961200Y-114216050D01*
X141630500Y-83546750D02*
X117318900Y-83546750D01*
X142450800Y-82726450D02*
X116498600Y-82726450D01*
X145117000Y-111549950D02*
X145117000Y-80060250D01*
X118549400Y-106627850D02*
X140194900Y-106627850D01*
X107474700Y-73702550D02*
X107474700Y-117702550D01*
X118344400Y-106832850D02*
X140400000Y-106832850D01*
X136913500Y-88263750D02*
X122035900Y-88263750D01*
X114242600Y-80470450D02*
X114242600Y-110934650D01*
X116703600Y-82931450D02*
X116703600Y-108473650D01*
X139784700Y-85392550D02*
X119164700Y-85392550D01*
X122035900Y-88263750D02*
X122035900Y-103141350D01*
X144706800Y-80470450D02*
X114242600Y-80470450D01*
X109935800Y-115241450D02*
X148808600Y-115241450D01*
X137938900Y-104371850D02*
X137938900Y-87238350D01*
X115062900Y-110114350D02*
X143681400Y-110114350D01*
D14*
X149510000Y-117980000D02*
X149520000Y-117970000D01*
D13*
X108500100Y-116677150D02*
X150244200Y-116677150D01*
X120190100Y-104987150D02*
X138554200Y-104987150D01*
X111986600Y-78214450D02*
X111986600Y-113190650D01*
X120190100Y-86417950D02*
X120190100Y-104987150D01*
X116498600Y-82726450D02*
X116498600Y-108678650D01*
X117318900Y-83546750D02*
X117318900Y-107858350D01*
X123881700Y-101295550D02*
X134862600Y-101295550D01*
X116908700Y-108268550D02*
X141835600Y-108268550D01*
X149218700Y-75958550D02*
X109730700Y-75958550D01*
X147988200Y-77189050D02*
X110961200Y-77189050D01*
X151474700Y-73702550D02*
X107474700Y-73702550D01*
X110756100Y-76983950D02*
X110756100Y-114421150D01*
X142655900Y-109088850D02*
X142655900Y-82521350D01*
X116498600Y-108678650D02*
X142245800Y-108678650D01*
X122446100Y-102731150D02*
X136298200Y-102731150D01*
X135272800Y-89904450D02*
X123676600Y-89904450D01*
X120805400Y-87033250D02*
X120805400Y-104371850D01*
X120600300Y-86828150D02*
X120600300Y-104576950D01*
X143886500Y-81290750D02*
X115062900Y-81290750D01*
X141220300Y-83956950D02*
X117729100Y-83956950D01*
X109935800Y-76163650D02*
X109935800Y-115241450D01*
D15*
X134452400Y-100885350D02*
X134452400Y-100652400D01*
D13*
X111166300Y-114010950D02*
X147578000Y-114010950D01*
X137528700Y-87648550D02*
X121420700Y-87648550D01*
X139989800Y-106422750D02*
X139989800Y-85187450D01*
X146962800Y-113395750D02*
X146962800Y-78214450D01*
X117729100Y-83956950D02*
X117729100Y-107448150D01*
X115678200Y-109499050D02*
X143066100Y-109499050D01*
X112807000Y-112370250D02*
X145937300Y-112370250D01*
X113832400Y-80060250D02*
X113832400Y-111344850D01*
X149628900Y-116061850D02*
X149628900Y-75548350D01*
X112601900Y-112575350D02*
X146142400Y-112575350D01*
X144501700Y-110934650D02*
X144501700Y-80675550D01*
X121625800Y-103551450D02*
X137118600Y-103551450D01*
X150039100Y-75138150D02*
X108910300Y-75138150D01*
X146347500Y-112780450D02*
X146347500Y-78829750D01*
X120805400Y-104371850D02*
X137938900Y-104371850D01*
X138349100Y-104782050D02*
X138349100Y-86828150D01*
X151064500Y-117497450D02*
X151064500Y-74112750D01*
D15*
X134452400Y-100652400D02*
X134000000Y-100200000D01*
D13*
X149834000Y-75343250D02*
X109115400Y-75343250D01*
X113832400Y-111344850D02*
X144911900Y-111344850D01*
X110140800Y-115036450D02*
X148603500Y-115036450D01*
X123266500Y-89494350D02*
X123266500Y-101910750D01*
X110756100Y-114421150D02*
X147988200Y-114421150D01*
X142040700Y-83136550D02*
X116908700Y-83136550D01*
X137118600Y-88058650D02*
X121830800Y-88058650D01*
X148808600Y-115241450D02*
X148808600Y-76368650D01*
X143271200Y-81906050D02*
X115678200Y-81906050D01*
X149628900Y-75548350D02*
X109320500Y-75548350D01*
X119164700Y-85392550D02*
X119164700Y-106012550D01*
X115883300Y-82111150D02*
X115883300Y-109293950D01*
X151269600Y-117702550D02*
X151269600Y-73907650D01*
X146347500Y-78829750D02*
X112601900Y-78829750D01*
X147578000Y-77599250D02*
X111371400Y-77599250D01*
X137323600Y-103756550D02*
X137323600Y-87853650D01*
X141220300Y-107653250D02*
X141220300Y-83956950D01*
X139579600Y-85597650D02*
X119369800Y-85597650D01*
X151474700Y-117907650D02*
X151474700Y-73702550D01*
X144911900Y-80265350D02*
X114037500Y-80265350D01*
X140194900Y-106627850D02*
X140194900Y-84982350D01*
D14*
X149520000Y-117970000D02*
X151412350Y-117970000D01*
D13*
X121420700Y-103756550D02*
X137323600Y-103756550D01*
X138144000Y-87033250D02*
X120805400Y-87033250D01*
X115473100Y-81700950D02*
X115473100Y-109704150D01*
X109525600Y-115651650D02*
X149218700Y-115651650D01*
X149218700Y-115651650D02*
X149218700Y-75958550D01*
X149834000Y-116266950D02*
X149834000Y-75343250D01*
X115268000Y-109909250D02*
X143476300Y-109909250D01*
X110961200Y-114216050D02*
X147783100Y-114216050D01*
X108295100Y-74522950D02*
X108295100Y-116882150D01*
X140194900Y-84982350D02*
X118754500Y-84982350D01*
X112191700Y-78419550D02*
X112191700Y-112985550D01*
X140605000Y-84572250D02*
X118344400Y-84572250D01*
X124291900Y-100885350D02*
X134452400Y-100885350D01*
X121010500Y-104166750D02*
X137733800Y-104166750D01*
X147372900Y-77804350D02*
X111576500Y-77804350D01*
X113422200Y-79650050D02*
X113422200Y-111755050D01*
X108500100Y-74727950D02*
X108500100Y-116677150D01*
X118754500Y-84982350D02*
X118754500Y-106422750D01*
X135477900Y-89699350D02*
X123471500Y-89699350D01*
X108090000Y-74317850D02*
X108090000Y-117087250D01*
X124086800Y-101090450D02*
X134657500Y-101090450D01*
X117113800Y-108063450D02*
X141630500Y-108063450D01*
X137733800Y-87443450D02*
X121215600Y-87443450D01*
X109320500Y-115856750D02*
X149423800Y-115856750D01*
X111576500Y-77804350D02*
X111576500Y-113600750D01*
X109730700Y-115446550D02*
X149013600Y-115446550D01*
X145527200Y-111960050D02*
X145527200Y-79650050D01*
X112191700Y-112985550D02*
X146552600Y-112985550D01*
X115062900Y-81290750D02*
X115062900Y-110114350D01*
X114037500Y-80265350D02*
X114037500Y-111139750D01*
X136298200Y-102731150D02*
X136298200Y-88879050D01*
X148193300Y-76983950D02*
X110756100Y-76983950D01*
X142450800Y-108883750D02*
X142450800Y-82726450D01*
X114652800Y-110524450D02*
X144091500Y-110524450D01*
X139169400Y-105602350D02*
X139169400Y-86007850D01*
X108705200Y-74933050D02*
X108705200Y-116472050D01*
X145527200Y-79650050D02*
X113422200Y-79650050D01*
X113627300Y-79855150D02*
X113627300Y-111549950D01*
X148603500Y-115036450D02*
X148603500Y-76573750D01*
X109730700Y-75958550D02*
X109730700Y-115446550D01*
X144501700Y-80675550D02*
X114447700Y-80675550D01*
X117729100Y-107448150D02*
X141015200Y-107448150D01*
X143271200Y-109704150D02*
X143271200Y-81906050D01*
X116703600Y-108473650D02*
X142040700Y-108473650D01*
X150654300Y-117087250D02*
X150654300Y-74522950D01*
X146962800Y-78214450D02*
X111986600Y-78214450D01*
X117113800Y-83341650D02*
X117113800Y-108063450D01*
X112807000Y-79034850D02*
X112807000Y-112370250D01*
X110551000Y-114626250D02*
X148193300Y-114626250D01*
X114857900Y-110319350D02*
X143886500Y-110319350D01*
X149423800Y-75753450D02*
X109525600Y-75753450D01*
X146552600Y-112985550D02*
X146552600Y-78624650D01*
X142861000Y-82316250D02*
X116088400Y-82316250D01*
X119985100Y-86212950D02*
X119985100Y-105192150D01*
X112396800Y-112780450D02*
X146347500Y-112780450D01*
X150244200Y-116677150D02*
X150244200Y-74933050D01*
X141835600Y-83341650D02*
X117113800Y-83341650D01*
X147372900Y-113805850D02*
X147372900Y-77804350D01*
X119369800Y-85597650D02*
X119369800Y-105807450D01*
X138964300Y-105397250D02*
X138964300Y-86212950D01*
X149013600Y-76163650D02*
X109935800Y-76163650D01*
X136503300Y-88673950D02*
X122446100Y-88673950D01*
X135682900Y-102115850D02*
X135682900Y-89494350D01*
X116908700Y-83136550D02*
X116908700Y-108268550D01*
X121420700Y-87648550D02*
X121420700Y-103756550D01*
D16*
X134000000Y-100200000D02*
X132700000Y-100200000D01*
D13*
X121830800Y-88058650D02*
X121830800Y-103346450D01*
X136913500Y-103346450D02*
X136913500Y-88263750D01*
X113217200Y-79445050D02*
X113217200Y-111960050D01*
X110140800Y-76368650D02*
X110140800Y-115036450D01*
X135067700Y-101500650D02*
X135067700Y-90109550D01*
X148193300Y-114626250D02*
X148193300Y-76983950D01*
X136708400Y-103141350D02*
X136708400Y-88468850D01*
X150654300Y-74522950D02*
X108295100Y-74522950D01*
X143681400Y-110114350D02*
X143681400Y-81495850D01*
X135682900Y-89494350D02*
X123266500Y-89494350D01*
X118959600Y-106217650D02*
X139784700Y-106217650D01*
X141015200Y-107448150D02*
X141015200Y-84162050D01*
X149013600Y-115446550D02*
X149013600Y-76163650D01*
X119164700Y-106012550D02*
X139579600Y-106012550D01*
X116293500Y-108883750D02*
X142450800Y-108883750D01*
X142861000Y-109293950D02*
X142861000Y-82316250D01*
X137118600Y-103551450D02*
X137118600Y-88058650D01*
X108090000Y-117087250D02*
X150654300Y-117087250D01*
X147167900Y-78009350D02*
X111781500Y-78009350D01*
X118549400Y-84777250D02*
X118549400Y-106627850D01*
X107884900Y-74112750D02*
X107884900Y-117292350D01*
X119574900Y-85802750D02*
X119574900Y-105602350D01*
X110345900Y-76573750D02*
X110345900Y-114831350D01*
X141015200Y-84162050D02*
X117934200Y-84162050D01*
X145937300Y-79239950D02*
X113012100Y-79239950D01*
X142040700Y-108473650D02*
X142040700Y-83136550D01*
X138554200Y-86623050D02*
X120395200Y-86623050D01*
X138144000Y-104576950D02*
X138144000Y-87033250D01*
X144706800Y-111139750D02*
X144706800Y-80470450D01*
X111166300Y-77394150D02*
X111166300Y-114010950D01*
X108910300Y-116266950D02*
X149834000Y-116266950D01*
X141630500Y-108063450D02*
X141630500Y-83546750D01*
X108910300Y-75138150D02*
X108910300Y-116266950D01*
X146552600Y-78624650D02*
X112396800Y-78624650D01*
X140810100Y-84367150D02*
X118139300Y-84367150D01*
X123471500Y-101705750D02*
X135272800Y-101705750D01*
X118139300Y-107037950D02*
X140605000Y-107037950D01*
X114857900Y-81085750D02*
X114857900Y-110319350D01*
X114242600Y-110934650D02*
X144501700Y-110934650D01*
X119780000Y-86007850D02*
X119780000Y-105397250D01*
X145732200Y-112165150D02*
X145732200Y-79445050D01*
X117934200Y-84162050D02*
X117934200Y-107243050D01*
X144296600Y-110729550D02*
X144296600Y-80880650D01*
X123061400Y-89289250D02*
X123061400Y-102115850D01*
X122651200Y-102526050D02*
X136093100Y-102526050D01*
X120600300Y-104576950D02*
X138144000Y-104576950D01*
M02*
