M48
; DRILL file {KiCad 7.0.2} date Sun Jul 30 22:15:08 2023
; FORMAT={-:-/ absolute / metric / decimal}
; #@! TF.CreationDate,2023-07-30T22:15:08-04:00
; #@! TF.GenerationSoftware,Kicad,Pcbnew,7.0.2
; #@! TF.FileFunction,Plated,1,4,PTH
FMAT,2
METRIC
; #@! TA.AperFunction,Plated,PTH,ViaDrill
T1C0.200
; #@! TA.AperFunction,Plated,PTH,ViaDrill
T2C0.300
%
G90
G05
T1
X145.95Y-118.28
X147.553Y-118.234
X148.95Y-118.01
X149.51Y-117.98
X150.33Y-118.63
T2
X106.95Y-95.55
X107.0Y-73.3
X107.0Y-97.8
X107.5Y-119.65
X117.5Y-119.0
X121.25Y-72.5
X125.5Y-99.6
X125.95Y-118.5
X127.0Y-119.8
X128.4Y-118.2
X129.0Y-118.8
X129.45Y-92.5
X129.6Y-94.4
X131.4Y-96.2
X132.1Y-98.7
X132.3Y-93.4
X132.4Y-119.45
X132.7Y-100.2
X133.1Y-96.7
X136.0Y-72.4
X137.95Y-73.25
X140.7Y-121.4
X143.4Y-118.3
X144.2Y-118.3
X144.9Y-118.3
X147.4Y-121.5
X151.95Y-110.9
X151.95Y-112.4
X152.0Y-73.3
X152.0Y-95.6
X152.0Y-97.8
X152.0Y-108.55
T0
M30
