%TF.GenerationSoftware,KiCad,Pcbnew,7.0.2*%
%TF.CreationDate,2023-07-30T21:57:21-04:00*%
%TF.ProjectId,OBC-Flight,4f42432d-466c-4696-9768-742e6b696361,rev?*%
%TF.SameCoordinates,Original*%
%TF.FileFunction,Copper,L6,Inr*%
%TF.FilePolarity,Positive*%
%FSLAX46Y46*%
G04 Gerber Fmt 4.6, Leading zero omitted, Abs format (unit mm)*
G04 Created by KiCad (PCBNEW 7.0.2) date 2023-07-30 21:57:21*
%MOMM*%
%LPD*%
G01*
G04 APERTURE LIST*
%TA.AperFunction,ComponentPad*%
%ADD10R,1.000000X1.000000*%
%TD*%
%TA.AperFunction,ComponentPad*%
%ADD11O,1.000000X1.000000*%
%TD*%
%TA.AperFunction,ComponentPad*%
%ADD12O,1.000000X2.100000*%
%TD*%
%TA.AperFunction,ComponentPad*%
%ADD13O,1.000000X1.800000*%
%TD*%
%TA.AperFunction,ComponentPad*%
%ADD14R,1.087400X1.087400*%
%TD*%
%TA.AperFunction,ComponentPad*%
%ADD15C,1.087400*%
%TD*%
%TA.AperFunction,ViaPad*%
%ADD16C,0.450000*%
%TD*%
%TA.AperFunction,ViaPad*%
%ADD17C,0.550000*%
%TD*%
%TA.AperFunction,Conductor*%
%ADD18C,0.150000*%
%TD*%
G04 APERTURE END LIST*
D10*
X50060000Y-61400000D03*
D11*
X50060000Y-60130000D03*
X51330000Y-61400000D03*
X51330000Y-60130000D03*
X52600000Y-61400000D03*
X52600000Y-60130000D03*
X53870000Y-61400000D03*
X53870000Y-60130000D03*
X55140000Y-61400000D03*
X55140000Y-60130000D03*
X56410000Y-61400000D03*
X56410000Y-60130000D03*
X57680000Y-61400000D03*
X57680000Y-60130000D03*
D10*
X31050000Y-55200000D03*
D11*
X29780000Y-55200000D03*
X31050000Y-53930000D03*
X29780000Y-53930000D03*
X31050000Y-52660000D03*
X29780000Y-52660000D03*
X31050000Y-51390000D03*
X29780000Y-51390000D03*
X31050000Y-50120000D03*
X29780000Y-50120000D03*
X31050000Y-48850000D03*
X29780000Y-48850000D03*
X31050000Y-47580000D03*
X29780000Y-47580000D03*
X31050000Y-46310000D03*
X29780000Y-46310000D03*
D12*
X38560000Y-56785000D03*
D13*
X38560000Y-60965000D03*
D12*
X47200000Y-56785000D03*
D13*
X47200000Y-60965000D03*
D10*
X65310000Y-48850000D03*
D11*
X66580000Y-48850000D03*
X65310000Y-50120000D03*
X66580000Y-50120000D03*
X65310000Y-51390000D03*
X66580000Y-51390000D03*
X65310000Y-52660000D03*
X66580000Y-52660000D03*
X65310000Y-53930000D03*
X66580000Y-53930000D03*
X65310000Y-55200000D03*
X66580000Y-55200000D03*
D14*
X29660000Y-31755000D03*
D15*
X32200000Y-31755000D03*
X29660000Y-33025000D03*
X32200000Y-33025000D03*
X29660000Y-34295000D03*
X32200000Y-34295000D03*
X29660000Y-35565000D03*
X32200000Y-35565000D03*
X29660000Y-36835000D03*
X32200000Y-36835000D03*
X29660000Y-38105000D03*
X32200000Y-38105000D03*
X29660000Y-39375000D03*
X32200000Y-39375000D03*
X29660000Y-40645000D03*
X32200000Y-40645000D03*
D14*
X66700000Y-40650000D03*
D15*
X64160000Y-40650000D03*
X66700000Y-39380000D03*
X64160000Y-39380000D03*
X66700000Y-38110000D03*
X64160000Y-38110000D03*
X66700000Y-36840000D03*
X64160000Y-36840000D03*
X66700000Y-35570000D03*
X64160000Y-35570000D03*
X66700000Y-34300000D03*
X64160000Y-34300000D03*
X66700000Y-33030000D03*
X64160000Y-33030000D03*
X66700000Y-31760000D03*
X64160000Y-31760000D03*
D16*
X32850000Y-62300000D03*
X63200000Y-56000000D03*
X44300000Y-44900000D03*
X60500000Y-29300000D03*
X29000000Y-58900000D03*
X57300000Y-38100000D03*
X45500000Y-32400000D03*
X42100000Y-36200000D03*
X43200000Y-46400000D03*
X45400000Y-34800000D03*
X59300000Y-24100000D03*
X52800000Y-49288296D03*
X46100000Y-46800000D03*
X33000000Y-38800000D03*
X48500000Y-46700000D03*
X59000000Y-58200000D03*
X44200000Y-33700000D03*
X43600000Y-53400000D03*
X40500000Y-31400000D03*
X41600000Y-27500000D03*
X67100000Y-29400000D03*
X61700000Y-30300000D03*
X56300000Y-39100000D03*
X43100000Y-30600000D03*
X61900000Y-39600000D03*
X53000000Y-44400000D03*
X49700000Y-53800000D03*
X38400000Y-53400000D03*
X47500000Y-27700000D03*
X66700000Y-43600000D03*
X34700000Y-33200000D03*
X40000000Y-38400000D03*
X62600000Y-31400000D03*
X60900000Y-45100000D03*
X60000000Y-51600000D03*
X30300000Y-29100000D03*
X62600000Y-33800000D03*
X64500000Y-28900000D03*
X66300000Y-61400000D03*
X53100000Y-25500000D03*
X30000000Y-43500000D03*
X38000000Y-24100000D03*
X34300000Y-24000000D03*
X43829004Y-36314542D03*
X47400000Y-51800000D03*
X49400000Y-37600000D03*
X43300000Y-27700000D03*
X49200000Y-27900000D03*
X60900000Y-45800000D03*
X66600000Y-24800000D03*
X54400000Y-38400000D03*
X62800000Y-47500000D03*
X32200000Y-46700000D03*
X35800000Y-53400000D03*
X60800000Y-43200000D03*
X56300000Y-55100000D03*
X53800000Y-37900000D03*
X51300000Y-32700000D03*
X46400000Y-27300000D03*
X51300000Y-24000000D03*
X38400000Y-31500000D03*
X57900000Y-55100000D03*
X48900000Y-38700000D03*
X52000000Y-57400000D03*
X56500000Y-23900000D03*
X30600000Y-60000000D03*
X44200000Y-24300000D03*
X63200000Y-24200000D03*
X36900000Y-28600000D03*
X49800000Y-26100000D03*
X39400000Y-31400000D03*
D17*
X60773281Y-41999500D03*
D16*
X57323599Y-31308815D03*
X49600000Y-45500000D03*
X54500000Y-37000000D03*
D17*
X57250000Y-51500000D03*
D16*
X64600000Y-44900000D03*
X39600000Y-26700000D03*
X61891509Y-37198713D03*
X64200000Y-61900000D03*
X56549500Y-26549500D03*
X44000000Y-38400000D03*
X35237470Y-38347352D03*
X59100000Y-25200000D03*
D17*
X44429490Y-48771580D03*
D16*
X54100000Y-27800000D03*
X34800000Y-43400000D03*
X34808162Y-31791838D03*
X45500000Y-45200000D03*
X48300000Y-40949500D03*
D17*
X37299500Y-51200500D03*
D16*
X51900000Y-31200000D03*
X45600000Y-33900000D03*
X51700000Y-33800000D03*
X35344011Y-47768191D03*
X55100000Y-51691480D03*
X64000000Y-24900000D03*
X33200000Y-40600000D03*
X49900000Y-36400000D03*
X62700000Y-35400000D03*
X33233898Y-41333898D03*
X62612002Y-36500000D03*
X49342741Y-36892241D03*
X44100000Y-32400000D03*
X51600000Y-30500000D03*
X50600000Y-26400000D03*
X42200000Y-26500000D03*
X42400000Y-25900000D03*
X51100000Y-27600000D03*
X41200000Y-32000000D03*
X51000000Y-30200000D03*
X48500000Y-32400000D03*
X40400000Y-35500000D03*
X39400000Y-36100000D03*
X38307560Y-35234499D03*
X47209444Y-37754159D03*
X46442539Y-38551000D03*
X41110500Y-26500000D03*
X44300000Y-27700000D03*
X34454026Y-55059512D03*
X53700815Y-56648908D03*
X39662055Y-42563569D03*
X40151000Y-36173397D03*
X40400000Y-34800000D03*
X39212555Y-43046830D03*
X40111555Y-42047245D03*
X60104582Y-34759728D03*
X53690164Y-56049500D03*
X54400000Y-47800000D03*
X47100000Y-45700000D03*
X41900000Y-38750000D03*
X42279339Y-39350500D03*
X54977607Y-49276416D03*
X56570951Y-49288296D03*
X57200000Y-49249500D03*
X48500000Y-26700000D03*
X59621574Y-39346431D03*
X62785430Y-37452290D03*
X59250500Y-59147405D03*
X59550999Y-33500000D03*
X57022662Y-26917632D03*
X49679009Y-39929726D03*
X50579331Y-39950500D03*
X57700000Y-26800000D03*
X59646689Y-34372769D03*
X34700000Y-42500000D03*
X33200000Y-39800000D03*
X60600000Y-30300000D03*
X58000000Y-26100000D03*
X56032508Y-30032508D03*
X54700000Y-31200000D03*
X54367492Y-47167492D03*
X55603268Y-47203268D03*
X55100000Y-30700000D03*
X56100000Y-47700000D03*
X54600000Y-30200000D03*
X36300000Y-30300000D03*
X47749500Y-36277378D03*
X35681669Y-51373259D03*
X35751661Y-51968662D03*
X47500000Y-37000000D03*
X43700000Y-36900000D03*
X33095500Y-37800000D03*
X38600000Y-27100000D03*
X38297339Y-29843612D03*
X38300000Y-27800000D03*
X63700000Y-29800000D03*
X35539017Y-54150433D03*
X34649001Y-41800000D03*
X41950999Y-43182508D03*
X54500000Y-43700000D03*
X35932778Y-32549823D03*
X34800000Y-35600000D03*
X33100000Y-37100000D03*
X49600000Y-33600000D03*
X35700000Y-40400000D03*
X48500000Y-26000000D03*
X35700000Y-41000000D03*
X35523074Y-45049001D03*
X35508572Y-54755677D03*
X33749000Y-47650000D03*
X35176524Y-46302345D03*
X34430694Y-54160512D03*
X34045290Y-47128832D03*
X34148502Y-46482399D03*
X60600000Y-44600000D03*
X34669491Y-46779003D03*
X64200000Y-41901546D03*
X35107105Y-47217484D03*
X63749500Y-45817845D03*
X41409836Y-48049000D03*
X31354843Y-44870278D03*
X42100000Y-48000000D03*
X52350500Y-41000000D03*
X33700000Y-49800000D03*
X33600000Y-50500000D03*
X35651614Y-55337864D03*
X59000000Y-55600000D03*
X36152212Y-55649174D03*
X36595739Y-56052518D03*
X66600000Y-45400000D03*
X37076152Y-56411135D03*
X66351000Y-46200000D03*
X45200000Y-48200000D03*
X45900000Y-48200000D03*
X62700000Y-51700000D03*
X46500000Y-51900000D03*
X61100000Y-53300000D03*
X30590980Y-45036080D03*
X43000000Y-48049000D03*
X47300000Y-48100000D03*
X52349500Y-39048376D03*
X48200000Y-52000000D03*
X48500000Y-48900000D03*
X55817572Y-44012139D03*
X50600000Y-49251000D03*
X55600000Y-44600000D03*
X50572433Y-48318345D03*
X51194265Y-47964983D03*
X55043376Y-44822650D03*
X54500000Y-46100000D03*
X52100000Y-49251000D03*
X56300000Y-54000000D03*
X51900000Y-52000000D03*
X53100000Y-51600000D03*
D17*
X40450000Y-56000500D03*
X45728200Y-54621800D03*
D16*
X59700000Y-47500000D03*
X62800000Y-43700000D03*
X53800000Y-47600000D03*
X59751000Y-46700000D03*
X53822088Y-44535694D03*
X53800000Y-43936598D03*
X56200000Y-41000000D03*
X59900000Y-44700000D03*
X54965818Y-47205028D03*
X64651498Y-45575645D03*
X64251498Y-44310820D03*
X54400000Y-43000000D03*
X49109020Y-26263920D03*
X59618838Y-40559809D03*
X59528729Y-39938700D03*
X48600000Y-34000000D03*
X28983164Y-56698762D03*
X52300000Y-45300000D03*
X56900000Y-36700000D03*
X44000000Y-41000000D03*
X51700000Y-45300000D03*
X29582529Y-56673627D03*
X50900000Y-45300000D03*
X66900000Y-30300000D03*
X29900000Y-57800000D03*
X66900000Y-59300000D03*
X41514664Y-52550353D03*
X50900000Y-52000000D03*
X61800000Y-50100000D03*
X60300000Y-48600000D03*
X55732508Y-48232508D03*
X60393095Y-35742595D03*
X36149500Y-33500000D03*
X55789999Y-42245691D03*
X41950999Y-42200000D03*
X44700000Y-34300000D03*
X35200000Y-50900000D03*
X56883171Y-31715541D03*
X57400000Y-32200000D03*
X56800000Y-35900000D03*
X57416727Y-35705060D03*
X62800000Y-46000000D03*
X34880939Y-36219061D03*
X32200000Y-45900000D03*
D18*
X49900000Y-36400000D02*
X52400000Y-36400000D01*
X36050706Y-39650000D02*
X34150000Y-39650000D01*
X52400000Y-36400000D02*
X56100000Y-32700000D01*
X56100000Y-32700000D02*
X59900000Y-32700000D01*
X34150000Y-39650000D02*
X33200000Y-40600000D01*
X36300706Y-39900000D02*
X36050706Y-39650000D01*
X45800000Y-39900000D02*
X36300706Y-39900000D01*
X49900000Y-36400000D02*
X49199293Y-36400000D01*
X62600000Y-35400000D02*
X62700000Y-35400000D01*
X49199293Y-36400000D02*
X46892539Y-38706754D01*
X46892539Y-38807461D02*
X45800000Y-39900000D01*
X46892539Y-38706754D02*
X46892539Y-38807461D01*
X59900000Y-32700000D02*
X62600000Y-35400000D01*
X49342741Y-36892241D02*
X52407759Y-36892241D01*
X56300000Y-33000000D02*
X59687396Y-33000000D01*
X46035481Y-40199501D02*
X49342741Y-36892241D01*
X33233898Y-41333898D02*
X34617796Y-39950000D01*
X59687396Y-33000000D02*
X62250500Y-35563104D01*
X36176649Y-40199501D02*
X46035481Y-40199501D01*
X35927148Y-39950000D02*
X36176649Y-40199501D01*
X34617796Y-39950000D02*
X35927148Y-39950000D01*
X52407759Y-36892241D02*
X56300000Y-33000000D01*
X62250500Y-36138498D02*
X62612002Y-36500000D01*
X62250500Y-35563104D02*
X62250500Y-36138498D01*
X37754015Y-58359501D02*
X50564057Y-58359501D01*
X50863558Y-58060000D02*
X52289723Y-58060000D01*
X34454026Y-55059512D02*
X37754015Y-58359501D01*
X50564057Y-58359501D02*
X50863558Y-58060000D01*
X52289723Y-58060000D02*
X53700815Y-56648908D01*
X53870000Y-60130000D02*
X54852595Y-59147405D01*
X54852595Y-59147405D02*
X59250500Y-59147405D01*
X59550999Y-33500000D02*
X56234744Y-33500000D01*
X49805018Y-39929726D02*
X49679009Y-39929726D01*
X56234744Y-33500000D02*
X49805018Y-39929726D01*
X59646689Y-34372769D02*
X55927231Y-34372769D01*
X50600000Y-39929831D02*
X50579331Y-39950500D01*
X55927231Y-34372769D02*
X50600000Y-39700000D01*
X50600000Y-39700000D02*
X50600000Y-39929831D01*
X49124396Y-41452046D02*
X49076442Y-41500000D01*
X49076442Y-41500000D02*
X36900000Y-41500000D01*
X65900000Y-38910000D02*
X65900000Y-39997106D01*
X64445060Y-41452046D02*
X49124396Y-41452046D01*
X65900000Y-39997106D02*
X64445060Y-41452046D01*
X36900000Y-41500000D02*
X35900000Y-42500000D01*
X66700000Y-38110000D02*
X65900000Y-38910000D01*
X35900000Y-42500000D02*
X34700000Y-42500000D01*
X58000000Y-26100000D02*
X56200000Y-26100000D01*
X56200000Y-26100000D02*
X56032508Y-26267492D01*
X56032508Y-26267492D02*
X56032508Y-30032508D01*
X35600000Y-51473599D02*
X35600000Y-51454928D01*
X29797894Y-55925000D02*
X31720977Y-55925000D01*
X29780000Y-55907106D02*
X29797894Y-55925000D01*
X35600000Y-51454928D02*
X35681669Y-51373259D01*
X33657613Y-53988364D02*
X33657613Y-53415986D01*
X33657613Y-53415986D02*
X35600000Y-51473599D01*
X29780000Y-55200000D02*
X29780000Y-55907106D01*
X31720977Y-55925000D02*
X33657613Y-53988364D01*
X29055000Y-54655000D02*
X29055000Y-55655000D01*
X29780000Y-53930000D02*
X29055000Y-54655000D01*
X31872760Y-56224501D02*
X33957114Y-54140147D01*
X33957114Y-54140147D02*
X33957114Y-54066808D01*
X33957114Y-54066808D02*
X33981194Y-54042728D01*
X33981194Y-54042728D02*
X33981194Y-53974323D01*
X29055000Y-55655000D02*
X29624501Y-56224501D01*
X29624501Y-56224501D02*
X31872760Y-56224501D01*
X35751661Y-52203856D02*
X35751661Y-51968662D01*
X33981194Y-53974323D02*
X35751661Y-52203856D01*
X52224265Y-34900000D02*
X47100000Y-34900000D01*
X45100000Y-36900000D02*
X45200000Y-36800000D01*
X61259315Y-30859315D02*
X61200000Y-30800000D01*
X61200000Y-30800000D02*
X61140685Y-30859315D01*
X66700000Y-31760000D02*
X65799315Y-30859315D01*
X43700000Y-36900000D02*
X45100000Y-36900000D01*
X61140685Y-30859315D02*
X56264950Y-30859315D01*
X56264950Y-30859315D02*
X52224265Y-34900000D01*
X47100000Y-34900000D02*
X45200000Y-36800000D01*
X65799315Y-30859315D02*
X61259315Y-30859315D01*
X51100000Y-31800000D02*
X47900000Y-28600000D01*
X54900707Y-31800000D02*
X51100000Y-31800000D01*
X39100000Y-28600000D02*
X38300000Y-27800000D01*
X63700000Y-29800000D02*
X56900707Y-29800000D01*
X56900707Y-29800000D02*
X54900707Y-31800000D01*
X47900000Y-28600000D02*
X39100000Y-28600000D01*
X42255589Y-43487098D02*
X41950999Y-43182508D01*
X54500000Y-43700000D02*
X54287098Y-43487098D01*
X54287098Y-43487098D02*
X42255589Y-43487098D01*
X64430000Y-51000000D02*
X38257107Y-51000000D01*
X35957107Y-48700000D02*
X34799000Y-48700000D01*
X65310000Y-50120000D02*
X64430000Y-51000000D01*
X38257107Y-51000000D02*
X35957107Y-48700000D01*
X34799000Y-48700000D02*
X33749000Y-47650000D01*
X67305000Y-49395000D02*
X67305000Y-48549695D01*
X38250000Y-50550000D02*
X35917691Y-48217691D01*
X66880305Y-48125000D02*
X64411397Y-48125000D01*
X67305000Y-48549695D02*
X66880305Y-48125000D01*
X61986397Y-50550000D02*
X38250000Y-50550000D01*
X66580000Y-50120000D02*
X67305000Y-49395000D01*
X35134149Y-48217691D02*
X34045290Y-47128832D01*
X35917691Y-48217691D02*
X35134149Y-48217691D01*
X64411397Y-48125000D02*
X61986397Y-50550000D01*
X65310000Y-51390000D02*
X64550500Y-52149500D01*
X38193600Y-51806400D02*
X36750500Y-51806400D01*
X52708520Y-52149500D02*
X51859020Y-51300000D01*
X64550500Y-52149500D02*
X52708520Y-52149500D01*
X51859020Y-51300000D02*
X38700000Y-51300000D01*
X32950500Y-47313811D02*
X33781912Y-46482399D01*
X32950500Y-48006400D02*
X32950500Y-47313811D01*
X33781912Y-46482399D02*
X34148502Y-46482399D01*
X38700000Y-51300000D02*
X38193600Y-51806400D01*
X36750500Y-51806400D02*
X32950500Y-48006400D01*
X38700000Y-49300000D02*
X36151845Y-46751845D01*
X55924057Y-49299501D02*
X55724763Y-49299501D01*
X56455713Y-48767845D02*
X55924057Y-49299501D01*
X64200000Y-41901546D02*
X63300000Y-42801546D01*
X55724763Y-49299501D02*
X55224264Y-48799002D01*
X46940753Y-49300000D02*
X38700000Y-49300000D01*
X49198115Y-48150999D02*
X48089754Y-48150999D01*
X62000000Y-49000000D02*
X61152884Y-49000000D01*
X57367845Y-48767845D02*
X56455713Y-48767845D01*
X36151845Y-46751845D02*
X34696649Y-46751845D01*
X63300000Y-42801546D02*
X63300000Y-47700000D01*
X48089754Y-48150999D02*
X46940753Y-49300000D01*
X61152884Y-49000000D02*
X60852884Y-49300000D01*
X34696649Y-46751845D02*
X34669491Y-46779003D01*
X49846118Y-48799002D02*
X49198115Y-48150999D01*
X63300000Y-47700000D02*
X62000000Y-49000000D01*
X57900000Y-49300000D02*
X57367845Y-48767845D01*
X55224264Y-48799002D02*
X49846118Y-48799002D01*
X60852884Y-49300000D02*
X57900000Y-49300000D01*
X47950500Y-49086189D02*
X47970376Y-49106066D01*
X63749500Y-45817845D02*
X63749500Y-47750500D01*
X60838646Y-49737796D02*
X50361354Y-49737796D01*
X63749500Y-47750500D02*
X62200000Y-49300000D01*
X48686189Y-48450500D02*
X48213811Y-48450500D01*
X61276442Y-49300000D02*
X60838646Y-49737796D01*
X47970376Y-49106066D02*
X47475943Y-49600499D01*
X62200000Y-49300000D02*
X61276442Y-49300000D01*
X48936188Y-48700499D02*
X48686189Y-48450500D01*
X47950500Y-48713811D02*
X47950500Y-49086189D01*
X38300499Y-49600499D02*
X35917484Y-47217484D01*
X47475943Y-49600499D02*
X38300499Y-49600499D01*
X49324057Y-48700499D02*
X48936188Y-48700499D01*
X48213811Y-48450500D02*
X47950500Y-48713811D01*
X35917484Y-47217484D02*
X35107105Y-47217484D01*
X50361354Y-49737796D02*
X49324057Y-48700499D01*
X35975943Y-44799501D02*
X36099501Y-44799501D01*
X35775943Y-44599501D02*
X35975943Y-44799501D01*
X36099501Y-44799501D02*
X39349000Y-48049000D01*
X31354843Y-44870278D02*
X31625620Y-44599501D01*
X39349000Y-48049000D02*
X41409836Y-48049000D01*
X31625620Y-44599501D02*
X35775943Y-44599501D01*
X53024264Y-41000000D02*
X52350500Y-41000000D01*
X53474264Y-40550000D02*
X53024264Y-41000000D01*
X63800191Y-41009809D02*
X57829427Y-41009809D01*
X57369618Y-40550000D02*
X53474264Y-40550000D01*
X57829427Y-41009809D02*
X57369618Y-40550000D01*
X64160000Y-40650000D02*
X63800191Y-41009809D01*
X50440000Y-58060000D02*
X37926641Y-58060000D01*
X37926641Y-58060000D02*
X35651614Y-55784973D01*
X59000000Y-55600000D02*
X52900000Y-55600000D01*
X52900000Y-55600000D02*
X50440000Y-58060000D01*
X35651614Y-55784973D02*
X35651614Y-55337864D01*
X28591799Y-32823201D02*
X28591799Y-41088169D01*
X44400000Y-47400000D02*
X45200000Y-48200000D01*
X29660000Y-31755000D02*
X28591799Y-32823201D01*
X39200000Y-47400000D02*
X44400000Y-47400000D01*
X28591799Y-41088169D02*
X31803630Y-44300000D01*
X31803630Y-44300000D02*
X36100000Y-44300000D01*
X36100000Y-44300000D02*
X39200000Y-47400000D01*
X39500499Y-47100499D02*
X44800499Y-47100499D01*
X36400499Y-44000499D02*
X39500499Y-47100499D01*
X28891300Y-40964112D02*
X31927687Y-44000499D01*
X44800499Y-47100499D02*
X45900000Y-48200000D01*
X28891300Y-33793700D02*
X28891300Y-40964112D01*
X31927687Y-44000499D02*
X36400499Y-44000499D01*
X29660000Y-33025000D02*
X28891300Y-33793700D01*
X36374943Y-45498501D02*
X39375943Y-48499501D01*
X35336885Y-45498501D02*
X36374943Y-45498501D01*
X30954900Y-45400000D02*
X35238384Y-45400000D01*
X39375943Y-48499501D02*
X42549499Y-48499501D01*
X42549499Y-48499501D02*
X43000000Y-48049000D01*
X35238384Y-45400000D02*
X35336885Y-45498501D01*
X30590980Y-45036080D02*
X30954900Y-45400000D01*
X48200000Y-52000000D02*
X48860000Y-52660000D01*
X48860000Y-52660000D02*
X65310000Y-52660000D01*
X61600000Y-49600000D02*
X61100000Y-50100000D01*
X64174501Y-47825499D02*
X62400000Y-49600000D01*
X66580000Y-52660000D02*
X67604501Y-51635499D01*
X67604501Y-48404501D02*
X67025499Y-47825499D01*
X67604501Y-51635499D02*
X67604501Y-48404501D01*
X62400000Y-49600000D02*
X61600000Y-49600000D01*
X49700000Y-50100000D02*
X48500000Y-48900000D01*
X67025499Y-47825499D02*
X64174501Y-47825499D01*
X61100000Y-50100000D02*
X49700000Y-50100000D01*
X65310000Y-53930000D02*
X56370000Y-53930000D01*
X56370000Y-53930000D02*
X56300000Y-54000000D01*
X53800000Y-47099293D02*
X53800000Y-47600000D01*
X59836397Y-43700000D02*
X56936397Y-46600000D01*
X56936397Y-46600000D02*
X54299293Y-46600000D01*
X62800000Y-43700000D02*
X59836397Y-43700000D01*
X54299293Y-46600000D02*
X53800000Y-47099293D01*
X51700000Y-40500000D02*
X53100000Y-40500000D01*
X34500000Y-41300000D02*
X35000000Y-41300000D01*
X32200000Y-40645000D02*
X32200000Y-41413907D01*
X37400000Y-40500000D02*
X51700000Y-40500000D01*
X34016102Y-41783898D02*
X34500000Y-41300000D01*
X36450000Y-41450000D02*
X37400000Y-40500000D01*
X53100000Y-40500000D02*
X56900000Y-36700000D01*
X32200000Y-41413907D02*
X32569991Y-41783898D01*
X32569991Y-41783898D02*
X34016102Y-41783898D01*
X35000000Y-41300000D02*
X35150000Y-41450000D01*
X35150000Y-41450000D02*
X36450000Y-41450000D01*
X55789999Y-42245691D02*
X41996690Y-42245691D01*
X41996690Y-42245691D02*
X41950999Y-42200000D01*
X32170000Y-53930000D02*
X35200000Y-50900000D01*
X31050000Y-53930000D02*
X32170000Y-53930000D01*
X55984459Y-31715541D02*
X56883171Y-31715541D01*
X30428700Y-31371300D02*
X31113201Y-30686799D01*
X29660000Y-34295000D02*
X30428700Y-33526300D01*
X33900000Y-36100000D02*
X35400000Y-37600000D01*
X33900000Y-31000000D02*
X33900000Y-36100000D01*
X33586799Y-30686799D02*
X33900000Y-31000000D01*
X31113201Y-30686799D02*
X33586799Y-30686799D01*
X35400000Y-37600000D02*
X45000000Y-37600000D01*
X47300000Y-35300000D02*
X52400000Y-35300000D01*
X45000000Y-37600000D02*
X47300000Y-35300000D01*
X52400000Y-35300000D02*
X55984459Y-31715541D01*
X30428700Y-33526300D02*
X30428700Y-31371300D01*
X52400000Y-35800000D02*
X47300000Y-35800000D01*
X31313700Y-30986300D02*
X30728201Y-31571799D01*
X56000000Y-32200000D02*
X52400000Y-35800000D01*
X30728201Y-34496799D02*
X29660000Y-35565000D01*
X57400000Y-32200000D02*
X56000000Y-32200000D01*
X33600000Y-36223558D02*
X33600000Y-31123558D01*
X33462742Y-30986300D02*
X31313700Y-30986300D01*
X35275943Y-37899501D02*
X33600000Y-36223558D01*
X45200499Y-37899501D02*
X35275943Y-37899501D01*
X30728201Y-31571799D02*
X30728201Y-34496799D01*
X33600000Y-31123558D02*
X33462742Y-30986300D01*
X47300000Y-35800000D02*
X45200499Y-37899501D01*
X56800000Y-35900000D02*
X57200000Y-36300000D01*
X62555736Y-39380000D02*
X64160000Y-39380000D01*
X57200000Y-36300000D02*
X59475736Y-36300000D01*
X59475736Y-36300000D02*
X62555736Y-39380000D01*
X61710000Y-38110000D02*
X59305060Y-35705060D01*
X64160000Y-38110000D02*
X61710000Y-38110000D01*
X59305060Y-35705060D02*
X57416727Y-35705060D01*
X39251886Y-48799002D02*
X36252385Y-45799501D01*
X51423808Y-47499501D02*
X47236188Y-47499501D01*
X55148820Y-48300000D02*
X52224307Y-48300000D01*
X44563812Y-48199501D02*
X44224057Y-48199501D01*
X62200000Y-46600000D02*
X60600000Y-46600000D01*
X62800000Y-46000000D02*
X62200000Y-46600000D01*
X44224057Y-48199501D02*
X43624556Y-48799002D01*
X47236188Y-47499501D02*
X46086189Y-48649500D01*
X52224307Y-48300000D02*
X51423808Y-47499501D01*
X36252385Y-45799501D02*
X32300499Y-45799501D01*
X45013811Y-48649500D02*
X44563812Y-48199501D01*
X46086189Y-48649500D02*
X45013811Y-48649500D01*
X60000000Y-46000000D02*
X58600707Y-46000000D01*
X55800707Y-48800000D02*
X55648820Y-48800000D01*
X58600707Y-46000000D02*
X55800707Y-48800000D01*
X55648820Y-48800000D02*
X55148820Y-48300000D01*
X32300499Y-45799501D02*
X32200000Y-45900000D01*
X60600000Y-46600000D02*
X60000000Y-46000000D01*
X43624556Y-48799002D02*
X39251886Y-48799002D01*
%TA.AperFunction,Conductor*%
G36*
X28591500Y-41410341D02*
G01*
X28606826Y-41422101D01*
X31493144Y-44308419D01*
X31514536Y-44354295D01*
X31501435Y-44403190D01*
X31493141Y-44413073D01*
X31482829Y-44423384D01*
X31474004Y-44430922D01*
X31454296Y-44445241D01*
X31450044Y-44452606D01*
X31438287Y-44467927D01*
X31434401Y-44471813D01*
X31388525Y-44493205D01*
X31370502Y-44492576D01*
X31354845Y-44490096D01*
X31237359Y-44508703D01*
X31131379Y-44562703D01*
X31047268Y-44646814D01*
X30987947Y-44763239D01*
X30984483Y-44761474D01*
X30970286Y-44787055D01*
X30923019Y-44805168D01*
X30875167Y-44788662D01*
X30869443Y-44783505D01*
X30814443Y-44728505D01*
X30708463Y-44674505D01*
X30605110Y-44658136D01*
X30590980Y-44655899D01*
X30590979Y-44655899D01*
X30473496Y-44674505D01*
X30367516Y-44728505D01*
X30283405Y-44812616D01*
X30229405Y-44918596D01*
X30210799Y-45036080D01*
X30229405Y-45153563D01*
X30283405Y-45259543D01*
X30367516Y-45343654D01*
X30473496Y-45397654D01*
X30590978Y-45416261D01*
X30590978Y-45416260D01*
X30590980Y-45416261D01*
X30606635Y-45413781D01*
X30656324Y-45423438D01*
X30670539Y-45434544D01*
X30789893Y-45553898D01*
X30792559Y-45556708D01*
X30822845Y-45590343D01*
X30841808Y-45637275D01*
X30826166Y-45685417D01*
X30802244Y-45705381D01*
X30728358Y-45744161D01*
X30677758Y-45770718D01*
X30559515Y-45875470D01*
X30469780Y-46005476D01*
X30413762Y-46153183D01*
X30397265Y-46289053D01*
X30394722Y-46310000D01*
X30395631Y-46317483D01*
X30413762Y-46466816D01*
X30469780Y-46614523D01*
X30559515Y-46744529D01*
X30628466Y-46805613D01*
X30677760Y-46849283D01*
X30735288Y-46879476D01*
X30769360Y-46916911D01*
X30771398Y-46967489D01*
X30740448Y-47007544D01*
X30735295Y-47010519D01*
X30707563Y-47025075D01*
X30677758Y-47040718D01*
X30559517Y-47145469D01*
X30475901Y-47266609D01*
X30434632Y-47295920D01*
X30384177Y-47291847D01*
X30354099Y-47266609D01*
X30320190Y-47217484D01*
X30270483Y-47145470D01*
X30251869Y-47128980D01*
X30196786Y-47080181D01*
X30152240Y-47040717D01*
X30012365Y-46967304D01*
X29858985Y-46929500D01*
X29701015Y-46929500D01*
X29610433Y-46951826D01*
X29547635Y-46967304D01*
X29407758Y-47040718D01*
X29289515Y-47145470D01*
X29199780Y-47275476D01*
X29143762Y-47423183D01*
X29126571Y-47564769D01*
X29124722Y-47580000D01*
X29125585Y-47587107D01*
X29143762Y-47736816D01*
X29199780Y-47884523D01*
X29289515Y-48014529D01*
X29368806Y-48084773D01*
X29407760Y-48119283D01*
X29465288Y-48149476D01*
X29499360Y-48186911D01*
X29501398Y-48237489D01*
X29470448Y-48277544D01*
X29465295Y-48280519D01*
X29435854Y-48295972D01*
X29407758Y-48310718D01*
X29289515Y-48415470D01*
X29199780Y-48545476D01*
X29143762Y-48693183D01*
X29124722Y-48850000D01*
X29143762Y-49006816D01*
X29199780Y-49154523D01*
X29289515Y-49284529D01*
X29355545Y-49343025D01*
X29407760Y-49389283D01*
X29465288Y-49419476D01*
X29499360Y-49456911D01*
X29501398Y-49507489D01*
X29470448Y-49547544D01*
X29465295Y-49550519D01*
X29415728Y-49576535D01*
X29407758Y-49580718D01*
X29289515Y-49685470D01*
X29199780Y-49815476D01*
X29143762Y-49963183D01*
X29124722Y-50120000D01*
X29143762Y-50276816D01*
X29199780Y-50424523D01*
X29289515Y-50554529D01*
X29332294Y-50592427D01*
X29407760Y-50659283D01*
X29465288Y-50689476D01*
X29499360Y-50726911D01*
X29501398Y-50777489D01*
X29470448Y-50817544D01*
X29465295Y-50820519D01*
X29413992Y-50847445D01*
X29407758Y-50850718D01*
X29289515Y-50955470D01*
X29199780Y-51085476D01*
X29143762Y-51233183D01*
X29124722Y-51389999D01*
X29143762Y-51546816D01*
X29199780Y-51694523D01*
X29289515Y-51824529D01*
X29380778Y-51905379D01*
X29407760Y-51929283D01*
X29465288Y-51959476D01*
X29499360Y-51996911D01*
X29501398Y-52047489D01*
X29470448Y-52087544D01*
X29465295Y-52090519D01*
X29457891Y-52094406D01*
X29407758Y-52120718D01*
X29289515Y-52225470D01*
X29199780Y-52355476D01*
X29143762Y-52503183D01*
X29124722Y-52660000D01*
X29143762Y-52816816D01*
X29199780Y-52964523D01*
X29289515Y-53094529D01*
X29380778Y-53175379D01*
X29407760Y-53199283D01*
X29465288Y-53229476D01*
X29499360Y-53266911D01*
X29501398Y-53317489D01*
X29470448Y-53357544D01*
X29465295Y-53360519D01*
X29413992Y-53387445D01*
X29407758Y-53390718D01*
X29289515Y-53495470D01*
X29199780Y-53625476D01*
X29143762Y-53773183D01*
X29124722Y-53930000D01*
X29143762Y-54086816D01*
X29152424Y-54109656D01*
X29170933Y-54158459D01*
X29171613Y-54209073D01*
X29154068Y-54237025D01*
X28901100Y-54489993D01*
X28898292Y-54492658D01*
X28868490Y-54519493D01*
X28858581Y-54541748D01*
X28853043Y-54551948D01*
X28839773Y-54572381D01*
X28838443Y-54580782D01*
X28832960Y-54599296D01*
X28829500Y-54607068D01*
X28829500Y-54631425D01*
X28828589Y-54643001D01*
X28824777Y-54667063D01*
X28826978Y-54675274D01*
X28829500Y-54694429D01*
X28829500Y-55647138D01*
X28829399Y-55651011D01*
X28827300Y-55691063D01*
X28836031Y-55713810D01*
X28839327Y-55724940D01*
X28844392Y-55748767D01*
X28849389Y-55755645D01*
X28858604Y-55772617D01*
X28861653Y-55780559D01*
X28878880Y-55797786D01*
X28886421Y-55806615D01*
X28900530Y-55826035D01*
X28900740Y-55826323D01*
X28908101Y-55830573D01*
X28923426Y-55842332D01*
X29350780Y-56269685D01*
X29372172Y-56315561D01*
X29359071Y-56364456D01*
X29350779Y-56374338D01*
X29322603Y-56402513D01*
X29276726Y-56423905D01*
X29227832Y-56410802D01*
X29217952Y-56402512D01*
X29206627Y-56391187D01*
X29100647Y-56337187D01*
X28997294Y-56320818D01*
X28983164Y-56318581D01*
X28983163Y-56318581D01*
X28865680Y-56337187D01*
X28759700Y-56391187D01*
X28675589Y-56475298D01*
X28620433Y-56583547D01*
X28583412Y-56618069D01*
X28532863Y-56620717D01*
X28492437Y-56590254D01*
X28480500Y-56549954D01*
X28480500Y-41474426D01*
X28497813Y-41426861D01*
X28541650Y-41401551D01*
X28591500Y-41410341D01*
G37*
%TD.AperFunction*%
%TA.AperFunction,Conductor*%
G36*
X31845239Y-45642813D02*
G01*
X31870549Y-45686650D01*
X31863608Y-45733095D01*
X31838425Y-45782518D01*
X31825905Y-45861574D01*
X31819819Y-45900000D01*
X31822056Y-45914130D01*
X31838425Y-46017483D01*
X31892425Y-46123463D01*
X31976536Y-46207574D01*
X32082516Y-46261574D01*
X32107407Y-46265516D01*
X32200000Y-46280181D01*
X32305757Y-46263431D01*
X32317483Y-46261574D01*
X32423462Y-46207575D01*
X32423462Y-46207574D01*
X32423465Y-46207573D01*
X32507573Y-46123465D01*
X32537156Y-46065404D01*
X32574176Y-46030883D01*
X32603090Y-46025001D01*
X33910852Y-46025001D01*
X33958418Y-46042314D01*
X33983728Y-46086151D01*
X33974938Y-46136001D01*
X33944448Y-46164935D01*
X33925038Y-46174824D01*
X33864638Y-46235225D01*
X33818762Y-46256617D01*
X33812312Y-46256899D01*
X33789773Y-46256899D01*
X33785900Y-46256798D01*
X33780939Y-46256538D01*
X33745848Y-46254699D01*
X33745847Y-46254699D01*
X33745846Y-46254699D01*
X33723097Y-46263431D01*
X33711968Y-46266727D01*
X33688143Y-46271791D01*
X33681265Y-46276789D01*
X33664295Y-46286003D01*
X33656351Y-46289052D01*
X33639121Y-46306282D01*
X33630296Y-46313819D01*
X33610589Y-46328138D01*
X33606337Y-46335502D01*
X33594580Y-46350823D01*
X32796599Y-47148805D01*
X32793791Y-47151470D01*
X32763990Y-47178304D01*
X32754081Y-47200559D01*
X32748543Y-47210759D01*
X32735273Y-47231192D01*
X32733943Y-47239593D01*
X32728460Y-47258107D01*
X32725000Y-47265879D01*
X32725000Y-47290237D01*
X32724089Y-47301812D01*
X32720278Y-47325875D01*
X32722478Y-47334087D01*
X32724999Y-47353237D01*
X32724999Y-47998538D01*
X32724898Y-48002409D01*
X32722799Y-48042462D01*
X32722799Y-48042464D01*
X32722800Y-48042464D01*
X32730514Y-48062562D01*
X32731531Y-48065210D01*
X32734827Y-48076340D01*
X32739892Y-48100167D01*
X32744889Y-48107045D01*
X32754104Y-48124017D01*
X32757153Y-48131959D01*
X32774383Y-48149189D01*
X32781924Y-48158019D01*
X32794054Y-48174715D01*
X32796240Y-48177723D01*
X32803601Y-48181973D01*
X32818926Y-48193732D01*
X33988944Y-49363750D01*
X34010336Y-49409626D01*
X33997235Y-49458521D01*
X33955771Y-49487555D01*
X33905344Y-49483143D01*
X33903023Y-49482011D01*
X33817481Y-49438425D01*
X33700000Y-49419819D01*
X33582516Y-49438425D01*
X33476536Y-49492425D01*
X33392425Y-49576536D01*
X33338425Y-49682516D01*
X33319819Y-49800000D01*
X33338425Y-49917483D01*
X33392425Y-50023463D01*
X33426972Y-50058010D01*
X33448364Y-50103886D01*
X33435263Y-50152781D01*
X33408243Y-50176270D01*
X33376535Y-50192426D01*
X33292425Y-50276536D01*
X33238425Y-50382516D01*
X33219819Y-50499999D01*
X33238425Y-50617483D01*
X33292425Y-50723463D01*
X33376536Y-50807574D01*
X33482516Y-50861574D01*
X33510778Y-50866049D01*
X33600000Y-50880181D01*
X33701419Y-50864117D01*
X33717483Y-50861574D01*
X33823463Y-50807574D01*
X33823462Y-50807574D01*
X33823465Y-50807573D01*
X33907573Y-50723465D01*
X33912727Y-50713350D01*
X33961574Y-50617483D01*
X33971544Y-50554530D01*
X33980181Y-50500000D01*
X33961574Y-50382518D01*
X33961574Y-50382516D01*
X33907574Y-50276536D01*
X33873027Y-50241989D01*
X33851635Y-50196113D01*
X33864736Y-50147218D01*
X33891756Y-50123729D01*
X33923465Y-50107573D01*
X34007573Y-50023465D01*
X34039951Y-49959920D01*
X34061574Y-49917483D01*
X34068059Y-49876535D01*
X34080181Y-49800000D01*
X34062042Y-49685470D01*
X34061574Y-49682516D01*
X34017989Y-49596976D01*
X34011820Y-49546735D01*
X34039389Y-49504282D01*
X34087796Y-49489482D01*
X34134391Y-49509261D01*
X34136249Y-49511055D01*
X35064224Y-50439030D01*
X35085616Y-50484906D01*
X35072515Y-50533801D01*
X35045493Y-50557290D01*
X34976537Y-50592424D01*
X34892425Y-50676536D01*
X34838425Y-50782516D01*
X34819819Y-50899999D01*
X34822298Y-50915658D01*
X34812638Y-50965346D01*
X34801535Y-50979557D01*
X32098269Y-53682826D01*
X32052393Y-53704218D01*
X32045943Y-53704500D01*
X31711268Y-53704500D01*
X31663702Y-53687187D01*
X31642077Y-53656741D01*
X31634007Y-53635463D01*
X31630220Y-53625477D01*
X31571249Y-53540042D01*
X31540484Y-53495470D01*
X31422240Y-53390717D01*
X31364711Y-53360523D01*
X31330639Y-53323089D01*
X31328601Y-53272511D01*
X31359550Y-53232456D01*
X31364704Y-53229480D01*
X31422240Y-53199283D01*
X31540483Y-53094530D01*
X31630220Y-52964523D01*
X31686237Y-52816818D01*
X31705278Y-52660000D01*
X31686237Y-52503182D01*
X31630220Y-52355477D01*
X31603737Y-52317109D01*
X31540484Y-52225470D01*
X31422240Y-52120717D01*
X31372109Y-52094406D01*
X31364711Y-52090523D01*
X31330639Y-52053089D01*
X31328601Y-52002511D01*
X31359550Y-51962456D01*
X31364704Y-51959480D01*
X31422240Y-51929283D01*
X31540483Y-51824530D01*
X31630220Y-51694523D01*
X31686237Y-51546818D01*
X31705278Y-51390000D01*
X31686237Y-51233182D01*
X31630220Y-51085477D01*
X31608996Y-51054729D01*
X31540484Y-50955470D01*
X31422240Y-50850717D01*
X31364711Y-50820523D01*
X31330639Y-50783089D01*
X31328601Y-50732511D01*
X31359550Y-50692456D01*
X31364704Y-50689480D01*
X31422240Y-50659283D01*
X31540483Y-50554530D01*
X31630220Y-50424523D01*
X31686237Y-50276818D01*
X31705278Y-50120000D01*
X31686237Y-49963182D01*
X31630220Y-49815477D01*
X31598189Y-49769072D01*
X31540484Y-49685470D01*
X31422238Y-49580715D01*
X31364711Y-49550522D01*
X31330639Y-49513087D01*
X31328601Y-49462509D01*
X31359551Y-49422455D01*
X31364685Y-49419490D01*
X31422240Y-49389283D01*
X31540483Y-49284530D01*
X31546085Y-49276415D01*
X31593602Y-49207573D01*
X31630220Y-49154523D01*
X31686237Y-49006818D01*
X31705278Y-48850000D01*
X31686237Y-48693182D01*
X31630220Y-48545477D01*
X31594034Y-48493052D01*
X31540484Y-48415470D01*
X31422240Y-48310717D01*
X31394146Y-48295972D01*
X31364711Y-48280523D01*
X31330639Y-48243089D01*
X31328601Y-48192511D01*
X31359550Y-48152456D01*
X31364704Y-48149480D01*
X31422240Y-48119283D01*
X31540483Y-48014530D01*
X31541298Y-48013350D01*
X31565010Y-47978996D01*
X31630220Y-47884523D01*
X31686237Y-47736818D01*
X31705278Y-47580000D01*
X31686237Y-47423182D01*
X31630220Y-47275477D01*
X31599653Y-47231193D01*
X31540484Y-47145470D01*
X31422240Y-47040717D01*
X31392437Y-47025075D01*
X31364711Y-47010523D01*
X31330639Y-46973089D01*
X31328601Y-46922511D01*
X31359550Y-46882456D01*
X31364704Y-46879480D01*
X31422240Y-46849283D01*
X31540483Y-46744530D01*
X31630220Y-46614523D01*
X31686237Y-46466818D01*
X31705278Y-46310000D01*
X31686237Y-46153182D01*
X31630220Y-46005477D01*
X31581800Y-45935328D01*
X31540484Y-45875470D01*
X31422240Y-45770717D01*
X31411393Y-45765024D01*
X31377320Y-45727589D01*
X31375282Y-45677011D01*
X31406231Y-45636956D01*
X31445782Y-45625500D01*
X31797673Y-45625500D01*
X31845239Y-45642813D01*
G37*
%TD.AperFunction*%
%TA.AperFunction,Conductor*%
G36*
X35184335Y-51277699D02*
G01*
X35200000Y-51280181D01*
X35218625Y-51277231D01*
X35268309Y-51286887D01*
X35300166Y-51326225D01*
X35303288Y-51361891D01*
X35301488Y-51373259D01*
X35306520Y-51405033D01*
X35296861Y-51454722D01*
X35285757Y-51468934D01*
X33503713Y-53250979D01*
X33500905Y-53253644D01*
X33471103Y-53280479D01*
X33461194Y-53302734D01*
X33455656Y-53312934D01*
X33442386Y-53333367D01*
X33441056Y-53341768D01*
X33435573Y-53360282D01*
X33432113Y-53368054D01*
X33432113Y-53392411D01*
X33431202Y-53403987D01*
X33427390Y-53428049D01*
X33429591Y-53436260D01*
X33432113Y-53455415D01*
X33432113Y-53864306D01*
X33414800Y-53911872D01*
X33410439Y-53916632D01*
X31649246Y-55677826D01*
X31603370Y-55699218D01*
X31596920Y-55699500D01*
X30366633Y-55699500D01*
X30319067Y-55682187D01*
X30293757Y-55638350D01*
X30302547Y-55588500D01*
X30305732Y-55583464D01*
X30330343Y-55547806D01*
X30360220Y-55504523D01*
X30416237Y-55356818D01*
X30435278Y-55200000D01*
X30416237Y-55043182D01*
X30360220Y-54895477D01*
X30338996Y-54864729D01*
X30270484Y-54765470D01*
X30152238Y-54660715D01*
X30094711Y-54630522D01*
X30060639Y-54593087D01*
X30058601Y-54542509D01*
X30089551Y-54502455D01*
X30094685Y-54499490D01*
X30152240Y-54469283D01*
X30270483Y-54364530D01*
X30272524Y-54361574D01*
X30354099Y-54243391D01*
X30395368Y-54214079D01*
X30445822Y-54218152D01*
X30475901Y-54243391D01*
X30559515Y-54364529D01*
X30650777Y-54445379D01*
X30677760Y-54469283D01*
X30817635Y-54542696D01*
X30971015Y-54580500D01*
X30971016Y-54580500D01*
X31128984Y-54580500D01*
X31128985Y-54580500D01*
X31282365Y-54542696D01*
X31422240Y-54469283D01*
X31540483Y-54364530D01*
X31542524Y-54361574D01*
X31561706Y-54333782D01*
X31630220Y-54234523D01*
X31642076Y-54203259D01*
X31675132Y-54164923D01*
X31711268Y-54155500D01*
X32162139Y-54155500D01*
X32166012Y-54155601D01*
X32206064Y-54157700D01*
X32228812Y-54148967D01*
X32239930Y-54145673D01*
X32263768Y-54140607D01*
X32270644Y-54135610D01*
X32287624Y-54126392D01*
X32287621Y-54126392D01*
X32295560Y-54123346D01*
X32312794Y-54106111D01*
X32321616Y-54098576D01*
X32341323Y-54084260D01*
X32345572Y-54076898D01*
X32357329Y-54061575D01*
X35120441Y-51298462D01*
X35166316Y-51277071D01*
X35184335Y-51277699D01*
G37*
%TD.AperFunction*%
%TA.AperFunction,Conductor*%
G36*
X53309672Y-55842813D02*
G01*
X53334982Y-55886650D01*
X53329943Y-55920366D01*
X53330423Y-55920442D01*
X53309983Y-56049500D01*
X53328589Y-56166983D01*
X53382589Y-56272963D01*
X53411829Y-56302203D01*
X53433221Y-56348079D01*
X53420120Y-56396974D01*
X53411830Y-56406854D01*
X53393240Y-56425444D01*
X53339240Y-56531424D01*
X53320634Y-56648908D01*
X53323113Y-56664567D01*
X53313453Y-56714255D01*
X53302350Y-56728466D01*
X52217992Y-57812826D01*
X52172116Y-57834218D01*
X52165666Y-57834500D01*
X51163058Y-57834500D01*
X51115492Y-57817187D01*
X51090182Y-57773350D01*
X51098972Y-57723500D01*
X51110732Y-57708174D01*
X52971731Y-55847174D01*
X53017607Y-55825782D01*
X53024057Y-55825500D01*
X53262106Y-55825500D01*
X53309672Y-55842813D01*
G37*
%TD.AperFunction*%
%TA.AperFunction,Conductor*%
G36*
X36139800Y-51514605D02*
G01*
X36585492Y-51960297D01*
X36588158Y-51963106D01*
X36614993Y-51992909D01*
X36637251Y-52002818D01*
X36647442Y-52008351D01*
X36667883Y-52021626D01*
X36676282Y-52022955D01*
X36694805Y-52028443D01*
X36702568Y-52031900D01*
X36726928Y-52031900D01*
X36738503Y-52032811D01*
X36742045Y-52033371D01*
X36762566Y-52036622D01*
X36770780Y-52034420D01*
X36789931Y-52031900D01*
X38185739Y-52031900D01*
X38189612Y-52032001D01*
X38229664Y-52034100D01*
X38252412Y-52025367D01*
X38263530Y-52022073D01*
X38287368Y-52017007D01*
X38294244Y-52012010D01*
X38311224Y-52002792D01*
X38311956Y-52002511D01*
X38319160Y-51999746D01*
X38336394Y-51982511D01*
X38345216Y-51974976D01*
X38364923Y-51960660D01*
X38369172Y-51953298D01*
X38380929Y-51937975D01*
X38771731Y-51547174D01*
X38817609Y-51525782D01*
X38824058Y-51525500D01*
X46164810Y-51525500D01*
X46212376Y-51542813D01*
X46237686Y-51586650D01*
X46228896Y-51636500D01*
X46217136Y-51651826D01*
X46192425Y-51676536D01*
X46138425Y-51782516D01*
X46119819Y-51900000D01*
X46138425Y-52017483D01*
X46192425Y-52123463D01*
X46276536Y-52207574D01*
X46382516Y-52261574D01*
X46410778Y-52266049D01*
X46500000Y-52280181D01*
X46601419Y-52264117D01*
X46617483Y-52261574D01*
X46723463Y-52207574D01*
X46723462Y-52207574D01*
X46723465Y-52207573D01*
X46807573Y-52123465D01*
X46825876Y-52087544D01*
X46861574Y-52017483D01*
X46865466Y-51992908D01*
X46880181Y-51900000D01*
X46864205Y-51799131D01*
X46861574Y-51782516D01*
X46807574Y-51676536D01*
X46782864Y-51651826D01*
X46761472Y-51605950D01*
X46774573Y-51557055D01*
X46816037Y-51528021D01*
X46835190Y-51525500D01*
X47995915Y-51525500D01*
X48043481Y-51542813D01*
X48068791Y-51586650D01*
X48060001Y-51636500D01*
X48029510Y-51665435D01*
X47976534Y-51692427D01*
X47892425Y-51776536D01*
X47838425Y-51882516D01*
X47819819Y-52000000D01*
X47838425Y-52117483D01*
X47892425Y-52223463D01*
X47976536Y-52307574D01*
X48082516Y-52361574D01*
X48112875Y-52366382D01*
X48200000Y-52380181D01*
X48215656Y-52377701D01*
X48265345Y-52387360D01*
X48279558Y-52398464D01*
X48694992Y-52813897D01*
X48697658Y-52816707D01*
X48724492Y-52846509D01*
X48746747Y-52856418D01*
X48756953Y-52861959D01*
X48777382Y-52875226D01*
X48785781Y-52876556D01*
X48804300Y-52882042D01*
X48812067Y-52885500D01*
X48812068Y-52885500D01*
X48836427Y-52885500D01*
X48848002Y-52886411D01*
X48851544Y-52886971D01*
X48872065Y-52890222D01*
X48880279Y-52888020D01*
X48899430Y-52885500D01*
X60804810Y-52885500D01*
X60852376Y-52902813D01*
X60877686Y-52946650D01*
X60868896Y-52996500D01*
X60857136Y-53011826D01*
X60792425Y-53076536D01*
X60738425Y-53182516D01*
X60719819Y-53300000D01*
X60738425Y-53417483D01*
X60792425Y-53523463D01*
X60847136Y-53578174D01*
X60868528Y-53624050D01*
X60855427Y-53672945D01*
X60813963Y-53701979D01*
X60794810Y-53704500D01*
X56564926Y-53704500D01*
X56531331Y-53696434D01*
X56417483Y-53638425D01*
X56300000Y-53619819D01*
X56182516Y-53638425D01*
X56076536Y-53692425D01*
X55992425Y-53776536D01*
X55938425Y-53882516D01*
X55919819Y-53999999D01*
X55938425Y-54117483D01*
X55992425Y-54223463D01*
X56076536Y-54307574D01*
X56182516Y-54361574D01*
X56210778Y-54366049D01*
X56300000Y-54380181D01*
X56401419Y-54364117D01*
X56417483Y-54361574D01*
X56523462Y-54307575D01*
X56523462Y-54307574D01*
X56523465Y-54307573D01*
X56607573Y-54223465D01*
X56621616Y-54195903D01*
X56658637Y-54161382D01*
X56687550Y-54155500D01*
X64648732Y-54155500D01*
X64696298Y-54172813D01*
X64717923Y-54203259D01*
X64729780Y-54234523D01*
X64819515Y-54364529D01*
X64910778Y-54445379D01*
X64937760Y-54469283D01*
X64995288Y-54499476D01*
X65029360Y-54536911D01*
X65031398Y-54587489D01*
X65000448Y-54627544D01*
X64995295Y-54630519D01*
X64980672Y-54638195D01*
X64937758Y-54660718D01*
X64819515Y-54765470D01*
X64729780Y-54895476D01*
X64673762Y-55043183D01*
X64654722Y-55200000D01*
X64673762Y-55356816D01*
X64729780Y-55504523D01*
X64819515Y-55634529D01*
X64883195Y-55690943D01*
X64937760Y-55739283D01*
X65077635Y-55812696D01*
X65231015Y-55850500D01*
X65231016Y-55850500D01*
X65388984Y-55850500D01*
X65388985Y-55850500D01*
X65542365Y-55812696D01*
X65682240Y-55739283D01*
X65800483Y-55634530D01*
X65884098Y-55513391D01*
X65925368Y-55484079D01*
X65975822Y-55488152D01*
X66005901Y-55513391D01*
X66089515Y-55634529D01*
X66153195Y-55690943D01*
X66207760Y-55739283D01*
X66347635Y-55812696D01*
X66501015Y-55850500D01*
X66501016Y-55850500D01*
X66658984Y-55850500D01*
X66658985Y-55850500D01*
X66812365Y-55812696D01*
X66952240Y-55739283D01*
X67070483Y-55634530D01*
X67160220Y-55504523D01*
X67216237Y-55356818D01*
X67235278Y-55200000D01*
X67216237Y-55043182D01*
X67160220Y-54895477D01*
X67138996Y-54864729D01*
X67070484Y-54765470D01*
X66952238Y-54660715D01*
X66894711Y-54630522D01*
X66860639Y-54593087D01*
X66858601Y-54542509D01*
X66889551Y-54502455D01*
X66894685Y-54499490D01*
X66952240Y-54469283D01*
X67070483Y-54364530D01*
X67072524Y-54361574D01*
X67091706Y-54333782D01*
X67160220Y-54234523D01*
X67216237Y-54086818D01*
X67235278Y-53930000D01*
X67216237Y-53773182D01*
X67160220Y-53625477D01*
X67101249Y-53540042D01*
X67070484Y-53495470D01*
X66952240Y-53390717D01*
X66952240Y-53390716D01*
X66894711Y-53360523D01*
X66860639Y-53323089D01*
X66858601Y-53272511D01*
X66889550Y-53232456D01*
X66894704Y-53229480D01*
X66952240Y-53199283D01*
X67070483Y-53094530D01*
X67160220Y-52964523D01*
X67216237Y-52816818D01*
X67235278Y-52660000D01*
X67216237Y-52503182D01*
X67189066Y-52431539D01*
X67188386Y-52380925D01*
X67205929Y-52352974D01*
X67753175Y-51805728D01*
X67799050Y-51784337D01*
X67847945Y-51797438D01*
X67876979Y-51838902D01*
X67879500Y-51858055D01*
X67879500Y-62925500D01*
X67862187Y-62973066D01*
X67818350Y-62998376D01*
X67805500Y-62999500D01*
X28554500Y-62999500D01*
X28506934Y-62982187D01*
X28481624Y-62938350D01*
X28480500Y-62925500D01*
X28480500Y-59937385D01*
X28480500Y-59200000D01*
X31994564Y-59200000D01*
X31994722Y-59202410D01*
X32011165Y-59453297D01*
X32014287Y-59500920D01*
X32014757Y-59503285D01*
X32014758Y-59503289D01*
X32052986Y-59695470D01*
X32073120Y-59796691D01*
X32073894Y-59798973D01*
X32073896Y-59798978D01*
X32133031Y-59973183D01*
X32170055Y-60082252D01*
X32171124Y-60084420D01*
X32171125Y-60084422D01*
X32302362Y-60350546D01*
X32302368Y-60350556D01*
X32303434Y-60352718D01*
X32304778Y-60354730D01*
X32304779Y-60354731D01*
X32469632Y-60601452D01*
X32469636Y-60601458D01*
X32470975Y-60603461D01*
X32472562Y-60605271D01*
X32472567Y-60605277D01*
X32626235Y-60780500D01*
X32669811Y-60830189D01*
X32704624Y-60860719D01*
X32894722Y-61027432D01*
X32894726Y-61027435D01*
X32896539Y-61029025D01*
X32898543Y-61030364D01*
X32898547Y-61030367D01*
X33023812Y-61114066D01*
X33147282Y-61196566D01*
X33149448Y-61197634D01*
X33149453Y-61197637D01*
X33241810Y-61243182D01*
X33417748Y-61329945D01*
X33703309Y-61426880D01*
X33999080Y-61485713D01*
X34300000Y-61505436D01*
X34600920Y-61485713D01*
X34896691Y-61426880D01*
X35182252Y-61329945D01*
X35452718Y-61196566D01*
X35703461Y-61029025D01*
X35930189Y-60830189D01*
X36129025Y-60603461D01*
X36296566Y-60352718D01*
X36406398Y-60130000D01*
X49404722Y-60130000D01*
X49423762Y-60286816D01*
X49479780Y-60434523D01*
X49569515Y-60564529D01*
X49632254Y-60620110D01*
X49656377Y-60664611D01*
X49646253Y-60714207D01*
X49606617Y-60745692D01*
X49583183Y-60749500D01*
X49545180Y-60749500D01*
X49501278Y-60758233D01*
X49451496Y-60791496D01*
X49418233Y-60841278D01*
X49409500Y-60885180D01*
X49409500Y-61914820D01*
X49418233Y-61958722D01*
X49451496Y-62008504D01*
X49501278Y-62041767D01*
X49545180Y-62050500D01*
X49545181Y-62050500D01*
X50574819Y-62050500D01*
X50574820Y-62050500D01*
X50618722Y-62041767D01*
X50668504Y-62008504D01*
X50701767Y-61958722D01*
X50710500Y-61914820D01*
X50710500Y-61884653D01*
X50727813Y-61837087D01*
X50771650Y-61811777D01*
X50821500Y-61820567D01*
X50833571Y-61829263D01*
X50842403Y-61837087D01*
X50957760Y-61939283D01*
X51097635Y-62012696D01*
X51251015Y-62050500D01*
X51251016Y-62050500D01*
X51408984Y-62050500D01*
X51408985Y-62050500D01*
X51562365Y-62012696D01*
X51702240Y-61939283D01*
X51820483Y-61834530D01*
X51910220Y-61704523D01*
X51966237Y-61556818D01*
X51985278Y-61400000D01*
X51966237Y-61243182D01*
X51910220Y-61095477D01*
X51836945Y-60989319D01*
X51820484Y-60965470D01*
X51702238Y-60860715D01*
X51644711Y-60830522D01*
X51610639Y-60793087D01*
X51608601Y-60742509D01*
X51639551Y-60702455D01*
X51644685Y-60699490D01*
X51702240Y-60669283D01*
X51820483Y-60564530D01*
X51904098Y-60443391D01*
X51945368Y-60414079D01*
X51995822Y-60418152D01*
X52025901Y-60443391D01*
X52109515Y-60564529D01*
X52193013Y-60638500D01*
X52227760Y-60669283D01*
X52367635Y-60742696D01*
X52521015Y-60780500D01*
X52521016Y-60780500D01*
X52678984Y-60780500D01*
X52678985Y-60780500D01*
X52832365Y-60742696D01*
X52972240Y-60669283D01*
X53090483Y-60564530D01*
X53174098Y-60443391D01*
X53215368Y-60414079D01*
X53265822Y-60418152D01*
X53295901Y-60443391D01*
X53379515Y-60564529D01*
X53463013Y-60638500D01*
X53497760Y-60669283D01*
X53637635Y-60742696D01*
X53791015Y-60780500D01*
X53791016Y-60780500D01*
X53948984Y-60780500D01*
X53948985Y-60780500D01*
X54102365Y-60742696D01*
X54242240Y-60669283D01*
X54360483Y-60564530D01*
X54444098Y-60443391D01*
X54485368Y-60414079D01*
X54535822Y-60418152D01*
X54565901Y-60443391D01*
X54649515Y-60564529D01*
X54733013Y-60638500D01*
X54767760Y-60669283D01*
X54907635Y-60742696D01*
X55061015Y-60780500D01*
X55061016Y-60780500D01*
X55218984Y-60780500D01*
X55218985Y-60780500D01*
X55372365Y-60742696D01*
X55512240Y-60669283D01*
X55630483Y-60564530D01*
X55714098Y-60443391D01*
X55755368Y-60414079D01*
X55805822Y-60418152D01*
X55835901Y-60443391D01*
X55919515Y-60564529D01*
X56003013Y-60638500D01*
X56037760Y-60669283D01*
X56177635Y-60742696D01*
X56331015Y-60780500D01*
X56331016Y-60780500D01*
X56488984Y-60780500D01*
X56488985Y-60780500D01*
X56642365Y-60742696D01*
X56782240Y-60669283D01*
X56900483Y-60564530D01*
X56984098Y-60443391D01*
X57025368Y-60414079D01*
X57075822Y-60418152D01*
X57105901Y-60443391D01*
X57189515Y-60564529D01*
X57273013Y-60638500D01*
X57307760Y-60669283D01*
X57365288Y-60699476D01*
X57399360Y-60736911D01*
X57401398Y-60787489D01*
X57370448Y-60827544D01*
X57365295Y-60830519D01*
X57315052Y-60856890D01*
X57307758Y-60860718D01*
X57189515Y-60965470D01*
X57099780Y-61095476D01*
X57043762Y-61243183D01*
X57024722Y-61400000D01*
X57043762Y-61556816D01*
X57099780Y-61704523D01*
X57189515Y-61834529D01*
X57263418Y-61900000D01*
X57307760Y-61939283D01*
X57447635Y-62012696D01*
X57601015Y-62050500D01*
X57601016Y-62050500D01*
X57758984Y-62050500D01*
X57758985Y-62050500D01*
X57912365Y-62012696D01*
X58052240Y-61939283D01*
X58096582Y-61900000D01*
X63819819Y-61900000D01*
X63838425Y-62017483D01*
X63892425Y-62123463D01*
X63976536Y-62207574D01*
X64082516Y-62261574D01*
X64110778Y-62266049D01*
X64200000Y-62280181D01*
X64301419Y-62264117D01*
X64317483Y-62261574D01*
X64423463Y-62207574D01*
X64423462Y-62207574D01*
X64423465Y-62207573D01*
X64507573Y-62123465D01*
X64509520Y-62119643D01*
X64561574Y-62017483D01*
X64564117Y-62001419D01*
X64580181Y-61900000D01*
X64561574Y-61782518D01*
X64561574Y-61782516D01*
X64507574Y-61676536D01*
X64423463Y-61592425D01*
X64317483Y-61538425D01*
X64200000Y-61519819D01*
X64082516Y-61538425D01*
X63976536Y-61592425D01*
X63892425Y-61676536D01*
X63838425Y-61782516D01*
X63819819Y-61900000D01*
X58096582Y-61900000D01*
X58170483Y-61834530D01*
X58260220Y-61704523D01*
X58316237Y-61556818D01*
X58335278Y-61400000D01*
X58316237Y-61243182D01*
X58260220Y-61095477D01*
X58186945Y-60989319D01*
X58170484Y-60965470D01*
X58052240Y-60860717D01*
X58044948Y-60856890D01*
X57994711Y-60830523D01*
X57960639Y-60793089D01*
X57958601Y-60742511D01*
X57989550Y-60702456D01*
X57994704Y-60699480D01*
X58052240Y-60669283D01*
X58170483Y-60564530D01*
X58260220Y-60434523D01*
X58316237Y-60286818D01*
X58335278Y-60130000D01*
X58316237Y-59973182D01*
X58260220Y-59825477D01*
X58238713Y-59794318D01*
X58170484Y-59695470D01*
X58052241Y-59590718D01*
X58052240Y-59590717D01*
X57912365Y-59517304D01*
X57912362Y-59517303D01*
X57904409Y-59513129D01*
X57905828Y-59510424D01*
X57876209Y-59490562D01*
X57862126Y-59441941D01*
X57882590Y-59395643D01*
X57928026Y-59373331D01*
X57935959Y-59372905D01*
X58914310Y-59372905D01*
X58961876Y-59390218D01*
X58966636Y-59394579D01*
X59027036Y-59454979D01*
X59133016Y-59508979D01*
X59165142Y-59514066D01*
X59250500Y-59527586D01*
X59353851Y-59511216D01*
X59367983Y-59508979D01*
X59473963Y-59454979D01*
X59473962Y-59454979D01*
X59473965Y-59454978D01*
X59558073Y-59370870D01*
X59594183Y-59300000D01*
X59612074Y-59264888D01*
X59621969Y-59202410D01*
X59622351Y-59200000D01*
X59794564Y-59200000D01*
X59794722Y-59202410D01*
X59811165Y-59453297D01*
X59814287Y-59500920D01*
X59814757Y-59503285D01*
X59814758Y-59503289D01*
X59852986Y-59695470D01*
X59873120Y-59796691D01*
X59873894Y-59798973D01*
X59873896Y-59798978D01*
X59933031Y-59973183D01*
X59970055Y-60082252D01*
X59971124Y-60084420D01*
X59971125Y-60084422D01*
X60102362Y-60350546D01*
X60102368Y-60350556D01*
X60103434Y-60352718D01*
X60104778Y-60354730D01*
X60104779Y-60354731D01*
X60269632Y-60601452D01*
X60269636Y-60601458D01*
X60270975Y-60603461D01*
X60272562Y-60605271D01*
X60272567Y-60605277D01*
X60426235Y-60780500D01*
X60469811Y-60830189D01*
X60504624Y-60860719D01*
X60694722Y-61027432D01*
X60694726Y-61027435D01*
X60696539Y-61029025D01*
X60698543Y-61030364D01*
X60698547Y-61030367D01*
X60823812Y-61114066D01*
X60947282Y-61196566D01*
X60949448Y-61197634D01*
X60949453Y-61197637D01*
X61041810Y-61243182D01*
X61217748Y-61329945D01*
X61503309Y-61426880D01*
X61799080Y-61485713D01*
X62100000Y-61505436D01*
X62400920Y-61485713D01*
X62696691Y-61426880D01*
X62982252Y-61329945D01*
X63252718Y-61196566D01*
X63503461Y-61029025D01*
X63730189Y-60830189D01*
X63929025Y-60603461D01*
X64096566Y-60352718D01*
X64229945Y-60082252D01*
X64326880Y-59796691D01*
X64385713Y-59500920D01*
X64398882Y-59300000D01*
X66519819Y-59300000D01*
X66538425Y-59417483D01*
X66592425Y-59523463D01*
X66676536Y-59607574D01*
X66782516Y-59661574D01*
X66810778Y-59666049D01*
X66900000Y-59680181D01*
X67001419Y-59664117D01*
X67017483Y-59661574D01*
X67123463Y-59607574D01*
X67123462Y-59607574D01*
X67123465Y-59607573D01*
X67207573Y-59523465D01*
X67229974Y-59479500D01*
X67261574Y-59417483D01*
X67265892Y-59390218D01*
X67280181Y-59300000D01*
X67261574Y-59182518D01*
X67261574Y-59182516D01*
X67207574Y-59076536D01*
X67123463Y-58992425D01*
X67017483Y-58938425D01*
X66900000Y-58919819D01*
X66782516Y-58938425D01*
X66676536Y-58992425D01*
X66592425Y-59076536D01*
X66538425Y-59182516D01*
X66519819Y-59300000D01*
X64398882Y-59300000D01*
X64405436Y-59200000D01*
X64385713Y-58899080D01*
X64326880Y-58603309D01*
X64229945Y-58317748D01*
X64163255Y-58182514D01*
X64097637Y-58049453D01*
X64097634Y-58049448D01*
X64096566Y-58047282D01*
X63939908Y-57812826D01*
X63930367Y-57798547D01*
X63930364Y-57798543D01*
X63929025Y-57796539D01*
X63907089Y-57771526D01*
X63731785Y-57571631D01*
X63730189Y-57569811D01*
X63728368Y-57568214D01*
X63505277Y-57372567D01*
X63505271Y-57372562D01*
X63503461Y-57370975D01*
X63501458Y-57369636D01*
X63501452Y-57369632D01*
X63254731Y-57204779D01*
X63254730Y-57204778D01*
X63252718Y-57203434D01*
X63250556Y-57202368D01*
X63250546Y-57202362D01*
X62984422Y-57071125D01*
X62984420Y-57071124D01*
X62982252Y-57070055D01*
X62979965Y-57069278D01*
X62979961Y-57069277D01*
X62698978Y-56973896D01*
X62698973Y-56973894D01*
X62696691Y-56973120D01*
X62613042Y-56956481D01*
X62403289Y-56914758D01*
X62403285Y-56914757D01*
X62400920Y-56914287D01*
X62398516Y-56914129D01*
X62398513Y-56914129D01*
X62102411Y-56894722D01*
X62100000Y-56894564D01*
X62097589Y-56894722D01*
X61801486Y-56914129D01*
X61801481Y-56914129D01*
X61799080Y-56914287D01*
X61796716Y-56914757D01*
X61796710Y-56914758D01*
X61505681Y-56972648D01*
X61505678Y-56972648D01*
X61503309Y-56973120D01*
X61501030Y-56973893D01*
X61501021Y-56973896D01*
X61220038Y-57069277D01*
X61220029Y-57069280D01*
X61217748Y-57070055D01*
X61215584Y-57071121D01*
X61215577Y-57071125D01*
X60949453Y-57202362D01*
X60949436Y-57202371D01*
X60947282Y-57203434D01*
X60945275Y-57204774D01*
X60945268Y-57204779D01*
X60698547Y-57369632D01*
X60698533Y-57369642D01*
X60696539Y-57370975D01*
X60694735Y-57372556D01*
X60694722Y-57372567D01*
X60471631Y-57568214D01*
X60471623Y-57568221D01*
X60469811Y-57569811D01*
X60468221Y-57571623D01*
X60468214Y-57571631D01*
X60272567Y-57794722D01*
X60272556Y-57794735D01*
X60270975Y-57796539D01*
X60269642Y-57798533D01*
X60269632Y-57798547D01*
X60104779Y-58045268D01*
X60104774Y-58045275D01*
X60103434Y-58047282D01*
X60102371Y-58049436D01*
X60102362Y-58049453D01*
X59971125Y-58315577D01*
X59971121Y-58315584D01*
X59970055Y-58317748D01*
X59969280Y-58320029D01*
X59969277Y-58320038D01*
X59873896Y-58601021D01*
X59873893Y-58601030D01*
X59873120Y-58603309D01*
X59872648Y-58605678D01*
X59872648Y-58605681D01*
X59826073Y-58839830D01*
X59814287Y-58899080D01*
X59814129Y-58901481D01*
X59814129Y-58901486D01*
X59809060Y-58978826D01*
X59794564Y-59200000D01*
X59622351Y-59200000D01*
X59630681Y-59147405D01*
X59612074Y-59029923D01*
X59612074Y-59029921D01*
X59558074Y-58923941D01*
X59473963Y-58839830D01*
X59367983Y-58785830D01*
X59264630Y-58769461D01*
X59250500Y-58767224D01*
X59250499Y-58767224D01*
X59133016Y-58785830D01*
X59027036Y-58839830D01*
X58966636Y-58900231D01*
X58920760Y-58921623D01*
X58914310Y-58921905D01*
X54860456Y-58921905D01*
X54856583Y-58921804D01*
X54852650Y-58921597D01*
X54816531Y-58919705D01*
X54816530Y-58919705D01*
X54816529Y-58919705D01*
X54793788Y-58928434D01*
X54782659Y-58931731D01*
X54758825Y-58936797D01*
X54751943Y-58941798D01*
X54734974Y-58951012D01*
X54727034Y-58954060D01*
X54709804Y-58971289D01*
X54700979Y-58978826D01*
X54681271Y-58993145D01*
X54677019Y-59000510D01*
X54665262Y-59015831D01*
X54181149Y-59499944D01*
X54135273Y-59521336D01*
X54111775Y-59516667D01*
X54111089Y-59519455D01*
X54102367Y-59517305D01*
X54102365Y-59517304D01*
X53948985Y-59479500D01*
X53791015Y-59479500D01*
X53654574Y-59513129D01*
X53637635Y-59517304D01*
X53497758Y-59590718D01*
X53379517Y-59695469D01*
X53295901Y-59816609D01*
X53254632Y-59845920D01*
X53204177Y-59841847D01*
X53174099Y-59816609D01*
X53090482Y-59695469D01*
X52972241Y-59590718D01*
X52972240Y-59590717D01*
X52832365Y-59517304D01*
X52678985Y-59479500D01*
X52521015Y-59479500D01*
X52384574Y-59513129D01*
X52367635Y-59517304D01*
X52227758Y-59590718D01*
X52109517Y-59695469D01*
X52025901Y-59816609D01*
X51984632Y-59845920D01*
X51934177Y-59841847D01*
X51904099Y-59816609D01*
X51820482Y-59695469D01*
X51702241Y-59590718D01*
X51702240Y-59590717D01*
X51562365Y-59517304D01*
X51408985Y-59479500D01*
X51251015Y-59479500D01*
X51114574Y-59513129D01*
X51097635Y-59517304D01*
X50957758Y-59590718D01*
X50839517Y-59695469D01*
X50755900Y-59816609D01*
X50714631Y-59845920D01*
X50664176Y-59841847D01*
X50634098Y-59816608D01*
X50550484Y-59695470D01*
X50432241Y-59590718D01*
X50432240Y-59590717D01*
X50292365Y-59517304D01*
X50138985Y-59479500D01*
X49981015Y-59479500D01*
X49844574Y-59513129D01*
X49827635Y-59517304D01*
X49687758Y-59590718D01*
X49569515Y-59695470D01*
X49479780Y-59825476D01*
X49423762Y-59973183D01*
X49404722Y-60130000D01*
X36406398Y-60130000D01*
X36429945Y-60082252D01*
X36526880Y-59796691D01*
X36585713Y-59500920D01*
X36605436Y-59200000D01*
X36585713Y-58899080D01*
X36526880Y-58603309D01*
X36429945Y-58317748D01*
X36363255Y-58182515D01*
X36297637Y-58049453D01*
X36297634Y-58049448D01*
X36296566Y-58047282D01*
X36139908Y-57812826D01*
X36130367Y-57798547D01*
X36130364Y-57798543D01*
X36129025Y-57796539D01*
X36107089Y-57771526D01*
X35931785Y-57571631D01*
X35930189Y-57569811D01*
X35928368Y-57568214D01*
X35705277Y-57372567D01*
X35705271Y-57372562D01*
X35703461Y-57370975D01*
X35701458Y-57369636D01*
X35701452Y-57369632D01*
X35454731Y-57204779D01*
X35454730Y-57204778D01*
X35452718Y-57203434D01*
X35450556Y-57202368D01*
X35450546Y-57202362D01*
X35184422Y-57071125D01*
X35184420Y-57071124D01*
X35182252Y-57070055D01*
X35179965Y-57069278D01*
X35179961Y-57069277D01*
X34898978Y-56973896D01*
X34898973Y-56973894D01*
X34896691Y-56973120D01*
X34813042Y-56956481D01*
X34603289Y-56914758D01*
X34603285Y-56914757D01*
X34600920Y-56914287D01*
X34598516Y-56914129D01*
X34598513Y-56914129D01*
X34302411Y-56894722D01*
X34300000Y-56894564D01*
X34297589Y-56894722D01*
X34001486Y-56914129D01*
X34001481Y-56914129D01*
X33999080Y-56914287D01*
X33996716Y-56914757D01*
X33996710Y-56914758D01*
X33705681Y-56972648D01*
X33705678Y-56972648D01*
X33703309Y-56973120D01*
X33701030Y-56973893D01*
X33701021Y-56973896D01*
X33420038Y-57069277D01*
X33420029Y-57069280D01*
X33417748Y-57070055D01*
X33415584Y-57071121D01*
X33415577Y-57071125D01*
X33149453Y-57202362D01*
X33149436Y-57202371D01*
X33147282Y-57203434D01*
X33145275Y-57204774D01*
X33145268Y-57204779D01*
X32898547Y-57369632D01*
X32898533Y-57369642D01*
X32896539Y-57370975D01*
X32894735Y-57372556D01*
X32894722Y-57372567D01*
X32671631Y-57568214D01*
X32671623Y-57568221D01*
X32669811Y-57569811D01*
X32668221Y-57571623D01*
X32668214Y-57571631D01*
X32472567Y-57794722D01*
X32472556Y-57794735D01*
X32470975Y-57796539D01*
X32469642Y-57798533D01*
X32469632Y-57798547D01*
X32304779Y-58045268D01*
X32304774Y-58045275D01*
X32303434Y-58047282D01*
X32302371Y-58049436D01*
X32302362Y-58049453D01*
X32171125Y-58315577D01*
X32171121Y-58315584D01*
X32170055Y-58317748D01*
X32169280Y-58320029D01*
X32169277Y-58320038D01*
X32073896Y-58601021D01*
X32073893Y-58601030D01*
X32073120Y-58603309D01*
X32072648Y-58605678D01*
X32072648Y-58605681D01*
X32026073Y-58839830D01*
X32014287Y-58899080D01*
X32014129Y-58901481D01*
X32014129Y-58901486D01*
X32009060Y-58978826D01*
X31994564Y-59200000D01*
X28480500Y-59200000D01*
X28480500Y-57800000D01*
X29519819Y-57800000D01*
X29538425Y-57917483D01*
X29592425Y-58023463D01*
X29676536Y-58107574D01*
X29782516Y-58161574D01*
X29810778Y-58166049D01*
X29900000Y-58180181D01*
X30001419Y-58164117D01*
X30017483Y-58161574D01*
X30123463Y-58107574D01*
X30123462Y-58107574D01*
X30123465Y-58107573D01*
X30207573Y-58023465D01*
X30209520Y-58019643D01*
X30261574Y-57917483D01*
X30268892Y-57871277D01*
X30280181Y-57800000D01*
X30261574Y-57682518D01*
X30261574Y-57682516D01*
X30207574Y-57576536D01*
X30123463Y-57492425D01*
X30017483Y-57438425D01*
X29900000Y-57419819D01*
X29782516Y-57438425D01*
X29676536Y-57492425D01*
X29592425Y-57576536D01*
X29538425Y-57682516D01*
X29519819Y-57800000D01*
X28480500Y-57800000D01*
X28480500Y-56847569D01*
X28497812Y-56800006D01*
X28541649Y-56774696D01*
X28591499Y-56783486D01*
X28620433Y-56813976D01*
X28675589Y-56922225D01*
X28759700Y-57006336D01*
X28865680Y-57060336D01*
X28897806Y-57065423D01*
X28983164Y-57078943D01*
X29086515Y-57062573D01*
X29100647Y-57060336D01*
X29206626Y-57006337D01*
X29206626Y-57006336D01*
X29206629Y-57006335D01*
X29243089Y-56969874D01*
X29288962Y-56948483D01*
X29337856Y-56961583D01*
X29347739Y-56969875D01*
X29359065Y-56981201D01*
X29465045Y-57035201D01*
X29497171Y-57040288D01*
X29582529Y-57053808D01*
X29685880Y-57037438D01*
X29700012Y-57035201D01*
X29805992Y-56981201D01*
X29805991Y-56981201D01*
X29805994Y-56981200D01*
X29890102Y-56897092D01*
X29902107Y-56873531D01*
X29944103Y-56791110D01*
X29946340Y-56776978D01*
X29962710Y-56673627D01*
X29944103Y-56556145D01*
X29942270Y-56544569D01*
X29943225Y-56544417D01*
X29938673Y-56507357D01*
X29966241Y-56464903D01*
X30010777Y-56450001D01*
X31864899Y-56450001D01*
X31868772Y-56450102D01*
X31908824Y-56452201D01*
X31931572Y-56443468D01*
X31942690Y-56440174D01*
X31966528Y-56435108D01*
X31973404Y-56430111D01*
X31990384Y-56420893D01*
X31990381Y-56420893D01*
X31998320Y-56417847D01*
X32015554Y-56400612D01*
X32024376Y-56393077D01*
X32044083Y-56378761D01*
X32048332Y-56371399D01*
X32060089Y-56356076D01*
X33356655Y-55059511D01*
X34073845Y-55059511D01*
X34092451Y-55176995D01*
X34146451Y-55282975D01*
X34230562Y-55367086D01*
X34336542Y-55421086D01*
X34365733Y-55425709D01*
X34454026Y-55439693D01*
X34469682Y-55437213D01*
X34519371Y-55446872D01*
X34533584Y-55457976D01*
X37589007Y-58513398D01*
X37591673Y-58516207D01*
X37618508Y-58546010D01*
X37640768Y-58555920D01*
X37650959Y-58561453D01*
X37671397Y-58574726D01*
X37679794Y-58576055D01*
X37698313Y-58581541D01*
X37706083Y-58585001D01*
X37730442Y-58585001D01*
X37742019Y-58585912D01*
X37750151Y-58587200D01*
X37766080Y-58589723D01*
X37766080Y-58589722D01*
X37766081Y-58589723D01*
X37774293Y-58587523D01*
X37793446Y-58585001D01*
X50556196Y-58585001D01*
X50560069Y-58585102D01*
X50600121Y-58587201D01*
X50622869Y-58578468D01*
X50633987Y-58575174D01*
X50657825Y-58570108D01*
X50664701Y-58565111D01*
X50681681Y-58555893D01*
X50681678Y-58555893D01*
X50689617Y-58552847D01*
X50706850Y-58535613D01*
X50715673Y-58528078D01*
X50735380Y-58513761D01*
X50739629Y-58506399D01*
X50751386Y-58491076D01*
X50935288Y-58307174D01*
X50981166Y-58285782D01*
X50987615Y-58285500D01*
X52281862Y-58285500D01*
X52285735Y-58285601D01*
X52325787Y-58287700D01*
X52348535Y-58278967D01*
X52359653Y-58275673D01*
X52383491Y-58270607D01*
X52390367Y-58265610D01*
X52407344Y-58256393D01*
X52415283Y-58253346D01*
X52432514Y-58236112D01*
X52441337Y-58228577D01*
X52461046Y-58214260D01*
X52465298Y-58206894D01*
X52477052Y-58191575D01*
X53621256Y-57047370D01*
X53667131Y-57025979D01*
X53685150Y-57026607D01*
X53700815Y-57029089D01*
X53799691Y-57013428D01*
X53818298Y-57010482D01*
X53924278Y-56956482D01*
X53924277Y-56956482D01*
X53924280Y-56956481D01*
X54008388Y-56872373D01*
X54045261Y-56800006D01*
X54062389Y-56766391D01*
X54068395Y-56728466D01*
X54080996Y-56648908D01*
X54062389Y-56531426D01*
X54062389Y-56531424D01*
X54008389Y-56425444D01*
X53979149Y-56396204D01*
X53957757Y-56350328D01*
X53970858Y-56301433D01*
X53979146Y-56291555D01*
X53997737Y-56272965D01*
X54051738Y-56166982D01*
X54070345Y-56049500D01*
X54051738Y-55932018D01*
X54049905Y-55920442D01*
X54050717Y-55920313D01*
X54046119Y-55882852D01*
X54073689Y-55840400D01*
X54118222Y-55825500D01*
X58663810Y-55825500D01*
X58711376Y-55842813D01*
X58716136Y-55847174D01*
X58776536Y-55907574D01*
X58882516Y-55961574D01*
X58910778Y-55966049D01*
X59000000Y-55980181D01*
X59101419Y-55964117D01*
X59117483Y-55961574D01*
X59223463Y-55907574D01*
X59223462Y-55907574D01*
X59223465Y-55907573D01*
X59307573Y-55823465D01*
X59313061Y-55812695D01*
X59361574Y-55717483D01*
X59368724Y-55672337D01*
X59380181Y-55600000D01*
X59365059Y-55504523D01*
X59361574Y-55482516D01*
X59307574Y-55376536D01*
X59223463Y-55292425D01*
X59117483Y-55238425D01*
X59012773Y-55221842D01*
X59000000Y-55219819D01*
X58999999Y-55219819D01*
X58882516Y-55238425D01*
X58776536Y-55292425D01*
X58716136Y-55352826D01*
X58670260Y-55374218D01*
X58663810Y-55374500D01*
X52907849Y-55374500D01*
X52903977Y-55374399D01*
X52863935Y-55372300D01*
X52841193Y-55381030D01*
X52830064Y-55384326D01*
X52806231Y-55389392D01*
X52799348Y-55394393D01*
X52782379Y-55403607D01*
X52774439Y-55406655D01*
X52757209Y-55423884D01*
X52748384Y-55431421D01*
X52728676Y-55445740D01*
X52724424Y-55453105D01*
X52712667Y-55468426D01*
X50368269Y-57812826D01*
X50322393Y-57834218D01*
X50315943Y-57834500D01*
X46135479Y-57834500D01*
X46087913Y-57817187D01*
X46062603Y-57773350D01*
X46071393Y-57723500D01*
X46088774Y-57703100D01*
X46157665Y-57647054D01*
X46240971Y-57529037D01*
X46289346Y-57392921D01*
X46299204Y-57248801D01*
X46269814Y-57107366D01*
X46269814Y-57107365D01*
X46203355Y-56979106D01*
X46126759Y-56897092D01*
X46104755Y-56873531D01*
X46104754Y-56873530D01*
X45981329Y-56798474D01*
X45842228Y-56759500D01*
X45734051Y-56759500D01*
X45731553Y-56759843D01*
X45731543Y-56759844D01*
X45626889Y-56774228D01*
X45494391Y-56831781D01*
X45382335Y-56922946D01*
X45299027Y-57040965D01*
X45250653Y-57177079D01*
X45240795Y-57321197D01*
X45270185Y-57462634D01*
X45336644Y-57590893D01*
X45435245Y-57696469D01*
X45436567Y-57697273D01*
X45440008Y-57701569D01*
X45442187Y-57703902D01*
X45442009Y-57704067D01*
X45468213Y-57736780D01*
X45467061Y-57787386D01*
X45433650Y-57825411D01*
X45398118Y-57834500D01*
X40355479Y-57834500D01*
X40307913Y-57817187D01*
X40282603Y-57773350D01*
X40291393Y-57723500D01*
X40308774Y-57703100D01*
X40377665Y-57647054D01*
X40460971Y-57529037D01*
X40509346Y-57392921D01*
X40519204Y-57248801D01*
X40489814Y-57107366D01*
X40489814Y-57107365D01*
X40423355Y-56979106D01*
X40346759Y-56897092D01*
X40324755Y-56873531D01*
X40324754Y-56873530D01*
X40201329Y-56798474D01*
X40062228Y-56759500D01*
X39954051Y-56759500D01*
X39951553Y-56759843D01*
X39951543Y-56759844D01*
X39846889Y-56774228D01*
X39714391Y-56831781D01*
X39602335Y-56922946D01*
X39519027Y-57040965D01*
X39470653Y-57177079D01*
X39460795Y-57321197D01*
X39490185Y-57462634D01*
X39556644Y-57590893D01*
X39655245Y-57696469D01*
X39656567Y-57697273D01*
X39660008Y-57701569D01*
X39662187Y-57703902D01*
X39662009Y-57704067D01*
X39688213Y-57736780D01*
X39687061Y-57787386D01*
X39653650Y-57825411D01*
X39618118Y-57834500D01*
X38050699Y-57834500D01*
X38003133Y-57817187D01*
X37998373Y-57812826D01*
X37555179Y-57369632D01*
X37093132Y-56907586D01*
X37071741Y-56861711D01*
X37084842Y-56812816D01*
X37126306Y-56783782D01*
X37133878Y-56782173D01*
X37173306Y-56775928D01*
X37193635Y-56772709D01*
X37299615Y-56718709D01*
X37299614Y-56718709D01*
X37299617Y-56718708D01*
X37383725Y-56634600D01*
X37392148Y-56618069D01*
X37437726Y-56528618D01*
X37441093Y-56507357D01*
X37456333Y-56411135D01*
X37437726Y-56293653D01*
X37437726Y-56293651D01*
X37383726Y-56187671D01*
X37299615Y-56103560D01*
X37193635Y-56049560D01*
X37089632Y-56033089D01*
X37076152Y-56030954D01*
X37076151Y-56030954D01*
X37048128Y-56035392D01*
X36998439Y-56025733D01*
X36978006Y-56000500D01*
X40019196Y-56000500D01*
X40040281Y-56133626D01*
X40101472Y-56253720D01*
X40196780Y-56349028D01*
X40316874Y-56410219D01*
X40450000Y-56431304D01*
X40583126Y-56410219D01*
X40703220Y-56349028D01*
X40798528Y-56253720D01*
X40859719Y-56133626D01*
X40880804Y-56000500D01*
X40859719Y-55867374D01*
X40798528Y-55747280D01*
X40703220Y-55651972D01*
X40583126Y-55590781D01*
X40450000Y-55569696D01*
X40316874Y-55590781D01*
X40256826Y-55621376D01*
X40196779Y-55651972D01*
X40101472Y-55747279D01*
X40093194Y-55763526D01*
X40040281Y-55867374D01*
X40019196Y-56000500D01*
X36978006Y-56000500D01*
X36966584Y-55986394D01*
X36963466Y-55973887D01*
X36957313Y-55935036D01*
X36903312Y-55829053D01*
X36819204Y-55744945D01*
X36819203Y-55744944D01*
X36819202Y-55744943D01*
X36713222Y-55690943D01*
X36587628Y-55671052D01*
X36543356Y-55646512D01*
X36526115Y-55609538D01*
X36524604Y-55600000D01*
X36513786Y-55531692D01*
X36513786Y-55531690D01*
X36459786Y-55425710D01*
X36375675Y-55341599D01*
X36269695Y-55287599D01*
X36166342Y-55271230D01*
X36152212Y-55268993D01*
X36152211Y-55268993D01*
X36097189Y-55277707D01*
X36047500Y-55268048D01*
X36015645Y-55228709D01*
X36013933Y-55221842D01*
X35959189Y-55114401D01*
X35919955Y-55075167D01*
X35875079Y-55030291D01*
X35873531Y-55029502D01*
X35839012Y-54992480D01*
X35836366Y-54941931D01*
X35841197Y-54929974D01*
X35870146Y-54873159D01*
X35870145Y-54873159D01*
X35888753Y-54755677D01*
X35875155Y-54669819D01*
X35870146Y-54638193D01*
X35861793Y-54621800D01*
X45297396Y-54621800D01*
X45318481Y-54754926D01*
X45379672Y-54875020D01*
X45474980Y-54970328D01*
X45595074Y-55031519D01*
X45728200Y-55052604D01*
X45861326Y-55031519D01*
X45981420Y-54970328D01*
X46076728Y-54875020D01*
X46137919Y-54754926D01*
X46159004Y-54621800D01*
X46137919Y-54488674D01*
X46076728Y-54368580D01*
X45981420Y-54273272D01*
X45861326Y-54212081D01*
X45728200Y-54190996D01*
X45595074Y-54212081D01*
X45572736Y-54223463D01*
X45474979Y-54273272D01*
X45379672Y-54368579D01*
X45368331Y-54390837D01*
X45318481Y-54488674D01*
X45297396Y-54621800D01*
X35861793Y-54621800D01*
X35816146Y-54532213D01*
X35804536Y-54520603D01*
X35783144Y-54474727D01*
X35796245Y-54425832D01*
X35804537Y-54415951D01*
X35846591Y-54373897D01*
X35900591Y-54267916D01*
X35907631Y-54223463D01*
X35919198Y-54150433D01*
X35905066Y-54061211D01*
X35900591Y-54032949D01*
X35846591Y-53926969D01*
X35762480Y-53842858D01*
X35656500Y-53788858D01*
X35539017Y-53770252D01*
X35421533Y-53788858D01*
X35315553Y-53842858D01*
X35231442Y-53926969D01*
X35177442Y-54032949D01*
X35158836Y-54150433D01*
X35177442Y-54267916D01*
X35231442Y-54373896D01*
X35243052Y-54385506D01*
X35264444Y-54431382D01*
X35251343Y-54480277D01*
X35243052Y-54490157D01*
X35200998Y-54532211D01*
X35146997Y-54638193D01*
X35128391Y-54755676D01*
X35146997Y-54873160D01*
X35200997Y-54979140D01*
X35200999Y-54979142D01*
X35285107Y-55063250D01*
X35286646Y-55064034D01*
X35321170Y-55101053D01*
X35323822Y-55151602D01*
X35318989Y-55163565D01*
X35290039Y-55220382D01*
X35271433Y-55337864D01*
X35277235Y-55374500D01*
X35267576Y-55424189D01*
X35228237Y-55456044D01*
X35177626Y-55455159D01*
X35151820Y-55438401D01*
X34852490Y-55139071D01*
X34831098Y-55093195D01*
X34831727Y-55075167D01*
X34834207Y-55059512D01*
X34829774Y-55031519D01*
X34815600Y-54942028D01*
X34761600Y-54836048D01*
X34677489Y-54751937D01*
X34571509Y-54697937D01*
X34466161Y-54681253D01*
X34445533Y-54669819D01*
X34421103Y-54684499D01*
X34418558Y-54684948D01*
X34336542Y-54697937D01*
X34230562Y-54751937D01*
X34146451Y-54836048D01*
X34092451Y-54942028D01*
X34073845Y-55059511D01*
X33356655Y-55059511D01*
X34025329Y-54390837D01*
X34071205Y-54369445D01*
X34120100Y-54382546D01*
X34129981Y-54390837D01*
X34207230Y-54468086D01*
X34313210Y-54522086D01*
X34345359Y-54527177D01*
X34418558Y-54538771D01*
X34439185Y-54550204D01*
X34463617Y-54535524D01*
X34466133Y-54535080D01*
X34528958Y-54525129D01*
X34548177Y-54522086D01*
X34654157Y-54468086D01*
X34654156Y-54468086D01*
X34654159Y-54468085D01*
X34738267Y-54383977D01*
X34749682Y-54361574D01*
X34792268Y-54277995D01*
X34797748Y-54243391D01*
X34810875Y-54160512D01*
X34792268Y-54043030D01*
X34792268Y-54043028D01*
X34738268Y-53937048D01*
X34654159Y-53852939D01*
X34590769Y-53820640D01*
X34556249Y-53783622D01*
X34553599Y-53733072D01*
X34572038Y-53702383D01*
X35724067Y-52550353D01*
X41134483Y-52550353D01*
X41153089Y-52667836D01*
X41207089Y-52773816D01*
X41291200Y-52857927D01*
X41397180Y-52911927D01*
X41429306Y-52917014D01*
X41514664Y-52930534D01*
X41618015Y-52914164D01*
X41632147Y-52911927D01*
X41738127Y-52857927D01*
X41738126Y-52857927D01*
X41738129Y-52857926D01*
X41822237Y-52773818D01*
X41824184Y-52769996D01*
X41876238Y-52667836D01*
X41878781Y-52651772D01*
X41894845Y-52550353D01*
X41876238Y-52432871D01*
X41876238Y-52432869D01*
X41822238Y-52326889D01*
X41738127Y-52242778D01*
X41632147Y-52188778D01*
X41528794Y-52172409D01*
X41514664Y-52170172D01*
X41514663Y-52170172D01*
X41397180Y-52188778D01*
X41291200Y-52242778D01*
X41207089Y-52326889D01*
X41153089Y-52432869D01*
X41134483Y-52550353D01*
X35724067Y-52550353D01*
X35905585Y-52368835D01*
X35908356Y-52366206D01*
X35938170Y-52339363D01*
X35948082Y-52317096D01*
X35953612Y-52306912D01*
X35966359Y-52287284D01*
X35976081Y-52275279D01*
X36059234Y-52192127D01*
X36060940Y-52188779D01*
X36113235Y-52086145D01*
X36119357Y-52047489D01*
X36131842Y-51968662D01*
X36115685Y-51866648D01*
X36113235Y-51851178D01*
X36059235Y-51745198D01*
X36000768Y-51686731D01*
X35979376Y-51640855D01*
X35987160Y-51600809D01*
X35989240Y-51596725D01*
X35989242Y-51596724D01*
X36021540Y-51533334D01*
X36058560Y-51498814D01*
X36109110Y-51496165D01*
X36139800Y-51514605D01*
G37*
%TD.AperFunction*%
%TA.AperFunction,Conductor*%
G36*
X62543481Y-51242813D02*
G01*
X62568791Y-51286650D01*
X62560001Y-51336500D01*
X62529510Y-51365435D01*
X62476534Y-51392427D01*
X62392425Y-51476536D01*
X62338425Y-51582516D01*
X62319819Y-51700000D01*
X62340259Y-51829058D01*
X62339446Y-51829186D01*
X62344045Y-51866648D01*
X62316475Y-51909100D01*
X62271942Y-51924000D01*
X57606400Y-51924000D01*
X57558834Y-51906687D01*
X57533524Y-51862850D01*
X57542314Y-51813000D01*
X57554074Y-51797674D01*
X57575213Y-51776535D01*
X57598528Y-51753220D01*
X57659719Y-51633126D01*
X57680804Y-51500000D01*
X57659719Y-51366874D01*
X57642506Y-51333093D01*
X57636339Y-51282853D01*
X57663908Y-51240401D01*
X57708442Y-51225500D01*
X62495915Y-51225500D01*
X62543481Y-51242813D01*
G37*
%TD.AperFunction*%
%TA.AperFunction,Conductor*%
G36*
X67853066Y-23617813D02*
G01*
X67878376Y-23661650D01*
X67879500Y-23674500D01*
X67879500Y-48174715D01*
X67862187Y-48222281D01*
X67818350Y-48247591D01*
X67768500Y-48238801D01*
X67751398Y-48228927D01*
X67736072Y-48217167D01*
X67190506Y-47671601D01*
X67187839Y-47668791D01*
X67170919Y-47650000D01*
X67161006Y-47638990D01*
X67161005Y-47638989D01*
X67161004Y-47638988D01*
X67138752Y-47629081D01*
X67128550Y-47623543D01*
X67108117Y-47610273D01*
X67108116Y-47610272D01*
X67108115Y-47610272D01*
X67099716Y-47608942D01*
X67081199Y-47603457D01*
X67073431Y-47599999D01*
X67049072Y-47599999D01*
X67037497Y-47599088D01*
X67013434Y-47595277D01*
X67005220Y-47597478D01*
X66986069Y-47599999D01*
X64182350Y-47599999D01*
X64178478Y-47599898D01*
X64138436Y-47597799D01*
X64115694Y-47606529D01*
X64104565Y-47609825D01*
X64065350Y-47618162D01*
X64064540Y-47614356D01*
X64043754Y-47620292D01*
X63997534Y-47599651D01*
X63975396Y-47554130D01*
X63975000Y-47546497D01*
X63975000Y-46200000D01*
X65970819Y-46200000D01*
X65989425Y-46317483D01*
X66043425Y-46423463D01*
X66127536Y-46507574D01*
X66233516Y-46561574D01*
X66261778Y-46566049D01*
X66351000Y-46580181D01*
X66452552Y-46564097D01*
X66468483Y-46561574D01*
X66574463Y-46507574D01*
X66574462Y-46507574D01*
X66574465Y-46507573D01*
X66658573Y-46423465D01*
X66660520Y-46419643D01*
X66712574Y-46317483D01*
X66719810Y-46271792D01*
X66731181Y-46200000D01*
X66715343Y-46100000D01*
X66712574Y-46082516D01*
X66658574Y-45976536D01*
X66583752Y-45901714D01*
X66562360Y-45855838D01*
X66575461Y-45806943D01*
X66616925Y-45777909D01*
X66624481Y-45776303D01*
X66706421Y-45763325D01*
X66717483Y-45761574D01*
X66823463Y-45707574D01*
X66823462Y-45707574D01*
X66823465Y-45707573D01*
X66907573Y-45623465D01*
X66922393Y-45594380D01*
X66961574Y-45517483D01*
X66968861Y-45471471D01*
X66980181Y-45400000D01*
X66961574Y-45282518D01*
X66961574Y-45282516D01*
X66907574Y-45176536D01*
X66823463Y-45092425D01*
X66717483Y-45038425D01*
X66600000Y-45019819D01*
X66482516Y-45038425D01*
X66376536Y-45092425D01*
X66292425Y-45176536D01*
X66238425Y-45282516D01*
X66219819Y-45400000D01*
X66238425Y-45517483D01*
X66292425Y-45623463D01*
X66367247Y-45698285D01*
X66388639Y-45744161D01*
X66375538Y-45793056D01*
X66334074Y-45822090D01*
X66326500Y-45823699D01*
X66315701Y-45825409D01*
X66233516Y-45838425D01*
X66127536Y-45892425D01*
X66043425Y-45976536D01*
X65989425Y-46082516D01*
X65970819Y-46200000D01*
X63975000Y-46200000D01*
X63975000Y-46154034D01*
X63992313Y-46106469D01*
X63996674Y-46101709D01*
X64021018Y-46077365D01*
X64057073Y-46041310D01*
X64065383Y-46025001D01*
X64111074Y-45935328D01*
X64116669Y-45899999D01*
X64129681Y-45817845D01*
X64114733Y-45723463D01*
X64111074Y-45700361D01*
X64057074Y-45594381D01*
X63972963Y-45510270D01*
X63866983Y-45456270D01*
X63763630Y-45439901D01*
X63749500Y-45437664D01*
X63749499Y-45437664D01*
X63620442Y-45458104D01*
X63620313Y-45457291D01*
X63582852Y-45461890D01*
X63540400Y-45434320D01*
X63525500Y-45389787D01*
X63525500Y-44310820D01*
X63871317Y-44310820D01*
X63889923Y-44428303D01*
X63943923Y-44534283D01*
X64028034Y-44618394D01*
X64134014Y-44672394D01*
X64181950Y-44679986D01*
X64226223Y-44704526D01*
X64244364Y-44751783D01*
X64239952Y-44770893D01*
X64240259Y-44770942D01*
X64219819Y-44900000D01*
X64238425Y-45017483D01*
X64292425Y-45123463D01*
X64380207Y-45211245D01*
X64401599Y-45257121D01*
X64388498Y-45306016D01*
X64380207Y-45315896D01*
X64343924Y-45352179D01*
X64289923Y-45458161D01*
X64271317Y-45575645D01*
X64289923Y-45693128D01*
X64343923Y-45799108D01*
X64428034Y-45883219D01*
X64534014Y-45937219D01*
X64562276Y-45941694D01*
X64651498Y-45955826D01*
X64752917Y-45939762D01*
X64768981Y-45937219D01*
X64874961Y-45883219D01*
X64874960Y-45883219D01*
X64874963Y-45883218D01*
X64959071Y-45799110D01*
X64968716Y-45780181D01*
X65013072Y-45693128D01*
X65018398Y-45659500D01*
X65031679Y-45575645D01*
X65015180Y-45471471D01*
X65013072Y-45458161D01*
X64959072Y-45352181D01*
X64871290Y-45264399D01*
X64849898Y-45218523D01*
X64862999Y-45169628D01*
X64871291Y-45159747D01*
X64907574Y-45123464D01*
X64961574Y-45017483D01*
X64965542Y-44992427D01*
X64980181Y-44900000D01*
X64962293Y-44787055D01*
X64961574Y-44782516D01*
X64907574Y-44676536D01*
X64823463Y-44592425D01*
X64717483Y-44538425D01*
X64669546Y-44530833D01*
X64625273Y-44506292D01*
X64607133Y-44459035D01*
X64611545Y-44439927D01*
X64611238Y-44439879D01*
X64613199Y-44427498D01*
X64631679Y-44310820D01*
X64615875Y-44211034D01*
X64613072Y-44193336D01*
X64559072Y-44087356D01*
X64474961Y-44003245D01*
X64368981Y-43949245D01*
X64251498Y-43930639D01*
X64134014Y-43949245D01*
X64028034Y-44003245D01*
X63943923Y-44087356D01*
X63889923Y-44193336D01*
X63871317Y-44310820D01*
X63525500Y-44310820D01*
X63525500Y-42925602D01*
X63542813Y-42878036D01*
X63547163Y-42873287D01*
X64120441Y-42300008D01*
X64166316Y-42278617D01*
X64184335Y-42279245D01*
X64200000Y-42281727D01*
X64298875Y-42266066D01*
X64317483Y-42263120D01*
X64423463Y-42209120D01*
X64423462Y-42209120D01*
X64423465Y-42209119D01*
X64507573Y-42125011D01*
X64547197Y-42047245D01*
X64561574Y-42019029D01*
X64564727Y-41999122D01*
X64580181Y-41901546D01*
X64561574Y-41784064D01*
X64541267Y-41744209D01*
X64535099Y-41693967D01*
X64562668Y-41651515D01*
X64566769Y-41649241D01*
X64570616Y-41645393D01*
X64570620Y-41645392D01*
X64587854Y-41628157D01*
X64596676Y-41620622D01*
X64616383Y-41606306D01*
X64620632Y-41598944D01*
X64632389Y-41583621D01*
X65879475Y-40336535D01*
X65925350Y-40315144D01*
X65974245Y-40328245D01*
X66003279Y-40369709D01*
X66005800Y-40388861D01*
X66005800Y-41208520D01*
X66014533Y-41252422D01*
X66047796Y-41302204D01*
X66097578Y-41335467D01*
X66141480Y-41344200D01*
X66141481Y-41344200D01*
X67258519Y-41344200D01*
X67258520Y-41344200D01*
X67302422Y-41335467D01*
X67352204Y-41302204D01*
X67385467Y-41252422D01*
X67394200Y-41208520D01*
X67394200Y-40091480D01*
X67385467Y-40047578D01*
X67352204Y-39997796D01*
X67302422Y-39964533D01*
X67270060Y-39958095D01*
X67226787Y-39931836D01*
X67210517Y-39883903D01*
X67223597Y-39843482D01*
X67319199Y-39704980D01*
X67378979Y-39547353D01*
X67399299Y-39380000D01*
X67378979Y-39212647D01*
X67319199Y-39055020D01*
X67223433Y-38916279D01*
X67097247Y-38804488D01*
X67097246Y-38804487D01*
X67092621Y-38800390D01*
X67068498Y-38755889D01*
X67078623Y-38706293D01*
X67092621Y-38689610D01*
X67098265Y-38684610D01*
X67223433Y-38573721D01*
X67319199Y-38434980D01*
X67378979Y-38277353D01*
X67399299Y-38110000D01*
X67378979Y-37942647D01*
X67319199Y-37785020D01*
X67223433Y-37646279D01*
X67164155Y-37593764D01*
X67097247Y-37534487D01*
X66947975Y-37456144D01*
X66944360Y-37455253D01*
X66784291Y-37415800D01*
X66615709Y-37415800D01*
X66552851Y-37431293D01*
X66452024Y-37456144D01*
X66302752Y-37534487D01*
X66176567Y-37646279D01*
X66080800Y-37785021D01*
X66021020Y-37942648D01*
X66000701Y-38110000D01*
X66021021Y-38277353D01*
X66057046Y-38372346D01*
X66057726Y-38422960D01*
X66040181Y-38450912D01*
X65746100Y-38744993D01*
X65743292Y-38747658D01*
X65713490Y-38774493D01*
X65703581Y-38796748D01*
X65698043Y-38806948D01*
X65684773Y-38827381D01*
X65683443Y-38835782D01*
X65677960Y-38854296D01*
X65674500Y-38862068D01*
X65674500Y-38886426D01*
X65673589Y-38898001D01*
X65670694Y-38916279D01*
X65669778Y-38922065D01*
X65671978Y-38930276D01*
X65674499Y-38949426D01*
X65674499Y-39873048D01*
X65657186Y-39920614D01*
X65652825Y-39925374D01*
X64974226Y-40603973D01*
X64928350Y-40625365D01*
X64879455Y-40612264D01*
X64850421Y-40570800D01*
X64848440Y-40560567D01*
X64838979Y-40482648D01*
X64837083Y-40477647D01*
X64779199Y-40325020D01*
X64683433Y-40186279D01*
X64557247Y-40074488D01*
X64557246Y-40074487D01*
X64552621Y-40070390D01*
X64528498Y-40025889D01*
X64538623Y-39976293D01*
X64552621Y-39959610D01*
X64558265Y-39954610D01*
X64683433Y-39843721D01*
X64779199Y-39704980D01*
X64838979Y-39547353D01*
X64859299Y-39380000D01*
X64838979Y-39212647D01*
X64779199Y-39055020D01*
X64683433Y-38916279D01*
X64557247Y-38804488D01*
X64557246Y-38804487D01*
X64552621Y-38800390D01*
X64528498Y-38755889D01*
X64538623Y-38706293D01*
X64552621Y-38689610D01*
X64558265Y-38684610D01*
X64683433Y-38573721D01*
X64779199Y-38434980D01*
X64838979Y-38277353D01*
X64859299Y-38110000D01*
X64838979Y-37942647D01*
X64779199Y-37785020D01*
X64683433Y-37646279D01*
X64557247Y-37534488D01*
X64557246Y-37534487D01*
X64552621Y-37530390D01*
X64528498Y-37485889D01*
X64538623Y-37436293D01*
X64552621Y-37419610D01*
X64558265Y-37414610D01*
X64683433Y-37303721D01*
X64779199Y-37164980D01*
X64838979Y-37007353D01*
X64859299Y-36840000D01*
X64838979Y-36672647D01*
X64779199Y-36515020D01*
X64683433Y-36376279D01*
X64557247Y-36264488D01*
X64557246Y-36264487D01*
X64552621Y-36260390D01*
X64528498Y-36215889D01*
X64538623Y-36166293D01*
X64552621Y-36149610D01*
X64558265Y-36144610D01*
X64683433Y-36033721D01*
X64779199Y-35894980D01*
X64838979Y-35737353D01*
X64859299Y-35570000D01*
X66000701Y-35570000D01*
X66021020Y-35737351D01*
X66074391Y-35878077D01*
X66080801Y-35894980D01*
X66176567Y-36033721D01*
X66232027Y-36082854D01*
X66302752Y-36145512D01*
X66357985Y-36174500D01*
X66452025Y-36223856D01*
X66615709Y-36264200D01*
X66615710Y-36264200D01*
X66784290Y-36264200D01*
X66784291Y-36264200D01*
X66947975Y-36223856D01*
X67097247Y-36145512D01*
X67223433Y-36033721D01*
X67319199Y-35894980D01*
X67378979Y-35737353D01*
X67399299Y-35570000D01*
X67378979Y-35402647D01*
X67319199Y-35245020D01*
X67223433Y-35106279D01*
X67097247Y-34994488D01*
X67097246Y-34994487D01*
X67092621Y-34990390D01*
X67068498Y-34945889D01*
X67078623Y-34896293D01*
X67092621Y-34879610D01*
X67100168Y-34872924D01*
X67223433Y-34763721D01*
X67319199Y-34624980D01*
X67378979Y-34467353D01*
X67399299Y-34300000D01*
X67378979Y-34132647D01*
X67319199Y-33975020D01*
X67223433Y-33836279D01*
X67155996Y-33776535D01*
X67097247Y-33724487D01*
X66947975Y-33646144D01*
X66859921Y-33624441D01*
X66784291Y-33605800D01*
X66615709Y-33605800D01*
X66568313Y-33617482D01*
X66452024Y-33646144D01*
X66302752Y-33724487D01*
X66176567Y-33836279D01*
X66080800Y-33975021D01*
X66021020Y-34132648D01*
X66000701Y-34299999D01*
X66021020Y-34467351D01*
X66078891Y-34619943D01*
X66080801Y-34624980D01*
X66149070Y-34723884D01*
X66176567Y-34763721D01*
X66307378Y-34879610D01*
X66331502Y-34924111D01*
X66321376Y-34973707D01*
X66307378Y-34990390D01*
X66176567Y-35106278D01*
X66080800Y-35245021D01*
X66021020Y-35402648D01*
X66000701Y-35570000D01*
X64859299Y-35570000D01*
X64838979Y-35402647D01*
X64779199Y-35245020D01*
X64683433Y-35106279D01*
X64557247Y-34994488D01*
X64557246Y-34994487D01*
X64552621Y-34990390D01*
X64528498Y-34945889D01*
X64538623Y-34896293D01*
X64552621Y-34879610D01*
X64560168Y-34872924D01*
X64683433Y-34763721D01*
X64779199Y-34624980D01*
X64838979Y-34467353D01*
X64859299Y-34300000D01*
X64838979Y-34132647D01*
X64779199Y-33975020D01*
X64683433Y-33836279D01*
X64557247Y-33724488D01*
X64557246Y-33724487D01*
X64552621Y-33720390D01*
X64528498Y-33675889D01*
X64538623Y-33626293D01*
X64552621Y-33609610D01*
X64558265Y-33604610D01*
X64683433Y-33493721D01*
X64779199Y-33354980D01*
X64838979Y-33197353D01*
X64859299Y-33030000D01*
X64838979Y-32862647D01*
X64779199Y-32705020D01*
X64683433Y-32566279D01*
X64557247Y-32454488D01*
X64557246Y-32454487D01*
X64552621Y-32450390D01*
X64528498Y-32405889D01*
X64538623Y-32356293D01*
X64552621Y-32339610D01*
X64558265Y-32334610D01*
X64683433Y-32223721D01*
X64779199Y-32084980D01*
X64838979Y-31927353D01*
X64859299Y-31760000D01*
X64838979Y-31592647D01*
X64779199Y-31435020D01*
X64683433Y-31296279D01*
X64667898Y-31282516D01*
X64590791Y-31214205D01*
X64566667Y-31169704D01*
X64576793Y-31120108D01*
X64616429Y-31088623D01*
X64639862Y-31084815D01*
X65675257Y-31084815D01*
X65722823Y-31102128D01*
X65727583Y-31106489D01*
X66040181Y-31419087D01*
X66061573Y-31464963D01*
X66057047Y-31497651D01*
X66028859Y-31571979D01*
X66021020Y-31592650D01*
X66000701Y-31760000D01*
X66021020Y-31927351D01*
X66079867Y-32082516D01*
X66080801Y-32084980D01*
X66176567Y-32223721D01*
X66242933Y-32282516D01*
X66302752Y-32335512D01*
X66352410Y-32361574D01*
X66452025Y-32413856D01*
X66615709Y-32454200D01*
X66615710Y-32454200D01*
X66784290Y-32454200D01*
X66784291Y-32454200D01*
X66947975Y-32413856D01*
X67097247Y-32335512D01*
X67223433Y-32223721D01*
X67319199Y-32084980D01*
X67378979Y-31927353D01*
X67399299Y-31760000D01*
X67378979Y-31592647D01*
X67319199Y-31435020D01*
X67223433Y-31296279D01*
X67152146Y-31233124D01*
X67097247Y-31184487D01*
X66947975Y-31106144D01*
X66880597Y-31089537D01*
X66784291Y-31065800D01*
X66615709Y-31065800D01*
X66585057Y-31073355D01*
X66452021Y-31106144D01*
X66443197Y-31110776D01*
X66393034Y-31117551D01*
X66356483Y-31097578D01*
X65964322Y-30705417D01*
X65961655Y-30702607D01*
X65941462Y-30680181D01*
X65934822Y-30672806D01*
X65934821Y-30672805D01*
X65934820Y-30672804D01*
X65912568Y-30662897D01*
X65902366Y-30657359D01*
X65881933Y-30644089D01*
X65881932Y-30644088D01*
X65881931Y-30644088D01*
X65873532Y-30642758D01*
X65855015Y-30637273D01*
X65847247Y-30633815D01*
X65822888Y-30633815D01*
X65811313Y-30632904D01*
X65787250Y-30629093D01*
X65779036Y-30631294D01*
X65759885Y-30633815D01*
X61388316Y-30633815D01*
X61354721Y-30625749D01*
X61316362Y-30606204D01*
X61309653Y-30602331D01*
X61282616Y-30584772D01*
X61282125Y-30584695D01*
X61260113Y-30577543D01*
X61259668Y-30577316D01*
X61227473Y-30575628D01*
X61219775Y-30574819D01*
X61187936Y-30569777D01*
X61187453Y-30569907D01*
X61164438Y-30572326D01*
X61163937Y-30572299D01*
X61133835Y-30583854D01*
X61126472Y-30586246D01*
X61095338Y-30594588D01*
X61094948Y-30594905D01*
X61074911Y-30606473D01*
X61074439Y-30606654D01*
X61068951Y-30612142D01*
X61023074Y-30633534D01*
X61016627Y-30633815D01*
X60972104Y-30633815D01*
X60924538Y-30616502D01*
X60899228Y-30572665D01*
X60906170Y-30526220D01*
X60961574Y-30417483D01*
X60965542Y-30392427D01*
X60980181Y-30300000D01*
X60980181Y-30299999D01*
X66519819Y-30299999D01*
X66538425Y-30417483D01*
X66592425Y-30523463D01*
X66676536Y-30607574D01*
X66782516Y-30661574D01*
X66810778Y-30666049D01*
X66900000Y-30680181D01*
X67009129Y-30662897D01*
X67017483Y-30661574D01*
X67123463Y-30607574D01*
X67123462Y-30607574D01*
X67123465Y-30607573D01*
X67207573Y-30523465D01*
X67222865Y-30493453D01*
X67261574Y-30417483D01*
X67265542Y-30392427D01*
X67280181Y-30300000D01*
X67264343Y-30199999D01*
X67261574Y-30182516D01*
X67207574Y-30076536D01*
X67123463Y-29992425D01*
X67017483Y-29938425D01*
X66914130Y-29922056D01*
X66900000Y-29919819D01*
X66899999Y-29919819D01*
X66782516Y-29938425D01*
X66676536Y-29992425D01*
X66592425Y-30076536D01*
X66538425Y-30182516D01*
X66519819Y-30299999D01*
X60980181Y-30299999D01*
X60961574Y-30182518D01*
X60945000Y-30149990D01*
X60936392Y-30133095D01*
X60930224Y-30082853D01*
X60957793Y-30040401D01*
X61002327Y-30025500D01*
X63363810Y-30025500D01*
X63411376Y-30042813D01*
X63416136Y-30047174D01*
X63476536Y-30107574D01*
X63582516Y-30161574D01*
X63610778Y-30166049D01*
X63700000Y-30180181D01*
X63801419Y-30164117D01*
X63817483Y-30161574D01*
X63923463Y-30107574D01*
X63923462Y-30107574D01*
X63923465Y-30107573D01*
X64007573Y-30023465D01*
X64050903Y-29938425D01*
X64061574Y-29917483D01*
X64065542Y-29892427D01*
X64080181Y-29800000D01*
X64062080Y-29685713D01*
X64061574Y-29682516D01*
X64007574Y-29576536D01*
X63923463Y-29492425D01*
X63817483Y-29438425D01*
X63714130Y-29422056D01*
X63700000Y-29419819D01*
X63699999Y-29419819D01*
X63582516Y-29438425D01*
X63476536Y-29492425D01*
X63416136Y-29552826D01*
X63370260Y-29574218D01*
X63363810Y-29574500D01*
X63209273Y-29574500D01*
X63161707Y-29557187D01*
X63136397Y-29513350D01*
X63145187Y-29463500D01*
X63176544Y-29434131D01*
X63250546Y-29397637D01*
X63250544Y-29397637D01*
X63252718Y-29396566D01*
X63503461Y-29229025D01*
X63730189Y-29030189D01*
X63929025Y-28803461D01*
X64096566Y-28552718D01*
X64229945Y-28282252D01*
X64326880Y-27996691D01*
X64385713Y-27700920D01*
X64405436Y-27400000D01*
X64385713Y-27099080D01*
X64326880Y-26803309D01*
X64229945Y-26517748D01*
X64132337Y-26319819D01*
X64097637Y-26249453D01*
X64097634Y-26249448D01*
X64096566Y-26247282D01*
X64008607Y-26115642D01*
X63930367Y-25998547D01*
X63930364Y-25998543D01*
X63929025Y-25996539D01*
X63916727Y-25982516D01*
X63731785Y-25771631D01*
X63730189Y-25769811D01*
X63728368Y-25768214D01*
X63505277Y-25572567D01*
X63505271Y-25572562D01*
X63503461Y-25570975D01*
X63501458Y-25569636D01*
X63501452Y-25569632D01*
X63254731Y-25404779D01*
X63254730Y-25404778D01*
X63252718Y-25403434D01*
X63250556Y-25402368D01*
X63250546Y-25402362D01*
X62984422Y-25271125D01*
X62984420Y-25271124D01*
X62982252Y-25270055D01*
X62979965Y-25269278D01*
X62979961Y-25269277D01*
X62698978Y-25173896D01*
X62698973Y-25173894D01*
X62696691Y-25173120D01*
X62447061Y-25123465D01*
X62403289Y-25114758D01*
X62403285Y-25114757D01*
X62400920Y-25114287D01*
X62398516Y-25114129D01*
X62398513Y-25114129D01*
X62102411Y-25094722D01*
X62100000Y-25094564D01*
X62097589Y-25094722D01*
X61801486Y-25114129D01*
X61801481Y-25114129D01*
X61799080Y-25114287D01*
X61796716Y-25114757D01*
X61796710Y-25114758D01*
X61505681Y-25172648D01*
X61505678Y-25172648D01*
X61503309Y-25173120D01*
X61501030Y-25173893D01*
X61501021Y-25173896D01*
X61220038Y-25269277D01*
X61220029Y-25269280D01*
X61217748Y-25270055D01*
X61215584Y-25271121D01*
X61215577Y-25271125D01*
X60949453Y-25402362D01*
X60949436Y-25402371D01*
X60947282Y-25403434D01*
X60945275Y-25404774D01*
X60945268Y-25404779D01*
X60698547Y-25569632D01*
X60698533Y-25569642D01*
X60696539Y-25570975D01*
X60694735Y-25572556D01*
X60694722Y-25572567D01*
X60471631Y-25768214D01*
X60471623Y-25768221D01*
X60469811Y-25769811D01*
X60468221Y-25771623D01*
X60468214Y-25771631D01*
X60272567Y-25994722D01*
X60272556Y-25994735D01*
X60270975Y-25996539D01*
X60269642Y-25998533D01*
X60269632Y-25998547D01*
X60104779Y-26245268D01*
X60104774Y-26245275D01*
X60103434Y-26247282D01*
X60102371Y-26249436D01*
X60102362Y-26249453D01*
X59971125Y-26515577D01*
X59971121Y-26515584D01*
X59970055Y-26517748D01*
X59969280Y-26520029D01*
X59969277Y-26520038D01*
X59873896Y-26801021D01*
X59873893Y-26801030D01*
X59873120Y-26803309D01*
X59872648Y-26805678D01*
X59872648Y-26805681D01*
X59827011Y-27035115D01*
X59814287Y-27099080D01*
X59814129Y-27101481D01*
X59814129Y-27101486D01*
X59799819Y-27319819D01*
X59794564Y-27400000D01*
X59794722Y-27402410D01*
X59811165Y-27653297D01*
X59814287Y-27700920D01*
X59814757Y-27703285D01*
X59814758Y-27703289D01*
X59838663Y-27823465D01*
X59873120Y-27996691D01*
X59873894Y-27998973D01*
X59873896Y-27998978D01*
X59969277Y-28279961D01*
X59970055Y-28282252D01*
X59971124Y-28284420D01*
X59971125Y-28284422D01*
X60102362Y-28550546D01*
X60102368Y-28550556D01*
X60103434Y-28552718D01*
X60104778Y-28554730D01*
X60104779Y-28554731D01*
X60269632Y-28801452D01*
X60269636Y-28801458D01*
X60270975Y-28803461D01*
X60272562Y-28805271D01*
X60272567Y-28805277D01*
X60427568Y-28982020D01*
X60469811Y-29030189D01*
X60471631Y-29031785D01*
X60694722Y-29227432D01*
X60694726Y-29227435D01*
X60696539Y-29229025D01*
X60947282Y-29396566D01*
X60949448Y-29397634D01*
X60949453Y-29397637D01*
X61023456Y-29434131D01*
X61058460Y-29470697D01*
X61061771Y-29521207D01*
X61031839Y-29562029D01*
X60990727Y-29574500D01*
X56908568Y-29574500D01*
X56904695Y-29574399D01*
X56900762Y-29574192D01*
X56864643Y-29572300D01*
X56864642Y-29572300D01*
X56864641Y-29572300D01*
X56841892Y-29581032D01*
X56830763Y-29584328D01*
X56806938Y-29589392D01*
X56800060Y-29594390D01*
X56783090Y-29603604D01*
X56775146Y-29606653D01*
X56757913Y-29623886D01*
X56749087Y-29631424D01*
X56729383Y-29645740D01*
X56725132Y-29653103D01*
X56713375Y-29668424D01*
X56490639Y-29891161D01*
X56444763Y-29912553D01*
X56395868Y-29899452D01*
X56372378Y-29872430D01*
X56340081Y-29809043D01*
X56279681Y-29748643D01*
X56258290Y-29702768D01*
X56258008Y-29696318D01*
X56258008Y-28352826D01*
X56258008Y-26943165D01*
X56275320Y-26895602D01*
X56319157Y-26870292D01*
X56365603Y-26877234D01*
X56432017Y-26911074D01*
X56454125Y-26914575D01*
X56549500Y-26929681D01*
X56568979Y-26926595D01*
X56618666Y-26936253D01*
X56650522Y-26975591D01*
X56653643Y-26988108D01*
X56661087Y-27035115D01*
X56715087Y-27141095D01*
X56799198Y-27225206D01*
X56905178Y-27279206D01*
X56937304Y-27284293D01*
X57022662Y-27297813D01*
X57126013Y-27281443D01*
X57140145Y-27279206D01*
X57246125Y-27225206D01*
X57246124Y-27225206D01*
X57246127Y-27225205D01*
X57330235Y-27141097D01*
X57344692Y-27112722D01*
X57381712Y-27078200D01*
X57432261Y-27075550D01*
X57462953Y-27093991D01*
X57476536Y-27107574D01*
X57582516Y-27161574D01*
X57610778Y-27166049D01*
X57700000Y-27180181D01*
X57801419Y-27164117D01*
X57817483Y-27161574D01*
X57923463Y-27107574D01*
X57923462Y-27107574D01*
X57923465Y-27107573D01*
X58007573Y-27023465D01*
X58031966Y-26975591D01*
X58061574Y-26917483D01*
X58067482Y-26880180D01*
X58080181Y-26800000D01*
X58062525Y-26688524D01*
X58061574Y-26682517D01*
X58007819Y-26577018D01*
X58001650Y-26526776D01*
X58029218Y-26484323D01*
X58062177Y-26470333D01*
X58093104Y-26465435D01*
X58117483Y-26461574D01*
X58223463Y-26407574D01*
X58223462Y-26407574D01*
X58223465Y-26407573D01*
X58307573Y-26323465D01*
X58320966Y-26297179D01*
X58361574Y-26217483D01*
X58365542Y-26192427D01*
X58380181Y-26100000D01*
X58361574Y-25982518D01*
X58361574Y-25982516D01*
X58307574Y-25876536D01*
X58223463Y-25792425D01*
X58117483Y-25738425D01*
X58000000Y-25719819D01*
X57882516Y-25738425D01*
X57776536Y-25792425D01*
X57716136Y-25852826D01*
X57670260Y-25874218D01*
X57663810Y-25874500D01*
X56207842Y-25874500D01*
X56203969Y-25874399D01*
X56196710Y-25874018D01*
X56163936Y-25872301D01*
X56163935Y-25872301D01*
X56141193Y-25881030D01*
X56130064Y-25884326D01*
X56106231Y-25889392D01*
X56099348Y-25894393D01*
X56082379Y-25903607D01*
X56074439Y-25906655D01*
X56057209Y-25923884D01*
X56048384Y-25931421D01*
X56028676Y-25945740D01*
X56024424Y-25953105D01*
X56012667Y-25968426D01*
X55878608Y-26102485D01*
X55875800Y-26105150D01*
X55845998Y-26131985D01*
X55836089Y-26154240D01*
X55830551Y-26164440D01*
X55817281Y-26184874D01*
X55815950Y-26193278D01*
X55810468Y-26211786D01*
X55807008Y-26219559D01*
X55807007Y-26243924D01*
X55806096Y-26255494D01*
X55802285Y-26279556D01*
X55804486Y-26287769D01*
X55807007Y-26306919D01*
X55807007Y-29696317D01*
X55789694Y-29743883D01*
X55785334Y-29748642D01*
X55724933Y-29809044D01*
X55670933Y-29915024D01*
X55652327Y-30032507D01*
X55670933Y-30149991D01*
X55724933Y-30255971D01*
X55724934Y-30255972D01*
X55724935Y-30255973D01*
X55809043Y-30340081D01*
X55872430Y-30372378D01*
X55906952Y-30409399D01*
X55909602Y-30459948D01*
X55891161Y-30490639D01*
X55603280Y-30778520D01*
X55557404Y-30799912D01*
X55508509Y-30786811D01*
X55479475Y-30745347D01*
X55477865Y-30714621D01*
X55480181Y-30700000D01*
X55467112Y-30617482D01*
X55461574Y-30582516D01*
X55407574Y-30476536D01*
X55323463Y-30392425D01*
X55217483Y-30338425D01*
X55114130Y-30322056D01*
X55100000Y-30319819D01*
X55099999Y-30319819D01*
X55058229Y-30326434D01*
X55008540Y-30316775D01*
X54976685Y-30277436D01*
X54973565Y-30241771D01*
X54980181Y-30200000D01*
X54962866Y-30090673D01*
X54961574Y-30082516D01*
X54907574Y-29976536D01*
X54823463Y-29892425D01*
X54717483Y-29838425D01*
X54600000Y-29819819D01*
X54482516Y-29838425D01*
X54376536Y-29892425D01*
X54292425Y-29976536D01*
X54238425Y-30082516D01*
X54219819Y-30199999D01*
X54238425Y-30317483D01*
X54292425Y-30423463D01*
X54376536Y-30507574D01*
X54482516Y-30561574D01*
X54514642Y-30566661D01*
X54600000Y-30580181D01*
X54641770Y-30573565D01*
X54691458Y-30583224D01*
X54723313Y-30622562D01*
X54726434Y-30658229D01*
X54719818Y-30700000D01*
X54726270Y-30740737D01*
X54716610Y-30790425D01*
X54677271Y-30822280D01*
X54664757Y-30825400D01*
X54582516Y-30838425D01*
X54476536Y-30892425D01*
X54392425Y-30976536D01*
X54338425Y-31082516D01*
X54319819Y-31199999D01*
X54338425Y-31317483D01*
X54392425Y-31423463D01*
X54417136Y-31448174D01*
X54438528Y-31494050D01*
X54425427Y-31542945D01*
X54383963Y-31571979D01*
X54364810Y-31574500D01*
X52235190Y-31574500D01*
X52187624Y-31557187D01*
X52162314Y-31513350D01*
X52171104Y-31463500D01*
X52182864Y-31448174D01*
X52182864Y-31448173D01*
X52207573Y-31423465D01*
X52209804Y-31419087D01*
X52261574Y-31317483D01*
X52266592Y-31285800D01*
X52280181Y-31200000D01*
X52263635Y-31095530D01*
X52261574Y-31082516D01*
X52207574Y-30976536D01*
X52123463Y-30892425D01*
X52017483Y-30838425D01*
X51962177Y-30829666D01*
X51917904Y-30805125D01*
X51899764Y-30757868D01*
X51907818Y-30722983D01*
X51961574Y-30617482D01*
X51980181Y-30500000D01*
X51963406Y-30394082D01*
X51961574Y-30382516D01*
X51907574Y-30276536D01*
X51823463Y-30192425D01*
X51717483Y-30138425D01*
X51600000Y-30119819D01*
X51482516Y-30138425D01*
X51469549Y-30145033D01*
X51419307Y-30151201D01*
X51376855Y-30123631D01*
X51362866Y-30090673D01*
X51361574Y-30082516D01*
X51307574Y-29976536D01*
X51223463Y-29892425D01*
X51117483Y-29838425D01*
X51000000Y-29819819D01*
X50882516Y-29838425D01*
X50776536Y-29892425D01*
X50692425Y-29976536D01*
X50638425Y-30082516D01*
X50619819Y-30200000D01*
X50638425Y-30317483D01*
X50692425Y-30423463D01*
X50776536Y-30507574D01*
X50882516Y-30561574D01*
X50914642Y-30566661D01*
X51000000Y-30580181D01*
X51117482Y-30561574D01*
X51130451Y-30554965D01*
X51180690Y-30548796D01*
X51223143Y-30576365D01*
X51237133Y-30609320D01*
X51238426Y-30617482D01*
X51259188Y-30658229D01*
X51292427Y-30723465D01*
X51376536Y-30807574D01*
X51482516Y-30861574D01*
X51537821Y-30870333D01*
X51582094Y-30894873D01*
X51600235Y-30942130D01*
X51592181Y-30977017D01*
X51538425Y-31082518D01*
X51519819Y-31200000D01*
X51538425Y-31317483D01*
X51592425Y-31423463D01*
X51617136Y-31448174D01*
X51638528Y-31494050D01*
X51625427Y-31542945D01*
X51583963Y-31571979D01*
X51564810Y-31574500D01*
X51224057Y-31574500D01*
X51176491Y-31557187D01*
X51171731Y-31552826D01*
X48065007Y-28446102D01*
X48062340Y-28443292D01*
X48035505Y-28413489D01*
X48013253Y-28403582D01*
X48003051Y-28398044D01*
X47982618Y-28384774D01*
X47982617Y-28384773D01*
X47982616Y-28384773D01*
X47974217Y-28383443D01*
X47955700Y-28377958D01*
X47947932Y-28374500D01*
X47923573Y-28374500D01*
X47911998Y-28373589D01*
X47887935Y-28369778D01*
X47879721Y-28371979D01*
X47860570Y-28374500D01*
X39224057Y-28374500D01*
X39176491Y-28357187D01*
X39171731Y-28352826D01*
X38698464Y-27879559D01*
X38677072Y-27833683D01*
X38677701Y-27815655D01*
X38680181Y-27799998D01*
X38664343Y-27700000D01*
X43919819Y-27700000D01*
X43938425Y-27817483D01*
X43992425Y-27923463D01*
X44076536Y-28007574D01*
X44182516Y-28061574D01*
X44210778Y-28066049D01*
X44300000Y-28080181D01*
X44401419Y-28064117D01*
X44417483Y-28061574D01*
X44523463Y-28007574D01*
X44523462Y-28007574D01*
X44523465Y-28007573D01*
X44607573Y-27923465D01*
X44629944Y-27879559D01*
X44661574Y-27817483D01*
X44664343Y-27799998D01*
X44680181Y-27700000D01*
X44664343Y-27600000D01*
X50719819Y-27600000D01*
X50738425Y-27717483D01*
X50792425Y-27823463D01*
X50876536Y-27907574D01*
X50982516Y-27961574D01*
X51010778Y-27966049D01*
X51100000Y-27980181D01*
X51201419Y-27964117D01*
X51217483Y-27961574D01*
X51323463Y-27907574D01*
X51323462Y-27907574D01*
X51323465Y-27907573D01*
X51407573Y-27823465D01*
X51419529Y-27800000D01*
X53719819Y-27800000D01*
X53738425Y-27917483D01*
X53792425Y-28023463D01*
X53876536Y-28107574D01*
X53982516Y-28161574D01*
X54010778Y-28166049D01*
X54100000Y-28180181D01*
X54201419Y-28164117D01*
X54217483Y-28161574D01*
X54323463Y-28107574D01*
X54323462Y-28107574D01*
X54323465Y-28107573D01*
X54407573Y-28023465D01*
X54458527Y-27923463D01*
X54461574Y-27917483D01*
X54474846Y-27833683D01*
X54480181Y-27800000D01*
X54461574Y-27682518D01*
X54461574Y-27682516D01*
X54407574Y-27576536D01*
X54323463Y-27492425D01*
X54217483Y-27438425D01*
X54114130Y-27422056D01*
X54100000Y-27419819D01*
X54099999Y-27419819D01*
X53982516Y-27438425D01*
X53876536Y-27492425D01*
X53792425Y-27576536D01*
X53738425Y-27682516D01*
X53719819Y-27800000D01*
X51419529Y-27800000D01*
X51419530Y-27799998D01*
X51461574Y-27717483D01*
X51464578Y-27698513D01*
X51480181Y-27600000D01*
X51466049Y-27510778D01*
X51461574Y-27482516D01*
X51407574Y-27376536D01*
X51323463Y-27292425D01*
X51217483Y-27238425D01*
X51114130Y-27222056D01*
X51100000Y-27219819D01*
X51099999Y-27219819D01*
X50982516Y-27238425D01*
X50876536Y-27292425D01*
X50792425Y-27376536D01*
X50738425Y-27482516D01*
X50719819Y-27600000D01*
X44664343Y-27600000D01*
X44661574Y-27582518D01*
X44661574Y-27582516D01*
X44607574Y-27476536D01*
X44523463Y-27392425D01*
X44417483Y-27338425D01*
X44314130Y-27322056D01*
X44300000Y-27319819D01*
X44299999Y-27319819D01*
X44182516Y-27338425D01*
X44076536Y-27392425D01*
X43992425Y-27476536D01*
X43938425Y-27582516D01*
X43919819Y-27700000D01*
X38664343Y-27700000D01*
X38661574Y-27682517D01*
X38607819Y-27577018D01*
X38601650Y-27526776D01*
X38629218Y-27484323D01*
X38662177Y-27470333D01*
X38688328Y-27466191D01*
X38717483Y-27461574D01*
X38823463Y-27407574D01*
X38823462Y-27407574D01*
X38823465Y-27407573D01*
X38907573Y-27323465D01*
X38950903Y-27238425D01*
X38961574Y-27217483D01*
X38967482Y-27180180D01*
X38980181Y-27100000D01*
X38965542Y-27007573D01*
X38961574Y-26982516D01*
X38907574Y-26876536D01*
X38823463Y-26792425D01*
X38717483Y-26738425D01*
X38600000Y-26719819D01*
X38482516Y-26738425D01*
X38376536Y-26792425D01*
X38292425Y-26876536D01*
X38238425Y-26982516D01*
X38219819Y-27100000D01*
X38238425Y-27217483D01*
X38292180Y-27322982D01*
X38298349Y-27373223D01*
X38270780Y-27415676D01*
X38237822Y-27429666D01*
X38182516Y-27438425D01*
X38076536Y-27492425D01*
X37992425Y-27576536D01*
X37938425Y-27682516D01*
X37919819Y-27800000D01*
X37938425Y-27917483D01*
X37992425Y-28023463D01*
X38076536Y-28107574D01*
X38182516Y-28161574D01*
X38214642Y-28166661D01*
X38300000Y-28180181D01*
X38315656Y-28177701D01*
X38365345Y-28187360D01*
X38379558Y-28198464D01*
X38935001Y-28753907D01*
X38937667Y-28756716D01*
X38964493Y-28786509D01*
X38973548Y-28790540D01*
X38986746Y-28796417D01*
X38996949Y-28801956D01*
X39017382Y-28815226D01*
X39025781Y-28816556D01*
X39044300Y-28822042D01*
X39052067Y-28825500D01*
X39052068Y-28825500D01*
X39076427Y-28825500D01*
X39088002Y-28826411D01*
X39091544Y-28826971D01*
X39112065Y-28830222D01*
X39120279Y-28828020D01*
X39139430Y-28825500D01*
X47775942Y-28825500D01*
X47823508Y-28842813D01*
X47828268Y-28847174D01*
X50934992Y-31953897D01*
X50937658Y-31956706D01*
X50964493Y-31986509D01*
X50986753Y-31996419D01*
X50996944Y-32001952D01*
X51017382Y-32015225D01*
X51025779Y-32016554D01*
X51044298Y-32022040D01*
X51052068Y-32025500D01*
X51076427Y-32025500D01*
X51088004Y-32026411D01*
X51096355Y-32027733D01*
X51112065Y-32030222D01*
X51112065Y-32030221D01*
X51112066Y-32030222D01*
X51120278Y-32028022D01*
X51139431Y-32025500D01*
X54601208Y-32025500D01*
X54648774Y-32042813D01*
X54674084Y-32086650D01*
X54665294Y-32136500D01*
X54653534Y-32151826D01*
X52152534Y-34652826D01*
X52106658Y-34674218D01*
X52100208Y-34674500D01*
X47107861Y-34674500D01*
X47103988Y-34674399D01*
X47063933Y-34672299D01*
X47041188Y-34681030D01*
X47030060Y-34684326D01*
X47006233Y-34689391D01*
X46999355Y-34694389D01*
X46982384Y-34703604D01*
X46974441Y-34706653D01*
X46957209Y-34723884D01*
X46948384Y-34731421D01*
X46928676Y-34745740D01*
X46924424Y-34753105D01*
X46912667Y-34768426D01*
X45039476Y-36641618D01*
X45028271Y-36652824D01*
X44982396Y-36674218D01*
X44975943Y-36674500D01*
X44036190Y-36674500D01*
X43988624Y-36657187D01*
X43983864Y-36652826D01*
X43923463Y-36592425D01*
X43817483Y-36538425D01*
X43700000Y-36519819D01*
X43582516Y-36538425D01*
X43476536Y-36592425D01*
X43392425Y-36676536D01*
X43338425Y-36782516D01*
X43319819Y-36900000D01*
X43338425Y-37017483D01*
X43392425Y-37123463D01*
X43392426Y-37123465D01*
X43392427Y-37123465D01*
X43476535Y-37207573D01*
X43529510Y-37234565D01*
X43564032Y-37271586D01*
X43566682Y-37322135D01*
X43536218Y-37362562D01*
X43495915Y-37374500D01*
X35524057Y-37374500D01*
X35476491Y-37357187D01*
X35471731Y-37352826D01*
X34843100Y-36724195D01*
X34821708Y-36678319D01*
X34834809Y-36629424D01*
X34876273Y-36600390D01*
X34883836Y-36598783D01*
X34986545Y-36582516D01*
X34998422Y-36580635D01*
X35104402Y-36526635D01*
X35104401Y-36526635D01*
X35104404Y-36526634D01*
X35188512Y-36442526D01*
X35204631Y-36410890D01*
X35242513Y-36336544D01*
X35248845Y-36296562D01*
X35261120Y-36219061D01*
X35244265Y-36112638D01*
X35242513Y-36101577D01*
X35241709Y-36100000D01*
X39019819Y-36100000D01*
X39038425Y-36217483D01*
X39092425Y-36323463D01*
X39176536Y-36407574D01*
X39282516Y-36461574D01*
X39310778Y-36466049D01*
X39400000Y-36480181D01*
X39501419Y-36464117D01*
X39517483Y-36461574D01*
X39623462Y-36407575D01*
X39623462Y-36407574D01*
X39623465Y-36407573D01*
X39700776Y-36330261D01*
X39746651Y-36308870D01*
X39795545Y-36321971D01*
X39819035Y-36348992D01*
X39843425Y-36396860D01*
X39927536Y-36480971D01*
X40033516Y-36534971D01*
X40055326Y-36538425D01*
X40151000Y-36553578D01*
X40252419Y-36537514D01*
X40268483Y-36534971D01*
X40374463Y-36480971D01*
X40374462Y-36480971D01*
X40374465Y-36480970D01*
X40458573Y-36396862D01*
X40471609Y-36371278D01*
X40512574Y-36290880D01*
X40517403Y-36260388D01*
X40531181Y-36173397D01*
X40512574Y-36055915D01*
X40498718Y-36028721D01*
X40467553Y-35967556D01*
X40461385Y-35917315D01*
X40488954Y-35874862D01*
X40507160Y-35867134D01*
X40507039Y-35866896D01*
X40623463Y-35807574D01*
X40623462Y-35807574D01*
X40623465Y-35807573D01*
X40707573Y-35723465D01*
X40741689Y-35656509D01*
X40761574Y-35617483D01*
X40765542Y-35592427D01*
X40780181Y-35500000D01*
X40763945Y-35397487D01*
X40761574Y-35382516D01*
X40707574Y-35276536D01*
X40633364Y-35202326D01*
X40611972Y-35156450D01*
X40625073Y-35107555D01*
X40633364Y-35097674D01*
X40663737Y-35067301D01*
X40707573Y-35023465D01*
X40747100Y-34945889D01*
X40761574Y-34917483D01*
X40777932Y-34814197D01*
X40780181Y-34800000D01*
X40762663Y-34689391D01*
X40761574Y-34682516D01*
X40707574Y-34576536D01*
X40623463Y-34492425D01*
X40517483Y-34438425D01*
X40400000Y-34419819D01*
X40282516Y-34438425D01*
X40176536Y-34492425D01*
X40092425Y-34576536D01*
X40038425Y-34682516D01*
X40019819Y-34800000D01*
X40038425Y-34917483D01*
X40092425Y-35023463D01*
X40166636Y-35097674D01*
X40188028Y-35143550D01*
X40174927Y-35192445D01*
X40166636Y-35202326D01*
X40092425Y-35276536D01*
X40038425Y-35382516D01*
X40019819Y-35500000D01*
X40038425Y-35617481D01*
X40083446Y-35705840D01*
X40089614Y-35756082D01*
X40062045Y-35798534D01*
X40043839Y-35806262D01*
X40043961Y-35806501D01*
X39927536Y-35865822D01*
X39850224Y-35943134D01*
X39804347Y-35964526D01*
X39755453Y-35951425D01*
X39731964Y-35924403D01*
X39707575Y-35876537D01*
X39623463Y-35792425D01*
X39517483Y-35738425D01*
X39400000Y-35719819D01*
X39282516Y-35738425D01*
X39176536Y-35792425D01*
X39092425Y-35876536D01*
X39038425Y-35982516D01*
X39019819Y-36100000D01*
X35241709Y-36100000D01*
X35188514Y-35995598D01*
X35151585Y-35958669D01*
X35114301Y-35921385D01*
X35092910Y-35875511D01*
X35103839Y-35834717D01*
X35102252Y-35833908D01*
X35161574Y-35717482D01*
X35168059Y-35676535D01*
X35180181Y-35600000D01*
X35162281Y-35486979D01*
X35161574Y-35482516D01*
X35107574Y-35376536D01*
X35023463Y-35292425D01*
X34917483Y-35238425D01*
X34892693Y-35234499D01*
X37927379Y-35234499D01*
X37929616Y-35248629D01*
X37945985Y-35351982D01*
X37999985Y-35457962D01*
X38084096Y-35542073D01*
X38190076Y-35596073D01*
X38222202Y-35601160D01*
X38307560Y-35614680D01*
X38410911Y-35598310D01*
X38425043Y-35596073D01*
X38531023Y-35542073D01*
X38531022Y-35542073D01*
X38531025Y-35542072D01*
X38615133Y-35457964D01*
X38643318Y-35402648D01*
X38669134Y-35351982D01*
X38678566Y-35292427D01*
X38687741Y-35234499D01*
X38669134Y-35117017D01*
X38669134Y-35117015D01*
X38615134Y-35011035D01*
X38531023Y-34926924D01*
X38425043Y-34872924D01*
X38307560Y-34854318D01*
X38190076Y-34872924D01*
X38084096Y-34926924D01*
X37999985Y-35011035D01*
X37945985Y-35117015D01*
X37929704Y-35219819D01*
X37927379Y-35234499D01*
X34892693Y-35234499D01*
X34800000Y-35219819D01*
X34682516Y-35238425D01*
X34576536Y-35292425D01*
X34492425Y-35376536D01*
X34438425Y-35482516D01*
X34419819Y-35600000D01*
X34438425Y-35717483D01*
X34492425Y-35823463D01*
X34566636Y-35897674D01*
X34588028Y-35943550D01*
X34577097Y-35984343D01*
X34578686Y-35985153D01*
X34519364Y-36101577D01*
X34501219Y-36216149D01*
X34476679Y-36260421D01*
X34429422Y-36278562D01*
X34381561Y-36262082D01*
X34375804Y-36256899D01*
X34147174Y-36028269D01*
X34125782Y-35982393D01*
X34125500Y-35975943D01*
X34125500Y-34300000D01*
X44319819Y-34300000D01*
X44338425Y-34417483D01*
X44392425Y-34523463D01*
X44476536Y-34607574D01*
X44582516Y-34661574D01*
X44610778Y-34666049D01*
X44700000Y-34680181D01*
X44801419Y-34664117D01*
X44817483Y-34661574D01*
X44923463Y-34607574D01*
X44923462Y-34607574D01*
X44923465Y-34607573D01*
X45007573Y-34523465D01*
X45023389Y-34492425D01*
X45061574Y-34417483D01*
X45067582Y-34379547D01*
X45080181Y-34300000D01*
X45061574Y-34182518D01*
X45061574Y-34182516D01*
X45007574Y-34076536D01*
X44923463Y-33992425D01*
X44817483Y-33938425D01*
X44714130Y-33922056D01*
X44700000Y-33919819D01*
X44699999Y-33919819D01*
X44582516Y-33938425D01*
X44476536Y-33992425D01*
X44392425Y-34076536D01*
X44338425Y-34182516D01*
X44319819Y-34300000D01*
X34125500Y-34300000D01*
X34125500Y-33900000D01*
X45219819Y-33900000D01*
X45238425Y-34017483D01*
X45292425Y-34123463D01*
X45376536Y-34207574D01*
X45482516Y-34261574D01*
X45510778Y-34266049D01*
X45600000Y-34280181D01*
X45701419Y-34264117D01*
X45717483Y-34261574D01*
X45823463Y-34207574D01*
X45823462Y-34207574D01*
X45823465Y-34207573D01*
X45907573Y-34123465D01*
X45959811Y-34020943D01*
X45961574Y-34017483D01*
X45964343Y-34000000D01*
X48219819Y-34000000D01*
X48238425Y-34117483D01*
X48292425Y-34223463D01*
X48376536Y-34307574D01*
X48482516Y-34361574D01*
X48510778Y-34366049D01*
X48600000Y-34380181D01*
X48701419Y-34364117D01*
X48717483Y-34361574D01*
X48823463Y-34307574D01*
X48823462Y-34307574D01*
X48823465Y-34307573D01*
X48907573Y-34223465D01*
X48939108Y-34161574D01*
X48961574Y-34117483D01*
X48969855Y-34065194D01*
X48980181Y-34000000D01*
X48964343Y-33900000D01*
X48961574Y-33882516D01*
X48907574Y-33776536D01*
X48823463Y-33692425D01*
X48717483Y-33638425D01*
X48600000Y-33619819D01*
X48482516Y-33638425D01*
X48376536Y-33692425D01*
X48292425Y-33776536D01*
X48238425Y-33882516D01*
X48219819Y-34000000D01*
X45964343Y-34000000D01*
X45964378Y-33999780D01*
X45980181Y-33900000D01*
X45961574Y-33782518D01*
X45961574Y-33782516D01*
X45907574Y-33676536D01*
X45831038Y-33600000D01*
X49219819Y-33600000D01*
X49238425Y-33717483D01*
X49292425Y-33823463D01*
X49376536Y-33907574D01*
X49482516Y-33961574D01*
X49510778Y-33966049D01*
X49600000Y-33980181D01*
X49701419Y-33964117D01*
X49717483Y-33961574D01*
X49823463Y-33907574D01*
X49823462Y-33907574D01*
X49823465Y-33907573D01*
X49907573Y-33823465D01*
X49919529Y-33800000D01*
X51319819Y-33800000D01*
X51338425Y-33917483D01*
X51392425Y-34023463D01*
X51476536Y-34107574D01*
X51582516Y-34161574D01*
X51610778Y-34166049D01*
X51700000Y-34180181D01*
X51801419Y-34164117D01*
X51817483Y-34161574D01*
X51923463Y-34107574D01*
X51923462Y-34107574D01*
X51923465Y-34107573D01*
X52007573Y-34023465D01*
X52029628Y-33980180D01*
X52061574Y-33917483D01*
X52066047Y-33889238D01*
X52080181Y-33800000D01*
X52063639Y-33695558D01*
X52061574Y-33682516D01*
X52007574Y-33576536D01*
X51923463Y-33492425D01*
X51817483Y-33438425D01*
X51714130Y-33422056D01*
X51700000Y-33419819D01*
X51699999Y-33419819D01*
X51582516Y-33438425D01*
X51476536Y-33492425D01*
X51392425Y-33576536D01*
X51338425Y-33682516D01*
X51319819Y-33800000D01*
X49919529Y-33800000D01*
X49931485Y-33776535D01*
X49961574Y-33717483D01*
X49965542Y-33692427D01*
X49980181Y-33600000D01*
X49964343Y-33500000D01*
X49961574Y-33482516D01*
X49907574Y-33376536D01*
X49823463Y-33292425D01*
X49717483Y-33238425D01*
X49600000Y-33219819D01*
X49482516Y-33238425D01*
X49376536Y-33292425D01*
X49292425Y-33376536D01*
X49238425Y-33482516D01*
X49219819Y-33600000D01*
X45831038Y-33600000D01*
X45823463Y-33592425D01*
X45717483Y-33538425D01*
X45600000Y-33519819D01*
X45482516Y-33538425D01*
X45376536Y-33592425D01*
X45292425Y-33676536D01*
X45238425Y-33782516D01*
X45219819Y-33900000D01*
X34125500Y-33900000D01*
X34125500Y-33500000D01*
X35769319Y-33500000D01*
X35787925Y-33617483D01*
X35841925Y-33723463D01*
X35926036Y-33807574D01*
X36032016Y-33861574D01*
X36064142Y-33866661D01*
X36149500Y-33880181D01*
X36252851Y-33863811D01*
X36266983Y-33861574D01*
X36372963Y-33807574D01*
X36372962Y-33807574D01*
X36372965Y-33807573D01*
X36457073Y-33723465D01*
X36481314Y-33675889D01*
X36511074Y-33617483D01*
X36515042Y-33592427D01*
X36529681Y-33500000D01*
X36511074Y-33382518D01*
X36511074Y-33382516D01*
X36457074Y-33276536D01*
X36372963Y-33192425D01*
X36266983Y-33138425D01*
X36163630Y-33122056D01*
X36149500Y-33119819D01*
X36149499Y-33119819D01*
X36032016Y-33138425D01*
X35926036Y-33192425D01*
X35841925Y-33276536D01*
X35787925Y-33382516D01*
X35769319Y-33500000D01*
X34125500Y-33500000D01*
X34125500Y-32549823D01*
X35552597Y-32549823D01*
X35571203Y-32667306D01*
X35625203Y-32773286D01*
X35709314Y-32857397D01*
X35815294Y-32911397D01*
X35843556Y-32915872D01*
X35932778Y-32930004D01*
X36034197Y-32913940D01*
X36050261Y-32911397D01*
X36156241Y-32857397D01*
X36156240Y-32857397D01*
X36156243Y-32857396D01*
X36240351Y-32773288D01*
X36273834Y-32707574D01*
X36294352Y-32667306D01*
X36301295Y-32623465D01*
X36312959Y-32549823D01*
X36295081Y-32436942D01*
X36294352Y-32432339D01*
X36277874Y-32400000D01*
X43719819Y-32400000D01*
X43738425Y-32517483D01*
X43792425Y-32623463D01*
X43876536Y-32707574D01*
X43982516Y-32761574D01*
X44010778Y-32766049D01*
X44100000Y-32780181D01*
X44201419Y-32764117D01*
X44217483Y-32761574D01*
X44323463Y-32707574D01*
X44323462Y-32707574D01*
X44323465Y-32707573D01*
X44407573Y-32623465D01*
X44436711Y-32566278D01*
X44461574Y-32517483D01*
X44464729Y-32497559D01*
X44480181Y-32400000D01*
X48119819Y-32400000D01*
X48138425Y-32517483D01*
X48192425Y-32623463D01*
X48276536Y-32707574D01*
X48382516Y-32761574D01*
X48410778Y-32766049D01*
X48500000Y-32780181D01*
X48601419Y-32764117D01*
X48617483Y-32761574D01*
X48723463Y-32707574D01*
X48723462Y-32707574D01*
X48723465Y-32707573D01*
X48807573Y-32623465D01*
X48836711Y-32566278D01*
X48861574Y-32517483D01*
X48864729Y-32497559D01*
X48880181Y-32400000D01*
X48861574Y-32282518D01*
X48861574Y-32282516D01*
X48807574Y-32176536D01*
X48723463Y-32092425D01*
X48617483Y-32038425D01*
X48514029Y-32022041D01*
X48500000Y-32019819D01*
X48499999Y-32019819D01*
X48382516Y-32038425D01*
X48276536Y-32092425D01*
X48192425Y-32176536D01*
X48138425Y-32282516D01*
X48119819Y-32400000D01*
X44480181Y-32400000D01*
X44461574Y-32282518D01*
X44461574Y-32282516D01*
X44407574Y-32176536D01*
X44323463Y-32092425D01*
X44217483Y-32038425D01*
X44114029Y-32022041D01*
X44100000Y-32019819D01*
X44099999Y-32019819D01*
X43982516Y-32038425D01*
X43876536Y-32092425D01*
X43792425Y-32176536D01*
X43738425Y-32282516D01*
X43719819Y-32400000D01*
X36277874Y-32400000D01*
X36240352Y-32326359D01*
X36156241Y-32242248D01*
X36050261Y-32188248D01*
X35932778Y-32169642D01*
X35815294Y-32188248D01*
X35709314Y-32242248D01*
X35625203Y-32326359D01*
X35571203Y-32432339D01*
X35552597Y-32549823D01*
X34125500Y-32549823D01*
X34125500Y-31791838D01*
X34427981Y-31791838D01*
X34446587Y-31909321D01*
X34500587Y-32015301D01*
X34584698Y-32099412D01*
X34690678Y-32153412D01*
X34722804Y-32158499D01*
X34808162Y-32172019D01*
X34911513Y-32155649D01*
X34925645Y-32153412D01*
X35031625Y-32099412D01*
X35031624Y-32099412D01*
X35031627Y-32099411D01*
X35115735Y-32015303D01*
X35123532Y-32000000D01*
X40819819Y-32000000D01*
X40838425Y-32117483D01*
X40892425Y-32223463D01*
X40976536Y-32307574D01*
X41082516Y-32361574D01*
X41110778Y-32366049D01*
X41200000Y-32380181D01*
X41301419Y-32364117D01*
X41317483Y-32361574D01*
X41423463Y-32307574D01*
X41423462Y-32307574D01*
X41423465Y-32307573D01*
X41507573Y-32223465D01*
X41519529Y-32200000D01*
X41561574Y-32117483D01*
X41565542Y-32092427D01*
X41580181Y-32000000D01*
X41565819Y-31909320D01*
X41561574Y-31882516D01*
X41507574Y-31776536D01*
X41423463Y-31692425D01*
X41317483Y-31638425D01*
X41200000Y-31619819D01*
X41082516Y-31638425D01*
X40976536Y-31692425D01*
X40892425Y-31776536D01*
X40838425Y-31882516D01*
X40819819Y-32000000D01*
X35123532Y-32000000D01*
X35147023Y-31953897D01*
X35169736Y-31909321D01*
X35180964Y-31838425D01*
X35188343Y-31791838D01*
X35172055Y-31688996D01*
X35169736Y-31674354D01*
X35115736Y-31568374D01*
X35031625Y-31484263D01*
X34925645Y-31430263D01*
X34822292Y-31413894D01*
X34808162Y-31411657D01*
X34808161Y-31411657D01*
X34690678Y-31430263D01*
X34584698Y-31484263D01*
X34500587Y-31568374D01*
X34446587Y-31674354D01*
X34427981Y-31791838D01*
X34125500Y-31791838D01*
X34125500Y-31400000D01*
X39019819Y-31400000D01*
X39038425Y-31517483D01*
X39092425Y-31623463D01*
X39176536Y-31707574D01*
X39282516Y-31761574D01*
X39310778Y-31766049D01*
X39400000Y-31780181D01*
X39501419Y-31764117D01*
X39517483Y-31761574D01*
X39623463Y-31707574D01*
X39623462Y-31707574D01*
X39623465Y-31707573D01*
X39707573Y-31623465D01*
X39732522Y-31574500D01*
X39761574Y-31517483D01*
X39769892Y-31464963D01*
X39780181Y-31400000D01*
X39765739Y-31308814D01*
X39761574Y-31282516D01*
X39707574Y-31176536D01*
X39623463Y-31092425D01*
X39517483Y-31038425D01*
X39400000Y-31019819D01*
X39282516Y-31038425D01*
X39176536Y-31092425D01*
X39092425Y-31176536D01*
X39038425Y-31282516D01*
X39019819Y-31400000D01*
X34125500Y-31400000D01*
X34125500Y-31007860D01*
X34125601Y-31003987D01*
X34127014Y-30977017D01*
X34127700Y-30963936D01*
X34118967Y-30941186D01*
X34115671Y-30930056D01*
X34110607Y-30906231D01*
X34105611Y-30899355D01*
X34096391Y-30882374D01*
X34093346Y-30874440D01*
X34076116Y-30857210D01*
X34068581Y-30848388D01*
X34054260Y-30828677D01*
X34054259Y-30828676D01*
X34054258Y-30828675D01*
X34046898Y-30824426D01*
X34031573Y-30812667D01*
X33751804Y-30532899D01*
X33749138Y-30530089D01*
X33722306Y-30500289D01*
X33700050Y-30490380D01*
X33689849Y-30484841D01*
X33669417Y-30471573D01*
X33661016Y-30470242D01*
X33642499Y-30464757D01*
X33634731Y-30461299D01*
X33610372Y-30461299D01*
X33598797Y-30460388D01*
X33574734Y-30456577D01*
X33566520Y-30458778D01*
X33547369Y-30461299D01*
X31121062Y-30461299D01*
X31117189Y-30461198D01*
X31077134Y-30459098D01*
X31054389Y-30467829D01*
X31043261Y-30471125D01*
X31019434Y-30476190D01*
X31012556Y-30481188D01*
X30995585Y-30490403D01*
X30987642Y-30493452D01*
X30970410Y-30510683D01*
X30961585Y-30518220D01*
X30941877Y-30532539D01*
X30937625Y-30539904D01*
X30925868Y-30555225D01*
X30394766Y-31086327D01*
X30348890Y-31107719D01*
X30301330Y-31095530D01*
X30262422Y-31069533D01*
X30218520Y-31060800D01*
X29101480Y-31060800D01*
X29057577Y-31069532D01*
X29057578Y-31069533D01*
X29007796Y-31102796D01*
X28974533Y-31152578D01*
X28965800Y-31196480D01*
X28965800Y-32099643D01*
X28948487Y-32147209D01*
X28944126Y-32151969D01*
X28606826Y-32489268D01*
X28560949Y-32510660D01*
X28512055Y-32497559D01*
X28483021Y-32456095D01*
X28480500Y-32436942D01*
X28480500Y-30300000D01*
X35919819Y-30300000D01*
X35938425Y-30417483D01*
X35992425Y-30523463D01*
X36076536Y-30607574D01*
X36182516Y-30661574D01*
X36210778Y-30666049D01*
X36300000Y-30680181D01*
X36409129Y-30662897D01*
X36417483Y-30661574D01*
X36523463Y-30607574D01*
X36523462Y-30607574D01*
X36523465Y-30607573D01*
X36607573Y-30523465D01*
X36622865Y-30493453D01*
X36661574Y-30417483D01*
X36665542Y-30392427D01*
X36680181Y-30300000D01*
X36664343Y-30199999D01*
X36661574Y-30182516D01*
X36607574Y-30076536D01*
X36523463Y-29992425D01*
X36417483Y-29938425D01*
X36314130Y-29922056D01*
X36300000Y-29919819D01*
X36299999Y-29919819D01*
X36182516Y-29938425D01*
X36076536Y-29992425D01*
X35992425Y-30076536D01*
X35938425Y-30182516D01*
X35919819Y-30300000D01*
X28480500Y-30300000D01*
X28480500Y-29843611D01*
X37917158Y-29843611D01*
X37935764Y-29961095D01*
X37989764Y-30067075D01*
X38073875Y-30151186D01*
X38179855Y-30205186D01*
X38211981Y-30210273D01*
X38297339Y-30223793D01*
X38400690Y-30207423D01*
X38414822Y-30205186D01*
X38520802Y-30151186D01*
X38520801Y-30151186D01*
X38520804Y-30151185D01*
X38604912Y-30067077D01*
X38626097Y-30025500D01*
X38658913Y-29961095D01*
X38666209Y-29915026D01*
X38677520Y-29843612D01*
X38662479Y-29748644D01*
X38658913Y-29726128D01*
X38604913Y-29620148D01*
X38520802Y-29536037D01*
X38414822Y-29482037D01*
X38311469Y-29465668D01*
X38297339Y-29463431D01*
X38297338Y-29463431D01*
X38179855Y-29482037D01*
X38073875Y-29536037D01*
X37989764Y-29620148D01*
X37935764Y-29726128D01*
X37917158Y-29843611D01*
X28480500Y-29843611D01*
X28480500Y-27400000D01*
X31994564Y-27400000D01*
X31994722Y-27402410D01*
X32011165Y-27653297D01*
X32014287Y-27700920D01*
X32014757Y-27703285D01*
X32014758Y-27703289D01*
X32038663Y-27823465D01*
X32073120Y-27996691D01*
X32073894Y-27998973D01*
X32073896Y-27998978D01*
X32169277Y-28279961D01*
X32170055Y-28282252D01*
X32171124Y-28284420D01*
X32171125Y-28284422D01*
X32302362Y-28550546D01*
X32302368Y-28550556D01*
X32303434Y-28552718D01*
X32304778Y-28554730D01*
X32304779Y-28554731D01*
X32469632Y-28801452D01*
X32469636Y-28801458D01*
X32470975Y-28803461D01*
X32472562Y-28805271D01*
X32472567Y-28805277D01*
X32627568Y-28982020D01*
X32669811Y-29030189D01*
X32671631Y-29031785D01*
X32894722Y-29227432D01*
X32894726Y-29227435D01*
X32896539Y-29229025D01*
X33147282Y-29396566D01*
X33149448Y-29397634D01*
X33149453Y-29397637D01*
X33282514Y-29463255D01*
X33417748Y-29529945D01*
X33703309Y-29626880D01*
X33999080Y-29685713D01*
X34300000Y-29705436D01*
X34600920Y-29685713D01*
X34896691Y-29626880D01*
X35182252Y-29529945D01*
X35452718Y-29396566D01*
X35703461Y-29229025D01*
X35930189Y-29030189D01*
X36129025Y-28803461D01*
X36296566Y-28552718D01*
X36429945Y-28282252D01*
X36526880Y-27996691D01*
X36585713Y-27700920D01*
X36605436Y-27400000D01*
X36585713Y-27099080D01*
X36526880Y-26803309D01*
X36491811Y-26700000D01*
X39219819Y-26700000D01*
X39238425Y-26817483D01*
X39292425Y-26923463D01*
X39376536Y-27007574D01*
X39482516Y-27061574D01*
X39510778Y-27066049D01*
X39600000Y-27080181D01*
X39701419Y-27064117D01*
X39717483Y-27061574D01*
X39823463Y-27007574D01*
X39823462Y-27007574D01*
X39823465Y-27007573D01*
X39907573Y-26923465D01*
X39939108Y-26861574D01*
X39961574Y-26817483D01*
X39965542Y-26792427D01*
X39980181Y-26700000D01*
X39965936Y-26610057D01*
X39961574Y-26582516D01*
X39919530Y-26500000D01*
X40730319Y-26500000D01*
X40748925Y-26617483D01*
X40802925Y-26723463D01*
X40887036Y-26807574D01*
X40993016Y-26861574D01*
X41025142Y-26866661D01*
X41110500Y-26880181D01*
X41213851Y-26863811D01*
X41227983Y-26861574D01*
X41333963Y-26807574D01*
X41333962Y-26807574D01*
X41333965Y-26807573D01*
X41418073Y-26723465D01*
X41449078Y-26662615D01*
X41472074Y-26617483D01*
X41474617Y-26601419D01*
X41490681Y-26500000D01*
X41819819Y-26500000D01*
X41838425Y-26617483D01*
X41892425Y-26723463D01*
X41976536Y-26807574D01*
X42082516Y-26861574D01*
X42110778Y-26866049D01*
X42200000Y-26880181D01*
X42301419Y-26864117D01*
X42317483Y-26861574D01*
X42423463Y-26807574D01*
X42423462Y-26807574D01*
X42423465Y-26807573D01*
X42507573Y-26723465D01*
X42519529Y-26700000D01*
X48119819Y-26700000D01*
X48138425Y-26817483D01*
X48192425Y-26923463D01*
X48276536Y-27007574D01*
X48382516Y-27061574D01*
X48410778Y-27066049D01*
X48500000Y-27080181D01*
X48601419Y-27064117D01*
X48617483Y-27061574D01*
X48723463Y-27007574D01*
X48723462Y-27007574D01*
X48723465Y-27007573D01*
X48807573Y-26923465D01*
X48839108Y-26861574D01*
X48861574Y-26817483D01*
X48874095Y-26738425D01*
X48880181Y-26700000D01*
X48880180Y-26699998D01*
X48882014Y-26688424D01*
X48882650Y-26688524D01*
X48889947Y-26650989D01*
X48929285Y-26619133D01*
X48979897Y-26620017D01*
X48986965Y-26623164D01*
X48991538Y-26625494D01*
X49109020Y-26644101D01*
X49212371Y-26627731D01*
X49226503Y-26625494D01*
X49332483Y-26571494D01*
X49332482Y-26571494D01*
X49332485Y-26571493D01*
X49416593Y-26487385D01*
X49451279Y-26419308D01*
X49488300Y-26384787D01*
X49538849Y-26382137D01*
X49569540Y-26400578D01*
X49576536Y-26407574D01*
X49682516Y-26461574D01*
X49706896Y-26465435D01*
X49800000Y-26480181D01*
X49901419Y-26464117D01*
X49917483Y-26461574D01*
X50023462Y-26407575D01*
X50023462Y-26407574D01*
X50023465Y-26407573D01*
X50094304Y-26336733D01*
X50140179Y-26315342D01*
X50189073Y-26328442D01*
X50218107Y-26369907D01*
X50219619Y-26398739D01*
X50238425Y-26517483D01*
X50292425Y-26623463D01*
X50376536Y-26707574D01*
X50482516Y-26761574D01*
X50510778Y-26766049D01*
X50600000Y-26780181D01*
X50701419Y-26764117D01*
X50717483Y-26761574D01*
X50823463Y-26707574D01*
X50823462Y-26707574D01*
X50823465Y-26707573D01*
X50907573Y-26623465D01*
X50945260Y-26549500D01*
X50961574Y-26517483D01*
X50968059Y-26476535D01*
X50980181Y-26400000D01*
X50965058Y-26304514D01*
X50961574Y-26282516D01*
X50907574Y-26176536D01*
X50823463Y-26092425D01*
X50717483Y-26038425D01*
X50600000Y-26019819D01*
X50482516Y-26038425D01*
X50376536Y-26092425D01*
X50305696Y-26163265D01*
X50259819Y-26184657D01*
X50210925Y-26171556D01*
X50181891Y-26130091D01*
X50180382Y-26101272D01*
X50180180Y-26099999D01*
X50167112Y-26017482D01*
X50161574Y-25982516D01*
X50107574Y-25876536D01*
X50023463Y-25792425D01*
X49917483Y-25738425D01*
X49800000Y-25719819D01*
X49682516Y-25738425D01*
X49576536Y-25792425D01*
X49492427Y-25876534D01*
X49478633Y-25903607D01*
X49466108Y-25928190D01*
X49457741Y-25944611D01*
X49420720Y-25979133D01*
X49370171Y-25981783D01*
X49339480Y-25963342D01*
X49332483Y-25956345D01*
X49226503Y-25902345D01*
X49123150Y-25885976D01*
X49109020Y-25883739D01*
X49109019Y-25883739D01*
X48991536Y-25902345D01*
X48962314Y-25917235D01*
X48912072Y-25923403D01*
X48869620Y-25895833D01*
X48862785Y-25884895D01*
X48858526Y-25876536D01*
X48807573Y-25776535D01*
X48723465Y-25692427D01*
X48723463Y-25692425D01*
X48617483Y-25638425D01*
X48514130Y-25622056D01*
X48500000Y-25619819D01*
X48499999Y-25619819D01*
X48382516Y-25638425D01*
X48276536Y-25692425D01*
X48192425Y-25776536D01*
X48138425Y-25882516D01*
X48119819Y-26000000D01*
X48138425Y-26117483D01*
X48192425Y-26223463D01*
X48266636Y-26297674D01*
X48288028Y-26343550D01*
X48274927Y-26392445D01*
X48266636Y-26402326D01*
X48192425Y-26476536D01*
X48138425Y-26582516D01*
X48119819Y-26700000D01*
X42519529Y-26700000D01*
X42538578Y-26662615D01*
X42561574Y-26617483D01*
X42564117Y-26601419D01*
X42580181Y-26500000D01*
X42563143Y-26392425D01*
X42561574Y-26382517D01*
X42539108Y-26338426D01*
X42537158Y-26334600D01*
X42530989Y-26284359D01*
X42558558Y-26241906D01*
X42569493Y-26235072D01*
X42623465Y-26207573D01*
X42707573Y-26123465D01*
X42750903Y-26038425D01*
X42761574Y-26017483D01*
X42765179Y-25994722D01*
X42780181Y-25900000D01*
X42766049Y-25810778D01*
X42761574Y-25782516D01*
X42707574Y-25676536D01*
X42623463Y-25592425D01*
X42517483Y-25538425D01*
X42400000Y-25519819D01*
X42282516Y-25538425D01*
X42176536Y-25592425D01*
X42092425Y-25676536D01*
X42038425Y-25782516D01*
X42019819Y-25900000D01*
X42038425Y-26017481D01*
X42062841Y-26065400D01*
X42069009Y-26115642D01*
X42041440Y-26158094D01*
X42030501Y-26164929D01*
X41976536Y-26192425D01*
X41892425Y-26276536D01*
X41838425Y-26382516D01*
X41819819Y-26500000D01*
X41490681Y-26500000D01*
X41473646Y-26392445D01*
X41472074Y-26382516D01*
X41418074Y-26276536D01*
X41333963Y-26192425D01*
X41227983Y-26138425D01*
X41110500Y-26119819D01*
X40993016Y-26138425D01*
X40887036Y-26192425D01*
X40802925Y-26276536D01*
X40748925Y-26382516D01*
X40730319Y-26500000D01*
X39919530Y-26500000D01*
X39907574Y-26476536D01*
X39823463Y-26392425D01*
X39717483Y-26338425D01*
X39600000Y-26319819D01*
X39482516Y-26338425D01*
X39376536Y-26392425D01*
X39292425Y-26476536D01*
X39238425Y-26582516D01*
X39219819Y-26700000D01*
X36491811Y-26700000D01*
X36429945Y-26517748D01*
X36332337Y-26319819D01*
X36297637Y-26249453D01*
X36297634Y-26249448D01*
X36296566Y-26247282D01*
X36208607Y-26115642D01*
X36130367Y-25998547D01*
X36130364Y-25998543D01*
X36129025Y-25996539D01*
X36116727Y-25982516D01*
X35931785Y-25771631D01*
X35930189Y-25769811D01*
X35928368Y-25768214D01*
X35705277Y-25572567D01*
X35705271Y-25572562D01*
X35703461Y-25570975D01*
X35701458Y-25569636D01*
X35701452Y-25569632D01*
X35454731Y-25404779D01*
X35454730Y-25404778D01*
X35452718Y-25403434D01*
X35450556Y-25402368D01*
X35450546Y-25402362D01*
X35184422Y-25271125D01*
X35184420Y-25271124D01*
X35182252Y-25270055D01*
X35179965Y-25269278D01*
X35179961Y-25269277D01*
X34975875Y-25199999D01*
X58719819Y-25199999D01*
X58738425Y-25317483D01*
X58792425Y-25423463D01*
X58876536Y-25507574D01*
X58982516Y-25561574D01*
X59010778Y-25566049D01*
X59100000Y-25580181D01*
X59201419Y-25564117D01*
X59217483Y-25561574D01*
X59323463Y-25507574D01*
X59323462Y-25507574D01*
X59323465Y-25507573D01*
X59407573Y-25423465D01*
X59418326Y-25402362D01*
X59461574Y-25317483D01*
X59468916Y-25271125D01*
X59480181Y-25200000D01*
X59461574Y-25082518D01*
X59461574Y-25082516D01*
X59407574Y-24976536D01*
X59331037Y-24899999D01*
X63619819Y-24899999D01*
X63638425Y-25017483D01*
X63692425Y-25123463D01*
X63776536Y-25207574D01*
X63882516Y-25261574D01*
X63910778Y-25266049D01*
X64000000Y-25280181D01*
X64101419Y-25264117D01*
X64117483Y-25261574D01*
X64223463Y-25207574D01*
X64223462Y-25207574D01*
X64223465Y-25207573D01*
X64307573Y-25123465D01*
X64328438Y-25082516D01*
X64361574Y-25017483D01*
X64368059Y-24976535D01*
X64380181Y-24900000D01*
X64361574Y-24782518D01*
X64361574Y-24782516D01*
X64307574Y-24676536D01*
X64223463Y-24592425D01*
X64117483Y-24538425D01*
X64000000Y-24519819D01*
X63882516Y-24538425D01*
X63776536Y-24592425D01*
X63692425Y-24676536D01*
X63638425Y-24782516D01*
X63619819Y-24899999D01*
X59331037Y-24899999D01*
X59323463Y-24892425D01*
X59217483Y-24838425D01*
X59114130Y-24822056D01*
X59100000Y-24819819D01*
X59099999Y-24819819D01*
X58982516Y-24838425D01*
X58876536Y-24892425D01*
X58792425Y-24976536D01*
X58738425Y-25082516D01*
X58719819Y-25199999D01*
X34975875Y-25199999D01*
X34898978Y-25173896D01*
X34898973Y-25173894D01*
X34896691Y-25173120D01*
X34647061Y-25123465D01*
X34603289Y-25114758D01*
X34603285Y-25114757D01*
X34600920Y-25114287D01*
X34598516Y-25114129D01*
X34598513Y-25114129D01*
X34302411Y-25094722D01*
X34300000Y-25094564D01*
X34297589Y-25094722D01*
X34001486Y-25114129D01*
X34001481Y-25114129D01*
X33999080Y-25114287D01*
X33996716Y-25114757D01*
X33996710Y-25114758D01*
X33705681Y-25172648D01*
X33705678Y-25172648D01*
X33703309Y-25173120D01*
X33701030Y-25173893D01*
X33701021Y-25173896D01*
X33420038Y-25269277D01*
X33420029Y-25269280D01*
X33417748Y-25270055D01*
X33415584Y-25271121D01*
X33415577Y-25271125D01*
X33149453Y-25402362D01*
X33149436Y-25402371D01*
X33147282Y-25403434D01*
X33145275Y-25404774D01*
X33145268Y-25404779D01*
X32898547Y-25569632D01*
X32898533Y-25569642D01*
X32896539Y-25570975D01*
X32894735Y-25572556D01*
X32894722Y-25572567D01*
X32671631Y-25768214D01*
X32671623Y-25768221D01*
X32669811Y-25769811D01*
X32668221Y-25771623D01*
X32668214Y-25771631D01*
X32472567Y-25994722D01*
X32472556Y-25994735D01*
X32470975Y-25996539D01*
X32469642Y-25998533D01*
X32469632Y-25998547D01*
X32304779Y-26245268D01*
X32304774Y-26245275D01*
X32303434Y-26247282D01*
X32302371Y-26249436D01*
X32302362Y-26249453D01*
X32171125Y-26515577D01*
X32171121Y-26515584D01*
X32170055Y-26517748D01*
X32169280Y-26520029D01*
X32169277Y-26520038D01*
X32073896Y-26801021D01*
X32073893Y-26801030D01*
X32073120Y-26803309D01*
X32072648Y-26805678D01*
X32072648Y-26805681D01*
X32027011Y-27035115D01*
X32014287Y-27099080D01*
X32014129Y-27101481D01*
X32014129Y-27101486D01*
X31999819Y-27319819D01*
X31994564Y-27400000D01*
X28480500Y-27400000D01*
X28480500Y-23674500D01*
X28497813Y-23626934D01*
X28541650Y-23601624D01*
X28554500Y-23600500D01*
X67805500Y-23600500D01*
X67853066Y-23617813D01*
G37*
%TD.AperFunction*%
%TA.AperFunction,Conductor*%
G36*
X31637998Y-31229113D02*
G01*
X31663308Y-31272950D01*
X31654518Y-31322800D01*
X31651333Y-31327837D01*
X31580800Y-31430021D01*
X31521020Y-31587648D01*
X31500701Y-31755000D01*
X31521020Y-31922351D01*
X31565042Y-32038426D01*
X31580801Y-32079980D01*
X31642690Y-32169642D01*
X31676567Y-32218721D01*
X31807378Y-32334610D01*
X31831502Y-32379111D01*
X31821376Y-32428707D01*
X31807378Y-32445390D01*
X31676567Y-32561278D01*
X31580800Y-32700021D01*
X31521020Y-32857648D01*
X31500701Y-33024999D01*
X31521020Y-33192351D01*
X31521021Y-33192353D01*
X31580801Y-33349980D01*
X31672284Y-33482516D01*
X31676567Y-33488721D01*
X31807378Y-33604610D01*
X31831502Y-33649111D01*
X31821376Y-33698707D01*
X31807378Y-33715390D01*
X31676567Y-33831278D01*
X31580800Y-33970021D01*
X31521020Y-34127648D01*
X31500701Y-34295000D01*
X31521020Y-34462351D01*
X31576096Y-34607573D01*
X31580801Y-34619980D01*
X31640627Y-34706653D01*
X31676567Y-34758721D01*
X31807378Y-34874610D01*
X31831502Y-34919111D01*
X31821376Y-34968707D01*
X31807378Y-34985390D01*
X31676567Y-35101278D01*
X31580800Y-35240021D01*
X31521020Y-35397648D01*
X31503485Y-35542072D01*
X31500701Y-35565000D01*
X31501974Y-35575481D01*
X31521020Y-35732351D01*
X31577085Y-35880181D01*
X31580801Y-35889980D01*
X31665462Y-36012633D01*
X31676567Y-36028721D01*
X31807378Y-36144610D01*
X31831502Y-36189111D01*
X31821376Y-36238707D01*
X31807378Y-36255390D01*
X31676567Y-36371278D01*
X31580800Y-36510021D01*
X31521020Y-36667648D01*
X31500701Y-36835000D01*
X31521020Y-37002351D01*
X31575013Y-37144717D01*
X31580801Y-37159980D01*
X31656702Y-37269941D01*
X31676567Y-37298721D01*
X31807378Y-37414610D01*
X31831502Y-37459111D01*
X31821376Y-37508707D01*
X31807378Y-37525390D01*
X31676567Y-37641278D01*
X31580800Y-37780021D01*
X31521020Y-37937648D01*
X31502033Y-38094028D01*
X31500701Y-38105000D01*
X31501014Y-38107574D01*
X31521020Y-38272351D01*
X31578139Y-38422960D01*
X31580801Y-38429980D01*
X31641199Y-38517482D01*
X31676567Y-38568721D01*
X31807378Y-38684610D01*
X31831502Y-38729111D01*
X31821376Y-38778707D01*
X31807378Y-38795390D01*
X31676567Y-38911278D01*
X31580800Y-39050021D01*
X31521020Y-39207648D01*
X31500701Y-39375000D01*
X31521020Y-39542351D01*
X31574179Y-39682518D01*
X31580801Y-39699980D01*
X31628951Y-39769737D01*
X31676567Y-39838721D01*
X31807378Y-39954610D01*
X31831502Y-39999111D01*
X31821376Y-40048707D01*
X31807378Y-40065390D01*
X31676567Y-40181278D01*
X31580800Y-40320021D01*
X31521020Y-40477648D01*
X31500701Y-40644999D01*
X31521020Y-40812351D01*
X31573178Y-40949879D01*
X31580801Y-40969980D01*
X31676567Y-41108721D01*
X31738232Y-41163351D01*
X31802752Y-41220512D01*
X31872414Y-41257073D01*
X31934889Y-41289862D01*
X31968962Y-41327297D01*
X31974500Y-41355386D01*
X31974500Y-41406045D01*
X31974399Y-41409918D01*
X31972300Y-41449970D01*
X31981031Y-41472717D01*
X31984327Y-41483847D01*
X31989392Y-41507674D01*
X31994389Y-41514552D01*
X32003604Y-41531524D01*
X32006653Y-41539466D01*
X32023880Y-41556693D01*
X32031421Y-41565522D01*
X32039422Y-41576535D01*
X32045740Y-41585230D01*
X32053101Y-41589480D01*
X32068426Y-41601239D01*
X32404984Y-41937796D01*
X32407650Y-41940605D01*
X32434484Y-41970407D01*
X32456744Y-41980317D01*
X32466935Y-41985850D01*
X32487373Y-41999123D01*
X32495770Y-42000452D01*
X32514289Y-42005938D01*
X32522059Y-42009398D01*
X32546418Y-42009398D01*
X32557995Y-42010309D01*
X32566127Y-42011597D01*
X32582056Y-42014120D01*
X32582056Y-42014119D01*
X32582057Y-42014120D01*
X32590269Y-42011920D01*
X32609422Y-42009398D01*
X34008241Y-42009398D01*
X34012114Y-42009499D01*
X34052166Y-42011598D01*
X34074914Y-42002865D01*
X34086032Y-41999571D01*
X34109870Y-41994505D01*
X34116746Y-41989508D01*
X34133726Y-41980290D01*
X34133723Y-41980290D01*
X34141662Y-41977244D01*
X34158895Y-41960010D01*
X34167711Y-41952480D01*
X34187425Y-41938158D01*
X34187425Y-41938157D01*
X34198004Y-41930472D01*
X34246663Y-41916521D01*
X34292905Y-41937112D01*
X34307432Y-41956746D01*
X34341426Y-42023463D01*
X34433824Y-42115861D01*
X34433329Y-42116355D01*
X34459303Y-42144207D01*
X34461953Y-42194757D01*
X34443512Y-42225448D01*
X34392426Y-42276534D01*
X34338425Y-42382516D01*
X34319819Y-42499999D01*
X34338425Y-42617483D01*
X34392425Y-42723463D01*
X34476536Y-42807574D01*
X34582516Y-42861574D01*
X34610778Y-42866049D01*
X34700000Y-42880181D01*
X34801419Y-42864117D01*
X34817483Y-42861574D01*
X34923463Y-42807574D01*
X34923462Y-42807574D01*
X34923465Y-42807573D01*
X34983863Y-42747174D01*
X35029740Y-42725782D01*
X35036190Y-42725500D01*
X35892139Y-42725500D01*
X35896012Y-42725601D01*
X35936064Y-42727700D01*
X35958812Y-42718967D01*
X35969930Y-42715673D01*
X35993768Y-42710607D01*
X36000644Y-42705610D01*
X36017624Y-42696392D01*
X36017621Y-42696392D01*
X36025560Y-42693346D01*
X36042793Y-42676112D01*
X36051616Y-42668577D01*
X36071323Y-42654260D01*
X36075572Y-42646898D01*
X36087329Y-42631575D01*
X36971731Y-41747173D01*
X37017608Y-41725782D01*
X37024057Y-41725500D01*
X39733301Y-41725500D01*
X39780867Y-41742813D01*
X39806177Y-41786650D01*
X39799235Y-41833095D01*
X39749980Y-41929761D01*
X39731374Y-42047245D01*
X39739342Y-42097555D01*
X39729683Y-42147243D01*
X39690344Y-42179099D01*
X39673475Y-42180576D01*
X39673631Y-42181555D01*
X39662055Y-42183388D01*
X39642046Y-42186557D01*
X39544571Y-42201994D01*
X39438591Y-42255994D01*
X39354480Y-42340105D01*
X39300480Y-42446085D01*
X39281874Y-42563569D01*
X39284528Y-42580329D01*
X39274869Y-42630017D01*
X39235529Y-42661872D01*
X39223015Y-42664992D01*
X39095071Y-42685255D01*
X38989091Y-42739255D01*
X38904980Y-42823366D01*
X38850980Y-42929346D01*
X38832374Y-43046829D01*
X38850980Y-43164313D01*
X38904980Y-43270293D01*
X38989091Y-43354404D01*
X39095071Y-43408404D01*
X39123333Y-43412879D01*
X39212555Y-43427011D01*
X39313974Y-43410947D01*
X39330038Y-43408404D01*
X39436018Y-43354404D01*
X39436017Y-43354404D01*
X39436020Y-43354403D01*
X39520128Y-43270295D01*
X39555717Y-43200448D01*
X39564858Y-43182508D01*
X41570818Y-43182508D01*
X41589424Y-43299991D01*
X41643424Y-43405971D01*
X41727535Y-43490082D01*
X41833515Y-43544082D01*
X41950997Y-43562689D01*
X41950997Y-43562688D01*
X41950999Y-43562689D01*
X41966654Y-43560209D01*
X42016343Y-43569866D01*
X42030558Y-43580972D01*
X42090582Y-43640996D01*
X42093248Y-43643805D01*
X42120082Y-43673607D01*
X42142342Y-43683517D01*
X42152533Y-43689050D01*
X42172971Y-43702323D01*
X42181368Y-43703652D01*
X42199887Y-43709138D01*
X42207657Y-43712598D01*
X42232016Y-43712598D01*
X42243593Y-43713509D01*
X42245740Y-43713849D01*
X42267654Y-43717320D01*
X42267654Y-43717319D01*
X42267655Y-43717320D01*
X42275867Y-43715120D01*
X42295020Y-43712598D01*
X53371942Y-43712598D01*
X53419508Y-43729911D01*
X53444818Y-43773748D01*
X53439779Y-43807464D01*
X53440259Y-43807540D01*
X53419819Y-43936598D01*
X53438425Y-44054081D01*
X53492424Y-44160060D01*
X53492426Y-44160062D01*
X53492427Y-44160063D01*
X53527227Y-44194863D01*
X53548620Y-44240739D01*
X53535520Y-44289633D01*
X53527229Y-44299514D01*
X53514513Y-44312230D01*
X53460513Y-44418210D01*
X53441907Y-44535694D01*
X53460513Y-44653177D01*
X53514513Y-44759157D01*
X53598624Y-44843268D01*
X53704604Y-44897268D01*
X53721855Y-44900000D01*
X53822088Y-44915875D01*
X53923507Y-44899811D01*
X53939571Y-44897268D01*
X54045551Y-44843268D01*
X54045550Y-44843268D01*
X54045553Y-44843267D01*
X54066170Y-44822650D01*
X54663195Y-44822650D01*
X54681801Y-44940133D01*
X54735801Y-45046113D01*
X54819912Y-45130224D01*
X54925892Y-45184224D01*
X54958018Y-45189311D01*
X55043376Y-45202831D01*
X55146727Y-45186461D01*
X55160859Y-45184224D01*
X55266839Y-45130224D01*
X55266838Y-45130224D01*
X55266841Y-45130223D01*
X55350949Y-45046115D01*
X55378669Y-44991710D01*
X55415686Y-44957190D01*
X55466236Y-44954540D01*
X55478195Y-44959371D01*
X55482518Y-44961574D01*
X55600000Y-44980181D01*
X55701419Y-44964117D01*
X55717483Y-44961574D01*
X55823463Y-44907574D01*
X55823462Y-44907574D01*
X55823465Y-44907573D01*
X55907573Y-44823465D01*
X55944097Y-44751783D01*
X55961574Y-44717483D01*
X55966684Y-44685219D01*
X55980181Y-44600000D01*
X55961574Y-44482518D01*
X55945689Y-44451343D01*
X55939520Y-44401104D01*
X55967089Y-44358651D01*
X55978024Y-44351818D01*
X56041037Y-44319712D01*
X56125145Y-44235604D01*
X56146682Y-44193336D01*
X56179146Y-44129622D01*
X56186976Y-44080181D01*
X56197753Y-44012139D01*
X56179146Y-43894657D01*
X56179146Y-43894655D01*
X56125146Y-43788675D01*
X56041035Y-43704564D01*
X55935055Y-43650564D01*
X55831702Y-43634195D01*
X55817572Y-43631958D01*
X55817571Y-43631958D01*
X55700088Y-43650564D01*
X55594108Y-43704564D01*
X55509997Y-43788675D01*
X55455997Y-43894655D01*
X55437391Y-44012139D01*
X55455997Y-44129622D01*
X55471880Y-44160793D01*
X55478049Y-44211034D01*
X55450480Y-44253487D01*
X55439542Y-44260322D01*
X55376536Y-44292425D01*
X55292427Y-44376534D01*
X55277335Y-44406155D01*
X55264716Y-44430922D01*
X55264708Y-44430937D01*
X55227687Y-44465459D01*
X55177138Y-44468109D01*
X55165178Y-44463277D01*
X55160857Y-44461075D01*
X55043376Y-44442469D01*
X54925892Y-44461075D01*
X54819912Y-44515075D01*
X54735801Y-44599186D01*
X54681801Y-44705166D01*
X54663195Y-44822650D01*
X54066170Y-44822650D01*
X54129661Y-44759159D01*
X54150896Y-44717483D01*
X54183662Y-44653177D01*
X54192213Y-44599185D01*
X54202269Y-44535694D01*
X54187094Y-44439879D01*
X54183662Y-44418210D01*
X54129662Y-44312230D01*
X54094859Y-44277427D01*
X54073467Y-44231551D01*
X54086568Y-44182656D01*
X54094857Y-44172778D01*
X54107573Y-44160063D01*
X54159683Y-44057791D01*
X54166896Y-44043636D01*
X54168299Y-44044350D01*
X54185576Y-44013175D01*
X54232831Y-43995030D01*
X54267725Y-44003085D01*
X54382516Y-44061574D01*
X54410778Y-44066049D01*
X54500000Y-44080181D01*
X54601419Y-44064117D01*
X54617483Y-44061574D01*
X54723463Y-44007574D01*
X54723462Y-44007574D01*
X54723465Y-44007573D01*
X54807573Y-43923465D01*
X54809520Y-43919643D01*
X54861574Y-43817483D01*
X54864574Y-43798541D01*
X54880181Y-43700000D01*
X54861574Y-43582518D01*
X54861574Y-43582516D01*
X54807574Y-43476536D01*
X54723463Y-43392425D01*
X54691757Y-43376270D01*
X54657235Y-43339249D01*
X54654587Y-43288700D01*
X54673026Y-43258011D01*
X54707573Y-43223465D01*
X54707575Y-43223462D01*
X54761574Y-43117483D01*
X54765542Y-43092427D01*
X54780181Y-43000000D01*
X54761574Y-42882518D01*
X54761574Y-42882516D01*
X54707574Y-42776536D01*
X54623463Y-42692425D01*
X54517483Y-42638425D01*
X54400000Y-42619819D01*
X54282516Y-42638425D01*
X54176536Y-42692425D01*
X54092425Y-42776536D01*
X54038425Y-42882516D01*
X54019819Y-42999999D01*
X54038425Y-43117481D01*
X54057034Y-43154003D01*
X54063202Y-43204245D01*
X54035633Y-43246697D01*
X53991099Y-43261598D01*
X42405297Y-43261598D01*
X42357731Y-43244285D01*
X42332421Y-43200448D01*
X42332327Y-43189751D01*
X42312573Y-43065024D01*
X42258573Y-42959044D01*
X42174462Y-42874933D01*
X42068482Y-42820933D01*
X41965129Y-42804564D01*
X41950999Y-42802327D01*
X41950998Y-42802327D01*
X41833515Y-42820933D01*
X41727535Y-42874933D01*
X41643424Y-42959044D01*
X41589424Y-43065024D01*
X41570818Y-43182508D01*
X39564858Y-43182508D01*
X39574129Y-43164313D01*
X39585514Y-43092427D01*
X39592736Y-43046830D01*
X39590081Y-43030069D01*
X39599739Y-42980383D01*
X39639078Y-42948527D01*
X39651595Y-42945406D01*
X39662053Y-42943749D01*
X39662055Y-42943750D01*
X39755154Y-42929004D01*
X39779538Y-42925143D01*
X39885518Y-42871143D01*
X39885517Y-42871143D01*
X39885520Y-42871142D01*
X39969628Y-42787034D01*
X39989938Y-42747174D01*
X40023629Y-42681052D01*
X40030679Y-42636539D01*
X40042236Y-42563569D01*
X40034267Y-42513256D01*
X40043925Y-42463570D01*
X40083264Y-42431715D01*
X40100134Y-42430238D01*
X40099979Y-42429259D01*
X40111553Y-42427425D01*
X40111555Y-42427426D01*
X40217546Y-42410639D01*
X40229038Y-42408819D01*
X40335018Y-42354819D01*
X40335017Y-42354819D01*
X40335020Y-42354818D01*
X40419128Y-42270710D01*
X40457828Y-42194757D01*
X40473129Y-42164728D01*
X40476379Y-42144207D01*
X40491736Y-42047245D01*
X40474459Y-41938158D01*
X40473129Y-41929761D01*
X40423875Y-41833095D01*
X40417706Y-41782854D01*
X40445275Y-41740401D01*
X40489809Y-41725500D01*
X41746914Y-41725500D01*
X41794480Y-41742813D01*
X41819790Y-41786650D01*
X41811000Y-41836500D01*
X41780509Y-41865435D01*
X41727533Y-41892427D01*
X41643424Y-41976536D01*
X41589424Y-42082516D01*
X41570818Y-42200000D01*
X41589424Y-42317483D01*
X41643424Y-42423463D01*
X41727535Y-42507574D01*
X41833515Y-42561574D01*
X41865641Y-42566661D01*
X41950999Y-42580181D01*
X42055885Y-42563569D01*
X42068482Y-42561574D01*
X42174462Y-42507574D01*
X42174461Y-42507574D01*
X42174464Y-42507573D01*
X42189172Y-42492865D01*
X42235048Y-42471473D01*
X42241498Y-42471191D01*
X54398144Y-42471191D01*
X54398920Y-42471473D01*
X54401856Y-42471191D01*
X55453809Y-42471191D01*
X55501375Y-42488504D01*
X55506135Y-42492865D01*
X55566535Y-42553265D01*
X55672515Y-42607265D01*
X55700777Y-42611740D01*
X55789999Y-42625872D01*
X55891418Y-42609808D01*
X55907482Y-42607265D01*
X56013462Y-42553265D01*
X56013461Y-42553265D01*
X56013464Y-42553264D01*
X56097572Y-42469156D01*
X56117901Y-42429259D01*
X56151573Y-42363174D01*
X56154116Y-42347110D01*
X56170180Y-42245691D01*
X56152273Y-42132626D01*
X56151573Y-42128207D01*
X56097573Y-42022227D01*
X56013462Y-41938116D01*
X55907482Y-41884116D01*
X55789999Y-41865510D01*
X55672515Y-41884116D01*
X55566535Y-41938116D01*
X55506135Y-41998517D01*
X55460259Y-42019909D01*
X55453809Y-42020191D01*
X42326162Y-42020191D01*
X42278596Y-42002878D01*
X42260229Y-41979788D01*
X42258572Y-41976535D01*
X42174464Y-41892427D01*
X42174463Y-41892426D01*
X42121489Y-41865435D01*
X42086967Y-41828414D01*
X42084317Y-41777865D01*
X42114781Y-41737438D01*
X42155084Y-41725500D01*
X49068581Y-41725500D01*
X49072454Y-41725601D01*
X49112506Y-41727700D01*
X49135254Y-41718967D01*
X49146372Y-41715673D01*
X49170210Y-41710607D01*
X49177086Y-41705610D01*
X49194066Y-41696392D01*
X49216689Y-41687709D01*
X49217315Y-41689340D01*
X49242004Y-41677828D01*
X49248454Y-41677546D01*
X60339018Y-41677546D01*
X60386584Y-41694859D01*
X60411894Y-41738696D01*
X60404953Y-41785139D01*
X60363562Y-41866374D01*
X60342477Y-41999500D01*
X60363562Y-42132626D01*
X60424753Y-42252720D01*
X60520061Y-42348028D01*
X60640155Y-42409219D01*
X60773281Y-42430304D01*
X60906407Y-42409219D01*
X61026501Y-42348028D01*
X61121809Y-42252720D01*
X61183000Y-42132626D01*
X61204085Y-41999500D01*
X61183000Y-41866374D01*
X61141608Y-41785139D01*
X61135441Y-41734899D01*
X61163010Y-41692447D01*
X61207544Y-41677546D01*
X63771942Y-41677546D01*
X63819508Y-41694859D01*
X63844818Y-41738696D01*
X63839779Y-41772412D01*
X63840259Y-41772488D01*
X63819819Y-41901546D01*
X63822298Y-41917205D01*
X63812638Y-41966893D01*
X63801535Y-41981104D01*
X63146100Y-42636539D01*
X63143292Y-42639204D01*
X63113490Y-42666039D01*
X63103581Y-42688294D01*
X63098043Y-42698494D01*
X63084773Y-42718927D01*
X63083443Y-42727328D01*
X63077960Y-42745842D01*
X63074500Y-42753614D01*
X63074500Y-42777971D01*
X63073589Y-42789547D01*
X63069777Y-42813609D01*
X63069778Y-42813611D01*
X63071740Y-42820934D01*
X63071978Y-42821820D01*
X63074500Y-42840975D01*
X63074500Y-43297673D01*
X63057187Y-43345239D01*
X63013350Y-43370549D01*
X62966905Y-43363608D01*
X62917481Y-43338425D01*
X62800000Y-43319819D01*
X62682516Y-43338425D01*
X62576536Y-43392425D01*
X62516136Y-43452826D01*
X62470260Y-43474218D01*
X62463810Y-43474500D01*
X59844246Y-43474500D01*
X59840374Y-43474399D01*
X59800332Y-43472300D01*
X59777590Y-43481030D01*
X59766461Y-43484326D01*
X59742628Y-43489392D01*
X59735745Y-43494393D01*
X59718776Y-43503607D01*
X59710836Y-43506655D01*
X59693606Y-43523884D01*
X59684781Y-43531421D01*
X59665073Y-43545740D01*
X59660821Y-43553105D01*
X59649064Y-43568426D01*
X56864666Y-46352826D01*
X56818790Y-46374218D01*
X56812340Y-46374500D01*
X54902327Y-46374500D01*
X54854761Y-46357187D01*
X54829451Y-46313350D01*
X54836392Y-46266905D01*
X54857345Y-46225782D01*
X54861574Y-46217482D01*
X54880181Y-46100000D01*
X54861574Y-45982518D01*
X54861574Y-45982516D01*
X54807574Y-45876536D01*
X54723463Y-45792425D01*
X54617483Y-45738425D01*
X54500000Y-45719819D01*
X54382516Y-45738425D01*
X54276536Y-45792425D01*
X54192425Y-45876536D01*
X54138425Y-45982516D01*
X54119819Y-46100000D01*
X54138425Y-46217481D01*
X54189788Y-46318287D01*
X54195956Y-46368529D01*
X54176178Y-46404209D01*
X54156504Y-46423882D01*
X54147677Y-46431421D01*
X54127969Y-46445740D01*
X54123717Y-46453105D01*
X54111960Y-46468426D01*
X53646100Y-46934286D01*
X53643292Y-46936951D01*
X53613490Y-46963786D01*
X53603581Y-46986041D01*
X53598043Y-46996241D01*
X53584773Y-47016674D01*
X53583443Y-47025075D01*
X53577960Y-47043589D01*
X53574500Y-47051361D01*
X53574500Y-47075719D01*
X53573589Y-47087294D01*
X53569777Y-47111357D01*
X53571978Y-47119570D01*
X53574499Y-47138720D01*
X53574499Y-47263810D01*
X53557186Y-47311376D01*
X53552825Y-47316136D01*
X53492425Y-47376536D01*
X53438425Y-47482516D01*
X53419819Y-47600000D01*
X53438425Y-47717483D01*
X53492425Y-47823463D01*
X53492426Y-47823465D01*
X53492427Y-47823465D01*
X53576535Y-47907573D01*
X53629510Y-47934565D01*
X53664032Y-47971586D01*
X53666682Y-48022135D01*
X53636218Y-48062562D01*
X53595915Y-48074500D01*
X52348364Y-48074500D01*
X52300798Y-48057187D01*
X52296038Y-48052826D01*
X51588815Y-47345603D01*
X51586148Y-47342793D01*
X51582215Y-47338425D01*
X51559315Y-47312992D01*
X51559314Y-47312991D01*
X51559313Y-47312990D01*
X51537061Y-47303083D01*
X51526859Y-47297545D01*
X51506426Y-47284275D01*
X51506425Y-47284274D01*
X51506424Y-47284274D01*
X51498025Y-47282944D01*
X51479508Y-47277459D01*
X51471740Y-47274001D01*
X51447381Y-47274001D01*
X51435806Y-47273090D01*
X51411743Y-47269279D01*
X51403529Y-47271480D01*
X51384378Y-47274001D01*
X47244049Y-47274001D01*
X47240176Y-47273900D01*
X47236243Y-47273693D01*
X47200124Y-47271801D01*
X47200123Y-47271801D01*
X47200122Y-47271801D01*
X47177381Y-47280530D01*
X47166252Y-47283827D01*
X47142418Y-47288893D01*
X47135536Y-47293894D01*
X47118567Y-47303108D01*
X47110627Y-47306156D01*
X47093397Y-47323385D01*
X47084572Y-47330922D01*
X47064864Y-47345241D01*
X47060612Y-47352606D01*
X47048855Y-47367927D01*
X46358130Y-48058652D01*
X46312254Y-48080044D01*
X46263359Y-48066943D01*
X46239870Y-48039923D01*
X46207573Y-47976535D01*
X46123465Y-47892427D01*
X46123465Y-47892426D01*
X46123463Y-47892425D01*
X46017483Y-47838425D01*
X45914130Y-47822056D01*
X45900000Y-47819819D01*
X45899999Y-47819819D01*
X45884338Y-47822299D01*
X45834650Y-47812637D01*
X45820440Y-47801535D01*
X44965506Y-46946601D01*
X44962839Y-46943791D01*
X44944537Y-46923465D01*
X44936006Y-46913990D01*
X44936005Y-46913989D01*
X44936004Y-46913988D01*
X44913752Y-46904081D01*
X44903550Y-46898543D01*
X44883117Y-46885273D01*
X44883116Y-46885272D01*
X44883115Y-46885272D01*
X44874716Y-46883942D01*
X44856199Y-46878457D01*
X44848431Y-46874999D01*
X44824072Y-46874999D01*
X44812497Y-46874088D01*
X44788434Y-46870277D01*
X44780220Y-46872478D01*
X44761069Y-46874999D01*
X39624557Y-46874999D01*
X39576991Y-46857686D01*
X39572231Y-46853325D01*
X38418905Y-45700000D01*
X46719819Y-45700000D01*
X46738425Y-45817483D01*
X46792425Y-45923463D01*
X46876536Y-46007574D01*
X46982516Y-46061574D01*
X47006334Y-46065346D01*
X47100000Y-46080181D01*
X47201419Y-46064117D01*
X47217483Y-46061574D01*
X47323463Y-46007574D01*
X47323462Y-46007574D01*
X47323465Y-46007573D01*
X47407573Y-45923465D01*
X47423389Y-45892425D01*
X47461574Y-45817483D01*
X47465542Y-45792427D01*
X47480181Y-45700000D01*
X47465542Y-45607573D01*
X47461574Y-45582516D01*
X47419530Y-45500000D01*
X49219819Y-45500000D01*
X49238425Y-45617483D01*
X49292425Y-45723463D01*
X49376536Y-45807574D01*
X49482516Y-45861574D01*
X49510778Y-45866049D01*
X49600000Y-45880181D01*
X49701419Y-45864117D01*
X49717483Y-45861574D01*
X49823463Y-45807574D01*
X49823462Y-45807574D01*
X49823465Y-45807573D01*
X49907573Y-45723465D01*
X49920903Y-45697304D01*
X49961574Y-45617483D01*
X49965872Y-45590343D01*
X49980181Y-45500000D01*
X49963971Y-45397654D01*
X49961574Y-45382516D01*
X49919530Y-45300000D01*
X50519819Y-45300000D01*
X50538425Y-45417483D01*
X50592425Y-45523463D01*
X50676536Y-45607574D01*
X50782516Y-45661574D01*
X50810778Y-45666049D01*
X50900000Y-45680181D01*
X51004640Y-45663608D01*
X51017483Y-45661574D01*
X51123463Y-45607574D01*
X51123462Y-45607574D01*
X51123465Y-45607573D01*
X51207573Y-45523465D01*
X51234065Y-45471470D01*
X51271086Y-45436949D01*
X51321635Y-45434299D01*
X51362061Y-45464763D01*
X51365932Y-45471467D01*
X51380471Y-45500000D01*
X51392427Y-45523465D01*
X51476536Y-45607574D01*
X51582516Y-45661574D01*
X51610778Y-45666049D01*
X51700000Y-45680181D01*
X51804640Y-45663608D01*
X51817483Y-45661574D01*
X51923463Y-45607574D01*
X51923462Y-45607574D01*
X51923465Y-45607573D01*
X51947674Y-45583363D01*
X51993550Y-45561972D01*
X52042445Y-45575073D01*
X52052326Y-45583364D01*
X52076536Y-45607574D01*
X52182516Y-45661574D01*
X52210778Y-45666049D01*
X52300000Y-45680181D01*
X52404640Y-45663608D01*
X52417483Y-45661574D01*
X52523463Y-45607574D01*
X52523462Y-45607574D01*
X52523465Y-45607573D01*
X52607573Y-45523465D01*
X52640876Y-45458104D01*
X52661574Y-45417483D01*
X52665542Y-45392427D01*
X52680181Y-45300000D01*
X52663163Y-45192551D01*
X52661574Y-45182516D01*
X52607574Y-45076536D01*
X52523463Y-44992425D01*
X52417483Y-44938425D01*
X52300000Y-44919819D01*
X52182516Y-44938425D01*
X52076536Y-44992425D01*
X52052325Y-45016636D01*
X52006448Y-45038028D01*
X51957554Y-45024926D01*
X51947675Y-45016636D01*
X51923463Y-44992425D01*
X51817483Y-44938425D01*
X51700000Y-44919819D01*
X51582516Y-44938425D01*
X51476536Y-44992425D01*
X51392425Y-45076536D01*
X51365933Y-45128529D01*
X51328912Y-45163051D01*
X51278362Y-45165699D01*
X51237937Y-45135235D01*
X51234065Y-45128529D01*
X51207573Y-45076535D01*
X51123465Y-44992427D01*
X51123465Y-44992426D01*
X51123463Y-44992425D01*
X51017483Y-44938425D01*
X50900000Y-44919819D01*
X50782516Y-44938425D01*
X50676536Y-44992425D01*
X50592425Y-45076536D01*
X50538425Y-45182516D01*
X50519819Y-45300000D01*
X49919530Y-45300000D01*
X49907574Y-45276536D01*
X49823463Y-45192425D01*
X49717483Y-45138425D01*
X49600000Y-45119819D01*
X49482516Y-45138425D01*
X49376536Y-45192425D01*
X49292425Y-45276536D01*
X49238425Y-45382516D01*
X49219819Y-45500000D01*
X47419530Y-45500000D01*
X47407574Y-45476536D01*
X47323463Y-45392425D01*
X47217483Y-45338425D01*
X47100000Y-45319819D01*
X46982516Y-45338425D01*
X46876536Y-45392425D01*
X46792425Y-45476536D01*
X46738425Y-45582516D01*
X46719819Y-45700000D01*
X38418905Y-45700000D01*
X37918905Y-45200000D01*
X45119819Y-45200000D01*
X45138425Y-45317483D01*
X45192425Y-45423463D01*
X45276536Y-45507574D01*
X45382516Y-45561574D01*
X45410778Y-45566049D01*
X45500000Y-45580181D01*
X45601419Y-45564117D01*
X45617483Y-45561574D01*
X45723463Y-45507574D01*
X45723462Y-45507574D01*
X45723465Y-45507573D01*
X45807573Y-45423465D01*
X45843894Y-45352181D01*
X45861574Y-45317483D01*
X45864343Y-45300000D01*
X45880181Y-45200000D01*
X45863352Y-45093743D01*
X45861574Y-45082516D01*
X45807574Y-44976536D01*
X45723463Y-44892425D01*
X45617483Y-44838425D01*
X45500000Y-44819819D01*
X45382516Y-44838425D01*
X45276536Y-44892425D01*
X45192425Y-44976536D01*
X45138425Y-45082516D01*
X45119819Y-45200000D01*
X37918905Y-45200000D01*
X36565506Y-43846601D01*
X36562839Y-43843791D01*
X36536004Y-43813988D01*
X36513752Y-43804081D01*
X36503550Y-43798543D01*
X36483117Y-43785273D01*
X36483116Y-43785272D01*
X36483115Y-43785272D01*
X36474716Y-43783942D01*
X36456199Y-43778457D01*
X36448431Y-43774999D01*
X36424072Y-43774999D01*
X36412497Y-43774088D01*
X36388434Y-43770277D01*
X36380220Y-43772478D01*
X36361069Y-43774999D01*
X35134691Y-43774999D01*
X35087125Y-43757686D01*
X35061815Y-43713849D01*
X35070605Y-43663999D01*
X35082365Y-43648673D01*
X35090042Y-43640996D01*
X35107573Y-43623465D01*
X35138540Y-43562689D01*
X35161574Y-43517483D01*
X35168059Y-43476535D01*
X35180181Y-43400000D01*
X35165542Y-43307573D01*
X35161574Y-43282516D01*
X35107574Y-43176536D01*
X35023463Y-43092425D01*
X34917483Y-43038425D01*
X34800000Y-43019819D01*
X34682516Y-43038425D01*
X34576536Y-43092425D01*
X34492425Y-43176536D01*
X34438425Y-43282516D01*
X34419819Y-43400000D01*
X34438425Y-43517483D01*
X34492425Y-43623463D01*
X34517635Y-43648673D01*
X34539027Y-43694549D01*
X34525926Y-43743444D01*
X34484462Y-43772478D01*
X34465309Y-43774999D01*
X32051744Y-43774999D01*
X32004178Y-43757686D01*
X31999418Y-43753325D01*
X29138474Y-40892381D01*
X29117082Y-40846505D01*
X29116800Y-40840055D01*
X29116800Y-38715630D01*
X29134113Y-38668064D01*
X29177950Y-38642754D01*
X29227800Y-38651544D01*
X29239872Y-38660241D01*
X29262752Y-38680512D01*
X29314313Y-38707573D01*
X29412025Y-38758856D01*
X29575709Y-38799200D01*
X29575710Y-38799200D01*
X29744290Y-38799200D01*
X29744291Y-38799200D01*
X29907975Y-38758856D01*
X30057247Y-38680512D01*
X30183433Y-38568721D01*
X30279199Y-38429980D01*
X30338979Y-38272353D01*
X30359299Y-38105000D01*
X30338979Y-37937647D01*
X30279199Y-37780020D01*
X30183433Y-37641279D01*
X30057247Y-37529488D01*
X30057246Y-37529487D01*
X30052621Y-37525390D01*
X30028498Y-37480889D01*
X30038623Y-37431293D01*
X30052621Y-37414610D01*
X30060564Y-37407573D01*
X30183433Y-37298721D01*
X30279199Y-37159980D01*
X30338979Y-37002353D01*
X30359299Y-36835000D01*
X30338979Y-36667647D01*
X30279199Y-36510020D01*
X30183433Y-36371279D01*
X30057247Y-36259488D01*
X30057246Y-36259487D01*
X30052621Y-36255390D01*
X30028498Y-36210889D01*
X30038623Y-36161293D01*
X30052621Y-36144610D01*
X30057247Y-36140512D01*
X30183433Y-36028721D01*
X30279199Y-35889980D01*
X30338979Y-35732353D01*
X30359299Y-35565000D01*
X30338979Y-35397647D01*
X30302951Y-35302651D01*
X30302272Y-35252040D01*
X30319815Y-35224089D01*
X30882116Y-34661787D01*
X30884888Y-34659156D01*
X30914710Y-34632306D01*
X30924622Y-34610039D01*
X30930158Y-34599846D01*
X30943426Y-34579417D01*
X30944755Y-34571020D01*
X30950241Y-34552500D01*
X30953701Y-34544731D01*
X30953701Y-34520371D01*
X30954612Y-34508794D01*
X30957204Y-34492427D01*
X30958423Y-34484734D01*
X30956221Y-34476517D01*
X30953701Y-34457374D01*
X30953701Y-31695855D01*
X30971014Y-31648289D01*
X30975364Y-31643540D01*
X31385431Y-31233473D01*
X31431308Y-31212082D01*
X31437757Y-31211800D01*
X31590432Y-31211800D01*
X31637998Y-31229113D01*
G37*
%TD.AperFunction*%
%TA.AperFunction,Conductor*%
G36*
X62511376Y-43942813D02*
G01*
X62516136Y-43947174D01*
X62576536Y-44007574D01*
X62682516Y-44061574D01*
X62710778Y-44066049D01*
X62800000Y-44080181D01*
X62917482Y-44061574D01*
X62966904Y-44036391D01*
X63017146Y-44030222D01*
X63059599Y-44057791D01*
X63074500Y-44102326D01*
X63074500Y-45597673D01*
X63057187Y-45645239D01*
X63013350Y-45670549D01*
X62966905Y-45663608D01*
X62917481Y-45638425D01*
X62800000Y-45619819D01*
X62682516Y-45638425D01*
X62576536Y-45692425D01*
X62492425Y-45776536D01*
X62438425Y-45882516D01*
X62419819Y-45999999D01*
X62422298Y-46015658D01*
X62412638Y-46065346D01*
X62401535Y-46079557D01*
X62128269Y-46352826D01*
X62082393Y-46374218D01*
X62075943Y-46374500D01*
X60724058Y-46374500D01*
X60676492Y-46357187D01*
X60671732Y-46352826D01*
X60165005Y-45846100D01*
X60162339Y-45843290D01*
X60135507Y-45813490D01*
X60113251Y-45803581D01*
X60103050Y-45798042D01*
X60082618Y-45784774D01*
X60074217Y-45783443D01*
X60055700Y-45777958D01*
X60047932Y-45774500D01*
X60023573Y-45774500D01*
X60011998Y-45773589D01*
X59987935Y-45769778D01*
X59979721Y-45771979D01*
X59960570Y-45774500D01*
X58608568Y-45774500D01*
X58604695Y-45774399D01*
X58600762Y-45774192D01*
X58564643Y-45772300D01*
X58564642Y-45772300D01*
X58564641Y-45772300D01*
X58541892Y-45781032D01*
X58530763Y-45784328D01*
X58506938Y-45789392D01*
X58500060Y-45794390D01*
X58483090Y-45803604D01*
X58475146Y-45806653D01*
X58457913Y-45823886D01*
X58449087Y-45831424D01*
X58429383Y-45845740D01*
X58425132Y-45853103D01*
X58413375Y-45868424D01*
X56596770Y-47685029D01*
X56550894Y-47706421D01*
X56501999Y-47693320D01*
X56472965Y-47651856D01*
X56471357Y-47644290D01*
X56462000Y-47585208D01*
X56461574Y-47582516D01*
X56407574Y-47476536D01*
X56323463Y-47392425D01*
X56217483Y-47338425D01*
X56122515Y-47323385D01*
X56100000Y-47319819D01*
X56099999Y-47319819D01*
X56099998Y-47319819D01*
X56062111Y-47325819D01*
X56012423Y-47316160D01*
X55980568Y-47276820D01*
X55977448Y-47241156D01*
X55983449Y-47203268D01*
X55964842Y-47085786D01*
X55964842Y-47085784D01*
X55910842Y-46979804D01*
X55882864Y-46951826D01*
X55861472Y-46905950D01*
X55874573Y-46857055D01*
X55916037Y-46828021D01*
X55935190Y-46825500D01*
X56928536Y-46825500D01*
X56932409Y-46825601D01*
X56972461Y-46827700D01*
X56995209Y-46818967D01*
X57006327Y-46815673D01*
X57030165Y-46810607D01*
X57037041Y-46805610D01*
X57054021Y-46796392D01*
X57054018Y-46796392D01*
X57061957Y-46793346D01*
X57079191Y-46776111D01*
X57088017Y-46768574D01*
X57107720Y-46754260D01*
X57111969Y-46746898D01*
X57123726Y-46731575D01*
X59155301Y-44700000D01*
X59519819Y-44700000D01*
X59538425Y-44817483D01*
X59592425Y-44923463D01*
X59676536Y-45007574D01*
X59782516Y-45061574D01*
X59810778Y-45066049D01*
X59900000Y-45080181D01*
X60001419Y-45064117D01*
X60017483Y-45061574D01*
X60123463Y-45007574D01*
X60123462Y-45007574D01*
X60123465Y-45007573D01*
X60207573Y-44923465D01*
X60223728Y-44891757D01*
X60260748Y-44857236D01*
X60311298Y-44854586D01*
X60341989Y-44873027D01*
X60376536Y-44907574D01*
X60482516Y-44961574D01*
X60510778Y-44966049D01*
X60600000Y-44980181D01*
X60701419Y-44964117D01*
X60717483Y-44961574D01*
X60823463Y-44907574D01*
X60823462Y-44907574D01*
X60823465Y-44907573D01*
X60907573Y-44823465D01*
X60944097Y-44751783D01*
X60961574Y-44717483D01*
X60966684Y-44685219D01*
X60980181Y-44600000D01*
X60963167Y-44492576D01*
X60961574Y-44482516D01*
X60907574Y-44376536D01*
X60823463Y-44292425D01*
X60717483Y-44238425D01*
X60600000Y-44219819D01*
X60482516Y-44238425D01*
X60376536Y-44292425D01*
X60292426Y-44376535D01*
X60276270Y-44408243D01*
X60239249Y-44442764D01*
X60188699Y-44445412D01*
X60158010Y-44426972D01*
X60123463Y-44392425D01*
X60017483Y-44338425D01*
X59900000Y-44319819D01*
X59782516Y-44338425D01*
X59676536Y-44392425D01*
X59592425Y-44476536D01*
X59538425Y-44582516D01*
X59519819Y-44700000D01*
X59155301Y-44700000D01*
X59908127Y-43947174D01*
X59954004Y-43925782D01*
X59960454Y-43925500D01*
X62463810Y-43925500D01*
X62511376Y-43942813D01*
G37*
%TD.AperFunction*%
%TA.AperFunction,Conductor*%
G36*
X59594481Y-46242813D02*
G01*
X59619791Y-46286650D01*
X59611001Y-46336500D01*
X59580510Y-46365434D01*
X59572345Y-46369594D01*
X59527534Y-46392427D01*
X59443425Y-46476536D01*
X59389425Y-46582516D01*
X59370819Y-46700000D01*
X59389425Y-46817483D01*
X59443425Y-46923463D01*
X59527536Y-47007574D01*
X59554029Y-47021073D01*
X59588550Y-47058093D01*
X59591199Y-47108643D01*
X59560736Y-47149069D01*
X59554029Y-47152941D01*
X59476536Y-47192425D01*
X59392425Y-47276536D01*
X59338425Y-47382516D01*
X59319819Y-47500000D01*
X59338425Y-47617483D01*
X59392425Y-47723463D01*
X59476536Y-47807574D01*
X59582516Y-47861574D01*
X59610778Y-47866049D01*
X59700000Y-47880181D01*
X59801666Y-47864079D01*
X59817483Y-47861574D01*
X59923463Y-47807574D01*
X59923462Y-47807574D01*
X59923465Y-47807573D01*
X60007573Y-47723465D01*
X60033999Y-47671601D01*
X60061574Y-47617483D01*
X60066685Y-47585209D01*
X60080181Y-47500000D01*
X60065250Y-47405725D01*
X60061574Y-47382516D01*
X60007574Y-47276536D01*
X59923463Y-47192425D01*
X59896970Y-47178926D01*
X59862448Y-47141905D01*
X59859800Y-47091355D01*
X59890264Y-47050930D01*
X59896954Y-47047066D01*
X59974465Y-47007573D01*
X60058573Y-46923465D01*
X60069656Y-46901713D01*
X60112574Y-46817483D01*
X60116397Y-46793346D01*
X60131181Y-46700000D01*
X60119777Y-46627997D01*
X60129436Y-46578310D01*
X60168774Y-46546455D01*
X60219385Y-46547338D01*
X60245192Y-46564097D01*
X60434992Y-46753897D01*
X60437658Y-46756707D01*
X60464492Y-46786509D01*
X60486747Y-46796418D01*
X60496953Y-46801959D01*
X60517382Y-46815226D01*
X60525781Y-46816556D01*
X60544300Y-46822042D01*
X60552067Y-46825500D01*
X60552068Y-46825500D01*
X60576427Y-46825500D01*
X60588002Y-46826411D01*
X60591544Y-46826971D01*
X60612065Y-46830222D01*
X60620279Y-46828020D01*
X60639430Y-46825500D01*
X62192139Y-46825500D01*
X62196012Y-46825601D01*
X62236064Y-46827700D01*
X62258812Y-46818967D01*
X62269930Y-46815673D01*
X62293768Y-46810607D01*
X62300644Y-46805610D01*
X62317624Y-46796392D01*
X62317621Y-46796392D01*
X62325560Y-46793346D01*
X62342793Y-46776112D01*
X62351616Y-46768577D01*
X62371323Y-46754260D01*
X62375572Y-46746898D01*
X62387329Y-46731575D01*
X62720442Y-46398462D01*
X62766316Y-46377071D01*
X62784335Y-46377699D01*
X62800000Y-46380181D01*
X62917482Y-46361574D01*
X62966904Y-46336391D01*
X63017146Y-46330222D01*
X63059599Y-46357791D01*
X63074500Y-46402326D01*
X63074500Y-47575942D01*
X63057187Y-47623508D01*
X63052826Y-47628268D01*
X61928269Y-48752826D01*
X61882393Y-48774218D01*
X61875943Y-48774500D01*
X61160745Y-48774500D01*
X61156872Y-48774399D01*
X61152939Y-48774192D01*
X61116820Y-48772300D01*
X61116819Y-48772300D01*
X61116818Y-48772300D01*
X61094069Y-48781032D01*
X61082940Y-48784328D01*
X61059115Y-48789392D01*
X61052237Y-48794390D01*
X61035267Y-48803604D01*
X61027323Y-48806653D01*
X61010093Y-48823883D01*
X61001268Y-48831420D01*
X60981561Y-48845739D01*
X60977309Y-48853103D01*
X60965552Y-48868423D01*
X60781153Y-49052825D01*
X60735277Y-49074218D01*
X60728827Y-49074500D01*
X60504085Y-49074500D01*
X60456519Y-49057187D01*
X60431209Y-49013350D01*
X60439999Y-48963500D01*
X60470490Y-48934565D01*
X60478034Y-48930721D01*
X60523465Y-48907573D01*
X60607573Y-48823465D01*
X60617693Y-48803604D01*
X60661574Y-48717483D01*
X60664117Y-48701419D01*
X60680181Y-48600000D01*
X60664560Y-48501371D01*
X60661574Y-48482516D01*
X60607574Y-48376536D01*
X60523463Y-48292425D01*
X60417483Y-48238425D01*
X60300000Y-48219819D01*
X60182516Y-48238425D01*
X60076536Y-48292425D01*
X59992425Y-48376536D01*
X59938425Y-48482516D01*
X59919819Y-48600000D01*
X59938425Y-48717483D01*
X59992425Y-48823463D01*
X59992426Y-48823465D01*
X59992427Y-48823465D01*
X60076535Y-48907573D01*
X60121675Y-48930573D01*
X60129510Y-48934565D01*
X60164032Y-48971586D01*
X60166682Y-49022135D01*
X60136218Y-49062562D01*
X60095915Y-49074500D01*
X58024057Y-49074500D01*
X57976491Y-49057187D01*
X57971731Y-49052826D01*
X57532852Y-48613947D01*
X57530185Y-48611137D01*
X57503352Y-48581336D01*
X57503351Y-48581335D01*
X57503350Y-48581334D01*
X57481098Y-48571427D01*
X57470896Y-48565889D01*
X57450463Y-48552619D01*
X57450462Y-48552618D01*
X57450461Y-48552618D01*
X57442062Y-48551288D01*
X57423545Y-48545803D01*
X57415777Y-48542345D01*
X57391418Y-48542345D01*
X57379843Y-48541434D01*
X57355780Y-48537623D01*
X57347566Y-48539824D01*
X57328415Y-48542345D01*
X56555918Y-48542345D01*
X56508352Y-48525032D01*
X56483042Y-48481195D01*
X56491832Y-48431345D01*
X56503592Y-48416019D01*
X57529311Y-47390301D01*
X58672437Y-46247174D01*
X58718314Y-46225782D01*
X58724764Y-46225500D01*
X59546915Y-46225500D01*
X59594481Y-46242813D01*
G37*
%TD.AperFunction*%
%TA.AperFunction,Conductor*%
G36*
X66040933Y-48367813D02*
G01*
X66066243Y-48411650D01*
X66057453Y-48461500D01*
X66054268Y-48466536D01*
X65999780Y-48545476D01*
X65943762Y-48693183D01*
X65924722Y-48849999D01*
X65943762Y-49006816D01*
X65999780Y-49154523D01*
X66089515Y-49284529D01*
X66155545Y-49343025D01*
X66207760Y-49389283D01*
X66265288Y-49419476D01*
X66299360Y-49456911D01*
X66301398Y-49507489D01*
X66270448Y-49547544D01*
X66265295Y-49550519D01*
X66215728Y-49576535D01*
X66207758Y-49580718D01*
X66089517Y-49685469D01*
X66005900Y-49806609D01*
X65964631Y-49835920D01*
X65914176Y-49831847D01*
X65884098Y-49806608D01*
X65875288Y-49793845D01*
X65858189Y-49769072D01*
X65800484Y-49685470D01*
X65682241Y-49580718D01*
X65682240Y-49580717D01*
X65542365Y-49507304D01*
X65388985Y-49469500D01*
X65231015Y-49469500D01*
X65107752Y-49499881D01*
X65077635Y-49507304D01*
X64937758Y-49580718D01*
X64819515Y-49685470D01*
X64729780Y-49815476D01*
X64673762Y-49963183D01*
X64654722Y-50120000D01*
X64673762Y-50276816D01*
X64700933Y-50348459D01*
X64701613Y-50399074D01*
X64684068Y-50427026D01*
X64358269Y-50752826D01*
X64312393Y-50774218D01*
X64305943Y-50774500D01*
X62259454Y-50774500D01*
X62211888Y-50757187D01*
X62186578Y-50713350D01*
X62195368Y-50663500D01*
X62207128Y-50648174D01*
X63342216Y-49513087D01*
X64483128Y-48372174D01*
X64529005Y-48350782D01*
X64535455Y-48350500D01*
X65993367Y-48350500D01*
X66040933Y-48367813D01*
G37*
%TD.AperFunction*%
%TA.AperFunction,Conductor*%
G36*
X54611338Y-49041815D02*
G01*
X54636648Y-49085652D01*
X54629707Y-49132097D01*
X54616032Y-49158934D01*
X54597426Y-49276415D01*
X54616032Y-49393899D01*
X54621537Y-49404702D01*
X54627705Y-49454943D01*
X54600135Y-49497396D01*
X54555602Y-49512296D01*
X52509055Y-49512296D01*
X52461489Y-49494983D01*
X52436179Y-49451146D01*
X52443120Y-49404701D01*
X52458253Y-49374999D01*
X52461574Y-49368482D01*
X52480181Y-49251000D01*
X52461574Y-49133518D01*
X52460850Y-49132097D01*
X52454682Y-49081856D01*
X52482251Y-49039403D01*
X52526785Y-49024502D01*
X54563772Y-49024502D01*
X54611338Y-49041815D01*
G37*
%TD.AperFunction*%
%TA.AperFunction,Conductor*%
G36*
X61136697Y-31084916D02*
G01*
X61176749Y-31087015D01*
X61176750Y-31087014D01*
X61182656Y-31087324D01*
X61196196Y-31084815D01*
X61211383Y-31084815D01*
X61235742Y-31084815D01*
X61247317Y-31085726D01*
X61250859Y-31086286D01*
X61271380Y-31089537D01*
X61279594Y-31087335D01*
X61298745Y-31084815D01*
X63680138Y-31084815D01*
X63727704Y-31102128D01*
X63753014Y-31145965D01*
X63744224Y-31195815D01*
X63729209Y-31214205D01*
X63636567Y-31296278D01*
X63540800Y-31435021D01*
X63481020Y-31592648D01*
X63460701Y-31760000D01*
X63481020Y-31927351D01*
X63539867Y-32082516D01*
X63540801Y-32084980D01*
X63620194Y-32200000D01*
X63636567Y-32223721D01*
X63767378Y-32339610D01*
X63791502Y-32384111D01*
X63781376Y-32433707D01*
X63767378Y-32450390D01*
X63636567Y-32566278D01*
X63540800Y-32705021D01*
X63481020Y-32862648D01*
X63460701Y-33030000D01*
X63481020Y-33197351D01*
X63532117Y-33332081D01*
X63540801Y-33354980D01*
X63555680Y-33376536D01*
X63636567Y-33493721D01*
X63767378Y-33609610D01*
X63791502Y-33654111D01*
X63781376Y-33703707D01*
X63767378Y-33720390D01*
X63636567Y-33836278D01*
X63540800Y-33975021D01*
X63481020Y-34132648D01*
X63460701Y-34299999D01*
X63481020Y-34467351D01*
X63538891Y-34619943D01*
X63540801Y-34624980D01*
X63609070Y-34723884D01*
X63636567Y-34763721D01*
X63767378Y-34879610D01*
X63791502Y-34924111D01*
X63781376Y-34973707D01*
X63767378Y-34990390D01*
X63636567Y-35106278D01*
X63540800Y-35245021D01*
X63481020Y-35402648D01*
X63460701Y-35570000D01*
X63481020Y-35737351D01*
X63534391Y-35878077D01*
X63540801Y-35894980D01*
X63636567Y-36033721D01*
X63761735Y-36144610D01*
X63767378Y-36149609D01*
X63791501Y-36194110D01*
X63781376Y-36243706D01*
X63767378Y-36260388D01*
X63636569Y-36376276D01*
X63540800Y-36515021D01*
X63481020Y-36672648D01*
X63460701Y-36840000D01*
X63481020Y-37007351D01*
X63533116Y-37144715D01*
X63540801Y-37164980D01*
X63609179Y-37264043D01*
X63636567Y-37303721D01*
X63767378Y-37419610D01*
X63791502Y-37464111D01*
X63781376Y-37513707D01*
X63767378Y-37530390D01*
X63636567Y-37646278D01*
X63540799Y-37785022D01*
X63521186Y-37836740D01*
X63488132Y-37875077D01*
X63451995Y-37884500D01*
X63062910Y-37884500D01*
X63015344Y-37867187D01*
X62990034Y-37823350D01*
X62998824Y-37773500D01*
X63010584Y-37758174D01*
X63014599Y-37754159D01*
X63093003Y-37675755D01*
X63108022Y-37646278D01*
X63147004Y-37569773D01*
X63154033Y-37525390D01*
X63165611Y-37452290D01*
X63147004Y-37334808D01*
X63147004Y-37334806D01*
X63093004Y-37228826D01*
X63008893Y-37144715D01*
X62902913Y-37090715D01*
X62785430Y-37072109D01*
X62667946Y-37090715D01*
X62561966Y-37144715D01*
X62477855Y-37228826D01*
X62423855Y-37334806D01*
X62405249Y-37452290D01*
X62423855Y-37569773D01*
X62477855Y-37675753D01*
X62560276Y-37758174D01*
X62581668Y-37804050D01*
X62568567Y-37852945D01*
X62527103Y-37881979D01*
X62507950Y-37884500D01*
X61834057Y-37884500D01*
X61786491Y-37867187D01*
X61781731Y-37862826D01*
X61117618Y-37198713D01*
X61511328Y-37198713D01*
X61511503Y-37199815D01*
X61529934Y-37316196D01*
X61583934Y-37422176D01*
X61668045Y-37506287D01*
X61774025Y-37560287D01*
X61806151Y-37565374D01*
X61891509Y-37578894D01*
X61994860Y-37562524D01*
X62008992Y-37560287D01*
X62114972Y-37506287D01*
X62114971Y-37506287D01*
X62114974Y-37506286D01*
X62199082Y-37422178D01*
X62202332Y-37415800D01*
X62253083Y-37316196D01*
X62260386Y-37270083D01*
X62271690Y-37198713D01*
X62253083Y-37081231D01*
X62253083Y-37081229D01*
X62199083Y-36975249D01*
X62114972Y-36891138D01*
X62008992Y-36837138D01*
X61891509Y-36818532D01*
X61774025Y-36837138D01*
X61668045Y-36891138D01*
X61583934Y-36975249D01*
X61529934Y-37081229D01*
X61511328Y-37198712D01*
X61511328Y-37198713D01*
X61117618Y-37198713D01*
X60091099Y-36172194D01*
X60069707Y-36126318D01*
X60082808Y-36077423D01*
X60124272Y-36048389D01*
X60174699Y-36052801D01*
X60177020Y-36053934D01*
X60275611Y-36104169D01*
X60303873Y-36108644D01*
X60393095Y-36122776D01*
X60499332Y-36105950D01*
X60510578Y-36104169D01*
X60616558Y-36050169D01*
X60616557Y-36050169D01*
X60616560Y-36050168D01*
X60700668Y-35966060D01*
X60708886Y-35949932D01*
X60754669Y-35860078D01*
X60757212Y-35844014D01*
X60773276Y-35742595D01*
X60754669Y-35625113D01*
X60754669Y-35625111D01*
X60700669Y-35519131D01*
X60616558Y-35435020D01*
X60510578Y-35381020D01*
X60393095Y-35362414D01*
X60275611Y-35381020D01*
X60169631Y-35435020D01*
X60085520Y-35519131D01*
X60031520Y-35625111D01*
X60012914Y-35742595D01*
X60031520Y-35860076D01*
X60081756Y-35958669D01*
X60087924Y-36008910D01*
X60060355Y-36051363D01*
X60011948Y-36066163D01*
X59965353Y-36046384D01*
X59963495Y-36044590D01*
X59470067Y-35551162D01*
X59467400Y-35548352D01*
X59440565Y-35518549D01*
X59418313Y-35508642D01*
X59408111Y-35503104D01*
X59387678Y-35489834D01*
X59387677Y-35489833D01*
X59387676Y-35489833D01*
X59379277Y-35488503D01*
X59360760Y-35483018D01*
X59352992Y-35479560D01*
X59328633Y-35479560D01*
X59317058Y-35478649D01*
X59292995Y-35474838D01*
X59284781Y-35477039D01*
X59265630Y-35479560D01*
X57752917Y-35479560D01*
X57705351Y-35462247D01*
X57700591Y-35457886D01*
X57640190Y-35397485D01*
X57534210Y-35343485D01*
X57430857Y-35327116D01*
X57416727Y-35324879D01*
X57416726Y-35324879D01*
X57299243Y-35343485D01*
X57193263Y-35397485D01*
X57109152Y-35481596D01*
X57080255Y-35538311D01*
X57043235Y-35572832D01*
X56992685Y-35575481D01*
X56980726Y-35570650D01*
X56917481Y-35538425D01*
X56800000Y-35519819D01*
X56682516Y-35538425D01*
X56576536Y-35592425D01*
X56492425Y-35676536D01*
X56438425Y-35782516D01*
X56419819Y-35900000D01*
X56438425Y-36017483D01*
X56492425Y-36123463D01*
X56576536Y-36207574D01*
X56678528Y-36259542D01*
X56713050Y-36296562D01*
X56715700Y-36347112D01*
X56685236Y-36387538D01*
X56678531Y-36391409D01*
X56676536Y-36392425D01*
X56592425Y-36476536D01*
X56538425Y-36582516D01*
X56519819Y-36700000D01*
X56522298Y-36715659D01*
X56512638Y-36765347D01*
X56501535Y-36779558D01*
X53028269Y-40252826D01*
X52982393Y-40274218D01*
X52975943Y-40274500D01*
X50956436Y-40274500D01*
X50908870Y-40257187D01*
X50883560Y-40213350D01*
X50890502Y-40166905D01*
X50940905Y-40067983D01*
X50944196Y-40047205D01*
X50959512Y-39950500D01*
X50940905Y-39833018D01*
X50912987Y-39778227D01*
X50906818Y-39727988D01*
X50926594Y-39692310D01*
X51570528Y-39048376D01*
X51969319Y-39048376D01*
X51987925Y-39165859D01*
X52041925Y-39271839D01*
X52126036Y-39355950D01*
X52232016Y-39409950D01*
X52264142Y-39415037D01*
X52349500Y-39428557D01*
X52452851Y-39412187D01*
X52466983Y-39409950D01*
X52572963Y-39355950D01*
X52572962Y-39355950D01*
X52572965Y-39355949D01*
X52657073Y-39271841D01*
X52676855Y-39233016D01*
X52711074Y-39165859D01*
X52715615Y-39137187D01*
X52729681Y-39048376D01*
X52712467Y-38939687D01*
X52711074Y-38930892D01*
X52657074Y-38824912D01*
X52572963Y-38740801D01*
X52466983Y-38686801D01*
X52351318Y-38668483D01*
X52349500Y-38668195D01*
X52349499Y-38668195D01*
X52232016Y-38686801D01*
X52126036Y-38740801D01*
X52041925Y-38824912D01*
X51987925Y-38930892D01*
X51969319Y-39048376D01*
X51570528Y-39048376D01*
X53618904Y-37000000D01*
X54119819Y-37000000D01*
X54138425Y-37117483D01*
X54192425Y-37223463D01*
X54276536Y-37307574D01*
X54382516Y-37361574D01*
X54410778Y-37366049D01*
X54500000Y-37380181D01*
X54601419Y-37364117D01*
X54617483Y-37361574D01*
X54723463Y-37307574D01*
X54723462Y-37307574D01*
X54723465Y-37307573D01*
X54807573Y-37223465D01*
X54839920Y-37159980D01*
X54861574Y-37117483D01*
X54868809Y-37071802D01*
X54880181Y-37000000D01*
X54861574Y-36882518D01*
X54861574Y-36882516D01*
X54807574Y-36776536D01*
X54723463Y-36692425D01*
X54617483Y-36638425D01*
X54514130Y-36622056D01*
X54500000Y-36619819D01*
X54499999Y-36619819D01*
X54382516Y-36638425D01*
X54276536Y-36692425D01*
X54192425Y-36776536D01*
X54138425Y-36882516D01*
X54119819Y-37000000D01*
X53618904Y-37000000D01*
X55998962Y-34619943D01*
X56044838Y-34598551D01*
X56051288Y-34598269D01*
X59310499Y-34598269D01*
X59358065Y-34615582D01*
X59362825Y-34619943D01*
X59423225Y-34680343D01*
X59529205Y-34734343D01*
X59561331Y-34739430D01*
X59646689Y-34752950D01*
X59648360Y-34752685D01*
X59698048Y-34762341D01*
X59729905Y-34801678D01*
X59733027Y-34814197D01*
X59743007Y-34877211D01*
X59797007Y-34983191D01*
X59881118Y-35067302D01*
X59987098Y-35121302D01*
X60015360Y-35125777D01*
X60104582Y-35139909D01*
X60206001Y-35123845D01*
X60222065Y-35121302D01*
X60328045Y-35067302D01*
X60328044Y-35067302D01*
X60328047Y-35067301D01*
X60412155Y-34983193D01*
X60439258Y-34930000D01*
X60466156Y-34877211D01*
X60476136Y-34814197D01*
X60484763Y-34759728D01*
X60469036Y-34660431D01*
X60466156Y-34642244D01*
X60412156Y-34536264D01*
X60328045Y-34452153D01*
X60222065Y-34398153D01*
X60118712Y-34381784D01*
X60104582Y-34379547D01*
X60104581Y-34379547D01*
X60103481Y-34379721D01*
X60102902Y-34379812D01*
X60053215Y-34370151D01*
X60021361Y-34330811D01*
X60018244Y-34318306D01*
X60008263Y-34255287D01*
X60008263Y-34255285D01*
X59954263Y-34149305D01*
X59870152Y-34065194D01*
X59764172Y-34011194D01*
X59692103Y-33999780D01*
X59647830Y-33975239D01*
X59629690Y-33927982D01*
X59646170Y-33880121D01*
X59670079Y-33860759D01*
X59774464Y-33807573D01*
X59858572Y-33723465D01*
X59891108Y-33659608D01*
X59928127Y-33625087D01*
X59978677Y-33622437D01*
X60009368Y-33640878D01*
X62003326Y-35634835D01*
X62024718Y-35680711D01*
X62025000Y-35687161D01*
X62024999Y-36130636D01*
X62024898Y-36134507D01*
X62022799Y-36174560D01*
X62022799Y-36174562D01*
X62022800Y-36174562D01*
X62030410Y-36194389D01*
X62031531Y-36197308D01*
X62034827Y-36208438D01*
X62039892Y-36232265D01*
X62044889Y-36239143D01*
X62054104Y-36256115D01*
X62057153Y-36264057D01*
X62074380Y-36281284D01*
X62081921Y-36290113D01*
X62086606Y-36296562D01*
X62096240Y-36309821D01*
X62103601Y-36314071D01*
X62118926Y-36325830D01*
X62213537Y-36420441D01*
X62234929Y-36466317D01*
X62234301Y-36484339D01*
X62231821Y-36500000D01*
X62250427Y-36617483D01*
X62304427Y-36723463D01*
X62388538Y-36807574D01*
X62494518Y-36861574D01*
X62522780Y-36866049D01*
X62612002Y-36880181D01*
X62713421Y-36864117D01*
X62729485Y-36861574D01*
X62835465Y-36807574D01*
X62835464Y-36807574D01*
X62835467Y-36807573D01*
X62919575Y-36723465D01*
X62948017Y-36667644D01*
X62973576Y-36617483D01*
X62977544Y-36592427D01*
X62992183Y-36500000D01*
X62975531Y-36394860D01*
X62973576Y-36382516D01*
X62919576Y-36276536D01*
X62835465Y-36192425D01*
X62729485Y-36138425D01*
X62611999Y-36119818D01*
X62596342Y-36122298D01*
X62546653Y-36112638D01*
X62532443Y-36101535D01*
X62497674Y-36066766D01*
X62476282Y-36020890D01*
X62476000Y-36014440D01*
X62476000Y-35828057D01*
X62493313Y-35780491D01*
X62537150Y-35755181D01*
X62570865Y-35760221D01*
X62570942Y-35759741D01*
X62609538Y-35765853D01*
X62700000Y-35780181D01*
X62801419Y-35764117D01*
X62817483Y-35761574D01*
X62923463Y-35707574D01*
X62923462Y-35707574D01*
X62923465Y-35707573D01*
X63007573Y-35623465D01*
X63034815Y-35570000D01*
X63061574Y-35517483D01*
X63067032Y-35483018D01*
X63080181Y-35400000D01*
X63064763Y-35302654D01*
X63061574Y-35282516D01*
X63007574Y-35176536D01*
X62923463Y-35092425D01*
X62817483Y-35038425D01*
X62714130Y-35022056D01*
X62700000Y-35019819D01*
X62699999Y-35019819D01*
X62598014Y-35035971D01*
X62548325Y-35026312D01*
X62534113Y-35015208D01*
X60065007Y-32546102D01*
X60062340Y-32543292D01*
X60039101Y-32517483D01*
X60035507Y-32513491D01*
X60035506Y-32513490D01*
X60035505Y-32513489D01*
X60013253Y-32503582D01*
X60003051Y-32498044D01*
X59982618Y-32484774D01*
X59982617Y-32484773D01*
X59982616Y-32484773D01*
X59974217Y-32483443D01*
X59955700Y-32477958D01*
X59947932Y-32474500D01*
X59923573Y-32474500D01*
X59911998Y-32473589D01*
X59887935Y-32469778D01*
X59879721Y-32471979D01*
X59860570Y-32474500D01*
X57802327Y-32474500D01*
X57754761Y-32457187D01*
X57729451Y-32413350D01*
X57736392Y-32366905D01*
X57757051Y-32326358D01*
X57761574Y-32317482D01*
X57780181Y-32200000D01*
X57764250Y-32099411D01*
X57761574Y-32082516D01*
X57707574Y-31976536D01*
X57623463Y-31892425D01*
X57517483Y-31838425D01*
X57410273Y-31821446D01*
X57366001Y-31796906D01*
X57347860Y-31749649D01*
X57364340Y-31701788D01*
X57407729Y-31675717D01*
X57410259Y-31675270D01*
X57429565Y-31672212D01*
X57441082Y-31670389D01*
X57547062Y-31616389D01*
X57547061Y-31616389D01*
X57547064Y-31616388D01*
X57631172Y-31532280D01*
X57655638Y-31484263D01*
X57685173Y-31426298D01*
X57692657Y-31379041D01*
X57703780Y-31308815D01*
X57685173Y-31191333D01*
X57683340Y-31179757D01*
X57684152Y-31179628D01*
X57679554Y-31142167D01*
X57707124Y-31099715D01*
X57751657Y-31084815D01*
X61132824Y-31084815D01*
X61136697Y-31084916D01*
G37*
%TD.AperFunction*%
%TA.AperFunction,Conductor*%
G36*
X59399244Y-36542813D02*
G01*
X59404004Y-36547174D01*
X62390737Y-39533907D01*
X62393403Y-39536716D01*
X62420230Y-39566510D01*
X62442482Y-39576417D01*
X62452683Y-39581955D01*
X62473119Y-39595226D01*
X62481518Y-39596555D01*
X62500041Y-39602043D01*
X62507804Y-39605500D01*
X62532164Y-39605500D01*
X62543739Y-39606411D01*
X62547281Y-39606971D01*
X62567802Y-39610222D01*
X62576016Y-39608020D01*
X62595167Y-39605500D01*
X63451995Y-39605500D01*
X63499561Y-39622813D01*
X63521186Y-39653260D01*
X63540799Y-39704977D01*
X63636567Y-39843721D01*
X63767378Y-39959610D01*
X63791502Y-40004111D01*
X63781376Y-40053707D01*
X63767378Y-40070390D01*
X63636567Y-40186278D01*
X63540800Y-40325021D01*
X63481020Y-40482648D01*
X63465283Y-40612264D01*
X63460701Y-40650000D01*
X63465420Y-40688867D01*
X63466941Y-40701389D01*
X63455489Y-40750695D01*
X63415022Y-40781104D01*
X63393481Y-40784309D01*
X60046641Y-40784309D01*
X59999075Y-40766996D01*
X59973765Y-40723159D01*
X59978883Y-40688915D01*
X59978579Y-40688867D01*
X59992653Y-40600000D01*
X59999019Y-40559809D01*
X59980412Y-40442327D01*
X59980412Y-40442325D01*
X59926412Y-40336345D01*
X59845941Y-40255874D01*
X59824549Y-40209998D01*
X59832333Y-40169952D01*
X59836299Y-40162167D01*
X59836302Y-40162165D01*
X59890303Y-40056182D01*
X59908910Y-39938700D01*
X59890303Y-39821218D01*
X59890303Y-39821216D01*
X59842992Y-39728363D01*
X59836823Y-39678122D01*
X59856598Y-39642444D01*
X59929147Y-39569896D01*
X59929149Y-39569893D01*
X59983148Y-39463914D01*
X59986240Y-39444389D01*
X60001755Y-39346431D01*
X59987623Y-39257209D01*
X59983148Y-39228947D01*
X59929148Y-39122967D01*
X59845037Y-39038856D01*
X59739057Y-38984856D01*
X59621574Y-38966250D01*
X59504090Y-38984856D01*
X59398110Y-39038856D01*
X59313999Y-39122967D01*
X59259999Y-39228947D01*
X59241393Y-39346430D01*
X59241393Y-39346431D01*
X59242901Y-39355950D01*
X59259999Y-39463912D01*
X59307311Y-39556767D01*
X59313479Y-39607009D01*
X59293702Y-39642688D01*
X59221154Y-39715236D01*
X59167154Y-39821216D01*
X59148548Y-39938699D01*
X59167154Y-40056183D01*
X59221153Y-40162162D01*
X59221155Y-40162164D01*
X59221156Y-40162165D01*
X59301625Y-40242634D01*
X59323017Y-40288509D01*
X59315234Y-40328554D01*
X59257263Y-40442327D01*
X59238657Y-40559809D01*
X59259097Y-40688867D01*
X59258473Y-40688965D01*
X59263138Y-40726955D01*
X59235569Y-40769408D01*
X59191035Y-40784309D01*
X57953485Y-40784309D01*
X57905919Y-40766996D01*
X57901159Y-40762635D01*
X57534623Y-40396100D01*
X57531957Y-40393290D01*
X57505125Y-40363490D01*
X57482869Y-40353581D01*
X57472668Y-40348042D01*
X57452236Y-40334774D01*
X57443835Y-40333443D01*
X57425318Y-40327958D01*
X57417550Y-40324500D01*
X57393191Y-40324500D01*
X57381616Y-40323589D01*
X57357553Y-40319778D01*
X57349339Y-40321979D01*
X57330188Y-40324500D01*
X53773058Y-40324500D01*
X53725492Y-40307187D01*
X53700182Y-40263350D01*
X53708972Y-40213500D01*
X53720732Y-40198174D01*
X54236390Y-39682516D01*
X56820441Y-37098462D01*
X56866316Y-37077071D01*
X56884335Y-37077699D01*
X56900000Y-37080181D01*
X56998875Y-37064520D01*
X57017483Y-37061574D01*
X57123463Y-37007574D01*
X57123462Y-37007574D01*
X57123465Y-37007573D01*
X57207573Y-36923465D01*
X57219529Y-36900000D01*
X57261574Y-36817483D01*
X57265542Y-36792427D01*
X57280181Y-36700000D01*
X57266097Y-36611075D01*
X57275756Y-36561387D01*
X57315094Y-36529531D01*
X57339186Y-36525500D01*
X59351678Y-36525500D01*
X59399244Y-36542813D01*
G37*
%TD.AperFunction*%
%TA.AperFunction,Conductor*%
G36*
X52167012Y-37135054D02*
G01*
X52192322Y-37178891D01*
X52183532Y-37228741D01*
X52171772Y-37244067D01*
X49867347Y-39548490D01*
X49821470Y-39569882D01*
X49803445Y-39569253D01*
X49715184Y-39555274D01*
X49679009Y-39549545D01*
X49679008Y-39549545D01*
X49561525Y-39568151D01*
X49455545Y-39622151D01*
X49371434Y-39706262D01*
X49317434Y-39812242D01*
X49298828Y-39929725D01*
X49317434Y-40047209D01*
X49376756Y-40163634D01*
X49374228Y-40164921D01*
X49387811Y-40194050D01*
X49374710Y-40242945D01*
X49333246Y-40271979D01*
X49314093Y-40274500D01*
X46458040Y-40274500D01*
X46410474Y-40257187D01*
X46385164Y-40213350D01*
X46393954Y-40163500D01*
X46405714Y-40148174D01*
X46879670Y-39674218D01*
X49263182Y-37290703D01*
X49309057Y-37269312D01*
X49327076Y-37269940D01*
X49342741Y-37272422D01*
X49441616Y-37256761D01*
X49460224Y-37253815D01*
X49566204Y-37199815D01*
X49566203Y-37199815D01*
X49566206Y-37199814D01*
X49626604Y-37139415D01*
X49672481Y-37118023D01*
X49678931Y-37117741D01*
X52119446Y-37117741D01*
X52167012Y-37135054D01*
G37*
%TD.AperFunction*%
%TA.AperFunction,Conductor*%
G36*
X33348066Y-31229113D02*
G01*
X33373376Y-31272950D01*
X33374500Y-31285800D01*
X33374500Y-36215696D01*
X33374399Y-36219569D01*
X33372642Y-36253105D01*
X33372300Y-36259622D01*
X33380615Y-36281284D01*
X33381031Y-36282368D01*
X33384327Y-36293498D01*
X33389392Y-36317325D01*
X33394389Y-36324203D01*
X33403604Y-36341175D01*
X33406653Y-36349117D01*
X33423883Y-36366347D01*
X33431424Y-36375177D01*
X33445724Y-36394860D01*
X33445740Y-36394881D01*
X33453101Y-36399131D01*
X33468426Y-36410890D01*
X34265109Y-37207573D01*
X35003334Y-37945797D01*
X35024726Y-37991673D01*
X35011625Y-38040568D01*
X35003334Y-38050449D01*
X34929895Y-38123888D01*
X34875895Y-38229868D01*
X34857289Y-38347351D01*
X34875895Y-38464835D01*
X34929895Y-38570815D01*
X35014006Y-38654926D01*
X35119986Y-38708926D01*
X35152112Y-38714013D01*
X35237470Y-38727533D01*
X35340821Y-38711163D01*
X35354953Y-38708926D01*
X35460933Y-38654926D01*
X35460932Y-38654926D01*
X35460935Y-38654925D01*
X35545043Y-38570817D01*
X35596194Y-38470428D01*
X35599044Y-38464835D01*
X35603772Y-38434980D01*
X35617651Y-38347352D01*
X35599044Y-38229870D01*
X35597211Y-38218294D01*
X35598649Y-38218066D01*
X35594265Y-38182355D01*
X35621834Y-38139902D01*
X35666368Y-38125001D01*
X43597928Y-38125001D01*
X43645494Y-38142314D01*
X43670804Y-38186151D01*
X43663862Y-38232597D01*
X43638425Y-38282517D01*
X43619819Y-38400000D01*
X43638425Y-38517483D01*
X43692425Y-38623463D01*
X43776536Y-38707574D01*
X43882516Y-38761574D01*
X43910778Y-38766049D01*
X44000000Y-38780181D01*
X44101419Y-38764117D01*
X44117483Y-38761574D01*
X44223463Y-38707574D01*
X44223462Y-38707574D01*
X44223465Y-38707573D01*
X44307573Y-38623465D01*
X44332919Y-38573721D01*
X44361574Y-38517483D01*
X44373461Y-38442427D01*
X44380181Y-38400000D01*
X44361574Y-38282518D01*
X44361574Y-38282517D01*
X44336138Y-38232597D01*
X44329969Y-38182355D01*
X44357537Y-38139902D01*
X44402072Y-38125001D01*
X45192638Y-38125001D01*
X45196511Y-38125102D01*
X45236563Y-38127201D01*
X45259311Y-38118468D01*
X45270429Y-38115174D01*
X45294267Y-38110108D01*
X45301143Y-38105111D01*
X45318123Y-38095893D01*
X45318120Y-38095893D01*
X45326059Y-38092847D01*
X45343293Y-38075612D01*
X45352115Y-38068077D01*
X45371822Y-38053761D01*
X45376071Y-38046399D01*
X45387828Y-38031076D01*
X47251145Y-36167760D01*
X47297020Y-36146369D01*
X47345915Y-36159470D01*
X47374949Y-36200934D01*
X47376559Y-36231662D01*
X47369319Y-36277377D01*
X47387925Y-36394861D01*
X47441925Y-36500841D01*
X47449879Y-36508795D01*
X47471271Y-36554671D01*
X47458170Y-36603566D01*
X47416706Y-36632600D01*
X47409131Y-36634210D01*
X47382516Y-36638425D01*
X47276536Y-36692425D01*
X47192425Y-36776536D01*
X47138425Y-36882516D01*
X47119819Y-37000000D01*
X47138425Y-37117483D01*
X47192425Y-37223463D01*
X47221991Y-37253029D01*
X47243383Y-37298905D01*
X47230282Y-37347800D01*
X47188818Y-37376834D01*
X47181241Y-37378444D01*
X47091960Y-37392584D01*
X46985980Y-37446584D01*
X46901869Y-37530695D01*
X46847869Y-37636675D01*
X46829263Y-37754159D01*
X46847869Y-37871642D01*
X46901869Y-37977622D01*
X46901871Y-37977624D01*
X46985979Y-38061732D01*
X47049366Y-38094029D01*
X47083888Y-38131048D01*
X47086538Y-38181598D01*
X47068097Y-38212289D01*
X46890565Y-38389821D01*
X46844689Y-38411213D01*
X46795794Y-38398112D01*
X46772304Y-38371090D01*
X46750112Y-38327535D01*
X46666004Y-38243427D01*
X46666002Y-38243425D01*
X46560022Y-38189425D01*
X46442539Y-38170819D01*
X46325055Y-38189425D01*
X46219075Y-38243425D01*
X46134964Y-38327536D01*
X46080964Y-38433516D01*
X46062358Y-38551000D01*
X46080964Y-38668483D01*
X46134964Y-38774463D01*
X46219076Y-38858575D01*
X46329343Y-38914759D01*
X46363865Y-38951779D01*
X46366515Y-39002329D01*
X46348074Y-39033019D01*
X45728269Y-39652826D01*
X45682393Y-39674218D01*
X45675943Y-39674500D01*
X42656444Y-39674500D01*
X42608878Y-39657187D01*
X42583568Y-39613350D01*
X42590510Y-39566905D01*
X42640913Y-39467983D01*
X42645594Y-39438425D01*
X42659520Y-39350500D01*
X42640913Y-39233018D01*
X42640913Y-39233016D01*
X42586913Y-39127036D01*
X42502802Y-39042925D01*
X42396822Y-38988925D01*
X42315014Y-38975969D01*
X42270742Y-38951429D01*
X42252601Y-38904172D01*
X42260656Y-38869283D01*
X42261574Y-38867482D01*
X42280181Y-38750000D01*
X42261574Y-38632518D01*
X42261574Y-38632516D01*
X42207574Y-38526536D01*
X42123463Y-38442425D01*
X42017483Y-38388425D01*
X41900000Y-38369819D01*
X41782516Y-38388425D01*
X41676536Y-38442425D01*
X41592425Y-38526536D01*
X41538425Y-38632516D01*
X41519819Y-38750000D01*
X41538425Y-38867483D01*
X41592425Y-38973463D01*
X41676536Y-39057574D01*
X41782516Y-39111574D01*
X41817892Y-39117176D01*
X41864324Y-39124530D01*
X41908596Y-39149070D01*
X41926737Y-39196327D01*
X41918685Y-39231209D01*
X41917765Y-39233014D01*
X41899158Y-39350499D01*
X41917764Y-39467983D01*
X41968168Y-39566905D01*
X41974337Y-39617146D01*
X41946768Y-39659599D01*
X41902234Y-39674500D01*
X36424763Y-39674500D01*
X36377197Y-39657187D01*
X36372437Y-39652826D01*
X36215713Y-39496102D01*
X36213046Y-39493292D01*
X36202357Y-39481421D01*
X36186213Y-39463491D01*
X36186212Y-39463490D01*
X36186211Y-39463489D01*
X36163959Y-39453582D01*
X36153757Y-39448044D01*
X36133324Y-39434774D01*
X36133323Y-39434773D01*
X36133322Y-39434773D01*
X36124923Y-39433443D01*
X36106406Y-39427958D01*
X36098638Y-39424500D01*
X36074279Y-39424500D01*
X36062704Y-39423589D01*
X36038641Y-39419778D01*
X36030427Y-39421979D01*
X36011276Y-39424500D01*
X34157861Y-39424500D01*
X34153988Y-39424399D01*
X34113933Y-39422299D01*
X34091188Y-39431030D01*
X34080060Y-39434326D01*
X34056233Y-39439391D01*
X34049355Y-39444389D01*
X34032384Y-39453604D01*
X34024441Y-39456653D01*
X34007209Y-39473884D01*
X33998384Y-39481421D01*
X33978676Y-39495740D01*
X33974424Y-39503105D01*
X33962667Y-39518426D01*
X33696674Y-39784419D01*
X33650798Y-39805811D01*
X33601903Y-39792710D01*
X33572869Y-39751246D01*
X33571259Y-39743668D01*
X33561574Y-39682516D01*
X33507574Y-39576536D01*
X33423463Y-39492425D01*
X33317483Y-39438425D01*
X33200000Y-39419819D01*
X33082518Y-39438425D01*
X33002810Y-39479039D01*
X32952568Y-39485207D01*
X32910116Y-39457638D01*
X32895316Y-39409231D01*
X32895755Y-39404184D01*
X32899299Y-39375000D01*
X32878979Y-39207647D01*
X32819199Y-39050020D01*
X32723433Y-38911279D01*
X32597247Y-38799488D01*
X32597246Y-38799487D01*
X32592621Y-38795390D01*
X32568498Y-38750889D01*
X32578623Y-38701293D01*
X32592621Y-38684610D01*
X32597247Y-38680512D01*
X32723433Y-38568721D01*
X32819199Y-38429980D01*
X32878979Y-38272353D01*
X32884796Y-38224442D01*
X32907714Y-38179314D01*
X32954282Y-38159472D01*
X32969831Y-38160276D01*
X32978014Y-38161572D01*
X32978018Y-38161574D01*
X33095500Y-38180181D01*
X33196919Y-38164117D01*
X33212983Y-38161574D01*
X33318963Y-38107574D01*
X33318962Y-38107574D01*
X33318965Y-38107573D01*
X33403073Y-38023465D01*
X33442647Y-37945797D01*
X33457074Y-37917483D01*
X33464334Y-37871641D01*
X33475681Y-37800000D01*
X33457074Y-37682518D01*
X33457074Y-37682516D01*
X33403075Y-37576537D01*
X33386825Y-37560287D01*
X33331112Y-37504574D01*
X33309721Y-37458700D01*
X33322821Y-37409806D01*
X33331107Y-37399930D01*
X33407573Y-37323465D01*
X33411277Y-37316196D01*
X33461574Y-37217483D01*
X33469889Y-37164980D01*
X33480181Y-37100000D01*
X33461574Y-36982518D01*
X33461574Y-36982516D01*
X33407574Y-36876536D01*
X33323463Y-36792425D01*
X33217483Y-36738425D01*
X33100000Y-36719819D01*
X32970942Y-36740259D01*
X32970584Y-36738001D01*
X32937152Y-36742102D01*
X32894703Y-36714527D01*
X32880347Y-36678918D01*
X32878979Y-36667647D01*
X32878635Y-36666741D01*
X32847617Y-36584952D01*
X32819199Y-36510020D01*
X32723433Y-36371279D01*
X32597247Y-36259488D01*
X32597246Y-36259487D01*
X32592621Y-36255390D01*
X32568498Y-36210889D01*
X32578623Y-36161293D01*
X32592621Y-36144610D01*
X32597247Y-36140512D01*
X32723433Y-36028721D01*
X32819199Y-35889980D01*
X32878979Y-35732353D01*
X32899299Y-35565000D01*
X32878979Y-35397647D01*
X32819199Y-35240020D01*
X32723433Y-35101279D01*
X32597247Y-34989488D01*
X32597246Y-34989487D01*
X32592621Y-34985390D01*
X32568498Y-34940889D01*
X32578623Y-34891293D01*
X32592621Y-34874610D01*
X32615526Y-34854318D01*
X32723433Y-34758721D01*
X32819199Y-34619980D01*
X32878979Y-34462353D01*
X32899299Y-34295000D01*
X32878979Y-34127647D01*
X32819199Y-33970020D01*
X32723433Y-33831279D01*
X32597247Y-33719488D01*
X32597246Y-33719487D01*
X32592621Y-33715390D01*
X32568498Y-33670889D01*
X32578623Y-33621293D01*
X32592621Y-33604610D01*
X32624311Y-33576535D01*
X32723433Y-33488721D01*
X32819199Y-33349980D01*
X32878979Y-33192353D01*
X32899299Y-33025000D01*
X32878979Y-32857647D01*
X32819199Y-32700020D01*
X32723433Y-32561279D01*
X32597247Y-32449488D01*
X32597246Y-32449487D01*
X32592621Y-32445390D01*
X32568498Y-32400889D01*
X32578623Y-32351293D01*
X32592621Y-32334610D01*
X32597247Y-32330512D01*
X32723433Y-32218721D01*
X32819199Y-32079980D01*
X32878979Y-31922353D01*
X32899299Y-31755000D01*
X32878979Y-31587647D01*
X32819199Y-31430020D01*
X32748666Y-31327836D01*
X32735895Y-31278856D01*
X32757595Y-31233124D01*
X32803614Y-31212040D01*
X32809568Y-31211800D01*
X33300500Y-31211800D01*
X33348066Y-31229113D01*
G37*
%TD.AperFunction*%
M02*
