%TF.GenerationSoftware,KiCad,Pcbnew,7.0.2*%
%TF.CreationDate,2023-07-30T21:57:21-04:00*%
%TF.ProjectId,OBC-Flight,4f42432d-466c-4696-9768-742e6b696361,rev?*%
%TF.SameCoordinates,Original*%
%TF.FileFunction,Soldermask,Top*%
%TF.FilePolarity,Negative*%
%FSLAX46Y46*%
G04 Gerber Fmt 4.6, Leading zero omitted, Abs format (unit mm)*
G04 Created by KiCad (PCBNEW 7.0.2) date 2023-07-30 21:57:21*
%MOMM*%
%LPD*%
G01*
G04 APERTURE LIST*
G04 Aperture macros list*
%AMRoundRect*
0 Rectangle with rounded corners*
0 $1 Rounding radius*
0 $2 $3 $4 $5 $6 $7 $8 $9 X,Y pos of 4 corners*
0 Add a 4 corners polygon primitive as box body*
4,1,4,$2,$3,$4,$5,$6,$7,$8,$9,$2,$3,0*
0 Add four circle primitives for the rounded corners*
1,1,$1+$1,$2,$3*
1,1,$1+$1,$4,$5*
1,1,$1+$1,$6,$7*
1,1,$1+$1,$8,$9*
0 Add four rect primitives between the rounded corners*
20,1,$1+$1,$2,$3,$4,$5,0*
20,1,$1+$1,$4,$5,$6,$7,0*
20,1,$1+$1,$6,$7,$8,$9,0*
20,1,$1+$1,$8,$9,$2,$3,0*%
G04 Aperture macros list end*
%ADD10C,1.000000*%
%ADD11RoundRect,0.140000X-0.170000X0.140000X-0.170000X-0.140000X0.170000X-0.140000X0.170000X0.140000X0*%
%ADD12R,1.500000X1.000000*%
%ADD13R,0.650000X0.250000*%
%ADD14RoundRect,0.140000X0.170000X-0.140000X0.170000X0.140000X-0.170000X0.140000X-0.170000X-0.140000X0*%
%ADD15R,1.000000X1.000000*%
%ADD16O,1.000000X1.000000*%
%ADD17RoundRect,0.140000X0.140000X0.170000X-0.140000X0.170000X-0.140000X-0.170000X0.140000X-0.170000X0*%
%ADD18RoundRect,0.140000X-0.140000X-0.170000X0.140000X-0.170000X0.140000X0.170000X-0.140000X0.170000X0*%
%ADD19RoundRect,0.135000X0.185000X-0.135000X0.185000X0.135000X-0.185000X0.135000X-0.185000X-0.135000X0*%
%ADD20R,0.990000X0.300000*%
%ADD21RoundRect,0.135000X0.135000X0.185000X-0.135000X0.185000X-0.135000X-0.185000X0.135000X-0.185000X0*%
%ADD22R,1.000000X1.800000*%
%ADD23R,1.150000X1.000000*%
%ADD24R,0.300000X1.475000*%
%ADD25R,1.475000X0.300000*%
%ADD26RoundRect,0.135000X-0.185000X0.135000X-0.185000X-0.135000X0.185000X-0.135000X0.185000X0.135000X0*%
%ADD27C,0.650000*%
%ADD28R,0.600000X1.150000*%
%ADD29R,0.300000X1.150000*%
%ADD30O,1.000000X2.100000*%
%ADD31O,1.000000X1.800000*%
%ADD32R,1.087400X1.087400*%
%ADD33C,1.087400*%
G04 APERTURE END LIST*
D10*
X29300000Y-24400000D03*
D11*
X55480000Y-52220000D03*
X55480000Y-53180000D03*
D12*
X38780000Y-25700000D03*
X38780000Y-24400000D03*
D13*
X54550000Y-57200000D03*
X54550000Y-57700000D03*
X54550000Y-58200000D03*
X55500000Y-58200000D03*
X55500000Y-57700000D03*
X55500000Y-57200000D03*
D14*
X35480000Y-31980000D03*
X35480000Y-31020000D03*
X43180000Y-26380000D03*
X43180000Y-25420000D03*
D15*
X50060000Y-61400000D03*
D16*
X50060000Y-60130000D03*
X51330000Y-61400000D03*
X51330000Y-60130000D03*
X52600000Y-61400000D03*
X52600000Y-60130000D03*
X53870000Y-61400000D03*
X53870000Y-60130000D03*
X55140000Y-61400000D03*
X55140000Y-60130000D03*
X56410000Y-61400000D03*
X56410000Y-60130000D03*
X57680000Y-61400000D03*
X57680000Y-60130000D03*
D17*
X35560000Y-47800000D03*
X34600000Y-47800000D03*
D18*
X42500000Y-27400000D03*
X43460000Y-27400000D03*
D10*
X67100000Y-24400000D03*
X67100000Y-60400000D03*
X31100000Y-24400000D03*
D17*
X35560000Y-48900000D03*
X34600000Y-48900000D03*
D19*
X40580000Y-26310000D03*
X40580000Y-25290000D03*
D17*
X50060000Y-52000000D03*
X49100000Y-52000000D03*
D20*
X45070000Y-53000000D03*
X45070000Y-53500000D03*
X45070000Y-54000000D03*
X46680000Y-54000000D03*
X46680000Y-53500000D03*
X46680000Y-53000000D03*
D11*
X56580000Y-52220000D03*
X56580000Y-53180000D03*
D21*
X42560000Y-54500000D03*
X41540000Y-54500000D03*
D11*
X60100000Y-37020000D03*
X60100000Y-37980000D03*
D22*
X51850000Y-25700000D03*
X54350000Y-25700000D03*
D10*
X29300000Y-26100000D03*
X65300000Y-62200000D03*
D23*
X44580000Y-26000000D03*
X46330000Y-26000000D03*
X46330000Y-24600000D03*
X44580000Y-24600000D03*
D24*
X56580000Y-29000000D03*
X56080000Y-29000000D03*
X55580000Y-29000000D03*
X55080000Y-29000000D03*
X54580000Y-29000000D03*
X54080000Y-29000000D03*
X53580000Y-29000000D03*
X53080000Y-29000000D03*
X52580000Y-29000000D03*
X52080000Y-29000000D03*
X51580000Y-29000000D03*
X51080000Y-29000000D03*
X50580000Y-29000000D03*
X50080000Y-29000000D03*
X49580000Y-29000000D03*
X49080000Y-29000000D03*
X48580000Y-29000000D03*
X48080000Y-29000000D03*
X47580000Y-29000000D03*
X47080000Y-29000000D03*
X46580000Y-29000000D03*
X46080000Y-29000000D03*
X45580000Y-29000000D03*
X45080000Y-29000000D03*
X44580000Y-29000000D03*
X44080000Y-29000000D03*
X43580000Y-29000000D03*
X43080000Y-29000000D03*
X42580000Y-29000000D03*
X42080000Y-29000000D03*
X41580000Y-29000000D03*
X41080000Y-29000000D03*
X40580000Y-29000000D03*
X40080000Y-29000000D03*
X39580000Y-29000000D03*
X39080000Y-29000000D03*
D25*
X37092000Y-30988000D03*
X37092000Y-31488000D03*
X37092000Y-31988000D03*
X37092000Y-32488000D03*
X37092000Y-32988000D03*
X37092000Y-33488000D03*
X37092000Y-33988000D03*
X37092000Y-34488000D03*
X37092000Y-34988000D03*
X37092000Y-35488000D03*
X37092000Y-35988000D03*
X37092000Y-36488000D03*
X37092000Y-36988000D03*
X37092000Y-37488000D03*
X37092000Y-37988000D03*
X37092000Y-38488000D03*
X37092000Y-38988000D03*
X37092000Y-39488000D03*
X37092000Y-39988000D03*
X37092000Y-40488000D03*
X37092000Y-40988000D03*
X37092000Y-41488000D03*
X37092000Y-41988000D03*
X37092000Y-42488000D03*
X37092000Y-42988000D03*
X37092000Y-43488000D03*
X37092000Y-43988000D03*
X37092000Y-44488000D03*
X37092000Y-44988000D03*
X37092000Y-45488000D03*
X37092000Y-45988000D03*
X37092000Y-46488000D03*
X37092000Y-46988000D03*
X37092000Y-47488000D03*
X37092000Y-47988000D03*
X37092000Y-48488000D03*
D24*
X39080000Y-50476000D03*
X39580000Y-50476000D03*
X40080000Y-50476000D03*
X40580000Y-50476000D03*
X41080000Y-50476000D03*
X41580000Y-50476000D03*
X42080000Y-50476000D03*
X42580000Y-50476000D03*
X43080000Y-50476000D03*
X43580000Y-50476000D03*
X44080000Y-50476000D03*
X44580000Y-50476000D03*
X45080000Y-50476000D03*
X45580000Y-50476000D03*
X46080000Y-50476000D03*
X46580000Y-50476000D03*
X47080000Y-50476000D03*
X47580000Y-50476000D03*
X48080000Y-50476000D03*
X48580000Y-50476000D03*
X49080000Y-50476000D03*
X49580000Y-50476000D03*
X50080000Y-50476000D03*
X50580000Y-50476000D03*
X51080000Y-50476000D03*
X51580000Y-50476000D03*
X52080000Y-50476000D03*
X52580000Y-50476000D03*
X53080000Y-50476000D03*
X53580000Y-50476000D03*
X54080000Y-50476000D03*
X54580000Y-50476000D03*
X55080000Y-50476000D03*
X55580000Y-50476000D03*
X56080000Y-50476000D03*
X56580000Y-50476000D03*
D25*
X58568000Y-48488000D03*
X58568000Y-47988000D03*
X58568000Y-47488000D03*
X58568000Y-46988000D03*
X58568000Y-46488000D03*
X58568000Y-45988000D03*
X58568000Y-45488000D03*
X58568000Y-44988000D03*
X58568000Y-44488000D03*
X58568000Y-43988000D03*
X58568000Y-43488000D03*
X58568000Y-42988000D03*
X58568000Y-42488000D03*
X58568000Y-41988000D03*
X58568000Y-41488000D03*
X58568000Y-40988000D03*
X58568000Y-40488000D03*
X58568000Y-39988000D03*
X58568000Y-39488000D03*
X58568000Y-38988000D03*
X58568000Y-38488000D03*
X58568000Y-37988000D03*
X58568000Y-37488000D03*
X58568000Y-36988000D03*
X58568000Y-36488000D03*
X58568000Y-35988000D03*
X58568000Y-35488000D03*
X58568000Y-34988000D03*
X58568000Y-34488000D03*
X58568000Y-33988000D03*
X58568000Y-33488000D03*
X58568000Y-32988000D03*
X58568000Y-32488000D03*
X58568000Y-31988000D03*
X58568000Y-31488000D03*
X58568000Y-30988000D03*
D14*
X50550000Y-24910000D03*
X50550000Y-23950000D03*
D15*
X31050000Y-55200000D03*
D16*
X29780000Y-55200000D03*
X31050000Y-53930000D03*
X29780000Y-53930000D03*
X31050000Y-52660000D03*
X29780000Y-52660000D03*
X31050000Y-51390000D03*
X29780000Y-51390000D03*
X31050000Y-50120000D03*
X29780000Y-50120000D03*
X31050000Y-48850000D03*
X29780000Y-48850000D03*
X31050000Y-47580000D03*
X29780000Y-47580000D03*
X31050000Y-46310000D03*
X29780000Y-46310000D03*
D10*
X29300000Y-62200000D03*
D11*
X47680000Y-25320000D03*
X47680000Y-26280000D03*
D26*
X48800000Y-55580000D03*
X48800000Y-56600000D03*
D11*
X57680000Y-52220000D03*
X57680000Y-53180000D03*
D27*
X39990000Y-57285000D03*
X45770000Y-57285000D03*
D28*
X39680000Y-56210000D03*
X40480000Y-56210000D03*
D29*
X41630000Y-56210000D03*
X42630000Y-56210000D03*
X43130000Y-56210000D03*
X44130000Y-56210000D03*
D28*
X45280000Y-56210000D03*
X46080000Y-56210000D03*
X46080000Y-56210000D03*
X45280000Y-56210000D03*
D29*
X44630000Y-56210000D03*
X43630000Y-56210000D03*
X42130000Y-56210000D03*
X41130000Y-56210000D03*
D28*
X40480000Y-56210000D03*
X39680000Y-56210000D03*
D30*
X38560000Y-56785000D03*
D31*
X38560000Y-60965000D03*
D30*
X47200000Y-56785000D03*
D31*
X47200000Y-60965000D03*
D10*
X31100000Y-62200000D03*
D15*
X65310000Y-48850000D03*
D16*
X66580000Y-48850000D03*
X65310000Y-50120000D03*
X66580000Y-50120000D03*
X65310000Y-51390000D03*
X66580000Y-51390000D03*
X65310000Y-52660000D03*
X66580000Y-52660000D03*
X65310000Y-53930000D03*
X66580000Y-53930000D03*
X65310000Y-55200000D03*
X66580000Y-55200000D03*
D10*
X29300000Y-60400000D03*
D14*
X35480000Y-38580000D03*
X35480000Y-37620000D03*
D18*
X44640000Y-52000000D03*
X45600000Y-52000000D03*
D14*
X55650000Y-25030000D03*
X55650000Y-24070000D03*
D18*
X40600000Y-27400000D03*
X41560000Y-27400000D03*
D14*
X35500000Y-43480000D03*
X35500000Y-42520000D03*
D11*
X60180000Y-42320000D03*
X60180000Y-43280000D03*
D10*
X65300000Y-24400000D03*
D13*
X58250000Y-58200000D03*
X58250000Y-57700000D03*
X58250000Y-57200000D03*
X57300000Y-57200000D03*
X57300000Y-57700000D03*
X57300000Y-58200000D03*
D10*
X67100000Y-26200000D03*
X67100000Y-62200000D03*
D32*
X29660000Y-31755000D03*
D33*
X32200000Y-31755000D03*
X29660000Y-33025000D03*
X32200000Y-33025000D03*
X29660000Y-34295000D03*
X32200000Y-34295000D03*
X29660000Y-35565000D03*
X32200000Y-35565000D03*
X29660000Y-36835000D03*
X32200000Y-36835000D03*
X29660000Y-38105000D03*
X32200000Y-38105000D03*
X29660000Y-39375000D03*
X32200000Y-39375000D03*
X29660000Y-40645000D03*
X32200000Y-40645000D03*
D32*
X66700000Y-40650000D03*
D33*
X64160000Y-40650000D03*
X66700000Y-39380000D03*
X64160000Y-39380000D03*
X66700000Y-38110000D03*
X64160000Y-38110000D03*
X66700000Y-36840000D03*
X64160000Y-36840000D03*
X66700000Y-35570000D03*
X64160000Y-35570000D03*
X66700000Y-34300000D03*
X64160000Y-34300000D03*
X66700000Y-33030000D03*
X64160000Y-33030000D03*
X66700000Y-31760000D03*
X64160000Y-31760000D03*
M02*
