%TF.GenerationSoftware,KiCad,Pcbnew,7.0.2*%
%TF.CreationDate,2023-07-30T21:57:21-04:00*%
%TF.ProjectId,OBC-Flight,4f42432d-466c-4696-9768-742e6b696361,rev?*%
%TF.SameCoordinates,Original*%
%TF.FileFunction,Paste,Top*%
%TF.FilePolarity,Positive*%
%FSLAX46Y46*%
G04 Gerber Fmt 4.6, Leading zero omitted, Abs format (unit mm)*
G04 Created by KiCad (PCBNEW 7.0.2) date 2023-07-30 21:57:21*
%MOMM*%
%LPD*%
G01*
G04 APERTURE LIST*
G04 Aperture macros list*
%AMRoundRect*
0 Rectangle with rounded corners*
0 $1 Rounding radius*
0 $2 $3 $4 $5 $6 $7 $8 $9 X,Y pos of 4 corners*
0 Add a 4 corners polygon primitive as box body*
4,1,4,$2,$3,$4,$5,$6,$7,$8,$9,$2,$3,0*
0 Add four circle primitives for the rounded corners*
1,1,$1+$1,$2,$3*
1,1,$1+$1,$4,$5*
1,1,$1+$1,$6,$7*
1,1,$1+$1,$8,$9*
0 Add four rect primitives between the rounded corners*
20,1,$1+$1,$2,$3,$4,$5,0*
20,1,$1+$1,$4,$5,$6,$7,0*
20,1,$1+$1,$6,$7,$8,$9,0*
20,1,$1+$1,$8,$9,$2,$3,0*%
G04 Aperture macros list end*
%ADD10RoundRect,0.140000X-0.170000X0.140000X-0.170000X-0.140000X0.170000X-0.140000X0.170000X0.140000X0*%
%ADD11R,0.650000X0.250000*%
%ADD12RoundRect,0.140000X0.170000X-0.140000X0.170000X0.140000X-0.170000X0.140000X-0.170000X-0.140000X0*%
%ADD13RoundRect,0.140000X0.140000X0.170000X-0.140000X0.170000X-0.140000X-0.170000X0.140000X-0.170000X0*%
%ADD14RoundRect,0.140000X-0.140000X-0.170000X0.140000X-0.170000X0.140000X0.170000X-0.140000X0.170000X0*%
%ADD15RoundRect,0.135000X0.185000X-0.135000X0.185000X0.135000X-0.185000X0.135000X-0.185000X-0.135000X0*%
%ADD16R,0.990000X0.300000*%
%ADD17RoundRect,0.135000X0.135000X0.185000X-0.135000X0.185000X-0.135000X-0.185000X0.135000X-0.185000X0*%
%ADD18R,1.000000X1.800000*%
%ADD19R,1.150000X1.000000*%
%ADD20R,0.300000X1.475000*%
%ADD21R,1.475000X0.300000*%
%ADD22RoundRect,0.135000X-0.185000X0.135000X-0.185000X-0.135000X0.185000X-0.135000X0.185000X0.135000X0*%
%ADD23R,0.600000X1.150000*%
%ADD24R,0.300000X1.150000*%
G04 APERTURE END LIST*
D10*
X55480000Y-52220000D03*
X55480000Y-53180000D03*
D11*
X54550000Y-57200000D03*
X54550000Y-57700000D03*
X54550000Y-58200000D03*
X55500000Y-58200000D03*
X55500000Y-57700000D03*
X55500000Y-57200000D03*
D12*
X35480000Y-31980000D03*
X35480000Y-31020000D03*
X43180000Y-26380000D03*
X43180000Y-25420000D03*
D13*
X35560000Y-47800000D03*
X34600000Y-47800000D03*
D14*
X42500000Y-27400000D03*
X43460000Y-27400000D03*
D13*
X35560000Y-48900000D03*
X34600000Y-48900000D03*
D15*
X40580000Y-26310000D03*
X40580000Y-25290000D03*
D13*
X50060000Y-52000000D03*
X49100000Y-52000000D03*
D16*
X45070000Y-53000000D03*
X45070000Y-53500000D03*
X45070000Y-54000000D03*
X46680000Y-54000000D03*
X46680000Y-53500000D03*
X46680000Y-53000000D03*
D10*
X56580000Y-52220000D03*
X56580000Y-53180000D03*
D17*
X42560000Y-54500000D03*
X41540000Y-54500000D03*
D10*
X60100000Y-37020000D03*
X60100000Y-37980000D03*
D18*
X51850000Y-25700000D03*
X54350000Y-25700000D03*
D19*
X44580000Y-26000000D03*
X46330000Y-26000000D03*
X46330000Y-24600000D03*
X44580000Y-24600000D03*
D20*
X56580000Y-29000000D03*
X56080000Y-29000000D03*
X55580000Y-29000000D03*
X55080000Y-29000000D03*
X54580000Y-29000000D03*
X54080000Y-29000000D03*
X53580000Y-29000000D03*
X53080000Y-29000000D03*
X52580000Y-29000000D03*
X52080000Y-29000000D03*
X51580000Y-29000000D03*
X51080000Y-29000000D03*
X50580000Y-29000000D03*
X50080000Y-29000000D03*
X49580000Y-29000000D03*
X49080000Y-29000000D03*
X48580000Y-29000000D03*
X48080000Y-29000000D03*
X47580000Y-29000000D03*
X47080000Y-29000000D03*
X46580000Y-29000000D03*
X46080000Y-29000000D03*
X45580000Y-29000000D03*
X45080000Y-29000000D03*
X44580000Y-29000000D03*
X44080000Y-29000000D03*
X43580000Y-29000000D03*
X43080000Y-29000000D03*
X42580000Y-29000000D03*
X42080000Y-29000000D03*
X41580000Y-29000000D03*
X41080000Y-29000000D03*
X40580000Y-29000000D03*
X40080000Y-29000000D03*
X39580000Y-29000000D03*
X39080000Y-29000000D03*
D21*
X37092000Y-30988000D03*
X37092000Y-31488000D03*
X37092000Y-31988000D03*
X37092000Y-32488000D03*
X37092000Y-32988000D03*
X37092000Y-33488000D03*
X37092000Y-33988000D03*
X37092000Y-34488000D03*
X37092000Y-34988000D03*
X37092000Y-35488000D03*
X37092000Y-35988000D03*
X37092000Y-36488000D03*
X37092000Y-36988000D03*
X37092000Y-37488000D03*
X37092000Y-37988000D03*
X37092000Y-38488000D03*
X37092000Y-38988000D03*
X37092000Y-39488000D03*
X37092000Y-39988000D03*
X37092000Y-40488000D03*
X37092000Y-40988000D03*
X37092000Y-41488000D03*
X37092000Y-41988000D03*
X37092000Y-42488000D03*
X37092000Y-42988000D03*
X37092000Y-43488000D03*
X37092000Y-43988000D03*
X37092000Y-44488000D03*
X37092000Y-44988000D03*
X37092000Y-45488000D03*
X37092000Y-45988000D03*
X37092000Y-46488000D03*
X37092000Y-46988000D03*
X37092000Y-47488000D03*
X37092000Y-47988000D03*
X37092000Y-48488000D03*
D20*
X39080000Y-50476000D03*
X39580000Y-50476000D03*
X40080000Y-50476000D03*
X40580000Y-50476000D03*
X41080000Y-50476000D03*
X41580000Y-50476000D03*
X42080000Y-50476000D03*
X42580000Y-50476000D03*
X43080000Y-50476000D03*
X43580000Y-50476000D03*
X44080000Y-50476000D03*
X44580000Y-50476000D03*
X45080000Y-50476000D03*
X45580000Y-50476000D03*
X46080000Y-50476000D03*
X46580000Y-50476000D03*
X47080000Y-50476000D03*
X47580000Y-50476000D03*
X48080000Y-50476000D03*
X48580000Y-50476000D03*
X49080000Y-50476000D03*
X49580000Y-50476000D03*
X50080000Y-50476000D03*
X50580000Y-50476000D03*
X51080000Y-50476000D03*
X51580000Y-50476000D03*
X52080000Y-50476000D03*
X52580000Y-50476000D03*
X53080000Y-50476000D03*
X53580000Y-50476000D03*
X54080000Y-50476000D03*
X54580000Y-50476000D03*
X55080000Y-50476000D03*
X55580000Y-50476000D03*
X56080000Y-50476000D03*
X56580000Y-50476000D03*
D21*
X58568000Y-48488000D03*
X58568000Y-47988000D03*
X58568000Y-47488000D03*
X58568000Y-46988000D03*
X58568000Y-46488000D03*
X58568000Y-45988000D03*
X58568000Y-45488000D03*
X58568000Y-44988000D03*
X58568000Y-44488000D03*
X58568000Y-43988000D03*
X58568000Y-43488000D03*
X58568000Y-42988000D03*
X58568000Y-42488000D03*
X58568000Y-41988000D03*
X58568000Y-41488000D03*
X58568000Y-40988000D03*
X58568000Y-40488000D03*
X58568000Y-39988000D03*
X58568000Y-39488000D03*
X58568000Y-38988000D03*
X58568000Y-38488000D03*
X58568000Y-37988000D03*
X58568000Y-37488000D03*
X58568000Y-36988000D03*
X58568000Y-36488000D03*
X58568000Y-35988000D03*
X58568000Y-35488000D03*
X58568000Y-34988000D03*
X58568000Y-34488000D03*
X58568000Y-33988000D03*
X58568000Y-33488000D03*
X58568000Y-32988000D03*
X58568000Y-32488000D03*
X58568000Y-31988000D03*
X58568000Y-31488000D03*
X58568000Y-30988000D03*
D12*
X50550000Y-24910000D03*
X50550000Y-23950000D03*
D10*
X47680000Y-25320000D03*
X47680000Y-26280000D03*
D22*
X48800000Y-55580000D03*
X48800000Y-56600000D03*
D10*
X57680000Y-52220000D03*
X57680000Y-53180000D03*
D23*
X39680000Y-56210000D03*
X40480000Y-56210000D03*
D24*
X41630000Y-56210000D03*
X42630000Y-56210000D03*
X43130000Y-56210000D03*
X44130000Y-56210000D03*
D23*
X45280000Y-56210000D03*
X46080000Y-56210000D03*
X46080000Y-56210000D03*
X45280000Y-56210000D03*
D24*
X44630000Y-56210000D03*
X43630000Y-56210000D03*
X42130000Y-56210000D03*
X41130000Y-56210000D03*
D23*
X40480000Y-56210000D03*
X39680000Y-56210000D03*
D12*
X35480000Y-38580000D03*
X35480000Y-37620000D03*
D14*
X44640000Y-52000000D03*
X45600000Y-52000000D03*
D12*
X55650000Y-25030000D03*
X55650000Y-24070000D03*
D14*
X40600000Y-27400000D03*
X41560000Y-27400000D03*
D12*
X35500000Y-43480000D03*
X35500000Y-42520000D03*
D10*
X60180000Y-42320000D03*
X60180000Y-43280000D03*
D11*
X58250000Y-58200000D03*
X58250000Y-57700000D03*
X58250000Y-57200000D03*
X57300000Y-57200000D03*
X57300000Y-57700000D03*
X57300000Y-58200000D03*
M02*
