M48
; DRILL file {KiCad 7.0.2} date Sun Jul 30 21:57:50 2023
; FORMAT={-:-/ absolute / metric / decimal}
; #@! TF.CreationDate,2023-07-30T21:57:50-04:00
; #@! TF.GenerationSoftware,Kicad,Pcbnew,7.0.2
; #@! TF.FileFunction,Plated,1,8,PTH
FMAT,2
METRIC
; #@! TA.AperFunction,Plated,PTH,ViaDrill
T1C0.300
; #@! TA.AperFunction,Plated,PTH,ViaDrill
T2C0.400
; #@! TA.AperFunction,Plated,PTH,ComponentDrill
T3C0.600
; #@! TA.AperFunction,Plated,PTH,ComponentDrill
T4C0.650
; #@! TA.AperFunction,Plated,PTH,ComponentDrill
T5C0.787
%
G90
G05
T1
X28.983Y-56.699
X29.0Y-58.9
X29.583Y-56.674
X29.9Y-57.8
X30.0Y-43.5
X30.3Y-29.1
X30.591Y-45.036
X30.6Y-60.0
X31.355Y-44.87
X32.2Y-45.9
X32.2Y-46.7
X32.85Y-62.3
X33.0Y-38.8
X33.096Y-37.8
X33.1Y-37.1
X33.2Y-39.8
X33.2Y-40.6
X33.234Y-41.334
X33.6Y-50.5
X33.7Y-49.8
X33.749Y-47.65
X34.045Y-47.129
X34.149Y-46.482
X34.3Y-24.0
X34.431Y-54.161
X34.454Y-55.06
X34.649Y-41.8
X34.669Y-46.779
X34.7Y-33.2
X34.7Y-42.5
X34.8Y-35.6
X34.8Y-43.4
X34.808Y-31.792
X34.881Y-36.219
X35.107Y-47.217
X35.177Y-46.302
X35.2Y-50.9
X35.237Y-38.347
X35.344Y-47.768
X35.509Y-54.756
X35.523Y-45.049
X35.539Y-54.15
X35.652Y-55.338
X35.682Y-51.373
X35.7Y-40.4
X35.7Y-41.0
X35.752Y-51.969
X35.8Y-53.4
X35.933Y-32.55
X36.149Y-33.5
X36.152Y-55.649
X36.3Y-30.3
X36.596Y-56.053
X36.9Y-28.6
X37.076Y-56.411
X38.0Y-24.1
X38.297Y-29.844
X38.3Y-27.8
X38.308Y-35.234
X38.4Y-31.5
X38.4Y-53.4
X38.6Y-27.1
X39.213Y-43.047
X39.4Y-31.4
X39.4Y-36.1
X39.6Y-26.7
X39.662Y-42.564
X40.0Y-38.4
X40.112Y-42.047
X40.151Y-36.173
X40.4Y-34.8
X40.4Y-35.5
X40.5Y-31.4
X41.11Y-26.5
X41.2Y-32.0
X41.41Y-48.049
X41.515Y-52.55
X41.6Y-27.5
X41.9Y-38.75
X41.951Y-42.2
X41.951Y-43.183
X42.1Y-36.2
X42.1Y-48.0
X42.2Y-26.5
X42.279Y-39.35
X42.4Y-25.9
X43.0Y-48.049
X43.1Y-30.6
X43.2Y-46.4
X43.3Y-27.7
X43.6Y-53.4
X43.7Y-36.9
X43.829Y-36.315
X44.0Y-38.4
X44.0Y-41.0
X44.1Y-32.4
X44.2Y-24.3
X44.2Y-33.7
X44.3Y-27.7
X44.3Y-44.9
X44.7Y-34.3
X45.2Y-48.2
X45.4Y-34.8
X45.5Y-32.4
X45.5Y-45.2
X45.6Y-33.9
X45.9Y-48.2
X46.1Y-46.8
X46.4Y-27.3
X46.443Y-38.551
X46.5Y-51.9
X47.1Y-45.7
X47.209Y-37.754
X47.3Y-48.1
X47.4Y-51.8
X47.5Y-27.7
X47.5Y-37.0
X47.749Y-36.277
X48.2Y-52.0
X48.3Y-40.95
X48.5Y-26.0
X48.5Y-26.7
X48.5Y-32.4
X48.5Y-46.7
X48.5Y-48.9
X48.6Y-34.0
X48.9Y-38.7
X49.109Y-26.264
X49.2Y-27.9
X49.343Y-36.892
X49.4Y-37.6
X49.6Y-33.6
X49.6Y-45.5
X49.679Y-39.93
X49.7Y-53.8
X49.8Y-26.1
X49.9Y-36.4
X50.572Y-48.318
X50.579Y-39.95
X50.6Y-26.4
X50.6Y-49.251
X50.9Y-45.3
X50.9Y-52.0
X51.0Y-30.2
X51.1Y-27.6
X51.194Y-47.965
X51.3Y-24.0
X51.3Y-32.7
X51.6Y-30.5
X51.7Y-33.8
X51.7Y-45.3
X51.9Y-31.2
X51.9Y-52.0
X52.0Y-57.4
X52.1Y-49.251
X52.3Y-45.3
X52.349Y-39.048
X52.35Y-41.0
X52.8Y-49.288
X53.0Y-44.4
X53.1Y-25.5
X53.1Y-51.6
X53.69Y-56.049
X53.701Y-56.649
X53.8Y-37.9
X53.8Y-43.937
X53.8Y-47.6
X53.822Y-44.536
X54.1Y-27.8
X54.367Y-47.167
X54.4Y-38.4
X54.4Y-43.0
X54.4Y-47.8
X54.5Y-37.0
X54.5Y-43.7
X54.5Y-46.1
X54.6Y-30.2
X54.7Y-31.2
X54.966Y-47.205
X54.978Y-49.276
X55.043Y-44.823
X55.1Y-30.7
X55.1Y-51.691
X55.6Y-44.6
X55.603Y-47.203
X55.733Y-48.233
X55.79Y-42.246
X55.818Y-44.012
X56.033Y-30.033
X56.1Y-47.7
X56.2Y-41.0
X56.3Y-39.1
X56.3Y-54.0
X56.3Y-55.1
X56.5Y-23.9
X56.549Y-26.549
X56.571Y-49.288
X56.8Y-35.9
X56.883Y-31.716
X56.9Y-36.7
X57.023Y-26.918
X57.2Y-49.249
X57.3Y-38.1
X57.324Y-31.309
X57.4Y-32.2
X57.417Y-35.705
X57.7Y-26.8
X57.9Y-55.1
X58.0Y-26.1
X59.0Y-55.6
X59.0Y-58.2
X59.1Y-25.2
X59.25Y-59.147
X59.3Y-24.1
X59.529Y-39.939
X59.551Y-33.5
X59.619Y-40.56
X59.622Y-39.346
X59.647Y-34.373
X59.7Y-47.5
X59.751Y-46.7
X59.9Y-44.7
X60.0Y-51.6
X60.105Y-34.76
X60.3Y-48.6
X60.393Y-35.743
X60.5Y-29.3
X60.6Y-30.3
X60.6Y-44.6
X60.8Y-43.2
X60.9Y-45.1
X60.9Y-45.8
X61.1Y-53.3
X61.7Y-30.3
X61.8Y-50.1
X61.892Y-37.199
X61.9Y-39.6
X62.6Y-31.4
X62.6Y-33.8
X62.612Y-36.5
X62.7Y-35.4
X62.7Y-51.7
X62.785Y-37.452
X62.8Y-43.7
X62.8Y-46.0
X62.8Y-47.5
X63.2Y-24.2
X63.2Y-56.0
X63.7Y-29.8
X63.749Y-45.818
X64.0Y-24.9
X64.2Y-41.902
X64.2Y-61.9
X64.251Y-44.311
X64.5Y-28.9
X64.6Y-44.9
X64.651Y-45.576
X66.3Y-61.4
X66.351Y-46.2
X66.6Y-24.8
X66.6Y-45.4
X66.7Y-43.6
X66.9Y-30.3
X66.9Y-59.3
X67.1Y-29.4
T2
X37.299Y-51.2
X40.45Y-56.0
X44.429Y-48.772
X45.728Y-54.622
X57.25Y-51.5
X60.773Y-41.999
T4
X29.78Y-46.31
X29.78Y-47.58
X29.78Y-48.85
X29.78Y-50.12
X29.78Y-51.39
X29.78Y-52.66
X29.78Y-53.93
X29.78Y-55.2
X31.05Y-46.31
X31.05Y-47.58
X31.05Y-48.85
X31.05Y-50.12
X31.05Y-51.39
X31.05Y-52.66
X31.05Y-53.93
X31.05Y-55.2
X50.06Y-60.13
X50.06Y-61.4
X51.33Y-60.13
X51.33Y-61.4
X52.6Y-60.13
X52.6Y-61.4
X53.87Y-60.13
X53.87Y-61.4
X55.14Y-60.13
X55.14Y-61.4
X56.41Y-60.13
X56.41Y-61.4
X57.68Y-60.13
X57.68Y-61.4
X65.31Y-48.85
X65.31Y-50.12
X65.31Y-51.39
X65.31Y-52.66
X65.31Y-53.93
X65.31Y-55.2
X66.58Y-48.85
X66.58Y-50.12
X66.58Y-51.39
X66.58Y-52.66
X66.58Y-53.93
X66.58Y-55.2
T5
X29.66Y-31.755
X29.66Y-33.025
X29.66Y-34.295
X29.66Y-35.565
X29.66Y-36.835
X29.66Y-38.105
X29.66Y-39.375
X29.66Y-40.645
X32.2Y-31.755
X32.2Y-33.025
X32.2Y-34.295
X32.2Y-35.565
X32.2Y-36.835
X32.2Y-38.105
X32.2Y-39.375
X32.2Y-40.645
X64.16Y-31.76
X64.16Y-33.03
X64.16Y-34.3
X64.16Y-35.57
X64.16Y-36.84
X64.16Y-38.11
X64.16Y-39.38
X64.16Y-40.65
X66.7Y-31.76
X66.7Y-33.03
X66.7Y-34.3
X66.7Y-35.57
X66.7Y-36.84
X66.7Y-38.11
X66.7Y-39.38
X66.7Y-40.65
T3
X38.56Y-56.235G85X38.56Y-57.335
G05
X38.56Y-60.565G85X38.56Y-61.365
G05
X47.2Y-56.235G85X47.2Y-57.335
G05
X47.2Y-60.565G85X47.2Y-61.365
G05
T0
M30
