%TF.GenerationSoftware,KiCad,Pcbnew,7.0.2*%
%TF.CreationDate,2023-07-30T21:57:49-04:00*%
%TF.ProjectId,OBC-Flight,4f42432d-466c-4696-9768-742e6b696361,rev?*%
%TF.SameCoordinates,Original*%
%TF.FileFunction,Drillmap*%
%TF.FilePolarity,Positive*%
%FSLAX45Y45*%
G04 Gerber Fmt 4.5, Leading zero omitted, Abs format (unit mm)*
G04 Created by KiCad (PCBNEW 7.0.2) date 2023-07-30 21:57:49*
%MOMM*%
%LPD*%
G01*
G04 APERTURE LIST*
%ADD10C,0.100000*%
%ADD11C,0.200000*%
%ADD12C,0.030000*%
%ADD13C,0.040000*%
%ADD14C,0.060000*%
%ADD15C,0.065000*%
%ADD16C,0.078700*%
G04 APERTURE END LIST*
D10*
X3630000Y-2740000D02*
G75*
G03*
X3630000Y-2740000I-200000J0D01*
G01*
X3630000Y-5920000D02*
G75*
G03*
X3630000Y-5920000I-200000J0D01*
G01*
X6410000Y-2740000D02*
G75*
G03*
X6410000Y-2740000I-200000J0D01*
G01*
X2818000Y-6330000D02*
X6818000Y-6330000D01*
X6410000Y-5920000D02*
G75*
G03*
X6410000Y-5920000I-200000J0D01*
G01*
X2818000Y-6330000D02*
X2818000Y-2330000D01*
X6818000Y-2330000D02*
X2818000Y-2330000D01*
X6818000Y-6330000D02*
X6818000Y-2330000D01*
D11*
D12*
X2883316Y-5654876D02*
X2913316Y-5684876D01*
X2913316Y-5654876D02*
X2883316Y-5684876D01*
X2885000Y-5875000D02*
X2915000Y-5905000D01*
X2915000Y-5875000D02*
X2885000Y-5905000D01*
X2943253Y-5652363D02*
X2973253Y-5682363D01*
X2973253Y-5652363D02*
X2943253Y-5682363D01*
X2975000Y-5765000D02*
X3005000Y-5795000D01*
X3005000Y-5765000D02*
X2975000Y-5795000D01*
X2985000Y-4335000D02*
X3015000Y-4365000D01*
X3015000Y-4335000D02*
X2985000Y-4365000D01*
X3015000Y-2895000D02*
X3045000Y-2925000D01*
X3045000Y-2895000D02*
X3015000Y-2925000D01*
X3044098Y-4488608D02*
X3074098Y-4518608D01*
X3074098Y-4488608D02*
X3044098Y-4518608D01*
X3045000Y-5985000D02*
X3075000Y-6015000D01*
X3075000Y-5985000D02*
X3045000Y-6015000D01*
X3120484Y-4472028D02*
X3150484Y-4502028D01*
X3150484Y-4472028D02*
X3120484Y-4502028D01*
X3205000Y-4575000D02*
X3235000Y-4605000D01*
X3235000Y-4575000D02*
X3205000Y-4605000D01*
X3205000Y-4655000D02*
X3235000Y-4685000D01*
X3235000Y-4655000D02*
X3205000Y-4685000D01*
X3270000Y-6215000D02*
X3300000Y-6245000D01*
X3300000Y-6215000D02*
X3270000Y-6245000D01*
X3285000Y-3865000D02*
X3315000Y-3895000D01*
X3315000Y-3865000D02*
X3285000Y-3895000D01*
X3294550Y-3765000D02*
X3324550Y-3795000D01*
X3324550Y-3765000D02*
X3294550Y-3795000D01*
X3295000Y-3695000D02*
X3325000Y-3725000D01*
X3325000Y-3695000D02*
X3295000Y-3725000D01*
X3305000Y-3965000D02*
X3335000Y-3995000D01*
X3335000Y-3965000D02*
X3305000Y-3995000D01*
X3305000Y-4045000D02*
X3335000Y-4075000D01*
X3335000Y-4045000D02*
X3305000Y-4075000D01*
X3308390Y-4118390D02*
X3338390Y-4148390D01*
X3338390Y-4118390D02*
X3308390Y-4148390D01*
X3345000Y-5035000D02*
X3375000Y-5065000D01*
X3375000Y-5035000D02*
X3345000Y-5065000D01*
X3355000Y-4965000D02*
X3385000Y-4995000D01*
X3385000Y-4965000D02*
X3355000Y-4995000D01*
X3359900Y-4750000D02*
X3389900Y-4780000D01*
X3389900Y-4750000D02*
X3359900Y-4780000D01*
X3389529Y-4697883D02*
X3419529Y-4727883D01*
X3419529Y-4697883D02*
X3389529Y-4727883D01*
X3399850Y-4633240D02*
X3429850Y-4663240D01*
X3429850Y-4633240D02*
X3399850Y-4663240D01*
X3415000Y-2385000D02*
X3445000Y-2415000D01*
X3445000Y-2385000D02*
X3415000Y-2415000D01*
X3428069Y-5401051D02*
X3458069Y-5431051D01*
X3458069Y-5401051D02*
X3428069Y-5431051D01*
X3430403Y-5490951D02*
X3460403Y-5520951D01*
X3460403Y-5490951D02*
X3430403Y-5520951D01*
X3449900Y-4165000D02*
X3479900Y-4195000D01*
X3479900Y-4165000D02*
X3449900Y-4195000D01*
X3451949Y-4662900D02*
X3481949Y-4692900D01*
X3481949Y-4662900D02*
X3451949Y-4692900D01*
X3455000Y-3305000D02*
X3485000Y-3335000D01*
X3485000Y-3305000D02*
X3455000Y-3335000D01*
X3455000Y-4235000D02*
X3485000Y-4265000D01*
X3485000Y-4235000D02*
X3455000Y-4265000D01*
X3465000Y-3545000D02*
X3495000Y-3575000D01*
X3495000Y-3545000D02*
X3465000Y-3575000D01*
X3465000Y-4325000D02*
X3495000Y-4355000D01*
X3495000Y-4325000D02*
X3465000Y-4355000D01*
X3465816Y-3164184D02*
X3495816Y-3194184D01*
X3495816Y-3164184D02*
X3465816Y-3194184D01*
X3473094Y-3606906D02*
X3503094Y-3636906D01*
X3503094Y-3606906D02*
X3473094Y-3636906D01*
X3495710Y-4706748D02*
X3525710Y-4736748D01*
X3525710Y-4706748D02*
X3495710Y-4736748D01*
X3502652Y-4615235D02*
X3532652Y-4645235D01*
X3532652Y-4615235D02*
X3502652Y-4645235D01*
X3505000Y-5075000D02*
X3535000Y-5105000D01*
X3535000Y-5075000D02*
X3505000Y-5105000D01*
X3508747Y-3819735D02*
X3538747Y-3849735D01*
X3538747Y-3819735D02*
X3508747Y-3849735D01*
X3519401Y-4761819D02*
X3549401Y-4791819D01*
X3549401Y-4761819D02*
X3519401Y-4791819D01*
X3535857Y-5460568D02*
X3565857Y-5490568D01*
X3565857Y-5460568D02*
X3535857Y-5490568D01*
X3537307Y-4489900D02*
X3567307Y-4519900D01*
X3567307Y-4489900D02*
X3537307Y-4519900D01*
X3538902Y-5400043D02*
X3568902Y-5430043D01*
X3568902Y-5400043D02*
X3538902Y-5430043D01*
X3550161Y-5518786D02*
X3580161Y-5548786D01*
X3580161Y-5518786D02*
X3550161Y-5548786D01*
X3553167Y-5122326D02*
X3583167Y-5152326D01*
X3583167Y-5122326D02*
X3553167Y-5152326D01*
X3555000Y-4025000D02*
X3585000Y-4055000D01*
X3585000Y-4025000D02*
X3555000Y-4055000D01*
X3555000Y-4085000D02*
X3585000Y-4115000D01*
X3585000Y-4085000D02*
X3555000Y-4115000D01*
X3560166Y-5181866D02*
X3590166Y-5211866D01*
X3590166Y-5181866D02*
X3560166Y-5211866D01*
X3565000Y-5325000D02*
X3595000Y-5355000D01*
X3595000Y-5325000D02*
X3565000Y-5355000D01*
X3578278Y-3239982D02*
X3608278Y-3269982D01*
X3608278Y-3239982D02*
X3578278Y-3269982D01*
X3599950Y-3335000D02*
X3629950Y-3365000D01*
X3629950Y-3335000D02*
X3599950Y-3365000D01*
X3600221Y-5549917D02*
X3630221Y-5579917D01*
X3630221Y-5549917D02*
X3600221Y-5579917D01*
X3615000Y-3015000D02*
X3645000Y-3045000D01*
X3645000Y-3015000D02*
X3615000Y-3045000D01*
X3644574Y-5590252D02*
X3674574Y-5620252D01*
X3674574Y-5590252D02*
X3644574Y-5620252D01*
X3675000Y-2845000D02*
X3705000Y-2875000D01*
X3705000Y-2845000D02*
X3675000Y-2875000D01*
X3692615Y-5626113D02*
X3722615Y-5656113D01*
X3722615Y-5626113D02*
X3692615Y-5656113D01*
X3785000Y-2395000D02*
X3815000Y-2425000D01*
X3815000Y-2395000D02*
X3785000Y-2425000D01*
X3814734Y-2969361D02*
X3844734Y-2999361D01*
X3844734Y-2969361D02*
X3814734Y-2999361D01*
X3815000Y-2765000D02*
X3845000Y-2795000D01*
X3845000Y-2765000D02*
X3815000Y-2795000D01*
X3815756Y-3508450D02*
X3845756Y-3538450D01*
X3845756Y-3508450D02*
X3815756Y-3538450D01*
X3825000Y-3135000D02*
X3855000Y-3165000D01*
X3855000Y-3135000D02*
X3825000Y-3165000D01*
X3825000Y-5325000D02*
X3855000Y-5355000D01*
X3855000Y-5325000D02*
X3825000Y-5355000D01*
X3845000Y-2695000D02*
X3875000Y-2725000D01*
X3875000Y-2695000D02*
X3845000Y-2725000D01*
X3906255Y-4289683D02*
X3936255Y-4319683D01*
X3936255Y-4289683D02*
X3906255Y-4319683D01*
X3925000Y-3125000D02*
X3955000Y-3155000D01*
X3955000Y-3125000D02*
X3925000Y-3155000D01*
X3925000Y-3595000D02*
X3955000Y-3625000D01*
X3955000Y-3595000D02*
X3925000Y-3625000D01*
X3945000Y-2655000D02*
X3975000Y-2685000D01*
X3975000Y-2655000D02*
X3945000Y-2685000D01*
X3951205Y-4241357D02*
X3981205Y-4271357D01*
X3981205Y-4241357D02*
X3951205Y-4271357D01*
X3985000Y-3825000D02*
X4015000Y-3855000D01*
X4015000Y-3825000D02*
X3985000Y-3855000D01*
X3996155Y-4189724D02*
X4026155Y-4219725D01*
X4026155Y-4189724D02*
X3996155Y-4219725D01*
X4000100Y-3602340D02*
X4030100Y-3632340D01*
X4030100Y-3602340D02*
X4000100Y-3632340D01*
X4025000Y-3465000D02*
X4055000Y-3495000D01*
X4055000Y-3465000D02*
X4025000Y-3495000D01*
X4025000Y-3535000D02*
X4055000Y-3565000D01*
X4055000Y-3535000D02*
X4025000Y-3565000D01*
X4035000Y-3125000D02*
X4065000Y-3155000D01*
X4065000Y-3125000D02*
X4035000Y-3155000D01*
X4096050Y-2635000D02*
X4126050Y-2665000D01*
X4126050Y-2635000D02*
X4096050Y-2665000D01*
X4105000Y-3185000D02*
X4135000Y-3215000D01*
X4135000Y-3185000D02*
X4105000Y-3215000D01*
X4125984Y-4789900D02*
X4155984Y-4819900D01*
X4155984Y-4789900D02*
X4125984Y-4819900D01*
X4136466Y-5240035D02*
X4166466Y-5270035D01*
X4166466Y-5240035D02*
X4136466Y-5270035D01*
X4145000Y-2735000D02*
X4175000Y-2765000D01*
X4175000Y-2735000D02*
X4145000Y-2765000D01*
X4175000Y-3860000D02*
X4205000Y-3890000D01*
X4205000Y-3860000D02*
X4175000Y-3890000D01*
X4180100Y-4205000D02*
X4210100Y-4235000D01*
X4210100Y-4205000D02*
X4180100Y-4235000D01*
X4180100Y-4303251D02*
X4210100Y-4333251D01*
X4210100Y-4303251D02*
X4180100Y-4333251D01*
X4195000Y-3605000D02*
X4225000Y-3635000D01*
X4225000Y-3605000D02*
X4195000Y-3635000D01*
X4195000Y-4785000D02*
X4225000Y-4815000D01*
X4225000Y-4785000D02*
X4195000Y-4815000D01*
X4205000Y-2635000D02*
X4235000Y-2665000D01*
X4235000Y-2635000D02*
X4205000Y-2665000D01*
X4212934Y-3920050D02*
X4242934Y-3950050D01*
X4242934Y-3920050D02*
X4212934Y-3950050D01*
X4225000Y-2575000D02*
X4255000Y-2605000D01*
X4255000Y-2575000D02*
X4225000Y-2605000D01*
X4285000Y-4789900D02*
X4315000Y-4819900D01*
X4315000Y-4789900D02*
X4285000Y-4819900D01*
X4295000Y-3045000D02*
X4325000Y-3075000D01*
X4325000Y-3045000D02*
X4295000Y-3075000D01*
X4305000Y-4625000D02*
X4335000Y-4655000D01*
X4335000Y-4625000D02*
X4305000Y-4655000D01*
X4315000Y-2755000D02*
X4345000Y-2785000D01*
X4345000Y-2755000D02*
X4315000Y-2785000D01*
X4345000Y-5325000D02*
X4375000Y-5355000D01*
X4375000Y-5325000D02*
X4345000Y-5355000D01*
X4355000Y-3675000D02*
X4385000Y-3705000D01*
X4385000Y-3675000D02*
X4355000Y-3705000D01*
X4367900Y-3616454D02*
X4397900Y-3646454D01*
X4397900Y-3616454D02*
X4367900Y-3646454D01*
X4385000Y-3825000D02*
X4415000Y-3855000D01*
X4415000Y-3825000D02*
X4385000Y-3855000D01*
X4385000Y-4085000D02*
X4415000Y-4115000D01*
X4415000Y-4085000D02*
X4385000Y-4115000D01*
X4395000Y-3225000D02*
X4425000Y-3255000D01*
X4425000Y-3225000D02*
X4395000Y-3255000D01*
X4405000Y-2415000D02*
X4435000Y-2445000D01*
X4435000Y-2415000D02*
X4405000Y-2445000D01*
X4405000Y-3355000D02*
X4435000Y-3385000D01*
X4435000Y-3355000D02*
X4405000Y-3385000D01*
X4415000Y-2755000D02*
X4445000Y-2785000D01*
X4445000Y-2755000D02*
X4415000Y-2785000D01*
X4415000Y-4475000D02*
X4445000Y-4505000D01*
X4445000Y-4475000D02*
X4415000Y-4505000D01*
X4455000Y-3415000D02*
X4485000Y-3445000D01*
X4485000Y-3415000D02*
X4455000Y-3445000D01*
X4505000Y-4805000D02*
X4535000Y-4835000D01*
X4535000Y-4805000D02*
X4505000Y-4835000D01*
X4525000Y-3465000D02*
X4555000Y-3495000D01*
X4555000Y-3465000D02*
X4525000Y-3495000D01*
X4535000Y-3225000D02*
X4565000Y-3255000D01*
X4565000Y-3225000D02*
X4535000Y-3255000D01*
X4535000Y-4505000D02*
X4565000Y-4535000D01*
X4565000Y-4505000D02*
X4535000Y-4535000D01*
X4545000Y-3375000D02*
X4575000Y-3405000D01*
X4575000Y-3375000D02*
X4545000Y-3405000D01*
X4575000Y-4805000D02*
X4605000Y-4835000D01*
X4605000Y-4805000D02*
X4575000Y-4835000D01*
X4595000Y-4665000D02*
X4625000Y-4695000D01*
X4625000Y-4665000D02*
X4595000Y-4695000D01*
X4625000Y-2715000D02*
X4655000Y-2745000D01*
X4655000Y-2715000D02*
X4625000Y-2745000D01*
X4629254Y-3840100D02*
X4659254Y-3870100D01*
X4659254Y-3840100D02*
X4629254Y-3870100D01*
X4635000Y-5175000D02*
X4665000Y-5205000D01*
X4665000Y-5175000D02*
X4635000Y-5205000D01*
X4695000Y-4555000D02*
X4725000Y-4585000D01*
X4725000Y-4555000D02*
X4695000Y-4585000D01*
X4705944Y-3760416D02*
X4735944Y-3790416D01*
X4735944Y-3760416D02*
X4705944Y-3790416D01*
X4715000Y-4795000D02*
X4745000Y-4825000D01*
X4745000Y-4795000D02*
X4715000Y-4825000D01*
X4725000Y-5165000D02*
X4755000Y-5195000D01*
X4755000Y-5165000D02*
X4725000Y-5195000D01*
X4735000Y-2755000D02*
X4765000Y-2785000D01*
X4765000Y-2755000D02*
X4735000Y-2785000D01*
X4735000Y-3685000D02*
X4765000Y-3715000D01*
X4765000Y-3685000D02*
X4735000Y-3715000D01*
X4759950Y-3612738D02*
X4789950Y-3642738D01*
X4789950Y-3612738D02*
X4759950Y-3642738D01*
X4805000Y-5185000D02*
X4835000Y-5215000D01*
X4835000Y-5185000D02*
X4805000Y-5215000D01*
X4815000Y-4079950D02*
X4845000Y-4109950D01*
X4845000Y-4079950D02*
X4815000Y-4109950D01*
X4835000Y-2585000D02*
X4865000Y-2615000D01*
X4865000Y-2585000D02*
X4835000Y-2615000D01*
X4835000Y-2655000D02*
X4865000Y-2685000D01*
X4865000Y-2655000D02*
X4835000Y-2685000D01*
X4835000Y-3225000D02*
X4865000Y-3255000D01*
X4865000Y-3225000D02*
X4835000Y-3255000D01*
X4835000Y-4655000D02*
X4865000Y-4685000D01*
X4865000Y-4655000D02*
X4835000Y-4685000D01*
X4835000Y-4875000D02*
X4865000Y-4905000D01*
X4865000Y-4875000D02*
X4835000Y-4905000D01*
X4845000Y-3385000D02*
X4875000Y-3415000D01*
X4875000Y-3385000D02*
X4845000Y-3415000D01*
X4875000Y-3855000D02*
X4905000Y-3885000D01*
X4905000Y-3855000D02*
X4875000Y-3885000D01*
X4895902Y-2611392D02*
X4925902Y-2641392D01*
X4925902Y-2611392D02*
X4895902Y-2641392D01*
X4905000Y-2775000D02*
X4935000Y-2805000D01*
X4935000Y-2775000D02*
X4905000Y-2805000D01*
X4919274Y-3674224D02*
X4949274Y-3704224D01*
X4949274Y-3674224D02*
X4919274Y-3704224D01*
X4925000Y-3745000D02*
X4955000Y-3775000D01*
X4955000Y-3745000D02*
X4925000Y-3775000D01*
X4945000Y-3345000D02*
X4975000Y-3375000D01*
X4975000Y-3345000D02*
X4945000Y-3375000D01*
X4945000Y-4535000D02*
X4975000Y-4565000D01*
X4975000Y-4535000D02*
X4945000Y-4565000D01*
X4952901Y-3977973D02*
X4982901Y-4007973D01*
X4982901Y-3977973D02*
X4952901Y-4007973D01*
X4955000Y-5365000D02*
X4985000Y-5395000D01*
X4985000Y-5365000D02*
X4955000Y-5395000D01*
X4965000Y-2595000D02*
X4995000Y-2625000D01*
X4995000Y-2595000D02*
X4965000Y-2625000D01*
X4975000Y-3625000D02*
X5005000Y-3655000D01*
X5005000Y-3625000D02*
X4975000Y-3655000D01*
X5042243Y-4816835D02*
X5072243Y-4846835D01*
X5072243Y-4816835D02*
X5042243Y-4846835D01*
X5042933Y-3980050D02*
X5072933Y-4010050D01*
X5072933Y-3980050D02*
X5042933Y-4010050D01*
X5045000Y-2625000D02*
X5075000Y-2655000D01*
X5075000Y-2625000D02*
X5045000Y-2655000D01*
X5045000Y-4910100D02*
X5075000Y-4940100D01*
X5075000Y-4910100D02*
X5045000Y-4940100D01*
X5075000Y-4515000D02*
X5105000Y-4545000D01*
X5105000Y-4515000D02*
X5075000Y-4545000D01*
X5075000Y-5185000D02*
X5105000Y-5215000D01*
X5105000Y-5185000D02*
X5075000Y-5215000D01*
X5085000Y-3005000D02*
X5115000Y-3035000D01*
X5115000Y-3005000D02*
X5085000Y-3035000D01*
X5095000Y-2745000D02*
X5125000Y-2775000D01*
X5125000Y-2745000D02*
X5095000Y-2775000D01*
X5104427Y-4781498D02*
X5134427Y-4811498D01*
X5134427Y-4781498D02*
X5104427Y-4811498D01*
X5115000Y-2385000D02*
X5145000Y-2415000D01*
X5145000Y-2385000D02*
X5115000Y-2415000D01*
X5115000Y-3255000D02*
X5145000Y-3285000D01*
X5145000Y-3255000D02*
X5115000Y-3285000D01*
X5145000Y-3035000D02*
X5175000Y-3065000D01*
X5175000Y-3035000D02*
X5145000Y-3065000D01*
X5155000Y-3365000D02*
X5185000Y-3395000D01*
X5185000Y-3365000D02*
X5155000Y-3395000D01*
X5155000Y-4515000D02*
X5185000Y-4545000D01*
X5185000Y-4515000D02*
X5155000Y-4545000D01*
X5175000Y-3105000D02*
X5205000Y-3135000D01*
X5205000Y-3105000D02*
X5175000Y-3135000D01*
X5175000Y-5185000D02*
X5205000Y-5215000D01*
X5205000Y-5185000D02*
X5175000Y-5215000D01*
X5185000Y-5725000D02*
X5215000Y-5755000D01*
X5215000Y-5725000D02*
X5185000Y-5755000D01*
X5195000Y-4910100D02*
X5225000Y-4940100D01*
X5225000Y-4910100D02*
X5195000Y-4940100D01*
X5215000Y-4515000D02*
X5245000Y-4545000D01*
X5245000Y-4515000D02*
X5215000Y-4545000D01*
X5219950Y-3889838D02*
X5249950Y-3919838D01*
X5249950Y-3889838D02*
X5219950Y-3919838D01*
X5220050Y-4085000D02*
X5250050Y-4115000D01*
X5250050Y-4085000D02*
X5220050Y-4115000D01*
X5265000Y-4913830D02*
X5295000Y-4943830D01*
X5295000Y-4913830D02*
X5265000Y-4943830D01*
X5285000Y-4425000D02*
X5315000Y-4455000D01*
X5315000Y-4425000D02*
X5285000Y-4455000D01*
X5295000Y-2535000D02*
X5325000Y-2565000D01*
X5325000Y-2535000D02*
X5295000Y-2565000D01*
X5295000Y-5145000D02*
X5325000Y-5175000D01*
X5325000Y-5145000D02*
X5295000Y-5175000D01*
X5354016Y-5589950D02*
X5384016Y-5619950D01*
X5384016Y-5589950D02*
X5354016Y-5619950D01*
X5355082Y-5649891D02*
X5385082Y-5679891D01*
X5385082Y-5649891D02*
X5355082Y-5679891D01*
X5365000Y-3775000D02*
X5395000Y-3805000D01*
X5395000Y-3775000D02*
X5365000Y-3805000D01*
X5365000Y-4378660D02*
X5395000Y-4408660D01*
X5395000Y-4378660D02*
X5365000Y-4408660D01*
X5365000Y-4745000D02*
X5395000Y-4775000D01*
X5395000Y-4745000D02*
X5365000Y-4775000D01*
X5367209Y-4438569D02*
X5397209Y-4468569D01*
X5397209Y-4438569D02*
X5367209Y-4468569D01*
X5395000Y-2765000D02*
X5425000Y-2795000D01*
X5425000Y-2765000D02*
X5395000Y-2795000D01*
X5421749Y-4701749D02*
X5451749Y-4731749D01*
X5451749Y-4701749D02*
X5421749Y-4731749D01*
X5425000Y-3825000D02*
X5455000Y-3855000D01*
X5455000Y-3825000D02*
X5425000Y-3855000D01*
X5425000Y-4285000D02*
X5455000Y-4315000D01*
X5455000Y-4285000D02*
X5425000Y-4315000D01*
X5425000Y-4765000D02*
X5455000Y-4795000D01*
X5455000Y-4765000D02*
X5425000Y-4795000D01*
X5435000Y-3685000D02*
X5465000Y-3715000D01*
X5465000Y-3685000D02*
X5435000Y-3715000D01*
X5435000Y-4355000D02*
X5465000Y-4385000D01*
X5465000Y-4355000D02*
X5435000Y-4385000D01*
X5435000Y-4595000D02*
X5465000Y-4625000D01*
X5465000Y-4595000D02*
X5435000Y-4625000D01*
X5445000Y-3005000D02*
X5475000Y-3035000D01*
X5475000Y-3005000D02*
X5445000Y-3035000D01*
X5455000Y-3105000D02*
X5485000Y-3135000D01*
X5485000Y-3105000D02*
X5455000Y-3135000D01*
X5481582Y-4705503D02*
X5511582Y-4735503D01*
X5511582Y-4705503D02*
X5481582Y-4735503D01*
X5482761Y-4912642D02*
X5512761Y-4942642D01*
X5512761Y-4912642D02*
X5482761Y-4942642D01*
X5489338Y-4467265D02*
X5519338Y-4497265D01*
X5519338Y-4467265D02*
X5489338Y-4497265D01*
X5495000Y-3055000D02*
X5525000Y-3085000D01*
X5525000Y-3055000D02*
X5495000Y-3085000D01*
X5495000Y-5154148D02*
X5525000Y-5184148D01*
X5525000Y-5154148D02*
X5495000Y-5184148D01*
X5545000Y-4445000D02*
X5575000Y-4475000D01*
X5575000Y-4445000D02*
X5545000Y-4475000D01*
X5545327Y-4705327D02*
X5575327Y-4735327D01*
X5575327Y-4705327D02*
X5545327Y-4735327D01*
X5558251Y-4808251D02*
X5588251Y-4838251D01*
X5588251Y-4808251D02*
X5558251Y-4838251D01*
X5564000Y-4209569D02*
X5594000Y-4239569D01*
X5594000Y-4209569D02*
X5564000Y-4239569D01*
X5566757Y-4386214D02*
X5596757Y-4416214D01*
X5596757Y-4386214D02*
X5566757Y-4416214D01*
X5588251Y-2988251D02*
X5618251Y-3018251D01*
X5618251Y-2988251D02*
X5588251Y-3018251D01*
X5595000Y-4755000D02*
X5625000Y-4785000D01*
X5625000Y-4755000D02*
X5595000Y-4785000D01*
X5605000Y-4085000D02*
X5635000Y-4115000D01*
X5635000Y-4085000D02*
X5605000Y-4115000D01*
X5615000Y-3895000D02*
X5645000Y-3925000D01*
X5645000Y-3895000D02*
X5615000Y-3925000D01*
X5615000Y-5385000D02*
X5645000Y-5415000D01*
X5645000Y-5385000D02*
X5615000Y-5415000D01*
X5615000Y-5495000D02*
X5645000Y-5525000D01*
X5645000Y-5495000D02*
X5615000Y-5525000D01*
X5635000Y-2375000D02*
X5665000Y-2405000D01*
X5665000Y-2375000D02*
X5635000Y-2405000D01*
X5639950Y-2639950D02*
X5669950Y-2669950D01*
X5669950Y-2639950D02*
X5639950Y-2669950D01*
X5642095Y-4913830D02*
X5672095Y-4943830D01*
X5672095Y-4913830D02*
X5642095Y-4943830D01*
X5665000Y-3575000D02*
X5695000Y-3605000D01*
X5695000Y-3575000D02*
X5665000Y-3605000D01*
X5673317Y-3156554D02*
X5703317Y-3186554D01*
X5703317Y-3156554D02*
X5673317Y-3186554D01*
X5675000Y-3655000D02*
X5705000Y-3685000D01*
X5705000Y-3655000D02*
X5675000Y-3685000D01*
X5687266Y-2676763D02*
X5717266Y-2706763D01*
X5717266Y-2676763D02*
X5687266Y-2706763D01*
X5705000Y-4909950D02*
X5735000Y-4939950D01*
X5735000Y-4909950D02*
X5705000Y-4939950D01*
X5715000Y-3795000D02*
X5745000Y-3825000D01*
X5745000Y-3795000D02*
X5715000Y-3825000D01*
X5717360Y-3115881D02*
X5747360Y-3145881D01*
X5747360Y-3115881D02*
X5717360Y-3145881D01*
X5725000Y-3205000D02*
X5755000Y-3235000D01*
X5755000Y-3205000D02*
X5725000Y-3235000D01*
X5726673Y-3555506D02*
X5756673Y-3585506D01*
X5756673Y-3555506D02*
X5726673Y-3585506D01*
X5755000Y-2665000D02*
X5785000Y-2695000D01*
X5785000Y-2665000D02*
X5755000Y-2695000D01*
X5775000Y-5495000D02*
X5805000Y-5525000D01*
X5805000Y-5495000D02*
X5775000Y-5525000D01*
X5785000Y-2595000D02*
X5815000Y-2625000D01*
X5815000Y-2595000D02*
X5785000Y-2625000D01*
X5885000Y-5545000D02*
X5915000Y-5575000D01*
X5915000Y-5545000D02*
X5885000Y-5575000D01*
X5885000Y-5805000D02*
X5915000Y-5835000D01*
X5915000Y-5805000D02*
X5885000Y-5835000D01*
X5895000Y-2505000D02*
X5925000Y-2535000D01*
X5925000Y-2505000D02*
X5895000Y-2535000D01*
X5910050Y-5899740D02*
X5940050Y-5929740D01*
X5940050Y-5899740D02*
X5910050Y-5929740D01*
X5915000Y-2395000D02*
X5945000Y-2425000D01*
X5945000Y-2395000D02*
X5915000Y-2425000D01*
X5937873Y-3978870D02*
X5967873Y-4008870D01*
X5967873Y-3978870D02*
X5937873Y-4008870D01*
X5940100Y-3335000D02*
X5970100Y-3365000D01*
X5970100Y-3335000D02*
X5940100Y-3365000D01*
X5946884Y-4040981D02*
X5976884Y-4070981D01*
X5976884Y-4040981D02*
X5946884Y-4070981D01*
X5947157Y-3919643D02*
X5977157Y-3949643D01*
X5977157Y-3919643D02*
X5947157Y-3949643D01*
X5949669Y-3422277D02*
X5979669Y-3452277D01*
X5979669Y-3422277D02*
X5949669Y-3452277D01*
X5955000Y-4735000D02*
X5985000Y-4765000D01*
X5985000Y-4735000D02*
X5955000Y-4765000D01*
X5960100Y-4655000D02*
X5990100Y-4685000D01*
X5990100Y-4655000D02*
X5960100Y-4685000D01*
X5975000Y-4455000D02*
X6005000Y-4485000D01*
X6005000Y-4455000D02*
X5975000Y-4485000D01*
X5985000Y-5145000D02*
X6015000Y-5175000D01*
X6015000Y-5145000D02*
X5985000Y-5175000D01*
X5995458Y-3460973D02*
X6025458Y-3490973D01*
X6025458Y-3460973D02*
X5995458Y-3490973D01*
X6015000Y-4845000D02*
X6045000Y-4875000D01*
X6045000Y-4845000D02*
X6015000Y-4875000D01*
X6024309Y-3559259D02*
X6054309Y-3589259D01*
X6054309Y-3559259D02*
X6024309Y-3589259D01*
X6035000Y-2915000D02*
X6065000Y-2945000D01*
X6065000Y-2915000D02*
X6035000Y-2945000D01*
X6045000Y-3015000D02*
X6075000Y-3045000D01*
X6075000Y-3015000D02*
X6045000Y-3045000D01*
X6045000Y-4445000D02*
X6075000Y-4475000D01*
X6075000Y-4445000D02*
X6045000Y-4475000D01*
X6065000Y-4305000D02*
X6095000Y-4335000D01*
X6095000Y-4305000D02*
X6065000Y-4335000D01*
X6075000Y-4495000D02*
X6105000Y-4525000D01*
X6105000Y-4495000D02*
X6075000Y-4525000D01*
X6075000Y-4565000D02*
X6105000Y-4595000D01*
X6105000Y-4565000D02*
X6075000Y-4595000D01*
X6095000Y-5315000D02*
X6125000Y-5345000D01*
X6125000Y-5315000D02*
X6095000Y-5345000D01*
X6155000Y-3015000D02*
X6185000Y-3045000D01*
X6185000Y-3015000D02*
X6155000Y-3045000D01*
X6165000Y-4995000D02*
X6195000Y-5025000D01*
X6195000Y-4995000D02*
X6165000Y-5025000D01*
X6174151Y-3704871D02*
X6204151Y-3734871D01*
X6204151Y-3704871D02*
X6174151Y-3734871D01*
X6175000Y-3945000D02*
X6205000Y-3975000D01*
X6205000Y-3945000D02*
X6175000Y-3975000D01*
X6245000Y-3125000D02*
X6275000Y-3155000D01*
X6275000Y-3125000D02*
X6245000Y-3155000D01*
X6245000Y-3365000D02*
X6275000Y-3395000D01*
X6275000Y-3365000D02*
X6245000Y-3395000D01*
X6246200Y-3635000D02*
X6276200Y-3665000D01*
X6276200Y-3635000D02*
X6246200Y-3665000D01*
X6255000Y-3525000D02*
X6285000Y-3555000D01*
X6285000Y-3525000D02*
X6255000Y-3555000D01*
X6255000Y-5155000D02*
X6285000Y-5185000D01*
X6285000Y-5155000D02*
X6255000Y-5185000D01*
X6263543Y-3730229D02*
X6293543Y-3760229D01*
X6293543Y-3730229D02*
X6263543Y-3760229D01*
X6265000Y-4355000D02*
X6295000Y-4385000D01*
X6295000Y-4355000D02*
X6265000Y-4385000D01*
X6265000Y-4585000D02*
X6295000Y-4615000D01*
X6295000Y-4585000D02*
X6265000Y-4615000D01*
X6265000Y-4735000D02*
X6295000Y-4765000D01*
X6295000Y-4735000D02*
X6265000Y-4765000D01*
X6305000Y-2405000D02*
X6335000Y-2435000D01*
X6335000Y-2405000D02*
X6305000Y-2435000D01*
X6305000Y-5585000D02*
X6335000Y-5615000D01*
X6335000Y-5585000D02*
X6305000Y-5615000D01*
X6355000Y-2965000D02*
X6385000Y-2995000D01*
X6385000Y-2965000D02*
X6355000Y-2995000D01*
X6359950Y-4566785D02*
X6389950Y-4596785D01*
X6389950Y-4566785D02*
X6359950Y-4596785D01*
X6385000Y-2475000D02*
X6415000Y-2505000D01*
X6415000Y-2475000D02*
X6385000Y-2505000D01*
X6405000Y-4175155D02*
X6435000Y-4205155D01*
X6435000Y-4175155D02*
X6405000Y-4205155D01*
X6405000Y-6175000D02*
X6435000Y-6205000D01*
X6435000Y-6175000D02*
X6405000Y-6205000D01*
X6410150Y-4416082D02*
X6440150Y-4446082D01*
X6440150Y-4416082D02*
X6410150Y-4446082D01*
X6435000Y-2875000D02*
X6465000Y-2905000D01*
X6465000Y-2875000D02*
X6435000Y-2905000D01*
X6445000Y-4475000D02*
X6475000Y-4505000D01*
X6475000Y-4475000D02*
X6445000Y-4505000D01*
X6450150Y-4542565D02*
X6480150Y-4572565D01*
X6480150Y-4542565D02*
X6450150Y-4572565D01*
X6615000Y-6125000D02*
X6645000Y-6155000D01*
X6645000Y-6125000D02*
X6615000Y-6155000D01*
X6620100Y-4605000D02*
X6650100Y-4635000D01*
X6650100Y-4605000D02*
X6620100Y-4635000D01*
X6645000Y-2465000D02*
X6675000Y-2495000D01*
X6675000Y-2465000D02*
X6645000Y-2495000D01*
X6645000Y-4525000D02*
X6675000Y-4555000D01*
X6675000Y-4525000D02*
X6645000Y-4555000D01*
X6655000Y-4345000D02*
X6685000Y-4375000D01*
X6685000Y-4345000D02*
X6655000Y-4375000D01*
X6675000Y-3015000D02*
X6705000Y-3045000D01*
X6705000Y-3015000D02*
X6675000Y-3045000D01*
X6675000Y-5915000D02*
X6705000Y-5945000D01*
X6705000Y-5915000D02*
X6675000Y-5945000D01*
X6695000Y-2925000D02*
X6725000Y-2955000D01*
X6725000Y-2925000D02*
X6695000Y-2955000D01*
D13*
X3749950Y-5120050D02*
G75*
G03*
X3749950Y-5120050I-20000J0D01*
G01*
X4065000Y-5600050D02*
G75*
G03*
X4065000Y-5600050I-20000J0D01*
G01*
X4462949Y-4877158D02*
G75*
G03*
X4462949Y-4877158I-20000J0D01*
G01*
X4592820Y-5462180D02*
G75*
G03*
X4592820Y-5462180I-20000J0D01*
G01*
X5745000Y-5150000D02*
G75*
G03*
X5745000Y-5150000I-20000J0D01*
G01*
X6097328Y-4199950D02*
G75*
G03*
X6097328Y-4199950I-20000J0D01*
G01*
D14*
X3856000Y-5648500D02*
X3856000Y-5708500D01*
X3826000Y-5678500D02*
X3886000Y-5678500D01*
D11*
X3826000Y-5623500D02*
X3826000Y-5733500D01*
X3826000Y-5733500D02*
G75*
G03*
X3886000Y-5733500I30000J0D01*
G01*
X3886000Y-5733500D02*
X3886000Y-5623500D01*
X3886000Y-5623500D02*
G75*
G03*
X3826000Y-5623500I-30000J0D01*
G01*
D14*
X3856000Y-6066500D02*
X3856000Y-6126500D01*
X3826000Y-6096500D02*
X3886000Y-6096500D01*
D11*
X3826000Y-6056500D02*
X3826000Y-6136500D01*
X3826000Y-6136500D02*
G75*
G03*
X3886000Y-6136500I30000J0D01*
G01*
X3886000Y-6136500D02*
X3886000Y-6056500D01*
X3886000Y-6056500D02*
G75*
G03*
X3826000Y-6056500I-30000J0D01*
G01*
D14*
X4720000Y-5648500D02*
X4720000Y-5708500D01*
X4690000Y-5678500D02*
X4750000Y-5678500D01*
D11*
X4690000Y-5623500D02*
X4690000Y-5733500D01*
X4690000Y-5733500D02*
G75*
G03*
X4750000Y-5733500I30000J0D01*
G01*
X4750000Y-5733500D02*
X4750000Y-5623500D01*
X4750000Y-5623500D02*
G75*
G03*
X4690000Y-5623500I-30000J0D01*
G01*
D14*
X4720000Y-6066500D02*
X4720000Y-6126500D01*
X4690000Y-6096500D02*
X4750000Y-6096500D01*
D11*
X4690000Y-6056500D02*
X4690000Y-6136500D01*
X4690000Y-6136500D02*
G75*
G03*
X4750000Y-6136500I30000J0D01*
G01*
X4750000Y-6136500D02*
X4750000Y-6056500D01*
X4750000Y-6056500D02*
G75*
G03*
X4690000Y-6056500I-30000J0D01*
G01*
D15*
X3000981Y-4653981D02*
X3000981Y-4608019D01*
X2955019Y-4608019D01*
X2955019Y-4653981D01*
X3000981Y-4653981D01*
X3000981Y-4780981D02*
X3000981Y-4735019D01*
X2955019Y-4735019D01*
X2955019Y-4780981D01*
X3000981Y-4780981D01*
X3000981Y-4907981D02*
X3000981Y-4862019D01*
X2955019Y-4862019D01*
X2955019Y-4907981D01*
X3000981Y-4907981D01*
X3000981Y-5034981D02*
X3000981Y-4989019D01*
X2955019Y-4989019D01*
X2955019Y-5034981D01*
X3000981Y-5034981D01*
X3000981Y-5161981D02*
X3000981Y-5116019D01*
X2955019Y-5116019D01*
X2955019Y-5161981D01*
X3000981Y-5161981D01*
X3000981Y-5288981D02*
X3000981Y-5243019D01*
X2955019Y-5243019D01*
X2955019Y-5288981D01*
X3000981Y-5288981D01*
X3000981Y-5415981D02*
X3000981Y-5370019D01*
X2955019Y-5370019D01*
X2955019Y-5415981D01*
X3000981Y-5415981D01*
X3000981Y-5542981D02*
X3000981Y-5497019D01*
X2955019Y-5497019D01*
X2955019Y-5542981D01*
X3000981Y-5542981D01*
X3127981Y-4653981D02*
X3127981Y-4608019D01*
X3082019Y-4608019D01*
X3082019Y-4653981D01*
X3127981Y-4653981D01*
X3127981Y-4780981D02*
X3127981Y-4735019D01*
X3082019Y-4735019D01*
X3082019Y-4780981D01*
X3127981Y-4780981D01*
X3127981Y-4907981D02*
X3127981Y-4862019D01*
X3082019Y-4862019D01*
X3082019Y-4907981D01*
X3127981Y-4907981D01*
X3127981Y-5034981D02*
X3127981Y-4989019D01*
X3082019Y-4989019D01*
X3082019Y-5034981D01*
X3127981Y-5034981D01*
X3127981Y-5161981D02*
X3127981Y-5116019D01*
X3082019Y-5116019D01*
X3082019Y-5161981D01*
X3127981Y-5161981D01*
X3127981Y-5288981D02*
X3127981Y-5243019D01*
X3082019Y-5243019D01*
X3082019Y-5288981D01*
X3127981Y-5288981D01*
X3127981Y-5415981D02*
X3127981Y-5370019D01*
X3082019Y-5370019D01*
X3082019Y-5415981D01*
X3127981Y-5415981D01*
X3127981Y-5542981D02*
X3127981Y-5497019D01*
X3082019Y-5497019D01*
X3082019Y-5542981D01*
X3127981Y-5542981D01*
X5028981Y-6035981D02*
X5028981Y-5990019D01*
X4983019Y-5990019D01*
X4983019Y-6035981D01*
X5028981Y-6035981D01*
X5028981Y-6162981D02*
X5028981Y-6117019D01*
X4983019Y-6117019D01*
X4983019Y-6162981D01*
X5028981Y-6162981D01*
X5155981Y-6035981D02*
X5155981Y-5990019D01*
X5110019Y-5990019D01*
X5110019Y-6035981D01*
X5155981Y-6035981D01*
X5155981Y-6162981D02*
X5155981Y-6117019D01*
X5110019Y-6117019D01*
X5110019Y-6162981D01*
X5155981Y-6162981D01*
X5282981Y-6035981D02*
X5282981Y-5990019D01*
X5237019Y-5990019D01*
X5237019Y-6035981D01*
X5282981Y-6035981D01*
X5282981Y-6162981D02*
X5282981Y-6117019D01*
X5237019Y-6117019D01*
X5237019Y-6162981D01*
X5282981Y-6162981D01*
X5409981Y-6035981D02*
X5409981Y-5990019D01*
X5364019Y-5990019D01*
X5364019Y-6035981D01*
X5409981Y-6035981D01*
X5409981Y-6162981D02*
X5409981Y-6117019D01*
X5364019Y-6117019D01*
X5364019Y-6162981D01*
X5409981Y-6162981D01*
X5536981Y-6035981D02*
X5536981Y-5990019D01*
X5491019Y-5990019D01*
X5491019Y-6035981D01*
X5536981Y-6035981D01*
X5536981Y-6162981D02*
X5536981Y-6117019D01*
X5491019Y-6117019D01*
X5491019Y-6162981D01*
X5536981Y-6162981D01*
X5663981Y-6035981D02*
X5663981Y-5990019D01*
X5618019Y-5990019D01*
X5618019Y-6035981D01*
X5663981Y-6035981D01*
X5663981Y-6162981D02*
X5663981Y-6117019D01*
X5618019Y-6117019D01*
X5618019Y-6162981D01*
X5663981Y-6162981D01*
X5790981Y-6035981D02*
X5790981Y-5990019D01*
X5745019Y-5990019D01*
X5745019Y-6035981D01*
X5790981Y-6035981D01*
X5790981Y-6162981D02*
X5790981Y-6117019D01*
X5745019Y-6117019D01*
X5745019Y-6162981D01*
X5790981Y-6162981D01*
X6553981Y-4907981D02*
X6553981Y-4862019D01*
X6508019Y-4862019D01*
X6508019Y-4907981D01*
X6553981Y-4907981D01*
X6553981Y-5034981D02*
X6553981Y-4989019D01*
X6508019Y-4989019D01*
X6508019Y-5034981D01*
X6553981Y-5034981D01*
X6553981Y-5161981D02*
X6553981Y-5116019D01*
X6508019Y-5116019D01*
X6508019Y-5161981D01*
X6553981Y-5161981D01*
X6553981Y-5288981D02*
X6553981Y-5243019D01*
X6508019Y-5243019D01*
X6508019Y-5288981D01*
X6553981Y-5288981D01*
X6553981Y-5415981D02*
X6553981Y-5370019D01*
X6508019Y-5370019D01*
X6508019Y-5415981D01*
X6553981Y-5415981D01*
X6553981Y-5542981D02*
X6553981Y-5497019D01*
X6508019Y-5497019D01*
X6508019Y-5542981D01*
X6553981Y-5542981D01*
X6680981Y-4907981D02*
X6680981Y-4862019D01*
X6635019Y-4862019D01*
X6635019Y-4907981D01*
X6680981Y-4907981D01*
X6680981Y-5034981D02*
X6680981Y-4989019D01*
X6635019Y-4989019D01*
X6635019Y-5034981D01*
X6680981Y-5034981D01*
X6680981Y-5161981D02*
X6680981Y-5116019D01*
X6635019Y-5116019D01*
X6635019Y-5161981D01*
X6680981Y-5161981D01*
X6680981Y-5288981D02*
X6680981Y-5243019D01*
X6635019Y-5243019D01*
X6635019Y-5288981D01*
X6680981Y-5288981D01*
X6680981Y-5415981D02*
X6680981Y-5370019D01*
X6635019Y-5370019D01*
X6635019Y-5415981D01*
X6680981Y-5415981D01*
X6680981Y-5542981D02*
X6680981Y-5497019D01*
X6635019Y-5497019D01*
X6635019Y-5542981D01*
X6680981Y-5542981D01*
D16*
X2966000Y-3214850D02*
X3005350Y-3175500D01*
X2966000Y-3136150D01*
X2926650Y-3175500D01*
X2966000Y-3214850D01*
X2966000Y-3341850D02*
X3005350Y-3302500D01*
X2966000Y-3263150D01*
X2926650Y-3302500D01*
X2966000Y-3341850D01*
X2966000Y-3468850D02*
X3005350Y-3429500D01*
X2966000Y-3390150D01*
X2926650Y-3429500D01*
X2966000Y-3468850D01*
X2966000Y-3595850D02*
X3005350Y-3556500D01*
X2966000Y-3517150D01*
X2926650Y-3556500D01*
X2966000Y-3595850D01*
X2966000Y-3722850D02*
X3005350Y-3683500D01*
X2966000Y-3644150D01*
X2926650Y-3683500D01*
X2966000Y-3722850D01*
X2966000Y-3849850D02*
X3005350Y-3810500D01*
X2966000Y-3771150D01*
X2926650Y-3810500D01*
X2966000Y-3849850D01*
X2966000Y-3976850D02*
X3005350Y-3937500D01*
X2966000Y-3898150D01*
X2926650Y-3937500D01*
X2966000Y-3976850D01*
X2966000Y-4103850D02*
X3005350Y-4064500D01*
X2966000Y-4025150D01*
X2926650Y-4064500D01*
X2966000Y-4103850D01*
X3220000Y-3214850D02*
X3259350Y-3175500D01*
X3220000Y-3136150D01*
X3180650Y-3175500D01*
X3220000Y-3214850D01*
X3220000Y-3341850D02*
X3259350Y-3302500D01*
X3220000Y-3263150D01*
X3180650Y-3302500D01*
X3220000Y-3341850D01*
X3220000Y-3468850D02*
X3259350Y-3429500D01*
X3220000Y-3390150D01*
X3180650Y-3429500D01*
X3220000Y-3468850D01*
X3220000Y-3595850D02*
X3259350Y-3556500D01*
X3220000Y-3517150D01*
X3180650Y-3556500D01*
X3220000Y-3595850D01*
X3220000Y-3722850D02*
X3259350Y-3683500D01*
X3220000Y-3644150D01*
X3180650Y-3683500D01*
X3220000Y-3722850D01*
X3220000Y-3849850D02*
X3259350Y-3810500D01*
X3220000Y-3771150D01*
X3180650Y-3810500D01*
X3220000Y-3849850D01*
X3220000Y-3976850D02*
X3259350Y-3937500D01*
X3220000Y-3898150D01*
X3180650Y-3937500D01*
X3220000Y-3976850D01*
X3220000Y-4103850D02*
X3259350Y-4064500D01*
X3220000Y-4025150D01*
X3180650Y-4064500D01*
X3220000Y-4103850D01*
X6416000Y-3215350D02*
X6455350Y-3176000D01*
X6416000Y-3136650D01*
X6376650Y-3176000D01*
X6416000Y-3215350D01*
X6416000Y-3342350D02*
X6455350Y-3303000D01*
X6416000Y-3263650D01*
X6376650Y-3303000D01*
X6416000Y-3342350D01*
X6416000Y-3469350D02*
X6455350Y-3430000D01*
X6416000Y-3390650D01*
X6376650Y-3430000D01*
X6416000Y-3469350D01*
X6416000Y-3596350D02*
X6455350Y-3557000D01*
X6416000Y-3517650D01*
X6376650Y-3557000D01*
X6416000Y-3596350D01*
X6416000Y-3723350D02*
X6455350Y-3684000D01*
X6416000Y-3644650D01*
X6376650Y-3684000D01*
X6416000Y-3723350D01*
X6416000Y-3850350D02*
X6455350Y-3811000D01*
X6416000Y-3771650D01*
X6376650Y-3811000D01*
X6416000Y-3850350D01*
X6416000Y-3977350D02*
X6455350Y-3938000D01*
X6416000Y-3898650D01*
X6376650Y-3938000D01*
X6416000Y-3977350D01*
X6416000Y-4104350D02*
X6455350Y-4065000D01*
X6416000Y-4025650D01*
X6376650Y-4065000D01*
X6416000Y-4104350D01*
X6670000Y-3215350D02*
X6709350Y-3176000D01*
X6670000Y-3136650D01*
X6630650Y-3176000D01*
X6670000Y-3215350D01*
X6670000Y-3342350D02*
X6709350Y-3303000D01*
X6670000Y-3263650D01*
X6630650Y-3303000D01*
X6670000Y-3342350D01*
X6670000Y-3469350D02*
X6709350Y-3430000D01*
X6670000Y-3390650D01*
X6630650Y-3430000D01*
X6670000Y-3469350D01*
X6670000Y-3596350D02*
X6709350Y-3557000D01*
X6670000Y-3517650D01*
X6630650Y-3557000D01*
X6670000Y-3596350D01*
X6670000Y-3723350D02*
X6709350Y-3684000D01*
X6670000Y-3644650D01*
X6630650Y-3684000D01*
X6670000Y-3723350D01*
X6670000Y-3850350D02*
X6709350Y-3811000D01*
X6670000Y-3771650D01*
X6630650Y-3811000D01*
X6670000Y-3850350D01*
X6670000Y-3977350D02*
X6709350Y-3938000D01*
X6670000Y-3898650D01*
X6630650Y-3938000D01*
X6670000Y-3977350D01*
X6670000Y-4104350D02*
X6709350Y-4065000D01*
X6670000Y-4025650D01*
X6630650Y-4065000D01*
X6670000Y-4104350D01*
D11*
X3060619Y-6647524D02*
X3060619Y-6447524D01*
X3060619Y-6447524D02*
X3108238Y-6447524D01*
X3108238Y-6447524D02*
X3136809Y-6457048D01*
X3136809Y-6457048D02*
X3155857Y-6476095D01*
X3155857Y-6476095D02*
X3165381Y-6495143D01*
X3165381Y-6495143D02*
X3174905Y-6533238D01*
X3174905Y-6533238D02*
X3174905Y-6561809D01*
X3174905Y-6561809D02*
X3165381Y-6599905D01*
X3165381Y-6599905D02*
X3155857Y-6618952D01*
X3155857Y-6618952D02*
X3136809Y-6638000D01*
X3136809Y-6638000D02*
X3108238Y-6647524D01*
X3108238Y-6647524D02*
X3060619Y-6647524D01*
X3260619Y-6647524D02*
X3260619Y-6514190D01*
X3260619Y-6552286D02*
X3270143Y-6533238D01*
X3270143Y-6533238D02*
X3279667Y-6523714D01*
X3279667Y-6523714D02*
X3298714Y-6514190D01*
X3298714Y-6514190D02*
X3317762Y-6514190D01*
X3384428Y-6647524D02*
X3384428Y-6514190D01*
X3384428Y-6447524D02*
X3374905Y-6457048D01*
X3374905Y-6457048D02*
X3384428Y-6466571D01*
X3384428Y-6466571D02*
X3393952Y-6457048D01*
X3393952Y-6457048D02*
X3384428Y-6447524D01*
X3384428Y-6447524D02*
X3384428Y-6466571D01*
X3508238Y-6647524D02*
X3489190Y-6638000D01*
X3489190Y-6638000D02*
X3479667Y-6618952D01*
X3479667Y-6618952D02*
X3479667Y-6447524D01*
X3613000Y-6647524D02*
X3593952Y-6638000D01*
X3593952Y-6638000D02*
X3584428Y-6618952D01*
X3584428Y-6618952D02*
X3584428Y-6447524D01*
X3841571Y-6647524D02*
X3841571Y-6447524D01*
X3841571Y-6447524D02*
X3908238Y-6590381D01*
X3908238Y-6590381D02*
X3974905Y-6447524D01*
X3974905Y-6447524D02*
X3974905Y-6647524D01*
X4155857Y-6647524D02*
X4155857Y-6542762D01*
X4155857Y-6542762D02*
X4146333Y-6523714D01*
X4146333Y-6523714D02*
X4127286Y-6514190D01*
X4127286Y-6514190D02*
X4089190Y-6514190D01*
X4089190Y-6514190D02*
X4070143Y-6523714D01*
X4155857Y-6638000D02*
X4136809Y-6647524D01*
X4136809Y-6647524D02*
X4089190Y-6647524D01*
X4089190Y-6647524D02*
X4070143Y-6638000D01*
X4070143Y-6638000D02*
X4060619Y-6618952D01*
X4060619Y-6618952D02*
X4060619Y-6599905D01*
X4060619Y-6599905D02*
X4070143Y-6580857D01*
X4070143Y-6580857D02*
X4089190Y-6571333D01*
X4089190Y-6571333D02*
X4136809Y-6571333D01*
X4136809Y-6571333D02*
X4155857Y-6561809D01*
X4251095Y-6514190D02*
X4251095Y-6714190D01*
X4251095Y-6523714D02*
X4270143Y-6514190D01*
X4270143Y-6514190D02*
X4308238Y-6514190D01*
X4308238Y-6514190D02*
X4327286Y-6523714D01*
X4327286Y-6523714D02*
X4336810Y-6533238D01*
X4336810Y-6533238D02*
X4346333Y-6552286D01*
X4346333Y-6552286D02*
X4346333Y-6609428D01*
X4346333Y-6609428D02*
X4336810Y-6628476D01*
X4336810Y-6628476D02*
X4327286Y-6638000D01*
X4327286Y-6638000D02*
X4308238Y-6647524D01*
X4308238Y-6647524D02*
X4270143Y-6647524D01*
X4270143Y-6647524D02*
X4251095Y-6638000D01*
X4432048Y-6628476D02*
X4441571Y-6638000D01*
X4441571Y-6638000D02*
X4432048Y-6647524D01*
X4432048Y-6647524D02*
X4422524Y-6638000D01*
X4422524Y-6638000D02*
X4432048Y-6628476D01*
X4432048Y-6628476D02*
X4432048Y-6647524D01*
X4432048Y-6523714D02*
X4441571Y-6533238D01*
X4441571Y-6533238D02*
X4432048Y-6542762D01*
X4432048Y-6542762D02*
X4422524Y-6533238D01*
X4422524Y-6533238D02*
X4432048Y-6523714D01*
X4432048Y-6523714D02*
X4432048Y-6542762D01*
D12*
X2783000Y-6960000D02*
X2813000Y-6990000D01*
X2813000Y-6960000D02*
X2783000Y-6990000D01*
D11*
X3098714Y-6867524D02*
X3117762Y-6867524D01*
X3117762Y-6867524D02*
X3136809Y-6877048D01*
X3136809Y-6877048D02*
X3146333Y-6886571D01*
X3146333Y-6886571D02*
X3155857Y-6905619D01*
X3155857Y-6905619D02*
X3165381Y-6943714D01*
X3165381Y-6943714D02*
X3165381Y-6991333D01*
X3165381Y-6991333D02*
X3155857Y-7029428D01*
X3155857Y-7029428D02*
X3146333Y-7048476D01*
X3146333Y-7048476D02*
X3136809Y-7058000D01*
X3136809Y-7058000D02*
X3117762Y-7067524D01*
X3117762Y-7067524D02*
X3098714Y-7067524D01*
X3098714Y-7067524D02*
X3079667Y-7058000D01*
X3079667Y-7058000D02*
X3070143Y-7048476D01*
X3070143Y-7048476D02*
X3060619Y-7029428D01*
X3060619Y-7029428D02*
X3051095Y-6991333D01*
X3051095Y-6991333D02*
X3051095Y-6943714D01*
X3051095Y-6943714D02*
X3060619Y-6905619D01*
X3060619Y-6905619D02*
X3070143Y-6886571D01*
X3070143Y-6886571D02*
X3079667Y-6877048D01*
X3079667Y-6877048D02*
X3098714Y-6867524D01*
X3251095Y-7048476D02*
X3260619Y-7058000D01*
X3260619Y-7058000D02*
X3251095Y-7067524D01*
X3251095Y-7067524D02*
X3241571Y-7058000D01*
X3241571Y-7058000D02*
X3251095Y-7048476D01*
X3251095Y-7048476D02*
X3251095Y-7067524D01*
X3327286Y-6867524D02*
X3451095Y-6867524D01*
X3451095Y-6867524D02*
X3384428Y-6943714D01*
X3384428Y-6943714D02*
X3413000Y-6943714D01*
X3413000Y-6943714D02*
X3432048Y-6953238D01*
X3432048Y-6953238D02*
X3441571Y-6962762D01*
X3441571Y-6962762D02*
X3451095Y-6981809D01*
X3451095Y-6981809D02*
X3451095Y-7029428D01*
X3451095Y-7029428D02*
X3441571Y-7048476D01*
X3441571Y-7048476D02*
X3432048Y-7058000D01*
X3432048Y-7058000D02*
X3413000Y-7067524D01*
X3413000Y-7067524D02*
X3355857Y-7067524D01*
X3355857Y-7067524D02*
X3336809Y-7058000D01*
X3336809Y-7058000D02*
X3327286Y-7048476D01*
X3574905Y-6867524D02*
X3593952Y-6867524D01*
X3593952Y-6867524D02*
X3613000Y-6877048D01*
X3613000Y-6877048D02*
X3622524Y-6886571D01*
X3622524Y-6886571D02*
X3632048Y-6905619D01*
X3632048Y-6905619D02*
X3641571Y-6943714D01*
X3641571Y-6943714D02*
X3641571Y-6991333D01*
X3641571Y-6991333D02*
X3632048Y-7029428D01*
X3632048Y-7029428D02*
X3622524Y-7048476D01*
X3622524Y-7048476D02*
X3613000Y-7058000D01*
X3613000Y-7058000D02*
X3593952Y-7067524D01*
X3593952Y-7067524D02*
X3574905Y-7067524D01*
X3574905Y-7067524D02*
X3555857Y-7058000D01*
X3555857Y-7058000D02*
X3546333Y-7048476D01*
X3546333Y-7048476D02*
X3536809Y-7029428D01*
X3536809Y-7029428D02*
X3527286Y-6991333D01*
X3527286Y-6991333D02*
X3527286Y-6943714D01*
X3527286Y-6943714D02*
X3536809Y-6905619D01*
X3536809Y-6905619D02*
X3546333Y-6886571D01*
X3546333Y-6886571D02*
X3555857Y-6877048D01*
X3555857Y-6877048D02*
X3574905Y-6867524D01*
X3765381Y-6867524D02*
X3784429Y-6867524D01*
X3784429Y-6867524D02*
X3803476Y-6877048D01*
X3803476Y-6877048D02*
X3813000Y-6886571D01*
X3813000Y-6886571D02*
X3822524Y-6905619D01*
X3822524Y-6905619D02*
X3832048Y-6943714D01*
X3832048Y-6943714D02*
X3832048Y-6991333D01*
X3832048Y-6991333D02*
X3822524Y-7029428D01*
X3822524Y-7029428D02*
X3813000Y-7048476D01*
X3813000Y-7048476D02*
X3803476Y-7058000D01*
X3803476Y-7058000D02*
X3784429Y-7067524D01*
X3784429Y-7067524D02*
X3765381Y-7067524D01*
X3765381Y-7067524D02*
X3746333Y-7058000D01*
X3746333Y-7058000D02*
X3736809Y-7048476D01*
X3736809Y-7048476D02*
X3727286Y-7029428D01*
X3727286Y-7029428D02*
X3717762Y-6991333D01*
X3717762Y-6991333D02*
X3717762Y-6943714D01*
X3717762Y-6943714D02*
X3727286Y-6905619D01*
X3727286Y-6905619D02*
X3736809Y-6886571D01*
X3736809Y-6886571D02*
X3746333Y-6877048D01*
X3746333Y-6877048D02*
X3765381Y-6867524D01*
X3917762Y-7067524D02*
X3917762Y-6934190D01*
X3917762Y-6953238D02*
X3927286Y-6943714D01*
X3927286Y-6943714D02*
X3946333Y-6934190D01*
X3946333Y-6934190D02*
X3974905Y-6934190D01*
X3974905Y-6934190D02*
X3993952Y-6943714D01*
X3993952Y-6943714D02*
X4003476Y-6962762D01*
X4003476Y-6962762D02*
X4003476Y-7067524D01*
X4003476Y-6962762D02*
X4013000Y-6943714D01*
X4013000Y-6943714D02*
X4032048Y-6934190D01*
X4032048Y-6934190D02*
X4060619Y-6934190D01*
X4060619Y-6934190D02*
X4079667Y-6943714D01*
X4079667Y-6943714D02*
X4089190Y-6962762D01*
X4089190Y-6962762D02*
X4089190Y-7067524D01*
X4184429Y-7067524D02*
X4184429Y-6934190D01*
X4184429Y-6953238D02*
X4193952Y-6943714D01*
X4193952Y-6943714D02*
X4213000Y-6934190D01*
X4213000Y-6934190D02*
X4241572Y-6934190D01*
X4241572Y-6934190D02*
X4260619Y-6943714D01*
X4260619Y-6943714D02*
X4270143Y-6962762D01*
X4270143Y-6962762D02*
X4270143Y-7067524D01*
X4270143Y-6962762D02*
X4279667Y-6943714D01*
X4279667Y-6943714D02*
X4298714Y-6934190D01*
X4298714Y-6934190D02*
X4327286Y-6934190D01*
X4327286Y-6934190D02*
X4346333Y-6943714D01*
X4346333Y-6943714D02*
X4355857Y-6962762D01*
X4355857Y-6962762D02*
X4355857Y-7067524D01*
X4746333Y-6858000D02*
X4574905Y-7115143D01*
X5003476Y-6867524D02*
X5022524Y-6867524D01*
X5022524Y-6867524D02*
X5041572Y-6877048D01*
X5041572Y-6877048D02*
X5051095Y-6886571D01*
X5051095Y-6886571D02*
X5060619Y-6905619D01*
X5060619Y-6905619D02*
X5070143Y-6943714D01*
X5070143Y-6943714D02*
X5070143Y-6991333D01*
X5070143Y-6991333D02*
X5060619Y-7029428D01*
X5060619Y-7029428D02*
X5051095Y-7048476D01*
X5051095Y-7048476D02*
X5041572Y-7058000D01*
X5041572Y-7058000D02*
X5022524Y-7067524D01*
X5022524Y-7067524D02*
X5003476Y-7067524D01*
X5003476Y-7067524D02*
X4984429Y-7058000D01*
X4984429Y-7058000D02*
X4974905Y-7048476D01*
X4974905Y-7048476D02*
X4965381Y-7029428D01*
X4965381Y-7029428D02*
X4955857Y-6991333D01*
X4955857Y-6991333D02*
X4955857Y-6943714D01*
X4955857Y-6943714D02*
X4965381Y-6905619D01*
X4965381Y-6905619D02*
X4974905Y-6886571D01*
X4974905Y-6886571D02*
X4984429Y-6877048D01*
X4984429Y-6877048D02*
X5003476Y-6867524D01*
X5155857Y-7048476D02*
X5165381Y-7058000D01*
X5165381Y-7058000D02*
X5155857Y-7067524D01*
X5155857Y-7067524D02*
X5146334Y-7058000D01*
X5146334Y-7058000D02*
X5155857Y-7048476D01*
X5155857Y-7048476D02*
X5155857Y-7067524D01*
X5289191Y-6867524D02*
X5308238Y-6867524D01*
X5308238Y-6867524D02*
X5327286Y-6877048D01*
X5327286Y-6877048D02*
X5336810Y-6886571D01*
X5336810Y-6886571D02*
X5346334Y-6905619D01*
X5346334Y-6905619D02*
X5355857Y-6943714D01*
X5355857Y-6943714D02*
X5355857Y-6991333D01*
X5355857Y-6991333D02*
X5346334Y-7029428D01*
X5346334Y-7029428D02*
X5336810Y-7048476D01*
X5336810Y-7048476D02*
X5327286Y-7058000D01*
X5327286Y-7058000D02*
X5308238Y-7067524D01*
X5308238Y-7067524D02*
X5289191Y-7067524D01*
X5289191Y-7067524D02*
X5270143Y-7058000D01*
X5270143Y-7058000D02*
X5260619Y-7048476D01*
X5260619Y-7048476D02*
X5251095Y-7029428D01*
X5251095Y-7029428D02*
X5241572Y-6991333D01*
X5241572Y-6991333D02*
X5241572Y-6943714D01*
X5241572Y-6943714D02*
X5251095Y-6905619D01*
X5251095Y-6905619D02*
X5260619Y-6886571D01*
X5260619Y-6886571D02*
X5270143Y-6877048D01*
X5270143Y-6877048D02*
X5289191Y-6867524D01*
X5546334Y-7067524D02*
X5432048Y-7067524D01*
X5489191Y-7067524D02*
X5489191Y-6867524D01*
X5489191Y-6867524D02*
X5470143Y-6896095D01*
X5470143Y-6896095D02*
X5451095Y-6915143D01*
X5451095Y-6915143D02*
X5432048Y-6924667D01*
X5736810Y-7067524D02*
X5622524Y-7067524D01*
X5679667Y-7067524D02*
X5679667Y-6867524D01*
X5679667Y-6867524D02*
X5660619Y-6896095D01*
X5660619Y-6896095D02*
X5641572Y-6915143D01*
X5641572Y-6915143D02*
X5622524Y-6924667D01*
X5851095Y-6953238D02*
X5832048Y-6943714D01*
X5832048Y-6943714D02*
X5822524Y-6934190D01*
X5822524Y-6934190D02*
X5813000Y-6915143D01*
X5813000Y-6915143D02*
X5813000Y-6905619D01*
X5813000Y-6905619D02*
X5822524Y-6886571D01*
X5822524Y-6886571D02*
X5832048Y-6877048D01*
X5832048Y-6877048D02*
X5851095Y-6867524D01*
X5851095Y-6867524D02*
X5889191Y-6867524D01*
X5889191Y-6867524D02*
X5908238Y-6877048D01*
X5908238Y-6877048D02*
X5917762Y-6886571D01*
X5917762Y-6886571D02*
X5927286Y-6905619D01*
X5927286Y-6905619D02*
X5927286Y-6915143D01*
X5927286Y-6915143D02*
X5917762Y-6934190D01*
X5917762Y-6934190D02*
X5908238Y-6943714D01*
X5908238Y-6943714D02*
X5889191Y-6953238D01*
X5889191Y-6953238D02*
X5851095Y-6953238D01*
X5851095Y-6953238D02*
X5832048Y-6962762D01*
X5832048Y-6962762D02*
X5822524Y-6972286D01*
X5822524Y-6972286D02*
X5813000Y-6991333D01*
X5813000Y-6991333D02*
X5813000Y-7029428D01*
X5813000Y-7029428D02*
X5822524Y-7048476D01*
X5822524Y-7048476D02*
X5832048Y-7058000D01*
X5832048Y-7058000D02*
X5851095Y-7067524D01*
X5851095Y-7067524D02*
X5889191Y-7067524D01*
X5889191Y-7067524D02*
X5908238Y-7058000D01*
X5908238Y-7058000D02*
X5917762Y-7048476D01*
X5917762Y-7048476D02*
X5927286Y-7029428D01*
X5927286Y-7029428D02*
X5927286Y-6991333D01*
X5927286Y-6991333D02*
X5917762Y-6972286D01*
X5917762Y-6972286D02*
X5908238Y-6962762D01*
X5908238Y-6962762D02*
X5889191Y-6953238D01*
X6003476Y-6867524D02*
X6003476Y-6905619D01*
X6079667Y-6867524D02*
X6079667Y-6905619D01*
X6374905Y-7143714D02*
X6365381Y-7134190D01*
X6365381Y-7134190D02*
X6346334Y-7105619D01*
X6346334Y-7105619D02*
X6336810Y-7086571D01*
X6336810Y-7086571D02*
X6327286Y-7058000D01*
X6327286Y-7058000D02*
X6317762Y-7010381D01*
X6317762Y-7010381D02*
X6317762Y-6972286D01*
X6317762Y-6972286D02*
X6327286Y-6924667D01*
X6327286Y-6924667D02*
X6336810Y-6896095D01*
X6336810Y-6896095D02*
X6346334Y-6877048D01*
X6346334Y-6877048D02*
X6365381Y-6848476D01*
X6365381Y-6848476D02*
X6374905Y-6838952D01*
X6441572Y-6886571D02*
X6451095Y-6877048D01*
X6451095Y-6877048D02*
X6470143Y-6867524D01*
X6470143Y-6867524D02*
X6517762Y-6867524D01*
X6517762Y-6867524D02*
X6536810Y-6877048D01*
X6536810Y-6877048D02*
X6546334Y-6886571D01*
X6546334Y-6886571D02*
X6555857Y-6905619D01*
X6555857Y-6905619D02*
X6555857Y-6924667D01*
X6555857Y-6924667D02*
X6546334Y-6953238D01*
X6546334Y-6953238D02*
X6432048Y-7067524D01*
X6432048Y-7067524D02*
X6555857Y-7067524D01*
X6727286Y-6867524D02*
X6689191Y-6867524D01*
X6689191Y-6867524D02*
X6670143Y-6877048D01*
X6670143Y-6877048D02*
X6660619Y-6886571D01*
X6660619Y-6886571D02*
X6641572Y-6915143D01*
X6641572Y-6915143D02*
X6632048Y-6953238D01*
X6632048Y-6953238D02*
X6632048Y-7029428D01*
X6632048Y-7029428D02*
X6641572Y-7048476D01*
X6641572Y-7048476D02*
X6651095Y-7058000D01*
X6651095Y-7058000D02*
X6670143Y-7067524D01*
X6670143Y-7067524D02*
X6708238Y-7067524D01*
X6708238Y-7067524D02*
X6727286Y-7058000D01*
X6727286Y-7058000D02*
X6736810Y-7048476D01*
X6736810Y-7048476D02*
X6746334Y-7029428D01*
X6746334Y-7029428D02*
X6746334Y-6981809D01*
X6746334Y-6981809D02*
X6736810Y-6962762D01*
X6736810Y-6962762D02*
X6727286Y-6953238D01*
X6727286Y-6953238D02*
X6708238Y-6943714D01*
X6708238Y-6943714D02*
X6670143Y-6943714D01*
X6670143Y-6943714D02*
X6651095Y-6953238D01*
X6651095Y-6953238D02*
X6641572Y-6962762D01*
X6641572Y-6962762D02*
X6632048Y-6981809D01*
X6927286Y-6867524D02*
X6832048Y-6867524D01*
X6832048Y-6867524D02*
X6822524Y-6962762D01*
X6822524Y-6962762D02*
X6832048Y-6953238D01*
X6832048Y-6953238D02*
X6851095Y-6943714D01*
X6851095Y-6943714D02*
X6898715Y-6943714D01*
X6898715Y-6943714D02*
X6917762Y-6953238D01*
X6917762Y-6953238D02*
X6927286Y-6962762D01*
X6927286Y-6962762D02*
X6936810Y-6981809D01*
X6936810Y-6981809D02*
X6936810Y-7029428D01*
X6936810Y-7029428D02*
X6927286Y-7048476D01*
X6927286Y-7048476D02*
X6917762Y-7058000D01*
X6917762Y-7058000D02*
X6898715Y-7067524D01*
X6898715Y-7067524D02*
X6851095Y-7067524D01*
X6851095Y-7067524D02*
X6832048Y-7058000D01*
X6832048Y-7058000D02*
X6822524Y-7048476D01*
X7174905Y-7067524D02*
X7174905Y-6867524D01*
X7260619Y-7067524D02*
X7260619Y-6962762D01*
X7260619Y-6962762D02*
X7251096Y-6943714D01*
X7251096Y-6943714D02*
X7232048Y-6934190D01*
X7232048Y-6934190D02*
X7203476Y-6934190D01*
X7203476Y-6934190D02*
X7184429Y-6943714D01*
X7184429Y-6943714D02*
X7174905Y-6953238D01*
X7384429Y-7067524D02*
X7365381Y-7058000D01*
X7365381Y-7058000D02*
X7355857Y-7048476D01*
X7355857Y-7048476D02*
X7346334Y-7029428D01*
X7346334Y-7029428D02*
X7346334Y-6972286D01*
X7346334Y-6972286D02*
X7355857Y-6953238D01*
X7355857Y-6953238D02*
X7365381Y-6943714D01*
X7365381Y-6943714D02*
X7384429Y-6934190D01*
X7384429Y-6934190D02*
X7413000Y-6934190D01*
X7413000Y-6934190D02*
X7432048Y-6943714D01*
X7432048Y-6943714D02*
X7441572Y-6953238D01*
X7441572Y-6953238D02*
X7451096Y-6972286D01*
X7451096Y-6972286D02*
X7451096Y-7029428D01*
X7451096Y-7029428D02*
X7441572Y-7048476D01*
X7441572Y-7048476D02*
X7432048Y-7058000D01*
X7432048Y-7058000D02*
X7413000Y-7067524D01*
X7413000Y-7067524D02*
X7384429Y-7067524D01*
X7565381Y-7067524D02*
X7546334Y-7058000D01*
X7546334Y-7058000D02*
X7536810Y-7038952D01*
X7536810Y-7038952D02*
X7536810Y-6867524D01*
X7717762Y-7058000D02*
X7698715Y-7067524D01*
X7698715Y-7067524D02*
X7660619Y-7067524D01*
X7660619Y-7067524D02*
X7641572Y-7058000D01*
X7641572Y-7058000D02*
X7632048Y-7038952D01*
X7632048Y-7038952D02*
X7632048Y-6962762D01*
X7632048Y-6962762D02*
X7641572Y-6943714D01*
X7641572Y-6943714D02*
X7660619Y-6934190D01*
X7660619Y-6934190D02*
X7698715Y-6934190D01*
X7698715Y-6934190D02*
X7717762Y-6943714D01*
X7717762Y-6943714D02*
X7727286Y-6962762D01*
X7727286Y-6962762D02*
X7727286Y-6981809D01*
X7727286Y-6981809D02*
X7632048Y-7000857D01*
X7803477Y-7058000D02*
X7822524Y-7067524D01*
X7822524Y-7067524D02*
X7860619Y-7067524D01*
X7860619Y-7067524D02*
X7879667Y-7058000D01*
X7879667Y-7058000D02*
X7889191Y-7038952D01*
X7889191Y-7038952D02*
X7889191Y-7029428D01*
X7889191Y-7029428D02*
X7879667Y-7010381D01*
X7879667Y-7010381D02*
X7860619Y-7000857D01*
X7860619Y-7000857D02*
X7832048Y-7000857D01*
X7832048Y-7000857D02*
X7813000Y-6991333D01*
X7813000Y-6991333D02*
X7803477Y-6972286D01*
X7803477Y-6972286D02*
X7803477Y-6962762D01*
X7803477Y-6962762D02*
X7813000Y-6943714D01*
X7813000Y-6943714D02*
X7832048Y-6934190D01*
X7832048Y-6934190D02*
X7860619Y-6934190D01*
X7860619Y-6934190D02*
X7879667Y-6943714D01*
X7955858Y-7143714D02*
X7965381Y-7134190D01*
X7965381Y-7134190D02*
X7984429Y-7105619D01*
X7984429Y-7105619D02*
X7993953Y-7086571D01*
X7993953Y-7086571D02*
X8003477Y-7058000D01*
X8003477Y-7058000D02*
X8013000Y-7010381D01*
X8013000Y-7010381D02*
X8013000Y-6972286D01*
X8013000Y-6972286D02*
X8003477Y-6924667D01*
X8003477Y-6924667D02*
X7993953Y-6896095D01*
X7993953Y-6896095D02*
X7984429Y-6877048D01*
X7984429Y-6877048D02*
X7965381Y-6848476D01*
X7965381Y-6848476D02*
X7955858Y-6838952D01*
D13*
X2813000Y-7239000D02*
G75*
G03*
X2813000Y-7239000I-20000J0D01*
G01*
D11*
X3098714Y-7131524D02*
X3117762Y-7131524D01*
X3117762Y-7131524D02*
X3136809Y-7141048D01*
X3136809Y-7141048D02*
X3146333Y-7150571D01*
X3146333Y-7150571D02*
X3155857Y-7169619D01*
X3155857Y-7169619D02*
X3165381Y-7207714D01*
X3165381Y-7207714D02*
X3165381Y-7255333D01*
X3165381Y-7255333D02*
X3155857Y-7293428D01*
X3155857Y-7293428D02*
X3146333Y-7312476D01*
X3146333Y-7312476D02*
X3136809Y-7322000D01*
X3136809Y-7322000D02*
X3117762Y-7331524D01*
X3117762Y-7331524D02*
X3098714Y-7331524D01*
X3098714Y-7331524D02*
X3079667Y-7322000D01*
X3079667Y-7322000D02*
X3070143Y-7312476D01*
X3070143Y-7312476D02*
X3060619Y-7293428D01*
X3060619Y-7293428D02*
X3051095Y-7255333D01*
X3051095Y-7255333D02*
X3051095Y-7207714D01*
X3051095Y-7207714D02*
X3060619Y-7169619D01*
X3060619Y-7169619D02*
X3070143Y-7150571D01*
X3070143Y-7150571D02*
X3079667Y-7141048D01*
X3079667Y-7141048D02*
X3098714Y-7131524D01*
X3251095Y-7312476D02*
X3260619Y-7322000D01*
X3260619Y-7322000D02*
X3251095Y-7331524D01*
X3251095Y-7331524D02*
X3241571Y-7322000D01*
X3241571Y-7322000D02*
X3251095Y-7312476D01*
X3251095Y-7312476D02*
X3251095Y-7331524D01*
X3432048Y-7198190D02*
X3432048Y-7331524D01*
X3384428Y-7122000D02*
X3336809Y-7264857D01*
X3336809Y-7264857D02*
X3460619Y-7264857D01*
X3574905Y-7131524D02*
X3593952Y-7131524D01*
X3593952Y-7131524D02*
X3613000Y-7141048D01*
X3613000Y-7141048D02*
X3622524Y-7150571D01*
X3622524Y-7150571D02*
X3632048Y-7169619D01*
X3632048Y-7169619D02*
X3641571Y-7207714D01*
X3641571Y-7207714D02*
X3641571Y-7255333D01*
X3641571Y-7255333D02*
X3632048Y-7293428D01*
X3632048Y-7293428D02*
X3622524Y-7312476D01*
X3622524Y-7312476D02*
X3613000Y-7322000D01*
X3613000Y-7322000D02*
X3593952Y-7331524D01*
X3593952Y-7331524D02*
X3574905Y-7331524D01*
X3574905Y-7331524D02*
X3555857Y-7322000D01*
X3555857Y-7322000D02*
X3546333Y-7312476D01*
X3546333Y-7312476D02*
X3536809Y-7293428D01*
X3536809Y-7293428D02*
X3527286Y-7255333D01*
X3527286Y-7255333D02*
X3527286Y-7207714D01*
X3527286Y-7207714D02*
X3536809Y-7169619D01*
X3536809Y-7169619D02*
X3546333Y-7150571D01*
X3546333Y-7150571D02*
X3555857Y-7141048D01*
X3555857Y-7141048D02*
X3574905Y-7131524D01*
X3765381Y-7131524D02*
X3784429Y-7131524D01*
X3784429Y-7131524D02*
X3803476Y-7141048D01*
X3803476Y-7141048D02*
X3813000Y-7150571D01*
X3813000Y-7150571D02*
X3822524Y-7169619D01*
X3822524Y-7169619D02*
X3832048Y-7207714D01*
X3832048Y-7207714D02*
X3832048Y-7255333D01*
X3832048Y-7255333D02*
X3822524Y-7293428D01*
X3822524Y-7293428D02*
X3813000Y-7312476D01*
X3813000Y-7312476D02*
X3803476Y-7322000D01*
X3803476Y-7322000D02*
X3784429Y-7331524D01*
X3784429Y-7331524D02*
X3765381Y-7331524D01*
X3765381Y-7331524D02*
X3746333Y-7322000D01*
X3746333Y-7322000D02*
X3736809Y-7312476D01*
X3736809Y-7312476D02*
X3727286Y-7293428D01*
X3727286Y-7293428D02*
X3717762Y-7255333D01*
X3717762Y-7255333D02*
X3717762Y-7207714D01*
X3717762Y-7207714D02*
X3727286Y-7169619D01*
X3727286Y-7169619D02*
X3736809Y-7150571D01*
X3736809Y-7150571D02*
X3746333Y-7141048D01*
X3746333Y-7141048D02*
X3765381Y-7131524D01*
X3917762Y-7331524D02*
X3917762Y-7198190D01*
X3917762Y-7217238D02*
X3927286Y-7207714D01*
X3927286Y-7207714D02*
X3946333Y-7198190D01*
X3946333Y-7198190D02*
X3974905Y-7198190D01*
X3974905Y-7198190D02*
X3993952Y-7207714D01*
X3993952Y-7207714D02*
X4003476Y-7226762D01*
X4003476Y-7226762D02*
X4003476Y-7331524D01*
X4003476Y-7226762D02*
X4013000Y-7207714D01*
X4013000Y-7207714D02*
X4032048Y-7198190D01*
X4032048Y-7198190D02*
X4060619Y-7198190D01*
X4060619Y-7198190D02*
X4079667Y-7207714D01*
X4079667Y-7207714D02*
X4089190Y-7226762D01*
X4089190Y-7226762D02*
X4089190Y-7331524D01*
X4184429Y-7331524D02*
X4184429Y-7198190D01*
X4184429Y-7217238D02*
X4193952Y-7207714D01*
X4193952Y-7207714D02*
X4213000Y-7198190D01*
X4213000Y-7198190D02*
X4241572Y-7198190D01*
X4241572Y-7198190D02*
X4260619Y-7207714D01*
X4260619Y-7207714D02*
X4270143Y-7226762D01*
X4270143Y-7226762D02*
X4270143Y-7331524D01*
X4270143Y-7226762D02*
X4279667Y-7207714D01*
X4279667Y-7207714D02*
X4298714Y-7198190D01*
X4298714Y-7198190D02*
X4327286Y-7198190D01*
X4327286Y-7198190D02*
X4346333Y-7207714D01*
X4346333Y-7207714D02*
X4355857Y-7226762D01*
X4355857Y-7226762D02*
X4355857Y-7331524D01*
X4746333Y-7122000D02*
X4574905Y-7379143D01*
X5003476Y-7131524D02*
X5022524Y-7131524D01*
X5022524Y-7131524D02*
X5041572Y-7141048D01*
X5041572Y-7141048D02*
X5051095Y-7150571D01*
X5051095Y-7150571D02*
X5060619Y-7169619D01*
X5060619Y-7169619D02*
X5070143Y-7207714D01*
X5070143Y-7207714D02*
X5070143Y-7255333D01*
X5070143Y-7255333D02*
X5060619Y-7293428D01*
X5060619Y-7293428D02*
X5051095Y-7312476D01*
X5051095Y-7312476D02*
X5041572Y-7322000D01*
X5041572Y-7322000D02*
X5022524Y-7331524D01*
X5022524Y-7331524D02*
X5003476Y-7331524D01*
X5003476Y-7331524D02*
X4984429Y-7322000D01*
X4984429Y-7322000D02*
X4974905Y-7312476D01*
X4974905Y-7312476D02*
X4965381Y-7293428D01*
X4965381Y-7293428D02*
X4955857Y-7255333D01*
X4955857Y-7255333D02*
X4955857Y-7207714D01*
X4955857Y-7207714D02*
X4965381Y-7169619D01*
X4965381Y-7169619D02*
X4974905Y-7150571D01*
X4974905Y-7150571D02*
X4984429Y-7141048D01*
X4984429Y-7141048D02*
X5003476Y-7131524D01*
X5155857Y-7312476D02*
X5165381Y-7322000D01*
X5165381Y-7322000D02*
X5155857Y-7331524D01*
X5155857Y-7331524D02*
X5146334Y-7322000D01*
X5146334Y-7322000D02*
X5155857Y-7312476D01*
X5155857Y-7312476D02*
X5155857Y-7331524D01*
X5289191Y-7131524D02*
X5308238Y-7131524D01*
X5308238Y-7131524D02*
X5327286Y-7141048D01*
X5327286Y-7141048D02*
X5336810Y-7150571D01*
X5336810Y-7150571D02*
X5346334Y-7169619D01*
X5346334Y-7169619D02*
X5355857Y-7207714D01*
X5355857Y-7207714D02*
X5355857Y-7255333D01*
X5355857Y-7255333D02*
X5346334Y-7293428D01*
X5346334Y-7293428D02*
X5336810Y-7312476D01*
X5336810Y-7312476D02*
X5327286Y-7322000D01*
X5327286Y-7322000D02*
X5308238Y-7331524D01*
X5308238Y-7331524D02*
X5289191Y-7331524D01*
X5289191Y-7331524D02*
X5270143Y-7322000D01*
X5270143Y-7322000D02*
X5260619Y-7312476D01*
X5260619Y-7312476D02*
X5251095Y-7293428D01*
X5251095Y-7293428D02*
X5241572Y-7255333D01*
X5241572Y-7255333D02*
X5241572Y-7207714D01*
X5241572Y-7207714D02*
X5251095Y-7169619D01*
X5251095Y-7169619D02*
X5260619Y-7150571D01*
X5260619Y-7150571D02*
X5270143Y-7141048D01*
X5270143Y-7141048D02*
X5289191Y-7131524D01*
X5546334Y-7331524D02*
X5432048Y-7331524D01*
X5489191Y-7331524D02*
X5489191Y-7131524D01*
X5489191Y-7131524D02*
X5470143Y-7160095D01*
X5470143Y-7160095D02*
X5451095Y-7179143D01*
X5451095Y-7179143D02*
X5432048Y-7188667D01*
X5727286Y-7131524D02*
X5632048Y-7131524D01*
X5632048Y-7131524D02*
X5622524Y-7226762D01*
X5622524Y-7226762D02*
X5632048Y-7217238D01*
X5632048Y-7217238D02*
X5651095Y-7207714D01*
X5651095Y-7207714D02*
X5698714Y-7207714D01*
X5698714Y-7207714D02*
X5717762Y-7217238D01*
X5717762Y-7217238D02*
X5727286Y-7226762D01*
X5727286Y-7226762D02*
X5736810Y-7245809D01*
X5736810Y-7245809D02*
X5736810Y-7293428D01*
X5736810Y-7293428D02*
X5727286Y-7312476D01*
X5727286Y-7312476D02*
X5717762Y-7322000D01*
X5717762Y-7322000D02*
X5698714Y-7331524D01*
X5698714Y-7331524D02*
X5651095Y-7331524D01*
X5651095Y-7331524D02*
X5632048Y-7322000D01*
X5632048Y-7322000D02*
X5622524Y-7312476D01*
X5803476Y-7131524D02*
X5936810Y-7131524D01*
X5936810Y-7131524D02*
X5851095Y-7331524D01*
X6003476Y-7131524D02*
X6003476Y-7169619D01*
X6079667Y-7131524D02*
X6079667Y-7169619D01*
X6374905Y-7407714D02*
X6365381Y-7398190D01*
X6365381Y-7398190D02*
X6346334Y-7369619D01*
X6346334Y-7369619D02*
X6336810Y-7350571D01*
X6336810Y-7350571D02*
X6327286Y-7322000D01*
X6327286Y-7322000D02*
X6317762Y-7274381D01*
X6317762Y-7274381D02*
X6317762Y-7236286D01*
X6317762Y-7236286D02*
X6327286Y-7188667D01*
X6327286Y-7188667D02*
X6336810Y-7160095D01*
X6336810Y-7160095D02*
X6346334Y-7141048D01*
X6346334Y-7141048D02*
X6365381Y-7112476D01*
X6365381Y-7112476D02*
X6374905Y-7102952D01*
X6536810Y-7131524D02*
X6498714Y-7131524D01*
X6498714Y-7131524D02*
X6479667Y-7141048D01*
X6479667Y-7141048D02*
X6470143Y-7150571D01*
X6470143Y-7150571D02*
X6451095Y-7179143D01*
X6451095Y-7179143D02*
X6441572Y-7217238D01*
X6441572Y-7217238D02*
X6441572Y-7293428D01*
X6441572Y-7293428D02*
X6451095Y-7312476D01*
X6451095Y-7312476D02*
X6460619Y-7322000D01*
X6460619Y-7322000D02*
X6479667Y-7331524D01*
X6479667Y-7331524D02*
X6517762Y-7331524D01*
X6517762Y-7331524D02*
X6536810Y-7322000D01*
X6536810Y-7322000D02*
X6546334Y-7312476D01*
X6546334Y-7312476D02*
X6555857Y-7293428D01*
X6555857Y-7293428D02*
X6555857Y-7245809D01*
X6555857Y-7245809D02*
X6546334Y-7226762D01*
X6546334Y-7226762D02*
X6536810Y-7217238D01*
X6536810Y-7217238D02*
X6517762Y-7207714D01*
X6517762Y-7207714D02*
X6479667Y-7207714D01*
X6479667Y-7207714D02*
X6460619Y-7217238D01*
X6460619Y-7217238D02*
X6451095Y-7226762D01*
X6451095Y-7226762D02*
X6441572Y-7245809D01*
X6793953Y-7331524D02*
X6793953Y-7131524D01*
X6879667Y-7331524D02*
X6879667Y-7226762D01*
X6879667Y-7226762D02*
X6870143Y-7207714D01*
X6870143Y-7207714D02*
X6851096Y-7198190D01*
X6851096Y-7198190D02*
X6822524Y-7198190D01*
X6822524Y-7198190D02*
X6803476Y-7207714D01*
X6803476Y-7207714D02*
X6793953Y-7217238D01*
X7003476Y-7331524D02*
X6984429Y-7322000D01*
X6984429Y-7322000D02*
X6974905Y-7312476D01*
X6974905Y-7312476D02*
X6965381Y-7293428D01*
X6965381Y-7293428D02*
X6965381Y-7236286D01*
X6965381Y-7236286D02*
X6974905Y-7217238D01*
X6974905Y-7217238D02*
X6984429Y-7207714D01*
X6984429Y-7207714D02*
X7003476Y-7198190D01*
X7003476Y-7198190D02*
X7032048Y-7198190D01*
X7032048Y-7198190D02*
X7051096Y-7207714D01*
X7051096Y-7207714D02*
X7060619Y-7217238D01*
X7060619Y-7217238D02*
X7070143Y-7236286D01*
X7070143Y-7236286D02*
X7070143Y-7293428D01*
X7070143Y-7293428D02*
X7060619Y-7312476D01*
X7060619Y-7312476D02*
X7051096Y-7322000D01*
X7051096Y-7322000D02*
X7032048Y-7331524D01*
X7032048Y-7331524D02*
X7003476Y-7331524D01*
X7184429Y-7331524D02*
X7165381Y-7322000D01*
X7165381Y-7322000D02*
X7155857Y-7302952D01*
X7155857Y-7302952D02*
X7155857Y-7131524D01*
X7336810Y-7322000D02*
X7317762Y-7331524D01*
X7317762Y-7331524D02*
X7279667Y-7331524D01*
X7279667Y-7331524D02*
X7260619Y-7322000D01*
X7260619Y-7322000D02*
X7251096Y-7302952D01*
X7251096Y-7302952D02*
X7251096Y-7226762D01*
X7251096Y-7226762D02*
X7260619Y-7207714D01*
X7260619Y-7207714D02*
X7279667Y-7198190D01*
X7279667Y-7198190D02*
X7317762Y-7198190D01*
X7317762Y-7198190D02*
X7336810Y-7207714D01*
X7336810Y-7207714D02*
X7346334Y-7226762D01*
X7346334Y-7226762D02*
X7346334Y-7245809D01*
X7346334Y-7245809D02*
X7251096Y-7264857D01*
X7422524Y-7322000D02*
X7441572Y-7331524D01*
X7441572Y-7331524D02*
X7479667Y-7331524D01*
X7479667Y-7331524D02*
X7498715Y-7322000D01*
X7498715Y-7322000D02*
X7508238Y-7302952D01*
X7508238Y-7302952D02*
X7508238Y-7293428D01*
X7508238Y-7293428D02*
X7498715Y-7274381D01*
X7498715Y-7274381D02*
X7479667Y-7264857D01*
X7479667Y-7264857D02*
X7451096Y-7264857D01*
X7451096Y-7264857D02*
X7432048Y-7255333D01*
X7432048Y-7255333D02*
X7422524Y-7236286D01*
X7422524Y-7236286D02*
X7422524Y-7226762D01*
X7422524Y-7226762D02*
X7432048Y-7207714D01*
X7432048Y-7207714D02*
X7451096Y-7198190D01*
X7451096Y-7198190D02*
X7479667Y-7198190D01*
X7479667Y-7198190D02*
X7498715Y-7207714D01*
X7574905Y-7407714D02*
X7584429Y-7398190D01*
X7584429Y-7398190D02*
X7603477Y-7369619D01*
X7603477Y-7369619D02*
X7613000Y-7350571D01*
X7613000Y-7350571D02*
X7622524Y-7322000D01*
X7622524Y-7322000D02*
X7632048Y-7274381D01*
X7632048Y-7274381D02*
X7632048Y-7236286D01*
X7632048Y-7236286D02*
X7622524Y-7188667D01*
X7622524Y-7188667D02*
X7613000Y-7160095D01*
X7613000Y-7160095D02*
X7603477Y-7141048D01*
X7603477Y-7141048D02*
X7584429Y-7112476D01*
X7584429Y-7112476D02*
X7574905Y-7102952D01*
D14*
X2783000Y-7473000D02*
X2783000Y-7533000D01*
X2753000Y-7503000D02*
X2813000Y-7503000D01*
D11*
X3098714Y-7395524D02*
X3117762Y-7395524D01*
X3117762Y-7395524D02*
X3136809Y-7405048D01*
X3136809Y-7405048D02*
X3146333Y-7414571D01*
X3146333Y-7414571D02*
X3155857Y-7433619D01*
X3155857Y-7433619D02*
X3165381Y-7471714D01*
X3165381Y-7471714D02*
X3165381Y-7519333D01*
X3165381Y-7519333D02*
X3155857Y-7557428D01*
X3155857Y-7557428D02*
X3146333Y-7576476D01*
X3146333Y-7576476D02*
X3136809Y-7586000D01*
X3136809Y-7586000D02*
X3117762Y-7595524D01*
X3117762Y-7595524D02*
X3098714Y-7595524D01*
X3098714Y-7595524D02*
X3079667Y-7586000D01*
X3079667Y-7586000D02*
X3070143Y-7576476D01*
X3070143Y-7576476D02*
X3060619Y-7557428D01*
X3060619Y-7557428D02*
X3051095Y-7519333D01*
X3051095Y-7519333D02*
X3051095Y-7471714D01*
X3051095Y-7471714D02*
X3060619Y-7433619D01*
X3060619Y-7433619D02*
X3070143Y-7414571D01*
X3070143Y-7414571D02*
X3079667Y-7405048D01*
X3079667Y-7405048D02*
X3098714Y-7395524D01*
X3251095Y-7576476D02*
X3260619Y-7586000D01*
X3260619Y-7586000D02*
X3251095Y-7595524D01*
X3251095Y-7595524D02*
X3241571Y-7586000D01*
X3241571Y-7586000D02*
X3251095Y-7576476D01*
X3251095Y-7576476D02*
X3251095Y-7595524D01*
X3432048Y-7395524D02*
X3393952Y-7395524D01*
X3393952Y-7395524D02*
X3374905Y-7405048D01*
X3374905Y-7405048D02*
X3365381Y-7414571D01*
X3365381Y-7414571D02*
X3346333Y-7443143D01*
X3346333Y-7443143D02*
X3336809Y-7481238D01*
X3336809Y-7481238D02*
X3336809Y-7557428D01*
X3336809Y-7557428D02*
X3346333Y-7576476D01*
X3346333Y-7576476D02*
X3355857Y-7586000D01*
X3355857Y-7586000D02*
X3374905Y-7595524D01*
X3374905Y-7595524D02*
X3413000Y-7595524D01*
X3413000Y-7595524D02*
X3432048Y-7586000D01*
X3432048Y-7586000D02*
X3441571Y-7576476D01*
X3441571Y-7576476D02*
X3451095Y-7557428D01*
X3451095Y-7557428D02*
X3451095Y-7509809D01*
X3451095Y-7509809D02*
X3441571Y-7490762D01*
X3441571Y-7490762D02*
X3432048Y-7481238D01*
X3432048Y-7481238D02*
X3413000Y-7471714D01*
X3413000Y-7471714D02*
X3374905Y-7471714D01*
X3374905Y-7471714D02*
X3355857Y-7481238D01*
X3355857Y-7481238D02*
X3346333Y-7490762D01*
X3346333Y-7490762D02*
X3336809Y-7509809D01*
X3574905Y-7395524D02*
X3593952Y-7395524D01*
X3593952Y-7395524D02*
X3613000Y-7405048D01*
X3613000Y-7405048D02*
X3622524Y-7414571D01*
X3622524Y-7414571D02*
X3632048Y-7433619D01*
X3632048Y-7433619D02*
X3641571Y-7471714D01*
X3641571Y-7471714D02*
X3641571Y-7519333D01*
X3641571Y-7519333D02*
X3632048Y-7557428D01*
X3632048Y-7557428D02*
X3622524Y-7576476D01*
X3622524Y-7576476D02*
X3613000Y-7586000D01*
X3613000Y-7586000D02*
X3593952Y-7595524D01*
X3593952Y-7595524D02*
X3574905Y-7595524D01*
X3574905Y-7595524D02*
X3555857Y-7586000D01*
X3555857Y-7586000D02*
X3546333Y-7576476D01*
X3546333Y-7576476D02*
X3536809Y-7557428D01*
X3536809Y-7557428D02*
X3527286Y-7519333D01*
X3527286Y-7519333D02*
X3527286Y-7471714D01*
X3527286Y-7471714D02*
X3536809Y-7433619D01*
X3536809Y-7433619D02*
X3546333Y-7414571D01*
X3546333Y-7414571D02*
X3555857Y-7405048D01*
X3555857Y-7405048D02*
X3574905Y-7395524D01*
X3765381Y-7395524D02*
X3784429Y-7395524D01*
X3784429Y-7395524D02*
X3803476Y-7405048D01*
X3803476Y-7405048D02*
X3813000Y-7414571D01*
X3813000Y-7414571D02*
X3822524Y-7433619D01*
X3822524Y-7433619D02*
X3832048Y-7471714D01*
X3832048Y-7471714D02*
X3832048Y-7519333D01*
X3832048Y-7519333D02*
X3822524Y-7557428D01*
X3822524Y-7557428D02*
X3813000Y-7576476D01*
X3813000Y-7576476D02*
X3803476Y-7586000D01*
X3803476Y-7586000D02*
X3784429Y-7595524D01*
X3784429Y-7595524D02*
X3765381Y-7595524D01*
X3765381Y-7595524D02*
X3746333Y-7586000D01*
X3746333Y-7586000D02*
X3736809Y-7576476D01*
X3736809Y-7576476D02*
X3727286Y-7557428D01*
X3727286Y-7557428D02*
X3717762Y-7519333D01*
X3717762Y-7519333D02*
X3717762Y-7471714D01*
X3717762Y-7471714D02*
X3727286Y-7433619D01*
X3727286Y-7433619D02*
X3736809Y-7414571D01*
X3736809Y-7414571D02*
X3746333Y-7405048D01*
X3746333Y-7405048D02*
X3765381Y-7395524D01*
X3917762Y-7595524D02*
X3917762Y-7462190D01*
X3917762Y-7481238D02*
X3927286Y-7471714D01*
X3927286Y-7471714D02*
X3946333Y-7462190D01*
X3946333Y-7462190D02*
X3974905Y-7462190D01*
X3974905Y-7462190D02*
X3993952Y-7471714D01*
X3993952Y-7471714D02*
X4003476Y-7490762D01*
X4003476Y-7490762D02*
X4003476Y-7595524D01*
X4003476Y-7490762D02*
X4013000Y-7471714D01*
X4013000Y-7471714D02*
X4032048Y-7462190D01*
X4032048Y-7462190D02*
X4060619Y-7462190D01*
X4060619Y-7462190D02*
X4079667Y-7471714D01*
X4079667Y-7471714D02*
X4089190Y-7490762D01*
X4089190Y-7490762D02*
X4089190Y-7595524D01*
X4184429Y-7595524D02*
X4184429Y-7462190D01*
X4184429Y-7481238D02*
X4193952Y-7471714D01*
X4193952Y-7471714D02*
X4213000Y-7462190D01*
X4213000Y-7462190D02*
X4241572Y-7462190D01*
X4241572Y-7462190D02*
X4260619Y-7471714D01*
X4260619Y-7471714D02*
X4270143Y-7490762D01*
X4270143Y-7490762D02*
X4270143Y-7595524D01*
X4270143Y-7490762D02*
X4279667Y-7471714D01*
X4279667Y-7471714D02*
X4298714Y-7462190D01*
X4298714Y-7462190D02*
X4327286Y-7462190D01*
X4327286Y-7462190D02*
X4346333Y-7471714D01*
X4346333Y-7471714D02*
X4355857Y-7490762D01*
X4355857Y-7490762D02*
X4355857Y-7595524D01*
X4746333Y-7386000D02*
X4574905Y-7643143D01*
X5003476Y-7395524D02*
X5022524Y-7395524D01*
X5022524Y-7395524D02*
X5041572Y-7405048D01*
X5041572Y-7405048D02*
X5051095Y-7414571D01*
X5051095Y-7414571D02*
X5060619Y-7433619D01*
X5060619Y-7433619D02*
X5070143Y-7471714D01*
X5070143Y-7471714D02*
X5070143Y-7519333D01*
X5070143Y-7519333D02*
X5060619Y-7557428D01*
X5060619Y-7557428D02*
X5051095Y-7576476D01*
X5051095Y-7576476D02*
X5041572Y-7586000D01*
X5041572Y-7586000D02*
X5022524Y-7595524D01*
X5022524Y-7595524D02*
X5003476Y-7595524D01*
X5003476Y-7595524D02*
X4984429Y-7586000D01*
X4984429Y-7586000D02*
X4974905Y-7576476D01*
X4974905Y-7576476D02*
X4965381Y-7557428D01*
X4965381Y-7557428D02*
X4955857Y-7519333D01*
X4955857Y-7519333D02*
X4955857Y-7471714D01*
X4955857Y-7471714D02*
X4965381Y-7433619D01*
X4965381Y-7433619D02*
X4974905Y-7414571D01*
X4974905Y-7414571D02*
X4984429Y-7405048D01*
X4984429Y-7405048D02*
X5003476Y-7395524D01*
X5155857Y-7576476D02*
X5165381Y-7586000D01*
X5165381Y-7586000D02*
X5155857Y-7595524D01*
X5155857Y-7595524D02*
X5146334Y-7586000D01*
X5146334Y-7586000D02*
X5155857Y-7576476D01*
X5155857Y-7576476D02*
X5155857Y-7595524D01*
X5289191Y-7395524D02*
X5308238Y-7395524D01*
X5308238Y-7395524D02*
X5327286Y-7405048D01*
X5327286Y-7405048D02*
X5336810Y-7414571D01*
X5336810Y-7414571D02*
X5346334Y-7433619D01*
X5346334Y-7433619D02*
X5355857Y-7471714D01*
X5355857Y-7471714D02*
X5355857Y-7519333D01*
X5355857Y-7519333D02*
X5346334Y-7557428D01*
X5346334Y-7557428D02*
X5336810Y-7576476D01*
X5336810Y-7576476D02*
X5327286Y-7586000D01*
X5327286Y-7586000D02*
X5308238Y-7595524D01*
X5308238Y-7595524D02*
X5289191Y-7595524D01*
X5289191Y-7595524D02*
X5270143Y-7586000D01*
X5270143Y-7586000D02*
X5260619Y-7576476D01*
X5260619Y-7576476D02*
X5251095Y-7557428D01*
X5251095Y-7557428D02*
X5241572Y-7519333D01*
X5241572Y-7519333D02*
X5241572Y-7471714D01*
X5241572Y-7471714D02*
X5251095Y-7433619D01*
X5251095Y-7433619D02*
X5260619Y-7414571D01*
X5260619Y-7414571D02*
X5270143Y-7405048D01*
X5270143Y-7405048D02*
X5289191Y-7395524D01*
X5432048Y-7414571D02*
X5441572Y-7405048D01*
X5441572Y-7405048D02*
X5460619Y-7395524D01*
X5460619Y-7395524D02*
X5508238Y-7395524D01*
X5508238Y-7395524D02*
X5527286Y-7405048D01*
X5527286Y-7405048D02*
X5536810Y-7414571D01*
X5536810Y-7414571D02*
X5546334Y-7433619D01*
X5546334Y-7433619D02*
X5546334Y-7452667D01*
X5546334Y-7452667D02*
X5536810Y-7481238D01*
X5536810Y-7481238D02*
X5422524Y-7595524D01*
X5422524Y-7595524D02*
X5546334Y-7595524D01*
X5613000Y-7395524D02*
X5736810Y-7395524D01*
X5736810Y-7395524D02*
X5670143Y-7471714D01*
X5670143Y-7471714D02*
X5698714Y-7471714D01*
X5698714Y-7471714D02*
X5717762Y-7481238D01*
X5717762Y-7481238D02*
X5727286Y-7490762D01*
X5727286Y-7490762D02*
X5736810Y-7509809D01*
X5736810Y-7509809D02*
X5736810Y-7557428D01*
X5736810Y-7557428D02*
X5727286Y-7576476D01*
X5727286Y-7576476D02*
X5717762Y-7586000D01*
X5717762Y-7586000D02*
X5698714Y-7595524D01*
X5698714Y-7595524D02*
X5641572Y-7595524D01*
X5641572Y-7595524D02*
X5622524Y-7586000D01*
X5622524Y-7586000D02*
X5613000Y-7576476D01*
X5908238Y-7395524D02*
X5870143Y-7395524D01*
X5870143Y-7395524D02*
X5851095Y-7405048D01*
X5851095Y-7405048D02*
X5841572Y-7414571D01*
X5841572Y-7414571D02*
X5822524Y-7443143D01*
X5822524Y-7443143D02*
X5813000Y-7481238D01*
X5813000Y-7481238D02*
X5813000Y-7557428D01*
X5813000Y-7557428D02*
X5822524Y-7576476D01*
X5822524Y-7576476D02*
X5832048Y-7586000D01*
X5832048Y-7586000D02*
X5851095Y-7595524D01*
X5851095Y-7595524D02*
X5889191Y-7595524D01*
X5889191Y-7595524D02*
X5908238Y-7586000D01*
X5908238Y-7586000D02*
X5917762Y-7576476D01*
X5917762Y-7576476D02*
X5927286Y-7557428D01*
X5927286Y-7557428D02*
X5927286Y-7509809D01*
X5927286Y-7509809D02*
X5917762Y-7490762D01*
X5917762Y-7490762D02*
X5908238Y-7481238D01*
X5908238Y-7481238D02*
X5889191Y-7471714D01*
X5889191Y-7471714D02*
X5851095Y-7471714D01*
X5851095Y-7471714D02*
X5832048Y-7481238D01*
X5832048Y-7481238D02*
X5822524Y-7490762D01*
X5822524Y-7490762D02*
X5813000Y-7509809D01*
X6003476Y-7395524D02*
X6003476Y-7433619D01*
X6079667Y-7395524D02*
X6079667Y-7433619D01*
X6374905Y-7671714D02*
X6365381Y-7662190D01*
X6365381Y-7662190D02*
X6346334Y-7633619D01*
X6346334Y-7633619D02*
X6336810Y-7614571D01*
X6336810Y-7614571D02*
X6327286Y-7586000D01*
X6327286Y-7586000D02*
X6317762Y-7538381D01*
X6317762Y-7538381D02*
X6317762Y-7500286D01*
X6317762Y-7500286D02*
X6327286Y-7452667D01*
X6327286Y-7452667D02*
X6336810Y-7424095D01*
X6336810Y-7424095D02*
X6346334Y-7405048D01*
X6346334Y-7405048D02*
X6365381Y-7376476D01*
X6365381Y-7376476D02*
X6374905Y-7366952D01*
X6489191Y-7395524D02*
X6508238Y-7395524D01*
X6508238Y-7395524D02*
X6527286Y-7405048D01*
X6527286Y-7405048D02*
X6536810Y-7414571D01*
X6536810Y-7414571D02*
X6546334Y-7433619D01*
X6546334Y-7433619D02*
X6555857Y-7471714D01*
X6555857Y-7471714D02*
X6555857Y-7519333D01*
X6555857Y-7519333D02*
X6546334Y-7557428D01*
X6546334Y-7557428D02*
X6536810Y-7576476D01*
X6536810Y-7576476D02*
X6527286Y-7586000D01*
X6527286Y-7586000D02*
X6508238Y-7595524D01*
X6508238Y-7595524D02*
X6489191Y-7595524D01*
X6489191Y-7595524D02*
X6470143Y-7586000D01*
X6470143Y-7586000D02*
X6460619Y-7576476D01*
X6460619Y-7576476D02*
X6451095Y-7557428D01*
X6451095Y-7557428D02*
X6441572Y-7519333D01*
X6441572Y-7519333D02*
X6441572Y-7471714D01*
X6441572Y-7471714D02*
X6451095Y-7433619D01*
X6451095Y-7433619D02*
X6460619Y-7414571D01*
X6460619Y-7414571D02*
X6470143Y-7405048D01*
X6470143Y-7405048D02*
X6489191Y-7395524D01*
X6793953Y-7595524D02*
X6793953Y-7395524D01*
X6879667Y-7595524D02*
X6879667Y-7490762D01*
X6879667Y-7490762D02*
X6870143Y-7471714D01*
X6870143Y-7471714D02*
X6851096Y-7462190D01*
X6851096Y-7462190D02*
X6822524Y-7462190D01*
X6822524Y-7462190D02*
X6803476Y-7471714D01*
X6803476Y-7471714D02*
X6793953Y-7481238D01*
X7003476Y-7595524D02*
X6984429Y-7586000D01*
X6984429Y-7586000D02*
X6974905Y-7576476D01*
X6974905Y-7576476D02*
X6965381Y-7557428D01*
X6965381Y-7557428D02*
X6965381Y-7500286D01*
X6965381Y-7500286D02*
X6974905Y-7481238D01*
X6974905Y-7481238D02*
X6984429Y-7471714D01*
X6984429Y-7471714D02*
X7003476Y-7462190D01*
X7003476Y-7462190D02*
X7032048Y-7462190D01*
X7032048Y-7462190D02*
X7051096Y-7471714D01*
X7051096Y-7471714D02*
X7060619Y-7481238D01*
X7060619Y-7481238D02*
X7070143Y-7500286D01*
X7070143Y-7500286D02*
X7070143Y-7557428D01*
X7070143Y-7557428D02*
X7060619Y-7576476D01*
X7060619Y-7576476D02*
X7051096Y-7586000D01*
X7051096Y-7586000D02*
X7032048Y-7595524D01*
X7032048Y-7595524D02*
X7003476Y-7595524D01*
X7184429Y-7595524D02*
X7165381Y-7586000D01*
X7165381Y-7586000D02*
X7155857Y-7566952D01*
X7155857Y-7566952D02*
X7155857Y-7395524D01*
X7336810Y-7586000D02*
X7317762Y-7595524D01*
X7317762Y-7595524D02*
X7279667Y-7595524D01*
X7279667Y-7595524D02*
X7260619Y-7586000D01*
X7260619Y-7586000D02*
X7251096Y-7566952D01*
X7251096Y-7566952D02*
X7251096Y-7490762D01*
X7251096Y-7490762D02*
X7260619Y-7471714D01*
X7260619Y-7471714D02*
X7279667Y-7462190D01*
X7279667Y-7462190D02*
X7317762Y-7462190D01*
X7317762Y-7462190D02*
X7336810Y-7471714D01*
X7336810Y-7471714D02*
X7346334Y-7490762D01*
X7346334Y-7490762D02*
X7346334Y-7509809D01*
X7346334Y-7509809D02*
X7251096Y-7528857D01*
X7422524Y-7586000D02*
X7441572Y-7595524D01*
X7441572Y-7595524D02*
X7479667Y-7595524D01*
X7479667Y-7595524D02*
X7498715Y-7586000D01*
X7498715Y-7586000D02*
X7508238Y-7566952D01*
X7508238Y-7566952D02*
X7508238Y-7557428D01*
X7508238Y-7557428D02*
X7498715Y-7538381D01*
X7498715Y-7538381D02*
X7479667Y-7528857D01*
X7479667Y-7528857D02*
X7451096Y-7528857D01*
X7451096Y-7528857D02*
X7432048Y-7519333D01*
X7432048Y-7519333D02*
X7422524Y-7500286D01*
X7422524Y-7500286D02*
X7422524Y-7490762D01*
X7422524Y-7490762D02*
X7432048Y-7471714D01*
X7432048Y-7471714D02*
X7451096Y-7462190D01*
X7451096Y-7462190D02*
X7479667Y-7462190D01*
X7479667Y-7462190D02*
X7498715Y-7471714D01*
X7746334Y-7519333D02*
X7898715Y-7519333D01*
X7822524Y-7595524D02*
X7822524Y-7443143D01*
X8232048Y-7462190D02*
X8232048Y-7595524D01*
X8184429Y-7386000D02*
X8136810Y-7528857D01*
X8136810Y-7528857D02*
X8260619Y-7528857D01*
X8479667Y-7586000D02*
X8498715Y-7595524D01*
X8498715Y-7595524D02*
X8536810Y-7595524D01*
X8536810Y-7595524D02*
X8555858Y-7586000D01*
X8555858Y-7586000D02*
X8565382Y-7566952D01*
X8565382Y-7566952D02*
X8565382Y-7557428D01*
X8565382Y-7557428D02*
X8555858Y-7538381D01*
X8555858Y-7538381D02*
X8536810Y-7528857D01*
X8536810Y-7528857D02*
X8508239Y-7528857D01*
X8508239Y-7528857D02*
X8489191Y-7519333D01*
X8489191Y-7519333D02*
X8479667Y-7500286D01*
X8479667Y-7500286D02*
X8479667Y-7490762D01*
X8479667Y-7490762D02*
X8489191Y-7471714D01*
X8489191Y-7471714D02*
X8508239Y-7462190D01*
X8508239Y-7462190D02*
X8536810Y-7462190D01*
X8536810Y-7462190D02*
X8555858Y-7471714D01*
X8679667Y-7595524D02*
X8660620Y-7586000D01*
X8660620Y-7586000D02*
X8651096Y-7566952D01*
X8651096Y-7566952D02*
X8651096Y-7395524D01*
X8784429Y-7595524D02*
X8765382Y-7586000D01*
X8765382Y-7586000D02*
X8755858Y-7576476D01*
X8755858Y-7576476D02*
X8746334Y-7557428D01*
X8746334Y-7557428D02*
X8746334Y-7500286D01*
X8746334Y-7500286D02*
X8755858Y-7481238D01*
X8755858Y-7481238D02*
X8765382Y-7471714D01*
X8765382Y-7471714D02*
X8784429Y-7462190D01*
X8784429Y-7462190D02*
X8813001Y-7462190D01*
X8813001Y-7462190D02*
X8832048Y-7471714D01*
X8832048Y-7471714D02*
X8841572Y-7481238D01*
X8841572Y-7481238D02*
X8851096Y-7500286D01*
X8851096Y-7500286D02*
X8851096Y-7557428D01*
X8851096Y-7557428D02*
X8841572Y-7576476D01*
X8841572Y-7576476D02*
X8832048Y-7586000D01*
X8832048Y-7586000D02*
X8813001Y-7595524D01*
X8813001Y-7595524D02*
X8784429Y-7595524D01*
X8908239Y-7462190D02*
X8984429Y-7462190D01*
X8936810Y-7395524D02*
X8936810Y-7566952D01*
X8936810Y-7566952D02*
X8946334Y-7586000D01*
X8946334Y-7586000D02*
X8965382Y-7595524D01*
X8965382Y-7595524D02*
X8984429Y-7595524D01*
X9041572Y-7586000D02*
X9060620Y-7595524D01*
X9060620Y-7595524D02*
X9098715Y-7595524D01*
X9098715Y-7595524D02*
X9117763Y-7586000D01*
X9117763Y-7586000D02*
X9127286Y-7566952D01*
X9127286Y-7566952D02*
X9127286Y-7557428D01*
X9127286Y-7557428D02*
X9117763Y-7538381D01*
X9117763Y-7538381D02*
X9098715Y-7528857D01*
X9098715Y-7528857D02*
X9070143Y-7528857D01*
X9070143Y-7528857D02*
X9051096Y-7519333D01*
X9051096Y-7519333D02*
X9041572Y-7500286D01*
X9041572Y-7500286D02*
X9041572Y-7490762D01*
X9041572Y-7490762D02*
X9051096Y-7471714D01*
X9051096Y-7471714D02*
X9070143Y-7462190D01*
X9070143Y-7462190D02*
X9098715Y-7462190D01*
X9098715Y-7462190D02*
X9117763Y-7471714D01*
X9193953Y-7671714D02*
X9203477Y-7662190D01*
X9203477Y-7662190D02*
X9222524Y-7633619D01*
X9222524Y-7633619D02*
X9232048Y-7614571D01*
X9232048Y-7614571D02*
X9241572Y-7586000D01*
X9241572Y-7586000D02*
X9251096Y-7538381D01*
X9251096Y-7538381D02*
X9251096Y-7500286D01*
X9251096Y-7500286D02*
X9241572Y-7452667D01*
X9241572Y-7452667D02*
X9232048Y-7424095D01*
X9232048Y-7424095D02*
X9222524Y-7405048D01*
X9222524Y-7405048D02*
X9203477Y-7376476D01*
X9203477Y-7376476D02*
X9193953Y-7366952D01*
D15*
X2803481Y-7789981D02*
X2803481Y-7744019D01*
X2757519Y-7744019D01*
X2757519Y-7789981D01*
X2803481Y-7789981D01*
D11*
X3098714Y-7659524D02*
X3117762Y-7659524D01*
X3117762Y-7659524D02*
X3136809Y-7669048D01*
X3136809Y-7669048D02*
X3146333Y-7678571D01*
X3146333Y-7678571D02*
X3155857Y-7697619D01*
X3155857Y-7697619D02*
X3165381Y-7735714D01*
X3165381Y-7735714D02*
X3165381Y-7783333D01*
X3165381Y-7783333D02*
X3155857Y-7821428D01*
X3155857Y-7821428D02*
X3146333Y-7840476D01*
X3146333Y-7840476D02*
X3136809Y-7850000D01*
X3136809Y-7850000D02*
X3117762Y-7859524D01*
X3117762Y-7859524D02*
X3098714Y-7859524D01*
X3098714Y-7859524D02*
X3079667Y-7850000D01*
X3079667Y-7850000D02*
X3070143Y-7840476D01*
X3070143Y-7840476D02*
X3060619Y-7821428D01*
X3060619Y-7821428D02*
X3051095Y-7783333D01*
X3051095Y-7783333D02*
X3051095Y-7735714D01*
X3051095Y-7735714D02*
X3060619Y-7697619D01*
X3060619Y-7697619D02*
X3070143Y-7678571D01*
X3070143Y-7678571D02*
X3079667Y-7669048D01*
X3079667Y-7669048D02*
X3098714Y-7659524D01*
X3251095Y-7840476D02*
X3260619Y-7850000D01*
X3260619Y-7850000D02*
X3251095Y-7859524D01*
X3251095Y-7859524D02*
X3241571Y-7850000D01*
X3241571Y-7850000D02*
X3251095Y-7840476D01*
X3251095Y-7840476D02*
X3251095Y-7859524D01*
X3432048Y-7659524D02*
X3393952Y-7659524D01*
X3393952Y-7659524D02*
X3374905Y-7669048D01*
X3374905Y-7669048D02*
X3365381Y-7678571D01*
X3365381Y-7678571D02*
X3346333Y-7707143D01*
X3346333Y-7707143D02*
X3336809Y-7745238D01*
X3336809Y-7745238D02*
X3336809Y-7821428D01*
X3336809Y-7821428D02*
X3346333Y-7840476D01*
X3346333Y-7840476D02*
X3355857Y-7850000D01*
X3355857Y-7850000D02*
X3374905Y-7859524D01*
X3374905Y-7859524D02*
X3413000Y-7859524D01*
X3413000Y-7859524D02*
X3432048Y-7850000D01*
X3432048Y-7850000D02*
X3441571Y-7840476D01*
X3441571Y-7840476D02*
X3451095Y-7821428D01*
X3451095Y-7821428D02*
X3451095Y-7773809D01*
X3451095Y-7773809D02*
X3441571Y-7754762D01*
X3441571Y-7754762D02*
X3432048Y-7745238D01*
X3432048Y-7745238D02*
X3413000Y-7735714D01*
X3413000Y-7735714D02*
X3374905Y-7735714D01*
X3374905Y-7735714D02*
X3355857Y-7745238D01*
X3355857Y-7745238D02*
X3346333Y-7754762D01*
X3346333Y-7754762D02*
X3336809Y-7773809D01*
X3632048Y-7659524D02*
X3536809Y-7659524D01*
X3536809Y-7659524D02*
X3527286Y-7754762D01*
X3527286Y-7754762D02*
X3536809Y-7745238D01*
X3536809Y-7745238D02*
X3555857Y-7735714D01*
X3555857Y-7735714D02*
X3603476Y-7735714D01*
X3603476Y-7735714D02*
X3622524Y-7745238D01*
X3622524Y-7745238D02*
X3632048Y-7754762D01*
X3632048Y-7754762D02*
X3641571Y-7773809D01*
X3641571Y-7773809D02*
X3641571Y-7821428D01*
X3641571Y-7821428D02*
X3632048Y-7840476D01*
X3632048Y-7840476D02*
X3622524Y-7850000D01*
X3622524Y-7850000D02*
X3603476Y-7859524D01*
X3603476Y-7859524D02*
X3555857Y-7859524D01*
X3555857Y-7859524D02*
X3536809Y-7850000D01*
X3536809Y-7850000D02*
X3527286Y-7840476D01*
X3765381Y-7659524D02*
X3784429Y-7659524D01*
X3784429Y-7659524D02*
X3803476Y-7669048D01*
X3803476Y-7669048D02*
X3813000Y-7678571D01*
X3813000Y-7678571D02*
X3822524Y-7697619D01*
X3822524Y-7697619D02*
X3832048Y-7735714D01*
X3832048Y-7735714D02*
X3832048Y-7783333D01*
X3832048Y-7783333D02*
X3822524Y-7821428D01*
X3822524Y-7821428D02*
X3813000Y-7840476D01*
X3813000Y-7840476D02*
X3803476Y-7850000D01*
X3803476Y-7850000D02*
X3784429Y-7859524D01*
X3784429Y-7859524D02*
X3765381Y-7859524D01*
X3765381Y-7859524D02*
X3746333Y-7850000D01*
X3746333Y-7850000D02*
X3736809Y-7840476D01*
X3736809Y-7840476D02*
X3727286Y-7821428D01*
X3727286Y-7821428D02*
X3717762Y-7783333D01*
X3717762Y-7783333D02*
X3717762Y-7735714D01*
X3717762Y-7735714D02*
X3727286Y-7697619D01*
X3727286Y-7697619D02*
X3736809Y-7678571D01*
X3736809Y-7678571D02*
X3746333Y-7669048D01*
X3746333Y-7669048D02*
X3765381Y-7659524D01*
X3917762Y-7859524D02*
X3917762Y-7726190D01*
X3917762Y-7745238D02*
X3927286Y-7735714D01*
X3927286Y-7735714D02*
X3946333Y-7726190D01*
X3946333Y-7726190D02*
X3974905Y-7726190D01*
X3974905Y-7726190D02*
X3993952Y-7735714D01*
X3993952Y-7735714D02*
X4003476Y-7754762D01*
X4003476Y-7754762D02*
X4003476Y-7859524D01*
X4003476Y-7754762D02*
X4013000Y-7735714D01*
X4013000Y-7735714D02*
X4032048Y-7726190D01*
X4032048Y-7726190D02*
X4060619Y-7726190D01*
X4060619Y-7726190D02*
X4079667Y-7735714D01*
X4079667Y-7735714D02*
X4089190Y-7754762D01*
X4089190Y-7754762D02*
X4089190Y-7859524D01*
X4184429Y-7859524D02*
X4184429Y-7726190D01*
X4184429Y-7745238D02*
X4193952Y-7735714D01*
X4193952Y-7735714D02*
X4213000Y-7726190D01*
X4213000Y-7726190D02*
X4241572Y-7726190D01*
X4241572Y-7726190D02*
X4260619Y-7735714D01*
X4260619Y-7735714D02*
X4270143Y-7754762D01*
X4270143Y-7754762D02*
X4270143Y-7859524D01*
X4270143Y-7754762D02*
X4279667Y-7735714D01*
X4279667Y-7735714D02*
X4298714Y-7726190D01*
X4298714Y-7726190D02*
X4327286Y-7726190D01*
X4327286Y-7726190D02*
X4346333Y-7735714D01*
X4346333Y-7735714D02*
X4355857Y-7754762D01*
X4355857Y-7754762D02*
X4355857Y-7859524D01*
X4746333Y-7650000D02*
X4574905Y-7907143D01*
X5003476Y-7659524D02*
X5022524Y-7659524D01*
X5022524Y-7659524D02*
X5041572Y-7669048D01*
X5041572Y-7669048D02*
X5051095Y-7678571D01*
X5051095Y-7678571D02*
X5060619Y-7697619D01*
X5060619Y-7697619D02*
X5070143Y-7735714D01*
X5070143Y-7735714D02*
X5070143Y-7783333D01*
X5070143Y-7783333D02*
X5060619Y-7821428D01*
X5060619Y-7821428D02*
X5051095Y-7840476D01*
X5051095Y-7840476D02*
X5041572Y-7850000D01*
X5041572Y-7850000D02*
X5022524Y-7859524D01*
X5022524Y-7859524D02*
X5003476Y-7859524D01*
X5003476Y-7859524D02*
X4984429Y-7850000D01*
X4984429Y-7850000D02*
X4974905Y-7840476D01*
X4974905Y-7840476D02*
X4965381Y-7821428D01*
X4965381Y-7821428D02*
X4955857Y-7783333D01*
X4955857Y-7783333D02*
X4955857Y-7735714D01*
X4955857Y-7735714D02*
X4965381Y-7697619D01*
X4965381Y-7697619D02*
X4974905Y-7678571D01*
X4974905Y-7678571D02*
X4984429Y-7669048D01*
X4984429Y-7669048D02*
X5003476Y-7659524D01*
X5155857Y-7840476D02*
X5165381Y-7850000D01*
X5165381Y-7850000D02*
X5155857Y-7859524D01*
X5155857Y-7859524D02*
X5146334Y-7850000D01*
X5146334Y-7850000D02*
X5155857Y-7840476D01*
X5155857Y-7840476D02*
X5155857Y-7859524D01*
X5289191Y-7659524D02*
X5308238Y-7659524D01*
X5308238Y-7659524D02*
X5327286Y-7669048D01*
X5327286Y-7669048D02*
X5336810Y-7678571D01*
X5336810Y-7678571D02*
X5346334Y-7697619D01*
X5346334Y-7697619D02*
X5355857Y-7735714D01*
X5355857Y-7735714D02*
X5355857Y-7783333D01*
X5355857Y-7783333D02*
X5346334Y-7821428D01*
X5346334Y-7821428D02*
X5336810Y-7840476D01*
X5336810Y-7840476D02*
X5327286Y-7850000D01*
X5327286Y-7850000D02*
X5308238Y-7859524D01*
X5308238Y-7859524D02*
X5289191Y-7859524D01*
X5289191Y-7859524D02*
X5270143Y-7850000D01*
X5270143Y-7850000D02*
X5260619Y-7840476D01*
X5260619Y-7840476D02*
X5251095Y-7821428D01*
X5251095Y-7821428D02*
X5241572Y-7783333D01*
X5241572Y-7783333D02*
X5241572Y-7735714D01*
X5241572Y-7735714D02*
X5251095Y-7697619D01*
X5251095Y-7697619D02*
X5260619Y-7678571D01*
X5260619Y-7678571D02*
X5270143Y-7669048D01*
X5270143Y-7669048D02*
X5289191Y-7659524D01*
X5432048Y-7678571D02*
X5441572Y-7669048D01*
X5441572Y-7669048D02*
X5460619Y-7659524D01*
X5460619Y-7659524D02*
X5508238Y-7659524D01*
X5508238Y-7659524D02*
X5527286Y-7669048D01*
X5527286Y-7669048D02*
X5536810Y-7678571D01*
X5536810Y-7678571D02*
X5546334Y-7697619D01*
X5546334Y-7697619D02*
X5546334Y-7716667D01*
X5546334Y-7716667D02*
X5536810Y-7745238D01*
X5536810Y-7745238D02*
X5422524Y-7859524D01*
X5422524Y-7859524D02*
X5546334Y-7859524D01*
X5727286Y-7659524D02*
X5632048Y-7659524D01*
X5632048Y-7659524D02*
X5622524Y-7754762D01*
X5622524Y-7754762D02*
X5632048Y-7745238D01*
X5632048Y-7745238D02*
X5651095Y-7735714D01*
X5651095Y-7735714D02*
X5698714Y-7735714D01*
X5698714Y-7735714D02*
X5717762Y-7745238D01*
X5717762Y-7745238D02*
X5727286Y-7754762D01*
X5727286Y-7754762D02*
X5736810Y-7773809D01*
X5736810Y-7773809D02*
X5736810Y-7821428D01*
X5736810Y-7821428D02*
X5727286Y-7840476D01*
X5727286Y-7840476D02*
X5717762Y-7850000D01*
X5717762Y-7850000D02*
X5698714Y-7859524D01*
X5698714Y-7859524D02*
X5651095Y-7859524D01*
X5651095Y-7859524D02*
X5632048Y-7850000D01*
X5632048Y-7850000D02*
X5622524Y-7840476D01*
X5908238Y-7659524D02*
X5870143Y-7659524D01*
X5870143Y-7659524D02*
X5851095Y-7669048D01*
X5851095Y-7669048D02*
X5841572Y-7678571D01*
X5841572Y-7678571D02*
X5822524Y-7707143D01*
X5822524Y-7707143D02*
X5813000Y-7745238D01*
X5813000Y-7745238D02*
X5813000Y-7821428D01*
X5813000Y-7821428D02*
X5822524Y-7840476D01*
X5822524Y-7840476D02*
X5832048Y-7850000D01*
X5832048Y-7850000D02*
X5851095Y-7859524D01*
X5851095Y-7859524D02*
X5889191Y-7859524D01*
X5889191Y-7859524D02*
X5908238Y-7850000D01*
X5908238Y-7850000D02*
X5917762Y-7840476D01*
X5917762Y-7840476D02*
X5927286Y-7821428D01*
X5927286Y-7821428D02*
X5927286Y-7773809D01*
X5927286Y-7773809D02*
X5917762Y-7754762D01*
X5917762Y-7754762D02*
X5908238Y-7745238D01*
X5908238Y-7745238D02*
X5889191Y-7735714D01*
X5889191Y-7735714D02*
X5851095Y-7735714D01*
X5851095Y-7735714D02*
X5832048Y-7745238D01*
X5832048Y-7745238D02*
X5822524Y-7754762D01*
X5822524Y-7754762D02*
X5813000Y-7773809D01*
X6003476Y-7659524D02*
X6003476Y-7697619D01*
X6079667Y-7659524D02*
X6079667Y-7697619D01*
X6374905Y-7935714D02*
X6365381Y-7926190D01*
X6365381Y-7926190D02*
X6346334Y-7897619D01*
X6346334Y-7897619D02*
X6336810Y-7878571D01*
X6336810Y-7878571D02*
X6327286Y-7850000D01*
X6327286Y-7850000D02*
X6317762Y-7802381D01*
X6317762Y-7802381D02*
X6317762Y-7764286D01*
X6317762Y-7764286D02*
X6327286Y-7716667D01*
X6327286Y-7716667D02*
X6336810Y-7688095D01*
X6336810Y-7688095D02*
X6346334Y-7669048D01*
X6346334Y-7669048D02*
X6365381Y-7640476D01*
X6365381Y-7640476D02*
X6374905Y-7630952D01*
X6536810Y-7726190D02*
X6536810Y-7859524D01*
X6489191Y-7650000D02*
X6441572Y-7792857D01*
X6441572Y-7792857D02*
X6565381Y-7792857D01*
X6632048Y-7678571D02*
X6641572Y-7669048D01*
X6641572Y-7669048D02*
X6660619Y-7659524D01*
X6660619Y-7659524D02*
X6708238Y-7659524D01*
X6708238Y-7659524D02*
X6727286Y-7669048D01*
X6727286Y-7669048D02*
X6736810Y-7678571D01*
X6736810Y-7678571D02*
X6746334Y-7697619D01*
X6746334Y-7697619D02*
X6746334Y-7716667D01*
X6746334Y-7716667D02*
X6736810Y-7745238D01*
X6736810Y-7745238D02*
X6622524Y-7859524D01*
X6622524Y-7859524D02*
X6746334Y-7859524D01*
X6984429Y-7859524D02*
X6984429Y-7659524D01*
X7070143Y-7859524D02*
X7070143Y-7754762D01*
X7070143Y-7754762D02*
X7060619Y-7735714D01*
X7060619Y-7735714D02*
X7041572Y-7726190D01*
X7041572Y-7726190D02*
X7013000Y-7726190D01*
X7013000Y-7726190D02*
X6993953Y-7735714D01*
X6993953Y-7735714D02*
X6984429Y-7745238D01*
X7193953Y-7859524D02*
X7174905Y-7850000D01*
X7174905Y-7850000D02*
X7165381Y-7840476D01*
X7165381Y-7840476D02*
X7155857Y-7821428D01*
X7155857Y-7821428D02*
X7155857Y-7764286D01*
X7155857Y-7764286D02*
X7165381Y-7745238D01*
X7165381Y-7745238D02*
X7174905Y-7735714D01*
X7174905Y-7735714D02*
X7193953Y-7726190D01*
X7193953Y-7726190D02*
X7222524Y-7726190D01*
X7222524Y-7726190D02*
X7241572Y-7735714D01*
X7241572Y-7735714D02*
X7251096Y-7745238D01*
X7251096Y-7745238D02*
X7260619Y-7764286D01*
X7260619Y-7764286D02*
X7260619Y-7821428D01*
X7260619Y-7821428D02*
X7251096Y-7840476D01*
X7251096Y-7840476D02*
X7241572Y-7850000D01*
X7241572Y-7850000D02*
X7222524Y-7859524D01*
X7222524Y-7859524D02*
X7193953Y-7859524D01*
X7374905Y-7859524D02*
X7355857Y-7850000D01*
X7355857Y-7850000D02*
X7346334Y-7830952D01*
X7346334Y-7830952D02*
X7346334Y-7659524D01*
X7527286Y-7850000D02*
X7508238Y-7859524D01*
X7508238Y-7859524D02*
X7470143Y-7859524D01*
X7470143Y-7859524D02*
X7451096Y-7850000D01*
X7451096Y-7850000D02*
X7441572Y-7830952D01*
X7441572Y-7830952D02*
X7441572Y-7754762D01*
X7441572Y-7754762D02*
X7451096Y-7735714D01*
X7451096Y-7735714D02*
X7470143Y-7726190D01*
X7470143Y-7726190D02*
X7508238Y-7726190D01*
X7508238Y-7726190D02*
X7527286Y-7735714D01*
X7527286Y-7735714D02*
X7536810Y-7754762D01*
X7536810Y-7754762D02*
X7536810Y-7773809D01*
X7536810Y-7773809D02*
X7441572Y-7792857D01*
X7613000Y-7850000D02*
X7632048Y-7859524D01*
X7632048Y-7859524D02*
X7670143Y-7859524D01*
X7670143Y-7859524D02*
X7689191Y-7850000D01*
X7689191Y-7850000D02*
X7698715Y-7830952D01*
X7698715Y-7830952D02*
X7698715Y-7821428D01*
X7698715Y-7821428D02*
X7689191Y-7802381D01*
X7689191Y-7802381D02*
X7670143Y-7792857D01*
X7670143Y-7792857D02*
X7641572Y-7792857D01*
X7641572Y-7792857D02*
X7622524Y-7783333D01*
X7622524Y-7783333D02*
X7613000Y-7764286D01*
X7613000Y-7764286D02*
X7613000Y-7754762D01*
X7613000Y-7754762D02*
X7622524Y-7735714D01*
X7622524Y-7735714D02*
X7641572Y-7726190D01*
X7641572Y-7726190D02*
X7670143Y-7726190D01*
X7670143Y-7726190D02*
X7689191Y-7735714D01*
X7765381Y-7935714D02*
X7774905Y-7926190D01*
X7774905Y-7926190D02*
X7793953Y-7897619D01*
X7793953Y-7897619D02*
X7803477Y-7878571D01*
X7803477Y-7878571D02*
X7813000Y-7850000D01*
X7813000Y-7850000D02*
X7822524Y-7802381D01*
X7822524Y-7802381D02*
X7822524Y-7764286D01*
X7822524Y-7764286D02*
X7813000Y-7716667D01*
X7813000Y-7716667D02*
X7803477Y-7688095D01*
X7803477Y-7688095D02*
X7793953Y-7669048D01*
X7793953Y-7669048D02*
X7774905Y-7640476D01*
X7774905Y-7640476D02*
X7765381Y-7630952D01*
D16*
X2773650Y-8070350D02*
X2813000Y-8031000D01*
X2773650Y-7991650D01*
X2734300Y-8031000D01*
X2773650Y-8070350D01*
D11*
X3098714Y-7923524D02*
X3117762Y-7923524D01*
X3117762Y-7923524D02*
X3136809Y-7933048D01*
X3136809Y-7933048D02*
X3146333Y-7942571D01*
X3146333Y-7942571D02*
X3155857Y-7961619D01*
X3155857Y-7961619D02*
X3165381Y-7999714D01*
X3165381Y-7999714D02*
X3165381Y-8047333D01*
X3165381Y-8047333D02*
X3155857Y-8085428D01*
X3155857Y-8085428D02*
X3146333Y-8104476D01*
X3146333Y-8104476D02*
X3136809Y-8114000D01*
X3136809Y-8114000D02*
X3117762Y-8123524D01*
X3117762Y-8123524D02*
X3098714Y-8123524D01*
X3098714Y-8123524D02*
X3079667Y-8114000D01*
X3079667Y-8114000D02*
X3070143Y-8104476D01*
X3070143Y-8104476D02*
X3060619Y-8085428D01*
X3060619Y-8085428D02*
X3051095Y-8047333D01*
X3051095Y-8047333D02*
X3051095Y-7999714D01*
X3051095Y-7999714D02*
X3060619Y-7961619D01*
X3060619Y-7961619D02*
X3070143Y-7942571D01*
X3070143Y-7942571D02*
X3079667Y-7933048D01*
X3079667Y-7933048D02*
X3098714Y-7923524D01*
X3251095Y-8104476D02*
X3260619Y-8114000D01*
X3260619Y-8114000D02*
X3251095Y-8123524D01*
X3251095Y-8123524D02*
X3241571Y-8114000D01*
X3241571Y-8114000D02*
X3251095Y-8104476D01*
X3251095Y-8104476D02*
X3251095Y-8123524D01*
X3327286Y-7923524D02*
X3460619Y-7923524D01*
X3460619Y-7923524D02*
X3374905Y-8123524D01*
X3565381Y-8009238D02*
X3546333Y-7999714D01*
X3546333Y-7999714D02*
X3536809Y-7990190D01*
X3536809Y-7990190D02*
X3527286Y-7971143D01*
X3527286Y-7971143D02*
X3527286Y-7961619D01*
X3527286Y-7961619D02*
X3536809Y-7942571D01*
X3536809Y-7942571D02*
X3546333Y-7933048D01*
X3546333Y-7933048D02*
X3565381Y-7923524D01*
X3565381Y-7923524D02*
X3603476Y-7923524D01*
X3603476Y-7923524D02*
X3622524Y-7933048D01*
X3622524Y-7933048D02*
X3632048Y-7942571D01*
X3632048Y-7942571D02*
X3641571Y-7961619D01*
X3641571Y-7961619D02*
X3641571Y-7971143D01*
X3641571Y-7971143D02*
X3632048Y-7990190D01*
X3632048Y-7990190D02*
X3622524Y-7999714D01*
X3622524Y-7999714D02*
X3603476Y-8009238D01*
X3603476Y-8009238D02*
X3565381Y-8009238D01*
X3565381Y-8009238D02*
X3546333Y-8018762D01*
X3546333Y-8018762D02*
X3536809Y-8028286D01*
X3536809Y-8028286D02*
X3527286Y-8047333D01*
X3527286Y-8047333D02*
X3527286Y-8085428D01*
X3527286Y-8085428D02*
X3536809Y-8104476D01*
X3536809Y-8104476D02*
X3546333Y-8114000D01*
X3546333Y-8114000D02*
X3565381Y-8123524D01*
X3565381Y-8123524D02*
X3603476Y-8123524D01*
X3603476Y-8123524D02*
X3622524Y-8114000D01*
X3622524Y-8114000D02*
X3632048Y-8104476D01*
X3632048Y-8104476D02*
X3641571Y-8085428D01*
X3641571Y-8085428D02*
X3641571Y-8047333D01*
X3641571Y-8047333D02*
X3632048Y-8028286D01*
X3632048Y-8028286D02*
X3622524Y-8018762D01*
X3622524Y-8018762D02*
X3603476Y-8009238D01*
X3708238Y-7923524D02*
X3841571Y-7923524D01*
X3841571Y-7923524D02*
X3755857Y-8123524D01*
X3917762Y-8123524D02*
X3917762Y-7990190D01*
X3917762Y-8009238D02*
X3927286Y-7999714D01*
X3927286Y-7999714D02*
X3946333Y-7990190D01*
X3946333Y-7990190D02*
X3974905Y-7990190D01*
X3974905Y-7990190D02*
X3993952Y-7999714D01*
X3993952Y-7999714D02*
X4003476Y-8018762D01*
X4003476Y-8018762D02*
X4003476Y-8123524D01*
X4003476Y-8018762D02*
X4013000Y-7999714D01*
X4013000Y-7999714D02*
X4032048Y-7990190D01*
X4032048Y-7990190D02*
X4060619Y-7990190D01*
X4060619Y-7990190D02*
X4079667Y-7999714D01*
X4079667Y-7999714D02*
X4089190Y-8018762D01*
X4089190Y-8018762D02*
X4089190Y-8123524D01*
X4184429Y-8123524D02*
X4184429Y-7990190D01*
X4184429Y-8009238D02*
X4193952Y-7999714D01*
X4193952Y-7999714D02*
X4213000Y-7990190D01*
X4213000Y-7990190D02*
X4241572Y-7990190D01*
X4241572Y-7990190D02*
X4260619Y-7999714D01*
X4260619Y-7999714D02*
X4270143Y-8018762D01*
X4270143Y-8018762D02*
X4270143Y-8123524D01*
X4270143Y-8018762D02*
X4279667Y-7999714D01*
X4279667Y-7999714D02*
X4298714Y-7990190D01*
X4298714Y-7990190D02*
X4327286Y-7990190D01*
X4327286Y-7990190D02*
X4346333Y-7999714D01*
X4346333Y-7999714D02*
X4355857Y-8018762D01*
X4355857Y-8018762D02*
X4355857Y-8123524D01*
X4746333Y-7914000D02*
X4574905Y-8171143D01*
X5003476Y-7923524D02*
X5022524Y-7923524D01*
X5022524Y-7923524D02*
X5041572Y-7933048D01*
X5041572Y-7933048D02*
X5051095Y-7942571D01*
X5051095Y-7942571D02*
X5060619Y-7961619D01*
X5060619Y-7961619D02*
X5070143Y-7999714D01*
X5070143Y-7999714D02*
X5070143Y-8047333D01*
X5070143Y-8047333D02*
X5060619Y-8085428D01*
X5060619Y-8085428D02*
X5051095Y-8104476D01*
X5051095Y-8104476D02*
X5041572Y-8114000D01*
X5041572Y-8114000D02*
X5022524Y-8123524D01*
X5022524Y-8123524D02*
X5003476Y-8123524D01*
X5003476Y-8123524D02*
X4984429Y-8114000D01*
X4984429Y-8114000D02*
X4974905Y-8104476D01*
X4974905Y-8104476D02*
X4965381Y-8085428D01*
X4965381Y-8085428D02*
X4955857Y-8047333D01*
X4955857Y-8047333D02*
X4955857Y-7999714D01*
X4955857Y-7999714D02*
X4965381Y-7961619D01*
X4965381Y-7961619D02*
X4974905Y-7942571D01*
X4974905Y-7942571D02*
X4984429Y-7933048D01*
X4984429Y-7933048D02*
X5003476Y-7923524D01*
X5155857Y-8104476D02*
X5165381Y-8114000D01*
X5165381Y-8114000D02*
X5155857Y-8123524D01*
X5155857Y-8123524D02*
X5146334Y-8114000D01*
X5146334Y-8114000D02*
X5155857Y-8104476D01*
X5155857Y-8104476D02*
X5155857Y-8123524D01*
X5289191Y-7923524D02*
X5308238Y-7923524D01*
X5308238Y-7923524D02*
X5327286Y-7933048D01*
X5327286Y-7933048D02*
X5336810Y-7942571D01*
X5336810Y-7942571D02*
X5346334Y-7961619D01*
X5346334Y-7961619D02*
X5355857Y-7999714D01*
X5355857Y-7999714D02*
X5355857Y-8047333D01*
X5355857Y-8047333D02*
X5346334Y-8085428D01*
X5346334Y-8085428D02*
X5336810Y-8104476D01*
X5336810Y-8104476D02*
X5327286Y-8114000D01*
X5327286Y-8114000D02*
X5308238Y-8123524D01*
X5308238Y-8123524D02*
X5289191Y-8123524D01*
X5289191Y-8123524D02*
X5270143Y-8114000D01*
X5270143Y-8114000D02*
X5260619Y-8104476D01*
X5260619Y-8104476D02*
X5251095Y-8085428D01*
X5251095Y-8085428D02*
X5241572Y-8047333D01*
X5241572Y-8047333D02*
X5241572Y-7999714D01*
X5241572Y-7999714D02*
X5251095Y-7961619D01*
X5251095Y-7961619D02*
X5260619Y-7942571D01*
X5260619Y-7942571D02*
X5270143Y-7933048D01*
X5270143Y-7933048D02*
X5289191Y-7923524D01*
X5422524Y-7923524D02*
X5546334Y-7923524D01*
X5546334Y-7923524D02*
X5479667Y-7999714D01*
X5479667Y-7999714D02*
X5508238Y-7999714D01*
X5508238Y-7999714D02*
X5527286Y-8009238D01*
X5527286Y-8009238D02*
X5536810Y-8018762D01*
X5536810Y-8018762D02*
X5546334Y-8037809D01*
X5546334Y-8037809D02*
X5546334Y-8085428D01*
X5546334Y-8085428D02*
X5536810Y-8104476D01*
X5536810Y-8104476D02*
X5527286Y-8114000D01*
X5527286Y-8114000D02*
X5508238Y-8123524D01*
X5508238Y-8123524D02*
X5451095Y-8123524D01*
X5451095Y-8123524D02*
X5432048Y-8114000D01*
X5432048Y-8114000D02*
X5422524Y-8104476D01*
X5736810Y-8123524D02*
X5622524Y-8123524D01*
X5679667Y-8123524D02*
X5679667Y-7923524D01*
X5679667Y-7923524D02*
X5660619Y-7952095D01*
X5660619Y-7952095D02*
X5641572Y-7971143D01*
X5641572Y-7971143D02*
X5622524Y-7980667D01*
X5860619Y-7923524D02*
X5879667Y-7923524D01*
X5879667Y-7923524D02*
X5898714Y-7933048D01*
X5898714Y-7933048D02*
X5908238Y-7942571D01*
X5908238Y-7942571D02*
X5917762Y-7961619D01*
X5917762Y-7961619D02*
X5927286Y-7999714D01*
X5927286Y-7999714D02*
X5927286Y-8047333D01*
X5927286Y-8047333D02*
X5917762Y-8085428D01*
X5917762Y-8085428D02*
X5908238Y-8104476D01*
X5908238Y-8104476D02*
X5898714Y-8114000D01*
X5898714Y-8114000D02*
X5879667Y-8123524D01*
X5879667Y-8123524D02*
X5860619Y-8123524D01*
X5860619Y-8123524D02*
X5841572Y-8114000D01*
X5841572Y-8114000D02*
X5832048Y-8104476D01*
X5832048Y-8104476D02*
X5822524Y-8085428D01*
X5822524Y-8085428D02*
X5813000Y-8047333D01*
X5813000Y-8047333D02*
X5813000Y-7999714D01*
X5813000Y-7999714D02*
X5822524Y-7961619D01*
X5822524Y-7961619D02*
X5832048Y-7942571D01*
X5832048Y-7942571D02*
X5841572Y-7933048D01*
X5841572Y-7933048D02*
X5860619Y-7923524D01*
X6003476Y-7923524D02*
X6003476Y-7961619D01*
X6079667Y-7923524D02*
X6079667Y-7961619D01*
X6374905Y-8199714D02*
X6365381Y-8190190D01*
X6365381Y-8190190D02*
X6346334Y-8161619D01*
X6346334Y-8161619D02*
X6336810Y-8142571D01*
X6336810Y-8142571D02*
X6327286Y-8114000D01*
X6327286Y-8114000D02*
X6317762Y-8066381D01*
X6317762Y-8066381D02*
X6317762Y-8028286D01*
X6317762Y-8028286D02*
X6327286Y-7980667D01*
X6327286Y-7980667D02*
X6336810Y-7952095D01*
X6336810Y-7952095D02*
X6346334Y-7933048D01*
X6346334Y-7933048D02*
X6365381Y-7904476D01*
X6365381Y-7904476D02*
X6374905Y-7894952D01*
X6432048Y-7923524D02*
X6555857Y-7923524D01*
X6555857Y-7923524D02*
X6489191Y-7999714D01*
X6489191Y-7999714D02*
X6517762Y-7999714D01*
X6517762Y-7999714D02*
X6536810Y-8009238D01*
X6536810Y-8009238D02*
X6546334Y-8018762D01*
X6546334Y-8018762D02*
X6555857Y-8037809D01*
X6555857Y-8037809D02*
X6555857Y-8085428D01*
X6555857Y-8085428D02*
X6546334Y-8104476D01*
X6546334Y-8104476D02*
X6536810Y-8114000D01*
X6536810Y-8114000D02*
X6517762Y-8123524D01*
X6517762Y-8123524D02*
X6460619Y-8123524D01*
X6460619Y-8123524D02*
X6441572Y-8114000D01*
X6441572Y-8114000D02*
X6432048Y-8104476D01*
X6632048Y-7942571D02*
X6641572Y-7933048D01*
X6641572Y-7933048D02*
X6660619Y-7923524D01*
X6660619Y-7923524D02*
X6708238Y-7923524D01*
X6708238Y-7923524D02*
X6727286Y-7933048D01*
X6727286Y-7933048D02*
X6736810Y-7942571D01*
X6736810Y-7942571D02*
X6746334Y-7961619D01*
X6746334Y-7961619D02*
X6746334Y-7980667D01*
X6746334Y-7980667D02*
X6736810Y-8009238D01*
X6736810Y-8009238D02*
X6622524Y-8123524D01*
X6622524Y-8123524D02*
X6746334Y-8123524D01*
X6984429Y-8123524D02*
X6984429Y-7923524D01*
X7070143Y-8123524D02*
X7070143Y-8018762D01*
X7070143Y-8018762D02*
X7060619Y-7999714D01*
X7060619Y-7999714D02*
X7041572Y-7990190D01*
X7041572Y-7990190D02*
X7013000Y-7990190D01*
X7013000Y-7990190D02*
X6993953Y-7999714D01*
X6993953Y-7999714D02*
X6984429Y-8009238D01*
X7193953Y-8123524D02*
X7174905Y-8114000D01*
X7174905Y-8114000D02*
X7165381Y-8104476D01*
X7165381Y-8104476D02*
X7155857Y-8085428D01*
X7155857Y-8085428D02*
X7155857Y-8028286D01*
X7155857Y-8028286D02*
X7165381Y-8009238D01*
X7165381Y-8009238D02*
X7174905Y-7999714D01*
X7174905Y-7999714D02*
X7193953Y-7990190D01*
X7193953Y-7990190D02*
X7222524Y-7990190D01*
X7222524Y-7990190D02*
X7241572Y-7999714D01*
X7241572Y-7999714D02*
X7251096Y-8009238D01*
X7251096Y-8009238D02*
X7260619Y-8028286D01*
X7260619Y-8028286D02*
X7260619Y-8085428D01*
X7260619Y-8085428D02*
X7251096Y-8104476D01*
X7251096Y-8104476D02*
X7241572Y-8114000D01*
X7241572Y-8114000D02*
X7222524Y-8123524D01*
X7222524Y-8123524D02*
X7193953Y-8123524D01*
X7374905Y-8123524D02*
X7355857Y-8114000D01*
X7355857Y-8114000D02*
X7346334Y-8094952D01*
X7346334Y-8094952D02*
X7346334Y-7923524D01*
X7527286Y-8114000D02*
X7508238Y-8123524D01*
X7508238Y-8123524D02*
X7470143Y-8123524D01*
X7470143Y-8123524D02*
X7451096Y-8114000D01*
X7451096Y-8114000D02*
X7441572Y-8094952D01*
X7441572Y-8094952D02*
X7441572Y-8018762D01*
X7441572Y-8018762D02*
X7451096Y-7999714D01*
X7451096Y-7999714D02*
X7470143Y-7990190D01*
X7470143Y-7990190D02*
X7508238Y-7990190D01*
X7508238Y-7990190D02*
X7527286Y-7999714D01*
X7527286Y-7999714D02*
X7536810Y-8018762D01*
X7536810Y-8018762D02*
X7536810Y-8037809D01*
X7536810Y-8037809D02*
X7441572Y-8056857D01*
X7613000Y-8114000D02*
X7632048Y-8123524D01*
X7632048Y-8123524D02*
X7670143Y-8123524D01*
X7670143Y-8123524D02*
X7689191Y-8114000D01*
X7689191Y-8114000D02*
X7698715Y-8094952D01*
X7698715Y-8094952D02*
X7698715Y-8085428D01*
X7698715Y-8085428D02*
X7689191Y-8066381D01*
X7689191Y-8066381D02*
X7670143Y-8056857D01*
X7670143Y-8056857D02*
X7641572Y-8056857D01*
X7641572Y-8056857D02*
X7622524Y-8047333D01*
X7622524Y-8047333D02*
X7613000Y-8028286D01*
X7613000Y-8028286D02*
X7613000Y-8018762D01*
X7613000Y-8018762D02*
X7622524Y-7999714D01*
X7622524Y-7999714D02*
X7641572Y-7990190D01*
X7641572Y-7990190D02*
X7670143Y-7990190D01*
X7670143Y-7990190D02*
X7689191Y-7999714D01*
X7765381Y-8199714D02*
X7774905Y-8190190D01*
X7774905Y-8190190D02*
X7793953Y-8161619D01*
X7793953Y-8161619D02*
X7803477Y-8142571D01*
X7803477Y-8142571D02*
X7813000Y-8114000D01*
X7813000Y-8114000D02*
X7822524Y-8066381D01*
X7822524Y-8066381D02*
X7822524Y-8028286D01*
X7822524Y-8028286D02*
X7813000Y-7980667D01*
X7813000Y-7980667D02*
X7803477Y-7952095D01*
X7803477Y-7952095D02*
X7793953Y-7933048D01*
X7793953Y-7933048D02*
X7774905Y-7904476D01*
X7774905Y-7904476D02*
X7765381Y-7894952D01*
M02*
