%TF.GenerationSoftware,KiCad,Pcbnew,7.0.2*%
%TF.CreationDate,2023-07-30T21:57:21-04:00*%
%TF.ProjectId,OBC-Flight,4f42432d-466c-4696-9768-742e6b696361,rev?*%
%TF.SameCoordinates,Original*%
%TF.FileFunction,Soldermask,Bot*%
%TF.FilePolarity,Negative*%
%FSLAX46Y46*%
G04 Gerber Fmt 4.6, Leading zero omitted, Abs format (unit mm)*
G04 Created by KiCad (PCBNEW 7.0.2) date 2023-07-30 21:57:21*
%MOMM*%
%LPD*%
G01*
G04 APERTURE LIST*
G04 Aperture macros list*
%AMRoundRect*
0 Rectangle with rounded corners*
0 $1 Rounding radius*
0 $2 $3 $4 $5 $6 $7 $8 $9 X,Y pos of 4 corners*
0 Add a 4 corners polygon primitive as box body*
4,1,4,$2,$3,$4,$5,$6,$7,$8,$9,$2,$3,0*
0 Add four circle primitives for the rounded corners*
1,1,$1+$1,$2,$3*
1,1,$1+$1,$4,$5*
1,1,$1+$1,$6,$7*
1,1,$1+$1,$8,$9*
0 Add four rect primitives between the rounded corners*
20,1,$1+$1,$2,$3,$4,$5,0*
20,1,$1+$1,$4,$5,$6,$7,0*
20,1,$1+$1,$6,$7,$8,$9,0*
20,1,$1+$1,$8,$9,$2,$3,0*%
G04 Aperture macros list end*
%ADD10R,1.000000X1.000000*%
%ADD11O,1.000000X1.000000*%
%ADD12C,0.650000*%
%ADD13O,1.000000X2.100000*%
%ADD14O,1.000000X1.800000*%
%ADD15RoundRect,0.135000X-0.185000X0.135000X-0.185000X-0.135000X0.185000X-0.135000X0.185000X0.135000X0*%
%ADD16C,0.370000*%
%ADD17RoundRect,0.140000X-0.170000X0.140000X-0.170000X-0.140000X0.170000X-0.140000X0.170000X0.140000X0*%
%ADD18RoundRect,0.135000X-0.135000X-0.185000X0.135000X-0.185000X0.135000X0.185000X-0.135000X0.185000X0*%
%ADD19RoundRect,0.135000X0.135000X0.185000X-0.135000X0.185000X-0.135000X-0.185000X0.135000X-0.185000X0*%
%ADD20RoundRect,0.140000X0.170000X-0.140000X0.170000X0.140000X-0.170000X0.140000X-0.170000X-0.140000X0*%
%ADD21R,0.450000X0.950000*%
%ADD22R,4.350000X3.450000*%
%ADD23RoundRect,0.140000X-0.140000X-0.170000X0.140000X-0.170000X0.140000X0.170000X-0.140000X0.170000X0*%
%ADD24C,0.204000*%
%ADD25RoundRect,0.225000X-0.250000X0.225000X-0.250000X-0.225000X0.250000X-0.225000X0.250000X0.225000X0*%
%ADD26RoundRect,0.218750X0.256250X-0.218750X0.256250X0.218750X-0.256250X0.218750X-0.256250X-0.218750X0*%
%ADD27RoundRect,0.135000X0.185000X-0.135000X0.185000X0.135000X-0.185000X0.135000X-0.185000X-0.135000X0*%
%ADD28R,1.087400X1.087400*%
%ADD29C,1.087400*%
%ADD30R,0.930000X0.230000*%
%ADD31R,0.750000X0.200000*%
%ADD32R,0.200000X0.750000*%
%ADD33R,1.590000X1.750000*%
%ADD34R,0.600000X0.350000*%
%ADD35R,1.100000X1.700000*%
%ADD36RoundRect,0.140000X0.140000X0.170000X-0.140000X0.170000X-0.140000X-0.170000X0.140000X-0.170000X0*%
%ADD37R,0.350000X0.600000*%
%ADD38R,1.700000X1.100000*%
%ADD39R,1.500000X1.000000*%
%ADD40R,1.475000X0.450000*%
G04 APERTURE END LIST*
D10*
X50060000Y-61400000D03*
D11*
X50060000Y-60130000D03*
X51330000Y-61400000D03*
X51330000Y-60130000D03*
X52600000Y-61400000D03*
X52600000Y-60130000D03*
X53870000Y-61400000D03*
X53870000Y-60130000D03*
X55140000Y-61400000D03*
X55140000Y-60130000D03*
X56410000Y-61400000D03*
X56410000Y-60130000D03*
X57680000Y-61400000D03*
X57680000Y-60130000D03*
D10*
X31050000Y-55200000D03*
D11*
X29780000Y-55200000D03*
X31050000Y-53930000D03*
X29780000Y-53930000D03*
X31050000Y-52660000D03*
X29780000Y-52660000D03*
X31050000Y-51390000D03*
X29780000Y-51390000D03*
X31050000Y-50120000D03*
X29780000Y-50120000D03*
X31050000Y-48850000D03*
X29780000Y-48850000D03*
X31050000Y-47580000D03*
X29780000Y-47580000D03*
X31050000Y-46310000D03*
X29780000Y-46310000D03*
D12*
X39990000Y-57285000D03*
X45770000Y-57285000D03*
D13*
X38560000Y-56785000D03*
D14*
X38560000Y-60965000D03*
D13*
X47200000Y-56785000D03*
D14*
X47200000Y-60965000D03*
D10*
X65310000Y-48850000D03*
D11*
X66580000Y-48850000D03*
X65310000Y-50120000D03*
X66580000Y-50120000D03*
X65310000Y-51390000D03*
X66580000Y-51390000D03*
X65310000Y-52660000D03*
X66580000Y-52660000D03*
X65310000Y-53930000D03*
X66580000Y-53930000D03*
X65310000Y-55200000D03*
X66580000Y-55200000D03*
D15*
X44700000Y-38690000D03*
X44700000Y-39710000D03*
D16*
X41080000Y-39800000D03*
X41080000Y-38800000D03*
X41080000Y-37800000D03*
X41080000Y-36800000D03*
X40080000Y-40800000D03*
X40080000Y-39800000D03*
X40080000Y-38800000D03*
X40080000Y-37800000D03*
X40080000Y-36800000D03*
X39080000Y-40800000D03*
X39080000Y-39800000D03*
X39080000Y-38800000D03*
X39080000Y-37800000D03*
X39080000Y-36800000D03*
X38080000Y-40800000D03*
X38080000Y-39800000D03*
X38080000Y-38800000D03*
X38080000Y-37800000D03*
X38080000Y-36800000D03*
X37080000Y-40800000D03*
X37080000Y-39800000D03*
X37080000Y-38800000D03*
X37080000Y-37800000D03*
X37080000Y-36800000D03*
D17*
X45480000Y-43340000D03*
X45480000Y-44300000D03*
D18*
X52390000Y-31200000D03*
X53410000Y-31200000D03*
D15*
X44850000Y-53190000D03*
X44850000Y-54210000D03*
D19*
X64810000Y-42300000D03*
X63790000Y-42300000D03*
D18*
X52390000Y-32300000D03*
X53410000Y-32300000D03*
D20*
X36830000Y-52420000D03*
X36830000Y-51460000D03*
D21*
X46475000Y-25000000D03*
X47745000Y-25000000D03*
X49015000Y-25000000D03*
X50285000Y-25000000D03*
X50285000Y-32800000D03*
X49015000Y-32800000D03*
X47745000Y-32800000D03*
X46475000Y-32800000D03*
D22*
X48380000Y-28900000D03*
D18*
X41970000Y-49720000D03*
X42990000Y-49720000D03*
D21*
X39470000Y-25000000D03*
X40740000Y-25000000D03*
X42010000Y-25000000D03*
X43280000Y-25000000D03*
X43280000Y-32800000D03*
X42010000Y-32800000D03*
X40740000Y-32800000D03*
X39470000Y-32800000D03*
D22*
X41375000Y-28900000D03*
D18*
X52380000Y-34500000D03*
X53400000Y-34500000D03*
X47500000Y-40100000D03*
X48520000Y-40100000D03*
D23*
X46500000Y-34200000D03*
X47460000Y-34200000D03*
D24*
X56930000Y-26050000D03*
X57280000Y-26050000D03*
X56930000Y-25700000D03*
X57280000Y-25700000D03*
X56930000Y-25350000D03*
X57280000Y-25350000D03*
X56930000Y-25000000D03*
X57280000Y-25000000D03*
D25*
X56180000Y-27600000D03*
X56180000Y-29150000D03*
D20*
X48980000Y-46960000D03*
X48980000Y-46000000D03*
D26*
X55400000Y-25975000D03*
X55400000Y-24400000D03*
D27*
X52300000Y-28010000D03*
X52300000Y-26990000D03*
D18*
X42970000Y-50820000D03*
X43990000Y-50820000D03*
D28*
X29660000Y-31755000D03*
D29*
X32200000Y-31755000D03*
X29660000Y-33025000D03*
X32200000Y-33025000D03*
X29660000Y-34295000D03*
X32200000Y-34295000D03*
X29660000Y-35565000D03*
X32200000Y-35565000D03*
X29660000Y-36835000D03*
X32200000Y-36835000D03*
X29660000Y-38105000D03*
X32200000Y-38105000D03*
X29660000Y-39375000D03*
X32200000Y-39375000D03*
X29660000Y-40645000D03*
X32200000Y-40645000D03*
D17*
X47880000Y-46000000D03*
X47880000Y-46960000D03*
D30*
X57080000Y-48700000D03*
X61750000Y-48700000D03*
X57080000Y-48300000D03*
X61750000Y-48300000D03*
X57080000Y-47900000D03*
X61750000Y-47900000D03*
X57080000Y-47500000D03*
X61750000Y-47500000D03*
X57080000Y-47100000D03*
X61750000Y-47100000D03*
X57080000Y-46700000D03*
X61750000Y-46700000D03*
X57080000Y-46300000D03*
X61750000Y-46300000D03*
X57080000Y-45900000D03*
X61750000Y-45900000D03*
X57080000Y-45500000D03*
X61750000Y-45500000D03*
X57080000Y-45100000D03*
X61750000Y-45100000D03*
X57080000Y-44700000D03*
X61750000Y-44700000D03*
X57080000Y-44300000D03*
X61750000Y-44300000D03*
X57080000Y-43900000D03*
X61750000Y-43900000D03*
X57080000Y-43500000D03*
X61750000Y-43500000D03*
X57080000Y-43100000D03*
X61750000Y-43100000D03*
X57080000Y-42700000D03*
X61750000Y-42700000D03*
X57080000Y-42300000D03*
X61750000Y-42300000D03*
X57080000Y-41900000D03*
X61750000Y-41900000D03*
X57080000Y-41500000D03*
X61750000Y-41500000D03*
X57080000Y-41100000D03*
X61750000Y-41100000D03*
D18*
X37860000Y-49720000D03*
X38880000Y-49720000D03*
D31*
X49680000Y-42300000D03*
X49680000Y-42700000D03*
X49680000Y-43100000D03*
X49680000Y-43500000D03*
X49680000Y-43900000D03*
X49680000Y-44300000D03*
D32*
X49180000Y-44800000D03*
X48780000Y-44800000D03*
X48380000Y-44800000D03*
X47980000Y-44800000D03*
X47580000Y-44800000D03*
X47180000Y-44800000D03*
D31*
X46680000Y-44300000D03*
X46680000Y-43900000D03*
X46680000Y-43500000D03*
X46680000Y-43100000D03*
X46680000Y-42700000D03*
X46680000Y-42300000D03*
D32*
X47180000Y-41800000D03*
X47580000Y-41800000D03*
X47980000Y-41800000D03*
X48380000Y-41800000D03*
X48780000Y-41800000D03*
X49180000Y-41800000D03*
D33*
X48180000Y-43300000D03*
D20*
X44700000Y-37730000D03*
X44700000Y-36770000D03*
D17*
X46500000Y-39640000D03*
X46500000Y-40600000D03*
X58500000Y-24100000D03*
X58500000Y-25060000D03*
D18*
X38870000Y-50820000D03*
X39890000Y-50820000D03*
D34*
X50200000Y-37500000D03*
X50200000Y-38150000D03*
X50200000Y-38800000D03*
X48100000Y-38800000D03*
X48100000Y-38150000D03*
X48100000Y-37500000D03*
D35*
X49150000Y-38150000D03*
D17*
X34080000Y-37900000D03*
X34080000Y-38860000D03*
D36*
X39480000Y-34300000D03*
X38520000Y-34300000D03*
D37*
X38330000Y-52120000D03*
X38980000Y-52120000D03*
X39630000Y-52120000D03*
X39630000Y-54220000D03*
X38980000Y-54220000D03*
X38330000Y-54220000D03*
D38*
X38980000Y-53170000D03*
D15*
X50300000Y-34490000D03*
X50300000Y-35510000D03*
D17*
X40980000Y-53140000D03*
X40980000Y-54100000D03*
D19*
X64810000Y-43400000D03*
X63790000Y-43400000D03*
D17*
X40980000Y-51040000D03*
X40980000Y-52000000D03*
D18*
X52380000Y-33400000D03*
X53400000Y-33400000D03*
D27*
X50900000Y-42010000D03*
X50900000Y-40990000D03*
D17*
X36830000Y-53360000D03*
X36830000Y-54320000D03*
D37*
X42280000Y-52020000D03*
X42930000Y-52020000D03*
X43580000Y-52020000D03*
X43580000Y-54120000D03*
X42930000Y-54120000D03*
X42280000Y-54120000D03*
D38*
X42930000Y-53070000D03*
D20*
X34100000Y-36900000D03*
X34100000Y-35940000D03*
D15*
X51400000Y-34490000D03*
X51400000Y-35510000D03*
D28*
X66700000Y-40650000D03*
D29*
X64160000Y-40650000D03*
X66700000Y-39380000D03*
X64160000Y-39380000D03*
X66700000Y-38110000D03*
X64160000Y-38110000D03*
X66700000Y-36840000D03*
X64160000Y-36840000D03*
X66700000Y-35570000D03*
X64160000Y-35570000D03*
X66700000Y-34300000D03*
X64160000Y-34300000D03*
X66700000Y-33030000D03*
X64160000Y-33030000D03*
X66700000Y-31760000D03*
X64160000Y-31760000D03*
D39*
X58280000Y-28150000D03*
X58280000Y-29450000D03*
D40*
X55624000Y-36550000D03*
X55624000Y-35900000D03*
X55624000Y-35250000D03*
X55624000Y-34600000D03*
X55624000Y-33950000D03*
X55624000Y-33300000D03*
X55624000Y-32650000D03*
X55624000Y-32000000D03*
X61500000Y-32000000D03*
X61500000Y-32650000D03*
X61500000Y-33300000D03*
X61500000Y-33950000D03*
X61500000Y-34600000D03*
X61500000Y-35250000D03*
X61500000Y-35900000D03*
X61500000Y-36550000D03*
M02*
