%TF.GenerationSoftware,KiCad,Pcbnew,7.0.2*%
%TF.CreationDate,2023-07-30T21:57:21-04:00*%
%TF.ProjectId,OBC-Flight,4f42432d-466c-4696-9768-742e6b696361,rev?*%
%TF.SameCoordinates,Original*%
%TF.FileFunction,Copper,L2,Inr*%
%TF.FilePolarity,Positive*%
%FSLAX46Y46*%
G04 Gerber Fmt 4.6, Leading zero omitted, Abs format (unit mm)*
G04 Created by KiCad (PCBNEW 7.0.2) date 2023-07-30 21:57:21*
%MOMM*%
%LPD*%
G01*
G04 APERTURE LIST*
%TA.AperFunction,ComponentPad*%
%ADD10R,1.000000X1.000000*%
%TD*%
%TA.AperFunction,ComponentPad*%
%ADD11O,1.000000X1.000000*%
%TD*%
%TA.AperFunction,ComponentPad*%
%ADD12O,1.000000X2.100000*%
%TD*%
%TA.AperFunction,ComponentPad*%
%ADD13O,1.000000X1.800000*%
%TD*%
%TA.AperFunction,ComponentPad*%
%ADD14R,1.087400X1.087400*%
%TD*%
%TA.AperFunction,ComponentPad*%
%ADD15C,1.087400*%
%TD*%
%TA.AperFunction,ViaPad*%
%ADD16C,0.450000*%
%TD*%
%TA.AperFunction,ViaPad*%
%ADD17C,0.550000*%
%TD*%
%TA.AperFunction,Conductor*%
%ADD18C,0.150000*%
%TD*%
G04 APERTURE END LIST*
D10*
X50060000Y-61400000D03*
D11*
X50060000Y-60130000D03*
X51330000Y-61400000D03*
X51330000Y-60130000D03*
X52600000Y-61400000D03*
X52600000Y-60130000D03*
X53870000Y-61400000D03*
X53870000Y-60130000D03*
X55140000Y-61400000D03*
X55140000Y-60130000D03*
X56410000Y-61400000D03*
X56410000Y-60130000D03*
X57680000Y-61400000D03*
X57680000Y-60130000D03*
D10*
X31050000Y-55200000D03*
D11*
X29780000Y-55200000D03*
X31050000Y-53930000D03*
X29780000Y-53930000D03*
X31050000Y-52660000D03*
X29780000Y-52660000D03*
X31050000Y-51390000D03*
X29780000Y-51390000D03*
X31050000Y-50120000D03*
X29780000Y-50120000D03*
X31050000Y-48850000D03*
X29780000Y-48850000D03*
X31050000Y-47580000D03*
X29780000Y-47580000D03*
X31050000Y-46310000D03*
X29780000Y-46310000D03*
D12*
X38560000Y-56785000D03*
D13*
X38560000Y-60965000D03*
D12*
X47200000Y-56785000D03*
D13*
X47200000Y-60965000D03*
D10*
X65310000Y-48850000D03*
D11*
X66580000Y-48850000D03*
X65310000Y-50120000D03*
X66580000Y-50120000D03*
X65310000Y-51390000D03*
X66580000Y-51390000D03*
X65310000Y-52660000D03*
X66580000Y-52660000D03*
X65310000Y-53930000D03*
X66580000Y-53930000D03*
X65310000Y-55200000D03*
X66580000Y-55200000D03*
D14*
X29660000Y-31755000D03*
D15*
X32200000Y-31755000D03*
X29660000Y-33025000D03*
X32200000Y-33025000D03*
X29660000Y-34295000D03*
X32200000Y-34295000D03*
X29660000Y-35565000D03*
X32200000Y-35565000D03*
X29660000Y-36835000D03*
X32200000Y-36835000D03*
X29660000Y-38105000D03*
X32200000Y-38105000D03*
X29660000Y-39375000D03*
X32200000Y-39375000D03*
X29660000Y-40645000D03*
X32200000Y-40645000D03*
D14*
X66700000Y-40650000D03*
D15*
X64160000Y-40650000D03*
X66700000Y-39380000D03*
X64160000Y-39380000D03*
X66700000Y-38110000D03*
X64160000Y-38110000D03*
X66700000Y-36840000D03*
X64160000Y-36840000D03*
X66700000Y-35570000D03*
X64160000Y-35570000D03*
X66700000Y-34300000D03*
X64160000Y-34300000D03*
X66700000Y-33030000D03*
X64160000Y-33030000D03*
X66700000Y-31760000D03*
X64160000Y-31760000D03*
D16*
X32850000Y-62300000D03*
X63200000Y-56000000D03*
X44300000Y-44900000D03*
X60500000Y-29300000D03*
X29000000Y-58900000D03*
X57300000Y-38100000D03*
X45500000Y-32400000D03*
X42100000Y-36200000D03*
X43200000Y-46400000D03*
X45400000Y-34800000D03*
X59300000Y-24100000D03*
X52800000Y-49288296D03*
X46100000Y-46800000D03*
X33000000Y-38800000D03*
X48500000Y-46700000D03*
X59000000Y-58200000D03*
X44200000Y-33700000D03*
X43600000Y-53400000D03*
X40500000Y-31400000D03*
X41600000Y-27500000D03*
X67100000Y-29400000D03*
X61700000Y-30300000D03*
X56300000Y-39100000D03*
X43100000Y-30600000D03*
X61900000Y-39600000D03*
X53000000Y-44400000D03*
X49700000Y-53800000D03*
X38400000Y-53400000D03*
X47500000Y-27700000D03*
X66700000Y-43600000D03*
X34700000Y-33200000D03*
X40000000Y-38400000D03*
X62600000Y-31400000D03*
X60900000Y-45100000D03*
X60000000Y-51600000D03*
X30300000Y-29100000D03*
X62600000Y-33800000D03*
X64500000Y-28900000D03*
X66300000Y-61400000D03*
X53100000Y-25500000D03*
X30000000Y-43500000D03*
X38000000Y-24100000D03*
X34300000Y-24000000D03*
X43829004Y-36314542D03*
X47400000Y-51800000D03*
X49400000Y-37600000D03*
X43300000Y-27700000D03*
X49200000Y-27900000D03*
X60900000Y-45800000D03*
X66600000Y-24800000D03*
X54400000Y-38400000D03*
X62800000Y-47500000D03*
X32200000Y-46700000D03*
X35800000Y-53400000D03*
X60800000Y-43200000D03*
X56300000Y-55100000D03*
X53800000Y-37900000D03*
X51300000Y-32700000D03*
X46400000Y-27300000D03*
X51300000Y-24000000D03*
X38400000Y-31500000D03*
X57900000Y-55100000D03*
X48900000Y-38700000D03*
X52000000Y-57400000D03*
X56500000Y-23900000D03*
X30600000Y-60000000D03*
X44200000Y-24300000D03*
X63200000Y-24200000D03*
X36900000Y-28600000D03*
X49800000Y-26100000D03*
X39400000Y-31400000D03*
D17*
X60773281Y-41999500D03*
D16*
X57323599Y-31308815D03*
X49600000Y-45500000D03*
X54500000Y-37000000D03*
D17*
X57250000Y-51500000D03*
D16*
X64600000Y-44900000D03*
X39600000Y-26700000D03*
X61891509Y-37198713D03*
X64200000Y-61900000D03*
X56549500Y-26549500D03*
X44000000Y-38400000D03*
X35237470Y-38347352D03*
X59100000Y-25200000D03*
D17*
X44429490Y-48771580D03*
D16*
X54100000Y-27800000D03*
X34800000Y-43400000D03*
X34808162Y-31791838D03*
X45500000Y-45200000D03*
X48300000Y-40949500D03*
D17*
X37299500Y-51200500D03*
D16*
X51900000Y-31200000D03*
X45600000Y-33900000D03*
X51700000Y-33800000D03*
X35344011Y-47768191D03*
X55100000Y-51691480D03*
X64000000Y-24900000D03*
X33200000Y-40600000D03*
X49900000Y-36400000D03*
X62700000Y-35400000D03*
X33233898Y-41333898D03*
X62612002Y-36500000D03*
X49342741Y-36892241D03*
X44100000Y-32400000D03*
X51600000Y-30500000D03*
X50600000Y-26400000D03*
X42200000Y-26500000D03*
X42400000Y-25900000D03*
X51100000Y-27600000D03*
X41200000Y-32000000D03*
X51000000Y-30200000D03*
X48500000Y-32400000D03*
X40400000Y-35500000D03*
X39400000Y-36100000D03*
X38307560Y-35234499D03*
X47209444Y-37754159D03*
X46442539Y-38551000D03*
X41110500Y-26500000D03*
X44300000Y-27700000D03*
X34454026Y-55059512D03*
X53700815Y-56648908D03*
X39662055Y-42563569D03*
X40151000Y-36173397D03*
X40400000Y-34800000D03*
X39212555Y-43046830D03*
X40111555Y-42047245D03*
X60104582Y-34759728D03*
X53690164Y-56049500D03*
X54400000Y-47800000D03*
X47100000Y-45700000D03*
X41900000Y-38750000D03*
X42279339Y-39350500D03*
X54977607Y-49276416D03*
X56570951Y-49288296D03*
X57200000Y-49249500D03*
X48500000Y-26700000D03*
X59621574Y-39346431D03*
X62785430Y-37452290D03*
X59250500Y-59147405D03*
X59550999Y-33500000D03*
X57022662Y-26917632D03*
X49679009Y-39929726D03*
X50579331Y-39950500D03*
X57700000Y-26800000D03*
X59646689Y-34372769D03*
X34700000Y-42500000D03*
X33200000Y-39800000D03*
X60600000Y-30300000D03*
X58000000Y-26100000D03*
X56032508Y-30032508D03*
X54700000Y-31200000D03*
X54367492Y-47167492D03*
X55603268Y-47203268D03*
X55100000Y-30700000D03*
X56100000Y-47700000D03*
X54600000Y-30200000D03*
X36300000Y-30300000D03*
X47749500Y-36277378D03*
X35681669Y-51373259D03*
X35751661Y-51968662D03*
X47500000Y-37000000D03*
X43700000Y-36900000D03*
X33095500Y-37800000D03*
X38600000Y-27100000D03*
X38297339Y-29843612D03*
X38300000Y-27800000D03*
X63700000Y-29800000D03*
X35539017Y-54150433D03*
X34649001Y-41800000D03*
X41950999Y-43182508D03*
X54500000Y-43700000D03*
X35932778Y-32549823D03*
X34800000Y-35600000D03*
X33100000Y-37100000D03*
X49600000Y-33600000D03*
X35700000Y-40400000D03*
X48500000Y-26000000D03*
X35700000Y-41000000D03*
X35523074Y-45049001D03*
X35508572Y-54755677D03*
X33749000Y-47650000D03*
X35176524Y-46302345D03*
X34430694Y-54160512D03*
X34045290Y-47128832D03*
X34148502Y-46482399D03*
X60600000Y-44600000D03*
X34669491Y-46779003D03*
X64200000Y-41901546D03*
X35107105Y-47217484D03*
X63749500Y-45817845D03*
X41409836Y-48049000D03*
X31354843Y-44870278D03*
X42100000Y-48000000D03*
X52350500Y-41000000D03*
X33700000Y-49800000D03*
X33600000Y-50500000D03*
X35651614Y-55337864D03*
X59000000Y-55600000D03*
X36152212Y-55649174D03*
X36595739Y-56052518D03*
X66600000Y-45400000D03*
X37076152Y-56411135D03*
X66351000Y-46200000D03*
X45200000Y-48200000D03*
X45900000Y-48200000D03*
X62700000Y-51700000D03*
X46500000Y-51900000D03*
X61100000Y-53300000D03*
X30590980Y-45036080D03*
X43000000Y-48049000D03*
X47300000Y-48100000D03*
X52349500Y-39048376D03*
X48200000Y-52000000D03*
X48500000Y-48900000D03*
X55817572Y-44012139D03*
X50600000Y-49251000D03*
X55600000Y-44600000D03*
X50572433Y-48318345D03*
X51194265Y-47964983D03*
X55043376Y-44822650D03*
X54500000Y-46100000D03*
X52100000Y-49251000D03*
X56300000Y-54000000D03*
X51900000Y-52000000D03*
X53100000Y-51600000D03*
D17*
X40450000Y-56000500D03*
X45728200Y-54621800D03*
D16*
X59700000Y-47500000D03*
X62800000Y-43700000D03*
X53800000Y-47600000D03*
X59751000Y-46700000D03*
X53822088Y-44535694D03*
X53800000Y-43936598D03*
X56200000Y-41000000D03*
X59900000Y-44700000D03*
X54965818Y-47205028D03*
X64651498Y-45575645D03*
X64251498Y-44310820D03*
X54400000Y-43000000D03*
X49109020Y-26263920D03*
X59618838Y-40559809D03*
X59528729Y-39938700D03*
X48600000Y-34000000D03*
X28983164Y-56698762D03*
X52300000Y-45300000D03*
X56900000Y-36700000D03*
X44000000Y-41000000D03*
X51700000Y-45300000D03*
X29582529Y-56673627D03*
X50900000Y-45300000D03*
X66900000Y-30300000D03*
X29900000Y-57800000D03*
X66900000Y-59300000D03*
X41514664Y-52550353D03*
X50900000Y-52000000D03*
X61800000Y-50100000D03*
X60300000Y-48600000D03*
X55732508Y-48232508D03*
X60393095Y-35742595D03*
X36149500Y-33500000D03*
X55789999Y-42245691D03*
X41950999Y-42200000D03*
X44700000Y-34300000D03*
X35200000Y-50900000D03*
X56883171Y-31715541D03*
X57400000Y-32200000D03*
X56800000Y-35900000D03*
X57416727Y-35705060D03*
X62800000Y-46000000D03*
X34880939Y-36219061D03*
X32200000Y-45900000D03*
D18*
X43700000Y-36900000D02*
X42800000Y-37800000D01*
X42800000Y-37800000D02*
X33095500Y-37800000D01*
%TA.AperFunction,Conductor*%
G36*
X67853066Y-23617813D02*
G01*
X67878376Y-23661650D01*
X67879500Y-23674500D01*
X67879500Y-62925500D01*
X67862187Y-62973066D01*
X67818350Y-62998376D01*
X67805500Y-62999500D01*
X28554500Y-62999500D01*
X28506934Y-62982187D01*
X28481624Y-62938350D01*
X28480500Y-62925500D01*
X28480500Y-59200000D01*
X31994564Y-59200000D01*
X31994722Y-59202410D01*
X32011165Y-59453297D01*
X32014287Y-59500920D01*
X32014757Y-59503285D01*
X32014758Y-59503289D01*
X32052986Y-59695470D01*
X32073120Y-59796691D01*
X32073894Y-59798973D01*
X32073896Y-59798978D01*
X32133031Y-59973183D01*
X32170055Y-60082252D01*
X32171124Y-60084420D01*
X32171125Y-60084422D01*
X32302362Y-60350546D01*
X32302368Y-60350556D01*
X32303434Y-60352718D01*
X32304778Y-60354730D01*
X32304779Y-60354731D01*
X32469632Y-60601452D01*
X32469636Y-60601458D01*
X32470975Y-60603461D01*
X32472562Y-60605271D01*
X32472567Y-60605277D01*
X32626235Y-60780500D01*
X32669811Y-60830189D01*
X32704624Y-60860719D01*
X32894722Y-61027432D01*
X32894726Y-61027435D01*
X32896539Y-61029025D01*
X32898543Y-61030364D01*
X32898547Y-61030367D01*
X33023812Y-61114066D01*
X33147282Y-61196566D01*
X33149448Y-61197634D01*
X33149453Y-61197637D01*
X33241810Y-61243182D01*
X33417748Y-61329945D01*
X33703309Y-61426880D01*
X33999080Y-61485713D01*
X34300000Y-61505436D01*
X34600920Y-61485713D01*
X34896691Y-61426880D01*
X35182252Y-61329945D01*
X35452718Y-61196566D01*
X35703461Y-61029025D01*
X35930189Y-60830189D01*
X36129025Y-60603461D01*
X36296566Y-60352718D01*
X36406398Y-60130000D01*
X49404722Y-60130000D01*
X49423762Y-60286816D01*
X49479780Y-60434523D01*
X49569515Y-60564529D01*
X49632254Y-60620110D01*
X49656377Y-60664611D01*
X49646253Y-60714207D01*
X49606617Y-60745692D01*
X49583183Y-60749500D01*
X49545180Y-60749500D01*
X49501278Y-60758233D01*
X49451496Y-60791496D01*
X49418233Y-60841278D01*
X49409500Y-60885180D01*
X49409500Y-61914820D01*
X49418233Y-61958722D01*
X49451496Y-62008504D01*
X49501278Y-62041767D01*
X49545180Y-62050500D01*
X49545181Y-62050500D01*
X50574819Y-62050500D01*
X50574820Y-62050500D01*
X50618722Y-62041767D01*
X50668504Y-62008504D01*
X50701767Y-61958722D01*
X50710500Y-61914820D01*
X50710500Y-61884653D01*
X50727813Y-61837087D01*
X50771650Y-61811777D01*
X50821500Y-61820567D01*
X50833571Y-61829263D01*
X50842403Y-61837087D01*
X50957760Y-61939283D01*
X51097635Y-62012696D01*
X51251015Y-62050500D01*
X51251016Y-62050500D01*
X51408984Y-62050500D01*
X51408985Y-62050500D01*
X51562365Y-62012696D01*
X51702240Y-61939283D01*
X51820483Y-61834530D01*
X51910220Y-61704523D01*
X51966237Y-61556818D01*
X51985278Y-61400000D01*
X51966237Y-61243182D01*
X51910220Y-61095477D01*
X51836945Y-60989319D01*
X51820484Y-60965470D01*
X51702238Y-60860715D01*
X51644711Y-60830522D01*
X51610639Y-60793087D01*
X51608601Y-60742509D01*
X51639551Y-60702455D01*
X51644685Y-60699490D01*
X51702240Y-60669283D01*
X51820483Y-60564530D01*
X51904098Y-60443391D01*
X51945368Y-60414079D01*
X51995822Y-60418152D01*
X52025901Y-60443391D01*
X52109515Y-60564529D01*
X52193013Y-60638500D01*
X52227760Y-60669283D01*
X52367635Y-60742696D01*
X52521015Y-60780500D01*
X52521016Y-60780500D01*
X52678984Y-60780500D01*
X52678985Y-60780500D01*
X52832365Y-60742696D01*
X52972240Y-60669283D01*
X53090483Y-60564530D01*
X53174098Y-60443391D01*
X53215368Y-60414079D01*
X53265822Y-60418152D01*
X53295901Y-60443391D01*
X53379515Y-60564529D01*
X53463013Y-60638500D01*
X53497760Y-60669283D01*
X53637635Y-60742696D01*
X53791015Y-60780500D01*
X53791016Y-60780500D01*
X53948984Y-60780500D01*
X53948985Y-60780500D01*
X54102365Y-60742696D01*
X54242240Y-60669283D01*
X54360483Y-60564530D01*
X54444098Y-60443391D01*
X54485368Y-60414079D01*
X54535822Y-60418152D01*
X54565901Y-60443391D01*
X54649515Y-60564529D01*
X54733013Y-60638500D01*
X54767760Y-60669283D01*
X54907635Y-60742696D01*
X55061015Y-60780500D01*
X55061016Y-60780500D01*
X55218984Y-60780500D01*
X55218985Y-60780500D01*
X55372365Y-60742696D01*
X55512240Y-60669283D01*
X55630483Y-60564530D01*
X55714098Y-60443391D01*
X55755368Y-60414079D01*
X55805822Y-60418152D01*
X55835901Y-60443391D01*
X55919515Y-60564529D01*
X56003013Y-60638500D01*
X56037760Y-60669283D01*
X56177635Y-60742696D01*
X56331015Y-60780500D01*
X56331016Y-60780500D01*
X56488984Y-60780500D01*
X56488985Y-60780500D01*
X56642365Y-60742696D01*
X56782240Y-60669283D01*
X56900483Y-60564530D01*
X56984098Y-60443391D01*
X57025368Y-60414079D01*
X57075822Y-60418152D01*
X57105901Y-60443391D01*
X57189515Y-60564529D01*
X57273013Y-60638500D01*
X57307760Y-60669283D01*
X57365288Y-60699476D01*
X57399360Y-60736911D01*
X57401398Y-60787489D01*
X57370448Y-60827544D01*
X57365295Y-60830519D01*
X57315052Y-60856890D01*
X57307758Y-60860718D01*
X57189515Y-60965470D01*
X57099780Y-61095476D01*
X57043762Y-61243183D01*
X57024722Y-61400000D01*
X57043762Y-61556816D01*
X57099780Y-61704523D01*
X57189515Y-61834529D01*
X57263418Y-61900000D01*
X57307760Y-61939283D01*
X57447635Y-62012696D01*
X57601015Y-62050500D01*
X57601016Y-62050500D01*
X57758984Y-62050500D01*
X57758985Y-62050500D01*
X57912365Y-62012696D01*
X58052240Y-61939283D01*
X58096582Y-61900000D01*
X63819819Y-61900000D01*
X63838425Y-62017483D01*
X63892425Y-62123463D01*
X63976536Y-62207574D01*
X64082516Y-62261574D01*
X64110778Y-62266049D01*
X64200000Y-62280181D01*
X64301419Y-62264117D01*
X64317483Y-62261574D01*
X64423463Y-62207574D01*
X64423462Y-62207574D01*
X64423465Y-62207573D01*
X64507573Y-62123465D01*
X64509520Y-62119643D01*
X64561574Y-62017483D01*
X64564117Y-62001419D01*
X64580181Y-61900000D01*
X64561574Y-61782518D01*
X64561574Y-61782516D01*
X64507574Y-61676536D01*
X64423463Y-61592425D01*
X64317483Y-61538425D01*
X64200000Y-61519819D01*
X64082516Y-61538425D01*
X63976536Y-61592425D01*
X63892425Y-61676536D01*
X63838425Y-61782516D01*
X63819819Y-61900000D01*
X58096582Y-61900000D01*
X58170483Y-61834530D01*
X58260220Y-61704523D01*
X58316237Y-61556818D01*
X58335278Y-61400000D01*
X58316237Y-61243182D01*
X58260220Y-61095477D01*
X58186945Y-60989319D01*
X58170484Y-60965470D01*
X58052240Y-60860717D01*
X58044948Y-60856890D01*
X57994711Y-60830523D01*
X57960639Y-60793089D01*
X57958601Y-60742511D01*
X57989550Y-60702456D01*
X57994704Y-60699480D01*
X58052240Y-60669283D01*
X58170483Y-60564530D01*
X58260220Y-60434523D01*
X58316237Y-60286818D01*
X58335278Y-60130000D01*
X58316237Y-59973182D01*
X58260220Y-59825477D01*
X58238713Y-59794318D01*
X58170484Y-59695470D01*
X58052241Y-59590718D01*
X58052240Y-59590717D01*
X57912365Y-59517304D01*
X57758985Y-59479500D01*
X57601015Y-59479500D01*
X57481412Y-59508979D01*
X57447635Y-59517304D01*
X57307758Y-59590718D01*
X57189517Y-59695469D01*
X57105901Y-59816609D01*
X57064632Y-59845920D01*
X57014177Y-59841847D01*
X56984099Y-59816609D01*
X56900482Y-59695469D01*
X56782241Y-59590718D01*
X56782240Y-59590717D01*
X56642365Y-59517304D01*
X56488985Y-59479500D01*
X56331015Y-59479500D01*
X56211412Y-59508979D01*
X56177635Y-59517304D01*
X56037758Y-59590718D01*
X55919517Y-59695469D01*
X55835901Y-59816609D01*
X55794632Y-59845920D01*
X55744177Y-59841847D01*
X55714099Y-59816609D01*
X55630482Y-59695469D01*
X55512241Y-59590718D01*
X55512240Y-59590717D01*
X55372365Y-59517304D01*
X55218985Y-59479500D01*
X55061015Y-59479500D01*
X54941412Y-59508979D01*
X54907635Y-59517304D01*
X54767758Y-59590718D01*
X54649517Y-59695469D01*
X54565900Y-59816609D01*
X54524631Y-59845920D01*
X54474176Y-59841847D01*
X54444098Y-59816608D01*
X54360484Y-59695470D01*
X54242241Y-59590718D01*
X54242240Y-59590717D01*
X54102365Y-59517304D01*
X53948985Y-59479500D01*
X53791015Y-59479500D01*
X53671412Y-59508979D01*
X53637635Y-59517304D01*
X53497758Y-59590718D01*
X53379517Y-59695469D01*
X53295901Y-59816609D01*
X53254632Y-59845920D01*
X53204177Y-59841847D01*
X53174099Y-59816609D01*
X53090482Y-59695469D01*
X52972241Y-59590718D01*
X52972240Y-59590717D01*
X52832365Y-59517304D01*
X52678985Y-59479500D01*
X52521015Y-59479500D01*
X52401412Y-59508979D01*
X52367635Y-59517304D01*
X52227758Y-59590718D01*
X52109517Y-59695469D01*
X52025901Y-59816609D01*
X51984632Y-59845920D01*
X51934177Y-59841847D01*
X51904099Y-59816609D01*
X51820482Y-59695469D01*
X51702241Y-59590718D01*
X51702240Y-59590717D01*
X51562365Y-59517304D01*
X51408985Y-59479500D01*
X51251015Y-59479500D01*
X51131412Y-59508979D01*
X51097635Y-59517304D01*
X50957758Y-59590718D01*
X50839517Y-59695469D01*
X50755900Y-59816609D01*
X50714631Y-59845920D01*
X50664176Y-59841847D01*
X50634098Y-59816608D01*
X50550484Y-59695470D01*
X50432241Y-59590718D01*
X50432240Y-59590717D01*
X50292365Y-59517304D01*
X50138985Y-59479500D01*
X49981015Y-59479500D01*
X49861412Y-59508979D01*
X49827635Y-59517304D01*
X49687758Y-59590718D01*
X49569515Y-59695470D01*
X49479780Y-59825476D01*
X49423762Y-59973183D01*
X49404722Y-60130000D01*
X36406398Y-60130000D01*
X36429945Y-60082252D01*
X36526880Y-59796691D01*
X36585713Y-59500920D01*
X36605436Y-59200000D01*
X36601989Y-59147404D01*
X58870319Y-59147404D01*
X58888925Y-59264888D01*
X58942925Y-59370868D01*
X59027036Y-59454979D01*
X59133016Y-59508979D01*
X59165142Y-59514066D01*
X59250500Y-59527586D01*
X59353851Y-59511216D01*
X59367983Y-59508979D01*
X59473963Y-59454979D01*
X59473962Y-59454979D01*
X59473965Y-59454978D01*
X59558073Y-59370870D01*
X59594183Y-59300000D01*
X59612074Y-59264888D01*
X59621969Y-59202410D01*
X59622351Y-59200000D01*
X59794564Y-59200000D01*
X59794722Y-59202410D01*
X59811165Y-59453297D01*
X59814287Y-59500920D01*
X59814757Y-59503285D01*
X59814758Y-59503289D01*
X59852986Y-59695470D01*
X59873120Y-59796691D01*
X59873894Y-59798973D01*
X59873896Y-59798978D01*
X59933031Y-59973183D01*
X59970055Y-60082252D01*
X59971124Y-60084420D01*
X59971125Y-60084422D01*
X60102362Y-60350546D01*
X60102368Y-60350556D01*
X60103434Y-60352718D01*
X60104778Y-60354730D01*
X60104779Y-60354731D01*
X60269632Y-60601452D01*
X60269636Y-60601458D01*
X60270975Y-60603461D01*
X60272562Y-60605271D01*
X60272567Y-60605277D01*
X60426235Y-60780500D01*
X60469811Y-60830189D01*
X60504624Y-60860719D01*
X60694722Y-61027432D01*
X60694726Y-61027435D01*
X60696539Y-61029025D01*
X60698543Y-61030364D01*
X60698547Y-61030367D01*
X60823812Y-61114066D01*
X60947282Y-61196566D01*
X60949448Y-61197634D01*
X60949453Y-61197637D01*
X61041810Y-61243182D01*
X61217748Y-61329945D01*
X61503309Y-61426880D01*
X61799080Y-61485713D01*
X62100000Y-61505436D01*
X62400920Y-61485713D01*
X62696691Y-61426880D01*
X62982252Y-61329945D01*
X63252718Y-61196566D01*
X63503461Y-61029025D01*
X63730189Y-60830189D01*
X63929025Y-60603461D01*
X64096566Y-60352718D01*
X64229945Y-60082252D01*
X64326880Y-59796691D01*
X64385713Y-59500920D01*
X64398882Y-59300000D01*
X66519819Y-59300000D01*
X66538425Y-59417483D01*
X66592425Y-59523463D01*
X66676536Y-59607574D01*
X66782516Y-59661574D01*
X66810778Y-59666049D01*
X66900000Y-59680181D01*
X67001419Y-59664117D01*
X67017483Y-59661574D01*
X67123463Y-59607574D01*
X67123462Y-59607574D01*
X67123465Y-59607573D01*
X67207573Y-59523465D01*
X67229974Y-59479500D01*
X67261574Y-59417483D01*
X67268957Y-59370868D01*
X67280181Y-59300000D01*
X67261574Y-59182518D01*
X67261574Y-59182516D01*
X67207574Y-59076536D01*
X67123463Y-58992425D01*
X67017483Y-58938425D01*
X66900000Y-58919819D01*
X66782516Y-58938425D01*
X66676536Y-58992425D01*
X66592425Y-59076536D01*
X66538425Y-59182516D01*
X66519819Y-59300000D01*
X64398882Y-59300000D01*
X64405436Y-59200000D01*
X64385713Y-58899080D01*
X64326880Y-58603309D01*
X64229945Y-58317748D01*
X64163255Y-58182514D01*
X64097637Y-58049453D01*
X64097634Y-58049448D01*
X64096566Y-58047282D01*
X63978963Y-57871277D01*
X63930367Y-57798547D01*
X63930364Y-57798543D01*
X63929025Y-57796539D01*
X63907089Y-57771526D01*
X63731785Y-57571631D01*
X63730189Y-57569811D01*
X63728368Y-57568214D01*
X63505277Y-57372567D01*
X63505271Y-57372562D01*
X63503461Y-57370975D01*
X63501458Y-57369636D01*
X63501452Y-57369632D01*
X63254731Y-57204779D01*
X63254730Y-57204778D01*
X63252718Y-57203434D01*
X63250556Y-57202368D01*
X63250546Y-57202362D01*
X62984422Y-57071125D01*
X62984420Y-57071124D01*
X62982252Y-57070055D01*
X62979965Y-57069278D01*
X62979961Y-57069277D01*
X62698978Y-56973896D01*
X62698973Y-56973894D01*
X62696691Y-56973120D01*
X62613042Y-56956481D01*
X62403289Y-56914758D01*
X62403285Y-56914757D01*
X62400920Y-56914287D01*
X62398516Y-56914129D01*
X62398513Y-56914129D01*
X62102411Y-56894722D01*
X62100000Y-56894564D01*
X62097589Y-56894722D01*
X61801486Y-56914129D01*
X61801481Y-56914129D01*
X61799080Y-56914287D01*
X61796716Y-56914757D01*
X61796710Y-56914758D01*
X61505681Y-56972648D01*
X61505678Y-56972648D01*
X61503309Y-56973120D01*
X61501030Y-56973893D01*
X61501021Y-56973896D01*
X61220038Y-57069277D01*
X61220029Y-57069280D01*
X61217748Y-57070055D01*
X61215584Y-57071121D01*
X61215577Y-57071125D01*
X60949453Y-57202362D01*
X60949436Y-57202371D01*
X60947282Y-57203434D01*
X60945275Y-57204774D01*
X60945268Y-57204779D01*
X60698547Y-57369632D01*
X60698533Y-57369642D01*
X60696539Y-57370975D01*
X60694735Y-57372556D01*
X60694722Y-57372567D01*
X60471631Y-57568214D01*
X60471623Y-57568221D01*
X60469811Y-57569811D01*
X60468221Y-57571623D01*
X60468214Y-57571631D01*
X60272567Y-57794722D01*
X60272556Y-57794735D01*
X60270975Y-57796539D01*
X60269642Y-57798533D01*
X60269632Y-57798547D01*
X60104779Y-58045268D01*
X60104774Y-58045275D01*
X60103434Y-58047282D01*
X60102371Y-58049436D01*
X60102362Y-58049453D01*
X59971125Y-58315577D01*
X59971121Y-58315584D01*
X59970055Y-58317748D01*
X59969280Y-58320029D01*
X59969277Y-58320038D01*
X59873896Y-58601021D01*
X59873893Y-58601030D01*
X59873120Y-58603309D01*
X59872648Y-58605678D01*
X59872648Y-58605681D01*
X59826073Y-58839830D01*
X59814287Y-58899080D01*
X59814129Y-58901481D01*
X59814129Y-58901486D01*
X59808169Y-58992425D01*
X59794564Y-59200000D01*
X59622351Y-59200000D01*
X59630681Y-59147405D01*
X59612074Y-59029923D01*
X59612074Y-59029921D01*
X59558074Y-58923941D01*
X59473963Y-58839830D01*
X59367983Y-58785830D01*
X59264630Y-58769461D01*
X59250500Y-58767224D01*
X59250499Y-58767224D01*
X59133016Y-58785830D01*
X59027036Y-58839830D01*
X58942925Y-58923941D01*
X58888925Y-59029921D01*
X58870319Y-59147404D01*
X36601989Y-59147404D01*
X36585713Y-58899080D01*
X36526880Y-58603309D01*
X36429945Y-58317748D01*
X36363255Y-58182515D01*
X36297637Y-58049453D01*
X36297634Y-58049448D01*
X36296566Y-58047282D01*
X36178963Y-57871277D01*
X36130367Y-57798547D01*
X36130364Y-57798543D01*
X36129025Y-57796539D01*
X36107089Y-57771526D01*
X35931785Y-57571631D01*
X35930189Y-57569811D01*
X35928368Y-57568214D01*
X35705277Y-57372567D01*
X35705271Y-57372562D01*
X35703461Y-57370975D01*
X35701458Y-57369636D01*
X35701452Y-57369632D01*
X35628964Y-57321197D01*
X39460795Y-57321197D01*
X39490185Y-57462634D01*
X39556644Y-57590893D01*
X39655245Y-57696469D01*
X39723900Y-57738219D01*
X39778672Y-57771526D01*
X39917772Y-57810500D01*
X40023416Y-57810500D01*
X40025949Y-57810500D01*
X40133111Y-57795771D01*
X40265609Y-57738219D01*
X40377665Y-57647054D01*
X40460971Y-57529037D01*
X40509346Y-57392921D01*
X40514252Y-57321197D01*
X45240795Y-57321197D01*
X45270185Y-57462634D01*
X45336644Y-57590893D01*
X45435245Y-57696469D01*
X45503900Y-57738219D01*
X45558672Y-57771526D01*
X45697772Y-57810500D01*
X45803416Y-57810500D01*
X45805949Y-57810500D01*
X45913111Y-57795771D01*
X46045609Y-57738219D01*
X46157665Y-57647054D01*
X46240971Y-57529037D01*
X46289346Y-57392921D01*
X46299204Y-57248801D01*
X46269814Y-57107366D01*
X46269814Y-57107365D01*
X46203355Y-56979106D01*
X46126759Y-56897092D01*
X46104755Y-56873531D01*
X46104754Y-56873530D01*
X45981329Y-56798474D01*
X45842228Y-56759500D01*
X45734051Y-56759500D01*
X45731553Y-56759843D01*
X45731543Y-56759844D01*
X45626889Y-56774228D01*
X45494391Y-56831781D01*
X45382335Y-56922946D01*
X45299027Y-57040965D01*
X45250653Y-57177079D01*
X45240795Y-57321197D01*
X40514252Y-57321197D01*
X40519204Y-57248801D01*
X40489814Y-57107366D01*
X40489814Y-57107365D01*
X40423355Y-56979106D01*
X40346759Y-56897092D01*
X40324755Y-56873531D01*
X40324754Y-56873530D01*
X40201329Y-56798474D01*
X40062228Y-56759500D01*
X39954051Y-56759500D01*
X39951553Y-56759843D01*
X39951543Y-56759844D01*
X39846889Y-56774228D01*
X39714391Y-56831781D01*
X39602335Y-56922946D01*
X39519027Y-57040965D01*
X39470653Y-57177079D01*
X39460795Y-57321197D01*
X35628964Y-57321197D01*
X35454731Y-57204779D01*
X35454730Y-57204778D01*
X35452718Y-57203434D01*
X35450556Y-57202368D01*
X35450546Y-57202362D01*
X35184422Y-57071125D01*
X35184420Y-57071124D01*
X35182252Y-57070055D01*
X35179965Y-57069278D01*
X35179961Y-57069277D01*
X34898978Y-56973896D01*
X34898973Y-56973894D01*
X34896691Y-56973120D01*
X34813042Y-56956481D01*
X34603289Y-56914758D01*
X34603285Y-56914757D01*
X34600920Y-56914287D01*
X34598516Y-56914129D01*
X34598513Y-56914129D01*
X34302411Y-56894722D01*
X34300000Y-56894564D01*
X34297589Y-56894722D01*
X34001486Y-56914129D01*
X34001481Y-56914129D01*
X33999080Y-56914287D01*
X33996716Y-56914757D01*
X33996710Y-56914758D01*
X33705681Y-56972648D01*
X33705678Y-56972648D01*
X33703309Y-56973120D01*
X33701030Y-56973893D01*
X33701021Y-56973896D01*
X33420038Y-57069277D01*
X33420029Y-57069280D01*
X33417748Y-57070055D01*
X33415584Y-57071121D01*
X33415577Y-57071125D01*
X33149453Y-57202362D01*
X33149436Y-57202371D01*
X33147282Y-57203434D01*
X33145275Y-57204774D01*
X33145268Y-57204779D01*
X32898547Y-57369632D01*
X32898533Y-57369642D01*
X32896539Y-57370975D01*
X32894735Y-57372556D01*
X32894722Y-57372567D01*
X32671631Y-57568214D01*
X32671623Y-57568221D01*
X32669811Y-57569811D01*
X32668221Y-57571623D01*
X32668214Y-57571631D01*
X32472567Y-57794722D01*
X32472556Y-57794735D01*
X32470975Y-57796539D01*
X32469642Y-57798533D01*
X32469632Y-57798547D01*
X32304779Y-58045268D01*
X32304774Y-58045275D01*
X32303434Y-58047282D01*
X32302371Y-58049436D01*
X32302362Y-58049453D01*
X32171125Y-58315577D01*
X32171121Y-58315584D01*
X32170055Y-58317748D01*
X32169280Y-58320029D01*
X32169277Y-58320038D01*
X32073896Y-58601021D01*
X32073893Y-58601030D01*
X32073120Y-58603309D01*
X32072648Y-58605678D01*
X32072648Y-58605681D01*
X32026073Y-58839830D01*
X32014287Y-58899080D01*
X32014129Y-58901481D01*
X32014129Y-58901486D01*
X32008169Y-58992425D01*
X31994564Y-59200000D01*
X28480500Y-59200000D01*
X28480500Y-57800000D01*
X29519819Y-57800000D01*
X29538425Y-57917483D01*
X29592425Y-58023463D01*
X29676536Y-58107574D01*
X29782516Y-58161574D01*
X29810778Y-58166049D01*
X29900000Y-58180181D01*
X30001419Y-58164117D01*
X30017483Y-58161574D01*
X30123463Y-58107574D01*
X30123462Y-58107574D01*
X30123465Y-58107573D01*
X30207573Y-58023465D01*
X30209520Y-58019643D01*
X30261574Y-57917483D01*
X30268892Y-57871277D01*
X30280181Y-57800000D01*
X30261574Y-57682518D01*
X30261574Y-57682516D01*
X30207574Y-57576536D01*
X30123463Y-57492425D01*
X30017483Y-57438425D01*
X29900000Y-57419819D01*
X29782516Y-57438425D01*
X29676536Y-57492425D01*
X29592425Y-57576536D01*
X29538425Y-57682516D01*
X29519819Y-57800000D01*
X28480500Y-57800000D01*
X28480500Y-56847572D01*
X28497813Y-56800006D01*
X28541650Y-56774696D01*
X28591500Y-56783486D01*
X28620435Y-56813977D01*
X28621589Y-56816243D01*
X28621590Y-56816244D01*
X28637552Y-56847572D01*
X28675591Y-56922227D01*
X28759700Y-57006336D01*
X28865680Y-57060336D01*
X28897806Y-57065423D01*
X28983164Y-57078943D01*
X29086515Y-57062573D01*
X29100647Y-57060336D01*
X29206626Y-57006337D01*
X29206626Y-57006336D01*
X29206629Y-57006335D01*
X29243089Y-56969874D01*
X29288962Y-56948483D01*
X29337856Y-56961583D01*
X29347739Y-56969875D01*
X29359065Y-56981201D01*
X29465045Y-57035201D01*
X29497171Y-57040288D01*
X29582529Y-57053808D01*
X29685880Y-57037438D01*
X29700012Y-57035201D01*
X29805992Y-56981201D01*
X29805991Y-56981201D01*
X29805994Y-56981200D01*
X29890102Y-56897092D01*
X29902107Y-56873531D01*
X29944103Y-56791110D01*
X29946340Y-56776978D01*
X29962710Y-56673627D01*
X29944103Y-56556145D01*
X29944103Y-56556143D01*
X29890103Y-56450163D01*
X29805992Y-56366052D01*
X29700012Y-56312052D01*
X29596659Y-56295683D01*
X29582529Y-56293446D01*
X29582528Y-56293446D01*
X29465045Y-56312052D01*
X29359065Y-56366052D01*
X29322605Y-56402513D01*
X29276729Y-56423905D01*
X29227834Y-56410804D01*
X29217953Y-56402513D01*
X29206627Y-56391187D01*
X29100647Y-56337187D01*
X28997294Y-56320818D01*
X28983164Y-56318581D01*
X28983163Y-56318581D01*
X28865680Y-56337187D01*
X28759700Y-56391187D01*
X28675588Y-56475299D01*
X28620434Y-56583546D01*
X28583414Y-56618068D01*
X28532864Y-56620717D01*
X28492438Y-56590254D01*
X28480500Y-56549951D01*
X28480500Y-55200000D01*
X29124722Y-55200000D01*
X29143762Y-55356816D01*
X29199780Y-55504523D01*
X29289515Y-55634529D01*
X29349788Y-55687925D01*
X29407760Y-55739283D01*
X29547635Y-55812696D01*
X29701015Y-55850500D01*
X29701016Y-55850500D01*
X29858984Y-55850500D01*
X29858985Y-55850500D01*
X30012365Y-55812696D01*
X30152240Y-55739283D01*
X30270483Y-55634530D01*
X30360220Y-55504523D01*
X30416237Y-55356818D01*
X30435278Y-55200000D01*
X30418220Y-55059511D01*
X34073845Y-55059511D01*
X34092451Y-55176995D01*
X34146451Y-55282975D01*
X34230562Y-55367086D01*
X34336542Y-55421086D01*
X34365733Y-55425709D01*
X34454026Y-55439693D01*
X34557377Y-55423323D01*
X34571509Y-55421086D01*
X34677489Y-55367086D01*
X34677488Y-55367086D01*
X34677491Y-55367085D01*
X34761599Y-55282977D01*
X34784299Y-55238426D01*
X34815600Y-55176995D01*
X34819622Y-55151602D01*
X34834207Y-55059512D01*
X34815600Y-54942030D01*
X34815600Y-54942028D01*
X34761600Y-54836048D01*
X34681228Y-54755676D01*
X35128391Y-54755676D01*
X35146997Y-54873160D01*
X35200997Y-54979140D01*
X35200999Y-54979142D01*
X35285107Y-55063250D01*
X35286646Y-55064034D01*
X35321170Y-55101053D01*
X35323822Y-55151602D01*
X35318989Y-55163565D01*
X35290039Y-55220382D01*
X35271433Y-55337863D01*
X35290039Y-55455347D01*
X35344039Y-55561327D01*
X35428150Y-55645438D01*
X35534130Y-55699438D01*
X35566256Y-55704525D01*
X35651614Y-55718045D01*
X35706637Y-55709330D01*
X35756325Y-55718989D01*
X35788180Y-55758327D01*
X35789891Y-55765189D01*
X35790637Y-55766654D01*
X35790638Y-55766656D01*
X35822431Y-55829053D01*
X35844639Y-55872639D01*
X35928748Y-55956748D01*
X36034728Y-56010748D01*
X36083473Y-56018468D01*
X36152212Y-56029355D01*
X36152212Y-56029354D01*
X36160321Y-56030639D01*
X36204594Y-56055179D01*
X36221835Y-56092152D01*
X36234164Y-56170001D01*
X36288164Y-56275981D01*
X36372275Y-56360092D01*
X36478255Y-56414092D01*
X36515469Y-56419985D01*
X36595739Y-56432699D01*
X36623761Y-56428260D01*
X36673448Y-56437918D01*
X36705304Y-56477256D01*
X36708425Y-56489771D01*
X36714578Y-56528617D01*
X36741411Y-56581280D01*
X36768579Y-56634600D01*
X36852688Y-56718709D01*
X36958668Y-56772709D01*
X36986930Y-56777184D01*
X37076152Y-56791316D01*
X37177571Y-56775252D01*
X37193635Y-56772709D01*
X37299615Y-56718709D01*
X37299614Y-56718709D01*
X37299617Y-56718708D01*
X37383725Y-56634600D01*
X37390799Y-56620717D01*
X37437726Y-56528618D01*
X37443878Y-56489771D01*
X37456333Y-56411135D01*
X37437726Y-56293653D01*
X37437726Y-56293651D01*
X37383726Y-56187671D01*
X37299615Y-56103560D01*
X37193635Y-56049560D01*
X37090282Y-56033191D01*
X37076152Y-56030954D01*
X37076151Y-56030954D01*
X37048128Y-56035392D01*
X36998439Y-56025733D01*
X36978006Y-56000500D01*
X40019196Y-56000500D01*
X40040281Y-56133626D01*
X40101472Y-56253720D01*
X40196780Y-56349028D01*
X40316874Y-56410219D01*
X40450000Y-56431304D01*
X40583126Y-56410219D01*
X40703220Y-56349028D01*
X40798528Y-56253720D01*
X40859719Y-56133626D01*
X40873043Y-56049500D01*
X53309983Y-56049500D01*
X53328589Y-56166983D01*
X53382589Y-56272963D01*
X53411829Y-56302203D01*
X53433221Y-56348079D01*
X53420120Y-56396974D01*
X53411830Y-56406854D01*
X53393240Y-56425444D01*
X53339240Y-56531424D01*
X53320634Y-56648907D01*
X53339240Y-56766391D01*
X53393240Y-56872371D01*
X53477351Y-56956482D01*
X53583331Y-57010482D01*
X53615457Y-57015569D01*
X53700815Y-57029089D01*
X53804166Y-57012719D01*
X53818298Y-57010482D01*
X53924278Y-56956482D01*
X53924277Y-56956482D01*
X53924280Y-56956481D01*
X54008388Y-56872373D01*
X54036987Y-56816244D01*
X54062389Y-56766391D01*
X54064626Y-56752259D01*
X54080996Y-56648908D01*
X54062389Y-56531426D01*
X54062389Y-56531424D01*
X54008389Y-56425444D01*
X53979149Y-56396204D01*
X53957757Y-56350328D01*
X53970858Y-56301433D01*
X53979146Y-56291555D01*
X53997737Y-56272965D01*
X54051738Y-56166982D01*
X54070345Y-56049500D01*
X54051738Y-55932018D01*
X54051738Y-55932016D01*
X53997738Y-55826036D01*
X53913627Y-55741925D01*
X53807647Y-55687925D01*
X53690164Y-55669319D01*
X53572680Y-55687925D01*
X53466700Y-55741925D01*
X53382589Y-55826036D01*
X53328589Y-55932016D01*
X53309983Y-56049500D01*
X40873043Y-56049500D01*
X40880804Y-56000500D01*
X40859719Y-55867374D01*
X40798528Y-55747280D01*
X40703220Y-55651972D01*
X40601219Y-55600000D01*
X58619819Y-55600000D01*
X58638425Y-55717483D01*
X58692425Y-55823463D01*
X58776536Y-55907574D01*
X58882516Y-55961574D01*
X58910778Y-55966049D01*
X59000000Y-55980181D01*
X59101419Y-55964117D01*
X59117483Y-55961574D01*
X59223463Y-55907574D01*
X59223462Y-55907574D01*
X59223465Y-55907573D01*
X59307573Y-55823465D01*
X59337266Y-55765189D01*
X59361574Y-55717483D01*
X59368724Y-55672337D01*
X59380181Y-55600000D01*
X59365059Y-55504523D01*
X59361574Y-55482516D01*
X59307574Y-55376536D01*
X59223463Y-55292425D01*
X59117483Y-55238425D01*
X59012773Y-55221842D01*
X59000000Y-55219819D01*
X58999999Y-55219819D01*
X58882516Y-55238425D01*
X58776536Y-55292425D01*
X58692425Y-55376536D01*
X58638425Y-55482516D01*
X58619819Y-55600000D01*
X40601219Y-55600000D01*
X40583126Y-55590781D01*
X40450000Y-55569696D01*
X40316874Y-55590781D01*
X40256826Y-55621376D01*
X40196779Y-55651972D01*
X40101472Y-55747279D01*
X40095843Y-55758327D01*
X40040281Y-55867374D01*
X40019196Y-56000500D01*
X36978006Y-56000500D01*
X36966584Y-55986394D01*
X36963466Y-55973887D01*
X36957313Y-55935036D01*
X36903312Y-55829053D01*
X36819204Y-55744945D01*
X36819203Y-55744944D01*
X36819202Y-55744943D01*
X36713222Y-55690943D01*
X36587628Y-55671052D01*
X36543356Y-55646512D01*
X36526115Y-55609538D01*
X36524604Y-55600000D01*
X36513786Y-55531692D01*
X36513786Y-55531690D01*
X36459786Y-55425710D01*
X36375675Y-55341599D01*
X36269695Y-55287599D01*
X36166342Y-55271230D01*
X36152212Y-55268993D01*
X36152211Y-55268993D01*
X36097189Y-55277707D01*
X36047500Y-55268048D01*
X36015645Y-55228709D01*
X36013933Y-55221842D01*
X36002804Y-55200000D01*
X64654722Y-55200000D01*
X64673762Y-55356816D01*
X64729780Y-55504523D01*
X64819515Y-55634529D01*
X64879788Y-55687925D01*
X64937760Y-55739283D01*
X65077635Y-55812696D01*
X65231015Y-55850500D01*
X65231016Y-55850500D01*
X65388984Y-55850500D01*
X65388985Y-55850500D01*
X65542365Y-55812696D01*
X65682240Y-55739283D01*
X65800483Y-55634530D01*
X65884098Y-55513391D01*
X65925368Y-55484079D01*
X65975822Y-55488152D01*
X66005901Y-55513391D01*
X66089515Y-55634529D01*
X66149788Y-55687925D01*
X66207760Y-55739283D01*
X66347635Y-55812696D01*
X66501015Y-55850500D01*
X66501016Y-55850500D01*
X66658984Y-55850500D01*
X66658985Y-55850500D01*
X66812365Y-55812696D01*
X66952240Y-55739283D01*
X67070483Y-55634530D01*
X67160220Y-55504523D01*
X67216237Y-55356818D01*
X67235278Y-55200000D01*
X67216237Y-55043182D01*
X67160220Y-54895477D01*
X67138996Y-54864729D01*
X67070484Y-54765470D01*
X66952238Y-54660715D01*
X66894711Y-54630522D01*
X66860639Y-54593087D01*
X66858601Y-54542509D01*
X66889551Y-54502455D01*
X66894685Y-54499490D01*
X66952240Y-54469283D01*
X67070483Y-54364530D01*
X67072524Y-54361574D01*
X67091706Y-54333782D01*
X67160220Y-54234523D01*
X67216237Y-54086818D01*
X67235278Y-53930000D01*
X67216237Y-53773182D01*
X67160220Y-53625477D01*
X67138996Y-53594729D01*
X67070484Y-53495470D01*
X66952240Y-53390717D01*
X66952240Y-53390716D01*
X66894711Y-53360523D01*
X66860639Y-53323089D01*
X66858601Y-53272511D01*
X66889550Y-53232456D01*
X66894704Y-53229480D01*
X66952240Y-53199283D01*
X67070483Y-53094530D01*
X67160220Y-52964523D01*
X67216237Y-52816818D01*
X67235278Y-52660000D01*
X67216237Y-52503182D01*
X67160220Y-52355477D01*
X67127155Y-52307574D01*
X67070484Y-52225470D01*
X66952240Y-52120717D01*
X66946076Y-52117482D01*
X66894711Y-52090523D01*
X66860639Y-52053089D01*
X66858601Y-52002511D01*
X66889550Y-51962456D01*
X66894704Y-51959480D01*
X66952240Y-51929283D01*
X67070483Y-51824530D01*
X67071220Y-51823463D01*
X67103611Y-51776535D01*
X67160220Y-51694523D01*
X67216237Y-51546818D01*
X67235278Y-51390000D01*
X67216237Y-51233182D01*
X67160220Y-51085477D01*
X67138996Y-51054729D01*
X67070484Y-50955470D01*
X66952240Y-50850717D01*
X66952240Y-50850716D01*
X66894711Y-50820523D01*
X66860639Y-50783089D01*
X66858601Y-50732511D01*
X66889550Y-50692456D01*
X66894704Y-50689480D01*
X66952240Y-50659283D01*
X67070483Y-50554530D01*
X67081600Y-50538425D01*
X67121802Y-50480181D01*
X67160220Y-50424523D01*
X67216237Y-50276818D01*
X67235278Y-50120000D01*
X67216237Y-49963182D01*
X67160220Y-49815477D01*
X67107036Y-49738426D01*
X67070484Y-49685470D01*
X66952238Y-49580715D01*
X66894711Y-49550522D01*
X66860639Y-49513087D01*
X66858601Y-49462509D01*
X66889551Y-49422455D01*
X66894685Y-49419490D01*
X66952240Y-49389283D01*
X67070483Y-49284530D01*
X67076085Y-49276415D01*
X67094663Y-49249499D01*
X67160220Y-49154523D01*
X67216237Y-49006818D01*
X67235278Y-48850000D01*
X67216237Y-48693182D01*
X67160220Y-48545477D01*
X67116763Y-48482518D01*
X67070484Y-48415470D01*
X66959876Y-48317482D01*
X66952240Y-48310717D01*
X66812365Y-48237304D01*
X66658985Y-48199500D01*
X66501015Y-48199500D01*
X66367098Y-48232507D01*
X66347635Y-48237304D01*
X66207758Y-48310718D01*
X66089515Y-48415470D01*
X65999780Y-48545476D01*
X65943762Y-48693183D01*
X65924722Y-48849999D01*
X65943762Y-49006816D01*
X65999780Y-49154523D01*
X66089515Y-49284529D01*
X66180778Y-49365379D01*
X66207760Y-49389283D01*
X66265288Y-49419476D01*
X66299360Y-49456911D01*
X66301398Y-49507489D01*
X66270448Y-49547544D01*
X66265295Y-49550519D01*
X66215728Y-49576535D01*
X66207758Y-49580718D01*
X66089517Y-49685469D01*
X66005900Y-49806609D01*
X65964631Y-49835920D01*
X65914176Y-49831847D01*
X65884098Y-49806608D01*
X65800484Y-49685470D01*
X65682241Y-49580718D01*
X65682240Y-49580717D01*
X65542365Y-49507304D01*
X65388985Y-49469500D01*
X65231015Y-49469500D01*
X65168128Y-49485000D01*
X65077635Y-49507304D01*
X64937758Y-49580718D01*
X64819515Y-49685470D01*
X64729780Y-49815476D01*
X64673762Y-49963183D01*
X64654722Y-50120000D01*
X64673762Y-50276816D01*
X64729780Y-50424523D01*
X64819515Y-50554529D01*
X64862292Y-50592425D01*
X64937760Y-50659283D01*
X64995288Y-50689476D01*
X65029360Y-50726911D01*
X65031398Y-50777489D01*
X65000448Y-50817544D01*
X64995295Y-50820519D01*
X64943992Y-50847445D01*
X64937758Y-50850718D01*
X64819515Y-50955470D01*
X64729780Y-51085476D01*
X64673762Y-51233183D01*
X64661567Y-51333624D01*
X64654722Y-51390000D01*
X64655017Y-51392427D01*
X64673762Y-51546816D01*
X64729780Y-51694523D01*
X64819515Y-51824529D01*
X64904706Y-51900000D01*
X64937760Y-51929283D01*
X64995288Y-51959476D01*
X65029360Y-51996911D01*
X65031398Y-52047489D01*
X65000448Y-52087544D01*
X64995295Y-52090519D01*
X64943992Y-52117445D01*
X64937758Y-52120718D01*
X64819515Y-52225470D01*
X64729780Y-52355476D01*
X64673762Y-52503183D01*
X64654722Y-52660000D01*
X64673762Y-52816816D01*
X64729780Y-52964523D01*
X64819515Y-53094529D01*
X64910778Y-53175379D01*
X64937760Y-53199283D01*
X64995288Y-53229476D01*
X65029360Y-53266911D01*
X65031398Y-53317489D01*
X65000448Y-53357544D01*
X64995295Y-53360519D01*
X64943992Y-53387445D01*
X64937758Y-53390718D01*
X64819515Y-53495470D01*
X64729780Y-53625476D01*
X64673762Y-53773183D01*
X64654722Y-53930000D01*
X64673762Y-54086816D01*
X64729780Y-54234523D01*
X64819515Y-54364529D01*
X64910778Y-54445379D01*
X64937760Y-54469283D01*
X64995288Y-54499476D01*
X65029360Y-54536911D01*
X65031398Y-54587489D01*
X65000448Y-54627544D01*
X64995295Y-54630519D01*
X64980672Y-54638195D01*
X64937758Y-54660718D01*
X64819515Y-54765470D01*
X64729780Y-54895476D01*
X64673762Y-55043183D01*
X64654722Y-55200000D01*
X36002804Y-55200000D01*
X35959189Y-55114401D01*
X35945195Y-55100407D01*
X35875079Y-55030291D01*
X35873531Y-55029502D01*
X35839012Y-54992480D01*
X35836366Y-54941931D01*
X35841197Y-54929974D01*
X35870146Y-54873159D01*
X35870145Y-54873159D01*
X35888753Y-54755677D01*
X35870146Y-54638195D01*
X35870146Y-54638193D01*
X35861793Y-54621800D01*
X45297396Y-54621800D01*
X45318481Y-54754926D01*
X45379672Y-54875020D01*
X45474980Y-54970328D01*
X45595074Y-55031519D01*
X45728200Y-55052604D01*
X45861326Y-55031519D01*
X45981420Y-54970328D01*
X46076728Y-54875020D01*
X46137919Y-54754926D01*
X46159004Y-54621800D01*
X46137919Y-54488674D01*
X46076728Y-54368580D01*
X45981420Y-54273272D01*
X45861326Y-54212081D01*
X45728200Y-54190996D01*
X45595074Y-54212081D01*
X45572736Y-54223463D01*
X45474979Y-54273272D01*
X45379672Y-54368579D01*
X45355535Y-54415951D01*
X45318481Y-54488674D01*
X45297396Y-54621800D01*
X35861793Y-54621800D01*
X35816146Y-54532213D01*
X35804536Y-54520603D01*
X35783144Y-54474727D01*
X35796245Y-54425832D01*
X35804537Y-54415951D01*
X35846591Y-54373897D01*
X35900591Y-54267916D01*
X35907631Y-54223463D01*
X35919198Y-54150433D01*
X35905066Y-54061211D01*
X35900591Y-54032949D01*
X35883802Y-53999999D01*
X55919819Y-53999999D01*
X55938425Y-54117483D01*
X55992425Y-54223463D01*
X56076536Y-54307574D01*
X56182516Y-54361574D01*
X56210778Y-54366049D01*
X56300000Y-54380181D01*
X56401419Y-54364117D01*
X56417483Y-54361574D01*
X56523463Y-54307574D01*
X56523462Y-54307574D01*
X56523465Y-54307573D01*
X56607573Y-54223465D01*
X56644785Y-54150433D01*
X56661574Y-54117483D01*
X56665914Y-54090079D01*
X56680181Y-54000000D01*
X56661574Y-53882518D01*
X56661574Y-53882516D01*
X56607574Y-53776536D01*
X56523463Y-53692425D01*
X56417483Y-53638425D01*
X56300000Y-53619819D01*
X56182516Y-53638425D01*
X56076536Y-53692425D01*
X55992425Y-53776536D01*
X55938425Y-53882516D01*
X55919819Y-53999999D01*
X35883802Y-53999999D01*
X35846591Y-53926969D01*
X35762480Y-53842858D01*
X35656500Y-53788858D01*
X35539017Y-53770252D01*
X35421533Y-53788858D01*
X35315553Y-53842858D01*
X35231442Y-53926969D01*
X35177442Y-54032949D01*
X35158836Y-54150433D01*
X35177442Y-54267916D01*
X35231442Y-54373896D01*
X35243052Y-54385506D01*
X35264444Y-54431382D01*
X35251343Y-54480277D01*
X35243052Y-54490157D01*
X35200998Y-54532211D01*
X35146997Y-54638193D01*
X35128391Y-54755676D01*
X34681228Y-54755676D01*
X34677489Y-54751937D01*
X34571509Y-54697937D01*
X34466161Y-54681253D01*
X34445533Y-54669819D01*
X34421103Y-54684499D01*
X34418558Y-54684948D01*
X34336542Y-54697937D01*
X34230562Y-54751937D01*
X34146451Y-54836048D01*
X34092451Y-54942028D01*
X34073845Y-55059511D01*
X30418220Y-55059511D01*
X30416237Y-55043182D01*
X30360220Y-54895477D01*
X30338996Y-54864729D01*
X30270484Y-54765470D01*
X30152238Y-54660715D01*
X30094711Y-54630522D01*
X30060639Y-54593087D01*
X30058601Y-54542509D01*
X30089551Y-54502455D01*
X30094685Y-54499490D01*
X30152240Y-54469283D01*
X30270483Y-54364530D01*
X30272524Y-54361574D01*
X30354099Y-54243391D01*
X30395368Y-54214079D01*
X30445822Y-54218152D01*
X30475901Y-54243391D01*
X30559515Y-54364529D01*
X30650777Y-54445379D01*
X30677760Y-54469283D01*
X30817635Y-54542696D01*
X30971015Y-54580500D01*
X30971016Y-54580500D01*
X31128984Y-54580500D01*
X31128985Y-54580500D01*
X31282365Y-54542696D01*
X31422240Y-54469283D01*
X31540483Y-54364530D01*
X31542524Y-54361574D01*
X31561706Y-54333782D01*
X31630220Y-54234523D01*
X31658289Y-54160512D01*
X34050513Y-54160512D01*
X34069119Y-54277995D01*
X34123119Y-54383975D01*
X34207230Y-54468086D01*
X34313210Y-54522086D01*
X34345359Y-54527177D01*
X34418558Y-54538771D01*
X34439185Y-54550204D01*
X34463617Y-54535524D01*
X34466133Y-54535080D01*
X34528958Y-54525129D01*
X34548177Y-54522086D01*
X34654157Y-54468086D01*
X34654156Y-54468086D01*
X34654159Y-54468085D01*
X34738267Y-54383977D01*
X34749682Y-54361574D01*
X34792268Y-54277995D01*
X34800904Y-54223465D01*
X34810875Y-54160512D01*
X34792268Y-54043030D01*
X34792268Y-54043028D01*
X34738268Y-53937048D01*
X34654157Y-53852937D01*
X34548177Y-53798937D01*
X34430694Y-53780331D01*
X34313210Y-53798937D01*
X34207230Y-53852937D01*
X34123119Y-53937048D01*
X34069119Y-54043028D01*
X34050513Y-54160512D01*
X31658289Y-54160512D01*
X31686237Y-54086818D01*
X31705278Y-53930000D01*
X31686237Y-53773182D01*
X31630220Y-53625477D01*
X31608996Y-53594729D01*
X31540484Y-53495470D01*
X31422240Y-53390717D01*
X31364711Y-53360523D01*
X31330639Y-53323089D01*
X31329709Y-53300000D01*
X60719819Y-53300000D01*
X60738425Y-53417483D01*
X60792425Y-53523463D01*
X60876536Y-53607574D01*
X60982516Y-53661574D01*
X61014642Y-53666661D01*
X61100000Y-53680181D01*
X61203351Y-53663811D01*
X61217483Y-53661574D01*
X61323463Y-53607574D01*
X61323462Y-53607574D01*
X61323465Y-53607573D01*
X61407573Y-53523465D01*
X61421838Y-53495469D01*
X61461574Y-53417483D01*
X61471067Y-53357544D01*
X61480181Y-53300000D01*
X61461574Y-53182518D01*
X61461574Y-53182516D01*
X61407574Y-53076536D01*
X61323463Y-52992425D01*
X61217483Y-52938425D01*
X61100000Y-52919819D01*
X60982516Y-52938425D01*
X60876536Y-52992425D01*
X60792425Y-53076536D01*
X60738425Y-53182516D01*
X60719819Y-53300000D01*
X31329709Y-53300000D01*
X31328601Y-53272511D01*
X31359550Y-53232456D01*
X31364704Y-53229480D01*
X31422240Y-53199283D01*
X31540483Y-53094530D01*
X31630220Y-52964523D01*
X31686237Y-52816818D01*
X31705278Y-52660000D01*
X31691965Y-52550353D01*
X41134483Y-52550353D01*
X41153089Y-52667836D01*
X41207089Y-52773816D01*
X41291200Y-52857927D01*
X41397180Y-52911927D01*
X41429306Y-52917014D01*
X41514664Y-52930534D01*
X41618015Y-52914164D01*
X41632147Y-52911927D01*
X41738127Y-52857927D01*
X41738126Y-52857927D01*
X41738129Y-52857926D01*
X41822237Y-52773818D01*
X41824184Y-52769996D01*
X41876238Y-52667836D01*
X41878781Y-52651772D01*
X41894845Y-52550353D01*
X41876238Y-52432871D01*
X41876238Y-52432869D01*
X41822238Y-52326889D01*
X41738127Y-52242778D01*
X41632147Y-52188778D01*
X41528794Y-52172409D01*
X41514664Y-52170172D01*
X41514663Y-52170172D01*
X41397180Y-52188778D01*
X41291200Y-52242778D01*
X41207089Y-52326889D01*
X41153089Y-52432869D01*
X41134483Y-52550353D01*
X31691965Y-52550353D01*
X31686237Y-52503182D01*
X31630220Y-52355477D01*
X31597155Y-52307574D01*
X31540484Y-52225470D01*
X31422240Y-52120717D01*
X31416076Y-52117482D01*
X31364711Y-52090523D01*
X31330639Y-52053089D01*
X31328601Y-52002511D01*
X31359550Y-51962456D01*
X31364704Y-51959480D01*
X31422240Y-51929283D01*
X31540483Y-51824530D01*
X31541220Y-51823463D01*
X31573611Y-51776535D01*
X31630220Y-51694523D01*
X31686237Y-51546818D01*
X31705278Y-51390000D01*
X31686237Y-51233182D01*
X31630220Y-51085477D01*
X31608996Y-51054729D01*
X31540484Y-50955470D01*
X31477869Y-50899999D01*
X34819819Y-50899999D01*
X34838425Y-51017483D01*
X34892425Y-51123463D01*
X34976536Y-51207574D01*
X35082516Y-51261574D01*
X35114642Y-51266661D01*
X35200000Y-51280181D01*
X35218623Y-51277231D01*
X35268311Y-51286889D01*
X35300166Y-51326228D01*
X35303288Y-51361892D01*
X35301488Y-51373258D01*
X35320094Y-51490742D01*
X35374094Y-51596722D01*
X35432561Y-51655189D01*
X35453953Y-51701065D01*
X35446170Y-51741110D01*
X35390086Y-51851180D01*
X35371480Y-51968662D01*
X35390086Y-52086145D01*
X35444086Y-52192125D01*
X35528197Y-52276236D01*
X35634177Y-52330236D01*
X35666303Y-52335323D01*
X35751661Y-52348843D01*
X35855012Y-52332473D01*
X35869144Y-52330236D01*
X35975124Y-52276236D01*
X35975123Y-52276236D01*
X35975126Y-52276235D01*
X36059234Y-52192127D01*
X36095619Y-52120718D01*
X36113235Y-52086145D01*
X36119357Y-52047489D01*
X36131842Y-51968662D01*
X36120967Y-51900000D01*
X46119819Y-51900000D01*
X46138425Y-52017483D01*
X46192425Y-52123463D01*
X46276536Y-52207574D01*
X46382516Y-52261574D01*
X46410778Y-52266049D01*
X46500000Y-52280181D01*
X46601419Y-52264117D01*
X46617483Y-52261574D01*
X46723463Y-52207574D01*
X46723462Y-52207574D01*
X46723465Y-52207573D01*
X46807573Y-52123465D01*
X46825876Y-52087544D01*
X46861574Y-52017483D01*
X46864343Y-52000000D01*
X47819819Y-52000000D01*
X47838425Y-52117483D01*
X47892425Y-52223463D01*
X47976536Y-52307574D01*
X48082516Y-52361574D01*
X48110778Y-52366049D01*
X48200000Y-52380181D01*
X48301419Y-52364117D01*
X48317483Y-52361574D01*
X48423463Y-52307574D01*
X48423462Y-52307574D01*
X48423465Y-52307573D01*
X48507573Y-52223465D01*
X48515670Y-52207573D01*
X48561574Y-52117483D01*
X48565844Y-52090524D01*
X48580181Y-52000000D01*
X48580181Y-51999999D01*
X50519819Y-51999999D01*
X50538425Y-52117483D01*
X50592425Y-52223463D01*
X50676536Y-52307574D01*
X50782516Y-52361574D01*
X50814642Y-52366661D01*
X50900000Y-52380181D01*
X51003351Y-52363811D01*
X51017483Y-52361574D01*
X51123463Y-52307574D01*
X51123462Y-52307574D01*
X51123465Y-52307573D01*
X51207573Y-52223465D01*
X51215670Y-52207573D01*
X51261574Y-52117483D01*
X51265844Y-52090524D01*
X51280181Y-52000000D01*
X51280181Y-51999999D01*
X51519819Y-51999999D01*
X51538425Y-52117483D01*
X51592425Y-52223463D01*
X51676536Y-52307574D01*
X51782516Y-52361574D01*
X51810778Y-52366049D01*
X51900000Y-52380181D01*
X52001419Y-52364117D01*
X52017483Y-52361574D01*
X52123463Y-52307574D01*
X52123462Y-52307574D01*
X52123465Y-52307573D01*
X52207573Y-52223465D01*
X52215670Y-52207573D01*
X52261574Y-52117483D01*
X52265844Y-52090524D01*
X52280181Y-52000000D01*
X52261574Y-51882518D01*
X52261574Y-51882516D01*
X52207574Y-51776536D01*
X52123463Y-51692425D01*
X52017483Y-51638425D01*
X51900000Y-51619819D01*
X51782516Y-51638425D01*
X51676536Y-51692425D01*
X51592425Y-51776536D01*
X51538425Y-51882516D01*
X51519819Y-51999999D01*
X51280181Y-51999999D01*
X51261574Y-51882518D01*
X51261574Y-51882516D01*
X51207574Y-51776536D01*
X51123463Y-51692425D01*
X51017483Y-51638425D01*
X50900000Y-51619819D01*
X50782516Y-51638425D01*
X50676536Y-51692425D01*
X50592425Y-51776536D01*
X50538425Y-51882516D01*
X50519819Y-51999999D01*
X48580181Y-51999999D01*
X48561574Y-51882518D01*
X48561574Y-51882516D01*
X48507574Y-51776536D01*
X48423463Y-51692425D01*
X48317483Y-51638425D01*
X48214130Y-51622056D01*
X48200000Y-51619819D01*
X48199999Y-51619819D01*
X48082516Y-51638425D01*
X47976536Y-51692425D01*
X47892425Y-51776536D01*
X47838425Y-51882516D01*
X47819819Y-52000000D01*
X46864343Y-52000000D01*
X46870289Y-51962456D01*
X46880181Y-51900000D01*
X46861574Y-51782518D01*
X46861574Y-51782516D01*
X46807574Y-51676536D01*
X46731037Y-51599999D01*
X52719819Y-51599999D01*
X52738425Y-51717483D01*
X52792425Y-51823463D01*
X52876536Y-51907574D01*
X52982516Y-51961574D01*
X53010778Y-51966049D01*
X53100000Y-51980181D01*
X53201419Y-51964117D01*
X53217483Y-51961574D01*
X53323463Y-51907574D01*
X53323462Y-51907574D01*
X53323465Y-51907573D01*
X53407573Y-51823465D01*
X53449535Y-51741110D01*
X53461574Y-51717483D01*
X53465542Y-51692427D01*
X53465692Y-51691480D01*
X54719819Y-51691480D01*
X54722056Y-51705610D01*
X54738425Y-51808963D01*
X54792425Y-51914943D01*
X54876536Y-51999054D01*
X54982516Y-52053054D01*
X55010778Y-52057529D01*
X55100000Y-52071661D01*
X55201419Y-52055597D01*
X55217483Y-52053054D01*
X55323463Y-51999054D01*
X55323462Y-51999054D01*
X55323465Y-51999053D01*
X55407573Y-51914945D01*
X55415188Y-51900000D01*
X55461574Y-51808963D01*
X55465762Y-51782518D01*
X55480181Y-51691480D01*
X55464493Y-51592427D01*
X55461574Y-51573996D01*
X55423871Y-51500000D01*
X56819196Y-51500000D01*
X56840281Y-51633126D01*
X56901472Y-51753220D01*
X56996780Y-51848528D01*
X57116874Y-51909719D01*
X57250000Y-51930804D01*
X57383126Y-51909719D01*
X57503220Y-51848528D01*
X57598528Y-51753220D01*
X57625645Y-51700000D01*
X62319819Y-51700000D01*
X62338425Y-51817483D01*
X62392425Y-51923463D01*
X62476536Y-52007574D01*
X62582516Y-52061574D01*
X62614642Y-52066661D01*
X62700000Y-52080181D01*
X62803351Y-52063811D01*
X62817483Y-52061574D01*
X62923463Y-52007574D01*
X62923462Y-52007574D01*
X62923465Y-52007573D01*
X63007573Y-51923465D01*
X63044405Y-51851178D01*
X63061574Y-51817483D01*
X63064117Y-51801419D01*
X63080181Y-51700000D01*
X63063824Y-51596722D01*
X63061574Y-51582516D01*
X63007574Y-51476536D01*
X62923463Y-51392425D01*
X62817483Y-51338425D01*
X62700000Y-51319819D01*
X62582516Y-51338425D01*
X62476536Y-51392425D01*
X62392425Y-51476536D01*
X62338425Y-51582516D01*
X62319819Y-51700000D01*
X57625645Y-51700000D01*
X57659719Y-51633126D01*
X57680804Y-51500000D01*
X57659719Y-51366874D01*
X57598528Y-51246780D01*
X57503220Y-51151472D01*
X57383126Y-51090281D01*
X57250000Y-51069196D01*
X57116874Y-51090281D01*
X57086181Y-51105920D01*
X56996779Y-51151472D01*
X56901472Y-51246779D01*
X56894413Y-51260634D01*
X56840281Y-51366874D01*
X56819196Y-51500000D01*
X55423871Y-51500000D01*
X55407574Y-51468016D01*
X55323463Y-51383905D01*
X55217483Y-51329905D01*
X55100000Y-51311299D01*
X54982516Y-51329905D01*
X54876536Y-51383905D01*
X54792425Y-51468016D01*
X54738425Y-51573996D01*
X54724632Y-51661089D01*
X54719819Y-51691480D01*
X53465692Y-51691480D01*
X53480181Y-51600000D01*
X53462877Y-51490742D01*
X53461574Y-51482516D01*
X53407574Y-51376536D01*
X53323463Y-51292425D01*
X53217483Y-51238425D01*
X53100000Y-51219819D01*
X52982516Y-51238425D01*
X52876536Y-51292425D01*
X52792425Y-51376536D01*
X52738425Y-51482516D01*
X52719819Y-51599999D01*
X46731037Y-51599999D01*
X46723463Y-51592425D01*
X46617483Y-51538425D01*
X46500000Y-51519819D01*
X46382516Y-51538425D01*
X46276536Y-51592425D01*
X46192425Y-51676536D01*
X46138425Y-51782516D01*
X46119819Y-51900000D01*
X36120967Y-51900000D01*
X36113235Y-51851180D01*
X36113235Y-51851178D01*
X36059235Y-51745198D01*
X36000768Y-51686731D01*
X35979376Y-51640855D01*
X35987160Y-51600809D01*
X35989240Y-51596725D01*
X35989242Y-51596724D01*
X36043243Y-51490741D01*
X36061850Y-51373259D01*
X36044161Y-51261574D01*
X36043243Y-51255775D01*
X36015079Y-51200500D01*
X36868696Y-51200500D01*
X36889781Y-51333626D01*
X36950972Y-51453720D01*
X37046280Y-51549028D01*
X37166374Y-51610219D01*
X37299500Y-51631304D01*
X37432626Y-51610219D01*
X37552720Y-51549028D01*
X37648028Y-51453720D01*
X37709219Y-51333626D01*
X37730304Y-51200500D01*
X37709219Y-51067374D01*
X37648028Y-50947280D01*
X37552720Y-50851972D01*
X37432626Y-50790781D01*
X37299500Y-50769696D01*
X37166374Y-50790781D01*
X37133418Y-50807573D01*
X37046279Y-50851972D01*
X36950972Y-50947279D01*
X36946799Y-50955469D01*
X36889781Y-51067374D01*
X36868696Y-51200500D01*
X36015079Y-51200500D01*
X35989243Y-51149795D01*
X35905132Y-51065684D01*
X35799152Y-51011684D01*
X35681666Y-50993077D01*
X35663042Y-50996027D01*
X35613354Y-50986367D01*
X35581500Y-50947027D01*
X35578381Y-50911362D01*
X35580181Y-50900000D01*
X35562883Y-50790781D01*
X35561574Y-50782516D01*
X35507574Y-50676536D01*
X35423463Y-50592425D01*
X35317483Y-50538425D01*
X35200000Y-50519819D01*
X35082516Y-50538425D01*
X34976536Y-50592425D01*
X34892425Y-50676536D01*
X34838425Y-50782516D01*
X34819819Y-50899999D01*
X31477869Y-50899999D01*
X31422240Y-50850717D01*
X31364711Y-50820523D01*
X31330639Y-50783089D01*
X31328601Y-50732511D01*
X31359550Y-50692456D01*
X31364704Y-50689480D01*
X31422240Y-50659283D01*
X31540483Y-50554530D01*
X31551600Y-50538425D01*
X31578123Y-50499999D01*
X33219819Y-50499999D01*
X33238425Y-50617483D01*
X33292425Y-50723463D01*
X33376536Y-50807574D01*
X33482516Y-50861574D01*
X33510778Y-50866049D01*
X33600000Y-50880181D01*
X33701419Y-50864117D01*
X33717483Y-50861574D01*
X33823463Y-50807574D01*
X33823462Y-50807574D01*
X33823465Y-50807573D01*
X33907573Y-50723465D01*
X33931485Y-50676535D01*
X33961574Y-50617483D01*
X33965542Y-50592427D01*
X33980181Y-50500000D01*
X33961574Y-50382518D01*
X33961574Y-50382516D01*
X33907574Y-50276536D01*
X33873027Y-50241989D01*
X33851635Y-50196113D01*
X33864736Y-50147218D01*
X33891756Y-50123729D01*
X33923465Y-50107573D01*
X33931038Y-50100000D01*
X61419819Y-50100000D01*
X61438425Y-50217483D01*
X61492425Y-50323463D01*
X61576536Y-50407574D01*
X61682516Y-50461574D01*
X61710778Y-50466049D01*
X61800000Y-50480181D01*
X61901419Y-50464117D01*
X61917483Y-50461574D01*
X62023463Y-50407574D01*
X62023462Y-50407574D01*
X62023465Y-50407573D01*
X62107573Y-50323465D01*
X62149087Y-50241989D01*
X62161574Y-50217483D01*
X62168101Y-50176270D01*
X62180181Y-50100000D01*
X62161574Y-49982518D01*
X62161574Y-49982516D01*
X62107574Y-49876536D01*
X62023463Y-49792425D01*
X61917483Y-49738425D01*
X61800000Y-49719819D01*
X61682516Y-49738425D01*
X61576536Y-49792425D01*
X61492425Y-49876536D01*
X61438425Y-49982516D01*
X61419819Y-50100000D01*
X33931038Y-50100000D01*
X34007573Y-50023465D01*
X34039951Y-49959920D01*
X34061574Y-49917483D01*
X34068059Y-49876535D01*
X34080181Y-49800000D01*
X34062042Y-49685470D01*
X34061574Y-49682516D01*
X34007574Y-49576536D01*
X33923463Y-49492425D01*
X33817483Y-49438425D01*
X33700000Y-49419819D01*
X33582516Y-49438425D01*
X33476536Y-49492425D01*
X33392425Y-49576536D01*
X33338425Y-49682516D01*
X33319819Y-49800000D01*
X33338425Y-49917483D01*
X33392425Y-50023463D01*
X33426972Y-50058010D01*
X33448364Y-50103886D01*
X33435263Y-50152781D01*
X33408243Y-50176270D01*
X33376535Y-50192426D01*
X33292425Y-50276536D01*
X33238425Y-50382516D01*
X33219819Y-50499999D01*
X31578123Y-50499999D01*
X31591802Y-50480181D01*
X31630220Y-50424523D01*
X31686237Y-50276818D01*
X31705278Y-50120000D01*
X31686237Y-49963182D01*
X31630220Y-49815477D01*
X31577036Y-49738426D01*
X31540484Y-49685470D01*
X31422238Y-49580715D01*
X31364711Y-49550522D01*
X31330639Y-49513087D01*
X31328601Y-49462509D01*
X31359551Y-49422455D01*
X31364685Y-49419490D01*
X31422240Y-49389283D01*
X31540483Y-49284530D01*
X31546085Y-49276415D01*
X31564663Y-49249499D01*
X31630220Y-49154523D01*
X31686237Y-49006818D01*
X31705278Y-48850000D01*
X31695756Y-48771580D01*
X43998686Y-48771580D01*
X44019771Y-48904706D01*
X44080962Y-49024800D01*
X44176270Y-49120108D01*
X44296364Y-49181299D01*
X44429490Y-49202384D01*
X44562616Y-49181299D01*
X44682710Y-49120108D01*
X44778018Y-49024800D01*
X44839209Y-48904706D01*
X44839954Y-48900000D01*
X48119819Y-48900000D01*
X48138425Y-49017483D01*
X48192425Y-49123463D01*
X48276536Y-49207574D01*
X48382516Y-49261574D01*
X48410778Y-49266049D01*
X48500000Y-49280181D01*
X48601419Y-49264117D01*
X48617483Y-49261574D01*
X48638237Y-49250999D01*
X50219819Y-49250999D01*
X50238425Y-49368483D01*
X50292425Y-49474463D01*
X50376536Y-49558574D01*
X50482516Y-49612574D01*
X50510778Y-49617049D01*
X50600000Y-49631181D01*
X50701419Y-49615117D01*
X50717483Y-49612574D01*
X50823463Y-49558574D01*
X50823462Y-49558574D01*
X50823465Y-49558573D01*
X50907573Y-49474465D01*
X50925936Y-49438425D01*
X50961574Y-49368483D01*
X50964117Y-49352419D01*
X50980181Y-49251000D01*
X50980181Y-49250999D01*
X51719819Y-49250999D01*
X51738425Y-49368483D01*
X51792425Y-49474463D01*
X51876536Y-49558574D01*
X51982516Y-49612574D01*
X52010778Y-49617049D01*
X52100000Y-49631181D01*
X52201419Y-49615117D01*
X52217483Y-49612574D01*
X52323463Y-49558574D01*
X52323462Y-49558574D01*
X52323465Y-49558573D01*
X52407573Y-49474465D01*
X52425936Y-49438425D01*
X52461574Y-49368483D01*
X52463811Y-49354351D01*
X52476155Y-49276415D01*
X54597426Y-49276415D01*
X54616032Y-49393899D01*
X54670032Y-49499879D01*
X54754143Y-49583990D01*
X54860123Y-49637990D01*
X54888385Y-49642465D01*
X54977607Y-49656597D01*
X55079026Y-49640533D01*
X55095090Y-49637990D01*
X55201070Y-49583990D01*
X55201069Y-49583990D01*
X55201072Y-49583989D01*
X55285180Y-49499881D01*
X55298894Y-49472965D01*
X55339181Y-49393899D01*
X55355906Y-49288296D01*
X55355906Y-49288295D01*
X56190770Y-49288295D01*
X56209376Y-49405779D01*
X56263376Y-49511759D01*
X56347487Y-49595870D01*
X56453467Y-49649870D01*
X56481729Y-49654345D01*
X56570951Y-49668477D01*
X56672370Y-49652413D01*
X56688434Y-49649870D01*
X56794413Y-49595871D01*
X56794413Y-49595870D01*
X56794416Y-49595869D01*
X56852548Y-49537736D01*
X56898423Y-49516345D01*
X56947317Y-49529445D01*
X56957199Y-49537737D01*
X56976536Y-49557074D01*
X57082516Y-49611074D01*
X57110778Y-49615549D01*
X57200000Y-49629681D01*
X57301419Y-49613617D01*
X57317483Y-49611074D01*
X57423463Y-49557074D01*
X57423462Y-49557074D01*
X57423465Y-49557073D01*
X57507573Y-49472965D01*
X57515753Y-49456911D01*
X57561574Y-49366983D01*
X57574036Y-49288296D01*
X57580181Y-49249500D01*
X57562546Y-49138152D01*
X57561574Y-49132016D01*
X57507574Y-49026036D01*
X57423463Y-48941925D01*
X57317483Y-48887925D01*
X57200000Y-48869319D01*
X57082516Y-48887925D01*
X56976536Y-48941925D01*
X56918403Y-49000058D01*
X56872526Y-49021450D01*
X56823632Y-49008349D01*
X56813751Y-49000058D01*
X56794414Y-48980721D01*
X56688434Y-48926721D01*
X56570951Y-48908115D01*
X56453467Y-48926721D01*
X56347487Y-48980721D01*
X56263376Y-49064832D01*
X56209376Y-49170812D01*
X56190770Y-49288295D01*
X55355906Y-49288295D01*
X55357788Y-49276416D01*
X55339181Y-49158934D01*
X55339181Y-49158932D01*
X55285181Y-49052952D01*
X55201070Y-48968841D01*
X55095090Y-48914841D01*
X54977607Y-48896235D01*
X54860123Y-48914841D01*
X54754143Y-48968841D01*
X54670032Y-49052952D01*
X54616032Y-49158932D01*
X54597426Y-49276415D01*
X52476155Y-49276415D01*
X52480181Y-49251000D01*
X52461574Y-49133518D01*
X52461574Y-49133516D01*
X52407574Y-49027536D01*
X52323463Y-48943425D01*
X52217483Y-48889425D01*
X52100000Y-48870819D01*
X51982516Y-48889425D01*
X51876536Y-48943425D01*
X51792425Y-49027536D01*
X51738425Y-49133516D01*
X51719819Y-49250999D01*
X50980181Y-49250999D01*
X50961574Y-49133518D01*
X50961574Y-49133516D01*
X50907574Y-49027536D01*
X50823463Y-48943425D01*
X50717483Y-48889425D01*
X50600000Y-48870819D01*
X50482516Y-48889425D01*
X50376536Y-48943425D01*
X50292425Y-49027536D01*
X50238425Y-49133516D01*
X50219819Y-49250999D01*
X48638237Y-49250999D01*
X48723463Y-49207574D01*
X48723462Y-49207574D01*
X48723465Y-49207573D01*
X48807573Y-49123465D01*
X48837448Y-49064832D01*
X48861574Y-49017483D01*
X48867482Y-48980180D01*
X48880181Y-48900000D01*
X48861574Y-48782518D01*
X48861574Y-48782516D01*
X48807574Y-48676536D01*
X48723463Y-48592425D01*
X48617483Y-48538425D01*
X48500000Y-48519819D01*
X48382516Y-48538425D01*
X48276536Y-48592425D01*
X48192425Y-48676536D01*
X48138425Y-48782516D01*
X48119819Y-48900000D01*
X44839954Y-48900000D01*
X44860294Y-48771580D01*
X44839209Y-48638454D01*
X44778018Y-48518360D01*
X44682710Y-48423052D01*
X44562616Y-48361861D01*
X44429490Y-48340776D01*
X44296364Y-48361861D01*
X44284316Y-48368000D01*
X44176269Y-48423052D01*
X44080962Y-48518359D01*
X44067145Y-48545477D01*
X44019771Y-48638454D01*
X43998686Y-48771580D01*
X31695756Y-48771580D01*
X31686237Y-48693182D01*
X31630220Y-48545477D01*
X31586763Y-48482518D01*
X31540484Y-48415470D01*
X31422240Y-48310717D01*
X31412464Y-48305586D01*
X31364711Y-48280523D01*
X31330639Y-48243089D01*
X31328601Y-48192511D01*
X31359550Y-48152456D01*
X31364704Y-48149480D01*
X31422240Y-48119283D01*
X31540483Y-48014530D01*
X31542524Y-48011574D01*
X31564193Y-47980180D01*
X31630220Y-47884523D01*
X31686237Y-47736818D01*
X31696779Y-47649999D01*
X33368819Y-47649999D01*
X33387425Y-47767483D01*
X33441425Y-47873463D01*
X33525536Y-47957574D01*
X33631516Y-48011574D01*
X33663642Y-48016661D01*
X33749000Y-48030181D01*
X33852351Y-48013811D01*
X33866483Y-48011574D01*
X33972463Y-47957574D01*
X33972462Y-47957574D01*
X33972465Y-47957573D01*
X34056573Y-47873465D01*
X34063936Y-47859015D01*
X34110574Y-47767483D01*
X34115176Y-47738425D01*
X34129181Y-47650000D01*
X34116710Y-47571261D01*
X34126369Y-47521574D01*
X34156204Y-47493752D01*
X34162770Y-47490406D01*
X34162772Y-47490406D01*
X34268755Y-47436405D01*
X34352863Y-47352297D01*
X34371276Y-47316160D01*
X34406864Y-47246315D01*
X34411060Y-47219819D01*
X34417265Y-47180638D01*
X34441805Y-47136367D01*
X34489061Y-47118226D01*
X34523949Y-47126280D01*
X34528956Y-47128831D01*
X34552009Y-47140577D01*
X34665828Y-47158603D01*
X34710100Y-47183143D01*
X34727341Y-47220116D01*
X34745530Y-47334967D01*
X34799530Y-47440947D01*
X34799532Y-47440949D01*
X34883640Y-47525057D01*
X34946966Y-47557323D01*
X34981488Y-47594344D01*
X34983832Y-47639063D01*
X34984270Y-47639133D01*
X34983943Y-47641191D01*
X34984138Y-47644893D01*
X34982854Y-47648069D01*
X34963830Y-47768191D01*
X34982436Y-47885674D01*
X35036436Y-47991654D01*
X35120547Y-48075765D01*
X35226527Y-48129765D01*
X35254789Y-48134240D01*
X35344011Y-48148372D01*
X35445430Y-48132308D01*
X35461494Y-48129765D01*
X35567474Y-48075765D01*
X35567473Y-48075765D01*
X35567476Y-48075764D01*
X35594240Y-48049000D01*
X41029655Y-48049000D01*
X41031892Y-48063130D01*
X41048261Y-48166483D01*
X41102261Y-48272463D01*
X41186372Y-48356574D01*
X41292352Y-48410574D01*
X41320614Y-48415049D01*
X41409836Y-48429181D01*
X41511255Y-48413117D01*
X41527319Y-48410574D01*
X41633299Y-48356574D01*
X41633298Y-48356574D01*
X41633301Y-48356573D01*
X41717409Y-48272465D01*
X41717409Y-48272464D01*
X41725697Y-48264177D01*
X41728321Y-48266801D01*
X41750017Y-48246550D01*
X41800566Y-48243877D01*
X41831290Y-48262328D01*
X41876536Y-48307574D01*
X41982516Y-48361574D01*
X42010778Y-48366049D01*
X42100000Y-48380181D01*
X42201419Y-48364117D01*
X42217483Y-48361574D01*
X42323463Y-48307574D01*
X42323462Y-48307574D01*
X42323465Y-48307573D01*
X42407573Y-48223465D01*
X42436607Y-48166483D01*
X42461574Y-48117483D01*
X42464343Y-48100000D01*
X42473031Y-48045142D01*
X42480806Y-48031115D01*
X42611858Y-48031115D01*
X42618759Y-48042599D01*
X42619208Y-48045144D01*
X42638425Y-48166483D01*
X42692425Y-48272463D01*
X42776536Y-48356574D01*
X42882516Y-48410574D01*
X42910778Y-48415049D01*
X43000000Y-48429181D01*
X43101419Y-48413117D01*
X43117483Y-48410574D01*
X43223463Y-48356574D01*
X43223462Y-48356574D01*
X43223465Y-48356573D01*
X43307573Y-48272465D01*
X43325394Y-48237489D01*
X43344496Y-48200000D01*
X44819819Y-48200000D01*
X44838425Y-48317483D01*
X44892425Y-48423463D01*
X44976536Y-48507574D01*
X45082516Y-48561574D01*
X45109958Y-48565920D01*
X45200000Y-48580181D01*
X45301419Y-48564117D01*
X45317483Y-48561574D01*
X45423463Y-48507574D01*
X45423462Y-48507574D01*
X45423465Y-48507573D01*
X45497673Y-48433364D01*
X45543550Y-48411972D01*
X45592445Y-48425073D01*
X45602326Y-48433364D01*
X45676536Y-48507574D01*
X45782516Y-48561574D01*
X45809958Y-48565920D01*
X45900000Y-48580181D01*
X46001419Y-48564117D01*
X46017483Y-48561574D01*
X46123463Y-48507574D01*
X46123462Y-48507574D01*
X46123465Y-48507573D01*
X46207573Y-48423465D01*
X46245010Y-48349991D01*
X46261574Y-48317483D01*
X46265542Y-48292427D01*
X46280181Y-48200000D01*
X46264343Y-48100000D01*
X46919819Y-48100000D01*
X46938425Y-48217483D01*
X46992425Y-48323463D01*
X47076536Y-48407574D01*
X47182516Y-48461574D01*
X47210778Y-48466049D01*
X47300000Y-48480181D01*
X47401419Y-48464117D01*
X47417483Y-48461574D01*
X47523463Y-48407574D01*
X47523462Y-48407574D01*
X47523465Y-48407573D01*
X47607573Y-48323465D01*
X47610182Y-48318345D01*
X50192252Y-48318345D01*
X50210858Y-48435828D01*
X50264858Y-48541808D01*
X50348969Y-48625919D01*
X50454949Y-48679919D01*
X50483211Y-48684394D01*
X50572433Y-48698526D01*
X50673852Y-48682462D01*
X50689916Y-48679919D01*
X50795896Y-48625919D01*
X50795895Y-48625919D01*
X50795898Y-48625918D01*
X50880006Y-48541810D01*
X50911408Y-48480180D01*
X50934007Y-48435828D01*
X50942820Y-48380180D01*
X50944749Y-48367998D01*
X50969289Y-48323727D01*
X51016545Y-48305586D01*
X51051433Y-48313640D01*
X51076783Y-48326557D01*
X51194265Y-48345164D01*
X51295684Y-48329100D01*
X51311748Y-48326557D01*
X51417728Y-48272557D01*
X51417727Y-48272557D01*
X51417730Y-48272556D01*
X51501838Y-48188448D01*
X51522258Y-48148371D01*
X51555839Y-48082466D01*
X51562153Y-48042599D01*
X51574446Y-47964983D01*
X51557249Y-47856405D01*
X51555839Y-47847499D01*
X51501839Y-47741519D01*
X51417728Y-47657408D01*
X51311748Y-47603408D01*
X51290229Y-47600000D01*
X53419819Y-47600000D01*
X53438425Y-47717483D01*
X53492425Y-47823463D01*
X53576536Y-47907574D01*
X53682516Y-47961574D01*
X53710778Y-47966049D01*
X53800000Y-47980181D01*
X53917482Y-47961574D01*
X53965399Y-47937158D01*
X54015641Y-47930989D01*
X54058094Y-47958558D01*
X54064927Y-47969493D01*
X54084330Y-48007573D01*
X54092427Y-48023465D01*
X54176536Y-48107574D01*
X54282516Y-48161574D01*
X54310778Y-48166049D01*
X54400000Y-48180181D01*
X54501419Y-48164117D01*
X54517483Y-48161574D01*
X54623463Y-48107574D01*
X54623462Y-48107574D01*
X54623465Y-48107573D01*
X54707573Y-48023465D01*
X54719529Y-48000000D01*
X54761574Y-47917483D01*
X54764974Y-47896012D01*
X54780181Y-47800000D01*
X54761574Y-47682518D01*
X54754775Y-47669174D01*
X54748605Y-47618933D01*
X54776174Y-47576480D01*
X54824581Y-47561679D01*
X54836733Y-47564935D01*
X54836760Y-47564769D01*
X54875356Y-47570881D01*
X54965818Y-47585209D01*
X55067237Y-47569145D01*
X55083301Y-47566602D01*
X55189280Y-47512603D01*
X55189280Y-47512602D01*
X55189283Y-47512601D01*
X55233098Y-47468785D01*
X55278971Y-47447394D01*
X55327865Y-47460494D01*
X55337748Y-47468786D01*
X55379804Y-47510842D01*
X55485784Y-47564842D01*
X55517910Y-47569929D01*
X55603268Y-47583449D01*
X55641155Y-47577448D01*
X55690843Y-47587107D01*
X55722698Y-47626445D01*
X55725819Y-47662111D01*
X55719818Y-47699999D01*
X55732088Y-47777471D01*
X55722429Y-47827160D01*
X55683090Y-47859015D01*
X55670576Y-47862135D01*
X55615024Y-47870933D01*
X55509044Y-47924933D01*
X55424933Y-48009044D01*
X55370933Y-48115024D01*
X55352327Y-48232507D01*
X55370933Y-48349991D01*
X55424933Y-48455971D01*
X55509044Y-48540082D01*
X55615024Y-48594082D01*
X55643286Y-48598557D01*
X55732508Y-48612689D01*
X55812619Y-48600000D01*
X59919819Y-48600000D01*
X59938425Y-48717483D01*
X59992425Y-48823463D01*
X60076536Y-48907574D01*
X60182516Y-48961574D01*
X60210778Y-48966049D01*
X60300000Y-48980181D01*
X60401419Y-48964117D01*
X60417483Y-48961574D01*
X60523463Y-48907574D01*
X60523462Y-48907574D01*
X60523465Y-48907573D01*
X60607573Y-48823465D01*
X60634010Y-48771580D01*
X60661574Y-48717483D01*
X60664576Y-48698525D01*
X60680181Y-48600000D01*
X60661574Y-48482518D01*
X60661574Y-48482516D01*
X60607574Y-48376536D01*
X60523463Y-48292425D01*
X60417483Y-48238425D01*
X60300000Y-48219819D01*
X60182516Y-48238425D01*
X60076536Y-48292425D01*
X59992425Y-48376536D01*
X59938425Y-48482516D01*
X59919819Y-48600000D01*
X55812619Y-48600000D01*
X55833927Y-48596625D01*
X55849991Y-48594082D01*
X55955971Y-48540082D01*
X55955970Y-48540082D01*
X55955973Y-48540081D01*
X56040081Y-48455973D01*
X56078699Y-48380181D01*
X56094082Y-48349991D01*
X56097793Y-48326557D01*
X56112689Y-48232508D01*
X56100418Y-48155034D01*
X56110076Y-48105348D01*
X56149415Y-48073493D01*
X56161930Y-48070372D01*
X56183946Y-48066885D01*
X56217483Y-48061574D01*
X56323463Y-48007574D01*
X56323462Y-48007574D01*
X56323465Y-48007573D01*
X56407573Y-47923465D01*
X56421561Y-47896012D01*
X56461574Y-47817483D01*
X56465542Y-47792427D01*
X56480181Y-47700000D01*
X56461936Y-47584802D01*
X56461574Y-47582516D01*
X56419530Y-47500000D01*
X59319819Y-47500000D01*
X59338425Y-47617483D01*
X59392425Y-47723463D01*
X59476536Y-47807574D01*
X59582516Y-47861574D01*
X59610778Y-47866049D01*
X59700000Y-47880181D01*
X59801666Y-47864079D01*
X59817483Y-47861574D01*
X59923463Y-47807574D01*
X59923462Y-47807574D01*
X59923465Y-47807573D01*
X60007573Y-47723465D01*
X60035417Y-47668819D01*
X60061574Y-47617483D01*
X60066685Y-47585209D01*
X60080181Y-47500000D01*
X60064710Y-47402319D01*
X60061574Y-47382516D01*
X60007574Y-47276536D01*
X59923463Y-47192425D01*
X59896970Y-47178926D01*
X59862448Y-47141905D01*
X59859800Y-47091355D01*
X59890264Y-47050930D01*
X59896954Y-47047066D01*
X59974465Y-47007573D01*
X60058573Y-46923465D01*
X60080987Y-46879476D01*
X60112574Y-46817483D01*
X60115563Y-46798611D01*
X60131181Y-46700000D01*
X60112574Y-46582518D01*
X60112574Y-46582516D01*
X60058574Y-46476536D01*
X59974463Y-46392425D01*
X59868483Y-46338425D01*
X59751000Y-46319819D01*
X59633516Y-46338425D01*
X59527536Y-46392425D01*
X59443425Y-46476536D01*
X59389425Y-46582516D01*
X59370819Y-46700000D01*
X59389425Y-46817483D01*
X59443425Y-46923463D01*
X59527536Y-47007574D01*
X59554029Y-47021073D01*
X59588550Y-47058093D01*
X59591199Y-47108643D01*
X59560736Y-47149069D01*
X59554029Y-47152941D01*
X59476536Y-47192425D01*
X59392425Y-47276536D01*
X59338425Y-47382516D01*
X59319819Y-47500000D01*
X56419530Y-47500000D01*
X56407574Y-47476536D01*
X56323463Y-47392425D01*
X56217483Y-47338425D01*
X56125225Y-47323814D01*
X56100000Y-47319819D01*
X56099999Y-47319819D01*
X56099998Y-47319819D01*
X56062111Y-47325819D01*
X56012423Y-47316160D01*
X55980568Y-47276820D01*
X55977448Y-47241156D01*
X55983449Y-47203268D01*
X55964842Y-47085786D01*
X55964842Y-47085784D01*
X55910842Y-46979804D01*
X55826731Y-46895693D01*
X55720751Y-46841693D01*
X55603268Y-46823087D01*
X55485784Y-46841693D01*
X55379804Y-46895693D01*
X55335989Y-46939509D01*
X55290113Y-46960901D01*
X55241218Y-46947800D01*
X55231337Y-46939509D01*
X55189281Y-46897453D01*
X55083301Y-46843453D01*
X54965818Y-46824847D01*
X54848334Y-46843453D01*
X54742353Y-46897453D01*
X54737747Y-46902060D01*
X54691870Y-46923451D01*
X54642976Y-46910348D01*
X54633098Y-46902058D01*
X54590957Y-46859918D01*
X54484975Y-46805917D01*
X54367492Y-46787311D01*
X54250008Y-46805917D01*
X54144028Y-46859917D01*
X54059917Y-46944028D01*
X54005917Y-47050008D01*
X53986218Y-47174390D01*
X53961677Y-47218662D01*
X53914421Y-47236803D01*
X53901553Y-47235903D01*
X53854313Y-47228421D01*
X53800000Y-47219819D01*
X53799999Y-47219819D01*
X53682516Y-47238425D01*
X53576536Y-47292425D01*
X53492425Y-47376536D01*
X53438425Y-47482516D01*
X53419819Y-47600000D01*
X51290229Y-47600000D01*
X51194265Y-47584802D01*
X51076781Y-47603408D01*
X50970801Y-47657408D01*
X50886690Y-47741519D01*
X50832690Y-47847499D01*
X50821948Y-47915328D01*
X50797408Y-47959600D01*
X50750151Y-47977741D01*
X50715264Y-47969686D01*
X50689916Y-47956770D01*
X50586563Y-47940401D01*
X50572433Y-47938164D01*
X50572432Y-47938164D01*
X50454949Y-47956770D01*
X50348969Y-48010770D01*
X50264858Y-48094881D01*
X50210858Y-48200861D01*
X50192252Y-48318345D01*
X47610182Y-48318345D01*
X47633512Y-48272557D01*
X47661574Y-48217483D01*
X47669651Y-48166482D01*
X47680181Y-48100000D01*
X47664343Y-48000000D01*
X47661574Y-47982516D01*
X47607574Y-47876536D01*
X47523463Y-47792425D01*
X47417483Y-47738425D01*
X47300000Y-47719819D01*
X47182516Y-47738425D01*
X47076536Y-47792425D01*
X46992425Y-47876536D01*
X46938425Y-47982516D01*
X46919819Y-48100000D01*
X46264343Y-48100000D01*
X46261574Y-48082518D01*
X46261574Y-48082516D01*
X46207574Y-47976536D01*
X46123463Y-47892425D01*
X46017483Y-47838425D01*
X45900000Y-47819819D01*
X45782516Y-47838425D01*
X45676536Y-47892425D01*
X45602326Y-47966636D01*
X45556450Y-47988028D01*
X45507555Y-47974927D01*
X45497674Y-47966636D01*
X45423463Y-47892425D01*
X45317483Y-47838425D01*
X45200000Y-47819819D01*
X45082516Y-47838425D01*
X44976536Y-47892425D01*
X44892425Y-47976536D01*
X44838425Y-48082516D01*
X44819819Y-48200000D01*
X43344496Y-48200000D01*
X43361574Y-48166483D01*
X43369049Y-48119283D01*
X43380181Y-48049000D01*
X43365574Y-47956771D01*
X43361574Y-47931516D01*
X43307574Y-47825536D01*
X43223463Y-47741425D01*
X43117483Y-47687425D01*
X43000000Y-47668819D01*
X42882516Y-47687425D01*
X42776536Y-47741425D01*
X42692425Y-47825536D01*
X42638425Y-47931516D01*
X42626969Y-48003855D01*
X42611858Y-48031115D01*
X42480806Y-48031115D01*
X42488140Y-48017883D01*
X42481240Y-48006399D01*
X42480791Y-48003854D01*
X42476655Y-47977741D01*
X42466771Y-47915328D01*
X42461574Y-47882516D01*
X42407574Y-47776536D01*
X42323463Y-47692425D01*
X42217483Y-47638425D01*
X42100000Y-47619819D01*
X41982516Y-47638425D01*
X41876537Y-47692424D01*
X41851480Y-47717482D01*
X41792427Y-47776535D01*
X41792426Y-47776536D01*
X41784140Y-47784823D01*
X41781517Y-47782200D01*
X41759744Y-47802480D01*
X41709193Y-47805099D01*
X41678545Y-47786671D01*
X41633299Y-47741425D01*
X41527319Y-47687425D01*
X41409836Y-47668819D01*
X41292352Y-47687425D01*
X41186372Y-47741425D01*
X41102261Y-47825536D01*
X41048261Y-47931516D01*
X41029655Y-48048999D01*
X41029655Y-48049000D01*
X35594240Y-48049000D01*
X35651584Y-47991656D01*
X35682227Y-47931516D01*
X35705585Y-47885674D01*
X35709807Y-47859015D01*
X35724192Y-47768191D01*
X35707391Y-47662111D01*
X35705585Y-47650707D01*
X35651585Y-47544727D01*
X35567474Y-47460616D01*
X35504148Y-47428350D01*
X35469627Y-47391330D01*
X35467283Y-47346612D01*
X35466845Y-47346543D01*
X35467171Y-47344479D01*
X35466978Y-47340780D01*
X35468260Y-47337606D01*
X35468678Y-47334967D01*
X35468679Y-47334966D01*
X35487286Y-47217484D01*
X35468679Y-47100002D01*
X35468679Y-47100000D01*
X35414679Y-46994020D01*
X35330568Y-46909909D01*
X35224588Y-46855909D01*
X35110767Y-46837883D01*
X35066495Y-46813343D01*
X35049254Y-46776368D01*
X35046666Y-46760029D01*
X35056327Y-46710341D01*
X35095667Y-46678487D01*
X35131326Y-46675367D01*
X35176524Y-46682526D01*
X35275400Y-46666865D01*
X35294007Y-46663919D01*
X35399987Y-46609919D01*
X35399986Y-46609919D01*
X35399989Y-46609918D01*
X35484097Y-46525810D01*
X35507347Y-46480180D01*
X35538098Y-46419828D01*
X35540785Y-46402859D01*
X35556705Y-46302345D01*
X35541695Y-46207573D01*
X35538098Y-46184861D01*
X35494859Y-46100000D01*
X54119819Y-46100000D01*
X54138425Y-46217483D01*
X54192425Y-46323463D01*
X54276536Y-46407574D01*
X54382516Y-46461574D01*
X54410778Y-46466049D01*
X54500000Y-46480181D01*
X54601419Y-46464117D01*
X54617483Y-46461574D01*
X54723463Y-46407574D01*
X54723462Y-46407574D01*
X54723465Y-46407573D01*
X54807573Y-46323465D01*
X54858527Y-46223463D01*
X54861574Y-46217483D01*
X54866740Y-46184863D01*
X54880181Y-46100000D01*
X54864343Y-46000000D01*
X62419819Y-46000000D01*
X62438425Y-46117483D01*
X62492425Y-46223463D01*
X62576536Y-46307574D01*
X62682516Y-46361574D01*
X62703625Y-46364917D01*
X62800000Y-46380181D01*
X62901419Y-46364117D01*
X62917483Y-46361574D01*
X63023463Y-46307574D01*
X63023462Y-46307574D01*
X63023465Y-46307573D01*
X63107573Y-46223465D01*
X63119529Y-46200000D01*
X65970819Y-46200000D01*
X65989425Y-46317483D01*
X66043425Y-46423463D01*
X66127536Y-46507574D01*
X66233516Y-46561574D01*
X66261778Y-46566049D01*
X66351000Y-46580181D01*
X66452419Y-46564117D01*
X66468483Y-46561574D01*
X66574463Y-46507574D01*
X66574462Y-46507574D01*
X66574465Y-46507573D01*
X66658573Y-46423465D01*
X66660520Y-46419643D01*
X66712574Y-46317483D01*
X66718482Y-46280180D01*
X66731181Y-46200000D01*
X66712574Y-46082518D01*
X66712574Y-46082516D01*
X66658574Y-45976536D01*
X66583752Y-45901714D01*
X66562360Y-45855838D01*
X66575461Y-45806943D01*
X66616925Y-45777909D01*
X66624481Y-45776303D01*
X66706421Y-45763325D01*
X66717483Y-45761574D01*
X66823463Y-45707574D01*
X66823462Y-45707574D01*
X66823465Y-45707573D01*
X66907573Y-45623465D01*
X66923389Y-45592425D01*
X66961574Y-45517483D01*
X66968861Y-45471471D01*
X66980181Y-45400000D01*
X66961574Y-45282518D01*
X66961574Y-45282516D01*
X66907574Y-45176536D01*
X66823463Y-45092425D01*
X66717483Y-45038425D01*
X66600000Y-45019819D01*
X66482516Y-45038425D01*
X66376536Y-45092425D01*
X66292425Y-45176536D01*
X66238425Y-45282516D01*
X66219819Y-45400000D01*
X66238425Y-45517483D01*
X66292425Y-45623463D01*
X66367247Y-45698285D01*
X66388639Y-45744161D01*
X66375538Y-45793056D01*
X66334074Y-45822090D01*
X66326500Y-45823699D01*
X66315701Y-45825409D01*
X66233516Y-45838425D01*
X66127536Y-45892425D01*
X66043425Y-45976536D01*
X65989425Y-46082516D01*
X65970819Y-46200000D01*
X63119529Y-46200000D01*
X63132357Y-46174824D01*
X63161574Y-46117483D01*
X63164343Y-46100000D01*
X63180181Y-46000000D01*
X63164343Y-45899999D01*
X63161574Y-45882516D01*
X63128622Y-45817845D01*
X63369319Y-45817845D01*
X63387925Y-45935328D01*
X63441925Y-46041308D01*
X63526036Y-46125419D01*
X63632016Y-46179419D01*
X63664142Y-46184506D01*
X63749500Y-46198026D01*
X63852851Y-46181656D01*
X63866983Y-46179419D01*
X63972963Y-46125419D01*
X63972962Y-46125419D01*
X63972965Y-46125418D01*
X64057073Y-46041310D01*
X64059020Y-46037488D01*
X64111074Y-45935328D01*
X64116669Y-45899999D01*
X64129681Y-45817845D01*
X64114733Y-45723463D01*
X64111074Y-45700361D01*
X64057074Y-45594381D01*
X63972963Y-45510270D01*
X63866983Y-45456270D01*
X63763630Y-45439901D01*
X63749500Y-45437664D01*
X63749499Y-45437664D01*
X63632016Y-45456270D01*
X63526036Y-45510270D01*
X63441925Y-45594381D01*
X63387925Y-45700361D01*
X63369319Y-45817845D01*
X63128622Y-45817845D01*
X63107574Y-45776536D01*
X63023463Y-45692425D01*
X62917483Y-45638425D01*
X62800000Y-45619819D01*
X62682516Y-45638425D01*
X62576536Y-45692425D01*
X62492425Y-45776536D01*
X62438425Y-45882516D01*
X62419819Y-46000000D01*
X54864343Y-46000000D01*
X54863515Y-45994772D01*
X54861574Y-45982516D01*
X54807574Y-45876536D01*
X54723463Y-45792425D01*
X54617483Y-45738425D01*
X54500000Y-45719819D01*
X54382516Y-45738425D01*
X54276536Y-45792425D01*
X54192425Y-45876536D01*
X54138425Y-45982516D01*
X54119819Y-46100000D01*
X35494859Y-46100000D01*
X35484098Y-46078881D01*
X35399987Y-45994770D01*
X35294007Y-45940770D01*
X35176524Y-45922164D01*
X35059040Y-45940770D01*
X34953060Y-45994770D01*
X34868949Y-46078881D01*
X34814949Y-46184861D01*
X34796343Y-46302345D01*
X34799347Y-46321316D01*
X34789687Y-46371005D01*
X34750348Y-46402859D01*
X34714683Y-46405979D01*
X34669491Y-46398822D01*
X34591066Y-46411242D01*
X34541377Y-46401583D01*
X34513556Y-46371748D01*
X34510076Y-46364918D01*
X34510076Y-46364917D01*
X34456075Y-46258934D01*
X34371967Y-46174826D01*
X34371965Y-46174824D01*
X34265985Y-46120824D01*
X34148502Y-46102218D01*
X34031018Y-46120824D01*
X33925038Y-46174824D01*
X33840927Y-46258935D01*
X33786927Y-46364915D01*
X33768321Y-46482399D01*
X33786927Y-46599882D01*
X33846249Y-46716307D01*
X33845012Y-46716937D01*
X33860297Y-46749716D01*
X33847196Y-46798611D01*
X33826366Y-46816718D01*
X33737714Y-46905369D01*
X33683715Y-47011348D01*
X33666789Y-47118226D01*
X33665109Y-47128832D01*
X33676898Y-47203268D01*
X33677580Y-47207569D01*
X33667921Y-47257258D01*
X33638086Y-47285080D01*
X33631519Y-47288425D01*
X33631518Y-47288426D01*
X33579107Y-47315130D01*
X33525534Y-47342427D01*
X33441425Y-47426536D01*
X33387425Y-47532516D01*
X33368819Y-47649999D01*
X31696779Y-47649999D01*
X31705278Y-47580000D01*
X31686237Y-47423182D01*
X31630220Y-47275477D01*
X31591004Y-47218662D01*
X31540484Y-47145470D01*
X31422240Y-47040717D01*
X31364711Y-47010523D01*
X31330639Y-46973089D01*
X31328601Y-46922511D01*
X31359550Y-46882456D01*
X31364704Y-46879480D01*
X31422240Y-46849283D01*
X31540483Y-46744530D01*
X31630220Y-46614523D01*
X31686237Y-46466818D01*
X31705278Y-46310000D01*
X31686237Y-46153182D01*
X31630220Y-46005477D01*
X31585557Y-45940771D01*
X31557415Y-45900000D01*
X31819819Y-45900000D01*
X31822056Y-45914130D01*
X31838425Y-46017483D01*
X31892425Y-46123463D01*
X31976536Y-46207574D01*
X32082516Y-46261574D01*
X32110778Y-46266049D01*
X32200000Y-46280181D01*
X32301419Y-46264117D01*
X32317483Y-46261574D01*
X32423463Y-46207574D01*
X32423462Y-46207574D01*
X32423465Y-46207573D01*
X32507573Y-46123465D01*
X32549434Y-46041308D01*
X32561574Y-46017483D01*
X32565171Y-45994770D01*
X32580181Y-45900000D01*
X32565542Y-45807573D01*
X32561574Y-45782516D01*
X32519530Y-45700000D01*
X46719819Y-45700000D01*
X46738425Y-45817483D01*
X46792425Y-45923463D01*
X46876536Y-46007574D01*
X46982516Y-46061574D01*
X47010778Y-46066049D01*
X47100000Y-46080181D01*
X47201419Y-46064117D01*
X47217483Y-46061574D01*
X47323463Y-46007574D01*
X47323462Y-46007574D01*
X47323465Y-46007573D01*
X47407573Y-45923465D01*
X47423389Y-45892425D01*
X47461574Y-45817483D01*
X47465542Y-45792427D01*
X47480181Y-45700000D01*
X47463453Y-45594380D01*
X47461574Y-45582516D01*
X47419530Y-45500000D01*
X49219819Y-45500000D01*
X49238425Y-45617483D01*
X49292425Y-45723463D01*
X49376536Y-45807574D01*
X49482516Y-45861574D01*
X49510778Y-45866049D01*
X49600000Y-45880181D01*
X49701419Y-45864117D01*
X49717483Y-45861574D01*
X49823463Y-45807574D01*
X49823462Y-45807574D01*
X49823465Y-45807573D01*
X49907573Y-45723465D01*
X49920903Y-45697304D01*
X49961574Y-45617483D01*
X49965542Y-45592427D01*
X49980181Y-45500000D01*
X49963971Y-45397654D01*
X49961574Y-45382516D01*
X49919530Y-45300000D01*
X50519819Y-45300000D01*
X50538425Y-45417483D01*
X50592425Y-45523463D01*
X50676536Y-45607574D01*
X50782516Y-45661574D01*
X50810778Y-45666049D01*
X50900000Y-45680181D01*
X51001419Y-45664117D01*
X51017483Y-45661574D01*
X51123463Y-45607574D01*
X51123462Y-45607574D01*
X51123465Y-45607573D01*
X51207573Y-45523465D01*
X51234065Y-45471470D01*
X51271086Y-45436949D01*
X51321635Y-45434299D01*
X51362061Y-45464763D01*
X51365932Y-45471467D01*
X51380471Y-45500000D01*
X51392427Y-45523465D01*
X51476536Y-45607574D01*
X51582516Y-45661574D01*
X51610778Y-45666049D01*
X51700000Y-45680181D01*
X51801419Y-45664117D01*
X51817483Y-45661574D01*
X51923463Y-45607574D01*
X51923462Y-45607574D01*
X51923465Y-45607573D01*
X51947674Y-45583363D01*
X51993550Y-45561972D01*
X52042445Y-45575073D01*
X52052326Y-45583364D01*
X52076536Y-45607574D01*
X52182516Y-45661574D01*
X52210778Y-45666049D01*
X52300000Y-45680181D01*
X52401419Y-45664117D01*
X52417483Y-45661574D01*
X52523463Y-45607574D01*
X52523462Y-45607574D01*
X52523465Y-45607573D01*
X52607573Y-45523465D01*
X52651655Y-45436949D01*
X52661574Y-45417483D01*
X52665542Y-45392427D01*
X52680181Y-45300000D01*
X52664343Y-45200000D01*
X52661574Y-45182516D01*
X52607574Y-45076536D01*
X52523463Y-44992425D01*
X52417483Y-44938425D01*
X52300000Y-44919819D01*
X52182516Y-44938425D01*
X52076536Y-44992425D01*
X52052325Y-45016636D01*
X52006448Y-45038028D01*
X51957554Y-45024926D01*
X51947675Y-45016636D01*
X51923463Y-44992425D01*
X51817483Y-44938425D01*
X51700000Y-44919819D01*
X51582516Y-44938425D01*
X51476536Y-44992425D01*
X51392425Y-45076536D01*
X51365933Y-45128529D01*
X51328912Y-45163051D01*
X51278362Y-45165699D01*
X51237937Y-45135235D01*
X51234065Y-45128529D01*
X51207573Y-45076535D01*
X51123465Y-44992427D01*
X51123465Y-44992426D01*
X51123463Y-44992425D01*
X51017483Y-44938425D01*
X50900000Y-44919819D01*
X50782516Y-44938425D01*
X50676536Y-44992425D01*
X50592425Y-45076536D01*
X50538425Y-45182516D01*
X50519819Y-45300000D01*
X49919530Y-45300000D01*
X49907574Y-45276536D01*
X49823463Y-45192425D01*
X49717483Y-45138425D01*
X49600000Y-45119819D01*
X49482516Y-45138425D01*
X49376536Y-45192425D01*
X49292425Y-45276536D01*
X49238425Y-45382516D01*
X49219819Y-45500000D01*
X47419530Y-45500000D01*
X47407574Y-45476536D01*
X47323463Y-45392425D01*
X47217483Y-45338425D01*
X47100000Y-45319819D01*
X46982516Y-45338425D01*
X46876536Y-45392425D01*
X46792425Y-45476536D01*
X46738425Y-45582516D01*
X46719819Y-45700000D01*
X32519530Y-45700000D01*
X32507574Y-45676536D01*
X32423463Y-45592425D01*
X32317483Y-45538425D01*
X32200000Y-45519819D01*
X32082516Y-45538425D01*
X31976536Y-45592425D01*
X31892425Y-45676536D01*
X31838425Y-45782516D01*
X31821019Y-45892425D01*
X31819819Y-45900000D01*
X31557415Y-45900000D01*
X31540484Y-45875470D01*
X31422241Y-45770718D01*
X31422240Y-45770717D01*
X31282365Y-45697304D01*
X31128985Y-45659500D01*
X30971015Y-45659500D01*
X30837430Y-45692425D01*
X30817635Y-45697304D01*
X30677758Y-45770718D01*
X30559515Y-45875470D01*
X30469780Y-46005476D01*
X30413762Y-46153183D01*
X30394722Y-46309999D01*
X30394722Y-46310000D01*
X30395631Y-46317483D01*
X30413762Y-46466816D01*
X30469780Y-46614523D01*
X30559515Y-46744529D01*
X30650177Y-46824847D01*
X30677760Y-46849283D01*
X30735288Y-46879476D01*
X30769360Y-46916911D01*
X30771398Y-46967489D01*
X30740448Y-47007544D01*
X30735295Y-47010519D01*
X30683992Y-47037445D01*
X30677758Y-47040718D01*
X30559517Y-47145469D01*
X30475901Y-47266609D01*
X30434632Y-47295920D01*
X30384177Y-47291847D01*
X30354099Y-47266609D01*
X30302895Y-47192427D01*
X30270483Y-47145470D01*
X30152240Y-47040717D01*
X30012365Y-46967304D01*
X29858985Y-46929500D01*
X29701015Y-46929500D01*
X29586398Y-46957750D01*
X29547635Y-46967304D01*
X29407758Y-47040718D01*
X29289515Y-47145470D01*
X29199780Y-47275476D01*
X29143762Y-47423183D01*
X29126571Y-47564769D01*
X29124722Y-47580000D01*
X29125585Y-47587107D01*
X29143762Y-47736816D01*
X29199780Y-47884523D01*
X29289515Y-48014529D01*
X29366202Y-48082466D01*
X29407760Y-48119283D01*
X29465288Y-48149476D01*
X29499360Y-48186911D01*
X29501398Y-48237489D01*
X29470448Y-48277544D01*
X29465295Y-48280519D01*
X29417536Y-48305586D01*
X29407758Y-48310718D01*
X29289515Y-48415470D01*
X29199780Y-48545476D01*
X29143762Y-48693183D01*
X29124722Y-48850000D01*
X29143762Y-49006816D01*
X29199780Y-49154523D01*
X29289515Y-49284529D01*
X29380778Y-49365379D01*
X29407760Y-49389283D01*
X29465288Y-49419476D01*
X29499360Y-49456911D01*
X29501398Y-49507489D01*
X29470448Y-49547544D01*
X29465295Y-49550519D01*
X29415728Y-49576535D01*
X29407758Y-49580718D01*
X29289515Y-49685470D01*
X29199780Y-49815476D01*
X29143762Y-49963183D01*
X29124722Y-50120000D01*
X29143762Y-50276816D01*
X29199780Y-50424523D01*
X29289515Y-50554529D01*
X29332292Y-50592425D01*
X29407760Y-50659283D01*
X29465288Y-50689476D01*
X29499360Y-50726911D01*
X29501398Y-50777489D01*
X29470448Y-50817544D01*
X29465295Y-50820519D01*
X29413992Y-50847445D01*
X29407758Y-50850718D01*
X29289515Y-50955470D01*
X29199780Y-51085476D01*
X29143762Y-51233183D01*
X29131567Y-51333624D01*
X29124722Y-51390000D01*
X29125017Y-51392427D01*
X29143762Y-51546816D01*
X29199780Y-51694523D01*
X29289515Y-51824529D01*
X29374706Y-51900000D01*
X29407760Y-51929283D01*
X29465288Y-51959476D01*
X29499360Y-51996911D01*
X29501398Y-52047489D01*
X29470448Y-52087544D01*
X29465295Y-52090519D01*
X29413992Y-52117445D01*
X29407758Y-52120718D01*
X29289515Y-52225470D01*
X29199780Y-52355476D01*
X29143762Y-52503183D01*
X29124722Y-52660000D01*
X29143762Y-52816816D01*
X29199780Y-52964523D01*
X29289515Y-53094529D01*
X29380778Y-53175379D01*
X29407760Y-53199283D01*
X29465288Y-53229476D01*
X29499360Y-53266911D01*
X29501398Y-53317489D01*
X29470448Y-53357544D01*
X29465295Y-53360519D01*
X29413992Y-53387445D01*
X29407758Y-53390718D01*
X29289515Y-53495470D01*
X29199780Y-53625476D01*
X29143762Y-53773183D01*
X29124722Y-53930000D01*
X29143762Y-54086816D01*
X29199780Y-54234523D01*
X29289515Y-54364529D01*
X29380778Y-54445379D01*
X29407760Y-54469283D01*
X29465288Y-54499476D01*
X29499360Y-54536911D01*
X29501398Y-54587489D01*
X29470448Y-54627544D01*
X29465295Y-54630519D01*
X29450672Y-54638195D01*
X29407758Y-54660718D01*
X29289515Y-54765470D01*
X29199780Y-54895476D01*
X29143762Y-55043183D01*
X29124722Y-55200000D01*
X28480500Y-55200000D01*
X28480500Y-45036080D01*
X30210799Y-45036080D01*
X30229405Y-45153563D01*
X30283405Y-45259543D01*
X30367516Y-45343654D01*
X30473496Y-45397654D01*
X30505622Y-45402741D01*
X30590980Y-45416261D01*
X30694331Y-45399891D01*
X30708463Y-45397654D01*
X30814443Y-45343654D01*
X30814442Y-45343654D01*
X30814445Y-45343653D01*
X30898553Y-45259545D01*
X30899788Y-45257121D01*
X30957876Y-45143119D01*
X30961340Y-45144884D01*
X30975495Y-45119338D01*
X31022748Y-45101190D01*
X31070613Y-45117661D01*
X31076379Y-45122852D01*
X31131379Y-45177852D01*
X31237359Y-45231852D01*
X31265621Y-45236327D01*
X31354843Y-45250459D01*
X31456262Y-45234395D01*
X31472326Y-45231852D01*
X31578306Y-45177852D01*
X31578305Y-45177852D01*
X31578308Y-45177851D01*
X31662416Y-45093743D01*
X31685213Y-45049001D01*
X35142893Y-45049001D01*
X35161499Y-45166484D01*
X35215499Y-45272464D01*
X35299610Y-45356575D01*
X35405590Y-45410575D01*
X35433852Y-45415050D01*
X35523074Y-45429182D01*
X35624493Y-45413118D01*
X35640557Y-45410575D01*
X35746537Y-45356575D01*
X35746536Y-45356575D01*
X35746539Y-45356574D01*
X35830647Y-45272466D01*
X35854984Y-45224702D01*
X35867570Y-45200000D01*
X45119819Y-45200000D01*
X45138425Y-45317483D01*
X45192425Y-45423463D01*
X45276536Y-45507574D01*
X45382516Y-45561574D01*
X45410778Y-45566049D01*
X45500000Y-45580181D01*
X45601419Y-45564117D01*
X45617483Y-45561574D01*
X45723463Y-45507574D01*
X45723462Y-45507574D01*
X45723465Y-45507573D01*
X45807573Y-45423465D01*
X45843894Y-45352181D01*
X45861574Y-45317483D01*
X45864343Y-45300000D01*
X45880181Y-45200000D01*
X45863352Y-45093741D01*
X45861574Y-45082516D01*
X45807574Y-44976536D01*
X45723463Y-44892425D01*
X45617483Y-44838425D01*
X45500000Y-44819819D01*
X45382516Y-44838425D01*
X45276536Y-44892425D01*
X45192425Y-44976536D01*
X45138425Y-45082516D01*
X45119819Y-45200000D01*
X35867570Y-45200000D01*
X35884648Y-45166484D01*
X35891461Y-45123464D01*
X35903255Y-45049001D01*
X35888294Y-44954540D01*
X35884648Y-44931517D01*
X35830648Y-44825537D01*
X35746537Y-44741426D01*
X35640557Y-44687426D01*
X35523074Y-44668820D01*
X35405590Y-44687426D01*
X35299610Y-44741426D01*
X35215499Y-44825537D01*
X35161499Y-44931517D01*
X35142893Y-45049001D01*
X31685213Y-45049001D01*
X31686685Y-45046113D01*
X31716417Y-44987761D01*
X31723960Y-44940132D01*
X31735024Y-44870278D01*
X31718071Y-44763239D01*
X31716417Y-44752794D01*
X31662417Y-44646814D01*
X31578306Y-44562703D01*
X31472326Y-44508703D01*
X31354843Y-44490097D01*
X31237359Y-44508703D01*
X31131379Y-44562703D01*
X31047268Y-44646814D01*
X30987947Y-44763239D01*
X30984483Y-44761474D01*
X30970286Y-44787055D01*
X30923019Y-44805168D01*
X30875167Y-44788662D01*
X30869443Y-44783505D01*
X30814443Y-44728505D01*
X30708463Y-44674505D01*
X30605110Y-44658136D01*
X30590980Y-44655899D01*
X30590979Y-44655899D01*
X30473496Y-44674505D01*
X30367516Y-44728505D01*
X30283405Y-44812616D01*
X30229405Y-44918596D01*
X30210799Y-45036080D01*
X28480500Y-45036080D01*
X28480500Y-43936598D01*
X53419819Y-43936598D01*
X53438425Y-44054081D01*
X53492424Y-44160060D01*
X53492426Y-44160062D01*
X53492427Y-44160063D01*
X53527227Y-44194863D01*
X53548620Y-44240739D01*
X53535520Y-44289633D01*
X53527229Y-44299514D01*
X53514513Y-44312230D01*
X53460513Y-44418210D01*
X53441907Y-44535694D01*
X53460513Y-44653177D01*
X53514513Y-44759157D01*
X53598624Y-44843268D01*
X53704604Y-44897268D01*
X53721855Y-44900000D01*
X53822088Y-44915875D01*
X53923507Y-44899811D01*
X53939571Y-44897268D01*
X54045551Y-44843268D01*
X54045550Y-44843268D01*
X54045553Y-44843267D01*
X54066170Y-44822650D01*
X54663195Y-44822650D01*
X54681801Y-44940133D01*
X54735801Y-45046113D01*
X54819912Y-45130224D01*
X54925892Y-45184224D01*
X54958018Y-45189311D01*
X55043376Y-45202831D01*
X55146727Y-45186461D01*
X55160859Y-45184224D01*
X55266839Y-45130224D01*
X55266838Y-45130224D01*
X55266841Y-45130223D01*
X55350949Y-45046115D01*
X55378669Y-44991710D01*
X55415686Y-44957190D01*
X55466236Y-44954540D01*
X55478195Y-44959371D01*
X55482518Y-44961574D01*
X55600000Y-44980181D01*
X55701419Y-44964117D01*
X55717483Y-44961574D01*
X55823463Y-44907574D01*
X55823462Y-44907574D01*
X55823465Y-44907573D01*
X55907573Y-44823465D01*
X55949374Y-44741426D01*
X55961574Y-44717483D01*
X55964343Y-44700000D01*
X59519819Y-44700000D01*
X59538425Y-44817483D01*
X59592425Y-44923463D01*
X59676536Y-45007574D01*
X59782516Y-45061574D01*
X59810778Y-45066049D01*
X59900000Y-45080181D01*
X60001419Y-45064117D01*
X60017483Y-45061574D01*
X60123463Y-45007574D01*
X60123462Y-45007574D01*
X60123465Y-45007573D01*
X60207573Y-44923465D01*
X60223728Y-44891757D01*
X60260748Y-44857236D01*
X60311298Y-44854586D01*
X60341989Y-44873027D01*
X60376536Y-44907574D01*
X60482516Y-44961574D01*
X60510778Y-44966049D01*
X60600000Y-44980181D01*
X60701419Y-44964117D01*
X60717483Y-44961574D01*
X60823463Y-44907574D01*
X60823462Y-44907574D01*
X60823465Y-44907573D01*
X60907573Y-44823465D01*
X60949374Y-44741426D01*
X60961574Y-44717483D01*
X60966684Y-44685219D01*
X60980181Y-44600000D01*
X60964224Y-44499248D01*
X60961574Y-44482516D01*
X60907574Y-44376536D01*
X60841858Y-44310820D01*
X63871317Y-44310820D01*
X63889923Y-44428303D01*
X63943923Y-44534283D01*
X64028034Y-44618394D01*
X64134014Y-44672394D01*
X64181950Y-44679986D01*
X64226223Y-44704526D01*
X64244364Y-44751783D01*
X64239952Y-44770893D01*
X64240259Y-44770942D01*
X64219819Y-44900000D01*
X64238425Y-45017483D01*
X64292425Y-45123463D01*
X64380207Y-45211245D01*
X64401599Y-45257121D01*
X64388498Y-45306016D01*
X64380207Y-45315896D01*
X64343924Y-45352179D01*
X64289923Y-45458161D01*
X64271317Y-45575645D01*
X64289923Y-45693128D01*
X64343923Y-45799108D01*
X64428034Y-45883219D01*
X64534014Y-45937219D01*
X64562276Y-45941694D01*
X64651498Y-45955826D01*
X64752917Y-45939762D01*
X64768981Y-45937219D01*
X64874961Y-45883219D01*
X64874960Y-45883219D01*
X64874963Y-45883218D01*
X64959071Y-45799110D01*
X64968716Y-45780181D01*
X65013072Y-45693128D01*
X65018398Y-45659500D01*
X65031679Y-45575645D01*
X65015180Y-45471471D01*
X65013072Y-45458161D01*
X64959072Y-45352181D01*
X64871290Y-45264399D01*
X64849898Y-45218523D01*
X64862999Y-45169628D01*
X64871291Y-45159747D01*
X64907574Y-45123464D01*
X64961574Y-45017483D01*
X64965542Y-44992427D01*
X64980181Y-44900000D01*
X64962293Y-44787055D01*
X64961574Y-44782516D01*
X64907574Y-44676536D01*
X64823463Y-44592425D01*
X64717483Y-44538425D01*
X64669546Y-44530833D01*
X64625273Y-44506292D01*
X64607133Y-44459035D01*
X64611545Y-44439927D01*
X64611238Y-44439879D01*
X64613072Y-44428302D01*
X64631679Y-44310820D01*
X64615875Y-44211034D01*
X64613072Y-44193336D01*
X64559072Y-44087356D01*
X64474961Y-44003245D01*
X64368981Y-43949245D01*
X64251498Y-43930639D01*
X64134014Y-43949245D01*
X64028034Y-44003245D01*
X63943923Y-44087356D01*
X63889923Y-44193336D01*
X63871317Y-44310820D01*
X60841858Y-44310820D01*
X60823463Y-44292425D01*
X60717483Y-44238425D01*
X60600000Y-44219819D01*
X60482516Y-44238425D01*
X60376536Y-44292425D01*
X60292426Y-44376535D01*
X60276270Y-44408243D01*
X60239249Y-44442764D01*
X60188699Y-44445412D01*
X60158010Y-44426972D01*
X60123463Y-44392425D01*
X60017483Y-44338425D01*
X59900000Y-44319819D01*
X59782516Y-44338425D01*
X59676536Y-44392425D01*
X59592425Y-44476536D01*
X59538425Y-44582516D01*
X59519819Y-44700000D01*
X55964343Y-44700000D01*
X55966684Y-44685219D01*
X55980181Y-44600000D01*
X55961574Y-44482518D01*
X55945689Y-44451343D01*
X55939520Y-44401104D01*
X55967089Y-44358651D01*
X55978024Y-44351818D01*
X56041037Y-44319712D01*
X56125145Y-44235604D01*
X56146682Y-44193336D01*
X56179146Y-44129622D01*
X56186976Y-44080181D01*
X56197753Y-44012139D01*
X56179146Y-43894657D01*
X56179146Y-43894655D01*
X56125146Y-43788675D01*
X56041035Y-43704564D01*
X56032078Y-43700000D01*
X62419819Y-43700000D01*
X62438425Y-43817483D01*
X62492425Y-43923463D01*
X62576536Y-44007574D01*
X62682516Y-44061574D01*
X62710778Y-44066049D01*
X62800000Y-44080181D01*
X62901419Y-44064117D01*
X62917483Y-44061574D01*
X63023463Y-44007574D01*
X63023462Y-44007574D01*
X63023465Y-44007573D01*
X63107573Y-43923465D01*
X63109520Y-43919643D01*
X63161574Y-43817483D01*
X63163811Y-43803351D01*
X63180181Y-43700000D01*
X63161574Y-43582518D01*
X63161574Y-43582516D01*
X63107574Y-43476536D01*
X63023463Y-43392425D01*
X62917483Y-43338425D01*
X62800000Y-43319819D01*
X62682516Y-43338425D01*
X62576536Y-43392425D01*
X62492425Y-43476536D01*
X62438425Y-43582516D01*
X62419819Y-43700000D01*
X56032078Y-43700000D01*
X55935055Y-43650564D01*
X55827390Y-43633513D01*
X55817572Y-43631958D01*
X55817571Y-43631958D01*
X55700088Y-43650564D01*
X55594108Y-43704564D01*
X55509997Y-43788675D01*
X55455997Y-43894655D01*
X55437391Y-44012139D01*
X55455997Y-44129622D01*
X55471880Y-44160793D01*
X55478049Y-44211034D01*
X55450480Y-44253487D01*
X55439542Y-44260322D01*
X55376536Y-44292425D01*
X55292427Y-44376534D01*
X55279908Y-44401104D01*
X55266051Y-44428302D01*
X55264708Y-44430937D01*
X55227687Y-44465459D01*
X55177138Y-44468109D01*
X55165178Y-44463277D01*
X55160857Y-44461075D01*
X55043376Y-44442469D01*
X54925892Y-44461075D01*
X54819912Y-44515075D01*
X54735801Y-44599186D01*
X54681801Y-44705166D01*
X54663195Y-44822650D01*
X54066170Y-44822650D01*
X54129661Y-44759159D01*
X54150896Y-44717483D01*
X54183662Y-44653177D01*
X54192213Y-44599185D01*
X54202269Y-44535694D01*
X54187094Y-44439879D01*
X54183662Y-44418210D01*
X54129662Y-44312230D01*
X54094859Y-44277427D01*
X54073467Y-44231551D01*
X54086568Y-44182656D01*
X54094857Y-44172778D01*
X54107573Y-44160063D01*
X54157756Y-44061574D01*
X54166896Y-44043636D01*
X54168299Y-44044350D01*
X54185576Y-44013175D01*
X54232831Y-43995030D01*
X54267725Y-44003085D01*
X54382516Y-44061574D01*
X54410778Y-44066049D01*
X54500000Y-44080181D01*
X54601419Y-44064117D01*
X54617483Y-44061574D01*
X54723463Y-44007574D01*
X54723462Y-44007574D01*
X54723465Y-44007573D01*
X54807573Y-43923465D01*
X54809520Y-43919643D01*
X54861574Y-43817483D01*
X54864117Y-43801419D01*
X54880181Y-43700000D01*
X54861574Y-43582518D01*
X54861574Y-43582516D01*
X54807574Y-43476536D01*
X54723463Y-43392425D01*
X54691757Y-43376270D01*
X54657235Y-43339249D01*
X54654587Y-43288700D01*
X54673026Y-43258011D01*
X54707573Y-43223465D01*
X54728442Y-43182508D01*
X54761574Y-43117483D01*
X54765542Y-43092427D01*
X54780181Y-43000000D01*
X54761574Y-42882518D01*
X54761574Y-42882516D01*
X54707574Y-42776536D01*
X54623463Y-42692425D01*
X54517483Y-42638425D01*
X54400000Y-42619819D01*
X54282516Y-42638425D01*
X54176536Y-42692425D01*
X54092425Y-42776536D01*
X54038425Y-42882516D01*
X54019819Y-42999999D01*
X54038425Y-43117483D01*
X54092425Y-43223463D01*
X54176536Y-43307574D01*
X54208241Y-43323729D01*
X54242763Y-43360749D01*
X54245413Y-43411299D01*
X54226973Y-43441988D01*
X54192425Y-43476536D01*
X54133104Y-43592961D01*
X54131701Y-43592246D01*
X54114415Y-43623429D01*
X54067157Y-43641567D01*
X54032274Y-43633513D01*
X53917481Y-43575023D01*
X53800000Y-43556417D01*
X53682516Y-43575023D01*
X53576536Y-43629023D01*
X53492425Y-43713134D01*
X53438425Y-43819114D01*
X53419819Y-43936598D01*
X28480500Y-43936598D01*
X28480500Y-43400000D01*
X34419819Y-43400000D01*
X34438425Y-43517483D01*
X34492425Y-43623463D01*
X34576536Y-43707574D01*
X34682516Y-43761574D01*
X34710778Y-43766049D01*
X34800000Y-43780181D01*
X34901419Y-43764117D01*
X34917483Y-43761574D01*
X35023463Y-43707574D01*
X35023462Y-43707574D01*
X35023465Y-43707573D01*
X35107573Y-43623465D01*
X35132255Y-43575024D01*
X35161574Y-43517483D01*
X35168059Y-43476535D01*
X35180181Y-43400000D01*
X35165542Y-43307573D01*
X35161574Y-43282516D01*
X35107574Y-43176536D01*
X35023463Y-43092425D01*
X34933977Y-43046829D01*
X38832374Y-43046829D01*
X38850980Y-43164313D01*
X38904980Y-43270293D01*
X38989091Y-43354404D01*
X39095071Y-43408404D01*
X39123333Y-43412879D01*
X39212555Y-43427011D01*
X39313974Y-43410947D01*
X39330038Y-43408404D01*
X39436018Y-43354404D01*
X39436017Y-43354404D01*
X39436020Y-43354403D01*
X39520128Y-43270295D01*
X39564858Y-43182508D01*
X41570818Y-43182508D01*
X41589424Y-43299991D01*
X41643424Y-43405971D01*
X41727535Y-43490082D01*
X41833515Y-43544082D01*
X41861777Y-43548557D01*
X41950999Y-43562689D01*
X42052418Y-43546625D01*
X42068482Y-43544082D01*
X42174462Y-43490082D01*
X42174461Y-43490082D01*
X42174464Y-43490081D01*
X42258572Y-43405973D01*
X42265475Y-43392425D01*
X42312573Y-43299991D01*
X42319222Y-43258009D01*
X42331180Y-43182508D01*
X42312573Y-43065026D01*
X42312573Y-43065024D01*
X42258573Y-42959044D01*
X42174462Y-42874933D01*
X42068482Y-42820933D01*
X41965129Y-42804564D01*
X41950999Y-42802327D01*
X41950998Y-42802327D01*
X41833515Y-42820933D01*
X41727535Y-42874933D01*
X41643424Y-42959044D01*
X41589424Y-43065024D01*
X41570818Y-43182508D01*
X39564858Y-43182508D01*
X39574129Y-43164313D01*
X39585514Y-43092427D01*
X39592736Y-43046830D01*
X39590081Y-43030069D01*
X39599739Y-42980383D01*
X39639078Y-42948527D01*
X39651595Y-42945406D01*
X39662053Y-42943749D01*
X39662055Y-42943750D01*
X39755154Y-42929004D01*
X39779538Y-42925143D01*
X39885518Y-42871143D01*
X39885517Y-42871143D01*
X39885520Y-42871142D01*
X39969628Y-42787034D01*
X40017834Y-42692425D01*
X40023629Y-42681052D01*
X40032368Y-42625872D01*
X40042236Y-42563569D01*
X40034267Y-42513256D01*
X40043925Y-42463570D01*
X40083264Y-42431715D01*
X40100134Y-42430238D01*
X40099979Y-42429259D01*
X40111553Y-42427425D01*
X40111555Y-42427426D01*
X40217546Y-42410639D01*
X40229038Y-42408819D01*
X40335018Y-42354819D01*
X40335017Y-42354819D01*
X40335020Y-42354818D01*
X40419128Y-42270710D01*
X40455157Y-42200000D01*
X41570818Y-42200000D01*
X41589424Y-42317483D01*
X41643424Y-42423463D01*
X41727535Y-42507574D01*
X41833515Y-42561574D01*
X41865641Y-42566661D01*
X41950999Y-42580181D01*
X42055885Y-42563569D01*
X42068482Y-42561574D01*
X42174462Y-42507574D01*
X42174461Y-42507574D01*
X42174464Y-42507573D01*
X42258572Y-42423465D01*
X42289292Y-42363174D01*
X42312573Y-42317483D01*
X42322311Y-42255996D01*
X42323943Y-42245691D01*
X55409818Y-42245691D01*
X55428424Y-42363174D01*
X55482424Y-42469154D01*
X55566535Y-42553265D01*
X55672515Y-42607265D01*
X55700777Y-42611740D01*
X55789999Y-42625872D01*
X55891418Y-42609808D01*
X55907482Y-42607265D01*
X56013462Y-42553265D01*
X56013461Y-42553265D01*
X56013464Y-42553264D01*
X56097572Y-42469156D01*
X56117901Y-42429259D01*
X56151573Y-42363174D01*
X56154116Y-42347110D01*
X56170180Y-42245691D01*
X56152273Y-42132626D01*
X56151573Y-42128207D01*
X56097573Y-42022227D01*
X56074846Y-41999500D01*
X60342477Y-41999500D01*
X60363562Y-42132626D01*
X60424753Y-42252720D01*
X60520061Y-42348028D01*
X60640155Y-42409219D01*
X60773281Y-42430304D01*
X60906407Y-42409219D01*
X61026501Y-42348028D01*
X61121809Y-42252720D01*
X61183000Y-42132626D01*
X61204085Y-41999500D01*
X61188571Y-41901546D01*
X63819819Y-41901546D01*
X63838425Y-42019029D01*
X63892425Y-42125009D01*
X63976536Y-42209120D01*
X64082516Y-42263120D01*
X64110778Y-42267595D01*
X64200000Y-42281727D01*
X64301419Y-42265663D01*
X64317483Y-42263120D01*
X64423463Y-42209120D01*
X64423462Y-42209120D01*
X64423465Y-42209119D01*
X64507573Y-42125011D01*
X64547197Y-42047245D01*
X64561574Y-42019029D01*
X64568304Y-41976535D01*
X64580181Y-41901546D01*
X64561574Y-41784064D01*
X64561574Y-41784062D01*
X64507574Y-41678082D01*
X64423463Y-41593971D01*
X64317483Y-41539971D01*
X64200000Y-41521365D01*
X64082516Y-41539971D01*
X63976536Y-41593971D01*
X63892425Y-41678082D01*
X63838425Y-41784062D01*
X63819819Y-41901546D01*
X61188571Y-41901546D01*
X61183000Y-41866374D01*
X61121809Y-41746280D01*
X61026501Y-41650972D01*
X60906407Y-41589781D01*
X60773281Y-41568696D01*
X60640155Y-41589781D01*
X60580108Y-41620376D01*
X60520060Y-41650972D01*
X60424753Y-41746279D01*
X60405502Y-41784062D01*
X60363562Y-41866374D01*
X60342477Y-41999500D01*
X56074846Y-41999500D01*
X56013462Y-41938116D01*
X55907482Y-41884116D01*
X55789999Y-41865510D01*
X55672515Y-41884116D01*
X55566535Y-41938116D01*
X55482424Y-42022227D01*
X55428424Y-42128207D01*
X55409818Y-42245691D01*
X42323943Y-42245691D01*
X42331180Y-42200000D01*
X42312573Y-42082518D01*
X42312573Y-42082516D01*
X42258573Y-41976536D01*
X42174462Y-41892425D01*
X42068482Y-41838425D01*
X41965129Y-41822056D01*
X41950999Y-41819819D01*
X41950998Y-41819819D01*
X41833515Y-41838425D01*
X41727535Y-41892425D01*
X41643424Y-41976536D01*
X41589424Y-42082516D01*
X41570818Y-42200000D01*
X40455157Y-42200000D01*
X40457828Y-42194757D01*
X40473129Y-42164728D01*
X40476379Y-42144207D01*
X40491736Y-42047245D01*
X40478216Y-41961887D01*
X40473129Y-41929761D01*
X40419129Y-41823781D01*
X40335018Y-41739670D01*
X40229038Y-41685670D01*
X40111555Y-41667064D01*
X39994071Y-41685670D01*
X39888091Y-41739670D01*
X39803980Y-41823781D01*
X39749980Y-41929761D01*
X39731374Y-42047245D01*
X39739342Y-42097555D01*
X39729683Y-42147243D01*
X39690344Y-42179099D01*
X39673475Y-42180576D01*
X39673631Y-42181555D01*
X39662055Y-42183388D01*
X39642046Y-42186557D01*
X39544571Y-42201994D01*
X39438591Y-42255994D01*
X39354480Y-42340105D01*
X39300480Y-42446085D01*
X39281874Y-42563569D01*
X39284528Y-42580329D01*
X39274869Y-42630017D01*
X39235529Y-42661872D01*
X39223015Y-42664992D01*
X39095071Y-42685255D01*
X38989091Y-42739255D01*
X38904980Y-42823366D01*
X38850980Y-42929346D01*
X38832374Y-43046829D01*
X34933977Y-43046829D01*
X34917483Y-43038425D01*
X34800000Y-43019819D01*
X34682516Y-43038425D01*
X34576536Y-43092425D01*
X34492425Y-43176536D01*
X34438425Y-43282516D01*
X34419819Y-43400000D01*
X28480500Y-43400000D01*
X28480500Y-41799999D01*
X34268820Y-41799999D01*
X34287426Y-41917483D01*
X34341426Y-42023463D01*
X34433824Y-42115861D01*
X34433329Y-42116355D01*
X34459303Y-42144207D01*
X34461953Y-42194757D01*
X34443512Y-42225448D01*
X34392426Y-42276534D01*
X34338425Y-42382516D01*
X34319819Y-42499999D01*
X34338425Y-42617483D01*
X34392425Y-42723463D01*
X34476536Y-42807574D01*
X34582516Y-42861574D01*
X34610778Y-42866049D01*
X34700000Y-42880181D01*
X34801419Y-42864117D01*
X34817483Y-42861574D01*
X34923463Y-42807574D01*
X34923462Y-42807574D01*
X34923465Y-42807573D01*
X35007573Y-42723465D01*
X35023389Y-42692425D01*
X35061574Y-42617483D01*
X35067482Y-42580180D01*
X35080181Y-42500000D01*
X35061574Y-42382518D01*
X35061574Y-42382516D01*
X35007574Y-42276536D01*
X34915177Y-42184139D01*
X34915671Y-42183644D01*
X34889696Y-42155789D01*
X34887048Y-42105239D01*
X34905489Y-42074550D01*
X34956575Y-42023464D01*
X35010575Y-41917483D01*
X35014543Y-41892427D01*
X35029182Y-41800000D01*
X35012627Y-41695472D01*
X35010575Y-41682516D01*
X34956575Y-41576536D01*
X34872464Y-41492425D01*
X34766484Y-41438425D01*
X34649001Y-41419819D01*
X34531517Y-41438425D01*
X34425537Y-41492425D01*
X34341426Y-41576536D01*
X34287426Y-41682516D01*
X34268820Y-41799999D01*
X28480500Y-41799999D01*
X28480500Y-40644999D01*
X31500701Y-40644999D01*
X31521020Y-40812351D01*
X31573178Y-40949879D01*
X31580801Y-40969980D01*
X31676567Y-41108721D01*
X31743475Y-41167997D01*
X31802752Y-41220512D01*
X31863552Y-41252422D01*
X31952025Y-41298856D01*
X32115709Y-41339200D01*
X32115710Y-41339200D01*
X32284290Y-41339200D01*
X32284291Y-41339200D01*
X32447975Y-41298856D01*
X32597247Y-41220512D01*
X32723433Y-41108721D01*
X32819199Y-40969980D01*
X32839035Y-40917675D01*
X32872089Y-40879340D01*
X32922052Y-40871219D01*
X32960552Y-40891590D01*
X32976536Y-40907574D01*
X32986908Y-40912859D01*
X33021430Y-40949879D01*
X33024078Y-41000429D01*
X33005638Y-41031119D01*
X32926323Y-41110434D01*
X32872323Y-41216414D01*
X32853717Y-41333898D01*
X32872323Y-41451381D01*
X32926323Y-41557361D01*
X33010434Y-41641472D01*
X33116414Y-41695472D01*
X33144676Y-41699947D01*
X33233898Y-41714079D01*
X33335317Y-41698015D01*
X33351381Y-41695472D01*
X33457361Y-41641472D01*
X33457360Y-41641472D01*
X33457363Y-41641471D01*
X33541471Y-41557363D01*
X33574559Y-41492425D01*
X33595472Y-41451381D01*
X33600471Y-41419819D01*
X33614079Y-41333898D01*
X33596913Y-41225512D01*
X33595472Y-41216414D01*
X33541472Y-41110434D01*
X33457362Y-41026324D01*
X33446988Y-41021038D01*
X33427371Y-41000000D01*
X35319819Y-41000000D01*
X35338425Y-41117483D01*
X35392425Y-41223463D01*
X35476536Y-41307574D01*
X35582516Y-41361574D01*
X35610778Y-41366049D01*
X35700000Y-41380181D01*
X35801419Y-41364117D01*
X35817483Y-41361574D01*
X35923463Y-41307574D01*
X35923462Y-41307574D01*
X35923465Y-41307573D01*
X36007573Y-41223465D01*
X36033305Y-41172963D01*
X36061574Y-41117483D01*
X36075252Y-41031119D01*
X36080181Y-41000000D01*
X43619819Y-41000000D01*
X43638425Y-41117483D01*
X43692425Y-41223463D01*
X43776536Y-41307574D01*
X43882516Y-41361574D01*
X43910778Y-41366049D01*
X44000000Y-41380181D01*
X44101419Y-41364117D01*
X44117483Y-41361574D01*
X44223463Y-41307574D01*
X44223462Y-41307574D01*
X44223465Y-41307573D01*
X44307573Y-41223465D01*
X44333305Y-41172963D01*
X44361574Y-41117483D01*
X44375252Y-41031119D01*
X44380181Y-41000000D01*
X44372183Y-40949499D01*
X47919819Y-40949499D01*
X47938425Y-41066983D01*
X47992425Y-41172963D01*
X48076536Y-41257074D01*
X48182516Y-41311074D01*
X48210778Y-41315549D01*
X48300000Y-41329681D01*
X48401419Y-41313617D01*
X48417483Y-41311074D01*
X48523463Y-41257074D01*
X48523462Y-41257074D01*
X48523465Y-41257073D01*
X48607573Y-41172965D01*
X48609520Y-41169143D01*
X48661574Y-41066983D01*
X48668013Y-41026324D01*
X48672182Y-41000000D01*
X51970319Y-41000000D01*
X51988925Y-41117483D01*
X52042925Y-41223463D01*
X52127036Y-41307574D01*
X52233016Y-41361574D01*
X52265142Y-41366661D01*
X52350500Y-41380181D01*
X52453851Y-41363811D01*
X52467983Y-41361574D01*
X52573963Y-41307574D01*
X52573962Y-41307574D01*
X52573965Y-41307573D01*
X52658073Y-41223465D01*
X52683805Y-41172963D01*
X52712074Y-41117483D01*
X52725752Y-41031119D01*
X52730681Y-41000000D01*
X52730681Y-40999999D01*
X55819819Y-40999999D01*
X55838425Y-41117483D01*
X55892425Y-41223463D01*
X55976536Y-41307574D01*
X56082516Y-41361574D01*
X56110778Y-41366049D01*
X56200000Y-41380181D01*
X56301419Y-41364117D01*
X56317483Y-41361574D01*
X56423463Y-41307574D01*
X56423462Y-41307574D01*
X56423465Y-41307573D01*
X56507573Y-41223465D01*
X56533305Y-41172963D01*
X56561574Y-41117483D01*
X56575252Y-41031119D01*
X56580181Y-41000000D01*
X56561574Y-40882518D01*
X56561574Y-40882516D01*
X56507574Y-40776536D01*
X56423463Y-40692425D01*
X56317483Y-40638425D01*
X56200000Y-40619819D01*
X56082516Y-40638425D01*
X55976536Y-40692425D01*
X55892425Y-40776536D01*
X55838425Y-40882516D01*
X55819819Y-40999999D01*
X52730681Y-40999999D01*
X52712074Y-40882518D01*
X52712074Y-40882516D01*
X52658074Y-40776536D01*
X52573963Y-40692425D01*
X52467983Y-40638425D01*
X52364630Y-40622056D01*
X52350500Y-40619819D01*
X52350499Y-40619819D01*
X52233016Y-40638425D01*
X52127036Y-40692425D01*
X52042925Y-40776536D01*
X51988925Y-40882516D01*
X51970319Y-41000000D01*
X48672182Y-41000000D01*
X48680181Y-40949500D01*
X48661574Y-40832018D01*
X48661574Y-40832016D01*
X48607574Y-40726036D01*
X48523463Y-40641925D01*
X48417483Y-40587925D01*
X48300000Y-40569319D01*
X48182516Y-40587925D01*
X48076536Y-40641925D01*
X47992425Y-40726036D01*
X47938425Y-40832016D01*
X47919819Y-40949499D01*
X44372183Y-40949499D01*
X44361574Y-40882518D01*
X44361574Y-40882516D01*
X44307574Y-40776536D01*
X44223463Y-40692425D01*
X44117483Y-40638425D01*
X44000000Y-40619819D01*
X43882516Y-40638425D01*
X43776536Y-40692425D01*
X43692425Y-40776536D01*
X43638425Y-40882516D01*
X43619819Y-41000000D01*
X36080181Y-41000000D01*
X36061574Y-40882518D01*
X36061574Y-40882516D01*
X36007574Y-40776536D01*
X35983364Y-40752326D01*
X35961972Y-40706450D01*
X35975073Y-40657555D01*
X35983364Y-40647674D01*
X35992613Y-40638425D01*
X36007573Y-40623465D01*
X36035162Y-40569319D01*
X36061574Y-40517483D01*
X36067091Y-40482647D01*
X36080181Y-40400000D01*
X36065912Y-40309906D01*
X36061574Y-40282516D01*
X36007574Y-40176536D01*
X35923463Y-40092425D01*
X35817483Y-40038425D01*
X35700000Y-40019819D01*
X35582516Y-40038425D01*
X35476536Y-40092425D01*
X35392425Y-40176536D01*
X35338425Y-40282516D01*
X35319819Y-40400000D01*
X35338425Y-40517483D01*
X35392425Y-40623463D01*
X35416636Y-40647675D01*
X35438028Y-40693552D01*
X35424926Y-40742446D01*
X35416636Y-40752325D01*
X35392425Y-40776536D01*
X35338425Y-40882516D01*
X35319819Y-41000000D01*
X33427371Y-41000000D01*
X33412467Y-40984016D01*
X33409819Y-40933467D01*
X33428257Y-40902780D01*
X33507573Y-40823465D01*
X33507575Y-40823462D01*
X33561574Y-40717483D01*
X33565542Y-40692427D01*
X33580181Y-40600000D01*
X33561595Y-40482648D01*
X33561574Y-40482516D01*
X33507574Y-40376536D01*
X33423465Y-40292427D01*
X33404017Y-40282518D01*
X33371470Y-40265934D01*
X33336949Y-40228914D01*
X33334299Y-40178365D01*
X33364763Y-40137939D01*
X33371467Y-40134067D01*
X33423465Y-40107573D01*
X33507573Y-40023465D01*
X33520652Y-39997796D01*
X33555336Y-39929725D01*
X49298828Y-39929725D01*
X49317434Y-40047209D01*
X49371434Y-40153189D01*
X49455545Y-40237300D01*
X49561525Y-40291300D01*
X49589787Y-40295775D01*
X49679009Y-40309907D01*
X49780428Y-40293843D01*
X49796492Y-40291300D01*
X49902472Y-40237300D01*
X49902471Y-40237300D01*
X49902474Y-40237299D01*
X49986582Y-40153191D01*
X50017544Y-40092425D01*
X50040583Y-40047209D01*
X50042453Y-40035398D01*
X50054436Y-39959739D01*
X50063815Y-39942817D01*
X50191524Y-39942817D01*
X50200164Y-39957196D01*
X50200613Y-39959741D01*
X50217756Y-40067983D01*
X50271756Y-40173963D01*
X50355867Y-40258074D01*
X50461847Y-40312074D01*
X50493973Y-40317161D01*
X50579331Y-40330681D01*
X50682682Y-40314311D01*
X50696814Y-40312074D01*
X50802794Y-40258074D01*
X50802793Y-40258074D01*
X50802796Y-40258073D01*
X50886904Y-40173965D01*
X50920732Y-40107574D01*
X50940905Y-40067983D01*
X50945586Y-40038425D01*
X50959512Y-39950500D01*
X50957643Y-39938699D01*
X59148548Y-39938699D01*
X59167154Y-40056183D01*
X59221153Y-40162162D01*
X59221155Y-40162164D01*
X59221156Y-40162165D01*
X59301625Y-40242634D01*
X59323017Y-40288509D01*
X59315234Y-40328554D01*
X59257263Y-40442327D01*
X59238657Y-40559809D01*
X59257263Y-40677292D01*
X59311263Y-40783272D01*
X59395374Y-40867383D01*
X59501354Y-40921383D01*
X59529616Y-40925858D01*
X59618838Y-40939990D01*
X59720257Y-40923926D01*
X59736321Y-40921383D01*
X59842301Y-40867383D01*
X59842300Y-40867383D01*
X59842303Y-40867382D01*
X59926411Y-40783274D01*
X59965555Y-40706450D01*
X59980412Y-40677292D01*
X59984734Y-40650000D01*
X63460701Y-40650000D01*
X63481020Y-40817351D01*
X63539794Y-40972324D01*
X63540801Y-40974980D01*
X63636567Y-41113721D01*
X63703437Y-41172963D01*
X63762752Y-41225512D01*
X63822887Y-41257073D01*
X63912025Y-41303856D01*
X64075709Y-41344200D01*
X64075710Y-41344200D01*
X64244290Y-41344200D01*
X64244291Y-41344200D01*
X64407975Y-41303856D01*
X64557247Y-41225512D01*
X64683433Y-41113721D01*
X64779199Y-40974980D01*
X64838979Y-40817353D01*
X64859299Y-40650000D01*
X64838979Y-40482647D01*
X64779199Y-40325020D01*
X64683433Y-40186279D01*
X64557247Y-40074488D01*
X64557246Y-40074487D01*
X64552621Y-40070390D01*
X64528498Y-40025889D01*
X64538623Y-39976293D01*
X64552621Y-39959610D01*
X64558265Y-39954610D01*
X64683433Y-39843721D01*
X64779199Y-39704980D01*
X64838979Y-39547353D01*
X64859299Y-39380000D01*
X64859299Y-39379999D01*
X66000701Y-39379999D01*
X66021020Y-39547351D01*
X66072282Y-39682516D01*
X66080801Y-39704980D01*
X66098541Y-39730681D01*
X66176401Y-39843481D01*
X66189173Y-39892462D01*
X66167473Y-39938194D01*
X66129938Y-39958095D01*
X66097578Y-39964533D01*
X66047796Y-39997796D01*
X66014533Y-40047578D01*
X66005800Y-40091480D01*
X66005800Y-41208520D01*
X66014533Y-41252422D01*
X66047796Y-41302204D01*
X66097578Y-41335467D01*
X66141480Y-41344200D01*
X66141481Y-41344200D01*
X67258519Y-41344200D01*
X67258520Y-41344200D01*
X67302422Y-41335467D01*
X67352204Y-41302204D01*
X67385467Y-41252422D01*
X67394200Y-41208520D01*
X67394200Y-40091480D01*
X67385467Y-40047578D01*
X67352204Y-39997796D01*
X67302422Y-39964533D01*
X67270060Y-39958095D01*
X67226787Y-39931836D01*
X67210517Y-39883903D01*
X67223597Y-39843482D01*
X67319199Y-39704980D01*
X67378979Y-39547353D01*
X67399299Y-39380000D01*
X67378979Y-39212647D01*
X67319199Y-39055020D01*
X67223433Y-38916279D01*
X67097247Y-38804488D01*
X67097246Y-38804487D01*
X67092621Y-38800390D01*
X67068498Y-38755889D01*
X67078623Y-38706293D01*
X67092621Y-38689610D01*
X67098265Y-38684610D01*
X67223433Y-38573721D01*
X67319199Y-38434980D01*
X67378979Y-38277353D01*
X67399299Y-38110000D01*
X67378979Y-37942647D01*
X67319199Y-37785020D01*
X67223433Y-37646279D01*
X67164155Y-37593764D01*
X67097247Y-37534487D01*
X66947975Y-37456144D01*
X66944360Y-37455253D01*
X66784291Y-37415800D01*
X66615709Y-37415800D01*
X66552851Y-37431293D01*
X66452024Y-37456144D01*
X66302752Y-37534487D01*
X66176567Y-37646279D01*
X66080800Y-37785021D01*
X66021020Y-37942648D01*
X66000701Y-38110000D01*
X66021020Y-38277351D01*
X66080247Y-38433518D01*
X66080801Y-38434980D01*
X66137748Y-38517482D01*
X66176567Y-38573721D01*
X66307378Y-38689610D01*
X66331502Y-38734111D01*
X66321376Y-38783707D01*
X66307378Y-38800390D01*
X66176567Y-38916278D01*
X66080800Y-39055021D01*
X66021020Y-39212648D01*
X66000701Y-39379999D01*
X64859299Y-39379999D01*
X64838979Y-39212647D01*
X64779199Y-39055020D01*
X64683433Y-38916279D01*
X64557247Y-38804488D01*
X64557246Y-38804487D01*
X64552621Y-38800390D01*
X64528498Y-38755889D01*
X64538623Y-38706293D01*
X64552621Y-38689610D01*
X64558265Y-38684610D01*
X64683433Y-38573721D01*
X64779199Y-38434980D01*
X64838979Y-38277353D01*
X64859299Y-38110000D01*
X64838979Y-37942647D01*
X64779199Y-37785020D01*
X64683433Y-37646279D01*
X64557247Y-37534488D01*
X64557246Y-37534487D01*
X64552621Y-37530390D01*
X64528498Y-37485889D01*
X64538623Y-37436293D01*
X64552621Y-37419610D01*
X64558265Y-37414610D01*
X64683433Y-37303721D01*
X64779199Y-37164980D01*
X64838979Y-37007353D01*
X64859299Y-36840000D01*
X64838979Y-36672647D01*
X64779199Y-36515020D01*
X64683433Y-36376279D01*
X64557247Y-36264488D01*
X64557246Y-36264487D01*
X64552621Y-36260390D01*
X64528498Y-36215889D01*
X64538623Y-36166293D01*
X64552621Y-36149610D01*
X64558265Y-36144610D01*
X64683433Y-36033721D01*
X64779199Y-35894980D01*
X64838979Y-35737353D01*
X64859299Y-35570000D01*
X66000701Y-35570000D01*
X66021020Y-35737351D01*
X66074391Y-35878077D01*
X66080801Y-35894980D01*
X66176567Y-36033721D01*
X66234720Y-36085240D01*
X66302752Y-36145512D01*
X66355883Y-36173397D01*
X66452025Y-36223856D01*
X66615709Y-36264200D01*
X66615710Y-36264200D01*
X66784290Y-36264200D01*
X66784291Y-36264200D01*
X66947975Y-36223856D01*
X67097247Y-36145512D01*
X67223433Y-36033721D01*
X67319199Y-35894980D01*
X67378979Y-35737353D01*
X67399299Y-35570000D01*
X67378979Y-35402647D01*
X67319199Y-35245020D01*
X67223433Y-35106279D01*
X67097247Y-34994488D01*
X67097246Y-34994487D01*
X67092621Y-34990390D01*
X67068498Y-34945889D01*
X67078623Y-34896293D01*
X67092621Y-34879610D01*
X67100168Y-34872924D01*
X67223433Y-34763721D01*
X67319199Y-34624980D01*
X67378979Y-34467353D01*
X67399299Y-34300000D01*
X67378979Y-34132647D01*
X67319199Y-33975020D01*
X67223433Y-33836279D01*
X67155996Y-33776535D01*
X67097247Y-33724487D01*
X66947975Y-33646144D01*
X66847149Y-33621293D01*
X66784291Y-33605800D01*
X66615709Y-33605800D01*
X66568313Y-33617482D01*
X66452024Y-33646144D01*
X66302752Y-33724487D01*
X66176567Y-33836279D01*
X66080800Y-33975021D01*
X66021020Y-34132648D01*
X66000701Y-34299999D01*
X66021020Y-34467351D01*
X66062429Y-34576536D01*
X66080801Y-34624980D01*
X66120515Y-34682516D01*
X66176567Y-34763721D01*
X66307378Y-34879610D01*
X66331502Y-34924111D01*
X66321376Y-34973707D01*
X66307378Y-34990390D01*
X66176567Y-35106278D01*
X66080800Y-35245021D01*
X66021020Y-35402648D01*
X66000701Y-35570000D01*
X64859299Y-35570000D01*
X64838979Y-35402647D01*
X64779199Y-35245020D01*
X64683433Y-35106279D01*
X64557247Y-34994488D01*
X64557246Y-34994487D01*
X64552621Y-34990390D01*
X64528498Y-34945889D01*
X64538623Y-34896293D01*
X64552621Y-34879610D01*
X64560168Y-34872924D01*
X64683433Y-34763721D01*
X64779199Y-34624980D01*
X64838979Y-34467353D01*
X64859299Y-34300000D01*
X64838979Y-34132647D01*
X64779199Y-33975020D01*
X64683433Y-33836279D01*
X64557247Y-33724488D01*
X64557246Y-33724487D01*
X64552621Y-33720390D01*
X64528498Y-33675889D01*
X64538623Y-33626293D01*
X64552621Y-33609610D01*
X64558265Y-33604610D01*
X64683433Y-33493721D01*
X64779199Y-33354980D01*
X64838979Y-33197353D01*
X64859299Y-33030000D01*
X64838979Y-32862647D01*
X64779199Y-32705020D01*
X64683433Y-32566279D01*
X64557247Y-32454488D01*
X64557246Y-32454487D01*
X64552621Y-32450390D01*
X64528498Y-32405889D01*
X64538623Y-32356293D01*
X64552621Y-32339610D01*
X64558265Y-32334610D01*
X64683433Y-32223721D01*
X64779199Y-32084980D01*
X64838979Y-31927353D01*
X64859299Y-31760000D01*
X66000701Y-31760000D01*
X66021020Y-31927351D01*
X66079867Y-32082516D01*
X66080801Y-32084980D01*
X66176567Y-32223721D01*
X66242933Y-32282516D01*
X66302752Y-32335512D01*
X66344497Y-32357421D01*
X66452025Y-32413856D01*
X66615709Y-32454200D01*
X66615710Y-32454200D01*
X66784290Y-32454200D01*
X66784291Y-32454200D01*
X66947975Y-32413856D01*
X67097247Y-32335512D01*
X67223433Y-32223721D01*
X67319199Y-32084980D01*
X67378979Y-31927353D01*
X67399299Y-31760000D01*
X67378979Y-31592647D01*
X67319199Y-31435020D01*
X67223433Y-31296279D01*
X67114758Y-31200001D01*
X67097247Y-31184487D01*
X66947975Y-31106144D01*
X66852111Y-31082516D01*
X66784291Y-31065800D01*
X66615709Y-31065800D01*
X66547889Y-31082516D01*
X66452024Y-31106144D01*
X66302752Y-31184487D01*
X66176567Y-31296279D01*
X66080800Y-31435021D01*
X66021020Y-31592648D01*
X66000701Y-31760000D01*
X64859299Y-31760000D01*
X64838979Y-31592647D01*
X64779199Y-31435020D01*
X64683433Y-31296279D01*
X64574758Y-31200001D01*
X64557247Y-31184487D01*
X64407975Y-31106144D01*
X64312111Y-31082516D01*
X64244291Y-31065800D01*
X64075709Y-31065800D01*
X64007889Y-31082516D01*
X63912024Y-31106144D01*
X63762752Y-31184487D01*
X63636567Y-31296279D01*
X63540800Y-31435021D01*
X63481020Y-31592648D01*
X63460701Y-31760000D01*
X63481020Y-31927351D01*
X63539867Y-32082516D01*
X63540801Y-32084980D01*
X63620193Y-32199999D01*
X63636567Y-32223721D01*
X63767378Y-32339610D01*
X63791502Y-32384111D01*
X63781376Y-32433707D01*
X63767378Y-32450390D01*
X63636567Y-32566278D01*
X63540800Y-32705021D01*
X63481020Y-32862648D01*
X63460701Y-33030000D01*
X63481020Y-33197351D01*
X63496598Y-33238425D01*
X63540801Y-33354980D01*
X63555680Y-33376536D01*
X63636567Y-33493721D01*
X63767378Y-33609610D01*
X63791502Y-33654111D01*
X63781376Y-33703707D01*
X63767378Y-33720390D01*
X63636567Y-33836278D01*
X63540800Y-33975021D01*
X63481020Y-34132648D01*
X63460701Y-34299999D01*
X63481020Y-34467351D01*
X63522429Y-34576536D01*
X63540801Y-34624980D01*
X63580515Y-34682516D01*
X63636567Y-34763721D01*
X63767378Y-34879610D01*
X63791502Y-34924111D01*
X63781376Y-34973707D01*
X63767378Y-34990390D01*
X63636567Y-35106278D01*
X63540800Y-35245021D01*
X63481020Y-35402648D01*
X63460701Y-35570000D01*
X63481020Y-35737351D01*
X63534391Y-35878077D01*
X63540801Y-35894980D01*
X63636567Y-36033721D01*
X63761735Y-36144610D01*
X63767378Y-36149609D01*
X63791501Y-36194110D01*
X63781376Y-36243706D01*
X63767378Y-36260388D01*
X63636569Y-36376276D01*
X63540800Y-36515021D01*
X63481020Y-36672648D01*
X63460701Y-36840000D01*
X63481020Y-37007351D01*
X63533116Y-37144715D01*
X63540801Y-37164980D01*
X63607475Y-37261574D01*
X63636567Y-37303721D01*
X63767378Y-37419610D01*
X63791502Y-37464111D01*
X63781376Y-37513707D01*
X63767378Y-37530390D01*
X63636567Y-37646278D01*
X63540800Y-37785021D01*
X63481020Y-37942648D01*
X63460701Y-38110000D01*
X63481020Y-38277351D01*
X63540247Y-38433518D01*
X63540801Y-38434980D01*
X63597748Y-38517482D01*
X63636567Y-38573721D01*
X63767378Y-38689610D01*
X63791502Y-38734111D01*
X63781376Y-38783707D01*
X63767378Y-38800390D01*
X63636567Y-38916278D01*
X63540800Y-39055021D01*
X63481020Y-39212648D01*
X63460701Y-39379999D01*
X63481020Y-39547351D01*
X63532282Y-39682516D01*
X63540801Y-39704980D01*
X63558541Y-39730681D01*
X63636567Y-39843721D01*
X63767378Y-39959610D01*
X63791502Y-40004111D01*
X63781376Y-40053707D01*
X63767378Y-40070390D01*
X63636567Y-40186278D01*
X63540800Y-40325021D01*
X63481020Y-40482648D01*
X63460701Y-40650000D01*
X59984734Y-40650000D01*
X59999019Y-40559809D01*
X59980412Y-40442327D01*
X59980412Y-40442325D01*
X59926412Y-40336345D01*
X59845941Y-40255874D01*
X59824549Y-40209998D01*
X59832333Y-40169952D01*
X59836299Y-40162167D01*
X59836302Y-40162165D01*
X59890303Y-40056182D01*
X59908910Y-39938700D01*
X59890303Y-39821218D01*
X59890303Y-39821216D01*
X59842992Y-39728363D01*
X59836823Y-39678122D01*
X59856598Y-39642444D01*
X59929147Y-39569896D01*
X59930036Y-39568152D01*
X59983148Y-39463914D01*
X59988748Y-39428556D01*
X60001755Y-39346431D01*
X59987623Y-39257209D01*
X59983148Y-39228947D01*
X59929148Y-39122967D01*
X59845037Y-39038856D01*
X59739057Y-38984856D01*
X59621574Y-38966250D01*
X59504090Y-38984856D01*
X59398110Y-39038856D01*
X59313999Y-39122967D01*
X59259999Y-39228947D01*
X59241393Y-39346430D01*
X59241393Y-39346431D01*
X59242901Y-39355950D01*
X59259999Y-39463912D01*
X59307311Y-39556767D01*
X59313479Y-39607009D01*
X59293702Y-39642688D01*
X59221154Y-39715236D01*
X59167154Y-39821216D01*
X59148548Y-39938699D01*
X50957643Y-39938699D01*
X50942562Y-39843481D01*
X50940905Y-39833016D01*
X50886905Y-39727036D01*
X50802794Y-39642925D01*
X50696814Y-39588925D01*
X50593461Y-39572556D01*
X50579331Y-39570319D01*
X50579330Y-39570319D01*
X50461847Y-39588925D01*
X50355867Y-39642925D01*
X50271756Y-39727036D01*
X50217756Y-39833016D01*
X50203904Y-39920484D01*
X50191524Y-39942817D01*
X50063815Y-39942817D01*
X50066814Y-39937407D01*
X50058175Y-39923028D01*
X50057726Y-39920484D01*
X50053278Y-39892402D01*
X50050402Y-39874243D01*
X50040583Y-39812242D01*
X49986583Y-39706262D01*
X49902472Y-39622151D01*
X49796492Y-39568151D01*
X49679009Y-39549545D01*
X49561525Y-39568151D01*
X49455545Y-39622151D01*
X49371434Y-39706262D01*
X49317434Y-39812242D01*
X49298828Y-39929725D01*
X33555336Y-39929725D01*
X33561574Y-39917483D01*
X33572485Y-39848589D01*
X33580181Y-39800000D01*
X33565335Y-39706262D01*
X33561574Y-39682516D01*
X33507574Y-39576536D01*
X33423463Y-39492425D01*
X33317483Y-39438425D01*
X33200000Y-39419819D01*
X33082518Y-39438425D01*
X33002810Y-39479039D01*
X32952568Y-39485207D01*
X32910116Y-39457638D01*
X32895316Y-39409231D01*
X32895755Y-39404184D01*
X32899299Y-39375000D01*
X32878979Y-39207647D01*
X32819199Y-39050020D01*
X32723433Y-38911279D01*
X32597247Y-38799488D01*
X32597246Y-38799487D01*
X32592621Y-38795390D01*
X32568498Y-38750889D01*
X32568679Y-38750000D01*
X41519819Y-38750000D01*
X41538425Y-38867483D01*
X41592425Y-38973463D01*
X41676536Y-39057574D01*
X41782516Y-39111574D01*
X41817892Y-39117176D01*
X41864324Y-39124530D01*
X41908596Y-39149070D01*
X41926737Y-39196327D01*
X41918685Y-39231209D01*
X41917765Y-39233014D01*
X41899158Y-39350499D01*
X41917764Y-39467983D01*
X41971764Y-39573963D01*
X42055875Y-39658074D01*
X42161855Y-39712074D01*
X42181821Y-39715236D01*
X42279339Y-39730681D01*
X42382690Y-39714311D01*
X42396822Y-39712074D01*
X42502802Y-39658074D01*
X42502801Y-39658074D01*
X42502804Y-39658073D01*
X42586912Y-39573965D01*
X42599355Y-39549545D01*
X42640913Y-39467983D01*
X42651017Y-39404184D01*
X42659520Y-39350500D01*
X42640913Y-39233018D01*
X42640913Y-39233016D01*
X42586913Y-39127036D01*
X42508253Y-39048376D01*
X51969319Y-39048376D01*
X51987925Y-39165859D01*
X52041925Y-39271839D01*
X52126036Y-39355950D01*
X52232016Y-39409950D01*
X52264142Y-39415037D01*
X52349500Y-39428557D01*
X52452851Y-39412187D01*
X52466983Y-39409950D01*
X52572963Y-39355950D01*
X52572962Y-39355950D01*
X52572965Y-39355949D01*
X52657073Y-39271841D01*
X52676855Y-39233016D01*
X52711074Y-39165859D01*
X52713733Y-39149070D01*
X52729681Y-39048376D01*
X52714326Y-38951429D01*
X52711074Y-38930892D01*
X52657074Y-38824912D01*
X52572963Y-38740801D01*
X52466983Y-38686801D01*
X52351318Y-38668483D01*
X52349500Y-38668195D01*
X52349499Y-38668195D01*
X52232016Y-38686801D01*
X52126036Y-38740801D01*
X52041925Y-38824912D01*
X51987925Y-38930892D01*
X51969319Y-39048376D01*
X42508253Y-39048376D01*
X42502802Y-39042925D01*
X42396822Y-38988925D01*
X42315014Y-38975969D01*
X42270742Y-38951429D01*
X42252601Y-38904172D01*
X42260656Y-38869283D01*
X42261574Y-38867482D01*
X42280181Y-38750000D01*
X42261574Y-38632518D01*
X42261574Y-38632516D01*
X42207574Y-38526536D01*
X42123463Y-38442425D01*
X42040200Y-38400000D01*
X43619819Y-38400000D01*
X43638425Y-38517483D01*
X43692425Y-38623463D01*
X43776536Y-38707574D01*
X43882516Y-38761574D01*
X43910778Y-38766049D01*
X44000000Y-38780181D01*
X44101419Y-38764117D01*
X44117483Y-38761574D01*
X44223463Y-38707574D01*
X44223462Y-38707574D01*
X44223465Y-38707573D01*
X44307573Y-38623465D01*
X44332919Y-38573721D01*
X44344496Y-38551000D01*
X46062358Y-38551000D01*
X46080964Y-38668483D01*
X46134964Y-38774463D01*
X46219075Y-38858574D01*
X46325055Y-38912574D01*
X46357181Y-38917661D01*
X46442539Y-38931181D01*
X46545890Y-38914811D01*
X46560022Y-38912574D01*
X46666002Y-38858574D01*
X46666001Y-38858574D01*
X46666004Y-38858573D01*
X46750112Y-38774465D01*
X46767673Y-38740000D01*
X46804113Y-38668483D01*
X46819121Y-38573721D01*
X46822720Y-38551000D01*
X46804345Y-38434980D01*
X46804113Y-38433516D01*
X46750113Y-38327536D01*
X46666002Y-38243425D01*
X46560022Y-38189425D01*
X46442539Y-38170819D01*
X46325055Y-38189425D01*
X46219075Y-38243425D01*
X46134964Y-38327536D01*
X46080964Y-38433516D01*
X46062358Y-38551000D01*
X44344496Y-38551000D01*
X44361574Y-38517483D01*
X44373461Y-38442427D01*
X44380181Y-38400000D01*
X44361574Y-38282518D01*
X44361574Y-38282516D01*
X44307574Y-38176536D01*
X44223463Y-38092425D01*
X44117483Y-38038425D01*
X44000000Y-38019819D01*
X43882516Y-38038425D01*
X43776536Y-38092425D01*
X43692425Y-38176536D01*
X43638425Y-38282516D01*
X43619819Y-38400000D01*
X42040200Y-38400000D01*
X42017483Y-38388425D01*
X41900000Y-38369819D01*
X41782516Y-38388425D01*
X41676536Y-38442425D01*
X41592425Y-38526536D01*
X41538425Y-38632516D01*
X41519819Y-38750000D01*
X32568679Y-38750000D01*
X32578623Y-38701293D01*
X32592621Y-38684610D01*
X32597247Y-38680512D01*
X32723433Y-38568721D01*
X32819199Y-38429980D01*
X32878979Y-38272353D01*
X32884796Y-38224442D01*
X32907714Y-38179314D01*
X32954282Y-38159472D01*
X32969831Y-38160276D01*
X32978014Y-38161572D01*
X32978018Y-38161574D01*
X33095500Y-38180181D01*
X33196919Y-38164117D01*
X33212983Y-38161574D01*
X33318963Y-38107574D01*
X33318962Y-38107574D01*
X33318965Y-38107573D01*
X33379363Y-38047174D01*
X33425240Y-38025782D01*
X33431690Y-38025500D01*
X34859270Y-38025500D01*
X34906836Y-38042813D01*
X34932146Y-38086650D01*
X34925205Y-38133095D01*
X34875895Y-38229870D01*
X34857289Y-38347351D01*
X34875895Y-38464835D01*
X34929895Y-38570815D01*
X35014006Y-38654926D01*
X35119986Y-38708926D01*
X35152112Y-38714013D01*
X35237470Y-38727533D01*
X35340821Y-38711163D01*
X35354953Y-38708926D01*
X35460933Y-38654926D01*
X35460932Y-38654926D01*
X35460935Y-38654925D01*
X35545043Y-38570817D01*
X35572219Y-38517482D01*
X35599044Y-38464835D01*
X35603772Y-38434980D01*
X35617651Y-38347352D01*
X35599044Y-38229870D01*
X35573726Y-38180180D01*
X35549735Y-38133095D01*
X35543567Y-38082853D01*
X35571136Y-38040401D01*
X35615670Y-38025500D01*
X42792139Y-38025500D01*
X42796012Y-38025601D01*
X42836064Y-38027700D01*
X42858812Y-38018967D01*
X42869930Y-38015673D01*
X42893768Y-38010607D01*
X42900644Y-38005610D01*
X42917624Y-37996392D01*
X42917621Y-37996392D01*
X42925560Y-37993346D01*
X42942793Y-37976112D01*
X42951616Y-37968577D01*
X42971323Y-37954260D01*
X42975572Y-37946898D01*
X42987329Y-37931575D01*
X43164745Y-37754159D01*
X46829263Y-37754159D01*
X46847869Y-37871642D01*
X46901869Y-37977622D01*
X46985980Y-38061733D01*
X47091960Y-38115733D01*
X47120222Y-38120208D01*
X47209444Y-38134340D01*
X47310863Y-38118276D01*
X47326927Y-38115733D01*
X47432907Y-38061733D01*
X47432906Y-38061733D01*
X47432909Y-38061732D01*
X47517017Y-37977624D01*
X47540482Y-37931571D01*
X47571018Y-37871642D01*
X47577222Y-37832470D01*
X47589625Y-37754159D01*
X47571018Y-37636677D01*
X47571018Y-37636675D01*
X47517018Y-37530695D01*
X47487452Y-37501129D01*
X47466060Y-37455253D01*
X47479161Y-37406358D01*
X47520625Y-37377324D01*
X47528200Y-37375714D01*
X47573159Y-37368593D01*
X47617483Y-37361574D01*
X47723463Y-37307574D01*
X47723462Y-37307574D01*
X47723465Y-37307573D01*
X47807573Y-37223465D01*
X47839920Y-37159980D01*
X47861574Y-37117483D01*
X47868760Y-37072109D01*
X47880181Y-37000000D01*
X47863114Y-36892241D01*
X48962560Y-36892241D01*
X48981166Y-37009724D01*
X49035166Y-37115704D01*
X49119277Y-37199815D01*
X49225257Y-37253815D01*
X49253519Y-37258290D01*
X49342741Y-37272422D01*
X49444160Y-37256358D01*
X49460224Y-37253815D01*
X49566204Y-37199815D01*
X49566203Y-37199815D01*
X49566206Y-37199814D01*
X49650314Y-37115706D01*
X49668415Y-37080181D01*
X49704315Y-37009724D01*
X49705855Y-37000000D01*
X54119819Y-37000000D01*
X54138425Y-37117483D01*
X54192425Y-37223463D01*
X54276536Y-37307574D01*
X54382516Y-37361574D01*
X54410778Y-37366049D01*
X54500000Y-37380181D01*
X54601419Y-37364117D01*
X54617483Y-37361574D01*
X54723463Y-37307574D01*
X54723462Y-37307574D01*
X54723465Y-37307573D01*
X54807573Y-37223465D01*
X54820185Y-37198713D01*
X61511328Y-37198713D01*
X61511503Y-37199815D01*
X61529934Y-37316196D01*
X61583934Y-37422176D01*
X61668045Y-37506287D01*
X61774025Y-37560287D01*
X61806151Y-37565374D01*
X61891509Y-37578894D01*
X61994860Y-37562524D01*
X62008992Y-37560287D01*
X62114972Y-37506287D01*
X62114971Y-37506287D01*
X62114974Y-37506286D01*
X62168970Y-37452290D01*
X62405249Y-37452290D01*
X62423855Y-37569773D01*
X62477855Y-37675753D01*
X62561966Y-37759864D01*
X62667946Y-37813864D01*
X62696208Y-37818339D01*
X62785430Y-37832471D01*
X62886849Y-37816407D01*
X62902913Y-37813864D01*
X63008893Y-37759864D01*
X63008892Y-37759864D01*
X63008895Y-37759863D01*
X63093003Y-37675755D01*
X63108022Y-37646278D01*
X63147004Y-37569773D01*
X63154033Y-37525390D01*
X63165611Y-37452290D01*
X63147004Y-37334808D01*
X63147004Y-37334806D01*
X63093004Y-37228826D01*
X63008893Y-37144715D01*
X62902913Y-37090715D01*
X62785430Y-37072109D01*
X62667946Y-37090715D01*
X62561966Y-37144715D01*
X62477855Y-37228826D01*
X62423855Y-37334806D01*
X62405249Y-37452290D01*
X62168970Y-37452290D01*
X62199082Y-37422178D01*
X62202332Y-37415800D01*
X62253083Y-37316196D01*
X62259180Y-37277700D01*
X62271690Y-37198713D01*
X62253083Y-37081231D01*
X62253083Y-37081229D01*
X62199083Y-36975249D01*
X62114972Y-36891138D01*
X62008992Y-36837138D01*
X61891509Y-36818532D01*
X61774025Y-36837138D01*
X61668045Y-36891138D01*
X61583934Y-36975249D01*
X61529934Y-37081229D01*
X61511328Y-37198712D01*
X61511328Y-37198713D01*
X54820185Y-37198713D01*
X54839920Y-37159980D01*
X54861574Y-37117483D01*
X54868760Y-37072109D01*
X54880181Y-37000000D01*
X54861574Y-36882518D01*
X54861574Y-36882516D01*
X54807574Y-36776536D01*
X54723463Y-36692425D01*
X54617483Y-36638425D01*
X54514130Y-36622056D01*
X54500000Y-36619819D01*
X54499999Y-36619819D01*
X54382516Y-36638425D01*
X54276536Y-36692425D01*
X54192425Y-36776536D01*
X54138425Y-36882516D01*
X54119819Y-37000000D01*
X49705855Y-37000000D01*
X49708624Y-36982516D01*
X49722922Y-36892241D01*
X49716093Y-36849126D01*
X49725752Y-36799439D01*
X49765090Y-36767584D01*
X49800758Y-36764463D01*
X49811202Y-36766117D01*
X49900000Y-36780181D01*
X50001419Y-36764117D01*
X50017483Y-36761574D01*
X50123463Y-36707574D01*
X50123462Y-36707574D01*
X50123465Y-36707573D01*
X50207573Y-36623465D01*
X50223389Y-36592425D01*
X50261574Y-36517483D01*
X50265483Y-36492802D01*
X50280181Y-36400000D01*
X50263798Y-36296562D01*
X50261574Y-36282516D01*
X50207574Y-36176536D01*
X50123463Y-36092425D01*
X50017483Y-36038425D01*
X49914130Y-36022056D01*
X49900000Y-36019819D01*
X49899999Y-36019819D01*
X49782516Y-36038425D01*
X49676536Y-36092425D01*
X49592425Y-36176536D01*
X49538425Y-36282516D01*
X49519819Y-36400000D01*
X49526647Y-36443113D01*
X49516988Y-36492802D01*
X49477649Y-36524657D01*
X49441983Y-36527777D01*
X49342741Y-36512060D01*
X49225257Y-36530666D01*
X49119277Y-36584666D01*
X49035166Y-36668777D01*
X48981166Y-36774757D01*
X48962560Y-36892241D01*
X47863114Y-36892241D01*
X47861574Y-36882518D01*
X47861574Y-36882516D01*
X47807574Y-36776536D01*
X47799620Y-36768582D01*
X47778228Y-36722706D01*
X47791329Y-36673811D01*
X47832793Y-36644777D01*
X47840371Y-36643167D01*
X47866983Y-36638952D01*
X47972963Y-36584952D01*
X47972962Y-36584952D01*
X47972965Y-36584951D01*
X48057073Y-36500843D01*
X48086788Y-36442524D01*
X48111074Y-36394861D01*
X48114809Y-36371278D01*
X48129681Y-36277378D01*
X48115701Y-36189111D01*
X48111074Y-36159894D01*
X48057074Y-36053914D01*
X47972963Y-35969803D01*
X47866983Y-35915803D01*
X47767199Y-35900000D01*
X56419819Y-35900000D01*
X56438425Y-36017483D01*
X56492425Y-36123463D01*
X56576536Y-36207574D01*
X56678528Y-36259542D01*
X56713050Y-36296562D01*
X56715700Y-36347112D01*
X56685236Y-36387538D01*
X56678531Y-36391409D01*
X56676536Y-36392425D01*
X56592425Y-36476536D01*
X56538425Y-36582516D01*
X56519819Y-36700000D01*
X56538425Y-36817483D01*
X56592425Y-36923463D01*
X56676536Y-37007574D01*
X56782516Y-37061574D01*
X56810778Y-37066049D01*
X56900000Y-37080181D01*
X57001419Y-37064117D01*
X57017483Y-37061574D01*
X57123463Y-37007574D01*
X57123462Y-37007574D01*
X57123465Y-37007573D01*
X57207573Y-36923465D01*
X57219529Y-36900000D01*
X57261574Y-36817483D01*
X57265542Y-36792427D01*
X57280181Y-36700000D01*
X57263998Y-36597824D01*
X57261574Y-36582516D01*
X57219530Y-36500000D01*
X62231821Y-36500000D01*
X62250427Y-36617483D01*
X62304427Y-36723463D01*
X62388538Y-36807574D01*
X62494518Y-36861574D01*
X62522780Y-36866049D01*
X62612002Y-36880181D01*
X62713421Y-36864117D01*
X62729485Y-36861574D01*
X62835465Y-36807574D01*
X62835464Y-36807574D01*
X62835467Y-36807573D01*
X62919575Y-36723465D01*
X62947440Y-36668777D01*
X62973576Y-36617483D01*
X62977544Y-36592427D01*
X62992183Y-36500000D01*
X62975531Y-36394860D01*
X62973576Y-36382516D01*
X62919576Y-36276536D01*
X62835465Y-36192425D01*
X62729485Y-36138425D01*
X62612002Y-36119819D01*
X62494518Y-36138425D01*
X62388538Y-36192425D01*
X62304427Y-36276536D01*
X62250427Y-36382516D01*
X62231821Y-36500000D01*
X57219530Y-36500000D01*
X57207574Y-36476536D01*
X57123463Y-36392425D01*
X57021470Y-36340457D01*
X56986949Y-36303437D01*
X56984300Y-36252887D01*
X57014763Y-36212461D01*
X57021460Y-36208594D01*
X57023465Y-36207573D01*
X57107573Y-36123465D01*
X57136471Y-36066748D01*
X57173490Y-36032227D01*
X57224039Y-36029577D01*
X57236000Y-36034410D01*
X57299243Y-36066634D01*
X57331369Y-36071721D01*
X57416727Y-36085241D01*
X57520078Y-36068871D01*
X57534210Y-36066634D01*
X57640190Y-36012634D01*
X57640189Y-36012634D01*
X57640192Y-36012633D01*
X57724300Y-35928525D01*
X57740019Y-35897674D01*
X57778301Y-35822543D01*
X57790963Y-35742595D01*
X60012914Y-35742595D01*
X60031520Y-35860078D01*
X60085520Y-35966058D01*
X60169631Y-36050169D01*
X60275611Y-36104169D01*
X60303873Y-36108644D01*
X60393095Y-36122776D01*
X60494514Y-36106712D01*
X60510578Y-36104169D01*
X60616558Y-36050169D01*
X60616557Y-36050169D01*
X60616560Y-36050168D01*
X60700668Y-35966060D01*
X60708886Y-35949932D01*
X60754669Y-35860078D01*
X60757212Y-35844014D01*
X60773276Y-35742595D01*
X60754669Y-35625113D01*
X60754669Y-35625111D01*
X60700669Y-35519131D01*
X60616558Y-35435020D01*
X60547828Y-35400000D01*
X62319819Y-35400000D01*
X62338425Y-35517483D01*
X62392425Y-35623463D01*
X62476536Y-35707574D01*
X62582516Y-35761574D01*
X62610778Y-35766049D01*
X62700000Y-35780181D01*
X62801419Y-35764117D01*
X62817483Y-35761574D01*
X62923463Y-35707574D01*
X62923462Y-35707574D01*
X62923465Y-35707573D01*
X63007573Y-35623465D01*
X63025858Y-35587578D01*
X63061574Y-35517483D01*
X63064343Y-35500000D01*
X63080181Y-35400000D01*
X63066049Y-35310778D01*
X63061574Y-35282516D01*
X63007574Y-35176536D01*
X62923463Y-35092425D01*
X62817483Y-35038425D01*
X62714130Y-35022056D01*
X62700000Y-35019819D01*
X62699999Y-35019819D01*
X62582516Y-35038425D01*
X62476536Y-35092425D01*
X62392425Y-35176536D01*
X62338425Y-35282516D01*
X62319819Y-35400000D01*
X60547828Y-35400000D01*
X60510578Y-35381020D01*
X60393095Y-35362414D01*
X60275611Y-35381020D01*
X60169631Y-35435020D01*
X60085520Y-35519131D01*
X60031520Y-35625111D01*
X60012914Y-35742595D01*
X57790963Y-35742595D01*
X57791623Y-35738426D01*
X57796908Y-35705060D01*
X57782593Y-35614679D01*
X57778301Y-35587576D01*
X57724301Y-35481596D01*
X57640190Y-35397485D01*
X57534210Y-35343485D01*
X57430857Y-35327116D01*
X57416727Y-35324879D01*
X57416726Y-35324879D01*
X57299243Y-35343485D01*
X57193263Y-35397485D01*
X57109152Y-35481596D01*
X57080255Y-35538311D01*
X57043235Y-35572832D01*
X56992685Y-35575481D01*
X56980726Y-35570650D01*
X56917481Y-35538425D01*
X56800000Y-35519819D01*
X56682516Y-35538425D01*
X56576536Y-35592425D01*
X56492425Y-35676536D01*
X56438425Y-35782516D01*
X56419819Y-35900000D01*
X47767199Y-35900000D01*
X47749500Y-35897197D01*
X47632016Y-35915803D01*
X47526036Y-35969803D01*
X47441925Y-36053914D01*
X47387925Y-36159894D01*
X47369319Y-36277378D01*
X47387925Y-36394861D01*
X47441925Y-36500841D01*
X47449879Y-36508795D01*
X47471271Y-36554671D01*
X47458170Y-36603566D01*
X47416706Y-36632600D01*
X47409131Y-36634210D01*
X47382516Y-36638425D01*
X47276536Y-36692425D01*
X47192425Y-36776536D01*
X47138425Y-36882516D01*
X47119819Y-37000000D01*
X47138425Y-37117483D01*
X47192425Y-37223463D01*
X47221991Y-37253029D01*
X47243383Y-37298905D01*
X47230282Y-37347800D01*
X47188818Y-37376834D01*
X47181241Y-37378444D01*
X47091960Y-37392584D01*
X46985980Y-37446584D01*
X46901869Y-37530695D01*
X46847869Y-37636675D01*
X46829263Y-37754159D01*
X43164745Y-37754159D01*
X43620441Y-37298462D01*
X43666316Y-37277071D01*
X43684335Y-37277699D01*
X43700000Y-37280181D01*
X43798875Y-37264520D01*
X43817483Y-37261574D01*
X43923463Y-37207574D01*
X43923462Y-37207574D01*
X43923465Y-37207573D01*
X44007573Y-37123465D01*
X44019529Y-37100000D01*
X44061574Y-37017483D01*
X44064343Y-37000000D01*
X44080181Y-36900000D01*
X44064254Y-36799439D01*
X44061574Y-36782516D01*
X44007574Y-36676536D01*
X43923463Y-36592425D01*
X43817483Y-36538425D01*
X43700000Y-36519819D01*
X43582516Y-36538425D01*
X43476536Y-36592425D01*
X43392425Y-36676536D01*
X43338425Y-36782516D01*
X43319819Y-36900000D01*
X43322298Y-36915659D01*
X43312638Y-36965347D01*
X43301535Y-36979558D01*
X42728269Y-37552826D01*
X42682393Y-37574218D01*
X42675943Y-37574500D01*
X33431690Y-37574500D01*
X33384124Y-37557187D01*
X33379365Y-37552826D01*
X33331114Y-37504576D01*
X33309721Y-37458700D01*
X33322821Y-37409806D01*
X33331107Y-37399930D01*
X33407573Y-37323465D01*
X33411277Y-37316196D01*
X33461574Y-37217483D01*
X33469889Y-37164980D01*
X33480181Y-37100000D01*
X33461574Y-36982518D01*
X33461574Y-36982516D01*
X33407574Y-36876536D01*
X33323463Y-36792425D01*
X33217483Y-36738425D01*
X33100000Y-36719819D01*
X32970942Y-36740259D01*
X32970584Y-36738001D01*
X32937152Y-36742102D01*
X32894703Y-36714527D01*
X32880347Y-36678918D01*
X32879116Y-36668777D01*
X32878979Y-36667647D01*
X32819199Y-36510020D01*
X32723433Y-36371279D01*
X32597247Y-36259488D01*
X32597246Y-36259487D01*
X32592621Y-36255390D01*
X32568498Y-36210889D01*
X32578623Y-36161293D01*
X32592621Y-36144610D01*
X32597247Y-36140512D01*
X32723433Y-36028721D01*
X32819199Y-35889980D01*
X32878979Y-35732353D01*
X32895049Y-35600000D01*
X34419819Y-35600000D01*
X34438425Y-35717483D01*
X34492425Y-35823463D01*
X34566636Y-35897674D01*
X34588028Y-35943550D01*
X34577097Y-35984343D01*
X34578686Y-35985153D01*
X34519364Y-36101577D01*
X34503777Y-36200000D01*
X34500758Y-36219061D01*
X34502995Y-36233191D01*
X34519364Y-36336544D01*
X34573364Y-36442524D01*
X34657475Y-36526635D01*
X34763455Y-36580635D01*
X34790714Y-36584952D01*
X34880939Y-36599242D01*
X34986545Y-36582516D01*
X34998422Y-36580635D01*
X35104402Y-36526635D01*
X35104401Y-36526635D01*
X35104404Y-36526634D01*
X35188512Y-36442526D01*
X35190459Y-36438704D01*
X35242513Y-36336544D01*
X35249745Y-36290879D01*
X35261120Y-36219061D01*
X35242513Y-36101579D01*
X35242513Y-36101577D01*
X35241709Y-36100000D01*
X39019819Y-36100000D01*
X39038425Y-36217483D01*
X39092425Y-36323463D01*
X39176536Y-36407574D01*
X39282516Y-36461574D01*
X39310778Y-36466049D01*
X39400000Y-36480181D01*
X39501419Y-36464117D01*
X39517483Y-36461574D01*
X39623462Y-36407575D01*
X39623462Y-36407574D01*
X39623465Y-36407573D01*
X39700776Y-36330261D01*
X39746651Y-36308870D01*
X39795545Y-36321971D01*
X39819035Y-36348992D01*
X39843425Y-36396860D01*
X39927536Y-36480971D01*
X40033516Y-36534971D01*
X40055326Y-36538425D01*
X40151000Y-36553578D01*
X40252419Y-36537514D01*
X40268483Y-36534971D01*
X40374463Y-36480971D01*
X40374462Y-36480971D01*
X40374465Y-36480970D01*
X40458573Y-36396862D01*
X40489307Y-36336543D01*
X40512574Y-36290880D01*
X40523189Y-36223855D01*
X40531181Y-36173397D01*
X40512574Y-36055915D01*
X40498718Y-36028721D01*
X40467553Y-35967556D01*
X40461385Y-35917315D01*
X40488954Y-35874862D01*
X40507160Y-35867134D01*
X40507039Y-35866896D01*
X40623463Y-35807574D01*
X40623462Y-35807574D01*
X40623465Y-35807573D01*
X40707573Y-35723465D01*
X40760740Y-35619119D01*
X40761574Y-35617483D01*
X40765542Y-35592427D01*
X40780181Y-35500000D01*
X40763945Y-35397487D01*
X40761574Y-35382516D01*
X40707574Y-35276536D01*
X40633364Y-35202326D01*
X40611972Y-35156450D01*
X40625073Y-35107555D01*
X40633364Y-35097674D01*
X40663737Y-35067301D01*
X40707573Y-35023465D01*
X40749648Y-34940889D01*
X40761574Y-34917483D01*
X40777932Y-34814197D01*
X40780181Y-34800000D01*
X40761574Y-34682518D01*
X40761574Y-34682516D01*
X40707574Y-34576536D01*
X40623463Y-34492425D01*
X40517483Y-34438425D01*
X40400000Y-34419819D01*
X40282516Y-34438425D01*
X40176536Y-34492425D01*
X40092425Y-34576536D01*
X40038425Y-34682516D01*
X40019819Y-34800000D01*
X40038425Y-34917483D01*
X40092425Y-35023463D01*
X40166636Y-35097674D01*
X40188028Y-35143550D01*
X40174927Y-35192445D01*
X40166636Y-35202326D01*
X40092425Y-35276536D01*
X40038425Y-35382516D01*
X40019819Y-35500000D01*
X40038425Y-35617481D01*
X40083446Y-35705840D01*
X40089614Y-35756082D01*
X40062045Y-35798534D01*
X40043839Y-35806262D01*
X40043961Y-35806501D01*
X39927536Y-35865822D01*
X39850224Y-35943134D01*
X39804347Y-35964526D01*
X39755453Y-35951425D01*
X39731964Y-35924403D01*
X39707575Y-35876537D01*
X39623463Y-35792425D01*
X39517483Y-35738425D01*
X39400000Y-35719819D01*
X39282516Y-35738425D01*
X39176536Y-35792425D01*
X39092425Y-35876536D01*
X39038425Y-35982516D01*
X39019819Y-36100000D01*
X35241709Y-36100000D01*
X35188514Y-35995598D01*
X35157442Y-35964526D01*
X35114301Y-35921385D01*
X35092910Y-35875511D01*
X35103839Y-35834717D01*
X35102252Y-35833908D01*
X35161574Y-35717482D01*
X35168059Y-35676535D01*
X35180181Y-35600000D01*
X35161574Y-35482518D01*
X35161574Y-35482516D01*
X35107574Y-35376536D01*
X35023463Y-35292425D01*
X34917483Y-35238425D01*
X34892693Y-35234499D01*
X37927379Y-35234499D01*
X37929616Y-35248629D01*
X37945985Y-35351982D01*
X37999985Y-35457962D01*
X38084096Y-35542073D01*
X38190076Y-35596073D01*
X38222202Y-35601160D01*
X38307560Y-35614680D01*
X38410911Y-35598310D01*
X38425043Y-35596073D01*
X38531023Y-35542073D01*
X38531022Y-35542073D01*
X38531025Y-35542072D01*
X38615133Y-35457964D01*
X38643318Y-35402648D01*
X38669134Y-35351982D01*
X38678566Y-35292427D01*
X38687741Y-35234499D01*
X38669134Y-35117017D01*
X38669134Y-35117015D01*
X38615134Y-35011035D01*
X38531023Y-34926924D01*
X38425043Y-34872924D01*
X38307560Y-34854318D01*
X38190076Y-34872924D01*
X38084096Y-34926924D01*
X37999985Y-35011035D01*
X37945985Y-35117015D01*
X37929704Y-35219819D01*
X37927379Y-35234499D01*
X34892693Y-35234499D01*
X34800000Y-35219819D01*
X34682516Y-35238425D01*
X34576536Y-35292425D01*
X34492425Y-35376536D01*
X34438425Y-35482516D01*
X34419819Y-35600000D01*
X32895049Y-35600000D01*
X32899299Y-35565000D01*
X32878979Y-35397647D01*
X32819199Y-35240020D01*
X32723433Y-35101279D01*
X32597247Y-34989488D01*
X32597246Y-34989487D01*
X32592621Y-34985390D01*
X32568498Y-34940889D01*
X32578623Y-34891293D01*
X32592621Y-34874610D01*
X32615526Y-34854318D01*
X32723433Y-34758721D01*
X32819199Y-34619980D01*
X32878979Y-34462353D01*
X32898692Y-34300000D01*
X44319819Y-34300000D01*
X44338425Y-34417483D01*
X44392425Y-34523463D01*
X44476536Y-34607574D01*
X44582516Y-34661574D01*
X44610778Y-34666049D01*
X44700000Y-34680181D01*
X44801419Y-34664117D01*
X44817483Y-34661574D01*
X44923463Y-34607574D01*
X44923462Y-34607574D01*
X44923465Y-34607573D01*
X45007573Y-34523465D01*
X45024496Y-34490252D01*
X45061574Y-34417483D01*
X45067582Y-34379547D01*
X45080181Y-34300000D01*
X45061574Y-34182518D01*
X45061574Y-34182516D01*
X45007574Y-34076536D01*
X44923463Y-33992425D01*
X44817483Y-33938425D01*
X44714130Y-33922056D01*
X44700000Y-33919819D01*
X44699999Y-33919819D01*
X44582516Y-33938425D01*
X44476536Y-33992425D01*
X44392425Y-34076536D01*
X44338425Y-34182516D01*
X44319819Y-34300000D01*
X32898692Y-34300000D01*
X32899299Y-34295000D01*
X32878979Y-34127647D01*
X32819199Y-33970020D01*
X32770868Y-33900000D01*
X45219819Y-33900000D01*
X45238425Y-34017483D01*
X45292425Y-34123463D01*
X45376536Y-34207574D01*
X45482516Y-34261574D01*
X45510778Y-34266049D01*
X45600000Y-34280181D01*
X45701419Y-34264117D01*
X45717483Y-34261574D01*
X45823463Y-34207574D01*
X45823462Y-34207574D01*
X45823465Y-34207573D01*
X45907573Y-34123465D01*
X45958527Y-34023463D01*
X45961574Y-34017483D01*
X45964343Y-34000000D01*
X48219819Y-34000000D01*
X48238425Y-34117483D01*
X48292425Y-34223463D01*
X48376536Y-34307574D01*
X48482516Y-34361574D01*
X48510778Y-34366049D01*
X48600000Y-34380181D01*
X48701419Y-34364117D01*
X48717483Y-34361574D01*
X48823463Y-34307574D01*
X48823462Y-34307574D01*
X48823465Y-34307573D01*
X48907573Y-34223465D01*
X48939108Y-34161574D01*
X48961574Y-34117483D01*
X48969855Y-34065194D01*
X48980181Y-34000000D01*
X48961574Y-33882518D01*
X48961574Y-33882516D01*
X48907574Y-33776536D01*
X48823463Y-33692425D01*
X48717483Y-33638425D01*
X48600000Y-33619819D01*
X48482516Y-33638425D01*
X48376536Y-33692425D01*
X48292425Y-33776536D01*
X48238425Y-33882516D01*
X48219819Y-34000000D01*
X45964343Y-34000000D01*
X45964378Y-33999780D01*
X45980181Y-33900000D01*
X45961574Y-33782518D01*
X45961574Y-33782516D01*
X45907574Y-33676536D01*
X45831038Y-33600000D01*
X49219819Y-33600000D01*
X49238425Y-33717483D01*
X49292425Y-33823463D01*
X49376536Y-33907574D01*
X49482516Y-33961574D01*
X49510778Y-33966049D01*
X49600000Y-33980181D01*
X49701419Y-33964117D01*
X49717483Y-33961574D01*
X49823463Y-33907574D01*
X49823462Y-33907574D01*
X49823465Y-33907573D01*
X49907573Y-33823465D01*
X49919529Y-33800000D01*
X51319819Y-33800000D01*
X51338425Y-33917483D01*
X51392425Y-34023463D01*
X51476536Y-34107574D01*
X51582516Y-34161574D01*
X51610778Y-34166049D01*
X51700000Y-34180181D01*
X51801419Y-34164117D01*
X51817483Y-34161574D01*
X51923463Y-34107574D01*
X51923462Y-34107574D01*
X51923465Y-34107573D01*
X52007573Y-34023465D01*
X52029628Y-33980180D01*
X52061574Y-33917483D01*
X52064734Y-33897528D01*
X52080181Y-33800000D01*
X52064138Y-33698707D01*
X52061574Y-33682516D01*
X52007574Y-33576536D01*
X51931037Y-33499999D01*
X59170818Y-33499999D01*
X59189424Y-33617483D01*
X59243424Y-33723463D01*
X59327535Y-33807574D01*
X59433515Y-33861574D01*
X59489002Y-33870361D01*
X59505584Y-33872988D01*
X59549856Y-33897528D01*
X59567997Y-33944785D01*
X59551517Y-33992646D01*
X59527603Y-34012011D01*
X59423226Y-34065193D01*
X59339114Y-34149305D01*
X59285114Y-34255285D01*
X59266508Y-34372769D01*
X59285114Y-34490252D01*
X59339114Y-34596232D01*
X59423225Y-34680343D01*
X59529205Y-34734343D01*
X59561331Y-34739430D01*
X59646689Y-34752950D01*
X59648360Y-34752685D01*
X59698048Y-34762341D01*
X59729905Y-34801678D01*
X59733027Y-34814197D01*
X59743007Y-34877211D01*
X59797007Y-34983191D01*
X59881118Y-35067302D01*
X59987098Y-35121302D01*
X60015360Y-35125777D01*
X60104582Y-35139909D01*
X60206001Y-35123845D01*
X60222065Y-35121302D01*
X60328045Y-35067302D01*
X60328044Y-35067302D01*
X60328047Y-35067301D01*
X60412155Y-34983193D01*
X60439258Y-34930000D01*
X60466156Y-34877211D01*
X60476136Y-34814197D01*
X60484763Y-34759728D01*
X60466156Y-34642246D01*
X60466156Y-34642244D01*
X60412156Y-34536264D01*
X60328045Y-34452153D01*
X60222065Y-34398153D01*
X60118712Y-34381784D01*
X60104582Y-34379547D01*
X60104581Y-34379547D01*
X60103481Y-34379721D01*
X60102902Y-34379812D01*
X60053215Y-34370151D01*
X60021361Y-34330811D01*
X60018244Y-34318306D01*
X60008263Y-34255287D01*
X60008263Y-34255285D01*
X59954263Y-34149305D01*
X59870152Y-34065194D01*
X59764172Y-34011194D01*
X59692103Y-33999780D01*
X59647830Y-33975239D01*
X59629690Y-33927982D01*
X59646170Y-33880121D01*
X59670079Y-33860759D01*
X59774464Y-33807573D01*
X59858572Y-33723465D01*
X59885361Y-33670889D01*
X59912573Y-33617483D01*
X59916541Y-33592427D01*
X59931180Y-33500000D01*
X59912573Y-33382518D01*
X59912573Y-33382516D01*
X59858573Y-33276536D01*
X59774462Y-33192425D01*
X59668482Y-33138425D01*
X59565129Y-33122056D01*
X59550999Y-33119819D01*
X59550998Y-33119819D01*
X59433515Y-33138425D01*
X59327535Y-33192425D01*
X59243424Y-33276536D01*
X59189424Y-33382516D01*
X59170818Y-33499999D01*
X51931037Y-33499999D01*
X51923463Y-33492425D01*
X51817483Y-33438425D01*
X51714130Y-33422056D01*
X51700000Y-33419819D01*
X51699999Y-33419819D01*
X51582516Y-33438425D01*
X51476536Y-33492425D01*
X51392425Y-33576536D01*
X51338425Y-33682516D01*
X51319819Y-33800000D01*
X49919529Y-33800000D01*
X49931485Y-33776535D01*
X49961574Y-33717483D01*
X49965542Y-33692427D01*
X49980181Y-33600000D01*
X49964343Y-33499999D01*
X49961574Y-33482516D01*
X49907574Y-33376536D01*
X49823463Y-33292425D01*
X49717483Y-33238425D01*
X49600000Y-33219819D01*
X49482516Y-33238425D01*
X49376536Y-33292425D01*
X49292425Y-33376536D01*
X49238425Y-33482516D01*
X49219819Y-33600000D01*
X45831038Y-33600000D01*
X45823463Y-33592425D01*
X45717483Y-33538425D01*
X45600000Y-33519819D01*
X45482516Y-33538425D01*
X45376536Y-33592425D01*
X45292425Y-33676536D01*
X45238425Y-33782516D01*
X45219819Y-33900000D01*
X32770868Y-33900000D01*
X32723433Y-33831279D01*
X32597247Y-33719488D01*
X32597246Y-33719487D01*
X32592621Y-33715390D01*
X32568498Y-33670889D01*
X32578623Y-33621293D01*
X32592621Y-33604610D01*
X32624311Y-33576535D01*
X32710702Y-33500000D01*
X35769319Y-33500000D01*
X35787925Y-33617483D01*
X35841925Y-33723463D01*
X35926036Y-33807574D01*
X36032016Y-33861574D01*
X36064142Y-33866661D01*
X36149500Y-33880181D01*
X36252851Y-33863811D01*
X36266983Y-33861574D01*
X36372963Y-33807574D01*
X36372962Y-33807574D01*
X36372965Y-33807573D01*
X36457073Y-33723465D01*
X36483862Y-33670889D01*
X36511074Y-33617483D01*
X36515042Y-33592427D01*
X36529681Y-33500000D01*
X36511074Y-33382518D01*
X36511074Y-33382516D01*
X36457074Y-33276536D01*
X36372963Y-33192425D01*
X36266983Y-33138425D01*
X36163630Y-33122056D01*
X36149500Y-33119819D01*
X36149499Y-33119819D01*
X36032016Y-33138425D01*
X35926036Y-33192425D01*
X35841925Y-33276536D01*
X35787925Y-33382516D01*
X35769319Y-33500000D01*
X32710702Y-33500000D01*
X32723433Y-33488721D01*
X32819199Y-33349980D01*
X32878979Y-33192353D01*
X32899299Y-33025000D01*
X32878979Y-32857647D01*
X32819199Y-32700020D01*
X32723433Y-32561279D01*
X32710502Y-32549823D01*
X35552597Y-32549823D01*
X35571203Y-32667306D01*
X35625203Y-32773286D01*
X35709314Y-32857397D01*
X35815294Y-32911397D01*
X35843556Y-32915872D01*
X35932778Y-32930004D01*
X36034197Y-32913940D01*
X36050261Y-32911397D01*
X36156241Y-32857397D01*
X36156240Y-32857397D01*
X36156243Y-32857396D01*
X36240351Y-32773288D01*
X36273834Y-32707574D01*
X36294352Y-32667306D01*
X36301295Y-32623465D01*
X36312959Y-32549823D01*
X36297022Y-32449200D01*
X36294352Y-32432339D01*
X36277874Y-32400000D01*
X43719819Y-32400000D01*
X43738425Y-32517483D01*
X43792425Y-32623463D01*
X43876536Y-32707574D01*
X43982516Y-32761574D01*
X44010778Y-32766049D01*
X44100000Y-32780181D01*
X44201419Y-32764117D01*
X44217483Y-32761574D01*
X44323463Y-32707574D01*
X44323462Y-32707574D01*
X44323465Y-32707573D01*
X44407573Y-32623465D01*
X44439137Y-32561517D01*
X44461574Y-32517483D01*
X44471551Y-32454488D01*
X44480181Y-32400000D01*
X48119819Y-32400000D01*
X48138425Y-32517483D01*
X48192425Y-32623463D01*
X48276536Y-32707574D01*
X48382516Y-32761574D01*
X48410778Y-32766049D01*
X48500000Y-32780181D01*
X48601419Y-32764117D01*
X48617483Y-32761574D01*
X48723463Y-32707574D01*
X48723462Y-32707574D01*
X48723465Y-32707573D01*
X48807573Y-32623465D01*
X48839137Y-32561517D01*
X48861574Y-32517483D01*
X48871551Y-32454488D01*
X48880181Y-32400000D01*
X48861574Y-32282518D01*
X48861574Y-32282516D01*
X48807574Y-32176536D01*
X48723463Y-32092425D01*
X48617483Y-32038425D01*
X48514130Y-32022056D01*
X48500000Y-32019819D01*
X48499999Y-32019819D01*
X48382516Y-32038425D01*
X48276536Y-32092425D01*
X48192425Y-32176536D01*
X48138425Y-32282516D01*
X48119819Y-32400000D01*
X44480181Y-32400000D01*
X44461574Y-32282518D01*
X44461574Y-32282516D01*
X44407574Y-32176536D01*
X44323463Y-32092425D01*
X44217483Y-32038425D01*
X44114130Y-32022056D01*
X44100000Y-32019819D01*
X44099999Y-32019819D01*
X43982516Y-32038425D01*
X43876536Y-32092425D01*
X43792425Y-32176536D01*
X43738425Y-32282516D01*
X43719819Y-32400000D01*
X36277874Y-32400000D01*
X36240352Y-32326359D01*
X36156241Y-32242248D01*
X36050261Y-32188248D01*
X35932778Y-32169642D01*
X35815294Y-32188248D01*
X35709314Y-32242248D01*
X35625203Y-32326359D01*
X35571203Y-32432339D01*
X35552597Y-32549823D01*
X32710502Y-32549823D01*
X32597247Y-32449488D01*
X32597246Y-32449487D01*
X32592621Y-32445390D01*
X32568498Y-32400889D01*
X32578623Y-32351293D01*
X32592621Y-32334610D01*
X32597247Y-32330512D01*
X32723433Y-32218721D01*
X32819199Y-32079980D01*
X32878979Y-31922353D01*
X32894826Y-31791838D01*
X34427981Y-31791838D01*
X34446587Y-31909321D01*
X34500587Y-32015301D01*
X34584698Y-32099412D01*
X34690678Y-32153412D01*
X34722804Y-32158499D01*
X34808162Y-32172019D01*
X34911513Y-32155649D01*
X34925645Y-32153412D01*
X35031625Y-32099412D01*
X35031624Y-32099412D01*
X35031627Y-32099411D01*
X35115735Y-32015303D01*
X35123532Y-32000000D01*
X40819819Y-32000000D01*
X40838425Y-32117483D01*
X40892425Y-32223463D01*
X40976536Y-32307574D01*
X41082516Y-32361574D01*
X41110778Y-32366049D01*
X41200000Y-32380181D01*
X41301419Y-32364117D01*
X41317483Y-32361574D01*
X41423463Y-32307574D01*
X41423462Y-32307574D01*
X41423465Y-32307573D01*
X41507573Y-32223465D01*
X41519530Y-32199999D01*
X41561574Y-32117483D01*
X41565020Y-32095722D01*
X41580181Y-32000000D01*
X41565819Y-31909320D01*
X41561574Y-31882516D01*
X41507574Y-31776536D01*
X41446578Y-31715540D01*
X56502990Y-31715540D01*
X56521596Y-31833024D01*
X56575596Y-31939004D01*
X56659707Y-32023115D01*
X56765687Y-32077115D01*
X56799790Y-32082516D01*
X56883171Y-32095722D01*
X56939681Y-32086771D01*
X56989366Y-32096429D01*
X57021222Y-32135767D01*
X57024343Y-32171435D01*
X57019819Y-32199999D01*
X57038425Y-32317483D01*
X57092425Y-32423463D01*
X57176536Y-32507574D01*
X57282516Y-32561574D01*
X57310778Y-32566049D01*
X57400000Y-32580181D01*
X57501419Y-32564117D01*
X57517483Y-32561574D01*
X57623463Y-32507574D01*
X57623462Y-32507574D01*
X57623465Y-32507573D01*
X57707573Y-32423465D01*
X57729628Y-32380180D01*
X57761574Y-32317483D01*
X57764117Y-32301419D01*
X57780181Y-32200000D01*
X57763665Y-32095721D01*
X57761574Y-32082516D01*
X57707574Y-31976536D01*
X57623463Y-31892425D01*
X57517483Y-31838425D01*
X57410273Y-31821446D01*
X57366001Y-31796906D01*
X57347860Y-31749649D01*
X57364340Y-31701788D01*
X57407729Y-31675717D01*
X57410259Y-31675270D01*
X57429565Y-31672212D01*
X57441082Y-31670389D01*
X57547062Y-31616389D01*
X57547061Y-31616389D01*
X57547064Y-31616388D01*
X57631172Y-31532280D01*
X57643761Y-31507573D01*
X57685173Y-31426298D01*
X57689338Y-31400000D01*
X57703780Y-31308815D01*
X57685173Y-31191333D01*
X57685173Y-31191331D01*
X57631173Y-31085351D01*
X57547062Y-31001240D01*
X57441082Y-30947240D01*
X57323599Y-30928634D01*
X57206115Y-30947240D01*
X57100135Y-31001240D01*
X57016024Y-31085351D01*
X56962024Y-31191331D01*
X56949066Y-31273153D01*
X56924526Y-31317425D01*
X56887553Y-31334666D01*
X56765687Y-31353966D01*
X56659707Y-31407966D01*
X56575596Y-31492077D01*
X56521596Y-31598057D01*
X56502990Y-31715540D01*
X41446578Y-31715540D01*
X41423463Y-31692425D01*
X41317483Y-31638425D01*
X41200000Y-31619819D01*
X41082516Y-31638425D01*
X40976536Y-31692425D01*
X40892425Y-31776536D01*
X40838425Y-31882516D01*
X40819819Y-32000000D01*
X35123532Y-32000000D01*
X35135488Y-31976535D01*
X35169736Y-31909321D01*
X35180964Y-31838425D01*
X35188343Y-31791838D01*
X35172055Y-31688996D01*
X35169736Y-31674354D01*
X35115736Y-31568374D01*
X35031625Y-31484263D01*
X34925645Y-31430263D01*
X34822292Y-31413894D01*
X34808162Y-31411657D01*
X34808161Y-31411657D01*
X34690678Y-31430263D01*
X34584698Y-31484263D01*
X34500587Y-31568374D01*
X34446587Y-31674354D01*
X34427981Y-31791838D01*
X32894826Y-31791838D01*
X32899299Y-31755000D01*
X32878979Y-31587647D01*
X32819199Y-31430020D01*
X32798478Y-31400000D01*
X39019819Y-31400000D01*
X39038425Y-31517483D01*
X39092425Y-31623463D01*
X39176536Y-31707574D01*
X39282516Y-31761574D01*
X39310778Y-31766049D01*
X39400000Y-31780181D01*
X39501419Y-31764117D01*
X39517483Y-31761574D01*
X39623463Y-31707574D01*
X39623462Y-31707574D01*
X39623465Y-31707573D01*
X39707573Y-31623465D01*
X39729628Y-31580180D01*
X39761574Y-31517483D01*
X39774634Y-31435020D01*
X39780181Y-31400000D01*
X39765739Y-31308814D01*
X39761574Y-31282516D01*
X39707574Y-31176536D01*
X39623463Y-31092425D01*
X39517483Y-31038425D01*
X39400000Y-31019819D01*
X39282516Y-31038425D01*
X39176536Y-31092425D01*
X39092425Y-31176536D01*
X39038425Y-31282516D01*
X39019819Y-31400000D01*
X32798478Y-31400000D01*
X32723433Y-31291279D01*
X32664155Y-31238764D01*
X32597247Y-31179487D01*
X32447975Y-31101144D01*
X32412600Y-31092425D01*
X32284291Y-31060800D01*
X32115709Y-31060800D01*
X32064771Y-31073355D01*
X31952024Y-31101144D01*
X31802752Y-31179487D01*
X31676567Y-31291279D01*
X31580800Y-31430021D01*
X31521020Y-31587648D01*
X31500701Y-31755000D01*
X31521020Y-31922351D01*
X31565042Y-32038426D01*
X31580801Y-32079980D01*
X31642690Y-32169642D01*
X31676567Y-32218721D01*
X31807378Y-32334610D01*
X31831502Y-32379111D01*
X31821376Y-32428707D01*
X31807378Y-32445390D01*
X31676567Y-32561278D01*
X31580800Y-32700021D01*
X31521020Y-32857648D01*
X31500701Y-33024999D01*
X31521020Y-33192351D01*
X31521021Y-33192353D01*
X31580801Y-33349980D01*
X31641850Y-33438425D01*
X31676567Y-33488721D01*
X31807378Y-33604610D01*
X31831502Y-33649111D01*
X31821376Y-33698707D01*
X31807378Y-33715390D01*
X31676567Y-33831278D01*
X31580800Y-33970021D01*
X31521020Y-34127648D01*
X31500701Y-34295000D01*
X31521020Y-34462351D01*
X31576096Y-34607573D01*
X31580801Y-34619980D01*
X31623968Y-34682518D01*
X31676567Y-34758721D01*
X31807378Y-34874610D01*
X31831502Y-34919111D01*
X31821376Y-34968707D01*
X31807378Y-34985390D01*
X31676567Y-35101278D01*
X31580800Y-35240021D01*
X31521020Y-35397648D01*
X31500701Y-35564999D01*
X31521020Y-35732351D01*
X31577085Y-35880181D01*
X31580801Y-35889980D01*
X31653704Y-35995598D01*
X31676567Y-36028721D01*
X31807378Y-36144610D01*
X31831502Y-36189111D01*
X31821376Y-36238707D01*
X31807378Y-36255390D01*
X31676567Y-36371278D01*
X31580800Y-36510021D01*
X31521020Y-36667648D01*
X31500701Y-36835000D01*
X31521020Y-37002351D01*
X31575013Y-37144717D01*
X31580801Y-37159980D01*
X31624620Y-37223463D01*
X31676567Y-37298721D01*
X31807378Y-37414610D01*
X31831502Y-37459111D01*
X31821376Y-37508707D01*
X31807378Y-37525390D01*
X31676567Y-37641278D01*
X31580800Y-37780021D01*
X31521020Y-37937648D01*
X31500701Y-38104999D01*
X31500701Y-38105000D01*
X31501014Y-38107574D01*
X31521020Y-38272351D01*
X31565042Y-38388426D01*
X31580801Y-38429980D01*
X31589393Y-38442427D01*
X31676567Y-38568721D01*
X31807378Y-38684610D01*
X31831502Y-38729111D01*
X31821376Y-38778707D01*
X31807378Y-38795390D01*
X31676567Y-38911278D01*
X31580800Y-39050021D01*
X31521020Y-39207648D01*
X31500701Y-39375000D01*
X31521020Y-39542351D01*
X31574179Y-39682518D01*
X31580801Y-39699980D01*
X31649840Y-39800000D01*
X31676567Y-39838721D01*
X31807378Y-39954610D01*
X31831502Y-39999111D01*
X31821376Y-40048707D01*
X31807378Y-40065390D01*
X31676567Y-40181278D01*
X31580800Y-40320021D01*
X31521020Y-40477648D01*
X31500701Y-40644999D01*
X28480500Y-40644999D01*
X28480500Y-38105000D01*
X28960701Y-38105000D01*
X28981020Y-38272351D01*
X29025042Y-38388426D01*
X29040801Y-38429980D01*
X29136567Y-38568721D01*
X29198358Y-38623463D01*
X29262752Y-38680512D01*
X29314313Y-38707573D01*
X29412025Y-38758856D01*
X29575709Y-38799200D01*
X29575710Y-38799200D01*
X29744290Y-38799200D01*
X29744291Y-38799200D01*
X29907975Y-38758856D01*
X30057247Y-38680512D01*
X30183433Y-38568721D01*
X30279199Y-38429980D01*
X30338979Y-38272353D01*
X30359299Y-38105000D01*
X30338979Y-37937647D01*
X30279199Y-37780020D01*
X30183433Y-37641279D01*
X30057247Y-37529488D01*
X30057246Y-37529487D01*
X30052621Y-37525390D01*
X30028498Y-37480889D01*
X30038623Y-37431293D01*
X30052621Y-37414610D01*
X30060564Y-37407573D01*
X30183433Y-37298721D01*
X30279199Y-37159980D01*
X30338979Y-37002353D01*
X30359299Y-36835000D01*
X30338979Y-36667647D01*
X30279199Y-36510020D01*
X30183433Y-36371279D01*
X30057247Y-36259488D01*
X30057246Y-36259487D01*
X30052621Y-36255390D01*
X30028498Y-36210889D01*
X30038623Y-36161293D01*
X30052621Y-36144610D01*
X30057247Y-36140512D01*
X30183433Y-36028721D01*
X30279199Y-35889980D01*
X30338979Y-35732353D01*
X30359299Y-35565000D01*
X30338979Y-35397647D01*
X30279199Y-35240020D01*
X30183433Y-35101279D01*
X30057247Y-34989488D01*
X30057246Y-34989487D01*
X30052621Y-34985390D01*
X30028498Y-34940889D01*
X30038623Y-34891293D01*
X30052621Y-34874610D01*
X30075526Y-34854318D01*
X30183433Y-34758721D01*
X30279199Y-34619980D01*
X30338979Y-34462353D01*
X30359299Y-34295000D01*
X30338979Y-34127647D01*
X30279199Y-33970020D01*
X30183433Y-33831279D01*
X30057247Y-33719488D01*
X30057246Y-33719487D01*
X30052621Y-33715390D01*
X30028498Y-33670889D01*
X30038623Y-33621293D01*
X30052621Y-33604610D01*
X30084311Y-33576535D01*
X30183433Y-33488721D01*
X30279199Y-33349980D01*
X30338979Y-33192353D01*
X30359299Y-33025000D01*
X30338979Y-32857647D01*
X30279199Y-32700020D01*
X30183598Y-32561518D01*
X30170826Y-32512537D01*
X30192526Y-32466805D01*
X30230060Y-32446904D01*
X30262422Y-32440467D01*
X30312204Y-32407204D01*
X30345467Y-32357422D01*
X30354200Y-32313520D01*
X30354200Y-31196480D01*
X30345467Y-31152578D01*
X30312204Y-31102796D01*
X30262422Y-31069533D01*
X30218520Y-31060800D01*
X29101480Y-31060800D01*
X29057578Y-31069533D01*
X29007796Y-31102796D01*
X28974533Y-31152578D01*
X28965800Y-31196480D01*
X28965800Y-32313520D01*
X28974533Y-32357422D01*
X29007796Y-32407204D01*
X29057578Y-32440467D01*
X29089939Y-32446904D01*
X29133211Y-32473163D01*
X29149482Y-32521095D01*
X29136401Y-32561517D01*
X29040801Y-32700018D01*
X28981020Y-32857648D01*
X28960701Y-33025000D01*
X28981020Y-33192351D01*
X28981021Y-33192353D01*
X29040801Y-33349980D01*
X29101850Y-33438425D01*
X29136567Y-33488721D01*
X29267378Y-33604610D01*
X29291502Y-33649111D01*
X29281376Y-33698707D01*
X29267378Y-33715390D01*
X29136567Y-33831278D01*
X29040800Y-33970021D01*
X28981020Y-34127648D01*
X28960701Y-34295000D01*
X28981020Y-34462351D01*
X29036096Y-34607573D01*
X29040801Y-34619980D01*
X29083968Y-34682518D01*
X29136567Y-34758721D01*
X29267378Y-34874610D01*
X29291502Y-34919111D01*
X29281376Y-34968707D01*
X29267378Y-34985390D01*
X29136567Y-35101278D01*
X29040800Y-35240021D01*
X28981020Y-35397648D01*
X28960701Y-35565000D01*
X28981020Y-35732351D01*
X29037085Y-35880181D01*
X29040801Y-35889980D01*
X29113704Y-35995598D01*
X29136567Y-36028721D01*
X29267378Y-36144610D01*
X29291502Y-36189111D01*
X29281376Y-36238707D01*
X29267378Y-36255390D01*
X29136567Y-36371278D01*
X29040800Y-36510021D01*
X28981020Y-36667648D01*
X28960701Y-36835000D01*
X28981020Y-37002351D01*
X29035013Y-37144717D01*
X29040801Y-37159980D01*
X29084620Y-37223463D01*
X29136567Y-37298721D01*
X29267378Y-37414610D01*
X29291502Y-37459111D01*
X29281376Y-37508707D01*
X29267378Y-37525390D01*
X29136567Y-37641278D01*
X29040800Y-37780021D01*
X28981020Y-37937648D01*
X28960701Y-38105000D01*
X28480500Y-38105000D01*
X28480500Y-30300000D01*
X35919819Y-30300000D01*
X35938425Y-30417483D01*
X35992425Y-30523463D01*
X36076536Y-30607574D01*
X36182516Y-30661574D01*
X36210778Y-30666049D01*
X36300000Y-30680181D01*
X36401419Y-30664117D01*
X36417483Y-30661574D01*
X36523463Y-30607574D01*
X36523462Y-30607574D01*
X36523465Y-30607573D01*
X36607573Y-30523465D01*
X36658527Y-30423463D01*
X36661574Y-30417483D01*
X36665542Y-30392427D01*
X36680181Y-30300000D01*
X36664343Y-30199999D01*
X36661574Y-30182516D01*
X36607574Y-30076536D01*
X36523463Y-29992425D01*
X36417483Y-29938425D01*
X36314130Y-29922056D01*
X36300000Y-29919819D01*
X36299999Y-29919819D01*
X36182516Y-29938425D01*
X36076536Y-29992425D01*
X35992425Y-30076536D01*
X35938425Y-30182516D01*
X35919819Y-30300000D01*
X28480500Y-30300000D01*
X28480500Y-29843611D01*
X37917158Y-29843611D01*
X37935764Y-29961095D01*
X37989764Y-30067075D01*
X38073875Y-30151186D01*
X38179855Y-30205186D01*
X38211981Y-30210273D01*
X38297339Y-30223793D01*
X38400690Y-30207423D01*
X38414822Y-30205186D01*
X38425000Y-30200000D01*
X50619819Y-30200000D01*
X50638425Y-30317483D01*
X50692425Y-30423463D01*
X50776536Y-30507574D01*
X50882516Y-30561574D01*
X50914642Y-30566661D01*
X51000000Y-30580181D01*
X51117482Y-30561574D01*
X51130451Y-30554965D01*
X51180690Y-30548796D01*
X51223143Y-30576365D01*
X51237133Y-30609320D01*
X51238426Y-30617482D01*
X51280471Y-30700000D01*
X51292427Y-30723465D01*
X51376536Y-30807574D01*
X51482516Y-30861574D01*
X51537821Y-30870333D01*
X51582094Y-30894873D01*
X51600235Y-30942130D01*
X51592181Y-30977017D01*
X51538425Y-31082518D01*
X51519819Y-31200000D01*
X51538425Y-31317483D01*
X51592425Y-31423463D01*
X51676536Y-31507574D01*
X51782516Y-31561574D01*
X51810778Y-31566049D01*
X51900000Y-31580181D01*
X52001419Y-31564117D01*
X52017483Y-31561574D01*
X52123463Y-31507574D01*
X52123462Y-31507574D01*
X52123465Y-31507573D01*
X52207573Y-31423465D01*
X52209520Y-31419643D01*
X52261574Y-31317483D01*
X52265724Y-31291279D01*
X52280181Y-31200000D01*
X52266049Y-31110778D01*
X52261574Y-31082516D01*
X52207574Y-30976536D01*
X52123463Y-30892425D01*
X52017483Y-30838425D01*
X51962177Y-30829666D01*
X51917904Y-30805125D01*
X51899764Y-30757868D01*
X51907818Y-30722983D01*
X51961574Y-30617482D01*
X51980181Y-30500000D01*
X51963406Y-30394082D01*
X51961574Y-30382516D01*
X51907574Y-30276536D01*
X51831037Y-30199999D01*
X54219819Y-30199999D01*
X54238425Y-30317483D01*
X54292425Y-30423463D01*
X54376536Y-30507574D01*
X54482516Y-30561574D01*
X54514642Y-30566661D01*
X54600000Y-30580181D01*
X54641770Y-30573565D01*
X54691458Y-30583224D01*
X54723313Y-30622562D01*
X54726434Y-30658229D01*
X54719818Y-30700000D01*
X54726270Y-30740737D01*
X54716610Y-30790425D01*
X54677271Y-30822280D01*
X54664757Y-30825400D01*
X54582516Y-30838425D01*
X54476536Y-30892425D01*
X54392425Y-30976536D01*
X54338425Y-31082516D01*
X54319819Y-31199999D01*
X54338425Y-31317483D01*
X54392425Y-31423463D01*
X54476536Y-31507574D01*
X54582516Y-31561574D01*
X54610778Y-31566049D01*
X54700000Y-31580181D01*
X54801419Y-31564117D01*
X54817483Y-31561574D01*
X54923463Y-31507574D01*
X54923462Y-31507574D01*
X54923465Y-31507573D01*
X55007573Y-31423465D01*
X55009520Y-31419643D01*
X55061574Y-31317483D01*
X55068595Y-31273153D01*
X55080181Y-31200000D01*
X55073728Y-31159261D01*
X55083386Y-31109576D01*
X55122724Y-31077720D01*
X55135238Y-31074599D01*
X55190800Y-31065800D01*
X55217483Y-31061574D01*
X55323463Y-31007574D01*
X55323462Y-31007574D01*
X55323465Y-31007573D01*
X55407573Y-30923465D01*
X55457540Y-30825400D01*
X55461574Y-30817483D01*
X55465859Y-30790425D01*
X55480181Y-30700000D01*
X55461574Y-30582518D01*
X55461574Y-30582516D01*
X55407574Y-30476536D01*
X55323463Y-30392425D01*
X55217483Y-30338425D01*
X55114130Y-30322056D01*
X55100000Y-30319819D01*
X55099999Y-30319819D01*
X55058229Y-30326434D01*
X55008540Y-30316775D01*
X54976685Y-30277436D01*
X54973565Y-30241771D01*
X54980181Y-30200000D01*
X54961574Y-30082518D01*
X54961574Y-30082516D01*
X54936093Y-30032507D01*
X55652327Y-30032507D01*
X55670933Y-30149991D01*
X55724933Y-30255971D01*
X55809044Y-30340082D01*
X55915024Y-30394082D01*
X55947150Y-30399169D01*
X56032508Y-30412689D01*
X56135859Y-30396319D01*
X56149991Y-30394082D01*
X56255971Y-30340082D01*
X56255970Y-30340082D01*
X56255973Y-30340081D01*
X56296054Y-30300000D01*
X60219819Y-30300000D01*
X60238425Y-30417483D01*
X60292425Y-30523463D01*
X60376536Y-30607574D01*
X60482516Y-30661574D01*
X60510778Y-30666049D01*
X60600000Y-30680181D01*
X60701419Y-30664117D01*
X60717483Y-30661574D01*
X60823463Y-30607574D01*
X60823462Y-30607574D01*
X60823465Y-30607573D01*
X60907573Y-30523465D01*
X60958527Y-30423463D01*
X60961574Y-30417483D01*
X60965542Y-30392427D01*
X60980181Y-30300000D01*
X60980181Y-30299999D01*
X66519819Y-30299999D01*
X66538425Y-30417483D01*
X66592425Y-30523463D01*
X66676536Y-30607574D01*
X66782516Y-30661574D01*
X66810778Y-30666049D01*
X66900000Y-30680181D01*
X67001419Y-30664117D01*
X67017483Y-30661574D01*
X67123463Y-30607574D01*
X67123462Y-30607574D01*
X67123465Y-30607573D01*
X67207573Y-30523465D01*
X67258527Y-30423463D01*
X67261574Y-30417483D01*
X67265542Y-30392427D01*
X67280181Y-30300000D01*
X67264343Y-30199999D01*
X67261574Y-30182516D01*
X67207574Y-30076536D01*
X67123463Y-29992425D01*
X67017483Y-29938425D01*
X66914130Y-29922056D01*
X66900000Y-29919819D01*
X66899999Y-29919819D01*
X66782516Y-29938425D01*
X66676536Y-29992425D01*
X66592425Y-30076536D01*
X66538425Y-30182516D01*
X66519819Y-30299999D01*
X60980181Y-30299999D01*
X60964343Y-30199999D01*
X60961574Y-30182516D01*
X60907574Y-30076536D01*
X60823463Y-29992425D01*
X60717483Y-29938425D01*
X60600000Y-29919819D01*
X60482516Y-29938425D01*
X60376536Y-29992425D01*
X60292425Y-30076536D01*
X60238425Y-30182516D01*
X60219819Y-30300000D01*
X56296054Y-30300000D01*
X56340081Y-30255973D01*
X56368601Y-30199999D01*
X56394082Y-30149991D01*
X56398257Y-30123631D01*
X56412689Y-30032508D01*
X56394082Y-29915026D01*
X56394082Y-29915024D01*
X56340082Y-29809044D01*
X56331038Y-29800000D01*
X63319819Y-29800000D01*
X63338425Y-29917483D01*
X63392425Y-30023463D01*
X63476536Y-30107574D01*
X63582516Y-30161574D01*
X63610778Y-30166049D01*
X63700000Y-30180181D01*
X63801419Y-30164117D01*
X63817483Y-30161574D01*
X63923463Y-30107574D01*
X63923462Y-30107574D01*
X63923465Y-30107573D01*
X64007573Y-30023465D01*
X64050903Y-29938425D01*
X64061574Y-29917483D01*
X64065542Y-29892427D01*
X64080181Y-29800000D01*
X64062080Y-29685713D01*
X64061574Y-29682516D01*
X64007574Y-29576536D01*
X63923463Y-29492425D01*
X63817483Y-29438425D01*
X63714130Y-29422056D01*
X63700000Y-29419819D01*
X63699999Y-29419819D01*
X63582516Y-29438425D01*
X63476536Y-29492425D01*
X63392425Y-29576536D01*
X63338425Y-29682516D01*
X63319819Y-29800000D01*
X56331038Y-29800000D01*
X56255971Y-29724933D01*
X56149991Y-29670933D01*
X56032508Y-29652327D01*
X55915024Y-29670933D01*
X55809044Y-29724933D01*
X55724933Y-29809044D01*
X55670933Y-29915024D01*
X55652327Y-30032507D01*
X54936093Y-30032507D01*
X54907574Y-29976536D01*
X54823463Y-29892425D01*
X54717483Y-29838425D01*
X54600000Y-29819819D01*
X54482516Y-29838425D01*
X54376536Y-29892425D01*
X54292425Y-29976536D01*
X54238425Y-30082516D01*
X54219819Y-30199999D01*
X51831037Y-30199999D01*
X51823463Y-30192425D01*
X51717483Y-30138425D01*
X51600000Y-30119819D01*
X51482516Y-30138425D01*
X51469549Y-30145033D01*
X51419307Y-30151201D01*
X51376855Y-30123631D01*
X51362866Y-30090673D01*
X51361574Y-30082516D01*
X51307574Y-29976536D01*
X51223463Y-29892425D01*
X51117483Y-29838425D01*
X51000000Y-29819819D01*
X50882516Y-29838425D01*
X50776536Y-29892425D01*
X50692425Y-29976536D01*
X50638425Y-30082516D01*
X50619819Y-30200000D01*
X38425000Y-30200000D01*
X38520802Y-30151186D01*
X38520801Y-30151186D01*
X38520804Y-30151185D01*
X38604912Y-30067077D01*
X38622526Y-30032507D01*
X38658913Y-29961095D01*
X38666209Y-29915026D01*
X38677520Y-29843612D01*
X38658913Y-29726130D01*
X38658913Y-29726128D01*
X38604913Y-29620148D01*
X38520802Y-29536037D01*
X38414822Y-29482037D01*
X38311469Y-29465668D01*
X38297339Y-29463431D01*
X38297338Y-29463431D01*
X38179855Y-29482037D01*
X38073875Y-29536037D01*
X37989764Y-29620148D01*
X37935764Y-29726128D01*
X37917158Y-29843611D01*
X28480500Y-29843611D01*
X28480500Y-27400000D01*
X31994564Y-27400000D01*
X31994722Y-27402410D01*
X32011165Y-27653297D01*
X32014287Y-27700920D01*
X32014757Y-27703285D01*
X32014758Y-27703289D01*
X32038663Y-27823465D01*
X32073120Y-27996691D01*
X32073894Y-27998973D01*
X32073896Y-27998978D01*
X32169277Y-28279961D01*
X32170055Y-28282252D01*
X32171124Y-28284420D01*
X32171125Y-28284422D01*
X32302362Y-28550546D01*
X32302368Y-28550556D01*
X32303434Y-28552718D01*
X32304778Y-28554730D01*
X32304779Y-28554731D01*
X32469632Y-28801452D01*
X32469636Y-28801458D01*
X32470975Y-28803461D01*
X32472562Y-28805271D01*
X32472567Y-28805277D01*
X32627568Y-28982020D01*
X32669811Y-29030189D01*
X32671631Y-29031785D01*
X32894722Y-29227432D01*
X32894726Y-29227435D01*
X32896539Y-29229025D01*
X33147282Y-29396566D01*
X33149448Y-29397634D01*
X33149453Y-29397637D01*
X33282514Y-29463255D01*
X33417748Y-29529945D01*
X33703309Y-29626880D01*
X33999080Y-29685713D01*
X34300000Y-29705436D01*
X34600920Y-29685713D01*
X34896691Y-29626880D01*
X35182252Y-29529945D01*
X35452718Y-29396566D01*
X35703461Y-29229025D01*
X35930189Y-29030189D01*
X36129025Y-28803461D01*
X36296566Y-28552718D01*
X36429945Y-28282252D01*
X36526880Y-27996691D01*
X36566005Y-27800000D01*
X37919819Y-27800000D01*
X37938425Y-27917483D01*
X37992425Y-28023463D01*
X38076536Y-28107574D01*
X38182516Y-28161574D01*
X38210778Y-28166049D01*
X38300000Y-28180181D01*
X38401419Y-28164117D01*
X38417483Y-28161574D01*
X38523463Y-28107574D01*
X38523462Y-28107574D01*
X38523465Y-28107573D01*
X38607573Y-28023465D01*
X38658527Y-27923463D01*
X38661574Y-27917483D01*
X38664195Y-27900936D01*
X38680181Y-27800000D01*
X38664343Y-27700000D01*
X43919819Y-27700000D01*
X43938425Y-27817483D01*
X43992425Y-27923463D01*
X44076536Y-28007574D01*
X44182516Y-28061574D01*
X44210778Y-28066049D01*
X44300000Y-28080181D01*
X44401419Y-28064117D01*
X44417483Y-28061574D01*
X44523463Y-28007574D01*
X44523462Y-28007574D01*
X44523465Y-28007573D01*
X44607573Y-27923465D01*
X44658527Y-27823463D01*
X44661574Y-27817483D01*
X44664343Y-27800000D01*
X44680181Y-27700000D01*
X44664343Y-27600000D01*
X50719819Y-27600000D01*
X50738425Y-27717483D01*
X50792425Y-27823463D01*
X50876536Y-27907574D01*
X50982516Y-27961574D01*
X51010778Y-27966049D01*
X51100000Y-27980181D01*
X51201419Y-27964117D01*
X51217483Y-27961574D01*
X51323463Y-27907574D01*
X51323462Y-27907574D01*
X51323465Y-27907573D01*
X51407573Y-27823465D01*
X51419529Y-27800000D01*
X53719819Y-27800000D01*
X53738425Y-27917483D01*
X53792425Y-28023463D01*
X53876536Y-28107574D01*
X53982516Y-28161574D01*
X54010778Y-28166049D01*
X54100000Y-28180181D01*
X54201419Y-28164117D01*
X54217483Y-28161574D01*
X54323463Y-28107574D01*
X54323462Y-28107574D01*
X54323465Y-28107573D01*
X54407573Y-28023465D01*
X54458527Y-27923463D01*
X54461574Y-27917483D01*
X54464195Y-27900936D01*
X54480181Y-27800000D01*
X54461574Y-27682518D01*
X54461574Y-27682516D01*
X54407574Y-27576536D01*
X54323463Y-27492425D01*
X54217483Y-27438425D01*
X54114130Y-27422056D01*
X54100000Y-27419819D01*
X54099999Y-27419819D01*
X53982516Y-27438425D01*
X53876536Y-27492425D01*
X53792425Y-27576536D01*
X53738425Y-27682516D01*
X53719819Y-27800000D01*
X51419529Y-27800000D01*
X51461574Y-27717483D01*
X51464578Y-27698513D01*
X51480181Y-27600000D01*
X51466049Y-27510778D01*
X51461574Y-27482516D01*
X51419530Y-27400000D01*
X59794564Y-27400000D01*
X59794722Y-27402410D01*
X59811165Y-27653297D01*
X59814287Y-27700920D01*
X59814757Y-27703285D01*
X59814758Y-27703289D01*
X59838663Y-27823465D01*
X59873120Y-27996691D01*
X59873894Y-27998973D01*
X59873896Y-27998978D01*
X59969277Y-28279961D01*
X59970055Y-28282252D01*
X59971124Y-28284420D01*
X59971125Y-28284422D01*
X60102362Y-28550546D01*
X60102368Y-28550556D01*
X60103434Y-28552718D01*
X60104778Y-28554730D01*
X60104779Y-28554731D01*
X60269632Y-28801452D01*
X60269636Y-28801458D01*
X60270975Y-28803461D01*
X60272562Y-28805271D01*
X60272567Y-28805277D01*
X60427568Y-28982020D01*
X60469811Y-29030189D01*
X60471631Y-29031785D01*
X60694722Y-29227432D01*
X60694726Y-29227435D01*
X60696539Y-29229025D01*
X60947282Y-29396566D01*
X60949448Y-29397634D01*
X60949453Y-29397637D01*
X61082515Y-29463255D01*
X61217748Y-29529945D01*
X61503309Y-29626880D01*
X61799080Y-29685713D01*
X62100000Y-29705436D01*
X62400920Y-29685713D01*
X62696691Y-29626880D01*
X62982252Y-29529945D01*
X63252718Y-29396566D01*
X63503461Y-29229025D01*
X63730189Y-29030189D01*
X63929025Y-28803461D01*
X64096566Y-28552718D01*
X64229945Y-28282252D01*
X64326880Y-27996691D01*
X64385713Y-27700920D01*
X64405436Y-27400000D01*
X64385713Y-27099080D01*
X64326880Y-26803309D01*
X64229945Y-26517748D01*
X64132337Y-26319819D01*
X64097637Y-26249453D01*
X64097634Y-26249448D01*
X64096566Y-26247282D01*
X63978963Y-26071277D01*
X63930367Y-25998547D01*
X63930364Y-25998543D01*
X63929025Y-25996539D01*
X63916727Y-25982516D01*
X63731785Y-25771631D01*
X63730189Y-25769811D01*
X63728368Y-25768214D01*
X63505277Y-25572567D01*
X63505271Y-25572562D01*
X63503461Y-25570975D01*
X63501458Y-25569636D01*
X63501452Y-25569632D01*
X63254731Y-25404779D01*
X63254730Y-25404778D01*
X63252718Y-25403434D01*
X63250556Y-25402368D01*
X63250546Y-25402362D01*
X62984422Y-25271125D01*
X62984420Y-25271124D01*
X62982252Y-25270055D01*
X62979965Y-25269278D01*
X62979961Y-25269277D01*
X62698978Y-25173896D01*
X62698973Y-25173894D01*
X62696691Y-25173120D01*
X62447061Y-25123465D01*
X62403289Y-25114758D01*
X62403285Y-25114757D01*
X62400920Y-25114287D01*
X62398516Y-25114129D01*
X62398513Y-25114129D01*
X62102411Y-25094722D01*
X62100000Y-25094564D01*
X62097589Y-25094722D01*
X61801486Y-25114129D01*
X61801481Y-25114129D01*
X61799080Y-25114287D01*
X61796716Y-25114757D01*
X61796710Y-25114758D01*
X61505681Y-25172648D01*
X61505678Y-25172648D01*
X61503309Y-25173120D01*
X61501030Y-25173893D01*
X61501021Y-25173896D01*
X61220038Y-25269277D01*
X61220029Y-25269280D01*
X61217748Y-25270055D01*
X61215584Y-25271121D01*
X61215577Y-25271125D01*
X60949453Y-25402362D01*
X60949436Y-25402371D01*
X60947282Y-25403434D01*
X60945275Y-25404774D01*
X60945268Y-25404779D01*
X60698547Y-25569632D01*
X60698533Y-25569642D01*
X60696539Y-25570975D01*
X60694735Y-25572556D01*
X60694722Y-25572567D01*
X60471631Y-25768214D01*
X60471623Y-25768221D01*
X60469811Y-25769811D01*
X60468221Y-25771623D01*
X60468214Y-25771631D01*
X60272567Y-25994722D01*
X60272556Y-25994735D01*
X60270975Y-25996539D01*
X60269642Y-25998533D01*
X60269632Y-25998547D01*
X60104779Y-26245268D01*
X60104774Y-26245275D01*
X60103434Y-26247282D01*
X60102371Y-26249436D01*
X60102362Y-26249453D01*
X59971125Y-26515577D01*
X59971121Y-26515584D01*
X59970055Y-26517748D01*
X59969280Y-26520029D01*
X59969277Y-26520038D01*
X59873896Y-26801021D01*
X59873893Y-26801030D01*
X59873120Y-26803309D01*
X59872648Y-26805678D01*
X59872648Y-26805681D01*
X59827011Y-27035115D01*
X59814287Y-27099080D01*
X59814129Y-27101481D01*
X59814129Y-27101486D01*
X59799819Y-27319819D01*
X59794564Y-27400000D01*
X51419530Y-27400000D01*
X51407574Y-27376536D01*
X51323463Y-27292425D01*
X51217483Y-27238425D01*
X51114130Y-27222056D01*
X51100000Y-27219819D01*
X51099999Y-27219819D01*
X50982516Y-27238425D01*
X50876536Y-27292425D01*
X50792425Y-27376536D01*
X50738425Y-27482516D01*
X50719819Y-27600000D01*
X44664343Y-27600000D01*
X44661574Y-27582518D01*
X44661574Y-27582516D01*
X44607574Y-27476536D01*
X44523463Y-27392425D01*
X44417483Y-27338425D01*
X44314130Y-27322056D01*
X44300000Y-27319819D01*
X44299999Y-27319819D01*
X44182516Y-27338425D01*
X44076536Y-27392425D01*
X43992425Y-27476536D01*
X43938425Y-27582516D01*
X43919819Y-27700000D01*
X38664343Y-27700000D01*
X38661574Y-27682518D01*
X38661574Y-27682517D01*
X38607819Y-27577018D01*
X38601650Y-27526776D01*
X38629218Y-27484323D01*
X38662177Y-27470333D01*
X38688328Y-27466191D01*
X38717483Y-27461574D01*
X38823463Y-27407574D01*
X38823462Y-27407574D01*
X38823465Y-27407573D01*
X38907573Y-27323465D01*
X38950903Y-27238425D01*
X38961574Y-27217483D01*
X38967482Y-27180180D01*
X38980181Y-27100000D01*
X38965542Y-27007573D01*
X38961574Y-26982516D01*
X38907574Y-26876536D01*
X38823463Y-26792425D01*
X38717483Y-26738425D01*
X38600000Y-26719819D01*
X38482516Y-26738425D01*
X38376536Y-26792425D01*
X38292425Y-26876536D01*
X38238425Y-26982516D01*
X38219819Y-27100000D01*
X38238425Y-27217483D01*
X38292180Y-27322982D01*
X38298349Y-27373223D01*
X38270780Y-27415676D01*
X38237822Y-27429666D01*
X38182516Y-27438425D01*
X38076536Y-27492425D01*
X37992425Y-27576536D01*
X37938425Y-27682516D01*
X37919819Y-27800000D01*
X36566005Y-27800000D01*
X36585713Y-27700920D01*
X36605436Y-27400000D01*
X36585713Y-27099080D01*
X36526880Y-26803309D01*
X36491811Y-26700000D01*
X39219819Y-26700000D01*
X39238425Y-26817483D01*
X39292425Y-26923463D01*
X39376536Y-27007574D01*
X39482516Y-27061574D01*
X39510778Y-27066049D01*
X39600000Y-27080181D01*
X39701419Y-27064117D01*
X39717483Y-27061574D01*
X39823463Y-27007574D01*
X39823462Y-27007574D01*
X39823465Y-27007573D01*
X39907573Y-26923465D01*
X39941401Y-26857074D01*
X39961574Y-26817483D01*
X39965542Y-26792427D01*
X39980181Y-26700000D01*
X39965936Y-26610057D01*
X39961574Y-26582516D01*
X39919530Y-26500000D01*
X40730319Y-26500000D01*
X40748925Y-26617483D01*
X40802925Y-26723463D01*
X40887036Y-26807574D01*
X40993016Y-26861574D01*
X41025142Y-26866661D01*
X41110500Y-26880181D01*
X41213851Y-26863811D01*
X41227983Y-26861574D01*
X41333963Y-26807574D01*
X41333962Y-26807574D01*
X41333965Y-26807573D01*
X41418073Y-26723465D01*
X41449078Y-26662615D01*
X41472074Y-26617483D01*
X41474617Y-26601419D01*
X41490681Y-26500000D01*
X41819819Y-26500000D01*
X41838425Y-26617483D01*
X41892425Y-26723463D01*
X41976536Y-26807574D01*
X42082516Y-26861574D01*
X42110778Y-26866049D01*
X42200000Y-26880181D01*
X42301419Y-26864117D01*
X42317483Y-26861574D01*
X42423463Y-26807574D01*
X42423462Y-26807574D01*
X42423465Y-26807573D01*
X42507573Y-26723465D01*
X42519529Y-26700000D01*
X48119819Y-26700000D01*
X48138425Y-26817483D01*
X48192425Y-26923463D01*
X48276536Y-27007574D01*
X48382516Y-27061574D01*
X48410778Y-27066049D01*
X48500000Y-27080181D01*
X48601419Y-27064117D01*
X48617483Y-27061574D01*
X48723463Y-27007574D01*
X48723462Y-27007574D01*
X48723465Y-27007573D01*
X48807573Y-26923465D01*
X48841401Y-26857074D01*
X48861574Y-26817483D01*
X48874095Y-26738425D01*
X48880181Y-26700000D01*
X48880180Y-26699998D01*
X48882014Y-26688424D01*
X48882650Y-26688524D01*
X48889947Y-26650989D01*
X48929285Y-26619133D01*
X48979897Y-26620017D01*
X48986965Y-26623164D01*
X48991538Y-26625494D01*
X49109020Y-26644101D01*
X49212371Y-26627731D01*
X49226503Y-26625494D01*
X49332483Y-26571494D01*
X49332482Y-26571494D01*
X49332485Y-26571493D01*
X49416593Y-26487385D01*
X49451279Y-26419308D01*
X49488300Y-26384787D01*
X49538849Y-26382137D01*
X49569540Y-26400578D01*
X49576536Y-26407574D01*
X49682516Y-26461574D01*
X49710778Y-26466049D01*
X49800000Y-26480181D01*
X49901419Y-26464117D01*
X49917483Y-26461574D01*
X50023462Y-26407575D01*
X50023462Y-26407574D01*
X50023465Y-26407573D01*
X50094304Y-26336733D01*
X50140179Y-26315342D01*
X50189073Y-26328442D01*
X50218107Y-26369907D01*
X50219619Y-26398739D01*
X50238425Y-26517483D01*
X50292425Y-26623463D01*
X50376536Y-26707574D01*
X50482516Y-26761574D01*
X50510778Y-26766049D01*
X50600000Y-26780181D01*
X50701419Y-26764117D01*
X50717483Y-26761574D01*
X50823463Y-26707574D01*
X50823462Y-26707574D01*
X50823465Y-26707573D01*
X50907573Y-26623465D01*
X50945261Y-26549499D01*
X56169319Y-26549499D01*
X56187925Y-26666983D01*
X56241925Y-26772963D01*
X56326036Y-26857074D01*
X56432016Y-26911074D01*
X56469229Y-26916967D01*
X56549500Y-26929681D01*
X56568979Y-26926595D01*
X56618666Y-26936253D01*
X56650522Y-26975591D01*
X56653643Y-26988108D01*
X56661087Y-27035115D01*
X56715087Y-27141095D01*
X56799198Y-27225206D01*
X56905178Y-27279206D01*
X56937304Y-27284293D01*
X57022662Y-27297813D01*
X57126013Y-27281443D01*
X57140145Y-27279206D01*
X57246125Y-27225206D01*
X57246124Y-27225206D01*
X57246127Y-27225205D01*
X57330235Y-27141097D01*
X57344692Y-27112722D01*
X57381712Y-27078200D01*
X57432261Y-27075550D01*
X57462953Y-27093991D01*
X57476536Y-27107574D01*
X57582516Y-27161574D01*
X57610778Y-27166049D01*
X57700000Y-27180181D01*
X57801419Y-27164117D01*
X57817483Y-27161574D01*
X57923463Y-27107574D01*
X57923462Y-27107574D01*
X57923465Y-27107573D01*
X58007573Y-27023465D01*
X58052010Y-26936253D01*
X58061574Y-26917483D01*
X58068059Y-26876535D01*
X58080181Y-26800000D01*
X58062525Y-26688524D01*
X58061574Y-26682517D01*
X58007819Y-26577018D01*
X58001650Y-26526776D01*
X58029218Y-26484323D01*
X58062177Y-26470333D01*
X58088328Y-26466191D01*
X58117483Y-26461574D01*
X58223463Y-26407574D01*
X58223462Y-26407574D01*
X58223465Y-26407573D01*
X58307573Y-26323465D01*
X58320714Y-26297674D01*
X58361574Y-26217483D01*
X58365542Y-26192427D01*
X58380181Y-26100000D01*
X58361574Y-25982518D01*
X58361574Y-25982516D01*
X58307574Y-25876536D01*
X58223463Y-25792425D01*
X58117483Y-25738425D01*
X58000000Y-25719819D01*
X57882516Y-25738425D01*
X57776536Y-25792425D01*
X57692425Y-25876536D01*
X57638425Y-25982516D01*
X57619819Y-26100000D01*
X57638425Y-26217483D01*
X57692180Y-26322982D01*
X57698349Y-26373223D01*
X57670780Y-26415676D01*
X57637822Y-26429666D01*
X57582516Y-26438425D01*
X57476536Y-26492425D01*
X57392425Y-26576536D01*
X57377968Y-26604910D01*
X57340947Y-26639432D01*
X57290397Y-26642080D01*
X57259708Y-26623640D01*
X57246125Y-26610057D01*
X57140145Y-26556057D01*
X57036792Y-26539688D01*
X57022662Y-26537451D01*
X57022661Y-26537451D01*
X57003183Y-26540536D01*
X56953494Y-26530877D01*
X56921639Y-26491538D01*
X56918519Y-26479023D01*
X56911074Y-26432016D01*
X56857074Y-26326036D01*
X56772963Y-26241925D01*
X56666983Y-26187925D01*
X56549500Y-26169319D01*
X56432016Y-26187925D01*
X56326036Y-26241925D01*
X56241925Y-26326036D01*
X56187925Y-26432016D01*
X56169319Y-26549499D01*
X50945261Y-26549499D01*
X50961574Y-26517483D01*
X50965542Y-26492427D01*
X50980181Y-26400000D01*
X50965058Y-26304514D01*
X50961574Y-26282516D01*
X50907574Y-26176536D01*
X50823463Y-26092425D01*
X50717483Y-26038425D01*
X50600000Y-26019819D01*
X50482516Y-26038425D01*
X50376536Y-26092425D01*
X50305696Y-26163265D01*
X50259819Y-26184657D01*
X50210925Y-26171556D01*
X50181891Y-26130091D01*
X50180382Y-26101272D01*
X50180180Y-26099999D01*
X50167112Y-26017482D01*
X50161574Y-25982516D01*
X50107574Y-25876536D01*
X50023463Y-25792425D01*
X49917483Y-25738425D01*
X49800000Y-25719819D01*
X49682516Y-25738425D01*
X49576536Y-25792425D01*
X49492427Y-25876534D01*
X49473647Y-25913392D01*
X49466108Y-25928190D01*
X49457741Y-25944611D01*
X49420720Y-25979133D01*
X49370171Y-25981783D01*
X49339480Y-25963342D01*
X49332483Y-25956345D01*
X49226503Y-25902345D01*
X49123150Y-25885976D01*
X49109020Y-25883739D01*
X49109019Y-25883739D01*
X48991536Y-25902345D01*
X48962314Y-25917235D01*
X48912072Y-25923403D01*
X48869620Y-25895833D01*
X48862785Y-25884895D01*
X48858526Y-25876536D01*
X48807573Y-25776535D01*
X48723465Y-25692427D01*
X48723463Y-25692425D01*
X48617483Y-25638425D01*
X48514130Y-25622056D01*
X48500000Y-25619819D01*
X48499999Y-25619819D01*
X48382516Y-25638425D01*
X48276536Y-25692425D01*
X48192425Y-25776536D01*
X48138425Y-25882516D01*
X48119819Y-26000000D01*
X48138425Y-26117483D01*
X48192425Y-26223463D01*
X48266636Y-26297674D01*
X48288028Y-26343550D01*
X48274927Y-26392445D01*
X48266636Y-26402326D01*
X48192425Y-26476536D01*
X48138425Y-26582516D01*
X48119819Y-26700000D01*
X42519529Y-26700000D01*
X42538578Y-26662615D01*
X42561574Y-26617483D01*
X42564117Y-26601419D01*
X42580181Y-26500000D01*
X42563143Y-26392425D01*
X42561574Y-26382517D01*
X42539108Y-26338426D01*
X42537158Y-26334600D01*
X42530989Y-26284359D01*
X42558558Y-26241906D01*
X42569493Y-26235072D01*
X42623465Y-26207573D01*
X42707573Y-26123465D01*
X42750903Y-26038425D01*
X42761574Y-26017483D01*
X42765179Y-25994722D01*
X42780181Y-25900000D01*
X42766049Y-25810778D01*
X42761574Y-25782516D01*
X42707574Y-25676536D01*
X42623463Y-25592425D01*
X42517483Y-25538425D01*
X42400000Y-25519819D01*
X42282516Y-25538425D01*
X42176536Y-25592425D01*
X42092425Y-25676536D01*
X42038425Y-25782516D01*
X42019819Y-25900000D01*
X42038425Y-26017481D01*
X42062841Y-26065400D01*
X42069009Y-26115642D01*
X42041440Y-26158094D01*
X42030501Y-26164929D01*
X41976536Y-26192425D01*
X41892425Y-26276536D01*
X41838425Y-26382516D01*
X41819819Y-26500000D01*
X41490681Y-26500000D01*
X41473646Y-26392445D01*
X41472074Y-26382516D01*
X41418074Y-26276536D01*
X41333963Y-26192425D01*
X41227983Y-26138425D01*
X41110500Y-26119819D01*
X40993016Y-26138425D01*
X40887036Y-26192425D01*
X40802925Y-26276536D01*
X40748925Y-26382516D01*
X40730319Y-26500000D01*
X39919530Y-26500000D01*
X39907574Y-26476536D01*
X39823463Y-26392425D01*
X39717483Y-26338425D01*
X39600000Y-26319819D01*
X39482516Y-26338425D01*
X39376536Y-26392425D01*
X39292425Y-26476536D01*
X39238425Y-26582516D01*
X39219819Y-26700000D01*
X36491811Y-26700000D01*
X36429945Y-26517748D01*
X36332337Y-26319819D01*
X36297637Y-26249453D01*
X36297634Y-26249448D01*
X36296566Y-26247282D01*
X36178963Y-26071277D01*
X36130367Y-25998547D01*
X36130364Y-25998543D01*
X36129025Y-25996539D01*
X36116727Y-25982516D01*
X35931785Y-25771631D01*
X35930189Y-25769811D01*
X35928368Y-25768214D01*
X35705277Y-25572567D01*
X35705271Y-25572562D01*
X35703461Y-25570975D01*
X35701458Y-25569636D01*
X35701452Y-25569632D01*
X35454731Y-25404779D01*
X35454730Y-25404778D01*
X35452718Y-25403434D01*
X35450556Y-25402368D01*
X35450546Y-25402362D01*
X35184422Y-25271125D01*
X35184420Y-25271124D01*
X35182252Y-25270055D01*
X35179965Y-25269278D01*
X35179961Y-25269277D01*
X34975875Y-25199999D01*
X58719819Y-25199999D01*
X58738425Y-25317483D01*
X58792425Y-25423463D01*
X58876536Y-25507574D01*
X58982516Y-25561574D01*
X59010778Y-25566049D01*
X59100000Y-25580181D01*
X59201419Y-25564117D01*
X59217483Y-25561574D01*
X59323463Y-25507574D01*
X59323462Y-25507574D01*
X59323465Y-25507573D01*
X59407573Y-25423465D01*
X59418326Y-25402362D01*
X59461574Y-25317483D01*
X59468916Y-25271125D01*
X59480181Y-25200000D01*
X59461574Y-25082518D01*
X59461574Y-25082516D01*
X59407574Y-24976536D01*
X59331037Y-24899999D01*
X63619819Y-24899999D01*
X63638425Y-25017483D01*
X63692425Y-25123463D01*
X63776536Y-25207574D01*
X63882516Y-25261574D01*
X63910778Y-25266049D01*
X64000000Y-25280181D01*
X64101419Y-25264117D01*
X64117483Y-25261574D01*
X64223463Y-25207574D01*
X64223462Y-25207574D01*
X64223465Y-25207573D01*
X64307573Y-25123465D01*
X64328438Y-25082516D01*
X64361574Y-25017483D01*
X64368059Y-24976535D01*
X64380181Y-24900000D01*
X64361574Y-24782518D01*
X64361574Y-24782516D01*
X64307574Y-24676536D01*
X64223463Y-24592425D01*
X64117483Y-24538425D01*
X64000000Y-24519819D01*
X63882516Y-24538425D01*
X63776536Y-24592425D01*
X63692425Y-24676536D01*
X63638425Y-24782516D01*
X63619819Y-24899999D01*
X59331037Y-24899999D01*
X59323463Y-24892425D01*
X59217483Y-24838425D01*
X59114130Y-24822056D01*
X59100000Y-24819819D01*
X59099999Y-24819819D01*
X58982516Y-24838425D01*
X58876536Y-24892425D01*
X58792425Y-24976536D01*
X58738425Y-25082516D01*
X58719819Y-25199999D01*
X34975875Y-25199999D01*
X34898978Y-25173896D01*
X34898973Y-25173894D01*
X34896691Y-25173120D01*
X34647061Y-25123465D01*
X34603289Y-25114758D01*
X34603285Y-25114757D01*
X34600920Y-25114287D01*
X34598516Y-25114129D01*
X34598513Y-25114129D01*
X34302411Y-25094722D01*
X34300000Y-25094564D01*
X34297589Y-25094722D01*
X34001486Y-25114129D01*
X34001481Y-25114129D01*
X33999080Y-25114287D01*
X33996716Y-25114757D01*
X33996710Y-25114758D01*
X33705681Y-25172648D01*
X33705678Y-25172648D01*
X33703309Y-25173120D01*
X33701030Y-25173893D01*
X33701021Y-25173896D01*
X33420038Y-25269277D01*
X33420029Y-25269280D01*
X33417748Y-25270055D01*
X33415584Y-25271121D01*
X33415577Y-25271125D01*
X33149453Y-25402362D01*
X33149436Y-25402371D01*
X33147282Y-25403434D01*
X33145275Y-25404774D01*
X33145268Y-25404779D01*
X32898547Y-25569632D01*
X32898533Y-25569642D01*
X32896539Y-25570975D01*
X32894735Y-25572556D01*
X32894722Y-25572567D01*
X32671631Y-25768214D01*
X32671623Y-25768221D01*
X32669811Y-25769811D01*
X32668221Y-25771623D01*
X32668214Y-25771631D01*
X32472567Y-25994722D01*
X32472556Y-25994735D01*
X32470975Y-25996539D01*
X32469642Y-25998533D01*
X32469632Y-25998547D01*
X32304779Y-26245268D01*
X32304774Y-26245275D01*
X32303434Y-26247282D01*
X32302371Y-26249436D01*
X32302362Y-26249453D01*
X32171125Y-26515577D01*
X32171121Y-26515584D01*
X32170055Y-26517748D01*
X32169280Y-26520029D01*
X32169277Y-26520038D01*
X32073896Y-26801021D01*
X32073893Y-26801030D01*
X32073120Y-26803309D01*
X32072648Y-26805678D01*
X32072648Y-26805681D01*
X32027011Y-27035115D01*
X32014287Y-27099080D01*
X32014129Y-27101481D01*
X32014129Y-27101486D01*
X31999819Y-27319819D01*
X31994564Y-27400000D01*
X28480500Y-27400000D01*
X28480500Y-23674500D01*
X28497813Y-23626934D01*
X28541650Y-23601624D01*
X28554500Y-23600500D01*
X67805500Y-23600500D01*
X67853066Y-23617813D01*
G37*
%TD.AperFunction*%
M02*
