%TF.GenerationSoftware,KiCad,Pcbnew,7.0.2*%
%TF.CreationDate,2023-07-30T21:57:49-04:00*%
%TF.ProjectId,OBC-Flight,4f42432d-466c-4696-9768-742e6b696361,rev?*%
%TF.SameCoordinates,Original*%
%TF.FileFunction,Drillmap*%
%TF.FilePolarity,Positive*%
%FSLAX45Y45*%
G04 Gerber Fmt 4.5, Leading zero omitted, Abs format (unit mm)*
G04 Created by KiCad (PCBNEW 7.0.2) date 2023-07-30 21:57:49*
%MOMM*%
%LPD*%
G01*
G04 APERTURE LIST*
%ADD10C,0.100000*%
%ADD11C,0.200000*%
%ADD12C,0.065000*%
G04 APERTURE END LIST*
D10*
X3630000Y-2740000D02*
G75*
G03*
X3630000Y-2740000I-200000J0D01*
G01*
X3630000Y-5920000D02*
G75*
G03*
X3630000Y-5920000I-200000J0D01*
G01*
X6410000Y-2740000D02*
G75*
G03*
X6410000Y-2740000I-200000J0D01*
G01*
X2818000Y-6330000D02*
X6818000Y-6330000D01*
X6410000Y-5920000D02*
G75*
G03*
X6410000Y-5920000I-200000J0D01*
G01*
X2818000Y-6330000D02*
X2818000Y-2330000D01*
X6818000Y-2330000D02*
X2818000Y-2330000D01*
X6818000Y-6330000D02*
X6818000Y-2330000D01*
D11*
D12*
X3966500Y-5696000D02*
X4031500Y-5761000D01*
X4031500Y-5696000D02*
X3966500Y-5761000D01*
X4544500Y-5696000D02*
X4609500Y-5761000D01*
X4609500Y-5696000D02*
X4544500Y-5761000D01*
D11*
X3060619Y-6647524D02*
X3060619Y-6447524D01*
X3060619Y-6447524D02*
X3108238Y-6447524D01*
X3108238Y-6447524D02*
X3136809Y-6457048D01*
X3136809Y-6457048D02*
X3155857Y-6476095D01*
X3155857Y-6476095D02*
X3165381Y-6495143D01*
X3165381Y-6495143D02*
X3174905Y-6533238D01*
X3174905Y-6533238D02*
X3174905Y-6561809D01*
X3174905Y-6561809D02*
X3165381Y-6599905D01*
X3165381Y-6599905D02*
X3155857Y-6618952D01*
X3155857Y-6618952D02*
X3136809Y-6638000D01*
X3136809Y-6638000D02*
X3108238Y-6647524D01*
X3108238Y-6647524D02*
X3060619Y-6647524D01*
X3260619Y-6647524D02*
X3260619Y-6514190D01*
X3260619Y-6552286D02*
X3270143Y-6533238D01*
X3270143Y-6533238D02*
X3279667Y-6523714D01*
X3279667Y-6523714D02*
X3298714Y-6514190D01*
X3298714Y-6514190D02*
X3317762Y-6514190D01*
X3384428Y-6647524D02*
X3384428Y-6514190D01*
X3384428Y-6447524D02*
X3374905Y-6457048D01*
X3374905Y-6457048D02*
X3384428Y-6466571D01*
X3384428Y-6466571D02*
X3393952Y-6457048D01*
X3393952Y-6457048D02*
X3384428Y-6447524D01*
X3384428Y-6447524D02*
X3384428Y-6466571D01*
X3508238Y-6647524D02*
X3489190Y-6638000D01*
X3489190Y-6638000D02*
X3479667Y-6618952D01*
X3479667Y-6618952D02*
X3479667Y-6447524D01*
X3613000Y-6647524D02*
X3593952Y-6638000D01*
X3593952Y-6638000D02*
X3584428Y-6618952D01*
X3584428Y-6618952D02*
X3584428Y-6447524D01*
X3841571Y-6647524D02*
X3841571Y-6447524D01*
X3841571Y-6447524D02*
X3908238Y-6590381D01*
X3908238Y-6590381D02*
X3974905Y-6447524D01*
X3974905Y-6447524D02*
X3974905Y-6647524D01*
X4155857Y-6647524D02*
X4155857Y-6542762D01*
X4155857Y-6542762D02*
X4146333Y-6523714D01*
X4146333Y-6523714D02*
X4127286Y-6514190D01*
X4127286Y-6514190D02*
X4089190Y-6514190D01*
X4089190Y-6514190D02*
X4070143Y-6523714D01*
X4155857Y-6638000D02*
X4136809Y-6647524D01*
X4136809Y-6647524D02*
X4089190Y-6647524D01*
X4089190Y-6647524D02*
X4070143Y-6638000D01*
X4070143Y-6638000D02*
X4060619Y-6618952D01*
X4060619Y-6618952D02*
X4060619Y-6599905D01*
X4060619Y-6599905D02*
X4070143Y-6580857D01*
X4070143Y-6580857D02*
X4089190Y-6571333D01*
X4089190Y-6571333D02*
X4136809Y-6571333D01*
X4136809Y-6571333D02*
X4155857Y-6561809D01*
X4251095Y-6514190D02*
X4251095Y-6714190D01*
X4251095Y-6523714D02*
X4270143Y-6514190D01*
X4270143Y-6514190D02*
X4308238Y-6514190D01*
X4308238Y-6514190D02*
X4327286Y-6523714D01*
X4327286Y-6523714D02*
X4336810Y-6533238D01*
X4336810Y-6533238D02*
X4346333Y-6552286D01*
X4346333Y-6552286D02*
X4346333Y-6609428D01*
X4346333Y-6609428D02*
X4336810Y-6628476D01*
X4336810Y-6628476D02*
X4327286Y-6638000D01*
X4327286Y-6638000D02*
X4308238Y-6647524D01*
X4308238Y-6647524D02*
X4270143Y-6647524D01*
X4270143Y-6647524D02*
X4251095Y-6638000D01*
X4432048Y-6628476D02*
X4441571Y-6638000D01*
X4441571Y-6638000D02*
X4432048Y-6647524D01*
X4432048Y-6647524D02*
X4422524Y-6638000D01*
X4422524Y-6638000D02*
X4432048Y-6628476D01*
X4432048Y-6628476D02*
X4432048Y-6647524D01*
X4432048Y-6523714D02*
X4441571Y-6533238D01*
X4441571Y-6533238D02*
X4432048Y-6542762D01*
X4432048Y-6542762D02*
X4422524Y-6533238D01*
X4422524Y-6533238D02*
X4432048Y-6523714D01*
X4432048Y-6523714D02*
X4432048Y-6542762D01*
D12*
X2748000Y-6942500D02*
X2813000Y-7007500D01*
X2813000Y-6942500D02*
X2748000Y-7007500D01*
D11*
X3098714Y-6867524D02*
X3117762Y-6867524D01*
X3117762Y-6867524D02*
X3136809Y-6877048D01*
X3136809Y-6877048D02*
X3146333Y-6886571D01*
X3146333Y-6886571D02*
X3155857Y-6905619D01*
X3155857Y-6905619D02*
X3165381Y-6943714D01*
X3165381Y-6943714D02*
X3165381Y-6991333D01*
X3165381Y-6991333D02*
X3155857Y-7029428D01*
X3155857Y-7029428D02*
X3146333Y-7048476D01*
X3146333Y-7048476D02*
X3136809Y-7058000D01*
X3136809Y-7058000D02*
X3117762Y-7067524D01*
X3117762Y-7067524D02*
X3098714Y-7067524D01*
X3098714Y-7067524D02*
X3079667Y-7058000D01*
X3079667Y-7058000D02*
X3070143Y-7048476D01*
X3070143Y-7048476D02*
X3060619Y-7029428D01*
X3060619Y-7029428D02*
X3051095Y-6991333D01*
X3051095Y-6991333D02*
X3051095Y-6943714D01*
X3051095Y-6943714D02*
X3060619Y-6905619D01*
X3060619Y-6905619D02*
X3070143Y-6886571D01*
X3070143Y-6886571D02*
X3079667Y-6877048D01*
X3079667Y-6877048D02*
X3098714Y-6867524D01*
X3251095Y-7048476D02*
X3260619Y-7058000D01*
X3260619Y-7058000D02*
X3251095Y-7067524D01*
X3251095Y-7067524D02*
X3241571Y-7058000D01*
X3241571Y-7058000D02*
X3251095Y-7048476D01*
X3251095Y-7048476D02*
X3251095Y-7067524D01*
X3432048Y-6867524D02*
X3393952Y-6867524D01*
X3393952Y-6867524D02*
X3374905Y-6877048D01*
X3374905Y-6877048D02*
X3365381Y-6886571D01*
X3365381Y-6886571D02*
X3346333Y-6915143D01*
X3346333Y-6915143D02*
X3336809Y-6953238D01*
X3336809Y-6953238D02*
X3336809Y-7029428D01*
X3336809Y-7029428D02*
X3346333Y-7048476D01*
X3346333Y-7048476D02*
X3355857Y-7058000D01*
X3355857Y-7058000D02*
X3374905Y-7067524D01*
X3374905Y-7067524D02*
X3413000Y-7067524D01*
X3413000Y-7067524D02*
X3432048Y-7058000D01*
X3432048Y-7058000D02*
X3441571Y-7048476D01*
X3441571Y-7048476D02*
X3451095Y-7029428D01*
X3451095Y-7029428D02*
X3451095Y-6981809D01*
X3451095Y-6981809D02*
X3441571Y-6962762D01*
X3441571Y-6962762D02*
X3432048Y-6953238D01*
X3432048Y-6953238D02*
X3413000Y-6943714D01*
X3413000Y-6943714D02*
X3374905Y-6943714D01*
X3374905Y-6943714D02*
X3355857Y-6953238D01*
X3355857Y-6953238D02*
X3346333Y-6962762D01*
X3346333Y-6962762D02*
X3336809Y-6981809D01*
X3632048Y-6867524D02*
X3536809Y-6867524D01*
X3536809Y-6867524D02*
X3527286Y-6962762D01*
X3527286Y-6962762D02*
X3536809Y-6953238D01*
X3536809Y-6953238D02*
X3555857Y-6943714D01*
X3555857Y-6943714D02*
X3603476Y-6943714D01*
X3603476Y-6943714D02*
X3622524Y-6953238D01*
X3622524Y-6953238D02*
X3632048Y-6962762D01*
X3632048Y-6962762D02*
X3641571Y-6981809D01*
X3641571Y-6981809D02*
X3641571Y-7029428D01*
X3641571Y-7029428D02*
X3632048Y-7048476D01*
X3632048Y-7048476D02*
X3622524Y-7058000D01*
X3622524Y-7058000D02*
X3603476Y-7067524D01*
X3603476Y-7067524D02*
X3555857Y-7067524D01*
X3555857Y-7067524D02*
X3536809Y-7058000D01*
X3536809Y-7058000D02*
X3527286Y-7048476D01*
X3765381Y-6867524D02*
X3784429Y-6867524D01*
X3784429Y-6867524D02*
X3803476Y-6877048D01*
X3803476Y-6877048D02*
X3813000Y-6886571D01*
X3813000Y-6886571D02*
X3822524Y-6905619D01*
X3822524Y-6905619D02*
X3832048Y-6943714D01*
X3832048Y-6943714D02*
X3832048Y-6991333D01*
X3832048Y-6991333D02*
X3822524Y-7029428D01*
X3822524Y-7029428D02*
X3813000Y-7048476D01*
X3813000Y-7048476D02*
X3803476Y-7058000D01*
X3803476Y-7058000D02*
X3784429Y-7067524D01*
X3784429Y-7067524D02*
X3765381Y-7067524D01*
X3765381Y-7067524D02*
X3746333Y-7058000D01*
X3746333Y-7058000D02*
X3736809Y-7048476D01*
X3736809Y-7048476D02*
X3727286Y-7029428D01*
X3727286Y-7029428D02*
X3717762Y-6991333D01*
X3717762Y-6991333D02*
X3717762Y-6943714D01*
X3717762Y-6943714D02*
X3727286Y-6905619D01*
X3727286Y-6905619D02*
X3736809Y-6886571D01*
X3736809Y-6886571D02*
X3746333Y-6877048D01*
X3746333Y-6877048D02*
X3765381Y-6867524D01*
X3917762Y-7067524D02*
X3917762Y-6934190D01*
X3917762Y-6953238D02*
X3927286Y-6943714D01*
X3927286Y-6943714D02*
X3946333Y-6934190D01*
X3946333Y-6934190D02*
X3974905Y-6934190D01*
X3974905Y-6934190D02*
X3993952Y-6943714D01*
X3993952Y-6943714D02*
X4003476Y-6962762D01*
X4003476Y-6962762D02*
X4003476Y-7067524D01*
X4003476Y-6962762D02*
X4013000Y-6943714D01*
X4013000Y-6943714D02*
X4032048Y-6934190D01*
X4032048Y-6934190D02*
X4060619Y-6934190D01*
X4060619Y-6934190D02*
X4079667Y-6943714D01*
X4079667Y-6943714D02*
X4089190Y-6962762D01*
X4089190Y-6962762D02*
X4089190Y-7067524D01*
X4184429Y-7067524D02*
X4184429Y-6934190D01*
X4184429Y-6953238D02*
X4193952Y-6943714D01*
X4193952Y-6943714D02*
X4213000Y-6934190D01*
X4213000Y-6934190D02*
X4241572Y-6934190D01*
X4241572Y-6934190D02*
X4260619Y-6943714D01*
X4260619Y-6943714D02*
X4270143Y-6962762D01*
X4270143Y-6962762D02*
X4270143Y-7067524D01*
X4270143Y-6962762D02*
X4279667Y-6943714D01*
X4279667Y-6943714D02*
X4298714Y-6934190D01*
X4298714Y-6934190D02*
X4327286Y-6934190D01*
X4327286Y-6934190D02*
X4346333Y-6943714D01*
X4346333Y-6943714D02*
X4355857Y-6962762D01*
X4355857Y-6962762D02*
X4355857Y-7067524D01*
X4746333Y-6858000D02*
X4574905Y-7115143D01*
X5003476Y-6867524D02*
X5022524Y-6867524D01*
X5022524Y-6867524D02*
X5041572Y-6877048D01*
X5041572Y-6877048D02*
X5051095Y-6886571D01*
X5051095Y-6886571D02*
X5060619Y-6905619D01*
X5060619Y-6905619D02*
X5070143Y-6943714D01*
X5070143Y-6943714D02*
X5070143Y-6991333D01*
X5070143Y-6991333D02*
X5060619Y-7029428D01*
X5060619Y-7029428D02*
X5051095Y-7048476D01*
X5051095Y-7048476D02*
X5041572Y-7058000D01*
X5041572Y-7058000D02*
X5022524Y-7067524D01*
X5022524Y-7067524D02*
X5003476Y-7067524D01*
X5003476Y-7067524D02*
X4984429Y-7058000D01*
X4984429Y-7058000D02*
X4974905Y-7048476D01*
X4974905Y-7048476D02*
X4965381Y-7029428D01*
X4965381Y-7029428D02*
X4955857Y-6991333D01*
X4955857Y-6991333D02*
X4955857Y-6943714D01*
X4955857Y-6943714D02*
X4965381Y-6905619D01*
X4965381Y-6905619D02*
X4974905Y-6886571D01*
X4974905Y-6886571D02*
X4984429Y-6877048D01*
X4984429Y-6877048D02*
X5003476Y-6867524D01*
X5155857Y-7048476D02*
X5165381Y-7058000D01*
X5165381Y-7058000D02*
X5155857Y-7067524D01*
X5155857Y-7067524D02*
X5146334Y-7058000D01*
X5146334Y-7058000D02*
X5155857Y-7048476D01*
X5155857Y-7048476D02*
X5155857Y-7067524D01*
X5289191Y-6867524D02*
X5308238Y-6867524D01*
X5308238Y-6867524D02*
X5327286Y-6877048D01*
X5327286Y-6877048D02*
X5336810Y-6886571D01*
X5336810Y-6886571D02*
X5346334Y-6905619D01*
X5346334Y-6905619D02*
X5355857Y-6943714D01*
X5355857Y-6943714D02*
X5355857Y-6991333D01*
X5355857Y-6991333D02*
X5346334Y-7029428D01*
X5346334Y-7029428D02*
X5336810Y-7048476D01*
X5336810Y-7048476D02*
X5327286Y-7058000D01*
X5327286Y-7058000D02*
X5308238Y-7067524D01*
X5308238Y-7067524D02*
X5289191Y-7067524D01*
X5289191Y-7067524D02*
X5270143Y-7058000D01*
X5270143Y-7058000D02*
X5260619Y-7048476D01*
X5260619Y-7048476D02*
X5251095Y-7029428D01*
X5251095Y-7029428D02*
X5241572Y-6991333D01*
X5241572Y-6991333D02*
X5241572Y-6943714D01*
X5241572Y-6943714D02*
X5251095Y-6905619D01*
X5251095Y-6905619D02*
X5260619Y-6886571D01*
X5260619Y-6886571D02*
X5270143Y-6877048D01*
X5270143Y-6877048D02*
X5289191Y-6867524D01*
X5432048Y-6886571D02*
X5441572Y-6877048D01*
X5441572Y-6877048D02*
X5460619Y-6867524D01*
X5460619Y-6867524D02*
X5508238Y-6867524D01*
X5508238Y-6867524D02*
X5527286Y-6877048D01*
X5527286Y-6877048D02*
X5536810Y-6886571D01*
X5536810Y-6886571D02*
X5546334Y-6905619D01*
X5546334Y-6905619D02*
X5546334Y-6924667D01*
X5546334Y-6924667D02*
X5536810Y-6953238D01*
X5536810Y-6953238D02*
X5422524Y-7067524D01*
X5422524Y-7067524D02*
X5546334Y-7067524D01*
X5727286Y-6867524D02*
X5632048Y-6867524D01*
X5632048Y-6867524D02*
X5622524Y-6962762D01*
X5622524Y-6962762D02*
X5632048Y-6953238D01*
X5632048Y-6953238D02*
X5651095Y-6943714D01*
X5651095Y-6943714D02*
X5698714Y-6943714D01*
X5698714Y-6943714D02*
X5717762Y-6953238D01*
X5717762Y-6953238D02*
X5727286Y-6962762D01*
X5727286Y-6962762D02*
X5736810Y-6981809D01*
X5736810Y-6981809D02*
X5736810Y-7029428D01*
X5736810Y-7029428D02*
X5727286Y-7048476D01*
X5727286Y-7048476D02*
X5717762Y-7058000D01*
X5717762Y-7058000D02*
X5698714Y-7067524D01*
X5698714Y-7067524D02*
X5651095Y-7067524D01*
X5651095Y-7067524D02*
X5632048Y-7058000D01*
X5632048Y-7058000D02*
X5622524Y-7048476D01*
X5908238Y-6867524D02*
X5870143Y-6867524D01*
X5870143Y-6867524D02*
X5851095Y-6877048D01*
X5851095Y-6877048D02*
X5841572Y-6886571D01*
X5841572Y-6886571D02*
X5822524Y-6915143D01*
X5822524Y-6915143D02*
X5813000Y-6953238D01*
X5813000Y-6953238D02*
X5813000Y-7029428D01*
X5813000Y-7029428D02*
X5822524Y-7048476D01*
X5822524Y-7048476D02*
X5832048Y-7058000D01*
X5832048Y-7058000D02*
X5851095Y-7067524D01*
X5851095Y-7067524D02*
X5889191Y-7067524D01*
X5889191Y-7067524D02*
X5908238Y-7058000D01*
X5908238Y-7058000D02*
X5917762Y-7048476D01*
X5917762Y-7048476D02*
X5927286Y-7029428D01*
X5927286Y-7029428D02*
X5927286Y-6981809D01*
X5927286Y-6981809D02*
X5917762Y-6962762D01*
X5917762Y-6962762D02*
X5908238Y-6953238D01*
X5908238Y-6953238D02*
X5889191Y-6943714D01*
X5889191Y-6943714D02*
X5851095Y-6943714D01*
X5851095Y-6943714D02*
X5832048Y-6953238D01*
X5832048Y-6953238D02*
X5822524Y-6962762D01*
X5822524Y-6962762D02*
X5813000Y-6981809D01*
X6003476Y-6867524D02*
X6003476Y-6905619D01*
X6079667Y-6867524D02*
X6079667Y-6905619D01*
X6374905Y-7143714D02*
X6365381Y-7134190D01*
X6365381Y-7134190D02*
X6346334Y-7105619D01*
X6346334Y-7105619D02*
X6336810Y-7086571D01*
X6336810Y-7086571D02*
X6327286Y-7058000D01*
X6327286Y-7058000D02*
X6317762Y-7010381D01*
X6317762Y-7010381D02*
X6317762Y-6972286D01*
X6317762Y-6972286D02*
X6327286Y-6924667D01*
X6327286Y-6924667D02*
X6336810Y-6896095D01*
X6336810Y-6896095D02*
X6346334Y-6877048D01*
X6346334Y-6877048D02*
X6365381Y-6848476D01*
X6365381Y-6848476D02*
X6374905Y-6838952D01*
X6441572Y-6886571D02*
X6451095Y-6877048D01*
X6451095Y-6877048D02*
X6470143Y-6867524D01*
X6470143Y-6867524D02*
X6517762Y-6867524D01*
X6517762Y-6867524D02*
X6536810Y-6877048D01*
X6536810Y-6877048D02*
X6546334Y-6886571D01*
X6546334Y-6886571D02*
X6555857Y-6905619D01*
X6555857Y-6905619D02*
X6555857Y-6924667D01*
X6555857Y-6924667D02*
X6546334Y-6953238D01*
X6546334Y-6953238D02*
X6432048Y-7067524D01*
X6432048Y-7067524D02*
X6555857Y-7067524D01*
X6793953Y-7067524D02*
X6793953Y-6867524D01*
X6879667Y-7067524D02*
X6879667Y-6962762D01*
X6879667Y-6962762D02*
X6870143Y-6943714D01*
X6870143Y-6943714D02*
X6851096Y-6934190D01*
X6851096Y-6934190D02*
X6822524Y-6934190D01*
X6822524Y-6934190D02*
X6803476Y-6943714D01*
X6803476Y-6943714D02*
X6793953Y-6953238D01*
X7003476Y-7067524D02*
X6984429Y-7058000D01*
X6984429Y-7058000D02*
X6974905Y-7048476D01*
X6974905Y-7048476D02*
X6965381Y-7029428D01*
X6965381Y-7029428D02*
X6965381Y-6972286D01*
X6965381Y-6972286D02*
X6974905Y-6953238D01*
X6974905Y-6953238D02*
X6984429Y-6943714D01*
X6984429Y-6943714D02*
X7003476Y-6934190D01*
X7003476Y-6934190D02*
X7032048Y-6934190D01*
X7032048Y-6934190D02*
X7051096Y-6943714D01*
X7051096Y-6943714D02*
X7060619Y-6953238D01*
X7060619Y-6953238D02*
X7070143Y-6972286D01*
X7070143Y-6972286D02*
X7070143Y-7029428D01*
X7070143Y-7029428D02*
X7060619Y-7048476D01*
X7060619Y-7048476D02*
X7051096Y-7058000D01*
X7051096Y-7058000D02*
X7032048Y-7067524D01*
X7032048Y-7067524D02*
X7003476Y-7067524D01*
X7184429Y-7067524D02*
X7165381Y-7058000D01*
X7165381Y-7058000D02*
X7155857Y-7038952D01*
X7155857Y-7038952D02*
X7155857Y-6867524D01*
X7336810Y-7058000D02*
X7317762Y-7067524D01*
X7317762Y-7067524D02*
X7279667Y-7067524D01*
X7279667Y-7067524D02*
X7260619Y-7058000D01*
X7260619Y-7058000D02*
X7251096Y-7038952D01*
X7251096Y-7038952D02*
X7251096Y-6962762D01*
X7251096Y-6962762D02*
X7260619Y-6943714D01*
X7260619Y-6943714D02*
X7279667Y-6934190D01*
X7279667Y-6934190D02*
X7317762Y-6934190D01*
X7317762Y-6934190D02*
X7336810Y-6943714D01*
X7336810Y-6943714D02*
X7346334Y-6962762D01*
X7346334Y-6962762D02*
X7346334Y-6981809D01*
X7346334Y-6981809D02*
X7251096Y-7000857D01*
X7422524Y-7058000D02*
X7441572Y-7067524D01*
X7441572Y-7067524D02*
X7479667Y-7067524D01*
X7479667Y-7067524D02*
X7498715Y-7058000D01*
X7498715Y-7058000D02*
X7508238Y-7038952D01*
X7508238Y-7038952D02*
X7508238Y-7029428D01*
X7508238Y-7029428D02*
X7498715Y-7010381D01*
X7498715Y-7010381D02*
X7479667Y-7000857D01*
X7479667Y-7000857D02*
X7451096Y-7000857D01*
X7451096Y-7000857D02*
X7432048Y-6991333D01*
X7432048Y-6991333D02*
X7422524Y-6972286D01*
X7422524Y-6972286D02*
X7422524Y-6962762D01*
X7422524Y-6962762D02*
X7432048Y-6943714D01*
X7432048Y-6943714D02*
X7451096Y-6934190D01*
X7451096Y-6934190D02*
X7479667Y-6934190D01*
X7479667Y-6934190D02*
X7498715Y-6943714D01*
X7574905Y-7143714D02*
X7584429Y-7134190D01*
X7584429Y-7134190D02*
X7603477Y-7105619D01*
X7603477Y-7105619D02*
X7613000Y-7086571D01*
X7613000Y-7086571D02*
X7622524Y-7058000D01*
X7622524Y-7058000D02*
X7632048Y-7010381D01*
X7632048Y-7010381D02*
X7632048Y-6972286D01*
X7632048Y-6972286D02*
X7622524Y-6924667D01*
X7622524Y-6924667D02*
X7613000Y-6896095D01*
X7613000Y-6896095D02*
X7603477Y-6877048D01*
X7603477Y-6877048D02*
X7584429Y-6848476D01*
X7584429Y-6848476D02*
X7574905Y-6838952D01*
X7936810Y-7143714D02*
X7927286Y-7134190D01*
X7927286Y-7134190D02*
X7908238Y-7105619D01*
X7908238Y-7105619D02*
X7898715Y-7086571D01*
X7898715Y-7086571D02*
X7889191Y-7058000D01*
X7889191Y-7058000D02*
X7879667Y-7010381D01*
X7879667Y-7010381D02*
X7879667Y-6972286D01*
X7879667Y-6972286D02*
X7889191Y-6924667D01*
X7889191Y-6924667D02*
X7898715Y-6896095D01*
X7898715Y-6896095D02*
X7908238Y-6877048D01*
X7908238Y-6877048D02*
X7927286Y-6848476D01*
X7927286Y-6848476D02*
X7936810Y-6838952D01*
X8013000Y-6934190D02*
X8013000Y-7067524D01*
X8013000Y-6953238D02*
X8022524Y-6943714D01*
X8022524Y-6943714D02*
X8041572Y-6934190D01*
X8041572Y-6934190D02*
X8070143Y-6934190D01*
X8070143Y-6934190D02*
X8089191Y-6943714D01*
X8089191Y-6943714D02*
X8098715Y-6962762D01*
X8098715Y-6962762D02*
X8098715Y-7067524D01*
X8222524Y-7067524D02*
X8203477Y-7058000D01*
X8203477Y-7058000D02*
X8193953Y-7048476D01*
X8193953Y-7048476D02*
X8184429Y-7029428D01*
X8184429Y-7029428D02*
X8184429Y-6972286D01*
X8184429Y-6972286D02*
X8193953Y-6953238D01*
X8193953Y-6953238D02*
X8203477Y-6943714D01*
X8203477Y-6943714D02*
X8222524Y-6934190D01*
X8222524Y-6934190D02*
X8251096Y-6934190D01*
X8251096Y-6934190D02*
X8270143Y-6943714D01*
X8270143Y-6943714D02*
X8279667Y-6953238D01*
X8279667Y-6953238D02*
X8289191Y-6972286D01*
X8289191Y-6972286D02*
X8289191Y-7029428D01*
X8289191Y-7029428D02*
X8279667Y-7048476D01*
X8279667Y-7048476D02*
X8270143Y-7058000D01*
X8270143Y-7058000D02*
X8251096Y-7067524D01*
X8251096Y-7067524D02*
X8222524Y-7067524D01*
X8346334Y-6934190D02*
X8422524Y-6934190D01*
X8374905Y-6867524D02*
X8374905Y-7038952D01*
X8374905Y-7038952D02*
X8384429Y-7058000D01*
X8384429Y-7058000D02*
X8403477Y-7067524D01*
X8403477Y-7067524D02*
X8422524Y-7067524D01*
X8641572Y-6934190D02*
X8641572Y-7134190D01*
X8641572Y-6943714D02*
X8660620Y-6934190D01*
X8660620Y-6934190D02*
X8698715Y-6934190D01*
X8698715Y-6934190D02*
X8717762Y-6943714D01*
X8717762Y-6943714D02*
X8727286Y-6953238D01*
X8727286Y-6953238D02*
X8736810Y-6972286D01*
X8736810Y-6972286D02*
X8736810Y-7029428D01*
X8736810Y-7029428D02*
X8727286Y-7048476D01*
X8727286Y-7048476D02*
X8717762Y-7058000D01*
X8717762Y-7058000D02*
X8698715Y-7067524D01*
X8698715Y-7067524D02*
X8660620Y-7067524D01*
X8660620Y-7067524D02*
X8641572Y-7058000D01*
X8851096Y-7067524D02*
X8832048Y-7058000D01*
X8832048Y-7058000D02*
X8822524Y-7038952D01*
X8822524Y-7038952D02*
X8822524Y-6867524D01*
X9013001Y-7067524D02*
X9013001Y-6962762D01*
X9013001Y-6962762D02*
X9003477Y-6943714D01*
X9003477Y-6943714D02*
X8984429Y-6934190D01*
X8984429Y-6934190D02*
X8946334Y-6934190D01*
X8946334Y-6934190D02*
X8927286Y-6943714D01*
X9013001Y-7058000D02*
X8993953Y-7067524D01*
X8993953Y-7067524D02*
X8946334Y-7067524D01*
X8946334Y-7067524D02*
X8927286Y-7058000D01*
X8927286Y-7058000D02*
X8917762Y-7038952D01*
X8917762Y-7038952D02*
X8917762Y-7019905D01*
X8917762Y-7019905D02*
X8927286Y-7000857D01*
X8927286Y-7000857D02*
X8946334Y-6991333D01*
X8946334Y-6991333D02*
X8993953Y-6991333D01*
X8993953Y-6991333D02*
X9013001Y-6981809D01*
X9079667Y-6934190D02*
X9155858Y-6934190D01*
X9108239Y-6867524D02*
X9108239Y-7038952D01*
X9108239Y-7038952D02*
X9117762Y-7058000D01*
X9117762Y-7058000D02*
X9136810Y-7067524D01*
X9136810Y-7067524D02*
X9155858Y-7067524D01*
X9298715Y-7058000D02*
X9279667Y-7067524D01*
X9279667Y-7067524D02*
X9241572Y-7067524D01*
X9241572Y-7067524D02*
X9222524Y-7058000D01*
X9222524Y-7058000D02*
X9213001Y-7038952D01*
X9213001Y-7038952D02*
X9213001Y-6962762D01*
X9213001Y-6962762D02*
X9222524Y-6943714D01*
X9222524Y-6943714D02*
X9241572Y-6934190D01*
X9241572Y-6934190D02*
X9279667Y-6934190D01*
X9279667Y-6934190D02*
X9298715Y-6943714D01*
X9298715Y-6943714D02*
X9308239Y-6962762D01*
X9308239Y-6962762D02*
X9308239Y-6981809D01*
X9308239Y-6981809D02*
X9213001Y-7000857D01*
X9479667Y-7067524D02*
X9479667Y-6867524D01*
X9479667Y-7058000D02*
X9460620Y-7067524D01*
X9460620Y-7067524D02*
X9422524Y-7067524D01*
X9422524Y-7067524D02*
X9403477Y-7058000D01*
X9403477Y-7058000D02*
X9393953Y-7048476D01*
X9393953Y-7048476D02*
X9384429Y-7029428D01*
X9384429Y-7029428D02*
X9384429Y-6972286D01*
X9384429Y-6972286D02*
X9393953Y-6953238D01*
X9393953Y-6953238D02*
X9403477Y-6943714D01*
X9403477Y-6943714D02*
X9422524Y-6934190D01*
X9422524Y-6934190D02*
X9460620Y-6934190D01*
X9460620Y-6934190D02*
X9479667Y-6943714D01*
X9555858Y-7143714D02*
X9565382Y-7134190D01*
X9565382Y-7134190D02*
X9584429Y-7105619D01*
X9584429Y-7105619D02*
X9593953Y-7086571D01*
X9593953Y-7086571D02*
X9603477Y-7058000D01*
X9603477Y-7058000D02*
X9613001Y-7010381D01*
X9613001Y-7010381D02*
X9613001Y-6972286D01*
X9613001Y-6972286D02*
X9603477Y-6924667D01*
X9603477Y-6924667D02*
X9593953Y-6896095D01*
X9593953Y-6896095D02*
X9584429Y-6877048D01*
X9584429Y-6877048D02*
X9565382Y-6848476D01*
X9565382Y-6848476D02*
X9555858Y-6838952D01*
M02*
