%TF.GenerationSoftware,KiCad,Pcbnew,7.0.2*%
%TF.CreationDate,2023-07-30T21:57:21-04:00*%
%TF.ProjectId,OBC-Flight,4f42432d-466c-4696-9768-742e6b696361,rev?*%
%TF.SameCoordinates,Original*%
%TF.FileFunction,Legend,Bot*%
%TF.FilePolarity,Positive*%
%FSLAX46Y46*%
G04 Gerber Fmt 4.6, Leading zero omitted, Abs format (unit mm)*
G04 Created by KiCad (PCBNEW 7.0.2) date 2023-07-30 21:57:21*
%MOMM*%
%LPD*%
G01*
G04 APERTURE LIST*
G04 Aperture macros list*
%AMRoundRect*
0 Rectangle with rounded corners*
0 $1 Rounding radius*
0 $2 $3 $4 $5 $6 $7 $8 $9 X,Y pos of 4 corners*
0 Add a 4 corners polygon primitive as box body*
4,1,4,$2,$3,$4,$5,$6,$7,$8,$9,$2,$3,0*
0 Add four circle primitives for the rounded corners*
1,1,$1+$1,$2,$3*
1,1,$1+$1,$4,$5*
1,1,$1+$1,$6,$7*
1,1,$1+$1,$8,$9*
0 Add four rect primitives between the rounded corners*
20,1,$1+$1,$2,$3,$4,$5,0*
20,1,$1+$1,$4,$5,$6,$7,0*
20,1,$1+$1,$6,$7,$8,$9,0*
20,1,$1+$1,$8,$9,$2,$3,0*%
G04 Aperture macros list end*
%ADD10C,0.150000*%
%ADD11C,0.254000*%
%ADD12C,0.120000*%
%ADD13C,0.200000*%
%ADD14C,0.250000*%
%ADD15C,0.100000*%
%ADD16R,1.000000X1.000000*%
%ADD17O,1.000000X1.000000*%
%ADD18C,0.650000*%
%ADD19O,1.000000X2.100000*%
%ADD20O,1.000000X1.800000*%
%ADD21RoundRect,0.135000X-0.185000X0.135000X-0.185000X-0.135000X0.185000X-0.135000X0.185000X0.135000X0*%
%ADD22C,0.370000*%
%ADD23RoundRect,0.140000X-0.170000X0.140000X-0.170000X-0.140000X0.170000X-0.140000X0.170000X0.140000X0*%
%ADD24RoundRect,0.135000X-0.135000X-0.185000X0.135000X-0.185000X0.135000X0.185000X-0.135000X0.185000X0*%
%ADD25RoundRect,0.135000X0.135000X0.185000X-0.135000X0.185000X-0.135000X-0.185000X0.135000X-0.185000X0*%
%ADD26RoundRect,0.140000X0.170000X-0.140000X0.170000X0.140000X-0.170000X0.140000X-0.170000X-0.140000X0*%
%ADD27R,0.450000X0.950000*%
%ADD28R,4.350000X3.450000*%
%ADD29RoundRect,0.140000X-0.140000X-0.170000X0.140000X-0.170000X0.140000X0.170000X-0.140000X0.170000X0*%
%ADD30C,0.204000*%
%ADD31RoundRect,0.225000X-0.250000X0.225000X-0.250000X-0.225000X0.250000X-0.225000X0.250000X0.225000X0*%
%ADD32RoundRect,0.218750X0.256250X-0.218750X0.256250X0.218750X-0.256250X0.218750X-0.256250X-0.218750X0*%
%ADD33RoundRect,0.135000X0.185000X-0.135000X0.185000X0.135000X-0.185000X0.135000X-0.185000X-0.135000X0*%
%ADD34R,1.087400X1.087400*%
%ADD35C,1.087400*%
%ADD36R,0.930000X0.230000*%
%ADD37R,0.750000X0.200000*%
%ADD38R,0.200000X0.750000*%
%ADD39R,1.590000X1.750000*%
%ADD40R,0.600000X0.350000*%
%ADD41R,1.100000X1.700000*%
%ADD42RoundRect,0.140000X0.140000X0.170000X-0.140000X0.170000X-0.140000X-0.170000X0.140000X-0.170000X0*%
%ADD43R,0.350000X0.600000*%
%ADD44R,1.700000X1.100000*%
%ADD45R,1.500000X1.000000*%
%ADD46R,1.475000X0.450000*%
G04 APERTURE END LIST*
D10*
X59200000Y-27100000D02*
X59800000Y-26700000D01*
X60100000Y-25000000D02*
X59200000Y-27100000D01*
X58900000Y-26300000D02*
X59200000Y-27100000D01*
X47557142Y-50277619D02*
X46938095Y-50277619D01*
X46938095Y-50277619D02*
X47271428Y-50658571D01*
X47271428Y-50658571D02*
X47128571Y-50658571D01*
X47128571Y-50658571D02*
X47033333Y-50706190D01*
X47033333Y-50706190D02*
X46985714Y-50753809D01*
X46985714Y-50753809D02*
X46938095Y-50849047D01*
X46938095Y-50849047D02*
X46938095Y-51087142D01*
X46938095Y-51087142D02*
X46985714Y-51182380D01*
X46985714Y-51182380D02*
X47033333Y-51230000D01*
X47033333Y-51230000D02*
X47128571Y-51277619D01*
X47128571Y-51277619D02*
X47414285Y-51277619D01*
X47414285Y-51277619D02*
X47509523Y-51230000D01*
X47509523Y-51230000D02*
X47557142Y-51182380D01*
X46509523Y-51182380D02*
X46461904Y-51230000D01*
X46461904Y-51230000D02*
X46509523Y-51277619D01*
X46509523Y-51277619D02*
X46557142Y-51230000D01*
X46557142Y-51230000D02*
X46509523Y-51182380D01*
X46509523Y-51182380D02*
X46509523Y-51277619D01*
X46128571Y-50277619D02*
X45509524Y-50277619D01*
X45509524Y-50277619D02*
X45842857Y-50658571D01*
X45842857Y-50658571D02*
X45700000Y-50658571D01*
X45700000Y-50658571D02*
X45604762Y-50706190D01*
X45604762Y-50706190D02*
X45557143Y-50753809D01*
X45557143Y-50753809D02*
X45509524Y-50849047D01*
X45509524Y-50849047D02*
X45509524Y-51087142D01*
X45509524Y-51087142D02*
X45557143Y-51182380D01*
X45557143Y-51182380D02*
X45604762Y-51230000D01*
X45604762Y-51230000D02*
X45700000Y-51277619D01*
X45700000Y-51277619D02*
X45985714Y-51277619D01*
X45985714Y-51277619D02*
X46080952Y-51230000D01*
X46080952Y-51230000D02*
X46128571Y-51182380D01*
X45176190Y-50610952D02*
X44938095Y-51277619D01*
X44938095Y-51277619D02*
X44700000Y-50610952D01*
X36438095Y-50677619D02*
X37009523Y-50677619D01*
X36723809Y-50677619D02*
X36723809Y-49677619D01*
X36723809Y-49677619D02*
X36819047Y-49820476D01*
X36819047Y-49820476D02*
X36914285Y-49915714D01*
X36914285Y-49915714D02*
X37009523Y-49963333D01*
X36009523Y-50582380D02*
X35961904Y-50630000D01*
X35961904Y-50630000D02*
X36009523Y-50677619D01*
X36009523Y-50677619D02*
X36057142Y-50630000D01*
X36057142Y-50630000D02*
X36009523Y-50582380D01*
X36009523Y-50582380D02*
X36009523Y-50677619D01*
X35390476Y-50106190D02*
X35485714Y-50058571D01*
X35485714Y-50058571D02*
X35533333Y-50010952D01*
X35533333Y-50010952D02*
X35580952Y-49915714D01*
X35580952Y-49915714D02*
X35580952Y-49868095D01*
X35580952Y-49868095D02*
X35533333Y-49772857D01*
X35533333Y-49772857D02*
X35485714Y-49725238D01*
X35485714Y-49725238D02*
X35390476Y-49677619D01*
X35390476Y-49677619D02*
X35200000Y-49677619D01*
X35200000Y-49677619D02*
X35104762Y-49725238D01*
X35104762Y-49725238D02*
X35057143Y-49772857D01*
X35057143Y-49772857D02*
X35009524Y-49868095D01*
X35009524Y-49868095D02*
X35009524Y-49915714D01*
X35009524Y-49915714D02*
X35057143Y-50010952D01*
X35057143Y-50010952D02*
X35104762Y-50058571D01*
X35104762Y-50058571D02*
X35200000Y-50106190D01*
X35200000Y-50106190D02*
X35390476Y-50106190D01*
X35390476Y-50106190D02*
X35485714Y-50153809D01*
X35485714Y-50153809D02*
X35533333Y-50201428D01*
X35533333Y-50201428D02*
X35580952Y-50296666D01*
X35580952Y-50296666D02*
X35580952Y-50487142D01*
X35580952Y-50487142D02*
X35533333Y-50582380D01*
X35533333Y-50582380D02*
X35485714Y-50630000D01*
X35485714Y-50630000D02*
X35390476Y-50677619D01*
X35390476Y-50677619D02*
X35200000Y-50677619D01*
X35200000Y-50677619D02*
X35104762Y-50630000D01*
X35104762Y-50630000D02*
X35057143Y-50582380D01*
X35057143Y-50582380D02*
X35009524Y-50487142D01*
X35009524Y-50487142D02*
X35009524Y-50296666D01*
X35009524Y-50296666D02*
X35057143Y-50201428D01*
X35057143Y-50201428D02*
X35104762Y-50153809D01*
X35104762Y-50153809D02*
X35200000Y-50106190D01*
X34676190Y-50010952D02*
X34438095Y-50677619D01*
X34438095Y-50677619D02*
X34200000Y-50010952D01*
X60761904Y-53957619D02*
X60761904Y-52957619D01*
X60761904Y-52957619D02*
X60523809Y-52957619D01*
X60523809Y-52957619D02*
X60380952Y-53005238D01*
X60380952Y-53005238D02*
X60285714Y-53100476D01*
X60285714Y-53100476D02*
X60238095Y-53195714D01*
X60238095Y-53195714D02*
X60190476Y-53386190D01*
X60190476Y-53386190D02*
X60190476Y-53529047D01*
X60190476Y-53529047D02*
X60238095Y-53719523D01*
X60238095Y-53719523D02*
X60285714Y-53814761D01*
X60285714Y-53814761D02*
X60380952Y-53910000D01*
X60380952Y-53910000D02*
X60523809Y-53957619D01*
X60523809Y-53957619D02*
X60761904Y-53957619D01*
X59380952Y-53910000D02*
X59476190Y-53957619D01*
X59476190Y-53957619D02*
X59666666Y-53957619D01*
X59666666Y-53957619D02*
X59761904Y-53910000D01*
X59761904Y-53910000D02*
X59809523Y-53814761D01*
X59809523Y-53814761D02*
X59809523Y-53433809D01*
X59809523Y-53433809D02*
X59761904Y-53338571D01*
X59761904Y-53338571D02*
X59666666Y-53290952D01*
X59666666Y-53290952D02*
X59476190Y-53290952D01*
X59476190Y-53290952D02*
X59380952Y-53338571D01*
X59380952Y-53338571D02*
X59333333Y-53433809D01*
X59333333Y-53433809D02*
X59333333Y-53529047D01*
X59333333Y-53529047D02*
X59809523Y-53624285D01*
X58952380Y-53910000D02*
X58857142Y-53957619D01*
X58857142Y-53957619D02*
X58666666Y-53957619D01*
X58666666Y-53957619D02*
X58571428Y-53910000D01*
X58571428Y-53910000D02*
X58523809Y-53814761D01*
X58523809Y-53814761D02*
X58523809Y-53767142D01*
X58523809Y-53767142D02*
X58571428Y-53671904D01*
X58571428Y-53671904D02*
X58666666Y-53624285D01*
X58666666Y-53624285D02*
X58809523Y-53624285D01*
X58809523Y-53624285D02*
X58904761Y-53576666D01*
X58904761Y-53576666D02*
X58952380Y-53481428D01*
X58952380Y-53481428D02*
X58952380Y-53433809D01*
X58952380Y-53433809D02*
X58904761Y-53338571D01*
X58904761Y-53338571D02*
X58809523Y-53290952D01*
X58809523Y-53290952D02*
X58666666Y-53290952D01*
X58666666Y-53290952D02*
X58571428Y-53338571D01*
X58095237Y-53957619D02*
X58095237Y-53290952D01*
X58095237Y-52957619D02*
X58142856Y-53005238D01*
X58142856Y-53005238D02*
X58095237Y-53052857D01*
X58095237Y-53052857D02*
X58047618Y-53005238D01*
X58047618Y-53005238D02*
X58095237Y-52957619D01*
X58095237Y-52957619D02*
X58095237Y-53052857D01*
X57190476Y-53290952D02*
X57190476Y-54100476D01*
X57190476Y-54100476D02*
X57238095Y-54195714D01*
X57238095Y-54195714D02*
X57285714Y-54243333D01*
X57285714Y-54243333D02*
X57380952Y-54290952D01*
X57380952Y-54290952D02*
X57523809Y-54290952D01*
X57523809Y-54290952D02*
X57619047Y-54243333D01*
X57190476Y-53910000D02*
X57285714Y-53957619D01*
X57285714Y-53957619D02*
X57476190Y-53957619D01*
X57476190Y-53957619D02*
X57571428Y-53910000D01*
X57571428Y-53910000D02*
X57619047Y-53862380D01*
X57619047Y-53862380D02*
X57666666Y-53767142D01*
X57666666Y-53767142D02*
X57666666Y-53481428D01*
X57666666Y-53481428D02*
X57619047Y-53386190D01*
X57619047Y-53386190D02*
X57571428Y-53338571D01*
X57571428Y-53338571D02*
X57476190Y-53290952D01*
X57476190Y-53290952D02*
X57285714Y-53290952D01*
X57285714Y-53290952D02*
X57190476Y-53338571D01*
X56714285Y-53290952D02*
X56714285Y-53957619D01*
X56714285Y-53386190D02*
X56666666Y-53338571D01*
X56666666Y-53338571D02*
X56571428Y-53290952D01*
X56571428Y-53290952D02*
X56428571Y-53290952D01*
X56428571Y-53290952D02*
X56333333Y-53338571D01*
X56333333Y-53338571D02*
X56285714Y-53433809D01*
X56285714Y-53433809D02*
X56285714Y-53957619D01*
X55428571Y-53910000D02*
X55523809Y-53957619D01*
X55523809Y-53957619D02*
X55714285Y-53957619D01*
X55714285Y-53957619D02*
X55809523Y-53910000D01*
X55809523Y-53910000D02*
X55857142Y-53814761D01*
X55857142Y-53814761D02*
X55857142Y-53433809D01*
X55857142Y-53433809D02*
X55809523Y-53338571D01*
X55809523Y-53338571D02*
X55714285Y-53290952D01*
X55714285Y-53290952D02*
X55523809Y-53290952D01*
X55523809Y-53290952D02*
X55428571Y-53338571D01*
X55428571Y-53338571D02*
X55380952Y-53433809D01*
X55380952Y-53433809D02*
X55380952Y-53529047D01*
X55380952Y-53529047D02*
X55857142Y-53624285D01*
X54523809Y-53957619D02*
X54523809Y-52957619D01*
X54523809Y-53910000D02*
X54619047Y-53957619D01*
X54619047Y-53957619D02*
X54809523Y-53957619D01*
X54809523Y-53957619D02*
X54904761Y-53910000D01*
X54904761Y-53910000D02*
X54952380Y-53862380D01*
X54952380Y-53862380D02*
X54999999Y-53767142D01*
X54999999Y-53767142D02*
X54999999Y-53481428D01*
X54999999Y-53481428D02*
X54952380Y-53386190D01*
X54952380Y-53386190D02*
X54904761Y-53338571D01*
X54904761Y-53338571D02*
X54809523Y-53290952D01*
X54809523Y-53290952D02*
X54619047Y-53290952D01*
X54619047Y-53290952D02*
X54523809Y-53338571D01*
X52952380Y-53433809D02*
X52809523Y-53481428D01*
X52809523Y-53481428D02*
X52761904Y-53529047D01*
X52761904Y-53529047D02*
X52714285Y-53624285D01*
X52714285Y-53624285D02*
X52714285Y-53767142D01*
X52714285Y-53767142D02*
X52761904Y-53862380D01*
X52761904Y-53862380D02*
X52809523Y-53910000D01*
X52809523Y-53910000D02*
X52904761Y-53957619D01*
X52904761Y-53957619D02*
X53285713Y-53957619D01*
X53285713Y-53957619D02*
X53285713Y-52957619D01*
X53285713Y-52957619D02*
X52952380Y-52957619D01*
X52952380Y-52957619D02*
X52857142Y-53005238D01*
X52857142Y-53005238D02*
X52809523Y-53052857D01*
X52809523Y-53052857D02*
X52761904Y-53148095D01*
X52761904Y-53148095D02*
X52761904Y-53243333D01*
X52761904Y-53243333D02*
X52809523Y-53338571D01*
X52809523Y-53338571D02*
X52857142Y-53386190D01*
X52857142Y-53386190D02*
X52952380Y-53433809D01*
X52952380Y-53433809D02*
X53285713Y-53433809D01*
X52380951Y-53290952D02*
X52142856Y-53957619D01*
X51904761Y-53290952D02*
X52142856Y-53957619D01*
X52142856Y-53957619D02*
X52238094Y-54195714D01*
X52238094Y-54195714D02*
X52285713Y-54243333D01*
X52285713Y-54243333D02*
X52380951Y-54290952D01*
X51523808Y-53862380D02*
X51476189Y-53910000D01*
X51476189Y-53910000D02*
X51523808Y-53957619D01*
X51523808Y-53957619D02*
X51571427Y-53910000D01*
X51571427Y-53910000D02*
X51523808Y-53862380D01*
X51523808Y-53862380D02*
X51523808Y-53957619D01*
X51523808Y-53338571D02*
X51476189Y-53386190D01*
X51476189Y-53386190D02*
X51523808Y-53433809D01*
X51523808Y-53433809D02*
X51571427Y-53386190D01*
X51571427Y-53386190D02*
X51523808Y-53338571D01*
X51523808Y-53338571D02*
X51523808Y-53433809D01*
X60761904Y-55577619D02*
X60761904Y-54577619D01*
X60190476Y-55577619D02*
X60619047Y-55006190D01*
X60190476Y-54577619D02*
X60761904Y-55149047D01*
X59761904Y-55577619D02*
X59761904Y-54910952D01*
X59761904Y-54577619D02*
X59809523Y-54625238D01*
X59809523Y-54625238D02*
X59761904Y-54672857D01*
X59761904Y-54672857D02*
X59714285Y-54625238D01*
X59714285Y-54625238D02*
X59761904Y-54577619D01*
X59761904Y-54577619D02*
X59761904Y-54672857D01*
X58904762Y-55530000D02*
X59000000Y-55577619D01*
X59000000Y-55577619D02*
X59190476Y-55577619D01*
X59190476Y-55577619D02*
X59285714Y-55530000D01*
X59285714Y-55530000D02*
X59333333Y-55434761D01*
X59333333Y-55434761D02*
X59333333Y-55053809D01*
X59333333Y-55053809D02*
X59285714Y-54958571D01*
X59285714Y-54958571D02*
X59190476Y-54910952D01*
X59190476Y-54910952D02*
X59000000Y-54910952D01*
X59000000Y-54910952D02*
X58904762Y-54958571D01*
X58904762Y-54958571D02*
X58857143Y-55053809D01*
X58857143Y-55053809D02*
X58857143Y-55149047D01*
X58857143Y-55149047D02*
X59333333Y-55244285D01*
X58428571Y-55577619D02*
X58428571Y-54910952D01*
X58428571Y-55101428D02*
X58380952Y-55006190D01*
X58380952Y-55006190D02*
X58333333Y-54958571D01*
X58333333Y-54958571D02*
X58238095Y-54910952D01*
X58238095Y-54910952D02*
X58142857Y-54910952D01*
X57380952Y-55577619D02*
X57380952Y-55053809D01*
X57380952Y-55053809D02*
X57428571Y-54958571D01*
X57428571Y-54958571D02*
X57523809Y-54910952D01*
X57523809Y-54910952D02*
X57714285Y-54910952D01*
X57714285Y-54910952D02*
X57809523Y-54958571D01*
X57380952Y-55530000D02*
X57476190Y-55577619D01*
X57476190Y-55577619D02*
X57714285Y-55577619D01*
X57714285Y-55577619D02*
X57809523Y-55530000D01*
X57809523Y-55530000D02*
X57857142Y-55434761D01*
X57857142Y-55434761D02*
X57857142Y-55339523D01*
X57857142Y-55339523D02*
X57809523Y-55244285D01*
X57809523Y-55244285D02*
X57714285Y-55196666D01*
X57714285Y-55196666D02*
X57476190Y-55196666D01*
X57476190Y-55196666D02*
X57380952Y-55149047D01*
X56904761Y-54910952D02*
X56904761Y-55577619D01*
X56904761Y-55006190D02*
X56857142Y-54958571D01*
X56857142Y-54958571D02*
X56761904Y-54910952D01*
X56761904Y-54910952D02*
X56619047Y-54910952D01*
X56619047Y-54910952D02*
X56523809Y-54958571D01*
X56523809Y-54958571D02*
X56476190Y-55053809D01*
X56476190Y-55053809D02*
X56476190Y-55577619D01*
X55285713Y-55530000D02*
X55142856Y-55577619D01*
X55142856Y-55577619D02*
X54904761Y-55577619D01*
X54904761Y-55577619D02*
X54809523Y-55530000D01*
X54809523Y-55530000D02*
X54761904Y-55482380D01*
X54761904Y-55482380D02*
X54714285Y-55387142D01*
X54714285Y-55387142D02*
X54714285Y-55291904D01*
X54714285Y-55291904D02*
X54761904Y-55196666D01*
X54761904Y-55196666D02*
X54809523Y-55149047D01*
X54809523Y-55149047D02*
X54904761Y-55101428D01*
X54904761Y-55101428D02*
X55095237Y-55053809D01*
X55095237Y-55053809D02*
X55190475Y-55006190D01*
X55190475Y-55006190D02*
X55238094Y-54958571D01*
X55238094Y-54958571D02*
X55285713Y-54863333D01*
X55285713Y-54863333D02*
X55285713Y-54768095D01*
X55285713Y-54768095D02*
X55238094Y-54672857D01*
X55238094Y-54672857D02*
X55190475Y-54625238D01*
X55190475Y-54625238D02*
X55095237Y-54577619D01*
X55095237Y-54577619D02*
X54857142Y-54577619D01*
X54857142Y-54577619D02*
X54714285Y-54625238D01*
X54285713Y-55577619D02*
X54285713Y-54577619D01*
X53857142Y-55577619D02*
X53857142Y-55053809D01*
X53857142Y-55053809D02*
X53904761Y-54958571D01*
X53904761Y-54958571D02*
X53999999Y-54910952D01*
X53999999Y-54910952D02*
X54142856Y-54910952D01*
X54142856Y-54910952D02*
X54238094Y-54958571D01*
X54238094Y-54958571D02*
X54285713Y-55006190D01*
X52952380Y-55577619D02*
X52952380Y-55053809D01*
X52952380Y-55053809D02*
X52999999Y-54958571D01*
X52999999Y-54958571D02*
X53095237Y-54910952D01*
X53095237Y-54910952D02*
X53285713Y-54910952D01*
X53285713Y-54910952D02*
X53380951Y-54958571D01*
X52952380Y-55530000D02*
X53047618Y-55577619D01*
X53047618Y-55577619D02*
X53285713Y-55577619D01*
X53285713Y-55577619D02*
X53380951Y-55530000D01*
X53380951Y-55530000D02*
X53428570Y-55434761D01*
X53428570Y-55434761D02*
X53428570Y-55339523D01*
X53428570Y-55339523D02*
X53380951Y-55244285D01*
X53380951Y-55244285D02*
X53285713Y-55196666D01*
X53285713Y-55196666D02*
X53047618Y-55196666D01*
X53047618Y-55196666D02*
X52952380Y-55149047D01*
X52476189Y-54910952D02*
X52476189Y-55577619D01*
X52476189Y-55006190D02*
X52428570Y-54958571D01*
X52428570Y-54958571D02*
X52333332Y-54910952D01*
X52333332Y-54910952D02*
X52190475Y-54910952D01*
X52190475Y-54910952D02*
X52095237Y-54958571D01*
X52095237Y-54958571D02*
X52047618Y-55053809D01*
X52047618Y-55053809D02*
X52047618Y-55577619D01*
X51428570Y-55577619D02*
X51523808Y-55530000D01*
X51523808Y-55530000D02*
X51571427Y-55434761D01*
X51571427Y-55434761D02*
X51571427Y-54577619D01*
X50666665Y-55530000D02*
X50761903Y-55577619D01*
X50761903Y-55577619D02*
X50952379Y-55577619D01*
X50952379Y-55577619D02*
X51047617Y-55530000D01*
X51047617Y-55530000D02*
X51095236Y-55434761D01*
X51095236Y-55434761D02*
X51095236Y-55053809D01*
X51095236Y-55053809D02*
X51047617Y-54958571D01*
X51047617Y-54958571D02*
X50952379Y-54910952D01*
X50952379Y-54910952D02*
X50761903Y-54910952D01*
X50761903Y-54910952D02*
X50666665Y-54958571D01*
X50666665Y-54958571D02*
X50619046Y-55053809D01*
X50619046Y-55053809D02*
X50619046Y-55149047D01*
X50619046Y-55149047D02*
X51095236Y-55244285D01*
X50285712Y-54910952D02*
X50047617Y-55577619D01*
X49809522Y-54910952D02*
X50047617Y-55577619D01*
X50047617Y-55577619D02*
X50142855Y-55815714D01*
X50142855Y-55815714D02*
X50190474Y-55863333D01*
X50190474Y-55863333D02*
X50285712Y-55910952D01*
D11*
X36787526Y-36160237D02*
X35517526Y-36160237D01*
X36666573Y-37490714D02*
X36727050Y-37430238D01*
X36727050Y-37430238D02*
X36787526Y-37248809D01*
X36787526Y-37248809D02*
X36787526Y-37127857D01*
X36787526Y-37127857D02*
X36727050Y-36946428D01*
X36727050Y-36946428D02*
X36606097Y-36825476D01*
X36606097Y-36825476D02*
X36485145Y-36764999D01*
X36485145Y-36764999D02*
X36243240Y-36704523D01*
X36243240Y-36704523D02*
X36061811Y-36704523D01*
X36061811Y-36704523D02*
X35819907Y-36764999D01*
X35819907Y-36764999D02*
X35698954Y-36825476D01*
X35698954Y-36825476D02*
X35578002Y-36946428D01*
X35578002Y-36946428D02*
X35517526Y-37127857D01*
X35517526Y-37127857D02*
X35517526Y-37248809D01*
X35517526Y-37248809D02*
X35578002Y-37430238D01*
X35578002Y-37430238D02*
X35638478Y-37490714D01*
X35517526Y-38579285D02*
X35517526Y-38337380D01*
X35517526Y-38337380D02*
X35578002Y-38216428D01*
X35578002Y-38216428D02*
X35638478Y-38155952D01*
X35638478Y-38155952D02*
X35819907Y-38034999D01*
X35819907Y-38034999D02*
X36061811Y-37974523D01*
X36061811Y-37974523D02*
X36545621Y-37974523D01*
X36545621Y-37974523D02*
X36666573Y-38034999D01*
X36666573Y-38034999D02*
X36727050Y-38095476D01*
X36727050Y-38095476D02*
X36787526Y-38216428D01*
X36787526Y-38216428D02*
X36787526Y-38458333D01*
X36787526Y-38458333D02*
X36727050Y-38579285D01*
X36727050Y-38579285D02*
X36666573Y-38639761D01*
X36666573Y-38639761D02*
X36545621Y-38700238D01*
X36545621Y-38700238D02*
X36243240Y-38700238D01*
X36243240Y-38700238D02*
X36122288Y-38639761D01*
X36122288Y-38639761D02*
X36061811Y-38579285D01*
X36061811Y-38579285D02*
X36001335Y-38458333D01*
X36001335Y-38458333D02*
X36001335Y-38216428D01*
X36001335Y-38216428D02*
X36061811Y-38095476D01*
X36061811Y-38095476D02*
X36122288Y-38034999D01*
X36122288Y-38034999D02*
X36243240Y-37974523D01*
X45987526Y-27660237D02*
X44717526Y-27660237D01*
X45866573Y-28990714D02*
X45927050Y-28930238D01*
X45927050Y-28930238D02*
X45987526Y-28748809D01*
X45987526Y-28748809D02*
X45987526Y-28627857D01*
X45987526Y-28627857D02*
X45927050Y-28446428D01*
X45927050Y-28446428D02*
X45806097Y-28325476D01*
X45806097Y-28325476D02*
X45685145Y-28264999D01*
X45685145Y-28264999D02*
X45443240Y-28204523D01*
X45443240Y-28204523D02*
X45261811Y-28204523D01*
X45261811Y-28204523D02*
X45019907Y-28264999D01*
X45019907Y-28264999D02*
X44898954Y-28325476D01*
X44898954Y-28325476D02*
X44778002Y-28446428D01*
X44778002Y-28446428D02*
X44717526Y-28627857D01*
X44717526Y-28627857D02*
X44717526Y-28748809D01*
X44717526Y-28748809D02*
X44778002Y-28930238D01*
X44778002Y-28930238D02*
X44838478Y-28990714D01*
X44717526Y-30139761D02*
X44717526Y-29534999D01*
X44717526Y-29534999D02*
X45322288Y-29474523D01*
X45322288Y-29474523D02*
X45261811Y-29534999D01*
X45261811Y-29534999D02*
X45201335Y-29655952D01*
X45201335Y-29655952D02*
X45201335Y-29958333D01*
X45201335Y-29958333D02*
X45261811Y-30079285D01*
X45261811Y-30079285D02*
X45322288Y-30139761D01*
X45322288Y-30139761D02*
X45443240Y-30200238D01*
X45443240Y-30200238D02*
X45745621Y-30200238D01*
X45745621Y-30200238D02*
X45866573Y-30139761D01*
X45866573Y-30139761D02*
X45927050Y-30079285D01*
X45927050Y-30079285D02*
X45987526Y-29958333D01*
X45987526Y-29958333D02*
X45987526Y-29655952D01*
X45987526Y-29655952D02*
X45927050Y-29534999D01*
X45927050Y-29534999D02*
X45866573Y-29474523D01*
X38887526Y-27660237D02*
X37617526Y-27660237D01*
X38766573Y-28990714D02*
X38827050Y-28930238D01*
X38827050Y-28930238D02*
X38887526Y-28748809D01*
X38887526Y-28748809D02*
X38887526Y-28627857D01*
X38887526Y-28627857D02*
X38827050Y-28446428D01*
X38827050Y-28446428D02*
X38706097Y-28325476D01*
X38706097Y-28325476D02*
X38585145Y-28264999D01*
X38585145Y-28264999D02*
X38343240Y-28204523D01*
X38343240Y-28204523D02*
X38161811Y-28204523D01*
X38161811Y-28204523D02*
X37919907Y-28264999D01*
X37919907Y-28264999D02*
X37798954Y-28325476D01*
X37798954Y-28325476D02*
X37678002Y-28446428D01*
X37678002Y-28446428D02*
X37617526Y-28627857D01*
X37617526Y-28627857D02*
X37617526Y-28748809D01*
X37617526Y-28748809D02*
X37678002Y-28930238D01*
X37678002Y-28930238D02*
X37738478Y-28990714D01*
X37617526Y-29414047D02*
X37617526Y-30260714D01*
X37617526Y-30260714D02*
X38887526Y-29716428D01*
D10*
X54362619Y-25020833D02*
X54362619Y-24544643D01*
X54362619Y-24544643D02*
X53362619Y-24544643D01*
X54362619Y-25877976D02*
X54362619Y-25306548D01*
X54362619Y-25592262D02*
X53362619Y-25592262D01*
X53362619Y-25592262D02*
X53505476Y-25497024D01*
X53505476Y-25497024D02*
X53600714Y-25401786D01*
X53600714Y-25401786D02*
X53648333Y-25306548D01*
X31133333Y-29562619D02*
X31133333Y-30276904D01*
X31133333Y-30276904D02*
X31180952Y-30419761D01*
X31180952Y-30419761D02*
X31276190Y-30515000D01*
X31276190Y-30515000D02*
X31419047Y-30562619D01*
X31419047Y-30562619D02*
X31514285Y-30562619D01*
X30180952Y-29562619D02*
X30657142Y-29562619D01*
X30657142Y-29562619D02*
X30704761Y-30038809D01*
X30704761Y-30038809D02*
X30657142Y-29991190D01*
X30657142Y-29991190D02*
X30561904Y-29943571D01*
X30561904Y-29943571D02*
X30323809Y-29943571D01*
X30323809Y-29943571D02*
X30228571Y-29991190D01*
X30228571Y-29991190D02*
X30180952Y-30038809D01*
X30180952Y-30038809D02*
X30133333Y-30134047D01*
X30133333Y-30134047D02*
X30133333Y-30372142D01*
X30133333Y-30372142D02*
X30180952Y-30467380D01*
X30180952Y-30467380D02*
X30228571Y-30515000D01*
X30228571Y-30515000D02*
X30323809Y-30562619D01*
X30323809Y-30562619D02*
X30561904Y-30562619D01*
X30561904Y-30562619D02*
X30657142Y-30515000D01*
X30657142Y-30515000D02*
X30704761Y-30467380D01*
D11*
X59717526Y-40076667D02*
X60624669Y-40076667D01*
X60624669Y-40076667D02*
X60806097Y-40016190D01*
X60806097Y-40016190D02*
X60927050Y-39895238D01*
X60927050Y-39895238D02*
X60987526Y-39713809D01*
X60987526Y-39713809D02*
X60987526Y-39592857D01*
X60987526Y-41346667D02*
X60987526Y-40620952D01*
X60987526Y-40983809D02*
X59717526Y-40983809D01*
X59717526Y-40983809D02*
X59898954Y-40862857D01*
X59898954Y-40862857D02*
X60019907Y-40741905D01*
X60019907Y-40741905D02*
X60080383Y-40620952D01*
X46639762Y-46987526D02*
X46639762Y-45717526D01*
X45309285Y-46866573D02*
X45369761Y-46927050D01*
X45369761Y-46927050D02*
X45551190Y-46987526D01*
X45551190Y-46987526D02*
X45672142Y-46987526D01*
X45672142Y-46987526D02*
X45853571Y-46927050D01*
X45853571Y-46927050D02*
X45974523Y-46806097D01*
X45974523Y-46806097D02*
X46035000Y-46685145D01*
X46035000Y-46685145D02*
X46095476Y-46443240D01*
X46095476Y-46443240D02*
X46095476Y-46261811D01*
X46095476Y-46261811D02*
X46035000Y-46019907D01*
X46035000Y-46019907D02*
X45974523Y-45898954D01*
X45974523Y-45898954D02*
X45853571Y-45778002D01*
X45853571Y-45778002D02*
X45672142Y-45717526D01*
X45672142Y-45717526D02*
X45551190Y-45717526D01*
X45551190Y-45717526D02*
X45369761Y-45778002D01*
X45369761Y-45778002D02*
X45309285Y-45838478D01*
X44220714Y-46140859D02*
X44220714Y-46987526D01*
X44523095Y-45657050D02*
X44825476Y-46564192D01*
X44825476Y-46564192D02*
X44039285Y-46564192D01*
X52287526Y-36860237D02*
X51017526Y-36860237D01*
X52166573Y-38190714D02*
X52227050Y-38130238D01*
X52227050Y-38130238D02*
X52287526Y-37948809D01*
X52287526Y-37948809D02*
X52287526Y-37827857D01*
X52287526Y-37827857D02*
X52227050Y-37646428D01*
X52227050Y-37646428D02*
X52106097Y-37525476D01*
X52106097Y-37525476D02*
X51985145Y-37464999D01*
X51985145Y-37464999D02*
X51743240Y-37404523D01*
X51743240Y-37404523D02*
X51561811Y-37404523D01*
X51561811Y-37404523D02*
X51319907Y-37464999D01*
X51319907Y-37464999D02*
X51198954Y-37525476D01*
X51198954Y-37525476D02*
X51078002Y-37646428D01*
X51078002Y-37646428D02*
X51017526Y-37827857D01*
X51017526Y-37827857D02*
X51017526Y-37948809D01*
X51017526Y-37948809D02*
X51078002Y-38130238D01*
X51078002Y-38130238D02*
X51138478Y-38190714D01*
X52287526Y-39400238D02*
X52287526Y-38674523D01*
X52287526Y-39037380D02*
X51017526Y-39037380D01*
X51017526Y-39037380D02*
X51198954Y-38916428D01*
X51198954Y-38916428D02*
X51319907Y-38795476D01*
X51319907Y-38795476D02*
X51380383Y-38674523D01*
D10*
X67233333Y-42462619D02*
X67233333Y-43176904D01*
X67233333Y-43176904D02*
X67280952Y-43319761D01*
X67280952Y-43319761D02*
X67376190Y-43415000D01*
X67376190Y-43415000D02*
X67519047Y-43462619D01*
X67519047Y-43462619D02*
X67614285Y-43462619D01*
X66614285Y-42891190D02*
X66709523Y-42843571D01*
X66709523Y-42843571D02*
X66757142Y-42795952D01*
X66757142Y-42795952D02*
X66804761Y-42700714D01*
X66804761Y-42700714D02*
X66804761Y-42653095D01*
X66804761Y-42653095D02*
X66757142Y-42557857D01*
X66757142Y-42557857D02*
X66709523Y-42510238D01*
X66709523Y-42510238D02*
X66614285Y-42462619D01*
X66614285Y-42462619D02*
X66423809Y-42462619D01*
X66423809Y-42462619D02*
X66328571Y-42510238D01*
X66328571Y-42510238D02*
X66280952Y-42557857D01*
X66280952Y-42557857D02*
X66233333Y-42653095D01*
X66233333Y-42653095D02*
X66233333Y-42700714D01*
X66233333Y-42700714D02*
X66280952Y-42795952D01*
X66280952Y-42795952D02*
X66328571Y-42843571D01*
X66328571Y-42843571D02*
X66423809Y-42891190D01*
X66423809Y-42891190D02*
X66614285Y-42891190D01*
X66614285Y-42891190D02*
X66709523Y-42938809D01*
X66709523Y-42938809D02*
X66757142Y-42986428D01*
X66757142Y-42986428D02*
X66804761Y-43081666D01*
X66804761Y-43081666D02*
X66804761Y-43272142D01*
X66804761Y-43272142D02*
X66757142Y-43367380D01*
X66757142Y-43367380D02*
X66709523Y-43415000D01*
X66709523Y-43415000D02*
X66614285Y-43462619D01*
X66614285Y-43462619D02*
X66423809Y-43462619D01*
X66423809Y-43462619D02*
X66328571Y-43415000D01*
X66328571Y-43415000D02*
X66280952Y-43367380D01*
X66280952Y-43367380D02*
X66233333Y-43272142D01*
X66233333Y-43272142D02*
X66233333Y-43081666D01*
X66233333Y-43081666D02*
X66280952Y-42986428D01*
X66280952Y-42986428D02*
X66328571Y-42938809D01*
X66328571Y-42938809D02*
X66423809Y-42891190D01*
D11*
X59801762Y-34862526D02*
X59801762Y-33592526D01*
X58471285Y-34741573D02*
X58531761Y-34802050D01*
X58531761Y-34802050D02*
X58713190Y-34862526D01*
X58713190Y-34862526D02*
X58834142Y-34862526D01*
X58834142Y-34862526D02*
X59015571Y-34802050D01*
X59015571Y-34802050D02*
X59136523Y-34681097D01*
X59136523Y-34681097D02*
X59197000Y-34560145D01*
X59197000Y-34560145D02*
X59257476Y-34318240D01*
X59257476Y-34318240D02*
X59257476Y-34136811D01*
X59257476Y-34136811D02*
X59197000Y-33894907D01*
X59197000Y-33894907D02*
X59136523Y-33773954D01*
X59136523Y-33773954D02*
X59015571Y-33653002D01*
X59015571Y-33653002D02*
X58834142Y-33592526D01*
X58834142Y-33592526D02*
X58713190Y-33592526D01*
X58713190Y-33592526D02*
X58531761Y-33653002D01*
X58531761Y-33653002D02*
X58471285Y-33713478D01*
X58047952Y-33592526D02*
X57261761Y-33592526D01*
X57261761Y-33592526D02*
X57685095Y-34076335D01*
X57685095Y-34076335D02*
X57503666Y-34076335D01*
X57503666Y-34076335D02*
X57382714Y-34136811D01*
X57382714Y-34136811D02*
X57322238Y-34197288D01*
X57322238Y-34197288D02*
X57261761Y-34318240D01*
X57261761Y-34318240D02*
X57261761Y-34620621D01*
X57261761Y-34620621D02*
X57322238Y-34741573D01*
X57322238Y-34741573D02*
X57382714Y-34802050D01*
X57382714Y-34802050D02*
X57503666Y-34862526D01*
X57503666Y-34862526D02*
X57866523Y-34862526D01*
X57866523Y-34862526D02*
X57987476Y-34802050D01*
X57987476Y-34802050D02*
X58047952Y-34741573D01*
D12*
X45080000Y-39046359D02*
X45080000Y-39353641D01*
X44320000Y-39046359D02*
X44320000Y-39353641D01*
D13*
X35080000Y-41800000D02*
X41080000Y-41800000D01*
X41080000Y-41800000D02*
X43080000Y-39800000D01*
X43080000Y-39800000D02*
X43080000Y-35800000D01*
X35080000Y-35800000D02*
X35080000Y-41800000D01*
X43080000Y-35800000D02*
X35080000Y-35800000D01*
X43180000Y-41800000D02*
G75*
G03*
X43180000Y-41800000I-100000J0D01*
G01*
D12*
X45840000Y-43712164D02*
X45840000Y-43927836D01*
X45120000Y-43712164D02*
X45120000Y-43927836D01*
X52746359Y-30820000D02*
X53053641Y-30820000D01*
X52746359Y-31580000D02*
X53053641Y-31580000D01*
X45230000Y-53546359D02*
X45230000Y-53853641D01*
X44470000Y-53546359D02*
X44470000Y-53853641D01*
X64453641Y-42680000D02*
X64146359Y-42680000D01*
X64453641Y-41920000D02*
X64146359Y-41920000D01*
X52746359Y-31920000D02*
X53053641Y-31920000D01*
X52746359Y-32680000D02*
X53053641Y-32680000D01*
X36470000Y-52047836D02*
X36470000Y-51832164D01*
X37190000Y-52047836D02*
X37190000Y-51832164D01*
D14*
X45875000Y-24525000D02*
G75*
G03*
X45875000Y-24525000I-125000J0D01*
G01*
D12*
X42326359Y-49340000D02*
X42633641Y-49340000D01*
X42326359Y-50100000D02*
X42633641Y-50100000D01*
D14*
X38870000Y-24525000D02*
G75*
G03*
X38870000Y-24525000I-125000J0D01*
G01*
D12*
X52736359Y-34120000D02*
X53043641Y-34120000D01*
X52736359Y-34880000D02*
X53043641Y-34880000D01*
X47856359Y-39720000D02*
X48163641Y-39720000D01*
X47856359Y-40480000D02*
X48163641Y-40480000D01*
X46872164Y-33840000D02*
X47087836Y-33840000D01*
X46872164Y-34560000D02*
X47087836Y-34560000D01*
D13*
X56478000Y-24548000D02*
X56478000Y-26050000D01*
X56478000Y-26050000D02*
X56930000Y-26502000D01*
X56930000Y-26502000D02*
X57732000Y-26502000D01*
X57732000Y-24548000D02*
X56478000Y-24548000D01*
X57732000Y-26502000D02*
X57732000Y-24548000D01*
X56578000Y-26502000D02*
G75*
G03*
X56578000Y-26502000I-100000J0D01*
G01*
D12*
X56690000Y-28234420D02*
X56690000Y-28515580D01*
X55670000Y-28234420D02*
X55670000Y-28515580D01*
X48620000Y-46587836D02*
X48620000Y-46372164D01*
X49340000Y-46587836D02*
X49340000Y-46372164D01*
X54890000Y-25350279D02*
X54890000Y-25024721D01*
X55910000Y-25350279D02*
X55910000Y-25024721D01*
X51920000Y-27653641D02*
X51920000Y-27346359D01*
X52680000Y-27653641D02*
X52680000Y-27346359D01*
X43326359Y-50440000D02*
X43633641Y-50440000D01*
X43326359Y-51200000D02*
X43633641Y-51200000D01*
D13*
X28440000Y-41395000D02*
X28760000Y-41395000D01*
X28440000Y-41395000D02*
X28440000Y-31005000D01*
X33420000Y-41395000D02*
X33100000Y-41395000D01*
X33420000Y-41395000D02*
X33420000Y-31005000D01*
X28440000Y-31005000D02*
X28760000Y-31005000D01*
X33420000Y-31005000D02*
X33100000Y-31005000D01*
X29760000Y-30405000D02*
G75*
G03*
X29760000Y-30405000I-100000J0D01*
G01*
D12*
X48240000Y-46372164D02*
X48240000Y-46587836D01*
X47520000Y-46372164D02*
X47520000Y-46587836D01*
D15*
X61590000Y-39340000D02*
X57240000Y-39340000D01*
X57240000Y-39340000D02*
X57240000Y-40600000D01*
X61590000Y-40600000D02*
X61590000Y-39340000D01*
X56415000Y-48700000D02*
X56415000Y-48700000D01*
X56315000Y-48700000D02*
X56315000Y-48700000D01*
X57240000Y-49200000D02*
X57240000Y-50880000D01*
X61590000Y-50880000D02*
X61590000Y-49200000D01*
X57240000Y-50880000D02*
X61590000Y-50880000D01*
X56315000Y-48700000D02*
G75*
G03*
X56415000Y-48700000I50000J0D01*
G01*
X56415000Y-48700000D02*
G75*
G03*
X56315000Y-48700000I-50000J0D01*
G01*
D12*
X38216359Y-49340000D02*
X38523641Y-49340000D01*
X38216359Y-50100000D02*
X38523641Y-50100000D01*
D13*
X50155000Y-41700000D02*
G75*
G03*
X50155000Y-41700000I-100000J0D01*
G01*
D12*
X44340000Y-37357836D02*
X44340000Y-37142164D01*
X45060000Y-37357836D02*
X45060000Y-37142164D01*
X46860000Y-40012164D02*
X46860000Y-40227836D01*
X46140000Y-40012164D02*
X46140000Y-40227836D01*
X58860000Y-24472164D02*
X58860000Y-24687836D01*
X58140000Y-24472164D02*
X58140000Y-24687836D01*
X39226359Y-50440000D02*
X39533641Y-50440000D01*
X39226359Y-51200000D02*
X39533641Y-51200000D01*
D14*
X50625000Y-36825000D02*
G75*
G03*
X50625000Y-36825000I-125000J0D01*
G01*
D12*
X34440000Y-38272164D02*
X34440000Y-38487836D01*
X33720000Y-38272164D02*
X33720000Y-38487836D01*
X39107836Y-34660000D02*
X38892164Y-34660000D01*
X39107836Y-33940000D02*
X38892164Y-33940000D01*
D14*
X37780000Y-51820000D02*
G75*
G03*
X37780000Y-51820000I-125000J0D01*
G01*
D12*
X50680000Y-34846359D02*
X50680000Y-35153641D01*
X49920000Y-34846359D02*
X49920000Y-35153641D01*
X41340000Y-53512164D02*
X41340000Y-53727836D01*
X40620000Y-53512164D02*
X40620000Y-53727836D01*
X64453641Y-43780000D02*
X64146359Y-43780000D01*
X64453641Y-43020000D02*
X64146359Y-43020000D01*
X41340000Y-51412164D02*
X41340000Y-51627836D01*
X40620000Y-51412164D02*
X40620000Y-51627836D01*
X52736359Y-33020000D02*
X53043641Y-33020000D01*
X52736359Y-33780000D02*
X53043641Y-33780000D01*
X50520000Y-41653641D02*
X50520000Y-41346359D01*
X51280000Y-41653641D02*
X51280000Y-41346359D01*
X37190000Y-53732164D02*
X37190000Y-53947836D01*
X36470000Y-53732164D02*
X36470000Y-53947836D01*
D14*
X41730000Y-51720000D02*
G75*
G03*
X41730000Y-51720000I-125000J0D01*
G01*
D12*
X33740000Y-36527836D02*
X33740000Y-36312164D01*
X34460000Y-36527836D02*
X34460000Y-36312164D01*
X51780000Y-34846359D02*
X51780000Y-35153641D01*
X51020000Y-34846359D02*
X51020000Y-35153641D01*
D13*
X67920000Y-31010000D02*
X67600000Y-31010000D01*
X67920000Y-31010000D02*
X67920000Y-41400000D01*
X62940000Y-31010000D02*
X63260000Y-31010000D01*
X62940000Y-31010000D02*
X62940000Y-41400000D01*
X67920000Y-41400000D02*
X67600000Y-41400000D01*
X62940000Y-41400000D02*
X63260000Y-41400000D01*
X66800000Y-42000000D02*
G75*
G03*
X66800000Y-42000000I-100000J0D01*
G01*
D12*
X59280000Y-27400000D02*
X57280000Y-27400000D01*
X57280000Y-27400000D02*
X57280000Y-30200000D01*
X59280000Y-30200000D02*
X59280000Y-27400000D01*
X57280000Y-30200000D02*
X59280000Y-30200000D01*
D13*
X54887000Y-37125000D02*
X56362000Y-37125000D01*
X56712000Y-31775000D02*
X56712000Y-36775000D01*
X56712000Y-36775000D02*
X60412000Y-36775000D01*
X60412000Y-31775000D02*
X56712000Y-31775000D01*
X60412000Y-36775000D02*
X60412000Y-31775000D01*
%LPC*%
D16*
X50060000Y-61400000D03*
D17*
X50060000Y-60130000D03*
X51330000Y-61400000D03*
X51330000Y-60130000D03*
X52600000Y-61400000D03*
X52600000Y-60130000D03*
X53870000Y-61400000D03*
X53870000Y-60130000D03*
X55140000Y-61400000D03*
X55140000Y-60130000D03*
X56410000Y-61400000D03*
X56410000Y-60130000D03*
X57680000Y-61400000D03*
X57680000Y-60130000D03*
D16*
X31050000Y-55200000D03*
D17*
X29780000Y-55200000D03*
X31050000Y-53930000D03*
X29780000Y-53930000D03*
X31050000Y-52660000D03*
X29780000Y-52660000D03*
X31050000Y-51390000D03*
X29780000Y-51390000D03*
X31050000Y-50120000D03*
X29780000Y-50120000D03*
X31050000Y-48850000D03*
X29780000Y-48850000D03*
X31050000Y-47580000D03*
X29780000Y-47580000D03*
X31050000Y-46310000D03*
X29780000Y-46310000D03*
D18*
X39990000Y-57285000D03*
X45770000Y-57285000D03*
D19*
X38560000Y-56785000D03*
D20*
X38560000Y-60965000D03*
D19*
X47200000Y-56785000D03*
D20*
X47200000Y-60965000D03*
D16*
X65310000Y-48850000D03*
D17*
X66580000Y-48850000D03*
X65310000Y-50120000D03*
X66580000Y-50120000D03*
X65310000Y-51390000D03*
X66580000Y-51390000D03*
X65310000Y-52660000D03*
X66580000Y-52660000D03*
X65310000Y-53930000D03*
X66580000Y-53930000D03*
X65310000Y-55200000D03*
X66580000Y-55200000D03*
D21*
X44700000Y-38690000D03*
X44700000Y-39710000D03*
D22*
X41080000Y-39800000D03*
X41080000Y-38800000D03*
X41080000Y-37800000D03*
X41080000Y-36800000D03*
X40080000Y-40800000D03*
X40080000Y-39800000D03*
X40080000Y-38800000D03*
X40080000Y-37800000D03*
X40080000Y-36800000D03*
X39080000Y-40800000D03*
X39080000Y-39800000D03*
X39080000Y-38800000D03*
X39080000Y-37800000D03*
X39080000Y-36800000D03*
X38080000Y-40800000D03*
X38080000Y-39800000D03*
X38080000Y-38800000D03*
X38080000Y-37800000D03*
X38080000Y-36800000D03*
X37080000Y-40800000D03*
X37080000Y-39800000D03*
X37080000Y-38800000D03*
X37080000Y-37800000D03*
X37080000Y-36800000D03*
D23*
X45480000Y-43340000D03*
X45480000Y-44300000D03*
D24*
X52390000Y-31200000D03*
X53410000Y-31200000D03*
D21*
X44850000Y-53190000D03*
X44850000Y-54210000D03*
D25*
X64810000Y-42300000D03*
X63790000Y-42300000D03*
D24*
X52390000Y-32300000D03*
X53410000Y-32300000D03*
D26*
X36830000Y-52420000D03*
X36830000Y-51460000D03*
D27*
X46475000Y-25000000D03*
X47745000Y-25000000D03*
X49015000Y-25000000D03*
X50285000Y-25000000D03*
X50285000Y-32800000D03*
X49015000Y-32800000D03*
X47745000Y-32800000D03*
X46475000Y-32800000D03*
D28*
X48380000Y-28900000D03*
D24*
X41970000Y-49720000D03*
X42990000Y-49720000D03*
D27*
X39470000Y-25000000D03*
X40740000Y-25000000D03*
X42010000Y-25000000D03*
X43280000Y-25000000D03*
X43280000Y-32800000D03*
X42010000Y-32800000D03*
X40740000Y-32800000D03*
X39470000Y-32800000D03*
D28*
X41375000Y-28900000D03*
D24*
X52380000Y-34500000D03*
X53400000Y-34500000D03*
X47500000Y-40100000D03*
X48520000Y-40100000D03*
D29*
X46500000Y-34200000D03*
X47460000Y-34200000D03*
D30*
X56930000Y-26050000D03*
X57280000Y-26050000D03*
X56930000Y-25700000D03*
X57280000Y-25700000D03*
X56930000Y-25350000D03*
X57280000Y-25350000D03*
X56930000Y-25000000D03*
X57280000Y-25000000D03*
D31*
X56180000Y-27600000D03*
X56180000Y-29150000D03*
D26*
X48980000Y-46960000D03*
X48980000Y-46000000D03*
D32*
X55400000Y-25975000D03*
X55400000Y-24400000D03*
D33*
X52300000Y-28010000D03*
X52300000Y-26990000D03*
D24*
X42970000Y-50820000D03*
X43990000Y-50820000D03*
D34*
X29660000Y-31755000D03*
D35*
X32200000Y-31755000D03*
X29660000Y-33025000D03*
X32200000Y-33025000D03*
X29660000Y-34295000D03*
X32200000Y-34295000D03*
X29660000Y-35565000D03*
X32200000Y-35565000D03*
X29660000Y-36835000D03*
X32200000Y-36835000D03*
X29660000Y-38105000D03*
X32200000Y-38105000D03*
X29660000Y-39375000D03*
X32200000Y-39375000D03*
X29660000Y-40645000D03*
X32200000Y-40645000D03*
D23*
X47880000Y-46000000D03*
X47880000Y-46960000D03*
D36*
X57080000Y-48700000D03*
X61750000Y-48700000D03*
X57080000Y-48300000D03*
X61750000Y-48300000D03*
X57080000Y-47900000D03*
X61750000Y-47900000D03*
X57080000Y-47500000D03*
X61750000Y-47500000D03*
X57080000Y-47100000D03*
X61750000Y-47100000D03*
X57080000Y-46700000D03*
X61750000Y-46700000D03*
X57080000Y-46300000D03*
X61750000Y-46300000D03*
X57080000Y-45900000D03*
X61750000Y-45900000D03*
X57080000Y-45500000D03*
X61750000Y-45500000D03*
X57080000Y-45100000D03*
X61750000Y-45100000D03*
X57080000Y-44700000D03*
X61750000Y-44700000D03*
X57080000Y-44300000D03*
X61750000Y-44300000D03*
X57080000Y-43900000D03*
X61750000Y-43900000D03*
X57080000Y-43500000D03*
X61750000Y-43500000D03*
X57080000Y-43100000D03*
X61750000Y-43100000D03*
X57080000Y-42700000D03*
X61750000Y-42700000D03*
X57080000Y-42300000D03*
X61750000Y-42300000D03*
X57080000Y-41900000D03*
X61750000Y-41900000D03*
X57080000Y-41500000D03*
X61750000Y-41500000D03*
X57080000Y-41100000D03*
X61750000Y-41100000D03*
D24*
X37860000Y-49720000D03*
X38880000Y-49720000D03*
D37*
X49680000Y-42300000D03*
X49680000Y-42700000D03*
X49680000Y-43100000D03*
X49680000Y-43500000D03*
X49680000Y-43900000D03*
X49680000Y-44300000D03*
D38*
X49180000Y-44800000D03*
X48780000Y-44800000D03*
X48380000Y-44800000D03*
X47980000Y-44800000D03*
X47580000Y-44800000D03*
X47180000Y-44800000D03*
D37*
X46680000Y-44300000D03*
X46680000Y-43900000D03*
X46680000Y-43500000D03*
X46680000Y-43100000D03*
X46680000Y-42700000D03*
X46680000Y-42300000D03*
D38*
X47180000Y-41800000D03*
X47580000Y-41800000D03*
X47980000Y-41800000D03*
X48380000Y-41800000D03*
X48780000Y-41800000D03*
X49180000Y-41800000D03*
D39*
X48180000Y-43300000D03*
D26*
X44700000Y-37730000D03*
X44700000Y-36770000D03*
D23*
X46500000Y-39640000D03*
X46500000Y-40600000D03*
X58500000Y-24100000D03*
X58500000Y-25060000D03*
D24*
X38870000Y-50820000D03*
X39890000Y-50820000D03*
D40*
X50200000Y-37500000D03*
X50200000Y-38150000D03*
X50200000Y-38800000D03*
X48100000Y-38800000D03*
X48100000Y-38150000D03*
X48100000Y-37500000D03*
D41*
X49150000Y-38150000D03*
D23*
X34080000Y-37900000D03*
X34080000Y-38860000D03*
D42*
X39480000Y-34300000D03*
X38520000Y-34300000D03*
D43*
X38330000Y-52120000D03*
X38980000Y-52120000D03*
X39630000Y-52120000D03*
X39630000Y-54220000D03*
X38980000Y-54220000D03*
X38330000Y-54220000D03*
D44*
X38980000Y-53170000D03*
D21*
X50300000Y-34490000D03*
X50300000Y-35510000D03*
D23*
X40980000Y-53140000D03*
X40980000Y-54100000D03*
D25*
X64810000Y-43400000D03*
X63790000Y-43400000D03*
D23*
X40980000Y-51040000D03*
X40980000Y-52000000D03*
D24*
X52380000Y-33400000D03*
X53400000Y-33400000D03*
D33*
X50900000Y-42010000D03*
X50900000Y-40990000D03*
D23*
X36830000Y-53360000D03*
X36830000Y-54320000D03*
D43*
X42280000Y-52020000D03*
X42930000Y-52020000D03*
X43580000Y-52020000D03*
X43580000Y-54120000D03*
X42930000Y-54120000D03*
X42280000Y-54120000D03*
D44*
X42930000Y-53070000D03*
D26*
X34100000Y-36900000D03*
X34100000Y-35940000D03*
D21*
X51400000Y-34490000D03*
X51400000Y-35510000D03*
D34*
X66700000Y-40650000D03*
D35*
X64160000Y-40650000D03*
X66700000Y-39380000D03*
X64160000Y-39380000D03*
X66700000Y-38110000D03*
X64160000Y-38110000D03*
X66700000Y-36840000D03*
X64160000Y-36840000D03*
X66700000Y-35570000D03*
X64160000Y-35570000D03*
X66700000Y-34300000D03*
X64160000Y-34300000D03*
X66700000Y-33030000D03*
X64160000Y-33030000D03*
X66700000Y-31760000D03*
X64160000Y-31760000D03*
D45*
X58280000Y-28150000D03*
X58280000Y-29450000D03*
D46*
X55624000Y-36550000D03*
X55624000Y-35900000D03*
X55624000Y-35250000D03*
X55624000Y-34600000D03*
X55624000Y-33950000D03*
X55624000Y-33300000D03*
X55624000Y-32650000D03*
X55624000Y-32000000D03*
X61500000Y-32000000D03*
X61500000Y-32650000D03*
X61500000Y-33300000D03*
X61500000Y-33950000D03*
X61500000Y-34600000D03*
X61500000Y-35250000D03*
X61500000Y-35900000D03*
X61500000Y-36550000D03*
%LPD*%
M02*
