%TF.GenerationSoftware,KiCad,Pcbnew,7.0.2*%
%TF.CreationDate,2023-07-30T22:12:35-04:00*%
%TF.ProjectId,CameraBoard,43616d65-7261-4426-9f61-72642e6b6963,rev?*%
%TF.SameCoordinates,Original*%
%TF.FileFunction,Copper,L3,Inr*%
%TF.FilePolarity,Positive*%
%FSLAX46Y46*%
G04 Gerber Fmt 4.6, Leading zero omitted, Abs format (unit mm)*
G04 Created by KiCad (PCBNEW 7.0.2) date 2023-07-30 22:12:35*
%MOMM*%
%LPD*%
G01*
G04 APERTURE LIST*
%TA.AperFunction,ViaPad*%
%ADD10C,0.450000*%
%TD*%
G04 APERTURE END LIST*
D10*
X56175500Y-104078994D03*
X37600000Y-92300000D03*
X43900000Y-106600000D03*
X33600000Y-99000000D03*
X61600000Y-114900000D03*
X53850000Y-108500000D03*
X48500000Y-85800000D03*
X38050000Y-97450000D03*
X42200000Y-102600000D03*
X47500000Y-90900000D03*
X36900000Y-95600000D03*
X40750000Y-87350000D03*
X35700000Y-96800000D03*
X36950000Y-108250000D03*
X46750000Y-99300000D03*
X37000000Y-104700000D03*
X46550000Y-112750000D03*
X43100000Y-100950000D03*
X38600000Y-112400000D03*
X35350000Y-90350000D03*
X53800000Y-83800000D03*
X48700000Y-93900000D03*
X38550000Y-110000000D03*
X42300000Y-111600000D03*
X43800000Y-108750000D03*
X32700000Y-80700000D03*
X40300000Y-106800000D03*
X33300000Y-94300000D03*
X55400000Y-90000000D03*
X39800000Y-101500000D03*
X42100000Y-97400000D03*
X42000000Y-85800000D03*
X28700000Y-113300000D03*
X39350000Y-89050000D03*
X35550000Y-100250000D03*
X35850000Y-87250000D03*
X36100000Y-109600000D03*
X35700000Y-94600000D03*
X31550000Y-104050000D03*
X41700000Y-83750000D03*
X44650000Y-103050000D03*
X53500000Y-111300000D03*
X55350000Y-84800000D03*
X61600000Y-83400000D03*
X46900000Y-93500000D03*
X47800000Y-103200000D03*
X57700000Y-93100000D03*
X45800000Y-96500000D03*
X31100000Y-90450000D03*
X33000000Y-116700000D03*
X35550000Y-101900000D03*
X53300000Y-88050000D03*
X44800000Y-107200000D03*
X48600000Y-83900000D03*
X57000000Y-116900000D03*
X57000000Y-80900000D03*
X39850000Y-83950000D03*
X34500000Y-84550000D03*
X54400000Y-94400000D03*
X52678853Y-97401000D03*
X48000000Y-100750000D03*
X55150000Y-109650000D03*
X54900000Y-112400000D03*
X55300000Y-106600000D03*
X51950000Y-85550000D03*
X31500000Y-106350000D03*
X38400000Y-103200000D03*
X52600000Y-98300000D03*
X37800000Y-107500000D03*
X58800000Y-108500000D03*
X34200000Y-106700000D03*
X31200000Y-87050000D03*
X40800000Y-95100000D03*
X28300000Y-83700000D03*
X42700000Y-99100000D03*
X31050000Y-94250000D03*
X52300000Y-110050000D03*
X44950000Y-85700000D03*
X42900000Y-85500000D03*
X53000000Y-91500000D03*
X44700000Y-96200000D03*
X39800000Y-100200000D03*
X35600000Y-106800000D03*
X56700000Y-102100000D03*
X53300000Y-85700000D03*
X58500000Y-95900000D03*
X46800000Y-85900000D03*
X44500000Y-89500000D03*
X48400000Y-96400000D03*
X48917492Y-92582508D03*
X55954001Y-98300000D03*
X46900000Y-96600000D03*
X51443263Y-93721047D03*
X48536217Y-105150500D03*
X58800000Y-99200000D03*
X38400000Y-102200000D03*
X38800000Y-96000000D03*
X42100000Y-88400000D03*
X57900000Y-95200000D03*
X39700000Y-96000000D03*
X39200000Y-102500000D03*
X42900000Y-88206095D03*
X48725144Y-98377397D03*
X45000000Y-88000000D03*
X46000000Y-87900000D03*
X48276804Y-97979409D03*
X47779436Y-97644702D03*
X43200000Y-90400000D03*
X56700000Y-100000000D03*
X36800000Y-86400000D03*
X53561348Y-95001841D03*
X48084482Y-107050500D03*
X48800000Y-107300000D03*
X53425593Y-93293532D03*
X49773646Y-105483663D03*
X54300000Y-93600000D03*
X53674317Y-94188161D03*
X49877677Y-106108497D03*
X52919274Y-94704497D03*
X49988950Y-106697582D03*
X52826853Y-95603497D03*
X50384757Y-107650931D03*
X48600000Y-87600000D03*
X55450500Y-101500000D03*
X50100981Y-108570397D03*
X49951045Y-109190099D03*
X47000000Y-88300000D03*
X49155260Y-109757418D03*
X49726958Y-110098002D03*
X50496456Y-110322177D03*
X51083744Y-110442573D03*
X48500000Y-88400000D03*
%TA.AperFunction,Conductor*%
G36*
X31003574Y-79688208D02*
G01*
X31339709Y-79705825D01*
X31352617Y-79707182D01*
X31682180Y-79759380D01*
X31694864Y-79762075D01*
X32017187Y-79848441D01*
X32029525Y-79852451D01*
X32341039Y-79972030D01*
X32352882Y-79977302D01*
X32650216Y-80128801D01*
X32661422Y-80135271D01*
X32941289Y-80317019D01*
X32951779Y-80324641D01*
X33211099Y-80534634D01*
X33220744Y-80543319D01*
X33456680Y-80779255D01*
X33465365Y-80788900D01*
X33675358Y-81048220D01*
X33682983Y-81058714D01*
X33864724Y-81338571D01*
X33871201Y-81349790D01*
X33903196Y-81412583D01*
X34022692Y-81647107D01*
X34027971Y-81658965D01*
X34147548Y-81970475D01*
X34151559Y-81982818D01*
X34237922Y-82305129D01*
X34240620Y-82317825D01*
X34292817Y-82647382D01*
X34294174Y-82660291D01*
X34309043Y-82944018D01*
X34307099Y-82961245D01*
X34311449Y-83008181D01*
X34311978Y-83019623D01*
X34311978Y-83047594D01*
X34312081Y-83047911D01*
X34317621Y-83074788D01*
X34318443Y-83083660D01*
X34329467Y-83105800D01*
X34336396Y-83122750D01*
X34341390Y-83138121D01*
X34341393Y-83138125D01*
X34348574Y-83148009D01*
X34359250Y-83165612D01*
X34368520Y-83184228D01*
X34368522Y-83184231D01*
X34378038Y-83192906D01*
X34394815Y-83211655D01*
X34397342Y-83215133D01*
X34416792Y-83229264D01*
X34427447Y-83237947D01*
X34451545Y-83259916D01*
X34452431Y-83260259D01*
X34469258Y-83269429D01*
X34474351Y-83271083D01*
X34474353Y-83271085D01*
X34508439Y-83282159D01*
X34514891Y-83284456D01*
X34556305Y-83300500D01*
X55300765Y-83300500D01*
X55300766Y-83300500D01*
X55319893Y-83294284D01*
X55335411Y-83290330D01*
X55363604Y-83285061D01*
X55367796Y-83282464D01*
X55389463Y-83272416D01*
X55391293Y-83271085D01*
X55391296Y-83271085D01*
X55417121Y-83252321D01*
X55424701Y-83247230D01*
X55459123Y-83225919D01*
X55459122Y-83225919D01*
X55461570Y-83224404D01*
X55494654Y-83178867D01*
X55494654Y-83178866D01*
X55526827Y-83136264D01*
X55540058Y-83089758D01*
X55541386Y-83085403D01*
X55556511Y-83038854D01*
X55557741Y-83030036D01*
X55557572Y-83028207D01*
X55554964Y-83000070D01*
X55554606Y-82982154D01*
X55571115Y-82667150D01*
X55572472Y-82654244D01*
X55603424Y-82458820D01*
X55623595Y-82331463D01*
X55626288Y-82318788D01*
X55710879Y-82003093D01*
X55714887Y-81990761D01*
X55720345Y-81976543D01*
X55832006Y-81685655D01*
X55837271Y-81673827D01*
X55985659Y-81382600D01*
X55992125Y-81371402D01*
X56170136Y-81097289D01*
X56177738Y-81086825D01*
X56383428Y-80832818D01*
X56392095Y-80823193D01*
X56623193Y-80592095D01*
X56632818Y-80583428D01*
X56886825Y-80377738D01*
X56897289Y-80370136D01*
X57171402Y-80192125D01*
X57182600Y-80185659D01*
X57473827Y-80037271D01*
X57485655Y-80032006D01*
X57790765Y-79914885D01*
X57803093Y-79910879D01*
X58118788Y-79826288D01*
X58131463Y-79823595D01*
X58454246Y-79772471D01*
X58467150Y-79771115D01*
X58794250Y-79753971D01*
X58806845Y-79753953D01*
X59138346Y-79770339D01*
X59151418Y-79771684D01*
X59478456Y-79822996D01*
X59491314Y-79825719D01*
X59811084Y-79911425D01*
X59823603Y-79915505D01*
X60132438Y-80034618D01*
X60144454Y-80040001D01*
X60438948Y-80191206D01*
X60450324Y-80197832D01*
X60727114Y-80379406D01*
X60737714Y-80387195D01*
X60993697Y-80597102D01*
X61003417Y-80605976D01*
X61235687Y-80841832D01*
X61244415Y-80851691D01*
X61450370Y-81110850D01*
X61458003Y-81121579D01*
X61635309Y-81401106D01*
X61641762Y-81412583D01*
X61788438Y-81709353D01*
X61793637Y-81721451D01*
X61908011Y-82032089D01*
X61911898Y-82044670D01*
X61992688Y-82365686D01*
X61995219Y-82378607D01*
X62041515Y-82706378D01*
X62042662Y-82719495D01*
X62053940Y-83050336D01*
X62053689Y-83063501D01*
X62029823Y-83393662D01*
X62028178Y-83406726D01*
X61969436Y-83732499D01*
X61966415Y-83745315D01*
X61873458Y-84063030D01*
X61869094Y-84075454D01*
X61742974Y-84381511D01*
X61737319Y-84393401D01*
X61694778Y-84471810D01*
X61579456Y-84684360D01*
X61572575Y-84695577D01*
X61384742Y-84968167D01*
X61376706Y-84978597D01*
X61161035Y-85229726D01*
X61151938Y-85239246D01*
X61017430Y-85365808D01*
X60955117Y-85397412D01*
X60932457Y-85399500D01*
X59639225Y-85399500D01*
X59572186Y-85379815D01*
X59526431Y-85327011D01*
X59516487Y-85257853D01*
X59545512Y-85194297D01*
X59599367Y-85158081D01*
X59643557Y-85143080D01*
X59682252Y-85129945D01*
X59952718Y-84996566D01*
X60203461Y-84829025D01*
X60430189Y-84630189D01*
X60629025Y-84403461D01*
X60796566Y-84152718D01*
X60929945Y-83882252D01*
X61026880Y-83596691D01*
X61085713Y-83300920D01*
X61105436Y-83000000D01*
X61085713Y-82699080D01*
X61026880Y-82403309D01*
X60929945Y-82117748D01*
X60796566Y-81847282D01*
X60629025Y-81596539D01*
X60430189Y-81369811D01*
X60399742Y-81343110D01*
X60206518Y-81173656D01*
X60203461Y-81170975D01*
X60113478Y-81110850D01*
X59956092Y-81005688D01*
X59956087Y-81005685D01*
X59952718Y-81003434D01*
X59949082Y-81001641D01*
X59949077Y-81001638D01*
X59685894Y-80871851D01*
X59685893Y-80871850D01*
X59682252Y-80870055D01*
X59628153Y-80851691D01*
X59443177Y-80788900D01*
X59396691Y-80773120D01*
X59392714Y-80772329D01*
X59392707Y-80772327D01*
X59104899Y-80715078D01*
X59104891Y-80715077D01*
X59100920Y-80714287D01*
X58800000Y-80694564D01*
X58795957Y-80694829D01*
X58503122Y-80714022D01*
X58503120Y-80714022D01*
X58499080Y-80714287D01*
X58495110Y-80715076D01*
X58495100Y-80715078D01*
X58207292Y-80772327D01*
X58207281Y-80772329D01*
X58203309Y-80773120D01*
X58199466Y-80774424D01*
X58199464Y-80774425D01*
X57921594Y-80868749D01*
X57921587Y-80868751D01*
X57917748Y-80870055D01*
X57914111Y-80871848D01*
X57914105Y-80871851D01*
X57650922Y-81001638D01*
X57650910Y-81001644D01*
X57647282Y-81003434D01*
X57643919Y-81005681D01*
X57643907Y-81005688D01*
X57399920Y-81168715D01*
X57399911Y-81168721D01*
X57396539Y-81170975D01*
X57393488Y-81173650D01*
X57393481Y-81173656D01*
X57172859Y-81367137D01*
X57172851Y-81367144D01*
X57169811Y-81369811D01*
X57167144Y-81372851D01*
X57167137Y-81372859D01*
X56973656Y-81593481D01*
X56973650Y-81593488D01*
X56970975Y-81596539D01*
X56968721Y-81599911D01*
X56968715Y-81599920D01*
X56805688Y-81843907D01*
X56805681Y-81843919D01*
X56803434Y-81847282D01*
X56801644Y-81850910D01*
X56801638Y-81850922D01*
X56671851Y-82114105D01*
X56671848Y-82114111D01*
X56670055Y-82117748D01*
X56668751Y-82121587D01*
X56668749Y-82121594D01*
X56574425Y-82399464D01*
X56573120Y-82403309D01*
X56572329Y-82407281D01*
X56572327Y-82407292D01*
X56515078Y-82695100D01*
X56515076Y-82695110D01*
X56514287Y-82699080D01*
X56514022Y-82703120D01*
X56514022Y-82703122D01*
X56512949Y-82719495D01*
X56494564Y-83000000D01*
X56494828Y-83004043D01*
X56494829Y-83004043D01*
X56511599Y-83259916D01*
X56514287Y-83300920D01*
X56515077Y-83304891D01*
X56515078Y-83304899D01*
X56572327Y-83592707D01*
X56572329Y-83592714D01*
X56573120Y-83596691D01*
X56670055Y-83882252D01*
X56671850Y-83885893D01*
X56671851Y-83885894D01*
X56765331Y-84075454D01*
X56803434Y-84152718D01*
X56805685Y-84156087D01*
X56805688Y-84156092D01*
X56948218Y-84369403D01*
X56970975Y-84403461D01*
X57169811Y-84630189D01*
X57396539Y-84829025D01*
X57647282Y-84996566D01*
X57917748Y-85129945D01*
X58203309Y-85226880D01*
X58499080Y-85285713D01*
X58800000Y-85305436D01*
X59100920Y-85285713D01*
X59176187Y-85270741D01*
X59245776Y-85276968D01*
X59300954Y-85319830D01*
X59324199Y-85385720D01*
X59308132Y-85453717D01*
X59299330Y-85467086D01*
X59272026Y-85503241D01*
X59264712Y-85512049D01*
X59238853Y-85540415D01*
X59226844Y-85561975D01*
X59216343Y-85598884D01*
X59212704Y-85609741D01*
X59198836Y-85645537D01*
X59195429Y-85669968D01*
X59198970Y-85708183D01*
X59199499Y-85719623D01*
X59199499Y-98723654D01*
X59179814Y-98790693D01*
X59127010Y-98836448D01*
X59057852Y-98846392D01*
X59019205Y-98834139D01*
X58933126Y-98790280D01*
X58800000Y-98769195D01*
X58666875Y-98790280D01*
X58546778Y-98851472D01*
X58451472Y-98946778D01*
X58390280Y-99066875D01*
X58369195Y-99200000D01*
X58390280Y-99333124D01*
X58451472Y-99453221D01*
X58546778Y-99548527D01*
X58546780Y-99548528D01*
X58666874Y-99609719D01*
X58800000Y-99630804D01*
X58933126Y-99609719D01*
X59019204Y-99565859D01*
X59087873Y-99552964D01*
X59152614Y-99579240D01*
X59192871Y-99636347D01*
X59199499Y-99676345D01*
X59199499Y-111540784D01*
X59195429Y-111569962D01*
X59198971Y-111608181D01*
X59199500Y-111619623D01*
X59199500Y-111627847D01*
X59201011Y-111635935D01*
X59202591Y-111647262D01*
X59206133Y-111685481D01*
X59213975Y-111708876D01*
X59234178Y-111741505D01*
X59239741Y-111751492D01*
X59256042Y-111784228D01*
X59256862Y-111785874D01*
X59272618Y-111804848D01*
X59303247Y-111827977D01*
X59312062Y-111835297D01*
X59340421Y-111861150D01*
X59361971Y-111873154D01*
X59398887Y-111883657D01*
X59409750Y-111887298D01*
X59445538Y-111901163D01*
X59469966Y-111904570D01*
X59471792Y-111904400D01*
X59471793Y-111904401D01*
X59502110Y-111901591D01*
X59508182Y-111901029D01*
X59519624Y-111900500D01*
X60288399Y-111900500D01*
X60349810Y-111916775D01*
X60503817Y-112004570D01*
X60569750Y-112042156D01*
X60581096Y-112049469D01*
X60680200Y-112121283D01*
X60859109Y-112250924D01*
X60869594Y-112259429D01*
X60988701Y-112367315D01*
X61124057Y-112489918D01*
X61133555Y-112499513D01*
X61333926Y-112725291D01*
X61361448Y-112756302D01*
X61369846Y-112766873D01*
X61516508Y-112973656D01*
X61568466Y-113046912D01*
X61575664Y-113058331D01*
X61678224Y-113242562D01*
X61742660Y-113358310D01*
X61748572Y-113370440D01*
X61881971Y-113686817D01*
X61886528Y-113699517D01*
X61984728Y-114028495D01*
X61987880Y-114041624D01*
X62049731Y-114379333D01*
X62051437Y-114392727D01*
X62076204Y-114735165D01*
X62076443Y-114748665D01*
X62063831Y-115091758D01*
X62062601Y-115105204D01*
X62012761Y-115444887D01*
X62010077Y-115458120D01*
X61923597Y-115790380D01*
X61919490Y-115803242D01*
X61797396Y-116124135D01*
X61791914Y-116136475D01*
X61635663Y-116442171D01*
X61628873Y-116453841D01*
X61440295Y-116740762D01*
X61432275Y-116751625D01*
X61213641Y-117016314D01*
X61204489Y-117026240D01*
X60958351Y-117265611D01*
X60948173Y-117274483D01*
X60677486Y-117485658D01*
X60666404Y-117493372D01*
X60374343Y-117673876D01*
X60362488Y-117680338D01*
X60052552Y-117828008D01*
X60040064Y-117833144D01*
X59715895Y-117946244D01*
X59702923Y-117949991D01*
X59368390Y-118027173D01*
X59355088Y-118029488D01*
X59014131Y-118069841D01*
X59000656Y-118070695D01*
X58657354Y-118073739D01*
X58643866Y-118073124D01*
X58302245Y-118038820D01*
X58288904Y-118036741D01*
X57953052Y-117965501D01*
X57940016Y-117961984D01*
X57613905Y-117854651D01*
X57601328Y-117849738D01*
X57288815Y-117707583D01*
X57276847Y-117701332D01*
X56981635Y-117526035D01*
X56970418Y-117518519D01*
X56937925Y-117494084D01*
X56696024Y-117312171D01*
X56685693Y-117303483D01*
X56435349Y-117068513D01*
X56426033Y-117058761D01*
X56202724Y-116797969D01*
X56194522Y-116787262D01*
X56000890Y-116503732D01*
X55993894Y-116492184D01*
X55841435Y-116206518D01*
X55832241Y-116189290D01*
X55826549Y-116177068D01*
X55734596Y-115947711D01*
X55698783Y-115858381D01*
X55694449Y-115845594D01*
X55648828Y-115682252D01*
X55602093Y-115514923D01*
X55599176Y-115501746D01*
X55543318Y-115162975D01*
X55541853Y-115149583D01*
X55525840Y-114855902D01*
X55527711Y-114839189D01*
X55524079Y-114800000D01*
X56494564Y-114800000D01*
X56494828Y-114804043D01*
X56494829Y-114804043D01*
X56513686Y-115091758D01*
X56514287Y-115100920D01*
X56515077Y-115104891D01*
X56515078Y-115104899D01*
X56572327Y-115392707D01*
X56572329Y-115392714D01*
X56573120Y-115396691D01*
X56670055Y-115682252D01*
X56671850Y-115685893D01*
X56671851Y-115685894D01*
X56758575Y-115861754D01*
X56803434Y-115952718D01*
X56805685Y-115956087D01*
X56805688Y-115956092D01*
X56957525Y-116183332D01*
X56970975Y-116203461D01*
X57169811Y-116430189D01*
X57396539Y-116629025D01*
X57399921Y-116631284D01*
X57399920Y-116631284D01*
X57633348Y-116787256D01*
X57647282Y-116796566D01*
X57917748Y-116929945D01*
X58203309Y-117026880D01*
X58499080Y-117085713D01*
X58800000Y-117105436D01*
X59100920Y-117085713D01*
X59396691Y-117026880D01*
X59682252Y-116929945D01*
X59952718Y-116796566D01*
X60203461Y-116629025D01*
X60430189Y-116430189D01*
X60629025Y-116203461D01*
X60796566Y-115952718D01*
X60929945Y-115682252D01*
X61026880Y-115396691D01*
X61085713Y-115100920D01*
X61105436Y-114800000D01*
X61104525Y-114786108D01*
X61103587Y-114771793D01*
X61085713Y-114499080D01*
X61026880Y-114203309D01*
X60929945Y-113917748D01*
X60796566Y-113647282D01*
X60629025Y-113396539D01*
X60430189Y-113169811D01*
X60399742Y-113143110D01*
X60206518Y-112973656D01*
X60203461Y-112970975D01*
X60068234Y-112880619D01*
X59956092Y-112805688D01*
X59956087Y-112805685D01*
X59952718Y-112803434D01*
X59949082Y-112801641D01*
X59949077Y-112801638D01*
X59685894Y-112671851D01*
X59685893Y-112671850D01*
X59682252Y-112670055D01*
X59396691Y-112573120D01*
X59392714Y-112572329D01*
X59392707Y-112572327D01*
X59104899Y-112515078D01*
X59104891Y-112515077D01*
X59100920Y-112514287D01*
X58800000Y-112494564D01*
X58795957Y-112494829D01*
X58503122Y-112514022D01*
X58503120Y-112514022D01*
X58499080Y-112514287D01*
X58495110Y-112515076D01*
X58495100Y-112515078D01*
X58207292Y-112572327D01*
X58207281Y-112572329D01*
X58203309Y-112573120D01*
X58199466Y-112574424D01*
X58199464Y-112574425D01*
X57921594Y-112668749D01*
X57921587Y-112668751D01*
X57917748Y-112670055D01*
X57914111Y-112671848D01*
X57914105Y-112671851D01*
X57650922Y-112801638D01*
X57650910Y-112801644D01*
X57647282Y-112803434D01*
X57643919Y-112805681D01*
X57643907Y-112805688D01*
X57399920Y-112968715D01*
X57399911Y-112968721D01*
X57396539Y-112970975D01*
X57393488Y-112973650D01*
X57393481Y-112973656D01*
X57172859Y-113167137D01*
X57172851Y-113167144D01*
X57169811Y-113169811D01*
X57167144Y-113172851D01*
X57167137Y-113172859D01*
X56973656Y-113393481D01*
X56973650Y-113393488D01*
X56970975Y-113396539D01*
X56968721Y-113399911D01*
X56968715Y-113399920D01*
X56805688Y-113643907D01*
X56805681Y-113643919D01*
X56803434Y-113647282D01*
X56801644Y-113650910D01*
X56801638Y-113650922D01*
X56671851Y-113914105D01*
X56671848Y-113914111D01*
X56670055Y-113917748D01*
X56668751Y-113921587D01*
X56668749Y-113921594D01*
X56592344Y-114146677D01*
X56573120Y-114203309D01*
X56572329Y-114207281D01*
X56572327Y-114207292D01*
X56515078Y-114495100D01*
X56515076Y-114495110D01*
X56514287Y-114499080D01*
X56514022Y-114503120D01*
X56514022Y-114503122D01*
X56495100Y-114791817D01*
X56494564Y-114800000D01*
X55524079Y-114800000D01*
X55523321Y-114791817D01*
X55522792Y-114780375D01*
X55522792Y-114752405D01*
X55522690Y-114752092D01*
X55517148Y-114725211D01*
X55516327Y-114716340D01*
X55505304Y-114694203D01*
X55498372Y-114677248D01*
X55493377Y-114661875D01*
X55486199Y-114651996D01*
X55475514Y-114634377D01*
X55466251Y-114615774D01*
X55466250Y-114615773D01*
X55466250Y-114615772D01*
X55456727Y-114607091D01*
X55439951Y-114588341D01*
X55437427Y-114584867D01*
X55435126Y-114583195D01*
X55417971Y-114570731D01*
X55407337Y-114562066D01*
X55383225Y-114540084D01*
X55383224Y-114540083D01*
X55382589Y-114539837D01*
X55382337Y-114539740D01*
X55365511Y-114530570D01*
X55326338Y-114517842D01*
X55319864Y-114515538D01*
X55287814Y-114503122D01*
X55278465Y-114499500D01*
X34583128Y-114499500D01*
X34487938Y-114499500D01*
X34487937Y-114499500D01*
X34468810Y-114505714D01*
X34453283Y-114509670D01*
X34425098Y-114514939D01*
X34420899Y-114517539D01*
X34399233Y-114527588D01*
X34371594Y-114547668D01*
X34363994Y-114552772D01*
X34327133Y-114575596D01*
X34294047Y-114621133D01*
X34261875Y-114663736D01*
X34248652Y-114710208D01*
X34247320Y-114714584D01*
X34232192Y-114761148D01*
X34230962Y-114769966D01*
X34233719Y-114799724D01*
X34234067Y-114817852D01*
X34216556Y-115141913D01*
X34215114Y-115155216D01*
X34160982Y-115486535D01*
X34158115Y-115499606D01*
X34068595Y-115823163D01*
X34064336Y-115835849D01*
X33940472Y-116147873D01*
X33934871Y-116160026D01*
X33778105Y-116456886D01*
X33771227Y-116468365D01*
X33583380Y-116746609D01*
X33575305Y-116757279D01*
X33358576Y-117013652D01*
X33349398Y-117023391D01*
X33106294Y-117254927D01*
X33096120Y-117263619D01*
X32829496Y-117467598D01*
X32818445Y-117475144D01*
X32531383Y-117649211D01*
X32519583Y-117655522D01*
X32215429Y-117797645D01*
X32203017Y-117802647D01*
X31885334Y-117911161D01*
X31872456Y-117914797D01*
X31544922Y-117988448D01*
X31531727Y-117990675D01*
X31198163Y-118028603D01*
X31184804Y-118029395D01*
X30849097Y-118031156D01*
X30835732Y-118030504D01*
X30501795Y-117996081D01*
X30488577Y-117993993D01*
X30160279Y-117923782D01*
X30147383Y-117920287D01*
X29828540Y-117815101D01*
X29816100Y-117810237D01*
X29523919Y-117677428D01*
X29510475Y-117671317D01*
X29498610Y-117665131D01*
X29209732Y-117494084D01*
X29198602Y-117486654D01*
X28929853Y-117285484D01*
X28919588Y-117276899D01*
X28735732Y-117105436D01*
X28674066Y-117047927D01*
X28664789Y-117038288D01*
X28654385Y-117026240D01*
X28445376Y-116784199D01*
X28437190Y-116773614D01*
X28418543Y-116746609D01*
X28246434Y-116497357D01*
X28239444Y-116485965D01*
X28079566Y-116190758D01*
X28073838Y-116178666D01*
X28063788Y-116154103D01*
X27946698Y-115867941D01*
X27942317Y-115855333D01*
X27849397Y-115532701D01*
X27846398Y-115519683D01*
X27845570Y-115514929D01*
X27788787Y-115188923D01*
X27787209Y-115175667D01*
X27765576Y-114840645D01*
X27765436Y-114827265D01*
X27766447Y-114804043D01*
X27766623Y-114800000D01*
X28694564Y-114800000D01*
X28694829Y-114804043D01*
X28713686Y-115091758D01*
X28714287Y-115100920D01*
X28715077Y-115104891D01*
X28715078Y-115104899D01*
X28772327Y-115392707D01*
X28772329Y-115392714D01*
X28773120Y-115396691D01*
X28870055Y-115682252D01*
X28871850Y-115685893D01*
X28871851Y-115685894D01*
X28958575Y-115861754D01*
X29003434Y-115952718D01*
X29005685Y-115956087D01*
X29005688Y-115956092D01*
X29157525Y-116183332D01*
X29170975Y-116203461D01*
X29369811Y-116430189D01*
X29596539Y-116629025D01*
X29599921Y-116631284D01*
X29599920Y-116631284D01*
X29833348Y-116787256D01*
X29847282Y-116796566D01*
X30117748Y-116929945D01*
X30403309Y-117026880D01*
X30699080Y-117085713D01*
X31000000Y-117105436D01*
X31300920Y-117085713D01*
X31596691Y-117026880D01*
X31882252Y-116929945D01*
X32152718Y-116796566D01*
X32403461Y-116629025D01*
X32630189Y-116430189D01*
X32829025Y-116203461D01*
X32996566Y-115952718D01*
X33129945Y-115682252D01*
X33226880Y-115396691D01*
X33285713Y-115100920D01*
X33305436Y-114800000D01*
X33304525Y-114786108D01*
X33303587Y-114771793D01*
X33285713Y-114499080D01*
X33226880Y-114203309D01*
X33129945Y-113917748D01*
X32996566Y-113647282D01*
X32829025Y-113396539D01*
X32630189Y-113169811D01*
X32599742Y-113143110D01*
X32406518Y-112973656D01*
X32403461Y-112970975D01*
X32268234Y-112880619D01*
X32156092Y-112805688D01*
X32156087Y-112805685D01*
X32152718Y-112803434D01*
X32149082Y-112801641D01*
X32149077Y-112801638D01*
X31885894Y-112671851D01*
X31885893Y-112671850D01*
X31882252Y-112670055D01*
X31596691Y-112573120D01*
X31592714Y-112572329D01*
X31592707Y-112572327D01*
X31304899Y-112515078D01*
X31304891Y-112515077D01*
X31300920Y-112514287D01*
X31000000Y-112494564D01*
X30995957Y-112494829D01*
X30703122Y-112514022D01*
X30703120Y-112514022D01*
X30699080Y-112514287D01*
X30695110Y-112515076D01*
X30695100Y-112515078D01*
X30407292Y-112572327D01*
X30407281Y-112572329D01*
X30403309Y-112573120D01*
X30399466Y-112574424D01*
X30399464Y-112574425D01*
X30121594Y-112668749D01*
X30121587Y-112668751D01*
X30117748Y-112670055D01*
X30114111Y-112671848D01*
X30114105Y-112671851D01*
X29850922Y-112801638D01*
X29850910Y-112801644D01*
X29847282Y-112803434D01*
X29843919Y-112805681D01*
X29843907Y-112805688D01*
X29599920Y-112968715D01*
X29599911Y-112968721D01*
X29596539Y-112970975D01*
X29593488Y-112973650D01*
X29593481Y-112973656D01*
X29372859Y-113167137D01*
X29372851Y-113167144D01*
X29369811Y-113169811D01*
X29367144Y-113172851D01*
X29367137Y-113172859D01*
X29173656Y-113393481D01*
X29173650Y-113393488D01*
X29170975Y-113396539D01*
X29168721Y-113399911D01*
X29168715Y-113399920D01*
X29005688Y-113643907D01*
X29005681Y-113643919D01*
X29003434Y-113647282D01*
X29001644Y-113650910D01*
X29001638Y-113650922D01*
X28871851Y-113914105D01*
X28871848Y-113914111D01*
X28870055Y-113917748D01*
X28868751Y-113921587D01*
X28868749Y-113921594D01*
X28792344Y-114146677D01*
X28773120Y-114203309D01*
X28772329Y-114207281D01*
X28772327Y-114207292D01*
X28715078Y-114495100D01*
X28715076Y-114495110D01*
X28714287Y-114499080D01*
X28714022Y-114503120D01*
X28714022Y-114503122D01*
X28695100Y-114791817D01*
X28694564Y-114800000D01*
X27766623Y-114800000D01*
X27780032Y-114491856D01*
X27781331Y-114478562D01*
X27831986Y-114146668D01*
X27834712Y-114133587D01*
X27920839Y-113809080D01*
X27924954Y-113796386D01*
X28045545Y-113483053D01*
X28051008Y-113470864D01*
X28204663Y-113172350D01*
X28211407Y-113160822D01*
X28396344Y-112880590D01*
X28404274Y-112869880D01*
X28618332Y-112611208D01*
X28627382Y-112601401D01*
X28868060Y-112367309D01*
X28878129Y-112358522D01*
X29142608Y-112151748D01*
X29153575Y-112144090D01*
X29354821Y-112019151D01*
X29420224Y-112000500D01*
X30140784Y-112000500D01*
X30169966Y-112004570D01*
X30171792Y-112004400D01*
X30171793Y-112004401D01*
X30208182Y-112001028D01*
X30219624Y-112000500D01*
X30227842Y-112000500D01*
X30227844Y-112000500D01*
X30235930Y-111998988D01*
X30247256Y-111997407D01*
X30283660Y-111994035D01*
X30283661Y-111994034D01*
X30285486Y-111993865D01*
X30308868Y-111986028D01*
X30310428Y-111985061D01*
X30310433Y-111985061D01*
X30341528Y-111965806D01*
X30351486Y-111960260D01*
X30384228Y-111943958D01*
X30384230Y-111943955D01*
X30385878Y-111943135D01*
X30404841Y-111927389D01*
X30405950Y-111925920D01*
X30405952Y-111925919D01*
X30427980Y-111896747D01*
X30435282Y-111887953D01*
X30459916Y-111860933D01*
X30459916Y-111860931D01*
X30461154Y-111859574D01*
X30473153Y-111838031D01*
X30483655Y-111801119D01*
X30487296Y-111790254D01*
X30489631Y-111784228D01*
X30500500Y-111756173D01*
X30500500Y-111756171D01*
X30501163Y-111754460D01*
X30504570Y-111730034D01*
X30501029Y-111691816D01*
X30500500Y-111680375D01*
X30500500Y-108689999D01*
X44244571Y-108689999D01*
X44264243Y-108902310D01*
X44322595Y-109107390D01*
X44417631Y-109298252D01*
X44546126Y-109468405D01*
X44546128Y-109468407D01*
X44703698Y-109612052D01*
X44884981Y-109724298D01*
X45083802Y-109801321D01*
X45293390Y-109840500D01*
X45293392Y-109840500D01*
X45506608Y-109840500D01*
X45506610Y-109840500D01*
X45716198Y-109801321D01*
X45829526Y-109757418D01*
X48724455Y-109757418D01*
X48745540Y-109890542D01*
X48806732Y-110010639D01*
X48902038Y-110105945D01*
X48902040Y-110105946D01*
X49022134Y-110167137D01*
X49066509Y-110174165D01*
X49155258Y-110188222D01*
X49155258Y-110188221D01*
X49155260Y-110188222D01*
X49195931Y-110181780D01*
X49265223Y-110190734D01*
X49318675Y-110235729D01*
X49325814Y-110247958D01*
X49378430Y-110351223D01*
X49473736Y-110446529D01*
X49473738Y-110446530D01*
X49593832Y-110507721D01*
X49726958Y-110528806D01*
X49860084Y-110507721D01*
X49950741Y-110461528D01*
X50019408Y-110448632D01*
X50084149Y-110474908D01*
X50117520Y-110515718D01*
X50147928Y-110575398D01*
X50243234Y-110670704D01*
X50243236Y-110670705D01*
X50363330Y-110731896D01*
X50496456Y-110752981D01*
X50629582Y-110731896D01*
X50643203Y-110724955D01*
X50711870Y-110712058D01*
X50776611Y-110738332D01*
X50787180Y-110747758D01*
X50830522Y-110791100D01*
X50830524Y-110791101D01*
X50950618Y-110852292D01*
X51017181Y-110862834D01*
X51083743Y-110873377D01*
X51083743Y-110873376D01*
X51083744Y-110873377D01*
X51216870Y-110852292D01*
X51336964Y-110791101D01*
X51432272Y-110695793D01*
X51493463Y-110575699D01*
X51514548Y-110442573D01*
X51493463Y-110309447D01*
X51432272Y-110189353D01*
X51432271Y-110189351D01*
X51336965Y-110094045D01*
X51216868Y-110032853D01*
X51083744Y-110011768D01*
X50950617Y-110032853D01*
X50936992Y-110039796D01*
X50868323Y-110052691D01*
X50803583Y-110026413D01*
X50793019Y-110016991D01*
X50749677Y-109973649D01*
X50629580Y-109912457D01*
X50496456Y-109891372D01*
X50363329Y-109912457D01*
X50272672Y-109958649D01*
X50204003Y-109971545D01*
X50139262Y-109945268D01*
X50105893Y-109904459D01*
X50075485Y-109844780D01*
X50036822Y-109806117D01*
X50003337Y-109744794D01*
X50008321Y-109675102D01*
X50050193Y-109619169D01*
X50068209Y-109607951D01*
X50204265Y-109538627D01*
X50299572Y-109443320D01*
X50317115Y-109408890D01*
X50360764Y-109323225D01*
X50381849Y-109190099D01*
X50360764Y-109056973D01*
X50352851Y-109041444D01*
X50339956Y-108972775D01*
X50366233Y-108908035D01*
X50375648Y-108897477D01*
X50449509Y-108823617D01*
X50510700Y-108703523D01*
X50531785Y-108570397D01*
X50510700Y-108437271D01*
X50449509Y-108317177D01*
X50449508Y-108317175D01*
X50409490Y-108277157D01*
X50376005Y-108215834D01*
X50380989Y-108146142D01*
X50422861Y-108090209D01*
X50477773Y-108067003D01*
X50494486Y-108064355D01*
X50517883Y-108060650D01*
X50637977Y-107999459D01*
X50733285Y-107904151D01*
X50794476Y-107784057D01*
X50815561Y-107650931D01*
X50794476Y-107517805D01*
X50733285Y-107397711D01*
X50733284Y-107397709D01*
X50637978Y-107302403D01*
X50517881Y-107241211D01*
X50377390Y-107218959D01*
X50316208Y-107211051D01*
X50262758Y-107166052D01*
X50242121Y-107099300D01*
X50260848Y-107031987D01*
X50278423Y-107009856D01*
X50337478Y-106950802D01*
X50398669Y-106830708D01*
X50419754Y-106697582D01*
X50398669Y-106564456D01*
X50337478Y-106444362D01*
X50337477Y-106444360D01*
X50299572Y-106406455D01*
X50266087Y-106345132D01*
X50271071Y-106275440D01*
X50276770Y-106262477D01*
X50287396Y-106241623D01*
X50308481Y-106108497D01*
X50287396Y-105975371D01*
X50226205Y-105855277D01*
X50226204Y-105855275D01*
X50181030Y-105810101D01*
X50147545Y-105748778D01*
X50152529Y-105679086D01*
X50158223Y-105666131D01*
X50183365Y-105616789D01*
X50204450Y-105483663D01*
X50183365Y-105350537D01*
X50122174Y-105230443D01*
X50122173Y-105230441D01*
X50026867Y-105135135D01*
X49906770Y-105073943D01*
X49773646Y-105052858D01*
X49640521Y-105073943D01*
X49520424Y-105135135D01*
X49425118Y-105230441D01*
X49363926Y-105350538D01*
X49342841Y-105483663D01*
X49363926Y-105616787D01*
X49425118Y-105736884D01*
X49470292Y-105782058D01*
X49503777Y-105843381D01*
X49498793Y-105913073D01*
X49493096Y-105926033D01*
X49467957Y-105975370D01*
X49446872Y-106108497D01*
X49467957Y-106241621D01*
X49529149Y-106361718D01*
X49567053Y-106399621D01*
X49600539Y-106460944D01*
X49595555Y-106530635D01*
X49589859Y-106543596D01*
X49579230Y-106564456D01*
X49558145Y-106697582D01*
X49579230Y-106830706D01*
X49640422Y-106950803D01*
X49735728Y-107046109D01*
X49735730Y-107046110D01*
X49855824Y-107107301D01*
X49881685Y-107111397D01*
X49996339Y-107129557D01*
X50057491Y-107137458D01*
X50110944Y-107182453D01*
X50131585Y-107249204D01*
X50112862Y-107316519D01*
X50095280Y-107338659D01*
X50036228Y-107397710D01*
X49975037Y-107517806D01*
X49953952Y-107650931D01*
X49975037Y-107784055D01*
X50036229Y-107904152D01*
X50076247Y-107944170D01*
X50109732Y-108005493D01*
X50104748Y-108075185D01*
X50062876Y-108131118D01*
X50007966Y-108154324D01*
X49967856Y-108160677D01*
X49847759Y-108221869D01*
X49752453Y-108317175D01*
X49691261Y-108437272D01*
X49670176Y-108570397D01*
X49691261Y-108703522D01*
X49699174Y-108719052D01*
X49712069Y-108787721D01*
X49685792Y-108852461D01*
X49676369Y-108863026D01*
X49602517Y-108936877D01*
X49541325Y-109056974D01*
X49520240Y-109190097D01*
X49529676Y-109249673D01*
X49520720Y-109318967D01*
X49475723Y-109372418D01*
X49408971Y-109393057D01*
X49350907Y-109379555D01*
X49288384Y-109347698D01*
X49155260Y-109326613D01*
X49022135Y-109347698D01*
X48902038Y-109408890D01*
X48806732Y-109504196D01*
X48745540Y-109624293D01*
X48724455Y-109757418D01*
X45829526Y-109757418D01*
X45915019Y-109724298D01*
X46096302Y-109612052D01*
X46253872Y-109468407D01*
X46382366Y-109298255D01*
X46382366Y-109298253D01*
X46382368Y-109298252D01*
X46448280Y-109165881D01*
X46477405Y-109107389D01*
X46535756Y-108902310D01*
X46555429Y-108690000D01*
X46535756Y-108477690D01*
X46477405Y-108272611D01*
X46421670Y-108160678D01*
X46382368Y-108081747D01*
X46253873Y-107911594D01*
X46245708Y-107904151D01*
X46096302Y-107767948D01*
X46096301Y-107767947D01*
X45915017Y-107655701D01*
X45716198Y-107578679D01*
X45506610Y-107539500D01*
X45293390Y-107539500D01*
X45219990Y-107553221D01*
X45083801Y-107578679D01*
X44884982Y-107655701D01*
X44703698Y-107767947D01*
X44546126Y-107911594D01*
X44417631Y-108081747D01*
X44322595Y-108272609D01*
X44264243Y-108477689D01*
X44244571Y-108689999D01*
X30500500Y-108689999D01*
X30500500Y-106800000D01*
X35169195Y-106800000D01*
X35190280Y-106933124D01*
X35251472Y-107053221D01*
X35346778Y-107148527D01*
X35346780Y-107148528D01*
X35466874Y-107209719D01*
X35600000Y-107230804D01*
X35733126Y-107209719D01*
X35853220Y-107148528D01*
X35948528Y-107053220D01*
X35949914Y-107050500D01*
X47653677Y-107050500D01*
X47674762Y-107183624D01*
X47735954Y-107303721D01*
X47831260Y-107399027D01*
X47831262Y-107399028D01*
X47951356Y-107460219D01*
X48084482Y-107481304D01*
X48217608Y-107460219D01*
X48255164Y-107441082D01*
X48323833Y-107428186D01*
X48388574Y-107454462D01*
X48421944Y-107495271D01*
X48451471Y-107553220D01*
X48546778Y-107648527D01*
X48546780Y-107648528D01*
X48666874Y-107709719D01*
X48800000Y-107730804D01*
X48933126Y-107709719D01*
X49053220Y-107648528D01*
X49148528Y-107553220D01*
X49209719Y-107433126D01*
X49230804Y-107300000D01*
X49209719Y-107166874D01*
X49148528Y-107046780D01*
X49148527Y-107046778D01*
X49053221Y-106951472D01*
X48933124Y-106890280D01*
X48800000Y-106869195D01*
X48666875Y-106890280D01*
X48629316Y-106909418D01*
X48560647Y-106922314D01*
X48495906Y-106896038D01*
X48462536Y-106855228D01*
X48433009Y-106797278D01*
X48337703Y-106701972D01*
X48217606Y-106640780D01*
X48084482Y-106619695D01*
X47951357Y-106640780D01*
X47831260Y-106701972D01*
X47735954Y-106797278D01*
X47674762Y-106917375D01*
X47653677Y-107050500D01*
X35949914Y-107050500D01*
X36009719Y-106933126D01*
X36030804Y-106800000D01*
X36009719Y-106666874D01*
X35975645Y-106600000D01*
X43469195Y-106600000D01*
X43490280Y-106733124D01*
X43551472Y-106853221D01*
X43646778Y-106948527D01*
X43646780Y-106948528D01*
X43766874Y-107009719D01*
X43833436Y-107020261D01*
X43899999Y-107030804D01*
X43899999Y-107030803D01*
X43900000Y-107030804D01*
X44033126Y-107009719D01*
X44153220Y-106948528D01*
X44248528Y-106853220D01*
X44309719Y-106733126D01*
X44330804Y-106600000D01*
X44322374Y-106546778D01*
X44309719Y-106466875D01*
X44309719Y-106466874D01*
X44248528Y-106346780D01*
X44248527Y-106346778D01*
X44153221Y-106251472D01*
X44033124Y-106190280D01*
X43899999Y-106169195D01*
X43766875Y-106190280D01*
X43646778Y-106251472D01*
X43551472Y-106346778D01*
X43490280Y-106466875D01*
X43469195Y-106600000D01*
X35975645Y-106600000D01*
X35948528Y-106546780D01*
X35948527Y-106546778D01*
X35853221Y-106451472D01*
X35733124Y-106390280D01*
X35600000Y-106369195D01*
X35466875Y-106390280D01*
X35346778Y-106451472D01*
X35251472Y-106546778D01*
X35190280Y-106666875D01*
X35169195Y-106800000D01*
X30500500Y-106800000D01*
X30500500Y-105150500D01*
X48105412Y-105150500D01*
X48126497Y-105283624D01*
X48187689Y-105403721D01*
X48282995Y-105499027D01*
X48282997Y-105499028D01*
X48403091Y-105560219D01*
X48469654Y-105570761D01*
X48536216Y-105581304D01*
X48536216Y-105581303D01*
X48536217Y-105581304D01*
X48669343Y-105560219D01*
X48789437Y-105499028D01*
X48884745Y-105403720D01*
X48945936Y-105283626D01*
X48967021Y-105150500D01*
X48964587Y-105135135D01*
X48945936Y-105017375D01*
X48945936Y-105017374D01*
X48884745Y-104897280D01*
X48884744Y-104897278D01*
X48789438Y-104801972D01*
X48669341Y-104740780D01*
X48536216Y-104719695D01*
X48403092Y-104740780D01*
X48282995Y-104801972D01*
X48187689Y-104897278D01*
X48126497Y-105017375D01*
X48105412Y-105150500D01*
X30500500Y-105150500D01*
X30500500Y-104078994D01*
X55744695Y-104078994D01*
X55765780Y-104212118D01*
X55826972Y-104332215D01*
X55922278Y-104427521D01*
X55922280Y-104427522D01*
X56042374Y-104488713D01*
X56175500Y-104509798D01*
X56308626Y-104488713D01*
X56428720Y-104427522D01*
X56524028Y-104332214D01*
X56585219Y-104212120D01*
X56606304Y-104078994D01*
X56585219Y-103945868D01*
X56524028Y-103825774D01*
X56524027Y-103825772D01*
X56428721Y-103730466D01*
X56308624Y-103669274D01*
X56175500Y-103648189D01*
X56042375Y-103669274D01*
X55922278Y-103730466D01*
X55826972Y-103825772D01*
X55765780Y-103945869D01*
X55744695Y-104078994D01*
X30500500Y-104078994D01*
X30500500Y-102200000D01*
X37969195Y-102200000D01*
X37990280Y-102333124D01*
X38051472Y-102453221D01*
X38146778Y-102548527D01*
X38146780Y-102548528D01*
X38266874Y-102609719D01*
X38400000Y-102630804D01*
X38533126Y-102609719D01*
X38617326Y-102566817D01*
X38685995Y-102553920D01*
X38750735Y-102580196D01*
X38784106Y-102621007D01*
X38851471Y-102753220D01*
X38946778Y-102848527D01*
X38946780Y-102848528D01*
X39066874Y-102909719D01*
X39200000Y-102930804D01*
X39333126Y-102909719D01*
X39453220Y-102848528D01*
X39548528Y-102753220D01*
X39609719Y-102633126D01*
X39630804Y-102500000D01*
X39609719Y-102366874D01*
X39548528Y-102246780D01*
X39548527Y-102246778D01*
X39453221Y-102151472D01*
X39352201Y-102100000D01*
X56269195Y-102100000D01*
X56290280Y-102233124D01*
X56351472Y-102353221D01*
X56446778Y-102448527D01*
X56446780Y-102448528D01*
X56566874Y-102509719D01*
X56700000Y-102530804D01*
X56833126Y-102509719D01*
X56953220Y-102448528D01*
X57048528Y-102353220D01*
X57109719Y-102233126D01*
X57130804Y-102100000D01*
X57109719Y-101966874D01*
X57048528Y-101846780D01*
X57048527Y-101846778D01*
X56953221Y-101751472D01*
X56833124Y-101690280D01*
X56699999Y-101669195D01*
X56566875Y-101690280D01*
X56446778Y-101751472D01*
X56351472Y-101846778D01*
X56290280Y-101966875D01*
X56269195Y-102100000D01*
X39352201Y-102100000D01*
X39333124Y-102090280D01*
X39200000Y-102069195D01*
X39066873Y-102090280D01*
X38982672Y-102133183D01*
X38914003Y-102146079D01*
X38849263Y-102119802D01*
X38815893Y-102078992D01*
X38748528Y-101946779D01*
X38653221Y-101851472D01*
X38533124Y-101790280D01*
X38400000Y-101769195D01*
X38266875Y-101790280D01*
X38146778Y-101851472D01*
X38051472Y-101946778D01*
X37990280Y-102066875D01*
X37969195Y-102200000D01*
X30500500Y-102200000D01*
X30500500Y-101500000D01*
X55019695Y-101500000D01*
X55040780Y-101633124D01*
X55101972Y-101753221D01*
X55197278Y-101848527D01*
X55197280Y-101848528D01*
X55317374Y-101909719D01*
X55383937Y-101920261D01*
X55450499Y-101930804D01*
X55450499Y-101930803D01*
X55450500Y-101930804D01*
X55583626Y-101909719D01*
X55703720Y-101848528D01*
X55799028Y-101753220D01*
X55860219Y-101633126D01*
X55881304Y-101500000D01*
X55860219Y-101366874D01*
X55799028Y-101246780D01*
X55799027Y-101246778D01*
X55703721Y-101151472D01*
X55583624Y-101090280D01*
X55450500Y-101069195D01*
X55317375Y-101090280D01*
X55197278Y-101151472D01*
X55101972Y-101246778D01*
X55040780Y-101366875D01*
X55019695Y-101500000D01*
X30500500Y-101500000D01*
X30500500Y-100200000D01*
X39369195Y-100200000D01*
X39390280Y-100333124D01*
X39451472Y-100453221D01*
X39546778Y-100548527D01*
X39546780Y-100548528D01*
X39666874Y-100609719D01*
X39800000Y-100630804D01*
X39933126Y-100609719D01*
X40053220Y-100548528D01*
X40148528Y-100453220D01*
X40209719Y-100333126D01*
X40230804Y-100200000D01*
X40209719Y-100066874D01*
X40175645Y-100000000D01*
X56269195Y-100000000D01*
X56290280Y-100133124D01*
X56351472Y-100253221D01*
X56446778Y-100348527D01*
X56446780Y-100348528D01*
X56566874Y-100409719D01*
X56700000Y-100430804D01*
X56833126Y-100409719D01*
X56953220Y-100348528D01*
X57048528Y-100253220D01*
X57109719Y-100133126D01*
X57130804Y-100000000D01*
X57109719Y-99866874D01*
X57048528Y-99746780D01*
X57048527Y-99746778D01*
X56953221Y-99651472D01*
X56833124Y-99590280D01*
X56700000Y-99569195D01*
X56566875Y-99590280D01*
X56446778Y-99651472D01*
X56351472Y-99746778D01*
X56290280Y-99866875D01*
X56269195Y-100000000D01*
X40175645Y-100000000D01*
X40148528Y-99946780D01*
X40148527Y-99946778D01*
X40053221Y-99851472D01*
X39933124Y-99790280D01*
X39800000Y-99769195D01*
X39666875Y-99790280D01*
X39546778Y-99851472D01*
X39451472Y-99946778D01*
X39390280Y-100066875D01*
X39369195Y-100200000D01*
X30500500Y-100200000D01*
X30500500Y-99000000D01*
X33169195Y-99000000D01*
X33190280Y-99133124D01*
X33251472Y-99253221D01*
X33346778Y-99348527D01*
X33346780Y-99348528D01*
X33466874Y-99409719D01*
X33600000Y-99430804D01*
X33733126Y-99409719D01*
X33853220Y-99348528D01*
X33948528Y-99253220D01*
X34009719Y-99133126D01*
X34030804Y-99000000D01*
X34009719Y-98866874D01*
X33948528Y-98746780D01*
X33948527Y-98746778D01*
X33853221Y-98651472D01*
X33733124Y-98590280D01*
X33600000Y-98569195D01*
X33466875Y-98590280D01*
X33346778Y-98651472D01*
X33251472Y-98746778D01*
X33190280Y-98866875D01*
X33169195Y-99000000D01*
X30500500Y-99000000D01*
X30500500Y-97644702D01*
X47348631Y-97644702D01*
X47369716Y-97777826D01*
X47430908Y-97897923D01*
X47526214Y-97993229D01*
X47526216Y-97993230D01*
X47646310Y-98054421D01*
X47680959Y-98059908D01*
X47791852Y-98077473D01*
X47854987Y-98107402D01*
X47882939Y-98143651D01*
X47928276Y-98232630D01*
X48023582Y-98327936D01*
X48023584Y-98327937D01*
X48143678Y-98389128D01*
X48168541Y-98393066D01*
X48211139Y-98399813D01*
X48274274Y-98429742D01*
X48311206Y-98489053D01*
X48314215Y-98502886D01*
X48315424Y-98510521D01*
X48376616Y-98630618D01*
X48471922Y-98725924D01*
X48471924Y-98725925D01*
X48592018Y-98787116D01*
X48658580Y-98797658D01*
X48725143Y-98808201D01*
X48725143Y-98808200D01*
X48725144Y-98808201D01*
X48858270Y-98787116D01*
X48978364Y-98725925D01*
X49073672Y-98630617D01*
X49134863Y-98510523D01*
X49155948Y-98377397D01*
X49143690Y-98300000D01*
X55523196Y-98300000D01*
X55544281Y-98433124D01*
X55605473Y-98553221D01*
X55700779Y-98648527D01*
X55700781Y-98648528D01*
X55820875Y-98709719D01*
X55887438Y-98720261D01*
X55954000Y-98730804D01*
X55954000Y-98730803D01*
X55954001Y-98730804D01*
X56087127Y-98709719D01*
X56207221Y-98648528D01*
X56302529Y-98553220D01*
X56363720Y-98433126D01*
X56384805Y-98300000D01*
X56363720Y-98166874D01*
X56302529Y-98046780D01*
X56302528Y-98046778D01*
X56207222Y-97951472D01*
X56087125Y-97890280D01*
X55954000Y-97869195D01*
X55820876Y-97890280D01*
X55700779Y-97951472D01*
X55605473Y-98046778D01*
X55544281Y-98166875D01*
X55523196Y-98300000D01*
X49143690Y-98300000D01*
X49134863Y-98244271D01*
X49073672Y-98124177D01*
X49073671Y-98124175D01*
X48978365Y-98028869D01*
X48858268Y-97967677D01*
X48790806Y-97956992D01*
X48727672Y-97927062D01*
X48690741Y-97867751D01*
X48687734Y-97853931D01*
X48686523Y-97846283D01*
X48651642Y-97777826D01*
X48625332Y-97726188D01*
X48530025Y-97630881D01*
X48409928Y-97569689D01*
X48264386Y-97546637D01*
X48201252Y-97516707D01*
X48173300Y-97480459D01*
X48127963Y-97391480D01*
X48032657Y-97296174D01*
X47912560Y-97234982D01*
X47779435Y-97213897D01*
X47646311Y-97234982D01*
X47526214Y-97296174D01*
X47430908Y-97391480D01*
X47369716Y-97511577D01*
X47348631Y-97644702D01*
X30500500Y-97644702D01*
X30500500Y-96000000D01*
X38369195Y-96000000D01*
X38390280Y-96133124D01*
X38451472Y-96253221D01*
X38546778Y-96348527D01*
X38546780Y-96348528D01*
X38666874Y-96409719D01*
X38800000Y-96430804D01*
X38933126Y-96409719D01*
X39053220Y-96348528D01*
X39148528Y-96253220D01*
X39148529Y-96253217D01*
X39162318Y-96239429D01*
X39223641Y-96205944D01*
X39293333Y-96210928D01*
X39337682Y-96239429D01*
X39351471Y-96253218D01*
X39351472Y-96253220D01*
X39446780Y-96348528D01*
X39566874Y-96409719D01*
X39633436Y-96420261D01*
X39699999Y-96430804D01*
X39699999Y-96430803D01*
X39700000Y-96430804D01*
X39833126Y-96409719D01*
X39953220Y-96348528D01*
X40048528Y-96253220D01*
X40075645Y-96200000D01*
X44269195Y-96200000D01*
X44290280Y-96333124D01*
X44351472Y-96453221D01*
X44446778Y-96548527D01*
X44446780Y-96548528D01*
X44566874Y-96609719D01*
X44633436Y-96620261D01*
X44699999Y-96630804D01*
X44699999Y-96630803D01*
X44700000Y-96630804D01*
X44833126Y-96609719D01*
X44852201Y-96600000D01*
X46469195Y-96600000D01*
X46490280Y-96733124D01*
X46551472Y-96853221D01*
X46646778Y-96948527D01*
X46646780Y-96948528D01*
X46766874Y-97009719D01*
X46900000Y-97030804D01*
X47033126Y-97009719D01*
X47153220Y-96948528D01*
X47248528Y-96853220D01*
X47309719Y-96733126D01*
X47330804Y-96600000D01*
X47309719Y-96466874D01*
X47275645Y-96400000D01*
X47969195Y-96400000D01*
X47990280Y-96533124D01*
X48051472Y-96653221D01*
X48146778Y-96748527D01*
X48146780Y-96748528D01*
X48266874Y-96809719D01*
X48400000Y-96830804D01*
X48533126Y-96809719D01*
X48653220Y-96748528D01*
X48748528Y-96653220D01*
X48809719Y-96533126D01*
X48830804Y-96400000D01*
X48809719Y-96266874D01*
X48748528Y-96146780D01*
X48748527Y-96146778D01*
X48653221Y-96051472D01*
X48533124Y-95990280D01*
X48400000Y-95969195D01*
X48266875Y-95990280D01*
X48146778Y-96051472D01*
X48051472Y-96146778D01*
X47990280Y-96266875D01*
X47969195Y-96400000D01*
X47275645Y-96400000D01*
X47248528Y-96346780D01*
X47248527Y-96346778D01*
X47153221Y-96251472D01*
X47033124Y-96190280D01*
X46900000Y-96169195D01*
X46766875Y-96190280D01*
X46646778Y-96251472D01*
X46551472Y-96346778D01*
X46490280Y-96466875D01*
X46469195Y-96600000D01*
X44852201Y-96600000D01*
X44953220Y-96548528D01*
X45048528Y-96453220D01*
X45109719Y-96333126D01*
X45130804Y-96200000D01*
X45122374Y-96146778D01*
X45109719Y-96066875D01*
X45109719Y-96066874D01*
X45048528Y-95946780D01*
X45048527Y-95946778D01*
X44953221Y-95851472D01*
X44833124Y-95790280D01*
X44699999Y-95769195D01*
X44566875Y-95790280D01*
X44446778Y-95851472D01*
X44351472Y-95946778D01*
X44290280Y-96066875D01*
X44269195Y-96200000D01*
X40075645Y-96200000D01*
X40109719Y-96133126D01*
X40130804Y-96000000D01*
X40122374Y-95946778D01*
X40109719Y-95866875D01*
X40109719Y-95866874D01*
X40048528Y-95746780D01*
X40048527Y-95746778D01*
X39953221Y-95651472D01*
X39859064Y-95603497D01*
X52396048Y-95603497D01*
X52417133Y-95736621D01*
X52478325Y-95856718D01*
X52573631Y-95952024D01*
X52573633Y-95952025D01*
X52693727Y-96013216D01*
X52826853Y-96034301D01*
X52959979Y-96013216D01*
X53080073Y-95952025D01*
X53175381Y-95856717D01*
X53236572Y-95736623D01*
X53257657Y-95603497D01*
X53247686Y-95540542D01*
X53256640Y-95471249D01*
X53301636Y-95417797D01*
X53368388Y-95397157D01*
X53426453Y-95410658D01*
X53428222Y-95411560D01*
X53467601Y-95417797D01*
X53561347Y-95432645D01*
X53561347Y-95432644D01*
X53561348Y-95432645D01*
X53694474Y-95411560D01*
X53814568Y-95350369D01*
X53909876Y-95255061D01*
X53937931Y-95200000D01*
X57469195Y-95200000D01*
X57490280Y-95333124D01*
X57551472Y-95453221D01*
X57646778Y-95548527D01*
X57646780Y-95548528D01*
X57766874Y-95609719D01*
X57833436Y-95620261D01*
X57899999Y-95630804D01*
X57899999Y-95630803D01*
X57900000Y-95630804D01*
X57948711Y-95623089D01*
X58018005Y-95632043D01*
X58071457Y-95677039D01*
X58092097Y-95743791D01*
X58090583Y-95764959D01*
X58069195Y-95899999D01*
X58090280Y-96033124D01*
X58151472Y-96153221D01*
X58246778Y-96248527D01*
X58246780Y-96248528D01*
X58366874Y-96309719D01*
X58500000Y-96330804D01*
X58633126Y-96309719D01*
X58753220Y-96248528D01*
X58848528Y-96153220D01*
X58909719Y-96033126D01*
X58930804Y-95900000D01*
X58909719Y-95766874D01*
X58848528Y-95646780D01*
X58848527Y-95646778D01*
X58753221Y-95551472D01*
X58633124Y-95490280D01*
X58500001Y-95469195D01*
X58451286Y-95476911D01*
X58381992Y-95467955D01*
X58328541Y-95422958D01*
X58307902Y-95356206D01*
X58309416Y-95335039D01*
X58325563Y-95233092D01*
X58330804Y-95200000D01*
X58309719Y-95066874D01*
X58248528Y-94946780D01*
X58248527Y-94946778D01*
X58153221Y-94851472D01*
X58033124Y-94790280D01*
X57900000Y-94769195D01*
X57766875Y-94790280D01*
X57646778Y-94851472D01*
X57551472Y-94946778D01*
X57490280Y-95066875D01*
X57469195Y-95200000D01*
X53937931Y-95200000D01*
X53971067Y-95134967D01*
X53992152Y-95001841D01*
X53971067Y-94868715D01*
X53909876Y-94748621D01*
X53909875Y-94748619D01*
X53896124Y-94734868D01*
X53862639Y-94673545D01*
X53867623Y-94603853D01*
X53909495Y-94547920D01*
X53927515Y-94536700D01*
X53927537Y-94536689D01*
X54022845Y-94441381D01*
X54084036Y-94321287D01*
X54102049Y-94207559D01*
X54105121Y-94188163D01*
X54105121Y-94188161D01*
X54101241Y-94163665D01*
X54110195Y-94094374D01*
X54155190Y-94040921D01*
X54221941Y-94020280D01*
X54243112Y-94021793D01*
X54300000Y-94030804D01*
X54433126Y-94009719D01*
X54553220Y-93948528D01*
X54648528Y-93853220D01*
X54709719Y-93733126D01*
X54730804Y-93600000D01*
X54709719Y-93466874D01*
X54648528Y-93346780D01*
X54648527Y-93346778D01*
X54553221Y-93251472D01*
X54433124Y-93190280D01*
X54300000Y-93169195D01*
X54166875Y-93190280D01*
X54029281Y-93260388D01*
X54029177Y-93260184D01*
X53987432Y-93282976D01*
X53917741Y-93277989D01*
X53861809Y-93236115D01*
X53838606Y-93181208D01*
X53835312Y-93160406D01*
X53774121Y-93040312D01*
X53774120Y-93040310D01*
X53678814Y-92945004D01*
X53558717Y-92883812D01*
X53425593Y-92862727D01*
X53292468Y-92883812D01*
X53172371Y-92945004D01*
X53077065Y-93040310D01*
X53015873Y-93160407D01*
X52994788Y-93293532D01*
X53015873Y-93426656D01*
X53077065Y-93546753D01*
X53172371Y-93642059D01*
X53309966Y-93712167D01*
X53308719Y-93714614D01*
X53344005Y-93731339D01*
X53380940Y-93790648D01*
X53379946Y-93860511D01*
X53349160Y-93911568D01*
X53325790Y-93934938D01*
X53264597Y-94055036D01*
X53240440Y-94207559D01*
X53235788Y-94206822D01*
X53231609Y-94239042D01*
X53186587Y-94292472D01*
X53119825Y-94313080D01*
X53061821Y-94299577D01*
X53052402Y-94294777D01*
X52919273Y-94273692D01*
X52786149Y-94294777D01*
X52666052Y-94355969D01*
X52570746Y-94451275D01*
X52509554Y-94571372D01*
X52488469Y-94704497D01*
X52509554Y-94837621D01*
X52570746Y-94957718D01*
X52647954Y-95034926D01*
X52681439Y-95096249D01*
X52676455Y-95165941D01*
X52634583Y-95221874D01*
X52616568Y-95233092D01*
X52573631Y-95254969D01*
X52478325Y-95350275D01*
X52417133Y-95470372D01*
X52396048Y-95603497D01*
X39859064Y-95603497D01*
X39833124Y-95590280D01*
X39699999Y-95569195D01*
X39566875Y-95590280D01*
X39446780Y-95651471D01*
X39337681Y-95760570D01*
X39276358Y-95794054D01*
X39206666Y-95789070D01*
X39162319Y-95760570D01*
X39053219Y-95651471D01*
X38933124Y-95590280D01*
X38800000Y-95569195D01*
X38666875Y-95590280D01*
X38546778Y-95651472D01*
X38451472Y-95746778D01*
X38390280Y-95866875D01*
X38369195Y-96000000D01*
X30500500Y-96000000D01*
X30500500Y-93721047D01*
X51012458Y-93721047D01*
X51033543Y-93854171D01*
X51094735Y-93974268D01*
X51190041Y-94069574D01*
X51190043Y-94069575D01*
X51310137Y-94130766D01*
X51376699Y-94141308D01*
X51443262Y-94151851D01*
X51443262Y-94151850D01*
X51443263Y-94151851D01*
X51576389Y-94130766D01*
X51696483Y-94069575D01*
X51791791Y-93974267D01*
X51852982Y-93854173D01*
X51874067Y-93721047D01*
X51852982Y-93587921D01*
X51791791Y-93467827D01*
X51791790Y-93467825D01*
X51696484Y-93372519D01*
X51576387Y-93311327D01*
X51443262Y-93290242D01*
X51310138Y-93311327D01*
X51190041Y-93372519D01*
X51094735Y-93467825D01*
X51033543Y-93587922D01*
X51012458Y-93721047D01*
X30500500Y-93721047D01*
X30500500Y-92300000D01*
X37169195Y-92300000D01*
X37190280Y-92433124D01*
X37251472Y-92553221D01*
X37346778Y-92648527D01*
X37346780Y-92648528D01*
X37466874Y-92709719D01*
X37600000Y-92730804D01*
X37733126Y-92709719D01*
X37853220Y-92648528D01*
X37919240Y-92582508D01*
X48486687Y-92582508D01*
X48507772Y-92715632D01*
X48568964Y-92835729D01*
X48664270Y-92931035D01*
X48664272Y-92931036D01*
X48784366Y-92992227D01*
X48917492Y-93013312D01*
X49050618Y-92992227D01*
X49170712Y-92931036D01*
X49266020Y-92835728D01*
X49327211Y-92715634D01*
X49348296Y-92582508D01*
X49327211Y-92449382D01*
X49266020Y-92329288D01*
X49266019Y-92329286D01*
X49170713Y-92233980D01*
X49050616Y-92172788D01*
X48917491Y-92151703D01*
X48784367Y-92172788D01*
X48664270Y-92233980D01*
X48568964Y-92329286D01*
X48507772Y-92449383D01*
X48486687Y-92582508D01*
X37919240Y-92582508D01*
X37948528Y-92553220D01*
X38009719Y-92433126D01*
X38030804Y-92300000D01*
X38009719Y-92166874D01*
X37948528Y-92046780D01*
X37948527Y-92046778D01*
X37853221Y-91951472D01*
X37733124Y-91890280D01*
X37600000Y-91869195D01*
X37466875Y-91890280D01*
X37346778Y-91951472D01*
X37251472Y-92046778D01*
X37190280Y-92166875D01*
X37169195Y-92300000D01*
X30500500Y-92300000D01*
X30500500Y-90400000D01*
X42769195Y-90400000D01*
X42790280Y-90533124D01*
X42851472Y-90653221D01*
X42946778Y-90748527D01*
X42946780Y-90748528D01*
X43066874Y-90809719D01*
X43200000Y-90830804D01*
X43333126Y-90809719D01*
X43453220Y-90748528D01*
X43548528Y-90653220D01*
X43609719Y-90533126D01*
X43630804Y-90400000D01*
X43609719Y-90266874D01*
X43548528Y-90146780D01*
X43548527Y-90146778D01*
X43453221Y-90051472D01*
X43333124Y-89990280D01*
X43200000Y-89969195D01*
X43066875Y-89990280D01*
X42946778Y-90051472D01*
X42851472Y-90146778D01*
X42790280Y-90266875D01*
X42769195Y-90400000D01*
X30500500Y-90400000D01*
X30500500Y-89500000D01*
X44069195Y-89500000D01*
X44090280Y-89633124D01*
X44151472Y-89753221D01*
X44246778Y-89848527D01*
X44366217Y-89909384D01*
X44417013Y-89957358D01*
X44433808Y-90025179D01*
X44420923Y-90075140D01*
X44322593Y-90272613D01*
X44264243Y-90477689D01*
X44244571Y-90689999D01*
X44264243Y-90902310D01*
X44322595Y-91107390D01*
X44417631Y-91298252D01*
X44546126Y-91468405D01*
X44546128Y-91468407D01*
X44703698Y-91612052D01*
X44884981Y-91724298D01*
X45083802Y-91801321D01*
X45293390Y-91840500D01*
X45293392Y-91840500D01*
X45506608Y-91840500D01*
X45506610Y-91840500D01*
X45716198Y-91801321D01*
X45915019Y-91724298D01*
X46096302Y-91612052D01*
X46219216Y-91500000D01*
X52569195Y-91500000D01*
X52590280Y-91633124D01*
X52651472Y-91753221D01*
X52746778Y-91848527D01*
X52746780Y-91848528D01*
X52866874Y-91909719D01*
X53000000Y-91930804D01*
X53133126Y-91909719D01*
X53253220Y-91848528D01*
X53348528Y-91753220D01*
X53409719Y-91633126D01*
X53430804Y-91500000D01*
X53409719Y-91366874D01*
X53348528Y-91246780D01*
X53348527Y-91246778D01*
X53253221Y-91151472D01*
X53133124Y-91090280D01*
X53000000Y-91069195D01*
X52866875Y-91090280D01*
X52746778Y-91151472D01*
X52651472Y-91246778D01*
X52590280Y-91366875D01*
X52569195Y-91500000D01*
X46219216Y-91500000D01*
X46253872Y-91468407D01*
X46382366Y-91298255D01*
X46382366Y-91298253D01*
X46382368Y-91298252D01*
X46455454Y-91151472D01*
X46477405Y-91107389D01*
X46535756Y-90902310D01*
X46555429Y-90690000D01*
X46535756Y-90477690D01*
X46477405Y-90272611D01*
X46420946Y-90159224D01*
X46382368Y-90081747D01*
X46253873Y-89911594D01*
X46096301Y-89767947D01*
X45915017Y-89655701D01*
X45716198Y-89578679D01*
X45689766Y-89573738D01*
X45506610Y-89539500D01*
X45293390Y-89539500D01*
X45083802Y-89578679D01*
X45083801Y-89578679D01*
X45072622Y-89580769D01*
X45003107Y-89573738D01*
X44948428Y-89530240D01*
X44927364Y-89478278D01*
X44909719Y-89366875D01*
X44909719Y-89366874D01*
X44848528Y-89246780D01*
X44848527Y-89246778D01*
X44753221Y-89151472D01*
X44633124Y-89090280D01*
X44499999Y-89069195D01*
X44366875Y-89090280D01*
X44246778Y-89151472D01*
X44151472Y-89246778D01*
X44090280Y-89366875D01*
X44069195Y-89500000D01*
X30500500Y-89500000D01*
X30500500Y-88400000D01*
X41669195Y-88400000D01*
X41690280Y-88533124D01*
X41751472Y-88653221D01*
X41846778Y-88748527D01*
X41846780Y-88748528D01*
X41966874Y-88809719D01*
X42033436Y-88820261D01*
X42099999Y-88830804D01*
X42099999Y-88830803D01*
X42100000Y-88830804D01*
X42233126Y-88809719D01*
X42353220Y-88748528D01*
X42448528Y-88653220D01*
X42472977Y-88605235D01*
X42520951Y-88554440D01*
X42588771Y-88537644D01*
X42639756Y-88551045D01*
X42766873Y-88615814D01*
X42900000Y-88636899D01*
X43033126Y-88615814D01*
X43153220Y-88554623D01*
X43248528Y-88459315D01*
X43309719Y-88339221D01*
X43330804Y-88206095D01*
X43309719Y-88072969D01*
X43272539Y-88000000D01*
X44569195Y-88000000D01*
X44590280Y-88133124D01*
X44651472Y-88253221D01*
X44746778Y-88348527D01*
X44746780Y-88348528D01*
X44866874Y-88409719D01*
X45000000Y-88430804D01*
X45133126Y-88409719D01*
X45253220Y-88348528D01*
X45348528Y-88253220D01*
X45409719Y-88133126D01*
X45409719Y-88133125D01*
X45414991Y-88122779D01*
X45462965Y-88071982D01*
X45530786Y-88055187D01*
X45596921Y-88077724D01*
X45635961Y-88122778D01*
X45651472Y-88153221D01*
X45746778Y-88248527D01*
X45746780Y-88248528D01*
X45866874Y-88309719D01*
X46000000Y-88330804D01*
X46133126Y-88309719D01*
X46253220Y-88248528D01*
X46295653Y-88206095D01*
X46362416Y-88139333D01*
X46362675Y-88139592D01*
X46395001Y-88105364D01*
X46462822Y-88088566D01*
X46528958Y-88111101D01*
X46572411Y-88165814D01*
X46579989Y-88231850D01*
X46569195Y-88299999D01*
X46590280Y-88433124D01*
X46651472Y-88553221D01*
X46746778Y-88648527D01*
X46746780Y-88648528D01*
X46866874Y-88709719D01*
X47000000Y-88730804D01*
X47133126Y-88709719D01*
X47253220Y-88648528D01*
X47348528Y-88553220D01*
X47409719Y-88433126D01*
X47414966Y-88400000D01*
X48069195Y-88400000D01*
X48090280Y-88533124D01*
X48151472Y-88653221D01*
X48246778Y-88748527D01*
X48246780Y-88748528D01*
X48366874Y-88809719D01*
X48433436Y-88820261D01*
X48499999Y-88830804D01*
X48499999Y-88830803D01*
X48500000Y-88830804D01*
X48633126Y-88809719D01*
X48753220Y-88748528D01*
X48848528Y-88653220D01*
X48909719Y-88533126D01*
X48930804Y-88400000D01*
X48909719Y-88266874D01*
X48848528Y-88146780D01*
X48839431Y-88137683D01*
X48805944Y-88076361D01*
X48810927Y-88006669D01*
X48839429Y-87962318D01*
X48853217Y-87948529D01*
X48853220Y-87948528D01*
X48948528Y-87853220D01*
X49009719Y-87733126D01*
X49030804Y-87600000D01*
X49009719Y-87466874D01*
X48948528Y-87346780D01*
X48948527Y-87346778D01*
X48853221Y-87251472D01*
X48733124Y-87190280D01*
X48600000Y-87169195D01*
X48466875Y-87190280D01*
X48346778Y-87251472D01*
X48251472Y-87346778D01*
X48190280Y-87466875D01*
X48169195Y-87600000D01*
X48190280Y-87733124D01*
X48251472Y-87853221D01*
X48260570Y-87862319D01*
X48294055Y-87923642D01*
X48289071Y-87993334D01*
X48260570Y-88037681D01*
X48151472Y-88146778D01*
X48090280Y-88266875D01*
X48069195Y-88400000D01*
X47414966Y-88400000D01*
X47430804Y-88300000D01*
X47409719Y-88166874D01*
X47348528Y-88046780D01*
X47348527Y-88046778D01*
X47253221Y-87951472D01*
X47133124Y-87890280D01*
X47000000Y-87869195D01*
X46866875Y-87890280D01*
X46746778Y-87951472D01*
X46637584Y-88060667D01*
X46637323Y-88060406D01*
X46604989Y-88094641D01*
X46537167Y-88111433D01*
X46471033Y-88088893D01*
X46427584Y-88034176D01*
X46420010Y-87968148D01*
X46420934Y-87962318D01*
X46430804Y-87900000D01*
X46425557Y-87866874D01*
X46409719Y-87766875D01*
X46409719Y-87766874D01*
X46348528Y-87646780D01*
X46348527Y-87646778D01*
X46253221Y-87551472D01*
X46133124Y-87490280D01*
X46000000Y-87469195D01*
X45866875Y-87490280D01*
X45746778Y-87551472D01*
X45651472Y-87646778D01*
X45585008Y-87777221D01*
X45537033Y-87828017D01*
X45469212Y-87844812D01*
X45403077Y-87822274D01*
X45364038Y-87777220D01*
X45348527Y-87746778D01*
X45253221Y-87651472D01*
X45133124Y-87590280D01*
X45000000Y-87569195D01*
X44866875Y-87590280D01*
X44746778Y-87651472D01*
X44651472Y-87746778D01*
X44590280Y-87866875D01*
X44569195Y-88000000D01*
X43272539Y-88000000D01*
X43248528Y-87952875D01*
X43248527Y-87952873D01*
X43153221Y-87857567D01*
X43033124Y-87796375D01*
X42900000Y-87775290D01*
X42766875Y-87796375D01*
X42646778Y-87857567D01*
X42551471Y-87952874D01*
X42527021Y-88000860D01*
X42479046Y-88051655D01*
X42411225Y-88068450D01*
X42360243Y-88055049D01*
X42233126Y-87990280D01*
X42099999Y-87969195D01*
X41966875Y-87990280D01*
X41846778Y-88051472D01*
X41751472Y-88146778D01*
X41690280Y-88266875D01*
X41669195Y-88400000D01*
X30500500Y-88400000D01*
X30500500Y-86400000D01*
X36369195Y-86400000D01*
X36390280Y-86533124D01*
X36451472Y-86653221D01*
X36546778Y-86748527D01*
X36546780Y-86748528D01*
X36666874Y-86809719D01*
X36800000Y-86830804D01*
X36933126Y-86809719D01*
X37053220Y-86748528D01*
X37148528Y-86653220D01*
X37209719Y-86533126D01*
X37230804Y-86400000D01*
X37209719Y-86266874D01*
X37148528Y-86146780D01*
X37148527Y-86146778D01*
X37053221Y-86051472D01*
X36933124Y-85990280D01*
X36800000Y-85969195D01*
X36666875Y-85990280D01*
X36546778Y-86051472D01*
X36451472Y-86146778D01*
X36390280Y-86266875D01*
X36369195Y-86400000D01*
X30500500Y-86400000D01*
X30500500Y-85759215D01*
X30504570Y-85730034D01*
X30503605Y-85719623D01*
X30501029Y-85691816D01*
X30500500Y-85680375D01*
X30500500Y-85672156D01*
X30498990Y-85664080D01*
X30497407Y-85652731D01*
X30493866Y-85614515D01*
X30486029Y-85591132D01*
X30485061Y-85589569D01*
X30485061Y-85589567D01*
X30465814Y-85558482D01*
X30460246Y-85548484D01*
X30443141Y-85514130D01*
X30431408Y-85500000D01*
X42469195Y-85500000D01*
X42490280Y-85633124D01*
X42551472Y-85753221D01*
X42646778Y-85848527D01*
X42646780Y-85848528D01*
X42766874Y-85909719D01*
X42900000Y-85930804D01*
X43033126Y-85909719D01*
X43052201Y-85900000D01*
X46369195Y-85900000D01*
X46390280Y-86033124D01*
X46451472Y-86153221D01*
X46546778Y-86248527D01*
X46546780Y-86248528D01*
X46666874Y-86309719D01*
X46800000Y-86330804D01*
X46933126Y-86309719D01*
X47053220Y-86248528D01*
X47148528Y-86153220D01*
X47209719Y-86033126D01*
X47230804Y-85900000D01*
X47209719Y-85766874D01*
X47175645Y-85700000D01*
X52869195Y-85700000D01*
X52890280Y-85833124D01*
X52951472Y-85953221D01*
X53046778Y-86048527D01*
X53046780Y-86048528D01*
X53166874Y-86109719D01*
X53233436Y-86120261D01*
X53299999Y-86130804D01*
X53299999Y-86130803D01*
X53300000Y-86130804D01*
X53433126Y-86109719D01*
X53553220Y-86048528D01*
X53648528Y-85953220D01*
X53709719Y-85833126D01*
X53730804Y-85700000D01*
X53709719Y-85566874D01*
X53648528Y-85446780D01*
X53648527Y-85446778D01*
X53553221Y-85351472D01*
X53433124Y-85290280D01*
X53300000Y-85269195D01*
X53166875Y-85290280D01*
X53046778Y-85351472D01*
X52951472Y-85446778D01*
X52890280Y-85566875D01*
X52869195Y-85700000D01*
X47175645Y-85700000D01*
X47148528Y-85646780D01*
X47148527Y-85646778D01*
X47053221Y-85551472D01*
X46933124Y-85490280D01*
X46800000Y-85469195D01*
X46666875Y-85490280D01*
X46546778Y-85551472D01*
X46451472Y-85646778D01*
X46390280Y-85766875D01*
X46369195Y-85900000D01*
X43052201Y-85900000D01*
X43153220Y-85848528D01*
X43248528Y-85753220D01*
X43309719Y-85633126D01*
X43330804Y-85500000D01*
X43309719Y-85366874D01*
X43248528Y-85246780D01*
X43248527Y-85246778D01*
X43153221Y-85151472D01*
X43033124Y-85090280D01*
X42899999Y-85069195D01*
X42766875Y-85090280D01*
X42646778Y-85151472D01*
X42551472Y-85246778D01*
X42490280Y-85366875D01*
X42469195Y-85500000D01*
X30431408Y-85500000D01*
X30427383Y-85495153D01*
X30396750Y-85472020D01*
X30387935Y-85464700D01*
X30379239Y-85456772D01*
X30342959Y-85397060D01*
X30344722Y-85327212D01*
X30383968Y-85269406D01*
X30448235Y-85241994D01*
X30486967Y-85243520D01*
X30699080Y-85285713D01*
X31000000Y-85305436D01*
X31300920Y-85285713D01*
X31596691Y-85226880D01*
X31882252Y-85129945D01*
X32152718Y-84996566D01*
X32403461Y-84829025D01*
X32630189Y-84630189D01*
X32829025Y-84403461D01*
X32996566Y-84152718D01*
X33129945Y-83882252D01*
X33226880Y-83596691D01*
X33285713Y-83300920D01*
X33305436Y-83000000D01*
X33285713Y-82699080D01*
X33226880Y-82403309D01*
X33129945Y-82117748D01*
X32996566Y-81847282D01*
X32829025Y-81596539D01*
X32630189Y-81369811D01*
X32599742Y-81343110D01*
X32406518Y-81173656D01*
X32403461Y-81170975D01*
X32313478Y-81110850D01*
X32156092Y-81005688D01*
X32156087Y-81005685D01*
X32152718Y-81003434D01*
X32149082Y-81001641D01*
X32149077Y-81001638D01*
X31885894Y-80871851D01*
X31885893Y-80871850D01*
X31882252Y-80870055D01*
X31828153Y-80851691D01*
X31643177Y-80788900D01*
X31596691Y-80773120D01*
X31592714Y-80772329D01*
X31592707Y-80772327D01*
X31304899Y-80715078D01*
X31304891Y-80715077D01*
X31300920Y-80714287D01*
X31000000Y-80694564D01*
X30995957Y-80694829D01*
X30703122Y-80714022D01*
X30703120Y-80714022D01*
X30699080Y-80714287D01*
X30695110Y-80715076D01*
X30695100Y-80715078D01*
X30407292Y-80772327D01*
X30407281Y-80772329D01*
X30403309Y-80773120D01*
X30399466Y-80774424D01*
X30399464Y-80774425D01*
X30121594Y-80868749D01*
X30121587Y-80868751D01*
X30117748Y-80870055D01*
X30114111Y-80871848D01*
X30114105Y-80871851D01*
X29850922Y-81001638D01*
X29850910Y-81001644D01*
X29847282Y-81003434D01*
X29843919Y-81005681D01*
X29843907Y-81005688D01*
X29599920Y-81168715D01*
X29599911Y-81168721D01*
X29596539Y-81170975D01*
X29593488Y-81173650D01*
X29593481Y-81173656D01*
X29372859Y-81367137D01*
X29372851Y-81367144D01*
X29369811Y-81369811D01*
X29367144Y-81372851D01*
X29367137Y-81372859D01*
X29173656Y-81593481D01*
X29173650Y-81593488D01*
X29170975Y-81596539D01*
X29168721Y-81599911D01*
X29168715Y-81599920D01*
X29005688Y-81843907D01*
X29005681Y-81843919D01*
X29003434Y-81847282D01*
X29001644Y-81850910D01*
X29001638Y-81850922D01*
X28871851Y-82114105D01*
X28871848Y-82114111D01*
X28870055Y-82117748D01*
X28868751Y-82121587D01*
X28868749Y-82121594D01*
X28774425Y-82399464D01*
X28773120Y-82403309D01*
X28772329Y-82407281D01*
X28772327Y-82407292D01*
X28715078Y-82695100D01*
X28715076Y-82695110D01*
X28714287Y-82699080D01*
X28714022Y-82703120D01*
X28714022Y-82703122D01*
X28712949Y-82719495D01*
X28694564Y-83000000D01*
X28694829Y-83004043D01*
X28711599Y-83259916D01*
X28714287Y-83300920D01*
X28715077Y-83304891D01*
X28715078Y-83304899D01*
X28772327Y-83592707D01*
X28772329Y-83592714D01*
X28773120Y-83596691D01*
X28870055Y-83882252D01*
X28871850Y-83885893D01*
X28871851Y-83885894D01*
X28965331Y-84075454D01*
X29003434Y-84152718D01*
X29005685Y-84156087D01*
X29005688Y-84156092D01*
X29148218Y-84369403D01*
X29170975Y-84403461D01*
X29369811Y-84630189D01*
X29596539Y-84829025D01*
X29847282Y-84996566D01*
X30117748Y-85129945D01*
X30121596Y-85131251D01*
X30121598Y-85131252D01*
X30200633Y-85158081D01*
X30257788Y-85198270D01*
X30284141Y-85262979D01*
X30271327Y-85331663D01*
X30223413Y-85382516D01*
X30160775Y-85399500D01*
X28770297Y-85399500D01*
X28703258Y-85379815D01*
X28684377Y-85364908D01*
X28549056Y-85234865D01*
X28540060Y-85225250D01*
X28328501Y-84973595D01*
X28323539Y-84967692D01*
X28315623Y-84957191D01*
X28138830Y-84694748D01*
X28127626Y-84678116D01*
X28120860Y-84666820D01*
X27963527Y-84369403D01*
X27958000Y-84357463D01*
X27833077Y-84045006D01*
X27828851Y-84032553D01*
X27737773Y-83708636D01*
X27734887Y-83695790D01*
X27678670Y-83364049D01*
X27677162Y-83350968D01*
X27672981Y-83283218D01*
X27656438Y-83015128D01*
X27656327Y-83001962D01*
X27666854Y-82766145D01*
X27671332Y-82665816D01*
X27672617Y-82652715D01*
X27673428Y-82647382D01*
X27723181Y-82320059D01*
X27725848Y-82307170D01*
X27775648Y-82117748D01*
X27811402Y-81981747D01*
X27815415Y-81969226D01*
X27935005Y-81654681D01*
X27940318Y-81642671D01*
X28092582Y-81342590D01*
X28099140Y-81331207D01*
X28282366Y-81048963D01*
X28290099Y-81038334D01*
X28502222Y-80777108D01*
X28511022Y-80767376D01*
X28749660Y-80530105D01*
X28759452Y-80521352D01*
X29021896Y-80310729D01*
X29032560Y-80303066D01*
X29315851Y-80121465D01*
X29327283Y-80114966D01*
X29628235Y-79964427D01*
X29640270Y-79959187D01*
X29955499Y-79841405D01*
X29968033Y-79837467D01*
X30293963Y-79753778D01*
X30306837Y-79751192D01*
X30639814Y-79702534D01*
X30652900Y-79701328D01*
X30992269Y-79688133D01*
X31003574Y-79688208D01*
G37*
%TD.AperFunction*%
M02*
