%TF.GenerationSoftware,KiCad,Pcbnew,7.0.2*%
%TF.CreationDate,2023-07-30T22:12:35-04:00*%
%TF.ProjectId,CameraBoard,43616d65-7261-4426-9f61-72642e6b6963,rev?*%
%TF.SameCoordinates,Original*%
%TF.FileFunction,Legend,Top*%
%TF.FilePolarity,Positive*%
%FSLAX46Y46*%
G04 Gerber Fmt 4.6, Leading zero omitted, Abs format (unit mm)*
G04 Created by KiCad (PCBNEW 7.0.2) date 2023-07-30 22:12:35*
%MOMM*%
%LPD*%
G01*
G04 APERTURE LIST*
G04 Aperture macros list*
%AMRoundRect*
0 Rectangle with rounded corners*
0 $1 Rounding radius*
0 $2 $3 $4 $5 $6 $7 $8 $9 X,Y pos of 4 corners*
0 Add a 4 corners polygon primitive as box body*
4,1,4,$2,$3,$4,$5,$6,$7,$8,$9,$2,$3,0*
0 Add four circle primitives for the rounded corners*
1,1,$1+$1,$2,$3*
1,1,$1+$1,$4,$5*
1,1,$1+$1,$6,$7*
1,1,$1+$1,$8,$9*
0 Add four rect primitives between the rounded corners*
20,1,$1+$1,$2,$3,$4,$5,0*
20,1,$1+$1,$4,$5,$6,$7,0*
20,1,$1+$1,$6,$7,$8,$9,0*
20,1,$1+$1,$8,$9,$2,$3,0*%
G04 Aperture macros list end*
%ADD10C,0.150000*%
%ADD11C,0.254000*%
%ADD12C,0.120000*%
%ADD13C,0.200000*%
%ADD14C,0.100000*%
%ADD15C,0.127000*%
%ADD16R,0.300000X0.800000*%
%ADD17R,0.950000X1.000000*%
%ADD18R,1.000000X1.000000*%
%ADD19RoundRect,0.140000X-0.170000X0.140000X-0.170000X-0.140000X0.170000X-0.140000X0.170000X0.140000X0*%
%ADD20RoundRect,0.063500X0.400000X-0.800000X0.400000X0.800000X-0.400000X0.800000X-0.400000X-0.800000X0*%
%ADD21RoundRect,0.135000X0.135000X0.185000X-0.135000X0.185000X-0.135000X-0.185000X0.135000X-0.185000X0*%
%ADD22R,1.000000X1.050000*%
%ADD23R,1.050000X2.200000*%
%ADD24R,1.200000X0.230000*%
G04 APERTURE END LIST*
D10*
X44509523Y-111382380D02*
X44461904Y-111430000D01*
X44461904Y-111430000D02*
X44319047Y-111477619D01*
X44319047Y-111477619D02*
X44223809Y-111477619D01*
X44223809Y-111477619D02*
X44080952Y-111430000D01*
X44080952Y-111430000D02*
X43985714Y-111334761D01*
X43985714Y-111334761D02*
X43938095Y-111239523D01*
X43938095Y-111239523D02*
X43890476Y-111049047D01*
X43890476Y-111049047D02*
X43890476Y-110906190D01*
X43890476Y-110906190D02*
X43938095Y-110715714D01*
X43938095Y-110715714D02*
X43985714Y-110620476D01*
X43985714Y-110620476D02*
X44080952Y-110525238D01*
X44080952Y-110525238D02*
X44223809Y-110477619D01*
X44223809Y-110477619D02*
X44319047Y-110477619D01*
X44319047Y-110477619D02*
X44461904Y-110525238D01*
X44461904Y-110525238D02*
X44509523Y-110572857D01*
X45366666Y-111477619D02*
X45366666Y-110953809D01*
X45366666Y-110953809D02*
X45319047Y-110858571D01*
X45319047Y-110858571D02*
X45223809Y-110810952D01*
X45223809Y-110810952D02*
X45033333Y-110810952D01*
X45033333Y-110810952D02*
X44938095Y-110858571D01*
X45366666Y-111430000D02*
X45271428Y-111477619D01*
X45271428Y-111477619D02*
X45033333Y-111477619D01*
X45033333Y-111477619D02*
X44938095Y-111430000D01*
X44938095Y-111430000D02*
X44890476Y-111334761D01*
X44890476Y-111334761D02*
X44890476Y-111239523D01*
X44890476Y-111239523D02*
X44938095Y-111144285D01*
X44938095Y-111144285D02*
X45033333Y-111096666D01*
X45033333Y-111096666D02*
X45271428Y-111096666D01*
X45271428Y-111096666D02*
X45366666Y-111049047D01*
X45842857Y-111477619D02*
X45842857Y-110810952D01*
X45842857Y-110906190D02*
X45890476Y-110858571D01*
X45890476Y-110858571D02*
X45985714Y-110810952D01*
X45985714Y-110810952D02*
X46128571Y-110810952D01*
X46128571Y-110810952D02*
X46223809Y-110858571D01*
X46223809Y-110858571D02*
X46271428Y-110953809D01*
X46271428Y-110953809D02*
X46271428Y-111477619D01*
X46271428Y-110953809D02*
X46319047Y-110858571D01*
X46319047Y-110858571D02*
X46414285Y-110810952D01*
X46414285Y-110810952D02*
X46557142Y-110810952D01*
X46557142Y-110810952D02*
X46652381Y-110858571D01*
X46652381Y-110858571D02*
X46700000Y-110953809D01*
X46700000Y-110953809D02*
X46700000Y-111477619D01*
X47557142Y-111430000D02*
X47461904Y-111477619D01*
X47461904Y-111477619D02*
X47271428Y-111477619D01*
X47271428Y-111477619D02*
X47176190Y-111430000D01*
X47176190Y-111430000D02*
X47128571Y-111334761D01*
X47128571Y-111334761D02*
X47128571Y-110953809D01*
X47128571Y-110953809D02*
X47176190Y-110858571D01*
X47176190Y-110858571D02*
X47271428Y-110810952D01*
X47271428Y-110810952D02*
X47461904Y-110810952D01*
X47461904Y-110810952D02*
X47557142Y-110858571D01*
X47557142Y-110858571D02*
X47604761Y-110953809D01*
X47604761Y-110953809D02*
X47604761Y-111049047D01*
X47604761Y-111049047D02*
X47128571Y-111144285D01*
X48033333Y-111477619D02*
X48033333Y-110810952D01*
X48033333Y-111001428D02*
X48080952Y-110906190D01*
X48080952Y-110906190D02*
X48128571Y-110858571D01*
X48128571Y-110858571D02*
X48223809Y-110810952D01*
X48223809Y-110810952D02*
X48319047Y-110810952D01*
X49080952Y-111477619D02*
X49080952Y-110953809D01*
X49080952Y-110953809D02*
X49033333Y-110858571D01*
X49033333Y-110858571D02*
X48938095Y-110810952D01*
X48938095Y-110810952D02*
X48747619Y-110810952D01*
X48747619Y-110810952D02*
X48652381Y-110858571D01*
X49080952Y-111430000D02*
X48985714Y-111477619D01*
X48985714Y-111477619D02*
X48747619Y-111477619D01*
X48747619Y-111477619D02*
X48652381Y-111430000D01*
X48652381Y-111430000D02*
X48604762Y-111334761D01*
X48604762Y-111334761D02*
X48604762Y-111239523D01*
X48604762Y-111239523D02*
X48652381Y-111144285D01*
X48652381Y-111144285D02*
X48747619Y-111096666D01*
X48747619Y-111096666D02*
X48985714Y-111096666D01*
X48985714Y-111096666D02*
X49080952Y-111049047D01*
X50652381Y-110953809D02*
X50795238Y-111001428D01*
X50795238Y-111001428D02*
X50842857Y-111049047D01*
X50842857Y-111049047D02*
X50890476Y-111144285D01*
X50890476Y-111144285D02*
X50890476Y-111287142D01*
X50890476Y-111287142D02*
X50842857Y-111382380D01*
X50842857Y-111382380D02*
X50795238Y-111430000D01*
X50795238Y-111430000D02*
X50700000Y-111477619D01*
X50700000Y-111477619D02*
X50319048Y-111477619D01*
X50319048Y-111477619D02*
X50319048Y-110477619D01*
X50319048Y-110477619D02*
X50652381Y-110477619D01*
X50652381Y-110477619D02*
X50747619Y-110525238D01*
X50747619Y-110525238D02*
X50795238Y-110572857D01*
X50795238Y-110572857D02*
X50842857Y-110668095D01*
X50842857Y-110668095D02*
X50842857Y-110763333D01*
X50842857Y-110763333D02*
X50795238Y-110858571D01*
X50795238Y-110858571D02*
X50747619Y-110906190D01*
X50747619Y-110906190D02*
X50652381Y-110953809D01*
X50652381Y-110953809D02*
X50319048Y-110953809D01*
X51461905Y-111477619D02*
X51366667Y-111430000D01*
X51366667Y-111430000D02*
X51319048Y-111382380D01*
X51319048Y-111382380D02*
X51271429Y-111287142D01*
X51271429Y-111287142D02*
X51271429Y-111001428D01*
X51271429Y-111001428D02*
X51319048Y-110906190D01*
X51319048Y-110906190D02*
X51366667Y-110858571D01*
X51366667Y-110858571D02*
X51461905Y-110810952D01*
X51461905Y-110810952D02*
X51604762Y-110810952D01*
X51604762Y-110810952D02*
X51700000Y-110858571D01*
X51700000Y-110858571D02*
X51747619Y-110906190D01*
X51747619Y-110906190D02*
X51795238Y-111001428D01*
X51795238Y-111001428D02*
X51795238Y-111287142D01*
X51795238Y-111287142D02*
X51747619Y-111382380D01*
X51747619Y-111382380D02*
X51700000Y-111430000D01*
X51700000Y-111430000D02*
X51604762Y-111477619D01*
X51604762Y-111477619D02*
X51461905Y-111477619D01*
X52652381Y-111477619D02*
X52652381Y-110953809D01*
X52652381Y-110953809D02*
X52604762Y-110858571D01*
X52604762Y-110858571D02*
X52509524Y-110810952D01*
X52509524Y-110810952D02*
X52319048Y-110810952D01*
X52319048Y-110810952D02*
X52223810Y-110858571D01*
X52652381Y-111430000D02*
X52557143Y-111477619D01*
X52557143Y-111477619D02*
X52319048Y-111477619D01*
X52319048Y-111477619D02*
X52223810Y-111430000D01*
X52223810Y-111430000D02*
X52176191Y-111334761D01*
X52176191Y-111334761D02*
X52176191Y-111239523D01*
X52176191Y-111239523D02*
X52223810Y-111144285D01*
X52223810Y-111144285D02*
X52319048Y-111096666D01*
X52319048Y-111096666D02*
X52557143Y-111096666D01*
X52557143Y-111096666D02*
X52652381Y-111049047D01*
X53128572Y-111477619D02*
X53128572Y-110810952D01*
X53128572Y-111001428D02*
X53176191Y-110906190D01*
X53176191Y-110906190D02*
X53223810Y-110858571D01*
X53223810Y-110858571D02*
X53319048Y-110810952D01*
X53319048Y-110810952D02*
X53414286Y-110810952D01*
X54176191Y-111477619D02*
X54176191Y-110477619D01*
X54176191Y-111430000D02*
X54080953Y-111477619D01*
X54080953Y-111477619D02*
X53890477Y-111477619D01*
X53890477Y-111477619D02*
X53795239Y-111430000D01*
X53795239Y-111430000D02*
X53747620Y-111382380D01*
X53747620Y-111382380D02*
X53700001Y-111287142D01*
X53700001Y-111287142D02*
X53700001Y-111001428D01*
X53700001Y-111001428D02*
X53747620Y-110906190D01*
X53747620Y-110906190D02*
X53795239Y-110858571D01*
X53795239Y-110858571D02*
X53890477Y-110810952D01*
X53890477Y-110810952D02*
X54080953Y-110810952D01*
X54080953Y-110810952D02*
X54176191Y-110858571D01*
X55985715Y-111477619D02*
X55652382Y-111001428D01*
X55414287Y-111477619D02*
X55414287Y-110477619D01*
X55414287Y-110477619D02*
X55795239Y-110477619D01*
X55795239Y-110477619D02*
X55890477Y-110525238D01*
X55890477Y-110525238D02*
X55938096Y-110572857D01*
X55938096Y-110572857D02*
X55985715Y-110668095D01*
X55985715Y-110668095D02*
X55985715Y-110810952D01*
X55985715Y-110810952D02*
X55938096Y-110906190D01*
X55938096Y-110906190D02*
X55890477Y-110953809D01*
X55890477Y-110953809D02*
X55795239Y-111001428D01*
X55795239Y-111001428D02*
X55414287Y-111001428D01*
X56795239Y-111430000D02*
X56700001Y-111477619D01*
X56700001Y-111477619D02*
X56509525Y-111477619D01*
X56509525Y-111477619D02*
X56414287Y-111430000D01*
X56414287Y-111430000D02*
X56366668Y-111334761D01*
X56366668Y-111334761D02*
X56366668Y-110953809D01*
X56366668Y-110953809D02*
X56414287Y-110858571D01*
X56414287Y-110858571D02*
X56509525Y-110810952D01*
X56509525Y-110810952D02*
X56700001Y-110810952D01*
X56700001Y-110810952D02*
X56795239Y-110858571D01*
X56795239Y-110858571D02*
X56842858Y-110953809D01*
X56842858Y-110953809D02*
X56842858Y-111049047D01*
X56842858Y-111049047D02*
X56366668Y-111144285D01*
X57176192Y-110810952D02*
X57414287Y-111477619D01*
X57414287Y-111477619D02*
X57652382Y-110810952D01*
X58223811Y-110477619D02*
X58319049Y-110477619D01*
X58319049Y-110477619D02*
X58414287Y-110525238D01*
X58414287Y-110525238D02*
X58461906Y-110572857D01*
X58461906Y-110572857D02*
X58509525Y-110668095D01*
X58509525Y-110668095D02*
X58557144Y-110858571D01*
X58557144Y-110858571D02*
X58557144Y-111096666D01*
X58557144Y-111096666D02*
X58509525Y-111287142D01*
X58509525Y-111287142D02*
X58461906Y-111382380D01*
X58461906Y-111382380D02*
X58414287Y-111430000D01*
X58414287Y-111430000D02*
X58319049Y-111477619D01*
X58319049Y-111477619D02*
X58223811Y-111477619D01*
X58223811Y-111477619D02*
X58128573Y-111430000D01*
X58128573Y-111430000D02*
X58080954Y-111382380D01*
X58080954Y-111382380D02*
X58033335Y-111287142D01*
X58033335Y-111287142D02*
X57985716Y-111096666D01*
X57985716Y-111096666D02*
X57985716Y-110858571D01*
X57985716Y-110858571D02*
X58033335Y-110668095D01*
X58033335Y-110668095D02*
X58080954Y-110572857D01*
X58080954Y-110572857D02*
X58128573Y-110525238D01*
X58128573Y-110525238D02*
X58223811Y-110477619D01*
X34692857Y-112977619D02*
X34930952Y-113977619D01*
X34930952Y-113977619D02*
X35121428Y-113263333D01*
X35121428Y-113263333D02*
X35311904Y-113977619D01*
X35311904Y-113977619D02*
X35550000Y-112977619D01*
X35930952Y-113977619D02*
X35930952Y-112977619D01*
X36264285Y-112977619D02*
X36835713Y-112977619D01*
X36549999Y-113977619D02*
X36549999Y-112977619D01*
X37930952Y-113977619D02*
X37930952Y-112977619D01*
X37930952Y-112977619D02*
X38311904Y-112977619D01*
X38311904Y-112977619D02*
X38407142Y-113025238D01*
X38407142Y-113025238D02*
X38454761Y-113072857D01*
X38454761Y-113072857D02*
X38502380Y-113168095D01*
X38502380Y-113168095D02*
X38502380Y-113310952D01*
X38502380Y-113310952D02*
X38454761Y-113406190D01*
X38454761Y-113406190D02*
X38407142Y-113453809D01*
X38407142Y-113453809D02*
X38311904Y-113501428D01*
X38311904Y-113501428D02*
X37930952Y-113501428D01*
X38930952Y-113977619D02*
X38930952Y-113310952D01*
X38930952Y-112977619D02*
X38883333Y-113025238D01*
X38883333Y-113025238D02*
X38930952Y-113072857D01*
X38930952Y-113072857D02*
X38978571Y-113025238D01*
X38978571Y-113025238D02*
X38930952Y-112977619D01*
X38930952Y-112977619D02*
X38930952Y-113072857D01*
X39835713Y-113930000D02*
X39740475Y-113977619D01*
X39740475Y-113977619D02*
X39549999Y-113977619D01*
X39549999Y-113977619D02*
X39454761Y-113930000D01*
X39454761Y-113930000D02*
X39407142Y-113882380D01*
X39407142Y-113882380D02*
X39359523Y-113787142D01*
X39359523Y-113787142D02*
X39359523Y-113501428D01*
X39359523Y-113501428D02*
X39407142Y-113406190D01*
X39407142Y-113406190D02*
X39454761Y-113358571D01*
X39454761Y-113358571D02*
X39549999Y-113310952D01*
X39549999Y-113310952D02*
X39740475Y-113310952D01*
X39740475Y-113310952D02*
X39835713Y-113358571D01*
X40407142Y-113977619D02*
X40311904Y-113930000D01*
X40311904Y-113930000D02*
X40264285Y-113882380D01*
X40264285Y-113882380D02*
X40216666Y-113787142D01*
X40216666Y-113787142D02*
X40216666Y-113501428D01*
X40216666Y-113501428D02*
X40264285Y-113406190D01*
X40264285Y-113406190D02*
X40311904Y-113358571D01*
X40311904Y-113358571D02*
X40407142Y-113310952D01*
X40407142Y-113310952D02*
X40549999Y-113310952D01*
X40549999Y-113310952D02*
X40645237Y-113358571D01*
X40645237Y-113358571D02*
X40692856Y-113406190D01*
X40692856Y-113406190D02*
X40740475Y-113501428D01*
X40740475Y-113501428D02*
X40740475Y-113787142D01*
X40740475Y-113787142D02*
X40692856Y-113882380D01*
X40692856Y-113882380D02*
X40645237Y-113930000D01*
X40645237Y-113930000D02*
X40549999Y-113977619D01*
X40549999Y-113977619D02*
X40407142Y-113977619D01*
X41121428Y-113930000D02*
X41264285Y-113977619D01*
X41264285Y-113977619D02*
X41502380Y-113977619D01*
X41502380Y-113977619D02*
X41597618Y-113930000D01*
X41597618Y-113930000D02*
X41645237Y-113882380D01*
X41645237Y-113882380D02*
X41692856Y-113787142D01*
X41692856Y-113787142D02*
X41692856Y-113691904D01*
X41692856Y-113691904D02*
X41645237Y-113596666D01*
X41645237Y-113596666D02*
X41597618Y-113549047D01*
X41597618Y-113549047D02*
X41502380Y-113501428D01*
X41502380Y-113501428D02*
X41311904Y-113453809D01*
X41311904Y-113453809D02*
X41216666Y-113406190D01*
X41216666Y-113406190D02*
X41169047Y-113358571D01*
X41169047Y-113358571D02*
X41121428Y-113263333D01*
X41121428Y-113263333D02*
X41121428Y-113168095D01*
X41121428Y-113168095D02*
X41169047Y-113072857D01*
X41169047Y-113072857D02*
X41216666Y-113025238D01*
X41216666Y-113025238D02*
X41311904Y-112977619D01*
X41311904Y-112977619D02*
X41549999Y-112977619D01*
X41549999Y-112977619D02*
X41692856Y-113025238D01*
X42549999Y-113977619D02*
X42549999Y-113453809D01*
X42549999Y-113453809D02*
X42502380Y-113358571D01*
X42502380Y-113358571D02*
X42407142Y-113310952D01*
X42407142Y-113310952D02*
X42216666Y-113310952D01*
X42216666Y-113310952D02*
X42121428Y-113358571D01*
X42549999Y-113930000D02*
X42454761Y-113977619D01*
X42454761Y-113977619D02*
X42216666Y-113977619D01*
X42216666Y-113977619D02*
X42121428Y-113930000D01*
X42121428Y-113930000D02*
X42073809Y-113834761D01*
X42073809Y-113834761D02*
X42073809Y-113739523D01*
X42073809Y-113739523D02*
X42121428Y-113644285D01*
X42121428Y-113644285D02*
X42216666Y-113596666D01*
X42216666Y-113596666D02*
X42454761Y-113596666D01*
X42454761Y-113596666D02*
X42549999Y-113549047D01*
X42883333Y-113310952D02*
X43264285Y-113310952D01*
X43026190Y-112977619D02*
X43026190Y-113834761D01*
X43026190Y-113834761D02*
X43073809Y-113930000D01*
X43073809Y-113930000D02*
X43169047Y-113977619D01*
X43169047Y-113977619D02*
X43264285Y-113977619D01*
X32288095Y-95757619D02*
X32288095Y-94757619D01*
X32288095Y-94757619D02*
X32526190Y-94757619D01*
X32526190Y-94757619D02*
X32669047Y-94805238D01*
X32669047Y-94805238D02*
X32764285Y-94900476D01*
X32764285Y-94900476D02*
X32811904Y-94995714D01*
X32811904Y-94995714D02*
X32859523Y-95186190D01*
X32859523Y-95186190D02*
X32859523Y-95329047D01*
X32859523Y-95329047D02*
X32811904Y-95519523D01*
X32811904Y-95519523D02*
X32764285Y-95614761D01*
X32764285Y-95614761D02*
X32669047Y-95710000D01*
X32669047Y-95710000D02*
X32526190Y-95757619D01*
X32526190Y-95757619D02*
X32288095Y-95757619D01*
X33669047Y-95710000D02*
X33573809Y-95757619D01*
X33573809Y-95757619D02*
X33383333Y-95757619D01*
X33383333Y-95757619D02*
X33288095Y-95710000D01*
X33288095Y-95710000D02*
X33240476Y-95614761D01*
X33240476Y-95614761D02*
X33240476Y-95233809D01*
X33240476Y-95233809D02*
X33288095Y-95138571D01*
X33288095Y-95138571D02*
X33383333Y-95090952D01*
X33383333Y-95090952D02*
X33573809Y-95090952D01*
X33573809Y-95090952D02*
X33669047Y-95138571D01*
X33669047Y-95138571D02*
X33716666Y-95233809D01*
X33716666Y-95233809D02*
X33716666Y-95329047D01*
X33716666Y-95329047D02*
X33240476Y-95424285D01*
X34097619Y-95710000D02*
X34192857Y-95757619D01*
X34192857Y-95757619D02*
X34383333Y-95757619D01*
X34383333Y-95757619D02*
X34478571Y-95710000D01*
X34478571Y-95710000D02*
X34526190Y-95614761D01*
X34526190Y-95614761D02*
X34526190Y-95567142D01*
X34526190Y-95567142D02*
X34478571Y-95471904D01*
X34478571Y-95471904D02*
X34383333Y-95424285D01*
X34383333Y-95424285D02*
X34240476Y-95424285D01*
X34240476Y-95424285D02*
X34145238Y-95376666D01*
X34145238Y-95376666D02*
X34097619Y-95281428D01*
X34097619Y-95281428D02*
X34097619Y-95233809D01*
X34097619Y-95233809D02*
X34145238Y-95138571D01*
X34145238Y-95138571D02*
X34240476Y-95090952D01*
X34240476Y-95090952D02*
X34383333Y-95090952D01*
X34383333Y-95090952D02*
X34478571Y-95138571D01*
X34954762Y-95757619D02*
X34954762Y-95090952D01*
X34954762Y-94757619D02*
X34907143Y-94805238D01*
X34907143Y-94805238D02*
X34954762Y-94852857D01*
X34954762Y-94852857D02*
X35002381Y-94805238D01*
X35002381Y-94805238D02*
X34954762Y-94757619D01*
X34954762Y-94757619D02*
X34954762Y-94852857D01*
X35859523Y-95090952D02*
X35859523Y-95900476D01*
X35859523Y-95900476D02*
X35811904Y-95995714D01*
X35811904Y-95995714D02*
X35764285Y-96043333D01*
X35764285Y-96043333D02*
X35669047Y-96090952D01*
X35669047Y-96090952D02*
X35526190Y-96090952D01*
X35526190Y-96090952D02*
X35430952Y-96043333D01*
X35859523Y-95710000D02*
X35764285Y-95757619D01*
X35764285Y-95757619D02*
X35573809Y-95757619D01*
X35573809Y-95757619D02*
X35478571Y-95710000D01*
X35478571Y-95710000D02*
X35430952Y-95662380D01*
X35430952Y-95662380D02*
X35383333Y-95567142D01*
X35383333Y-95567142D02*
X35383333Y-95281428D01*
X35383333Y-95281428D02*
X35430952Y-95186190D01*
X35430952Y-95186190D02*
X35478571Y-95138571D01*
X35478571Y-95138571D02*
X35573809Y-95090952D01*
X35573809Y-95090952D02*
X35764285Y-95090952D01*
X35764285Y-95090952D02*
X35859523Y-95138571D01*
X36335714Y-95090952D02*
X36335714Y-95757619D01*
X36335714Y-95186190D02*
X36383333Y-95138571D01*
X36383333Y-95138571D02*
X36478571Y-95090952D01*
X36478571Y-95090952D02*
X36621428Y-95090952D01*
X36621428Y-95090952D02*
X36716666Y-95138571D01*
X36716666Y-95138571D02*
X36764285Y-95233809D01*
X36764285Y-95233809D02*
X36764285Y-95757619D01*
X37621428Y-95710000D02*
X37526190Y-95757619D01*
X37526190Y-95757619D02*
X37335714Y-95757619D01*
X37335714Y-95757619D02*
X37240476Y-95710000D01*
X37240476Y-95710000D02*
X37192857Y-95614761D01*
X37192857Y-95614761D02*
X37192857Y-95233809D01*
X37192857Y-95233809D02*
X37240476Y-95138571D01*
X37240476Y-95138571D02*
X37335714Y-95090952D01*
X37335714Y-95090952D02*
X37526190Y-95090952D01*
X37526190Y-95090952D02*
X37621428Y-95138571D01*
X37621428Y-95138571D02*
X37669047Y-95233809D01*
X37669047Y-95233809D02*
X37669047Y-95329047D01*
X37669047Y-95329047D02*
X37192857Y-95424285D01*
X38526190Y-95757619D02*
X38526190Y-94757619D01*
X38526190Y-95710000D02*
X38430952Y-95757619D01*
X38430952Y-95757619D02*
X38240476Y-95757619D01*
X38240476Y-95757619D02*
X38145238Y-95710000D01*
X38145238Y-95710000D02*
X38097619Y-95662380D01*
X38097619Y-95662380D02*
X38050000Y-95567142D01*
X38050000Y-95567142D02*
X38050000Y-95281428D01*
X38050000Y-95281428D02*
X38097619Y-95186190D01*
X38097619Y-95186190D02*
X38145238Y-95138571D01*
X38145238Y-95138571D02*
X38240476Y-95090952D01*
X38240476Y-95090952D02*
X38430952Y-95090952D01*
X38430952Y-95090952D02*
X38526190Y-95138571D01*
X39764286Y-95757619D02*
X39764286Y-94757619D01*
X39764286Y-95138571D02*
X39859524Y-95090952D01*
X39859524Y-95090952D02*
X40050000Y-95090952D01*
X40050000Y-95090952D02*
X40145238Y-95138571D01*
X40145238Y-95138571D02*
X40192857Y-95186190D01*
X40192857Y-95186190D02*
X40240476Y-95281428D01*
X40240476Y-95281428D02*
X40240476Y-95567142D01*
X40240476Y-95567142D02*
X40192857Y-95662380D01*
X40192857Y-95662380D02*
X40145238Y-95710000D01*
X40145238Y-95710000D02*
X40050000Y-95757619D01*
X40050000Y-95757619D02*
X39859524Y-95757619D01*
X39859524Y-95757619D02*
X39764286Y-95710000D01*
X40573810Y-95090952D02*
X40811905Y-95757619D01*
X41050000Y-95090952D02*
X40811905Y-95757619D01*
X40811905Y-95757619D02*
X40716667Y-95995714D01*
X40716667Y-95995714D02*
X40669048Y-96043333D01*
X40669048Y-96043333D02*
X40573810Y-96090952D01*
X41430953Y-95662380D02*
X41478572Y-95710000D01*
X41478572Y-95710000D02*
X41430953Y-95757619D01*
X41430953Y-95757619D02*
X41383334Y-95710000D01*
X41383334Y-95710000D02*
X41430953Y-95662380D01*
X41430953Y-95662380D02*
X41430953Y-95757619D01*
X41430953Y-95138571D02*
X41478572Y-95186190D01*
X41478572Y-95186190D02*
X41430953Y-95233809D01*
X41430953Y-95233809D02*
X41383334Y-95186190D01*
X41383334Y-95186190D02*
X41430953Y-95138571D01*
X41430953Y-95138571D02*
X41430953Y-95233809D01*
X32288095Y-97377619D02*
X32288095Y-96377619D01*
X32859523Y-97377619D02*
X32430952Y-96806190D01*
X32859523Y-96377619D02*
X32288095Y-96949047D01*
X33288095Y-97377619D02*
X33288095Y-96710952D01*
X33288095Y-96377619D02*
X33240476Y-96425238D01*
X33240476Y-96425238D02*
X33288095Y-96472857D01*
X33288095Y-96472857D02*
X33335714Y-96425238D01*
X33335714Y-96425238D02*
X33288095Y-96377619D01*
X33288095Y-96377619D02*
X33288095Y-96472857D01*
X34145237Y-97330000D02*
X34049999Y-97377619D01*
X34049999Y-97377619D02*
X33859523Y-97377619D01*
X33859523Y-97377619D02*
X33764285Y-97330000D01*
X33764285Y-97330000D02*
X33716666Y-97234761D01*
X33716666Y-97234761D02*
X33716666Y-96853809D01*
X33716666Y-96853809D02*
X33764285Y-96758571D01*
X33764285Y-96758571D02*
X33859523Y-96710952D01*
X33859523Y-96710952D02*
X34049999Y-96710952D01*
X34049999Y-96710952D02*
X34145237Y-96758571D01*
X34145237Y-96758571D02*
X34192856Y-96853809D01*
X34192856Y-96853809D02*
X34192856Y-96949047D01*
X34192856Y-96949047D02*
X33716666Y-97044285D01*
X34621428Y-97377619D02*
X34621428Y-96710952D01*
X34621428Y-96901428D02*
X34669047Y-96806190D01*
X34669047Y-96806190D02*
X34716666Y-96758571D01*
X34716666Y-96758571D02*
X34811904Y-96710952D01*
X34811904Y-96710952D02*
X34907142Y-96710952D01*
X35669047Y-97377619D02*
X35669047Y-96853809D01*
X35669047Y-96853809D02*
X35621428Y-96758571D01*
X35621428Y-96758571D02*
X35526190Y-96710952D01*
X35526190Y-96710952D02*
X35335714Y-96710952D01*
X35335714Y-96710952D02*
X35240476Y-96758571D01*
X35669047Y-97330000D02*
X35573809Y-97377619D01*
X35573809Y-97377619D02*
X35335714Y-97377619D01*
X35335714Y-97377619D02*
X35240476Y-97330000D01*
X35240476Y-97330000D02*
X35192857Y-97234761D01*
X35192857Y-97234761D02*
X35192857Y-97139523D01*
X35192857Y-97139523D02*
X35240476Y-97044285D01*
X35240476Y-97044285D02*
X35335714Y-96996666D01*
X35335714Y-96996666D02*
X35573809Y-96996666D01*
X35573809Y-96996666D02*
X35669047Y-96949047D01*
X36145238Y-96710952D02*
X36145238Y-97377619D01*
X36145238Y-96806190D02*
X36192857Y-96758571D01*
X36192857Y-96758571D02*
X36288095Y-96710952D01*
X36288095Y-96710952D02*
X36430952Y-96710952D01*
X36430952Y-96710952D02*
X36526190Y-96758571D01*
X36526190Y-96758571D02*
X36573809Y-96853809D01*
X36573809Y-96853809D02*
X36573809Y-97377619D01*
X37764286Y-97330000D02*
X37907143Y-97377619D01*
X37907143Y-97377619D02*
X38145238Y-97377619D01*
X38145238Y-97377619D02*
X38240476Y-97330000D01*
X38240476Y-97330000D02*
X38288095Y-97282380D01*
X38288095Y-97282380D02*
X38335714Y-97187142D01*
X38335714Y-97187142D02*
X38335714Y-97091904D01*
X38335714Y-97091904D02*
X38288095Y-96996666D01*
X38288095Y-96996666D02*
X38240476Y-96949047D01*
X38240476Y-96949047D02*
X38145238Y-96901428D01*
X38145238Y-96901428D02*
X37954762Y-96853809D01*
X37954762Y-96853809D02*
X37859524Y-96806190D01*
X37859524Y-96806190D02*
X37811905Y-96758571D01*
X37811905Y-96758571D02*
X37764286Y-96663333D01*
X37764286Y-96663333D02*
X37764286Y-96568095D01*
X37764286Y-96568095D02*
X37811905Y-96472857D01*
X37811905Y-96472857D02*
X37859524Y-96425238D01*
X37859524Y-96425238D02*
X37954762Y-96377619D01*
X37954762Y-96377619D02*
X38192857Y-96377619D01*
X38192857Y-96377619D02*
X38335714Y-96425238D01*
X38764286Y-97377619D02*
X38764286Y-96377619D01*
X39192857Y-97377619D02*
X39192857Y-96853809D01*
X39192857Y-96853809D02*
X39145238Y-96758571D01*
X39145238Y-96758571D02*
X39050000Y-96710952D01*
X39050000Y-96710952D02*
X38907143Y-96710952D01*
X38907143Y-96710952D02*
X38811905Y-96758571D01*
X38811905Y-96758571D02*
X38764286Y-96806190D01*
X40097619Y-97377619D02*
X40097619Y-96853809D01*
X40097619Y-96853809D02*
X40050000Y-96758571D01*
X40050000Y-96758571D02*
X39954762Y-96710952D01*
X39954762Y-96710952D02*
X39764286Y-96710952D01*
X39764286Y-96710952D02*
X39669048Y-96758571D01*
X40097619Y-97330000D02*
X40002381Y-97377619D01*
X40002381Y-97377619D02*
X39764286Y-97377619D01*
X39764286Y-97377619D02*
X39669048Y-97330000D01*
X39669048Y-97330000D02*
X39621429Y-97234761D01*
X39621429Y-97234761D02*
X39621429Y-97139523D01*
X39621429Y-97139523D02*
X39669048Y-97044285D01*
X39669048Y-97044285D02*
X39764286Y-96996666D01*
X39764286Y-96996666D02*
X40002381Y-96996666D01*
X40002381Y-96996666D02*
X40097619Y-96949047D01*
X40573810Y-96710952D02*
X40573810Y-97377619D01*
X40573810Y-96806190D02*
X40621429Y-96758571D01*
X40621429Y-96758571D02*
X40716667Y-96710952D01*
X40716667Y-96710952D02*
X40859524Y-96710952D01*
X40859524Y-96710952D02*
X40954762Y-96758571D01*
X40954762Y-96758571D02*
X41002381Y-96853809D01*
X41002381Y-96853809D02*
X41002381Y-97377619D01*
X41621429Y-97377619D02*
X41526191Y-97330000D01*
X41526191Y-97330000D02*
X41478572Y-97234761D01*
X41478572Y-97234761D02*
X41478572Y-96377619D01*
X42383334Y-97330000D02*
X42288096Y-97377619D01*
X42288096Y-97377619D02*
X42097620Y-97377619D01*
X42097620Y-97377619D02*
X42002382Y-97330000D01*
X42002382Y-97330000D02*
X41954763Y-97234761D01*
X41954763Y-97234761D02*
X41954763Y-96853809D01*
X41954763Y-96853809D02*
X42002382Y-96758571D01*
X42002382Y-96758571D02*
X42097620Y-96710952D01*
X42097620Y-96710952D02*
X42288096Y-96710952D01*
X42288096Y-96710952D02*
X42383334Y-96758571D01*
X42383334Y-96758571D02*
X42430953Y-96853809D01*
X42430953Y-96853809D02*
X42430953Y-96949047D01*
X42430953Y-96949047D02*
X41954763Y-97044285D01*
X42764287Y-96710952D02*
X43002382Y-97377619D01*
X43240477Y-96710952D02*
X43002382Y-97377619D01*
X43002382Y-97377619D02*
X42907144Y-97615714D01*
X42907144Y-97615714D02*
X42859525Y-97663333D01*
X42859525Y-97663333D02*
X42764287Y-97710952D01*
D11*
X47251667Y-84542526D02*
X47251667Y-85449669D01*
X47251667Y-85449669D02*
X47191190Y-85631097D01*
X47191190Y-85631097D02*
X47070238Y-85752050D01*
X47070238Y-85752050D02*
X46888809Y-85812526D01*
X46888809Y-85812526D02*
X46767857Y-85812526D01*
X48400714Y-84965859D02*
X48400714Y-85812526D01*
X48098333Y-84482050D02*
X47795952Y-85389192D01*
X47795952Y-85389192D02*
X48582143Y-85389192D01*
D10*
X42767380Y-111386666D02*
X42815000Y-111434285D01*
X42815000Y-111434285D02*
X42862619Y-111577142D01*
X42862619Y-111577142D02*
X42862619Y-111672380D01*
X42862619Y-111672380D02*
X42815000Y-111815237D01*
X42815000Y-111815237D02*
X42719761Y-111910475D01*
X42719761Y-111910475D02*
X42624523Y-111958094D01*
X42624523Y-111958094D02*
X42434047Y-112005713D01*
X42434047Y-112005713D02*
X42291190Y-112005713D01*
X42291190Y-112005713D02*
X42100714Y-111958094D01*
X42100714Y-111958094D02*
X42005476Y-111910475D01*
X42005476Y-111910475D02*
X41910238Y-111815237D01*
X41910238Y-111815237D02*
X41862619Y-111672380D01*
X41862619Y-111672380D02*
X41862619Y-111577142D01*
X41862619Y-111577142D02*
X41910238Y-111434285D01*
X41910238Y-111434285D02*
X41957857Y-111386666D01*
X42862619Y-110910475D02*
X42862619Y-110719999D01*
X42862619Y-110719999D02*
X42815000Y-110624761D01*
X42815000Y-110624761D02*
X42767380Y-110577142D01*
X42767380Y-110577142D02*
X42624523Y-110481904D01*
X42624523Y-110481904D02*
X42434047Y-110434285D01*
X42434047Y-110434285D02*
X42053095Y-110434285D01*
X42053095Y-110434285D02*
X41957857Y-110481904D01*
X41957857Y-110481904D02*
X41910238Y-110529523D01*
X41910238Y-110529523D02*
X41862619Y-110624761D01*
X41862619Y-110624761D02*
X41862619Y-110815237D01*
X41862619Y-110815237D02*
X41910238Y-110910475D01*
X41910238Y-110910475D02*
X41957857Y-110958094D01*
X41957857Y-110958094D02*
X42053095Y-111005713D01*
X42053095Y-111005713D02*
X42291190Y-111005713D01*
X42291190Y-111005713D02*
X42386428Y-110958094D01*
X42386428Y-110958094D02*
X42434047Y-110910475D01*
X42434047Y-110910475D02*
X42481666Y-110815237D01*
X42481666Y-110815237D02*
X42481666Y-110624761D01*
X42481666Y-110624761D02*
X42434047Y-110529523D01*
X42434047Y-110529523D02*
X42386428Y-110481904D01*
X42386428Y-110481904D02*
X42291190Y-110434285D01*
D12*
X30942175Y-103966666D02*
X31395509Y-103966666D01*
X31395509Y-103966666D02*
X31448842Y-103940000D01*
X31448842Y-103940000D02*
X31475509Y-103913333D01*
X31475509Y-103913333D02*
X31502175Y-103860000D01*
X31502175Y-103860000D02*
X31502175Y-103753333D01*
X31502175Y-103753333D02*
X31475509Y-103700000D01*
X31475509Y-103700000D02*
X31448842Y-103673333D01*
X31448842Y-103673333D02*
X31395509Y-103646666D01*
X31395509Y-103646666D02*
X30942175Y-103646666D01*
X30942175Y-103433333D02*
X30942175Y-103086666D01*
X30942175Y-103086666D02*
X31155509Y-103273333D01*
X31155509Y-103273333D02*
X31155509Y-103193333D01*
X31155509Y-103193333D02*
X31182175Y-103139999D01*
X31182175Y-103139999D02*
X31208842Y-103113333D01*
X31208842Y-103113333D02*
X31262175Y-103086666D01*
X31262175Y-103086666D02*
X31395509Y-103086666D01*
X31395509Y-103086666D02*
X31448842Y-103113333D01*
X31448842Y-103113333D02*
X31475509Y-103139999D01*
X31475509Y-103139999D02*
X31502175Y-103193333D01*
X31502175Y-103193333D02*
X31502175Y-103353333D01*
X31502175Y-103353333D02*
X31475509Y-103406666D01*
X31475509Y-103406666D02*
X31448842Y-103433333D01*
D10*
X41467380Y-111286666D02*
X41515000Y-111334285D01*
X41515000Y-111334285D02*
X41562619Y-111477142D01*
X41562619Y-111477142D02*
X41562619Y-111572380D01*
X41562619Y-111572380D02*
X41515000Y-111715237D01*
X41515000Y-111715237D02*
X41419761Y-111810475D01*
X41419761Y-111810475D02*
X41324523Y-111858094D01*
X41324523Y-111858094D02*
X41134047Y-111905713D01*
X41134047Y-111905713D02*
X40991190Y-111905713D01*
X40991190Y-111905713D02*
X40800714Y-111858094D01*
X40800714Y-111858094D02*
X40705476Y-111810475D01*
X40705476Y-111810475D02*
X40610238Y-111715237D01*
X40610238Y-111715237D02*
X40562619Y-111572380D01*
X40562619Y-111572380D02*
X40562619Y-111477142D01*
X40562619Y-111477142D02*
X40610238Y-111334285D01*
X40610238Y-111334285D02*
X40657857Y-111286666D01*
X40991190Y-110715237D02*
X40943571Y-110810475D01*
X40943571Y-110810475D02*
X40895952Y-110858094D01*
X40895952Y-110858094D02*
X40800714Y-110905713D01*
X40800714Y-110905713D02*
X40753095Y-110905713D01*
X40753095Y-110905713D02*
X40657857Y-110858094D01*
X40657857Y-110858094D02*
X40610238Y-110810475D01*
X40610238Y-110810475D02*
X40562619Y-110715237D01*
X40562619Y-110715237D02*
X40562619Y-110524761D01*
X40562619Y-110524761D02*
X40610238Y-110429523D01*
X40610238Y-110429523D02*
X40657857Y-110381904D01*
X40657857Y-110381904D02*
X40753095Y-110334285D01*
X40753095Y-110334285D02*
X40800714Y-110334285D01*
X40800714Y-110334285D02*
X40895952Y-110381904D01*
X40895952Y-110381904D02*
X40943571Y-110429523D01*
X40943571Y-110429523D02*
X40991190Y-110524761D01*
X40991190Y-110524761D02*
X40991190Y-110715237D01*
X40991190Y-110715237D02*
X41038809Y-110810475D01*
X41038809Y-110810475D02*
X41086428Y-110858094D01*
X41086428Y-110858094D02*
X41181666Y-110905713D01*
X41181666Y-110905713D02*
X41372142Y-110905713D01*
X41372142Y-110905713D02*
X41467380Y-110858094D01*
X41467380Y-110858094D02*
X41515000Y-110810475D01*
X41515000Y-110810475D02*
X41562619Y-110715237D01*
X41562619Y-110715237D02*
X41562619Y-110524761D01*
X41562619Y-110524761D02*
X41515000Y-110429523D01*
X41515000Y-110429523D02*
X41467380Y-110381904D01*
X41467380Y-110381904D02*
X41372142Y-110334285D01*
X41372142Y-110334285D02*
X41181666Y-110334285D01*
X41181666Y-110334285D02*
X41086428Y-110381904D01*
X41086428Y-110381904D02*
X41038809Y-110429523D01*
X41038809Y-110429523D02*
X40991190Y-110524761D01*
X39623333Y-91862619D02*
X39290000Y-91386428D01*
X39051905Y-91862619D02*
X39051905Y-90862619D01*
X39051905Y-90862619D02*
X39432857Y-90862619D01*
X39432857Y-90862619D02*
X39528095Y-90910238D01*
X39528095Y-90910238D02*
X39575714Y-90957857D01*
X39575714Y-90957857D02*
X39623333Y-91053095D01*
X39623333Y-91053095D02*
X39623333Y-91195952D01*
X39623333Y-91195952D02*
X39575714Y-91291190D01*
X39575714Y-91291190D02*
X39528095Y-91338809D01*
X39528095Y-91338809D02*
X39432857Y-91386428D01*
X39432857Y-91386428D02*
X39051905Y-91386428D01*
X39956667Y-90862619D02*
X40575714Y-90862619D01*
X40575714Y-90862619D02*
X40242381Y-91243571D01*
X40242381Y-91243571D02*
X40385238Y-91243571D01*
X40385238Y-91243571D02*
X40480476Y-91291190D01*
X40480476Y-91291190D02*
X40528095Y-91338809D01*
X40528095Y-91338809D02*
X40575714Y-91434047D01*
X40575714Y-91434047D02*
X40575714Y-91672142D01*
X40575714Y-91672142D02*
X40528095Y-91767380D01*
X40528095Y-91767380D02*
X40480476Y-91815000D01*
X40480476Y-91815000D02*
X40385238Y-91862619D01*
X40385238Y-91862619D02*
X40099524Y-91862619D01*
X40099524Y-91862619D02*
X40004286Y-91815000D01*
X40004286Y-91815000D02*
X39956667Y-91767380D01*
D11*
X33051667Y-88492526D02*
X33051667Y-89399669D01*
X33051667Y-89399669D02*
X32991190Y-89581097D01*
X32991190Y-89581097D02*
X32870238Y-89702050D01*
X32870238Y-89702050D02*
X32688809Y-89762526D01*
X32688809Y-89762526D02*
X32567857Y-89762526D01*
X33595952Y-88613478D02*
X33656428Y-88553002D01*
X33656428Y-88553002D02*
X33777381Y-88492526D01*
X33777381Y-88492526D02*
X34079762Y-88492526D01*
X34079762Y-88492526D02*
X34200714Y-88553002D01*
X34200714Y-88553002D02*
X34261190Y-88613478D01*
X34261190Y-88613478D02*
X34321667Y-88734430D01*
X34321667Y-88734430D02*
X34321667Y-88855383D01*
X34321667Y-88855383D02*
X34261190Y-89036811D01*
X34261190Y-89036811D02*
X33535476Y-89762526D01*
X33535476Y-89762526D02*
X34321667Y-89762526D01*
D10*
X55766666Y-94162619D02*
X55766666Y-94876904D01*
X55766666Y-94876904D02*
X55719047Y-95019761D01*
X55719047Y-95019761D02*
X55623809Y-95115000D01*
X55623809Y-95115000D02*
X55480952Y-95162619D01*
X55480952Y-95162619D02*
X55385714Y-95162619D01*
X56766666Y-95162619D02*
X56195238Y-95162619D01*
X56480952Y-95162619D02*
X56480952Y-94162619D01*
X56480952Y-94162619D02*
X56385714Y-94305476D01*
X56385714Y-94305476D02*
X56290476Y-94400714D01*
X56290476Y-94400714D02*
X56195238Y-94448333D01*
D13*
X54925000Y-86650000D02*
X53875000Y-86650000D01*
X54925000Y-84825000D02*
X54925000Y-86650000D01*
X53875000Y-83250000D02*
X41475000Y-83250000D01*
D14*
X53425000Y-87750000D02*
X53425000Y-87750000D01*
X53425000Y-87650000D02*
X53425000Y-87650000D01*
D13*
X40425000Y-86650000D02*
X41475000Y-86650000D01*
X40425000Y-84825000D02*
X40425000Y-86650000D01*
D14*
X53425000Y-87650000D02*
G75*
G03*
X53425000Y-87750000I0J-50000D01*
G01*
X53425000Y-87750000D02*
G75*
G03*
X53425000Y-87650000I0J50000D01*
G01*
D12*
X37100000Y-89100000D02*
X38500000Y-89100000D01*
X37100000Y-90500000D02*
X37100000Y-89100000D01*
X38500000Y-89100000D02*
X38500000Y-90500000D01*
X38500000Y-90500000D02*
X37100000Y-90500000D01*
X42760000Y-108812164D02*
X42760000Y-109027836D01*
X42040000Y-108812164D02*
X42040000Y-109027836D01*
D15*
X30500000Y-105200000D02*
X30950000Y-105200000D01*
X30500000Y-105200000D02*
X30500000Y-104600000D01*
X46500000Y-105200000D02*
X46050000Y-105200000D01*
X46500000Y-105200000D02*
X46500000Y-104600000D01*
X30500000Y-93000000D02*
X30500000Y-93600000D01*
X30500000Y-93000000D02*
X30950000Y-93000000D01*
X46500000Y-93000000D02*
X46500000Y-93600000D01*
X46500000Y-93000000D02*
X46050000Y-93000000D01*
X47241418Y-92900000D02*
G75*
G03*
X47241418Y-92900000I-141418J0D01*
G01*
D12*
X41660000Y-108812164D02*
X41660000Y-109027836D01*
X40940000Y-108812164D02*
X40940000Y-109027836D01*
X37853641Y-91780000D02*
X37546359Y-91780000D01*
X37853641Y-91020000D02*
X37546359Y-91020000D01*
D14*
X32175000Y-87500000D02*
X34775000Y-87500000D01*
D13*
X33375000Y-91300000D02*
X33375000Y-91300000D01*
X33575000Y-91300000D02*
X33575000Y-91300000D01*
X33575000Y-91300000D02*
G75*
G03*
X33375000Y-91300000I-100000J0D01*
G01*
X33375000Y-91300000D02*
G75*
G03*
X33575000Y-91300000I100000J0D01*
G01*
X58190000Y-95370000D02*
X58190000Y-96300000D01*
X57060000Y-95370000D02*
X58190000Y-95370000D01*
X55120000Y-95370000D02*
X55120000Y-96125000D01*
X53990000Y-95370000D02*
X55120000Y-95370000D01*
X56810000Y-95550000D02*
X56810000Y-96125000D01*
X55370000Y-95550000D02*
X56810000Y-95550000D01*
X57060000Y-96125000D02*
X57060000Y-95370000D01*
X56810000Y-96125000D02*
X57060000Y-96125000D01*
X55370000Y-96125000D02*
X55370000Y-95550000D01*
X55120000Y-96125000D02*
X55370000Y-96125000D01*
X53990000Y-96300000D02*
X53990000Y-95370000D01*
X58190000Y-104700000D02*
X58190000Y-104875000D01*
X53990000Y-104700000D02*
X53990000Y-104875000D01*
X58190000Y-104875000D02*
X57020000Y-104875000D01*
X57020000Y-104875000D02*
X57020000Y-105450000D01*
X55160000Y-104875000D02*
X53990000Y-104875000D01*
X56340000Y-105250000D02*
X55840000Y-105250000D01*
X55840000Y-105250000D02*
X55840000Y-105450000D01*
X57020000Y-105450000D02*
X56340000Y-105450000D01*
X56340000Y-105450000D02*
X56340000Y-105250000D01*
X55840000Y-105450000D02*
X55160000Y-105450000D01*
X55160000Y-105450000D02*
X55160000Y-104875000D01*
X59090000Y-96700000D02*
G75*
G03*
X59090000Y-96700000I-100000J0D01*
G01*
D12*
X38500000Y-87100000D02*
X38500000Y-88500000D01*
X37100000Y-87100000D02*
X38500000Y-87100000D01*
X38500000Y-88500000D02*
X37100000Y-88500000D01*
X37100000Y-88500000D02*
X37100000Y-87100000D01*
%LPC*%
D16*
X53425000Y-86800000D03*
X52925000Y-86800000D03*
X52425000Y-86800000D03*
X51925000Y-86800000D03*
X51425000Y-86800000D03*
X50925000Y-86800000D03*
X50425000Y-86800000D03*
X49925000Y-86800000D03*
X49425000Y-86800000D03*
X48925000Y-86800000D03*
X48425000Y-86800000D03*
X47925000Y-86800000D03*
X47425000Y-86800000D03*
X46925000Y-86800000D03*
X46425000Y-86800000D03*
X45925000Y-86800000D03*
X45425000Y-86800000D03*
X44925000Y-86800000D03*
X44425000Y-86800000D03*
X43925000Y-86800000D03*
X43425000Y-86800000D03*
X42925000Y-86800000D03*
X42425000Y-86800000D03*
X41925000Y-86800000D03*
D17*
X54650000Y-84100000D03*
X40700000Y-84100000D03*
D18*
X37800000Y-89800000D03*
D19*
X42400000Y-108440000D03*
X42400000Y-109400000D03*
D20*
X45500000Y-93000000D03*
X44400000Y-93000000D03*
X43300000Y-93000000D03*
X42200000Y-93000000D03*
X41100000Y-93000000D03*
X40000000Y-93000000D03*
X38900000Y-93000000D03*
X35900000Y-93000000D03*
X34800000Y-93000000D03*
X33700000Y-93000000D03*
X32600000Y-93000000D03*
X31500000Y-93000000D03*
X31500000Y-105200000D03*
X32600000Y-105200000D03*
X33700000Y-105200000D03*
X34800000Y-105200000D03*
X35900000Y-105200000D03*
X38900000Y-105200000D03*
X40000000Y-105200000D03*
X41100000Y-105200000D03*
X42200000Y-105200000D03*
X43300000Y-105200000D03*
X44400000Y-105200000D03*
X45500000Y-105200000D03*
D19*
X41300000Y-108440000D03*
X41300000Y-109400000D03*
D21*
X38210000Y-91400000D03*
X37190000Y-91400000D03*
D22*
X33475000Y-90325000D03*
D23*
X32000000Y-88800000D03*
X34950000Y-88800000D03*
D24*
X57800000Y-96700000D03*
X54380000Y-96700000D03*
X57800000Y-97100000D03*
X54380000Y-97100000D03*
X57800000Y-97500000D03*
X54380000Y-97500000D03*
X57800000Y-97900000D03*
X54380000Y-97900000D03*
X57800000Y-98300000D03*
X54380000Y-98300000D03*
X57800000Y-98700000D03*
X54380000Y-98700000D03*
X57800000Y-99100000D03*
X54380000Y-99100000D03*
X57800000Y-99500000D03*
X54380000Y-99500000D03*
X57800000Y-99900000D03*
X54380000Y-99900000D03*
X57800000Y-100300000D03*
X54380000Y-100300000D03*
X57800000Y-100700000D03*
X54380000Y-100700000D03*
X57800000Y-101100000D03*
X54380000Y-101100000D03*
X57800000Y-101500000D03*
X54380000Y-101500000D03*
X57800000Y-101900000D03*
X54380000Y-101900000D03*
X57800000Y-102300000D03*
X54380000Y-102300000D03*
X57800000Y-102700000D03*
X54380000Y-102700000D03*
X57800000Y-103100000D03*
X54380000Y-103100000D03*
X57800000Y-103500000D03*
X54380000Y-103500000D03*
X57800000Y-103900000D03*
X54380000Y-103900000D03*
X57800000Y-104300000D03*
X54380000Y-104300000D03*
D18*
X37800000Y-87800000D03*
%LPD*%
M02*
