%TF.GenerationSoftware,KiCad,Pcbnew,7.0.2*%
%TF.CreationDate,2023-07-30T22:12:35-04:00*%
%TF.ProjectId,CameraBoard,43616d65-7261-4426-9f61-72642e6b6963,rev?*%
%TF.SameCoordinates,Original*%
%TF.FileFunction,Soldermask,Top*%
%TF.FilePolarity,Negative*%
%FSLAX46Y46*%
G04 Gerber Fmt 4.6, Leading zero omitted, Abs format (unit mm)*
G04 Created by KiCad (PCBNEW 7.0.2) date 2023-07-30 22:12:35*
%MOMM*%
%LPD*%
G01*
G04 APERTURE LIST*
G04 Aperture macros list*
%AMRoundRect*
0 Rectangle with rounded corners*
0 $1 Rounding radius*
0 $2 $3 $4 $5 $6 $7 $8 $9 X,Y pos of 4 corners*
0 Add a 4 corners polygon primitive as box body*
4,1,4,$2,$3,$4,$5,$6,$7,$8,$9,$2,$3,0*
0 Add four circle primitives for the rounded corners*
1,1,$1+$1,$2,$3*
1,1,$1+$1,$4,$5*
1,1,$1+$1,$6,$7*
1,1,$1+$1,$8,$9*
0 Add four rect primitives between the rounded corners*
20,1,$1+$1,$2,$3,$4,$5,0*
20,1,$1+$1,$4,$5,$6,$7,0*
20,1,$1+$1,$6,$7,$8,$9,0*
20,1,$1+$1,$8,$9,$2,$3,0*%
G04 Aperture macros list end*
%ADD10R,0.300000X0.800000*%
%ADD11R,0.950000X1.000000*%
%ADD12R,1.000000X1.000000*%
%ADD13RoundRect,0.140000X-0.170000X0.140000X-0.170000X-0.140000X0.170000X-0.140000X0.170000X0.140000X0*%
%ADD14RoundRect,0.063500X0.400000X-0.800000X0.400000X0.800000X-0.400000X0.800000X-0.400000X-0.800000X0*%
%ADD15RoundRect,0.135000X0.135000X0.185000X-0.135000X0.185000X-0.135000X-0.185000X0.135000X-0.185000X0*%
%ADD16R,1.000000X1.050000*%
%ADD17R,1.050000X2.200000*%
%ADD18R,1.200000X0.230000*%
G04 APERTURE END LIST*
D10*
X53425000Y-86800000D03*
X52925000Y-86800000D03*
X52425000Y-86800000D03*
X51925000Y-86800000D03*
X51425000Y-86800000D03*
X50925000Y-86800000D03*
X50425000Y-86800000D03*
X49925000Y-86800000D03*
X49425000Y-86800000D03*
X48925000Y-86800000D03*
X48425000Y-86800000D03*
X47925000Y-86800000D03*
X47425000Y-86800000D03*
X46925000Y-86800000D03*
X46425000Y-86800000D03*
X45925000Y-86800000D03*
X45425000Y-86800000D03*
X44925000Y-86800000D03*
X44425000Y-86800000D03*
X43925000Y-86800000D03*
X43425000Y-86800000D03*
X42925000Y-86800000D03*
X42425000Y-86800000D03*
X41925000Y-86800000D03*
D11*
X54650000Y-84100000D03*
X40700000Y-84100000D03*
D12*
X37800000Y-89800000D03*
D13*
X42400000Y-108440000D03*
X42400000Y-109400000D03*
D14*
X45500000Y-93000000D03*
X44400000Y-93000000D03*
X43300000Y-93000000D03*
X42200000Y-93000000D03*
X41100000Y-93000000D03*
X40000000Y-93000000D03*
X38900000Y-93000000D03*
X35900000Y-93000000D03*
X34800000Y-93000000D03*
X33700000Y-93000000D03*
X32600000Y-93000000D03*
X31500000Y-93000000D03*
X31500000Y-105200000D03*
X32600000Y-105200000D03*
X33700000Y-105200000D03*
X34800000Y-105200000D03*
X35900000Y-105200000D03*
X38900000Y-105200000D03*
X40000000Y-105200000D03*
X41100000Y-105200000D03*
X42200000Y-105200000D03*
X43300000Y-105200000D03*
X44400000Y-105200000D03*
X45500000Y-105200000D03*
D13*
X41300000Y-108440000D03*
X41300000Y-109400000D03*
D15*
X38210000Y-91400000D03*
X37190000Y-91400000D03*
D16*
X33475000Y-90325000D03*
D17*
X32000000Y-88800000D03*
X34950000Y-88800000D03*
D18*
X57800000Y-96700000D03*
X54380000Y-96700000D03*
X57800000Y-97100000D03*
X54380000Y-97100000D03*
X57800000Y-97500000D03*
X54380000Y-97500000D03*
X57800000Y-97900000D03*
X54380000Y-97900000D03*
X57800000Y-98300000D03*
X54380000Y-98300000D03*
X57800000Y-98700000D03*
X54380000Y-98700000D03*
X57800000Y-99100000D03*
X54380000Y-99100000D03*
X57800000Y-99500000D03*
X54380000Y-99500000D03*
X57800000Y-99900000D03*
X54380000Y-99900000D03*
X57800000Y-100300000D03*
X54380000Y-100300000D03*
X57800000Y-100700000D03*
X54380000Y-100700000D03*
X57800000Y-101100000D03*
X54380000Y-101100000D03*
X57800000Y-101500000D03*
X54380000Y-101500000D03*
X57800000Y-101900000D03*
X54380000Y-101900000D03*
X57800000Y-102300000D03*
X54380000Y-102300000D03*
X57800000Y-102700000D03*
X54380000Y-102700000D03*
X57800000Y-103100000D03*
X54380000Y-103100000D03*
X57800000Y-103500000D03*
X54380000Y-103500000D03*
X57800000Y-103900000D03*
X54380000Y-103900000D03*
X57800000Y-104300000D03*
X54380000Y-104300000D03*
D12*
X37800000Y-87800000D03*
M02*
