%TF.GenerationSoftware,KiCad,Pcbnew,7.0.2*%
%TF.CreationDate,2023-07-30T22:12:35-04:00*%
%TF.ProjectId,CameraBoard,43616d65-7261-4426-9f61-72642e6b6963,rev?*%
%TF.SameCoordinates,Original*%
%TF.FileFunction,Copper,L4,Bot*%
%TF.FilePolarity,Positive*%
%FSLAX46Y46*%
G04 Gerber Fmt 4.6, Leading zero omitted, Abs format (unit mm)*
G04 Created by KiCad (PCBNEW 7.0.2) date 2023-07-30 22:12:35*
%MOMM*%
%LPD*%
G01*
G04 APERTURE LIST*
G04 Aperture macros list*
%AMRoundRect*
0 Rectangle with rounded corners*
0 $1 Rounding radius*
0 $2 $3 $4 $5 $6 $7 $8 $9 X,Y pos of 4 corners*
0 Add a 4 corners polygon primitive as box body*
4,1,4,$2,$3,$4,$5,$6,$7,$8,$9,$2,$3,0*
0 Add four circle primitives for the rounded corners*
1,1,$1+$1,$2,$3*
1,1,$1+$1,$4,$5*
1,1,$1+$1,$6,$7*
1,1,$1+$1,$8,$9*
0 Add four rect primitives between the rounded corners*
20,1,$1+$1,$2,$3,$4,$5,0*
20,1,$1+$1,$4,$5,$6,$7,0*
20,1,$1+$1,$6,$7,$8,$9,0*
20,1,$1+$1,$8,$9,$2,$3,0*%
G04 Aperture macros list end*
%TA.AperFunction,SMDPad,CuDef*%
%ADD10R,1.000000X1.000000*%
%TD*%
%TA.AperFunction,SMDPad,CuDef*%
%ADD11RoundRect,0.135000X0.135000X0.185000X-0.135000X0.185000X-0.135000X-0.185000X0.135000X-0.185000X0*%
%TD*%
%TA.AperFunction,SMDPad,CuDef*%
%ADD12R,1.600000X0.450000*%
%TD*%
%TA.AperFunction,SMDPad,CuDef*%
%ADD13R,1.000000X0.450000*%
%TD*%
%TA.AperFunction,SMDPad,CuDef*%
%ADD14O,1.000000X0.450000*%
%TD*%
%TA.AperFunction,SMDPad,CuDef*%
%ADD15O,0.450000X1.000000*%
%TD*%
%TA.AperFunction,SMDPad,CuDef*%
%ADD16R,0.450000X1.000000*%
%TD*%
%TA.AperFunction,SMDPad,CuDef*%
%ADD17RoundRect,0.140000X-0.140000X-0.170000X0.140000X-0.170000X0.140000X0.170000X-0.140000X0.170000X0*%
%TD*%
%TA.AperFunction,SMDPad,CuDef*%
%ADD18R,0.350000X0.600000*%
%TD*%
%TA.AperFunction,SMDPad,CuDef*%
%ADD19R,1.700000X1.100000*%
%TD*%
%TA.AperFunction,SMDPad,CuDef*%
%ADD20R,0.900000X0.800000*%
%TD*%
%TA.AperFunction,SMDPad,CuDef*%
%ADD21RoundRect,0.140000X0.140000X0.170000X-0.140000X0.170000X-0.140000X-0.170000X0.140000X-0.170000X0*%
%TD*%
%TA.AperFunction,SMDPad,CuDef*%
%ADD22R,1.200000X0.600000*%
%TD*%
%TA.AperFunction,SMDPad,CuDef*%
%ADD23RoundRect,0.135000X-0.135000X-0.185000X0.135000X-0.185000X0.135000X0.185000X-0.135000X0.185000X0*%
%TD*%
%TA.AperFunction,SMDPad,CuDef*%
%ADD24RoundRect,0.140000X-0.170000X0.140000X-0.170000X-0.140000X0.170000X-0.140000X0.170000X0.140000X0*%
%TD*%
%TA.AperFunction,ViaPad*%
%ADD25C,0.450000*%
%TD*%
%TA.AperFunction,Conductor*%
%ADD26C,0.300000*%
%TD*%
%TA.AperFunction,Conductor*%
%ADD27C,0.150000*%
%TD*%
G04 APERTURE END LIST*
D10*
X48600000Y-90300000D03*
D11*
X51120000Y-91800000D03*
X50100000Y-91800000D03*
D12*
X41157660Y-99396491D03*
D13*
X40857660Y-98696491D03*
X40857660Y-97996490D03*
X40857660Y-97296490D03*
X40857660Y-96596490D03*
D14*
X40832660Y-95896490D03*
D15*
X41557660Y-95171490D03*
D16*
X42257660Y-95196490D03*
X42957660Y-95196490D03*
X43657660Y-95196490D03*
X44357660Y-95196490D03*
X45057659Y-95196490D03*
X45757659Y-95196490D03*
X46457660Y-95196490D03*
X47157660Y-95196490D03*
X47857660Y-95196490D03*
X48557660Y-95196490D03*
D15*
X49257660Y-95171490D03*
D14*
X49982660Y-95896490D03*
D13*
X49957660Y-96596490D03*
X49957660Y-97296490D03*
X49957660Y-97996490D03*
X49957660Y-98696491D03*
X49957660Y-99396491D03*
X49957660Y-100096491D03*
X49957660Y-100796490D03*
X49957660Y-101496490D03*
X49957660Y-102196490D03*
X49957660Y-102896490D03*
D14*
X49982660Y-103596490D03*
D15*
X49257660Y-104321490D03*
D16*
X48557660Y-104296490D03*
X47857660Y-104296490D03*
X47157660Y-104296490D03*
X46457660Y-104296490D03*
X45757659Y-104296490D03*
X45057659Y-104296490D03*
X44357660Y-104296490D03*
X43657660Y-104296490D03*
X42957660Y-104296490D03*
X42257660Y-104296490D03*
D15*
X41557660Y-104321490D03*
D14*
X40832660Y-103596490D03*
D13*
X40857660Y-102896490D03*
X40857660Y-102196490D03*
X40857660Y-101496490D03*
X40857660Y-100796490D03*
X40857660Y-100096491D03*
D17*
X36470000Y-99490000D03*
X37430000Y-99490000D03*
D18*
X35850000Y-103590000D03*
X36500000Y-103590000D03*
X37150000Y-103590000D03*
X37150000Y-105690000D03*
X36500000Y-105690000D03*
X35850000Y-105690000D03*
D19*
X36500000Y-104640000D03*
D17*
X53590000Y-98680000D03*
X54550000Y-98680000D03*
X34382340Y-98233510D03*
X35342340Y-98233510D03*
D20*
X56250000Y-106700000D03*
X54400000Y-106700000D03*
X54400000Y-105250000D03*
X56250000Y-105250000D03*
D17*
X53600000Y-99700000D03*
X54560000Y-99700000D03*
X36470000Y-101890000D03*
X37430000Y-101890000D03*
D10*
X50600000Y-90300000D03*
D21*
X52080000Y-92800000D03*
X51120000Y-92800000D03*
D22*
X34450000Y-96590000D03*
X34450000Y-95640000D03*
X34450000Y-94690000D03*
X36950000Y-94690000D03*
X36950000Y-96590000D03*
D23*
X48090000Y-91800000D03*
X49110000Y-91800000D03*
D17*
X36450000Y-98290000D03*
X37410000Y-98290000D03*
X34362340Y-99433510D03*
X35322340Y-99433510D03*
D24*
X36500000Y-106800000D03*
X36500000Y-107760000D03*
D17*
X36470000Y-100690000D03*
X37430000Y-100690000D03*
D25*
X56175500Y-104078994D03*
X37600000Y-92300000D03*
X43900000Y-106600000D03*
X33600000Y-99000000D03*
X61600000Y-114900000D03*
X53850000Y-108500000D03*
X48500000Y-85800000D03*
X38050000Y-97450000D03*
X42200000Y-102600000D03*
X47500000Y-90900000D03*
X36900000Y-95600000D03*
X40750000Y-87350000D03*
X35700000Y-96800000D03*
X36950000Y-108250000D03*
X46750000Y-99300000D03*
X37000000Y-104700000D03*
X46550000Y-112750000D03*
X43100000Y-100950000D03*
X38600000Y-112400000D03*
X35350000Y-90350000D03*
X53800000Y-83800000D03*
X48700000Y-93900000D03*
X38550000Y-110000000D03*
X42300000Y-111600000D03*
X43800000Y-108750000D03*
X32700000Y-80700000D03*
X40300000Y-106800000D03*
X33300000Y-94300000D03*
X55400000Y-90000000D03*
X39800000Y-101500000D03*
X42100000Y-97400000D03*
X42000000Y-85800000D03*
X28700000Y-113300000D03*
X39350000Y-89050000D03*
X35550000Y-100250000D03*
X35850000Y-87250000D03*
X36100000Y-109600000D03*
X35700000Y-94600000D03*
X31550000Y-104050000D03*
X41700000Y-83750000D03*
X44650000Y-103050000D03*
X53500000Y-111300000D03*
X55350000Y-84800000D03*
X61600000Y-83400000D03*
X46900000Y-93500000D03*
X47800000Y-103200000D03*
X57700000Y-93100000D03*
X45800000Y-96500000D03*
X31100000Y-90450000D03*
X33000000Y-116700000D03*
X35550000Y-101900000D03*
X53300000Y-88050000D03*
X44800000Y-107200000D03*
X48600000Y-83900000D03*
X57000000Y-116900000D03*
X57000000Y-80900000D03*
X39850000Y-83950000D03*
X34500000Y-84550000D03*
X54400000Y-94400000D03*
X52678853Y-97401000D03*
X48000000Y-100750000D03*
X55150000Y-109650000D03*
X54900000Y-112400000D03*
X55300000Y-106600000D03*
X51950000Y-85550000D03*
X31500000Y-106350000D03*
X38400000Y-103200000D03*
X52600000Y-98300000D03*
X37800000Y-107500000D03*
X58800000Y-108500000D03*
X34200000Y-106700000D03*
X31200000Y-87050000D03*
X40800000Y-95100000D03*
X28300000Y-83700000D03*
X42700000Y-99100000D03*
X31050000Y-94250000D03*
X52300000Y-110050000D03*
X44950000Y-85700000D03*
X42900000Y-85500000D03*
X53000000Y-91500000D03*
X44700000Y-96200000D03*
X39800000Y-100200000D03*
X35600000Y-106800000D03*
X56700000Y-102100000D03*
X53300000Y-85700000D03*
X58500000Y-95900000D03*
X46800000Y-85900000D03*
X44500000Y-89500000D03*
X48400000Y-96400000D03*
X48917492Y-92582508D03*
X55954001Y-98300000D03*
X46900000Y-96600000D03*
X51443263Y-93721047D03*
X48536217Y-105150500D03*
X58800000Y-99200000D03*
X38400000Y-102200000D03*
X38800000Y-96000000D03*
X42100000Y-88400000D03*
X57900000Y-95200000D03*
X39700000Y-96000000D03*
X39200000Y-102500000D03*
X42900000Y-88206095D03*
X48725144Y-98377397D03*
X45000000Y-88000000D03*
X46000000Y-87900000D03*
X48276804Y-97979409D03*
X47779436Y-97644702D03*
X43200000Y-90400000D03*
X56700000Y-100000000D03*
X36800000Y-86400000D03*
X53561348Y-95001841D03*
X48084482Y-107050500D03*
X48800000Y-107300000D03*
X53425593Y-93293532D03*
X49773646Y-105483663D03*
X54300000Y-93600000D03*
X53674317Y-94188161D03*
X49877677Y-106108497D03*
X52919274Y-94704497D03*
X49988950Y-106697582D03*
X52826853Y-95603497D03*
X50384757Y-107650931D03*
X48600000Y-87600000D03*
X55450500Y-101500000D03*
X50100981Y-108570397D03*
X49951045Y-109190099D03*
X47000000Y-88300000D03*
X49155260Y-109757418D03*
X49726958Y-110098002D03*
X50496456Y-110322177D03*
X51083744Y-110442573D03*
X48500000Y-88400000D03*
D26*
X33550000Y-96240000D02*
X33550000Y-95040000D01*
X34362340Y-99433510D02*
X34362340Y-98253510D01*
X34382340Y-96657660D02*
X34450000Y-96590000D01*
X34362340Y-98253510D02*
X34382340Y-98233510D01*
X34382340Y-98233510D02*
X34382340Y-96657660D01*
X33550000Y-95040000D02*
X33900000Y-94690000D01*
X34362340Y-99433510D02*
X34033510Y-99433510D01*
D27*
X35940000Y-93200000D02*
X34450000Y-94690000D01*
X36700000Y-93200000D02*
X35940000Y-93200000D01*
D26*
X33900000Y-94690000D02*
X34450000Y-94690000D01*
X34033510Y-99433510D02*
X33600000Y-99000000D01*
D27*
X37600000Y-92300000D02*
X36700000Y-93200000D01*
D26*
X33900000Y-96590000D02*
X33550000Y-96240000D01*
X34450000Y-96590000D02*
X33900000Y-96590000D01*
D27*
X36500000Y-107760000D02*
X36500000Y-107800000D01*
D26*
X36950000Y-108250000D02*
X36950000Y-108210000D01*
X36950000Y-108210000D02*
X36500000Y-107760000D01*
X37430000Y-98310000D02*
X37410000Y-98290000D01*
X49957660Y-100096491D02*
X49957660Y-99396491D01*
X37523509Y-99396491D02*
X37430000Y-99490000D01*
X53296491Y-99396491D02*
X49957660Y-99396491D01*
X37210000Y-96590000D02*
X38600000Y-95200000D01*
X37430000Y-99490000D02*
X37430000Y-98310000D01*
X36950000Y-97830000D02*
X37410000Y-98290000D01*
X40857660Y-99696491D02*
X41157660Y-99396491D01*
X41157660Y-99396491D02*
X37523509Y-99396491D01*
X38600000Y-95200000D02*
X38600000Y-91000000D01*
X36950000Y-96590000D02*
X36950000Y-97830000D01*
X53600000Y-99700000D02*
X53296491Y-99396491D01*
X40857660Y-100096491D02*
X40857660Y-99696491D01*
X49957660Y-98696491D02*
X49957660Y-99396491D01*
X42900000Y-86700000D02*
X42900000Y-85500000D01*
X53590000Y-98680000D02*
X53590000Y-99690000D01*
X38600000Y-91000000D02*
X42900000Y-86700000D01*
X53590000Y-99690000D02*
X53600000Y-99700000D01*
X40857660Y-100096491D02*
X49957660Y-100096491D01*
X36950000Y-96590000D02*
X37210000Y-96590000D01*
X36500000Y-105690000D02*
X36500000Y-106800000D01*
X37536490Y-100796490D02*
X37430000Y-100690000D01*
X44357660Y-95196490D02*
X44357660Y-95857660D01*
X40396490Y-100796490D02*
X39800000Y-100200000D01*
X40857660Y-100796490D02*
X40396490Y-100796490D01*
X56700000Y-104800000D02*
X56700000Y-102100000D01*
X44357660Y-95857660D02*
X44700000Y-96200000D01*
X51120000Y-91800000D02*
X52700000Y-91800000D01*
X52700000Y-91800000D02*
X53000000Y-91500000D01*
X36500000Y-106800000D02*
X35600000Y-106800000D01*
X56250000Y-105250000D02*
X56700000Y-104800000D01*
X43657660Y-104296490D02*
X43657660Y-102796490D01*
X43657660Y-102796490D02*
X41657660Y-100796490D01*
X40857660Y-100796490D02*
X37536490Y-100796490D01*
X44357660Y-95196490D02*
X45057659Y-95196490D01*
X41657660Y-100796490D02*
X40857660Y-100796490D01*
X37430000Y-101890000D02*
X37430000Y-100690000D01*
D27*
X47857660Y-95857660D02*
X47857660Y-95196490D01*
X50200000Y-89000000D02*
X45000000Y-89000000D01*
X50600000Y-91300000D02*
X50600000Y-90300000D01*
X51100000Y-92800000D02*
X50100000Y-91800000D01*
X49153510Y-94446490D02*
X50100000Y-93500000D01*
X50100000Y-91800000D02*
X50600000Y-91300000D01*
X50600000Y-89400000D02*
X50200000Y-89000000D01*
X47857660Y-95196490D02*
X47857660Y-94721490D01*
X48400000Y-96400000D02*
X47857660Y-95857660D01*
X48132660Y-94446490D02*
X49153510Y-94446490D01*
X51120000Y-92800000D02*
X51100000Y-92800000D01*
X45000000Y-89000000D02*
X44500000Y-89500000D01*
X50100000Y-93500000D02*
X50100000Y-91800000D01*
X47857660Y-94721490D02*
X48132660Y-94446490D01*
X50600000Y-90300000D02*
X50600000Y-89400000D01*
X55575000Y-104043805D02*
X55900000Y-103718805D01*
X56250000Y-106700000D02*
X55575000Y-106025000D01*
X48090000Y-93810000D02*
X48090000Y-91800000D01*
X55575000Y-106025000D02*
X55575000Y-104043805D01*
X46457660Y-94721490D02*
X46707660Y-94471490D01*
X55900000Y-98354001D02*
X55954001Y-98300000D01*
X48090000Y-91800000D02*
X48872508Y-92582508D01*
X47428510Y-94471490D02*
X48090000Y-93810000D01*
X55900000Y-103718805D02*
X55900000Y-98354001D01*
X48090000Y-91800000D02*
X48600000Y-91290000D01*
X48600000Y-91290000D02*
X48600000Y-90300000D01*
X46457660Y-95196490D02*
X46457660Y-94721490D01*
X46707660Y-94471490D02*
X47428510Y-94471490D01*
X48872508Y-92582508D02*
X48917492Y-92582508D01*
X46900000Y-96600000D02*
X47157660Y-96342340D01*
X47157660Y-96342340D02*
X47157660Y-95196490D01*
X48557660Y-105129057D02*
X48536217Y-105150500D01*
X48557660Y-104296490D02*
X48557660Y-105129057D01*
X35525000Y-103590000D02*
X34850999Y-104264001D01*
X58800000Y-107200000D02*
X58800000Y-99200000D01*
X39250500Y-96339330D02*
X39250500Y-91249500D01*
X40857660Y-97296490D02*
X40207660Y-97296490D01*
X34850999Y-104264001D02*
X34850999Y-107360745D01*
X38175000Y-102425000D02*
X38400000Y-102200000D01*
X40207660Y-97296490D02*
X39250500Y-96339330D01*
X35850000Y-103140000D02*
X36565000Y-102425000D01*
X36565000Y-102425000D02*
X38175000Y-102425000D01*
X39250500Y-91249500D02*
X42100000Y-88400000D01*
X39690254Y-112200000D02*
X53800000Y-112200000D01*
X35850000Y-103590000D02*
X35525000Y-103590000D01*
X39250500Y-96339330D02*
X39139330Y-96339330D01*
X53800000Y-112200000D02*
X58800000Y-107200000D01*
X34850999Y-107360745D02*
X39690254Y-112200000D01*
X35850000Y-103590000D02*
X35850000Y-103140000D01*
X39139330Y-96339330D02*
X38800000Y-96000000D01*
X36663312Y-108749500D02*
X37086189Y-108749500D01*
X37150000Y-107814311D02*
X37150000Y-105690000D01*
X40107660Y-96121490D02*
X39821490Y-96121490D01*
X40107660Y-96121490D02*
X40107660Y-91042840D01*
X39200000Y-103965000D02*
X39200000Y-102500000D01*
X37475000Y-105690000D02*
X39200000Y-103965000D01*
X35150500Y-106389500D02*
X35150500Y-107236688D01*
X37399500Y-108063811D02*
X37150000Y-107814311D01*
X37150000Y-105690000D02*
X37475000Y-105690000D01*
X35150500Y-107236688D02*
X36663312Y-108749500D01*
X35850000Y-105690000D02*
X35150500Y-106389500D01*
X53739956Y-111836486D02*
X57900000Y-107676442D01*
X40857660Y-96596490D02*
X40582660Y-96596490D01*
X43296486Y-111836486D02*
X53739956Y-111836486D01*
X40107660Y-91042840D02*
X42900000Y-88250500D01*
X40582660Y-96596490D02*
X40107660Y-96121490D01*
X37086189Y-108749500D02*
X37399500Y-108436189D01*
X42900000Y-88250500D02*
X42900000Y-88206095D01*
X37399500Y-108436189D02*
X37399500Y-108063811D01*
X37150000Y-105690000D02*
X43296486Y-111836486D01*
X57900000Y-107676442D02*
X57900000Y-95200000D01*
X39821490Y-96121490D02*
X39700000Y-96000000D01*
X41557660Y-95671490D02*
X44335670Y-98449500D01*
X48653041Y-98449500D02*
X48725144Y-98377397D01*
X44032755Y-88067245D02*
X41557660Y-90542340D01*
X41557660Y-90542340D02*
X41557660Y-95171490D01*
X41557660Y-95171490D02*
X41557660Y-95671490D01*
X45000000Y-88000000D02*
X44932755Y-88067245D01*
X44932755Y-88067245D02*
X44032755Y-88067245D01*
X44335670Y-98449500D02*
X48653041Y-98449500D01*
X44300000Y-88500000D02*
X42257660Y-90542340D01*
X44519211Y-98108041D02*
X48148172Y-98108041D01*
X45400000Y-88500000D02*
X44300000Y-88500000D01*
X42257660Y-95196490D02*
X42257660Y-95846490D01*
X46000000Y-87900000D02*
X45400000Y-88500000D01*
X48148172Y-98108041D02*
X48276804Y-97979409D01*
X42257660Y-95846490D02*
X44519211Y-98108041D01*
X42257660Y-90542340D02*
X42257660Y-95196490D01*
X43200000Y-90400000D02*
X42957660Y-90642340D01*
X42957660Y-95196490D02*
X42957660Y-96057660D01*
X42957660Y-96057660D02*
X44558541Y-97658541D01*
X42957660Y-90642340D02*
X42957660Y-95196490D01*
X44558541Y-97658541D02*
X47765597Y-97658541D01*
X47765597Y-97658541D02*
X47779436Y-97644702D01*
X42100000Y-84700000D02*
X40400000Y-86400000D01*
X40400000Y-86400000D02*
X36800000Y-86400000D01*
X56700000Y-100000000D02*
X56703002Y-99996998D01*
X56703002Y-93084506D02*
X48318496Y-84700000D01*
X48318496Y-84700000D02*
X42100000Y-84700000D01*
X56703002Y-99996998D02*
X56703002Y-93084506D01*
X47857660Y-104296490D02*
X47857660Y-106823678D01*
X47857660Y-106823678D02*
X48084482Y-107050500D01*
X47157660Y-106781189D02*
X47878467Y-107501996D01*
X47157660Y-104296490D02*
X47157660Y-106781189D01*
X48598004Y-107501996D02*
X48800000Y-107300000D01*
X47878467Y-107501996D02*
X48598004Y-107501996D01*
X47754410Y-107801497D02*
X48934192Y-107801497D01*
X48934192Y-107801497D02*
X49249500Y-107486189D01*
X49131934Y-106796245D02*
X49131934Y-106125375D01*
X46457660Y-106504747D02*
X47754410Y-107801497D01*
X49249500Y-106913811D02*
X49131934Y-106796245D01*
X49249500Y-107486189D02*
X49249500Y-106913811D01*
X49131934Y-106125375D02*
X49773646Y-105483663D01*
X46457660Y-104296490D02*
X46457660Y-106504747D01*
X45757659Y-106228304D02*
X47630353Y-108100998D01*
X49549001Y-106789754D02*
X49431435Y-106672188D01*
X49058249Y-108100998D02*
X49549001Y-107610246D01*
X49431435Y-106554739D02*
X49877677Y-106108497D01*
X49549001Y-107610246D02*
X49549001Y-106789754D01*
X49431435Y-106672188D02*
X49431435Y-106554739D01*
X45757659Y-104296490D02*
X45757659Y-106228304D01*
X47630353Y-108100998D02*
X49058249Y-108100998D01*
X49848502Y-107734303D02*
X49848502Y-106838030D01*
X49848502Y-106838030D02*
X49988950Y-106697582D01*
X49182306Y-108400499D02*
X49848502Y-107734303D01*
X45057659Y-105951862D02*
X47506296Y-108400499D01*
X47506296Y-108400499D02*
X49182306Y-108400499D01*
X45057659Y-104296490D02*
X45057659Y-105951862D01*
X44357660Y-105675421D02*
X47382239Y-108700000D01*
X47382239Y-108700000D02*
X49335688Y-108700000D01*
X49335688Y-108700000D02*
X50384757Y-107650931D01*
X44357660Y-104296490D02*
X44357660Y-105675421D01*
X48600000Y-87600000D02*
X50000000Y-87600000D01*
X50000000Y-87600000D02*
X53000999Y-90600999D01*
X55600499Y-101350001D02*
X55450500Y-101500000D01*
X45905690Y-109924746D02*
X46830935Y-108999501D01*
X55700000Y-93300000D02*
X55700000Y-97918312D01*
X55700000Y-97918312D02*
X55504501Y-98113811D01*
X55504501Y-98113811D02*
X55504501Y-98486189D01*
X53000999Y-90600999D02*
X53372379Y-90600999D01*
X44174746Y-109924746D02*
X45905690Y-109924746D01*
X49935057Y-108570397D02*
X50100981Y-108570397D01*
X49505953Y-108999501D02*
X49935057Y-108570397D01*
X42957660Y-104296490D02*
X42957660Y-108707660D01*
X55504501Y-98486189D02*
X55600499Y-98582187D01*
X53899001Y-91499001D02*
X55700000Y-93300000D01*
X53899001Y-91127621D02*
X53899001Y-91499001D01*
X55600499Y-98582187D02*
X55600499Y-101350001D01*
X46830935Y-108999501D02*
X49505953Y-108999501D01*
X42957660Y-108707660D02*
X44174746Y-109924746D01*
X53372379Y-90600999D02*
X53899001Y-91127621D01*
X56403501Y-98932896D02*
X56200000Y-99136397D01*
X42257660Y-108457660D02*
X44024247Y-110224247D01*
X46226712Y-110224247D02*
X47151957Y-109299002D01*
X50094938Y-86900000D02*
X56403501Y-93208563D01*
X56403501Y-93208563D02*
X56403501Y-98932896D01*
X57600000Y-101970376D02*
X57600000Y-107500000D01*
X56200000Y-99136397D02*
X56200000Y-100570376D01*
X47000000Y-88300000D02*
X48400000Y-86900000D01*
X55933004Y-109166996D02*
X49974148Y-109166996D01*
X48400000Y-86900000D02*
X50094938Y-86900000D01*
X57600000Y-107500000D02*
X55933004Y-109166996D01*
X44024247Y-110224247D02*
X46226712Y-110224247D01*
X49842142Y-109299002D02*
X49951045Y-109190099D01*
X47151957Y-109299002D02*
X49842142Y-109299002D01*
X49974148Y-109166996D02*
X49951045Y-109190099D01*
X56200000Y-100570376D02*
X57600000Y-101970376D01*
X42257660Y-104296490D02*
X42257660Y-108457660D01*
X48369930Y-110542748D02*
X49155260Y-109757418D01*
X43919190Y-110542748D02*
X48369930Y-110542748D01*
X41557660Y-108181218D02*
X43919190Y-110542748D01*
X41557660Y-104321490D02*
X41557660Y-108181218D01*
X40832660Y-107882660D02*
X43808220Y-110858220D01*
X40832660Y-103596490D02*
X40832660Y-107882660D01*
X43808220Y-110858220D02*
X48966740Y-110858220D01*
X48966740Y-110858220D02*
X49726958Y-110098002D01*
X39799002Y-107399002D02*
X43557729Y-111157729D01*
X40857660Y-102896490D02*
X40582660Y-102896490D01*
X43557729Y-111157729D02*
X49660904Y-111157729D01*
X39799002Y-103680148D02*
X39799002Y-107399002D01*
X49660904Y-111157729D02*
X50496456Y-110322177D01*
X40582660Y-102896490D02*
X39799002Y-103680148D01*
X43357230Y-111457230D02*
X50069087Y-111457230D01*
X40207660Y-102196490D02*
X39499501Y-102904649D01*
X39499501Y-102904649D02*
X39499501Y-107599501D01*
X50069087Y-111457230D02*
X51083744Y-110442573D01*
X40857660Y-102196490D02*
X40207660Y-102196490D01*
X39499501Y-107599501D02*
X43357230Y-111457230D01*
D26*
X50180622Y-88400000D02*
X48500000Y-88400000D01*
X55140000Y-101068744D02*
X55140000Y-98651312D01*
X52756122Y-90975500D02*
X50180622Y-88400000D01*
X54400000Y-105250000D02*
X54400000Y-101808744D01*
X55140000Y-98651312D02*
X55130000Y-98641312D01*
X53524500Y-91688810D02*
X53524500Y-91282744D01*
X53350000Y-104200000D02*
X54400000Y-105250000D01*
X53524500Y-91282744D02*
X53217256Y-90975500D01*
X49379150Y-104200000D02*
X53350000Y-104200000D01*
X53217256Y-90975500D02*
X52756122Y-90975500D01*
X55130000Y-98641312D02*
X55130000Y-93294310D01*
X54400000Y-101808744D02*
X55140000Y-101068744D01*
X49257660Y-104321490D02*
X49379150Y-104200000D01*
X55130000Y-93294310D02*
X53524500Y-91688810D01*
%TA.AperFunction,Conductor*%
G36*
X31003574Y-79688208D02*
G01*
X31339709Y-79705825D01*
X31352617Y-79707182D01*
X31682180Y-79759380D01*
X31694864Y-79762075D01*
X32017187Y-79848441D01*
X32029525Y-79852451D01*
X32341039Y-79972030D01*
X32352882Y-79977302D01*
X32650216Y-80128801D01*
X32661422Y-80135271D01*
X32941289Y-80317019D01*
X32951779Y-80324641D01*
X33211099Y-80534634D01*
X33220744Y-80543319D01*
X33456680Y-80779255D01*
X33465365Y-80788900D01*
X33675358Y-81048220D01*
X33682983Y-81058714D01*
X33864724Y-81338571D01*
X33871201Y-81349790D01*
X33903196Y-81412583D01*
X34022692Y-81647107D01*
X34027971Y-81658965D01*
X34147548Y-81970475D01*
X34151559Y-81982818D01*
X34237922Y-82305129D01*
X34240620Y-82317825D01*
X34292817Y-82647382D01*
X34294174Y-82660291D01*
X34309043Y-82944018D01*
X34307099Y-82961245D01*
X34311449Y-83008181D01*
X34311978Y-83019623D01*
X34311978Y-83047594D01*
X34312081Y-83047911D01*
X34317621Y-83074788D01*
X34318443Y-83083660D01*
X34329467Y-83105800D01*
X34336396Y-83122750D01*
X34341390Y-83138121D01*
X34341393Y-83138125D01*
X34348574Y-83148009D01*
X34359250Y-83165612D01*
X34368520Y-83184228D01*
X34368522Y-83184231D01*
X34378038Y-83192906D01*
X34394815Y-83211655D01*
X34397342Y-83215133D01*
X34416792Y-83229264D01*
X34427447Y-83237947D01*
X34451545Y-83259916D01*
X34452431Y-83260259D01*
X34469258Y-83269429D01*
X34474351Y-83271083D01*
X34474353Y-83271085D01*
X34508439Y-83282159D01*
X34514891Y-83284456D01*
X34556305Y-83300500D01*
X55300765Y-83300500D01*
X55300766Y-83300500D01*
X55319893Y-83294284D01*
X55335411Y-83290330D01*
X55363604Y-83285061D01*
X55367796Y-83282464D01*
X55389463Y-83272416D01*
X55391293Y-83271085D01*
X55391296Y-83271085D01*
X55417121Y-83252321D01*
X55424701Y-83247230D01*
X55459123Y-83225919D01*
X55459122Y-83225919D01*
X55461570Y-83224404D01*
X55494654Y-83178867D01*
X55494654Y-83178866D01*
X55526827Y-83136264D01*
X55540058Y-83089758D01*
X55541386Y-83085403D01*
X55556511Y-83038854D01*
X55557741Y-83030036D01*
X55557572Y-83028207D01*
X55554964Y-83000070D01*
X55554606Y-82982154D01*
X55571115Y-82667150D01*
X55572472Y-82654244D01*
X55603424Y-82458820D01*
X55623595Y-82331463D01*
X55626288Y-82318788D01*
X55710879Y-82003093D01*
X55714887Y-81990761D01*
X55720345Y-81976543D01*
X55832006Y-81685655D01*
X55837271Y-81673827D01*
X55985659Y-81382600D01*
X55992125Y-81371402D01*
X56170136Y-81097289D01*
X56177738Y-81086825D01*
X56383428Y-80832818D01*
X56392095Y-80823193D01*
X56623193Y-80592095D01*
X56632818Y-80583428D01*
X56886825Y-80377738D01*
X56897289Y-80370136D01*
X57171402Y-80192125D01*
X57182600Y-80185659D01*
X57473827Y-80037271D01*
X57485655Y-80032006D01*
X57790765Y-79914885D01*
X57803093Y-79910879D01*
X58118788Y-79826288D01*
X58131463Y-79823595D01*
X58454246Y-79772471D01*
X58467150Y-79771115D01*
X58794250Y-79753971D01*
X58806845Y-79753953D01*
X59138346Y-79770339D01*
X59151418Y-79771684D01*
X59478456Y-79822996D01*
X59491314Y-79825719D01*
X59811084Y-79911425D01*
X59823603Y-79915505D01*
X60132438Y-80034618D01*
X60144454Y-80040001D01*
X60438948Y-80191206D01*
X60450324Y-80197832D01*
X60727114Y-80379406D01*
X60737714Y-80387195D01*
X60993697Y-80597102D01*
X61003417Y-80605976D01*
X61235687Y-80841832D01*
X61244415Y-80851691D01*
X61450370Y-81110850D01*
X61458003Y-81121579D01*
X61635309Y-81401106D01*
X61641762Y-81412583D01*
X61788438Y-81709353D01*
X61793637Y-81721451D01*
X61908011Y-82032089D01*
X61911898Y-82044670D01*
X61992688Y-82365686D01*
X61995219Y-82378607D01*
X62041515Y-82706378D01*
X62042662Y-82719495D01*
X62053940Y-83050336D01*
X62053689Y-83063501D01*
X62029823Y-83393662D01*
X62028178Y-83406726D01*
X61969436Y-83732499D01*
X61966415Y-83745315D01*
X61873458Y-84063030D01*
X61869094Y-84075454D01*
X61742974Y-84381511D01*
X61737319Y-84393401D01*
X61711774Y-84440484D01*
X61579456Y-84684360D01*
X61572575Y-84695577D01*
X61384742Y-84968167D01*
X61376706Y-84978597D01*
X61161035Y-85229726D01*
X61151938Y-85239246D01*
X61017430Y-85365808D01*
X60955117Y-85397412D01*
X60932457Y-85399500D01*
X59639225Y-85399500D01*
X59572186Y-85379815D01*
X59526431Y-85327011D01*
X59516487Y-85257853D01*
X59545512Y-85194297D01*
X59599367Y-85158081D01*
X59643557Y-85143080D01*
X59682252Y-85129945D01*
X59952718Y-84996566D01*
X60203461Y-84829025D01*
X60430189Y-84630189D01*
X60629025Y-84403461D01*
X60796566Y-84152718D01*
X60929945Y-83882252D01*
X61026880Y-83596691D01*
X61085713Y-83300920D01*
X61105436Y-83000000D01*
X61085713Y-82699080D01*
X61026880Y-82403309D01*
X60929945Y-82117748D01*
X60796566Y-81847282D01*
X60629025Y-81596539D01*
X60430189Y-81369811D01*
X60399742Y-81343110D01*
X60206518Y-81173656D01*
X60203461Y-81170975D01*
X60113478Y-81110850D01*
X59956092Y-81005688D01*
X59956087Y-81005685D01*
X59952718Y-81003434D01*
X59949082Y-81001641D01*
X59949077Y-81001638D01*
X59685894Y-80871851D01*
X59685893Y-80871850D01*
X59682252Y-80870055D01*
X59628153Y-80851691D01*
X59443177Y-80788900D01*
X59396691Y-80773120D01*
X59392714Y-80772329D01*
X59392707Y-80772327D01*
X59104899Y-80715078D01*
X59104891Y-80715077D01*
X59100920Y-80714287D01*
X58800000Y-80694564D01*
X58795957Y-80694829D01*
X58503122Y-80714022D01*
X58503120Y-80714022D01*
X58499080Y-80714287D01*
X58495110Y-80715076D01*
X58495100Y-80715078D01*
X58207292Y-80772327D01*
X58207281Y-80772329D01*
X58203309Y-80773120D01*
X58199466Y-80774424D01*
X58199464Y-80774425D01*
X57921594Y-80868749D01*
X57921587Y-80868751D01*
X57917748Y-80870055D01*
X57914111Y-80871848D01*
X57914105Y-80871851D01*
X57650922Y-81001638D01*
X57650910Y-81001644D01*
X57647282Y-81003434D01*
X57643919Y-81005681D01*
X57643907Y-81005688D01*
X57399920Y-81168715D01*
X57399911Y-81168721D01*
X57396539Y-81170975D01*
X57393488Y-81173650D01*
X57393481Y-81173656D01*
X57172859Y-81367137D01*
X57172851Y-81367144D01*
X57169811Y-81369811D01*
X57167144Y-81372851D01*
X57167137Y-81372859D01*
X56973656Y-81593481D01*
X56973650Y-81593488D01*
X56970975Y-81596539D01*
X56968721Y-81599911D01*
X56968715Y-81599920D01*
X56805688Y-81843907D01*
X56805681Y-81843919D01*
X56803434Y-81847282D01*
X56801644Y-81850910D01*
X56801638Y-81850922D01*
X56671851Y-82114105D01*
X56671848Y-82114111D01*
X56670055Y-82117748D01*
X56668751Y-82121587D01*
X56668749Y-82121594D01*
X56574425Y-82399464D01*
X56573120Y-82403309D01*
X56572329Y-82407281D01*
X56572327Y-82407292D01*
X56515078Y-82695100D01*
X56515076Y-82695110D01*
X56514287Y-82699080D01*
X56514022Y-82703120D01*
X56514022Y-82703122D01*
X56512949Y-82719495D01*
X56494564Y-83000000D01*
X56494828Y-83004043D01*
X56494829Y-83004043D01*
X56511599Y-83259916D01*
X56514287Y-83300920D01*
X56515077Y-83304891D01*
X56515078Y-83304899D01*
X56572327Y-83592707D01*
X56572329Y-83592714D01*
X56573120Y-83596691D01*
X56670055Y-83882252D01*
X56671850Y-83885893D01*
X56671851Y-83885894D01*
X56765331Y-84075454D01*
X56803434Y-84152718D01*
X56805685Y-84156087D01*
X56805688Y-84156092D01*
X56948218Y-84369403D01*
X56970975Y-84403461D01*
X57169811Y-84630189D01*
X57396539Y-84829025D01*
X57647282Y-84996566D01*
X57917748Y-85129945D01*
X58203309Y-85226880D01*
X58499080Y-85285713D01*
X58800000Y-85305436D01*
X59100920Y-85285713D01*
X59176187Y-85270741D01*
X59245776Y-85276968D01*
X59300954Y-85319830D01*
X59324199Y-85385720D01*
X59308132Y-85453717D01*
X59299330Y-85467086D01*
X59272026Y-85503241D01*
X59264712Y-85512049D01*
X59238853Y-85540415D01*
X59226844Y-85561975D01*
X59216343Y-85598884D01*
X59212704Y-85609741D01*
X59198836Y-85645537D01*
X59195429Y-85669968D01*
X59198970Y-85708183D01*
X59199499Y-85719623D01*
X59199499Y-98723654D01*
X59179814Y-98790693D01*
X59127010Y-98836448D01*
X59057852Y-98846392D01*
X59019205Y-98834139D01*
X58933126Y-98790280D01*
X58800000Y-98769195D01*
X58666875Y-98790280D01*
X58546778Y-98851472D01*
X58451472Y-98946778D01*
X58409985Y-99028202D01*
X58362010Y-99078998D01*
X58294189Y-99095793D01*
X58228054Y-99073256D01*
X58184603Y-99018540D01*
X58175500Y-98971907D01*
X58175500Y-96414558D01*
X58195185Y-96347519D01*
X58247989Y-96301764D01*
X58317147Y-96291820D01*
X58355791Y-96304072D01*
X58366874Y-96309719D01*
X58500000Y-96330804D01*
X58633126Y-96309719D01*
X58753220Y-96248528D01*
X58848528Y-96153220D01*
X58909719Y-96033126D01*
X58930804Y-95900000D01*
X58909719Y-95766874D01*
X58848528Y-95646780D01*
X58848527Y-95646778D01*
X58753221Y-95551472D01*
X58633124Y-95490280D01*
X58500001Y-95469195D01*
X58451286Y-95476911D01*
X58381992Y-95467955D01*
X58328541Y-95422958D01*
X58307902Y-95356206D01*
X58309416Y-95335039D01*
X58325563Y-95233092D01*
X58330804Y-95200000D01*
X58309719Y-95066874D01*
X58248528Y-94946780D01*
X58248527Y-94946778D01*
X58153221Y-94851472D01*
X58033124Y-94790280D01*
X57900000Y-94769195D01*
X57766875Y-94790280D01*
X57646778Y-94851472D01*
X57551472Y-94946778D01*
X57490280Y-95066875D01*
X57469195Y-95200000D01*
X57490280Y-95333124D01*
X57551472Y-95453221D01*
X57588180Y-95489928D01*
X57621666Y-95551251D01*
X57624500Y-95577610D01*
X57624499Y-101305898D01*
X57604814Y-101372937D01*
X57552010Y-101418692D01*
X57482852Y-101428636D01*
X57419296Y-101399611D01*
X57412832Y-101393592D01*
X56656304Y-100637064D01*
X56622819Y-100575741D01*
X56627803Y-100506049D01*
X56669675Y-100450116D01*
X56724587Y-100426910D01*
X56764214Y-100420633D01*
X56833126Y-100409719D01*
X56953220Y-100348528D01*
X57048528Y-100253220D01*
X57109719Y-100133126D01*
X57130804Y-100000000D01*
X57109719Y-99866874D01*
X57048528Y-99746780D01*
X57048527Y-99746779D01*
X57048526Y-99746777D01*
X57014820Y-99713070D01*
X56981336Y-99651747D01*
X56978502Y-99625390D01*
X56978502Y-93123849D01*
X56980885Y-93099657D01*
X56980912Y-93099522D01*
X56983899Y-93084506D01*
X56971939Y-93024378D01*
X56962517Y-92977011D01*
X56931797Y-92931036D01*
X56916996Y-92908884D01*
X56910213Y-92898732D01*
X56910205Y-92898722D01*
X56901625Y-92885881D01*
X56888778Y-92877297D01*
X56869988Y-92861876D01*
X49708112Y-85700000D01*
X52869195Y-85700000D01*
X52890280Y-85833124D01*
X52951472Y-85953221D01*
X53046778Y-86048527D01*
X53046780Y-86048528D01*
X53166874Y-86109719D01*
X53233436Y-86120261D01*
X53299999Y-86130804D01*
X53299999Y-86130803D01*
X53300000Y-86130804D01*
X53433126Y-86109719D01*
X53553220Y-86048528D01*
X53648528Y-85953220D01*
X53709719Y-85833126D01*
X53730804Y-85700000D01*
X53709719Y-85566874D01*
X53648528Y-85446780D01*
X53648527Y-85446778D01*
X53553221Y-85351472D01*
X53433124Y-85290280D01*
X53300000Y-85269195D01*
X53166875Y-85290280D01*
X53046778Y-85351472D01*
X52951472Y-85446778D01*
X52890280Y-85566875D01*
X52869195Y-85700000D01*
X49708112Y-85700000D01*
X48541123Y-84533011D01*
X48525701Y-84514219D01*
X48517119Y-84501375D01*
X48504275Y-84492793D01*
X48504274Y-84492792D01*
X48486527Y-84480934D01*
X48467961Y-84468528D01*
X48446976Y-84454506D01*
X48425989Y-84440483D01*
X48333652Y-84422117D01*
X48333649Y-84422117D01*
X48318496Y-84419102D01*
X48303343Y-84422117D01*
X48279152Y-84424500D01*
X42139344Y-84424500D01*
X42115153Y-84422117D01*
X42100000Y-84419102D01*
X42084847Y-84422117D01*
X42084843Y-84422117D01*
X41992505Y-84440484D01*
X41950533Y-84468528D01*
X41931967Y-84480934D01*
X41931959Y-84480939D01*
X41924378Y-84486006D01*
X41924376Y-84486007D01*
X41921149Y-84488162D01*
X41921146Y-84488165D01*
X41901375Y-84501376D01*
X41892792Y-84514222D01*
X41877372Y-84533010D01*
X40322203Y-86088181D01*
X40260880Y-86121666D01*
X40234522Y-86124500D01*
X37177610Y-86124500D01*
X37110571Y-86104815D01*
X37089928Y-86088180D01*
X37053221Y-86051472D01*
X36933124Y-85990280D01*
X36800000Y-85969195D01*
X36666875Y-85990280D01*
X36546778Y-86051472D01*
X36451472Y-86146778D01*
X36390280Y-86266875D01*
X36369195Y-86400000D01*
X36390280Y-86533124D01*
X36451472Y-86653221D01*
X36546778Y-86748527D01*
X36546780Y-86748528D01*
X36666874Y-86809719D01*
X36800000Y-86830804D01*
X36933126Y-86809719D01*
X37053220Y-86748528D01*
X37089928Y-86711819D01*
X37151251Y-86678334D01*
X37177610Y-86675500D01*
X40360656Y-86675500D01*
X40384847Y-86677883D01*
X40400000Y-86680897D01*
X40415153Y-86677883D01*
X40415153Y-86677882D01*
X40427132Y-86675500D01*
X40427133Y-86675500D01*
X40507495Y-86659515D01*
X40559898Y-86624500D01*
X40575622Y-86613994D01*
X40575621Y-86613994D01*
X40589052Y-86605021D01*
X40589054Y-86605017D01*
X40598624Y-86598624D01*
X40607211Y-86585771D01*
X40622624Y-86566990D01*
X42177796Y-85011819D01*
X42239120Y-84978334D01*
X42265478Y-84975500D01*
X42523389Y-84975500D01*
X42590428Y-84995185D01*
X42636183Y-85047989D01*
X42646127Y-85117147D01*
X42617102Y-85180703D01*
X42611070Y-85187181D01*
X42551472Y-85246778D01*
X42490280Y-85366875D01*
X42469195Y-85500000D01*
X42490280Y-85633124D01*
X42490280Y-85633125D01*
X42490281Y-85633126D01*
X42495733Y-85643827D01*
X42535985Y-85722824D01*
X42549500Y-85779119D01*
X42549500Y-86503455D01*
X42529815Y-86570494D01*
X42513181Y-86591136D01*
X38386955Y-90717361D01*
X38367104Y-90733483D01*
X38359332Y-90738561D01*
X38341500Y-90761471D01*
X38331765Y-90772496D01*
X38320441Y-90788357D01*
X38317392Y-90792445D01*
X38303948Y-90809719D01*
X38282891Y-90836773D01*
X38266871Y-90890582D01*
X38265309Y-90895458D01*
X38247074Y-90948577D01*
X38249394Y-91004668D01*
X38249500Y-91009792D01*
X38249500Y-92120973D01*
X38229815Y-92188012D01*
X38177011Y-92233767D01*
X38107853Y-92243711D01*
X38044297Y-92214686D01*
X38015015Y-92177268D01*
X37948527Y-92046778D01*
X37853221Y-91951472D01*
X37733124Y-91890280D01*
X37600000Y-91869195D01*
X37466875Y-91890280D01*
X37346778Y-91951472D01*
X37251472Y-92046778D01*
X37190280Y-92166875D01*
X37167746Y-92309146D01*
X37137816Y-92372280D01*
X37132954Y-92377428D01*
X36622203Y-92888181D01*
X36560880Y-92921666D01*
X36534522Y-92924500D01*
X35979344Y-92924500D01*
X35955153Y-92922117D01*
X35940000Y-92919102D01*
X35912867Y-92924500D01*
X35848130Y-92937377D01*
X35832506Y-92940484D01*
X35790567Y-92968507D01*
X35764378Y-92986006D01*
X35764376Y-92986007D01*
X35761146Y-92988164D01*
X35761143Y-92988167D01*
X35741375Y-93001376D01*
X35732792Y-93014222D01*
X35717372Y-93033010D01*
X34597203Y-94153181D01*
X34535880Y-94186666D01*
X34509522Y-94189500D01*
X33830251Y-94189500D01*
X33771769Y-94201132D01*
X33705447Y-94245447D01*
X33661132Y-94311769D01*
X33649499Y-94370252D01*
X33649499Y-94393459D01*
X33629813Y-94460497D01*
X33613180Y-94481136D01*
X33336955Y-94757361D01*
X33317104Y-94773483D01*
X33309332Y-94778561D01*
X33291500Y-94801471D01*
X33281765Y-94812496D01*
X33270441Y-94828357D01*
X33267392Y-94832445D01*
X33250954Y-94853566D01*
X33232891Y-94876773D01*
X33216871Y-94930582D01*
X33215309Y-94935458D01*
X33197073Y-94988578D01*
X33199393Y-95044670D01*
X33199499Y-95049792D01*
X33199499Y-96190790D01*
X33196861Y-96216232D01*
X33194956Y-96225316D01*
X33198547Y-96254127D01*
X33199459Y-96268799D01*
X33202665Y-96288013D01*
X33203403Y-96293079D01*
X33210351Y-96348809D01*
X33237081Y-96398202D01*
X33239421Y-96402747D01*
X33251025Y-96426484D01*
X33264084Y-96453198D01*
X33305386Y-96491218D01*
X33309085Y-96494767D01*
X33613181Y-96798863D01*
X33646666Y-96860186D01*
X33649500Y-96886544D01*
X33649500Y-96909748D01*
X33661132Y-96968230D01*
X33705447Y-97034552D01*
X33771769Y-97078867D01*
X33830251Y-97090500D01*
X33830252Y-97090500D01*
X33907840Y-97090500D01*
X33974879Y-97110185D01*
X34020634Y-97162989D01*
X34031840Y-97214500D01*
X34031840Y-97741107D01*
X34012155Y-97808146D01*
X33995521Y-97828788D01*
X33959115Y-97865193D01*
X33908368Y-97974022D01*
X33908368Y-97974023D01*
X33901840Y-98023609D01*
X33901840Y-98027661D01*
X33901840Y-98027662D01*
X33901840Y-98439350D01*
X33901840Y-98439365D01*
X33901841Y-98443410D01*
X33902369Y-98447421D01*
X33902370Y-98447436D01*
X33903935Y-98459323D01*
X33893166Y-98528358D01*
X33846784Y-98580612D01*
X33779514Y-98599494D01*
X33752601Y-98592862D01*
X33752524Y-98593353D01*
X33600000Y-98569195D01*
X33466875Y-98590280D01*
X33346778Y-98651472D01*
X33251472Y-98746778D01*
X33190280Y-98866875D01*
X33169195Y-99000000D01*
X33190280Y-99133124D01*
X33251472Y-99253221D01*
X33346779Y-99348528D01*
X33392446Y-99371796D01*
X33466874Y-99409719D01*
X33471820Y-99410502D01*
X33483118Y-99412292D01*
X33546253Y-99442221D01*
X33551402Y-99447084D01*
X33750871Y-99646553D01*
X33766999Y-99666413D01*
X33771630Y-99673502D01*
X33772073Y-99674179D01*
X33794983Y-99692010D01*
X33806006Y-99701745D01*
X33821865Y-99713068D01*
X33825974Y-99716132D01*
X33870933Y-99751124D01*
X33886107Y-99758935D01*
X33894285Y-99764774D01*
X33893391Y-99766025D01*
X33927682Y-99788245D01*
X33931592Y-99794301D01*
X33939115Y-99801824D01*
X33939116Y-99801826D01*
X33988762Y-99851472D01*
X34024025Y-99886735D01*
X34078438Y-99912107D01*
X34132853Y-99937482D01*
X34182439Y-99944010D01*
X34542240Y-99944009D01*
X34591827Y-99937482D01*
X34700656Y-99886734D01*
X34785564Y-99801826D01*
X34836312Y-99692997D01*
X34842840Y-99643411D01*
X34842839Y-99223610D01*
X34836312Y-99174023D01*
X34785564Y-99065194D01*
X34785563Y-99065193D01*
X34785563Y-99065192D01*
X34749159Y-99028788D01*
X34715674Y-98967465D01*
X34712840Y-98941107D01*
X34712840Y-98745913D01*
X34732525Y-98678874D01*
X34749159Y-98658232D01*
X34805564Y-98601826D01*
X34810099Y-98592100D01*
X34856312Y-98492997D01*
X34862840Y-98443411D01*
X34862839Y-98023610D01*
X34856312Y-97974023D01*
X34805564Y-97865194D01*
X34805563Y-97865193D01*
X34805563Y-97865192D01*
X34769159Y-97828788D01*
X34735674Y-97767465D01*
X34732840Y-97741107D01*
X34732840Y-97214500D01*
X34752525Y-97147461D01*
X34805329Y-97101706D01*
X34856840Y-97090500D01*
X35069749Y-97090500D01*
X35098989Y-97084683D01*
X35128231Y-97078867D01*
X35194552Y-97034552D01*
X35238867Y-96968231D01*
X35250500Y-96909748D01*
X35250500Y-96270252D01*
X35248810Y-96261758D01*
X35238867Y-96211769D01*
X35194552Y-96145447D01*
X35128230Y-96101132D01*
X35069749Y-96089500D01*
X35069748Y-96089500D01*
X34024500Y-96089500D01*
X33957461Y-96069815D01*
X33911706Y-96017011D01*
X33900500Y-95965500D01*
X33900500Y-95314500D01*
X33920185Y-95247461D01*
X33972989Y-95201706D01*
X34024500Y-95190500D01*
X35069749Y-95190500D01*
X35098989Y-95184683D01*
X35128231Y-95178867D01*
X35194552Y-95134552D01*
X35238867Y-95068231D01*
X35250500Y-95009748D01*
X36149500Y-95009748D01*
X36161132Y-95068230D01*
X36205447Y-95134552D01*
X36271769Y-95178867D01*
X36330251Y-95190500D01*
X36330252Y-95190500D01*
X37569749Y-95190500D01*
X37598989Y-95184683D01*
X37628231Y-95178867D01*
X37694552Y-95134552D01*
X37738867Y-95068231D01*
X37750500Y-95009748D01*
X37750500Y-94370252D01*
X37750499Y-94370249D01*
X37738867Y-94311769D01*
X37694552Y-94245447D01*
X37628230Y-94201132D01*
X37569749Y-94189500D01*
X37569748Y-94189500D01*
X36330252Y-94189500D01*
X36330251Y-94189500D01*
X36271769Y-94201132D01*
X36205447Y-94245447D01*
X36161132Y-94311769D01*
X36149500Y-94370251D01*
X36149500Y-95009748D01*
X35250500Y-95009748D01*
X35250500Y-94370252D01*
X35250500Y-94370251D01*
X35250500Y-94370249D01*
X35248310Y-94359240D01*
X35254537Y-94289649D01*
X35282243Y-94247371D01*
X36017796Y-93511819D01*
X36079120Y-93478334D01*
X36105478Y-93475500D01*
X36660656Y-93475500D01*
X36684847Y-93477883D01*
X36700000Y-93480897D01*
X36715153Y-93477883D01*
X36715153Y-93477882D01*
X36727132Y-93475500D01*
X36727133Y-93475500D01*
X36807495Y-93459515D01*
X36862806Y-93422557D01*
X36875622Y-93413994D01*
X36875622Y-93413993D01*
X36889049Y-93405022D01*
X36889051Y-93405019D01*
X36898624Y-93398624D01*
X36907210Y-93385774D01*
X36922624Y-93366991D01*
X37522571Y-92767043D01*
X37583892Y-92733560D01*
X37590852Y-92732253D01*
X37600000Y-92730804D01*
X37733126Y-92709719D01*
X37853220Y-92648528D01*
X37948528Y-92553220D01*
X38009719Y-92433126D01*
X38009719Y-92433125D01*
X38015015Y-92422732D01*
X38062989Y-92371935D01*
X38130810Y-92355140D01*
X38196945Y-92377677D01*
X38240397Y-92432392D01*
X38249500Y-92479026D01*
X38249500Y-95003456D01*
X38229815Y-95070495D01*
X38213181Y-95091137D01*
X37251137Y-96053181D01*
X37189814Y-96086666D01*
X37163456Y-96089500D01*
X36330251Y-96089500D01*
X36271769Y-96101132D01*
X36205447Y-96145447D01*
X36161132Y-96211769D01*
X36149500Y-96270251D01*
X36149500Y-96909748D01*
X36161132Y-96968230D01*
X36205447Y-97034552D01*
X36271769Y-97078867D01*
X36330251Y-97090500D01*
X36330252Y-97090500D01*
X36475500Y-97090500D01*
X36542539Y-97110185D01*
X36588294Y-97162989D01*
X36599500Y-97214500D01*
X36599500Y-97780788D01*
X36596861Y-97806234D01*
X36594957Y-97815313D01*
X36598548Y-97844121D01*
X36599458Y-97858795D01*
X36602665Y-97878013D01*
X36603403Y-97883078D01*
X36610351Y-97938809D01*
X36637081Y-97988202D01*
X36639421Y-97992747D01*
X36660802Y-98036484D01*
X36660803Y-98036485D01*
X36664084Y-98043196D01*
X36669581Y-98048256D01*
X36669582Y-98048258D01*
X36705399Y-98081230D01*
X36709097Y-98084779D01*
X36893181Y-98268863D01*
X36926666Y-98330186D01*
X36929500Y-98356543D01*
X36929500Y-98495839D01*
X36929501Y-98495847D01*
X36929501Y-98499900D01*
X36930029Y-98503915D01*
X36930030Y-98503922D01*
X36936028Y-98549488D01*
X36986776Y-98658317D01*
X37043181Y-98714722D01*
X37076666Y-98776045D01*
X37079500Y-98802403D01*
X37079500Y-98997597D01*
X37059815Y-99064636D01*
X37043181Y-99085278D01*
X37006775Y-99121683D01*
X36956028Y-99230512D01*
X36953039Y-99253220D01*
X36949500Y-99280099D01*
X36949500Y-99284151D01*
X36949500Y-99284152D01*
X36949500Y-99695840D01*
X36949500Y-99695855D01*
X36949501Y-99699900D01*
X36950029Y-99703916D01*
X36950030Y-99703921D01*
X36956028Y-99749488D01*
X37006776Y-99858317D01*
X37091681Y-99943222D01*
X37091682Y-99943222D01*
X37091684Y-99943224D01*
X37165442Y-99977618D01*
X37217880Y-100023788D01*
X37237032Y-100090982D01*
X37216817Y-100157863D01*
X37165442Y-100202381D01*
X37091682Y-100236776D01*
X37006775Y-100321683D01*
X36956028Y-100430512D01*
X36950603Y-100471724D01*
X36949500Y-100480099D01*
X36949500Y-100484151D01*
X36949500Y-100484152D01*
X36949500Y-100895840D01*
X36949500Y-100895855D01*
X36949501Y-100899900D01*
X36950029Y-100903916D01*
X36950030Y-100903921D01*
X36956028Y-100949488D01*
X37006775Y-101058316D01*
X37043180Y-101094720D01*
X37076666Y-101156043D01*
X37079500Y-101182402D01*
X37079500Y-101397597D01*
X37059815Y-101464636D01*
X37043181Y-101485278D01*
X37006775Y-101521683D01*
X36956028Y-101630512D01*
X36956028Y-101630513D01*
X36949500Y-101680099D01*
X36949500Y-101888892D01*
X36949501Y-102025500D01*
X36929817Y-102092539D01*
X36877013Y-102138294D01*
X36825501Y-102149500D01*
X36604344Y-102149500D01*
X36580153Y-102147117D01*
X36565000Y-102144102D01*
X36549847Y-102147117D01*
X36549843Y-102147117D01*
X36457505Y-102165484D01*
X36415533Y-102193528D01*
X36396967Y-102205934D01*
X36396959Y-102205939D01*
X36389378Y-102211006D01*
X36389376Y-102211007D01*
X36386149Y-102213162D01*
X36386146Y-102213165D01*
X36366375Y-102226376D01*
X36357792Y-102239222D01*
X36342372Y-102258010D01*
X35683010Y-102917372D01*
X35664222Y-102932791D01*
X35651376Y-102941374D01*
X35597269Y-103022351D01*
X35581848Y-103041141D01*
X35580243Y-103042745D01*
X35582636Y-103064997D01*
X35551361Y-103127476D01*
X35530717Y-103145044D01*
X35486132Y-103211769D01*
X35479438Y-103245424D01*
X35447052Y-103307335D01*
X35426712Y-103324333D01*
X35358935Y-103369619D01*
X35358925Y-103369626D01*
X35349378Y-103376006D01*
X35349376Y-103376007D01*
X35346146Y-103378164D01*
X35346143Y-103378167D01*
X35326375Y-103391376D01*
X35317792Y-103404222D01*
X35302372Y-103423010D01*
X34684009Y-104041373D01*
X34665221Y-104056792D01*
X34652375Y-104065375D01*
X34591484Y-104156504D01*
X34585754Y-104185316D01*
X34570102Y-104264000D01*
X34573116Y-104279152D01*
X34575499Y-104303344D01*
X34575499Y-107321401D01*
X34573116Y-107345592D01*
X34570102Y-107360744D01*
X34573116Y-107375896D01*
X34573116Y-107375899D01*
X34578836Y-107404653D01*
X34591484Y-107468240D01*
X34617046Y-107506496D01*
X34636545Y-107535679D01*
X34652375Y-107559369D01*
X34665221Y-107567952D01*
X34684010Y-107583372D01*
X39467624Y-112366986D01*
X39483045Y-112385776D01*
X39491630Y-112398624D01*
X39504472Y-112407204D01*
X39504476Y-112407208D01*
X39514631Y-112413993D01*
X39514632Y-112413994D01*
X39540788Y-112431471D01*
X39582759Y-112459515D01*
X39663121Y-112475500D01*
X39663122Y-112475500D01*
X39675100Y-112477882D01*
X39675101Y-112477883D01*
X39690254Y-112480897D01*
X39705407Y-112477883D01*
X39729598Y-112475500D01*
X53760656Y-112475500D01*
X53784847Y-112477883D01*
X53800000Y-112480897D01*
X53815153Y-112477883D01*
X53815153Y-112477882D01*
X53827132Y-112475500D01*
X53827133Y-112475500D01*
X53907495Y-112459515D01*
X53932654Y-112442703D01*
X53949466Y-112431471D01*
X53989051Y-112405022D01*
X53989054Y-112405017D01*
X53998624Y-112398624D01*
X54007211Y-112385771D01*
X54022624Y-112366990D01*
X58966990Y-107422624D01*
X58985770Y-107407212D01*
X58998624Y-107398624D01*
X58998625Y-107398622D01*
X59006612Y-107393286D01*
X59073291Y-107372411D01*
X59140670Y-107390898D01*
X59187358Y-107442879D01*
X59199499Y-107496391D01*
X59199499Y-111540784D01*
X59195429Y-111569962D01*
X59198971Y-111608181D01*
X59199500Y-111619623D01*
X59199500Y-111627847D01*
X59201011Y-111635935D01*
X59202591Y-111647262D01*
X59206133Y-111685481D01*
X59213975Y-111708876D01*
X59234178Y-111741505D01*
X59239741Y-111751492D01*
X59251020Y-111774142D01*
X59256862Y-111785874D01*
X59272618Y-111804848D01*
X59303247Y-111827977D01*
X59312059Y-111835295D01*
X59321426Y-111843834D01*
X59340421Y-111861150D01*
X59361971Y-111873154D01*
X59398887Y-111883657D01*
X59409750Y-111887298D01*
X59445538Y-111901163D01*
X59469966Y-111904570D01*
X59471792Y-111904400D01*
X59471793Y-111904401D01*
X59502110Y-111901591D01*
X59508182Y-111901029D01*
X59519624Y-111900500D01*
X60288399Y-111900500D01*
X60349810Y-111916775D01*
X60503817Y-112004570D01*
X60569750Y-112042156D01*
X60581096Y-112049469D01*
X60680200Y-112121283D01*
X60859109Y-112250924D01*
X60869594Y-112259429D01*
X61090490Y-112459514D01*
X61124057Y-112489918D01*
X61133555Y-112499513D01*
X61333926Y-112725291D01*
X61361448Y-112756302D01*
X61369846Y-112766873D01*
X61516508Y-112973656D01*
X61568466Y-113046912D01*
X61575664Y-113058331D01*
X61678224Y-113242562D01*
X61742660Y-113358310D01*
X61748572Y-113370440D01*
X61881971Y-113686817D01*
X61886528Y-113699517D01*
X61984728Y-114028495D01*
X61987880Y-114041624D01*
X62049731Y-114379333D01*
X62051437Y-114392727D01*
X62076204Y-114735165D01*
X62076443Y-114748665D01*
X62063831Y-115091758D01*
X62062601Y-115105204D01*
X62012761Y-115444887D01*
X62010077Y-115458120D01*
X61923597Y-115790380D01*
X61919490Y-115803242D01*
X61797396Y-116124135D01*
X61791914Y-116136475D01*
X61635663Y-116442171D01*
X61628873Y-116453841D01*
X61440295Y-116740762D01*
X61432275Y-116751625D01*
X61213641Y-117016314D01*
X61204489Y-117026240D01*
X60958351Y-117265611D01*
X60948173Y-117274483D01*
X60677486Y-117485658D01*
X60666404Y-117493372D01*
X60374343Y-117673876D01*
X60362488Y-117680338D01*
X60052552Y-117828008D01*
X60040064Y-117833144D01*
X59715895Y-117946244D01*
X59702923Y-117949991D01*
X59368390Y-118027173D01*
X59355088Y-118029488D01*
X59014131Y-118069841D01*
X59000656Y-118070695D01*
X58657354Y-118073739D01*
X58643866Y-118073124D01*
X58302245Y-118038820D01*
X58288904Y-118036741D01*
X57953052Y-117965501D01*
X57940016Y-117961984D01*
X57613905Y-117854651D01*
X57601328Y-117849738D01*
X57288815Y-117707583D01*
X57276847Y-117701332D01*
X56981635Y-117526035D01*
X56970418Y-117518519D01*
X56937925Y-117494084D01*
X56696024Y-117312171D01*
X56685693Y-117303483D01*
X56435349Y-117068513D01*
X56426033Y-117058761D01*
X56202724Y-116797969D01*
X56194522Y-116787262D01*
X56000890Y-116503732D01*
X55993894Y-116492184D01*
X55841435Y-116206518D01*
X55832241Y-116189290D01*
X55826549Y-116177068D01*
X55734596Y-115947711D01*
X55698783Y-115858381D01*
X55694449Y-115845594D01*
X55648828Y-115682252D01*
X55602093Y-115514923D01*
X55599176Y-115501746D01*
X55543318Y-115162975D01*
X55541853Y-115149583D01*
X55525840Y-114855902D01*
X55527711Y-114839189D01*
X55524079Y-114800000D01*
X56494564Y-114800000D01*
X56494828Y-114804043D01*
X56494829Y-114804043D01*
X56513686Y-115091758D01*
X56514287Y-115100920D01*
X56515077Y-115104891D01*
X56515078Y-115104899D01*
X56572327Y-115392707D01*
X56572329Y-115392714D01*
X56573120Y-115396691D01*
X56670055Y-115682252D01*
X56671850Y-115685893D01*
X56671851Y-115685894D01*
X56758575Y-115861754D01*
X56803434Y-115952718D01*
X56805685Y-115956087D01*
X56805688Y-115956092D01*
X56957525Y-116183332D01*
X56970975Y-116203461D01*
X57169811Y-116430189D01*
X57396539Y-116629025D01*
X57399921Y-116631284D01*
X57399920Y-116631284D01*
X57633348Y-116787256D01*
X57647282Y-116796566D01*
X57917748Y-116929945D01*
X58203309Y-117026880D01*
X58499080Y-117085713D01*
X58800000Y-117105436D01*
X59100920Y-117085713D01*
X59396691Y-117026880D01*
X59682252Y-116929945D01*
X59952718Y-116796566D01*
X60203461Y-116629025D01*
X60430189Y-116430189D01*
X60629025Y-116203461D01*
X60796566Y-115952718D01*
X60929945Y-115682252D01*
X61026880Y-115396691D01*
X61085713Y-115100920D01*
X61105436Y-114800000D01*
X61104525Y-114786108D01*
X61103587Y-114771793D01*
X61085713Y-114499080D01*
X61026880Y-114203309D01*
X60929945Y-113917748D01*
X60796566Y-113647282D01*
X60629025Y-113396539D01*
X60430189Y-113169811D01*
X60399742Y-113143110D01*
X60206518Y-112973656D01*
X60203461Y-112970975D01*
X60068234Y-112880619D01*
X59956092Y-112805688D01*
X59956087Y-112805685D01*
X59952718Y-112803434D01*
X59949082Y-112801641D01*
X59949077Y-112801638D01*
X59685894Y-112671851D01*
X59685893Y-112671850D01*
X59682252Y-112670055D01*
X59396691Y-112573120D01*
X59392714Y-112572329D01*
X59392707Y-112572327D01*
X59104899Y-112515078D01*
X59104891Y-112515077D01*
X59100920Y-112514287D01*
X58800000Y-112494564D01*
X58795957Y-112494829D01*
X58503122Y-112514022D01*
X58503120Y-112514022D01*
X58499080Y-112514287D01*
X58495110Y-112515076D01*
X58495100Y-112515078D01*
X58207292Y-112572327D01*
X58207281Y-112572329D01*
X58203309Y-112573120D01*
X58199466Y-112574424D01*
X58199464Y-112574425D01*
X57921594Y-112668749D01*
X57921587Y-112668751D01*
X57917748Y-112670055D01*
X57914111Y-112671848D01*
X57914105Y-112671851D01*
X57650922Y-112801638D01*
X57650910Y-112801644D01*
X57647282Y-112803434D01*
X57643919Y-112805681D01*
X57643907Y-112805688D01*
X57399920Y-112968715D01*
X57399911Y-112968721D01*
X57396539Y-112970975D01*
X57393488Y-112973650D01*
X57393481Y-112973656D01*
X57172859Y-113167137D01*
X57172851Y-113167144D01*
X57169811Y-113169811D01*
X57167144Y-113172851D01*
X57167137Y-113172859D01*
X56973656Y-113393481D01*
X56973650Y-113393488D01*
X56970975Y-113396539D01*
X56968721Y-113399911D01*
X56968715Y-113399920D01*
X56805688Y-113643907D01*
X56805681Y-113643919D01*
X56803434Y-113647282D01*
X56801644Y-113650910D01*
X56801638Y-113650922D01*
X56671851Y-113914105D01*
X56671848Y-113914111D01*
X56670055Y-113917748D01*
X56668751Y-113921587D01*
X56668749Y-113921594D01*
X56592344Y-114146677D01*
X56573120Y-114203309D01*
X56572329Y-114207281D01*
X56572327Y-114207292D01*
X56515078Y-114495100D01*
X56515076Y-114495110D01*
X56514287Y-114499080D01*
X56514022Y-114503120D01*
X56514022Y-114503122D01*
X56495100Y-114791817D01*
X56494564Y-114800000D01*
X55524079Y-114800000D01*
X55523321Y-114791817D01*
X55522792Y-114780375D01*
X55522792Y-114752405D01*
X55522690Y-114752092D01*
X55517148Y-114725211D01*
X55516327Y-114716340D01*
X55505304Y-114694203D01*
X55498372Y-114677248D01*
X55493377Y-114661875D01*
X55486199Y-114651996D01*
X55475514Y-114634377D01*
X55466251Y-114615774D01*
X55466250Y-114615773D01*
X55466250Y-114615772D01*
X55456727Y-114607091D01*
X55439951Y-114588341D01*
X55437427Y-114584867D01*
X55435126Y-114583195D01*
X55417971Y-114570731D01*
X55407337Y-114562066D01*
X55383225Y-114540084D01*
X55383224Y-114540083D01*
X55382589Y-114539837D01*
X55382337Y-114539740D01*
X55365511Y-114530570D01*
X55326338Y-114517842D01*
X55319864Y-114515538D01*
X55287814Y-114503122D01*
X55278465Y-114499500D01*
X34583128Y-114499500D01*
X34487938Y-114499500D01*
X34487937Y-114499500D01*
X34468810Y-114505714D01*
X34453283Y-114509670D01*
X34425098Y-114514939D01*
X34420899Y-114517539D01*
X34399233Y-114527588D01*
X34371594Y-114547668D01*
X34363994Y-114552772D01*
X34327133Y-114575596D01*
X34294047Y-114621133D01*
X34261875Y-114663736D01*
X34248652Y-114710208D01*
X34247320Y-114714584D01*
X34232192Y-114761148D01*
X34230962Y-114769966D01*
X34233719Y-114799724D01*
X34234067Y-114817852D01*
X34216556Y-115141913D01*
X34215114Y-115155216D01*
X34160982Y-115486535D01*
X34158115Y-115499606D01*
X34068595Y-115823163D01*
X34064336Y-115835849D01*
X33940472Y-116147873D01*
X33934871Y-116160026D01*
X33778105Y-116456886D01*
X33771227Y-116468365D01*
X33583380Y-116746609D01*
X33575305Y-116757279D01*
X33358576Y-117013652D01*
X33349398Y-117023391D01*
X33106294Y-117254927D01*
X33096120Y-117263619D01*
X32829496Y-117467598D01*
X32818445Y-117475144D01*
X32531383Y-117649211D01*
X32519583Y-117655522D01*
X32215429Y-117797645D01*
X32203017Y-117802647D01*
X31885334Y-117911161D01*
X31872456Y-117914797D01*
X31544922Y-117988448D01*
X31531727Y-117990675D01*
X31198163Y-118028603D01*
X31184804Y-118029395D01*
X30849097Y-118031156D01*
X30835732Y-118030504D01*
X30501795Y-117996081D01*
X30488577Y-117993993D01*
X30160279Y-117923782D01*
X30147383Y-117920287D01*
X29828540Y-117815101D01*
X29816100Y-117810237D01*
X29523919Y-117677428D01*
X29510475Y-117671317D01*
X29498610Y-117665131D01*
X29209732Y-117494084D01*
X29198602Y-117486654D01*
X28929853Y-117285484D01*
X28919588Y-117276899D01*
X28735732Y-117105436D01*
X28674066Y-117047927D01*
X28664789Y-117038288D01*
X28654385Y-117026240D01*
X28445376Y-116784199D01*
X28437190Y-116773614D01*
X28418543Y-116746609D01*
X28246434Y-116497357D01*
X28239444Y-116485965D01*
X28079566Y-116190758D01*
X28073838Y-116178666D01*
X28063788Y-116154103D01*
X27946698Y-115867941D01*
X27942317Y-115855333D01*
X27849397Y-115532701D01*
X27846398Y-115519683D01*
X27845570Y-115514929D01*
X27788787Y-115188923D01*
X27787209Y-115175667D01*
X27765576Y-114840645D01*
X27765436Y-114827265D01*
X27766447Y-114804043D01*
X27766623Y-114800000D01*
X28694564Y-114800000D01*
X28694829Y-114804043D01*
X28713686Y-115091758D01*
X28714287Y-115100920D01*
X28715077Y-115104891D01*
X28715078Y-115104899D01*
X28772327Y-115392707D01*
X28772329Y-115392714D01*
X28773120Y-115396691D01*
X28870055Y-115682252D01*
X28871850Y-115685893D01*
X28871851Y-115685894D01*
X28958575Y-115861754D01*
X29003434Y-115952718D01*
X29005685Y-115956087D01*
X29005688Y-115956092D01*
X29157525Y-116183332D01*
X29170975Y-116203461D01*
X29369811Y-116430189D01*
X29596539Y-116629025D01*
X29599921Y-116631284D01*
X29599920Y-116631284D01*
X29833348Y-116787256D01*
X29847282Y-116796566D01*
X30117748Y-116929945D01*
X30403309Y-117026880D01*
X30699080Y-117085713D01*
X31000000Y-117105436D01*
X31300920Y-117085713D01*
X31596691Y-117026880D01*
X31882252Y-116929945D01*
X32152718Y-116796566D01*
X32403461Y-116629025D01*
X32630189Y-116430189D01*
X32829025Y-116203461D01*
X32996566Y-115952718D01*
X33129945Y-115682252D01*
X33226880Y-115396691D01*
X33285713Y-115100920D01*
X33305436Y-114800000D01*
X33304525Y-114786108D01*
X33303587Y-114771793D01*
X33285713Y-114499080D01*
X33226880Y-114203309D01*
X33129945Y-113917748D01*
X32996566Y-113647282D01*
X32829025Y-113396539D01*
X32630189Y-113169811D01*
X32599742Y-113143110D01*
X32406518Y-112973656D01*
X32403461Y-112970975D01*
X32268234Y-112880619D01*
X32156092Y-112805688D01*
X32156087Y-112805685D01*
X32152718Y-112803434D01*
X32149082Y-112801641D01*
X32149077Y-112801638D01*
X31885894Y-112671851D01*
X31885893Y-112671850D01*
X31882252Y-112670055D01*
X31596691Y-112573120D01*
X31592714Y-112572329D01*
X31592707Y-112572327D01*
X31304899Y-112515078D01*
X31304891Y-112515077D01*
X31300920Y-112514287D01*
X31000000Y-112494564D01*
X30995957Y-112494829D01*
X30703122Y-112514022D01*
X30703120Y-112514022D01*
X30699080Y-112514287D01*
X30695110Y-112515076D01*
X30695100Y-112515078D01*
X30407292Y-112572327D01*
X30407281Y-112572329D01*
X30403309Y-112573120D01*
X30399466Y-112574424D01*
X30399464Y-112574425D01*
X30121594Y-112668749D01*
X30121587Y-112668751D01*
X30117748Y-112670055D01*
X30114111Y-112671848D01*
X30114105Y-112671851D01*
X29850922Y-112801638D01*
X29850910Y-112801644D01*
X29847282Y-112803434D01*
X29843919Y-112805681D01*
X29843907Y-112805688D01*
X29599920Y-112968715D01*
X29599911Y-112968721D01*
X29596539Y-112970975D01*
X29593488Y-112973650D01*
X29593481Y-112973656D01*
X29372859Y-113167137D01*
X29372851Y-113167144D01*
X29369811Y-113169811D01*
X29367144Y-113172851D01*
X29367137Y-113172859D01*
X29173656Y-113393481D01*
X29173650Y-113393488D01*
X29170975Y-113396539D01*
X29168721Y-113399911D01*
X29168715Y-113399920D01*
X29005688Y-113643907D01*
X29005681Y-113643919D01*
X29003434Y-113647282D01*
X29001644Y-113650910D01*
X29001638Y-113650922D01*
X28871851Y-113914105D01*
X28871848Y-113914111D01*
X28870055Y-113917748D01*
X28868751Y-113921587D01*
X28868749Y-113921594D01*
X28792344Y-114146677D01*
X28773120Y-114203309D01*
X28772329Y-114207281D01*
X28772327Y-114207292D01*
X28715078Y-114495100D01*
X28715076Y-114495110D01*
X28714287Y-114499080D01*
X28714022Y-114503120D01*
X28714022Y-114503122D01*
X28695100Y-114791817D01*
X28694564Y-114800000D01*
X27766623Y-114800000D01*
X27780032Y-114491856D01*
X27781331Y-114478562D01*
X27831986Y-114146668D01*
X27834712Y-114133587D01*
X27920839Y-113809080D01*
X27924954Y-113796386D01*
X28045545Y-113483053D01*
X28051008Y-113470864D01*
X28204663Y-113172350D01*
X28211407Y-113160822D01*
X28396344Y-112880590D01*
X28404274Y-112869880D01*
X28618332Y-112611208D01*
X28627382Y-112601401D01*
X28868060Y-112367309D01*
X28878129Y-112358522D01*
X29142608Y-112151748D01*
X29153575Y-112144090D01*
X29354821Y-112019151D01*
X29420224Y-112000500D01*
X30140784Y-112000500D01*
X30169966Y-112004570D01*
X30171792Y-112004400D01*
X30171793Y-112004401D01*
X30208182Y-112001028D01*
X30219624Y-112000500D01*
X30227842Y-112000500D01*
X30227844Y-112000500D01*
X30235930Y-111998988D01*
X30247256Y-111997407D01*
X30283660Y-111994035D01*
X30283661Y-111994034D01*
X30285486Y-111993865D01*
X30308868Y-111986028D01*
X30310428Y-111985061D01*
X30310433Y-111985061D01*
X30341528Y-111965806D01*
X30351486Y-111960260D01*
X30384228Y-111943958D01*
X30384230Y-111943955D01*
X30385878Y-111943135D01*
X30404841Y-111927389D01*
X30405950Y-111925920D01*
X30405952Y-111925919D01*
X30427980Y-111896747D01*
X30435282Y-111887953D01*
X30459916Y-111860933D01*
X30459916Y-111860931D01*
X30461154Y-111859574D01*
X30473153Y-111838031D01*
X30483655Y-111801119D01*
X30487296Y-111790254D01*
X30493538Y-111774142D01*
X30500500Y-111756173D01*
X30500500Y-111756171D01*
X30501163Y-111754460D01*
X30504570Y-111730034D01*
X30501029Y-111691816D01*
X30500500Y-111680375D01*
X30500500Y-85759215D01*
X30504570Y-85730034D01*
X30503605Y-85719623D01*
X30501029Y-85691816D01*
X30500500Y-85680375D01*
X30500500Y-85672156D01*
X30498990Y-85664080D01*
X30497407Y-85652731D01*
X30493866Y-85614515D01*
X30486029Y-85591132D01*
X30485061Y-85589569D01*
X30485061Y-85589567D01*
X30465814Y-85558482D01*
X30460246Y-85548484D01*
X30443141Y-85514130D01*
X30427383Y-85495153D01*
X30396750Y-85472020D01*
X30387935Y-85464700D01*
X30379239Y-85456772D01*
X30342959Y-85397060D01*
X30344722Y-85327212D01*
X30383968Y-85269406D01*
X30448235Y-85241994D01*
X30486967Y-85243520D01*
X30699080Y-85285713D01*
X31000000Y-85305436D01*
X31300920Y-85285713D01*
X31596691Y-85226880D01*
X31882252Y-85129945D01*
X32152718Y-84996566D01*
X32403461Y-84829025D01*
X32630189Y-84630189D01*
X32829025Y-84403461D01*
X32996566Y-84152718D01*
X33129945Y-83882252D01*
X33226880Y-83596691D01*
X33285713Y-83300920D01*
X33305436Y-83000000D01*
X33285713Y-82699080D01*
X33226880Y-82403309D01*
X33129945Y-82117748D01*
X32996566Y-81847282D01*
X32829025Y-81596539D01*
X32630189Y-81369811D01*
X32599742Y-81343110D01*
X32406518Y-81173656D01*
X32403461Y-81170975D01*
X32313478Y-81110850D01*
X32156092Y-81005688D01*
X32156087Y-81005685D01*
X32152718Y-81003434D01*
X32149082Y-81001641D01*
X32149077Y-81001638D01*
X31885894Y-80871851D01*
X31885893Y-80871850D01*
X31882252Y-80870055D01*
X31828153Y-80851691D01*
X31643177Y-80788900D01*
X31596691Y-80773120D01*
X31592714Y-80772329D01*
X31592707Y-80772327D01*
X31304899Y-80715078D01*
X31304891Y-80715077D01*
X31300920Y-80714287D01*
X31000000Y-80694564D01*
X30995957Y-80694829D01*
X30703122Y-80714022D01*
X30703120Y-80714022D01*
X30699080Y-80714287D01*
X30695110Y-80715076D01*
X30695100Y-80715078D01*
X30407292Y-80772327D01*
X30407281Y-80772329D01*
X30403309Y-80773120D01*
X30399466Y-80774424D01*
X30399464Y-80774425D01*
X30121594Y-80868749D01*
X30121587Y-80868751D01*
X30117748Y-80870055D01*
X30114111Y-80871848D01*
X30114105Y-80871851D01*
X29850922Y-81001638D01*
X29850910Y-81001644D01*
X29847282Y-81003434D01*
X29843919Y-81005681D01*
X29843907Y-81005688D01*
X29599920Y-81168715D01*
X29599911Y-81168721D01*
X29596539Y-81170975D01*
X29593488Y-81173650D01*
X29593481Y-81173656D01*
X29372859Y-81367137D01*
X29372851Y-81367144D01*
X29369811Y-81369811D01*
X29367144Y-81372851D01*
X29367137Y-81372859D01*
X29173656Y-81593481D01*
X29173650Y-81593488D01*
X29170975Y-81596539D01*
X29168721Y-81599911D01*
X29168715Y-81599920D01*
X29005688Y-81843907D01*
X29005681Y-81843919D01*
X29003434Y-81847282D01*
X29001644Y-81850910D01*
X29001638Y-81850922D01*
X28871851Y-82114105D01*
X28871848Y-82114111D01*
X28870055Y-82117748D01*
X28868751Y-82121587D01*
X28868749Y-82121594D01*
X28774425Y-82399464D01*
X28773120Y-82403309D01*
X28772329Y-82407281D01*
X28772327Y-82407292D01*
X28715078Y-82695100D01*
X28715076Y-82695110D01*
X28714287Y-82699080D01*
X28714022Y-82703120D01*
X28714022Y-82703122D01*
X28712949Y-82719495D01*
X28694564Y-83000000D01*
X28694829Y-83004043D01*
X28711599Y-83259916D01*
X28714287Y-83300920D01*
X28715077Y-83304891D01*
X28715078Y-83304899D01*
X28772327Y-83592707D01*
X28772329Y-83592714D01*
X28773120Y-83596691D01*
X28870055Y-83882252D01*
X28871850Y-83885893D01*
X28871851Y-83885894D01*
X28965331Y-84075454D01*
X29003434Y-84152718D01*
X29005685Y-84156087D01*
X29005688Y-84156092D01*
X29148218Y-84369403D01*
X29170975Y-84403461D01*
X29369811Y-84630189D01*
X29596539Y-84829025D01*
X29847282Y-84996566D01*
X30117748Y-85129945D01*
X30121596Y-85131251D01*
X30121598Y-85131252D01*
X30200633Y-85158081D01*
X30257788Y-85198270D01*
X30284141Y-85262979D01*
X30271327Y-85331663D01*
X30223413Y-85382516D01*
X30160775Y-85399500D01*
X28770297Y-85399500D01*
X28703258Y-85379815D01*
X28684377Y-85364908D01*
X28549056Y-85234865D01*
X28540060Y-85225250D01*
X28391042Y-85047989D01*
X28323539Y-84967692D01*
X28315623Y-84957191D01*
X28138830Y-84694748D01*
X28127626Y-84678116D01*
X28120860Y-84666820D01*
X27963527Y-84369403D01*
X27958000Y-84357463D01*
X27833077Y-84045006D01*
X27828851Y-84032553D01*
X27737773Y-83708636D01*
X27734887Y-83695790D01*
X27678670Y-83364049D01*
X27677162Y-83350968D01*
X27672981Y-83283218D01*
X27656438Y-83015128D01*
X27656327Y-83001962D01*
X27666854Y-82766145D01*
X27671332Y-82665816D01*
X27672617Y-82652715D01*
X27673428Y-82647382D01*
X27723181Y-82320059D01*
X27725848Y-82307170D01*
X27775648Y-82117748D01*
X27811402Y-81981747D01*
X27815415Y-81969226D01*
X27935005Y-81654681D01*
X27940318Y-81642671D01*
X28092582Y-81342590D01*
X28099140Y-81331207D01*
X28282366Y-81048963D01*
X28290099Y-81038334D01*
X28502222Y-80777108D01*
X28511022Y-80767376D01*
X28749660Y-80530105D01*
X28759452Y-80521352D01*
X29021896Y-80310729D01*
X29032560Y-80303066D01*
X29315851Y-80121465D01*
X29327283Y-80114966D01*
X29628235Y-79964427D01*
X29640270Y-79959187D01*
X29955499Y-79841405D01*
X29968033Y-79837467D01*
X30293963Y-79753778D01*
X30306837Y-79751192D01*
X30639814Y-79702534D01*
X30652900Y-79701328D01*
X30992269Y-79688133D01*
X31003574Y-79688208D01*
G37*
%TD.AperFunction*%
%TA.AperFunction,Conductor*%
G36*
X37630703Y-106560765D02*
G01*
X37637181Y-106566797D01*
X42783203Y-111712819D01*
X42816688Y-111774142D01*
X42811704Y-111843834D01*
X42769832Y-111899767D01*
X42704368Y-111924184D01*
X42695522Y-111924500D01*
X39855732Y-111924500D01*
X39788693Y-111904815D01*
X39768051Y-111888181D01*
X37103494Y-109223624D01*
X37070009Y-109162301D01*
X37074993Y-109092609D01*
X37116865Y-109036676D01*
X37166984Y-109014326D01*
X37171299Y-109013467D01*
X37193684Y-109009015D01*
X37254510Y-108968372D01*
X37261811Y-108963494D01*
X37261811Y-108963493D01*
X37275239Y-108954521D01*
X37275239Y-108954520D01*
X37284813Y-108948124D01*
X37293400Y-108935271D01*
X37308813Y-108916490D01*
X37566490Y-108658813D01*
X37585270Y-108643401D01*
X37598124Y-108634813D01*
X37659015Y-108543684D01*
X37675000Y-108463322D01*
X37675000Y-108463321D01*
X37677383Y-108451343D01*
X37677383Y-108451340D01*
X37680397Y-108436189D01*
X37677383Y-108421036D01*
X37675000Y-108396845D01*
X37675000Y-108103154D01*
X37677383Y-108078962D01*
X37677952Y-108076103D01*
X37680397Y-108063811D01*
X37659015Y-107956316D01*
X37635956Y-107921806D01*
X37606712Y-107878038D01*
X37606705Y-107878030D01*
X37598123Y-107865186D01*
X37585276Y-107856602D01*
X37566490Y-107841185D01*
X37461818Y-107736513D01*
X37428334Y-107675190D01*
X37425500Y-107648832D01*
X37425500Y-106654478D01*
X37445185Y-106587439D01*
X37497989Y-106541684D01*
X37567147Y-106531740D01*
X37630703Y-106560765D01*
G37*
%TD.AperFunction*%
%TA.AperFunction,Conductor*%
G36*
X38750735Y-102580196D02*
G01*
X38784106Y-102621007D01*
X38851471Y-102753220D01*
X38888180Y-102789928D01*
X38921666Y-102851251D01*
X38924500Y-102877610D01*
X38924500Y-103799521D01*
X38904815Y-103866560D01*
X38888181Y-103887202D01*
X37577707Y-105197675D01*
X37516384Y-105231160D01*
X37446692Y-105226176D01*
X37421135Y-105213096D01*
X37403231Y-105201133D01*
X37344749Y-105189500D01*
X37344748Y-105189500D01*
X36955252Y-105189500D01*
X36955251Y-105189500D01*
X36896769Y-105201133D01*
X36893888Y-105203058D01*
X36827210Y-105223934D01*
X36759830Y-105205448D01*
X36756143Y-105203078D01*
X36753231Y-105201133D01*
X36753230Y-105201132D01*
X36753229Y-105201132D01*
X36694749Y-105189500D01*
X36694748Y-105189500D01*
X36305252Y-105189500D01*
X36305251Y-105189500D01*
X36246769Y-105201133D01*
X36243888Y-105203058D01*
X36177210Y-105223934D01*
X36109830Y-105205448D01*
X36106143Y-105203078D01*
X36103231Y-105201133D01*
X36103230Y-105201132D01*
X36103229Y-105201132D01*
X36044749Y-105189500D01*
X36044748Y-105189500D01*
X35655252Y-105189500D01*
X35655251Y-105189500D01*
X35596769Y-105201132D01*
X35530447Y-105245447D01*
X35486132Y-105311769D01*
X35474500Y-105370251D01*
X35474500Y-105624521D01*
X35454815Y-105691560D01*
X35438182Y-105712201D01*
X35338178Y-105812205D01*
X35276858Y-105845689D01*
X35207166Y-105840705D01*
X35151232Y-105798834D01*
X35126815Y-105733370D01*
X35126499Y-105724523D01*
X35126499Y-104429478D01*
X35146184Y-104362439D01*
X35162814Y-104341801D01*
X35422293Y-104082321D01*
X35483614Y-104048838D01*
X35553305Y-104053822D01*
X35578857Y-104066898D01*
X35596769Y-104078867D01*
X35635757Y-104086622D01*
X35655251Y-104090500D01*
X35655252Y-104090500D01*
X36044749Y-104090500D01*
X36081709Y-104083148D01*
X36103231Y-104078867D01*
X36169552Y-104034552D01*
X36213867Y-103968231D01*
X36225500Y-103909748D01*
X36774500Y-103909748D01*
X36786132Y-103968230D01*
X36830447Y-104034552D01*
X36896769Y-104078867D01*
X36955251Y-104090500D01*
X36955252Y-104090500D01*
X37344749Y-104090500D01*
X37381709Y-104083148D01*
X37403231Y-104078867D01*
X37469552Y-104034552D01*
X37513867Y-103968231D01*
X37525500Y-103909748D01*
X37525500Y-103270252D01*
X37520561Y-103245424D01*
X37513867Y-103211769D01*
X37469552Y-103145447D01*
X37403230Y-103101132D01*
X37344749Y-103089500D01*
X37344748Y-103089500D01*
X36955252Y-103089500D01*
X36955251Y-103089500D01*
X36896769Y-103101132D01*
X36830447Y-103145447D01*
X36786132Y-103211769D01*
X36774500Y-103270251D01*
X36774500Y-103909748D01*
X36225500Y-103909748D01*
X36225500Y-103270252D01*
X36219162Y-103238388D01*
X36225389Y-103168797D01*
X36253095Y-103126519D01*
X36642796Y-102736819D01*
X36704120Y-102703334D01*
X36730478Y-102700500D01*
X38135656Y-102700500D01*
X38159847Y-102702883D01*
X38175000Y-102705897D01*
X38190153Y-102702883D01*
X38190153Y-102702882D01*
X38202132Y-102700500D01*
X38202133Y-102700500D01*
X38282495Y-102684515D01*
X38329640Y-102653013D01*
X38381081Y-102636905D01*
X38380602Y-102633877D01*
X38533126Y-102609719D01*
X38617326Y-102566817D01*
X38685995Y-102553920D01*
X38750735Y-102580196D01*
G37*
%TD.AperFunction*%
%TA.AperFunction,Conductor*%
G36*
X40279705Y-103920730D02*
G01*
X40286183Y-103926762D01*
X40304438Y-103945017D01*
X40304440Y-103945018D01*
X40424534Y-104006209D01*
X40452558Y-104010647D01*
X40515690Y-104040575D01*
X40552622Y-104099886D01*
X40557159Y-104133120D01*
X40557160Y-107468182D01*
X40537475Y-107535221D01*
X40484671Y-107580976D01*
X40415513Y-107590920D01*
X40351957Y-107561895D01*
X40345479Y-107555863D01*
X40110821Y-107321205D01*
X40077336Y-107259882D01*
X40074502Y-107233524D01*
X40074502Y-104014443D01*
X40094187Y-103947404D01*
X40146991Y-103901649D01*
X40216149Y-103891705D01*
X40279705Y-103920730D01*
G37*
%TD.AperFunction*%
%TA.AperFunction,Conductor*%
G36*
X43381334Y-104990708D02*
G01*
X43412912Y-104996990D01*
X43412913Y-104996990D01*
X43902407Y-104996990D01*
X43902408Y-104996990D01*
X43933968Y-104990712D01*
X44003559Y-104996939D01*
X44058737Y-105039801D01*
X44081982Y-105105690D01*
X44082160Y-105112329D01*
X44082160Y-105636077D01*
X44079777Y-105660268D01*
X44076763Y-105675420D01*
X44079777Y-105690572D01*
X44079777Y-105690575D01*
X44084079Y-105712202D01*
X44098145Y-105782916D01*
X44115685Y-105809166D01*
X44123701Y-105821163D01*
X44143303Y-105850501D01*
X44159035Y-105874044D01*
X44159036Y-105874045D01*
X44171882Y-105882628D01*
X44190671Y-105898048D01*
X45623812Y-107331189D01*
X45657297Y-107392512D01*
X45652313Y-107462204D01*
X45610441Y-107518137D01*
X45544977Y-107542554D01*
X45513350Y-107540759D01*
X45506614Y-107539500D01*
X45506610Y-107539500D01*
X45293390Y-107539500D01*
X45187101Y-107559369D01*
X45083801Y-107578679D01*
X44884982Y-107655701D01*
X44703698Y-107767947D01*
X44546126Y-107911594D01*
X44417631Y-108081747D01*
X44322595Y-108272609D01*
X44264243Y-108477689D01*
X44244571Y-108689999D01*
X44264243Y-108902310D01*
X44322595Y-109107390D01*
X44417631Y-109298252D01*
X44532619Y-109450519D01*
X44557311Y-109515880D01*
X44542746Y-109584215D01*
X44493549Y-109633827D01*
X44433665Y-109649246D01*
X44340224Y-109649246D01*
X44273185Y-109629561D01*
X44252543Y-109612927D01*
X43269479Y-108629863D01*
X43235994Y-108568540D01*
X43233160Y-108542182D01*
X43233160Y-106685298D01*
X43252845Y-106618259D01*
X43272438Y-106601281D01*
X43271504Y-106600662D01*
X43444197Y-106600662D01*
X43476137Y-106650363D01*
X43479633Y-106665900D01*
X43490280Y-106733124D01*
X43551472Y-106853221D01*
X43646778Y-106948527D01*
X43646780Y-106948528D01*
X43766874Y-107009719D01*
X43833436Y-107020261D01*
X43899999Y-107030804D01*
X43899999Y-107030803D01*
X43900000Y-107030804D01*
X44033126Y-107009719D01*
X44153220Y-106948528D01*
X44248528Y-106853220D01*
X44309719Y-106733126D01*
X44330804Y-106600000D01*
X44309719Y-106466874D01*
X44248528Y-106346780D01*
X44248527Y-106346778D01*
X44153221Y-106251472D01*
X44033124Y-106190280D01*
X43899999Y-106169195D01*
X43766875Y-106190280D01*
X43646778Y-106251472D01*
X43551472Y-106346778D01*
X43490280Y-106466875D01*
X43479633Y-106534099D01*
X43449704Y-106597234D01*
X43444197Y-106600662D01*
X43271504Y-106600662D01*
X43262297Y-106594557D01*
X43234183Y-106530593D01*
X43233160Y-106514701D01*
X43233160Y-105112329D01*
X43252845Y-105045290D01*
X43305649Y-104999535D01*
X43374807Y-104989591D01*
X43381334Y-104990708D01*
G37*
%TD.AperFunction*%
%TA.AperFunction,Conductor*%
G36*
X55512007Y-109462181D02*
G01*
X55557762Y-109514985D01*
X55567706Y-109584143D01*
X55538681Y-109647699D01*
X55532649Y-109654177D01*
X53662159Y-111524667D01*
X53600836Y-111558152D01*
X53574478Y-111560986D01*
X50654309Y-111560986D01*
X50587270Y-111541301D01*
X50541515Y-111488497D01*
X50531571Y-111419339D01*
X50560596Y-111355783D01*
X50566628Y-111349305D01*
X50664931Y-111251001D01*
X51006315Y-110909616D01*
X51067636Y-110876133D01*
X51074596Y-110874826D01*
X51083744Y-110873377D01*
X51216870Y-110852292D01*
X51336964Y-110791101D01*
X51432272Y-110695793D01*
X51493463Y-110575699D01*
X51514548Y-110442573D01*
X51493463Y-110309447D01*
X51432272Y-110189353D01*
X51432271Y-110189351D01*
X51336965Y-110094045D01*
X51216868Y-110032853D01*
X51083744Y-110011768D01*
X50950617Y-110032853D01*
X50936992Y-110039796D01*
X50868323Y-110052691D01*
X50803583Y-110026413D01*
X50793019Y-110016991D01*
X50749677Y-109973649D01*
X50629580Y-109912457D01*
X50496456Y-109891372D01*
X50363329Y-109912457D01*
X50272672Y-109958649D01*
X50204003Y-109971545D01*
X50139262Y-109945268D01*
X50105893Y-109904459D01*
X50075485Y-109844780D01*
X50036822Y-109806117D01*
X50003337Y-109744794D01*
X50008321Y-109675102D01*
X50050193Y-109619169D01*
X50068209Y-109607951D01*
X50204263Y-109538628D01*
X50204262Y-109538628D01*
X50204265Y-109538627D01*
X50264078Y-109478813D01*
X50325399Y-109445330D01*
X50351758Y-109442496D01*
X55444968Y-109442496D01*
X55512007Y-109462181D01*
G37*
%TD.AperFunction*%
%TA.AperFunction,Conductor*%
G36*
X50101561Y-89295185D02*
G01*
X50122203Y-89311819D01*
X50198203Y-89387819D01*
X50231688Y-89449142D01*
X50226704Y-89518834D01*
X50184832Y-89574767D01*
X50119368Y-89599184D01*
X50110522Y-89599500D01*
X50080251Y-89599500D01*
X50021769Y-89611132D01*
X49955447Y-89655447D01*
X49911132Y-89721769D01*
X49899500Y-89780251D01*
X49899500Y-90819748D01*
X49911132Y-90878230D01*
X49955447Y-90944552D01*
X50021769Y-90988867D01*
X50080251Y-91000500D01*
X50080252Y-91000500D01*
X50200500Y-91000500D01*
X50267539Y-91020185D01*
X50313294Y-91072989D01*
X50324500Y-91124500D01*
X50324500Y-91134521D01*
X50304815Y-91201560D01*
X50288183Y-91222200D01*
X50267205Y-91243179D01*
X50205883Y-91276666D01*
X50179522Y-91279500D01*
X49925684Y-91279500D01*
X49921668Y-91280028D01*
X49921663Y-91280029D01*
X49876827Y-91285931D01*
X49769594Y-91335935D01*
X49685935Y-91419594D01*
X49635931Y-91526827D01*
X49630029Y-91571663D01*
X49629500Y-91575684D01*
X49629500Y-92024316D01*
X49630028Y-92028332D01*
X49630029Y-92028336D01*
X49635931Y-92073172D01*
X49685935Y-92180405D01*
X49785056Y-92279526D01*
X49782362Y-92282219D01*
X49805340Y-92302448D01*
X49824500Y-92368664D01*
X49824500Y-93334521D01*
X49804815Y-93401560D01*
X49788181Y-93422202D01*
X49075713Y-94134671D01*
X49014390Y-94168156D01*
X48988032Y-94170990D01*
X48412122Y-94170990D01*
X48345083Y-94151305D01*
X48299328Y-94098501D01*
X48289384Y-94029343D01*
X48309020Y-93978099D01*
X48311580Y-93974268D01*
X48349515Y-93917495D01*
X48365500Y-93837133D01*
X48365500Y-93837132D01*
X48370897Y-93810000D01*
X48367883Y-93794847D01*
X48365500Y-93770656D01*
X48365500Y-92931627D01*
X48385185Y-92864588D01*
X48437989Y-92818833D01*
X48507147Y-92808889D01*
X48570703Y-92837914D01*
X48577181Y-92843946D01*
X48664270Y-92931035D01*
X48664272Y-92931036D01*
X48784366Y-92992227D01*
X48917492Y-93013312D01*
X49050618Y-92992227D01*
X49170712Y-92931036D01*
X49266020Y-92835728D01*
X49327211Y-92715634D01*
X49348296Y-92582508D01*
X49327211Y-92449382D01*
X49266020Y-92329288D01*
X49266019Y-92329286D01*
X49170713Y-92233980D01*
X49050616Y-92172788D01*
X48917492Y-92151703D01*
X48905505Y-92153602D01*
X48836212Y-92144648D01*
X48798426Y-92118810D01*
X48596819Y-91917203D01*
X48563334Y-91855880D01*
X48560500Y-91829522D01*
X48560500Y-91770477D01*
X48580185Y-91703438D01*
X48596815Y-91682800D01*
X48766990Y-91512624D01*
X48785775Y-91497208D01*
X48798624Y-91488624D01*
X48802852Y-91482296D01*
X48815417Y-91463494D01*
X48844747Y-91419596D01*
X48847944Y-91414812D01*
X48859515Y-91397495D01*
X48871760Y-91335934D01*
X48877883Y-91305155D01*
X48877883Y-91305151D01*
X48880897Y-91290000D01*
X48877883Y-91274847D01*
X48875500Y-91250656D01*
X48875500Y-91124500D01*
X48895185Y-91057461D01*
X48947989Y-91011706D01*
X48999500Y-91000500D01*
X49119749Y-91000500D01*
X49148989Y-90994683D01*
X49178231Y-90988867D01*
X49244552Y-90944552D01*
X49288867Y-90878231D01*
X49300500Y-90819748D01*
X49300500Y-89780252D01*
X49298052Y-89767947D01*
X49288867Y-89721769D01*
X49244552Y-89655447D01*
X49178230Y-89611132D01*
X49119749Y-89599500D01*
X49119748Y-89599500D01*
X48080252Y-89599500D01*
X48080251Y-89599500D01*
X48021769Y-89611132D01*
X47955447Y-89655447D01*
X47911132Y-89721769D01*
X47899500Y-89780251D01*
X47899500Y-90819748D01*
X47911132Y-90878230D01*
X47955447Y-90944552D01*
X48021769Y-90988867D01*
X48080251Y-91000500D01*
X48080252Y-91000500D01*
X48200500Y-91000500D01*
X48267539Y-91020185D01*
X48313294Y-91072989D01*
X48324500Y-91124500D01*
X48324500Y-91124520D01*
X48304815Y-91191559D01*
X48288183Y-91212200D01*
X48257204Y-91243180D01*
X48195881Y-91276666D01*
X48169521Y-91279500D01*
X47915684Y-91279500D01*
X47911668Y-91280028D01*
X47911663Y-91280029D01*
X47866827Y-91285931D01*
X47759594Y-91335935D01*
X47675935Y-91419594D01*
X47625931Y-91526827D01*
X47620029Y-91571663D01*
X47619500Y-91575684D01*
X47619500Y-92024316D01*
X47620028Y-92028332D01*
X47620029Y-92028336D01*
X47625931Y-92073172D01*
X47675935Y-92180405D01*
X47775056Y-92279526D01*
X47772362Y-92282219D01*
X47795340Y-92302448D01*
X47814500Y-92368664D01*
X47814500Y-93644522D01*
X47794815Y-93711561D01*
X47778181Y-93732203D01*
X47350713Y-94159671D01*
X47289390Y-94193156D01*
X47263032Y-94195990D01*
X46747003Y-94195990D01*
X46722814Y-94193608D01*
X46707659Y-94190593D01*
X46692506Y-94193608D01*
X46692504Y-94193608D01*
X46680528Y-94195990D01*
X46680527Y-94195990D01*
X46654675Y-94201132D01*
X46595016Y-94212998D01*
X46584870Y-94222194D01*
X46532038Y-94257496D01*
X46532036Y-94257497D01*
X46528806Y-94259654D01*
X46528803Y-94259657D01*
X46509035Y-94272866D01*
X46500452Y-94285712D01*
X46485032Y-94304500D01*
X46329861Y-94459672D01*
X46268541Y-94493156D01*
X46242182Y-94495990D01*
X46212911Y-94495990D01*
X46154429Y-94507622D01*
X46088107Y-94551937D01*
X46043792Y-94618259D01*
X46032160Y-94676741D01*
X46032160Y-95716238D01*
X46043792Y-95774720D01*
X46088107Y-95841042D01*
X46154429Y-95885357D01*
X46212911Y-95896990D01*
X46212912Y-95896990D01*
X46702407Y-95896990D01*
X46702408Y-95896990D01*
X46733968Y-95890712D01*
X46803559Y-95896939D01*
X46858737Y-95939801D01*
X46881982Y-96005690D01*
X46882160Y-96012329D01*
X46882160Y-96066115D01*
X46862475Y-96133154D01*
X46809671Y-96178909D01*
X46777560Y-96188588D01*
X46766875Y-96190280D01*
X46646778Y-96251472D01*
X46551472Y-96346778D01*
X46490280Y-96466875D01*
X46469195Y-96600000D01*
X46490280Y-96733124D01*
X46551472Y-96853221D01*
X46646778Y-96948527D01*
X46646780Y-96948528D01*
X46766874Y-97009719D01*
X46900000Y-97030804D01*
X47033126Y-97009719D01*
X47153220Y-96948528D01*
X47248528Y-96853220D01*
X47309719Y-96733126D01*
X47330804Y-96600000D01*
X47330803Y-96599999D01*
X47330887Y-96599475D01*
X47350261Y-96549977D01*
X47377203Y-96509659D01*
X47393148Y-96485794D01*
X47417175Y-96449835D01*
X47420338Y-96433934D01*
X47427088Y-96400000D01*
X47435543Y-96357495D01*
X47435543Y-96357491D01*
X47435963Y-96355381D01*
X47438557Y-96342340D01*
X47435543Y-96327187D01*
X47433160Y-96302996D01*
X47433160Y-96127009D01*
X47452845Y-96059970D01*
X47505649Y-96014215D01*
X47574807Y-96004271D01*
X47638363Y-96033296D01*
X47658080Y-96055644D01*
X47659034Y-96056281D01*
X47659036Y-96056284D01*
X47671886Y-96064870D01*
X47690671Y-96080287D01*
X47932955Y-96322571D01*
X47966440Y-96383894D01*
X47967747Y-96390854D01*
X47990280Y-96533124D01*
X48051472Y-96653221D01*
X48146778Y-96748527D01*
X48146780Y-96748528D01*
X48266874Y-96809719D01*
X48400000Y-96830804D01*
X48533126Y-96809719D01*
X48653220Y-96748528D01*
X48748528Y-96653220D01*
X48809719Y-96533126D01*
X48830804Y-96400000D01*
X48809719Y-96266874D01*
X48748528Y-96146780D01*
X48748527Y-96146778D01*
X48653221Y-96051472D01*
X48533124Y-95990280D01*
X48390854Y-95967747D01*
X48327719Y-95937818D01*
X48322571Y-95932955D01*
X48300550Y-95910934D01*
X48267065Y-95849611D01*
X48270634Y-95799691D01*
X48266715Y-95798912D01*
X48283160Y-95716238D01*
X48283160Y-94845990D01*
X48302845Y-94778951D01*
X48355649Y-94733196D01*
X48407160Y-94721990D01*
X48709309Y-94721990D01*
X48776348Y-94741675D01*
X48822103Y-94794479D01*
X48830552Y-94853243D01*
X48832160Y-94853243D01*
X48832160Y-95479980D01*
X48847940Y-95579614D01*
X48909132Y-95699711D01*
X49004438Y-95795017D01*
X49050499Y-95818486D01*
X49124534Y-95856209D01*
X49185251Y-95865825D01*
X49248383Y-95895753D01*
X49285315Y-95955065D01*
X49288324Y-95968900D01*
X49297940Y-96029614D01*
X49359132Y-96149711D01*
X49454438Y-96245017D01*
X49454440Y-96245018D01*
X49574534Y-96306209D01*
X49597958Y-96309919D01*
X49674170Y-96321990D01*
X49674172Y-96321990D01*
X50291150Y-96321990D01*
X50340966Y-96314099D01*
X50390786Y-96306209D01*
X50510880Y-96245018D01*
X50606188Y-96149710D01*
X50667379Y-96029616D01*
X50688464Y-95896490D01*
X50687574Y-95890873D01*
X50669178Y-95774721D01*
X50667379Y-95763364D01*
X50606188Y-95643270D01*
X50606187Y-95643268D01*
X50510881Y-95547962D01*
X50390784Y-95486770D01*
X50291150Y-95470990D01*
X50291148Y-95470990D01*
X49807160Y-95470990D01*
X49740121Y-95451305D01*
X49694366Y-95398501D01*
X49683160Y-95346990D01*
X49683160Y-94862999D01*
X49668303Y-94769196D01*
X49667379Y-94763364D01*
X49606188Y-94643270D01*
X49606187Y-94643268D01*
X49563948Y-94601030D01*
X49530462Y-94539707D01*
X49535446Y-94470015D01*
X49563945Y-94425669D01*
X50266990Y-93722624D01*
X50285770Y-93707212D01*
X50298624Y-93698624D01*
X50359515Y-93607495D01*
X50375500Y-93527133D01*
X50375500Y-93527132D01*
X50380897Y-93500000D01*
X50377883Y-93484847D01*
X50375500Y-93460656D01*
X50375500Y-92764477D01*
X50395185Y-92697438D01*
X50447989Y-92651683D01*
X50517147Y-92641739D01*
X50580703Y-92670764D01*
X50587155Y-92676771D01*
X50603185Y-92692801D01*
X50636667Y-92754124D01*
X50639500Y-92780477D01*
X50639500Y-93005840D01*
X50639500Y-93005855D01*
X50639501Y-93009900D01*
X50640029Y-93013916D01*
X50640030Y-93013921D01*
X50646028Y-93059488D01*
X50696776Y-93168317D01*
X50781683Y-93253224D01*
X50831827Y-93276606D01*
X50890513Y-93303972D01*
X50940099Y-93310500D01*
X50972546Y-93310499D01*
X51039583Y-93330181D01*
X51085340Y-93382984D01*
X51095285Y-93452142D01*
X51083032Y-93490793D01*
X51033543Y-93587920D01*
X51012458Y-93721047D01*
X51033543Y-93854171D01*
X51094735Y-93974268D01*
X51190041Y-94069574D01*
X51190043Y-94069575D01*
X51310137Y-94130766D01*
X51376699Y-94141308D01*
X51443262Y-94151851D01*
X51443262Y-94151850D01*
X51443263Y-94151851D01*
X51576389Y-94130766D01*
X51696483Y-94069575D01*
X51791791Y-93974267D01*
X51852982Y-93854173D01*
X51874067Y-93721047D01*
X51852982Y-93587921D01*
X51791791Y-93467827D01*
X51791790Y-93467825D01*
X51696484Y-93372519D01*
X51602400Y-93324581D01*
X51551604Y-93276606D01*
X51534809Y-93208785D01*
X51546313Y-93161691D01*
X51546912Y-93160407D01*
X51593972Y-93059487D01*
X51600500Y-93009901D01*
X51600499Y-92590100D01*
X51593972Y-92540513D01*
X51558814Y-92465116D01*
X51543224Y-92431683D01*
X51500686Y-92389146D01*
X51467200Y-92327823D01*
X51472184Y-92258131D01*
X51500682Y-92213786D01*
X51527653Y-92186815D01*
X51588975Y-92153333D01*
X51615331Y-92150500D01*
X52650788Y-92150500D01*
X52676234Y-92153139D01*
X52677160Y-92153333D01*
X52685315Y-92155043D01*
X52711364Y-92151795D01*
X52714123Y-92151452D01*
X52728795Y-92150541D01*
X52748013Y-92147334D01*
X52753069Y-92146596D01*
X52801393Y-92140573D01*
X52801394Y-92140572D01*
X52808808Y-92139648D01*
X52815378Y-92136092D01*
X52815381Y-92136092D01*
X52858201Y-92112918D01*
X52862747Y-92110577D01*
X52906484Y-92089198D01*
X52906486Y-92089195D01*
X52913195Y-92085916D01*
X52918254Y-92080419D01*
X52918258Y-92080418D01*
X52951254Y-92044572D01*
X52954756Y-92040924D01*
X53048598Y-91947082D01*
X53109919Y-91913599D01*
X53116855Y-91912295D01*
X53133126Y-91909719D01*
X53133127Y-91909718D01*
X53152526Y-91906646D01*
X53152614Y-91907203D01*
X53198232Y-91898634D01*
X53262974Y-91924908D01*
X53269844Y-91930784D01*
X53279897Y-91940038D01*
X53283597Y-91943589D01*
X54016806Y-92676798D01*
X54308516Y-92968507D01*
X54342001Y-93029830D01*
X54337017Y-93099522D01*
X54295145Y-93155455D01*
X54240234Y-93178661D01*
X54166875Y-93190280D01*
X54029281Y-93260388D01*
X54029177Y-93260184D01*
X53987432Y-93282976D01*
X53917741Y-93277989D01*
X53861809Y-93236115D01*
X53838606Y-93181208D01*
X53835312Y-93160406D01*
X53774121Y-93040312D01*
X53774120Y-93040310D01*
X53678814Y-92945004D01*
X53558717Y-92883812D01*
X53425593Y-92862727D01*
X53292468Y-92883812D01*
X53172371Y-92945004D01*
X53077065Y-93040310D01*
X53015873Y-93160407D01*
X52994788Y-93293532D01*
X53015873Y-93426656D01*
X53077065Y-93546753D01*
X53172371Y-93642059D01*
X53172373Y-93642060D01*
X53278008Y-93695884D01*
X53309966Y-93712167D01*
X53308719Y-93714614D01*
X53344005Y-93731339D01*
X53380940Y-93790648D01*
X53379946Y-93860511D01*
X53349160Y-93911568D01*
X53325790Y-93934938D01*
X53264597Y-94055036D01*
X53240440Y-94207559D01*
X53235788Y-94206822D01*
X53231609Y-94239042D01*
X53186587Y-94292472D01*
X53119825Y-94313080D01*
X53061821Y-94299577D01*
X53052402Y-94294777D01*
X52919273Y-94273692D01*
X52786149Y-94294777D01*
X52666052Y-94355969D01*
X52570746Y-94451275D01*
X52509554Y-94571372D01*
X52488469Y-94704497D01*
X52509554Y-94837621D01*
X52570746Y-94957718D01*
X52647954Y-95034926D01*
X52681439Y-95096249D01*
X52676455Y-95165941D01*
X52634583Y-95221874D01*
X52616568Y-95233092D01*
X52573631Y-95254969D01*
X52478325Y-95350275D01*
X52417133Y-95470372D01*
X52396048Y-95603497D01*
X52417133Y-95736621D01*
X52478325Y-95856718D01*
X52573631Y-95952024D01*
X52573633Y-95952025D01*
X52693727Y-96013216D01*
X52826853Y-96034301D01*
X52959979Y-96013216D01*
X53080073Y-95952025D01*
X53175381Y-95856717D01*
X53236572Y-95736623D01*
X53257657Y-95603497D01*
X53247686Y-95540542D01*
X53256640Y-95471249D01*
X53301636Y-95417797D01*
X53368388Y-95397157D01*
X53426453Y-95410658D01*
X53428222Y-95411560D01*
X53467601Y-95417797D01*
X53561347Y-95432645D01*
X53561347Y-95432644D01*
X53561348Y-95432645D01*
X53694474Y-95411560D01*
X53814568Y-95350369D01*
X53909876Y-95255061D01*
X53971067Y-95134967D01*
X53992152Y-95001841D01*
X53971067Y-94868715D01*
X53909876Y-94748621D01*
X53909875Y-94748619D01*
X53896124Y-94734868D01*
X53862639Y-94673545D01*
X53867623Y-94603853D01*
X53909495Y-94547920D01*
X53927515Y-94536700D01*
X53927537Y-94536689D01*
X54022845Y-94441381D01*
X54084036Y-94321287D01*
X54101349Y-94211975D01*
X54105121Y-94188163D01*
X54102401Y-94170990D01*
X54101241Y-94163665D01*
X54110195Y-94094374D01*
X54155190Y-94040921D01*
X54221941Y-94020280D01*
X54243112Y-94021793D01*
X54300000Y-94030804D01*
X54433126Y-94009719D01*
X54553220Y-93948528D01*
X54554447Y-93947301D01*
X54567819Y-93933930D01*
X54629142Y-93900445D01*
X54698834Y-93905429D01*
X54754767Y-93947301D01*
X54779184Y-94012765D01*
X54779500Y-94021611D01*
X54779500Y-98592100D01*
X54776861Y-98617546D01*
X54775230Y-98625326D01*
X54774957Y-98626627D01*
X54776035Y-98635276D01*
X54778548Y-98655433D01*
X54779458Y-98670107D01*
X54782665Y-98689325D01*
X54783403Y-98694390D01*
X54788547Y-98735648D01*
X54789500Y-98750989D01*
X54789500Y-100872199D01*
X54769815Y-100939238D01*
X54753181Y-100959880D01*
X54186955Y-101526105D01*
X54167104Y-101542227D01*
X54159332Y-101547305D01*
X54141500Y-101570215D01*
X54131765Y-101581240D01*
X54120441Y-101597101D01*
X54117392Y-101601189D01*
X54100954Y-101622310D01*
X54082891Y-101645517D01*
X54066871Y-101699326D01*
X54065309Y-101704202D01*
X54047074Y-101757321D01*
X54049394Y-101813412D01*
X54049500Y-101818536D01*
X54049500Y-104104456D01*
X54029815Y-104171495D01*
X53977011Y-104217250D01*
X53907853Y-104227194D01*
X53844297Y-104198169D01*
X53837819Y-104192137D01*
X53632638Y-103986956D01*
X53616509Y-103967094D01*
X53611437Y-103959330D01*
X53588533Y-103941504D01*
X53577508Y-103931768D01*
X53561653Y-103920448D01*
X53557544Y-103917384D01*
X53513229Y-103882892D01*
X53459409Y-103866869D01*
X53454531Y-103865306D01*
X53401421Y-103847074D01*
X53345332Y-103849394D01*
X53340208Y-103849500D01*
X50793577Y-103849500D01*
X50726538Y-103829815D01*
X50680783Y-103777011D01*
X50670839Y-103707853D01*
X50671104Y-103706102D01*
X50688464Y-103596490D01*
X50685267Y-103576305D01*
X50667379Y-103463364D01*
X50615136Y-103360833D01*
X50602241Y-103292165D01*
X50622520Y-103235649D01*
X50646527Y-103199721D01*
X50658160Y-103141238D01*
X50658160Y-102651742D01*
X50654606Y-102633877D01*
X50642036Y-102570682D01*
X50642036Y-102522298D01*
X50658160Y-102441238D01*
X50658160Y-101951739D01*
X50642036Y-101870680D01*
X50642036Y-101822297D01*
X50653331Y-101765517D01*
X50658160Y-101741238D01*
X50658160Y-101251742D01*
X50649839Y-101209912D01*
X50646527Y-101193259D01*
X50602212Y-101126937D01*
X50535890Y-101082622D01*
X50477409Y-101070990D01*
X50477408Y-101070990D01*
X49437912Y-101070990D01*
X49437911Y-101070990D01*
X49379429Y-101082622D01*
X49313107Y-101126937D01*
X49268792Y-101193259D01*
X49257160Y-101251741D01*
X49257160Y-101741240D01*
X49273283Y-101822297D01*
X49273284Y-101870678D01*
X49257160Y-101951743D01*
X49257160Y-102441238D01*
X49273284Y-102522298D01*
X49273284Y-102570682D01*
X49260714Y-102633877D01*
X49257160Y-102651742D01*
X49257160Y-103141238D01*
X49268793Y-103199721D01*
X49292798Y-103235647D01*
X49321167Y-103278104D01*
X49342045Y-103344782D01*
X49328550Y-103403289D01*
X49297940Y-103463364D01*
X49288324Y-103524079D01*
X49258395Y-103587214D01*
X49199083Y-103624145D01*
X49185249Y-103627154D01*
X49124534Y-103636770D01*
X49064459Y-103667380D01*
X48995790Y-103680276D01*
X48939274Y-103659997D01*
X48899100Y-103633154D01*
X48860891Y-103607623D01*
X48831649Y-103601806D01*
X48802409Y-103595990D01*
X48802408Y-103595990D01*
X48312912Y-103595990D01*
X48312911Y-103595990D01*
X48231852Y-103612114D01*
X48183468Y-103612114D01*
X48102409Y-103595990D01*
X48102408Y-103595990D01*
X47612912Y-103595990D01*
X47612911Y-103595990D01*
X47531852Y-103612114D01*
X47483468Y-103612114D01*
X47402409Y-103595990D01*
X47402408Y-103595990D01*
X46912912Y-103595990D01*
X46912911Y-103595990D01*
X46831852Y-103612114D01*
X46783468Y-103612114D01*
X46702409Y-103595990D01*
X46702408Y-103595990D01*
X46212912Y-103595990D01*
X46197424Y-103599070D01*
X46131847Y-103612114D01*
X46083466Y-103612113D01*
X46002409Y-103595990D01*
X46002407Y-103595990D01*
X45512911Y-103595990D01*
X45493765Y-103599798D01*
X45431847Y-103612114D01*
X45383466Y-103612113D01*
X45302409Y-103595990D01*
X45302407Y-103595990D01*
X44812911Y-103595990D01*
X44776624Y-103603207D01*
X44731849Y-103612114D01*
X44683468Y-103612113D01*
X44602410Y-103595990D01*
X44602408Y-103595990D01*
X44132160Y-103595990D01*
X44065121Y-103576305D01*
X44019366Y-103523501D01*
X44008160Y-103471990D01*
X44008160Y-102845697D01*
X44010799Y-102820250D01*
X44012702Y-102811175D01*
X44009112Y-102782372D01*
X44008200Y-102767696D01*
X44008160Y-102767456D01*
X44008160Y-102767450D01*
X44004991Y-102748462D01*
X44004254Y-102743405D01*
X43999579Y-102705897D01*
X43998233Y-102695097D01*
X43998232Y-102695095D01*
X43997308Y-102687681D01*
X43993752Y-102681110D01*
X43993752Y-102681109D01*
X43970585Y-102638301D01*
X43968241Y-102633746D01*
X43943578Y-102583295D01*
X43938078Y-102578232D01*
X43902247Y-102545247D01*
X43898574Y-102541722D01*
X42015524Y-100658672D01*
X41982039Y-100597349D01*
X41987023Y-100527657D01*
X42028895Y-100471724D01*
X42094359Y-100447307D01*
X42103205Y-100446991D01*
X49246980Y-100446991D01*
X49314019Y-100466676D01*
X49315871Y-100467889D01*
X49379429Y-100510358D01*
X49437911Y-100521991D01*
X49437912Y-100521991D01*
X50477409Y-100521991D01*
X50510317Y-100515445D01*
X50535891Y-100510358D01*
X50602212Y-100466043D01*
X50646527Y-100399722D01*
X50658160Y-100341239D01*
X50658160Y-99870991D01*
X50677845Y-99803952D01*
X50730649Y-99758197D01*
X50782160Y-99746991D01*
X52995501Y-99746991D01*
X53062540Y-99766676D01*
X53108295Y-99819480D01*
X53119501Y-99870991D01*
X53119501Y-99909900D01*
X53120029Y-99913916D01*
X53120030Y-99913921D01*
X53126028Y-99959488D01*
X53176776Y-100068317D01*
X53261683Y-100153224D01*
X53268087Y-100156210D01*
X53370513Y-100203972D01*
X53420099Y-100210500D01*
X53779900Y-100210499D01*
X53829487Y-100203972D01*
X53938316Y-100153224D01*
X54023224Y-100068316D01*
X54073972Y-99959487D01*
X54080500Y-99909901D01*
X54080499Y-99490100D01*
X54073972Y-99440513D01*
X54023224Y-99331684D01*
X54023223Y-99331683D01*
X54023223Y-99331682D01*
X53976819Y-99285278D01*
X53943334Y-99223955D01*
X53940500Y-99197597D01*
X53940500Y-99172402D01*
X53960185Y-99105363D01*
X53976820Y-99084720D01*
X53994666Y-99066874D01*
X54013224Y-99048316D01*
X54063972Y-98939487D01*
X54070500Y-98889901D01*
X54070499Y-98470100D01*
X54063972Y-98420513D01*
X54013224Y-98311684D01*
X54013223Y-98311683D01*
X54013223Y-98311682D01*
X53928316Y-98226775D01*
X53819487Y-98176028D01*
X53773921Y-98170029D01*
X53773917Y-98170028D01*
X53769901Y-98169500D01*
X53765847Y-98169500D01*
X53414159Y-98169500D01*
X53414143Y-98169500D01*
X53410100Y-98169501D01*
X53406084Y-98170029D01*
X53406078Y-98170030D01*
X53360511Y-98176028D01*
X53251682Y-98226776D01*
X53166775Y-98311683D01*
X53116028Y-98420512D01*
X53110919Y-98459323D01*
X53109500Y-98470099D01*
X53109500Y-98474151D01*
X53109500Y-98474152D01*
X53109500Y-98885840D01*
X53109500Y-98885855D01*
X53109501Y-98889900D01*
X53110029Y-98893916D01*
X53110030Y-98893921D01*
X53111595Y-98905809D01*
X53100827Y-98974844D01*
X53054445Y-99027099D01*
X52988655Y-99045991D01*
X50782160Y-99045991D01*
X50715121Y-99026306D01*
X50669366Y-98973502D01*
X50658160Y-98921991D01*
X50658160Y-98451742D01*
X50646527Y-98393260D01*
X50602212Y-98326938D01*
X50535890Y-98282623D01*
X50477409Y-98270991D01*
X50477408Y-98270991D01*
X49437912Y-98270991D01*
X49437911Y-98270991D01*
X49379429Y-98282623D01*
X49324822Y-98319111D01*
X49258145Y-98339988D01*
X49190765Y-98321503D01*
X49144075Y-98269524D01*
X49138342Y-98251099D01*
X49073671Y-98124175D01*
X48978365Y-98028869D01*
X48858268Y-97967677D01*
X48790806Y-97956992D01*
X48727672Y-97927062D01*
X48690741Y-97867751D01*
X48687734Y-97853931D01*
X48686523Y-97846283D01*
X48646363Y-97767465D01*
X48625332Y-97726188D01*
X48530025Y-97630881D01*
X48409928Y-97569689D01*
X48264386Y-97546637D01*
X48201252Y-97516707D01*
X48173300Y-97480459D01*
X48127963Y-97391480D01*
X48032657Y-97296174D01*
X47912560Y-97234982D01*
X47779435Y-97213897D01*
X47646311Y-97234982D01*
X47526216Y-97296173D01*
X47500942Y-97321447D01*
X47475666Y-97346723D01*
X47414346Y-97380207D01*
X47387987Y-97383041D01*
X44724019Y-97383041D01*
X44656980Y-97363356D01*
X44636338Y-97346722D01*
X43316226Y-96026610D01*
X43282741Y-95965287D01*
X43287725Y-95895595D01*
X43315981Y-95857849D01*
X43327210Y-95841042D01*
X43327212Y-95841042D01*
X43371527Y-95774721D01*
X43383160Y-95716238D01*
X43932160Y-95716238D01*
X43943792Y-95774720D01*
X43988529Y-95841672D01*
X44007736Y-95890155D01*
X44010325Y-95905671D01*
X44011063Y-95910738D01*
X44018011Y-95966469D01*
X44044741Y-96015862D01*
X44047081Y-96020407D01*
X44060314Y-96047476D01*
X44071744Y-96070858D01*
X44113034Y-96108867D01*
X44116733Y-96112415D01*
X44195108Y-96190790D01*
X44252915Y-96248596D01*
X44286400Y-96309919D01*
X44287707Y-96316878D01*
X44290280Y-96333124D01*
X44351472Y-96453221D01*
X44446778Y-96548527D01*
X44446780Y-96548528D01*
X44566874Y-96609719D01*
X44633219Y-96620227D01*
X44699999Y-96630804D01*
X44699999Y-96630803D01*
X44700000Y-96630804D01*
X44833126Y-96609719D01*
X44953220Y-96548528D01*
X45048528Y-96453220D01*
X45109719Y-96333126D01*
X45130804Y-96200000D01*
X45127464Y-96178909D01*
X45106647Y-96047476D01*
X45109344Y-96047048D01*
X45102126Y-96008622D01*
X45128399Y-95943880D01*
X45185503Y-95903620D01*
X45225508Y-95896990D01*
X45302408Y-95896990D01*
X45354138Y-95886700D01*
X45360890Y-95885357D01*
X45427211Y-95841042D01*
X45471526Y-95774721D01*
X45483159Y-95716238D01*
X45483159Y-94676742D01*
X45471526Y-94618259D01*
X45439442Y-94570242D01*
X45427211Y-94551937D01*
X45360889Y-94507622D01*
X45302408Y-94495990D01*
X45302407Y-94495990D01*
X44812911Y-94495990D01*
X44782164Y-94502106D01*
X44731849Y-94512114D01*
X44683468Y-94512113D01*
X44602410Y-94495990D01*
X44602408Y-94495990D01*
X44112912Y-94495990D01*
X44112911Y-94495990D01*
X44054429Y-94507622D01*
X43988107Y-94551937D01*
X43943792Y-94618259D01*
X43932160Y-94676741D01*
X43932160Y-95716238D01*
X43383160Y-95716238D01*
X43383160Y-94676742D01*
X43371527Y-94618259D01*
X43327212Y-94551938D01*
X43327211Y-94551936D01*
X43288268Y-94525915D01*
X43243464Y-94472303D01*
X43233160Y-94422814D01*
X43233160Y-90931457D01*
X43252845Y-90864418D01*
X43305649Y-90818663D01*
X43329941Y-90811341D01*
X43333123Y-90809719D01*
X43333126Y-90809719D01*
X43453220Y-90748528D01*
X43548528Y-90653220D01*
X43609719Y-90533126D01*
X43630804Y-90400000D01*
X43609719Y-90266874D01*
X43548528Y-90146780D01*
X43548527Y-90146778D01*
X43453220Y-90051471D01*
X43396562Y-90022602D01*
X43345767Y-89974628D01*
X43328972Y-89906807D01*
X43351510Y-89840672D01*
X43365171Y-89824444D01*
X43870777Y-89318838D01*
X43932097Y-89285355D01*
X44001789Y-89290339D01*
X44057722Y-89332211D01*
X44082139Y-89397675D01*
X44080928Y-89425918D01*
X44069195Y-89499999D01*
X44090280Y-89633124D01*
X44151472Y-89753221D01*
X44246778Y-89848527D01*
X44366217Y-89909384D01*
X44417013Y-89957358D01*
X44433808Y-90025179D01*
X44420923Y-90075140D01*
X44322593Y-90272613D01*
X44264243Y-90477689D01*
X44244571Y-90689999D01*
X44264243Y-90902310D01*
X44322595Y-91107390D01*
X44417631Y-91298252D01*
X44546126Y-91468405D01*
X44546128Y-91468407D01*
X44703698Y-91612052D01*
X44884981Y-91724298D01*
X45083802Y-91801321D01*
X45293390Y-91840500D01*
X45293392Y-91840500D01*
X45506608Y-91840500D01*
X45506610Y-91840500D01*
X45716198Y-91801321D01*
X45915019Y-91724298D01*
X46096302Y-91612052D01*
X46253872Y-91468407D01*
X46382366Y-91298255D01*
X46382366Y-91298253D01*
X46382368Y-91298252D01*
X46435494Y-91191559D01*
X46477405Y-91107389D01*
X46535756Y-90902310D01*
X46555429Y-90690000D01*
X46535756Y-90477690D01*
X46526505Y-90445178D01*
X46497636Y-90343716D01*
X46477405Y-90272611D01*
X46420946Y-90159224D01*
X46382368Y-90081747D01*
X46253873Y-89911594D01*
X46096301Y-89767947D01*
X45915017Y-89655701D01*
X45716198Y-89578679D01*
X45695271Y-89574767D01*
X45506610Y-89539500D01*
X45293390Y-89539500D01*
X45201826Y-89556616D01*
X45141816Y-89567834D01*
X45072301Y-89560803D01*
X45017622Y-89517305D01*
X44995140Y-89451151D01*
X45011993Y-89383344D01*
X45031346Y-89358268D01*
X45077798Y-89311817D01*
X45139123Y-89278333D01*
X45165478Y-89275500D01*
X50034522Y-89275500D01*
X50101561Y-89295185D01*
G37*
%TD.AperFunction*%
%TA.AperFunction,Conductor*%
G36*
X55069922Y-101737016D02*
G01*
X55114267Y-101765515D01*
X55197280Y-101848528D01*
X55317374Y-101909719D01*
X55361749Y-101916747D01*
X55450498Y-101930804D01*
X55450498Y-101930803D01*
X55450500Y-101930804D01*
X55481101Y-101925957D01*
X55550394Y-101934911D01*
X55603846Y-101979906D01*
X55624487Y-102046657D01*
X55624500Y-102048430D01*
X55624500Y-103553326D01*
X55604815Y-103620365D01*
X55588181Y-103641007D01*
X55408010Y-103821177D01*
X55389222Y-103836597D01*
X55376376Y-103845180D01*
X55372565Y-103850884D01*
X55361007Y-103868181D01*
X55361006Y-103868183D01*
X55357389Y-103873596D01*
X55357387Y-103873598D01*
X55348110Y-103887483D01*
X55322270Y-103926155D01*
X55306849Y-103944945D01*
X55305860Y-103945933D01*
X55308559Y-103971029D01*
X55308146Y-103973204D01*
X55294745Y-104040575D01*
X55294103Y-104043805D01*
X55296686Y-104056792D01*
X55297117Y-104058956D01*
X55299500Y-104083148D01*
X55299500Y-105985656D01*
X55297117Y-106009847D01*
X55294103Y-106024999D01*
X55297117Y-106040151D01*
X55297117Y-106040154D01*
X55315484Y-106132494D01*
X55315485Y-106132495D01*
X55330822Y-106155448D01*
X55354096Y-106190281D01*
X55376376Y-106223624D01*
X55389222Y-106232207D01*
X55408011Y-106247627D01*
X55563181Y-106402797D01*
X55596666Y-106464120D01*
X55599500Y-106490478D01*
X55599499Y-107119748D01*
X55611132Y-107178230D01*
X55655447Y-107244552D01*
X55721769Y-107288867D01*
X55780251Y-107300500D01*
X55780252Y-107300500D01*
X56719749Y-107300500D01*
X56748989Y-107294683D01*
X56778231Y-107288867D01*
X56844552Y-107244552D01*
X56888867Y-107178231D01*
X56900500Y-107119748D01*
X56900500Y-106280252D01*
X56894010Y-106247627D01*
X56888867Y-106221769D01*
X56844552Y-106155447D01*
X56778230Y-106111132D01*
X56719749Y-106099500D01*
X56719748Y-106099500D01*
X56090478Y-106099500D01*
X56023439Y-106079815D01*
X56002797Y-106063181D01*
X56001797Y-106062181D01*
X55968312Y-106000858D01*
X55973296Y-105931166D01*
X56015168Y-105875233D01*
X56080632Y-105850816D01*
X56089478Y-105850500D01*
X56719749Y-105850500D01*
X56748989Y-105844683D01*
X56778231Y-105838867D01*
X56844552Y-105794552D01*
X56888867Y-105728231D01*
X56900500Y-105669748D01*
X56900500Y-105154782D01*
X56920183Y-105087747D01*
X56929161Y-105078707D01*
X56927957Y-105077770D01*
X56940667Y-105061437D01*
X56940669Y-105061437D01*
X56958496Y-105038531D01*
X56968232Y-105027507D01*
X56969162Y-105026204D01*
X56979561Y-105011637D01*
X56982610Y-105007548D01*
X57012517Y-104969126D01*
X57012517Y-104969124D01*
X57017108Y-104963227D01*
X57019240Y-104956066D01*
X57033129Y-104909412D01*
X57034679Y-104904569D01*
X57050500Y-104858488D01*
X57050500Y-104858485D01*
X57052926Y-104851419D01*
X57050605Y-104795330D01*
X57050499Y-104790203D01*
X57050499Y-103576305D01*
X57050499Y-102379114D01*
X57064014Y-102322825D01*
X57090016Y-102271794D01*
X57137991Y-102220999D01*
X57205812Y-102204205D01*
X57271947Y-102226743D01*
X57315398Y-102281459D01*
X57324500Y-102328091D01*
X57324500Y-107334521D01*
X57304815Y-107401560D01*
X57288181Y-107422202D01*
X55855207Y-108855177D01*
X55793884Y-108888662D01*
X55767526Y-108891496D01*
X50617273Y-108891496D01*
X50550234Y-108871811D01*
X50504479Y-108819007D01*
X50494535Y-108749849D01*
X50506788Y-108711202D01*
X50510700Y-108703523D01*
X50531785Y-108570397D01*
X50517102Y-108477690D01*
X50510700Y-108437271D01*
X50449509Y-108317177D01*
X50449508Y-108317175D01*
X50409490Y-108277157D01*
X50376005Y-108215834D01*
X50380989Y-108146142D01*
X50422861Y-108090209D01*
X50477773Y-108067003D01*
X50497931Y-108063810D01*
X50517883Y-108060650D01*
X50637977Y-107999459D01*
X50733285Y-107904151D01*
X50794476Y-107784057D01*
X50815561Y-107650931D01*
X50794476Y-107517805D01*
X50733285Y-107397711D01*
X50733284Y-107397709D01*
X50637978Y-107302403D01*
X50517881Y-107241211D01*
X50377390Y-107218959D01*
X50316208Y-107211051D01*
X50262758Y-107166052D01*
X50242121Y-107099300D01*
X50260848Y-107031987D01*
X50278423Y-107009856D01*
X50337478Y-106950802D01*
X50398669Y-106830708D01*
X50419754Y-106697582D01*
X50398669Y-106564456D01*
X50337478Y-106444362D01*
X50337477Y-106444360D01*
X50299572Y-106406455D01*
X50266087Y-106345132D01*
X50271071Y-106275440D01*
X50276770Y-106262477D01*
X50287396Y-106241623D01*
X50308481Y-106108497D01*
X50287396Y-105975371D01*
X50226205Y-105855277D01*
X50226204Y-105855275D01*
X50181030Y-105810101D01*
X50147545Y-105748778D01*
X50152529Y-105679086D01*
X50158223Y-105666131D01*
X50183365Y-105616789D01*
X50204450Y-105483663D01*
X50183365Y-105350537D01*
X50122174Y-105230443D01*
X50122173Y-105230441D01*
X50026867Y-105135135D01*
X49906770Y-105073943D01*
X49773644Y-105052858D01*
X49710228Y-105062902D01*
X49640935Y-105053947D01*
X49587483Y-105008950D01*
X49566844Y-104942199D01*
X49585569Y-104874885D01*
X49603148Y-104852749D01*
X49606188Y-104849710D01*
X49667379Y-104729616D01*
X49679180Y-104655102D01*
X49709110Y-104591968D01*
X49768421Y-104555036D01*
X49801654Y-104550500D01*
X53153456Y-104550500D01*
X53220495Y-104570185D01*
X53241137Y-104586819D01*
X53713181Y-105058863D01*
X53746666Y-105120186D01*
X53749500Y-105146544D01*
X53749500Y-105669748D01*
X53761132Y-105728230D01*
X53805447Y-105794552D01*
X53871769Y-105838867D01*
X53930251Y-105850500D01*
X53930252Y-105850500D01*
X54869749Y-105850500D01*
X54898989Y-105844683D01*
X54928231Y-105838867D01*
X54994552Y-105794552D01*
X55038867Y-105728231D01*
X55050500Y-105669748D01*
X55050500Y-104830252D01*
X55038867Y-104771769D01*
X55010701Y-104729616D01*
X54994552Y-104705447D01*
X54928230Y-104661132D01*
X54857769Y-104647117D01*
X54858244Y-104644726D01*
X54807461Y-104629815D01*
X54761706Y-104577011D01*
X54750500Y-104525500D01*
X54750499Y-102005287D01*
X54770184Y-101938248D01*
X54786813Y-101917611D01*
X54938909Y-101765515D01*
X55000230Y-101732032D01*
X55069922Y-101737016D01*
G37*
%TD.AperFunction*%
%TA.AperFunction,Conductor*%
G36*
X36074637Y-107170185D02*
G01*
X36095280Y-107186820D01*
X36131684Y-107223224D01*
X36240513Y-107273972D01*
X36290099Y-107280500D01*
X36709900Y-107280499D01*
X36734315Y-107277285D01*
X36803349Y-107288050D01*
X36855605Y-107334429D01*
X36874500Y-107400224D01*
X36874500Y-107774967D01*
X36872116Y-107799158D01*
X36869103Y-107814311D01*
X36874500Y-107841443D01*
X36874500Y-107841444D01*
X36890485Y-107921806D01*
X36901323Y-107938026D01*
X36935002Y-107988432D01*
X36951374Y-108012933D01*
X36951375Y-108012933D01*
X36951376Y-108012935D01*
X36964226Y-108021521D01*
X36983011Y-108036938D01*
X37087681Y-108141608D01*
X37121166Y-108202931D01*
X37124000Y-108229289D01*
X37124000Y-108270710D01*
X37104315Y-108337749D01*
X37087682Y-108358390D01*
X37008390Y-108437682D01*
X36947070Y-108471166D01*
X36920711Y-108474000D01*
X36828790Y-108474000D01*
X36761751Y-108454315D01*
X36741109Y-108437681D01*
X35708081Y-107404653D01*
X35674596Y-107343330D01*
X35679580Y-107273638D01*
X35721452Y-107217705D01*
X35739462Y-107206490D01*
X35794927Y-107178230D01*
X35822826Y-107164015D01*
X35879120Y-107150500D01*
X36007598Y-107150500D01*
X36074637Y-107170185D01*
G37*
%TD.AperFunction*%
%TA.AperFunction,Conductor*%
G36*
X40214019Y-101166675D02*
G01*
X40215855Y-101167877D01*
X40269842Y-101203951D01*
X40279429Y-101210357D01*
X40337911Y-101221990D01*
X40337912Y-101221990D01*
X41377409Y-101221990D01*
X41405460Y-101216410D01*
X41435891Y-101210357D01*
X41435891Y-101210356D01*
X41438127Y-101209912D01*
X41501847Y-101189958D01*
X41569228Y-101208441D01*
X41591745Y-101226257D01*
X43270841Y-102905353D01*
X43304326Y-102966676D01*
X43307160Y-102993034D01*
X43307160Y-103471990D01*
X43287475Y-103539029D01*
X43234671Y-103584784D01*
X43183160Y-103595990D01*
X42712911Y-103595990D01*
X42631852Y-103612114D01*
X42583468Y-103612114D01*
X42502409Y-103595990D01*
X42502408Y-103595990D01*
X42012912Y-103595990D01*
X42012911Y-103595990D01*
X41954429Y-103607623D01*
X41876046Y-103659997D01*
X41809368Y-103680875D01*
X41750861Y-103667380D01*
X41690786Y-103636770D01*
X41630070Y-103627154D01*
X41566935Y-103597225D01*
X41530004Y-103537913D01*
X41526998Y-103524096D01*
X41517379Y-103463364D01*
X41486768Y-103403288D01*
X41473873Y-103334620D01*
X41494153Y-103278102D01*
X41502210Y-103266042D01*
X41502212Y-103266042D01*
X41546527Y-103199721D01*
X41558160Y-103141238D01*
X41558160Y-102651742D01*
X41554606Y-102633877D01*
X41542036Y-102570682D01*
X41542036Y-102522298D01*
X41558160Y-102441238D01*
X41558160Y-101951741D01*
X41546527Y-101893259D01*
X41502212Y-101826937D01*
X41435890Y-101782622D01*
X41377409Y-101770990D01*
X41377408Y-101770990D01*
X40337912Y-101770990D01*
X40337911Y-101770990D01*
X40279429Y-101782622D01*
X40213107Y-101826938D01*
X40174158Y-101885228D01*
X40120545Y-101930032D01*
X40101748Y-101935917D01*
X40100164Y-101936975D01*
X40100165Y-101936975D01*
X40082935Y-101948488D01*
X40067331Y-101958914D01*
X40043077Y-101975119D01*
X40043068Y-101975125D01*
X40032038Y-101982496D01*
X40032036Y-101982497D01*
X40028816Y-101984648D01*
X40028805Y-101984655D01*
X40009035Y-101997866D01*
X40000452Y-102010712D01*
X39985032Y-102029500D01*
X39743208Y-102271324D01*
X39681885Y-102304809D01*
X39612193Y-102299825D01*
X39556260Y-102257953D01*
X39550579Y-102248830D01*
X39453221Y-102151472D01*
X39333124Y-102090280D01*
X39200000Y-102069195D01*
X39066873Y-102090280D01*
X38982672Y-102133183D01*
X38914003Y-102146079D01*
X38849263Y-102119802D01*
X38815893Y-102078992D01*
X38748528Y-101946779D01*
X38653221Y-101851472D01*
X38533124Y-101790280D01*
X38400000Y-101769195D01*
X38266875Y-101790280D01*
X38146777Y-101851473D01*
X38122179Y-101876071D01*
X38060856Y-101909556D01*
X37991164Y-101904570D01*
X37935231Y-101862698D01*
X37910815Y-101797233D01*
X37910499Y-101788389D01*
X37910499Y-101684159D01*
X37910499Y-101684152D01*
X37910499Y-101680100D01*
X37903972Y-101630513D01*
X37853224Y-101521684D01*
X37853223Y-101521683D01*
X37853223Y-101521682D01*
X37816819Y-101485278D01*
X37783334Y-101423955D01*
X37780500Y-101397597D01*
X37780500Y-101270990D01*
X37800185Y-101203951D01*
X37852989Y-101158196D01*
X37904500Y-101146990D01*
X40146980Y-101146990D01*
X40214019Y-101166675D01*
G37*
%TD.AperFunction*%
%TA.AperFunction,Conductor*%
G36*
X38323746Y-96074448D02*
G01*
X38379679Y-96116320D01*
X38390897Y-96134335D01*
X38451472Y-96253221D01*
X38546778Y-96348527D01*
X38546780Y-96348528D01*
X38666874Y-96409719D01*
X38705707Y-96415869D01*
X38809146Y-96432253D01*
X38872281Y-96462182D01*
X38877429Y-96467045D01*
X38916700Y-96506316D01*
X38932120Y-96525105D01*
X38940704Y-96537952D01*
X38940705Y-96537952D01*
X38940706Y-96537954D01*
X38953552Y-96546537D01*
X38953554Y-96546539D01*
X38963707Y-96553323D01*
X38963708Y-96553324D01*
X38981805Y-96565416D01*
X39031835Y-96598845D01*
X39105497Y-96613497D01*
X39167408Y-96645882D01*
X39168987Y-96647433D01*
X39985030Y-97463476D01*
X40000451Y-97482266D01*
X40009036Y-97495114D01*
X40021877Y-97503694D01*
X40021883Y-97503699D01*
X40032038Y-97510484D01*
X40086144Y-97546637D01*
X40111147Y-97563343D01*
X40157157Y-97587408D01*
X40174158Y-97607751D01*
X40208947Y-97659814D01*
X40213108Y-97666042D01*
X40279429Y-97710357D01*
X40337911Y-97721990D01*
X40337912Y-97721990D01*
X41377409Y-97721990D01*
X41406649Y-97716173D01*
X41435891Y-97710357D01*
X41502212Y-97666042D01*
X41546527Y-97599721D01*
X41558160Y-97541238D01*
X41558160Y-97051742D01*
X41546527Y-96993259D01*
X41546526Y-96993258D01*
X41542036Y-96970682D01*
X41542036Y-96922298D01*
X41558160Y-96841238D01*
X41558160Y-96360968D01*
X41577845Y-96293929D01*
X41630649Y-96248174D01*
X41699807Y-96238230D01*
X41763363Y-96267255D01*
X41769841Y-96273287D01*
X44113040Y-98616486D01*
X44128461Y-98635276D01*
X44137046Y-98648124D01*
X44149891Y-98656707D01*
X44149894Y-98656709D01*
X44160047Y-98663493D01*
X44160048Y-98663494D01*
X44191954Y-98684813D01*
X44228175Y-98709015D01*
X44308537Y-98725000D01*
X44320506Y-98727381D01*
X44320516Y-98727382D01*
X44335669Y-98730396D01*
X44335669Y-98730395D01*
X44335670Y-98730396D01*
X44344210Y-98728697D01*
X44350824Y-98727382D01*
X44375013Y-98725000D01*
X48440338Y-98725000D01*
X48496633Y-98738515D01*
X48505149Y-98742854D01*
X48592018Y-98787116D01*
X48658580Y-98797658D01*
X48725143Y-98808201D01*
X48725143Y-98808200D01*
X48725144Y-98808201D01*
X48858270Y-98787116D01*
X48978364Y-98725925D01*
X49045479Y-98658809D01*
X49106800Y-98625326D01*
X49176492Y-98630310D01*
X49232426Y-98672181D01*
X49256843Y-98737645D01*
X49257159Y-98746491D01*
X49257159Y-98941240D01*
X49273283Y-99022298D01*
X49273284Y-99070679D01*
X49257160Y-99151744D01*
X49257160Y-99621991D01*
X49237475Y-99689030D01*
X49184671Y-99734785D01*
X49133160Y-99745991D01*
X42282160Y-99745991D01*
X42215121Y-99726306D01*
X42169366Y-99673502D01*
X42158160Y-99621991D01*
X42158160Y-99151742D01*
X42146527Y-99093260D01*
X42102212Y-99026938D01*
X42035890Y-98982623D01*
X41977409Y-98970991D01*
X41977408Y-98970991D01*
X40337912Y-98970991D01*
X40337911Y-98970991D01*
X40279429Y-98982623D01*
X40215871Y-99025093D01*
X40149194Y-99045971D01*
X40146980Y-99045991D01*
X37904500Y-99045991D01*
X37837461Y-99026306D01*
X37791706Y-98973502D01*
X37780500Y-98921991D01*
X37780500Y-98762402D01*
X37800185Y-98695363D01*
X37816815Y-98674724D01*
X37833224Y-98658316D01*
X37883972Y-98549487D01*
X37890500Y-98499901D01*
X37890499Y-98080100D01*
X37883972Y-98030513D01*
X37833224Y-97921684D01*
X37833223Y-97921683D01*
X37833223Y-97921682D01*
X37748316Y-97836775D01*
X37639487Y-97786028D01*
X37593921Y-97780029D01*
X37593917Y-97780028D01*
X37589901Y-97779500D01*
X37585848Y-97779500D01*
X37446544Y-97779500D01*
X37379505Y-97759815D01*
X37358863Y-97743181D01*
X37336819Y-97721137D01*
X37303334Y-97659814D01*
X37300500Y-97633456D01*
X37300500Y-97214500D01*
X37320185Y-97147461D01*
X37372989Y-97101706D01*
X37424500Y-97090500D01*
X37569749Y-97090500D01*
X37598989Y-97084683D01*
X37628231Y-97078867D01*
X37694552Y-97034552D01*
X37738867Y-96968231D01*
X37750500Y-96909748D01*
X37750500Y-96596542D01*
X37770185Y-96529503D01*
X37786815Y-96508865D01*
X38192731Y-96102948D01*
X38254054Y-96069464D01*
X38323746Y-96074448D01*
G37*
%TD.AperFunction*%
%TA.AperFunction,Conductor*%
G36*
X41197451Y-90445178D02*
G01*
X41253384Y-90487050D01*
X41275734Y-90537166D01*
X41276763Y-90542339D01*
X41276763Y-90542340D01*
X41279777Y-90557495D01*
X41282160Y-90581683D01*
X41282160Y-94518879D01*
X41262475Y-94585918D01*
X41245841Y-94606560D01*
X41209132Y-94643268D01*
X41147940Y-94763365D01*
X41132160Y-94862999D01*
X41132160Y-95479980D01*
X41147940Y-95579614D01*
X41209132Y-95699711D01*
X41309117Y-95799696D01*
X41324538Y-95818486D01*
X41343249Y-95846489D01*
X41359034Y-95870112D01*
X41359035Y-95870112D01*
X41359036Y-95870114D01*
X41371886Y-95878700D01*
X41390671Y-95894117D01*
X41455863Y-95959309D01*
X41489348Y-96020632D01*
X41484364Y-96090324D01*
X41442492Y-96146257D01*
X41377028Y-96170674D01*
X41368182Y-96170990D01*
X40598138Y-96170990D01*
X40531099Y-96151305D01*
X40510461Y-96134675D01*
X40419478Y-96043692D01*
X40385994Y-95982368D01*
X40383160Y-95956011D01*
X40383160Y-91208317D01*
X40402845Y-91141278D01*
X40419474Y-91120641D01*
X41066437Y-90473678D01*
X41127759Y-90440194D01*
X41197451Y-90445178D01*
G37*
%TD.AperFunction*%
%TA.AperFunction,Conductor*%
G36*
X48220057Y-84995185D02*
G01*
X48240699Y-85011819D01*
X49641699Y-86412819D01*
X49675184Y-86474142D01*
X49670200Y-86543834D01*
X49628328Y-86599767D01*
X49562864Y-86624184D01*
X49554018Y-86624500D01*
X48439344Y-86624500D01*
X48415153Y-86622117D01*
X48400000Y-86619102D01*
X48384847Y-86622117D01*
X48384845Y-86622117D01*
X48292504Y-86640485D01*
X48292505Y-86640485D01*
X48273446Y-86653220D01*
X48224378Y-86686006D01*
X48224376Y-86686007D01*
X48214257Y-86692769D01*
X48201375Y-86701376D01*
X48192792Y-86714222D01*
X48177372Y-86733010D01*
X47077428Y-87832954D01*
X47016105Y-87866439D01*
X47009146Y-87867746D01*
X46866875Y-87890280D01*
X46746778Y-87951472D01*
X46637584Y-88060667D01*
X46637323Y-88060406D01*
X46604989Y-88094641D01*
X46537167Y-88111433D01*
X46471033Y-88088893D01*
X46427584Y-88034176D01*
X46420010Y-87968148D01*
X46422430Y-87952874D01*
X46430804Y-87900000D01*
X46425695Y-87867746D01*
X46409719Y-87766875D01*
X46409719Y-87766874D01*
X46348528Y-87646780D01*
X46348527Y-87646778D01*
X46253221Y-87551472D01*
X46133124Y-87490280D01*
X46000000Y-87469195D01*
X45866875Y-87490280D01*
X45746778Y-87551472D01*
X45651472Y-87646778D01*
X45585008Y-87777221D01*
X45537033Y-87828017D01*
X45469212Y-87844812D01*
X45403077Y-87822274D01*
X45364038Y-87777220D01*
X45348527Y-87746778D01*
X45253221Y-87651472D01*
X45133124Y-87590280D01*
X45000000Y-87569195D01*
X44866875Y-87590280D01*
X44746780Y-87651471D01*
X44699321Y-87698931D01*
X44651472Y-87746780D01*
X44651471Y-87746781D01*
X44642827Y-87755426D01*
X44581504Y-87788911D01*
X44555145Y-87791745D01*
X44072099Y-87791745D01*
X44047908Y-87789362D01*
X44032755Y-87786347D01*
X44017602Y-87789362D01*
X44017598Y-87789362D01*
X43925260Y-87807729D01*
X43883288Y-87835773D01*
X43864722Y-87848179D01*
X43864714Y-87848184D01*
X43857133Y-87853251D01*
X43857131Y-87853252D01*
X43853904Y-87855407D01*
X43853901Y-87855410D01*
X43834130Y-87868621D01*
X43825547Y-87881467D01*
X43810127Y-87900255D01*
X43526608Y-88183774D01*
X43465285Y-88217259D01*
X43395593Y-88212275D01*
X43339660Y-88170403D01*
X43316454Y-88115491D01*
X43309719Y-88072970D01*
X43309719Y-88072969D01*
X43248528Y-87952875D01*
X43248527Y-87952873D01*
X43153221Y-87857567D01*
X43033124Y-87796375D01*
X42900000Y-87775290D01*
X42766875Y-87796375D01*
X42646778Y-87857567D01*
X42551471Y-87952874D01*
X42527021Y-88000860D01*
X42479046Y-88051655D01*
X42411225Y-88068450D01*
X42360243Y-88055049D01*
X42300582Y-88024651D01*
X42249786Y-87976678D01*
X42232990Y-87908857D01*
X42255527Y-87842722D01*
X42269189Y-87826491D01*
X43113046Y-86982634D01*
X43132903Y-86966510D01*
X43140669Y-86961437D01*
X43158496Y-86938531D01*
X43168232Y-86927507D01*
X43168375Y-86927307D01*
X43179559Y-86911640D01*
X43182607Y-86907552D01*
X43212517Y-86869126D01*
X43212517Y-86869125D01*
X43217105Y-86863231D01*
X43219237Y-86856068D01*
X43219239Y-86856066D01*
X43233142Y-86809363D01*
X43234674Y-86804581D01*
X43250500Y-86758488D01*
X43250500Y-86758486D01*
X43252925Y-86751423D01*
X43252616Y-86743956D01*
X43252617Y-86743954D01*
X43250605Y-86695331D01*
X43250500Y-86690208D01*
X43250500Y-85900000D01*
X46369195Y-85900000D01*
X46390280Y-86033124D01*
X46451472Y-86153221D01*
X46546778Y-86248527D01*
X46546780Y-86248528D01*
X46666874Y-86309719D01*
X46800000Y-86330804D01*
X46933126Y-86309719D01*
X47053220Y-86248528D01*
X47148528Y-86153220D01*
X47209719Y-86033126D01*
X47230804Y-85900000D01*
X47209719Y-85766874D01*
X47148528Y-85646780D01*
X47148527Y-85646778D01*
X47053221Y-85551472D01*
X46933124Y-85490280D01*
X46800000Y-85469195D01*
X46666875Y-85490280D01*
X46546778Y-85551472D01*
X46451472Y-85646778D01*
X46390280Y-85766875D01*
X46369195Y-85900000D01*
X43250500Y-85900000D01*
X43250500Y-85779119D01*
X43264015Y-85722824D01*
X43271475Y-85708183D01*
X43309719Y-85633126D01*
X43330804Y-85500000D01*
X43309719Y-85366874D01*
X43248528Y-85246780D01*
X43248527Y-85246778D01*
X43188930Y-85187181D01*
X43155445Y-85125858D01*
X43160429Y-85056166D01*
X43202301Y-85000233D01*
X43267765Y-84975816D01*
X43276611Y-84975500D01*
X48153018Y-84975500D01*
X48220057Y-84995185D01*
G37*
%TD.AperFunction*%
M02*
