%TF.GenerationSoftware,KiCad,Pcbnew,7.0.2*%
%TF.CreationDate,2023-07-30T22:12:35-04:00*%
%TF.ProjectId,CameraBoard,43616d65-7261-4426-9f61-72642e6b6963,rev?*%
%TF.SameCoordinates,Original*%
%TF.FileFunction,Legend,Bot*%
%TF.FilePolarity,Positive*%
%FSLAX46Y46*%
G04 Gerber Fmt 4.6, Leading zero omitted, Abs format (unit mm)*
G04 Created by KiCad (PCBNEW 7.0.2) date 2023-07-30 22:12:35*
%MOMM*%
%LPD*%
G01*
G04 APERTURE LIST*
G04 Aperture macros list*
%AMRoundRect*
0 Rectangle with rounded corners*
0 $1 Rounding radius*
0 $2 $3 $4 $5 $6 $7 $8 $9 X,Y pos of 4 corners*
0 Add a 4 corners polygon primitive as box body*
4,1,4,$2,$3,$4,$5,$6,$7,$8,$9,$2,$3,0*
0 Add four circle primitives for the rounded corners*
1,1,$1+$1,$2,$3*
1,1,$1+$1,$4,$5*
1,1,$1+$1,$6,$7*
1,1,$1+$1,$8,$9*
0 Add four rect primitives between the rounded corners*
20,1,$1+$1,$2,$3,$4,$5,0*
20,1,$1+$1,$4,$5,$6,$7,0*
20,1,$1+$1,$6,$7,$8,$9,0*
20,1,$1+$1,$8,$9,$2,$3,0*%
G04 Aperture macros list end*
%ADD10C,0.150000*%
%ADD11C,0.254000*%
%ADD12C,0.120000*%
%ADD13C,0.101600*%
%ADD14C,0.010000*%
%ADD15C,0.250000*%
%ADD16C,0.100000*%
%ADD17C,0.200000*%
%ADD18R,1.000000X1.000000*%
%ADD19RoundRect,0.135000X0.135000X0.185000X-0.135000X0.185000X-0.135000X-0.185000X0.135000X-0.185000X0*%
%ADD20RoundRect,0.140000X-0.140000X-0.170000X0.140000X-0.170000X0.140000X0.170000X-0.140000X0.170000X0*%
%ADD21R,0.350000X0.600000*%
%ADD22R,1.700000X1.100000*%
%ADD23R,0.900000X0.800000*%
%ADD24RoundRect,0.140000X0.140000X0.170000X-0.140000X0.170000X-0.140000X-0.170000X0.140000X-0.170000X0*%
%ADD25R,1.200000X0.600000*%
%ADD26RoundRect,0.135000X-0.135000X-0.185000X0.135000X-0.185000X0.135000X0.185000X-0.135000X0.185000X0*%
%ADD27RoundRect,0.140000X-0.170000X0.140000X-0.170000X-0.140000X0.170000X-0.140000X0.170000X0.140000X0*%
G04 APERTURE END LIST*
D10*
X52766666Y-91962619D02*
X53099999Y-91486428D01*
X53338094Y-91962619D02*
X53338094Y-90962619D01*
X53338094Y-90962619D02*
X52957142Y-90962619D01*
X52957142Y-90962619D02*
X52861904Y-91010238D01*
X52861904Y-91010238D02*
X52814285Y-91057857D01*
X52814285Y-91057857D02*
X52766666Y-91153095D01*
X52766666Y-91153095D02*
X52766666Y-91295952D01*
X52766666Y-91295952D02*
X52814285Y-91391190D01*
X52814285Y-91391190D02*
X52861904Y-91438809D01*
X52861904Y-91438809D02*
X52957142Y-91486428D01*
X52957142Y-91486428D02*
X53338094Y-91486428D01*
X51814285Y-91962619D02*
X52385713Y-91962619D01*
X52099999Y-91962619D02*
X52099999Y-90962619D01*
X52099999Y-90962619D02*
X52195237Y-91105476D01*
X52195237Y-91105476D02*
X52290475Y-91200714D01*
X52290475Y-91200714D02*
X52385713Y-91248333D01*
X38513021Y-97077062D02*
X39323393Y-97077062D01*
X39323393Y-97077062D02*
X39418731Y-97124731D01*
X39418731Y-97124731D02*
X39466400Y-97172400D01*
X39466400Y-97172400D02*
X39514068Y-97267738D01*
X39514068Y-97267738D02*
X39514068Y-97458413D01*
X39514068Y-97458413D02*
X39466400Y-97553751D01*
X39466400Y-97553751D02*
X39418731Y-97601420D01*
X39418731Y-97601420D02*
X39323393Y-97649089D01*
X39323393Y-97649089D02*
X38513021Y-97649089D01*
X39514068Y-98650136D02*
X39514068Y-98078109D01*
X39514068Y-98364123D02*
X38513021Y-98364123D01*
X38513021Y-98364123D02*
X38656028Y-98268785D01*
X38656028Y-98268785D02*
X38751366Y-98173447D01*
X38751366Y-98173447D02*
X38799035Y-98078109D01*
X33216666Y-99817380D02*
X33264285Y-99865000D01*
X33264285Y-99865000D02*
X33407142Y-99912619D01*
X33407142Y-99912619D02*
X33502380Y-99912619D01*
X33502380Y-99912619D02*
X33645237Y-99865000D01*
X33645237Y-99865000D02*
X33740475Y-99769761D01*
X33740475Y-99769761D02*
X33788094Y-99674523D01*
X33788094Y-99674523D02*
X33835713Y-99484047D01*
X33835713Y-99484047D02*
X33835713Y-99341190D01*
X33835713Y-99341190D02*
X33788094Y-99150714D01*
X33788094Y-99150714D02*
X33740475Y-99055476D01*
X33740475Y-99055476D02*
X33645237Y-98960238D01*
X33645237Y-98960238D02*
X33502380Y-98912619D01*
X33502380Y-98912619D02*
X33407142Y-98912619D01*
X33407142Y-98912619D02*
X33264285Y-98960238D01*
X33264285Y-98960238D02*
X33216666Y-99007857D01*
X32883332Y-98912619D02*
X32264285Y-98912619D01*
X32264285Y-98912619D02*
X32597618Y-99293571D01*
X32597618Y-99293571D02*
X32454761Y-99293571D01*
X32454761Y-99293571D02*
X32359523Y-99341190D01*
X32359523Y-99341190D02*
X32311904Y-99388809D01*
X32311904Y-99388809D02*
X32264285Y-99484047D01*
X32264285Y-99484047D02*
X32264285Y-99722142D01*
X32264285Y-99722142D02*
X32311904Y-99817380D01*
X32311904Y-99817380D02*
X32359523Y-99865000D01*
X32359523Y-99865000D02*
X32454761Y-99912619D01*
X32454761Y-99912619D02*
X32740475Y-99912619D01*
X32740475Y-99912619D02*
X32835713Y-99865000D01*
X32835713Y-99865000D02*
X32883332Y-99817380D01*
D11*
X34587526Y-103400237D02*
X33317526Y-103400237D01*
X34466573Y-104730714D02*
X34527050Y-104670238D01*
X34527050Y-104670238D02*
X34587526Y-104488809D01*
X34587526Y-104488809D02*
X34587526Y-104367857D01*
X34587526Y-104367857D02*
X34527050Y-104186428D01*
X34527050Y-104186428D02*
X34406097Y-104065476D01*
X34406097Y-104065476D02*
X34285145Y-104004999D01*
X34285145Y-104004999D02*
X34043240Y-103944523D01*
X34043240Y-103944523D02*
X33861811Y-103944523D01*
X33861811Y-103944523D02*
X33619907Y-104004999D01*
X33619907Y-104004999D02*
X33498954Y-104065476D01*
X33498954Y-104065476D02*
X33378002Y-104186428D01*
X33378002Y-104186428D02*
X33317526Y-104367857D01*
X33317526Y-104367857D02*
X33317526Y-104488809D01*
X33317526Y-104488809D02*
X33378002Y-104670238D01*
X33378002Y-104670238D02*
X33438478Y-104730714D01*
X33438478Y-105214523D02*
X33378002Y-105274999D01*
X33378002Y-105274999D02*
X33317526Y-105395952D01*
X33317526Y-105395952D02*
X33317526Y-105698333D01*
X33317526Y-105698333D02*
X33378002Y-105819285D01*
X33378002Y-105819285D02*
X33438478Y-105879761D01*
X33438478Y-105879761D02*
X33559430Y-105940238D01*
X33559430Y-105940238D02*
X33680383Y-105940238D01*
X33680383Y-105940238D02*
X33861811Y-105879761D01*
X33861811Y-105879761D02*
X34587526Y-105154047D01*
X34587526Y-105154047D02*
X34587526Y-105940238D01*
D10*
X57242857Y-98917380D02*
X57290476Y-98965000D01*
X57290476Y-98965000D02*
X57433333Y-99012619D01*
X57433333Y-99012619D02*
X57528571Y-99012619D01*
X57528571Y-99012619D02*
X57671428Y-98965000D01*
X57671428Y-98965000D02*
X57766666Y-98869761D01*
X57766666Y-98869761D02*
X57814285Y-98774523D01*
X57814285Y-98774523D02*
X57861904Y-98584047D01*
X57861904Y-98584047D02*
X57861904Y-98441190D01*
X57861904Y-98441190D02*
X57814285Y-98250714D01*
X57814285Y-98250714D02*
X57766666Y-98155476D01*
X57766666Y-98155476D02*
X57671428Y-98060238D01*
X57671428Y-98060238D02*
X57528571Y-98012619D01*
X57528571Y-98012619D02*
X57433333Y-98012619D01*
X57433333Y-98012619D02*
X57290476Y-98060238D01*
X57290476Y-98060238D02*
X57242857Y-98107857D01*
X56290476Y-99012619D02*
X56861904Y-99012619D01*
X56576190Y-99012619D02*
X56576190Y-98012619D01*
X56576190Y-98012619D02*
X56671428Y-98155476D01*
X56671428Y-98155476D02*
X56766666Y-98250714D01*
X56766666Y-98250714D02*
X56861904Y-98298333D01*
X55338095Y-99012619D02*
X55909523Y-99012619D01*
X55623809Y-99012619D02*
X55623809Y-98012619D01*
X55623809Y-98012619D02*
X55719047Y-98155476D01*
X55719047Y-98155476D02*
X55814285Y-98250714D01*
X55814285Y-98250714D02*
X55909523Y-98298333D01*
X33166666Y-98567380D02*
X33214285Y-98615000D01*
X33214285Y-98615000D02*
X33357142Y-98662619D01*
X33357142Y-98662619D02*
X33452380Y-98662619D01*
X33452380Y-98662619D02*
X33595237Y-98615000D01*
X33595237Y-98615000D02*
X33690475Y-98519761D01*
X33690475Y-98519761D02*
X33738094Y-98424523D01*
X33738094Y-98424523D02*
X33785713Y-98234047D01*
X33785713Y-98234047D02*
X33785713Y-98091190D01*
X33785713Y-98091190D02*
X33738094Y-97900714D01*
X33738094Y-97900714D02*
X33690475Y-97805476D01*
X33690475Y-97805476D02*
X33595237Y-97710238D01*
X33595237Y-97710238D02*
X33452380Y-97662619D01*
X33452380Y-97662619D02*
X33357142Y-97662619D01*
X33357142Y-97662619D02*
X33214285Y-97710238D01*
X33214285Y-97710238D02*
X33166666Y-97757857D01*
X32214285Y-98662619D02*
X32785713Y-98662619D01*
X32499999Y-98662619D02*
X32499999Y-97662619D01*
X32499999Y-97662619D02*
X32595237Y-97805476D01*
X32595237Y-97805476D02*
X32690475Y-97900714D01*
X32690475Y-97900714D02*
X32785713Y-97948333D01*
D11*
X56004761Y-102632764D02*
X56004761Y-103237526D01*
X56428094Y-101967526D02*
X56004761Y-102632764D01*
X56004761Y-102632764D02*
X55581427Y-101967526D01*
X54492856Y-103237526D02*
X55218571Y-103237526D01*
X54855714Y-103237526D02*
X54855714Y-101967526D01*
X54855714Y-101967526D02*
X54976666Y-102148954D01*
X54976666Y-102148954D02*
X55097618Y-102269907D01*
X55097618Y-102269907D02*
X55218571Y-102330383D01*
D10*
X57242857Y-100317380D02*
X57290476Y-100365000D01*
X57290476Y-100365000D02*
X57433333Y-100412619D01*
X57433333Y-100412619D02*
X57528571Y-100412619D01*
X57528571Y-100412619D02*
X57671428Y-100365000D01*
X57671428Y-100365000D02*
X57766666Y-100269761D01*
X57766666Y-100269761D02*
X57814285Y-100174523D01*
X57814285Y-100174523D02*
X57861904Y-99984047D01*
X57861904Y-99984047D02*
X57861904Y-99841190D01*
X57861904Y-99841190D02*
X57814285Y-99650714D01*
X57814285Y-99650714D02*
X57766666Y-99555476D01*
X57766666Y-99555476D02*
X57671428Y-99460238D01*
X57671428Y-99460238D02*
X57528571Y-99412619D01*
X57528571Y-99412619D02*
X57433333Y-99412619D01*
X57433333Y-99412619D02*
X57290476Y-99460238D01*
X57290476Y-99460238D02*
X57242857Y-99507857D01*
X56290476Y-100412619D02*
X56861904Y-100412619D01*
X56576190Y-100412619D02*
X56576190Y-99412619D01*
X56576190Y-99412619D02*
X56671428Y-99555476D01*
X56671428Y-99555476D02*
X56766666Y-99650714D01*
X56766666Y-99650714D02*
X56861904Y-99698333D01*
X55671428Y-99412619D02*
X55576190Y-99412619D01*
X55576190Y-99412619D02*
X55480952Y-99460238D01*
X55480952Y-99460238D02*
X55433333Y-99507857D01*
X55433333Y-99507857D02*
X55385714Y-99603095D01*
X55385714Y-99603095D02*
X55338095Y-99793571D01*
X55338095Y-99793571D02*
X55338095Y-100031666D01*
X55338095Y-100031666D02*
X55385714Y-100222142D01*
X55385714Y-100222142D02*
X55433333Y-100317380D01*
X55433333Y-100317380D02*
X55480952Y-100365000D01*
X55480952Y-100365000D02*
X55576190Y-100412619D01*
X55576190Y-100412619D02*
X55671428Y-100412619D01*
X55671428Y-100412619D02*
X55766666Y-100365000D01*
X55766666Y-100365000D02*
X55814285Y-100317380D01*
X55814285Y-100317380D02*
X55861904Y-100222142D01*
X55861904Y-100222142D02*
X55909523Y-100031666D01*
X55909523Y-100031666D02*
X55909523Y-99793571D01*
X55909523Y-99793571D02*
X55861904Y-99603095D01*
X55861904Y-99603095D02*
X55814285Y-99507857D01*
X55814285Y-99507857D02*
X55766666Y-99460238D01*
X55766666Y-99460238D02*
X55671428Y-99412619D01*
X35216666Y-102357380D02*
X35264285Y-102405000D01*
X35264285Y-102405000D02*
X35407142Y-102452619D01*
X35407142Y-102452619D02*
X35502380Y-102452619D01*
X35502380Y-102452619D02*
X35645237Y-102405000D01*
X35645237Y-102405000D02*
X35740475Y-102309761D01*
X35740475Y-102309761D02*
X35788094Y-102214523D01*
X35788094Y-102214523D02*
X35835713Y-102024047D01*
X35835713Y-102024047D02*
X35835713Y-101881190D01*
X35835713Y-101881190D02*
X35788094Y-101690714D01*
X35788094Y-101690714D02*
X35740475Y-101595476D01*
X35740475Y-101595476D02*
X35645237Y-101500238D01*
X35645237Y-101500238D02*
X35502380Y-101452619D01*
X35502380Y-101452619D02*
X35407142Y-101452619D01*
X35407142Y-101452619D02*
X35264285Y-101500238D01*
X35264285Y-101500238D02*
X35216666Y-101547857D01*
X34311904Y-101452619D02*
X34788094Y-101452619D01*
X34788094Y-101452619D02*
X34835713Y-101928809D01*
X34835713Y-101928809D02*
X34788094Y-101881190D01*
X34788094Y-101881190D02*
X34692856Y-101833571D01*
X34692856Y-101833571D02*
X34454761Y-101833571D01*
X34454761Y-101833571D02*
X34359523Y-101881190D01*
X34359523Y-101881190D02*
X34311904Y-101928809D01*
X34311904Y-101928809D02*
X34264285Y-102024047D01*
X34264285Y-102024047D02*
X34264285Y-102262142D01*
X34264285Y-102262142D02*
X34311904Y-102357380D01*
X34311904Y-102357380D02*
X34359523Y-102405000D01*
X34359523Y-102405000D02*
X34454761Y-102452619D01*
X34454761Y-102452619D02*
X34692856Y-102452619D01*
X34692856Y-102452619D02*
X34788094Y-102405000D01*
X34788094Y-102405000D02*
X34835713Y-102357380D01*
X53766666Y-93067380D02*
X53814285Y-93115000D01*
X53814285Y-93115000D02*
X53957142Y-93162619D01*
X53957142Y-93162619D02*
X54052380Y-93162619D01*
X54052380Y-93162619D02*
X54195237Y-93115000D01*
X54195237Y-93115000D02*
X54290475Y-93019761D01*
X54290475Y-93019761D02*
X54338094Y-92924523D01*
X54338094Y-92924523D02*
X54385713Y-92734047D01*
X54385713Y-92734047D02*
X54385713Y-92591190D01*
X54385713Y-92591190D02*
X54338094Y-92400714D01*
X54338094Y-92400714D02*
X54290475Y-92305476D01*
X54290475Y-92305476D02*
X54195237Y-92210238D01*
X54195237Y-92210238D02*
X54052380Y-92162619D01*
X54052380Y-92162619D02*
X53957142Y-92162619D01*
X53957142Y-92162619D02*
X53814285Y-92210238D01*
X53814285Y-92210238D02*
X53766666Y-92257857D01*
X53433332Y-92162619D02*
X52766666Y-92162619D01*
X52766666Y-92162619D02*
X53195237Y-93162619D01*
D11*
X36939762Y-93587526D02*
X36939762Y-92317526D01*
X35609285Y-93466573D02*
X35669761Y-93527050D01*
X35669761Y-93527050D02*
X35851190Y-93587526D01*
X35851190Y-93587526D02*
X35972142Y-93587526D01*
X35972142Y-93587526D02*
X36153571Y-93527050D01*
X36153571Y-93527050D02*
X36274523Y-93406097D01*
X36274523Y-93406097D02*
X36335000Y-93285145D01*
X36335000Y-93285145D02*
X36395476Y-93043240D01*
X36395476Y-93043240D02*
X36395476Y-92861811D01*
X36395476Y-92861811D02*
X36335000Y-92619907D01*
X36335000Y-92619907D02*
X36274523Y-92498954D01*
X36274523Y-92498954D02*
X36153571Y-92378002D01*
X36153571Y-92378002D02*
X35972142Y-92317526D01*
X35972142Y-92317526D02*
X35851190Y-92317526D01*
X35851190Y-92317526D02*
X35669761Y-92378002D01*
X35669761Y-92378002D02*
X35609285Y-92438478D01*
X34399761Y-93587526D02*
X35125476Y-93587526D01*
X34762619Y-93587526D02*
X34762619Y-92317526D01*
X34762619Y-92317526D02*
X34883571Y-92498954D01*
X34883571Y-92498954D02*
X35004523Y-92619907D01*
X35004523Y-92619907D02*
X35125476Y-92680383D01*
D10*
X48766666Y-93562619D02*
X49099999Y-93086428D01*
X49338094Y-93562619D02*
X49338094Y-92562619D01*
X49338094Y-92562619D02*
X48957142Y-92562619D01*
X48957142Y-92562619D02*
X48861904Y-92610238D01*
X48861904Y-92610238D02*
X48814285Y-92657857D01*
X48814285Y-92657857D02*
X48766666Y-92753095D01*
X48766666Y-92753095D02*
X48766666Y-92895952D01*
X48766666Y-92895952D02*
X48814285Y-92991190D01*
X48814285Y-92991190D02*
X48861904Y-93038809D01*
X48861904Y-93038809D02*
X48957142Y-93086428D01*
X48957142Y-93086428D02*
X49338094Y-93086428D01*
X48385713Y-92657857D02*
X48338094Y-92610238D01*
X48338094Y-92610238D02*
X48242856Y-92562619D01*
X48242856Y-92562619D02*
X48004761Y-92562619D01*
X48004761Y-92562619D02*
X47909523Y-92610238D01*
X47909523Y-92610238D02*
X47861904Y-92657857D01*
X47861904Y-92657857D02*
X47814285Y-92753095D01*
X47814285Y-92753095D02*
X47814285Y-92848333D01*
X47814285Y-92848333D02*
X47861904Y-92991190D01*
X47861904Y-92991190D02*
X48433332Y-93562619D01*
X48433332Y-93562619D02*
X47814285Y-93562619D01*
X31766666Y-97467380D02*
X31814285Y-97515000D01*
X31814285Y-97515000D02*
X31957142Y-97562619D01*
X31957142Y-97562619D02*
X32052380Y-97562619D01*
X32052380Y-97562619D02*
X32195237Y-97515000D01*
X32195237Y-97515000D02*
X32290475Y-97419761D01*
X32290475Y-97419761D02*
X32338094Y-97324523D01*
X32338094Y-97324523D02*
X32385713Y-97134047D01*
X32385713Y-97134047D02*
X32385713Y-96991190D01*
X32385713Y-96991190D02*
X32338094Y-96800714D01*
X32338094Y-96800714D02*
X32290475Y-96705476D01*
X32290475Y-96705476D02*
X32195237Y-96610238D01*
X32195237Y-96610238D02*
X32052380Y-96562619D01*
X32052380Y-96562619D02*
X31957142Y-96562619D01*
X31957142Y-96562619D02*
X31814285Y-96610238D01*
X31814285Y-96610238D02*
X31766666Y-96657857D01*
X30909523Y-96895952D02*
X30909523Y-97562619D01*
X31147618Y-96515000D02*
X31385713Y-97229285D01*
X31385713Y-97229285D02*
X30766666Y-97229285D01*
X31666666Y-100867380D02*
X31714285Y-100915000D01*
X31714285Y-100915000D02*
X31857142Y-100962619D01*
X31857142Y-100962619D02*
X31952380Y-100962619D01*
X31952380Y-100962619D02*
X32095237Y-100915000D01*
X32095237Y-100915000D02*
X32190475Y-100819761D01*
X32190475Y-100819761D02*
X32238094Y-100724523D01*
X32238094Y-100724523D02*
X32285713Y-100534047D01*
X32285713Y-100534047D02*
X32285713Y-100391190D01*
X32285713Y-100391190D02*
X32238094Y-100200714D01*
X32238094Y-100200714D02*
X32190475Y-100105476D01*
X32190475Y-100105476D02*
X32095237Y-100010238D01*
X32095237Y-100010238D02*
X31952380Y-99962619D01*
X31952380Y-99962619D02*
X31857142Y-99962619D01*
X31857142Y-99962619D02*
X31714285Y-100010238D01*
X31714285Y-100010238D02*
X31666666Y-100057857D01*
X31285713Y-100057857D02*
X31238094Y-100010238D01*
X31238094Y-100010238D02*
X31142856Y-99962619D01*
X31142856Y-99962619D02*
X30904761Y-99962619D01*
X30904761Y-99962619D02*
X30809523Y-100010238D01*
X30809523Y-100010238D02*
X30761904Y-100057857D01*
X30761904Y-100057857D02*
X30714285Y-100153095D01*
X30714285Y-100153095D02*
X30714285Y-100248333D01*
X30714285Y-100248333D02*
X30761904Y-100391190D01*
X30761904Y-100391190D02*
X31333332Y-100962619D01*
X31333332Y-100962619D02*
X30714285Y-100962619D01*
X35417380Y-107857142D02*
X35465000Y-107809523D01*
X35465000Y-107809523D02*
X35512619Y-107666666D01*
X35512619Y-107666666D02*
X35512619Y-107571428D01*
X35512619Y-107571428D02*
X35465000Y-107428571D01*
X35465000Y-107428571D02*
X35369761Y-107333333D01*
X35369761Y-107333333D02*
X35274523Y-107285714D01*
X35274523Y-107285714D02*
X35084047Y-107238095D01*
X35084047Y-107238095D02*
X34941190Y-107238095D01*
X34941190Y-107238095D02*
X34750714Y-107285714D01*
X34750714Y-107285714D02*
X34655476Y-107333333D01*
X34655476Y-107333333D02*
X34560238Y-107428571D01*
X34560238Y-107428571D02*
X34512619Y-107571428D01*
X34512619Y-107571428D02*
X34512619Y-107666666D01*
X34512619Y-107666666D02*
X34560238Y-107809523D01*
X34560238Y-107809523D02*
X34607857Y-107857142D01*
X35512619Y-108809523D02*
X35512619Y-108238095D01*
X35512619Y-108523809D02*
X34512619Y-108523809D01*
X34512619Y-108523809D02*
X34655476Y-108428571D01*
X34655476Y-108428571D02*
X34750714Y-108333333D01*
X34750714Y-108333333D02*
X34798333Y-108238095D01*
X34607857Y-109190476D02*
X34560238Y-109238095D01*
X34560238Y-109238095D02*
X34512619Y-109333333D01*
X34512619Y-109333333D02*
X34512619Y-109571428D01*
X34512619Y-109571428D02*
X34560238Y-109666666D01*
X34560238Y-109666666D02*
X34607857Y-109714285D01*
X34607857Y-109714285D02*
X34703095Y-109761904D01*
X34703095Y-109761904D02*
X34798333Y-109761904D01*
X34798333Y-109761904D02*
X34941190Y-109714285D01*
X34941190Y-109714285D02*
X35512619Y-109142857D01*
X35512619Y-109142857D02*
X35512619Y-109761904D01*
X35216666Y-101057380D02*
X35264285Y-101105000D01*
X35264285Y-101105000D02*
X35407142Y-101152619D01*
X35407142Y-101152619D02*
X35502380Y-101152619D01*
X35502380Y-101152619D02*
X35645237Y-101105000D01*
X35645237Y-101105000D02*
X35740475Y-101009761D01*
X35740475Y-101009761D02*
X35788094Y-100914523D01*
X35788094Y-100914523D02*
X35835713Y-100724047D01*
X35835713Y-100724047D02*
X35835713Y-100581190D01*
X35835713Y-100581190D02*
X35788094Y-100390714D01*
X35788094Y-100390714D02*
X35740475Y-100295476D01*
X35740475Y-100295476D02*
X35645237Y-100200238D01*
X35645237Y-100200238D02*
X35502380Y-100152619D01*
X35502380Y-100152619D02*
X35407142Y-100152619D01*
X35407142Y-100152619D02*
X35264285Y-100200238D01*
X35264285Y-100200238D02*
X35216666Y-100247857D01*
X34359523Y-100152619D02*
X34549999Y-100152619D01*
X34549999Y-100152619D02*
X34645237Y-100200238D01*
X34645237Y-100200238D02*
X34692856Y-100247857D01*
X34692856Y-100247857D02*
X34788094Y-100390714D01*
X34788094Y-100390714D02*
X34835713Y-100581190D01*
X34835713Y-100581190D02*
X34835713Y-100962142D01*
X34835713Y-100962142D02*
X34788094Y-101057380D01*
X34788094Y-101057380D02*
X34740475Y-101105000D01*
X34740475Y-101105000D02*
X34645237Y-101152619D01*
X34645237Y-101152619D02*
X34454761Y-101152619D01*
X34454761Y-101152619D02*
X34359523Y-101105000D01*
X34359523Y-101105000D02*
X34311904Y-101057380D01*
X34311904Y-101057380D02*
X34264285Y-100962142D01*
X34264285Y-100962142D02*
X34264285Y-100724047D01*
X34264285Y-100724047D02*
X34311904Y-100628809D01*
X34311904Y-100628809D02*
X34359523Y-100581190D01*
X34359523Y-100581190D02*
X34454761Y-100533571D01*
X34454761Y-100533571D02*
X34645237Y-100533571D01*
X34645237Y-100533571D02*
X34740475Y-100581190D01*
X34740475Y-100581190D02*
X34788094Y-100628809D01*
X34788094Y-100628809D02*
X34835713Y-100724047D01*
D12*
X49300000Y-89600000D02*
X47900000Y-89600000D01*
X47900000Y-89600000D02*
X47900000Y-91000000D01*
X49300000Y-91000000D02*
X49300000Y-89600000D01*
X47900000Y-91000000D02*
X49300000Y-91000000D01*
X50763641Y-92180000D02*
X50456359Y-92180000D01*
X50763641Y-91420000D02*
X50456359Y-91420000D01*
D13*
X48832660Y-96246490D02*
X41907660Y-96246490D01*
X48832660Y-103721490D02*
X48832660Y-96246490D01*
D14*
X47536090Y-102596490D02*
X43282660Y-102596490D01*
X43282660Y-96892220D01*
X47536090Y-96892220D01*
X47536090Y-102596490D01*
G36*
X47536090Y-102596490D02*
G01*
X43282660Y-102596490D01*
X43282660Y-96892220D01*
X47536090Y-96892220D01*
X47536090Y-102596490D01*
G37*
D12*
X36842164Y-99130000D02*
X37057836Y-99130000D01*
X36842164Y-99850000D02*
X37057836Y-99850000D01*
D15*
X35300000Y-103290000D02*
G75*
G03*
X35300000Y-103290000I-125000J0D01*
G01*
D12*
X53962164Y-98320000D02*
X54177836Y-98320000D01*
X53962164Y-99040000D02*
X54177836Y-99040000D01*
X34754504Y-97873510D02*
X34970176Y-97873510D01*
X34754504Y-98593510D02*
X34970176Y-98593510D01*
D16*
X56250000Y-107775000D02*
X56250000Y-107775000D01*
X56250000Y-107675000D02*
X56250000Y-107675000D01*
D17*
X55525000Y-106975000D02*
X55125000Y-106975000D01*
X55525000Y-104975000D02*
X55125000Y-104975000D01*
D16*
X56250000Y-107675000D02*
G75*
G03*
X56250000Y-107775000I0J-50000D01*
G01*
X56250000Y-107775000D02*
G75*
G03*
X56250000Y-107675000I0J50000D01*
G01*
D12*
X53972164Y-99340000D02*
X54187836Y-99340000D01*
X53972164Y-100060000D02*
X54187836Y-100060000D01*
X36842164Y-101530000D02*
X37057836Y-101530000D01*
X36842164Y-102250000D02*
X37057836Y-102250000D01*
X51300000Y-89600000D02*
X49900000Y-89600000D01*
X49900000Y-89600000D02*
X49900000Y-91000000D01*
X51300000Y-91000000D02*
X51300000Y-89600000D01*
X49900000Y-91000000D02*
X51300000Y-91000000D01*
X51707836Y-93160000D02*
X51492164Y-93160000D01*
X51707836Y-92440000D02*
X51492164Y-92440000D01*
D17*
X33850000Y-97140000D02*
X35050000Y-97140000D01*
X35400000Y-94190000D02*
X35400000Y-97090000D01*
X35400000Y-97090000D02*
X36000000Y-97090000D01*
X36000000Y-94190000D02*
X35400000Y-94190000D01*
X36000000Y-97090000D02*
X36000000Y-94190000D01*
D12*
X48446359Y-91420000D02*
X48753641Y-91420000D01*
X48446359Y-92180000D02*
X48753641Y-92180000D01*
X36822164Y-97930000D02*
X37037836Y-97930000D01*
X36822164Y-98650000D02*
X37037836Y-98650000D01*
X34734504Y-99073510D02*
X34950176Y-99073510D01*
X34734504Y-99793510D02*
X34950176Y-99793510D01*
X36860000Y-107172164D02*
X36860000Y-107387836D01*
X36140000Y-107172164D02*
X36140000Y-107387836D01*
X36842164Y-100330000D02*
X37057836Y-100330000D01*
X36842164Y-101050000D02*
X37057836Y-101050000D01*
%LPC*%
D18*
X48600000Y-90300000D03*
D19*
X51120000Y-91800000D03*
X50100000Y-91800000D03*
D20*
X36470000Y-99490000D03*
X37430000Y-99490000D03*
D21*
X35850000Y-103590000D03*
X36500000Y-103590000D03*
X37150000Y-103590000D03*
X37150000Y-105690000D03*
X36500000Y-105690000D03*
X35850000Y-105690000D03*
D22*
X36500000Y-104640000D03*
D20*
X53590000Y-98680000D03*
X54550000Y-98680000D03*
X34382340Y-98233510D03*
X35342340Y-98233510D03*
D23*
X56250000Y-106700000D03*
X54400000Y-106700000D03*
X54400000Y-105250000D03*
X56250000Y-105250000D03*
D20*
X53600000Y-99700000D03*
X54560000Y-99700000D03*
X36470000Y-101890000D03*
X37430000Y-101890000D03*
D18*
X50600000Y-90300000D03*
D24*
X52080000Y-92800000D03*
X51120000Y-92800000D03*
D25*
X34450000Y-96590000D03*
X34450000Y-95640000D03*
X34450000Y-94690000D03*
X36950000Y-94690000D03*
X36950000Y-96590000D03*
D26*
X48090000Y-91800000D03*
X49110000Y-91800000D03*
D20*
X36450000Y-98290000D03*
X37410000Y-98290000D03*
X34362340Y-99433510D03*
X35322340Y-99433510D03*
D27*
X36500000Y-106800000D03*
X36500000Y-107760000D03*
D20*
X36470000Y-100690000D03*
X37430000Y-100690000D03*
%LPD*%
M02*
