M48
; DRILL file {KiCad (6.0.1)} date Tue May  9 20:22:40 2023
; FORMAT={-:-/ absolute / metric / decimal}
; #@! TF.CreationDate,2023-05-09T20:22:40-04:00
; #@! TF.GenerationSoftware,Kicad,Pcbnew,(6.0.1)
; #@! TF.FileFunction,Plated,1,8,PTH
FMAT,2
METRIC
; #@! TA.AperFunction,Plated,PTH,ViaDrill
T1C0.200
; #@! TA.AperFunction,Plated,PTH,ViaDrill
T2C0.300
; #@! TA.AperFunction,Plated,PTH,ComponentDrill
T3C0.500
%
G90
G05
T1
X129.1Y-92.1
X132.7Y-99.6
X133.2Y-99.1
X133.2Y-99.6
X134.4Y-117.9
X151.1Y-117.6
X151.2Y-115.5
X151.3Y-116.6
X151.3Y-117.1
T2
X108.8Y-118.4
X119.2Y-118.4
X124.5Y-90.8
X124.5Y-99.4
X127.9Y-90.8
X129.6Y-118.4
X131.9Y-93.2
X132.5Y-96.1
X133.2Y-90.7
X136.0Y-119.7
X136.5Y-117.6
X141.6Y-118.0
X152.3Y-74.7
X152.3Y-84.033
X152.3Y-93.367
X152.3Y-102.7
X152.5Y-105.9
X153.6Y-117.5
T3
X144.4Y-119.7
X145.4Y-119.7
X146.4Y-119.7
X147.4Y-119.7
X148.4Y-119.7
X149.4Y-119.7
X150.4Y-119.7
X151.4Y-119.7
X152.4Y-119.7
X153.4Y-119.7
T0
M30
