G04 #@! TF.GenerationSoftware,KiCad,Pcbnew,(6.0.1)*
G04 #@! TF.CreationDate,2023-05-09T20:22:02-04:00*
G04 #@! TF.ProjectId,ExternalFaces,45787465-726e-4616-9c46-616365732e6b,rev?*
G04 #@! TF.SameCoordinates,Original*
G04 #@! TF.FileFunction,Legend,Bot*
G04 #@! TF.FilePolarity,Positive*
%FSLAX46Y46*%
G04 Gerber Fmt 4.6, Leading zero omitted, Abs format (unit mm)*
G04 Created by KiCad (PCBNEW (6.0.1)) date 2023-05-09 20:22:02*
%MOMM*%
%LPD*%
G01*
G04 APERTURE LIST*
G04 Aperture macros list*
%AMRoundRect*
0 Rectangle with rounded corners*
0 $1 Rounding radius*
0 $2 $3 $4 $5 $6 $7 $8 $9 X,Y pos of 4 corners*
0 Add a 4 corners polygon primitive as box body*
4,1,4,$2,$3,$4,$5,$6,$7,$8,$9,$2,$3,0*
0 Add four circle primitives for the rounded corners*
1,1,$1+$1,$2,$3*
1,1,$1+$1,$4,$5*
1,1,$1+$1,$6,$7*
1,1,$1+$1,$8,$9*
0 Add four rect primitives between the rounded corners*
20,1,$1+$1,$2,$3,$4,$5,0*
20,1,$1+$1,$4,$5,$6,$7,0*
20,1,$1+$1,$6,$7,$8,$9,0*
20,1,$1+$1,$8,$9,$2,$3,0*%
G04 Aperture macros list end*
%ADD10C,0.150000*%
%ADD11C,0.254000*%
%ADD12C,0.120000*%
%ADD13C,0.200000*%
%ADD14C,0.250000*%
%ADD15C,0.010000*%
%ADD16RoundRect,0.135000X0.185000X-0.135000X0.185000X0.135000X-0.185000X0.135000X-0.185000X-0.135000X0*%
%ADD17R,1.000000X1.500000*%
%ADD18RoundRect,0.140000X-0.170000X0.140000X-0.170000X-0.140000X0.170000X-0.140000X0.170000X0.140000X0*%
%ADD19RoundRect,0.140000X0.170000X-0.140000X0.170000X0.140000X-0.170000X0.140000X-0.170000X-0.140000X0*%
%ADD20R,0.850000X0.850000*%
%ADD21O,0.850000X0.850000*%
%ADD22R,0.450000X1.475000*%
%ADD23R,0.700000X0.300000*%
%ADD24R,1.000000X1.700000*%
%ADD25RoundRect,0.135000X0.135000X0.185000X-0.135000X0.185000X-0.135000X-0.185000X0.135000X-0.185000X0*%
%ADD26R,1.200000X3.700000*%
%ADD27RoundRect,0.140000X0.140000X0.170000X-0.140000X0.170000X-0.140000X-0.170000X0.140000X-0.170000X0*%
%ADD28R,0.900000X1.200000*%
G04 APERTURE END LIST*
D10*
X123900000Y-100000000D02*
X132500000Y-91300000D01*
X129819804Y-95100000D02*
G75*
G03*
X129819804Y-95100000I-1019804J0D01*
G01*
X123900000Y-90200000D02*
X133700000Y-100000000D01*
X132500000Y-95800000D02*
X133700000Y-95800000D01*
X133700000Y-95800000D02*
X133700000Y-100000000D01*
X133700000Y-100000000D02*
X123900000Y-100000000D01*
X123900000Y-100000000D02*
X123900000Y-90200000D01*
X123900000Y-90200000D02*
X132500000Y-90200000D01*
X132500000Y-90200000D02*
X132500000Y-95800000D01*
X136052380Y-110333333D02*
X135576190Y-110000000D01*
X136052380Y-109761904D02*
X135052380Y-109761904D01*
X135052380Y-110142857D01*
X135100000Y-110238095D01*
X135147619Y-110285714D01*
X135242857Y-110333333D01*
X135385714Y-110333333D01*
X135480952Y-110285714D01*
X135528571Y-110238095D01*
X135576190Y-110142857D01*
X135576190Y-109761904D01*
X135147619Y-110714285D02*
X135100000Y-110761904D01*
X135052380Y-110857142D01*
X135052380Y-111095238D01*
X135100000Y-111190476D01*
X135147619Y-111238095D01*
X135242857Y-111285714D01*
X135338095Y-111285714D01*
X135480952Y-111238095D01*
X136052380Y-110666666D01*
X136052380Y-111285714D01*
X145457142Y-106233333D02*
X145504761Y-106185714D01*
X145552380Y-106042857D01*
X145552380Y-105947619D01*
X145504761Y-105804761D01*
X145409523Y-105709523D01*
X145314285Y-105661904D01*
X145123809Y-105614285D01*
X144980952Y-105614285D01*
X144790476Y-105661904D01*
X144695238Y-105709523D01*
X144600000Y-105804761D01*
X144552380Y-105947619D01*
X144552380Y-106042857D01*
X144600000Y-106185714D01*
X144647619Y-106233333D01*
X144980952Y-106804761D02*
X144933333Y-106709523D01*
X144885714Y-106661904D01*
X144790476Y-106614285D01*
X144742857Y-106614285D01*
X144647619Y-106661904D01*
X144600000Y-106709523D01*
X144552380Y-106804761D01*
X144552380Y-106995238D01*
X144600000Y-107090476D01*
X144647619Y-107138095D01*
X144742857Y-107185714D01*
X144790476Y-107185714D01*
X144885714Y-107138095D01*
X144933333Y-107090476D01*
X144980952Y-106995238D01*
X144980952Y-106804761D01*
X145028571Y-106709523D01*
X145076190Y-106661904D01*
X145171428Y-106614285D01*
X145361904Y-106614285D01*
X145457142Y-106661904D01*
X145504761Y-106709523D01*
X145552380Y-106804761D01*
X145552380Y-106995238D01*
X145504761Y-107090476D01*
X145457142Y-107138095D01*
X145361904Y-107185714D01*
X145171428Y-107185714D01*
X145076190Y-107138095D01*
X145028571Y-107090476D01*
X144980952Y-106995238D01*
X149157142Y-111233333D02*
X149204761Y-111185714D01*
X149252380Y-111042857D01*
X149252380Y-110947619D01*
X149204761Y-110804761D01*
X149109523Y-110709523D01*
X149014285Y-110661904D01*
X148823809Y-110614285D01*
X148680952Y-110614285D01*
X148490476Y-110661904D01*
X148395238Y-110709523D01*
X148300000Y-110804761D01*
X148252380Y-110947619D01*
X148252380Y-111042857D01*
X148300000Y-111185714D01*
X148347619Y-111233333D01*
X148347619Y-111614285D02*
X148300000Y-111661904D01*
X148252380Y-111757142D01*
X148252380Y-111995238D01*
X148300000Y-112090476D01*
X148347619Y-112138095D01*
X148442857Y-112185714D01*
X148538095Y-112185714D01*
X148680952Y-112138095D01*
X149252380Y-111566666D01*
X149252380Y-112185714D01*
X142833333Y-119152380D02*
X142833333Y-119866666D01*
X142880952Y-120009523D01*
X142976190Y-120104761D01*
X143119047Y-120152380D01*
X143214285Y-120152380D01*
X141833333Y-120152380D02*
X142404761Y-120152380D01*
X142119047Y-120152380D02*
X142119047Y-119152380D01*
X142214285Y-119295238D01*
X142309523Y-119390476D01*
X142404761Y-119438095D01*
X134657142Y-110333333D02*
X134704761Y-110285714D01*
X134752380Y-110142857D01*
X134752380Y-110047619D01*
X134704761Y-109904761D01*
X134609523Y-109809523D01*
X134514285Y-109761904D01*
X134323809Y-109714285D01*
X134180952Y-109714285D01*
X133990476Y-109761904D01*
X133895238Y-109809523D01*
X133800000Y-109904761D01*
X133752380Y-110047619D01*
X133752380Y-110142857D01*
X133800000Y-110285714D01*
X133847619Y-110333333D01*
X133752380Y-111238095D02*
X133752380Y-110761904D01*
X134228571Y-110714285D01*
X134180952Y-110761904D01*
X134133333Y-110857142D01*
X134133333Y-111095238D01*
X134180952Y-111190476D01*
X134228571Y-111238095D01*
X134323809Y-111285714D01*
X134561904Y-111285714D01*
X134657142Y-111238095D01*
X134704761Y-111190476D01*
X134752380Y-111095238D01*
X134752380Y-110857142D01*
X134704761Y-110761904D01*
X134657142Y-110714285D01*
D11*
X142074523Y-108660238D02*
X140804523Y-108660238D01*
X141953571Y-109990714D02*
X142014047Y-109930238D01*
X142074523Y-109748809D01*
X142074523Y-109627857D01*
X142014047Y-109446428D01*
X141893095Y-109325476D01*
X141772142Y-109265000D01*
X141530238Y-109204523D01*
X141348809Y-109204523D01*
X141106904Y-109265000D01*
X140985952Y-109325476D01*
X140865000Y-109446428D01*
X140804523Y-109627857D01*
X140804523Y-109748809D01*
X140865000Y-109930238D01*
X140925476Y-109990714D01*
X141227857Y-111079285D02*
X142074523Y-111079285D01*
X140744047Y-110776904D02*
X141651190Y-110474523D01*
X141651190Y-111260714D01*
X146674523Y-112460238D02*
X145404523Y-112460238D01*
X146553571Y-113790714D02*
X146614047Y-113730238D01*
X146674523Y-113548809D01*
X146674523Y-113427857D01*
X146614047Y-113246428D01*
X146493095Y-113125476D01*
X146372142Y-113065000D01*
X146130238Y-113004523D01*
X145948809Y-113004523D01*
X145706904Y-113065000D01*
X145585952Y-113125476D01*
X145465000Y-113246428D01*
X145404523Y-113427857D01*
X145404523Y-113548809D01*
X145465000Y-113730238D01*
X145525476Y-113790714D01*
X145525476Y-114274523D02*
X145465000Y-114335000D01*
X145404523Y-114455952D01*
X145404523Y-114758333D01*
X145465000Y-114879285D01*
X145525476Y-114939761D01*
X145646428Y-115000238D01*
X145767380Y-115000238D01*
X145948809Y-114939761D01*
X146674523Y-114214047D01*
X146674523Y-115000238D01*
D10*
X136666666Y-106252380D02*
X137000000Y-105776190D01*
X137238095Y-106252380D02*
X137238095Y-105252380D01*
X136857142Y-105252380D01*
X136761904Y-105300000D01*
X136714285Y-105347619D01*
X136666666Y-105442857D01*
X136666666Y-105585714D01*
X136714285Y-105680952D01*
X136761904Y-105728571D01*
X136857142Y-105776190D01*
X137238095Y-105776190D01*
X136333333Y-105252380D02*
X135714285Y-105252380D01*
X136047619Y-105633333D01*
X135904761Y-105633333D01*
X135809523Y-105680952D01*
X135761904Y-105728571D01*
X135714285Y-105823809D01*
X135714285Y-106061904D01*
X135761904Y-106157142D01*
X135809523Y-106204761D01*
X135904761Y-106252380D01*
X136190476Y-106252380D01*
X136285714Y-106204761D01*
X136333333Y-106157142D01*
D11*
X134874523Y-116288333D02*
X134874523Y-115683571D01*
X133604523Y-115683571D01*
X133725476Y-116651190D02*
X133665000Y-116711666D01*
X133604523Y-116832619D01*
X133604523Y-117135000D01*
X133665000Y-117255952D01*
X133725476Y-117316428D01*
X133846428Y-117376904D01*
X133967380Y-117376904D01*
X134148809Y-117316428D01*
X134874523Y-116590714D01*
X134874523Y-117376904D01*
D10*
X150457142Y-111233333D02*
X150504761Y-111185714D01*
X150552380Y-111042857D01*
X150552380Y-110947619D01*
X150504761Y-110804761D01*
X150409523Y-110709523D01*
X150314285Y-110661904D01*
X150123809Y-110614285D01*
X149980952Y-110614285D01*
X149790476Y-110661904D01*
X149695238Y-110709523D01*
X149600000Y-110804761D01*
X149552380Y-110947619D01*
X149552380Y-111042857D01*
X149600000Y-111185714D01*
X149647619Y-111233333D01*
X149552380Y-111566666D02*
X149552380Y-112185714D01*
X149933333Y-111852380D01*
X149933333Y-111995238D01*
X149980952Y-112090476D01*
X150028571Y-112138095D01*
X150123809Y-112185714D01*
X150361904Y-112185714D01*
X150457142Y-112138095D01*
X150504761Y-112090476D01*
X150552380Y-111995238D01*
X150552380Y-111709523D01*
X150504761Y-111614285D01*
X150457142Y-111566666D01*
X133357142Y-110333333D02*
X133404761Y-110285714D01*
X133452380Y-110142857D01*
X133452380Y-110047619D01*
X133404761Y-109904761D01*
X133309523Y-109809523D01*
X133214285Y-109761904D01*
X133023809Y-109714285D01*
X132880952Y-109714285D01*
X132690476Y-109761904D01*
X132595238Y-109809523D01*
X132500000Y-109904761D01*
X132452380Y-110047619D01*
X132452380Y-110142857D01*
X132500000Y-110285714D01*
X132547619Y-110333333D01*
X132452380Y-111190476D02*
X132452380Y-111000000D01*
X132500000Y-110904761D01*
X132547619Y-110857142D01*
X132690476Y-110761904D01*
X132880952Y-110714285D01*
X133261904Y-110714285D01*
X133357142Y-110761904D01*
X133404761Y-110809523D01*
X133452380Y-110904761D01*
X133452380Y-111095238D01*
X133404761Y-111190476D01*
X133357142Y-111238095D01*
X133261904Y-111285714D01*
X133023809Y-111285714D01*
X132928571Y-111238095D01*
X132880952Y-111190476D01*
X132833333Y-111095238D01*
X132833333Y-110904761D01*
X132880952Y-110809523D01*
X132928571Y-110761904D01*
X133023809Y-110714285D01*
X147857142Y-111233333D02*
X147904761Y-111185714D01*
X147952380Y-111042857D01*
X147952380Y-110947619D01*
X147904761Y-110804761D01*
X147809523Y-110709523D01*
X147714285Y-110661904D01*
X147523809Y-110614285D01*
X147380952Y-110614285D01*
X147190476Y-110661904D01*
X147095238Y-110709523D01*
X147000000Y-110804761D01*
X146952380Y-110947619D01*
X146952380Y-111042857D01*
X147000000Y-111185714D01*
X147047619Y-111233333D01*
X147952380Y-112185714D02*
X147952380Y-111614285D01*
X147952380Y-111900000D02*
X146952380Y-111900000D01*
X147095238Y-111804761D01*
X147190476Y-111709523D01*
X147238095Y-111614285D01*
X136746666Y-107457142D02*
X136794285Y-107504761D01*
X136937142Y-107552380D01*
X137032380Y-107552380D01*
X137175238Y-107504761D01*
X137270476Y-107409523D01*
X137318095Y-107314285D01*
X137365714Y-107123809D01*
X137365714Y-106980952D01*
X137318095Y-106790476D01*
X137270476Y-106695238D01*
X137175238Y-106600000D01*
X137032380Y-106552380D01*
X136937142Y-106552380D01*
X136794285Y-106600000D01*
X136746666Y-106647619D01*
X136413333Y-106552380D02*
X135746666Y-106552380D01*
X136175238Y-107552380D01*
X133657142Y-118933333D02*
X133704761Y-118885714D01*
X133752380Y-118742857D01*
X133752380Y-118647619D01*
X133704761Y-118504761D01*
X133609523Y-118409523D01*
X133514285Y-118361904D01*
X133323809Y-118314285D01*
X133180952Y-118314285D01*
X132990476Y-118361904D01*
X132895238Y-118409523D01*
X132800000Y-118504761D01*
X132752380Y-118647619D01*
X132752380Y-118742857D01*
X132800000Y-118885714D01*
X132847619Y-118933333D01*
X133085714Y-119790476D02*
X133752380Y-119790476D01*
X132704761Y-119552380D02*
X133419047Y-119314285D01*
X133419047Y-119933333D01*
X134552380Y-111961904D02*
X133552380Y-111961904D01*
X133552380Y-112200000D01*
X133600000Y-112342857D01*
X133695238Y-112438095D01*
X133790476Y-112485714D01*
X133980952Y-112533333D01*
X134123809Y-112533333D01*
X134314285Y-112485714D01*
X134409523Y-112438095D01*
X134504761Y-112342857D01*
X134552380Y-112200000D01*
X134552380Y-111961904D01*
X134552380Y-113485714D02*
X134552380Y-112914285D01*
X134552380Y-113200000D02*
X133552380Y-113200000D01*
X133695238Y-113104761D01*
X133790476Y-113009523D01*
X133838095Y-112914285D01*
X142366666Y-116252380D02*
X142700000Y-115776190D01*
X142938095Y-116252380D02*
X142938095Y-115252380D01*
X142557142Y-115252380D01*
X142461904Y-115300000D01*
X142414285Y-115347619D01*
X142366666Y-115442857D01*
X142366666Y-115585714D01*
X142414285Y-115680952D01*
X142461904Y-115728571D01*
X142557142Y-115776190D01*
X142938095Y-115776190D01*
X141414285Y-116252380D02*
X141985714Y-116252380D01*
X141700000Y-116252380D02*
X141700000Y-115252380D01*
X141795238Y-115395238D01*
X141890476Y-115490476D01*
X141985714Y-115538095D01*
D12*
X138620000Y-110653641D02*
X138620000Y-110346359D01*
X139380000Y-110653641D02*
X139380000Y-110346359D01*
X135300000Y-87700000D02*
X135300000Y-85700000D01*
X132500000Y-87700000D02*
X135300000Y-87700000D01*
X132500000Y-85700000D02*
X132500000Y-87700000D01*
X135300000Y-85700000D02*
X132500000Y-85700000D01*
X143540000Y-106392164D02*
X143540000Y-106607836D01*
X144260000Y-106392164D02*
X144260000Y-106607836D01*
X153400000Y-120395000D02*
X154085000Y-120395000D01*
X143840000Y-119305507D02*
X143840000Y-119005000D01*
X152715000Y-119005000D02*
X143840000Y-119005000D01*
X143840000Y-120395000D02*
X143840000Y-120094493D01*
X154085000Y-120395000D02*
X154085000Y-119700000D01*
X152715000Y-119091724D02*
X152715000Y-119005000D01*
X152715000Y-120395000D02*
X143840000Y-120395000D01*
X152715000Y-120395000D02*
X152715000Y-120308276D01*
X137540000Y-110607836D02*
X137540000Y-110392164D01*
X138260000Y-110607836D02*
X138260000Y-110392164D01*
D13*
X140000000Y-108050000D02*
X140000000Y-111750000D01*
X143000000Y-111750000D02*
X143000000Y-108050000D01*
X143050000Y-113575000D02*
X143050000Y-112100000D01*
X143000000Y-108050000D02*
X140000000Y-108050000D01*
X140000000Y-111750000D02*
X143000000Y-111750000D01*
G36*
X124868949Y-108187232D02*
G01*
X124764669Y-108433371D01*
X124578593Y-108741936D01*
X124246332Y-109192502D01*
X123814252Y-109711345D01*
X123301569Y-110279889D01*
X122727500Y-110879557D01*
X122111261Y-111491774D01*
X121472070Y-112097963D01*
X120871387Y-112641334D01*
X120829141Y-112679549D01*
X120201692Y-113217955D01*
X119608940Y-113694605D01*
X119070101Y-114090924D01*
X118604391Y-114388335D01*
X118493632Y-114450378D01*
X118305858Y-114548499D01*
X118210743Y-114587647D01*
X118170895Y-114578175D01*
X117997416Y-114485521D01*
X117729859Y-114308209D01*
X117392619Y-114063655D01*
X117010090Y-113769274D01*
X116606666Y-113442482D01*
X116416169Y-113282430D01*
X115780554Y-112725398D01*
X115689799Y-112641334D01*
X117707333Y-112641334D01*
X119076884Y-112641334D01*
X119031091Y-112323834D01*
X119018885Y-112224885D01*
X118991316Y-111935046D01*
X118962195Y-111561289D01*
X118936096Y-111159667D01*
X118923152Y-110950793D01*
X118894696Y-110556662D01*
X118865438Y-110219547D01*
X118840005Y-109995500D01*
X118793116Y-109678000D01*
X117816847Y-109678000D01*
X117762090Y-110325774D01*
X117753621Y-110435989D01*
X117730006Y-110864534D01*
X117713527Y-111350103D01*
X117707333Y-111807441D01*
X117707333Y-112641334D01*
X115689799Y-112641334D01*
X115138331Y-112130524D01*
X114506642Y-111516027D01*
X113902624Y-110900123D01*
X113343417Y-110301029D01*
X112846161Y-109736963D01*
X112427993Y-109226141D01*
X112106055Y-108786782D01*
X111897485Y-108437102D01*
X111679981Y-107992542D01*
X111691047Y-107968611D01*
X114574666Y-107968611D01*
X114613687Y-108137175D01*
X114792009Y-108396660D01*
X115090907Y-108661458D01*
X115484121Y-108912897D01*
X115945392Y-109132305D01*
X116448460Y-109301010D01*
X116601534Y-109332503D01*
X116983869Y-109376127D01*
X117470719Y-109403553D01*
X118021027Y-109414809D01*
X118593734Y-109409923D01*
X119147782Y-109388919D01*
X119642112Y-109351827D01*
X120035666Y-109298671D01*
X120607410Y-109165807D01*
X121363001Y-108896925D01*
X122001667Y-108550476D01*
X122029829Y-108531312D01*
X122356334Y-108244345D01*
X122513658Y-107951850D01*
X122501825Y-107654873D01*
X122320854Y-107354459D01*
X121970769Y-107051656D01*
X121782367Y-106931343D01*
X121416521Y-106735754D01*
X121075819Y-106592095D01*
X120613960Y-106435104D01*
X120076050Y-106738242D01*
X119538141Y-107041379D01*
X120040050Y-107263347D01*
X120306906Y-107391402D01*
X120680138Y-107629772D01*
X120884103Y-107864016D01*
X120918810Y-108093736D01*
X120784269Y-108318537D01*
X120480487Y-108538020D01*
X120007473Y-108751790D01*
X119894952Y-108791116D01*
X119397094Y-108909185D01*
X118828848Y-108973237D01*
X118219931Y-108986785D01*
X117600057Y-108953344D01*
X116998943Y-108876426D01*
X116446305Y-108759544D01*
X115971858Y-108606213D01*
X115605319Y-108419945D01*
X115376403Y-108204253D01*
X115293632Y-108062741D01*
X115283077Y-107934351D01*
X115373863Y-107768958D01*
X115628774Y-107491986D01*
X115972177Y-107313945D01*
X116344070Y-107283052D01*
X116465633Y-107297547D01*
X116608941Y-107285413D01*
X116691266Y-107189216D01*
X116765773Y-106969413D01*
X116793357Y-106870777D01*
X116834741Y-106671423D01*
X116832638Y-106573750D01*
X116760239Y-106572487D01*
X116562433Y-106609990D01*
X116281993Y-106678447D01*
X115960130Y-106766095D01*
X115638056Y-106861170D01*
X115356980Y-106951906D01*
X115158113Y-107026540D01*
X115082666Y-107073307D01*
X115085676Y-107090034D01*
X115170898Y-107138000D01*
X115175090Y-107170415D01*
X115086906Y-107288592D01*
X114916898Y-107463557D01*
X114786543Y-107600903D01*
X114633852Y-107811006D01*
X114574666Y-107968611D01*
X111691047Y-107968611D01*
X111887343Y-107544104D01*
X111996276Y-107332999D01*
X112305707Y-106848889D01*
X112721919Y-106295682D01*
X113100534Y-105842203D01*
X117126510Y-105842203D01*
X117153063Y-105912476D01*
X117276605Y-105944845D01*
X117533122Y-105952667D01*
X117700926Y-105958295D01*
X117877304Y-105983834D01*
X117927850Y-106023013D01*
X117918354Y-106068590D01*
X117903188Y-106261571D01*
X117889601Y-106574944D01*
X117878792Y-106978287D01*
X117871959Y-107441180D01*
X117859544Y-108789000D01*
X118835002Y-108840590D01*
X118780485Y-107396628D01*
X118725968Y-105952667D01*
X119072376Y-105952667D01*
X119163565Y-105950826D01*
X119345580Y-105919783D01*
X119379849Y-105846834D01*
X119356616Y-105779350D01*
X119285798Y-105568122D01*
X119178749Y-105246183D01*
X119045120Y-104842573D01*
X118894559Y-104386334D01*
X118781657Y-104047146D01*
X118640598Y-103633640D01*
X118521876Y-103297351D01*
X118435419Y-103066244D01*
X118391153Y-102968285D01*
X118355341Y-103009248D01*
X118264334Y-103178031D01*
X118132340Y-103449514D01*
X117972134Y-103794875D01*
X117796492Y-104185294D01*
X117618191Y-104591948D01*
X117450006Y-104986017D01*
X117304713Y-105338680D01*
X117195089Y-105621115D01*
X117133909Y-105804500D01*
X117126510Y-105842203D01*
X113100534Y-105842203D01*
X113224706Y-105693479D01*
X113793861Y-105062382D01*
X114409178Y-104422491D01*
X115050450Y-103793906D01*
X115697473Y-103196730D01*
X116330038Y-102651061D01*
X116927940Y-102177002D01*
X117470973Y-101794653D01*
X117938931Y-101524115D01*
X118056794Y-101467649D01*
X118244276Y-101399624D01*
X118392316Y-101405738D01*
X118575953Y-101480897D01*
X118686921Y-101538428D01*
X119074715Y-101786245D01*
X119545193Y-102139739D01*
X120079536Y-102580489D01*
X120658928Y-103090073D01*
X121264551Y-103650072D01*
X121877586Y-104242065D01*
X122479217Y-104847631D01*
X123050626Y-105448349D01*
X123411100Y-105846834D01*
X123572994Y-106025800D01*
X124027506Y-106561561D01*
X124395342Y-107037212D01*
X124657685Y-107434334D01*
X124817016Y-107736506D01*
X124881814Y-107951850D01*
X124888417Y-107973795D01*
X124868949Y-108187232D01*
G37*
G36*
X127632233Y-108256197D02*
G01*
X127406442Y-108493038D01*
X127059173Y-108770827D01*
X126574774Y-109105598D01*
X126224188Y-109342208D01*
X125590083Y-109800648D01*
X124969836Y-110293957D01*
X124334212Y-110847006D01*
X123653978Y-111484661D01*
X122899900Y-112231793D01*
X122605770Y-112531142D01*
X121918766Y-113248869D01*
X121308751Y-113919095D01*
X120737528Y-114585877D01*
X120166897Y-115293270D01*
X119558660Y-116085331D01*
X119359637Y-116346833D01*
X119089987Y-116692287D01*
X118863110Y-116972541D01*
X118698298Y-117163936D01*
X118614842Y-117242813D01*
X118415815Y-117286468D01*
X118149413Y-117272916D01*
X117946984Y-117192167D01*
X117939407Y-117185607D01*
X117829492Y-117064631D01*
X117645983Y-116840609D01*
X117412571Y-116543099D01*
X117152951Y-116201656D01*
X117113601Y-116149225D01*
X116507058Y-115368577D01*
X115880777Y-114617587D01*
X115205649Y-113863677D01*
X114452567Y-113074268D01*
X113592421Y-112216784D01*
X113189955Y-111829918D01*
X112521602Y-111211372D01*
X111833557Y-110600365D01*
X111153065Y-110019959D01*
X110507373Y-109493217D01*
X109923727Y-109043202D01*
X109429373Y-108692976D01*
X109132324Y-108478495D01*
X108859156Y-108209722D01*
X108748652Y-107963716D01*
X108758937Y-107916843D01*
X111289869Y-107916843D01*
X111312113Y-108208390D01*
X111430934Y-108535000D01*
X111563665Y-108781530D01*
X111852794Y-109209660D01*
X112243911Y-109712813D01*
X112719271Y-110272927D01*
X113261130Y-110871939D01*
X113851743Y-111491787D01*
X114473367Y-112114411D01*
X115108256Y-112721746D01*
X115738668Y-113295733D01*
X116346856Y-113818308D01*
X116915078Y-114271410D01*
X117425589Y-114636977D01*
X117448692Y-114652245D01*
X117754699Y-114834804D01*
X118025444Y-114940845D01*
X118287940Y-114964421D01*
X118569203Y-114899583D01*
X118896245Y-114740384D01*
X119296081Y-114480874D01*
X119795723Y-114115107D01*
X120007135Y-113953477D01*
X120684762Y-113406711D01*
X121371757Y-112812733D01*
X122052157Y-112188249D01*
X122709999Y-111549964D01*
X123329320Y-110914583D01*
X123894156Y-110298813D01*
X124388544Y-109719358D01*
X124796523Y-109192924D01*
X125102127Y-108736217D01*
X125289395Y-108365941D01*
X125435110Y-107984392D01*
X125170147Y-107455363D01*
X124905634Y-107002533D01*
X124486766Y-106421541D01*
X123931374Y-105749569D01*
X123238286Y-104985210D01*
X122406333Y-104127054D01*
X122161429Y-103882878D01*
X121391844Y-103140108D01*
X120685005Y-102496340D01*
X120048051Y-101957140D01*
X119488118Y-101528073D01*
X119012344Y-101214706D01*
X118627864Y-101022604D01*
X118341817Y-100957333D01*
X118314062Y-100957956D01*
X117970745Y-101037442D01*
X117533560Y-101246386D01*
X117009716Y-101579425D01*
X116406423Y-102031194D01*
X115730891Y-102596327D01*
X114990329Y-103269461D01*
X114191948Y-104045230D01*
X113515151Y-104734686D01*
X112939955Y-105350100D01*
X112468220Y-105892524D01*
X112085800Y-106379016D01*
X111778551Y-106826632D01*
X111532326Y-107252431D01*
X111368660Y-107603974D01*
X111289869Y-107916843D01*
X108758937Y-107916843D01*
X108800463Y-107727593D01*
X109014238Y-107488470D01*
X109389625Y-107233460D01*
X109731215Y-107023070D01*
X110528383Y-106464633D01*
X111388714Y-105777883D01*
X112297600Y-104975444D01*
X113240433Y-104069942D01*
X114202604Y-103074000D01*
X114284816Y-102985582D01*
X114829642Y-102388009D01*
X115385093Y-101760723D01*
X115925422Y-101133936D01*
X116424885Y-100537860D01*
X116857736Y-100002708D01*
X117198228Y-99558691D01*
X117243178Y-99497750D01*
X117533266Y-99116449D01*
X117755315Y-98854682D01*
X117930427Y-98692457D01*
X118079704Y-98609782D01*
X118224249Y-98586667D01*
X118228061Y-98586669D01*
X118427085Y-98600262D01*
X118589849Y-98657065D01*
X118748094Y-98782025D01*
X118933562Y-99000085D01*
X119177995Y-99336191D01*
X119227815Y-99405854D01*
X119577552Y-99860845D01*
X120029264Y-100405523D01*
X120563270Y-101019168D01*
X121159890Y-101681060D01*
X121799442Y-102370479D01*
X122462246Y-103066706D01*
X123128621Y-103749020D01*
X123778886Y-104396703D01*
X124393359Y-104989033D01*
X124952361Y-105505291D01*
X125436209Y-105924758D01*
X125730517Y-106160905D01*
X126127680Y-106461205D01*
X126502826Y-106726953D01*
X126803186Y-106919738D01*
X127180518Y-107165165D01*
X127500085Y-107428606D01*
X127708281Y-107670252D01*
X127782666Y-107868367D01*
X127762570Y-107984392D01*
X127752198Y-108044273D01*
X127632233Y-108256197D01*
G37*
D14*
X150425000Y-114362500D02*
G75*
G03*
X150425000Y-114362500I-125000J0D01*
G01*
D12*
X138753641Y-105620000D02*
X138446359Y-105620000D01*
X138753641Y-106380000D02*
X138446359Y-106380000D01*
D13*
X138500000Y-115000000D02*
X137700000Y-115000000D01*
X138500000Y-119000000D02*
X137700000Y-119000000D01*
D12*
X135300000Y-93800000D02*
X132500000Y-93800000D01*
X135300000Y-95800000D02*
X135300000Y-93800000D01*
X132500000Y-95800000D02*
X135300000Y-95800000D01*
X132500000Y-93800000D02*
X132500000Y-95800000D01*
X136440000Y-110607836D02*
X136440000Y-110392164D01*
X137160000Y-110607836D02*
X137160000Y-110392164D01*
D15*
X112143998Y-81049735D02*
X112141268Y-81062566D01*
X112141268Y-81062566D02*
X112139396Y-81092719D01*
X112139396Y-81092719D02*
X112138326Y-81137219D01*
X112138326Y-81137219D02*
X112138003Y-81193087D01*
X112138003Y-81193087D02*
X112138372Y-81257349D01*
X112138372Y-81257349D02*
X112139378Y-81327026D01*
X112139378Y-81327026D02*
X112140965Y-81399142D01*
X112140965Y-81399142D02*
X112143078Y-81470720D01*
X112143078Y-81470720D02*
X112145662Y-81538784D01*
X112145662Y-81538784D02*
X112148662Y-81600357D01*
X112148662Y-81600357D02*
X112152022Y-81652462D01*
X112152022Y-81652462D02*
X112155687Y-81692123D01*
X112155687Y-81692123D02*
X112155960Y-81694406D01*
X112155960Y-81694406D02*
X112192068Y-81923666D01*
X112192068Y-81923666D02*
X112242817Y-82138886D01*
X112242817Y-82138886D02*
X112308200Y-82340051D01*
X112308200Y-82340051D02*
X112388208Y-82527148D01*
X112388208Y-82527148D02*
X112482835Y-82700160D01*
X112482835Y-82700160D02*
X112592072Y-82859075D01*
X112592072Y-82859075D02*
X112715912Y-83003878D01*
X112715912Y-83003878D02*
X112854347Y-83134555D01*
X112854347Y-83134555D02*
X112969960Y-83224877D01*
X112969960Y-83224877D02*
X113038138Y-83269759D01*
X113038138Y-83269759D02*
X113120028Y-83317075D01*
X113120028Y-83317075D02*
X113209750Y-83363882D01*
X113209750Y-83363882D02*
X113301422Y-83407233D01*
X113301422Y-83407233D02*
X113389162Y-83444185D01*
X113389162Y-83444185D02*
X113456156Y-83468329D01*
X113456156Y-83468329D02*
X113597572Y-83509121D01*
X113597572Y-83509121D02*
X113739160Y-83539329D01*
X113739160Y-83539329D02*
X113885048Y-83559456D01*
X113885048Y-83559456D02*
X114039366Y-83570004D01*
X114039366Y-83570004D02*
X114206244Y-83571478D01*
X114206244Y-83571478D02*
X114285583Y-83569350D01*
X114285583Y-83569350D02*
X114394783Y-83565519D01*
X114394783Y-83565519D02*
X114485899Y-83562758D01*
X114485899Y-83562758D02*
X114561141Y-83561127D01*
X114561141Y-83561127D02*
X114622719Y-83560691D01*
X114622719Y-83560691D02*
X114672844Y-83561510D01*
X114672844Y-83561510D02*
X114713727Y-83563647D01*
X114713727Y-83563647D02*
X114747577Y-83567164D01*
X114747577Y-83567164D02*
X114776605Y-83572122D01*
X114776605Y-83572122D02*
X114803023Y-83578586D01*
X114803023Y-83578586D02*
X114822409Y-83584443D01*
X114822409Y-83584443D02*
X114917999Y-83625079D01*
X114917999Y-83625079D02*
X115001730Y-83680822D01*
X115001730Y-83680822D02*
X115072040Y-83749983D01*
X115072040Y-83749983D02*
X115127363Y-83830872D01*
X115127363Y-83830872D02*
X115166137Y-83921801D01*
X115166137Y-83921801D02*
X115178530Y-83969080D01*
X115178530Y-83969080D02*
X115186429Y-84026954D01*
X115186429Y-84026954D02*
X115189240Y-84095931D01*
X115189240Y-84095931D02*
X115187033Y-84167459D01*
X115187033Y-84167459D02*
X115179879Y-84232987D01*
X115179879Y-84232987D02*
X115176191Y-84253060D01*
X115176191Y-84253060D02*
X115169731Y-84285630D01*
X115169731Y-84285630D02*
X115165887Y-84308536D01*
X115165887Y-84308536D02*
X115165451Y-84316560D01*
X115165451Y-84316560D02*
X115172886Y-84309538D01*
X115172886Y-84309538D02*
X115189406Y-84291407D01*
X115189406Y-84291407D02*
X115205141Y-84273380D01*
X115205141Y-84273380D02*
X115274813Y-84181397D01*
X115274813Y-84181397D02*
X115340461Y-84073523D01*
X115340461Y-84073523D02*
X115400059Y-83954084D01*
X115400059Y-83954084D02*
X115451581Y-83827410D01*
X115451581Y-83827410D02*
X115493002Y-83697829D01*
X115493002Y-83697829D02*
X115513443Y-83614587D01*
X115513443Y-83614587D02*
X115539010Y-83469950D01*
X115539010Y-83469950D02*
X115552001Y-83328891D01*
X115552001Y-83328891D02*
X115553213Y-83181906D01*
X115553213Y-83181906D02*
X115552208Y-83153240D01*
X115552208Y-83153240D02*
X115536120Y-82973565D01*
X115536120Y-82973565D02*
X115502825Y-82804215D01*
X115502825Y-82804215D02*
X115451879Y-82644030D01*
X115451879Y-82644030D02*
X115382840Y-82491853D01*
X115382840Y-82491853D02*
X115295265Y-82346526D01*
X115295265Y-82346526D02*
X115192028Y-82210817D01*
X115192028Y-82210817D02*
X115100101Y-82113561D01*
X115100101Y-82113561D02*
X114989410Y-82017192D01*
X114989410Y-82017192D02*
X114861511Y-81922612D01*
X114861511Y-81922612D02*
X114717962Y-81830724D01*
X114717962Y-81830724D02*
X114560317Y-81742430D01*
X114560317Y-81742430D02*
X114390134Y-81658631D01*
X114390134Y-81658631D02*
X114208968Y-81580231D01*
X114208968Y-81580231D02*
X114018377Y-81508130D01*
X114018377Y-81508130D02*
X113925000Y-81476352D01*
X113925000Y-81476352D02*
X113837973Y-81448576D01*
X113837973Y-81448576D02*
X113750480Y-81422387D01*
X113750480Y-81422387D02*
X113660004Y-81397175D01*
X113660004Y-81397175D02*
X113564028Y-81372327D01*
X113564028Y-81372327D02*
X113460033Y-81347231D01*
X113460033Y-81347231D02*
X113345501Y-81321275D01*
X113345501Y-81321275D02*
X113217914Y-81293847D01*
X113217914Y-81293847D02*
X113074754Y-81264335D01*
X113074754Y-81264335D02*
X112949640Y-81239273D01*
X112949640Y-81239273D02*
X112821727Y-81213771D01*
X112821727Y-81213771D02*
X112711729Y-81191493D01*
X112711729Y-81191493D02*
X112617581Y-81171963D01*
X112617581Y-81171963D02*
X112537216Y-81154706D01*
X112537216Y-81154706D02*
X112468570Y-81139246D01*
X112468570Y-81139246D02*
X112409577Y-81125107D01*
X112409577Y-81125107D02*
X112358171Y-81111813D01*
X112358171Y-81111813D02*
X112312288Y-81098889D01*
X112312288Y-81098889D02*
X112269861Y-81085859D01*
X112269861Y-81085859D02*
X112238051Y-81075388D01*
X112238051Y-81075388D02*
X112198643Y-81062683D01*
X112198643Y-81062683D02*
X112167037Y-81053653D01*
X112167037Y-81053653D02*
X112147720Y-81049520D01*
X112147720Y-81049520D02*
X112143998Y-81049735D01*
X112143998Y-81049735D02*
X112143998Y-81049735D01*
G36*
X112167037Y-81053653D02*
G01*
X112198643Y-81062683D01*
X112238051Y-81075388D01*
X112269861Y-81085859D01*
X112312288Y-81098889D01*
X112358171Y-81111813D01*
X112409577Y-81125107D01*
X112468570Y-81139246D01*
X112537216Y-81154706D01*
X112617581Y-81171963D01*
X112711729Y-81191493D01*
X112821727Y-81213771D01*
X112949640Y-81239273D01*
X113074754Y-81264335D01*
X113217914Y-81293847D01*
X113345501Y-81321275D01*
X113460033Y-81347231D01*
X113564028Y-81372327D01*
X113660004Y-81397175D01*
X113750480Y-81422387D01*
X113837973Y-81448576D01*
X113925000Y-81476352D01*
X114018377Y-81508130D01*
X114208968Y-81580231D01*
X114390134Y-81658631D01*
X114560317Y-81742430D01*
X114717962Y-81830724D01*
X114861511Y-81922612D01*
X114989410Y-82017192D01*
X115100101Y-82113561D01*
X115192028Y-82210817D01*
X115295265Y-82346526D01*
X115382840Y-82491853D01*
X115451879Y-82644030D01*
X115502825Y-82804215D01*
X115536120Y-82973565D01*
X115552208Y-83153240D01*
X115553213Y-83181906D01*
X115552001Y-83328891D01*
X115539010Y-83469950D01*
X115513443Y-83614587D01*
X115493002Y-83697829D01*
X115451581Y-83827410D01*
X115400059Y-83954084D01*
X115340461Y-84073523D01*
X115274813Y-84181397D01*
X115205141Y-84273380D01*
X115189406Y-84291407D01*
X115172886Y-84309538D01*
X115165451Y-84316560D01*
X115165887Y-84308536D01*
X115169731Y-84285630D01*
X115176191Y-84253060D01*
X115179879Y-84232987D01*
X115187033Y-84167459D01*
X115189240Y-84095931D01*
X115186429Y-84026954D01*
X115178530Y-83969080D01*
X115166137Y-83921801D01*
X115127363Y-83830872D01*
X115072040Y-83749983D01*
X115001730Y-83680822D01*
X114917999Y-83625079D01*
X114822409Y-83584443D01*
X114803023Y-83578586D01*
X114776605Y-83572122D01*
X114747577Y-83567164D01*
X114713727Y-83563647D01*
X114672844Y-83561510D01*
X114622719Y-83560691D01*
X114561141Y-83561127D01*
X114485899Y-83562758D01*
X114394783Y-83565519D01*
X114285583Y-83569350D01*
X114206244Y-83571478D01*
X114039366Y-83570004D01*
X113885048Y-83559456D01*
X113739160Y-83539329D01*
X113597572Y-83509121D01*
X113456156Y-83468329D01*
X113389162Y-83444185D01*
X113301422Y-83407233D01*
X113209750Y-83363882D01*
X113120028Y-83317075D01*
X113038138Y-83269759D01*
X112969960Y-83224877D01*
X112854347Y-83134555D01*
X112715912Y-83003878D01*
X112592072Y-82859075D01*
X112482835Y-82700160D01*
X112388208Y-82527148D01*
X112308200Y-82340051D01*
X112242817Y-82138886D01*
X112192068Y-81923666D01*
X112155960Y-81694406D01*
X112155687Y-81692123D01*
X112152022Y-81652462D01*
X112148662Y-81600357D01*
X112145662Y-81538784D01*
X112143078Y-81470720D01*
X112140965Y-81399142D01*
X112139378Y-81327026D01*
X112138372Y-81257349D01*
X112138003Y-81193087D01*
X112138326Y-81137219D01*
X112139396Y-81092719D01*
X112141268Y-81062566D01*
X112143998Y-81049735D01*
X112147720Y-81049520D01*
X112167037Y-81053653D01*
G37*
X112167037Y-81053653D02*
X112198643Y-81062683D01*
X112238051Y-81075388D01*
X112269861Y-81085859D01*
X112312288Y-81098889D01*
X112358171Y-81111813D01*
X112409577Y-81125107D01*
X112468570Y-81139246D01*
X112537216Y-81154706D01*
X112617581Y-81171963D01*
X112711729Y-81191493D01*
X112821727Y-81213771D01*
X112949640Y-81239273D01*
X113074754Y-81264335D01*
X113217914Y-81293847D01*
X113345501Y-81321275D01*
X113460033Y-81347231D01*
X113564028Y-81372327D01*
X113660004Y-81397175D01*
X113750480Y-81422387D01*
X113837973Y-81448576D01*
X113925000Y-81476352D01*
X114018377Y-81508130D01*
X114208968Y-81580231D01*
X114390134Y-81658631D01*
X114560317Y-81742430D01*
X114717962Y-81830724D01*
X114861511Y-81922612D01*
X114989410Y-82017192D01*
X115100101Y-82113561D01*
X115192028Y-82210817D01*
X115295265Y-82346526D01*
X115382840Y-82491853D01*
X115451879Y-82644030D01*
X115502825Y-82804215D01*
X115536120Y-82973565D01*
X115552208Y-83153240D01*
X115553213Y-83181906D01*
X115552001Y-83328891D01*
X115539010Y-83469950D01*
X115513443Y-83614587D01*
X115493002Y-83697829D01*
X115451581Y-83827410D01*
X115400059Y-83954084D01*
X115340461Y-84073523D01*
X115274813Y-84181397D01*
X115205141Y-84273380D01*
X115189406Y-84291407D01*
X115172886Y-84309538D01*
X115165451Y-84316560D01*
X115165887Y-84308536D01*
X115169731Y-84285630D01*
X115176191Y-84253060D01*
X115179879Y-84232987D01*
X115187033Y-84167459D01*
X115189240Y-84095931D01*
X115186429Y-84026954D01*
X115178530Y-83969080D01*
X115166137Y-83921801D01*
X115127363Y-83830872D01*
X115072040Y-83749983D01*
X115001730Y-83680822D01*
X114917999Y-83625079D01*
X114822409Y-83584443D01*
X114803023Y-83578586D01*
X114776605Y-83572122D01*
X114747577Y-83567164D01*
X114713727Y-83563647D01*
X114672844Y-83561510D01*
X114622719Y-83560691D01*
X114561141Y-83561127D01*
X114485899Y-83562758D01*
X114394783Y-83565519D01*
X114285583Y-83569350D01*
X114206244Y-83571478D01*
X114039366Y-83570004D01*
X113885048Y-83559456D01*
X113739160Y-83539329D01*
X113597572Y-83509121D01*
X113456156Y-83468329D01*
X113389162Y-83444185D01*
X113301422Y-83407233D01*
X113209750Y-83363882D01*
X113120028Y-83317075D01*
X113038138Y-83269759D01*
X112969960Y-83224877D01*
X112854347Y-83134555D01*
X112715912Y-83003878D01*
X112592072Y-82859075D01*
X112482835Y-82700160D01*
X112388208Y-82527148D01*
X112308200Y-82340051D01*
X112242817Y-82138886D01*
X112192068Y-81923666D01*
X112155960Y-81694406D01*
X112155687Y-81692123D01*
X112152022Y-81652462D01*
X112148662Y-81600357D01*
X112145662Y-81538784D01*
X112143078Y-81470720D01*
X112140965Y-81399142D01*
X112139378Y-81327026D01*
X112138372Y-81257349D01*
X112138003Y-81193087D01*
X112138326Y-81137219D01*
X112139396Y-81092719D01*
X112141268Y-81062566D01*
X112143998Y-81049735D01*
X112147720Y-81049520D01*
X112167037Y-81053653D01*
X122045054Y-81071533D02*
X122001054Y-81085830D01*
X122001054Y-81085830D02*
X121951799Y-81100306D01*
X121951799Y-81100306D02*
X121895450Y-81115386D01*
X121895450Y-81115386D02*
X121830165Y-81131495D01*
X121830165Y-81131495D02*
X121754104Y-81149058D01*
X121754104Y-81149058D02*
X121665427Y-81168499D01*
X121665427Y-81168499D02*
X121562294Y-81190244D01*
X121562294Y-81190244D02*
X121442863Y-81214716D01*
X121442863Y-81214716D02*
X121305296Y-81242342D01*
X121305296Y-81242342D02*
X121303384Y-81242723D01*
X121303384Y-81242723D02*
X121204319Y-81262704D01*
X121204319Y-81262704D02*
X121104343Y-81283318D01*
X121104343Y-81283318D02*
X121006789Y-81303847D01*
X121006789Y-81303847D02*
X120914988Y-81323573D01*
X120914988Y-81323573D02*
X120832276Y-81341777D01*
X120832276Y-81341777D02*
X120761983Y-81357741D01*
X120761983Y-81357741D02*
X120707443Y-81370747D01*
X120707443Y-81370747D02*
X120696287Y-81373547D01*
X120696287Y-81373547D02*
X120425946Y-81449835D01*
X120425946Y-81449835D02*
X120170523Y-81537159D01*
X120170523Y-81537159D02*
X119930636Y-81635253D01*
X119930636Y-81635253D02*
X119706906Y-81743846D01*
X119706906Y-81743846D02*
X119499951Y-81862671D01*
X119499951Y-81862671D02*
X119370760Y-81948030D01*
X119370760Y-81948030D02*
X119228861Y-82058648D01*
X119228861Y-82058648D02*
X119104109Y-82180100D01*
X119104109Y-82180100D02*
X118996332Y-82312643D01*
X118996332Y-82312643D02*
X118905362Y-82456533D01*
X118905362Y-82456533D02*
X118831029Y-82612029D01*
X118831029Y-82612029D02*
X118773161Y-82779385D01*
X118773161Y-82779385D02*
X118744403Y-82894160D01*
X118744403Y-82894160D02*
X118736471Y-82933366D01*
X118736471Y-82933366D02*
X118730543Y-82970124D01*
X118730543Y-82970124D02*
X118726332Y-83008483D01*
X118726332Y-83008483D02*
X118723550Y-83052493D01*
X118723550Y-83052493D02*
X118721909Y-83106201D01*
X118721909Y-83106201D02*
X118721120Y-83173657D01*
X118721120Y-83173657D02*
X118720933Y-83224360D01*
X118720933Y-83224360D02*
X118721049Y-83302555D01*
X118721049Y-83302555D02*
X118721909Y-83364626D01*
X118721909Y-83364626D02*
X118723797Y-83414766D01*
X118723797Y-83414766D02*
X118726997Y-83457164D01*
X118726997Y-83457164D02*
X118731792Y-83496013D01*
X118731792Y-83496013D02*
X118738466Y-83535504D01*
X118738466Y-83535504D02*
X118743850Y-83563031D01*
X118743850Y-83563031D02*
X118783900Y-83724629D01*
X118783900Y-83724629D02*
X118836548Y-83878466D01*
X118836548Y-83878466D02*
X118900569Y-84021833D01*
X118900569Y-84021833D02*
X118974740Y-84152019D01*
X118974740Y-84152019D02*
X119057836Y-84266315D01*
X119057836Y-84266315D02*
X119065871Y-84275920D01*
X119065871Y-84275920D02*
X119087184Y-84300649D01*
X119087184Y-84300649D02*
X119097995Y-84310947D01*
X119097995Y-84310947D02*
X119100791Y-84308008D01*
X119100791Y-84308008D02*
X119098063Y-84293025D01*
X119098063Y-84293025D02*
X119097639Y-84291160D01*
X119097639Y-84291160D02*
X119091706Y-84253336D01*
X119091706Y-84253336D02*
X119087322Y-84202291D01*
X119087322Y-84202291D02*
X119084621Y-84144060D01*
X119084621Y-84144060D02*
X119083737Y-84084681D01*
X119083737Y-84084681D02*
X119084802Y-84030191D01*
X119084802Y-84030191D02*
X119087951Y-83986626D01*
X119087951Y-83986626D02*
X119090537Y-83969903D01*
X119090537Y-83969903D02*
X119120144Y-83874597D01*
X119120144Y-83874597D02*
X119166250Y-83789616D01*
X119166250Y-83789616D02*
X119227233Y-83716091D01*
X119227233Y-83716091D02*
X119301473Y-83655152D01*
X119301473Y-83655152D02*
X119387348Y-83607930D01*
X119387348Y-83607930D02*
X119483236Y-83575553D01*
X119483236Y-83575553D02*
X119587516Y-83559153D01*
X119587516Y-83559153D02*
X119680640Y-83558564D01*
X119680640Y-83558564D02*
X119791708Y-83564398D01*
X119791708Y-83564398D02*
X119902385Y-83568680D01*
X119902385Y-83568680D02*
X120009383Y-83571378D01*
X120009383Y-83571378D02*
X120109411Y-83572455D01*
X120109411Y-83572455D02*
X120199179Y-83571879D01*
X120199179Y-83571879D02*
X120275398Y-83569614D01*
X120275398Y-83569614D02*
X120334777Y-83565625D01*
X120334777Y-83565625D02*
X120336495Y-83565456D01*
X120336495Y-83565456D02*
X120544222Y-83535524D01*
X120544222Y-83535524D02*
X120740908Y-83488623D01*
X120740908Y-83488623D02*
X120926198Y-83425064D01*
X120926198Y-83425064D02*
X121099736Y-83345163D01*
X121099736Y-83345163D02*
X121261166Y-83249233D01*
X121261166Y-83249233D02*
X121410131Y-83137588D01*
X121410131Y-83137588D02*
X121546277Y-83010541D01*
X121546277Y-83010541D02*
X121669246Y-82868408D01*
X121669246Y-82868408D02*
X121778682Y-82711500D01*
X121778682Y-82711500D02*
X121874231Y-82540133D01*
X121874231Y-82540133D02*
X121955535Y-82354621D01*
X121955535Y-82354621D02*
X122022239Y-82155276D01*
X122022239Y-82155276D02*
X122048675Y-82055960D01*
X122048675Y-82055960D02*
X122070900Y-81959705D01*
X122070900Y-81959705D02*
X122088567Y-81869058D01*
X122088567Y-81869058D02*
X122102210Y-81779435D01*
X122102210Y-81779435D02*
X122112364Y-81686252D01*
X122112364Y-81686252D02*
X122119561Y-81584925D01*
X122119561Y-81584925D02*
X122124336Y-81470870D01*
X122124336Y-81470870D02*
X122126377Y-81388599D01*
X122126377Y-81388599D02*
X122127564Y-81314443D01*
X122127564Y-81314443D02*
X122128159Y-81245309D01*
X122128159Y-81245309D02*
X122128175Y-81184307D01*
X122128175Y-81184307D02*
X122127627Y-81134549D01*
X122127627Y-81134549D02*
X122126527Y-81099145D01*
X122126527Y-81099145D02*
X122125049Y-81081975D01*
X122125049Y-81081975D02*
X122118388Y-81046472D01*
X122118388Y-81046472D02*
X122045054Y-81071533D01*
X122045054Y-81071533D02*
X122045054Y-81071533D01*
G36*
X122125049Y-81081975D02*
G01*
X122126527Y-81099145D01*
X122127627Y-81134549D01*
X122128175Y-81184307D01*
X122128159Y-81245309D01*
X122127564Y-81314443D01*
X122126377Y-81388599D01*
X122124336Y-81470870D01*
X122119561Y-81584925D01*
X122112364Y-81686252D01*
X122102210Y-81779435D01*
X122088567Y-81869058D01*
X122070900Y-81959705D01*
X122048675Y-82055960D01*
X122022239Y-82155276D01*
X121955535Y-82354621D01*
X121874231Y-82540133D01*
X121778682Y-82711500D01*
X121669246Y-82868408D01*
X121546277Y-83010541D01*
X121410131Y-83137588D01*
X121261166Y-83249233D01*
X121099736Y-83345163D01*
X120926198Y-83425064D01*
X120740908Y-83488623D01*
X120544222Y-83535524D01*
X120336495Y-83565456D01*
X120334777Y-83565625D01*
X120275398Y-83569614D01*
X120199179Y-83571879D01*
X120109411Y-83572455D01*
X120009383Y-83571378D01*
X119902385Y-83568680D01*
X119791708Y-83564398D01*
X119680640Y-83558564D01*
X119587516Y-83559153D01*
X119483236Y-83575553D01*
X119387348Y-83607930D01*
X119301473Y-83655152D01*
X119227233Y-83716091D01*
X119166250Y-83789616D01*
X119120144Y-83874597D01*
X119090537Y-83969903D01*
X119087951Y-83986626D01*
X119084802Y-84030191D01*
X119083737Y-84084681D01*
X119084621Y-84144060D01*
X119087322Y-84202291D01*
X119091706Y-84253336D01*
X119097639Y-84291160D01*
X119098063Y-84293025D01*
X119100791Y-84308008D01*
X119097995Y-84310947D01*
X119087184Y-84300649D01*
X119065871Y-84275920D01*
X119057836Y-84266315D01*
X118974740Y-84152019D01*
X118900569Y-84021833D01*
X118836548Y-83878466D01*
X118783900Y-83724629D01*
X118743850Y-83563031D01*
X118738466Y-83535504D01*
X118731792Y-83496013D01*
X118726997Y-83457164D01*
X118723797Y-83414766D01*
X118721909Y-83364626D01*
X118721049Y-83302555D01*
X118720933Y-83224360D01*
X118721120Y-83173657D01*
X118721909Y-83106201D01*
X118723550Y-83052493D01*
X118726332Y-83008483D01*
X118730543Y-82970124D01*
X118736471Y-82933366D01*
X118744403Y-82894160D01*
X118773161Y-82779385D01*
X118831029Y-82612029D01*
X118905362Y-82456533D01*
X118996332Y-82312643D01*
X119104109Y-82180100D01*
X119228861Y-82058648D01*
X119370760Y-81948030D01*
X119499951Y-81862671D01*
X119706906Y-81743846D01*
X119930636Y-81635253D01*
X120170523Y-81537159D01*
X120425946Y-81449835D01*
X120696287Y-81373547D01*
X120707443Y-81370747D01*
X120761983Y-81357741D01*
X120832276Y-81341777D01*
X120914988Y-81323573D01*
X121006789Y-81303847D01*
X121104343Y-81283318D01*
X121204319Y-81262704D01*
X121303384Y-81242723D01*
X121305296Y-81242342D01*
X121442863Y-81214716D01*
X121562294Y-81190244D01*
X121665427Y-81168499D01*
X121754104Y-81149058D01*
X121830165Y-81131495D01*
X121895450Y-81115386D01*
X121951799Y-81100306D01*
X122001054Y-81085830D01*
X122045054Y-81071533D01*
X122118388Y-81046472D01*
X122125049Y-81081975D01*
G37*
X122125049Y-81081975D02*
X122126527Y-81099145D01*
X122127627Y-81134549D01*
X122128175Y-81184307D01*
X122128159Y-81245309D01*
X122127564Y-81314443D01*
X122126377Y-81388599D01*
X122124336Y-81470870D01*
X122119561Y-81584925D01*
X122112364Y-81686252D01*
X122102210Y-81779435D01*
X122088567Y-81869058D01*
X122070900Y-81959705D01*
X122048675Y-82055960D01*
X122022239Y-82155276D01*
X121955535Y-82354621D01*
X121874231Y-82540133D01*
X121778682Y-82711500D01*
X121669246Y-82868408D01*
X121546277Y-83010541D01*
X121410131Y-83137588D01*
X121261166Y-83249233D01*
X121099736Y-83345163D01*
X120926198Y-83425064D01*
X120740908Y-83488623D01*
X120544222Y-83535524D01*
X120336495Y-83565456D01*
X120334777Y-83565625D01*
X120275398Y-83569614D01*
X120199179Y-83571879D01*
X120109411Y-83572455D01*
X120009383Y-83571378D01*
X119902385Y-83568680D01*
X119791708Y-83564398D01*
X119680640Y-83558564D01*
X119587516Y-83559153D01*
X119483236Y-83575553D01*
X119387348Y-83607930D01*
X119301473Y-83655152D01*
X119227233Y-83716091D01*
X119166250Y-83789616D01*
X119120144Y-83874597D01*
X119090537Y-83969903D01*
X119087951Y-83986626D01*
X119084802Y-84030191D01*
X119083737Y-84084681D01*
X119084621Y-84144060D01*
X119087322Y-84202291D01*
X119091706Y-84253336D01*
X119097639Y-84291160D01*
X119098063Y-84293025D01*
X119100791Y-84308008D01*
X119097995Y-84310947D01*
X119087184Y-84300649D01*
X119065871Y-84275920D01*
X119057836Y-84266315D01*
X118974740Y-84152019D01*
X118900569Y-84021833D01*
X118836548Y-83878466D01*
X118783900Y-83724629D01*
X118743850Y-83563031D01*
X118738466Y-83535504D01*
X118731792Y-83496013D01*
X118726997Y-83457164D01*
X118723797Y-83414766D01*
X118721909Y-83364626D01*
X118721049Y-83302555D01*
X118720933Y-83224360D01*
X118721120Y-83173657D01*
X118721909Y-83106201D01*
X118723550Y-83052493D01*
X118726332Y-83008483D01*
X118730543Y-82970124D01*
X118736471Y-82933366D01*
X118744403Y-82894160D01*
X118773161Y-82779385D01*
X118831029Y-82612029D01*
X118905362Y-82456533D01*
X118996332Y-82312643D01*
X119104109Y-82180100D01*
X119228861Y-82058648D01*
X119370760Y-81948030D01*
X119499951Y-81862671D01*
X119706906Y-81743846D01*
X119930636Y-81635253D01*
X120170523Y-81537159D01*
X120425946Y-81449835D01*
X120696287Y-81373547D01*
X120707443Y-81370747D01*
X120761983Y-81357741D01*
X120832276Y-81341777D01*
X120914988Y-81323573D01*
X121006789Y-81303847D01*
X121104343Y-81283318D01*
X121204319Y-81262704D01*
X121303384Y-81242723D01*
X121305296Y-81242342D01*
X121442863Y-81214716D01*
X121562294Y-81190244D01*
X121665427Y-81168499D01*
X121754104Y-81149058D01*
X121830165Y-81131495D01*
X121895450Y-81115386D01*
X121951799Y-81100306D01*
X122001054Y-81085830D01*
X122045054Y-81071533D01*
X122118388Y-81046472D01*
X122125049Y-81081975D01*
X116748527Y-75095717D02*
X116405851Y-75127368D01*
X116405851Y-75127368D02*
X116287200Y-75142849D01*
X116287200Y-75142849D02*
X115976815Y-75195440D01*
X115976815Y-75195440D02*
X115671279Y-75265614D01*
X115671279Y-75265614D02*
X115369256Y-75353830D01*
X115369256Y-75353830D02*
X115069407Y-75460546D01*
X115069407Y-75460546D02*
X114770397Y-75586221D01*
X114770397Y-75586221D02*
X114470887Y-75731313D01*
X114470887Y-75731313D02*
X114291934Y-75827021D01*
X114291934Y-75827021D02*
X114238588Y-75856678D01*
X114238588Y-75856678D02*
X114186791Y-75885797D01*
X114186791Y-75885797D02*
X114134502Y-75915580D01*
X114134502Y-75915580D02*
X114079676Y-75947231D01*
X114079676Y-75947231D02*
X114020271Y-75981951D01*
X114020271Y-75981951D02*
X113954244Y-76020943D01*
X113954244Y-76020943D02*
X113879550Y-76065408D01*
X113879550Y-76065408D02*
X113794148Y-76116549D01*
X113794148Y-76116549D02*
X113695993Y-76175568D01*
X113695993Y-76175568D02*
X113583043Y-76243668D01*
X113583043Y-76243668D02*
X113552393Y-76262168D01*
X113552393Y-76262168D02*
X113427555Y-76336920D01*
X113427555Y-76336920D02*
X113317199Y-76401542D01*
X113317199Y-76401542D02*
X113218943Y-76457240D01*
X113218943Y-76457240D02*
X113130407Y-76505221D01*
X113130407Y-76505221D02*
X113049208Y-76546691D01*
X113049208Y-76546691D02*
X112972965Y-76582856D01*
X112972965Y-76582856D02*
X112899296Y-76614923D01*
X112899296Y-76614923D02*
X112825820Y-76644098D01*
X112825820Y-76644098D02*
X112750156Y-76671587D01*
X112750156Y-76671587D02*
X112731200Y-76678138D01*
X112731200Y-76678138D02*
X112643657Y-76705463D01*
X112643657Y-76705463D02*
X112543393Y-76732329D01*
X112543393Y-76732329D02*
X112437958Y-76756905D01*
X112437958Y-76756905D02*
X112334904Y-76777358D01*
X112334904Y-76777358D02*
X112292259Y-76784580D01*
X112292259Y-76784580D02*
X112227915Y-76792314D01*
X112227915Y-76792314D02*
X112147815Y-76798032D01*
X112147815Y-76798032D02*
X112056425Y-76801733D01*
X112056425Y-76801733D02*
X111958207Y-76803415D01*
X111958207Y-76803415D02*
X111857628Y-76803078D01*
X111857628Y-76803078D02*
X111759150Y-76800720D01*
X111759150Y-76800720D02*
X111667239Y-76796340D01*
X111667239Y-76796340D02*
X111586359Y-76789936D01*
X111586359Y-76789936D02*
X111542480Y-76784780D01*
X111542480Y-76784780D02*
X111398483Y-76762788D01*
X111398483Y-76762788D02*
X111252692Y-76736162D01*
X111252692Y-76736162D02*
X111102596Y-76704276D01*
X111102596Y-76704276D02*
X110945683Y-76666508D01*
X110945683Y-76666508D02*
X110779444Y-76622232D01*
X110779444Y-76622232D02*
X110601367Y-76570826D01*
X110601367Y-76570826D02*
X110408940Y-76511664D01*
X110408940Y-76511664D02*
X110287720Y-76472887D01*
X110287720Y-76472887D02*
X110107557Y-76420236D01*
X110107557Y-76420236D02*
X109940117Y-76383201D01*
X109940117Y-76383201D02*
X109785123Y-76361786D01*
X109785123Y-76361786D02*
X109642295Y-76355991D01*
X109642295Y-76355991D02*
X109511353Y-76365821D01*
X109511353Y-76365821D02*
X109392017Y-76391276D01*
X109392017Y-76391276D02*
X109284009Y-76432360D01*
X109284009Y-76432360D02*
X109196576Y-76482483D01*
X109196576Y-76482483D02*
X109115805Y-76549433D01*
X109115805Y-76549433D02*
X109048942Y-76630991D01*
X109048942Y-76630991D02*
X108996044Y-76726899D01*
X108996044Y-76726899D02*
X108957164Y-76836899D01*
X108957164Y-76836899D02*
X108932358Y-76960734D01*
X108932358Y-76960734D02*
X108921681Y-77098146D01*
X108921681Y-77098146D02*
X108925187Y-77248877D01*
X108925187Y-77248877D02*
X108942932Y-77412670D01*
X108942932Y-77412670D02*
X108967849Y-77555080D01*
X108967849Y-77555080D02*
X108992794Y-77669616D01*
X108992794Y-77669616D02*
X109021466Y-77783798D01*
X109021466Y-77783798D02*
X109054646Y-77899815D01*
X109054646Y-77899815D02*
X109093111Y-78019859D01*
X109093111Y-78019859D02*
X109137642Y-78146121D01*
X109137642Y-78146121D02*
X109189018Y-78280791D01*
X109189018Y-78280791D02*
X109248019Y-78426059D01*
X109248019Y-78426059D02*
X109315425Y-78584117D01*
X109315425Y-78584117D02*
X109392013Y-78757155D01*
X109392013Y-78757155D02*
X109408884Y-78794600D01*
X109408884Y-78794600D02*
X109480624Y-78954235D01*
X109480624Y-78954235D02*
X109544064Y-79097487D01*
X109544064Y-79097487D02*
X109599840Y-79226226D01*
X109599840Y-79226226D02*
X109648586Y-79342318D01*
X109648586Y-79342318D02*
X109690936Y-79447633D01*
X109690936Y-79447633D02*
X109727525Y-79544038D01*
X109727525Y-79544038D02*
X109758987Y-79633402D01*
X109758987Y-79633402D02*
X109785957Y-79717593D01*
X109785957Y-79717593D02*
X109809068Y-79798479D01*
X109809068Y-79798479D02*
X109828956Y-79877930D01*
X109828956Y-79877930D02*
X109846255Y-79957812D01*
X109846255Y-79957812D02*
X109861599Y-80039995D01*
X109861599Y-80039995D02*
X109875622Y-80126347D01*
X109875622Y-80126347D02*
X109886532Y-80201226D01*
X109886532Y-80201226D02*
X109898649Y-80294117D01*
X109898649Y-80294117D02*
X109908321Y-80383522D01*
X109908321Y-80383522D02*
X109915707Y-80472883D01*
X109915707Y-80472883D02*
X109920962Y-80565645D01*
X109920962Y-80565645D02*
X109924245Y-80665249D01*
X109924245Y-80665249D02*
X109925711Y-80775140D01*
X109925711Y-80775140D02*
X109925519Y-80898760D01*
X109925519Y-80898760D02*
X109924054Y-81024720D01*
X109924054Y-81024720D02*
X109922497Y-81113452D01*
X109922497Y-81113452D02*
X109920526Y-81197765D01*
X109920526Y-81197765D02*
X109918007Y-81279795D01*
X109918007Y-81279795D02*
X109914808Y-81361678D01*
X109914808Y-81361678D02*
X109910796Y-81445547D01*
X109910796Y-81445547D02*
X109905836Y-81533539D01*
X109905836Y-81533539D02*
X109899797Y-81627790D01*
X109899797Y-81627790D02*
X109892543Y-81730434D01*
X109892543Y-81730434D02*
X109883944Y-81843606D01*
X109883944Y-81843606D02*
X109873864Y-81969443D01*
X109873864Y-81969443D02*
X109862171Y-82110079D01*
X109862171Y-82110079D02*
X109848732Y-82267650D01*
X109848732Y-82267650D02*
X109840682Y-82360760D01*
X109840682Y-82360760D02*
X109829056Y-82495363D01*
X109829056Y-82495363D02*
X109819116Y-82612427D01*
X109819116Y-82612427D02*
X109810709Y-82714649D01*
X109810709Y-82714649D02*
X109803681Y-82804727D01*
X109803681Y-82804727D02*
X109797879Y-82885358D01*
X109797879Y-82885358D02*
X109793148Y-82959240D01*
X109793148Y-82959240D02*
X109789334Y-83029070D01*
X109789334Y-83029070D02*
X109786285Y-83097545D01*
X109786285Y-83097545D02*
X109783847Y-83167363D01*
X109783847Y-83167363D02*
X109781865Y-83241222D01*
X109781865Y-83241222D02*
X109780187Y-83321818D01*
X109780187Y-83321818D02*
X109778657Y-83411850D01*
X109778657Y-83411850D02*
X109777873Y-83463120D01*
X109777873Y-83463120D02*
X109776334Y-83699965D01*
X109776334Y-83699965D02*
X109779227Y-83921555D01*
X109779227Y-83921555D02*
X109786789Y-84132513D01*
X109786789Y-84132513D02*
X109799257Y-84337465D01*
X109799257Y-84337465D02*
X109816868Y-84541037D01*
X109816868Y-84541037D02*
X109839858Y-84747855D01*
X109839858Y-84747855D02*
X109846288Y-84799160D01*
X109846288Y-84799160D02*
X109904192Y-85179655D01*
X109904192Y-85179655D02*
X109979083Y-85549004D01*
X109979083Y-85549004D02*
X110070925Y-85907157D01*
X110070925Y-85907157D02*
X110179682Y-86254064D01*
X110179682Y-86254064D02*
X110305320Y-86589676D01*
X110305320Y-86589676D02*
X110447802Y-86913943D01*
X110447802Y-86913943D02*
X110607093Y-87226816D01*
X110607093Y-87226816D02*
X110783158Y-87528245D01*
X110783158Y-87528245D02*
X110975960Y-87818179D01*
X110975960Y-87818179D02*
X111185464Y-88096570D01*
X111185464Y-88096570D02*
X111411634Y-88363369D01*
X111411634Y-88363369D02*
X111654435Y-88618524D01*
X111654435Y-88618524D02*
X111913832Y-88861987D01*
X111913832Y-88861987D02*
X112189788Y-89093708D01*
X112189788Y-89093708D02*
X112482268Y-89313637D01*
X112482268Y-89313637D02*
X112791236Y-89521726D01*
X112791236Y-89521726D02*
X113116657Y-89717923D01*
X113116657Y-89717923D02*
X113458496Y-89902179D01*
X113458496Y-89902179D02*
X113534316Y-89940322D01*
X113534316Y-89940322D02*
X113651631Y-89998615D01*
X113651631Y-89998615D02*
X113990928Y-90486863D01*
X113990928Y-90486863D02*
X114119925Y-90670835D01*
X114119925Y-90670835D02*
X114240068Y-90838613D01*
X114240068Y-90838613D02*
X114352538Y-90991671D01*
X114352538Y-90991671D02*
X114458513Y-91131486D01*
X114458513Y-91131486D02*
X114559173Y-91259532D01*
X114559173Y-91259532D02*
X114655699Y-91377286D01*
X114655699Y-91377286D02*
X114749269Y-91486223D01*
X114749269Y-91486223D02*
X114841063Y-91587817D01*
X114841063Y-91587817D02*
X114932260Y-91683546D01*
X114932260Y-91683546D02*
X115008649Y-91759898D01*
X115008649Y-91759898D02*
X115210008Y-91945470D01*
X115210008Y-91945470D02*
X115414021Y-92110960D01*
X115414021Y-92110960D02*
X115620850Y-92256450D01*
X115620850Y-92256450D02*
X115830654Y-92382024D01*
X115830654Y-92382024D02*
X116043594Y-92487765D01*
X116043594Y-92487765D02*
X116259831Y-92573757D01*
X116259831Y-92573757D02*
X116479524Y-92640083D01*
X116479524Y-92640083D02*
X116702834Y-92686827D01*
X116702834Y-92686827D02*
X116823638Y-92703799D01*
X116823638Y-92703799D02*
X116871248Y-92708066D01*
X116871248Y-92708066D02*
X116932658Y-92711637D01*
X116932658Y-92711637D02*
X117003521Y-92714447D01*
X117003521Y-92714447D02*
X117079492Y-92716429D01*
X117079492Y-92716429D02*
X117156224Y-92717519D01*
X117156224Y-92717519D02*
X117229371Y-92717650D01*
X117229371Y-92717650D02*
X117294588Y-92716756D01*
X117294588Y-92716756D02*
X117347528Y-92714773D01*
X117347528Y-92714773D02*
X117379400Y-92712207D01*
X117379400Y-92712207D02*
X117569395Y-92685197D01*
X117569395Y-92685197D02*
X117744500Y-92650644D01*
X117744500Y-92650644D02*
X117909165Y-92607238D01*
X117909165Y-92607238D02*
X118067839Y-92553671D01*
X118067839Y-92553671D02*
X118224974Y-92488633D01*
X118224974Y-92488633D02*
X118359840Y-92423768D01*
X118359840Y-92423768D02*
X118538606Y-92325097D01*
X118538606Y-92325097D02*
X118714553Y-92212429D01*
X118714553Y-92212429D02*
X118888582Y-92084959D01*
X118888582Y-92084959D02*
X119061594Y-91941880D01*
X119061594Y-91941880D02*
X119234490Y-91782389D01*
X119234490Y-91782389D02*
X119408171Y-91605680D01*
X119408171Y-91605680D02*
X119583538Y-91410948D01*
X119583538Y-91410948D02*
X119761492Y-91197388D01*
X119761492Y-91197388D02*
X119833040Y-91107225D01*
X119833040Y-91107225D02*
X119863470Y-91067375D01*
X119863470Y-91067375D02*
X119903789Y-91013028D01*
X119903789Y-91013028D02*
X119952382Y-90946438D01*
X119952382Y-90946438D02*
X120007634Y-90869857D01*
X120007634Y-90869857D02*
X120067930Y-90785540D01*
X120067930Y-90785540D02*
X120131654Y-90695738D01*
X120131654Y-90695738D02*
X120197192Y-90602705D01*
X120197192Y-90602705D02*
X120262927Y-90508694D01*
X120262927Y-90508694D02*
X120288911Y-90471326D01*
X120288911Y-90471326D02*
X120428129Y-90270778D01*
X120428129Y-90270778D02*
X119056084Y-90270778D01*
X119056084Y-90270778D02*
X119052089Y-90282050D01*
X119052089Y-90282050D02*
X119036248Y-90306715D01*
X119036248Y-90306715D02*
X119010079Y-90342856D01*
X119010079Y-90342856D02*
X118975101Y-90388561D01*
X118975101Y-90388561D02*
X118932832Y-90441912D01*
X118932832Y-90441912D02*
X118884791Y-90500997D01*
X118884791Y-90500997D02*
X118832494Y-90563900D01*
X118832494Y-90563900D02*
X118777462Y-90628706D01*
X118777462Y-90628706D02*
X118721212Y-90693500D01*
X118721212Y-90693500D02*
X118718100Y-90697040D01*
X118718100Y-90697040D02*
X118558137Y-90870292D01*
X118558137Y-90870292D02*
X118400176Y-91023854D01*
X118400176Y-91023854D02*
X118243523Y-91158173D01*
X118243523Y-91158173D02*
X118087482Y-91273700D01*
X118087482Y-91273700D02*
X117931359Y-91370883D01*
X117931359Y-91370883D02*
X117774458Y-91450171D01*
X117774458Y-91450171D02*
X117616085Y-91512013D01*
X117616085Y-91512013D02*
X117455545Y-91556858D01*
X117455545Y-91556858D02*
X117358070Y-91575764D01*
X117358070Y-91575764D02*
X117273142Y-91585219D01*
X117273142Y-91585219D02*
X117175410Y-91588874D01*
X117175410Y-91588874D02*
X117071474Y-91586971D01*
X117071474Y-91586971D02*
X116967931Y-91579749D01*
X116967931Y-91579749D02*
X116871380Y-91567447D01*
X116871380Y-91567447D02*
X116811220Y-91555882D01*
X116811220Y-91555882D02*
X116753738Y-91541806D01*
X116753738Y-91541806D02*
X116693773Y-91525442D01*
X116693773Y-91525442D02*
X116639513Y-91509106D01*
X116639513Y-91509106D02*
X116608020Y-91498458D01*
X116608020Y-91498458D02*
X116481514Y-91445624D01*
X116481514Y-91445624D02*
X116349631Y-91378031D01*
X116349631Y-91378031D02*
X116217196Y-91298494D01*
X116217196Y-91298494D02*
X116089037Y-91209826D01*
X116089037Y-91209826D02*
X116016177Y-91153393D01*
X116016177Y-91153393D02*
X115969297Y-91113472D01*
X115969297Y-91113472D02*
X115912102Y-91061628D01*
X115912102Y-91061628D02*
X115847851Y-91001058D01*
X115847851Y-91001058D02*
X115779802Y-90934960D01*
X115779802Y-90934960D02*
X115711214Y-90866532D01*
X115711214Y-90866532D02*
X115645346Y-90798972D01*
X115645346Y-90798972D02*
X115585455Y-90735478D01*
X115585455Y-90735478D02*
X115545986Y-90691960D01*
X115545986Y-90691960D02*
X115492746Y-90631080D01*
X115492746Y-90631080D02*
X115439955Y-90569139D01*
X115439955Y-90569139D02*
X115389160Y-90508099D01*
X115389160Y-90508099D02*
X115341904Y-90449926D01*
X115341904Y-90449926D02*
X115299733Y-90396584D01*
X115299733Y-90396584D02*
X115264192Y-90350037D01*
X115264192Y-90350037D02*
X115236825Y-90312250D01*
X115236825Y-90312250D02*
X115219177Y-90285186D01*
X115219177Y-90285186D02*
X115212793Y-90270812D01*
X115212793Y-90270812D02*
X115213479Y-90269156D01*
X115213479Y-90269156D02*
X115228877Y-90265374D01*
X115228877Y-90265374D02*
X115258607Y-90261112D01*
X115258607Y-90261112D02*
X115296720Y-90257196D01*
X115296720Y-90257196D02*
X115303530Y-90256631D01*
X115303530Y-90256631D02*
X115340407Y-90252983D01*
X115340407Y-90252983D02*
X115379978Y-90247523D01*
X115379978Y-90247523D02*
X115424430Y-90239760D01*
X115424430Y-90239760D02*
X115475953Y-90229202D01*
X115475953Y-90229202D02*
X115536733Y-90215357D01*
X115536733Y-90215357D02*
X115608960Y-90197733D01*
X115608960Y-90197733D02*
X115694819Y-90175838D01*
X115694819Y-90175838D02*
X115796501Y-90149181D01*
X115796501Y-90149181D02*
X115877871Y-90127529D01*
X115877871Y-90127529D02*
X116071126Y-90077298D01*
X116071126Y-90077298D02*
X116247772Y-90034535D01*
X116247772Y-90034535D02*
X116409970Y-89998932D01*
X116409970Y-89998932D02*
X116559885Y-89970181D01*
X116559885Y-89970181D02*
X116699679Y-89947976D01*
X116699679Y-89947976D02*
X116831517Y-89932009D01*
X116831517Y-89932009D02*
X116957562Y-89921973D01*
X116957562Y-89921973D02*
X117079977Y-89917561D01*
X117079977Y-89917561D02*
X117200926Y-89918467D01*
X117200926Y-89918467D02*
X117313084Y-89923752D01*
X117313084Y-89923752D02*
X117412506Y-89931197D01*
X117412506Y-89931197D02*
X117508266Y-89940608D01*
X117508266Y-89940608D02*
X117603048Y-89952494D01*
X117603048Y-89952494D02*
X117699535Y-89967364D01*
X117699535Y-89967364D02*
X117800414Y-89985725D01*
X117800414Y-89985725D02*
X117908367Y-90008086D01*
X117908367Y-90008086D02*
X118026080Y-90034955D01*
X118026080Y-90034955D02*
X118156237Y-90066841D01*
X118156237Y-90066841D02*
X118301521Y-90104252D01*
X118301521Y-90104252D02*
X118390320Y-90127760D01*
X118390320Y-90127760D02*
X118521233Y-90162255D01*
X118521233Y-90162255D02*
X118634119Y-90191018D01*
X118634119Y-90191018D02*
X118730354Y-90214347D01*
X118730354Y-90214347D02*
X118811317Y-90232541D01*
X118811317Y-90232541D02*
X118878384Y-90245900D01*
X118878384Y-90245900D02*
X118932933Y-90254723D01*
X118932933Y-90254723D02*
X118976340Y-90259309D01*
X118976340Y-90259309D02*
X118999837Y-90260160D01*
X118999837Y-90260160D02*
X119030048Y-90262165D01*
X119030048Y-90262165D02*
X119051107Y-90267267D01*
X119051107Y-90267267D02*
X119056084Y-90270778D01*
X119056084Y-90270778D02*
X120428129Y-90270778D01*
X120428129Y-90270778D02*
X120617782Y-89997578D01*
X120617782Y-89997578D02*
X120766313Y-89923129D01*
X120766313Y-89923129D02*
X121109718Y-89740936D01*
X121109718Y-89740936D02*
X121436746Y-89546835D01*
X121436746Y-89546835D02*
X121747367Y-89340860D01*
X121747367Y-89340860D02*
X122041549Y-89123046D01*
X122041549Y-89123046D02*
X122319262Y-88893426D01*
X122319262Y-88893426D02*
X122580475Y-88652036D01*
X122580475Y-88652036D02*
X122825156Y-88398911D01*
X122825156Y-88398911D02*
X123053276Y-88134084D01*
X123053276Y-88134084D02*
X123264803Y-87857591D01*
X123264803Y-87857591D02*
X123459706Y-87569466D01*
X123459706Y-87569466D02*
X123637955Y-87269744D01*
X123637955Y-87269744D02*
X123799518Y-86958459D01*
X123799518Y-86958459D02*
X123944366Y-86635645D01*
X123944366Y-86635645D02*
X124072466Y-86301338D01*
X124072466Y-86301338D02*
X124119179Y-86163891D01*
X124119179Y-86163891D02*
X124221957Y-85819611D01*
X124221957Y-85819611D02*
X124308479Y-85463650D01*
X124308479Y-85463650D02*
X124378659Y-85096631D01*
X124378659Y-85096631D02*
X124432412Y-84719179D01*
X124432412Y-84719179D02*
X124469652Y-84331918D01*
X124469652Y-84331918D02*
X124490292Y-83935472D01*
X124490292Y-83935472D02*
X124494247Y-83530466D01*
X124494247Y-83530466D02*
X124493017Y-83447880D01*
X124493017Y-83447880D02*
X124491268Y-83361362D01*
X124491268Y-83361362D02*
X124489391Y-83282812D01*
X124489391Y-83282812D02*
X124487235Y-83209758D01*
X124487235Y-83209758D02*
X124484651Y-83139730D01*
X124484651Y-83139730D02*
X124481490Y-83070259D01*
X124481490Y-83070259D02*
X124477601Y-82998873D01*
X124477601Y-82998873D02*
X124472836Y-82923102D01*
X124472836Y-82923102D02*
X124467045Y-82840476D01*
X124467045Y-82840476D02*
X124460078Y-82748525D01*
X124460078Y-82748525D02*
X124451786Y-82644778D01*
X124451786Y-82644778D02*
X124442020Y-82526765D01*
X124442020Y-82526765D02*
X124430629Y-82392017D01*
X124430629Y-82392017D02*
X124425362Y-82330280D01*
X124425362Y-82330280D02*
X124406214Y-82101528D01*
X124406214Y-82101528D02*
X124389533Y-81891518D01*
X124389533Y-81891518D02*
X124375279Y-81698828D01*
X124375279Y-81698828D02*
X124363412Y-81522035D01*
X124363412Y-81522035D02*
X124353893Y-81359716D01*
X124353893Y-81359716D02*
X124346684Y-81210448D01*
X124346684Y-81210448D02*
X124341746Y-81072809D01*
X124341746Y-81072809D02*
X124339038Y-80945375D01*
X124339038Y-80945375D02*
X124338522Y-80826725D01*
X124338522Y-80826725D02*
X124340158Y-80715435D01*
X124340158Y-80715435D02*
X124343909Y-80610083D01*
X124343909Y-80610083D02*
X124349733Y-80509245D01*
X124349733Y-80509245D02*
X124357593Y-80411500D01*
X124357593Y-80411500D02*
X124367448Y-80315424D01*
X124367448Y-80315424D02*
X124369422Y-80298280D01*
X124369422Y-80298280D02*
X124382664Y-80192671D01*
X124382664Y-80192671D02*
X124397189Y-80093742D01*
X124397189Y-80093742D02*
X124413658Y-79999444D01*
X124413658Y-79999444D02*
X124432728Y-79907727D01*
X124432728Y-79907727D02*
X124455061Y-79816543D01*
X124455061Y-79816543D02*
X124481315Y-79723842D01*
X124481315Y-79723842D02*
X124512151Y-79627575D01*
X124512151Y-79627575D02*
X124548227Y-79525693D01*
X124548227Y-79525693D02*
X124590203Y-79416148D01*
X124590203Y-79416148D02*
X124638739Y-79296889D01*
X124638739Y-79296889D02*
X124694494Y-79165869D01*
X124694494Y-79165869D02*
X124758128Y-79021037D01*
X124758128Y-79021037D02*
X124830301Y-78860344D01*
X124830301Y-78860344D02*
X124837072Y-78845400D01*
X124837072Y-78845400D02*
X124919494Y-78661075D01*
X124919494Y-78661075D02*
X124992443Y-78492290D01*
X124992443Y-78492290D02*
X125056627Y-78337001D01*
X125056627Y-78337001D02*
X125112759Y-78193165D01*
X125112759Y-78193165D02*
X125161547Y-78058737D01*
X125161547Y-78058737D02*
X125203701Y-77931673D01*
X125203701Y-77931673D02*
X125239932Y-77809929D01*
X125239932Y-77809929D02*
X125270951Y-77691463D01*
X125270951Y-77691463D02*
X125297466Y-77574228D01*
X125297466Y-77574228D02*
X125303965Y-77540462D01*
X125303965Y-77540462D02*
X124486320Y-77540462D01*
X124486320Y-77540462D02*
X124481770Y-77620637D01*
X124481770Y-77620637D02*
X124467877Y-77711319D01*
X124467877Y-77711319D02*
X124444281Y-77813985D01*
X124444281Y-77813985D02*
X124410617Y-77930108D01*
X124410617Y-77930108D02*
X124366525Y-78061164D01*
X124366525Y-78061164D02*
X124341807Y-78129120D01*
X124341807Y-78129120D02*
X124314084Y-78202320D01*
X124314084Y-78202320D02*
X124285418Y-78274883D01*
X124285418Y-78274883D02*
X124254718Y-78349273D01*
X124254718Y-78349273D02*
X124220893Y-78427959D01*
X124220893Y-78427959D02*
X124182853Y-78513406D01*
X124182853Y-78513406D02*
X124139505Y-78608080D01*
X124139505Y-78608080D02*
X124089759Y-78714450D01*
X124089759Y-78714450D02*
X124032523Y-78834980D01*
X124032523Y-78834980D02*
X123994298Y-78914780D01*
X123994298Y-78914780D02*
X123953470Y-79000104D01*
X123953470Y-79000104D02*
X123913602Y-79084004D01*
X123913602Y-79084004D02*
X123875983Y-79163726D01*
X123875983Y-79163726D02*
X123841901Y-79236517D01*
X123841901Y-79236517D02*
X123812647Y-79299622D01*
X123812647Y-79299622D02*
X123789508Y-79350286D01*
X123789508Y-79350286D02*
X123773773Y-79385756D01*
X123773773Y-79385756D02*
X123772402Y-79388960D01*
X123772402Y-79388960D02*
X123706146Y-79553111D01*
X123706146Y-79553111D02*
X123652065Y-79706879D01*
X123652065Y-79706879D02*
X123608917Y-79855138D01*
X123608917Y-79855138D02*
X123575460Y-80002764D01*
X123575460Y-80002764D02*
X123550449Y-80154633D01*
X123550449Y-80154633D02*
X123532644Y-80315620D01*
X123532644Y-80315620D02*
X123530867Y-80336575D01*
X123530867Y-80336575D02*
X123526327Y-80410812D01*
X123526327Y-80410812D02*
X123523273Y-80503308D01*
X123523273Y-80503308D02*
X123521666Y-80612058D01*
X123521666Y-80612058D02*
X123521468Y-80735060D01*
X123521468Y-80735060D02*
X123522642Y-80870307D01*
X123522642Y-80870307D02*
X123525150Y-81015797D01*
X123525150Y-81015797D02*
X123528954Y-81169526D01*
X123528954Y-81169526D02*
X123534015Y-81329489D01*
X123534015Y-81329489D02*
X123540296Y-81493682D01*
X123540296Y-81493682D02*
X123547759Y-81660101D01*
X123547759Y-81660101D02*
X123556366Y-81826742D01*
X123556366Y-81826742D02*
X123560439Y-81898480D01*
X123560439Y-81898480D02*
X123575630Y-82165610D01*
X123575630Y-82165610D02*
X123588860Y-82413328D01*
X123588860Y-82413328D02*
X123600154Y-82642441D01*
X123600154Y-82642441D02*
X123609537Y-82853759D01*
X123609537Y-82853759D02*
X123617036Y-83048092D01*
X123617036Y-83048092D02*
X123622674Y-83226248D01*
X123622674Y-83226248D02*
X123626478Y-83389038D01*
X123626478Y-83389038D02*
X123628474Y-83537270D01*
X123628474Y-83537270D02*
X123628685Y-83671753D01*
X123628685Y-83671753D02*
X123627139Y-83793297D01*
X123627139Y-83793297D02*
X123623859Y-83902711D01*
X123623859Y-83902711D02*
X123623556Y-83910160D01*
X123623556Y-83910160D02*
X123611174Y-84148191D01*
X123611174Y-84148191D02*
X123594170Y-84369518D01*
X123594170Y-84369518D02*
X123571996Y-84577345D01*
X123571996Y-84577345D02*
X123544103Y-84774873D01*
X123544103Y-84774873D02*
X123509941Y-84965307D01*
X123509941Y-84965307D02*
X123468961Y-85151850D01*
X123468961Y-85151850D02*
X123420615Y-85337705D01*
X123420615Y-85337705D02*
X123364352Y-85526075D01*
X123364352Y-85526075D02*
X123326922Y-85640582D01*
X123326922Y-85640582D02*
X123285112Y-85761486D01*
X123285112Y-85761486D02*
X123245371Y-85868608D01*
X123245371Y-85868608D02*
X123205145Y-85967956D01*
X123205145Y-85967956D02*
X123161881Y-86065534D01*
X123161881Y-86065534D02*
X123113024Y-86167347D01*
X123113024Y-86167347D02*
X123056019Y-86279403D01*
X123056019Y-86279403D02*
X123051755Y-86287600D01*
X123051755Y-86287600D02*
X122886841Y-86583832D01*
X122886841Y-86583832D02*
X122703407Y-86875394D01*
X122703407Y-86875394D02*
X122503137Y-87159781D01*
X122503137Y-87159781D02*
X122287714Y-87434486D01*
X122287714Y-87434486D02*
X122252838Y-87476320D01*
X122252838Y-87476320D02*
X122206586Y-87529313D01*
X122206586Y-87529313D02*
X122148446Y-87592736D01*
X122148446Y-87592736D02*
X122081160Y-87663849D01*
X122081160Y-87663849D02*
X122007472Y-87739908D01*
X122007472Y-87739908D02*
X121930123Y-87818172D01*
X121930123Y-87818172D02*
X121851858Y-87895899D01*
X121851858Y-87895899D02*
X121775418Y-87970349D01*
X121775418Y-87970349D02*
X121703547Y-88038778D01*
X121703547Y-88038778D02*
X121638988Y-88098445D01*
X121638988Y-88098445D02*
X121584483Y-88146608D01*
X121584483Y-88146608D02*
X121570400Y-88158489D01*
X121570400Y-88158489D02*
X121336467Y-88342585D01*
X121336467Y-88342585D02*
X121101286Y-88506712D01*
X121101286Y-88506712D02*
X120864262Y-88651209D01*
X120864262Y-88651209D02*
X120624800Y-88776416D01*
X120624800Y-88776416D02*
X120382307Y-88882673D01*
X120382307Y-88882673D02*
X120168388Y-88959973D01*
X120168388Y-88959973D02*
X119967001Y-89019173D01*
X119967001Y-89019173D02*
X119766820Y-89064404D01*
X119766820Y-89064404D02*
X119564414Y-89096068D01*
X119564414Y-89096068D02*
X119356354Y-89114566D01*
X119356354Y-89114566D02*
X119139210Y-89120299D01*
X119139210Y-89120299D02*
X118909552Y-89113670D01*
X118909552Y-89113670D02*
X118872920Y-89111580D01*
X118872920Y-89111580D02*
X118676330Y-89095675D01*
X118676330Y-89095675D02*
X118498650Y-89072874D01*
X118498650Y-89072874D02*
X118339643Y-89043090D01*
X118339643Y-89043090D02*
X118199073Y-89006235D01*
X118199073Y-89006235D02*
X118076705Y-88962220D01*
X118076705Y-88962220D02*
X117972301Y-88910959D01*
X117972301Y-88910959D02*
X117885627Y-88852363D01*
X117885627Y-88852363D02*
X117816446Y-88786345D01*
X117816446Y-88786345D02*
X117764521Y-88712816D01*
X117764521Y-88712816D02*
X117755621Y-88696083D01*
X117755621Y-88696083D02*
X117703039Y-88576638D01*
X117703039Y-88576638D02*
X117663305Y-88454229D01*
X117663305Y-88454229D02*
X117636897Y-88332005D01*
X117636897Y-88332005D02*
X117624297Y-88213119D01*
X117624297Y-88213119D02*
X117625983Y-88100721D01*
X117625983Y-88100721D02*
X117642435Y-87997962D01*
X117642435Y-87997962D02*
X117646846Y-87981280D01*
X117646846Y-87981280D02*
X117686319Y-87870642D01*
X117686319Y-87870642D02*
X117740840Y-87767806D01*
X117740840Y-87767806D02*
X117812182Y-87669934D01*
X117812182Y-87669934D02*
X117899013Y-87577169D01*
X117899013Y-87577169D02*
X117950424Y-87529340D01*
X117950424Y-87529340D02*
X118002878Y-87484415D01*
X118002878Y-87484415D02*
X118058399Y-87441120D01*
X118058399Y-87441120D02*
X118119006Y-87398185D01*
X118119006Y-87398185D02*
X118186721Y-87354336D01*
X118186721Y-87354336D02*
X118263565Y-87308302D01*
X118263565Y-87308302D02*
X118351559Y-87258811D01*
X118351559Y-87258811D02*
X118452725Y-87204591D01*
X118452725Y-87204591D02*
X118569083Y-87144370D01*
X118569083Y-87144370D02*
X118659560Y-87098514D01*
X118659560Y-87098514D02*
X118785732Y-87034609D01*
X118785732Y-87034609D02*
X118895217Y-86978223D01*
X118895217Y-86978223D02*
X118989758Y-86928313D01*
X118989758Y-86928313D02*
X119071096Y-86883834D01*
X119071096Y-86883834D02*
X119140974Y-86843742D01*
X119140974Y-86843742D02*
X119201134Y-86806995D01*
X119201134Y-86806995D02*
X119253316Y-86772547D01*
X119253316Y-86772547D02*
X119299263Y-86739356D01*
X119299263Y-86739356D02*
X119340716Y-86706377D01*
X119340716Y-86706377D02*
X119379418Y-86672567D01*
X119379418Y-86672567D02*
X119396007Y-86657174D01*
X119396007Y-86657174D02*
X119464748Y-86584819D01*
X119464748Y-86584819D02*
X119516515Y-86512435D01*
X119516515Y-86512435D02*
X119554208Y-86435750D01*
X119554208Y-86435750D02*
X119563540Y-86410286D01*
X119563540Y-86410286D02*
X119593706Y-86293547D01*
X119593706Y-86293547D02*
X119608251Y-86170008D01*
X119608251Y-86170008D02*
X119607881Y-86042654D01*
X119607881Y-86042654D02*
X119593301Y-85914469D01*
X119593301Y-85914469D02*
X119565216Y-85788438D01*
X119565216Y-85788438D02*
X119524331Y-85667544D01*
X119524331Y-85667544D02*
X119471351Y-85554773D01*
X119471351Y-85554773D02*
X119406981Y-85453108D01*
X119406981Y-85453108D02*
X119331926Y-85365534D01*
X119331926Y-85365534D02*
X119312290Y-85346842D01*
X119312290Y-85346842D02*
X119284368Y-85323561D01*
X119284368Y-85323561D02*
X119251169Y-85299089D01*
X119251169Y-85299089D02*
X119216855Y-85276070D01*
X119216855Y-85276070D02*
X119185587Y-85257146D01*
X119185587Y-85257146D02*
X119161528Y-85244960D01*
X119161528Y-85244960D02*
X119148840Y-85242154D01*
X119148840Y-85242154D02*
X119148214Y-85242652D01*
X119148214Y-85242652D02*
X119142213Y-85252649D01*
X119142213Y-85252649D02*
X119129128Y-85275416D01*
X119129128Y-85275416D02*
X119112037Y-85305593D01*
X119112037Y-85305593D02*
X119065909Y-85377260D01*
X119065909Y-85377260D02*
X119005564Y-85454928D01*
X119005564Y-85454928D02*
X118934394Y-85534462D01*
X118934394Y-85534462D02*
X118877045Y-85591812D01*
X118877045Y-85591812D02*
X118752254Y-85697616D01*
X118752254Y-85697616D02*
X118611132Y-85793278D01*
X118611132Y-85793278D02*
X118455144Y-85878460D01*
X118455144Y-85878460D02*
X118285759Y-85952826D01*
X118285759Y-85952826D02*
X118104443Y-86016039D01*
X118104443Y-86016039D02*
X117912662Y-86067760D01*
X117912662Y-86067760D02*
X117711883Y-86107654D01*
X117711883Y-86107654D02*
X117503573Y-86135382D01*
X117503573Y-86135382D02*
X117289198Y-86150609D01*
X117289198Y-86150609D02*
X117070224Y-86152995D01*
X117070224Y-86152995D02*
X116848120Y-86142206D01*
X116848120Y-86142206D02*
X116624350Y-86117903D01*
X116624350Y-86117903D02*
X116602160Y-86114749D01*
X116602160Y-86114749D02*
X116376469Y-86073048D01*
X116376469Y-86073048D02*
X116160628Y-86015059D01*
X116160628Y-86015059D02*
X115956006Y-85941190D01*
X115956006Y-85941190D02*
X115830000Y-85885014D01*
X115830000Y-85885014D02*
X115670191Y-85799764D01*
X115670191Y-85799764D02*
X115528219Y-85706357D01*
X115528219Y-85706357D02*
X115402907Y-85603797D01*
X115402907Y-85603797D02*
X115293077Y-85491090D01*
X115293077Y-85491090D02*
X115197551Y-85367240D01*
X115197551Y-85367240D02*
X115172944Y-85330020D01*
X115172944Y-85330020D02*
X115148768Y-85293197D01*
X115148768Y-85293197D02*
X115128226Y-85263814D01*
X115128226Y-85263814D02*
X115113914Y-85245470D01*
X115113914Y-85245470D02*
X115108895Y-85241120D01*
X115108895Y-85241120D02*
X115092544Y-85247326D01*
X115092544Y-85247326D02*
X115065079Y-85263919D01*
X115065079Y-85263919D02*
X115030641Y-85287861D01*
X115030641Y-85287861D02*
X114993372Y-85316114D01*
X114993372Y-85316114D02*
X114957409Y-85345638D01*
X114957409Y-85345638D02*
X114926895Y-85373395D01*
X114926895Y-85373395D02*
X114921983Y-85378292D01*
X114921983Y-85378292D02*
X114836503Y-85479347D01*
X114836503Y-85479347D02*
X114765285Y-85593342D01*
X114765285Y-85593342D02*
X114709268Y-85717872D01*
X114709268Y-85717872D02*
X114669393Y-85850532D01*
X114669393Y-85850532D02*
X114646600Y-85988919D01*
X114646600Y-85988919D02*
X114641280Y-86096216D01*
X114641280Y-86096216D02*
X114647130Y-86210319D01*
X114647130Y-86210319D02*
X114665394Y-86310857D01*
X114665394Y-86310857D02*
X114697144Y-86401129D01*
X114697144Y-86401129D02*
X114743453Y-86484429D01*
X114743453Y-86484429D02*
X114786200Y-86541682D01*
X114786200Y-86541682D02*
X114826166Y-86585987D01*
X114826166Y-86585987D02*
X114873175Y-86630188D01*
X114873175Y-86630188D02*
X114928724Y-86675254D01*
X114928724Y-86675254D02*
X114994309Y-86722155D01*
X114994309Y-86722155D02*
X115071428Y-86771861D01*
X115071428Y-86771861D02*
X115161579Y-86825342D01*
X115161579Y-86825342D02*
X115266258Y-86883566D01*
X115266258Y-86883566D02*
X115386962Y-86947504D01*
X115386962Y-86947504D02*
X115509960Y-87010444D01*
X115509960Y-87010444D02*
X115589155Y-87050657D01*
X115589155Y-87050657D02*
X115668228Y-87091203D01*
X115668228Y-87091203D02*
X115743859Y-87130350D01*
X115743859Y-87130350D02*
X115812725Y-87166365D01*
X115812725Y-87166365D02*
X115871504Y-87197518D01*
X115871504Y-87197518D02*
X115916874Y-87222075D01*
X115916874Y-87222075D02*
X115931600Y-87230269D01*
X115931600Y-87230269D02*
X116088692Y-87325158D01*
X116088692Y-87325158D02*
X116225794Y-87421590D01*
X116225794Y-87421590D02*
X116343207Y-87520026D01*
X116343207Y-87520026D02*
X116441234Y-87620925D01*
X116441234Y-87620925D02*
X116520174Y-87724749D01*
X116520174Y-87724749D02*
X116580330Y-87831957D01*
X116580330Y-87831957D02*
X116622002Y-87943010D01*
X116622002Y-87943010D02*
X116645492Y-88058368D01*
X116645492Y-88058368D02*
X116651102Y-88178492D01*
X116651102Y-88178492D02*
X116639133Y-88303843D01*
X116639133Y-88303843D02*
X116638147Y-88309846D01*
X116638147Y-88309846D02*
X116601899Y-88467820D01*
X116601899Y-88467820D02*
X116547258Y-88621658D01*
X116547258Y-88621658D02*
X116521685Y-88678594D01*
X116521685Y-88678594D02*
X116477918Y-88753730D01*
X116477918Y-88753730D02*
X116422127Y-88819354D01*
X116422127Y-88819354D02*
X116352546Y-88876799D01*
X116352546Y-88876799D02*
X116267408Y-88927399D01*
X116267408Y-88927399D02*
X116164949Y-88972486D01*
X116164949Y-88972486D02*
X116103206Y-88994540D01*
X116103206Y-88994540D02*
X115978825Y-89030852D01*
X115978825Y-89030852D02*
X115841790Y-89060750D01*
X115841790Y-89060750D02*
X115690567Y-89084453D01*
X115690567Y-89084453D02*
X115523627Y-89102180D01*
X115523627Y-89102180D02*
X115339437Y-89114147D01*
X115339437Y-89114147D02*
X115235640Y-89118189D01*
X115235640Y-89118189D02*
X114997994Y-89118356D01*
X114997994Y-89118356D02*
X114770314Y-89103368D01*
X114770314Y-89103368D02*
X114548400Y-89072636D01*
X114548400Y-89072636D02*
X114328051Y-89025571D01*
X114328051Y-89025571D02*
X114105067Y-88961585D01*
X114105067Y-88961585D02*
X114095296Y-88958426D01*
X114095296Y-88958426D02*
X113851326Y-88868906D01*
X113851326Y-88868906D02*
X113609410Y-88759754D01*
X113609410Y-88759754D02*
X113370311Y-88631615D01*
X113370311Y-88631615D02*
X113134794Y-88485135D01*
X113134794Y-88485135D02*
X112903620Y-88320961D01*
X112903620Y-88320961D02*
X112677554Y-88139738D01*
X112677554Y-88139738D02*
X112457359Y-87942113D01*
X112457359Y-87942113D02*
X112243797Y-87728731D01*
X112243797Y-87728731D02*
X112037633Y-87500239D01*
X112037633Y-87500239D02*
X111839629Y-87257284D01*
X111839629Y-87257284D02*
X111650549Y-87000510D01*
X111650549Y-87000510D02*
X111480160Y-86744800D01*
X111480160Y-86744800D02*
X111316689Y-86471717D01*
X111316689Y-86471717D02*
X111172783Y-86198253D01*
X111172783Y-86198253D02*
X111047750Y-85922454D01*
X111047750Y-85922454D02*
X110940895Y-85642363D01*
X110940895Y-85642363D02*
X110851526Y-85356023D01*
X110851526Y-85356023D02*
X110778949Y-85061481D01*
X110778949Y-85061481D02*
X110722472Y-84756779D01*
X110722472Y-84756779D02*
X110689596Y-84514680D01*
X110689596Y-84514680D02*
X110677952Y-84409472D01*
X110677952Y-84409472D02*
X110668364Y-84311662D01*
X110668364Y-84311662D02*
X110660655Y-84217643D01*
X110660655Y-84217643D02*
X110654649Y-84123811D01*
X110654649Y-84123811D02*
X110650171Y-84026558D01*
X110650171Y-84026558D02*
X110647044Y-83922279D01*
X110647044Y-83922279D02*
X110645092Y-83807367D01*
X110645092Y-83807367D02*
X110644140Y-83678216D01*
X110644140Y-83678216D02*
X110643974Y-83579960D01*
X110643974Y-83579960D02*
X110644105Y-83486675D01*
X110644105Y-83486675D02*
X110644534Y-83398889D01*
X110644534Y-83398889D02*
X110645333Y-83314628D01*
X110645333Y-83314628D02*
X110646571Y-83231915D01*
X110646571Y-83231915D02*
X110648322Y-83148775D01*
X110648322Y-83148775D02*
X110650655Y-83063233D01*
X110650655Y-83063233D02*
X110653643Y-82973313D01*
X110653643Y-82973313D02*
X110657357Y-82877040D01*
X110657357Y-82877040D02*
X110661868Y-82772438D01*
X110661868Y-82772438D02*
X110667248Y-82657532D01*
X110667248Y-82657532D02*
X110673568Y-82530346D01*
X110673568Y-82530346D02*
X110680899Y-82388906D01*
X110680899Y-82388906D02*
X110689313Y-82231235D01*
X110689313Y-82231235D02*
X110698881Y-82055358D01*
X110698881Y-82055358D02*
X110699404Y-82045800D01*
X110699404Y-82045800D02*
X110708257Y-81883780D01*
X110708257Y-81883780D02*
X110716021Y-81740284D01*
X110716021Y-81740284D02*
X110722768Y-81613548D01*
X110722768Y-81613548D02*
X110728567Y-81501809D01*
X110728567Y-81501809D02*
X110733489Y-81403302D01*
X110733489Y-81403302D02*
X110737605Y-81316265D01*
X110737605Y-81316265D02*
X110740984Y-81238934D01*
X110740984Y-81238934D02*
X110743698Y-81169545D01*
X110743698Y-81169545D02*
X110745817Y-81106336D01*
X110745817Y-81106336D02*
X110747412Y-81047541D01*
X110747412Y-81047541D02*
X110748552Y-80991399D01*
X110748552Y-80991399D02*
X110749308Y-80936145D01*
X110749308Y-80936145D02*
X110749751Y-80880017D01*
X110749751Y-80880017D02*
X110749952Y-80821249D01*
X110749952Y-80821249D02*
X110749985Y-80779815D01*
X110749985Y-80779815D02*
X110748952Y-80625510D01*
X110748952Y-80625510D02*
X110745444Y-80484233D01*
X110745444Y-80484233D02*
X110738874Y-80353663D01*
X110738874Y-80353663D02*
X110728653Y-80231478D01*
X110728653Y-80231478D02*
X110714193Y-80115354D01*
X110714193Y-80115354D02*
X110694908Y-80002972D01*
X110694908Y-80002972D02*
X110670209Y-79892008D01*
X110670209Y-79892008D02*
X110639508Y-79780141D01*
X110639508Y-79780141D02*
X110602217Y-79665049D01*
X110602217Y-79665049D02*
X110557749Y-79544409D01*
X110557749Y-79544409D02*
X110505516Y-79415901D01*
X110505516Y-79415901D02*
X110444929Y-79277201D01*
X110444929Y-79277201D02*
X110375402Y-79125988D01*
X110375402Y-79125988D02*
X110296347Y-78959941D01*
X110296347Y-78959941D02*
X110281487Y-78929182D01*
X110281487Y-78929182D02*
X110219770Y-78801062D01*
X110219770Y-78801062D02*
X110166239Y-78688565D01*
X110166239Y-78688565D02*
X110119786Y-78589244D01*
X110119786Y-78589244D02*
X110079302Y-78500653D01*
X110079302Y-78500653D02*
X110043679Y-78420343D01*
X110043679Y-78420343D02*
X110011808Y-78345869D01*
X110011808Y-78345869D02*
X109982581Y-78274784D01*
X109982581Y-78274784D02*
X109965058Y-78230720D01*
X109965058Y-78230720D02*
X109937907Y-78158996D01*
X109937907Y-78158996D02*
X109909758Y-78080070D01*
X109909758Y-78080070D02*
X109881982Y-77998197D01*
X109881982Y-77998197D02*
X109855948Y-77917632D01*
X109855948Y-77917632D02*
X109833027Y-77842631D01*
X109833027Y-77842631D02*
X109814589Y-77777449D01*
X109814589Y-77777449D02*
X109802005Y-77726341D01*
X109802005Y-77726341D02*
X109800800Y-77720608D01*
X109800800Y-77720608D02*
X109793071Y-77671282D01*
X109793071Y-77671282D02*
X109787907Y-77614783D01*
X109787907Y-77614783D02*
X109785402Y-77556440D01*
X109785402Y-77556440D02*
X109785645Y-77501583D01*
X109785645Y-77501583D02*
X109788731Y-77455543D01*
X109788731Y-77455543D02*
X109794750Y-77423649D01*
X109794750Y-77423649D02*
X109795637Y-77421121D01*
X109795637Y-77421121D02*
X109824410Y-77373459D01*
X109824410Y-77373459D02*
X109870685Y-77335959D01*
X109870685Y-77335959D02*
X109934312Y-77308720D01*
X109934312Y-77308720D02*
X109986130Y-77296339D01*
X109986130Y-77296339D02*
X110025916Y-77291036D01*
X110025916Y-77291036D02*
X110067225Y-77289925D01*
X110067225Y-77289925D02*
X110112586Y-77293514D01*
X110112586Y-77293514D02*
X110164529Y-77302310D01*
X110164529Y-77302310D02*
X110225585Y-77316822D01*
X110225585Y-77316822D02*
X110298282Y-77337556D01*
X110298282Y-77337556D02*
X110385152Y-77365020D01*
X110385152Y-77365020D02*
X110470600Y-77393552D01*
X110470600Y-77393552D02*
X110548775Y-77419700D01*
X110548775Y-77419700D02*
X110629923Y-77446145D01*
X110629923Y-77446145D02*
X110709210Y-77471361D01*
X110709210Y-77471361D02*
X110781800Y-77493821D01*
X110781800Y-77493821D02*
X110842858Y-77511999D01*
X110842858Y-77511999D02*
X110871185Y-77520007D01*
X110871185Y-77520007D02*
X111160227Y-77591384D01*
X111160227Y-77591384D02*
X111441360Y-77644791D01*
X111441360Y-77644791D02*
X111714395Y-77680235D01*
X111714395Y-77680235D02*
X111979143Y-77697722D01*
X111979143Y-77697722D02*
X112235415Y-77697260D01*
X112235415Y-77697260D02*
X112483022Y-77678854D01*
X112483022Y-77678854D02*
X112721775Y-77642511D01*
X112721775Y-77642511D02*
X112951485Y-77588239D01*
X112951485Y-77588239D02*
X113171962Y-77516042D01*
X113171962Y-77516042D02*
X113368862Y-77432675D01*
X113368862Y-77432675D02*
X113415863Y-77409813D01*
X113415863Y-77409813D02*
X113464939Y-77384546D01*
X113464939Y-77384546D02*
X113518044Y-77355734D01*
X113518044Y-77355734D02*
X113577134Y-77322235D01*
X113577134Y-77322235D02*
X113644165Y-77282908D01*
X113644165Y-77282908D02*
X113721091Y-77236614D01*
X113721091Y-77236614D02*
X113809869Y-77182210D01*
X113809869Y-77182210D02*
X113912453Y-77118556D01*
X113912453Y-77118556D02*
X113985960Y-77072621D01*
X113985960Y-77072621D02*
X114130054Y-76982820D01*
X114130054Y-76982820D02*
X114259574Y-76903099D01*
X114259574Y-76903099D02*
X114376785Y-76832167D01*
X114376785Y-76832167D02*
X114483951Y-76768731D01*
X114483951Y-76768731D02*
X114583337Y-76711497D01*
X114583337Y-76711497D02*
X114677208Y-76659172D01*
X114677208Y-76659172D02*
X114767828Y-76610464D01*
X114767828Y-76610464D02*
X114857462Y-76564078D01*
X114857462Y-76564078D02*
X114948374Y-76518723D01*
X114948374Y-76518723D02*
X114999957Y-76493644D01*
X114999957Y-76493644D02*
X115256567Y-76377217D01*
X115256567Y-76377217D02*
X115509251Y-76277775D01*
X115509251Y-76277775D02*
X115761905Y-76194199D01*
X115761905Y-76194199D02*
X116018427Y-76125371D01*
X116018427Y-76125371D02*
X116282713Y-76070175D01*
X116282713Y-76070175D02*
X116558661Y-76027492D01*
X116558661Y-76027492D02*
X116673280Y-76013660D01*
X116673280Y-76013660D02*
X116724732Y-76009421D01*
X116724732Y-76009421D02*
X116794823Y-76006017D01*
X116794823Y-76006017D02*
X116881886Y-76003489D01*
X116881886Y-76003489D02*
X116984256Y-76001883D01*
X116984256Y-76001883D02*
X117100267Y-76001242D01*
X117100267Y-76001242D02*
X117145720Y-76001257D01*
X117145720Y-76001257D02*
X117249092Y-76001629D01*
X117249092Y-76001629D02*
X117335474Y-76002434D01*
X117335474Y-76002434D02*
X117408196Y-76003811D01*
X117408196Y-76003811D02*
X117470586Y-76005899D01*
X117470586Y-76005899D02*
X117525975Y-76008839D01*
X117525975Y-76008839D02*
X117577689Y-76012771D01*
X117577689Y-76012771D02*
X117629059Y-76017832D01*
X117629059Y-76017832D02*
X117679120Y-76023638D01*
X117679120Y-76023638D02*
X117958506Y-76065047D01*
X117958506Y-76065047D02*
X118228467Y-76120178D01*
X118228467Y-76120178D02*
X118492128Y-76189995D01*
X118492128Y-76189995D02*
X118752613Y-76275463D01*
X118752613Y-76275463D02*
X119013045Y-76377546D01*
X119013045Y-76377546D02*
X119276548Y-76497207D01*
X119276548Y-76497207D02*
X119380920Y-76548898D01*
X119380920Y-76548898D02*
X119452359Y-76585404D01*
X119452359Y-76585404D02*
X119520115Y-76620814D01*
X119520115Y-76620814D02*
X119586393Y-76656406D01*
X119586393Y-76656406D02*
X119653401Y-76693458D01*
X119653401Y-76693458D02*
X119723342Y-76733249D01*
X119723342Y-76733249D02*
X119798422Y-76777056D01*
X119798422Y-76777056D02*
X119880848Y-76826157D01*
X119880848Y-76826157D02*
X119972824Y-76881831D01*
X119972824Y-76881831D02*
X120076556Y-76945356D01*
X120076556Y-76945356D02*
X120194249Y-77018010D01*
X120194249Y-77018010D02*
X120249600Y-77052315D01*
X120249600Y-77052315D02*
X120353174Y-77116524D01*
X120353174Y-77116524D02*
X120441358Y-77171060D01*
X120441358Y-77171060D02*
X120515996Y-77217018D01*
X120515996Y-77217018D02*
X120578935Y-77255487D01*
X120578935Y-77255487D02*
X120632018Y-77287561D01*
X120632018Y-77287561D02*
X120677093Y-77314330D01*
X120677093Y-77314330D02*
X120716002Y-77336887D01*
X120716002Y-77336887D02*
X120750592Y-77356324D01*
X120750592Y-77356324D02*
X120782707Y-77373733D01*
X120782707Y-77373733D02*
X120814194Y-77390204D01*
X120814194Y-77390204D02*
X120846896Y-77406831D01*
X120846896Y-77406831D02*
X120858788Y-77412797D01*
X120858788Y-77412797D02*
X121061818Y-77503175D01*
X121061818Y-77503175D02*
X121275513Y-77576560D01*
X121275513Y-77576560D02*
X121499320Y-77632902D01*
X121499320Y-77632902D02*
X121732689Y-77672155D01*
X121732689Y-77672155D02*
X121975068Y-77694268D01*
X121975068Y-77694268D02*
X122225907Y-77699195D01*
X122225907Y-77699195D02*
X122484654Y-77686886D01*
X122484654Y-77686886D02*
X122750758Y-77657293D01*
X122750758Y-77657293D02*
X123023669Y-77610368D01*
X123023669Y-77610368D02*
X123048680Y-77605265D01*
X123048680Y-77605265D02*
X123178434Y-77576526D01*
X123178434Y-77576526D02*
X123311406Y-77543088D01*
X123311406Y-77543088D02*
X123451340Y-77503903D01*
X123451340Y-77503903D02*
X123601982Y-77457921D01*
X123601982Y-77457921D02*
X123767075Y-77404091D01*
X123767075Y-77404091D02*
X123770040Y-77403098D01*
X123770040Y-77403098D02*
X123872829Y-77369154D01*
X123872829Y-77369154D02*
X123959006Y-77341960D01*
X123959006Y-77341960D02*
X124030942Y-77321015D01*
X124030942Y-77321015D02*
X124091009Y-77305822D01*
X124091009Y-77305822D02*
X124141578Y-77295882D01*
X124141578Y-77295882D02*
X124185020Y-77290696D01*
X124185020Y-77290696D02*
X124223706Y-77289765D01*
X124223706Y-77289765D02*
X124260009Y-77292590D01*
X124260009Y-77292590D02*
X124280607Y-77295701D01*
X124280607Y-77295701D02*
X124352939Y-77313270D01*
X124352939Y-77313270D02*
X124407642Y-77338926D01*
X124407642Y-77338926D02*
X124446506Y-77374798D01*
X124446506Y-77374798D02*
X124471319Y-77423014D01*
X124471319Y-77423014D02*
X124483871Y-77485703D01*
X124483871Y-77485703D02*
X124486320Y-77540462D01*
X124486320Y-77540462D02*
X125303965Y-77540462D01*
X125303965Y-77540462D02*
X125320188Y-77456183D01*
X125320188Y-77456183D02*
X125320665Y-77453480D01*
X125320665Y-77453480D02*
X125332687Y-77368825D01*
X125332687Y-77368825D02*
X125340833Y-77276444D01*
X125340833Y-77276444D02*
X125345059Y-77181190D01*
X125345059Y-77181190D02*
X125345319Y-77087918D01*
X125345319Y-77087918D02*
X125341568Y-77001482D01*
X125341568Y-77001482D02*
X125333760Y-76926737D01*
X125333760Y-76926737D02*
X125325984Y-76884520D01*
X125325984Y-76884520D02*
X125300480Y-76798668D01*
X125300480Y-76798668D02*
X125265049Y-76713397D01*
X125265049Y-76713397D02*
X125223127Y-76636343D01*
X125223127Y-76636343D02*
X125197112Y-76598317D01*
X125197112Y-76598317D02*
X125129701Y-76525659D01*
X125129701Y-76525659D02*
X125047178Y-76465320D01*
X125047178Y-76465320D02*
X124950936Y-76417765D01*
X124950936Y-76417765D02*
X124842368Y-76383462D01*
X124842368Y-76383462D02*
X124722867Y-76362877D01*
X124722867Y-76362877D02*
X124593826Y-76356475D01*
X124593826Y-76356475D02*
X124489427Y-76361453D01*
X124489427Y-76361453D02*
X124418760Y-76368798D01*
X124418760Y-76368798D02*
X124350498Y-76378573D01*
X124350498Y-76378573D02*
X124281032Y-76391604D01*
X124281032Y-76391604D02*
X124206753Y-76408715D01*
X124206753Y-76408715D02*
X124124051Y-76430733D01*
X124124051Y-76430733D02*
X124029319Y-76458483D01*
X124029319Y-76458483D02*
X123928514Y-76489760D01*
X123928514Y-76489760D02*
X123697539Y-76560809D01*
X123697539Y-76560809D02*
X123482949Y-76622507D01*
X123482949Y-76622507D02*
X123283198Y-76675057D01*
X123283198Y-76675057D02*
X123096738Y-76718662D01*
X123096738Y-76718662D02*
X122922022Y-76753526D01*
X122922022Y-76753526D02*
X122757503Y-76779853D01*
X122757503Y-76779853D02*
X122601633Y-76797847D01*
X122601633Y-76797847D02*
X122452865Y-76807710D01*
X122452865Y-76807710D02*
X122309652Y-76809648D01*
X122309652Y-76809648D02*
X122170446Y-76803862D01*
X122170446Y-76803862D02*
X122033700Y-76790557D01*
X122033700Y-76790557D02*
X121897867Y-76769937D01*
X121897867Y-76769937D02*
X121857073Y-76762357D01*
X121857073Y-76762357D02*
X121767621Y-76743775D01*
X121767621Y-76743775D02*
X121682205Y-76723089D01*
X121682205Y-76723089D02*
X121598949Y-76699454D01*
X121598949Y-76699454D02*
X121515981Y-76672025D01*
X121515981Y-76672025D02*
X121431426Y-76639956D01*
X121431426Y-76639956D02*
X121343411Y-76602402D01*
X121343411Y-76602402D02*
X121250062Y-76558517D01*
X121250062Y-76558517D02*
X121149504Y-76507457D01*
X121149504Y-76507457D02*
X121039865Y-76448374D01*
X121039865Y-76448374D02*
X120919269Y-76380425D01*
X120919269Y-76380425D02*
X120785843Y-76302764D01*
X120785843Y-76302764D02*
X120637714Y-76214544D01*
X120637714Y-76214544D02*
X120622276Y-76205263D01*
X120622276Y-76205263D02*
X120462436Y-76109510D01*
X120462436Y-76109510D02*
X120317822Y-76023818D01*
X120317822Y-76023818D02*
X120186603Y-75947199D01*
X120186603Y-75947199D02*
X120066951Y-75878667D01*
X120066951Y-75878667D02*
X119957036Y-75817235D01*
X119957036Y-75817235D02*
X119855028Y-75761916D01*
X119855028Y-75761916D02*
X119759099Y-75711724D01*
X119759099Y-75711724D02*
X119667419Y-75665672D01*
X119667419Y-75665672D02*
X119578158Y-75622772D01*
X119578158Y-75622772D02*
X119489488Y-75582037D01*
X119489488Y-75582037D02*
X119399579Y-75542482D01*
X119399579Y-75542482D02*
X119370760Y-75530131D01*
X119370760Y-75530131D02*
X119063154Y-75410055D01*
X119063154Y-75410055D02*
X118747944Y-75308540D01*
X118747944Y-75308540D02*
X118426050Y-75225703D01*
X118426050Y-75225703D02*
X118098393Y-75161658D01*
X118098393Y-75161658D02*
X117765892Y-75116522D01*
X117765892Y-75116522D02*
X117429468Y-75090409D01*
X117429468Y-75090409D02*
X117090039Y-75083435D01*
X117090039Y-75083435D02*
X116748527Y-75095717D01*
X116748527Y-75095717D02*
X116748527Y-75095717D01*
G36*
X120262927Y-90508694D02*
G01*
X120197192Y-90602705D01*
X120131654Y-90695738D01*
X120067930Y-90785540D01*
X120007634Y-90869857D01*
X119952382Y-90946438D01*
X119903789Y-91013028D01*
X119863470Y-91067375D01*
X119833040Y-91107225D01*
X119761492Y-91197388D01*
X119583538Y-91410948D01*
X119408171Y-91605680D01*
X119234490Y-91782389D01*
X119061594Y-91941880D01*
X118888582Y-92084959D01*
X118714553Y-92212429D01*
X118538606Y-92325097D01*
X118359840Y-92423768D01*
X118224974Y-92488633D01*
X118067839Y-92553671D01*
X117909165Y-92607238D01*
X117744500Y-92650644D01*
X117569395Y-92685197D01*
X117379400Y-92712207D01*
X117347528Y-92714773D01*
X117294588Y-92716756D01*
X117229371Y-92717650D01*
X117156224Y-92717519D01*
X117079492Y-92716429D01*
X117003521Y-92714447D01*
X116932658Y-92711637D01*
X116871248Y-92708066D01*
X116823638Y-92703799D01*
X116702834Y-92686827D01*
X116479524Y-92640083D01*
X116259831Y-92573757D01*
X116043594Y-92487765D01*
X115830654Y-92382024D01*
X115620850Y-92256450D01*
X115414021Y-92110960D01*
X115210008Y-91945470D01*
X115008649Y-91759898D01*
X114932260Y-91683546D01*
X114841063Y-91587817D01*
X114749269Y-91486223D01*
X114655699Y-91377286D01*
X114559173Y-91259532D01*
X114458513Y-91131486D01*
X114352538Y-90991671D01*
X114240068Y-90838613D01*
X114119925Y-90670835D01*
X113990928Y-90486863D01*
X113840788Y-90270812D01*
X115212793Y-90270812D01*
X115219177Y-90285186D01*
X115236825Y-90312250D01*
X115264192Y-90350037D01*
X115299733Y-90396584D01*
X115341904Y-90449926D01*
X115389160Y-90508099D01*
X115439955Y-90569139D01*
X115492746Y-90631080D01*
X115545986Y-90691960D01*
X115585455Y-90735478D01*
X115645346Y-90798972D01*
X115711214Y-90866532D01*
X115779802Y-90934960D01*
X115847851Y-91001058D01*
X115912102Y-91061628D01*
X115969297Y-91113472D01*
X116016177Y-91153393D01*
X116089037Y-91209826D01*
X116217196Y-91298494D01*
X116349631Y-91378031D01*
X116481514Y-91445624D01*
X116608020Y-91498458D01*
X116639513Y-91509106D01*
X116693773Y-91525442D01*
X116753738Y-91541806D01*
X116811220Y-91555882D01*
X116871380Y-91567447D01*
X116967931Y-91579749D01*
X117071474Y-91586971D01*
X117175410Y-91588874D01*
X117273142Y-91585219D01*
X117358070Y-91575764D01*
X117455545Y-91556858D01*
X117616085Y-91512013D01*
X117774458Y-91450171D01*
X117931359Y-91370883D01*
X118087482Y-91273700D01*
X118243523Y-91158173D01*
X118400176Y-91023854D01*
X118558137Y-90870292D01*
X118718100Y-90697040D01*
X118721212Y-90693500D01*
X118777462Y-90628706D01*
X118832494Y-90563900D01*
X118884791Y-90500997D01*
X118932832Y-90441912D01*
X118975101Y-90388561D01*
X119010079Y-90342856D01*
X119036248Y-90306715D01*
X119052089Y-90282050D01*
X119056084Y-90270778D01*
X119051107Y-90267267D01*
X119030048Y-90262165D01*
X118999837Y-90260160D01*
X118976340Y-90259309D01*
X118932933Y-90254723D01*
X118878384Y-90245900D01*
X118811317Y-90232541D01*
X118730354Y-90214347D01*
X118634119Y-90191018D01*
X118521233Y-90162255D01*
X118390320Y-90127760D01*
X118301521Y-90104252D01*
X118156237Y-90066841D01*
X118026080Y-90034955D01*
X117908367Y-90008086D01*
X117800414Y-89985725D01*
X117699535Y-89967364D01*
X117603048Y-89952494D01*
X117508266Y-89940608D01*
X117412506Y-89931197D01*
X117313084Y-89923752D01*
X117200926Y-89918467D01*
X117079977Y-89917561D01*
X116957562Y-89921973D01*
X116831517Y-89932009D01*
X116699679Y-89947976D01*
X116559885Y-89970181D01*
X116409970Y-89998932D01*
X116247772Y-90034535D01*
X116071126Y-90077298D01*
X115877871Y-90127529D01*
X115796501Y-90149181D01*
X115694819Y-90175838D01*
X115608960Y-90197733D01*
X115536733Y-90215357D01*
X115475953Y-90229202D01*
X115424430Y-90239760D01*
X115379978Y-90247523D01*
X115340407Y-90252983D01*
X115303530Y-90256631D01*
X115296720Y-90257196D01*
X115258607Y-90261112D01*
X115228877Y-90265374D01*
X115213479Y-90269156D01*
X115212793Y-90270812D01*
X113840788Y-90270812D01*
X113651631Y-89998615D01*
X113534316Y-89940322D01*
X113458496Y-89902179D01*
X113116657Y-89717923D01*
X112791236Y-89521726D01*
X112482268Y-89313637D01*
X112189788Y-89093708D01*
X111913832Y-88861987D01*
X111654435Y-88618524D01*
X111411634Y-88363369D01*
X111185464Y-88096570D01*
X110975960Y-87818179D01*
X110783158Y-87528245D01*
X110607093Y-87226816D01*
X110447802Y-86913943D01*
X110305320Y-86589676D01*
X110179682Y-86254064D01*
X110070925Y-85907157D01*
X109979083Y-85549004D01*
X109904192Y-85179655D01*
X109846288Y-84799160D01*
X109839858Y-84747855D01*
X109816868Y-84541037D01*
X109799257Y-84337465D01*
X109786789Y-84132513D01*
X109779227Y-83921555D01*
X109776334Y-83699965D01*
X109777873Y-83463120D01*
X109778657Y-83411850D01*
X109780187Y-83321818D01*
X109781865Y-83241222D01*
X109783847Y-83167363D01*
X109786285Y-83097545D01*
X109789334Y-83029070D01*
X109793148Y-82959240D01*
X109797879Y-82885358D01*
X109803681Y-82804727D01*
X109810709Y-82714649D01*
X109819116Y-82612427D01*
X109829056Y-82495363D01*
X109840682Y-82360760D01*
X109848732Y-82267650D01*
X109862171Y-82110079D01*
X109873864Y-81969443D01*
X109883944Y-81843606D01*
X109892543Y-81730434D01*
X109899797Y-81627790D01*
X109905836Y-81533539D01*
X109910796Y-81445547D01*
X109914808Y-81361678D01*
X109918007Y-81279795D01*
X109920526Y-81197765D01*
X109922497Y-81113452D01*
X109924054Y-81024720D01*
X109925519Y-80898760D01*
X109925711Y-80775140D01*
X109924245Y-80665249D01*
X109920962Y-80565645D01*
X109915707Y-80472883D01*
X109908321Y-80383522D01*
X109898649Y-80294117D01*
X109886532Y-80201226D01*
X109875622Y-80126347D01*
X109861599Y-80039995D01*
X109846255Y-79957812D01*
X109828956Y-79877930D01*
X109809068Y-79798479D01*
X109785957Y-79717593D01*
X109758987Y-79633402D01*
X109727525Y-79544038D01*
X109690936Y-79447633D01*
X109648586Y-79342318D01*
X109599840Y-79226226D01*
X109544064Y-79097487D01*
X109480624Y-78954235D01*
X109408884Y-78794600D01*
X109392013Y-78757155D01*
X109315425Y-78584117D01*
X109248019Y-78426059D01*
X109189018Y-78280791D01*
X109137642Y-78146121D01*
X109093111Y-78019859D01*
X109054646Y-77899815D01*
X109021466Y-77783798D01*
X108992794Y-77669616D01*
X108968145Y-77556440D01*
X109785402Y-77556440D01*
X109787907Y-77614783D01*
X109793071Y-77671282D01*
X109800800Y-77720608D01*
X109802005Y-77726341D01*
X109814589Y-77777449D01*
X109833027Y-77842631D01*
X109855948Y-77917632D01*
X109881982Y-77998197D01*
X109909758Y-78080070D01*
X109937907Y-78158996D01*
X109965058Y-78230720D01*
X109982581Y-78274784D01*
X110011808Y-78345869D01*
X110043679Y-78420343D01*
X110079302Y-78500653D01*
X110119786Y-78589244D01*
X110166239Y-78688565D01*
X110219770Y-78801062D01*
X110281487Y-78929182D01*
X110296347Y-78959941D01*
X110375402Y-79125988D01*
X110444929Y-79277201D01*
X110505516Y-79415901D01*
X110557749Y-79544409D01*
X110602217Y-79665049D01*
X110639508Y-79780141D01*
X110670209Y-79892008D01*
X110694908Y-80002972D01*
X110714193Y-80115354D01*
X110728653Y-80231478D01*
X110738874Y-80353663D01*
X110745444Y-80484233D01*
X110748952Y-80625510D01*
X110749985Y-80779815D01*
X110749952Y-80821249D01*
X110749751Y-80880017D01*
X110749308Y-80936145D01*
X110748552Y-80991399D01*
X110747412Y-81047541D01*
X110745817Y-81106336D01*
X110743698Y-81169545D01*
X110740984Y-81238934D01*
X110737605Y-81316265D01*
X110733489Y-81403302D01*
X110728567Y-81501809D01*
X110722768Y-81613548D01*
X110716021Y-81740284D01*
X110708257Y-81883780D01*
X110699404Y-82045800D01*
X110698881Y-82055358D01*
X110689313Y-82231235D01*
X110680899Y-82388906D01*
X110673568Y-82530346D01*
X110667248Y-82657532D01*
X110661868Y-82772438D01*
X110657357Y-82877040D01*
X110653643Y-82973313D01*
X110650655Y-83063233D01*
X110648322Y-83148775D01*
X110646571Y-83231915D01*
X110645333Y-83314628D01*
X110644534Y-83398889D01*
X110644105Y-83486675D01*
X110643974Y-83579960D01*
X110644140Y-83678216D01*
X110645092Y-83807367D01*
X110647044Y-83922279D01*
X110650171Y-84026558D01*
X110654649Y-84123811D01*
X110660655Y-84217643D01*
X110668364Y-84311662D01*
X110677952Y-84409472D01*
X110689596Y-84514680D01*
X110722472Y-84756779D01*
X110778949Y-85061481D01*
X110851526Y-85356023D01*
X110940895Y-85642363D01*
X111047750Y-85922454D01*
X111172783Y-86198253D01*
X111316689Y-86471717D01*
X111480160Y-86744800D01*
X111650549Y-87000510D01*
X111839629Y-87257284D01*
X112037633Y-87500239D01*
X112243797Y-87728731D01*
X112457359Y-87942113D01*
X112677554Y-88139738D01*
X112903620Y-88320961D01*
X113134794Y-88485135D01*
X113370311Y-88631615D01*
X113609410Y-88759754D01*
X113851326Y-88868906D01*
X114095296Y-88958426D01*
X114105067Y-88961585D01*
X114328051Y-89025571D01*
X114548400Y-89072636D01*
X114770314Y-89103368D01*
X114997994Y-89118356D01*
X115235640Y-89118189D01*
X115339437Y-89114147D01*
X115523627Y-89102180D01*
X115690567Y-89084453D01*
X115841790Y-89060750D01*
X115978825Y-89030852D01*
X116103206Y-88994540D01*
X116164949Y-88972486D01*
X116267408Y-88927399D01*
X116352546Y-88876799D01*
X116422127Y-88819354D01*
X116477918Y-88753730D01*
X116521685Y-88678594D01*
X116547258Y-88621658D01*
X116601899Y-88467820D01*
X116638147Y-88309846D01*
X116639133Y-88303843D01*
X116651102Y-88178492D01*
X116645492Y-88058368D01*
X116622002Y-87943010D01*
X116580330Y-87831957D01*
X116520174Y-87724749D01*
X116441234Y-87620925D01*
X116343207Y-87520026D01*
X116225794Y-87421590D01*
X116088692Y-87325158D01*
X115931600Y-87230269D01*
X115916874Y-87222075D01*
X115871504Y-87197518D01*
X115812725Y-87166365D01*
X115743859Y-87130350D01*
X115668228Y-87091203D01*
X115589155Y-87050657D01*
X115509960Y-87010444D01*
X115386962Y-86947504D01*
X115266258Y-86883566D01*
X115161579Y-86825342D01*
X115071428Y-86771861D01*
X114994309Y-86722155D01*
X114928724Y-86675254D01*
X114873175Y-86630188D01*
X114826166Y-86585987D01*
X114786200Y-86541682D01*
X114743453Y-86484429D01*
X114697144Y-86401129D01*
X114665394Y-86310857D01*
X114647130Y-86210319D01*
X114641280Y-86096216D01*
X114646600Y-85988919D01*
X114669393Y-85850532D01*
X114709268Y-85717872D01*
X114765285Y-85593342D01*
X114836503Y-85479347D01*
X114921983Y-85378292D01*
X114926895Y-85373395D01*
X114957409Y-85345638D01*
X114993372Y-85316114D01*
X115030641Y-85287861D01*
X115065079Y-85263919D01*
X115092544Y-85247326D01*
X115108895Y-85241120D01*
X115113914Y-85245470D01*
X115128226Y-85263814D01*
X115148768Y-85293197D01*
X115172944Y-85330020D01*
X115197551Y-85367240D01*
X115293077Y-85491090D01*
X115402907Y-85603797D01*
X115528219Y-85706357D01*
X115670191Y-85799764D01*
X115830000Y-85885014D01*
X115956006Y-85941190D01*
X116160628Y-86015059D01*
X116376469Y-86073048D01*
X116602160Y-86114749D01*
X116624350Y-86117903D01*
X116848120Y-86142206D01*
X117070224Y-86152995D01*
X117289198Y-86150609D01*
X117503573Y-86135382D01*
X117711883Y-86107654D01*
X117912662Y-86067760D01*
X118104443Y-86016039D01*
X118285759Y-85952826D01*
X118455144Y-85878460D01*
X118611132Y-85793278D01*
X118752254Y-85697616D01*
X118877045Y-85591812D01*
X118934394Y-85534462D01*
X119005564Y-85454928D01*
X119065909Y-85377260D01*
X119112037Y-85305593D01*
X119129128Y-85275416D01*
X119142213Y-85252649D01*
X119148214Y-85242652D01*
X119148840Y-85242154D01*
X119161528Y-85244960D01*
X119185587Y-85257146D01*
X119216855Y-85276070D01*
X119251169Y-85299089D01*
X119284368Y-85323561D01*
X119312290Y-85346842D01*
X119331926Y-85365534D01*
X119406981Y-85453108D01*
X119471351Y-85554773D01*
X119524331Y-85667544D01*
X119565216Y-85788438D01*
X119593301Y-85914469D01*
X119607881Y-86042654D01*
X119608251Y-86170008D01*
X119593706Y-86293547D01*
X119563540Y-86410286D01*
X119554208Y-86435750D01*
X119516515Y-86512435D01*
X119464748Y-86584819D01*
X119396007Y-86657174D01*
X119379418Y-86672567D01*
X119340716Y-86706377D01*
X119299263Y-86739356D01*
X119253316Y-86772547D01*
X119201134Y-86806995D01*
X119140974Y-86843742D01*
X119071096Y-86883834D01*
X118989758Y-86928313D01*
X118895217Y-86978223D01*
X118785732Y-87034609D01*
X118659560Y-87098514D01*
X118569083Y-87144370D01*
X118452725Y-87204591D01*
X118351559Y-87258811D01*
X118263565Y-87308302D01*
X118186721Y-87354336D01*
X118119006Y-87398185D01*
X118058399Y-87441120D01*
X118002878Y-87484415D01*
X117950424Y-87529340D01*
X117899013Y-87577169D01*
X117812182Y-87669934D01*
X117740840Y-87767806D01*
X117686319Y-87870642D01*
X117646846Y-87981280D01*
X117642435Y-87997962D01*
X117625983Y-88100721D01*
X117624297Y-88213119D01*
X117636897Y-88332005D01*
X117663305Y-88454229D01*
X117703039Y-88576638D01*
X117755621Y-88696083D01*
X117764521Y-88712816D01*
X117816446Y-88786345D01*
X117885627Y-88852363D01*
X117972301Y-88910959D01*
X118076705Y-88962220D01*
X118199073Y-89006235D01*
X118339643Y-89043090D01*
X118498650Y-89072874D01*
X118676330Y-89095675D01*
X118872920Y-89111580D01*
X118909552Y-89113670D01*
X119139210Y-89120299D01*
X119356354Y-89114566D01*
X119564414Y-89096068D01*
X119766820Y-89064404D01*
X119967001Y-89019173D01*
X120168388Y-88959973D01*
X120382307Y-88882673D01*
X120624800Y-88776416D01*
X120864262Y-88651209D01*
X121101286Y-88506712D01*
X121336467Y-88342585D01*
X121570400Y-88158489D01*
X121584483Y-88146608D01*
X121638988Y-88098445D01*
X121703547Y-88038778D01*
X121775418Y-87970349D01*
X121851858Y-87895899D01*
X121930123Y-87818172D01*
X122007472Y-87739908D01*
X122081160Y-87663849D01*
X122148446Y-87592736D01*
X122206586Y-87529313D01*
X122252838Y-87476320D01*
X122287714Y-87434486D01*
X122503137Y-87159781D01*
X122703407Y-86875394D01*
X122886841Y-86583832D01*
X123051755Y-86287600D01*
X123056019Y-86279403D01*
X123113024Y-86167347D01*
X123161881Y-86065534D01*
X123205145Y-85967956D01*
X123245371Y-85868608D01*
X123285112Y-85761486D01*
X123326922Y-85640582D01*
X123364352Y-85526075D01*
X123420615Y-85337705D01*
X123468961Y-85151850D01*
X123509941Y-84965307D01*
X123544103Y-84774873D01*
X123571996Y-84577345D01*
X123594170Y-84369518D01*
X123611174Y-84148191D01*
X123623556Y-83910160D01*
X123623859Y-83902711D01*
X123627139Y-83793297D01*
X123628685Y-83671753D01*
X123628474Y-83537270D01*
X123626478Y-83389038D01*
X123622674Y-83226248D01*
X123617036Y-83048092D01*
X123609537Y-82853759D01*
X123600154Y-82642441D01*
X123588860Y-82413328D01*
X123575630Y-82165610D01*
X123560439Y-81898480D01*
X123556366Y-81826742D01*
X123547759Y-81660101D01*
X123540296Y-81493682D01*
X123534015Y-81329489D01*
X123528954Y-81169526D01*
X123525150Y-81015797D01*
X123522642Y-80870307D01*
X123521468Y-80735060D01*
X123521666Y-80612058D01*
X123523273Y-80503308D01*
X123526327Y-80410812D01*
X123530867Y-80336575D01*
X123532644Y-80315620D01*
X123550449Y-80154633D01*
X123575460Y-80002764D01*
X123608917Y-79855138D01*
X123652065Y-79706879D01*
X123706146Y-79553111D01*
X123772402Y-79388960D01*
X123773773Y-79385756D01*
X123789508Y-79350286D01*
X123812647Y-79299622D01*
X123841901Y-79236517D01*
X123875983Y-79163726D01*
X123913602Y-79084004D01*
X123953470Y-79000104D01*
X123994298Y-78914780D01*
X124032523Y-78834980D01*
X124089759Y-78714450D01*
X124139505Y-78608080D01*
X124182853Y-78513406D01*
X124220893Y-78427959D01*
X124254718Y-78349273D01*
X124285418Y-78274883D01*
X124314084Y-78202320D01*
X124341807Y-78129120D01*
X124366525Y-78061164D01*
X124410617Y-77930108D01*
X124444281Y-77813985D01*
X124467877Y-77711319D01*
X124481770Y-77620637D01*
X124486320Y-77540462D01*
X124483871Y-77485703D01*
X124471319Y-77423014D01*
X124446506Y-77374798D01*
X124407642Y-77338926D01*
X124352939Y-77313270D01*
X124280607Y-77295701D01*
X124260009Y-77292590D01*
X124223706Y-77289765D01*
X124185020Y-77290696D01*
X124141578Y-77295882D01*
X124091009Y-77305822D01*
X124030942Y-77321015D01*
X123959006Y-77341960D01*
X123872829Y-77369154D01*
X123770040Y-77403098D01*
X123767075Y-77404091D01*
X123601982Y-77457921D01*
X123451340Y-77503903D01*
X123311406Y-77543088D01*
X123178434Y-77576526D01*
X123048680Y-77605265D01*
X123023669Y-77610368D01*
X122750758Y-77657293D01*
X122484654Y-77686886D01*
X122225907Y-77699195D01*
X121975068Y-77694268D01*
X121732689Y-77672155D01*
X121499320Y-77632902D01*
X121275513Y-77576560D01*
X121061818Y-77503175D01*
X120858788Y-77412797D01*
X120846896Y-77406831D01*
X120814194Y-77390204D01*
X120782707Y-77373733D01*
X120750592Y-77356324D01*
X120716002Y-77336887D01*
X120677093Y-77314330D01*
X120632018Y-77287561D01*
X120578935Y-77255487D01*
X120515996Y-77217018D01*
X120441358Y-77171060D01*
X120353174Y-77116524D01*
X120249600Y-77052315D01*
X120194249Y-77018010D01*
X120076556Y-76945356D01*
X119972824Y-76881831D01*
X119880848Y-76826157D01*
X119798422Y-76777056D01*
X119723342Y-76733249D01*
X119653401Y-76693458D01*
X119586393Y-76656406D01*
X119520115Y-76620814D01*
X119452359Y-76585404D01*
X119380920Y-76548898D01*
X119276548Y-76497207D01*
X119013045Y-76377546D01*
X118752613Y-76275463D01*
X118492128Y-76189995D01*
X118228467Y-76120178D01*
X117958506Y-76065047D01*
X117679120Y-76023638D01*
X117629059Y-76017832D01*
X117577689Y-76012771D01*
X117525975Y-76008839D01*
X117470586Y-76005899D01*
X117408196Y-76003811D01*
X117335474Y-76002434D01*
X117249092Y-76001629D01*
X117145720Y-76001257D01*
X117100267Y-76001242D01*
X116984256Y-76001883D01*
X116881886Y-76003489D01*
X116794823Y-76006017D01*
X116724732Y-76009421D01*
X116673280Y-76013660D01*
X116558661Y-76027492D01*
X116282713Y-76070175D01*
X116018427Y-76125371D01*
X115761905Y-76194199D01*
X115509251Y-76277775D01*
X115256567Y-76377217D01*
X114999957Y-76493644D01*
X114948374Y-76518723D01*
X114857462Y-76564078D01*
X114767828Y-76610464D01*
X114677208Y-76659172D01*
X114583337Y-76711497D01*
X114483951Y-76768731D01*
X114376785Y-76832167D01*
X114259574Y-76903099D01*
X114130054Y-76982820D01*
X113985960Y-77072621D01*
X113912453Y-77118556D01*
X113809869Y-77182210D01*
X113721091Y-77236614D01*
X113644165Y-77282908D01*
X113577134Y-77322235D01*
X113518044Y-77355734D01*
X113464939Y-77384546D01*
X113415863Y-77409813D01*
X113368862Y-77432675D01*
X113171962Y-77516042D01*
X112951485Y-77588239D01*
X112721775Y-77642511D01*
X112483022Y-77678854D01*
X112235415Y-77697260D01*
X111979143Y-77697722D01*
X111714395Y-77680235D01*
X111441360Y-77644791D01*
X111160227Y-77591384D01*
X110871185Y-77520007D01*
X110842858Y-77511999D01*
X110781800Y-77493821D01*
X110709210Y-77471361D01*
X110629923Y-77446145D01*
X110548775Y-77419700D01*
X110470600Y-77393552D01*
X110385152Y-77365020D01*
X110298282Y-77337556D01*
X110225585Y-77316822D01*
X110164529Y-77302310D01*
X110112586Y-77293514D01*
X110067225Y-77289925D01*
X110025916Y-77291036D01*
X109986130Y-77296339D01*
X109934312Y-77308720D01*
X109870685Y-77335959D01*
X109824410Y-77373459D01*
X109795637Y-77421121D01*
X109794750Y-77423649D01*
X109788731Y-77455543D01*
X109785645Y-77501583D01*
X109785402Y-77556440D01*
X108968145Y-77556440D01*
X108967849Y-77555080D01*
X108942932Y-77412670D01*
X108925187Y-77248877D01*
X108921681Y-77098146D01*
X108932358Y-76960734D01*
X108957164Y-76836899D01*
X108996044Y-76726899D01*
X109048942Y-76630991D01*
X109115805Y-76549433D01*
X109196576Y-76482483D01*
X109284009Y-76432360D01*
X109392017Y-76391276D01*
X109511353Y-76365821D01*
X109642295Y-76355991D01*
X109785123Y-76361786D01*
X109940117Y-76383201D01*
X110107557Y-76420236D01*
X110287720Y-76472887D01*
X110408940Y-76511664D01*
X110601367Y-76570826D01*
X110779444Y-76622232D01*
X110945683Y-76666508D01*
X111102596Y-76704276D01*
X111252692Y-76736162D01*
X111398483Y-76762788D01*
X111542480Y-76784780D01*
X111586359Y-76789936D01*
X111667239Y-76796340D01*
X111759150Y-76800720D01*
X111857628Y-76803078D01*
X111958207Y-76803415D01*
X112056425Y-76801733D01*
X112147815Y-76798032D01*
X112227915Y-76792314D01*
X112292259Y-76784580D01*
X112334904Y-76777358D01*
X112437958Y-76756905D01*
X112543393Y-76732329D01*
X112643657Y-76705463D01*
X112731200Y-76678138D01*
X112750156Y-76671587D01*
X112825820Y-76644098D01*
X112899296Y-76614923D01*
X112972965Y-76582856D01*
X113049208Y-76546691D01*
X113130407Y-76505221D01*
X113218943Y-76457240D01*
X113317199Y-76401542D01*
X113427555Y-76336920D01*
X113552393Y-76262168D01*
X113583043Y-76243668D01*
X113695993Y-76175568D01*
X113794148Y-76116549D01*
X113879550Y-76065408D01*
X113954244Y-76020943D01*
X114020271Y-75981951D01*
X114079676Y-75947231D01*
X114134502Y-75915580D01*
X114186791Y-75885797D01*
X114238588Y-75856678D01*
X114291934Y-75827021D01*
X114470887Y-75731313D01*
X114770397Y-75586221D01*
X115069407Y-75460546D01*
X115369256Y-75353830D01*
X115671279Y-75265614D01*
X115976815Y-75195440D01*
X116287200Y-75142849D01*
X116405851Y-75127368D01*
X116748527Y-75095717D01*
X117090039Y-75083435D01*
X117429468Y-75090409D01*
X117765892Y-75116522D01*
X118098393Y-75161658D01*
X118426050Y-75225703D01*
X118747944Y-75308540D01*
X119063154Y-75410055D01*
X119370760Y-75530131D01*
X119399579Y-75542482D01*
X119489488Y-75582037D01*
X119578158Y-75622772D01*
X119667419Y-75665672D01*
X119759099Y-75711724D01*
X119855028Y-75761916D01*
X119957036Y-75817235D01*
X120066951Y-75878667D01*
X120186603Y-75947199D01*
X120317822Y-76023818D01*
X120462436Y-76109510D01*
X120622276Y-76205263D01*
X120637714Y-76214544D01*
X120785843Y-76302764D01*
X120919269Y-76380425D01*
X121039865Y-76448374D01*
X121149504Y-76507457D01*
X121250062Y-76558517D01*
X121343411Y-76602402D01*
X121431426Y-76639956D01*
X121515981Y-76672025D01*
X121598949Y-76699454D01*
X121682205Y-76723089D01*
X121767621Y-76743775D01*
X121857073Y-76762357D01*
X121897867Y-76769937D01*
X122033700Y-76790557D01*
X122170446Y-76803862D01*
X122309652Y-76809648D01*
X122452865Y-76807710D01*
X122601633Y-76797847D01*
X122757503Y-76779853D01*
X122922022Y-76753526D01*
X123096738Y-76718662D01*
X123283198Y-76675057D01*
X123482949Y-76622507D01*
X123697539Y-76560809D01*
X123928514Y-76489760D01*
X124029319Y-76458483D01*
X124124051Y-76430733D01*
X124206753Y-76408715D01*
X124281032Y-76391604D01*
X124350498Y-76378573D01*
X124418760Y-76368798D01*
X124489427Y-76361453D01*
X124593826Y-76356475D01*
X124722867Y-76362877D01*
X124842368Y-76383462D01*
X124950936Y-76417765D01*
X125047178Y-76465320D01*
X125129701Y-76525659D01*
X125197112Y-76598317D01*
X125223127Y-76636343D01*
X125265049Y-76713397D01*
X125300480Y-76798668D01*
X125325984Y-76884520D01*
X125333760Y-76926737D01*
X125341568Y-77001482D01*
X125345319Y-77087918D01*
X125345059Y-77181190D01*
X125340833Y-77276444D01*
X125332687Y-77368825D01*
X125320665Y-77453480D01*
X125320188Y-77456183D01*
X125303965Y-77540462D01*
X125297466Y-77574228D01*
X125270951Y-77691463D01*
X125239932Y-77809929D01*
X125203701Y-77931673D01*
X125161547Y-78058737D01*
X125112759Y-78193165D01*
X125056627Y-78337001D01*
X124992443Y-78492290D01*
X124919494Y-78661075D01*
X124837072Y-78845400D01*
X124830301Y-78860344D01*
X124758128Y-79021037D01*
X124694494Y-79165869D01*
X124638739Y-79296889D01*
X124590203Y-79416148D01*
X124548227Y-79525693D01*
X124512151Y-79627575D01*
X124481315Y-79723842D01*
X124455061Y-79816543D01*
X124432728Y-79907727D01*
X124413658Y-79999444D01*
X124397189Y-80093742D01*
X124382664Y-80192671D01*
X124369422Y-80298280D01*
X124367448Y-80315424D01*
X124357593Y-80411500D01*
X124349733Y-80509245D01*
X124343909Y-80610083D01*
X124340158Y-80715435D01*
X124338522Y-80826725D01*
X124339038Y-80945375D01*
X124341746Y-81072809D01*
X124346684Y-81210448D01*
X124353893Y-81359716D01*
X124363412Y-81522035D01*
X124375279Y-81698828D01*
X124389533Y-81891518D01*
X124406214Y-82101528D01*
X124425362Y-82330280D01*
X124430629Y-82392017D01*
X124442020Y-82526765D01*
X124451786Y-82644778D01*
X124460078Y-82748525D01*
X124467045Y-82840476D01*
X124472836Y-82923102D01*
X124477601Y-82998873D01*
X124481490Y-83070259D01*
X124484651Y-83139730D01*
X124487235Y-83209758D01*
X124489391Y-83282812D01*
X124491268Y-83361362D01*
X124493017Y-83447880D01*
X124494247Y-83530466D01*
X124490292Y-83935472D01*
X124469652Y-84331918D01*
X124432412Y-84719179D01*
X124378659Y-85096631D01*
X124308479Y-85463650D01*
X124221957Y-85819611D01*
X124119179Y-86163891D01*
X124072466Y-86301338D01*
X123944366Y-86635645D01*
X123799518Y-86958459D01*
X123637955Y-87269744D01*
X123459706Y-87569466D01*
X123264803Y-87857591D01*
X123053276Y-88134084D01*
X122825156Y-88398911D01*
X122580475Y-88652036D01*
X122319262Y-88893426D01*
X122041549Y-89123046D01*
X121747367Y-89340860D01*
X121436746Y-89546835D01*
X121109718Y-89740936D01*
X120766313Y-89923129D01*
X120617782Y-89997578D01*
X120428129Y-90270778D01*
X120288911Y-90471326D01*
X120262927Y-90508694D01*
G37*
X120262927Y-90508694D02*
X120197192Y-90602705D01*
X120131654Y-90695738D01*
X120067930Y-90785540D01*
X120007634Y-90869857D01*
X119952382Y-90946438D01*
X119903789Y-91013028D01*
X119863470Y-91067375D01*
X119833040Y-91107225D01*
X119761492Y-91197388D01*
X119583538Y-91410948D01*
X119408171Y-91605680D01*
X119234490Y-91782389D01*
X119061594Y-91941880D01*
X118888582Y-92084959D01*
X118714553Y-92212429D01*
X118538606Y-92325097D01*
X118359840Y-92423768D01*
X118224974Y-92488633D01*
X118067839Y-92553671D01*
X117909165Y-92607238D01*
X117744500Y-92650644D01*
X117569395Y-92685197D01*
X117379400Y-92712207D01*
X117347528Y-92714773D01*
X117294588Y-92716756D01*
X117229371Y-92717650D01*
X117156224Y-92717519D01*
X117079492Y-92716429D01*
X117003521Y-92714447D01*
X116932658Y-92711637D01*
X116871248Y-92708066D01*
X116823638Y-92703799D01*
X116702834Y-92686827D01*
X116479524Y-92640083D01*
X116259831Y-92573757D01*
X116043594Y-92487765D01*
X115830654Y-92382024D01*
X115620850Y-92256450D01*
X115414021Y-92110960D01*
X115210008Y-91945470D01*
X115008649Y-91759898D01*
X114932260Y-91683546D01*
X114841063Y-91587817D01*
X114749269Y-91486223D01*
X114655699Y-91377286D01*
X114559173Y-91259532D01*
X114458513Y-91131486D01*
X114352538Y-90991671D01*
X114240068Y-90838613D01*
X114119925Y-90670835D01*
X113990928Y-90486863D01*
X113840788Y-90270812D01*
X115212793Y-90270812D01*
X115219177Y-90285186D01*
X115236825Y-90312250D01*
X115264192Y-90350037D01*
X115299733Y-90396584D01*
X115341904Y-90449926D01*
X115389160Y-90508099D01*
X115439955Y-90569139D01*
X115492746Y-90631080D01*
X115545986Y-90691960D01*
X115585455Y-90735478D01*
X115645346Y-90798972D01*
X115711214Y-90866532D01*
X115779802Y-90934960D01*
X115847851Y-91001058D01*
X115912102Y-91061628D01*
X115969297Y-91113472D01*
X116016177Y-91153393D01*
X116089037Y-91209826D01*
X116217196Y-91298494D01*
X116349631Y-91378031D01*
X116481514Y-91445624D01*
X116608020Y-91498458D01*
X116639513Y-91509106D01*
X116693773Y-91525442D01*
X116753738Y-91541806D01*
X116811220Y-91555882D01*
X116871380Y-91567447D01*
X116967931Y-91579749D01*
X117071474Y-91586971D01*
X117175410Y-91588874D01*
X117273142Y-91585219D01*
X117358070Y-91575764D01*
X117455545Y-91556858D01*
X117616085Y-91512013D01*
X117774458Y-91450171D01*
X117931359Y-91370883D01*
X118087482Y-91273700D01*
X118243523Y-91158173D01*
X118400176Y-91023854D01*
X118558137Y-90870292D01*
X118718100Y-90697040D01*
X118721212Y-90693500D01*
X118777462Y-90628706D01*
X118832494Y-90563900D01*
X118884791Y-90500997D01*
X118932832Y-90441912D01*
X118975101Y-90388561D01*
X119010079Y-90342856D01*
X119036248Y-90306715D01*
X119052089Y-90282050D01*
X119056084Y-90270778D01*
X119051107Y-90267267D01*
X119030048Y-90262165D01*
X118999837Y-90260160D01*
X118976340Y-90259309D01*
X118932933Y-90254723D01*
X118878384Y-90245900D01*
X118811317Y-90232541D01*
X118730354Y-90214347D01*
X118634119Y-90191018D01*
X118521233Y-90162255D01*
X118390320Y-90127760D01*
X118301521Y-90104252D01*
X118156237Y-90066841D01*
X118026080Y-90034955D01*
X117908367Y-90008086D01*
X117800414Y-89985725D01*
X117699535Y-89967364D01*
X117603048Y-89952494D01*
X117508266Y-89940608D01*
X117412506Y-89931197D01*
X117313084Y-89923752D01*
X117200926Y-89918467D01*
X117079977Y-89917561D01*
X116957562Y-89921973D01*
X116831517Y-89932009D01*
X116699679Y-89947976D01*
X116559885Y-89970181D01*
X116409970Y-89998932D01*
X116247772Y-90034535D01*
X116071126Y-90077298D01*
X115877871Y-90127529D01*
X115796501Y-90149181D01*
X115694819Y-90175838D01*
X115608960Y-90197733D01*
X115536733Y-90215357D01*
X115475953Y-90229202D01*
X115424430Y-90239760D01*
X115379978Y-90247523D01*
X115340407Y-90252983D01*
X115303530Y-90256631D01*
X115296720Y-90257196D01*
X115258607Y-90261112D01*
X115228877Y-90265374D01*
X115213479Y-90269156D01*
X115212793Y-90270812D01*
X113840788Y-90270812D01*
X113651631Y-89998615D01*
X113534316Y-89940322D01*
X113458496Y-89902179D01*
X113116657Y-89717923D01*
X112791236Y-89521726D01*
X112482268Y-89313637D01*
X112189788Y-89093708D01*
X111913832Y-88861987D01*
X111654435Y-88618524D01*
X111411634Y-88363369D01*
X111185464Y-88096570D01*
X110975960Y-87818179D01*
X110783158Y-87528245D01*
X110607093Y-87226816D01*
X110447802Y-86913943D01*
X110305320Y-86589676D01*
X110179682Y-86254064D01*
X110070925Y-85907157D01*
X109979083Y-85549004D01*
X109904192Y-85179655D01*
X109846288Y-84799160D01*
X109839858Y-84747855D01*
X109816868Y-84541037D01*
X109799257Y-84337465D01*
X109786789Y-84132513D01*
X109779227Y-83921555D01*
X109776334Y-83699965D01*
X109777873Y-83463120D01*
X109778657Y-83411850D01*
X109780187Y-83321818D01*
X109781865Y-83241222D01*
X109783847Y-83167363D01*
X109786285Y-83097545D01*
X109789334Y-83029070D01*
X109793148Y-82959240D01*
X109797879Y-82885358D01*
X109803681Y-82804727D01*
X109810709Y-82714649D01*
X109819116Y-82612427D01*
X109829056Y-82495363D01*
X109840682Y-82360760D01*
X109848732Y-82267650D01*
X109862171Y-82110079D01*
X109873864Y-81969443D01*
X109883944Y-81843606D01*
X109892543Y-81730434D01*
X109899797Y-81627790D01*
X109905836Y-81533539D01*
X109910796Y-81445547D01*
X109914808Y-81361678D01*
X109918007Y-81279795D01*
X109920526Y-81197765D01*
X109922497Y-81113452D01*
X109924054Y-81024720D01*
X109925519Y-80898760D01*
X109925711Y-80775140D01*
X109924245Y-80665249D01*
X109920962Y-80565645D01*
X109915707Y-80472883D01*
X109908321Y-80383522D01*
X109898649Y-80294117D01*
X109886532Y-80201226D01*
X109875622Y-80126347D01*
X109861599Y-80039995D01*
X109846255Y-79957812D01*
X109828956Y-79877930D01*
X109809068Y-79798479D01*
X109785957Y-79717593D01*
X109758987Y-79633402D01*
X109727525Y-79544038D01*
X109690936Y-79447633D01*
X109648586Y-79342318D01*
X109599840Y-79226226D01*
X109544064Y-79097487D01*
X109480624Y-78954235D01*
X109408884Y-78794600D01*
X109392013Y-78757155D01*
X109315425Y-78584117D01*
X109248019Y-78426059D01*
X109189018Y-78280791D01*
X109137642Y-78146121D01*
X109093111Y-78019859D01*
X109054646Y-77899815D01*
X109021466Y-77783798D01*
X108992794Y-77669616D01*
X108968145Y-77556440D01*
X109785402Y-77556440D01*
X109787907Y-77614783D01*
X109793071Y-77671282D01*
X109800800Y-77720608D01*
X109802005Y-77726341D01*
X109814589Y-77777449D01*
X109833027Y-77842631D01*
X109855948Y-77917632D01*
X109881982Y-77998197D01*
X109909758Y-78080070D01*
X109937907Y-78158996D01*
X109965058Y-78230720D01*
X109982581Y-78274784D01*
X110011808Y-78345869D01*
X110043679Y-78420343D01*
X110079302Y-78500653D01*
X110119786Y-78589244D01*
X110166239Y-78688565D01*
X110219770Y-78801062D01*
X110281487Y-78929182D01*
X110296347Y-78959941D01*
X110375402Y-79125988D01*
X110444929Y-79277201D01*
X110505516Y-79415901D01*
X110557749Y-79544409D01*
X110602217Y-79665049D01*
X110639508Y-79780141D01*
X110670209Y-79892008D01*
X110694908Y-80002972D01*
X110714193Y-80115354D01*
X110728653Y-80231478D01*
X110738874Y-80353663D01*
X110745444Y-80484233D01*
X110748952Y-80625510D01*
X110749985Y-80779815D01*
X110749952Y-80821249D01*
X110749751Y-80880017D01*
X110749308Y-80936145D01*
X110748552Y-80991399D01*
X110747412Y-81047541D01*
X110745817Y-81106336D01*
X110743698Y-81169545D01*
X110740984Y-81238934D01*
X110737605Y-81316265D01*
X110733489Y-81403302D01*
X110728567Y-81501809D01*
X110722768Y-81613548D01*
X110716021Y-81740284D01*
X110708257Y-81883780D01*
X110699404Y-82045800D01*
X110698881Y-82055358D01*
X110689313Y-82231235D01*
X110680899Y-82388906D01*
X110673568Y-82530346D01*
X110667248Y-82657532D01*
X110661868Y-82772438D01*
X110657357Y-82877040D01*
X110653643Y-82973313D01*
X110650655Y-83063233D01*
X110648322Y-83148775D01*
X110646571Y-83231915D01*
X110645333Y-83314628D01*
X110644534Y-83398889D01*
X110644105Y-83486675D01*
X110643974Y-83579960D01*
X110644140Y-83678216D01*
X110645092Y-83807367D01*
X110647044Y-83922279D01*
X110650171Y-84026558D01*
X110654649Y-84123811D01*
X110660655Y-84217643D01*
X110668364Y-84311662D01*
X110677952Y-84409472D01*
X110689596Y-84514680D01*
X110722472Y-84756779D01*
X110778949Y-85061481D01*
X110851526Y-85356023D01*
X110940895Y-85642363D01*
X111047750Y-85922454D01*
X111172783Y-86198253D01*
X111316689Y-86471717D01*
X111480160Y-86744800D01*
X111650549Y-87000510D01*
X111839629Y-87257284D01*
X112037633Y-87500239D01*
X112243797Y-87728731D01*
X112457359Y-87942113D01*
X112677554Y-88139738D01*
X112903620Y-88320961D01*
X113134794Y-88485135D01*
X113370311Y-88631615D01*
X113609410Y-88759754D01*
X113851326Y-88868906D01*
X114095296Y-88958426D01*
X114105067Y-88961585D01*
X114328051Y-89025571D01*
X114548400Y-89072636D01*
X114770314Y-89103368D01*
X114997994Y-89118356D01*
X115235640Y-89118189D01*
X115339437Y-89114147D01*
X115523627Y-89102180D01*
X115690567Y-89084453D01*
X115841790Y-89060750D01*
X115978825Y-89030852D01*
X116103206Y-88994540D01*
X116164949Y-88972486D01*
X116267408Y-88927399D01*
X116352546Y-88876799D01*
X116422127Y-88819354D01*
X116477918Y-88753730D01*
X116521685Y-88678594D01*
X116547258Y-88621658D01*
X116601899Y-88467820D01*
X116638147Y-88309846D01*
X116639133Y-88303843D01*
X116651102Y-88178492D01*
X116645492Y-88058368D01*
X116622002Y-87943010D01*
X116580330Y-87831957D01*
X116520174Y-87724749D01*
X116441234Y-87620925D01*
X116343207Y-87520026D01*
X116225794Y-87421590D01*
X116088692Y-87325158D01*
X115931600Y-87230269D01*
X115916874Y-87222075D01*
X115871504Y-87197518D01*
X115812725Y-87166365D01*
X115743859Y-87130350D01*
X115668228Y-87091203D01*
X115589155Y-87050657D01*
X115509960Y-87010444D01*
X115386962Y-86947504D01*
X115266258Y-86883566D01*
X115161579Y-86825342D01*
X115071428Y-86771861D01*
X114994309Y-86722155D01*
X114928724Y-86675254D01*
X114873175Y-86630188D01*
X114826166Y-86585987D01*
X114786200Y-86541682D01*
X114743453Y-86484429D01*
X114697144Y-86401129D01*
X114665394Y-86310857D01*
X114647130Y-86210319D01*
X114641280Y-86096216D01*
X114646600Y-85988919D01*
X114669393Y-85850532D01*
X114709268Y-85717872D01*
X114765285Y-85593342D01*
X114836503Y-85479347D01*
X114921983Y-85378292D01*
X114926895Y-85373395D01*
X114957409Y-85345638D01*
X114993372Y-85316114D01*
X115030641Y-85287861D01*
X115065079Y-85263919D01*
X115092544Y-85247326D01*
X115108895Y-85241120D01*
X115113914Y-85245470D01*
X115128226Y-85263814D01*
X115148768Y-85293197D01*
X115172944Y-85330020D01*
X115197551Y-85367240D01*
X115293077Y-85491090D01*
X115402907Y-85603797D01*
X115528219Y-85706357D01*
X115670191Y-85799764D01*
X115830000Y-85885014D01*
X115956006Y-85941190D01*
X116160628Y-86015059D01*
X116376469Y-86073048D01*
X116602160Y-86114749D01*
X116624350Y-86117903D01*
X116848120Y-86142206D01*
X117070224Y-86152995D01*
X117289198Y-86150609D01*
X117503573Y-86135382D01*
X117711883Y-86107654D01*
X117912662Y-86067760D01*
X118104443Y-86016039D01*
X118285759Y-85952826D01*
X118455144Y-85878460D01*
X118611132Y-85793278D01*
X118752254Y-85697616D01*
X118877045Y-85591812D01*
X118934394Y-85534462D01*
X119005564Y-85454928D01*
X119065909Y-85377260D01*
X119112037Y-85305593D01*
X119129128Y-85275416D01*
X119142213Y-85252649D01*
X119148214Y-85242652D01*
X119148840Y-85242154D01*
X119161528Y-85244960D01*
X119185587Y-85257146D01*
X119216855Y-85276070D01*
X119251169Y-85299089D01*
X119284368Y-85323561D01*
X119312290Y-85346842D01*
X119331926Y-85365534D01*
X119406981Y-85453108D01*
X119471351Y-85554773D01*
X119524331Y-85667544D01*
X119565216Y-85788438D01*
X119593301Y-85914469D01*
X119607881Y-86042654D01*
X119608251Y-86170008D01*
X119593706Y-86293547D01*
X119563540Y-86410286D01*
X119554208Y-86435750D01*
X119516515Y-86512435D01*
X119464748Y-86584819D01*
X119396007Y-86657174D01*
X119379418Y-86672567D01*
X119340716Y-86706377D01*
X119299263Y-86739356D01*
X119253316Y-86772547D01*
X119201134Y-86806995D01*
X119140974Y-86843742D01*
X119071096Y-86883834D01*
X118989758Y-86928313D01*
X118895217Y-86978223D01*
X118785732Y-87034609D01*
X118659560Y-87098514D01*
X118569083Y-87144370D01*
X118452725Y-87204591D01*
X118351559Y-87258811D01*
X118263565Y-87308302D01*
X118186721Y-87354336D01*
X118119006Y-87398185D01*
X118058399Y-87441120D01*
X118002878Y-87484415D01*
X117950424Y-87529340D01*
X117899013Y-87577169D01*
X117812182Y-87669934D01*
X117740840Y-87767806D01*
X117686319Y-87870642D01*
X117646846Y-87981280D01*
X117642435Y-87997962D01*
X117625983Y-88100721D01*
X117624297Y-88213119D01*
X117636897Y-88332005D01*
X117663305Y-88454229D01*
X117703039Y-88576638D01*
X117755621Y-88696083D01*
X117764521Y-88712816D01*
X117816446Y-88786345D01*
X117885627Y-88852363D01*
X117972301Y-88910959D01*
X118076705Y-88962220D01*
X118199073Y-89006235D01*
X118339643Y-89043090D01*
X118498650Y-89072874D01*
X118676330Y-89095675D01*
X118872920Y-89111580D01*
X118909552Y-89113670D01*
X119139210Y-89120299D01*
X119356354Y-89114566D01*
X119564414Y-89096068D01*
X119766820Y-89064404D01*
X119967001Y-89019173D01*
X120168388Y-88959973D01*
X120382307Y-88882673D01*
X120624800Y-88776416D01*
X120864262Y-88651209D01*
X121101286Y-88506712D01*
X121336467Y-88342585D01*
X121570400Y-88158489D01*
X121584483Y-88146608D01*
X121638988Y-88098445D01*
X121703547Y-88038778D01*
X121775418Y-87970349D01*
X121851858Y-87895899D01*
X121930123Y-87818172D01*
X122007472Y-87739908D01*
X122081160Y-87663849D01*
X122148446Y-87592736D01*
X122206586Y-87529313D01*
X122252838Y-87476320D01*
X122287714Y-87434486D01*
X122503137Y-87159781D01*
X122703407Y-86875394D01*
X122886841Y-86583832D01*
X123051755Y-86287600D01*
X123056019Y-86279403D01*
X123113024Y-86167347D01*
X123161881Y-86065534D01*
X123205145Y-85967956D01*
X123245371Y-85868608D01*
X123285112Y-85761486D01*
X123326922Y-85640582D01*
X123364352Y-85526075D01*
X123420615Y-85337705D01*
X123468961Y-85151850D01*
X123509941Y-84965307D01*
X123544103Y-84774873D01*
X123571996Y-84577345D01*
X123594170Y-84369518D01*
X123611174Y-84148191D01*
X123623556Y-83910160D01*
X123623859Y-83902711D01*
X123627139Y-83793297D01*
X123628685Y-83671753D01*
X123628474Y-83537270D01*
X123626478Y-83389038D01*
X123622674Y-83226248D01*
X123617036Y-83048092D01*
X123609537Y-82853759D01*
X123600154Y-82642441D01*
X123588860Y-82413328D01*
X123575630Y-82165610D01*
X123560439Y-81898480D01*
X123556366Y-81826742D01*
X123547759Y-81660101D01*
X123540296Y-81493682D01*
X123534015Y-81329489D01*
X123528954Y-81169526D01*
X123525150Y-81015797D01*
X123522642Y-80870307D01*
X123521468Y-80735060D01*
X123521666Y-80612058D01*
X123523273Y-80503308D01*
X123526327Y-80410812D01*
X123530867Y-80336575D01*
X123532644Y-80315620D01*
X123550449Y-80154633D01*
X123575460Y-80002764D01*
X123608917Y-79855138D01*
X123652065Y-79706879D01*
X123706146Y-79553111D01*
X123772402Y-79388960D01*
X123773773Y-79385756D01*
X123789508Y-79350286D01*
X123812647Y-79299622D01*
X123841901Y-79236517D01*
X123875983Y-79163726D01*
X123913602Y-79084004D01*
X123953470Y-79000104D01*
X123994298Y-78914780D01*
X124032523Y-78834980D01*
X124089759Y-78714450D01*
X124139505Y-78608080D01*
X124182853Y-78513406D01*
X124220893Y-78427959D01*
X124254718Y-78349273D01*
X124285418Y-78274883D01*
X124314084Y-78202320D01*
X124341807Y-78129120D01*
X124366525Y-78061164D01*
X124410617Y-77930108D01*
X124444281Y-77813985D01*
X124467877Y-77711319D01*
X124481770Y-77620637D01*
X124486320Y-77540462D01*
X124483871Y-77485703D01*
X124471319Y-77423014D01*
X124446506Y-77374798D01*
X124407642Y-77338926D01*
X124352939Y-77313270D01*
X124280607Y-77295701D01*
X124260009Y-77292590D01*
X124223706Y-77289765D01*
X124185020Y-77290696D01*
X124141578Y-77295882D01*
X124091009Y-77305822D01*
X124030942Y-77321015D01*
X123959006Y-77341960D01*
X123872829Y-77369154D01*
X123770040Y-77403098D01*
X123767075Y-77404091D01*
X123601982Y-77457921D01*
X123451340Y-77503903D01*
X123311406Y-77543088D01*
X123178434Y-77576526D01*
X123048680Y-77605265D01*
X123023669Y-77610368D01*
X122750758Y-77657293D01*
X122484654Y-77686886D01*
X122225907Y-77699195D01*
X121975068Y-77694268D01*
X121732689Y-77672155D01*
X121499320Y-77632902D01*
X121275513Y-77576560D01*
X121061818Y-77503175D01*
X120858788Y-77412797D01*
X120846896Y-77406831D01*
X120814194Y-77390204D01*
X120782707Y-77373733D01*
X120750592Y-77356324D01*
X120716002Y-77336887D01*
X120677093Y-77314330D01*
X120632018Y-77287561D01*
X120578935Y-77255487D01*
X120515996Y-77217018D01*
X120441358Y-77171060D01*
X120353174Y-77116524D01*
X120249600Y-77052315D01*
X120194249Y-77018010D01*
X120076556Y-76945356D01*
X119972824Y-76881831D01*
X119880848Y-76826157D01*
X119798422Y-76777056D01*
X119723342Y-76733249D01*
X119653401Y-76693458D01*
X119586393Y-76656406D01*
X119520115Y-76620814D01*
X119452359Y-76585404D01*
X119380920Y-76548898D01*
X119276548Y-76497207D01*
X119013045Y-76377546D01*
X118752613Y-76275463D01*
X118492128Y-76189995D01*
X118228467Y-76120178D01*
X117958506Y-76065047D01*
X117679120Y-76023638D01*
X117629059Y-76017832D01*
X117577689Y-76012771D01*
X117525975Y-76008839D01*
X117470586Y-76005899D01*
X117408196Y-76003811D01*
X117335474Y-76002434D01*
X117249092Y-76001629D01*
X117145720Y-76001257D01*
X117100267Y-76001242D01*
X116984256Y-76001883D01*
X116881886Y-76003489D01*
X116794823Y-76006017D01*
X116724732Y-76009421D01*
X116673280Y-76013660D01*
X116558661Y-76027492D01*
X116282713Y-76070175D01*
X116018427Y-76125371D01*
X115761905Y-76194199D01*
X115509251Y-76277775D01*
X115256567Y-76377217D01*
X114999957Y-76493644D01*
X114948374Y-76518723D01*
X114857462Y-76564078D01*
X114767828Y-76610464D01*
X114677208Y-76659172D01*
X114583337Y-76711497D01*
X114483951Y-76768731D01*
X114376785Y-76832167D01*
X114259574Y-76903099D01*
X114130054Y-76982820D01*
X113985960Y-77072621D01*
X113912453Y-77118556D01*
X113809869Y-77182210D01*
X113721091Y-77236614D01*
X113644165Y-77282908D01*
X113577134Y-77322235D01*
X113518044Y-77355734D01*
X113464939Y-77384546D01*
X113415863Y-77409813D01*
X113368862Y-77432675D01*
X113171962Y-77516042D01*
X112951485Y-77588239D01*
X112721775Y-77642511D01*
X112483022Y-77678854D01*
X112235415Y-77697260D01*
X111979143Y-77697722D01*
X111714395Y-77680235D01*
X111441360Y-77644791D01*
X111160227Y-77591384D01*
X110871185Y-77520007D01*
X110842858Y-77511999D01*
X110781800Y-77493821D01*
X110709210Y-77471361D01*
X110629923Y-77446145D01*
X110548775Y-77419700D01*
X110470600Y-77393552D01*
X110385152Y-77365020D01*
X110298282Y-77337556D01*
X110225585Y-77316822D01*
X110164529Y-77302310D01*
X110112586Y-77293514D01*
X110067225Y-77289925D01*
X110025916Y-77291036D01*
X109986130Y-77296339D01*
X109934312Y-77308720D01*
X109870685Y-77335959D01*
X109824410Y-77373459D01*
X109795637Y-77421121D01*
X109794750Y-77423649D01*
X109788731Y-77455543D01*
X109785645Y-77501583D01*
X109785402Y-77556440D01*
X108968145Y-77556440D01*
X108967849Y-77555080D01*
X108942932Y-77412670D01*
X108925187Y-77248877D01*
X108921681Y-77098146D01*
X108932358Y-76960734D01*
X108957164Y-76836899D01*
X108996044Y-76726899D01*
X109048942Y-76630991D01*
X109115805Y-76549433D01*
X109196576Y-76482483D01*
X109284009Y-76432360D01*
X109392017Y-76391276D01*
X109511353Y-76365821D01*
X109642295Y-76355991D01*
X109785123Y-76361786D01*
X109940117Y-76383201D01*
X110107557Y-76420236D01*
X110287720Y-76472887D01*
X110408940Y-76511664D01*
X110601367Y-76570826D01*
X110779444Y-76622232D01*
X110945683Y-76666508D01*
X111102596Y-76704276D01*
X111252692Y-76736162D01*
X111398483Y-76762788D01*
X111542480Y-76784780D01*
X111586359Y-76789936D01*
X111667239Y-76796340D01*
X111759150Y-76800720D01*
X111857628Y-76803078D01*
X111958207Y-76803415D01*
X112056425Y-76801733D01*
X112147815Y-76798032D01*
X112227915Y-76792314D01*
X112292259Y-76784580D01*
X112334904Y-76777358D01*
X112437958Y-76756905D01*
X112543393Y-76732329D01*
X112643657Y-76705463D01*
X112731200Y-76678138D01*
X112750156Y-76671587D01*
X112825820Y-76644098D01*
X112899296Y-76614923D01*
X112972965Y-76582856D01*
X113049208Y-76546691D01*
X113130407Y-76505221D01*
X113218943Y-76457240D01*
X113317199Y-76401542D01*
X113427555Y-76336920D01*
X113552393Y-76262168D01*
X113583043Y-76243668D01*
X113695993Y-76175568D01*
X113794148Y-76116549D01*
X113879550Y-76065408D01*
X113954244Y-76020943D01*
X114020271Y-75981951D01*
X114079676Y-75947231D01*
X114134502Y-75915580D01*
X114186791Y-75885797D01*
X114238588Y-75856678D01*
X114291934Y-75827021D01*
X114470887Y-75731313D01*
X114770397Y-75586221D01*
X115069407Y-75460546D01*
X115369256Y-75353830D01*
X115671279Y-75265614D01*
X115976815Y-75195440D01*
X116287200Y-75142849D01*
X116405851Y-75127368D01*
X116748527Y-75095717D01*
X117090039Y-75083435D01*
X117429468Y-75090409D01*
X117765892Y-75116522D01*
X118098393Y-75161658D01*
X118426050Y-75225703D01*
X118747944Y-75308540D01*
X119063154Y-75410055D01*
X119370760Y-75530131D01*
X119399579Y-75542482D01*
X119489488Y-75582037D01*
X119578158Y-75622772D01*
X119667419Y-75665672D01*
X119759099Y-75711724D01*
X119855028Y-75761916D01*
X119957036Y-75817235D01*
X120066951Y-75878667D01*
X120186603Y-75947199D01*
X120317822Y-76023818D01*
X120462436Y-76109510D01*
X120622276Y-76205263D01*
X120637714Y-76214544D01*
X120785843Y-76302764D01*
X120919269Y-76380425D01*
X121039865Y-76448374D01*
X121149504Y-76507457D01*
X121250062Y-76558517D01*
X121343411Y-76602402D01*
X121431426Y-76639956D01*
X121515981Y-76672025D01*
X121598949Y-76699454D01*
X121682205Y-76723089D01*
X121767621Y-76743775D01*
X121857073Y-76762357D01*
X121897867Y-76769937D01*
X122033700Y-76790557D01*
X122170446Y-76803862D01*
X122309652Y-76809648D01*
X122452865Y-76807710D01*
X122601633Y-76797847D01*
X122757503Y-76779853D01*
X122922022Y-76753526D01*
X123096738Y-76718662D01*
X123283198Y-76675057D01*
X123482949Y-76622507D01*
X123697539Y-76560809D01*
X123928514Y-76489760D01*
X124029319Y-76458483D01*
X124124051Y-76430733D01*
X124206753Y-76408715D01*
X124281032Y-76391604D01*
X124350498Y-76378573D01*
X124418760Y-76368798D01*
X124489427Y-76361453D01*
X124593826Y-76356475D01*
X124722867Y-76362877D01*
X124842368Y-76383462D01*
X124950936Y-76417765D01*
X125047178Y-76465320D01*
X125129701Y-76525659D01*
X125197112Y-76598317D01*
X125223127Y-76636343D01*
X125265049Y-76713397D01*
X125300480Y-76798668D01*
X125325984Y-76884520D01*
X125333760Y-76926737D01*
X125341568Y-77001482D01*
X125345319Y-77087918D01*
X125345059Y-77181190D01*
X125340833Y-77276444D01*
X125332687Y-77368825D01*
X125320665Y-77453480D01*
X125320188Y-77456183D01*
X125303965Y-77540462D01*
X125297466Y-77574228D01*
X125270951Y-77691463D01*
X125239932Y-77809929D01*
X125203701Y-77931673D01*
X125161547Y-78058737D01*
X125112759Y-78193165D01*
X125056627Y-78337001D01*
X124992443Y-78492290D01*
X124919494Y-78661075D01*
X124837072Y-78845400D01*
X124830301Y-78860344D01*
X124758128Y-79021037D01*
X124694494Y-79165869D01*
X124638739Y-79296889D01*
X124590203Y-79416148D01*
X124548227Y-79525693D01*
X124512151Y-79627575D01*
X124481315Y-79723842D01*
X124455061Y-79816543D01*
X124432728Y-79907727D01*
X124413658Y-79999444D01*
X124397189Y-80093742D01*
X124382664Y-80192671D01*
X124369422Y-80298280D01*
X124367448Y-80315424D01*
X124357593Y-80411500D01*
X124349733Y-80509245D01*
X124343909Y-80610083D01*
X124340158Y-80715435D01*
X124338522Y-80826725D01*
X124339038Y-80945375D01*
X124341746Y-81072809D01*
X124346684Y-81210448D01*
X124353893Y-81359716D01*
X124363412Y-81522035D01*
X124375279Y-81698828D01*
X124389533Y-81891518D01*
X124406214Y-82101528D01*
X124425362Y-82330280D01*
X124430629Y-82392017D01*
X124442020Y-82526765D01*
X124451786Y-82644778D01*
X124460078Y-82748525D01*
X124467045Y-82840476D01*
X124472836Y-82923102D01*
X124477601Y-82998873D01*
X124481490Y-83070259D01*
X124484651Y-83139730D01*
X124487235Y-83209758D01*
X124489391Y-83282812D01*
X124491268Y-83361362D01*
X124493017Y-83447880D01*
X124494247Y-83530466D01*
X124490292Y-83935472D01*
X124469652Y-84331918D01*
X124432412Y-84719179D01*
X124378659Y-85096631D01*
X124308479Y-85463650D01*
X124221957Y-85819611D01*
X124119179Y-86163891D01*
X124072466Y-86301338D01*
X123944366Y-86635645D01*
X123799518Y-86958459D01*
X123637955Y-87269744D01*
X123459706Y-87569466D01*
X123264803Y-87857591D01*
X123053276Y-88134084D01*
X122825156Y-88398911D01*
X122580475Y-88652036D01*
X122319262Y-88893426D01*
X122041549Y-89123046D01*
X121747367Y-89340860D01*
X121436746Y-89546835D01*
X121109718Y-89740936D01*
X120766313Y-89923129D01*
X120617782Y-89997578D01*
X120428129Y-90270778D01*
X120288911Y-90471326D01*
X120262927Y-90508694D01*
D12*
X132500000Y-93000000D02*
X135300000Y-93000000D01*
X132500000Y-91000000D02*
X132500000Y-93000000D01*
X135300000Y-91000000D02*
X132500000Y-91000000D01*
X135300000Y-93000000D02*
X135300000Y-91000000D01*
X132500000Y-88400000D02*
X132500000Y-90400000D01*
X132500000Y-90400000D02*
X135300000Y-90400000D01*
X135300000Y-90400000D02*
X135300000Y-88400000D01*
X135300000Y-88400000D02*
X132500000Y-88400000D01*
X138687836Y-107460000D02*
X138472164Y-107460000D01*
X138687836Y-106740000D02*
X138472164Y-106740000D01*
X134760000Y-118992164D02*
X134760000Y-119207836D01*
X134040000Y-118992164D02*
X134040000Y-119207836D01*
X139450000Y-113700000D02*
X135550000Y-113700000D01*
X139450000Y-111700000D02*
X135550000Y-111700000D01*
X139450000Y-111700000D02*
X139450000Y-113700000D01*
X142353641Y-114880000D02*
X142046359Y-114880000D01*
X142353641Y-114120000D02*
X142046359Y-114120000D01*
%LPC*%
D16*
X139000000Y-111010000D03*
X139000000Y-109990000D03*
D17*
X133250000Y-86700000D03*
X134550000Y-86700000D03*
D18*
X143900000Y-106020000D03*
X143900000Y-106980000D03*
D19*
X148800000Y-113880000D03*
X148800000Y-112920000D03*
D20*
X153400000Y-119700000D03*
D21*
X152400000Y-119700000D03*
X151400000Y-119700000D03*
X150400000Y-119700000D03*
X149400000Y-119700000D03*
X148400000Y-119700000D03*
X147400000Y-119700000D03*
X146400000Y-119700000D03*
X145400000Y-119700000D03*
X144400000Y-119700000D03*
D19*
X137900000Y-110980000D03*
X137900000Y-110020000D03*
D22*
X142475000Y-112838000D03*
X141825000Y-112838000D03*
X141175000Y-112838000D03*
X140525000Y-112838000D03*
X140525000Y-106962000D03*
X141175000Y-106962000D03*
X141825000Y-106962000D03*
X142475000Y-106962000D03*
D23*
X149950000Y-115012500D03*
X149950000Y-115512500D03*
X149950000Y-116012500D03*
X149950000Y-116512500D03*
X147850000Y-116512500D03*
X147850000Y-116012500D03*
X147850000Y-115512500D03*
X147850000Y-115012500D03*
D24*
X148900000Y-115762500D03*
D25*
X139110000Y-106000000D03*
X138090000Y-106000000D03*
D26*
X139500000Y-117000000D03*
X136700000Y-117000000D03*
D18*
X149800000Y-112920000D03*
X149800000Y-113880000D03*
D17*
X133250000Y-94800000D03*
X134550000Y-94800000D03*
D19*
X136800000Y-110980000D03*
X136800000Y-110020000D03*
X147800000Y-113880000D03*
X147800000Y-112920000D03*
D17*
X133250000Y-92000000D03*
X134550000Y-92000000D03*
X133250000Y-89400000D03*
X134550000Y-89400000D03*
D27*
X139060000Y-107100000D03*
X138100000Y-107100000D03*
D18*
X134400000Y-118620000D03*
X134400000Y-119580000D03*
D28*
X138850000Y-112700000D03*
X135550000Y-112700000D03*
D25*
X142710000Y-114500000D03*
X141690000Y-114500000D03*
G36*
X154059191Y-86018907D02*
G01*
X154095155Y-86068407D01*
X154100000Y-86099000D01*
X154100000Y-88901000D01*
X154081093Y-88959191D01*
X154031593Y-88995155D01*
X154001000Y-89000000D01*
X153199000Y-89000000D01*
X153140809Y-88981093D01*
X153104845Y-88931593D01*
X153100000Y-88901000D01*
X153100000Y-86099000D01*
X153118907Y-86040809D01*
X153168407Y-86004845D01*
X153199000Y-86000000D01*
X154001000Y-86000000D01*
X154059191Y-86018907D01*
G37*
G36*
X116659191Y-73018907D02*
G01*
X116695155Y-73068407D01*
X116700000Y-73099000D01*
X116700000Y-73901000D01*
X116681093Y-73959191D01*
X116631593Y-73995155D01*
X116601000Y-74000000D01*
X113799000Y-74000000D01*
X113740809Y-73981093D01*
X113704845Y-73931593D01*
X113700000Y-73901000D01*
X113700000Y-73099000D01*
X113718907Y-73040809D01*
X113768407Y-73004845D01*
X113799000Y-73000000D01*
X116601000Y-73000000D01*
X116659191Y-73018907D01*
G37*
G36*
X154059191Y-104418907D02*
G01*
X154095155Y-104468407D01*
X154100000Y-104499000D01*
X154100000Y-107301000D01*
X154081093Y-107359191D01*
X154031593Y-107395155D01*
X154001000Y-107400000D01*
X153199000Y-107400000D01*
X153140809Y-107381093D01*
X153104845Y-107331593D01*
X153100000Y-107301000D01*
X153100000Y-104499000D01*
X153118907Y-104440809D01*
X153168407Y-104404845D01*
X153199000Y-104400000D01*
X154001000Y-104400000D01*
X154059191Y-104418907D01*
G37*
G36*
X110659191Y-73018907D02*
G01*
X110695155Y-73068407D01*
X110700000Y-73099000D01*
X110700000Y-73901000D01*
X110681093Y-73959191D01*
X110631593Y-73995155D01*
X110601000Y-74000000D01*
X107715680Y-74000000D01*
X107702995Y-74004122D01*
X107700000Y-74008243D01*
X107700000Y-76901000D01*
X107681093Y-76959191D01*
X107631593Y-76995155D01*
X107601000Y-77000000D01*
X106799000Y-77000000D01*
X106740809Y-76981093D01*
X106704845Y-76931593D01*
X106700000Y-76901000D01*
X106700000Y-73099000D01*
X106718907Y-73040809D01*
X106768407Y-73004845D01*
X106799000Y-73000000D01*
X110601000Y-73000000D01*
X110659191Y-73018907D01*
G37*
G36*
X146659191Y-73018907D02*
G01*
X146695155Y-73068407D01*
X146700000Y-73099000D01*
X146700000Y-73901000D01*
X146681093Y-73959191D01*
X146631593Y-73995155D01*
X146601000Y-74000000D01*
X143799000Y-74000000D01*
X143740809Y-73981093D01*
X143704845Y-73931593D01*
X143700000Y-73901000D01*
X143700000Y-73099000D01*
X143718907Y-73040809D01*
X143768407Y-73004845D01*
X143799000Y-73000000D01*
X146601000Y-73000000D01*
X146659191Y-73018907D01*
G37*
G36*
X107659191Y-104418907D02*
G01*
X107695155Y-104468407D01*
X107700000Y-104499000D01*
X107700000Y-107301000D01*
X107681093Y-107359191D01*
X107631593Y-107395155D01*
X107601000Y-107400000D01*
X106799000Y-107400000D01*
X106740809Y-107381093D01*
X106704845Y-107331593D01*
X106700000Y-107301000D01*
X106700000Y-104499000D01*
X106718907Y-104440809D01*
X106768407Y-104404845D01*
X106799000Y-104400000D01*
X107601000Y-104400000D01*
X107659191Y-104418907D01*
G37*
G36*
X154059191Y-92018907D02*
G01*
X154095155Y-92068407D01*
X154100000Y-92099000D01*
X154100000Y-94901000D01*
X154081093Y-94959191D01*
X154031593Y-94995155D01*
X154001000Y-95000000D01*
X153199000Y-95000000D01*
X153140809Y-94981093D01*
X153104845Y-94931593D01*
X153100000Y-94901000D01*
X153100000Y-92099000D01*
X153118907Y-92040809D01*
X153168407Y-92004845D01*
X153199000Y-92000000D01*
X154001000Y-92000000D01*
X154059191Y-92018907D01*
G37*
G36*
X128659191Y-73018907D02*
G01*
X128695155Y-73068407D01*
X128700000Y-73099000D01*
X128700000Y-73901000D01*
X128681093Y-73959191D01*
X128631593Y-73995155D01*
X128601000Y-74000000D01*
X125799000Y-74000000D01*
X125740809Y-73981093D01*
X125704845Y-73931593D01*
X125700000Y-73901000D01*
X125700000Y-73099000D01*
X125718907Y-73040809D01*
X125768407Y-73004845D01*
X125799000Y-73000000D01*
X128601000Y-73000000D01*
X128659191Y-73018907D01*
G37*
G36*
X107659191Y-80018907D02*
G01*
X107695155Y-80068407D01*
X107700000Y-80099000D01*
X107700000Y-82901000D01*
X107681093Y-82959191D01*
X107631593Y-82995155D01*
X107601000Y-83000000D01*
X106799000Y-83000000D01*
X106740809Y-82981093D01*
X106704845Y-82931593D01*
X106700000Y-82901000D01*
X106700000Y-80099000D01*
X106718907Y-80040809D01*
X106768407Y-80004845D01*
X106799000Y-80000000D01*
X107601000Y-80000000D01*
X107659191Y-80018907D01*
G37*
G36*
X128659191Y-119418907D02*
G01*
X128695155Y-119468407D01*
X128700000Y-119499000D01*
X128700000Y-120301000D01*
X128681093Y-120359191D01*
X128631593Y-120395155D01*
X128601000Y-120400000D01*
X125799000Y-120400000D01*
X125740809Y-120381093D01*
X125704845Y-120331593D01*
X125700000Y-120301000D01*
X125700000Y-119499000D01*
X125718907Y-119440809D01*
X125768407Y-119404845D01*
X125799000Y-119400000D01*
X128601000Y-119400000D01*
X128659191Y-119418907D01*
G37*
G36*
X116659191Y-119418907D02*
G01*
X116695155Y-119468407D01*
X116700000Y-119499000D01*
X116700000Y-120301000D01*
X116681093Y-120359191D01*
X116631593Y-120395155D01*
X116601000Y-120400000D01*
X113799000Y-120400000D01*
X113740809Y-120381093D01*
X113704845Y-120331593D01*
X113700000Y-120301000D01*
X113700000Y-119499000D01*
X113718907Y-119440809D01*
X113768407Y-119404845D01*
X113799000Y-119400000D01*
X116601000Y-119400000D01*
X116659191Y-119418907D01*
G37*
G36*
X122659191Y-119418907D02*
G01*
X122695155Y-119468407D01*
X122700000Y-119499000D01*
X122700000Y-120301000D01*
X122681093Y-120359191D01*
X122631593Y-120395155D01*
X122601000Y-120400000D01*
X119799000Y-120400000D01*
X119740809Y-120381093D01*
X119704845Y-120331593D01*
X119700000Y-120301000D01*
X119700000Y-119499000D01*
X119718907Y-119440809D01*
X119768407Y-119404845D01*
X119799000Y-119400000D01*
X122601000Y-119400000D01*
X122659191Y-119418907D01*
G37*
G36*
X154059191Y-98018907D02*
G01*
X154095155Y-98068407D01*
X154100000Y-98099000D01*
X154100000Y-100901000D01*
X154081093Y-100959191D01*
X154031593Y-100995155D01*
X154001000Y-101000000D01*
X153199000Y-101000000D01*
X153140809Y-100981093D01*
X153104845Y-100931593D01*
X153100000Y-100901000D01*
X153100000Y-98099000D01*
X153118907Y-98040809D01*
X153168407Y-98004845D01*
X153199000Y-98000000D01*
X154001000Y-98000000D01*
X154059191Y-98018907D01*
G37*
G36*
X107659191Y-110418907D02*
G01*
X107695155Y-110468407D01*
X107700000Y-110499000D01*
X107700000Y-113301000D01*
X107681093Y-113359191D01*
X107631593Y-113395155D01*
X107601000Y-113400000D01*
X106799000Y-113400000D01*
X106740809Y-113381093D01*
X106704845Y-113331593D01*
X106700000Y-113301000D01*
X106700000Y-110499000D01*
X106718907Y-110440809D01*
X106768407Y-110404845D01*
X106799000Y-110400000D01*
X107601000Y-110400000D01*
X107659191Y-110418907D01*
G37*
G36*
X122659191Y-73018907D02*
G01*
X122695155Y-73068407D01*
X122700000Y-73099000D01*
X122700000Y-73901000D01*
X122681093Y-73959191D01*
X122631593Y-73995155D01*
X122601000Y-74000000D01*
X119799000Y-74000000D01*
X119740809Y-73981093D01*
X119704845Y-73931593D01*
X119700000Y-73901000D01*
X119700000Y-73099000D01*
X119718907Y-73040809D01*
X119768407Y-73004845D01*
X119799000Y-73000000D01*
X122601000Y-73000000D01*
X122659191Y-73018907D01*
G37*
G36*
X154059191Y-73018907D02*
G01*
X154095155Y-73068407D01*
X154100000Y-73099000D01*
X154100000Y-76901000D01*
X154081093Y-76959191D01*
X154031593Y-76995155D01*
X154001000Y-77000000D01*
X153199000Y-77000000D01*
X153140809Y-76981093D01*
X153104845Y-76931593D01*
X153100000Y-76901000D01*
X153100000Y-74015680D01*
X153095878Y-74002995D01*
X153091757Y-74000000D01*
X150199000Y-74000000D01*
X150140809Y-73981093D01*
X150104845Y-73931593D01*
X150100000Y-73901000D01*
X150100000Y-73099000D01*
X150118907Y-73040809D01*
X150168407Y-73004845D01*
X150199000Y-73000000D01*
X154001000Y-73000000D01*
X154059191Y-73018907D01*
G37*
G36*
X107659191Y-98018907D02*
G01*
X107695155Y-98068407D01*
X107700000Y-98099000D01*
X107700000Y-100901000D01*
X107681093Y-100959191D01*
X107631593Y-100995155D01*
X107601000Y-101000000D01*
X106799000Y-101000000D01*
X106740809Y-100981093D01*
X106704845Y-100931593D01*
X106700000Y-100901000D01*
X106700000Y-98099000D01*
X106718907Y-98040809D01*
X106768407Y-98004845D01*
X106799000Y-98000000D01*
X107601000Y-98000000D01*
X107659191Y-98018907D01*
G37*
G36*
X134659191Y-73018907D02*
G01*
X134695155Y-73068407D01*
X134700000Y-73099000D01*
X134700000Y-73901000D01*
X134681093Y-73959191D01*
X134631593Y-73995155D01*
X134601000Y-74000000D01*
X131799000Y-74000000D01*
X131740809Y-73981093D01*
X131704845Y-73931593D01*
X131700000Y-73901000D01*
X131700000Y-73099000D01*
X131718907Y-73040809D01*
X131768407Y-73004845D01*
X131799000Y-73000000D01*
X134601000Y-73000000D01*
X134659191Y-73018907D01*
G37*
G36*
X107659191Y-92018907D02*
G01*
X107695155Y-92068407D01*
X107700000Y-92099000D01*
X107700000Y-94901000D01*
X107681093Y-94959191D01*
X107631593Y-94995155D01*
X107601000Y-95000000D01*
X106799000Y-95000000D01*
X106740809Y-94981093D01*
X106704845Y-94931593D01*
X106700000Y-94901000D01*
X106700000Y-92099000D01*
X106718907Y-92040809D01*
X106768407Y-92004845D01*
X106799000Y-92000000D01*
X107601000Y-92000000D01*
X107659191Y-92018907D01*
G37*
G36*
X107659191Y-86018907D02*
G01*
X107695155Y-86068407D01*
X107700000Y-86099000D01*
X107700000Y-88901000D01*
X107681093Y-88959191D01*
X107631593Y-88995155D01*
X107601000Y-89000000D01*
X106799000Y-89000000D01*
X106740809Y-88981093D01*
X106704845Y-88931593D01*
X106700000Y-88901000D01*
X106700000Y-86099000D01*
X106718907Y-86040809D01*
X106768407Y-86004845D01*
X106799000Y-86000000D01*
X107601000Y-86000000D01*
X107659191Y-86018907D01*
G37*
G36*
X107659191Y-116418907D02*
G01*
X107695155Y-116468407D01*
X107700000Y-116499000D01*
X107700000Y-119384320D01*
X107704122Y-119397005D01*
X107708243Y-119400000D01*
X110601000Y-119400000D01*
X110659191Y-119418907D01*
X110695155Y-119468407D01*
X110700000Y-119499000D01*
X110700000Y-120301000D01*
X110681093Y-120359191D01*
X110631593Y-120395155D01*
X110601000Y-120400000D01*
X106799000Y-120400000D01*
X106740809Y-120381093D01*
X106704845Y-120331593D01*
X106700000Y-120301000D01*
X106700000Y-116499000D01*
X106718907Y-116440809D01*
X106768407Y-116404845D01*
X106799000Y-116400000D01*
X107601000Y-116400000D01*
X107659191Y-116418907D01*
G37*
G36*
X140659191Y-73018907D02*
G01*
X140695155Y-73068407D01*
X140700000Y-73099000D01*
X140700000Y-73901000D01*
X140681093Y-73959191D01*
X140631593Y-73995155D01*
X140601000Y-74000000D01*
X137799000Y-74000000D01*
X137740809Y-73981093D01*
X137704845Y-73931593D01*
X137700000Y-73901000D01*
X137700000Y-73099000D01*
X137718907Y-73040809D01*
X137768407Y-73004845D01*
X137799000Y-73000000D01*
X140601000Y-73000000D01*
X140659191Y-73018907D01*
G37*
G36*
X154059191Y-80018907D02*
G01*
X154095155Y-80068407D01*
X154100000Y-80099000D01*
X154100000Y-82901000D01*
X154081093Y-82959191D01*
X154031593Y-82995155D01*
X154001000Y-83000000D01*
X153199000Y-83000000D01*
X153140809Y-82981093D01*
X153104845Y-82931593D01*
X153100000Y-82901000D01*
X153100000Y-80099000D01*
X153118907Y-80040809D01*
X153168407Y-80004845D01*
X153199000Y-80000000D01*
X154001000Y-80000000D01*
X154059191Y-80018907D01*
G37*
M02*
