%FSLAX45Y45*%
G04 Gerber Fmt 4.5, Leading zero omitted, Abs format (unit mm)*
G04 Created by KiCad (PCBNEW (6.0.1)) date 2023-05-09 20:22:39*
%MOMM*%
%LPD*%
G01*
G04 APERTURE LIST*
%TA.AperFunction,Profile*%
%ADD10C,0.100000*%
%TD*%
%ADD11C,0.200000*%
%ADD12C,0.020000*%
%ADD13C,0.030000*%
%ADD14C,0.050000*%
G04 APERTURE END LIST*
D10*
X15430000Y-12060000D02*
X10650000Y-12060000D01*
X10650000Y-12060000D02*
X10650000Y-7280000D01*
X10650000Y-7280000D02*
X15430000Y-7280000D01*
X15430000Y-7280000D02*
X15430000Y-12060000D01*
D11*
D12*
X12900000Y-9200000D02*
X12920000Y-9220000D01*
X12920000Y-9200000D02*
X12900000Y-9220000D01*
X13260000Y-9950000D02*
X13280000Y-9970000D01*
X13280000Y-9950000D02*
X13260000Y-9970000D01*
X13310000Y-9900000D02*
X13330000Y-9920000D01*
X13330000Y-9900000D02*
X13310000Y-9920000D01*
X13310000Y-9950000D02*
X13330000Y-9970000D01*
X13330000Y-9950000D02*
X13310000Y-9970000D01*
X13430000Y-11780000D02*
X13450000Y-11800000D01*
X13450000Y-11780000D02*
X13430000Y-11800000D01*
X15100000Y-11750000D02*
X15120000Y-11770000D01*
X15120000Y-11750000D02*
X15100000Y-11770000D01*
X15110000Y-11540000D02*
X15130000Y-11560000D01*
X15130000Y-11540000D02*
X15110000Y-11560000D01*
X15120000Y-11650000D02*
X15140000Y-11670000D01*
X15140000Y-11650000D02*
X15120000Y-11670000D01*
X15120000Y-11700000D02*
X15140000Y-11720000D01*
X15140000Y-11700000D02*
X15120000Y-11720000D01*
D13*
X10895000Y-11840000D02*
G75*
G03*
X10895000Y-11840000I-15000J0D01*
G01*
X11935000Y-11840000D02*
G75*
G03*
X11935000Y-11840000I-15000J0D01*
G01*
X12465000Y-9080000D02*
G75*
G03*
X12465000Y-9080000I-15000J0D01*
G01*
X12465000Y-9940000D02*
G75*
G03*
X12465000Y-9940000I-15000J0D01*
G01*
X12805000Y-9080000D02*
G75*
G03*
X12805000Y-9080000I-15000J0D01*
G01*
X12975000Y-11840000D02*
G75*
G03*
X12975000Y-11840000I-15000J0D01*
G01*
X13205000Y-9320000D02*
G75*
G03*
X13205000Y-9320000I-15000J0D01*
G01*
X13265000Y-9610000D02*
G75*
G03*
X13265000Y-9610000I-15000J0D01*
G01*
X13335000Y-9070000D02*
G75*
G03*
X13335000Y-9070000I-15000J0D01*
G01*
X13615000Y-11970000D02*
G75*
G03*
X13615000Y-11970000I-15000J0D01*
G01*
X13665000Y-11760000D02*
G75*
G03*
X13665000Y-11760000I-15000J0D01*
G01*
X14175000Y-11800000D02*
G75*
G03*
X14175000Y-11800000I-15000J0D01*
G01*
X15245000Y-7470000D02*
G75*
G03*
X15245000Y-7470000I-15000J0D01*
G01*
X15245000Y-8403333D02*
G75*
G03*
X15245000Y-8403333I-15000J0D01*
G01*
X15245000Y-9336667D02*
G75*
G03*
X15245000Y-9336667I-15000J0D01*
G01*
X15245000Y-10270000D02*
G75*
G03*
X15245000Y-10270000I-15000J0D01*
G01*
X15265000Y-10590000D02*
G75*
G03*
X15265000Y-10590000I-15000J0D01*
G01*
X15375000Y-11750000D02*
G75*
G03*
X15375000Y-11750000I-15000J0D01*
G01*
D14*
X14440000Y-11945000D02*
X14440000Y-11995000D01*
X14415000Y-11970000D02*
X14465000Y-11970000D01*
X14540000Y-11945000D02*
X14540000Y-11995000D01*
X14515000Y-11970000D02*
X14565000Y-11970000D01*
X14640000Y-11945000D02*
X14640000Y-11995000D01*
X14615000Y-11970000D02*
X14665000Y-11970000D01*
X14740000Y-11945000D02*
X14740000Y-11995000D01*
X14715000Y-11970000D02*
X14765000Y-11970000D01*
X14840000Y-11945000D02*
X14840000Y-11995000D01*
X14815000Y-11970000D02*
X14865000Y-11970000D01*
X14940000Y-11945000D02*
X14940000Y-11995000D01*
X14915000Y-11970000D02*
X14965000Y-11970000D01*
X15040000Y-11945000D02*
X15040000Y-11995000D01*
X15015000Y-11970000D02*
X15065000Y-11970000D01*
X15140000Y-11945000D02*
X15140000Y-11995000D01*
X15115000Y-11970000D02*
X15165000Y-11970000D01*
X15240000Y-11945000D02*
X15240000Y-11995000D01*
X15215000Y-11970000D02*
X15265000Y-11970000D01*
X15340000Y-11945000D02*
X15340000Y-11995000D01*
X15315000Y-11970000D02*
X15365000Y-11970000D01*
D11*
X10902619Y-12375476D02*
X10902619Y-12175476D01*
X10950238Y-12175476D01*
X10978810Y-12185000D01*
X10997857Y-12204048D01*
X11007381Y-12223095D01*
X11016905Y-12261190D01*
X11016905Y-12289762D01*
X11007381Y-12327857D01*
X10997857Y-12346905D01*
X10978810Y-12365952D01*
X10950238Y-12375476D01*
X10902619Y-12375476D01*
X11102619Y-12375476D02*
X11102619Y-12242143D01*
X11102619Y-12280238D02*
X11112143Y-12261190D01*
X11121667Y-12251667D01*
X11140714Y-12242143D01*
X11159762Y-12242143D01*
X11226428Y-12375476D02*
X11226428Y-12242143D01*
X11226428Y-12175476D02*
X11216905Y-12185000D01*
X11226428Y-12194524D01*
X11235952Y-12185000D01*
X11226428Y-12175476D01*
X11226428Y-12194524D01*
X11350238Y-12375476D02*
X11331190Y-12365952D01*
X11321667Y-12346905D01*
X11321667Y-12175476D01*
X11455000Y-12375476D02*
X11435952Y-12365952D01*
X11426428Y-12346905D01*
X11426428Y-12175476D01*
X11683571Y-12375476D02*
X11683571Y-12175476D01*
X11750238Y-12318333D01*
X11816905Y-12175476D01*
X11816905Y-12375476D01*
X11997857Y-12375476D02*
X11997857Y-12270714D01*
X11988333Y-12251667D01*
X11969286Y-12242143D01*
X11931190Y-12242143D01*
X11912143Y-12251667D01*
X11997857Y-12365952D02*
X11978809Y-12375476D01*
X11931190Y-12375476D01*
X11912143Y-12365952D01*
X11902619Y-12346905D01*
X11902619Y-12327857D01*
X11912143Y-12308809D01*
X11931190Y-12299286D01*
X11978809Y-12299286D01*
X11997857Y-12289762D01*
X12093095Y-12242143D02*
X12093095Y-12442143D01*
X12093095Y-12251667D02*
X12112143Y-12242143D01*
X12150238Y-12242143D01*
X12169286Y-12251667D01*
X12178809Y-12261190D01*
X12188333Y-12280238D01*
X12188333Y-12337381D01*
X12178809Y-12356428D01*
X12169286Y-12365952D01*
X12150238Y-12375476D01*
X12112143Y-12375476D01*
X12093095Y-12365952D01*
X12274048Y-12356428D02*
X12283571Y-12365952D01*
X12274048Y-12375476D01*
X12264524Y-12365952D01*
X12274048Y-12356428D01*
X12274048Y-12375476D01*
X12274048Y-12251667D02*
X12283571Y-12261190D01*
X12274048Y-12270714D01*
X12264524Y-12261190D01*
X12274048Y-12251667D01*
X12274048Y-12270714D01*
D12*
X10625000Y-12695000D02*
X10645000Y-12715000D01*
X10645000Y-12695000D02*
X10625000Y-12715000D01*
D11*
X10940714Y-12595476D02*
X10959762Y-12595476D01*
X10978810Y-12605000D01*
X10988333Y-12614524D01*
X10997857Y-12633571D01*
X11007381Y-12671667D01*
X11007381Y-12719286D01*
X10997857Y-12757381D01*
X10988333Y-12776428D01*
X10978810Y-12785952D01*
X10959762Y-12795476D01*
X10940714Y-12795476D01*
X10921667Y-12785952D01*
X10912143Y-12776428D01*
X10902619Y-12757381D01*
X10893095Y-12719286D01*
X10893095Y-12671667D01*
X10902619Y-12633571D01*
X10912143Y-12614524D01*
X10921667Y-12605000D01*
X10940714Y-12595476D01*
X11093095Y-12776428D02*
X11102619Y-12785952D01*
X11093095Y-12795476D01*
X11083571Y-12785952D01*
X11093095Y-12776428D01*
X11093095Y-12795476D01*
X11178810Y-12614524D02*
X11188333Y-12605000D01*
X11207381Y-12595476D01*
X11255000Y-12595476D01*
X11274048Y-12605000D01*
X11283571Y-12614524D01*
X11293095Y-12633571D01*
X11293095Y-12652619D01*
X11283571Y-12681190D01*
X11169286Y-12795476D01*
X11293095Y-12795476D01*
X11416905Y-12595476D02*
X11435952Y-12595476D01*
X11455000Y-12605000D01*
X11464524Y-12614524D01*
X11474048Y-12633571D01*
X11483571Y-12671667D01*
X11483571Y-12719286D01*
X11474048Y-12757381D01*
X11464524Y-12776428D01*
X11455000Y-12785952D01*
X11435952Y-12795476D01*
X11416905Y-12795476D01*
X11397857Y-12785952D01*
X11388333Y-12776428D01*
X11378809Y-12757381D01*
X11369286Y-12719286D01*
X11369286Y-12671667D01*
X11378809Y-12633571D01*
X11388333Y-12614524D01*
X11397857Y-12605000D01*
X11416905Y-12595476D01*
X11607381Y-12595476D02*
X11626428Y-12595476D01*
X11645476Y-12605000D01*
X11655000Y-12614524D01*
X11664524Y-12633571D01*
X11674048Y-12671667D01*
X11674048Y-12719286D01*
X11664524Y-12757381D01*
X11655000Y-12776428D01*
X11645476Y-12785952D01*
X11626428Y-12795476D01*
X11607381Y-12795476D01*
X11588333Y-12785952D01*
X11578809Y-12776428D01*
X11569286Y-12757381D01*
X11559762Y-12719286D01*
X11559762Y-12671667D01*
X11569286Y-12633571D01*
X11578809Y-12614524D01*
X11588333Y-12605000D01*
X11607381Y-12595476D01*
X11759762Y-12795476D02*
X11759762Y-12662143D01*
X11759762Y-12681190D02*
X11769286Y-12671667D01*
X11788333Y-12662143D01*
X11816905Y-12662143D01*
X11835952Y-12671667D01*
X11845476Y-12690714D01*
X11845476Y-12795476D01*
X11845476Y-12690714D02*
X11855000Y-12671667D01*
X11874048Y-12662143D01*
X11902619Y-12662143D01*
X11921667Y-12671667D01*
X11931190Y-12690714D01*
X11931190Y-12795476D01*
X12026428Y-12795476D02*
X12026428Y-12662143D01*
X12026428Y-12681190D02*
X12035952Y-12671667D01*
X12055000Y-12662143D01*
X12083571Y-12662143D01*
X12102619Y-12671667D01*
X12112143Y-12690714D01*
X12112143Y-12795476D01*
X12112143Y-12690714D02*
X12121667Y-12671667D01*
X12140714Y-12662143D01*
X12169286Y-12662143D01*
X12188333Y-12671667D01*
X12197857Y-12690714D01*
X12197857Y-12795476D01*
X12588333Y-12585952D02*
X12416905Y-12843095D01*
X12845476Y-12595476D02*
X12864524Y-12595476D01*
X12883571Y-12605000D01*
X12893095Y-12614524D01*
X12902619Y-12633571D01*
X12912143Y-12671667D01*
X12912143Y-12719286D01*
X12902619Y-12757381D01*
X12893095Y-12776428D01*
X12883571Y-12785952D01*
X12864524Y-12795476D01*
X12845476Y-12795476D01*
X12826428Y-12785952D01*
X12816905Y-12776428D01*
X12807381Y-12757381D01*
X12797857Y-12719286D01*
X12797857Y-12671667D01*
X12807381Y-12633571D01*
X12816905Y-12614524D01*
X12826428Y-12605000D01*
X12845476Y-12595476D01*
X12997857Y-12776428D02*
X13007381Y-12785952D01*
X12997857Y-12795476D01*
X12988333Y-12785952D01*
X12997857Y-12776428D01*
X12997857Y-12795476D01*
X13131190Y-12595476D02*
X13150238Y-12595476D01*
X13169286Y-12605000D01*
X13178809Y-12614524D01*
X13188333Y-12633571D01*
X13197857Y-12671667D01*
X13197857Y-12719286D01*
X13188333Y-12757381D01*
X13178809Y-12776428D01*
X13169286Y-12785952D01*
X13150238Y-12795476D01*
X13131190Y-12795476D01*
X13112143Y-12785952D01*
X13102619Y-12776428D01*
X13093095Y-12757381D01*
X13083571Y-12719286D01*
X13083571Y-12671667D01*
X13093095Y-12633571D01*
X13102619Y-12614524D01*
X13112143Y-12605000D01*
X13131190Y-12595476D01*
X13321667Y-12595476D02*
X13340714Y-12595476D01*
X13359762Y-12605000D01*
X13369286Y-12614524D01*
X13378809Y-12633571D01*
X13388333Y-12671667D01*
X13388333Y-12719286D01*
X13378809Y-12757381D01*
X13369286Y-12776428D01*
X13359762Y-12785952D01*
X13340714Y-12795476D01*
X13321667Y-12795476D01*
X13302619Y-12785952D01*
X13293095Y-12776428D01*
X13283571Y-12757381D01*
X13274048Y-12719286D01*
X13274048Y-12671667D01*
X13283571Y-12633571D01*
X13293095Y-12614524D01*
X13302619Y-12605000D01*
X13321667Y-12595476D01*
X13455000Y-12595476D02*
X13588333Y-12595476D01*
X13502619Y-12795476D01*
X13674048Y-12795476D02*
X13712143Y-12795476D01*
X13731190Y-12785952D01*
X13740714Y-12776428D01*
X13759762Y-12747857D01*
X13769286Y-12709762D01*
X13769286Y-12633571D01*
X13759762Y-12614524D01*
X13750238Y-12605000D01*
X13731190Y-12595476D01*
X13693095Y-12595476D01*
X13674048Y-12605000D01*
X13664524Y-12614524D01*
X13655000Y-12633571D01*
X13655000Y-12681190D01*
X13664524Y-12700238D01*
X13674048Y-12709762D01*
X13693095Y-12719286D01*
X13731190Y-12719286D01*
X13750238Y-12709762D01*
X13759762Y-12700238D01*
X13769286Y-12681190D01*
X13845476Y-12595476D02*
X13845476Y-12633571D01*
X13921667Y-12595476D02*
X13921667Y-12633571D01*
X14216905Y-12871667D02*
X14207381Y-12862143D01*
X14188333Y-12833571D01*
X14178809Y-12814524D01*
X14169286Y-12785952D01*
X14159762Y-12738333D01*
X14159762Y-12700238D01*
X14169286Y-12652619D01*
X14178809Y-12624048D01*
X14188333Y-12605000D01*
X14207381Y-12576428D01*
X14216905Y-12566905D01*
X14302619Y-12795476D02*
X14340714Y-12795476D01*
X14359762Y-12785952D01*
X14369286Y-12776428D01*
X14388333Y-12747857D01*
X14397857Y-12709762D01*
X14397857Y-12633571D01*
X14388333Y-12614524D01*
X14378809Y-12605000D01*
X14359762Y-12595476D01*
X14321667Y-12595476D01*
X14302619Y-12605000D01*
X14293095Y-12614524D01*
X14283571Y-12633571D01*
X14283571Y-12681190D01*
X14293095Y-12700238D01*
X14302619Y-12709762D01*
X14321667Y-12719286D01*
X14359762Y-12719286D01*
X14378809Y-12709762D01*
X14388333Y-12700238D01*
X14397857Y-12681190D01*
X14635952Y-12795476D02*
X14635952Y-12595476D01*
X14721667Y-12795476D02*
X14721667Y-12690714D01*
X14712143Y-12671667D01*
X14693095Y-12662143D01*
X14664524Y-12662143D01*
X14645476Y-12671667D01*
X14635952Y-12681190D01*
X14845476Y-12795476D02*
X14826428Y-12785952D01*
X14816905Y-12776428D01*
X14807381Y-12757381D01*
X14807381Y-12700238D01*
X14816905Y-12681190D01*
X14826428Y-12671667D01*
X14845476Y-12662143D01*
X14874048Y-12662143D01*
X14893095Y-12671667D01*
X14902619Y-12681190D01*
X14912143Y-12700238D01*
X14912143Y-12757381D01*
X14902619Y-12776428D01*
X14893095Y-12785952D01*
X14874048Y-12795476D01*
X14845476Y-12795476D01*
X15026428Y-12795476D02*
X15007381Y-12785952D01*
X14997857Y-12766905D01*
X14997857Y-12595476D01*
X15178809Y-12785952D02*
X15159762Y-12795476D01*
X15121667Y-12795476D01*
X15102619Y-12785952D01*
X15093095Y-12766905D01*
X15093095Y-12690714D01*
X15102619Y-12671667D01*
X15121667Y-12662143D01*
X15159762Y-12662143D01*
X15178809Y-12671667D01*
X15188333Y-12690714D01*
X15188333Y-12709762D01*
X15093095Y-12728809D01*
X15264524Y-12785952D02*
X15283571Y-12795476D01*
X15321667Y-12795476D01*
X15340714Y-12785952D01*
X15350238Y-12766905D01*
X15350238Y-12757381D01*
X15340714Y-12738333D01*
X15321667Y-12728809D01*
X15293095Y-12728809D01*
X15274048Y-12719286D01*
X15264524Y-12700238D01*
X15264524Y-12690714D01*
X15274048Y-12671667D01*
X15293095Y-12662143D01*
X15321667Y-12662143D01*
X15340714Y-12671667D01*
X15416905Y-12871667D02*
X15426428Y-12862143D01*
X15445476Y-12833571D01*
X15455000Y-12814524D01*
X15464524Y-12785952D01*
X15474048Y-12738333D01*
X15474048Y-12700238D01*
X15464524Y-12652619D01*
X15455000Y-12624048D01*
X15445476Y-12605000D01*
X15426428Y-12576428D01*
X15416905Y-12566905D01*
D13*
X10645000Y-12969000D02*
G75*
G03*
X10645000Y-12969000I-15000J0D01*
G01*
D11*
X10940714Y-12859476D02*
X10959762Y-12859476D01*
X10978810Y-12869000D01*
X10988333Y-12878524D01*
X10997857Y-12897571D01*
X11007381Y-12935667D01*
X11007381Y-12983286D01*
X10997857Y-13021381D01*
X10988333Y-13040428D01*
X10978810Y-13049952D01*
X10959762Y-13059476D01*
X10940714Y-13059476D01*
X10921667Y-13049952D01*
X10912143Y-13040428D01*
X10902619Y-13021381D01*
X10893095Y-12983286D01*
X10893095Y-12935667D01*
X10902619Y-12897571D01*
X10912143Y-12878524D01*
X10921667Y-12869000D01*
X10940714Y-12859476D01*
X11093095Y-13040428D02*
X11102619Y-13049952D01*
X11093095Y-13059476D01*
X11083571Y-13049952D01*
X11093095Y-13040428D01*
X11093095Y-13059476D01*
X11169286Y-12859476D02*
X11293095Y-12859476D01*
X11226428Y-12935667D01*
X11255000Y-12935667D01*
X11274048Y-12945190D01*
X11283571Y-12954714D01*
X11293095Y-12973762D01*
X11293095Y-13021381D01*
X11283571Y-13040428D01*
X11274048Y-13049952D01*
X11255000Y-13059476D01*
X11197857Y-13059476D01*
X11178810Y-13049952D01*
X11169286Y-13040428D01*
X11416905Y-12859476D02*
X11435952Y-12859476D01*
X11455000Y-12869000D01*
X11464524Y-12878524D01*
X11474048Y-12897571D01*
X11483571Y-12935667D01*
X11483571Y-12983286D01*
X11474048Y-13021381D01*
X11464524Y-13040428D01*
X11455000Y-13049952D01*
X11435952Y-13059476D01*
X11416905Y-13059476D01*
X11397857Y-13049952D01*
X11388333Y-13040428D01*
X11378809Y-13021381D01*
X11369286Y-12983286D01*
X11369286Y-12935667D01*
X11378809Y-12897571D01*
X11388333Y-12878524D01*
X11397857Y-12869000D01*
X11416905Y-12859476D01*
X11607381Y-12859476D02*
X11626428Y-12859476D01*
X11645476Y-12869000D01*
X11655000Y-12878524D01*
X11664524Y-12897571D01*
X11674048Y-12935667D01*
X11674048Y-12983286D01*
X11664524Y-13021381D01*
X11655000Y-13040428D01*
X11645476Y-13049952D01*
X11626428Y-13059476D01*
X11607381Y-13059476D01*
X11588333Y-13049952D01*
X11578809Y-13040428D01*
X11569286Y-13021381D01*
X11559762Y-12983286D01*
X11559762Y-12935667D01*
X11569286Y-12897571D01*
X11578809Y-12878524D01*
X11588333Y-12869000D01*
X11607381Y-12859476D01*
X11759762Y-13059476D02*
X11759762Y-12926143D01*
X11759762Y-12945190D02*
X11769286Y-12935667D01*
X11788333Y-12926143D01*
X11816905Y-12926143D01*
X11835952Y-12935667D01*
X11845476Y-12954714D01*
X11845476Y-13059476D01*
X11845476Y-12954714D02*
X11855000Y-12935667D01*
X11874048Y-12926143D01*
X11902619Y-12926143D01*
X11921667Y-12935667D01*
X11931190Y-12954714D01*
X11931190Y-13059476D01*
X12026428Y-13059476D02*
X12026428Y-12926143D01*
X12026428Y-12945190D02*
X12035952Y-12935667D01*
X12055000Y-12926143D01*
X12083571Y-12926143D01*
X12102619Y-12935667D01*
X12112143Y-12954714D01*
X12112143Y-13059476D01*
X12112143Y-12954714D02*
X12121667Y-12935667D01*
X12140714Y-12926143D01*
X12169286Y-12926143D01*
X12188333Y-12935667D01*
X12197857Y-12954714D01*
X12197857Y-13059476D01*
X12588333Y-12849952D02*
X12416905Y-13107095D01*
X12845476Y-12859476D02*
X12864524Y-12859476D01*
X12883571Y-12869000D01*
X12893095Y-12878524D01*
X12902619Y-12897571D01*
X12912143Y-12935667D01*
X12912143Y-12983286D01*
X12902619Y-13021381D01*
X12893095Y-13040428D01*
X12883571Y-13049952D01*
X12864524Y-13059476D01*
X12845476Y-13059476D01*
X12826428Y-13049952D01*
X12816905Y-13040428D01*
X12807381Y-13021381D01*
X12797857Y-12983286D01*
X12797857Y-12935667D01*
X12807381Y-12897571D01*
X12816905Y-12878524D01*
X12826428Y-12869000D01*
X12845476Y-12859476D01*
X12997857Y-13040428D02*
X13007381Y-13049952D01*
X12997857Y-13059476D01*
X12988333Y-13049952D01*
X12997857Y-13040428D01*
X12997857Y-13059476D01*
X13131190Y-12859476D02*
X13150238Y-12859476D01*
X13169286Y-12869000D01*
X13178809Y-12878524D01*
X13188333Y-12897571D01*
X13197857Y-12935667D01*
X13197857Y-12983286D01*
X13188333Y-13021381D01*
X13178809Y-13040428D01*
X13169286Y-13049952D01*
X13150238Y-13059476D01*
X13131190Y-13059476D01*
X13112143Y-13049952D01*
X13102619Y-13040428D01*
X13093095Y-13021381D01*
X13083571Y-12983286D01*
X13083571Y-12935667D01*
X13093095Y-12897571D01*
X13102619Y-12878524D01*
X13112143Y-12869000D01*
X13131190Y-12859476D01*
X13388333Y-13059476D02*
X13274048Y-13059476D01*
X13331190Y-13059476D02*
X13331190Y-12859476D01*
X13312143Y-12888048D01*
X13293095Y-12907095D01*
X13274048Y-12916619D01*
X13578809Y-13059476D02*
X13464524Y-13059476D01*
X13521667Y-13059476D02*
X13521667Y-12859476D01*
X13502619Y-12888048D01*
X13483571Y-12907095D01*
X13464524Y-12916619D01*
X13693095Y-12945190D02*
X13674048Y-12935667D01*
X13664524Y-12926143D01*
X13655000Y-12907095D01*
X13655000Y-12897571D01*
X13664524Y-12878524D01*
X13674048Y-12869000D01*
X13693095Y-12859476D01*
X13731190Y-12859476D01*
X13750238Y-12869000D01*
X13759762Y-12878524D01*
X13769286Y-12897571D01*
X13769286Y-12907095D01*
X13759762Y-12926143D01*
X13750238Y-12935667D01*
X13731190Y-12945190D01*
X13693095Y-12945190D01*
X13674048Y-12954714D01*
X13664524Y-12964238D01*
X13655000Y-12983286D01*
X13655000Y-13021381D01*
X13664524Y-13040428D01*
X13674048Y-13049952D01*
X13693095Y-13059476D01*
X13731190Y-13059476D01*
X13750238Y-13049952D01*
X13759762Y-13040428D01*
X13769286Y-13021381D01*
X13769286Y-12983286D01*
X13759762Y-12964238D01*
X13750238Y-12954714D01*
X13731190Y-12945190D01*
X13845476Y-12859476D02*
X13845476Y-12897571D01*
X13921667Y-12859476D02*
X13921667Y-12897571D01*
X14216905Y-13135667D02*
X14207381Y-13126143D01*
X14188333Y-13097571D01*
X14178809Y-13078524D01*
X14169286Y-13049952D01*
X14159762Y-13002333D01*
X14159762Y-12964238D01*
X14169286Y-12916619D01*
X14178809Y-12888048D01*
X14188333Y-12869000D01*
X14207381Y-12840428D01*
X14216905Y-12830905D01*
X14397857Y-13059476D02*
X14283571Y-13059476D01*
X14340714Y-13059476D02*
X14340714Y-12859476D01*
X14321667Y-12888048D01*
X14302619Y-12907095D01*
X14283571Y-12916619D01*
X14512143Y-12945190D02*
X14493095Y-12935667D01*
X14483571Y-12926143D01*
X14474048Y-12907095D01*
X14474048Y-12897571D01*
X14483571Y-12878524D01*
X14493095Y-12869000D01*
X14512143Y-12859476D01*
X14550238Y-12859476D01*
X14569286Y-12869000D01*
X14578809Y-12878524D01*
X14588333Y-12897571D01*
X14588333Y-12907095D01*
X14578809Y-12926143D01*
X14569286Y-12935667D01*
X14550238Y-12945190D01*
X14512143Y-12945190D01*
X14493095Y-12954714D01*
X14483571Y-12964238D01*
X14474048Y-12983286D01*
X14474048Y-13021381D01*
X14483571Y-13040428D01*
X14493095Y-13049952D01*
X14512143Y-13059476D01*
X14550238Y-13059476D01*
X14569286Y-13049952D01*
X14578809Y-13040428D01*
X14588333Y-13021381D01*
X14588333Y-12983286D01*
X14578809Y-12964238D01*
X14569286Y-12954714D01*
X14550238Y-12945190D01*
X14826428Y-13059476D02*
X14826428Y-12859476D01*
X14912143Y-13059476D02*
X14912143Y-12954714D01*
X14902619Y-12935667D01*
X14883571Y-12926143D01*
X14855000Y-12926143D01*
X14835952Y-12935667D01*
X14826428Y-12945190D01*
X15035952Y-13059476D02*
X15016905Y-13049952D01*
X15007381Y-13040428D01*
X14997857Y-13021381D01*
X14997857Y-12964238D01*
X15007381Y-12945190D01*
X15016905Y-12935667D01*
X15035952Y-12926143D01*
X15064524Y-12926143D01*
X15083571Y-12935667D01*
X15093095Y-12945190D01*
X15102619Y-12964238D01*
X15102619Y-13021381D01*
X15093095Y-13040428D01*
X15083571Y-13049952D01*
X15064524Y-13059476D01*
X15035952Y-13059476D01*
X15216905Y-13059476D02*
X15197857Y-13049952D01*
X15188333Y-13030905D01*
X15188333Y-12859476D01*
X15369286Y-13049952D02*
X15350238Y-13059476D01*
X15312143Y-13059476D01*
X15293095Y-13049952D01*
X15283571Y-13030905D01*
X15283571Y-12954714D01*
X15293095Y-12935667D01*
X15312143Y-12926143D01*
X15350238Y-12926143D01*
X15369286Y-12935667D01*
X15378809Y-12954714D01*
X15378809Y-12973762D01*
X15283571Y-12992809D01*
X15455000Y-13049952D02*
X15474048Y-13059476D01*
X15512143Y-13059476D01*
X15531190Y-13049952D01*
X15540714Y-13030905D01*
X15540714Y-13021381D01*
X15531190Y-13002333D01*
X15512143Y-12992809D01*
X15483571Y-12992809D01*
X15464524Y-12983286D01*
X15455000Y-12964238D01*
X15455000Y-12954714D01*
X15464524Y-12935667D01*
X15483571Y-12926143D01*
X15512143Y-12926143D01*
X15531190Y-12935667D01*
X15607381Y-13135667D02*
X15616905Y-13126143D01*
X15635952Y-13097571D01*
X15645476Y-13078524D01*
X15655000Y-13049952D01*
X15664524Y-13002333D01*
X15664524Y-12964238D01*
X15655000Y-12916619D01*
X15645476Y-12888048D01*
X15635952Y-12869000D01*
X15616905Y-12840428D01*
X15607381Y-12830905D01*
D14*
X10620000Y-13208000D02*
X10620000Y-13258000D01*
X10595000Y-13233000D02*
X10645000Y-13233000D01*
D11*
X10940714Y-13123476D02*
X10959762Y-13123476D01*
X10978810Y-13133000D01*
X10988333Y-13142524D01*
X10997857Y-13161571D01*
X11007381Y-13199667D01*
X11007381Y-13247286D01*
X10997857Y-13285381D01*
X10988333Y-13304428D01*
X10978810Y-13313952D01*
X10959762Y-13323476D01*
X10940714Y-13323476D01*
X10921667Y-13313952D01*
X10912143Y-13304428D01*
X10902619Y-13285381D01*
X10893095Y-13247286D01*
X10893095Y-13199667D01*
X10902619Y-13161571D01*
X10912143Y-13142524D01*
X10921667Y-13133000D01*
X10940714Y-13123476D01*
X11093095Y-13304428D02*
X11102619Y-13313952D01*
X11093095Y-13323476D01*
X11083571Y-13313952D01*
X11093095Y-13304428D01*
X11093095Y-13323476D01*
X11283571Y-13123476D02*
X11188333Y-13123476D01*
X11178810Y-13218714D01*
X11188333Y-13209190D01*
X11207381Y-13199667D01*
X11255000Y-13199667D01*
X11274048Y-13209190D01*
X11283571Y-13218714D01*
X11293095Y-13237762D01*
X11293095Y-13285381D01*
X11283571Y-13304428D01*
X11274048Y-13313952D01*
X11255000Y-13323476D01*
X11207381Y-13323476D01*
X11188333Y-13313952D01*
X11178810Y-13304428D01*
X11416905Y-13123476D02*
X11435952Y-13123476D01*
X11455000Y-13133000D01*
X11464524Y-13142524D01*
X11474048Y-13161571D01*
X11483571Y-13199667D01*
X11483571Y-13247286D01*
X11474048Y-13285381D01*
X11464524Y-13304428D01*
X11455000Y-13313952D01*
X11435952Y-13323476D01*
X11416905Y-13323476D01*
X11397857Y-13313952D01*
X11388333Y-13304428D01*
X11378809Y-13285381D01*
X11369286Y-13247286D01*
X11369286Y-13199667D01*
X11378809Y-13161571D01*
X11388333Y-13142524D01*
X11397857Y-13133000D01*
X11416905Y-13123476D01*
X11607381Y-13123476D02*
X11626428Y-13123476D01*
X11645476Y-13133000D01*
X11655000Y-13142524D01*
X11664524Y-13161571D01*
X11674048Y-13199667D01*
X11674048Y-13247286D01*
X11664524Y-13285381D01*
X11655000Y-13304428D01*
X11645476Y-13313952D01*
X11626428Y-13323476D01*
X11607381Y-13323476D01*
X11588333Y-13313952D01*
X11578809Y-13304428D01*
X11569286Y-13285381D01*
X11559762Y-13247286D01*
X11559762Y-13199667D01*
X11569286Y-13161571D01*
X11578809Y-13142524D01*
X11588333Y-13133000D01*
X11607381Y-13123476D01*
X11759762Y-13323476D02*
X11759762Y-13190143D01*
X11759762Y-13209190D02*
X11769286Y-13199667D01*
X11788333Y-13190143D01*
X11816905Y-13190143D01*
X11835952Y-13199667D01*
X11845476Y-13218714D01*
X11845476Y-13323476D01*
X11845476Y-13218714D02*
X11855000Y-13199667D01*
X11874048Y-13190143D01*
X11902619Y-13190143D01*
X11921667Y-13199667D01*
X11931190Y-13218714D01*
X11931190Y-13323476D01*
X12026428Y-13323476D02*
X12026428Y-13190143D01*
X12026428Y-13209190D02*
X12035952Y-13199667D01*
X12055000Y-13190143D01*
X12083571Y-13190143D01*
X12102619Y-13199667D01*
X12112143Y-13218714D01*
X12112143Y-13323476D01*
X12112143Y-13218714D02*
X12121667Y-13199667D01*
X12140714Y-13190143D01*
X12169286Y-13190143D01*
X12188333Y-13199667D01*
X12197857Y-13218714D01*
X12197857Y-13323476D01*
X12588333Y-13113952D02*
X12416905Y-13371095D01*
X12845476Y-13123476D02*
X12864524Y-13123476D01*
X12883571Y-13133000D01*
X12893095Y-13142524D01*
X12902619Y-13161571D01*
X12912143Y-13199667D01*
X12912143Y-13247286D01*
X12902619Y-13285381D01*
X12893095Y-13304428D01*
X12883571Y-13313952D01*
X12864524Y-13323476D01*
X12845476Y-13323476D01*
X12826428Y-13313952D01*
X12816905Y-13304428D01*
X12807381Y-13285381D01*
X12797857Y-13247286D01*
X12797857Y-13199667D01*
X12807381Y-13161571D01*
X12816905Y-13142524D01*
X12826428Y-13133000D01*
X12845476Y-13123476D01*
X12997857Y-13304428D02*
X13007381Y-13313952D01*
X12997857Y-13323476D01*
X12988333Y-13313952D01*
X12997857Y-13304428D01*
X12997857Y-13323476D01*
X13131190Y-13123476D02*
X13150238Y-13123476D01*
X13169286Y-13133000D01*
X13178809Y-13142524D01*
X13188333Y-13161571D01*
X13197857Y-13199667D01*
X13197857Y-13247286D01*
X13188333Y-13285381D01*
X13178809Y-13304428D01*
X13169286Y-13313952D01*
X13150238Y-13323476D01*
X13131190Y-13323476D01*
X13112143Y-13313952D01*
X13102619Y-13304428D01*
X13093095Y-13285381D01*
X13083571Y-13247286D01*
X13083571Y-13199667D01*
X13093095Y-13161571D01*
X13102619Y-13142524D01*
X13112143Y-13133000D01*
X13131190Y-13123476D01*
X13388333Y-13323476D02*
X13274048Y-13323476D01*
X13331190Y-13323476D02*
X13331190Y-13123476D01*
X13312143Y-13152048D01*
X13293095Y-13171095D01*
X13274048Y-13180619D01*
X13483571Y-13323476D02*
X13521667Y-13323476D01*
X13540714Y-13313952D01*
X13550238Y-13304428D01*
X13569286Y-13275857D01*
X13578809Y-13237762D01*
X13578809Y-13161571D01*
X13569286Y-13142524D01*
X13559762Y-13133000D01*
X13540714Y-13123476D01*
X13502619Y-13123476D01*
X13483571Y-13133000D01*
X13474048Y-13142524D01*
X13464524Y-13161571D01*
X13464524Y-13209190D01*
X13474048Y-13228238D01*
X13483571Y-13237762D01*
X13502619Y-13247286D01*
X13540714Y-13247286D01*
X13559762Y-13237762D01*
X13569286Y-13228238D01*
X13578809Y-13209190D01*
X13645476Y-13123476D02*
X13778809Y-13123476D01*
X13693095Y-13323476D01*
X13845476Y-13123476D02*
X13845476Y-13161571D01*
X13921667Y-13123476D02*
X13921667Y-13161571D01*
X14216905Y-13399667D02*
X14207381Y-13390143D01*
X14188333Y-13361571D01*
X14178809Y-13342524D01*
X14169286Y-13313952D01*
X14159762Y-13266333D01*
X14159762Y-13228238D01*
X14169286Y-13180619D01*
X14178809Y-13152048D01*
X14188333Y-13133000D01*
X14207381Y-13104428D01*
X14216905Y-13094905D01*
X14397857Y-13323476D02*
X14283571Y-13323476D01*
X14340714Y-13323476D02*
X14340714Y-13123476D01*
X14321667Y-13152048D01*
X14302619Y-13171095D01*
X14283571Y-13180619D01*
X14521667Y-13123476D02*
X14540714Y-13123476D01*
X14559762Y-13133000D01*
X14569286Y-13142524D01*
X14578809Y-13161571D01*
X14588333Y-13199667D01*
X14588333Y-13247286D01*
X14578809Y-13285381D01*
X14569286Y-13304428D01*
X14559762Y-13313952D01*
X14540714Y-13323476D01*
X14521667Y-13323476D01*
X14502619Y-13313952D01*
X14493095Y-13304428D01*
X14483571Y-13285381D01*
X14474048Y-13247286D01*
X14474048Y-13199667D01*
X14483571Y-13161571D01*
X14493095Y-13142524D01*
X14502619Y-13133000D01*
X14521667Y-13123476D01*
X14826428Y-13323476D02*
X14826428Y-13123476D01*
X14912143Y-13323476D02*
X14912143Y-13218714D01*
X14902619Y-13199667D01*
X14883571Y-13190143D01*
X14855000Y-13190143D01*
X14835952Y-13199667D01*
X14826428Y-13209190D01*
X15035952Y-13323476D02*
X15016905Y-13313952D01*
X15007381Y-13304428D01*
X14997857Y-13285381D01*
X14997857Y-13228238D01*
X15007381Y-13209190D01*
X15016905Y-13199667D01*
X15035952Y-13190143D01*
X15064524Y-13190143D01*
X15083571Y-13199667D01*
X15093095Y-13209190D01*
X15102619Y-13228238D01*
X15102619Y-13285381D01*
X15093095Y-13304428D01*
X15083571Y-13313952D01*
X15064524Y-13323476D01*
X15035952Y-13323476D01*
X15216905Y-13323476D02*
X15197857Y-13313952D01*
X15188333Y-13294905D01*
X15188333Y-13123476D01*
X15369286Y-13313952D02*
X15350238Y-13323476D01*
X15312143Y-13323476D01*
X15293095Y-13313952D01*
X15283571Y-13294905D01*
X15283571Y-13218714D01*
X15293095Y-13199667D01*
X15312143Y-13190143D01*
X15350238Y-13190143D01*
X15369286Y-13199667D01*
X15378809Y-13218714D01*
X15378809Y-13237762D01*
X15283571Y-13256809D01*
X15455000Y-13313952D02*
X15474048Y-13323476D01*
X15512143Y-13323476D01*
X15531190Y-13313952D01*
X15540714Y-13294905D01*
X15540714Y-13285381D01*
X15531190Y-13266333D01*
X15512143Y-13256809D01*
X15483571Y-13256809D01*
X15464524Y-13247286D01*
X15455000Y-13228238D01*
X15455000Y-13218714D01*
X15464524Y-13199667D01*
X15483571Y-13190143D01*
X15512143Y-13190143D01*
X15531190Y-13199667D01*
X15607381Y-13399667D02*
X15616905Y-13390143D01*
X15635952Y-13361571D01*
X15645476Y-13342524D01*
X15655000Y-13313952D01*
X15664524Y-13266333D01*
X15664524Y-13228238D01*
X15655000Y-13180619D01*
X15645476Y-13152048D01*
X15635952Y-13133000D01*
X15616905Y-13104428D01*
X15607381Y-13094905D01*
M02*
