%FSLAX45Y45*%
G04 Gerber Fmt 4.5, Leading zero omitted, Abs format (unit mm)*
G04 Created by KiCad (PCBNEW (6.0.1)) date 2023-05-09 20:22:39*
%MOMM*%
%LPD*%
G01*
G04 APERTURE LIST*
%TA.AperFunction,Profile*%
%ADD10C,0.100000*%
%TD*%
%ADD11C,0.200000*%
G04 APERTURE END LIST*
D10*
X15430000Y-12060000D02*
X10650000Y-12060000D01*
X10650000Y-12060000D02*
X10650000Y-7280000D01*
X10650000Y-7280000D02*
X15430000Y-7280000D01*
X15430000Y-7280000D02*
X15430000Y-12060000D01*
D11*
X10902619Y-12375476D02*
X10902619Y-12175476D01*
X10950238Y-12175476D01*
X10978810Y-12185000D01*
X10997857Y-12204048D01*
X11007381Y-12223095D01*
X11016905Y-12261190D01*
X11016905Y-12289762D01*
X11007381Y-12327857D01*
X10997857Y-12346905D01*
X10978810Y-12365952D01*
X10950238Y-12375476D01*
X10902619Y-12375476D01*
X11102619Y-12375476D02*
X11102619Y-12242143D01*
X11102619Y-12280238D02*
X11112143Y-12261190D01*
X11121667Y-12251667D01*
X11140714Y-12242143D01*
X11159762Y-12242143D01*
X11226428Y-12375476D02*
X11226428Y-12242143D01*
X11226428Y-12175476D02*
X11216905Y-12185000D01*
X11226428Y-12194524D01*
X11235952Y-12185000D01*
X11226428Y-12175476D01*
X11226428Y-12194524D01*
X11350238Y-12375476D02*
X11331190Y-12365952D01*
X11321667Y-12346905D01*
X11321667Y-12175476D01*
X11455000Y-12375476D02*
X11435952Y-12365952D01*
X11426428Y-12346905D01*
X11426428Y-12175476D01*
X11683571Y-12375476D02*
X11683571Y-12175476D01*
X11750238Y-12318333D01*
X11816905Y-12175476D01*
X11816905Y-12375476D01*
X11997857Y-12375476D02*
X11997857Y-12270714D01*
X11988333Y-12251667D01*
X11969286Y-12242143D01*
X11931190Y-12242143D01*
X11912143Y-12251667D01*
X11997857Y-12365952D02*
X11978809Y-12375476D01*
X11931190Y-12375476D01*
X11912143Y-12365952D01*
X11902619Y-12346905D01*
X11902619Y-12327857D01*
X11912143Y-12308809D01*
X11931190Y-12299286D01*
X11978809Y-12299286D01*
X11997857Y-12289762D01*
X12093095Y-12242143D02*
X12093095Y-12442143D01*
X12093095Y-12251667D02*
X12112143Y-12242143D01*
X12150238Y-12242143D01*
X12169286Y-12251667D01*
X12178809Y-12261190D01*
X12188333Y-12280238D01*
X12188333Y-12337381D01*
X12178809Y-12356428D01*
X12169286Y-12365952D01*
X12150238Y-12375476D01*
X12112143Y-12375476D01*
X12093095Y-12365952D01*
X12274048Y-12356428D02*
X12283571Y-12365952D01*
X12274048Y-12375476D01*
X12264524Y-12365952D01*
X12274048Y-12356428D01*
X12274048Y-12375476D01*
X12274048Y-12251667D02*
X12283571Y-12261190D01*
X12274048Y-12270714D01*
X12264524Y-12261190D01*
X12274048Y-12251667D01*
X12274048Y-12270714D01*
M02*
