G04 #@! TF.GenerationSoftware,KiCad,Pcbnew,7.0.2*
G04 #@! TF.CreationDate,2023-06-06T15:13:29-04:00*
G04 #@! TF.ProjectId,baseplate,62617365-706c-4617-9465-2e6b69636164,rev?*
G04 #@! TF.SameCoordinates,Original*
G04 #@! TF.FileFunction,Copper,L2,Inr*
G04 #@! TF.FilePolarity,Positive*
%FSLAX46Y46*%
G04 Gerber Fmt 4.6, Leading zero omitted, Abs format (unit mm)*
G04 Created by KiCad (PCBNEW 7.0.2) date 2023-06-06 15:13:29*
%MOMM*%
%LPD*%
G01*
G04 APERTURE LIST*
G04 #@! TA.AperFunction,ComponentPad*
%ADD10R,1.800000X1.800000*%
G04 #@! TD*
G04 #@! TA.AperFunction,ComponentPad*
%ADD11C,1.800000*%
G04 #@! TD*
G04 #@! TA.AperFunction,ComponentPad*
%ADD12C,1.400000*%
G04 #@! TD*
G04 #@! TA.AperFunction,ComponentPad*
%ADD13O,1.400000X1.400000*%
G04 #@! TD*
G04 #@! TA.AperFunction,ViaPad*
%ADD14C,0.800000*%
G04 #@! TD*
G04 #@! TA.AperFunction,ViaPad*
%ADD15C,0.600000*%
G04 #@! TD*
G04 #@! TA.AperFunction,Conductor*
%ADD16C,0.250000*%
G04 #@! TD*
G04 #@! TA.AperFunction,Conductor*
%ADD17C,0.700000*%
G04 #@! TD*
G04 APERTURE END LIST*
D10*
X108700000Y-83480000D03*
D11*
X103620000Y-83480000D03*
X98540000Y-83480000D03*
D10*
X85450000Y-42390000D03*
D11*
X90530000Y-42390000D03*
X95610000Y-42390000D03*
D12*
X97540000Y-58570000D03*
D13*
X97540000Y-66190000D03*
D12*
X100580000Y-58430000D03*
D13*
X100580000Y-66050000D03*
D14*
X67040000Y-45250000D03*
X93800000Y-90600000D03*
D15*
X89210000Y-36110000D03*
D14*
X93534649Y-40484649D03*
X95627700Y-53547700D03*
D15*
X70470000Y-35820000D03*
D14*
X90514500Y-48950000D03*
X89300000Y-47500000D03*
X105249977Y-77545500D03*
D15*
X66830000Y-39810000D03*
D14*
X84160000Y-46600000D03*
D15*
X109820000Y-44280000D03*
D14*
X126810000Y-89830000D03*
D15*
X95300000Y-38100000D03*
X113030000Y-43050000D03*
D14*
X78900353Y-73539647D03*
X84300000Y-89110000D03*
X120720000Y-62220000D03*
X81010000Y-76290000D03*
X78350000Y-42870000D03*
X101270000Y-75790000D03*
D15*
X114610000Y-36200000D03*
D14*
X117600000Y-76500000D03*
X112640000Y-89450000D03*
X77740000Y-37120000D03*
D15*
X70910000Y-86960000D03*
D14*
X109887299Y-80142701D03*
X117490000Y-82140000D03*
D15*
X101000000Y-87600000D03*
X100720000Y-37060000D03*
X102200000Y-57530000D03*
D14*
X99010000Y-70530000D03*
D15*
X120840000Y-89800000D03*
X97040000Y-44570000D03*
D14*
X94010000Y-44060000D03*
D15*
X96590000Y-89400000D03*
D14*
X87140000Y-87630000D03*
X81500000Y-90390000D03*
D15*
X118100000Y-49900000D03*
D14*
X84730000Y-49440000D03*
D15*
X77080000Y-49080000D03*
D14*
X123570000Y-60020000D03*
D15*
X68630000Y-50340000D03*
X82010000Y-36380000D03*
X106920000Y-89340000D03*
X117350000Y-43100000D03*
D14*
X109390000Y-72530000D03*
X90700000Y-46000000D03*
D15*
X119530000Y-38850000D03*
X67170000Y-73870000D03*
D14*
X124560000Y-76220000D03*
D15*
X115340000Y-42720000D03*
X107200000Y-37340000D03*
D14*
X76240000Y-48310000D03*
X126190000Y-49490000D03*
X124500000Y-80700000D03*
X94050000Y-64200000D03*
X121260000Y-73350000D03*
D15*
X126830000Y-44370000D03*
D14*
X113650000Y-51340000D03*
D15*
X105710000Y-42710000D03*
D14*
X105050000Y-66090000D03*
D15*
X70480000Y-47730000D03*
D14*
X117990000Y-62760000D03*
X75380000Y-90320000D03*
X77630000Y-69934500D03*
D15*
X70570000Y-79480000D03*
D14*
X90200000Y-90600000D03*
X75920000Y-72840000D03*
X103510000Y-67020000D03*
D15*
X67510000Y-82220000D03*
D14*
X99070000Y-57300000D03*
X79530000Y-69940000D03*
D15*
X116490000Y-88780000D03*
X71310000Y-53120000D03*
X115700000Y-48000000D03*
D14*
X107450000Y-45610000D03*
X95405000Y-58285000D03*
X101981116Y-72325500D03*
X81370000Y-55170000D03*
X121660000Y-55710498D03*
X79275500Y-71760000D03*
X123990000Y-55440000D03*
X98117719Y-64092191D03*
X116625500Y-50030000D03*
X99790500Y-61506612D03*
X111582771Y-48973700D03*
D15*
X92200000Y-56500000D03*
X97580000Y-61750000D03*
X90700000Y-56400000D03*
D14*
X98720000Y-67670000D03*
X99360000Y-38030000D03*
X73940000Y-70010000D03*
X113030000Y-76330000D03*
X86110000Y-80720000D03*
X101778667Y-65039381D03*
X86990000Y-52534500D03*
X87490000Y-81410000D03*
X105230000Y-79510000D03*
X109980000Y-55100000D03*
X107140000Y-67050000D03*
X107780000Y-42020000D03*
X110560000Y-53620000D03*
X81975500Y-70030000D03*
X74695000Y-70735000D03*
X70380000Y-54900000D03*
X78950000Y-83720000D03*
X80620000Y-82855500D03*
X90710000Y-59830000D03*
X76967700Y-75807700D03*
X112510000Y-69880000D03*
X72359937Y-71820193D03*
X97250000Y-41050000D03*
X111130000Y-55190000D03*
X117680000Y-52840000D03*
X92929500Y-52678256D03*
X110995500Y-80260000D03*
X93850000Y-88450000D03*
X94520000Y-45810000D03*
X123330000Y-52230000D03*
X78420000Y-74960000D03*
X101340000Y-37960000D03*
X72670000Y-70870000D03*
X93350000Y-54600000D03*
X116439643Y-52920357D03*
X78560000Y-77370000D03*
X97610500Y-77580000D03*
X111171206Y-78364196D03*
X86520000Y-62000000D03*
X112190000Y-55710498D03*
X95910000Y-60360000D03*
X104980000Y-72420000D03*
X114790000Y-52130000D03*
X106210000Y-72600000D03*
X121190000Y-52080000D03*
X90390000Y-51070000D03*
X83150000Y-73380000D03*
X111720000Y-83770000D03*
X94836435Y-55147141D03*
X90130000Y-87920000D03*
X124750000Y-52760000D03*
X82840000Y-84390000D03*
X117599500Y-73680000D03*
X122140000Y-69980000D03*
X97427211Y-79798105D03*
X86620500Y-60840000D03*
X71740000Y-69730000D03*
X107620000Y-72550000D03*
X81510000Y-54020000D03*
X86449502Y-64750000D03*
X85920000Y-46830000D03*
X89420000Y-56430000D03*
X107140000Y-68360000D03*
X108690000Y-52760000D03*
X107446674Y-76449557D03*
X104940000Y-67820000D03*
X99854791Y-56681042D03*
X97676740Y-54356740D03*
X104717018Y-76477581D03*
X111533805Y-74133805D03*
D15*
X88100000Y-56400000D03*
D14*
X72070000Y-55190000D03*
X86563602Y-59820000D03*
X111089192Y-70655550D03*
X89340000Y-60070000D03*
X89340000Y-51850000D03*
X107080000Y-57440000D03*
X86590000Y-63740000D03*
X110780000Y-69609502D03*
X103620000Y-72570000D03*
X100652306Y-72603800D03*
D15*
X100740000Y-63860000D03*
D16*
X97680000Y-66050000D02*
X97540000Y-66190000D01*
X100580000Y-66050000D02*
X97680000Y-66050000D01*
D17*
X98117719Y-64092191D02*
X98117719Y-63179393D01*
D16*
X111582771Y-48973700D02*
X110813700Y-48973700D01*
X110813700Y-48973700D02*
X107450000Y-45610000D01*
D17*
X98117719Y-63179393D02*
X99790500Y-61506612D01*
D16*
X73940000Y-70010000D02*
X74495000Y-69455000D01*
X86110000Y-79724695D02*
X86110000Y-80720000D01*
X85377822Y-57608915D02*
X87580000Y-59811093D01*
X109415000Y-54535000D02*
X109415000Y-48605000D01*
X109980000Y-55100000D02*
X109415000Y-54535000D01*
X87675000Y-65475000D02*
X94815000Y-65475000D01*
X101764286Y-65025000D02*
X101778667Y-65039381D01*
X99360000Y-38550000D02*
X99360000Y-38030000D01*
X85377822Y-54146678D02*
X85377822Y-57608915D01*
X87580000Y-59811093D02*
X87580000Y-65380000D01*
X86990000Y-52534500D02*
X85377822Y-54146678D01*
X94815000Y-65475000D02*
X95265000Y-65025000D01*
X87580000Y-65380000D02*
X87675000Y-65475000D01*
X74495000Y-69455000D02*
X75840305Y-69455000D01*
X75840305Y-69455000D02*
X86110000Y-79724695D01*
X95265000Y-65025000D02*
X101764286Y-65025000D01*
X109415000Y-48605000D02*
X99360000Y-38550000D01*
X111150000Y-53620000D02*
X110560000Y-53620000D01*
X112915000Y-55385000D02*
X111150000Y-53620000D01*
X112915000Y-61275000D02*
X112915000Y-55385000D01*
X107140000Y-67050000D02*
X112915000Y-61275000D01*
X73215000Y-69709695D02*
X73215000Y-70310305D01*
X76735999Y-69005000D02*
X73919695Y-69005000D01*
X73215000Y-70310305D02*
X73639695Y-70735000D01*
X73639695Y-70735000D02*
X74695000Y-70735000D01*
X81155000Y-69209500D02*
X76940499Y-69209500D01*
X76940499Y-69209500D02*
X76735999Y-69005000D01*
X81975500Y-70030000D02*
X81155000Y-69209500D01*
X73919695Y-69005000D02*
X73215000Y-69709695D01*
X90945000Y-59595000D02*
X90710000Y-59830000D01*
X89005000Y-59345000D02*
X87212651Y-57552651D01*
X100864569Y-59595000D02*
X90945000Y-59595000D01*
X97665000Y-41465000D02*
X97665000Y-53343881D01*
X90710000Y-59830000D02*
X90225000Y-59345000D01*
X97250000Y-41050000D02*
X97665000Y-41465000D01*
X108140000Y-58180000D02*
X102279569Y-58180000D01*
X90225000Y-59345000D02*
X89005000Y-59345000D01*
X86689695Y-51809500D02*
X82569195Y-55930000D01*
X87715000Y-52834805D02*
X87715000Y-52234195D01*
X111130000Y-55190000D02*
X108140000Y-58180000D01*
X97665000Y-53343881D02*
X91178881Y-59830000D01*
X102279569Y-58180000D02*
X100864569Y-59595000D01*
X87290305Y-51809500D02*
X86689695Y-51809500D01*
X87212651Y-57552651D02*
X87212651Y-53337154D01*
X71410000Y-55930000D02*
X70380000Y-54900000D01*
X87715000Y-52234195D02*
X87290305Y-51809500D01*
X82569195Y-55930000D02*
X71410000Y-55930000D01*
X87212651Y-53337154D02*
X87715000Y-52834805D01*
X91178881Y-59830000D02*
X90710000Y-59830000D01*
X123330000Y-55074695D02*
X116875000Y-61529695D01*
X100395000Y-84705000D02*
X97195000Y-87905000D01*
X111810305Y-84705000D02*
X100395000Y-84705000D01*
X116875000Y-61529695D02*
X116875000Y-76800305D01*
X117020000Y-76945305D02*
X117020000Y-80960000D01*
X112445000Y-82600000D02*
X112445000Y-84070305D01*
X115380000Y-82600000D02*
X112445000Y-82600000D01*
X123330000Y-52230000D02*
X123330000Y-55074695D01*
X97195000Y-87905000D02*
X94395000Y-87905000D01*
X110995500Y-80260000D02*
X112445000Y-81709500D01*
X112445000Y-81709500D02*
X112445000Y-82600000D01*
X116875000Y-76800305D02*
X117020000Y-76945305D01*
X117020000Y-80960000D02*
X115380000Y-82600000D01*
X112445000Y-84070305D02*
X111810305Y-84705000D01*
X94395000Y-87905000D02*
X93850000Y-88450000D01*
X97610500Y-77580000D02*
X98445500Y-78415000D01*
X98445500Y-78415000D02*
X109959695Y-78415000D01*
X111082010Y-78275000D02*
X111171206Y-78364196D01*
X109959695Y-78415000D02*
X110099695Y-78275000D01*
X110099695Y-78275000D02*
X111082010Y-78275000D01*
X101676500Y-60360000D02*
X102436500Y-59600000D01*
X102436500Y-59600000D02*
X108300498Y-59600000D01*
X108300498Y-59600000D02*
X112190000Y-55710498D01*
X95910000Y-60360000D02*
X101676500Y-60360000D01*
X114790000Y-62920000D02*
X114790000Y-52130000D01*
X104980000Y-72420000D02*
X105290000Y-72420000D01*
X105290000Y-72420000D02*
X114790000Y-62920000D01*
X121190000Y-52080000D02*
X115240000Y-58030000D01*
X115240000Y-58030000D02*
X115240000Y-63570000D01*
X115240000Y-63570000D02*
X106210000Y-72600000D01*
X97370000Y-80680000D02*
X90130000Y-87920000D01*
X93100939Y-53875000D02*
X93765000Y-53875000D01*
X108630000Y-80680000D02*
X97370000Y-80680000D01*
X93765000Y-53875000D02*
X94836435Y-54946435D01*
X94836435Y-54946435D02*
X94836435Y-55147141D01*
X111720000Y-83770000D02*
X108630000Y-80680000D01*
X90390000Y-51164061D02*
X93100939Y-53875000D01*
X90390000Y-51070000D02*
X90390000Y-51164061D01*
X88542800Y-79798105D02*
X97427211Y-79798105D01*
X86620500Y-60840000D02*
X84640000Y-62820500D01*
X84640000Y-75895305D02*
X88542800Y-79798105D01*
X84640000Y-62820500D02*
X84640000Y-75895305D01*
X106474252Y-76449557D02*
X107446674Y-76449557D01*
X104940000Y-67820000D02*
X102706116Y-70053884D01*
X102706116Y-72681421D02*
X106474252Y-76449557D01*
X102706116Y-70053884D02*
X102706116Y-72681421D01*
X119884695Y-52360000D02*
X120889695Y-51355000D01*
X99059695Y-37305000D02*
X99660305Y-37305000D01*
X115800305Y-52115000D02*
X117980305Y-52115000D01*
X121915000Y-53525000D02*
X115690000Y-59750000D01*
X106639695Y-44885000D02*
X108570305Y-44885000D01*
X121915000Y-51779695D02*
X121915000Y-53525000D01*
X118225305Y-52360000D02*
X119884695Y-52360000D01*
X120889695Y-51355000D02*
X121490305Y-51355000D01*
X117980305Y-52115000D02*
X118225305Y-52360000D01*
X121490305Y-51355000D02*
X121915000Y-51779695D01*
X99660305Y-37305000D02*
X100085000Y-37729695D01*
X100085000Y-38330305D02*
X106639695Y-44885000D01*
X115690000Y-59750000D02*
X115690000Y-69977610D01*
X97676740Y-54356740D02*
X98335000Y-53698480D01*
X100085000Y-37729695D02*
X100085000Y-38330305D01*
X115690000Y-69977610D02*
X111533805Y-74133805D01*
X98335000Y-53698480D02*
X98335000Y-38029695D01*
X108570305Y-44885000D02*
X115800305Y-52115000D01*
X98335000Y-38029695D02*
X99059695Y-37305000D01*
G04 #@! TA.AperFunction,Conductor*
G36*
X128942539Y-34020185D02*
G01*
X128988294Y-34072989D01*
X128999500Y-34124500D01*
X128999500Y-52875500D01*
X128979815Y-52942539D01*
X128927011Y-52988294D01*
X128875500Y-52999500D01*
X126024760Y-52999500D01*
X126024554Y-52999459D01*
X125999999Y-52999459D01*
X125999900Y-52999500D01*
X125999618Y-52999615D01*
X125999615Y-52999618D01*
X125999459Y-52999999D01*
X125999476Y-53024616D01*
X125999471Y-53024616D01*
X125999500Y-53024759D01*
X125999500Y-72975467D01*
X125999416Y-72975889D01*
X125999459Y-73000000D01*
X125999501Y-73000101D01*
X125999616Y-73000382D01*
X125999618Y-73000384D01*
X125999808Y-73000462D01*
X126000000Y-73000541D01*
X126000002Y-73000539D01*
X126024616Y-73000524D01*
X126024616Y-73000528D01*
X126024760Y-73000500D01*
X128875500Y-73000500D01*
X128942539Y-73020185D01*
X128988294Y-73072989D01*
X128999500Y-73124500D01*
X128999500Y-91875500D01*
X128979815Y-91942539D01*
X128927011Y-91988294D01*
X128875500Y-91999500D01*
X65124500Y-91999500D01*
X65057461Y-91979815D01*
X65011706Y-91927011D01*
X65000500Y-91875500D01*
X65000500Y-85975889D01*
X77499416Y-85975889D01*
X77499459Y-86000000D01*
X77499501Y-86000101D01*
X77499616Y-86000382D01*
X77499618Y-86000384D01*
X77499808Y-86000462D01*
X77500000Y-86000541D01*
X77500002Y-86000539D01*
X77524616Y-86000524D01*
X77524616Y-86000528D01*
X77524760Y-86000500D01*
X85475240Y-86000500D01*
X85475383Y-86000528D01*
X85475384Y-86000524D01*
X85499997Y-86000539D01*
X85500000Y-86000541D01*
X85500383Y-86000383D01*
X85500500Y-86000099D01*
X85500541Y-86000000D01*
X85500540Y-85999997D01*
X85500583Y-85975889D01*
X85500500Y-85975467D01*
X85500500Y-85024759D01*
X85500528Y-85024616D01*
X85500524Y-85024616D01*
X85500539Y-85000002D01*
X85500541Y-85000000D01*
X85500462Y-84999808D01*
X85500384Y-84999618D01*
X85500383Y-84999617D01*
X85500379Y-84999615D01*
X85500097Y-84999499D01*
X85500000Y-84999459D01*
X85475446Y-84999459D01*
X85475240Y-84999500D01*
X83380676Y-84999500D01*
X83313637Y-84979815D01*
X83267882Y-84927011D01*
X83257938Y-84857853D01*
X83282300Y-84800014D01*
X83315100Y-84757266D01*
X83364536Y-84692841D01*
X83425044Y-84546762D01*
X83445682Y-84390000D01*
X83425044Y-84233238D01*
X83364536Y-84087159D01*
X83364535Y-84087158D01*
X83268282Y-83961717D01*
X83142840Y-83865463D01*
X82996762Y-83804956D01*
X82840000Y-83784317D01*
X82683237Y-83804956D01*
X82537159Y-83865463D01*
X82411717Y-83961717D01*
X82315463Y-84087159D01*
X82254956Y-84233237D01*
X82234317Y-84390000D01*
X82254956Y-84546762D01*
X82315463Y-84692840D01*
X82397700Y-84800014D01*
X82422894Y-84865183D01*
X82408856Y-84933628D01*
X82360042Y-84983617D01*
X82299324Y-84999500D01*
X77524760Y-84999500D01*
X77524554Y-84999459D01*
X77499999Y-84999459D01*
X77499900Y-84999500D01*
X77499618Y-84999615D01*
X77499615Y-84999618D01*
X77499459Y-84999999D01*
X77499476Y-85024616D01*
X77499471Y-85024616D01*
X77499500Y-85024759D01*
X77499500Y-85975467D01*
X77499416Y-85975889D01*
X65000500Y-85975889D01*
X65000500Y-83720000D01*
X78344317Y-83720000D01*
X78364956Y-83876762D01*
X78425463Y-84022840D01*
X78521717Y-84148282D01*
X78642457Y-84240928D01*
X78647159Y-84244536D01*
X78793238Y-84305044D01*
X78950000Y-84325682D01*
X79106762Y-84305044D01*
X79252841Y-84244536D01*
X79378282Y-84148282D01*
X79474536Y-84022841D01*
X79535044Y-83876762D01*
X79555682Y-83720000D01*
X79535044Y-83563238D01*
X79474536Y-83417159D01*
X79446051Y-83380036D01*
X79378282Y-83291717D01*
X79252840Y-83195463D01*
X79106762Y-83134956D01*
X78950000Y-83114317D01*
X78793237Y-83134956D01*
X78647159Y-83195463D01*
X78521717Y-83291717D01*
X78425463Y-83417159D01*
X78364956Y-83563237D01*
X78344317Y-83720000D01*
X65000500Y-83720000D01*
X65000500Y-82855499D01*
X80014317Y-82855499D01*
X80034956Y-83012262D01*
X80095463Y-83158340D01*
X80191717Y-83283782D01*
X80317158Y-83380036D01*
X80317159Y-83380036D01*
X80463238Y-83440544D01*
X80620000Y-83461182D01*
X80776762Y-83440544D01*
X80922841Y-83380036D01*
X81048282Y-83283782D01*
X81144536Y-83158341D01*
X81205044Y-83012262D01*
X81225682Y-82855500D01*
X81225378Y-82853194D01*
X81222964Y-82834861D01*
X81205044Y-82698738D01*
X81144536Y-82552659D01*
X81121399Y-82522506D01*
X81048282Y-82427217D01*
X80922840Y-82330963D01*
X80776762Y-82270456D01*
X80620000Y-82249817D01*
X80463237Y-82270456D01*
X80317159Y-82330963D01*
X80191717Y-82427217D01*
X80095463Y-82552659D01*
X80034956Y-82698737D01*
X80014317Y-82855499D01*
X65000500Y-82855499D01*
X65000500Y-82475889D01*
X73999416Y-82475889D01*
X73999459Y-82500000D01*
X73999501Y-82500101D01*
X73999616Y-82500382D01*
X73999618Y-82500384D01*
X73999808Y-82500462D01*
X74000000Y-82500541D01*
X74000002Y-82500539D01*
X74024616Y-82500524D01*
X74024616Y-82500528D01*
X74024760Y-82500500D01*
X74975240Y-82500500D01*
X74975383Y-82500528D01*
X74975384Y-82500524D01*
X74999997Y-82500539D01*
X75000000Y-82500541D01*
X75000383Y-82500383D01*
X75000500Y-82500099D01*
X75000541Y-82500000D01*
X75000540Y-82499997D01*
X75000583Y-82475889D01*
X75000500Y-82475467D01*
X75000500Y-80000000D01*
X77994389Y-80000000D01*
X78014804Y-80285429D01*
X78075629Y-80565041D01*
X78175634Y-80833163D01*
X78312772Y-81084313D01*
X78350759Y-81135057D01*
X78484261Y-81313395D01*
X78686605Y-81515739D01*
X78777607Y-81583862D01*
X78915686Y-81687227D01*
X79030465Y-81749901D01*
X79166839Y-81824367D01*
X79434954Y-81924369D01*
X79434957Y-81924369D01*
X79434958Y-81924370D01*
X79481691Y-81934536D01*
X79714572Y-81985196D01*
X80000000Y-82005610D01*
X80285428Y-81985196D01*
X80565046Y-81924369D01*
X80833161Y-81824367D01*
X81084315Y-81687226D01*
X81313395Y-81515739D01*
X81419134Y-81410000D01*
X86884317Y-81410000D01*
X86904956Y-81566762D01*
X86965463Y-81712840D01*
X87061717Y-81838282D01*
X87136531Y-81895688D01*
X87187159Y-81934536D01*
X87333238Y-81995044D01*
X87490000Y-82015682D01*
X87646762Y-81995044D01*
X87792841Y-81934536D01*
X87918282Y-81838282D01*
X88014536Y-81712841D01*
X88075044Y-81566762D01*
X88095682Y-81410000D01*
X88075044Y-81253238D01*
X88014536Y-81107159D01*
X87989178Y-81074112D01*
X87918282Y-80981717D01*
X87792840Y-80885463D01*
X87646762Y-80824956D01*
X87490000Y-80804317D01*
X87333237Y-80824956D01*
X87187159Y-80885463D01*
X87061717Y-80981717D01*
X86965463Y-81107159D01*
X86904956Y-81253237D01*
X86884317Y-81410000D01*
X81419134Y-81410000D01*
X81515739Y-81313395D01*
X81687226Y-81084315D01*
X81824367Y-80833161D01*
X81924369Y-80565046D01*
X81985196Y-80285428D01*
X82005610Y-80000000D01*
X81985196Y-79714572D01*
X81924369Y-79434954D01*
X81824367Y-79166839D01*
X81763535Y-79055435D01*
X81687227Y-78915686D01*
X81570820Y-78760185D01*
X81515739Y-78686605D01*
X81313395Y-78484261D01*
X81098379Y-78323302D01*
X81084313Y-78312772D01*
X80833163Y-78175634D01*
X80833162Y-78175633D01*
X80833161Y-78175633D01*
X80587240Y-78083909D01*
X80565041Y-78075629D01*
X80285429Y-78014804D01*
X80000000Y-77994389D01*
X79714570Y-78014804D01*
X79434958Y-78075629D01*
X79166836Y-78175634D01*
X78915686Y-78312772D01*
X78686602Y-78484263D01*
X78484263Y-78686602D01*
X78312772Y-78915686D01*
X78175634Y-79166836D01*
X78075629Y-79434958D01*
X78014804Y-79714570D01*
X77994389Y-80000000D01*
X75000500Y-80000000D01*
X75000500Y-77370000D01*
X77954317Y-77370000D01*
X77974956Y-77526762D01*
X78035463Y-77672840D01*
X78131717Y-77798282D01*
X78241916Y-77882840D01*
X78257159Y-77894536D01*
X78403238Y-77955044D01*
X78560000Y-77975682D01*
X78716762Y-77955044D01*
X78862841Y-77894536D01*
X78988282Y-77798282D01*
X79084536Y-77672841D01*
X79145044Y-77526762D01*
X79165682Y-77370000D01*
X79145044Y-77213238D01*
X79084536Y-77067159D01*
X79075561Y-77055463D01*
X78988282Y-76941717D01*
X78862840Y-76845463D01*
X78716762Y-76784956D01*
X78560000Y-76764317D01*
X78403237Y-76784956D01*
X78257159Y-76845463D01*
X78131717Y-76941717D01*
X78035463Y-77067159D01*
X77974956Y-77213237D01*
X77954317Y-77370000D01*
X75000500Y-77370000D01*
X75000500Y-75807699D01*
X76362017Y-75807699D01*
X76382656Y-75964462D01*
X76443163Y-76110540D01*
X76539417Y-76235982D01*
X76613457Y-76292794D01*
X76664859Y-76332236D01*
X76810938Y-76392744D01*
X76967700Y-76413382D01*
X77124462Y-76392744D01*
X77270541Y-76332236D01*
X77395982Y-76235982D01*
X77492236Y-76110541D01*
X77552744Y-75964462D01*
X77573382Y-75807700D01*
X77552744Y-75650938D01*
X77492236Y-75504859D01*
X77402784Y-75388282D01*
X77395982Y-75379417D01*
X77270540Y-75283163D01*
X77124462Y-75222656D01*
X76967699Y-75202017D01*
X76810937Y-75222656D01*
X76664859Y-75283163D01*
X76539417Y-75379417D01*
X76443163Y-75504859D01*
X76382656Y-75650937D01*
X76362017Y-75807699D01*
X75000500Y-75807699D01*
X75000500Y-74960000D01*
X77814317Y-74960000D01*
X77834956Y-75116762D01*
X77895463Y-75262840D01*
X77991717Y-75388282D01*
X78117159Y-75484535D01*
X78117159Y-75484536D01*
X78263238Y-75545044D01*
X78420000Y-75565682D01*
X78576762Y-75545044D01*
X78722841Y-75484536D01*
X78848282Y-75388282D01*
X78944536Y-75262841D01*
X79005044Y-75116762D01*
X79025682Y-74960000D01*
X79005044Y-74803238D01*
X78944536Y-74657159D01*
X78871585Y-74562087D01*
X78848282Y-74531717D01*
X78722840Y-74435463D01*
X78576762Y-74374956D01*
X78420000Y-74354317D01*
X78263237Y-74374956D01*
X78117159Y-74435463D01*
X77991717Y-74531717D01*
X77895463Y-74657159D01*
X77834956Y-74803237D01*
X77814317Y-74960000D01*
X75000500Y-74960000D01*
X75000500Y-74524759D01*
X75000528Y-74524616D01*
X75000524Y-74524616D01*
X75000539Y-74500002D01*
X75000541Y-74500000D01*
X75000462Y-74499808D01*
X75000384Y-74499618D01*
X75000383Y-74499617D01*
X75000379Y-74499615D01*
X75000097Y-74499499D01*
X75000000Y-74499459D01*
X74975446Y-74499459D01*
X74975240Y-74499500D01*
X74024760Y-74499500D01*
X74024554Y-74499459D01*
X73999999Y-74499459D01*
X73999900Y-74499500D01*
X73999618Y-74499615D01*
X73999615Y-74499618D01*
X73999459Y-74499999D01*
X73999476Y-74524616D01*
X73999471Y-74524616D01*
X73999500Y-74524759D01*
X73999500Y-82475467D01*
X73999416Y-82475889D01*
X65000500Y-82475889D01*
X65000500Y-73124500D01*
X65020185Y-73057461D01*
X65072989Y-73011706D01*
X65124500Y-73000500D01*
X67975240Y-73000500D01*
X67975383Y-73000528D01*
X67975384Y-73000524D01*
X67999997Y-73000539D01*
X68000000Y-73000541D01*
X68000383Y-73000383D01*
X68000500Y-73000099D01*
X68000541Y-73000000D01*
X68000540Y-72999997D01*
X68000583Y-72975889D01*
X68000500Y-72975467D01*
X68000500Y-69116806D01*
X68020185Y-69049767D01*
X68072989Y-69004012D01*
X68125242Y-68992808D01*
X71324624Y-69012092D01*
X71391542Y-69032181D01*
X71436978Y-69085259D01*
X71446504Y-69154476D01*
X71417097Y-69217856D01*
X71399362Y-69234465D01*
X71311718Y-69301716D01*
X71215463Y-69427159D01*
X71154956Y-69573237D01*
X71134317Y-69729999D01*
X71154956Y-69886762D01*
X71215463Y-70032840D01*
X71311717Y-70158282D01*
X71418308Y-70240071D01*
X71437159Y-70254536D01*
X71583238Y-70315044D01*
X71740000Y-70335682D01*
X71896762Y-70315044D01*
X72042841Y-70254536D01*
X72168282Y-70158282D01*
X72264536Y-70032841D01*
X72325044Y-69886762D01*
X72345682Y-69730000D01*
X72325044Y-69573238D01*
X72264536Y-69427159D01*
X72248345Y-69406058D01*
X72168282Y-69301717D01*
X72087227Y-69239522D01*
X72046024Y-69183094D01*
X72041869Y-69113348D01*
X72076081Y-69052428D01*
X72137799Y-69019675D01*
X72163453Y-69017148D01*
X73142706Y-69023050D01*
X73209623Y-69043139D01*
X73255059Y-69096217D01*
X73264585Y-69165434D01*
X73235178Y-69228814D01*
X73229637Y-69234729D01*
X72998714Y-69465653D01*
X72990741Y-69472959D01*
X72961806Y-69497239D01*
X72942914Y-69529959D01*
X72937106Y-69539075D01*
X72914831Y-69570888D01*
X72904597Y-69595594D01*
X72897852Y-69633843D01*
X72895512Y-69644399D01*
X72885735Y-69680886D01*
X72889028Y-69718512D01*
X72889500Y-69729321D01*
X72889500Y-70151820D01*
X72869815Y-70218859D01*
X72817011Y-70264614D01*
X72749316Y-70274759D01*
X72670001Y-70264317D01*
X72513237Y-70284956D01*
X72367159Y-70345463D01*
X72241717Y-70441717D01*
X72145463Y-70567159D01*
X72084956Y-70713237D01*
X72064317Y-70870000D01*
X72084956Y-71026762D01*
X72128491Y-71131867D01*
X72135960Y-71201337D01*
X72104684Y-71263816D01*
X72061388Y-71293878D01*
X72057097Y-71295655D01*
X71931654Y-71391910D01*
X71835400Y-71517352D01*
X71774893Y-71663430D01*
X71754254Y-71820192D01*
X71774893Y-71976955D01*
X71835400Y-72123033D01*
X71931654Y-72248475D01*
X72057095Y-72344729D01*
X72057096Y-72344729D01*
X72203175Y-72405237D01*
X72339298Y-72423157D01*
X72359936Y-72425875D01*
X72359936Y-72425874D01*
X72359937Y-72425875D01*
X72516699Y-72405237D01*
X72662778Y-72344729D01*
X72788219Y-72248475D01*
X72884473Y-72123034D01*
X72944981Y-71976955D01*
X72965619Y-71820193D01*
X72964845Y-71814317D01*
X72955121Y-71740456D01*
X72944981Y-71663431D01*
X72901445Y-71558325D01*
X72893976Y-71488856D01*
X72925251Y-71426377D01*
X72968553Y-71396311D01*
X72972841Y-71394536D01*
X73098282Y-71298282D01*
X73194536Y-71172841D01*
X73247059Y-71046038D01*
X73290900Y-70991635D01*
X73357194Y-70969570D01*
X73423621Y-70986104D01*
X73427239Y-70988192D01*
X73427240Y-70988194D01*
X73449495Y-71001043D01*
X73459957Y-71007083D01*
X73469077Y-71012894D01*
X73500890Y-71035169D01*
X73525596Y-71045402D01*
X73526649Y-71045587D01*
X73526650Y-71045588D01*
X73563838Y-71052145D01*
X73574396Y-71054484D01*
X73610888Y-71064263D01*
X73610888Y-71064262D01*
X73610889Y-71064263D01*
X73631781Y-71062435D01*
X73648506Y-71060971D01*
X73659313Y-71060500D01*
X74126701Y-71060500D01*
X74193740Y-71080185D01*
X74225076Y-71109013D01*
X74266718Y-71163282D01*
X74392159Y-71259536D01*
X74538238Y-71320044D01*
X74695000Y-71340682D01*
X74851762Y-71320044D01*
X74997841Y-71259536D01*
X75123282Y-71163282D01*
X75219536Y-71037841D01*
X75280044Y-70891762D01*
X75300682Y-70735000D01*
X75280044Y-70578238D01*
X75219536Y-70432159D01*
X75192557Y-70396999D01*
X75123282Y-70306717D01*
X74997840Y-70210463D01*
X74851762Y-70149956D01*
X74694998Y-70129317D01*
X74686600Y-70130423D01*
X74617565Y-70119654D01*
X74565312Y-70073272D01*
X74547481Y-70023668D01*
X74545209Y-70006414D01*
X74536753Y-69942180D01*
X74547519Y-69873146D01*
X74572013Y-69838313D01*
X74593510Y-69816817D01*
X74654834Y-69783333D01*
X74681189Y-69780500D01*
X75654117Y-69780500D01*
X75721156Y-69800185D01*
X75741798Y-69816819D01*
X85748181Y-79823202D01*
X85781666Y-79884525D01*
X85784500Y-79910883D01*
X85784500Y-80151699D01*
X85764815Y-80218738D01*
X85735988Y-80250074D01*
X85681717Y-80291718D01*
X85585463Y-80417159D01*
X85524956Y-80563237D01*
X85504317Y-80720000D01*
X85524956Y-80876762D01*
X85585463Y-81022840D01*
X85681717Y-81148282D01*
X85749389Y-81200208D01*
X85807159Y-81244536D01*
X85953238Y-81305044D01*
X86110000Y-81325682D01*
X86266762Y-81305044D01*
X86412841Y-81244536D01*
X86538282Y-81148282D01*
X86634536Y-81022841D01*
X86695044Y-80876762D01*
X86715682Y-80720000D01*
X86695044Y-80563238D01*
X86634536Y-80417159D01*
X86538282Y-80291718D01*
X86496947Y-80260000D01*
X86484012Y-80250074D01*
X86442810Y-80193646D01*
X86435500Y-80151699D01*
X86435500Y-79744321D01*
X86435972Y-79733513D01*
X86439264Y-79695887D01*
X86429487Y-79659401D01*
X86427145Y-79648838D01*
X86420588Y-79611650D01*
X86420587Y-79611649D01*
X86420400Y-79610586D01*
X86410171Y-79585893D01*
X86409554Y-79585012D01*
X86409554Y-79585011D01*
X86387892Y-79554074D01*
X86382080Y-79544951D01*
X86363194Y-79512239D01*
X86334255Y-79487957D01*
X86326280Y-79480649D01*
X80225631Y-73380000D01*
X82544317Y-73380000D01*
X82564956Y-73536762D01*
X82625463Y-73682840D01*
X82721717Y-73808282D01*
X82803884Y-73871330D01*
X82847159Y-73904536D01*
X82993238Y-73965044D01*
X83150000Y-73985682D01*
X83306762Y-73965044D01*
X83452841Y-73904536D01*
X83578282Y-73808282D01*
X83674536Y-73682841D01*
X83735044Y-73536762D01*
X83755682Y-73380000D01*
X83735044Y-73223238D01*
X83674536Y-73077159D01*
X83646315Y-73040380D01*
X83578282Y-72951717D01*
X83452840Y-72855463D01*
X83306762Y-72794956D01*
X83149999Y-72774317D01*
X82993237Y-72794956D01*
X82847159Y-72855463D01*
X82721717Y-72951717D01*
X82625463Y-73077159D01*
X82564956Y-73223237D01*
X82544317Y-73380000D01*
X80225631Y-73380000D01*
X79392658Y-72547027D01*
X79359173Y-72485704D01*
X79364157Y-72416012D01*
X79406029Y-72360079D01*
X79432887Y-72344785D01*
X79462683Y-72332443D01*
X79578341Y-72284536D01*
X79703782Y-72188282D01*
X79800036Y-72062841D01*
X79860544Y-71916762D01*
X79881182Y-71760000D01*
X79860544Y-71603238D01*
X79800036Y-71457159D01*
X79749969Y-71391910D01*
X79703782Y-71331717D01*
X79578340Y-71235463D01*
X79432262Y-71174956D01*
X79275499Y-71154317D01*
X79118737Y-71174956D01*
X78972659Y-71235463D01*
X78847217Y-71331717D01*
X78750963Y-71457158D01*
X78690714Y-71602613D01*
X78646873Y-71657016D01*
X78580578Y-71679081D01*
X78512879Y-71661801D01*
X78488472Y-71642841D01*
X76387812Y-69542181D01*
X76354327Y-69480858D01*
X76359311Y-69411166D01*
X76401183Y-69355233D01*
X76466647Y-69330816D01*
X76475493Y-69330500D01*
X76549811Y-69330500D01*
X76616850Y-69350185D01*
X76637492Y-69366819D01*
X76696449Y-69425776D01*
X76703757Y-69433750D01*
X76728044Y-69462694D01*
X76752093Y-69476579D01*
X76760755Y-69481580D01*
X76769878Y-69487392D01*
X76770795Y-69488034D01*
X76800815Y-69509054D01*
X76800816Y-69509054D01*
X76801697Y-69509671D01*
X76826390Y-69519900D01*
X76827453Y-69520087D01*
X76827454Y-69520088D01*
X76864642Y-69526645D01*
X76875200Y-69528985D01*
X76911692Y-69538764D01*
X76949322Y-69535471D01*
X76960129Y-69535000D01*
X80968812Y-69535000D01*
X81035851Y-69554685D01*
X81056493Y-69571319D01*
X81343488Y-69858314D01*
X81376973Y-69919637D01*
X81378746Y-69962180D01*
X81369817Y-70029999D01*
X81390456Y-70186762D01*
X81450963Y-70332840D01*
X81547217Y-70458282D01*
X81672658Y-70554536D01*
X81672659Y-70554536D01*
X81818738Y-70615044D01*
X81975500Y-70635682D01*
X82132262Y-70615044D01*
X82278341Y-70554536D01*
X82403782Y-70458282D01*
X82500036Y-70332841D01*
X82560544Y-70186762D01*
X82581182Y-70030000D01*
X82560544Y-69873238D01*
X82500036Y-69727159D01*
X82461670Y-69677159D01*
X82403782Y-69601717D01*
X82278340Y-69505463D01*
X82132262Y-69444956D01*
X81975499Y-69424317D01*
X81907680Y-69433246D01*
X81838644Y-69422480D01*
X81803814Y-69397988D01*
X81692622Y-69286796D01*
X81659137Y-69225473D01*
X81664121Y-69155781D01*
X81705993Y-69099848D01*
X81771457Y-69075431D01*
X81781028Y-69075117D01*
X84191247Y-69089645D01*
X84258167Y-69109734D01*
X84303603Y-69162812D01*
X84314500Y-69213643D01*
X84314500Y-75875677D01*
X84314028Y-75886485D01*
X84310735Y-75924112D01*
X84320512Y-75960601D01*
X84322853Y-75971157D01*
X84329599Y-76009412D01*
X84339829Y-76034108D01*
X84340446Y-76034989D01*
X84362112Y-76065932D01*
X84367915Y-76075041D01*
X84386806Y-76107760D01*
X84415742Y-76132040D01*
X84423718Y-76139349D01*
X88298750Y-80014381D01*
X88306058Y-80022355D01*
X88330345Y-80051299D01*
X88354394Y-80065184D01*
X88363056Y-80070185D01*
X88372179Y-80075997D01*
X88403116Y-80097659D01*
X88403117Y-80097659D01*
X88403998Y-80098276D01*
X88428691Y-80108505D01*
X88429754Y-80108692D01*
X88429755Y-80108693D01*
X88466943Y-80115250D01*
X88477501Y-80117590D01*
X88513993Y-80127369D01*
X88551623Y-80124076D01*
X88562430Y-80123605D01*
X96858912Y-80123605D01*
X96925951Y-80143290D01*
X96957288Y-80172119D01*
X96993059Y-80218738D01*
X96998929Y-80226387D01*
X97064266Y-80276522D01*
X97092915Y-80298505D01*
X97134117Y-80354933D01*
X97138272Y-80424679D01*
X97105109Y-80484562D01*
X90301684Y-87287988D01*
X90240361Y-87321473D01*
X90197818Y-87323246D01*
X90130000Y-87314317D01*
X89973237Y-87334956D01*
X89827159Y-87395463D01*
X89701717Y-87491717D01*
X89605463Y-87617159D01*
X89544956Y-87763237D01*
X89524317Y-87920000D01*
X89544956Y-88076762D01*
X89605463Y-88222840D01*
X89701717Y-88348282D01*
X89745896Y-88382181D01*
X89827159Y-88444536D01*
X89973238Y-88505044D01*
X90130000Y-88525682D01*
X90286762Y-88505044D01*
X90432841Y-88444536D01*
X90558282Y-88348282D01*
X90654536Y-88222841D01*
X90715044Y-88076762D01*
X90735682Y-87920000D01*
X90726752Y-87852180D01*
X90737518Y-87783144D01*
X90762008Y-87748316D01*
X95030325Y-83480000D01*
X97434785Y-83480000D01*
X97453602Y-83683083D01*
X97509418Y-83879251D01*
X97600324Y-84061818D01*
X97723236Y-84224580D01*
X97873958Y-84361981D01*
X98047361Y-84469347D01*
X98047363Y-84469348D01*
X98237544Y-84543024D01*
X98438024Y-84580500D01*
X98438026Y-84580500D01*
X98641974Y-84580500D01*
X98641976Y-84580500D01*
X98842456Y-84543024D01*
X99032637Y-84469348D01*
X99206041Y-84361981D01*
X99333966Y-84245362D01*
X99356763Y-84224580D01*
X99368450Y-84209104D01*
X99479673Y-84061821D01*
X99479673Y-84061819D01*
X99479675Y-84061818D01*
X99546924Y-83926762D01*
X99570582Y-83879250D01*
X99626397Y-83683083D01*
X99645215Y-83480000D01*
X99628140Y-83295733D01*
X99626397Y-83276916D01*
X99603221Y-83195463D01*
X99570582Y-83080750D01*
X99570209Y-83080001D01*
X99479675Y-82898181D01*
X99356763Y-82735419D01*
X99206041Y-82598018D01*
X99032638Y-82490652D01*
X98842457Y-82416976D01*
X98775629Y-82404484D01*
X98641976Y-82379500D01*
X98438024Y-82379500D01*
X98375793Y-82391133D01*
X98237542Y-82416976D01*
X98047361Y-82490652D01*
X97873958Y-82598018D01*
X97723236Y-82735419D01*
X97600324Y-82898181D01*
X97509418Y-83080748D01*
X97453602Y-83276916D01*
X97434785Y-83480000D01*
X95030325Y-83480000D01*
X97468507Y-81041819D01*
X97529831Y-81008334D01*
X97556189Y-81005500D01*
X108443812Y-81005500D01*
X108510851Y-81025185D01*
X108531493Y-81041819D01*
X109657493Y-82167819D01*
X109690978Y-82229142D01*
X109685994Y-82298834D01*
X109644122Y-82354767D01*
X109578658Y-82379184D01*
X109569812Y-82379500D01*
X107780251Y-82379500D01*
X107721769Y-82391132D01*
X107655447Y-82435447D01*
X107611132Y-82501769D01*
X107599500Y-82560251D01*
X107599500Y-84255500D01*
X107579815Y-84322539D01*
X107527011Y-84368294D01*
X107475500Y-84379500D01*
X104568799Y-84379500D01*
X104501760Y-84359815D01*
X104456005Y-84307011D01*
X104446061Y-84237853D01*
X104469845Y-84180773D01*
X104559675Y-84061818D01*
X104626924Y-83926762D01*
X104650582Y-83879250D01*
X104706397Y-83683083D01*
X104725215Y-83480000D01*
X104708140Y-83295733D01*
X104706397Y-83276916D01*
X104683221Y-83195463D01*
X104650582Y-83080750D01*
X104650209Y-83080001D01*
X104559675Y-82898181D01*
X104436763Y-82735419D01*
X104286041Y-82598018D01*
X104112638Y-82490652D01*
X103922457Y-82416976D01*
X103855629Y-82404484D01*
X103721976Y-82379500D01*
X103518024Y-82379500D01*
X103455793Y-82391133D01*
X103317542Y-82416976D01*
X103127361Y-82490652D01*
X102953958Y-82598018D01*
X102803236Y-82735419D01*
X102680324Y-82898181D01*
X102589418Y-83080748D01*
X102533602Y-83276916D01*
X102514785Y-83480000D01*
X102533602Y-83683083D01*
X102589418Y-83879251D01*
X102680324Y-84061818D01*
X102770155Y-84180773D01*
X102794847Y-84246135D01*
X102780282Y-84314469D01*
X102731084Y-84364082D01*
X102671201Y-84379500D01*
X100414616Y-84379500D01*
X100403808Y-84379028D01*
X100366193Y-84375736D01*
X100329716Y-84385510D01*
X100319162Y-84387849D01*
X100280905Y-84394595D01*
X100256190Y-84404834D01*
X100224377Y-84427108D01*
X100215261Y-84432915D01*
X100182545Y-84451804D01*
X100158262Y-84480743D01*
X100150956Y-84488715D01*
X97096493Y-87543181D01*
X97035170Y-87576666D01*
X97008812Y-87579500D01*
X94414617Y-87579500D01*
X94403809Y-87579028D01*
X94366193Y-87575736D01*
X94329716Y-87585510D01*
X94319162Y-87587849D01*
X94280905Y-87594595D01*
X94256190Y-87604834D01*
X94224377Y-87627108D01*
X94215261Y-87632915D01*
X94182545Y-87651804D01*
X94158261Y-87680744D01*
X94150955Y-87688716D01*
X94076435Y-87763238D01*
X94021685Y-87817988D01*
X93960362Y-87851473D01*
X93917818Y-87853246D01*
X93850000Y-87844317D01*
X93693237Y-87864956D01*
X93547159Y-87925463D01*
X93421717Y-88021717D01*
X93325463Y-88147159D01*
X93264956Y-88293237D01*
X93244317Y-88450000D01*
X93264956Y-88606762D01*
X93325463Y-88752840D01*
X93421717Y-88878282D01*
X93547159Y-88974535D01*
X93547159Y-88974536D01*
X93693238Y-89035044D01*
X93850000Y-89055682D01*
X94006762Y-89035044D01*
X94152841Y-88974536D01*
X94278282Y-88878282D01*
X94374536Y-88752841D01*
X94435044Y-88606762D01*
X94455682Y-88450000D01*
X94446753Y-88382180D01*
X94457518Y-88313146D01*
X94482012Y-88278313D01*
X94493511Y-88266814D01*
X94554835Y-88233333D01*
X94581188Y-88230500D01*
X97175373Y-88230500D01*
X97186180Y-88230971D01*
X97223807Y-88234264D01*
X97260324Y-88224478D01*
X97270830Y-88222149D01*
X97308045Y-88215588D01*
X97308047Y-88215586D01*
X97309112Y-88215399D01*
X97333799Y-88205173D01*
X97334682Y-88204554D01*
X97334684Y-88204554D01*
X97365625Y-88182887D01*
X97374722Y-88177091D01*
X97407455Y-88158194D01*
X97431748Y-88129241D01*
X97439036Y-88121288D01*
X100493507Y-85066819D01*
X100554831Y-85033334D01*
X100581189Y-85030500D01*
X108375500Y-85030500D01*
X108442539Y-85050185D01*
X108488294Y-85102989D01*
X108499500Y-85154500D01*
X108499500Y-85975467D01*
X108499416Y-85975889D01*
X108499459Y-86000000D01*
X108499501Y-86000101D01*
X108499616Y-86000382D01*
X108499618Y-86000384D01*
X108499808Y-86000462D01*
X108500000Y-86000541D01*
X108500002Y-86000539D01*
X108524616Y-86000524D01*
X108524616Y-86000528D01*
X108524760Y-86000500D01*
X116475240Y-86000500D01*
X116475383Y-86000528D01*
X116475384Y-86000524D01*
X116499997Y-86000539D01*
X116500000Y-86000541D01*
X116500383Y-86000383D01*
X116500500Y-86000099D01*
X116500541Y-86000000D01*
X116500540Y-85999997D01*
X116500583Y-85975889D01*
X116500500Y-85975467D01*
X116500500Y-85024759D01*
X116500528Y-85024616D01*
X116500524Y-85024616D01*
X116500539Y-85000002D01*
X116500541Y-85000000D01*
X116500462Y-84999808D01*
X116500384Y-84999618D01*
X116500383Y-84999617D01*
X116500379Y-84999615D01*
X116500097Y-84999499D01*
X116500000Y-84999459D01*
X116475446Y-84999459D01*
X116475240Y-84999500D01*
X112275492Y-84999500D01*
X112208453Y-84979815D01*
X112162698Y-84927011D01*
X112152754Y-84857853D01*
X112181779Y-84794297D01*
X112187811Y-84787819D01*
X112282790Y-84692840D01*
X112661296Y-84314334D01*
X112669249Y-84307046D01*
X112698194Y-84282760D01*
X112717082Y-84250043D01*
X112722881Y-84240940D01*
X112744554Y-84209989D01*
X112744554Y-84209987D01*
X112745173Y-84209104D01*
X112755398Y-84184417D01*
X112755585Y-84183354D01*
X112755588Y-84183350D01*
X112762150Y-84146127D01*
X112764479Y-84135621D01*
X112774263Y-84099112D01*
X112770969Y-84061469D01*
X112770500Y-84050707D01*
X112770500Y-83049500D01*
X112790185Y-82982460D01*
X112842989Y-82936706D01*
X112894500Y-82925500D01*
X115360373Y-82925500D01*
X115371180Y-82925971D01*
X115408807Y-82929264D01*
X115445324Y-82919478D01*
X115455830Y-82917149D01*
X115493045Y-82910588D01*
X115493047Y-82910586D01*
X115494112Y-82910399D01*
X115518799Y-82900173D01*
X115519682Y-82899554D01*
X115519684Y-82899554D01*
X115550625Y-82877887D01*
X115559722Y-82872091D01*
X115592455Y-82853194D01*
X115616748Y-82824241D01*
X115624036Y-82816288D01*
X115964435Y-82475889D01*
X118999416Y-82475889D01*
X118999459Y-82500000D01*
X118999501Y-82500101D01*
X118999616Y-82500382D01*
X118999618Y-82500384D01*
X118999808Y-82500462D01*
X119000000Y-82500541D01*
X119000002Y-82500539D01*
X119024616Y-82500524D01*
X119024616Y-82500528D01*
X119024760Y-82500500D01*
X119975240Y-82500500D01*
X119975383Y-82500528D01*
X119975384Y-82500524D01*
X119999997Y-82500539D01*
X120000000Y-82500541D01*
X120000383Y-82500383D01*
X120000385Y-82500379D01*
X120006893Y-82485031D01*
X120000521Y-82464747D01*
X120000499Y-82462417D01*
X120000499Y-74508647D01*
X120000541Y-74500003D01*
X120000540Y-74500001D01*
X120000541Y-74500000D01*
X120000383Y-74499617D01*
X120000379Y-74499615D01*
X120000097Y-74499499D01*
X120000000Y-74499459D01*
X119975446Y-74499459D01*
X119975240Y-74499500D01*
X119024760Y-74499500D01*
X119024554Y-74499459D01*
X118999999Y-74499459D01*
X118999900Y-74499500D01*
X118999618Y-74499615D01*
X118999615Y-74499618D01*
X118999459Y-74499999D01*
X118999476Y-74524616D01*
X118999471Y-74524616D01*
X118999500Y-74524759D01*
X118999500Y-82475467D01*
X118999416Y-82475889D01*
X115964435Y-82475889D01*
X117236296Y-81204029D01*
X117244249Y-81196741D01*
X117273194Y-81172455D01*
X117292082Y-81139738D01*
X117297881Y-81130635D01*
X117319554Y-81099684D01*
X117319554Y-81099682D01*
X117320173Y-81098799D01*
X117330398Y-81074112D01*
X117330585Y-81073049D01*
X117330588Y-81073045D01*
X117337150Y-81035822D01*
X117339479Y-81025316D01*
X117349263Y-80988807D01*
X117345972Y-80951187D01*
X117345500Y-80940380D01*
X117345500Y-76964931D01*
X117345972Y-76954123D01*
X117347286Y-76939108D01*
X117349264Y-76916498D01*
X117348874Y-76915044D01*
X117339487Y-76880011D01*
X117337145Y-76869448D01*
X117334516Y-76854536D01*
X117330588Y-76832260D01*
X117330587Y-76832259D01*
X117330400Y-76831196D01*
X117320171Y-76806503D01*
X117319554Y-76805622D01*
X117319554Y-76805621D01*
X117302088Y-76780677D01*
X117297892Y-76774684D01*
X117292080Y-76765561D01*
X117273194Y-76732849D01*
X117244794Y-76709019D01*
X117206092Y-76650847D01*
X117200500Y-76614030D01*
X117200500Y-74350284D01*
X117220185Y-74283245D01*
X117272989Y-74237490D01*
X117342147Y-74227546D01*
X117371946Y-74235721D01*
X117442738Y-74265044D01*
X117521118Y-74275362D01*
X117599499Y-74285682D01*
X117599499Y-74285681D01*
X117599500Y-74285682D01*
X117756262Y-74265044D01*
X117902341Y-74204536D01*
X118027782Y-74108282D01*
X118124036Y-73982841D01*
X118184544Y-73836762D01*
X118205182Y-73680000D01*
X118184544Y-73523238D01*
X118124036Y-73377159D01*
X118027782Y-73251717D01*
X117902340Y-73155463D01*
X117756262Y-73094956D01*
X117599499Y-73074317D01*
X117442737Y-73094956D01*
X117371952Y-73124276D01*
X117302483Y-73131745D01*
X117240004Y-73100469D01*
X117204352Y-73040380D01*
X117200500Y-73009715D01*
X117200500Y-69980000D01*
X121534317Y-69980000D01*
X121554956Y-70136762D01*
X121615463Y-70282840D01*
X121711717Y-70408282D01*
X121812588Y-70485682D01*
X121837159Y-70504536D01*
X121983238Y-70565044D01*
X122140000Y-70585682D01*
X122296762Y-70565044D01*
X122442841Y-70504536D01*
X122568282Y-70408282D01*
X122664536Y-70282841D01*
X122725044Y-70136762D01*
X122745682Y-69980000D01*
X122725044Y-69823238D01*
X122664536Y-69677159D01*
X122664536Y-69677158D01*
X122568282Y-69551717D01*
X122442840Y-69455463D01*
X122296762Y-69394956D01*
X122140000Y-69374317D01*
X121983237Y-69394956D01*
X121837159Y-69455463D01*
X121711717Y-69551717D01*
X121615463Y-69677159D01*
X121554956Y-69823237D01*
X121534317Y-69980000D01*
X117200500Y-69980000D01*
X117200500Y-61715882D01*
X117220185Y-61648843D01*
X117236814Y-61628206D01*
X123233695Y-55631324D01*
X123295016Y-55597841D01*
X123364708Y-55602825D01*
X123420641Y-55644697D01*
X123435935Y-55671553D01*
X123465464Y-55742842D01*
X123561717Y-55868282D01*
X123655244Y-55940047D01*
X123687159Y-55964536D01*
X123833238Y-56025044D01*
X123990000Y-56045682D01*
X124146762Y-56025044D01*
X124292841Y-55964536D01*
X124418282Y-55868282D01*
X124514536Y-55742841D01*
X124575044Y-55596762D01*
X124595682Y-55440000D01*
X124575044Y-55283238D01*
X124514536Y-55137159D01*
X124511929Y-55133761D01*
X124418282Y-55011717D01*
X124292840Y-54915463D01*
X124146762Y-54854956D01*
X123989999Y-54834317D01*
X123833238Y-54854956D01*
X123826949Y-54857561D01*
X123757479Y-54865027D01*
X123695001Y-54833750D01*
X123659351Y-54773660D01*
X123655500Y-54742998D01*
X123655500Y-52798299D01*
X123666746Y-52760000D01*
X124144317Y-52760000D01*
X124164956Y-52916762D01*
X124225463Y-53062840D01*
X124321717Y-53188282D01*
X124447158Y-53284535D01*
X124447159Y-53284536D01*
X124593238Y-53345044D01*
X124750000Y-53365682D01*
X124906762Y-53345044D01*
X125052841Y-53284536D01*
X125178282Y-53188282D01*
X125274536Y-53062841D01*
X125335044Y-52916762D01*
X125355682Y-52760000D01*
X125335044Y-52603238D01*
X125274536Y-52457159D01*
X125257139Y-52434487D01*
X125178282Y-52331717D01*
X125052840Y-52235463D01*
X124906762Y-52174956D01*
X124749999Y-52154317D01*
X124593237Y-52174956D01*
X124447159Y-52235463D01*
X124321717Y-52331717D01*
X124225463Y-52457159D01*
X124164956Y-52603237D01*
X124144317Y-52760000D01*
X123666746Y-52760000D01*
X123675185Y-52731260D01*
X123704014Y-52699923D01*
X123758282Y-52658282D01*
X123854536Y-52532841D01*
X123915044Y-52386762D01*
X123935682Y-52230000D01*
X123915044Y-52073238D01*
X123854536Y-51927159D01*
X123804389Y-51861806D01*
X123758282Y-51801717D01*
X123632840Y-51705463D01*
X123486762Y-51644956D01*
X123330000Y-51624317D01*
X123173237Y-51644956D01*
X123027159Y-51705463D01*
X122901717Y-51801717D01*
X122805463Y-51927159D01*
X122744956Y-52073237D01*
X122724317Y-52229999D01*
X122744956Y-52386762D01*
X122805463Y-52532840D01*
X122899688Y-52655636D01*
X122901718Y-52658282D01*
X122955986Y-52699923D01*
X122997189Y-52756350D01*
X123004500Y-52798299D01*
X123004500Y-54888506D01*
X122984815Y-54955545D01*
X122968181Y-54976187D01*
X122418909Y-55525458D01*
X122357586Y-55558943D01*
X122287894Y-55553959D01*
X122231961Y-55512087D01*
X122216667Y-55485229D01*
X122216590Y-55485044D01*
X122184536Y-55407657D01*
X122173917Y-55393818D01*
X122088282Y-55282215D01*
X121962840Y-55185961D01*
X121816762Y-55125454D01*
X121659999Y-55104815D01*
X121503237Y-55125454D01*
X121357159Y-55185961D01*
X121231717Y-55282215D01*
X121135463Y-55407657D01*
X121074956Y-55553735D01*
X121054317Y-55710497D01*
X121074956Y-55867260D01*
X121135463Y-56013338D01*
X121231717Y-56138780D01*
X121278682Y-56174817D01*
X121357159Y-56235034D01*
X121434732Y-56267165D01*
X121489135Y-56311005D01*
X121511200Y-56377299D01*
X121493921Y-56444999D01*
X121474960Y-56469407D01*
X116658714Y-61285653D01*
X116650741Y-61292959D01*
X116621806Y-61317239D01*
X116602914Y-61349959D01*
X116597106Y-61359075D01*
X116574831Y-61390888D01*
X116564597Y-61415594D01*
X116557852Y-61453843D01*
X116555512Y-61464399D01*
X116545735Y-61500886D01*
X116549028Y-61538512D01*
X116549500Y-61549321D01*
X116549500Y-76780677D01*
X116549028Y-76791485D01*
X116545735Y-76829112D01*
X116555512Y-76865601D01*
X116557853Y-76876157D01*
X116564599Y-76914412D01*
X116574829Y-76939108D01*
X116575446Y-76939989D01*
X116597112Y-76970932D01*
X116602915Y-76980041D01*
X116621806Y-77012760D01*
X116650205Y-77036590D01*
X116688907Y-77094761D01*
X116694499Y-77131579D01*
X116694500Y-80773811D01*
X116674815Y-80840850D01*
X116658181Y-80861492D01*
X115281493Y-82238181D01*
X115220170Y-82271666D01*
X115193812Y-82274500D01*
X112894500Y-82274500D01*
X112827461Y-82254815D01*
X112781706Y-82202011D01*
X112770500Y-82150500D01*
X112770500Y-81816940D01*
X112790185Y-81749901D01*
X112842989Y-81704146D01*
X112912147Y-81694202D01*
X112953927Y-81708108D01*
X113030465Y-81749901D01*
X113166839Y-81824367D01*
X113434954Y-81924369D01*
X113434957Y-81924369D01*
X113434958Y-81924370D01*
X113481691Y-81934536D01*
X113714572Y-81985196D01*
X114000000Y-82005610D01*
X114285428Y-81985196D01*
X114565046Y-81924369D01*
X114833161Y-81824367D01*
X115084315Y-81687226D01*
X115313395Y-81515739D01*
X115515739Y-81313395D01*
X115687226Y-81084315D01*
X115824367Y-80833161D01*
X115924369Y-80565046D01*
X115985196Y-80285428D01*
X116005610Y-80000000D01*
X115985196Y-79714572D01*
X115924369Y-79434954D01*
X115824367Y-79166839D01*
X115763535Y-79055435D01*
X115687227Y-78915686D01*
X115570820Y-78760185D01*
X115515739Y-78686605D01*
X115313395Y-78484261D01*
X115098379Y-78323302D01*
X115084313Y-78312772D01*
X114833163Y-78175634D01*
X114833162Y-78175633D01*
X114833161Y-78175633D01*
X114587240Y-78083909D01*
X114565041Y-78075629D01*
X114285429Y-78014804D01*
X114000000Y-77994389D01*
X113714570Y-78014804D01*
X113434958Y-78075629D01*
X113166836Y-78175634D01*
X112915686Y-78312772D01*
X112686602Y-78484263D01*
X112484263Y-78686602D01*
X112312772Y-78915686D01*
X112175634Y-79166836D01*
X112075629Y-79434958D01*
X112014804Y-79714570D01*
X111994389Y-80000000D01*
X112014804Y-80285429D01*
X112073371Y-80554659D01*
X112068387Y-80624351D01*
X112026515Y-80680284D01*
X111961051Y-80704701D01*
X111892778Y-80689849D01*
X111864524Y-80668698D01*
X111627511Y-80431685D01*
X111594026Y-80370362D01*
X111592253Y-80327818D01*
X111597834Y-80285428D01*
X111601182Y-80260000D01*
X111580544Y-80103238D01*
X111520036Y-79957159D01*
X111505551Y-79938282D01*
X111423782Y-79831717D01*
X111298340Y-79735463D01*
X111152262Y-79674956D01*
X110995499Y-79654317D01*
X110838737Y-79674956D01*
X110692659Y-79735463D01*
X110567217Y-79831717D01*
X110470963Y-79957159D01*
X110410456Y-80103237D01*
X110389817Y-80260000D01*
X110410456Y-80416762D01*
X110470963Y-80562840D01*
X110567217Y-80688282D01*
X110678682Y-80773811D01*
X110692659Y-80784536D01*
X110838738Y-80845044D01*
X110963674Y-80861492D01*
X110995499Y-80865682D01*
X110995499Y-80865681D01*
X110995500Y-80865682D01*
X111063318Y-80856753D01*
X111132353Y-80867518D01*
X111167185Y-80892011D01*
X112083181Y-81808007D01*
X112116666Y-81869330D01*
X112119500Y-81895688D01*
X112119500Y-83099922D01*
X112099815Y-83166961D01*
X112047011Y-83212716D01*
X111977853Y-83222660D01*
X111948048Y-83214483D01*
X111876762Y-83184956D01*
X111719999Y-83164317D01*
X111652180Y-83173246D01*
X111583144Y-83162480D01*
X111548314Y-83137988D01*
X108874043Y-80463717D01*
X108866734Y-80455741D01*
X108842454Y-80426805D01*
X108809736Y-80407915D01*
X108800627Y-80402112D01*
X108769684Y-80380446D01*
X108768803Y-80379829D01*
X108744107Y-80369599D01*
X108705852Y-80362853D01*
X108695296Y-80360512D01*
X108658807Y-80350735D01*
X108621180Y-80354028D01*
X108610372Y-80354500D01*
X105307871Y-80354500D01*
X105240832Y-80334815D01*
X105231857Y-80324457D01*
X105171235Y-80353019D01*
X105152129Y-80354500D01*
X98008636Y-80354500D01*
X97941597Y-80334815D01*
X97895842Y-80282011D01*
X97885898Y-80212853D01*
X97910260Y-80155014D01*
X97940050Y-80116190D01*
X97951747Y-80100946D01*
X98012255Y-79954867D01*
X98032893Y-79798105D01*
X98012255Y-79641343D01*
X97951747Y-79495264D01*
X97928750Y-79465294D01*
X97855493Y-79369822D01*
X97730051Y-79273568D01*
X97583973Y-79213061D01*
X97427211Y-79192422D01*
X97270448Y-79213061D01*
X97124370Y-79273568D01*
X96998929Y-79369822D01*
X96957288Y-79424091D01*
X96900861Y-79465294D01*
X96858912Y-79472605D01*
X88728988Y-79472605D01*
X88661949Y-79452920D01*
X88641307Y-79436286D01*
X85001819Y-75796798D01*
X84968334Y-75735475D01*
X84965500Y-75709117D01*
X84965500Y-72330000D01*
X85654677Y-72330000D01*
X85654773Y-72332443D01*
X85673863Y-72818336D01*
X85673864Y-72818353D01*
X85673960Y-72820787D01*
X85674247Y-72823214D01*
X85674248Y-72823223D01*
X85726533Y-73264982D01*
X85731690Y-73308548D01*
X85732163Y-73310928D01*
X85732165Y-73310938D01*
X85827035Y-73787881D01*
X85827038Y-73787895D01*
X85827512Y-73790276D01*
X85828172Y-73792617D01*
X85828174Y-73792624D01*
X85960171Y-74260653D01*
X85960177Y-74260671D01*
X85960834Y-74263001D01*
X86004205Y-74380563D01*
X86129005Y-74718849D01*
X86130835Y-74723808D01*
X86131840Y-74725988D01*
X86131845Y-74726000D01*
X86239721Y-74960000D01*
X86336466Y-75169857D01*
X86337649Y-75171970D01*
X86337657Y-75171985D01*
X86574756Y-75595355D01*
X86576460Y-75598397D01*
X86577813Y-75600422D01*
X86577818Y-75600430D01*
X86732051Y-75831258D01*
X86732067Y-75831312D01*
X86732480Y-75831899D01*
X86847050Y-76003364D01*
X86849337Y-76006787D01*
X86850848Y-76008704D01*
X86850849Y-76008705D01*
X87024580Y-76229082D01*
X87024676Y-76229322D01*
X87026622Y-76231672D01*
X87153415Y-76392507D01*
X87347611Y-76602587D01*
X87347817Y-76603003D01*
X87351513Y-76606808D01*
X87486819Y-76753181D01*
X87699114Y-76949424D01*
X87699502Y-76950074D01*
X87700382Y-76950809D01*
X87705054Y-76954916D01*
X87845703Y-77084931D01*
X87845712Y-77084938D01*
X87847493Y-77086585D01*
X88076903Y-77267438D01*
X88077545Y-77268341D01*
X88079934Y-77270034D01*
X88085014Y-77273832D01*
X88233213Y-77390663D01*
X88235245Y-77392020D01*
X88235244Y-77392020D01*
X88478622Y-77554640D01*
X88479558Y-77555761D01*
X88483558Y-77558141D01*
X88489021Y-77561588D01*
X88641603Y-77663540D01*
X88901777Y-77809245D01*
X88903041Y-77810536D01*
X88908689Y-77813315D01*
X88914515Y-77816378D01*
X89070143Y-77903534D01*
X89311507Y-78014804D01*
X89343706Y-78029648D01*
X89345328Y-78031064D01*
X89352608Y-78033953D01*
X89358782Y-78036598D01*
X89516192Y-78109165D01*
X89518449Y-78109997D01*
X89518462Y-78110003D01*
X89667658Y-78165044D01*
X89801650Y-78214476D01*
X89803653Y-78215964D01*
X89812562Y-78218703D01*
X89819025Y-78220886D01*
X89948745Y-78268742D01*
X89961987Y-78273628D01*
X89976999Y-78279166D01*
X89979350Y-78279829D01*
X89979353Y-78279830D01*
X90272781Y-78362585D01*
X90275182Y-78364091D01*
X90285674Y-78366424D01*
X90292427Y-78368125D01*
X90449724Y-78412488D01*
X90754141Y-78473040D01*
X90756951Y-78474510D01*
X90768928Y-78476188D01*
X90775892Y-78477367D01*
X90931452Y-78508310D01*
X91242705Y-78545149D01*
X91245925Y-78546523D01*
X91259283Y-78547321D01*
X91266446Y-78547959D01*
X91419213Y-78566040D01*
X91735471Y-78578465D01*
X91739112Y-78579692D01*
X91753752Y-78579401D01*
X91761079Y-78579471D01*
X91910000Y-78585323D01*
X92229311Y-78572777D01*
X92233358Y-78573794D01*
X92249110Y-78572223D01*
X92256526Y-78571708D01*
X92400787Y-78566040D01*
X92721178Y-78528119D01*
X92725613Y-78528870D01*
X92742301Y-78525852D01*
X92749764Y-78524736D01*
X92888548Y-78508310D01*
X93207987Y-78444769D01*
X93212795Y-78445199D01*
X93230253Y-78440583D01*
X93237738Y-78438851D01*
X93370276Y-78412488D01*
X93686701Y-78323247D01*
X93691852Y-78323302D01*
X93709863Y-78316971D01*
X93717287Y-78314620D01*
X93843001Y-78279166D01*
X94154342Y-78164305D01*
X94159805Y-78163934D01*
X94178163Y-78155790D01*
X94185521Y-78152803D01*
X94303808Y-78109165D01*
X94607973Y-77968942D01*
X94613703Y-77968098D01*
X94632191Y-77958068D01*
X94639411Y-77954450D01*
X94749857Y-77903534D01*
X95044773Y-77738372D01*
X95050729Y-77737010D01*
X95069146Y-77725032D01*
X95076126Y-77720814D01*
X95178397Y-77663540D01*
X95303423Y-77580000D01*
X97004817Y-77580000D01*
X97025456Y-77736762D01*
X97085963Y-77882840D01*
X97182217Y-78008282D01*
X97306680Y-78103785D01*
X97307659Y-78104536D01*
X97453738Y-78165044D01*
X97589860Y-78182964D01*
X97610499Y-78185682D01*
X97610499Y-78185681D01*
X97610500Y-78185682D01*
X97678318Y-78176753D01*
X97747353Y-78187518D01*
X97782184Y-78212010D01*
X98009019Y-78438846D01*
X98201455Y-78631282D01*
X98208763Y-78639256D01*
X98233045Y-78668194D01*
X98265766Y-78687085D01*
X98274860Y-78692878D01*
X98305816Y-78714554D01*
X98305817Y-78714554D01*
X98306701Y-78715173D01*
X98331391Y-78725400D01*
X98332454Y-78725587D01*
X98332455Y-78725588D01*
X98369646Y-78732145D01*
X98380204Y-78734486D01*
X98416691Y-78744263D01*
X98416692Y-78744262D01*
X98416693Y-78744263D01*
X98454311Y-78740971D01*
X98465118Y-78740500D01*
X104895164Y-78740500D01*
X104962203Y-78760185D01*
X105007958Y-78812989D01*
X105017902Y-78882147D01*
X104988877Y-78945703D01*
X104942616Y-78979061D01*
X104927159Y-78985463D01*
X104801717Y-79081717D01*
X104705463Y-79207159D01*
X104644956Y-79353237D01*
X104624317Y-79510000D01*
X104644956Y-79666762D01*
X104705463Y-79812840D01*
X104801717Y-79938282D01*
X104911284Y-80022355D01*
X104927159Y-80034536D01*
X105073238Y-80095044D01*
X105160927Y-80106588D01*
X105168314Y-80107561D01*
X105232211Y-80135828D01*
X105233075Y-80137139D01*
X105272936Y-80111523D01*
X105291686Y-80107561D01*
X105298166Y-80106707D01*
X105386762Y-80095044D01*
X105532841Y-80034536D01*
X105658282Y-79938282D01*
X105754536Y-79812841D01*
X105815044Y-79666762D01*
X105835682Y-79510000D01*
X105815044Y-79353238D01*
X105754536Y-79207159D01*
X105725546Y-79169378D01*
X105658282Y-79081717D01*
X105532840Y-78985463D01*
X105517384Y-78979061D01*
X105462980Y-78935220D01*
X105440915Y-78868926D01*
X105458194Y-78801227D01*
X105509331Y-78753616D01*
X105564836Y-78740500D01*
X109940068Y-78740500D01*
X109950875Y-78740971D01*
X109988502Y-78744264D01*
X110025019Y-78734478D01*
X110035525Y-78732149D01*
X110072740Y-78725588D01*
X110072742Y-78725586D01*
X110073807Y-78725399D01*
X110098494Y-78715173D01*
X110099377Y-78714554D01*
X110099379Y-78714554D01*
X110130320Y-78692887D01*
X110139417Y-78687091D01*
X110172150Y-78668194D01*
X110191782Y-78644796D01*
X110249954Y-78606093D01*
X110286774Y-78600500D01*
X110536255Y-78600500D01*
X110603294Y-78620185D01*
X110634291Y-78655958D01*
X110636732Y-78654086D01*
X110742923Y-78792478D01*
X110842553Y-78868926D01*
X110868365Y-78888732D01*
X111014444Y-78949240D01*
X111171206Y-78969878D01*
X111327968Y-78949240D01*
X111474047Y-78888732D01*
X111599488Y-78792478D01*
X111695742Y-78667037D01*
X111756250Y-78520958D01*
X111776888Y-78364196D01*
X111756250Y-78207434D01*
X111695742Y-78061355D01*
X111695741Y-78061355D01*
X111599488Y-77935913D01*
X111474046Y-77839659D01*
X111327968Y-77779152D01*
X111171206Y-77758513D01*
X111014443Y-77779152D01*
X110868365Y-77839659D01*
X110758612Y-77923876D01*
X110693443Y-77949070D01*
X110683126Y-77949500D01*
X110119323Y-77949500D01*
X110108515Y-77949028D01*
X110070887Y-77945735D01*
X110034399Y-77955512D01*
X110023843Y-77957852D01*
X109985594Y-77964597D01*
X109960888Y-77974831D01*
X109929075Y-77997106D01*
X109919959Y-78002914D01*
X109887239Y-78021806D01*
X109867602Y-78045208D01*
X109809430Y-78083909D01*
X109772615Y-78089500D01*
X98631689Y-78089500D01*
X98564650Y-78069815D01*
X98544008Y-78053181D01*
X98242511Y-77751684D01*
X98209026Y-77690361D01*
X98207253Y-77647817D01*
X98216182Y-77579999D01*
X98201979Y-77472119D01*
X98195544Y-77423238D01*
X98135036Y-77277159D01*
X98058627Y-77177580D01*
X98038782Y-77151717D01*
X97913340Y-77055463D01*
X97767262Y-76994956D01*
X97610499Y-76974317D01*
X97453737Y-76994956D01*
X97307659Y-77055463D01*
X97182217Y-77151717D01*
X97085963Y-77277159D01*
X97025456Y-77423237D01*
X97004817Y-77580000D01*
X95303423Y-77580000D01*
X95462003Y-77474040D01*
X95468137Y-77472119D01*
X95486247Y-77458176D01*
X95492987Y-77453337D01*
X95586787Y-77390663D01*
X95857081Y-77177579D01*
X95863340Y-77175064D01*
X95880915Y-77159156D01*
X95887349Y-77153718D01*
X95972507Y-77086585D01*
X96227520Y-76850852D01*
X96233842Y-76847716D01*
X96250653Y-76829871D01*
X96256718Y-76823862D01*
X96333181Y-76753181D01*
X96571014Y-76495894D01*
X96577340Y-76492110D01*
X96588995Y-76477580D01*
X104111335Y-76477580D01*
X104131974Y-76634343D01*
X104192481Y-76780421D01*
X104288735Y-76905863D01*
X104379305Y-76975359D01*
X104414177Y-77002117D01*
X104560256Y-77062625D01*
X104693228Y-77080131D01*
X104717017Y-77083263D01*
X104717017Y-77083262D01*
X104717018Y-77083263D01*
X104873780Y-77062625D01*
X105019859Y-77002117D01*
X105145300Y-76905863D01*
X105241554Y-76780422D01*
X105302062Y-76634343D01*
X105322700Y-76477581D01*
X105302062Y-76320819D01*
X105241554Y-76174740D01*
X105240401Y-76173237D01*
X105145300Y-76049298D01*
X105019858Y-75953044D01*
X104873780Y-75892537D01*
X104717018Y-75871898D01*
X104560255Y-75892537D01*
X104414177Y-75953044D01*
X104288735Y-76049298D01*
X104192481Y-76174740D01*
X104131974Y-76320818D01*
X104111335Y-76477580D01*
X96588995Y-76477580D01*
X96593174Y-76472370D01*
X96598830Y-76465803D01*
X96666585Y-76392507D01*
X96885413Y-76114924D01*
X96891672Y-76110478D01*
X96906302Y-76088934D01*
X96911509Y-76081823D01*
X96916460Y-76075543D01*
X96970663Y-76006787D01*
X97168754Y-75710321D01*
X97174880Y-75705202D01*
X97188105Y-75681940D01*
X97192789Y-75674350D01*
X97243540Y-75598397D01*
X97419277Y-75284596D01*
X97425195Y-75278803D01*
X97436818Y-75253949D01*
X97440935Y-75245922D01*
X97483534Y-75169857D01*
X97635409Y-74840411D01*
X97641054Y-74833944D01*
X97650896Y-74807631D01*
X97654430Y-74799155D01*
X97688145Y-74726021D01*
X97688154Y-74726000D01*
X97689165Y-74723808D01*
X97815795Y-74380562D01*
X97821097Y-74373426D01*
X97828994Y-74345794D01*
X97831881Y-74336958D01*
X97859166Y-74263001D01*
X97959312Y-73907908D01*
X97964198Y-73900122D01*
X97970000Y-73871330D01*
X97972204Y-73862194D01*
X97992488Y-73790276D01*
X98088310Y-73308548D01*
X98146040Y-72820787D01*
X98165323Y-72330000D01*
X98146040Y-71839213D01*
X98088310Y-71351452D01*
X97992488Y-70869724D01*
X97972211Y-70797829D01*
X97970000Y-70788669D01*
X97964811Y-70762919D01*
X97959314Y-70752100D01*
X97859166Y-70396999D01*
X97858321Y-70394710D01*
X97858317Y-70394696D01*
X97831887Y-70323055D01*
X97828995Y-70314208D01*
X97821922Y-70289459D01*
X97815796Y-70279439D01*
X97768925Y-70152390D01*
X97689165Y-69936192D01*
X97654436Y-69860860D01*
X97650905Y-69852386D01*
X97642075Y-69828777D01*
X97635409Y-69819587D01*
X97634132Y-69816817D01*
X97483534Y-69490143D01*
X97440946Y-69414098D01*
X97436823Y-69406058D01*
X97426382Y-69383733D01*
X97419277Y-69375405D01*
X97243540Y-69061603D01*
X97192799Y-68985664D01*
X97188109Y-68978065D01*
X97176213Y-68957141D01*
X97168754Y-68949678D01*
X97162287Y-68940000D01*
X96970663Y-68653213D01*
X96911503Y-68578169D01*
X96906303Y-68571068D01*
X96893127Y-68551663D01*
X96885414Y-68545076D01*
X96666585Y-68267493D01*
X96598832Y-68194198D01*
X96593177Y-68187633D01*
X96578896Y-68169829D01*
X96571013Y-68164104D01*
X96356196Y-67931717D01*
X96333181Y-67906819D01*
X96312626Y-67887818D01*
X96256749Y-67836165D01*
X96250665Y-67830139D01*
X96235478Y-67814018D01*
X96227518Y-67809145D01*
X96076992Y-67670000D01*
X98114317Y-67670000D01*
X98134956Y-67826762D01*
X98195463Y-67972840D01*
X98291717Y-68098282D01*
X98377499Y-68164104D01*
X98417159Y-68194536D01*
X98563238Y-68255044D01*
X98720000Y-68275682D01*
X98876762Y-68255044D01*
X99022841Y-68194536D01*
X99148282Y-68098282D01*
X99244536Y-67972841D01*
X99305044Y-67826762D01*
X99325682Y-67670000D01*
X99305044Y-67513238D01*
X99244536Y-67367159D01*
X99244535Y-67367158D01*
X99148282Y-67241717D01*
X99022840Y-67145463D01*
X98876762Y-67084956D01*
X98719999Y-67064317D01*
X98563237Y-67084956D01*
X98417159Y-67145463D01*
X98291717Y-67241717D01*
X98195463Y-67367159D01*
X98134956Y-67513237D01*
X98114317Y-67670000D01*
X96076992Y-67670000D01*
X95974296Y-67575068D01*
X95974285Y-67575059D01*
X95972507Y-67573415D01*
X95970601Y-67571913D01*
X95970583Y-67571897D01*
X95887374Y-67506301D01*
X95880924Y-67500851D01*
X95865031Y-67486464D01*
X95857082Y-67482421D01*
X95586787Y-67269337D01*
X95584755Y-67267979D01*
X95493006Y-67206674D01*
X95486249Y-67201824D01*
X95469856Y-67189202D01*
X95462003Y-67185959D01*
X95180418Y-66997810D01*
X95180411Y-66997805D01*
X95178397Y-66996460D01*
X95076172Y-66939211D01*
X95069158Y-66934973D01*
X95052465Y-66924117D01*
X95044774Y-66921627D01*
X94749857Y-66756466D01*
X94747649Y-66755448D01*
X94747641Y-66755444D01*
X94639429Y-66705558D01*
X94632210Y-66701940D01*
X94615429Y-66692835D01*
X94607974Y-66691057D01*
X94466943Y-66626041D01*
X94306000Y-66551845D01*
X94305988Y-66551840D01*
X94303808Y-66550835D01*
X94235037Y-66525464D01*
X94185537Y-66507202D01*
X94178172Y-66504213D01*
X94161491Y-66496813D01*
X94154340Y-66495693D01*
X93858012Y-66386372D01*
X93843001Y-66380834D01*
X93840671Y-66380177D01*
X93840653Y-66380171D01*
X93717347Y-66345396D01*
X93709885Y-66343035D01*
X93693498Y-66337275D01*
X93686701Y-66336753D01*
X93372624Y-66248174D01*
X93372619Y-66248172D01*
X93370276Y-66247512D01*
X93367895Y-66247038D01*
X93367881Y-66247035D01*
X93237771Y-66221155D01*
X93230266Y-66219419D01*
X93214372Y-66215216D01*
X93207988Y-66215230D01*
X92890938Y-66152165D01*
X92890928Y-66152163D01*
X92888548Y-66151690D01*
X92886138Y-66151404D01*
X92886127Y-66151403D01*
X92749819Y-66135270D01*
X92742324Y-66134150D01*
X92727115Y-66131399D01*
X92721180Y-66131880D01*
X92400787Y-66093960D01*
X92398355Y-66093864D01*
X92398337Y-66093863D01*
X92256571Y-66088293D01*
X92249136Y-66087777D01*
X92234762Y-66086343D01*
X92229312Y-66087222D01*
X91912444Y-66074773D01*
X91912443Y-66074773D01*
X91910000Y-66074677D01*
X91907557Y-66074773D01*
X91761104Y-66080527D01*
X91753771Y-66080598D01*
X91740413Y-66080332D01*
X91735470Y-66081534D01*
X91421663Y-66093863D01*
X91421644Y-66093864D01*
X91419213Y-66093960D01*
X91266469Y-66112038D01*
X91259305Y-66112675D01*
X91247109Y-66113403D01*
X91242706Y-66114850D01*
X90933872Y-66151403D01*
X90933857Y-66151405D01*
X90931452Y-66151690D01*
X90929075Y-66152162D01*
X90929061Y-66152165D01*
X90775935Y-66182624D01*
X90768949Y-66183808D01*
X90758010Y-66185340D01*
X90754142Y-66186959D01*
X90452118Y-66247035D01*
X90452098Y-66247039D01*
X90449724Y-66247512D01*
X90292426Y-66291874D01*
X90285689Y-66293571D01*
X90276119Y-66295698D01*
X90272783Y-66297414D01*
X89979346Y-66380171D01*
X89979320Y-66380179D01*
X89976999Y-66380834D01*
X89974743Y-66381666D01*
X89974710Y-66381677D01*
X89819059Y-66439100D01*
X89812584Y-66441288D01*
X89804461Y-66443785D01*
X89801652Y-66445522D01*
X89518455Y-66550000D01*
X89516192Y-66550835D01*
X89514019Y-66551836D01*
X89513999Y-66551845D01*
X89358794Y-66623396D01*
X89352621Y-66626041D01*
X89346005Y-66628666D01*
X89343707Y-66630351D01*
X89072349Y-66755448D01*
X89072327Y-66755458D01*
X89070143Y-66756466D01*
X88914509Y-66843625D01*
X88908700Y-66846678D01*
X88903589Y-66849193D01*
X88901776Y-66850755D01*
X88643729Y-66995269D01*
X88643721Y-66995273D01*
X88641603Y-66996460D01*
X88639588Y-66997806D01*
X88639569Y-66997818D01*
X88489040Y-67098398D01*
X88483572Y-67101850D01*
X88479981Y-67103987D01*
X88478623Y-67105358D01*
X88235244Y-67267979D01*
X88235228Y-67267990D01*
X88233213Y-67269337D01*
X88231307Y-67270839D01*
X88231294Y-67270849D01*
X88085035Y-67386151D01*
X88079954Y-67389950D01*
X88077849Y-67391440D01*
X88076902Y-67392562D01*
X87849404Y-67571907D01*
X87849381Y-67571926D01*
X87847493Y-67573415D01*
X87845712Y-67575060D01*
X87845703Y-67575069D01*
X87705077Y-67705062D01*
X87700412Y-67709163D01*
X87699702Y-67709755D01*
X87699114Y-67710575D01*
X87488604Y-67905168D01*
X87488591Y-67905180D01*
X87486819Y-67906819D01*
X87485180Y-67908591D01*
X87485180Y-67908592D01*
X87351534Y-68053169D01*
X87347938Y-68056870D01*
X87347611Y-68057413D01*
X87155068Y-68265703D01*
X87155047Y-68265726D01*
X87153415Y-68267493D01*
X87151926Y-68269381D01*
X87151907Y-68269404D01*
X87026629Y-68428319D01*
X87024737Y-68430603D01*
X87024581Y-68430915D01*
X86850858Y-68651281D01*
X86850833Y-68651314D01*
X86849337Y-68653213D01*
X86847990Y-68655228D01*
X86847979Y-68655244D01*
X86732485Y-68828094D01*
X86732083Y-68828665D01*
X86732053Y-68828741D01*
X86577810Y-69059581D01*
X86577798Y-69059600D01*
X86576460Y-69061603D01*
X86575281Y-69063709D01*
X86575269Y-69063728D01*
X86337657Y-69488014D01*
X86337647Y-69488034D01*
X86336466Y-69490143D01*
X86335454Y-69492338D01*
X86335449Y-69492348D01*
X86131845Y-69933999D01*
X86131836Y-69934020D01*
X86130835Y-69936192D01*
X86130004Y-69938442D01*
X86130000Y-69938454D01*
X85961675Y-70394719D01*
X85960834Y-70396999D01*
X85960179Y-70399320D01*
X85960171Y-70399346D01*
X85839999Y-70825448D01*
X85827512Y-70869724D01*
X85827039Y-70872098D01*
X85827035Y-70872118D01*
X85732165Y-71349061D01*
X85732162Y-71349075D01*
X85731690Y-71351452D01*
X85731405Y-71353857D01*
X85731403Y-71353872D01*
X85674248Y-71836776D01*
X85673960Y-71839213D01*
X85673864Y-71841644D01*
X85673863Y-71841663D01*
X85655957Y-72297423D01*
X85654677Y-72330000D01*
X84965500Y-72330000D01*
X84965500Y-69219062D01*
X84985185Y-69152023D01*
X85037989Y-69106268D01*
X85090247Y-69095064D01*
X85102888Y-69095140D01*
X85863300Y-69099724D01*
X85883356Y-65323281D01*
X85903396Y-65256348D01*
X85956442Y-65210875D01*
X86025653Y-65201299D01*
X86082840Y-65225565D01*
X86122958Y-65256348D01*
X86146661Y-65274536D01*
X86292740Y-65335044D01*
X86428862Y-65352964D01*
X86449501Y-65355682D01*
X86449501Y-65355681D01*
X86449502Y-65355682D01*
X86606264Y-65335044D01*
X86752343Y-65274536D01*
X86877784Y-65178282D01*
X86974038Y-65052841D01*
X87015939Y-64951682D01*
X87059780Y-64897279D01*
X87126074Y-64875214D01*
X87193773Y-64892493D01*
X87241384Y-64943630D01*
X87254500Y-64999135D01*
X87254500Y-65360372D01*
X87254028Y-65371180D01*
X87250735Y-65408807D01*
X87260512Y-65445296D01*
X87262853Y-65455852D01*
X87269599Y-65494107D01*
X87279829Y-65518803D01*
X87280446Y-65519684D01*
X87302112Y-65550627D01*
X87307915Y-65559736D01*
X87326806Y-65592455D01*
X87355741Y-65616735D01*
X87363717Y-65624043D01*
X87430966Y-65691293D01*
X87438273Y-65699268D01*
X87462545Y-65728194D01*
X87495266Y-65747085D01*
X87504360Y-65752878D01*
X87535316Y-65774554D01*
X87535317Y-65774554D01*
X87536201Y-65775173D01*
X87560891Y-65785400D01*
X87561954Y-65785587D01*
X87561955Y-65785588D01*
X87599146Y-65792145D01*
X87609704Y-65794486D01*
X87646191Y-65804263D01*
X87646192Y-65804262D01*
X87646193Y-65804263D01*
X87683811Y-65800971D01*
X87694618Y-65800500D01*
X94795373Y-65800500D01*
X94806180Y-65800971D01*
X94843807Y-65804264D01*
X94880324Y-65794478D01*
X94890830Y-65792149D01*
X94928045Y-65785588D01*
X94928047Y-65785586D01*
X94929112Y-65785399D01*
X94953799Y-65775173D01*
X94954682Y-65774554D01*
X94954684Y-65774554D01*
X94985625Y-65752887D01*
X94994722Y-65747091D01*
X95027455Y-65728194D01*
X95051748Y-65699241D01*
X95059024Y-65691300D01*
X95363508Y-65386816D01*
X95424830Y-65353334D01*
X95451188Y-65350500D01*
X101199333Y-65350500D01*
X101266372Y-65370185D01*
X101297709Y-65399014D01*
X101350384Y-65467663D01*
X101417032Y-65518803D01*
X101475826Y-65563917D01*
X101621905Y-65624425D01*
X101778667Y-65645063D01*
X101935429Y-65624425D01*
X102081508Y-65563917D01*
X102206949Y-65467663D01*
X102303203Y-65342222D01*
X102363711Y-65196143D01*
X102384349Y-65039381D01*
X102363711Y-64882619D01*
X102303203Y-64736540D01*
X102281190Y-64707852D01*
X102206949Y-64611098D01*
X102081507Y-64514844D01*
X101935429Y-64454337D01*
X101778667Y-64433698D01*
X101621904Y-64454337D01*
X101475826Y-64514844D01*
X101350385Y-64611098D01*
X101319780Y-64650985D01*
X101263352Y-64692189D01*
X101221403Y-64699500D01*
X98660076Y-64699500D01*
X98593037Y-64679815D01*
X98547282Y-64627011D01*
X98537338Y-64557853D01*
X98561700Y-64500014D01*
X98596749Y-64454337D01*
X98642255Y-64395032D01*
X98702763Y-64248953D01*
X98723401Y-64092191D01*
X98702763Y-63935429D01*
X98686053Y-63895090D01*
X98677657Y-63874818D01*
X98674710Y-63860000D01*
X100234353Y-63860000D01*
X100236927Y-63877906D01*
X100254834Y-64002457D01*
X100314623Y-64133374D01*
X100394649Y-64225729D01*
X100408872Y-64242143D01*
X100529947Y-64319953D01*
X100668039Y-64360500D01*
X100811961Y-64360500D01*
X100950053Y-64319953D01*
X101071128Y-64242143D01*
X101165377Y-64133373D01*
X101225165Y-64002457D01*
X101245647Y-63860000D01*
X101225165Y-63717543D01*
X101165377Y-63586627D01*
X101165376Y-63586626D01*
X101165376Y-63586625D01*
X101071129Y-63477858D01*
X101071128Y-63477857D01*
X100950053Y-63400047D01*
X100811961Y-63359500D01*
X100668039Y-63359500D01*
X100529947Y-63400047D01*
X100408870Y-63477858D01*
X100314623Y-63586625D01*
X100254834Y-63717542D01*
X100234353Y-63859999D01*
X100234353Y-63860000D01*
X98674710Y-63860000D01*
X98668218Y-63827365D01*
X98668218Y-63663324D01*
X98668218Y-63458775D01*
X98687903Y-63391740D01*
X98704532Y-63371103D01*
X98975635Y-63100000D01*
X102654389Y-63100000D01*
X102674804Y-63385429D01*
X102735629Y-63665041D01*
X102735631Y-63665046D01*
X102805373Y-63852032D01*
X102835634Y-63933163D01*
X102972772Y-64184313D01*
X103050865Y-64288632D01*
X103144261Y-64413395D01*
X103346605Y-64615739D01*
X103492335Y-64724831D01*
X103575686Y-64787227D01*
X103715435Y-64863535D01*
X103826839Y-64924367D01*
X104094954Y-65024369D01*
X104094957Y-65024369D01*
X104094958Y-65024370D01*
X104100153Y-65025500D01*
X104374572Y-65085196D01*
X104660000Y-65105610D01*
X104945428Y-65085196D01*
X105225046Y-65024369D01*
X105493161Y-64924367D01*
X105744315Y-64787226D01*
X105973395Y-64615739D01*
X106175739Y-64413395D01*
X106347226Y-64184315D01*
X106484367Y-63933161D01*
X106584369Y-63665046D01*
X106645196Y-63385428D01*
X106665610Y-63100000D01*
X106645196Y-62814572D01*
X106584369Y-62534954D01*
X106484367Y-62266839D01*
X106403847Y-62119378D01*
X106347227Y-62015686D01*
X106286747Y-61934894D01*
X106175739Y-61786605D01*
X105973395Y-61584261D01*
X105806292Y-61459169D01*
X105744313Y-61412772D01*
X105493163Y-61275634D01*
X105493162Y-61275633D01*
X105493161Y-61275633D01*
X105300492Y-61203771D01*
X105225041Y-61175629D01*
X104945429Y-61114804D01*
X104660000Y-61094389D01*
X104374570Y-61114804D01*
X104094958Y-61175629D01*
X103826836Y-61275634D01*
X103575686Y-61412772D01*
X103346602Y-61584263D01*
X103144263Y-61786602D01*
X102972772Y-62015686D01*
X102835634Y-62266836D01*
X102735629Y-62534958D01*
X102674804Y-62814570D01*
X102654389Y-63100000D01*
X98975635Y-63100000D01*
X99992506Y-62083129D01*
X100032728Y-62056253D01*
X100093341Y-62031148D01*
X100218782Y-61934894D01*
X100315036Y-61809453D01*
X100375544Y-61663374D01*
X100396182Y-61506612D01*
X100375544Y-61349850D01*
X100315036Y-61203771D01*
X100294104Y-61176492D01*
X100218782Y-61078329D01*
X100093340Y-60982075D01*
X99996195Y-60941837D01*
X99953279Y-60924060D01*
X99898876Y-60880220D01*
X99876811Y-60813926D01*
X99894090Y-60746227D01*
X99945227Y-60698616D01*
X100000732Y-60685500D01*
X101656873Y-60685500D01*
X101667680Y-60685971D01*
X101705307Y-60689264D01*
X101741824Y-60679478D01*
X101752330Y-60677149D01*
X101789545Y-60670588D01*
X101789547Y-60670586D01*
X101790612Y-60670399D01*
X101815299Y-60660173D01*
X101816182Y-60659554D01*
X101816184Y-60659554D01*
X101847125Y-60637887D01*
X101856222Y-60632091D01*
X101888955Y-60613194D01*
X101913248Y-60584241D01*
X101920535Y-60576289D01*
X102535007Y-59961819D01*
X102596331Y-59928334D01*
X102622689Y-59925500D01*
X108280871Y-59925500D01*
X108291678Y-59925971D01*
X108329305Y-59929264D01*
X108365822Y-59919478D01*
X108376328Y-59917149D01*
X108413543Y-59910588D01*
X108413545Y-59910586D01*
X108414610Y-59910399D01*
X108439297Y-59900173D01*
X108440180Y-59899554D01*
X108440182Y-59899554D01*
X108471123Y-59877887D01*
X108480220Y-59872091D01*
X108512953Y-59853194D01*
X108537246Y-59824241D01*
X108544534Y-59816288D01*
X112018315Y-56342507D01*
X112079636Y-56309024D01*
X112122180Y-56307251D01*
X112190000Y-56316180D01*
X112346762Y-56295542D01*
X112418049Y-56266013D01*
X112487516Y-56258545D01*
X112549996Y-56289820D01*
X112585648Y-56349909D01*
X112589500Y-56380575D01*
X112589500Y-61088811D01*
X112569815Y-61155850D01*
X112553181Y-61176492D01*
X107311684Y-66417988D01*
X107250361Y-66451473D01*
X107207818Y-66453246D01*
X107140000Y-66444317D01*
X106983237Y-66464956D01*
X106837159Y-66525463D01*
X106711717Y-66621717D01*
X106615463Y-66747159D01*
X106554956Y-66893237D01*
X106534317Y-67050000D01*
X106554956Y-67206762D01*
X106615463Y-67352840D01*
X106711717Y-67478282D01*
X106807970Y-67552139D01*
X106837159Y-67574536D01*
X106871287Y-67588672D01*
X106875552Y-67590439D01*
X106929955Y-67634280D01*
X106952020Y-67700574D01*
X106934741Y-67768273D01*
X106883604Y-67815884D01*
X106875552Y-67819561D01*
X106837158Y-67835464D01*
X106711717Y-67931717D01*
X106615463Y-68057159D01*
X106554956Y-68203237D01*
X106534317Y-68360000D01*
X106554956Y-68516762D01*
X106615463Y-68662840D01*
X106711717Y-68788282D01*
X106763602Y-68828094D01*
X106837159Y-68884536D01*
X106983238Y-68945044D01*
X107140000Y-68965682D01*
X107296762Y-68945044D01*
X107442841Y-68884536D01*
X107568282Y-68788282D01*
X107664536Y-68662841D01*
X107725044Y-68516762D01*
X107745682Y-68360000D01*
X107725044Y-68203238D01*
X107664536Y-68057159D01*
X107661474Y-68053169D01*
X107568282Y-67931717D01*
X107442840Y-67835463D01*
X107404448Y-67819561D01*
X107350044Y-67775721D01*
X107327979Y-67709427D01*
X107345258Y-67641727D01*
X107396395Y-67594116D01*
X107404448Y-67590439D01*
X107410213Y-67588050D01*
X107442841Y-67574536D01*
X107568282Y-67478282D01*
X107664536Y-67352841D01*
X107725044Y-67206762D01*
X107745682Y-67050000D01*
X107736752Y-66982180D01*
X107747518Y-66913144D01*
X107772008Y-66878316D01*
X113131296Y-61519029D01*
X113139249Y-61511741D01*
X113168194Y-61487455D01*
X113187082Y-61454738D01*
X113192881Y-61445635D01*
X113214554Y-61414684D01*
X113214554Y-61414682D01*
X113215173Y-61413799D01*
X113225398Y-61389112D01*
X113225585Y-61388049D01*
X113225588Y-61388045D01*
X113232150Y-61350822D01*
X113234479Y-61340316D01*
X113244263Y-61303807D01*
X113244031Y-61301158D01*
X113240972Y-61266187D01*
X113240500Y-61255380D01*
X113240500Y-55404626D01*
X113240972Y-55393818D01*
X113244264Y-55356192D01*
X113234487Y-55319706D01*
X113232145Y-55309143D01*
X113227397Y-55282215D01*
X113225588Y-55271955D01*
X113225587Y-55271954D01*
X113225400Y-55270891D01*
X113215171Y-55246198D01*
X113214554Y-55245317D01*
X113214554Y-55245316D01*
X113192892Y-55214379D01*
X113187080Y-55205256D01*
X113168194Y-55172544D01*
X113139255Y-55148262D01*
X113131280Y-55140954D01*
X111394043Y-53403717D01*
X111386734Y-53395741D01*
X111367852Y-53373238D01*
X111362455Y-53366806D01*
X111362454Y-53366805D01*
X111329736Y-53347915D01*
X111320627Y-53342112D01*
X111289684Y-53320446D01*
X111288803Y-53319829D01*
X111264107Y-53309599D01*
X111225852Y-53302853D01*
X111215296Y-53300512D01*
X111178807Y-53290735D01*
X111141180Y-53294028D01*
X111130372Y-53294500D01*
X111128299Y-53294500D01*
X111061260Y-53274815D01*
X111029923Y-53245986D01*
X111013136Y-53224109D01*
X110988282Y-53191718D01*
X110938008Y-53153141D01*
X110862840Y-53095463D01*
X110716762Y-53034956D01*
X110560000Y-53014317D01*
X110403237Y-53034956D01*
X110257159Y-53095463D01*
X110131717Y-53191717D01*
X110035464Y-53317158D01*
X110002914Y-53395741D01*
X109990777Y-53425044D01*
X109979061Y-53453328D01*
X109935220Y-53507731D01*
X109868926Y-53529796D01*
X109801227Y-53512517D01*
X109753616Y-53461380D01*
X109740500Y-53405875D01*
X109740500Y-48660188D01*
X109760185Y-48593149D01*
X109812989Y-48547394D01*
X109882147Y-48537450D01*
X109945703Y-48566475D01*
X109952169Y-48572496D01*
X110341596Y-48961923D01*
X110569655Y-49189982D01*
X110576963Y-49197956D01*
X110601245Y-49226894D01*
X110633966Y-49245785D01*
X110643060Y-49251578D01*
X110674016Y-49273254D01*
X110674017Y-49273254D01*
X110674901Y-49273873D01*
X110699591Y-49284100D01*
X110700654Y-49284287D01*
X110700655Y-49284288D01*
X110737846Y-49290845D01*
X110748404Y-49293186D01*
X110784891Y-49302963D01*
X110784892Y-49302962D01*
X110784893Y-49302963D01*
X110822511Y-49299671D01*
X110833318Y-49299200D01*
X111014472Y-49299200D01*
X111081511Y-49318885D01*
X111112847Y-49347713D01*
X111154489Y-49401982D01*
X111279930Y-49498236D01*
X111426009Y-49558744D01*
X111582771Y-49579382D01*
X111739533Y-49558744D01*
X111885612Y-49498236D01*
X112011053Y-49401982D01*
X112107307Y-49276541D01*
X112151751Y-49169242D01*
X112195591Y-49114839D01*
X112261885Y-49092774D01*
X112329585Y-49110053D01*
X112353993Y-49129014D01*
X114598673Y-51373694D01*
X114632158Y-51435017D01*
X114627174Y-51504709D01*
X114585302Y-51560642D01*
X114558445Y-51575936D01*
X114487158Y-51605463D01*
X114361717Y-51701717D01*
X114265463Y-51827159D01*
X114204956Y-51973237D01*
X114184317Y-52130000D01*
X114204956Y-52286762D01*
X114265463Y-52432840D01*
X114361717Y-52558282D01*
X114415985Y-52599923D01*
X114457188Y-52656351D01*
X114464499Y-52698299D01*
X114464499Y-62733812D01*
X114444814Y-62800851D01*
X114428180Y-62821493D01*
X105391892Y-71857780D01*
X105330569Y-71891265D01*
X105260877Y-71886281D01*
X105256759Y-71884660D01*
X105136762Y-71834956D01*
X104980000Y-71814317D01*
X104823237Y-71834956D01*
X104677159Y-71895463D01*
X104551717Y-71991717D01*
X104455463Y-72117159D01*
X104394956Y-72263237D01*
X104394572Y-72266156D01*
X104366305Y-72330053D01*
X104307980Y-72368523D01*
X104238115Y-72369354D01*
X104178892Y-72332281D01*
X104157072Y-72297423D01*
X104151734Y-72284536D01*
X104144536Y-72267159D01*
X104074217Y-72175517D01*
X104048282Y-72141717D01*
X103922840Y-72045463D01*
X103776762Y-71984956D01*
X103619999Y-71964317D01*
X103463237Y-71984956D01*
X103317159Y-72045463D01*
X103231102Y-72111497D01*
X103165933Y-72136691D01*
X103097488Y-72122652D01*
X103047498Y-72073838D01*
X103031616Y-72013121D01*
X103031616Y-70240071D01*
X103051301Y-70173032D01*
X103067930Y-70152395D01*
X104768315Y-68452009D01*
X104829636Y-68418526D01*
X104872180Y-68416753D01*
X104940000Y-68425682D01*
X105096762Y-68405044D01*
X105242841Y-68344536D01*
X105368282Y-68248282D01*
X105464536Y-68122841D01*
X105525044Y-67976762D01*
X105545682Y-67820000D01*
X105525044Y-67663238D01*
X105464536Y-67517159D01*
X105456204Y-67506301D01*
X105368282Y-67391717D01*
X105242840Y-67295463D01*
X105096762Y-67234956D01*
X104940000Y-67214317D01*
X104783237Y-67234956D01*
X104637159Y-67295463D01*
X104511717Y-67391717D01*
X104415463Y-67517159D01*
X104354956Y-67663237D01*
X104334317Y-67820000D01*
X104343246Y-67887818D01*
X104332480Y-67956853D01*
X104307988Y-67991684D01*
X102489830Y-69809842D01*
X102481857Y-69817148D01*
X102452922Y-69841428D01*
X102434030Y-69874148D01*
X102428222Y-69883264D01*
X102405947Y-69915077D01*
X102395713Y-69939783D01*
X102388968Y-69978032D01*
X102386628Y-69988588D01*
X102376851Y-70025075D01*
X102380144Y-70062701D01*
X102380616Y-70073510D01*
X102380616Y-71655422D01*
X102360931Y-71722461D01*
X102308127Y-71768216D01*
X102238969Y-71778160D01*
X102209164Y-71769983D01*
X102137878Y-71740456D01*
X101981115Y-71719817D01*
X101824353Y-71740456D01*
X101678275Y-71800963D01*
X101552833Y-71897217D01*
X101456579Y-72022659D01*
X101396072Y-72168737D01*
X101388183Y-72228660D01*
X101359916Y-72292556D01*
X101301591Y-72331027D01*
X101231727Y-72331858D01*
X101172503Y-72294786D01*
X101166868Y-72287960D01*
X101080588Y-72175517D01*
X100955146Y-72079263D01*
X100809068Y-72018756D01*
X100652305Y-71998117D01*
X100495543Y-72018756D01*
X100349465Y-72079263D01*
X100224023Y-72175517D01*
X100127769Y-72300959D01*
X100067262Y-72447037D01*
X100046623Y-72603799D01*
X100067262Y-72760562D01*
X100127769Y-72906640D01*
X100224023Y-73032082D01*
X100305416Y-73094536D01*
X100349465Y-73128336D01*
X100495544Y-73188844D01*
X100623442Y-73205682D01*
X100652305Y-73209482D01*
X100652305Y-73209481D01*
X100652306Y-73209482D01*
X100809068Y-73188844D01*
X100955147Y-73128336D01*
X101080588Y-73032082D01*
X101176842Y-72906641D01*
X101237350Y-72760562D01*
X101245239Y-72700638D01*
X101273504Y-72636744D01*
X101331828Y-72598272D01*
X101401693Y-72597440D01*
X101460916Y-72634512D01*
X101466553Y-72641339D01*
X101552833Y-72753782D01*
X101653781Y-72831241D01*
X101678275Y-72850036D01*
X101824354Y-72910544D01*
X101981116Y-72931182D01*
X102137878Y-72910544D01*
X102239035Y-72868643D01*
X102299040Y-72843789D01*
X102300906Y-72848294D01*
X102336298Y-72834546D01*
X102404766Y-72848472D01*
X102444991Y-72887221D01*
X102481858Y-72918156D01*
X102489834Y-72925465D01*
X106230202Y-76665833D01*
X106237510Y-76673807D01*
X106261797Y-76702751D01*
X106285846Y-76716636D01*
X106294508Y-76721637D01*
X106303631Y-76727449D01*
X106334568Y-76749111D01*
X106334569Y-76749111D01*
X106335450Y-76749728D01*
X106360143Y-76759957D01*
X106361206Y-76760144D01*
X106361207Y-76760145D01*
X106391924Y-76765561D01*
X106398395Y-76766702D01*
X106408958Y-76769044D01*
X106445444Y-76778821D01*
X106445444Y-76778820D01*
X106445445Y-76778821D01*
X106483071Y-76775528D01*
X106493879Y-76775057D01*
X106878375Y-76775057D01*
X106945414Y-76794742D01*
X106976750Y-76823570D01*
X107018392Y-76877839D01*
X107143833Y-76974093D01*
X107289912Y-77034601D01*
X107446674Y-77055239D01*
X107603436Y-77034601D01*
X107749515Y-76974093D01*
X107874956Y-76877839D01*
X107971210Y-76752398D01*
X108031718Y-76606319D01*
X108052356Y-76449557D01*
X108036616Y-76330000D01*
X112424317Y-76330000D01*
X112444956Y-76486762D01*
X112505463Y-76632840D01*
X112601717Y-76758282D01*
X112698128Y-76832260D01*
X112727159Y-76854536D01*
X112873238Y-76915044D01*
X113030000Y-76935682D01*
X113186762Y-76915044D01*
X113332841Y-76854536D01*
X113458282Y-76758282D01*
X113554536Y-76632841D01*
X113615044Y-76486762D01*
X113635682Y-76330000D01*
X113615044Y-76173238D01*
X113554536Y-76027159D01*
X113540376Y-76008705D01*
X113458282Y-75901717D01*
X113332840Y-75805463D01*
X113186762Y-75744956D01*
X113030000Y-75724317D01*
X112873237Y-75744956D01*
X112727159Y-75805463D01*
X112601717Y-75901717D01*
X112505463Y-76027159D01*
X112444956Y-76173237D01*
X112424317Y-76330000D01*
X108036616Y-76330000D01*
X108031718Y-76292795D01*
X107971210Y-76146716D01*
X107941318Y-76107760D01*
X107874956Y-76021274D01*
X107749514Y-75925020D01*
X107603436Y-75864513D01*
X107446674Y-75843874D01*
X107289911Y-75864513D01*
X107143833Y-75925020D01*
X107018392Y-76021274D01*
X106976751Y-76075543D01*
X106920324Y-76116746D01*
X106878375Y-76124057D01*
X106660440Y-76124057D01*
X106593401Y-76104372D01*
X106572759Y-76087738D01*
X103811326Y-73326305D01*
X103777841Y-73264982D01*
X103782825Y-73195290D01*
X103824697Y-73139357D01*
X103851547Y-73124066D01*
X103922841Y-73094536D01*
X104048282Y-72998282D01*
X104144536Y-72872841D01*
X104205044Y-72726762D01*
X104205427Y-72723845D01*
X104233689Y-72659952D01*
X104292012Y-72621478D01*
X104361877Y-72620643D01*
X104421102Y-72657712D01*
X104442926Y-72692575D01*
X104455462Y-72722839D01*
X104551717Y-72848282D01*
X104642780Y-72918156D01*
X104677159Y-72944536D01*
X104823238Y-73005044D01*
X104980000Y-73025682D01*
X105136762Y-73005044D01*
X105282841Y-72944536D01*
X105408282Y-72848282D01*
X105442869Y-72803206D01*
X105499296Y-72762004D01*
X105569042Y-72757849D01*
X105629963Y-72792061D01*
X105655806Y-72831241D01*
X105685463Y-72902840D01*
X105781717Y-73028282D01*
X105868061Y-73094535D01*
X105907159Y-73124536D01*
X106053238Y-73185044D01*
X106210000Y-73205682D01*
X106366762Y-73185044D01*
X106512841Y-73124536D01*
X106638282Y-73028282D01*
X106734536Y-72902841D01*
X106795044Y-72756762D01*
X106797497Y-72738125D01*
X106825763Y-72674231D01*
X106884087Y-72635759D01*
X106953952Y-72634927D01*
X107013176Y-72671999D01*
X107034995Y-72706858D01*
X107043242Y-72726765D01*
X107095463Y-72852840D01*
X107191717Y-72978282D01*
X107272646Y-73040380D01*
X107317159Y-73074536D01*
X107463238Y-73135044D01*
X107620000Y-73155682D01*
X107776762Y-73135044D01*
X107922841Y-73074536D01*
X108048282Y-72978282D01*
X108144536Y-72852841D01*
X108205044Y-72706762D01*
X108225682Y-72550000D01*
X108205044Y-72393238D01*
X108144536Y-72247159D01*
X108130341Y-72228660D01*
X108048282Y-72121717D01*
X107922840Y-72025463D01*
X107776762Y-71964956D01*
X107609504Y-71942936D01*
X107545607Y-71914669D01*
X107507136Y-71856345D01*
X107506305Y-71786480D01*
X107538006Y-71732318D01*
X110020997Y-69249328D01*
X110082317Y-69215845D01*
X110152009Y-69220829D01*
X110207942Y-69262701D01*
X110232359Y-69328165D01*
X110223237Y-69384462D01*
X110210954Y-69414118D01*
X110194957Y-69452739D01*
X110194956Y-69452741D01*
X110174317Y-69609502D01*
X110194956Y-69766264D01*
X110255463Y-69912342D01*
X110351717Y-70037784D01*
X110437031Y-70103247D01*
X110477159Y-70134038D01*
X110520088Y-70151820D01*
X110521578Y-70152437D01*
X110575981Y-70196278D01*
X110598046Y-70262572D01*
X110580767Y-70330271D01*
X110572502Y-70342483D01*
X110564655Y-70352709D01*
X110504148Y-70498787D01*
X110483509Y-70655550D01*
X110504148Y-70812312D01*
X110564655Y-70958390D01*
X110660909Y-71083832D01*
X110776908Y-71172840D01*
X110786351Y-71180086D01*
X110932430Y-71240594D01*
X111068552Y-71258514D01*
X111089191Y-71261232D01*
X111089191Y-71261231D01*
X111089192Y-71261232D01*
X111245954Y-71240594D01*
X111392033Y-71180086D01*
X111517474Y-71083832D01*
X111613728Y-70958391D01*
X111674236Y-70812312D01*
X111694874Y-70655550D01*
X111674236Y-70498788D01*
X111613728Y-70352709D01*
X111565195Y-70289459D01*
X111517474Y-70227267D01*
X111392034Y-70131014D01*
X111347612Y-70112614D01*
X111293209Y-70068772D01*
X111271145Y-70002478D01*
X111288425Y-69934779D01*
X111296685Y-69922573D01*
X111304536Y-69912343D01*
X111317933Y-69880000D01*
X111904317Y-69880000D01*
X111924956Y-70036762D01*
X111985463Y-70182840D01*
X112081717Y-70308282D01*
X112199681Y-70398798D01*
X112207159Y-70404536D01*
X112353238Y-70465044D01*
X112510000Y-70485682D01*
X112666762Y-70465044D01*
X112812841Y-70404536D01*
X112938282Y-70308282D01*
X113034536Y-70182841D01*
X113095044Y-70036762D01*
X113115682Y-69880000D01*
X113095044Y-69723238D01*
X113034536Y-69577159D01*
X113017291Y-69554685D01*
X112938282Y-69451717D01*
X112812840Y-69355463D01*
X112666762Y-69294956D01*
X112509999Y-69274317D01*
X112353237Y-69294956D01*
X112207159Y-69355463D01*
X112081717Y-69451717D01*
X111985463Y-69577159D01*
X111924956Y-69723237D01*
X111904317Y-69880000D01*
X111317933Y-69880000D01*
X111365044Y-69766264D01*
X111385682Y-69609502D01*
X111365044Y-69452740D01*
X111304536Y-69306661D01*
X111300742Y-69301716D01*
X111208282Y-69181219D01*
X111082840Y-69084965D01*
X110936762Y-69024458D01*
X110779999Y-69003819D01*
X110639575Y-69022307D01*
X110623238Y-69024458D01*
X110604593Y-69032181D01*
X110554960Y-69052739D01*
X110485491Y-69060206D01*
X110423012Y-69028931D01*
X110387360Y-68968841D01*
X110389855Y-68899016D01*
X110419825Y-68850499D01*
X115152821Y-64117504D01*
X115214142Y-64084021D01*
X115283834Y-64089005D01*
X115339767Y-64130877D01*
X115364184Y-64196341D01*
X115364500Y-64205187D01*
X115364500Y-69791421D01*
X115344815Y-69858460D01*
X115328181Y-69879102D01*
X111705489Y-73501793D01*
X111644166Y-73535278D01*
X111601623Y-73537051D01*
X111533805Y-73528122D01*
X111377042Y-73548761D01*
X111230964Y-73609268D01*
X111105522Y-73705522D01*
X111009268Y-73830964D01*
X110948761Y-73977042D01*
X110928122Y-74133805D01*
X110948761Y-74290567D01*
X111009268Y-74436645D01*
X111105522Y-74562087D01*
X111229424Y-74657159D01*
X111230964Y-74658341D01*
X111377043Y-74718849D01*
X111533805Y-74739487D01*
X111690567Y-74718849D01*
X111836646Y-74658341D01*
X111962087Y-74562087D01*
X112058341Y-74436646D01*
X112118849Y-74290567D01*
X112139487Y-74133805D01*
X112130557Y-74065985D01*
X112141323Y-73996949D01*
X112165813Y-73962121D01*
X115906296Y-70221639D01*
X115914249Y-70214351D01*
X115943194Y-70190065D01*
X115962082Y-70157348D01*
X115967881Y-70148245D01*
X115989554Y-70117294D01*
X115989554Y-70117292D01*
X115990173Y-70116409D01*
X116000398Y-70091722D01*
X116000585Y-70090659D01*
X116000588Y-70090655D01*
X116007150Y-70053432D01*
X116009479Y-70042926D01*
X116019263Y-70006417D01*
X116018918Y-70002478D01*
X116015972Y-69968797D01*
X116015500Y-69957990D01*
X116015500Y-59936187D01*
X116035185Y-59869148D01*
X116051814Y-59848511D01*
X122131296Y-53769029D01*
X122139250Y-53761740D01*
X122168194Y-53737455D01*
X122187102Y-53704703D01*
X122192878Y-53695638D01*
X122214553Y-53664684D01*
X122214553Y-53664681D01*
X122215171Y-53663800D01*
X122225400Y-53639105D01*
X122225586Y-53638047D01*
X122225588Y-53638045D01*
X122232150Y-53600824D01*
X122234480Y-53590312D01*
X122244263Y-53553807D01*
X122240969Y-53516164D01*
X122240500Y-53505400D01*
X122240500Y-51799287D01*
X122240969Y-51788527D01*
X122244263Y-51750888D01*
X122234485Y-51714400D01*
X122232145Y-51703838D01*
X122227556Y-51677813D01*
X122225588Y-51666650D01*
X122225587Y-51666649D01*
X122225402Y-51665596D01*
X122215169Y-51640890D01*
X122192894Y-51609077D01*
X122187083Y-51599956D01*
X122168194Y-51567240D01*
X122139261Y-51542962D01*
X122131286Y-51535654D01*
X121734348Y-51138717D01*
X121727039Y-51130741D01*
X121702759Y-51101805D01*
X121670041Y-51082915D01*
X121660932Y-51077112D01*
X121629989Y-51055446D01*
X121629108Y-51054829D01*
X121604412Y-51044599D01*
X121566157Y-51037853D01*
X121555601Y-51035512D01*
X121519112Y-51025735D01*
X121481485Y-51029028D01*
X121470677Y-51029500D01*
X120909323Y-51029500D01*
X120898515Y-51029028D01*
X120860887Y-51025735D01*
X120824399Y-51035512D01*
X120813843Y-51037852D01*
X120775594Y-51044597D01*
X120750888Y-51054831D01*
X120719075Y-51077106D01*
X120709959Y-51082914D01*
X120677240Y-51101805D01*
X120652957Y-51130744D01*
X120645651Y-51138716D01*
X120221038Y-51563329D01*
X120159715Y-51596814D01*
X120100088Y-51592549D01*
X120107202Y-51642257D01*
X120078136Y-51705794D01*
X120072157Y-51712211D01*
X119786188Y-51998181D01*
X119724865Y-52031666D01*
X119698507Y-52034500D01*
X118411495Y-52034500D01*
X118344456Y-52014815D01*
X118323814Y-51998182D01*
X118224343Y-51898712D01*
X118217034Y-51890735D01*
X118192759Y-51861805D01*
X118160041Y-51842915D01*
X118150932Y-51837112D01*
X118119989Y-51815446D01*
X118119108Y-51814829D01*
X118094412Y-51804599D01*
X118056157Y-51797853D01*
X118045601Y-51795512D01*
X118009112Y-51785735D01*
X117971485Y-51789028D01*
X117960677Y-51789500D01*
X115986493Y-51789500D01*
X115919454Y-51769815D01*
X115898812Y-51753181D01*
X115621520Y-51475889D01*
X118999416Y-51475889D01*
X118999459Y-51500000D01*
X118999501Y-51500101D01*
X118999616Y-51500382D01*
X118999618Y-51500384D01*
X118999808Y-51500462D01*
X119000000Y-51500541D01*
X119000002Y-51500539D01*
X119024616Y-51500524D01*
X119024616Y-51500528D01*
X119024760Y-51500500D01*
X119975240Y-51500500D01*
X119975378Y-51500527D01*
X119975379Y-51500524D01*
X119984557Y-51500530D01*
X120003610Y-51506137D01*
X120014183Y-51508239D01*
X120000521Y-51464742D01*
X120000499Y-51462417D01*
X120000499Y-43508647D01*
X120000541Y-43500003D01*
X120000540Y-43500001D01*
X120000541Y-43500000D01*
X120000383Y-43499617D01*
X120000379Y-43499615D01*
X120000097Y-43499499D01*
X120000000Y-43499459D01*
X119975446Y-43499459D01*
X119975240Y-43499500D01*
X119024760Y-43499500D01*
X119024554Y-43499459D01*
X118999999Y-43499459D01*
X118999900Y-43499500D01*
X118999618Y-43499615D01*
X118999615Y-43499618D01*
X118999459Y-43499999D01*
X118999476Y-43524616D01*
X118999471Y-43524616D01*
X118999500Y-43524759D01*
X118999500Y-51475467D01*
X118999416Y-51475889D01*
X115621520Y-51475889D01*
X114175631Y-50030000D01*
X116019817Y-50030000D01*
X116040456Y-50186762D01*
X116100963Y-50332840D01*
X116197217Y-50458282D01*
X116231980Y-50484956D01*
X116322659Y-50554536D01*
X116468738Y-50615044D01*
X116604861Y-50632964D01*
X116625499Y-50635682D01*
X116625499Y-50635681D01*
X116625500Y-50635682D01*
X116782262Y-50615044D01*
X116928341Y-50554536D01*
X117053782Y-50458282D01*
X117150036Y-50332841D01*
X117210544Y-50186762D01*
X117231182Y-50030000D01*
X117210544Y-49873238D01*
X117150036Y-49727159D01*
X117150036Y-49727158D01*
X117053782Y-49601717D01*
X116928340Y-49505463D01*
X116782262Y-49444956D01*
X116625499Y-49424317D01*
X116468737Y-49444956D01*
X116322659Y-49505463D01*
X116197217Y-49601717D01*
X116100963Y-49727159D01*
X116040456Y-49873237D01*
X116019817Y-50030000D01*
X114175631Y-50030000D01*
X110145631Y-46000000D01*
X111994389Y-46000000D01*
X112014804Y-46285429D01*
X112075629Y-46565041D01*
X112175634Y-46833163D01*
X112312772Y-47084313D01*
X112349099Y-47132840D01*
X112484261Y-47313395D01*
X112686605Y-47515739D01*
X112858415Y-47644354D01*
X112915686Y-47687227D01*
X113055435Y-47763535D01*
X113166839Y-47824367D01*
X113434954Y-47924369D01*
X113434957Y-47924369D01*
X113434958Y-47924370D01*
X113487217Y-47935738D01*
X113714572Y-47985196D01*
X114000000Y-48005610D01*
X114285428Y-47985196D01*
X114565046Y-47924369D01*
X114833161Y-47824367D01*
X115084315Y-47687226D01*
X115313395Y-47515739D01*
X115515739Y-47313395D01*
X115687226Y-47084315D01*
X115824367Y-46833161D01*
X115924369Y-46565046D01*
X115985196Y-46285428D01*
X116005610Y-46000000D01*
X115985196Y-45714572D01*
X115935738Y-45487217D01*
X115924370Y-45434958D01*
X115904600Y-45381952D01*
X115824367Y-45166839D01*
X115763535Y-45055435D01*
X115687227Y-44915686D01*
X115644354Y-44858414D01*
X115515739Y-44686605D01*
X115313395Y-44484261D01*
X115198854Y-44398517D01*
X115084313Y-44312772D01*
X114833163Y-44175634D01*
X114833162Y-44175633D01*
X114833161Y-44175633D01*
X114658123Y-44110347D01*
X114565041Y-44075629D01*
X114285429Y-44014804D01*
X114000000Y-43994389D01*
X113714570Y-44014804D01*
X113434958Y-44075629D01*
X113166836Y-44175634D01*
X112915686Y-44312772D01*
X112686602Y-44484263D01*
X112484263Y-44686602D01*
X112312772Y-44915686D01*
X112175634Y-45166836D01*
X112075629Y-45434958D01*
X112014804Y-45714570D01*
X111994389Y-46000000D01*
X110145631Y-46000000D01*
X108814348Y-44668717D01*
X108807039Y-44660741D01*
X108782759Y-44631805D01*
X108750041Y-44612915D01*
X108740932Y-44607112D01*
X108709989Y-44585446D01*
X108709108Y-44584829D01*
X108684412Y-44574599D01*
X108646157Y-44567853D01*
X108635601Y-44565512D01*
X108599112Y-44555735D01*
X108561485Y-44559028D01*
X108550677Y-44559500D01*
X106825883Y-44559500D01*
X106758844Y-44539815D01*
X106738202Y-44523181D01*
X104235021Y-42020000D01*
X107174317Y-42020000D01*
X107194956Y-42176762D01*
X107255463Y-42322840D01*
X107351717Y-42448282D01*
X107477158Y-42544535D01*
X107477159Y-42544536D01*
X107623238Y-42605044D01*
X107780000Y-42625682D01*
X107936762Y-42605044D01*
X108082841Y-42544536D01*
X108208282Y-42448282D01*
X108304536Y-42322841D01*
X108365044Y-42176762D01*
X108385682Y-42020000D01*
X108365044Y-41863238D01*
X108304536Y-41717159D01*
X108277202Y-41681536D01*
X108208282Y-41591717D01*
X108082840Y-41495463D01*
X107936762Y-41434956D01*
X107780000Y-41414317D01*
X107623237Y-41434956D01*
X107477159Y-41495463D01*
X107351717Y-41591717D01*
X107255463Y-41717159D01*
X107194956Y-41863237D01*
X107174317Y-42020000D01*
X104235021Y-42020000D01*
X103609495Y-41394474D01*
X103190910Y-40975889D01*
X108499416Y-40975889D01*
X108499459Y-41000000D01*
X108499501Y-41000101D01*
X108499616Y-41000382D01*
X108499618Y-41000384D01*
X108499808Y-41000462D01*
X108500000Y-41000541D01*
X108500002Y-41000539D01*
X108524616Y-41000524D01*
X108524616Y-41000528D01*
X108524760Y-41000500D01*
X116475240Y-41000500D01*
X116475383Y-41000528D01*
X116475384Y-41000524D01*
X116499997Y-41000539D01*
X116500000Y-41000541D01*
X116500383Y-41000383D01*
X116500500Y-41000099D01*
X116500541Y-41000000D01*
X116500540Y-40999997D01*
X116500583Y-40975889D01*
X116500500Y-40975467D01*
X116500500Y-40024759D01*
X116500528Y-40024616D01*
X116500524Y-40024616D01*
X116500539Y-40000002D01*
X116500541Y-40000000D01*
X116500462Y-39999808D01*
X116500384Y-39999618D01*
X116500383Y-39999617D01*
X116500379Y-39999615D01*
X116500097Y-39999499D01*
X116500000Y-39999459D01*
X116475446Y-39999459D01*
X116475240Y-39999500D01*
X108524760Y-39999500D01*
X108524554Y-39999459D01*
X108499999Y-39999459D01*
X108499900Y-39999500D01*
X108499618Y-39999615D01*
X108499615Y-39999618D01*
X108499459Y-39999999D01*
X108499476Y-40024616D01*
X108499471Y-40024616D01*
X108499500Y-40024759D01*
X108499500Y-40975467D01*
X108499416Y-40975889D01*
X103190910Y-40975889D01*
X100901638Y-38686616D01*
X100868155Y-38625296D01*
X100873139Y-38555604D01*
X100915011Y-38499671D01*
X100980475Y-38475254D01*
X101036773Y-38484377D01*
X101124970Y-38520908D01*
X101183238Y-38545044D01*
X101340000Y-38565682D01*
X101496762Y-38545044D01*
X101642841Y-38484536D01*
X101768282Y-38388282D01*
X101864536Y-38262841D01*
X101925044Y-38116762D01*
X101945682Y-37960000D01*
X101925044Y-37803238D01*
X101864536Y-37657159D01*
X101861988Y-37653838D01*
X101768282Y-37531717D01*
X101642840Y-37435463D01*
X101496762Y-37374956D01*
X101340000Y-37354317D01*
X101183237Y-37374956D01*
X101037159Y-37435463D01*
X100911717Y-37531717D01*
X100815463Y-37657159D01*
X100754956Y-37803237D01*
X100734317Y-37960000D01*
X100754956Y-38116762D01*
X100815622Y-38263225D01*
X100823091Y-38332694D01*
X100791815Y-38395173D01*
X100731726Y-38430825D01*
X100661901Y-38428331D01*
X100613380Y-38398358D01*
X100446819Y-38231797D01*
X100413334Y-38170474D01*
X100410500Y-38144116D01*
X100410500Y-37749310D01*
X100410972Y-37738502D01*
X100414263Y-37700888D01*
X100404486Y-37664401D01*
X100402145Y-37653838D01*
X100395402Y-37615596D01*
X100385169Y-37590890D01*
X100362894Y-37559077D01*
X100357083Y-37549956D01*
X100338194Y-37517240D01*
X100309261Y-37492962D01*
X100301286Y-37485654D01*
X99904348Y-37088717D01*
X99897039Y-37080741D01*
X99872759Y-37051805D01*
X99840041Y-37032915D01*
X99830932Y-37027112D01*
X99803087Y-37007615D01*
X99799108Y-37004829D01*
X99774412Y-36994599D01*
X99736157Y-36987853D01*
X99725601Y-36985512D01*
X99689112Y-36975735D01*
X99651485Y-36979028D01*
X99640677Y-36979500D01*
X99079311Y-36979500D01*
X99068503Y-36979028D01*
X99030888Y-36975736D01*
X98994411Y-36985510D01*
X98983857Y-36987849D01*
X98945600Y-36994595D01*
X98920885Y-37004834D01*
X98889072Y-37027108D01*
X98879956Y-37032915D01*
X98847240Y-37051804D01*
X98822957Y-37080743D01*
X98815651Y-37088715D01*
X98118714Y-37785653D01*
X98110741Y-37792959D01*
X98081806Y-37817239D01*
X98062914Y-37849959D01*
X98057106Y-37859075D01*
X98034831Y-37890888D01*
X98024597Y-37915594D01*
X98017852Y-37953843D01*
X98015512Y-37964399D01*
X98005735Y-38000886D01*
X98009028Y-38038512D01*
X98009500Y-38049321D01*
X98009500Y-40691021D01*
X97989815Y-40758060D01*
X97937011Y-40803815D01*
X97867853Y-40813759D01*
X97804297Y-40784734D01*
X97785804Y-40759089D01*
X97784474Y-40760110D01*
X97678282Y-40621717D01*
X97552840Y-40525463D01*
X97406762Y-40464956D01*
X97250000Y-40444317D01*
X97093237Y-40464956D01*
X96947159Y-40525463D01*
X96821717Y-40621717D01*
X96725463Y-40747159D01*
X96664956Y-40893237D01*
X96644317Y-41050000D01*
X96664956Y-41206762D01*
X96725463Y-41352840D01*
X96821717Y-41478282D01*
X96947158Y-41574536D01*
X96947159Y-41574536D01*
X97093238Y-41635044D01*
X97231687Y-41653271D01*
X97295581Y-41681536D01*
X97334053Y-41739860D01*
X97339500Y-41776209D01*
X97339500Y-53157691D01*
X97319815Y-53224730D01*
X97303181Y-53245372D01*
X95592740Y-54955813D01*
X95531417Y-54989298D01*
X95461725Y-54984314D01*
X95405792Y-54942442D01*
X95390498Y-54915584D01*
X95360971Y-54844300D01*
X95264717Y-54718858D01*
X95139276Y-54622605D01*
X94993197Y-54562097D01*
X94941906Y-54555344D01*
X94878010Y-54527077D01*
X94870412Y-54520086D01*
X94009043Y-53658717D01*
X94001734Y-53650741D01*
X93977454Y-53621805D01*
X93944736Y-53602915D01*
X93935627Y-53597112D01*
X93904684Y-53575446D01*
X93903803Y-53574829D01*
X93879107Y-53564599D01*
X93840852Y-53557853D01*
X93830296Y-53555512D01*
X93793807Y-53545735D01*
X93756180Y-53549028D01*
X93745372Y-53549500D01*
X93287127Y-53549500D01*
X93220088Y-53529815D01*
X93199446Y-53513181D01*
X93120826Y-53434561D01*
X93087341Y-53373238D01*
X93092325Y-53303546D01*
X93134197Y-53247613D01*
X93161047Y-53232322D01*
X93232341Y-53202792D01*
X93357782Y-53106538D01*
X93454036Y-52981097D01*
X93514544Y-52835018D01*
X93535182Y-52678256D01*
X93514544Y-52521494D01*
X93454036Y-52375415D01*
X93420506Y-52331718D01*
X93357782Y-52249973D01*
X93232340Y-52153719D01*
X93086262Y-52093212D01*
X92929499Y-52072573D01*
X92772737Y-52093212D01*
X92626659Y-52153719D01*
X92501217Y-52249973D01*
X92404963Y-52375414D01*
X92375436Y-52446701D01*
X92331595Y-52501104D01*
X92265301Y-52523169D01*
X92197601Y-52505890D01*
X92173194Y-52486929D01*
X91011068Y-51324803D01*
X90977583Y-51263480D01*
X90975810Y-51220941D01*
X90995682Y-51070000D01*
X90975044Y-50913238D01*
X90914536Y-50767159D01*
X90914535Y-50767158D01*
X90818282Y-50641717D01*
X90692840Y-50545463D01*
X90546762Y-50484956D01*
X90390000Y-50464317D01*
X90233237Y-50484956D01*
X90087159Y-50545463D01*
X89961717Y-50641717D01*
X89865463Y-50767159D01*
X89804956Y-50913237D01*
X89784317Y-51070000D01*
X89800016Y-51189243D01*
X89789250Y-51258278D01*
X89742870Y-51310534D01*
X89675601Y-51329419D01*
X89629625Y-51319989D01*
X89496762Y-51264956D01*
X89340000Y-51244317D01*
X89183237Y-51264956D01*
X89037159Y-51325463D01*
X88911717Y-51421717D01*
X88815463Y-51547159D01*
X88754956Y-51693237D01*
X88734317Y-51850000D01*
X88754956Y-52006762D01*
X88815463Y-52152840D01*
X88911717Y-52278282D01*
X88991173Y-52339250D01*
X89037159Y-52374536D01*
X89183238Y-52435044D01*
X89340000Y-52455682D01*
X89496762Y-52435044D01*
X89642841Y-52374536D01*
X89768282Y-52278282D01*
X89864536Y-52152841D01*
X89925044Y-52006762D01*
X89945682Y-51850000D01*
X89929983Y-51730755D01*
X89940748Y-51661721D01*
X89987128Y-51609465D01*
X90054397Y-51590580D01*
X90100373Y-51600009D01*
X90233238Y-51655044D01*
X90390000Y-51675682D01*
X90406186Y-51677813D01*
X90405567Y-51682511D01*
X90443675Y-51688433D01*
X90478567Y-51712954D01*
X92851602Y-54085989D01*
X92885087Y-54147312D01*
X92880103Y-54217004D01*
X92862297Y-54249156D01*
X92825463Y-54297159D01*
X92764956Y-54443237D01*
X92744317Y-54600000D01*
X92764956Y-54756762D01*
X92825463Y-54902840D01*
X92921717Y-55028282D01*
X93015183Y-55100000D01*
X93047159Y-55124536D01*
X93193238Y-55185044D01*
X93350000Y-55205682D01*
X93506762Y-55185044D01*
X93652841Y-55124536D01*
X93778282Y-55028282D01*
X93874536Y-54902841D01*
X93935044Y-54756762D01*
X93935044Y-54756757D01*
X93937656Y-54750453D01*
X93981496Y-54696049D01*
X94047790Y-54673984D01*
X94115490Y-54691263D01*
X94139898Y-54710224D01*
X94242204Y-54812530D01*
X94275689Y-54873853D01*
X94270705Y-54943545D01*
X94269085Y-54947663D01*
X94251390Y-54990381D01*
X94230752Y-55147141D01*
X94251391Y-55303903D01*
X94311898Y-55449981D01*
X94408152Y-55575423D01*
X94533594Y-55671677D01*
X94604878Y-55701204D01*
X94659282Y-55745045D01*
X94681347Y-55811339D01*
X94664068Y-55879038D01*
X94645107Y-55903446D01*
X91315374Y-59233181D01*
X91254051Y-59266666D01*
X91227693Y-59269500D01*
X90964622Y-59269500D01*
X90953816Y-59269028D01*
X90942416Y-59268030D01*
X90936136Y-59267481D01*
X90899499Y-59258515D01*
X90866763Y-59244956D01*
X90709999Y-59224317D01*
X90642180Y-59233246D01*
X90573144Y-59222480D01*
X90538314Y-59197988D01*
X90469043Y-59128717D01*
X90461734Y-59120741D01*
X90437454Y-59091805D01*
X90404736Y-59072915D01*
X90395627Y-59067112D01*
X90364684Y-59045446D01*
X90363803Y-59044829D01*
X90339107Y-59034599D01*
X90300852Y-59027853D01*
X90290296Y-59025512D01*
X90253807Y-59015735D01*
X90216180Y-59019028D01*
X90205372Y-59019500D01*
X89191189Y-59019500D01*
X89124150Y-58999815D01*
X89103508Y-58983181D01*
X87574470Y-57454143D01*
X87540985Y-57392820D01*
X87538151Y-57366462D01*
X87538151Y-56848333D01*
X87557836Y-56781294D01*
X87610640Y-56735539D01*
X87679798Y-56725595D01*
X87743354Y-56754620D01*
X87755858Y-56767124D01*
X87768870Y-56782141D01*
X87768873Y-56782144D01*
X87800747Y-56802628D01*
X87889947Y-56859953D01*
X88028039Y-56900500D01*
X88171961Y-56900500D01*
X88310053Y-56859953D01*
X88431128Y-56782143D01*
X88525377Y-56673373D01*
X88585165Y-56542457D01*
X88585164Y-56542457D01*
X88592572Y-56526239D01*
X88594006Y-56526894D01*
X88613390Y-56484447D01*
X88672167Y-56446670D01*
X88742037Y-56446668D01*
X88800816Y-56484440D01*
X88829843Y-56547995D01*
X88830045Y-56549460D01*
X88834956Y-56586762D01*
X88895463Y-56732840D01*
X88991717Y-56858282D01*
X89066238Y-56915463D01*
X89117159Y-56954536D01*
X89263238Y-57015044D01*
X89420000Y-57035682D01*
X89576762Y-57015044D01*
X89722841Y-56954536D01*
X89848282Y-56858282D01*
X89944536Y-56732841D01*
X90005044Y-56586762D01*
X90005044Y-56586758D01*
X90005431Y-56585825D01*
X90049271Y-56531421D01*
X90115565Y-56509356D01*
X90183265Y-56526635D01*
X90230875Y-56577772D01*
X90232786Y-56581765D01*
X90274623Y-56673374D01*
X90368136Y-56781294D01*
X90368872Y-56782143D01*
X90489947Y-56859953D01*
X90628039Y-56900500D01*
X90771961Y-56900500D01*
X90910053Y-56859953D01*
X91031128Y-56782143D01*
X91125377Y-56673373D01*
X91185165Y-56542457D01*
X91191269Y-56500000D01*
X91694353Y-56500000D01*
X91714834Y-56642457D01*
X91774623Y-56773374D01*
X91849644Y-56859953D01*
X91868872Y-56882143D01*
X91989947Y-56959953D01*
X92128039Y-57000500D01*
X92271961Y-57000500D01*
X92410053Y-56959953D01*
X92531128Y-56882143D01*
X92625377Y-56773373D01*
X92685165Y-56642457D01*
X92705647Y-56500000D01*
X92685165Y-56357543D01*
X92679592Y-56345341D01*
X92625376Y-56226625D01*
X92531129Y-56117858D01*
X92531128Y-56117857D01*
X92410053Y-56040047D01*
X92271961Y-55999500D01*
X92128039Y-55999500D01*
X91989947Y-56040047D01*
X91868870Y-56117858D01*
X91774623Y-56226625D01*
X91714834Y-56357542D01*
X91694353Y-56500000D01*
X91191269Y-56500000D01*
X91205647Y-56400000D01*
X91185165Y-56257543D01*
X91180244Y-56246768D01*
X91125376Y-56126625D01*
X91031129Y-56017858D01*
X91031128Y-56017857D01*
X90910053Y-55940047D01*
X90771961Y-55899500D01*
X90628039Y-55899500D01*
X90489947Y-55940047D01*
X90368870Y-56017858D01*
X90274623Y-56126625D01*
X90219754Y-56246770D01*
X90173999Y-56299574D01*
X90106959Y-56319258D01*
X90039920Y-56299573D01*
X89994165Y-56246768D01*
X89992399Y-56242710D01*
X89944536Y-56127159D01*
X89848282Y-56001717D01*
X89722840Y-55905463D01*
X89576762Y-55844956D01*
X89419999Y-55824317D01*
X89263237Y-55844956D01*
X89117159Y-55905463D01*
X88991717Y-56001717D01*
X88895463Y-56127159D01*
X88834956Y-56273237D01*
X88834168Y-56279223D01*
X88805898Y-56343119D01*
X88747572Y-56381587D01*
X88677708Y-56382416D01*
X88618486Y-56345341D01*
X88588709Y-56282134D01*
X88588491Y-56280678D01*
X88587421Y-56273238D01*
X88585165Y-56257543D01*
X88580244Y-56246768D01*
X88525376Y-56126625D01*
X88431129Y-56017858D01*
X88431128Y-56017857D01*
X88310053Y-55940047D01*
X88171961Y-55899500D01*
X88028039Y-55899500D01*
X87889947Y-55940047D01*
X87768869Y-56017858D01*
X87755864Y-56032868D01*
X87697086Y-56070643D01*
X87627217Y-56070643D01*
X87568438Y-56032869D01*
X87539413Y-55969314D01*
X87538151Y-55951666D01*
X87538151Y-53523341D01*
X87557836Y-53456302D01*
X87574466Y-53435664D01*
X87931291Y-53078838D01*
X87939258Y-53071539D01*
X87968192Y-53047262D01*
X87968192Y-53047261D01*
X87968194Y-53047260D01*
X87987091Y-53014527D01*
X87992887Y-53005430D01*
X88014554Y-52974489D01*
X88014554Y-52974487D01*
X88015173Y-52973604D01*
X88025399Y-52948917D01*
X88025586Y-52947852D01*
X88025588Y-52947850D01*
X88032149Y-52910635D01*
X88034478Y-52900129D01*
X88044264Y-52863612D01*
X88041762Y-52835018D01*
X88040972Y-52825981D01*
X88040500Y-52815174D01*
X88040500Y-52253810D01*
X88040972Y-52243002D01*
X88044263Y-52205388D01*
X88034486Y-52168901D01*
X88032145Y-52158338D01*
X88025402Y-52120096D01*
X88015169Y-52095390D01*
X87992894Y-52063577D01*
X87987083Y-52054456D01*
X87968194Y-52021740D01*
X87939261Y-51997462D01*
X87931286Y-51990154D01*
X87534348Y-51593217D01*
X87527039Y-51585241D01*
X87519231Y-51575936D01*
X87502760Y-51556306D01*
X87502759Y-51556305D01*
X87470041Y-51537415D01*
X87460932Y-51531612D01*
X87429989Y-51509946D01*
X87429108Y-51509329D01*
X87404412Y-51499099D01*
X87366157Y-51492353D01*
X87355601Y-51490012D01*
X87319112Y-51480235D01*
X87281485Y-51483528D01*
X87270677Y-51484000D01*
X86709323Y-51484000D01*
X86698515Y-51483528D01*
X86660887Y-51480235D01*
X86624399Y-51490012D01*
X86613843Y-51492352D01*
X86575594Y-51499097D01*
X86550888Y-51509331D01*
X86519075Y-51531606D01*
X86509959Y-51537414D01*
X86477240Y-51556305D01*
X86452957Y-51585244D01*
X86445651Y-51593216D01*
X82470688Y-55568181D01*
X82409365Y-55601666D01*
X82383007Y-55604500D01*
X82025580Y-55604500D01*
X81958541Y-55584815D01*
X81912786Y-55532011D01*
X81902842Y-55462853D01*
X81911019Y-55433047D01*
X81955044Y-55326762D01*
X81975682Y-55170000D01*
X81955044Y-55013238D01*
X81894536Y-54867159D01*
X81869336Y-54834317D01*
X81788344Y-54728766D01*
X81790624Y-54727016D01*
X81764077Y-54690659D01*
X81759923Y-54620913D01*
X81794136Y-54559993D01*
X81805281Y-54550336D01*
X81812838Y-54544537D01*
X81812841Y-54544536D01*
X81938282Y-54448282D01*
X82034536Y-54322841D01*
X82095044Y-54176762D01*
X82115682Y-54020000D01*
X82095044Y-53863238D01*
X82034536Y-53717159D01*
X82021410Y-53700053D01*
X81938282Y-53591717D01*
X81812840Y-53495463D01*
X81666762Y-53434956D01*
X81510000Y-53414317D01*
X81353237Y-53434956D01*
X81207159Y-53495463D01*
X81081717Y-53591717D01*
X80985463Y-53717159D01*
X80924956Y-53863237D01*
X80904317Y-54020000D01*
X80924956Y-54176762D01*
X80985463Y-54322840D01*
X81091656Y-54461234D01*
X81089375Y-54462983D01*
X81115921Y-54499337D01*
X81120076Y-54569083D01*
X81085865Y-54630004D01*
X81074718Y-54639663D01*
X80941717Y-54741717D01*
X80845463Y-54867159D01*
X80784956Y-55013237D01*
X80764317Y-55170000D01*
X80778997Y-55281498D01*
X80784956Y-55326762D01*
X80828981Y-55433047D01*
X80836450Y-55502517D01*
X80805175Y-55564996D01*
X80745086Y-55600648D01*
X80714420Y-55604500D01*
X72733864Y-55604500D01*
X72666825Y-55584815D01*
X72621070Y-55532011D01*
X72611126Y-55462853D01*
X72619301Y-55433050D01*
X72655044Y-55346762D01*
X72675682Y-55190000D01*
X72655044Y-55033238D01*
X72594536Y-54887159D01*
X72553554Y-54833750D01*
X72498282Y-54761717D01*
X72372840Y-54665463D01*
X72226762Y-54604956D01*
X72070000Y-54584317D01*
X71913237Y-54604956D01*
X71767159Y-54665463D01*
X71641717Y-54761717D01*
X71545463Y-54887159D01*
X71484956Y-55033237D01*
X71464317Y-55190000D01*
X71467275Y-55212463D01*
X71456509Y-55281498D01*
X71410129Y-55333754D01*
X71342860Y-55352639D01*
X71276060Y-55332158D01*
X71256655Y-55316329D01*
X71012011Y-55071685D01*
X70978526Y-55010362D01*
X70976753Y-54967818D01*
X70985682Y-54900000D01*
X70983991Y-54887159D01*
X70982240Y-54873853D01*
X70965044Y-54743238D01*
X70904536Y-54597159D01*
X70894682Y-54584317D01*
X70808282Y-54471717D01*
X70682840Y-54375463D01*
X70536762Y-54314956D01*
X70380000Y-54294317D01*
X70223237Y-54314956D01*
X70077159Y-54375463D01*
X69951717Y-54471717D01*
X69855463Y-54597159D01*
X69794956Y-54743237D01*
X69774317Y-54900000D01*
X69794956Y-55056762D01*
X69855463Y-55202840D01*
X69951717Y-55328282D01*
X69988092Y-55356193D01*
X70077159Y-55424536D01*
X70223238Y-55485044D01*
X70355959Y-55502517D01*
X70379999Y-55505682D01*
X70379999Y-55505681D01*
X70380000Y-55505682D01*
X70447818Y-55496753D01*
X70516853Y-55507518D01*
X70551685Y-55532011D01*
X70735938Y-55716264D01*
X70769423Y-55777587D01*
X70764439Y-55847279D01*
X70722567Y-55903212D01*
X70657103Y-55927629D01*
X70648324Y-55927945D01*
X68124567Y-55929303D01*
X68057517Y-55909654D01*
X68011733Y-55856875D01*
X68000500Y-55805303D01*
X68000500Y-53024759D01*
X68000528Y-53024616D01*
X68000524Y-53024616D01*
X68000539Y-53000002D01*
X68000541Y-53000000D01*
X68000462Y-52999808D01*
X68000384Y-52999618D01*
X68000383Y-52999617D01*
X68000379Y-52999615D01*
X68000097Y-52999499D01*
X68000000Y-52999459D01*
X67975446Y-52999459D01*
X67975240Y-52999500D01*
X65124500Y-52999500D01*
X65057461Y-52979815D01*
X65011706Y-52927011D01*
X65000500Y-52875500D01*
X65000500Y-51475889D01*
X73999416Y-51475889D01*
X73999459Y-51500000D01*
X73999501Y-51500101D01*
X73999616Y-51500382D01*
X73999618Y-51500384D01*
X73999808Y-51500462D01*
X74000000Y-51500541D01*
X74000002Y-51500539D01*
X74024616Y-51500524D01*
X74024616Y-51500528D01*
X74024760Y-51500500D01*
X74975240Y-51500500D01*
X74975383Y-51500528D01*
X74975384Y-51500524D01*
X74999997Y-51500539D01*
X75000000Y-51500541D01*
X75000383Y-51500383D01*
X75000500Y-51500099D01*
X75000541Y-51500000D01*
X75000540Y-51499997D01*
X75000583Y-51475889D01*
X75000500Y-51475467D01*
X75000500Y-50949999D01*
X81244591Y-50949999D01*
X81264197Y-51211627D01*
X81322580Y-51467418D01*
X81416007Y-51705464D01*
X81418432Y-51711643D01*
X81441090Y-51750887D01*
X81521830Y-51890735D01*
X81549614Y-51938857D01*
X81713195Y-52143981D01*
X81713197Y-52143983D01*
X81713198Y-52143984D01*
X81905514Y-52322428D01*
X81905520Y-52322432D01*
X81905521Y-52322433D01*
X82122296Y-52470228D01*
X82358677Y-52584063D01*
X82609385Y-52661396D01*
X82868818Y-52700500D01*
X83131182Y-52700500D01*
X83390615Y-52661396D01*
X83641323Y-52584063D01*
X83877704Y-52470228D01*
X84094479Y-52322433D01*
X84094482Y-52322429D01*
X84094485Y-52322428D01*
X84180085Y-52243002D01*
X84286805Y-52143981D01*
X84450386Y-51938857D01*
X84581568Y-51711643D01*
X84677420Y-51467416D01*
X84735802Y-51211630D01*
X84755408Y-50950000D01*
X84735802Y-50688370D01*
X84677420Y-50432584D01*
X84581568Y-50188357D01*
X84450386Y-49961143D01*
X84286805Y-49756019D01*
X84286801Y-49756015D01*
X84094485Y-49577571D01*
X84066869Y-49558743D01*
X83877704Y-49429772D01*
X83641323Y-49315937D01*
X83390615Y-49238604D01*
X83131182Y-49199500D01*
X82868818Y-49199500D01*
X82609385Y-49238604D01*
X82358677Y-49315937D01*
X82122296Y-49429772D01*
X82052922Y-49477070D01*
X81905514Y-49577571D01*
X81713198Y-49756015D01*
X81549613Y-49961143D01*
X81418431Y-50188358D01*
X81322580Y-50432581D01*
X81264197Y-50688372D01*
X81244591Y-50949999D01*
X75000500Y-50949999D01*
X75000500Y-46000000D01*
X77994389Y-46000000D01*
X78014804Y-46285429D01*
X78075629Y-46565041D01*
X78175634Y-46833163D01*
X78312772Y-47084313D01*
X78349099Y-47132840D01*
X78484261Y-47313395D01*
X78686605Y-47515739D01*
X78858415Y-47644354D01*
X78915686Y-47687227D01*
X79055435Y-47763535D01*
X79166839Y-47824367D01*
X79434954Y-47924369D01*
X79434957Y-47924369D01*
X79434958Y-47924370D01*
X79487217Y-47935738D01*
X79714572Y-47985196D01*
X80000000Y-48005610D01*
X80285428Y-47985196D01*
X80565046Y-47924369D01*
X80833161Y-47824367D01*
X81084315Y-47687226D01*
X81313395Y-47515739D01*
X81515739Y-47313395D01*
X81687226Y-47084315D01*
X81824367Y-46833161D01*
X81825546Y-46830000D01*
X85314317Y-46830000D01*
X85334956Y-46986762D01*
X85395463Y-47132840D01*
X85491717Y-47258282D01*
X85602318Y-47343148D01*
X85617159Y-47354536D01*
X85763238Y-47415044D01*
X85920000Y-47435682D01*
X86076762Y-47415044D01*
X86222841Y-47354536D01*
X86348282Y-47258282D01*
X86444536Y-47132841D01*
X86505044Y-46986762D01*
X86525682Y-46830000D01*
X86505044Y-46673238D01*
X86444536Y-46527159D01*
X86444536Y-46527158D01*
X86348282Y-46401717D01*
X86222840Y-46305463D01*
X86076762Y-46244956D01*
X85920000Y-46224317D01*
X85763237Y-46244956D01*
X85617159Y-46305463D01*
X85491717Y-46401717D01*
X85395463Y-46527159D01*
X85334956Y-46673237D01*
X85314317Y-46830000D01*
X81825546Y-46830000D01*
X81924369Y-46565046D01*
X81985196Y-46285428D01*
X82005610Y-46000000D01*
X81992021Y-45810000D01*
X93914317Y-45810000D01*
X93934956Y-45966762D01*
X93995463Y-46112840D01*
X94091717Y-46238282D01*
X94217158Y-46334536D01*
X94217159Y-46334536D01*
X94363238Y-46395044D01*
X94520000Y-46415682D01*
X94676762Y-46395044D01*
X94822841Y-46334536D01*
X94948282Y-46238282D01*
X95044536Y-46112841D01*
X95105044Y-45966762D01*
X95125682Y-45810000D01*
X95105044Y-45653238D01*
X95044536Y-45507159D01*
X95003161Y-45453238D01*
X94948282Y-45381717D01*
X94822840Y-45285463D01*
X94676762Y-45224956D01*
X94520000Y-45204317D01*
X94363237Y-45224956D01*
X94217159Y-45285463D01*
X94091717Y-45381717D01*
X93995463Y-45507159D01*
X93934956Y-45653237D01*
X93914317Y-45810000D01*
X81992021Y-45810000D01*
X81985196Y-45714572D01*
X81935738Y-45487217D01*
X81924370Y-45434958D01*
X81904600Y-45381952D01*
X81824367Y-45166839D01*
X81763535Y-45055435D01*
X81687227Y-44915686D01*
X81644354Y-44858414D01*
X81515739Y-44686605D01*
X81313395Y-44484261D01*
X81198855Y-44398517D01*
X81084313Y-44312772D01*
X80833163Y-44175634D01*
X80833162Y-44175633D01*
X80833161Y-44175633D01*
X80658123Y-44110347D01*
X80565041Y-44075629D01*
X80285429Y-44014804D01*
X80000000Y-43994389D01*
X79714570Y-44014804D01*
X79434958Y-44075629D01*
X79166836Y-44175634D01*
X78915686Y-44312772D01*
X78686602Y-44484263D01*
X78484263Y-44686602D01*
X78312772Y-44915686D01*
X78175634Y-45166836D01*
X78075629Y-45434958D01*
X78014804Y-45714570D01*
X77994389Y-46000000D01*
X75000500Y-46000000D01*
X75000500Y-43524759D01*
X75000528Y-43524616D01*
X75000524Y-43524616D01*
X75000539Y-43500002D01*
X75000541Y-43500000D01*
X75000462Y-43499808D01*
X75000384Y-43499618D01*
X75000383Y-43499617D01*
X75000379Y-43499615D01*
X75000097Y-43499499D01*
X75000000Y-43499459D01*
X74975446Y-43499459D01*
X74975240Y-43499500D01*
X74024760Y-43499500D01*
X74024554Y-43499459D01*
X73999999Y-43499459D01*
X73999900Y-43499500D01*
X73999618Y-43499615D01*
X73999615Y-43499618D01*
X73999459Y-43499999D01*
X73999476Y-43524616D01*
X73999471Y-43524616D01*
X73999500Y-43524759D01*
X73999500Y-51475467D01*
X73999416Y-51475889D01*
X65000500Y-51475889D01*
X65000500Y-43309748D01*
X84349500Y-43309748D01*
X84361132Y-43368230D01*
X84405447Y-43434552D01*
X84471769Y-43478867D01*
X84530251Y-43490500D01*
X84530252Y-43490500D01*
X86369749Y-43490500D01*
X86398989Y-43484683D01*
X86428231Y-43478867D01*
X86494552Y-43434552D01*
X86538867Y-43368231D01*
X86550500Y-43309748D01*
X86550500Y-42389999D01*
X89424785Y-42389999D01*
X89443602Y-42593083D01*
X89499418Y-42789251D01*
X89590324Y-42971818D01*
X89713236Y-43134580D01*
X89863958Y-43271981D01*
X90019408Y-43368231D01*
X90037363Y-43379348D01*
X90227544Y-43453024D01*
X90428024Y-43490500D01*
X90428026Y-43490500D01*
X90631974Y-43490500D01*
X90631976Y-43490500D01*
X90832456Y-43453024D01*
X91022637Y-43379348D01*
X91196041Y-43271981D01*
X91346764Y-43134579D01*
X91469673Y-42971821D01*
X91469673Y-42971819D01*
X91469675Y-42971818D01*
X91515313Y-42880161D01*
X91560582Y-42789250D01*
X91616397Y-42593083D01*
X91635215Y-42390000D01*
X91635215Y-42389999D01*
X94504785Y-42389999D01*
X94523602Y-42593083D01*
X94579418Y-42789251D01*
X94670324Y-42971818D01*
X94793236Y-43134580D01*
X94943958Y-43271981D01*
X95099408Y-43368231D01*
X95117363Y-43379348D01*
X95307544Y-43453024D01*
X95508024Y-43490500D01*
X95508026Y-43490500D01*
X95711974Y-43490500D01*
X95711976Y-43490500D01*
X95912456Y-43453024D01*
X96102637Y-43379348D01*
X96276041Y-43271981D01*
X96426764Y-43134579D01*
X96549673Y-42971821D01*
X96549673Y-42971819D01*
X96549675Y-42971818D01*
X96595313Y-42880161D01*
X96640582Y-42789250D01*
X96696397Y-42593083D01*
X96715215Y-42390000D01*
X96696397Y-42186917D01*
X96640582Y-41990750D01*
X96640209Y-41990001D01*
X96549675Y-41808181D01*
X96426763Y-41645419D01*
X96276041Y-41508018D01*
X96102638Y-41400652D01*
X95912457Y-41326976D01*
X95845629Y-41314484D01*
X95711976Y-41289500D01*
X95508024Y-41289500D01*
X95445793Y-41301133D01*
X95307542Y-41326976D01*
X95117361Y-41400652D01*
X94943958Y-41508018D01*
X94793236Y-41645419D01*
X94670324Y-41808181D01*
X94579418Y-41990748D01*
X94523602Y-42186916D01*
X94504785Y-42389999D01*
X91635215Y-42389999D01*
X91616397Y-42186917D01*
X91560582Y-41990750D01*
X91560209Y-41990001D01*
X91469675Y-41808181D01*
X91346763Y-41645419D01*
X91196041Y-41508018D01*
X91022638Y-41400652D01*
X90832457Y-41326976D01*
X90765629Y-41314484D01*
X90631976Y-41289500D01*
X90428024Y-41289500D01*
X90365793Y-41301133D01*
X90227542Y-41326976D01*
X90037361Y-41400652D01*
X89863958Y-41508018D01*
X89713236Y-41645419D01*
X89590324Y-41808181D01*
X89499418Y-41990748D01*
X89443602Y-42186916D01*
X89424785Y-42389999D01*
X86550500Y-42389999D01*
X86550500Y-41470252D01*
X86538867Y-41411769D01*
X86527311Y-41394474D01*
X86494552Y-41345447D01*
X86428230Y-41301132D01*
X86369749Y-41289500D01*
X86369748Y-41289500D01*
X84530252Y-41289500D01*
X84530251Y-41289500D01*
X84471769Y-41301132D01*
X84405447Y-41345447D01*
X84361132Y-41411769D01*
X84349500Y-41470251D01*
X84349500Y-43309748D01*
X65000500Y-43309748D01*
X65000500Y-40975889D01*
X77499416Y-40975889D01*
X77499459Y-41000000D01*
X77499501Y-41000101D01*
X77499616Y-41000382D01*
X77499618Y-41000384D01*
X77499808Y-41000462D01*
X77500000Y-41000541D01*
X77500002Y-41000539D01*
X77524616Y-41000524D01*
X77524616Y-41000528D01*
X77524760Y-41000500D01*
X85475240Y-41000500D01*
X85475383Y-41000528D01*
X85475384Y-41000524D01*
X85499997Y-41000539D01*
X85500000Y-41000541D01*
X85500383Y-41000383D01*
X85500500Y-41000099D01*
X85500541Y-41000000D01*
X85500540Y-40999997D01*
X85500583Y-40975889D01*
X85500500Y-40975467D01*
X85500500Y-40024759D01*
X85500528Y-40024616D01*
X85500524Y-40024616D01*
X85500539Y-40000002D01*
X85500541Y-40000000D01*
X85500462Y-39999808D01*
X85500384Y-39999618D01*
X85500383Y-39999617D01*
X85500379Y-39999615D01*
X85500097Y-39999499D01*
X85500000Y-39999459D01*
X85475446Y-39999459D01*
X85475240Y-39999500D01*
X77524760Y-39999500D01*
X77524554Y-39999459D01*
X77499999Y-39999459D01*
X77499900Y-39999500D01*
X77499618Y-39999615D01*
X77499615Y-39999618D01*
X77499459Y-39999999D01*
X77499476Y-40024616D01*
X77499471Y-40024616D01*
X77499500Y-40024759D01*
X77499500Y-40975467D01*
X77499416Y-40975889D01*
X65000500Y-40975889D01*
X65000500Y-34124500D01*
X65020185Y-34057461D01*
X65072989Y-34011706D01*
X65124500Y-34000500D01*
X128875500Y-34000500D01*
X128942539Y-34020185D01*
G37*
G04 #@! TD.AperFunction*
G04 #@! TA.AperFunction,Conductor*
G36*
X86806485Y-53280854D02*
G01*
X86862418Y-53322726D01*
X86886835Y-53388190D01*
X86887151Y-53397036D01*
X86887151Y-57533023D01*
X86886679Y-57543831D01*
X86883386Y-57581458D01*
X86893163Y-57617947D01*
X86895504Y-57628503D01*
X86902250Y-57666758D01*
X86912480Y-57691454D01*
X86913097Y-57692335D01*
X86934763Y-57723278D01*
X86940566Y-57732387D01*
X86956776Y-57760463D01*
X86959457Y-57765106D01*
X86984177Y-57785849D01*
X86988393Y-57789386D01*
X86996369Y-57796695D01*
X88760955Y-59561282D01*
X88768263Y-59569256D01*
X88806599Y-59614942D01*
X88803488Y-59617552D01*
X88824026Y-59639081D01*
X88837264Y-59707685D01*
X88820073Y-59751397D01*
X88821711Y-59752076D01*
X88754956Y-59913237D01*
X88734317Y-60070000D01*
X88754956Y-60226762D01*
X88815463Y-60372840D01*
X88911717Y-60498282D01*
X89037158Y-60594536D01*
X89037159Y-60594536D01*
X89183238Y-60655044D01*
X89340000Y-60675682D01*
X89496762Y-60655044D01*
X89642841Y-60594536D01*
X89768282Y-60498282D01*
X89864536Y-60372841D01*
X89925044Y-60226762D01*
X89936831Y-60137229D01*
X89965096Y-60073335D01*
X90023420Y-60034863D01*
X90093285Y-60034031D01*
X90152508Y-60071103D01*
X90174329Y-60105962D01*
X90185462Y-60132839D01*
X90281717Y-60258282D01*
X90356239Y-60315464D01*
X90407159Y-60354536D01*
X90553238Y-60415044D01*
X90710000Y-60435682D01*
X90866762Y-60415044D01*
X91012841Y-60354536D01*
X91138282Y-60258282D01*
X91189325Y-60191759D01*
X91245753Y-60150556D01*
X91266162Y-60145130D01*
X91291926Y-60140588D01*
X91291928Y-60140586D01*
X91292993Y-60140399D01*
X91317680Y-60130173D01*
X91318563Y-60129554D01*
X91318565Y-60129554D01*
X91349506Y-60107887D01*
X91358603Y-60102091D01*
X91391336Y-60083194D01*
X91415612Y-60054261D01*
X91422923Y-60046283D01*
X91512389Y-59956818D01*
X91573713Y-59923334D01*
X91600070Y-59920500D01*
X95256491Y-59920500D01*
X95323530Y-59940185D01*
X95369285Y-59992989D01*
X95379229Y-60062147D01*
X95371052Y-60091952D01*
X95324956Y-60203237D01*
X95304317Y-60360000D01*
X95324956Y-60516762D01*
X95385463Y-60662840D01*
X95481717Y-60788282D01*
X95549118Y-60840000D01*
X95607159Y-60884536D01*
X95753238Y-60945044D01*
X95910000Y-60965682D01*
X96066762Y-60945044D01*
X96212841Y-60884536D01*
X96338282Y-60788282D01*
X96379923Y-60734013D01*
X96436350Y-60692811D01*
X96478299Y-60685500D01*
X99580268Y-60685500D01*
X99647307Y-60705185D01*
X99693062Y-60757989D01*
X99703006Y-60827147D01*
X99673981Y-60890703D01*
X99627720Y-60924060D01*
X99598925Y-60935987D01*
X99487659Y-60982075D01*
X99362217Y-61078329D01*
X99265962Y-61203772D01*
X99240857Y-61264380D01*
X99213978Y-61304607D01*
X97736613Y-62781972D01*
X97733571Y-62784912D01*
X97686675Y-62828711D01*
X97665324Y-62863820D01*
X97658185Y-62874309D01*
X97633357Y-62907051D01*
X97626773Y-62923747D01*
X97617373Y-62942673D01*
X97608048Y-62958009D01*
X97596961Y-62997574D01*
X97592916Y-63009600D01*
X97577842Y-63047827D01*
X97576007Y-63065678D01*
X97572061Y-63086441D01*
X97567219Y-63103725D01*
X97567219Y-63144810D01*
X97566569Y-63157491D01*
X97562366Y-63198364D01*
X97565416Y-63216052D01*
X97567218Y-63237117D01*
X97567218Y-63827367D01*
X97557780Y-63874818D01*
X97532675Y-63935429D01*
X97512036Y-64092190D01*
X97532675Y-64248953D01*
X97593182Y-64395031D01*
X97673738Y-64500014D01*
X97698932Y-64565183D01*
X97684894Y-64633628D01*
X97636080Y-64683617D01*
X97575362Y-64699500D01*
X95284619Y-64699500D01*
X95273812Y-64699028D01*
X95271298Y-64698808D01*
X95236191Y-64695736D01*
X95199710Y-64705511D01*
X95189155Y-64707852D01*
X95177814Y-64709851D01*
X95151955Y-64714412D01*
X95151953Y-64714412D01*
X95150897Y-64714599D01*
X95126192Y-64724831D01*
X95094380Y-64747106D01*
X95085264Y-64752914D01*
X95052545Y-64771805D01*
X95028262Y-64800744D01*
X95020956Y-64808716D01*
X94716491Y-65113182D01*
X94655170Y-65146666D01*
X94628812Y-65149500D01*
X90773657Y-65149500D01*
X90706618Y-65129815D01*
X90660863Y-65077011D01*
X90650919Y-65007853D01*
X90679944Y-64944297D01*
X90738722Y-64906523D01*
X90747299Y-64904334D01*
X90847126Y-64882618D01*
X90885046Y-64874369D01*
X91153161Y-64774367D01*
X91404315Y-64637226D01*
X91633395Y-64465739D01*
X91835739Y-64263395D01*
X92007226Y-64034315D01*
X92144367Y-63783161D01*
X92244369Y-63515046D01*
X92305196Y-63235428D01*
X92325610Y-62950000D01*
X92305196Y-62664572D01*
X92244369Y-62384954D01*
X92144367Y-62116839D01*
X92021845Y-61892457D01*
X92007227Y-61865686D01*
X91951023Y-61790606D01*
X91920625Y-61749999D01*
X97074353Y-61749999D01*
X97094834Y-61892457D01*
X97154623Y-62023374D01*
X97235611Y-62116839D01*
X97248872Y-62132143D01*
X97369947Y-62209953D01*
X97508039Y-62250500D01*
X97651961Y-62250500D01*
X97790053Y-62209953D01*
X97911128Y-62132143D01*
X98005377Y-62023373D01*
X98065165Y-61892457D01*
X98085647Y-61750000D01*
X98065165Y-61607543D01*
X98064230Y-61605496D01*
X98005376Y-61476625D01*
X97911129Y-61367858D01*
X97911128Y-61367857D01*
X97790053Y-61290047D01*
X97651961Y-61249500D01*
X97508039Y-61249500D01*
X97369947Y-61290047D01*
X97248870Y-61367858D01*
X97154623Y-61476625D01*
X97094834Y-61607542D01*
X97074353Y-61749999D01*
X91920625Y-61749999D01*
X91835739Y-61636605D01*
X91633395Y-61434261D01*
X91477072Y-61317239D01*
X91404313Y-61262772D01*
X91153163Y-61125634D01*
X91153162Y-61125633D01*
X91153161Y-61125633D01*
X90978123Y-61060347D01*
X90885041Y-61025629D01*
X90605429Y-60964804D01*
X90320000Y-60944389D01*
X90034570Y-60964804D01*
X89754958Y-61025629D01*
X89486836Y-61125634D01*
X89235686Y-61262772D01*
X89006602Y-61434263D01*
X88804263Y-61636602D01*
X88632772Y-61865686D01*
X88495634Y-62116836D01*
X88395629Y-62384958D01*
X88334804Y-62664570D01*
X88314389Y-62950000D01*
X88334804Y-63235429D01*
X88395629Y-63515041D01*
X88495634Y-63783163D01*
X88632772Y-64034313D01*
X88676099Y-64092191D01*
X88804261Y-64263395D01*
X89006605Y-64465739D01*
X89129655Y-64557853D01*
X89235686Y-64637227D01*
X89342839Y-64695737D01*
X89486839Y-64774367D01*
X89754954Y-64874369D01*
X89754957Y-64874369D01*
X89754958Y-64874370D01*
X89892701Y-64904334D01*
X89954024Y-64937819D01*
X89987509Y-64999142D01*
X89982525Y-65068833D01*
X89940654Y-65124767D01*
X89875189Y-65149184D01*
X89866343Y-65149500D01*
X88029500Y-65149500D01*
X87962461Y-65129815D01*
X87916706Y-65077011D01*
X87905500Y-65025500D01*
X87905500Y-59830719D01*
X87905972Y-59819911D01*
X87909264Y-59782285D01*
X87899487Y-59745799D01*
X87897145Y-59735236D01*
X87890400Y-59696984D01*
X87880171Y-59672291D01*
X87879554Y-59671410D01*
X87879554Y-59671409D01*
X87857892Y-59640472D01*
X87852080Y-59631349D01*
X87833194Y-59598637D01*
X87804255Y-59574355D01*
X87796280Y-59567047D01*
X85960464Y-57731231D01*
X85926979Y-57669908D01*
X85924147Y-57642898D01*
X85933300Y-55919724D01*
X85933300Y-55919723D01*
X85827388Y-55919780D01*
X85760338Y-55900131D01*
X85714555Y-55847352D01*
X85703322Y-55795780D01*
X85703322Y-54332865D01*
X85723007Y-54265826D01*
X85739636Y-54245188D01*
X86675470Y-53309354D01*
X86736793Y-53275870D01*
X86806485Y-53280854D01*
G37*
G04 #@! TD.AperFunction*
G04 #@! TA.AperFunction,Conductor*
G36*
X107665702Y-47316474D02*
G01*
X107672180Y-47322506D01*
X109053182Y-48703508D01*
X109086666Y-48764829D01*
X109089500Y-48791187D01*
X109089500Y-52089922D01*
X109069815Y-52156961D01*
X109017011Y-52202716D01*
X108947853Y-52212660D01*
X108918048Y-52204483D01*
X108846762Y-52174956D01*
X108689999Y-52154317D01*
X108533237Y-52174956D01*
X108387159Y-52235463D01*
X108261717Y-52331717D01*
X108165463Y-52457159D01*
X108104956Y-52603237D01*
X108084317Y-52760000D01*
X108104956Y-52916762D01*
X108165463Y-53062840D01*
X108261717Y-53188282D01*
X108387158Y-53284535D01*
X108387159Y-53284536D01*
X108533238Y-53345044D01*
X108690000Y-53365682D01*
X108846762Y-53345044D01*
X108918049Y-53315515D01*
X108987515Y-53308047D01*
X109049994Y-53339322D01*
X109085647Y-53399410D01*
X109089499Y-53430077D01*
X109089499Y-54515372D01*
X109089027Y-54526178D01*
X109085735Y-54563806D01*
X109095512Y-54600296D01*
X109097853Y-54610852D01*
X109104599Y-54649107D01*
X109114829Y-54673803D01*
X109115446Y-54674684D01*
X109137112Y-54705627D01*
X109142915Y-54714736D01*
X109161806Y-54747455D01*
X109190742Y-54771735D01*
X109198718Y-54779044D01*
X109347988Y-54928314D01*
X109381473Y-54989637D01*
X109383246Y-55032180D01*
X109374317Y-55099999D01*
X109394956Y-55256762D01*
X109455463Y-55402840D01*
X109551717Y-55528282D01*
X109669009Y-55618282D01*
X109677159Y-55624536D01*
X109823238Y-55685044D01*
X109884453Y-55693103D01*
X109948350Y-55721369D01*
X109986821Y-55779694D01*
X109987652Y-55849559D01*
X109955949Y-55903723D01*
X108041493Y-57818181D01*
X107980170Y-57851666D01*
X107953812Y-57854500D01*
X107743864Y-57854500D01*
X107676825Y-57834815D01*
X107631070Y-57782011D01*
X107621126Y-57712853D01*
X107629301Y-57683050D01*
X107665044Y-57596762D01*
X107685682Y-57440000D01*
X107665044Y-57283238D01*
X107604536Y-57137159D01*
X107583178Y-57109324D01*
X107508282Y-57011717D01*
X107382840Y-56915463D01*
X107236762Y-56854956D01*
X107080000Y-56834317D01*
X106923237Y-56854956D01*
X106777159Y-56915463D01*
X106651717Y-57011717D01*
X106555463Y-57137159D01*
X106494956Y-57283237D01*
X106474317Y-57440000D01*
X106494955Y-57596760D01*
X106494956Y-57596762D01*
X106530697Y-57683048D01*
X106538166Y-57752517D01*
X106506891Y-57814996D01*
X106446802Y-57850648D01*
X106416136Y-57854500D01*
X102299188Y-57854500D01*
X102288381Y-57854028D01*
X102285867Y-57853808D01*
X102250760Y-57850736D01*
X102214279Y-57860511D01*
X102203724Y-57862852D01*
X102192383Y-57864851D01*
X102166524Y-57869412D01*
X102166522Y-57869412D01*
X102165466Y-57869599D01*
X102140761Y-57879832D01*
X102108947Y-57902107D01*
X102099830Y-57907915D01*
X102067114Y-57926804D01*
X102042831Y-57955743D01*
X102035525Y-57963715D01*
X101677255Y-58321985D01*
X101615932Y-58355470D01*
X101546240Y-58350486D01*
X101490307Y-58308614D01*
X101466254Y-58247263D01*
X101465674Y-58241744D01*
X101428881Y-58128506D01*
X101407179Y-58061715D01*
X101312533Y-57897783D01*
X101185870Y-57757110D01*
X101032730Y-57645848D01*
X100859802Y-57568855D01*
X100674648Y-57529500D01*
X100674646Y-57529500D01*
X100485354Y-57529500D01*
X100485352Y-57529500D01*
X100300197Y-57568855D01*
X100127269Y-57645848D01*
X99974129Y-57757110D01*
X99847466Y-57897783D01*
X99752820Y-58061715D01*
X99694326Y-58241742D01*
X99674540Y-58430000D01*
X99694326Y-58618257D01*
X99752820Y-58798284D01*
X99847466Y-58962216D01*
X99937788Y-59062528D01*
X99968018Y-59125519D01*
X99959393Y-59194855D01*
X99914651Y-59248520D01*
X99847999Y-59269478D01*
X99845638Y-59269500D01*
X98390726Y-59269500D01*
X98323687Y-59249815D01*
X98277932Y-59197011D01*
X98267988Y-59127853D01*
X98283339Y-59083500D01*
X98367179Y-58938284D01*
X98382646Y-58890682D01*
X98425674Y-58758256D01*
X98445460Y-58570000D01*
X98425674Y-58381744D01*
X98367179Y-58201716D01*
X98367179Y-58201715D01*
X98272533Y-58037783D01*
X98145870Y-57897110D01*
X97992730Y-57785848D01*
X97819802Y-57708855D01*
X97634648Y-57669500D01*
X97634646Y-57669500D01*
X97445354Y-57669500D01*
X97445352Y-57669500D01*
X97260197Y-57708855D01*
X97087269Y-57785848D01*
X96934129Y-57897110D01*
X96807466Y-58037783D01*
X96712820Y-58201715D01*
X96654326Y-58381742D01*
X96634540Y-58569999D01*
X96654326Y-58758257D01*
X96712820Y-58938284D01*
X96796661Y-59083500D01*
X96813134Y-59151400D01*
X96790281Y-59217427D01*
X96735360Y-59260618D01*
X96689274Y-59269500D01*
X92499069Y-59269500D01*
X92432030Y-59249815D01*
X92386275Y-59197011D01*
X92376331Y-59127853D01*
X92405356Y-59064297D01*
X92411388Y-59057819D01*
X93184207Y-58285000D01*
X94799317Y-58285000D01*
X94819956Y-58441762D01*
X94880463Y-58587840D01*
X94976717Y-58713282D01*
X95087495Y-58798284D01*
X95102159Y-58809536D01*
X95248238Y-58870044D01*
X95405000Y-58890682D01*
X95561762Y-58870044D01*
X95707841Y-58809536D01*
X95833282Y-58713282D01*
X95929536Y-58587841D01*
X95990044Y-58441762D01*
X96010682Y-58285000D01*
X95990044Y-58128238D01*
X95929536Y-57982159D01*
X95833282Y-57856717D01*
X95707840Y-57760463D01*
X95561762Y-57699956D01*
X95405000Y-57679317D01*
X95248237Y-57699956D01*
X95102159Y-57760463D01*
X94976717Y-57856717D01*
X94880463Y-57982159D01*
X94819956Y-58128237D01*
X94799317Y-58285000D01*
X93184207Y-58285000D01*
X94634890Y-56834317D01*
X96920643Y-54548563D01*
X96981964Y-54515080D01*
X97051656Y-54520064D01*
X97107589Y-54561936D01*
X97122883Y-54588794D01*
X97152203Y-54659580D01*
X97248457Y-54785022D01*
X97339598Y-54854956D01*
X97373899Y-54881276D01*
X97519978Y-54941784D01*
X97676740Y-54962422D01*
X97833502Y-54941784D01*
X97979581Y-54881276D01*
X98105022Y-54785022D01*
X98201276Y-54659581D01*
X98220938Y-54612110D01*
X98264778Y-54557709D01*
X98331072Y-54535643D01*
X98398771Y-54552921D01*
X98446382Y-54604058D01*
X98459499Y-54659564D01*
X98459500Y-56015466D01*
X98459416Y-56015890D01*
X98459459Y-56040000D01*
X98459478Y-56040047D01*
X98459501Y-56040101D01*
X98459616Y-56040382D01*
X98459618Y-56040384D01*
X98459808Y-56040462D01*
X98460000Y-56040541D01*
X98460002Y-56040539D01*
X98484616Y-56040524D01*
X98484616Y-56040528D01*
X98484760Y-56040500D01*
X99337934Y-56040500D01*
X99404973Y-56060185D01*
X99450728Y-56112989D01*
X99460672Y-56182147D01*
X99436310Y-56239986D01*
X99330254Y-56378201D01*
X99269747Y-56524279D01*
X99249108Y-56681042D01*
X99269747Y-56837804D01*
X99330254Y-56983882D01*
X99426508Y-57109324D01*
X99462784Y-57137159D01*
X99551950Y-57205578D01*
X99698029Y-57266086D01*
X99854791Y-57286724D01*
X100011553Y-57266086D01*
X100157632Y-57205578D01*
X100283073Y-57109324D01*
X100379327Y-56983883D01*
X100439835Y-56837804D01*
X100460473Y-56681042D01*
X100439835Y-56524280D01*
X100379327Y-56378201D01*
X100326246Y-56309024D01*
X100273272Y-56239986D01*
X100248078Y-56174817D01*
X100262117Y-56106372D01*
X100310931Y-56056382D01*
X100371648Y-56040500D01*
X107435240Y-56040500D01*
X107435383Y-56040528D01*
X107435384Y-56040524D01*
X107459997Y-56040539D01*
X107460000Y-56040541D01*
X107460383Y-56040383D01*
X107460385Y-56040379D01*
X107466893Y-56025031D01*
X107460521Y-56004747D01*
X107460499Y-56002417D01*
X107460499Y-51575936D01*
X107460499Y-47410183D01*
X107480184Y-47343148D01*
X107532988Y-47297393D01*
X107602146Y-47287449D01*
X107665702Y-47316474D01*
G37*
G04 #@! TD.AperFunction*
M02*
