G04 #@! TF.GenerationSoftware,KiCad,Pcbnew,7.0.2*
G04 #@! TF.CreationDate,2023-06-06T15:13:28-04:00*
G04 #@! TF.ProjectId,baseplate,62617365-706c-4617-9465-2e6b69636164,rev?*
G04 #@! TF.SameCoordinates,Original*
G04 #@! TF.FileFunction,Copper,L1,Top*
G04 #@! TF.FilePolarity,Positive*
%FSLAX46Y46*%
G04 Gerber Fmt 4.6, Leading zero omitted, Abs format (unit mm)*
G04 Created by KiCad (PCBNEW 7.0.2) date 2023-06-06 15:13:28*
%MOMM*%
%LPD*%
G01*
G04 APERTURE LIST*
G04 Aperture macros list*
%AMRoundRect*
0 Rectangle with rounded corners*
0 $1 Rounding radius*
0 $2 $3 $4 $5 $6 $7 $8 $9 X,Y pos of 4 corners*
0 Add a 4 corners polygon primitive as box body*
4,1,4,$2,$3,$4,$5,$6,$7,$8,$9,$2,$3,0*
0 Add four circle primitives for the rounded corners*
1,1,$1+$1,$2,$3*
1,1,$1+$1,$4,$5*
1,1,$1+$1,$6,$7*
1,1,$1+$1,$8,$9*
0 Add four rect primitives between the rounded corners*
20,1,$1+$1,$2,$3,$4,$5,0*
20,1,$1+$1,$4,$5,$6,$7,0*
20,1,$1+$1,$6,$7,$8,$9,0*
20,1,$1+$1,$8,$9,$2,$3,0*%
G04 Aperture macros list end*
G04 #@! TA.AperFunction,ComponentPad*
%ADD10R,1.800000X1.800000*%
G04 #@! TD*
G04 #@! TA.AperFunction,ComponentPad*
%ADD11C,1.800000*%
G04 #@! TD*
G04 #@! TA.AperFunction,SMDPad,CuDef*
%ADD12R,17.780000X12.700000*%
G04 #@! TD*
G04 #@! TA.AperFunction,SMDPad,CuDef*
%ADD13R,0.620000X0.300000*%
G04 #@! TD*
G04 #@! TA.AperFunction,SMDPad,CuDef*
%ADD14R,0.600000X0.350000*%
G04 #@! TD*
G04 #@! TA.AperFunction,SMDPad,CuDef*
%ADD15R,1.100000X1.700000*%
G04 #@! TD*
G04 #@! TA.AperFunction,SMDPad,CuDef*
%ADD16R,1.000000X1.000000*%
G04 #@! TD*
G04 #@! TA.AperFunction,SMDPad,CuDef*
%ADD17R,1.050000X2.200000*%
G04 #@! TD*
G04 #@! TA.AperFunction,SMDPad,CuDef*
%ADD18RoundRect,0.140000X0.170000X-0.140000X0.170000X0.140000X-0.170000X0.140000X-0.170000X-0.140000X0*%
G04 #@! TD*
G04 #@! TA.AperFunction,ComponentPad*
%ADD19C,1.400000*%
G04 #@! TD*
G04 #@! TA.AperFunction,ComponentPad*
%ADD20O,1.400000X1.400000*%
G04 #@! TD*
G04 #@! TA.AperFunction,ViaPad*
%ADD21C,0.800000*%
G04 #@! TD*
G04 #@! TA.AperFunction,ViaPad*
%ADD22C,0.600000*%
G04 #@! TD*
G04 #@! TA.AperFunction,Conductor*
%ADD23C,0.200000*%
G04 #@! TD*
G04 #@! TA.AperFunction,Conductor*
%ADD24C,0.250000*%
G04 #@! TD*
G04 #@! TA.AperFunction,Conductor*
%ADD25C,0.150000*%
G04 #@! TD*
G04 #@! TA.AperFunction,Conductor*
%ADD26C,0.700000*%
G04 #@! TD*
G04 APERTURE END LIST*
D10*
X108700000Y-83480000D03*
D11*
X103620000Y-83480000D03*
X98540000Y-83480000D03*
D12*
X117040000Y-62660000D03*
D13*
X95690000Y-55050000D03*
X95690000Y-55550000D03*
X95690000Y-56050000D03*
X95690000Y-56550000D03*
X97510000Y-56550000D03*
X97510000Y-56050000D03*
X97510000Y-55550000D03*
X97510000Y-55050000D03*
D14*
X114530000Y-73535000D03*
X114530000Y-74185000D03*
X114530000Y-74835000D03*
X116630000Y-74835000D03*
X116630000Y-74185000D03*
X116630000Y-73535000D03*
D15*
X115580000Y-74185000D03*
D10*
X85450000Y-42390000D03*
D11*
X90530000Y-42390000D03*
X95610000Y-42390000D03*
D16*
X78000000Y-55200000D03*
D17*
X76525000Y-53700000D03*
D16*
X78000000Y-52200000D03*
D17*
X79475000Y-53700000D03*
D18*
X111990000Y-72710000D03*
X111990000Y-71750000D03*
X93780000Y-56810000D03*
X93780000Y-55850000D03*
D12*
X76960000Y-62490000D03*
D19*
X97540000Y-58570000D03*
D20*
X97540000Y-66190000D03*
D19*
X100580000Y-58430000D03*
D20*
X100580000Y-66050000D03*
D21*
X67040000Y-45250000D03*
X93800000Y-90600000D03*
D22*
X89210000Y-36110000D03*
D21*
X93534649Y-40484649D03*
X95627700Y-53547700D03*
D22*
X70470000Y-35820000D03*
D21*
X90514500Y-48950000D03*
X89300000Y-47500000D03*
X105249977Y-77545500D03*
D22*
X66830000Y-39810000D03*
D21*
X84160000Y-46600000D03*
D22*
X109820000Y-44280000D03*
D21*
X126810000Y-89830000D03*
D22*
X95300000Y-38100000D03*
X113030000Y-43050000D03*
D21*
X78900353Y-73539647D03*
X84300000Y-89110000D03*
X120720000Y-62220000D03*
X81010000Y-76290000D03*
X78350000Y-42870000D03*
X101270000Y-75790000D03*
D22*
X114610000Y-36200000D03*
D21*
X117600000Y-76500000D03*
X112640000Y-89450000D03*
X77740000Y-37120000D03*
D22*
X70910000Y-86960000D03*
D21*
X109887299Y-80142701D03*
X117490000Y-82140000D03*
D22*
X101000000Y-87600000D03*
X100720000Y-37060000D03*
X102200000Y-57530000D03*
D21*
X99010000Y-70530000D03*
D22*
X120840000Y-89800000D03*
X97040000Y-44570000D03*
D21*
X94010000Y-44060000D03*
D22*
X96590000Y-89400000D03*
D21*
X87140000Y-87630000D03*
X81500000Y-90390000D03*
D22*
X118100000Y-49900000D03*
D21*
X84730000Y-49440000D03*
D22*
X77080000Y-49080000D03*
D21*
X123570000Y-60020000D03*
D22*
X68630000Y-50340000D03*
X82010000Y-36380000D03*
X106920000Y-89340000D03*
X117350000Y-43100000D03*
D21*
X109390000Y-72530000D03*
X90700000Y-46000000D03*
D22*
X119530000Y-38850000D03*
X67170000Y-73870000D03*
D21*
X124560000Y-76220000D03*
D22*
X115340000Y-42720000D03*
X107200000Y-37340000D03*
D21*
X76240000Y-48310000D03*
X126190000Y-49490000D03*
X124500000Y-80700000D03*
X94050000Y-64200000D03*
X121260000Y-73350000D03*
D22*
X126830000Y-44370000D03*
D21*
X113650000Y-51340000D03*
D22*
X105710000Y-42710000D03*
D21*
X105050000Y-66090000D03*
D22*
X70480000Y-47730000D03*
D21*
X117990000Y-62760000D03*
X75380000Y-90320000D03*
X77630000Y-69934500D03*
D22*
X70570000Y-79480000D03*
D21*
X90200000Y-90600000D03*
X75920000Y-72840000D03*
X103510000Y-67020000D03*
D22*
X67510000Y-82220000D03*
D21*
X99070000Y-57300000D03*
X79530000Y-69940000D03*
D22*
X116490000Y-88780000D03*
X71310000Y-53120000D03*
X115700000Y-48000000D03*
D21*
X107450000Y-45610000D03*
X95405000Y-58285000D03*
X101981116Y-72325500D03*
X81370000Y-55170000D03*
X121660000Y-55710498D03*
X79275500Y-71760000D03*
X123990000Y-55440000D03*
X98117719Y-64092191D03*
X116625500Y-50030000D03*
X99790500Y-61506612D03*
X111582771Y-48973700D03*
D22*
X92200000Y-56500000D03*
X97580000Y-61750000D03*
X90700000Y-56400000D03*
D21*
X98720000Y-67670000D03*
X99360000Y-38030000D03*
X73940000Y-70010000D03*
X113030000Y-76330000D03*
X86110000Y-80720000D03*
X101778667Y-65039381D03*
X86990000Y-52534500D03*
X87490000Y-81410000D03*
X105230000Y-79510000D03*
X109980000Y-55100000D03*
X107140000Y-67050000D03*
X107780000Y-42020000D03*
X110560000Y-53620000D03*
X81975500Y-70030000D03*
X74695000Y-70735000D03*
X70380000Y-54900000D03*
X78950000Y-83720000D03*
X80620000Y-82855500D03*
X90710000Y-59830000D03*
X76967700Y-75807700D03*
X112510000Y-69880000D03*
X72359937Y-71820193D03*
X97250000Y-41050000D03*
X111130000Y-55190000D03*
X117680000Y-52840000D03*
X92929500Y-52678256D03*
X110995500Y-80260000D03*
X93850000Y-88450000D03*
X94520000Y-45810000D03*
X123330000Y-52230000D03*
X78420000Y-74960000D03*
X101340000Y-37960000D03*
X72670000Y-70870000D03*
X93350000Y-54600000D03*
X116439643Y-52920357D03*
X78560000Y-77370000D03*
X97610500Y-77580000D03*
X111171206Y-78364196D03*
X86520000Y-62000000D03*
X112190000Y-55710498D03*
X95910000Y-60360000D03*
X104980000Y-72420000D03*
X114790000Y-52130000D03*
X106210000Y-72600000D03*
X121190000Y-52080000D03*
X90390000Y-51070000D03*
X83150000Y-73380000D03*
X111720000Y-83770000D03*
X94836435Y-55147141D03*
X90130000Y-87920000D03*
X124750000Y-52760000D03*
X82840000Y-84390000D03*
X117599500Y-73680000D03*
X122140000Y-69980000D03*
X97427211Y-79798105D03*
X86620500Y-60840000D03*
X71740000Y-69730000D03*
X107620000Y-72550000D03*
X81510000Y-54020000D03*
X86449502Y-64750000D03*
X85920000Y-46830000D03*
X89420000Y-56430000D03*
X107140000Y-68360000D03*
X108690000Y-52760000D03*
X107446674Y-76449557D03*
X104940000Y-67820000D03*
X99854791Y-56681042D03*
X97676740Y-54356740D03*
X104717018Y-76477581D03*
X111533805Y-74133805D03*
D22*
X88100000Y-56400000D03*
D21*
X72070000Y-55190000D03*
X86563602Y-59820000D03*
X111089192Y-70655550D03*
X89340000Y-60070000D03*
X89340000Y-51850000D03*
X107080000Y-57440000D03*
X86590000Y-63740000D03*
X110780000Y-69609502D03*
X103620000Y-72570000D03*
X100652306Y-72603800D03*
D22*
X100740000Y-63860000D03*
D23*
X76900000Y-57101900D02*
X76900000Y-62500000D01*
X78000000Y-55200000D02*
X78000000Y-56001900D01*
X78000000Y-55200000D02*
X78000000Y-61450000D01*
X78000000Y-56001900D02*
X76900000Y-57101900D01*
X78000000Y-61450000D02*
X76960000Y-62490000D01*
D24*
X96325000Y-55575000D02*
X96325000Y-56525000D01*
X105050000Y-66090000D02*
X105010000Y-66050000D01*
X105090000Y-66050000D02*
X105050000Y-66090000D01*
X116630000Y-74835000D02*
X116630000Y-75530000D01*
X95110000Y-56810000D02*
X95430000Y-56810000D01*
X96325000Y-56525000D02*
X96300000Y-56550000D01*
X105010000Y-66050000D02*
X100580000Y-66050000D01*
X115935000Y-74835000D02*
X114530000Y-74835000D01*
X116230000Y-74835000D02*
X116630000Y-74835000D01*
X117040000Y-62660000D02*
X113650000Y-66050000D01*
X115580000Y-74185000D02*
X116230000Y-74835000D01*
X95430000Y-56810000D02*
X95690000Y-56550000D01*
X95690000Y-55550000D02*
X96300000Y-55550000D01*
X113650000Y-66050000D02*
X105090000Y-66050000D01*
X78000000Y-52200000D02*
X78000000Y-50070000D01*
X117600000Y-76500000D02*
X115935000Y-74835000D01*
X96300000Y-56550000D02*
X95690000Y-56550000D01*
X79475000Y-53700000D02*
X79475000Y-53675000D01*
X93780000Y-56810000D02*
X95110000Y-56810000D01*
X114530000Y-74185000D02*
X114530000Y-74835000D01*
X79475000Y-53675000D02*
X78000000Y-52200000D01*
X95395000Y-57095000D02*
X98865000Y-57095000D01*
X116630000Y-75530000D02*
X117600000Y-76500000D01*
X76525000Y-53675000D02*
X78000000Y-52200000D01*
X76525000Y-53700000D02*
X76525000Y-53675000D01*
X114530000Y-74185000D02*
X115580000Y-74185000D01*
X78000000Y-50070000D02*
X76240000Y-48310000D01*
X98865000Y-57095000D02*
X99070000Y-57300000D01*
X96300000Y-55550000D02*
X96325000Y-55575000D01*
X95110000Y-56810000D02*
X95395000Y-57095000D01*
X123719502Y-55710498D02*
X121660000Y-55710498D01*
X77695000Y-73340500D02*
X77695000Y-77530305D01*
X79275500Y-71760000D02*
X77695000Y-73340500D01*
X106055000Y-86125000D02*
X108700000Y-83480000D01*
X77375000Y-86051777D02*
X77448223Y-86125000D01*
X77695000Y-77530305D02*
X77375000Y-77850305D01*
X77448223Y-86125000D02*
X106055000Y-86125000D01*
X77375000Y-77850305D02*
X77375000Y-86051777D01*
X116625500Y-50030000D02*
X121660000Y-55064500D01*
X123990000Y-55440000D02*
X123719502Y-55710498D01*
X121660000Y-55064500D02*
X121660000Y-55710498D01*
D25*
X100000000Y-63000000D02*
X98780000Y-64220000D01*
X90700000Y-57060000D02*
X92345000Y-58705000D01*
X98780000Y-64220000D02*
X98780000Y-67675500D01*
X90700000Y-56400000D02*
X90700000Y-57060000D01*
X92345000Y-58705000D02*
X93000686Y-58705000D01*
X93595686Y-59300000D02*
X96300000Y-59300000D01*
X93000686Y-58705000D02*
X93595686Y-59300000D01*
X96300000Y-59300000D02*
X100000000Y-63000000D01*
D24*
X107190000Y-77550000D02*
X105230000Y-79510000D01*
X105390000Y-60170000D02*
X103410000Y-60170000D01*
X101778667Y-61801333D02*
X101778667Y-65039381D01*
X108710000Y-55100000D02*
X107805000Y-56005000D01*
X103330000Y-81410000D02*
X105230000Y-79510000D01*
X103410000Y-60170000D02*
X101778667Y-61801333D01*
X109980000Y-55100000D02*
X108710000Y-55100000D01*
X107805000Y-56005000D02*
X107805000Y-57755000D01*
X107805000Y-57755000D02*
X105390000Y-60170000D01*
X111810000Y-77550000D02*
X107190000Y-77550000D01*
X87490000Y-81410000D02*
X103330000Y-81410000D01*
X113030000Y-76330000D02*
X111810000Y-77550000D01*
X72359937Y-71820193D02*
X72449439Y-71909695D01*
X79755500Y-83720000D02*
X80620000Y-82855500D01*
X78950000Y-83720000D02*
X79755500Y-83720000D01*
X72449439Y-71909695D02*
X73069695Y-71909695D01*
X73069695Y-71909695D02*
X76967700Y-75807700D01*
X92530000Y-43737588D02*
X92530000Y-43820000D01*
X92530000Y-43820000D02*
X94520000Y-45810000D01*
X92929500Y-47400500D02*
X92929500Y-52678256D01*
X94520000Y-45810000D02*
X92929500Y-47400500D01*
X100978884Y-36435000D02*
X99832588Y-36435000D01*
X117383884Y-52840000D02*
X100978884Y-36435000D01*
X99832588Y-36435000D02*
X92530000Y-43737588D01*
X117680000Y-52840000D02*
X117383884Y-52840000D01*
X73259695Y-71459695D02*
X78550500Y-71459695D01*
X97665000Y-44828884D02*
X97665000Y-44311116D01*
X97420000Y-45073884D02*
X97665000Y-44828884D01*
X97435000Y-46335000D02*
X97420000Y-46320000D01*
X116439643Y-52920357D02*
X116439643Y-52754338D01*
X97550305Y-41775000D02*
X97975000Y-41350305D01*
X110300000Y-46530000D02*
X110105000Y-46335000D01*
X97420000Y-46320000D02*
X97420000Y-45073884D01*
X97665000Y-44311116D02*
X97420000Y-44066116D01*
X78560000Y-75100000D02*
X78420000Y-74960000D01*
X97420000Y-41880000D02*
X97525000Y-41775000D01*
X93350000Y-54600000D02*
X97420000Y-50530000D01*
X97975000Y-41325000D02*
X101340000Y-37960000D01*
X97420000Y-44066116D02*
X97420000Y-41880000D01*
X79575805Y-71035000D02*
X80000500Y-71459695D01*
X110105000Y-46335000D02*
X97435000Y-46335000D01*
X80000500Y-71459695D02*
X80000500Y-73464805D01*
X78505305Y-74960000D02*
X78420000Y-74960000D01*
X78560000Y-77370000D02*
X78560000Y-75100000D01*
X78975195Y-71035000D02*
X79575805Y-71035000D01*
X110300000Y-46614695D02*
X110300000Y-46530000D01*
X97420000Y-50530000D02*
X97420000Y-46320000D01*
X72670000Y-70870000D02*
X73259695Y-71459695D01*
X78550500Y-71459695D02*
X78975195Y-71035000D01*
X80000500Y-73464805D02*
X78505305Y-74960000D01*
X97525000Y-41775000D02*
X97550305Y-41775000D01*
X97975000Y-41350305D02*
X97975000Y-41325000D01*
X116439643Y-52754338D02*
X110300000Y-46614695D01*
X88615000Y-60370305D02*
X88615000Y-59595000D01*
X94090000Y-60360000D02*
X95910000Y-60360000D01*
X88615000Y-59595000D02*
X89105000Y-59105000D01*
X89105000Y-59105000D02*
X92835000Y-59105000D01*
X92835000Y-59105000D02*
X94090000Y-60360000D01*
X87250000Y-61270000D02*
X87715305Y-61270000D01*
X87715305Y-61270000D02*
X88615000Y-60370305D01*
X86520000Y-62000000D02*
X87250000Y-61270000D01*
X117255000Y-73205000D02*
X115800000Y-71750000D01*
X82840000Y-84390000D02*
X82840000Y-73690000D01*
X94836435Y-55147141D02*
X94482859Y-55147141D01*
X94933576Y-55050000D02*
X94836435Y-55147141D01*
X117255000Y-73680000D02*
X117599500Y-73680000D01*
X95690000Y-55050000D02*
X94933576Y-55050000D01*
X117255000Y-73680000D02*
X117255000Y-73205000D01*
X82840000Y-73690000D02*
X83150000Y-73380000D01*
X94482859Y-55147141D02*
X93780000Y-55850000D01*
X116630000Y-74185000D02*
X117180000Y-74185000D01*
X115800000Y-71750000D02*
X111990000Y-71750000D01*
X117180000Y-74185000D02*
X117255000Y-74110000D01*
X117255000Y-74110000D02*
X117255000Y-73680000D01*
X83875000Y-74735000D02*
X83875000Y-73065000D01*
X100576895Y-79073105D02*
X88213105Y-79073105D01*
X107620000Y-72550000D02*
X107100000Y-72550000D01*
X80020000Y-69210000D02*
X72260000Y-69210000D01*
X72260000Y-69210000D02*
X71740000Y-69730000D01*
X83875000Y-73065000D02*
X80020000Y-69210000D01*
X88213105Y-79073105D02*
X83875000Y-74735000D01*
X106935000Y-72715000D02*
X106935000Y-72900305D01*
X106325000Y-73325000D02*
X100576895Y-79073105D01*
X106935000Y-72900305D02*
X106510305Y-73325000D01*
X107100000Y-72550000D02*
X106935000Y-72715000D01*
X106510305Y-73325000D02*
X106325000Y-73325000D01*
X85920000Y-52930000D02*
X85920000Y-46830000D01*
X89420000Y-56430000D02*
X85920000Y-52930000D01*
X97510000Y-56550000D02*
X99723749Y-56550000D01*
X113980000Y-73535000D02*
X114530000Y-73535000D01*
X107446674Y-76449557D02*
X111065443Y-76449557D01*
X99723749Y-56550000D02*
X99854791Y-56681042D01*
X111065443Y-76449557D02*
X113980000Y-73535000D01*
X113467609Y-72200000D02*
X115613604Y-72200000D01*
X115613604Y-72200000D02*
X116630000Y-73216396D01*
X116630000Y-73216396D02*
X116630000Y-73535000D01*
X97510000Y-54523480D02*
X97676740Y-54356740D01*
X97510000Y-55050000D02*
X97510000Y-54523480D01*
X104717018Y-76477581D02*
X105470042Y-75724557D01*
X105470042Y-75724557D02*
X109943052Y-75724557D01*
X109943052Y-75724557D02*
X113467609Y-72200000D01*
X91430000Y-56613884D02*
X92361116Y-57545000D01*
X100655431Y-56905000D02*
X106545000Y-56905000D01*
X91430000Y-53940000D02*
X91430000Y-56613884D01*
X106545000Y-56905000D02*
X107080000Y-57440000D01*
X99070431Y-58490000D02*
X100655431Y-56905000D01*
X89340000Y-51850000D02*
X91430000Y-53940000D01*
X92361116Y-57545000D02*
X98125431Y-57545000D01*
X98125431Y-57545000D02*
X99070431Y-58490000D01*
X107454695Y-69700000D02*
X106839695Y-69085000D01*
X98835000Y-69085000D02*
X98810000Y-69110000D01*
X95090000Y-65390000D02*
X88240000Y-65390000D01*
X106839695Y-69085000D02*
X98835000Y-69085000D01*
X98810000Y-69110000D02*
X95090000Y-65390000D01*
X88240000Y-65390000D02*
X86590000Y-63740000D01*
X110689502Y-69700000D02*
X107454695Y-69700000D01*
X110780000Y-69609502D02*
X110689502Y-69700000D01*
X101098506Y-73050000D02*
X103140000Y-73050000D01*
X103140000Y-73050000D02*
X103620000Y-72570000D01*
X100652306Y-72603800D02*
X101098506Y-73050000D01*
D26*
X101487000Y-59923018D02*
X101487000Y-58570000D01*
X100740000Y-60670018D02*
X101487000Y-59923018D01*
X101487000Y-58570000D02*
X100720000Y-58570000D01*
X100720000Y-58570000D02*
X100580000Y-58430000D01*
X100740000Y-63860000D02*
X100740000Y-60670018D01*
G04 #@! TA.AperFunction,Conductor*
G36*
X102134868Y-38051310D02*
G01*
X109881376Y-45797819D01*
X109914861Y-45859142D01*
X109909877Y-45928834D01*
X109868005Y-45984767D01*
X109802541Y-46009184D01*
X109793695Y-46009500D01*
X108120078Y-46009500D01*
X108053039Y-45989815D01*
X108007284Y-45937011D01*
X107997340Y-45867853D01*
X108005517Y-45838048D01*
X108017419Y-45809311D01*
X108035044Y-45766762D01*
X108055682Y-45610000D01*
X108035044Y-45453238D01*
X107974536Y-45307159D01*
X107911460Y-45224956D01*
X107878282Y-45181717D01*
X107752840Y-45085463D01*
X107606762Y-45024956D01*
X107450000Y-45004317D01*
X107293237Y-45024956D01*
X107147159Y-45085463D01*
X107021717Y-45181717D01*
X106925463Y-45307159D01*
X106864956Y-45453237D01*
X106844317Y-45610000D01*
X106864956Y-45766762D01*
X106894483Y-45838048D01*
X106901952Y-45907518D01*
X106870676Y-45969997D01*
X106810587Y-46005648D01*
X106779922Y-46009500D01*
X97869500Y-46009500D01*
X97802461Y-45989815D01*
X97756706Y-45937011D01*
X97745500Y-45885500D01*
X97745500Y-45260072D01*
X97765185Y-45193033D01*
X97781813Y-45172396D01*
X97881306Y-45072903D01*
X97889248Y-45065626D01*
X97918194Y-45041339D01*
X97937082Y-45008622D01*
X97942881Y-44999519D01*
X97964554Y-44968568D01*
X97964554Y-44968566D01*
X97965173Y-44967683D01*
X97975398Y-44942996D01*
X97975585Y-44941933D01*
X97975588Y-44941929D01*
X97982150Y-44904706D01*
X97984479Y-44894200D01*
X97994263Y-44857691D01*
X97990972Y-44820071D01*
X97990500Y-44809264D01*
X97990500Y-44330731D01*
X97990972Y-44319923D01*
X97994263Y-44282310D01*
X97984485Y-44245819D01*
X97982144Y-44235256D01*
X97975588Y-44198071D01*
X97975587Y-44198070D01*
X97975400Y-44197007D01*
X97965173Y-44172317D01*
X97964554Y-44171433D01*
X97964554Y-44171432D01*
X97942878Y-44140476D01*
X97937077Y-44131368D01*
X97918194Y-44098661D01*
X97889267Y-44074389D01*
X97881290Y-44067079D01*
X97781818Y-43967607D01*
X97748333Y-43906284D01*
X97745499Y-43879935D01*
X97745499Y-42093895D01*
X97765184Y-42026857D01*
X97774502Y-42014199D01*
X97787052Y-41999242D01*
X97794340Y-41991289D01*
X98191296Y-41594334D01*
X98199250Y-41587045D01*
X98228194Y-41562760D01*
X98247088Y-41530031D01*
X98252888Y-41520928D01*
X98274553Y-41489989D01*
X98274553Y-41489987D01*
X98278181Y-41484807D01*
X98292068Y-41468256D01*
X101168315Y-38592009D01*
X101229636Y-38558526D01*
X101272180Y-38556753D01*
X101340000Y-38565682D01*
X101496762Y-38545044D01*
X101642841Y-38484536D01*
X101768282Y-38388282D01*
X101864536Y-38262841D01*
X101925044Y-38116762D01*
X101925044Y-38116761D01*
X101931291Y-38101680D01*
X101933237Y-38102486D01*
X101952514Y-38058910D01*
X102010838Y-38020438D01*
X102080703Y-38019606D01*
X102134868Y-38051310D01*
G37*
G04 #@! TD.AperFunction*
G04 #@! TA.AperFunction,Conductor*
G36*
X128942539Y-34020185D02*
G01*
X128988294Y-34072989D01*
X128999500Y-34124500D01*
X128999500Y-52875500D01*
X128979815Y-52942539D01*
X128927011Y-52988294D01*
X128875500Y-52999500D01*
X126024760Y-52999500D01*
X126024554Y-52999459D01*
X125999999Y-52999459D01*
X125999900Y-52999500D01*
X125999618Y-52999615D01*
X125999615Y-52999618D01*
X125999459Y-52999999D01*
X125999476Y-53024616D01*
X125999471Y-53024616D01*
X125999500Y-53024759D01*
X125999500Y-72975467D01*
X125999416Y-72975889D01*
X125999459Y-73000000D01*
X125999501Y-73000101D01*
X125999616Y-73000382D01*
X125999618Y-73000384D01*
X125999808Y-73000462D01*
X126000000Y-73000541D01*
X126000002Y-73000539D01*
X126024616Y-73000524D01*
X126024616Y-73000528D01*
X126024760Y-73000500D01*
X128875500Y-73000500D01*
X128942539Y-73020185D01*
X128988294Y-73072989D01*
X128999500Y-73124500D01*
X128999500Y-91875500D01*
X128979815Y-91942539D01*
X128927011Y-91988294D01*
X128875500Y-91999500D01*
X65124500Y-91999500D01*
X65057461Y-91979815D01*
X65011706Y-91927011D01*
X65000500Y-91875500D01*
X65000500Y-87920000D01*
X89524317Y-87920000D01*
X89544956Y-88076762D01*
X89605463Y-88222840D01*
X89701717Y-88348282D01*
X89827158Y-88444535D01*
X89827159Y-88444536D01*
X89973238Y-88505044D01*
X90130000Y-88525682D01*
X90286762Y-88505044D01*
X90419650Y-88450000D01*
X93244317Y-88450000D01*
X93264956Y-88606762D01*
X93325463Y-88752840D01*
X93421717Y-88878282D01*
X93547159Y-88974535D01*
X93547159Y-88974536D01*
X93693238Y-89035044D01*
X93850000Y-89055682D01*
X94006762Y-89035044D01*
X94152841Y-88974536D01*
X94278282Y-88878282D01*
X94374536Y-88752841D01*
X94435044Y-88606762D01*
X94455682Y-88450000D01*
X94435044Y-88293238D01*
X94374536Y-88147159D01*
X94320519Y-88076762D01*
X94278282Y-88021717D01*
X94152840Y-87925463D01*
X94006762Y-87864956D01*
X93850000Y-87844317D01*
X93693237Y-87864956D01*
X93547159Y-87925463D01*
X93421717Y-88021717D01*
X93325463Y-88147159D01*
X93264956Y-88293237D01*
X93244317Y-88450000D01*
X90419650Y-88450000D01*
X90432841Y-88444536D01*
X90558282Y-88348282D01*
X90654536Y-88222841D01*
X90715044Y-88076762D01*
X90735682Y-87920000D01*
X90715044Y-87763238D01*
X90654536Y-87617159D01*
X90654535Y-87617158D01*
X90558282Y-87491717D01*
X90432840Y-87395463D01*
X90286762Y-87334956D01*
X90130000Y-87314317D01*
X89973237Y-87334956D01*
X89827159Y-87395463D01*
X89701717Y-87491717D01*
X89605463Y-87617159D01*
X89544956Y-87763237D01*
X89524317Y-87920000D01*
X65000500Y-87920000D01*
X65000500Y-73124500D01*
X65020185Y-73057461D01*
X65072989Y-73011706D01*
X65124500Y-73000500D01*
X67975240Y-73000500D01*
X67975383Y-73000528D01*
X67975384Y-73000524D01*
X67999997Y-73000539D01*
X68000000Y-73000541D01*
X68000383Y-73000383D01*
X68000500Y-73000099D01*
X68000541Y-73000000D01*
X68000540Y-72999997D01*
X68000583Y-72975889D01*
X68000500Y-72975467D01*
X68000500Y-69164500D01*
X68020185Y-69097461D01*
X68072989Y-69051706D01*
X68124500Y-69040500D01*
X71286852Y-69040500D01*
X71353891Y-69060185D01*
X71399646Y-69112989D01*
X71409590Y-69182147D01*
X71380565Y-69245703D01*
X71362338Y-69262876D01*
X71311717Y-69301717D01*
X71215463Y-69427159D01*
X71154956Y-69573237D01*
X71134317Y-69729999D01*
X71154956Y-69886762D01*
X71215463Y-70032840D01*
X71311717Y-70158282D01*
X71437159Y-70254535D01*
X71437159Y-70254536D01*
X71583238Y-70315044D01*
X71740000Y-70335682D01*
X71896762Y-70315044D01*
X72042841Y-70254536D01*
X72168282Y-70158282D01*
X72264536Y-70032841D01*
X72325044Y-69886762D01*
X72345682Y-69730000D01*
X72338531Y-69675685D01*
X72349296Y-69606651D01*
X72395676Y-69554395D01*
X72461470Y-69535500D01*
X73300988Y-69535500D01*
X73368027Y-69555185D01*
X73413782Y-69607989D01*
X73423726Y-69677147D01*
X73415549Y-69706952D01*
X73354956Y-69853237D01*
X73334317Y-70009999D01*
X73354956Y-70166762D01*
X73415463Y-70312840D01*
X73511717Y-70438282D01*
X73590571Y-70498788D01*
X73637159Y-70534536D01*
X73783238Y-70595044D01*
X73919361Y-70612964D01*
X73939999Y-70615682D01*
X73939999Y-70615681D01*
X73940000Y-70615682D01*
X73948393Y-70614577D01*
X74017429Y-70625342D01*
X74069685Y-70671722D01*
X74087518Y-70721330D01*
X74109956Y-70891762D01*
X74139357Y-70962743D01*
X74146826Y-71032212D01*
X74115551Y-71094691D01*
X74055461Y-71130343D01*
X74024796Y-71134195D01*
X73445883Y-71134195D01*
X73378844Y-71114510D01*
X73358202Y-71097876D01*
X73302011Y-71041685D01*
X73268526Y-70980362D01*
X73266753Y-70937818D01*
X73275682Y-70869999D01*
X73272964Y-70849361D01*
X73255044Y-70713238D01*
X73194536Y-70567159D01*
X73146484Y-70504536D01*
X73098282Y-70441717D01*
X72972840Y-70345463D01*
X72826762Y-70284956D01*
X72670000Y-70264317D01*
X72513237Y-70284956D01*
X72367159Y-70345463D01*
X72241717Y-70441717D01*
X72145463Y-70567159D01*
X72084956Y-70713237D01*
X72064317Y-70870000D01*
X72084956Y-71026762D01*
X72128491Y-71131867D01*
X72135960Y-71201337D01*
X72104684Y-71263816D01*
X72061388Y-71293878D01*
X72057097Y-71295655D01*
X71931654Y-71391910D01*
X71835400Y-71517352D01*
X71774893Y-71663430D01*
X71754254Y-71820192D01*
X71774893Y-71976955D01*
X71835400Y-72123033D01*
X71931654Y-72248475D01*
X72050049Y-72339322D01*
X72057096Y-72344729D01*
X72203175Y-72405237D01*
X72339298Y-72423157D01*
X72359936Y-72425875D01*
X72359936Y-72425874D01*
X72359937Y-72425875D01*
X72516699Y-72405237D01*
X72662778Y-72344729D01*
X72772131Y-72260819D01*
X72837301Y-72235625D01*
X72847618Y-72235195D01*
X72883507Y-72235195D01*
X72950546Y-72254880D01*
X72971188Y-72271514D01*
X74987493Y-74287819D01*
X75020978Y-74349142D01*
X75015994Y-74418834D01*
X74974122Y-74474767D01*
X74908658Y-74499184D01*
X74899812Y-74499500D01*
X74024760Y-74499500D01*
X74024554Y-74499459D01*
X73999999Y-74499459D01*
X73999900Y-74499500D01*
X73999618Y-74499615D01*
X73999615Y-74499618D01*
X73999459Y-74499999D01*
X73999476Y-74524616D01*
X73999471Y-74524616D01*
X73999500Y-74524759D01*
X73999500Y-82475467D01*
X73999416Y-82475889D01*
X73999459Y-82500000D01*
X73999501Y-82500101D01*
X73999616Y-82500382D01*
X73999618Y-82500384D01*
X73999808Y-82500462D01*
X74000000Y-82500541D01*
X74000002Y-82500539D01*
X74024616Y-82500524D01*
X74024616Y-82500528D01*
X74024760Y-82500500D01*
X74975240Y-82500500D01*
X74975383Y-82500528D01*
X74975384Y-82500524D01*
X74999997Y-82500539D01*
X75000000Y-82500541D01*
X75000383Y-82500383D01*
X75000500Y-82500099D01*
X75000541Y-82500000D01*
X75000540Y-82499997D01*
X75000583Y-82475889D01*
X75000500Y-82475467D01*
X75000500Y-74600188D01*
X75020185Y-74533149D01*
X75072989Y-74487394D01*
X75142147Y-74477450D01*
X75205703Y-74506475D01*
X75212181Y-74512507D01*
X76335688Y-75636014D01*
X76369173Y-75697337D01*
X76370946Y-75739880D01*
X76362017Y-75807699D01*
X76382656Y-75964462D01*
X76443163Y-76110540D01*
X76539417Y-76235982D01*
X76638648Y-76312124D01*
X76664859Y-76332236D01*
X76810938Y-76392744D01*
X76967700Y-76413382D01*
X77124462Y-76392744D01*
X77198050Y-76362262D01*
X77267516Y-76354794D01*
X77329995Y-76386069D01*
X77365648Y-76446157D01*
X77369500Y-76476824D01*
X77369500Y-77344115D01*
X77349815Y-77411154D01*
X77333181Y-77431796D01*
X77158714Y-77606263D01*
X77150741Y-77613569D01*
X77121806Y-77637849D01*
X77102914Y-77670569D01*
X77097106Y-77679685D01*
X77074831Y-77711498D01*
X77064597Y-77736204D01*
X77057852Y-77774453D01*
X77055512Y-77785009D01*
X77045735Y-77821496D01*
X77049028Y-77859122D01*
X77049500Y-77869931D01*
X77049500Y-86032149D01*
X77049028Y-86042957D01*
X77045735Y-86080584D01*
X77055512Y-86117073D01*
X77057853Y-86127629D01*
X77064599Y-86165884D01*
X77074829Y-86190580D01*
X77075446Y-86191461D01*
X77097112Y-86222404D01*
X77102915Y-86231513D01*
X77121806Y-86264232D01*
X77150742Y-86288512D01*
X77158718Y-86295821D01*
X77204173Y-86341276D01*
X77211481Y-86349250D01*
X77235768Y-86378194D01*
X77259817Y-86392079D01*
X77268479Y-86397080D01*
X77277602Y-86402892D01*
X77308539Y-86424554D01*
X77308540Y-86424554D01*
X77309421Y-86425171D01*
X77334114Y-86435400D01*
X77335177Y-86435587D01*
X77335178Y-86435588D01*
X77372366Y-86442145D01*
X77382929Y-86444487D01*
X77419415Y-86454264D01*
X77419415Y-86454263D01*
X77419416Y-86454264D01*
X77457042Y-86450971D01*
X77467850Y-86450500D01*
X106035373Y-86450500D01*
X106046180Y-86450971D01*
X106083807Y-86454264D01*
X106120324Y-86444478D01*
X106130830Y-86442149D01*
X106168045Y-86435588D01*
X106168047Y-86435586D01*
X106169112Y-86435399D01*
X106193799Y-86425173D01*
X106194682Y-86424554D01*
X106194684Y-86424554D01*
X106225625Y-86402887D01*
X106234722Y-86397091D01*
X106267455Y-86378194D01*
X106291748Y-86349241D01*
X106299036Y-86341288D01*
X106664435Y-85975889D01*
X108499416Y-85975889D01*
X108499459Y-86000000D01*
X108499501Y-86000101D01*
X108499616Y-86000382D01*
X108499618Y-86000384D01*
X108499808Y-86000462D01*
X108500000Y-86000541D01*
X108500002Y-86000539D01*
X108524616Y-86000524D01*
X108524616Y-86000528D01*
X108524760Y-86000500D01*
X116475240Y-86000500D01*
X116475383Y-86000528D01*
X116475384Y-86000524D01*
X116499997Y-86000539D01*
X116500000Y-86000541D01*
X116500383Y-86000383D01*
X116500500Y-86000099D01*
X116500541Y-86000000D01*
X116500540Y-85999997D01*
X116500583Y-85975889D01*
X116500500Y-85975467D01*
X116500500Y-85024759D01*
X116500528Y-85024616D01*
X116500524Y-85024616D01*
X116500539Y-85000002D01*
X116500541Y-85000000D01*
X116500462Y-84999808D01*
X116500384Y-84999618D01*
X116500383Y-84999617D01*
X116500379Y-84999615D01*
X116500097Y-84999499D01*
X116500000Y-84999459D01*
X116475446Y-84999459D01*
X116475240Y-84999500D01*
X108524760Y-84999500D01*
X108524554Y-84999459D01*
X108499999Y-84999459D01*
X108499900Y-84999500D01*
X108499618Y-84999615D01*
X108499615Y-84999618D01*
X108499459Y-84999999D01*
X108499476Y-85024616D01*
X108499471Y-85024616D01*
X108499500Y-85024759D01*
X108499500Y-85975467D01*
X108499416Y-85975889D01*
X106664435Y-85975889D01*
X108023506Y-84616819D01*
X108084830Y-84583334D01*
X108111188Y-84580500D01*
X109619749Y-84580500D01*
X109648989Y-84574683D01*
X109678231Y-84568867D01*
X109744552Y-84524552D01*
X109788867Y-84458231D01*
X109800500Y-84399748D01*
X109800500Y-83770000D01*
X111114317Y-83770000D01*
X111134956Y-83926762D01*
X111195463Y-84072840D01*
X111291717Y-84198282D01*
X111417159Y-84294536D01*
X111563238Y-84355044D01*
X111720000Y-84375682D01*
X111876762Y-84355044D01*
X112022841Y-84294536D01*
X112148282Y-84198282D01*
X112244536Y-84072841D01*
X112305044Y-83926762D01*
X112325682Y-83770000D01*
X112305044Y-83613238D01*
X112244536Y-83467159D01*
X112233098Y-83452253D01*
X112148282Y-83341717D01*
X112022840Y-83245463D01*
X111876762Y-83184956D01*
X111720000Y-83164317D01*
X111563237Y-83184956D01*
X111417159Y-83245463D01*
X111291717Y-83341717D01*
X111195463Y-83467159D01*
X111134956Y-83613237D01*
X111114317Y-83770000D01*
X109800500Y-83770000D01*
X109800500Y-82560252D01*
X109788867Y-82501769D01*
X109777683Y-82485031D01*
X109771575Y-82475889D01*
X118999416Y-82475889D01*
X118999459Y-82500000D01*
X118999501Y-82500101D01*
X118999616Y-82500382D01*
X118999618Y-82500384D01*
X118999808Y-82500462D01*
X119000000Y-82500541D01*
X119000002Y-82500539D01*
X119024616Y-82500524D01*
X119024616Y-82500528D01*
X119024760Y-82500500D01*
X119975240Y-82500500D01*
X119975383Y-82500528D01*
X119975384Y-82500524D01*
X119999997Y-82500539D01*
X120000000Y-82500541D01*
X120000383Y-82500383D01*
X120000385Y-82500379D01*
X120006893Y-82485031D01*
X120000521Y-82464747D01*
X120000499Y-82462417D01*
X120000499Y-74508647D01*
X120000541Y-74500003D01*
X120000540Y-74500001D01*
X120000541Y-74500000D01*
X120000383Y-74499617D01*
X120000379Y-74499615D01*
X120000097Y-74499499D01*
X120000000Y-74499459D01*
X119975446Y-74499459D01*
X119975240Y-74499500D01*
X119024760Y-74499500D01*
X119024554Y-74499459D01*
X118999999Y-74499459D01*
X118999900Y-74499500D01*
X118999618Y-74499615D01*
X118999615Y-74499618D01*
X118999459Y-74499999D01*
X118999476Y-74524616D01*
X118999471Y-74524616D01*
X118999500Y-74524759D01*
X118999500Y-82475467D01*
X118999416Y-82475889D01*
X109771575Y-82475889D01*
X109744552Y-82435447D01*
X109678230Y-82391132D01*
X109619749Y-82379500D01*
X109619748Y-82379500D01*
X107780252Y-82379500D01*
X107780251Y-82379500D01*
X107721769Y-82391132D01*
X107655447Y-82435447D01*
X107611132Y-82501769D01*
X107599500Y-82560251D01*
X107599500Y-84068812D01*
X107579815Y-84135851D01*
X107563181Y-84156493D01*
X105956493Y-85763181D01*
X105895170Y-85796666D01*
X105868812Y-85799500D01*
X85624500Y-85799500D01*
X85557461Y-85779815D01*
X85511706Y-85727011D01*
X85500500Y-85675500D01*
X85500500Y-85024759D01*
X85500528Y-85024616D01*
X85500524Y-85024616D01*
X85500539Y-85000002D01*
X85500541Y-85000000D01*
X85500462Y-84999808D01*
X85500384Y-84999618D01*
X85500383Y-84999617D01*
X85500379Y-84999615D01*
X85500097Y-84999499D01*
X85500000Y-84999459D01*
X85475446Y-84999459D01*
X85475240Y-84999500D01*
X83380676Y-84999500D01*
X83313637Y-84979815D01*
X83267882Y-84927011D01*
X83257938Y-84857853D01*
X83282300Y-84800014D01*
X83315100Y-84757266D01*
X83364536Y-84692841D01*
X83425044Y-84546762D01*
X83445682Y-84390000D01*
X83425044Y-84233238D01*
X83364536Y-84087159D01*
X83268282Y-83961718D01*
X83245524Y-83944255D01*
X83214012Y-83920074D01*
X83172810Y-83863646D01*
X83165500Y-83821699D01*
X83165500Y-83480000D01*
X97434785Y-83480000D01*
X97453602Y-83683083D01*
X97509418Y-83879251D01*
X97600324Y-84061818D01*
X97723236Y-84224580D01*
X97873958Y-84361981D01*
X98029408Y-84458231D01*
X98047363Y-84469348D01*
X98237544Y-84543024D01*
X98438024Y-84580500D01*
X98438026Y-84580500D01*
X98641974Y-84580500D01*
X98641976Y-84580500D01*
X98842456Y-84543024D01*
X99032637Y-84469348D01*
X99206041Y-84361981D01*
X99356764Y-84224579D01*
X99479673Y-84061821D01*
X99479673Y-84061819D01*
X99479675Y-84061818D01*
X99529518Y-83961718D01*
X99570582Y-83879250D01*
X99626397Y-83683083D01*
X99645215Y-83480000D01*
X102514785Y-83480000D01*
X102533602Y-83683083D01*
X102589418Y-83879251D01*
X102680324Y-84061818D01*
X102803236Y-84224580D01*
X102953958Y-84361981D01*
X103109408Y-84458231D01*
X103127363Y-84469348D01*
X103317544Y-84543024D01*
X103518024Y-84580500D01*
X103518026Y-84580500D01*
X103721974Y-84580500D01*
X103721976Y-84580500D01*
X103922456Y-84543024D01*
X104112637Y-84469348D01*
X104286041Y-84361981D01*
X104436764Y-84224579D01*
X104559673Y-84061821D01*
X104559673Y-84061819D01*
X104559675Y-84061818D01*
X104609518Y-83961718D01*
X104650582Y-83879250D01*
X104706397Y-83683083D01*
X104725215Y-83480000D01*
X104708140Y-83295733D01*
X104706397Y-83276916D01*
X104683221Y-83195463D01*
X104650582Y-83080750D01*
X104650209Y-83080001D01*
X104559675Y-82898181D01*
X104436763Y-82735419D01*
X104286041Y-82598018D01*
X104112638Y-82490652D01*
X103922457Y-82416976D01*
X103855629Y-82404484D01*
X103721976Y-82379500D01*
X103518024Y-82379500D01*
X103455793Y-82391133D01*
X103317542Y-82416976D01*
X103127361Y-82490652D01*
X102953958Y-82598018D01*
X102803236Y-82735419D01*
X102680324Y-82898181D01*
X102589418Y-83080748D01*
X102533602Y-83276916D01*
X102514785Y-83480000D01*
X99645215Y-83480000D01*
X99628140Y-83295733D01*
X99626397Y-83276916D01*
X99603221Y-83195463D01*
X99570582Y-83080750D01*
X99570209Y-83080001D01*
X99479675Y-82898181D01*
X99356763Y-82735419D01*
X99206041Y-82598018D01*
X99032638Y-82490652D01*
X98842457Y-82416976D01*
X98775629Y-82404484D01*
X98641976Y-82379500D01*
X98438024Y-82379500D01*
X98375793Y-82391133D01*
X98237542Y-82416976D01*
X98047361Y-82490652D01*
X97873958Y-82598018D01*
X97723236Y-82735419D01*
X97600324Y-82898181D01*
X97509418Y-83080748D01*
X97453602Y-83276916D01*
X97434785Y-83480000D01*
X83165500Y-83480000D01*
X83165500Y-80720000D01*
X85504317Y-80720000D01*
X85524956Y-80876762D01*
X85585463Y-81022840D01*
X85681717Y-81148282D01*
X85807159Y-81244535D01*
X85807159Y-81244536D01*
X85953238Y-81305044D01*
X86110000Y-81325682D01*
X86266762Y-81305044D01*
X86412841Y-81244536D01*
X86538282Y-81148282D01*
X86634536Y-81022841D01*
X86695044Y-80876762D01*
X86715682Y-80720000D01*
X86695044Y-80563238D01*
X86634536Y-80417159D01*
X86608439Y-80383148D01*
X86538282Y-80291717D01*
X86412840Y-80195463D01*
X86266762Y-80134956D01*
X86110000Y-80114317D01*
X85953237Y-80134956D01*
X85807159Y-80195463D01*
X85681717Y-80291717D01*
X85585463Y-80417159D01*
X85524956Y-80563237D01*
X85504317Y-80720000D01*
X83165500Y-80720000D01*
X83165500Y-74092386D01*
X83185185Y-74025347D01*
X83237989Y-73979592D01*
X83273313Y-73969447D01*
X83306762Y-73965044D01*
X83378049Y-73935515D01*
X83447516Y-73928047D01*
X83509996Y-73959322D01*
X83545648Y-74019411D01*
X83549500Y-74050077D01*
X83549500Y-74715372D01*
X83549028Y-74726180D01*
X83545735Y-74763807D01*
X83555512Y-74800296D01*
X83557853Y-74810852D01*
X83564599Y-74849107D01*
X83574829Y-74873803D01*
X83575446Y-74874684D01*
X83597112Y-74905627D01*
X83602915Y-74914736D01*
X83621806Y-74947455D01*
X83650742Y-74971735D01*
X83658718Y-74979044D01*
X87969055Y-79289381D01*
X87976363Y-79297355D01*
X88000650Y-79326299D01*
X88021459Y-79338313D01*
X88033361Y-79345185D01*
X88042484Y-79350997D01*
X88073421Y-79372659D01*
X88073422Y-79372659D01*
X88074303Y-79373276D01*
X88098996Y-79383505D01*
X88100059Y-79383692D01*
X88100060Y-79383693D01*
X88137248Y-79390250D01*
X88147811Y-79392592D01*
X88184297Y-79402369D01*
X88184297Y-79402368D01*
X88184298Y-79402369D01*
X88221924Y-79399076D01*
X88232732Y-79398605D01*
X96757133Y-79398605D01*
X96824172Y-79418290D01*
X96869927Y-79471094D01*
X96879871Y-79540252D01*
X96871694Y-79570057D01*
X96842167Y-79641342D01*
X96821528Y-79798104D01*
X96842167Y-79954867D01*
X96902674Y-80100945D01*
X96998928Y-80226387D01*
X97042734Y-80260000D01*
X97124370Y-80322641D01*
X97270449Y-80383149D01*
X97427211Y-80403787D01*
X97583973Y-80383149D01*
X97730052Y-80322641D01*
X97855493Y-80226387D01*
X97951747Y-80100946D01*
X98012255Y-79954867D01*
X98032893Y-79798105D01*
X98012255Y-79641343D01*
X97998539Y-79608230D01*
X97982728Y-79570057D01*
X97975259Y-79500587D01*
X98006535Y-79438108D01*
X98066624Y-79402457D01*
X98097289Y-79398605D01*
X100557268Y-79398605D01*
X100568075Y-79399076D01*
X100605702Y-79402369D01*
X100642219Y-79392583D01*
X100652725Y-79390254D01*
X100689940Y-79383693D01*
X100689942Y-79383691D01*
X100691007Y-79383504D01*
X100715694Y-79373278D01*
X100716577Y-79372659D01*
X100716579Y-79372659D01*
X100747520Y-79350992D01*
X100756617Y-79345196D01*
X100789350Y-79326299D01*
X100813643Y-79297346D01*
X100820931Y-79289393D01*
X103933334Y-76176991D01*
X103994656Y-76143507D01*
X104064348Y-76148491D01*
X104120281Y-76190363D01*
X104144698Y-76255827D01*
X104135576Y-76312124D01*
X104131974Y-76320820D01*
X104111335Y-76477580D01*
X104131974Y-76634343D01*
X104192481Y-76780421D01*
X104288735Y-76905863D01*
X104393093Y-76985939D01*
X104414177Y-77002117D01*
X104560256Y-77062625D01*
X104696379Y-77080545D01*
X104717017Y-77083263D01*
X104717017Y-77083262D01*
X104717018Y-77083263D01*
X104873780Y-77062625D01*
X105019859Y-77002117D01*
X105145300Y-76905863D01*
X105241554Y-76780422D01*
X105302062Y-76634343D01*
X105322700Y-76477581D01*
X105313771Y-76409761D01*
X105324536Y-76340727D01*
X105349029Y-76305895D01*
X105568549Y-76086376D01*
X105629872Y-76052891D01*
X105656230Y-76050057D01*
X106776596Y-76050057D01*
X106843635Y-76069742D01*
X106889390Y-76122546D01*
X106899334Y-76191704D01*
X106891157Y-76221509D01*
X106861630Y-76292794D01*
X106840991Y-76449557D01*
X106861630Y-76606319D01*
X106922137Y-76752397D01*
X107018391Y-76877839D01*
X107143833Y-76974093D01*
X107174725Y-76986889D01*
X107229129Y-77030729D01*
X107251194Y-77097023D01*
X107233915Y-77164723D01*
X107182778Y-77212333D01*
X107159365Y-77221225D01*
X107124704Y-77230512D01*
X107114148Y-77232852D01*
X107075899Y-77239597D01*
X107051193Y-77249831D01*
X107019380Y-77272106D01*
X107010264Y-77277914D01*
X106977545Y-77296805D01*
X106953262Y-77325744D01*
X106945956Y-77333716D01*
X105401684Y-78877988D01*
X105340361Y-78911473D01*
X105297818Y-78913246D01*
X105230000Y-78904317D01*
X105073237Y-78924956D01*
X104927159Y-78985463D01*
X104801717Y-79081717D01*
X104705463Y-79207159D01*
X104644956Y-79353237D01*
X104624317Y-79510000D01*
X104633246Y-79577818D01*
X104622480Y-79646853D01*
X104597988Y-79681684D01*
X103231493Y-81048181D01*
X103170170Y-81081666D01*
X103143812Y-81084500D01*
X88058299Y-81084500D01*
X87991260Y-81064815D01*
X87959923Y-81035986D01*
X87918281Y-80981717D01*
X87792840Y-80885463D01*
X87646762Y-80824956D01*
X87490000Y-80804317D01*
X87333237Y-80824956D01*
X87187159Y-80885463D01*
X87061717Y-80981717D01*
X86965463Y-81107159D01*
X86904956Y-81253237D01*
X86884317Y-81410000D01*
X86904956Y-81566762D01*
X86965463Y-81712840D01*
X87061717Y-81838282D01*
X87166268Y-81918506D01*
X87187159Y-81934536D01*
X87333238Y-81995044D01*
X87490000Y-82015682D01*
X87646762Y-81995044D01*
X87792841Y-81934536D01*
X87918282Y-81838282D01*
X87959923Y-81784013D01*
X88016350Y-81742811D01*
X88058299Y-81735500D01*
X103310373Y-81735500D01*
X103321180Y-81735971D01*
X103358807Y-81739264D01*
X103395324Y-81729478D01*
X103405830Y-81727149D01*
X103443045Y-81720588D01*
X103443047Y-81720586D01*
X103444112Y-81720399D01*
X103468799Y-81710173D01*
X103469682Y-81709554D01*
X103469684Y-81709554D01*
X103500625Y-81687887D01*
X103509722Y-81682091D01*
X103542455Y-81663194D01*
X103566748Y-81634241D01*
X103574036Y-81626288D01*
X104940324Y-80260000D01*
X110389817Y-80260000D01*
X110410456Y-80416762D01*
X110470963Y-80562840D01*
X110567217Y-80688282D01*
X110692658Y-80784536D01*
X110692659Y-80784536D01*
X110838738Y-80845044D01*
X110974860Y-80862964D01*
X110995499Y-80865682D01*
X110995499Y-80865681D01*
X110995500Y-80865682D01*
X111152262Y-80845044D01*
X111298341Y-80784536D01*
X111423782Y-80688282D01*
X111520036Y-80562841D01*
X111580544Y-80416762D01*
X111601182Y-80260000D01*
X111580544Y-80103238D01*
X111537781Y-80000000D01*
X111994389Y-80000000D01*
X112014804Y-80285429D01*
X112075629Y-80565041D01*
X112175634Y-80833163D01*
X112312772Y-81084313D01*
X112360659Y-81148282D01*
X112484261Y-81313395D01*
X112686605Y-81515739D01*
X112754764Y-81566762D01*
X112915686Y-81687227D01*
X112988787Y-81727143D01*
X113166839Y-81824367D01*
X113434954Y-81924369D01*
X113434957Y-81924369D01*
X113434958Y-81924370D01*
X113481691Y-81934536D01*
X113714572Y-81985196D01*
X114000000Y-82005610D01*
X114285428Y-81985196D01*
X114565046Y-81924369D01*
X114833161Y-81824367D01*
X115084315Y-81687226D01*
X115313395Y-81515739D01*
X115515739Y-81313395D01*
X115687226Y-81084315D01*
X115824367Y-80833161D01*
X115924369Y-80565046D01*
X115985196Y-80285428D01*
X116005610Y-80000000D01*
X115985196Y-79714572D01*
X115924369Y-79434954D01*
X115824367Y-79166839D01*
X115763535Y-79055435D01*
X115687227Y-78915686D01*
X115561403Y-78747605D01*
X115515739Y-78686605D01*
X115313395Y-78484261D01*
X115098379Y-78323302D01*
X115084313Y-78312772D01*
X114833163Y-78175634D01*
X114833162Y-78175633D01*
X114833161Y-78175633D01*
X114640530Y-78103785D01*
X114565041Y-78075629D01*
X114285429Y-78014804D01*
X114000000Y-77994389D01*
X113714570Y-78014804D01*
X113434958Y-78075629D01*
X113166836Y-78175634D01*
X112915686Y-78312772D01*
X112686602Y-78484263D01*
X112484263Y-78686602D01*
X112312772Y-78915686D01*
X112175634Y-79166836D01*
X112075629Y-79434958D01*
X112014804Y-79714570D01*
X111994389Y-80000000D01*
X111537781Y-80000000D01*
X111520036Y-79957159D01*
X111505551Y-79938282D01*
X111423782Y-79831717D01*
X111298340Y-79735463D01*
X111152262Y-79674956D01*
X110995499Y-79654317D01*
X110838737Y-79674956D01*
X110692659Y-79735463D01*
X110567217Y-79831717D01*
X110470963Y-79957159D01*
X110410456Y-80103237D01*
X110389817Y-80260000D01*
X104940324Y-80260000D01*
X105058315Y-80142009D01*
X105119636Y-80108526D01*
X105162180Y-80106753D01*
X105230000Y-80115682D01*
X105386762Y-80095044D01*
X105532841Y-80034536D01*
X105658282Y-79938282D01*
X105754536Y-79812841D01*
X105815044Y-79666762D01*
X105835682Y-79510000D01*
X105826752Y-79442180D01*
X105837518Y-79373144D01*
X105862008Y-79338316D01*
X107288506Y-77911819D01*
X107349830Y-77878334D01*
X107376188Y-77875500D01*
X110538074Y-77875500D01*
X110605113Y-77895185D01*
X110650868Y-77947989D01*
X110660812Y-78017147D01*
X110652635Y-78046952D01*
X110586162Y-78207433D01*
X110565523Y-78364196D01*
X110586162Y-78520958D01*
X110646669Y-78667036D01*
X110742923Y-78792478D01*
X110854363Y-78877988D01*
X110868365Y-78888732D01*
X111014444Y-78949240D01*
X111171206Y-78969878D01*
X111327968Y-78949240D01*
X111474047Y-78888732D01*
X111599488Y-78792478D01*
X111695742Y-78667037D01*
X111756250Y-78520958D01*
X111776888Y-78364196D01*
X111756250Y-78207434D01*
X111695742Y-78061355D01*
X111695741Y-78061354D01*
X111690301Y-78048220D01*
X111682832Y-77978750D01*
X111714107Y-77916271D01*
X111774196Y-77880619D01*
X111815666Y-77877239D01*
X111838807Y-77879264D01*
X111875324Y-77869478D01*
X111885830Y-77867149D01*
X111923045Y-77860588D01*
X111923047Y-77860586D01*
X111924112Y-77860399D01*
X111948799Y-77850173D01*
X111949682Y-77849554D01*
X111949684Y-77849554D01*
X111980625Y-77827887D01*
X111989722Y-77822091D01*
X112022455Y-77803194D01*
X112046748Y-77774241D01*
X112054036Y-77766288D01*
X112858315Y-76962009D01*
X112919636Y-76928526D01*
X112962180Y-76926753D01*
X113030000Y-76935682D01*
X113186762Y-76915044D01*
X113332841Y-76854536D01*
X113458282Y-76758282D01*
X113554536Y-76632841D01*
X113615044Y-76486762D01*
X113635682Y-76330000D01*
X113615044Y-76173238D01*
X113554536Y-76027159D01*
X113537345Y-76004755D01*
X113458282Y-75901717D01*
X113332840Y-75805463D01*
X113186762Y-75744956D01*
X113030000Y-75724317D01*
X112873237Y-75744956D01*
X112727159Y-75805463D01*
X112601717Y-75901717D01*
X112505463Y-76027159D01*
X112444956Y-76173237D01*
X112424317Y-76330000D01*
X112433246Y-76397818D01*
X112422480Y-76466853D01*
X112397988Y-76501684D01*
X111711493Y-77188181D01*
X111650170Y-77221666D01*
X111623812Y-77224500D01*
X107768369Y-77224500D01*
X107701330Y-77204815D01*
X107655575Y-77152011D01*
X107645631Y-77082853D01*
X107674656Y-77019297D01*
X107720917Y-76985939D01*
X107732964Y-76980948D01*
X107749515Y-76974093D01*
X107874956Y-76877839D01*
X107916597Y-76823570D01*
X107973024Y-76782368D01*
X108014973Y-76775057D01*
X111045816Y-76775057D01*
X111056623Y-76775528D01*
X111094250Y-76778821D01*
X111130767Y-76769035D01*
X111141273Y-76766706D01*
X111178488Y-76760145D01*
X111178490Y-76760143D01*
X111179555Y-76759956D01*
X111204242Y-76749730D01*
X111205125Y-76749111D01*
X111205127Y-76749111D01*
X111236068Y-76727444D01*
X111245165Y-76721648D01*
X111277898Y-76702751D01*
X111302191Y-76673798D01*
X111309479Y-76665845D01*
X114042088Y-73933236D01*
X114103409Y-73899753D01*
X114153956Y-73899302D01*
X114210252Y-73910500D01*
X114210253Y-73910500D01*
X114849749Y-73910500D01*
X114879731Y-73904536D01*
X114908231Y-73898867D01*
X114974552Y-73854552D01*
X115018867Y-73788231D01*
X115030500Y-73729748D01*
X115030500Y-73340252D01*
X115028456Y-73329978D01*
X115018867Y-73281769D01*
X114974552Y-73215447D01*
X114908230Y-73171132D01*
X114849749Y-73159500D01*
X114849748Y-73159500D01*
X114210252Y-73159500D01*
X114210251Y-73159500D01*
X114151769Y-73171133D01*
X114125625Y-73188602D01*
X114058948Y-73209480D01*
X114056734Y-73209500D01*
X113999628Y-73209500D01*
X113988820Y-73209028D01*
X113951192Y-73205735D01*
X113914704Y-73215512D01*
X113904148Y-73217852D01*
X113865899Y-73224597D01*
X113841193Y-73234831D01*
X113809380Y-73257106D01*
X113800264Y-73262914D01*
X113767545Y-73281805D01*
X113743262Y-73310744D01*
X113735956Y-73318716D01*
X110966936Y-76087738D01*
X110905613Y-76121223D01*
X110879255Y-76124057D01*
X110303239Y-76124057D01*
X110236200Y-76104372D01*
X110190445Y-76051568D01*
X110180501Y-75982410D01*
X110209526Y-75918854D01*
X110215558Y-75912376D01*
X110788156Y-75339778D01*
X111362120Y-74765813D01*
X111423441Y-74732330D01*
X111465979Y-74730557D01*
X111533805Y-74739487D01*
X111690567Y-74718849D01*
X111836646Y-74658341D01*
X111962087Y-74562087D01*
X112058341Y-74436646D01*
X112118849Y-74290567D01*
X112139487Y-74133805D01*
X112130557Y-74065982D01*
X112141322Y-73996951D01*
X112165812Y-73962121D01*
X113566116Y-72561819D01*
X113627440Y-72528334D01*
X113653798Y-72525500D01*
X115427416Y-72525500D01*
X115494455Y-72545185D01*
X115515097Y-72561819D01*
X116109847Y-73156569D01*
X116143332Y-73217892D01*
X116143784Y-73268440D01*
X116129500Y-73340253D01*
X116129500Y-73729748D01*
X116141133Y-73788231D01*
X116143056Y-73791109D01*
X116163934Y-73857787D01*
X116145449Y-73925167D01*
X116143056Y-73928891D01*
X116141133Y-73931768D01*
X116129500Y-73990251D01*
X116129500Y-74379748D01*
X116141132Y-74438230D01*
X116185447Y-74504552D01*
X116251769Y-74548867D01*
X116310251Y-74560500D01*
X116310252Y-74560500D01*
X116949749Y-74560500D01*
X116958070Y-74558844D01*
X117008231Y-74548867D01*
X117034374Y-74531398D01*
X117101052Y-74510520D01*
X117103266Y-74510500D01*
X117160373Y-74510500D01*
X117171180Y-74510971D01*
X117208807Y-74514264D01*
X117245324Y-74504478D01*
X117255830Y-74502149D01*
X117293045Y-74495588D01*
X117293047Y-74495586D01*
X117294112Y-74495399D01*
X117318799Y-74485173D01*
X117319682Y-74484554D01*
X117319684Y-74484554D01*
X117350625Y-74462887D01*
X117359722Y-74457091D01*
X117392455Y-74438194D01*
X117416748Y-74409241D01*
X117424036Y-74401288D01*
X117471290Y-74354034D01*
X117479244Y-74346745D01*
X117508194Y-74322455D01*
X117508195Y-74322453D01*
X117516663Y-74315348D01*
X117580672Y-74287336D01*
X117586838Y-74287348D01*
X117599496Y-74285681D01*
X117599500Y-74285682D01*
X117756262Y-74265044D01*
X117902341Y-74204536D01*
X118027782Y-74108282D01*
X118124036Y-73982841D01*
X118184544Y-73836762D01*
X118205182Y-73680000D01*
X118184544Y-73523238D01*
X118124036Y-73377159D01*
X118116352Y-73367145D01*
X118027782Y-73251717D01*
X117902340Y-73155463D01*
X117756262Y-73094956D01*
X117612404Y-73076016D01*
X117548508Y-73047749D01*
X117521203Y-73015077D01*
X117508194Y-72992544D01*
X117479255Y-72968262D01*
X117471280Y-72960954D01*
X116044043Y-71533717D01*
X116036734Y-71525741D01*
X116032347Y-71520513D01*
X116012455Y-71496806D01*
X116012454Y-71496805D01*
X115979736Y-71477915D01*
X115970627Y-71472112D01*
X115939684Y-71450446D01*
X115938803Y-71449829D01*
X115914107Y-71439599D01*
X115875852Y-71432853D01*
X115865296Y-71430512D01*
X115828807Y-71420735D01*
X115791180Y-71424028D01*
X115780372Y-71424500D01*
X112507402Y-71424500D01*
X112440363Y-71404815D01*
X112419725Y-71388185D01*
X112358316Y-71326776D01*
X112358315Y-71326775D01*
X112358314Y-71326774D01*
X112249487Y-71276028D01*
X112203921Y-71270029D01*
X112203917Y-71270028D01*
X112199901Y-71269500D01*
X112195847Y-71269500D01*
X111784159Y-71269500D01*
X111784143Y-71269500D01*
X111780100Y-71269501D01*
X111776084Y-71270029D01*
X111776078Y-71270030D01*
X111730511Y-71276028D01*
X111621682Y-71326776D01*
X111536775Y-71411683D01*
X111486028Y-71520512D01*
X111480276Y-71564207D01*
X111479500Y-71570099D01*
X111479500Y-71574151D01*
X111479500Y-71574152D01*
X111479500Y-71925840D01*
X111479500Y-71925855D01*
X111479501Y-71929900D01*
X111480029Y-71933916D01*
X111480030Y-71933921D01*
X111486028Y-71979488D01*
X111536776Y-72088317D01*
X111621683Y-72173224D01*
X111672430Y-72196887D01*
X111730513Y-72223972D01*
X111780099Y-72230500D01*
X112199900Y-72230499D01*
X112249487Y-72223972D01*
X112358316Y-72173224D01*
X112419722Y-72111817D01*
X112481043Y-72078334D01*
X112507402Y-72075500D01*
X112832420Y-72075500D01*
X112899459Y-72095185D01*
X112945214Y-72147989D01*
X112955158Y-72217147D01*
X112926133Y-72280703D01*
X112920101Y-72287181D01*
X111705488Y-73501792D01*
X111644165Y-73535277D01*
X111601623Y-73537050D01*
X111533806Y-73528122D01*
X111377042Y-73548761D01*
X111230964Y-73609268D01*
X111105522Y-73705522D01*
X111009268Y-73830964D01*
X110948761Y-73977042D01*
X110928122Y-74133806D01*
X110937050Y-74201623D01*
X110926284Y-74270658D01*
X110901792Y-74305488D01*
X109844545Y-75362738D01*
X109783222Y-75396223D01*
X109756864Y-75399057D01*
X105489670Y-75399057D01*
X105478862Y-75398585D01*
X105441234Y-75395292D01*
X105404746Y-75405069D01*
X105394190Y-75407409D01*
X105355941Y-75414154D01*
X105331235Y-75424388D01*
X105299422Y-75446663D01*
X105290306Y-75452471D01*
X105257587Y-75471362D01*
X105233304Y-75500301D01*
X105225998Y-75508273D01*
X104888702Y-75845569D01*
X104827379Y-75879054D01*
X104784836Y-75880827D01*
X104717018Y-75871898D01*
X104560252Y-75892537D01*
X104551557Y-75896139D01*
X104482088Y-75903605D01*
X104419610Y-75872327D01*
X104383960Y-75812236D01*
X104386457Y-75742411D01*
X104416426Y-75693899D01*
X106421858Y-73688467D01*
X106483179Y-73654984D01*
X106520345Y-73652622D01*
X106539112Y-73654264D01*
X106575629Y-73644478D01*
X106586135Y-73642149D01*
X106623350Y-73635588D01*
X106623352Y-73635586D01*
X106624417Y-73635399D01*
X106649104Y-73625173D01*
X106649987Y-73624554D01*
X106649989Y-73624554D01*
X106680930Y-73602887D01*
X106690027Y-73597091D01*
X106722760Y-73578194D01*
X106747053Y-73549241D01*
X106754340Y-73541289D01*
X107151296Y-73144334D01*
X107159262Y-73137036D01*
X107203675Y-73099770D01*
X107267683Y-73071757D01*
X107330830Y-73080198D01*
X107463238Y-73135044D01*
X107620000Y-73155682D01*
X107776762Y-73135044D01*
X107922841Y-73074536D01*
X108048282Y-72978282D01*
X108144536Y-72852841D01*
X108205044Y-72706762D01*
X108225682Y-72550000D01*
X108205044Y-72393238D01*
X108144536Y-72247159D01*
X108131752Y-72230499D01*
X108048282Y-72121717D01*
X107922840Y-72025463D01*
X107776762Y-71964956D01*
X107619999Y-71944317D01*
X107463237Y-71964956D01*
X107317159Y-72025463D01*
X107191716Y-72121718D01*
X107152889Y-72172319D01*
X107096461Y-72213522D01*
X107086606Y-72216607D01*
X107034712Y-72230511D01*
X107024155Y-72232852D01*
X106986955Y-72239412D01*
X106986953Y-72239412D01*
X106985897Y-72239599D01*
X106961192Y-72249832D01*
X106929378Y-72272107D01*
X106920260Y-72277916D01*
X106875501Y-72303759D01*
X106807602Y-72320233D01*
X106741574Y-72297382D01*
X106715123Y-72271859D01*
X106638282Y-72171717D01*
X106512840Y-72075463D01*
X106366762Y-72014956D01*
X106209999Y-71994317D01*
X106053237Y-72014956D01*
X105907159Y-72075463D01*
X105781718Y-72171717D01*
X105747129Y-72216794D01*
X105690701Y-72257996D01*
X105620955Y-72262150D01*
X105560035Y-72227937D01*
X105534193Y-72188758D01*
X105528708Y-72175517D01*
X105504536Y-72117159D01*
X105504536Y-72117158D01*
X105408282Y-71991717D01*
X105282840Y-71895463D01*
X105136762Y-71834956D01*
X104980000Y-71814317D01*
X104823237Y-71834956D01*
X104677159Y-71895463D01*
X104551717Y-71991717D01*
X104455463Y-72117159D01*
X104394956Y-72263237D01*
X104394572Y-72266156D01*
X104366305Y-72330053D01*
X104307980Y-72368523D01*
X104238115Y-72369354D01*
X104178892Y-72332281D01*
X104157072Y-72297423D01*
X104150146Y-72280703D01*
X104144536Y-72267159D01*
X104074217Y-72175517D01*
X104048282Y-72141717D01*
X103922840Y-72045463D01*
X103776762Y-71984956D01*
X103619999Y-71964317D01*
X103463237Y-71984956D01*
X103317159Y-72045463D01*
X103191717Y-72141717D01*
X103095463Y-72267159D01*
X103034956Y-72413237D01*
X103014317Y-72570001D01*
X103016202Y-72584316D01*
X103005436Y-72653351D01*
X102959055Y-72705607D01*
X102893263Y-72724500D01*
X102651401Y-72724500D01*
X102584362Y-72704815D01*
X102538607Y-72652011D01*
X102528663Y-72582853D01*
X102536840Y-72553048D01*
X102548250Y-72525500D01*
X102566160Y-72482262D01*
X102586798Y-72325500D01*
X102566160Y-72168738D01*
X102505652Y-72022659D01*
X102483905Y-71994318D01*
X102409398Y-71897217D01*
X102283956Y-71800963D01*
X102137878Y-71740456D01*
X101981115Y-71719817D01*
X101824353Y-71740456D01*
X101678275Y-71800963D01*
X101552833Y-71897217D01*
X101456579Y-72022659D01*
X101396072Y-72168737D01*
X101388183Y-72228660D01*
X101359916Y-72292556D01*
X101301591Y-72331027D01*
X101231727Y-72331858D01*
X101172503Y-72294786D01*
X101166868Y-72287960D01*
X101080588Y-72175517D01*
X100955146Y-72079263D01*
X100809068Y-72018756D01*
X100652305Y-71998117D01*
X100495543Y-72018756D01*
X100349465Y-72079263D01*
X100224023Y-72175517D01*
X100127769Y-72300959D01*
X100067262Y-72447037D01*
X100046623Y-72603799D01*
X100067262Y-72760562D01*
X100127769Y-72906640D01*
X100224023Y-73032082D01*
X100312237Y-73099770D01*
X100349465Y-73128336D01*
X100495544Y-73188844D01*
X100631667Y-73206764D01*
X100652305Y-73209482D01*
X100652305Y-73209481D01*
X100652306Y-73209482D01*
X100720124Y-73200553D01*
X100789159Y-73211318D01*
X100823991Y-73235811D01*
X100854456Y-73266276D01*
X100861764Y-73274250D01*
X100886051Y-73303194D01*
X100900772Y-73311693D01*
X100918762Y-73322080D01*
X100927885Y-73327892D01*
X100938341Y-73335213D01*
X100958822Y-73349554D01*
X100958823Y-73349554D01*
X100959704Y-73350171D01*
X100984397Y-73360400D01*
X100985460Y-73360587D01*
X100985461Y-73360588D01*
X101022649Y-73367145D01*
X101033212Y-73369487D01*
X101069698Y-73379264D01*
X101069698Y-73379263D01*
X101069699Y-73379264D01*
X101107325Y-73375971D01*
X101118133Y-73375500D01*
X103120373Y-73375500D01*
X103131180Y-73375971D01*
X103168807Y-73379264D01*
X103205324Y-73369478D01*
X103215830Y-73367149D01*
X103253045Y-73360588D01*
X103253047Y-73360586D01*
X103254112Y-73360399D01*
X103278799Y-73350173D01*
X103279682Y-73349554D01*
X103279684Y-73349554D01*
X103310625Y-73327887D01*
X103319722Y-73322091D01*
X103352455Y-73303194D01*
X103376748Y-73274241D01*
X103384036Y-73266288D01*
X103448315Y-73202009D01*
X103509636Y-73168526D01*
X103552180Y-73166753D01*
X103620000Y-73175682D01*
X103776762Y-73155044D01*
X103922841Y-73094536D01*
X104048282Y-72998282D01*
X104144536Y-72872841D01*
X104205044Y-72726762D01*
X104205427Y-72723845D01*
X104233689Y-72659952D01*
X104292012Y-72621478D01*
X104361877Y-72620643D01*
X104421102Y-72657712D01*
X104442926Y-72692575D01*
X104455462Y-72722839D01*
X104551717Y-72848282D01*
X104627773Y-72906641D01*
X104677159Y-72944536D01*
X104823238Y-73005044D01*
X104980000Y-73025682D01*
X105136762Y-73005044D01*
X105282841Y-72944536D01*
X105408282Y-72848282D01*
X105442869Y-72803206D01*
X105499296Y-72762004D01*
X105569042Y-72757849D01*
X105629963Y-72792061D01*
X105655806Y-72831241D01*
X105685463Y-72902840D01*
X105781717Y-73028282D01*
X105884370Y-73107050D01*
X105925573Y-73163478D01*
X105929728Y-73233224D01*
X105896565Y-73293107D01*
X100478388Y-78711286D01*
X100417065Y-78744771D01*
X100390707Y-78747605D01*
X92944522Y-78747605D01*
X92877483Y-78727920D01*
X92831728Y-78675116D01*
X92821784Y-78605958D01*
X92850809Y-78542402D01*
X92909587Y-78504628D01*
X92920326Y-78501988D01*
X93207987Y-78444769D01*
X93212795Y-78445199D01*
X93230253Y-78440583D01*
X93237738Y-78438851D01*
X93370276Y-78412488D01*
X93686701Y-78323247D01*
X93691852Y-78323302D01*
X93709863Y-78316971D01*
X93717287Y-78314620D01*
X93843001Y-78279166D01*
X94154342Y-78164305D01*
X94159805Y-78163934D01*
X94178163Y-78155790D01*
X94185521Y-78152803D01*
X94303808Y-78109165D01*
X94607973Y-77968942D01*
X94613703Y-77968098D01*
X94632191Y-77958068D01*
X94639411Y-77954450D01*
X94653426Y-77947989D01*
X94749857Y-77903534D01*
X95044773Y-77738372D01*
X95050729Y-77737010D01*
X95069146Y-77725032D01*
X95076126Y-77720814D01*
X95178397Y-77663540D01*
X95303423Y-77580000D01*
X97004817Y-77580000D01*
X97025456Y-77736762D01*
X97085963Y-77882840D01*
X97182217Y-78008282D01*
X97269989Y-78075631D01*
X97307659Y-78104536D01*
X97453738Y-78165044D01*
X97589860Y-78182964D01*
X97610499Y-78185682D01*
X97610499Y-78185681D01*
X97610500Y-78185682D01*
X97767262Y-78165044D01*
X97913341Y-78104536D01*
X98038782Y-78008282D01*
X98135036Y-77882841D01*
X98195544Y-77736762D01*
X98216182Y-77580000D01*
X98195544Y-77423238D01*
X98135036Y-77277159D01*
X98127575Y-77267436D01*
X98038782Y-77151717D01*
X97913340Y-77055463D01*
X97767262Y-76994956D01*
X97610499Y-76974317D01*
X97453737Y-76994956D01*
X97307659Y-77055463D01*
X97182217Y-77151717D01*
X97085963Y-77277159D01*
X97025456Y-77423237D01*
X97004817Y-77580000D01*
X95303423Y-77580000D01*
X95462003Y-77474040D01*
X95468137Y-77472119D01*
X95486247Y-77458176D01*
X95492987Y-77453337D01*
X95586787Y-77390663D01*
X95857081Y-77177579D01*
X95863340Y-77175064D01*
X95880915Y-77159156D01*
X95887349Y-77153718D01*
X95972507Y-77086585D01*
X96227520Y-76850852D01*
X96233842Y-76847716D01*
X96250653Y-76829871D01*
X96256718Y-76823862D01*
X96333181Y-76753181D01*
X96571014Y-76495894D01*
X96577340Y-76492110D01*
X96593174Y-76472370D01*
X96598830Y-76465803D01*
X96666585Y-76392507D01*
X96671661Y-76386069D01*
X96729954Y-76312124D01*
X96885413Y-76114924D01*
X96891672Y-76110478D01*
X96906302Y-76088934D01*
X96911509Y-76081823D01*
X96935360Y-76051568D01*
X96970663Y-76006787D01*
X97168754Y-75710321D01*
X97174880Y-75705202D01*
X97188105Y-75681940D01*
X97192789Y-75674350D01*
X97243540Y-75598397D01*
X97419277Y-75284596D01*
X97425195Y-75278803D01*
X97436818Y-75253949D01*
X97440935Y-75245922D01*
X97483534Y-75169857D01*
X97635409Y-74840411D01*
X97641054Y-74833944D01*
X97650896Y-74807631D01*
X97654430Y-74799155D01*
X97688145Y-74726021D01*
X97688154Y-74726000D01*
X97689165Y-74723808D01*
X97815795Y-74380562D01*
X97821097Y-74373426D01*
X97828994Y-74345794D01*
X97831881Y-74336958D01*
X97859166Y-74263001D01*
X97959313Y-73907904D01*
X97964198Y-73900121D01*
X97969998Y-73871337D01*
X97972204Y-73862196D01*
X97992488Y-73790276D01*
X98088310Y-73308548D01*
X98146040Y-72820787D01*
X98165323Y-72330000D01*
X98146040Y-71839213D01*
X98088310Y-71351452D01*
X97992488Y-70869724D01*
X97972211Y-70797829D01*
X97970000Y-70788669D01*
X97964811Y-70762919D01*
X97959314Y-70752100D01*
X97859166Y-70396999D01*
X97858321Y-70394710D01*
X97858317Y-70394696D01*
X97831887Y-70323055D01*
X97828995Y-70314208D01*
X97821922Y-70289459D01*
X97815796Y-70279439D01*
X97753296Y-70110027D01*
X97689165Y-69936192D01*
X97654436Y-69860860D01*
X97650905Y-69852386D01*
X97642075Y-69828777D01*
X97635409Y-69819587D01*
X97594109Y-69730000D01*
X97483534Y-69490143D01*
X97440946Y-69414098D01*
X97436823Y-69406058D01*
X97426382Y-69383733D01*
X97419277Y-69375405D01*
X97243540Y-69061603D01*
X97192799Y-68985664D01*
X97188109Y-68978065D01*
X97176213Y-68957141D01*
X97168754Y-68949678D01*
X97162287Y-68940000D01*
X96970663Y-68653213D01*
X96911503Y-68578169D01*
X96906303Y-68571068D01*
X96893127Y-68551663D01*
X96885414Y-68545076D01*
X96666585Y-68267493D01*
X96598832Y-68194198D01*
X96593177Y-68187633D01*
X96578896Y-68169829D01*
X96571013Y-68164104D01*
X96356196Y-67931717D01*
X96333181Y-67906819D01*
X96331394Y-67905167D01*
X96256749Y-67836165D01*
X96250665Y-67830139D01*
X96235478Y-67814018D01*
X96227518Y-67809145D01*
X95974296Y-67575068D01*
X95974285Y-67575059D01*
X95972507Y-67573415D01*
X95970601Y-67571913D01*
X95970583Y-67571897D01*
X95887374Y-67506301D01*
X95880924Y-67500851D01*
X95865031Y-67486464D01*
X95857082Y-67482421D01*
X95586787Y-67269337D01*
X95584755Y-67267979D01*
X95493006Y-67206674D01*
X95486249Y-67201824D01*
X95469856Y-67189202D01*
X95462003Y-67185959D01*
X95180418Y-66997810D01*
X95180411Y-66997805D01*
X95178397Y-66996460D01*
X95076172Y-66939211D01*
X95069158Y-66934973D01*
X95052465Y-66924117D01*
X95044774Y-66921627D01*
X94749857Y-66756466D01*
X94747649Y-66755448D01*
X94747641Y-66755444D01*
X94639429Y-66705558D01*
X94632210Y-66701940D01*
X94615429Y-66692835D01*
X94607974Y-66691057D01*
X94466943Y-66626041D01*
X94306000Y-66551845D01*
X94305988Y-66551840D01*
X94303808Y-66550835D01*
X94235037Y-66525464D01*
X94185537Y-66507202D01*
X94178172Y-66504213D01*
X94161491Y-66496813D01*
X94154340Y-66495693D01*
X93858012Y-66386372D01*
X93843001Y-66380834D01*
X93840671Y-66380177D01*
X93840653Y-66380171D01*
X93717347Y-66345396D01*
X93709885Y-66343035D01*
X93693498Y-66337275D01*
X93686701Y-66336753D01*
X93372624Y-66248174D01*
X93372619Y-66248172D01*
X93370276Y-66247512D01*
X93367895Y-66247038D01*
X93367881Y-66247035D01*
X93237771Y-66221155D01*
X93230266Y-66219419D01*
X93214372Y-66215216D01*
X93207988Y-66215230D01*
X92890938Y-66152165D01*
X92890928Y-66152163D01*
X92888548Y-66151690D01*
X92886138Y-66151404D01*
X92886127Y-66151403D01*
X92749819Y-66135270D01*
X92742324Y-66134150D01*
X92727115Y-66131399D01*
X92721180Y-66131880D01*
X92400787Y-66093960D01*
X92398355Y-66093864D01*
X92398337Y-66093863D01*
X92256571Y-66088293D01*
X92249136Y-66087777D01*
X92234762Y-66086343D01*
X92229312Y-66087222D01*
X91912444Y-66074773D01*
X91912443Y-66074773D01*
X91910000Y-66074677D01*
X91907557Y-66074773D01*
X91761104Y-66080527D01*
X91753771Y-66080598D01*
X91740413Y-66080332D01*
X91735470Y-66081534D01*
X91421663Y-66093863D01*
X91421644Y-66093864D01*
X91419213Y-66093960D01*
X91266469Y-66112038D01*
X91259305Y-66112675D01*
X91247109Y-66113403D01*
X91242706Y-66114850D01*
X90933872Y-66151403D01*
X90933857Y-66151405D01*
X90931452Y-66151690D01*
X90929075Y-66152162D01*
X90929061Y-66152165D01*
X90775935Y-66182624D01*
X90768949Y-66183808D01*
X90758010Y-66185340D01*
X90754142Y-66186959D01*
X90452118Y-66247035D01*
X90452098Y-66247039D01*
X90449724Y-66247512D01*
X90292426Y-66291874D01*
X90285689Y-66293571D01*
X90276119Y-66295698D01*
X90272783Y-66297414D01*
X89979346Y-66380171D01*
X89979320Y-66380179D01*
X89976999Y-66380834D01*
X89974743Y-66381666D01*
X89974710Y-66381677D01*
X89819059Y-66439100D01*
X89812584Y-66441288D01*
X89804461Y-66443785D01*
X89801652Y-66445522D01*
X89518455Y-66550000D01*
X89516192Y-66550835D01*
X89514019Y-66551836D01*
X89513999Y-66551845D01*
X89358794Y-66623396D01*
X89352621Y-66626041D01*
X89346005Y-66628666D01*
X89343707Y-66630351D01*
X89072349Y-66755448D01*
X89072327Y-66755458D01*
X89070143Y-66756466D01*
X88914509Y-66843625D01*
X88908700Y-66846678D01*
X88903589Y-66849193D01*
X88901776Y-66850755D01*
X88643729Y-66995269D01*
X88643721Y-66995273D01*
X88641603Y-66996460D01*
X88639588Y-66997806D01*
X88639569Y-66997818D01*
X88489040Y-67098398D01*
X88483572Y-67101850D01*
X88479981Y-67103987D01*
X88478623Y-67105358D01*
X88235244Y-67267979D01*
X88235228Y-67267990D01*
X88233213Y-67269337D01*
X88231307Y-67270839D01*
X88231294Y-67270849D01*
X88085035Y-67386151D01*
X88079954Y-67389950D01*
X88077849Y-67391440D01*
X88076902Y-67392562D01*
X87849404Y-67571907D01*
X87849381Y-67571926D01*
X87847493Y-67573415D01*
X87845712Y-67575060D01*
X87845703Y-67575069D01*
X87705077Y-67705062D01*
X87700412Y-67709163D01*
X87699702Y-67709755D01*
X87699114Y-67710575D01*
X87488604Y-67905168D01*
X87488591Y-67905180D01*
X87486819Y-67906819D01*
X87485180Y-67908591D01*
X87485180Y-67908592D01*
X87351534Y-68053169D01*
X87347938Y-68056870D01*
X87347611Y-68057413D01*
X87155068Y-68265703D01*
X87155047Y-68265726D01*
X87153415Y-68267493D01*
X87151926Y-68269381D01*
X87151907Y-68269404D01*
X87026629Y-68428319D01*
X87024737Y-68430603D01*
X87024581Y-68430915D01*
X86850858Y-68651281D01*
X86850833Y-68651314D01*
X86849337Y-68653213D01*
X86847990Y-68655228D01*
X86847979Y-68655244D01*
X86732485Y-68828094D01*
X86732083Y-68828665D01*
X86732053Y-68828741D01*
X86577810Y-69059581D01*
X86577798Y-69059600D01*
X86576460Y-69061603D01*
X86575281Y-69063709D01*
X86575269Y-69063728D01*
X86337657Y-69488014D01*
X86337647Y-69488034D01*
X86336466Y-69490143D01*
X86335454Y-69492338D01*
X86335449Y-69492348D01*
X86131845Y-69933999D01*
X86131836Y-69934020D01*
X86130835Y-69936192D01*
X86130004Y-69938442D01*
X86130000Y-69938454D01*
X85961675Y-70394719D01*
X85960834Y-70396999D01*
X85960179Y-70399320D01*
X85960171Y-70399346D01*
X85841897Y-70818717D01*
X85827512Y-70869724D01*
X85827039Y-70872098D01*
X85827035Y-70872118D01*
X85732165Y-71349061D01*
X85732162Y-71349075D01*
X85731690Y-71351452D01*
X85731405Y-71353857D01*
X85731403Y-71353872D01*
X85674248Y-71836776D01*
X85673960Y-71839213D01*
X85673864Y-71841644D01*
X85673863Y-71841663D01*
X85655246Y-72315516D01*
X85654677Y-72330000D01*
X85654773Y-72332443D01*
X85673863Y-72818336D01*
X85673864Y-72818353D01*
X85673960Y-72820787D01*
X85674247Y-72823214D01*
X85674248Y-72823223D01*
X85728524Y-73281806D01*
X85731690Y-73308548D01*
X85732163Y-73310928D01*
X85732165Y-73310938D01*
X85827035Y-73787881D01*
X85827038Y-73787895D01*
X85827512Y-73790276D01*
X85828172Y-73792617D01*
X85828174Y-73792624D01*
X85960171Y-74260653D01*
X85960177Y-74260670D01*
X85960834Y-74263001D01*
X86051458Y-74508647D01*
X86129005Y-74718849D01*
X86130835Y-74723808D01*
X86131840Y-74725988D01*
X86131845Y-74726000D01*
X86246735Y-74975215D01*
X86336466Y-75169857D01*
X86337649Y-75171970D01*
X86337657Y-75171985D01*
X86525988Y-75508273D01*
X86576460Y-75598397D01*
X86577813Y-75600422D01*
X86577818Y-75600430D01*
X86732051Y-75831258D01*
X86732067Y-75831312D01*
X86732480Y-75831899D01*
X86847050Y-76003364D01*
X86849337Y-76006787D01*
X86850848Y-76008704D01*
X86850849Y-76008705D01*
X87024580Y-76229082D01*
X87024676Y-76229322D01*
X87026622Y-76231672D01*
X87153415Y-76392507D01*
X87347611Y-76602587D01*
X87347817Y-76603003D01*
X87351513Y-76606808D01*
X87486819Y-76753181D01*
X87699114Y-76949424D01*
X87699502Y-76950074D01*
X87700382Y-76950809D01*
X87705054Y-76954916D01*
X87845703Y-77084931D01*
X87845712Y-77084938D01*
X87847493Y-77086585D01*
X88076903Y-77267438D01*
X88077545Y-77268341D01*
X88079934Y-77270034D01*
X88085014Y-77273832D01*
X88233213Y-77390663D01*
X88235245Y-77392020D01*
X88235244Y-77392020D01*
X88478622Y-77554640D01*
X88479558Y-77555761D01*
X88483558Y-77558141D01*
X88489021Y-77561588D01*
X88641603Y-77663540D01*
X88901777Y-77809245D01*
X88903041Y-77810536D01*
X88908689Y-77813315D01*
X88914515Y-77816378D01*
X89070143Y-77903534D01*
X89311507Y-78014804D01*
X89343706Y-78029648D01*
X89345328Y-78031064D01*
X89352608Y-78033953D01*
X89358782Y-78036598D01*
X89516192Y-78109165D01*
X89518449Y-78109997D01*
X89518462Y-78110003D01*
X89667658Y-78165044D01*
X89801650Y-78214476D01*
X89803653Y-78215964D01*
X89812562Y-78218703D01*
X89819025Y-78220886D01*
X89948745Y-78268742D01*
X89961987Y-78273628D01*
X89976999Y-78279166D01*
X89979350Y-78279829D01*
X89979353Y-78279830D01*
X90272781Y-78362585D01*
X90275182Y-78364091D01*
X90285674Y-78366424D01*
X90292427Y-78368125D01*
X90449724Y-78412488D01*
X90754141Y-78473040D01*
X90756951Y-78474510D01*
X90768928Y-78476188D01*
X90775892Y-78477367D01*
X90899670Y-78501988D01*
X90961581Y-78534373D01*
X90996155Y-78595089D01*
X90992414Y-78664859D01*
X90951548Y-78721530D01*
X90886530Y-78747112D01*
X90875478Y-78747605D01*
X88399293Y-78747605D01*
X88332254Y-78727920D01*
X88311612Y-78711286D01*
X84236819Y-74636493D01*
X84203334Y-74575170D01*
X84200500Y-74548812D01*
X84200500Y-73084618D01*
X84200972Y-73073810D01*
X84204263Y-73036191D01*
X84194486Y-72999704D01*
X84192144Y-72989140D01*
X84189808Y-72975889D01*
X84185588Y-72951955D01*
X84185587Y-72951954D01*
X84185400Y-72950891D01*
X84175173Y-72926201D01*
X84174554Y-72925317D01*
X84174554Y-72925316D01*
X84152878Y-72894360D01*
X84147085Y-72885266D01*
X84128194Y-72852545D01*
X84099261Y-72828267D01*
X84091286Y-72820959D01*
X83090519Y-71820192D01*
X82088905Y-70818579D01*
X82055421Y-70757257D01*
X82060405Y-70687565D01*
X82102277Y-70631632D01*
X82129135Y-70616338D01*
X82132257Y-70615044D01*
X82132262Y-70615044D01*
X82278341Y-70554536D01*
X82403782Y-70458282D01*
X82500036Y-70332841D01*
X82560544Y-70186762D01*
X82581182Y-70030000D01*
X82560544Y-69873238D01*
X82500036Y-69727159D01*
X82461661Y-69677147D01*
X82403782Y-69601717D01*
X82278340Y-69505463D01*
X82132262Y-69444956D01*
X81975500Y-69424317D01*
X81818737Y-69444956D01*
X81672659Y-69505463D01*
X81547217Y-69601717D01*
X81450964Y-69727158D01*
X81449787Y-69730000D01*
X81390457Y-69873237D01*
X81389161Y-69876365D01*
X81345320Y-69930768D01*
X81279026Y-69952833D01*
X81211327Y-69935554D01*
X81186919Y-69916593D01*
X80550237Y-69279911D01*
X80516752Y-69218588D01*
X80521736Y-69148896D01*
X80563608Y-69092963D01*
X80629072Y-69068546D01*
X80638643Y-69068232D01*
X85863300Y-69099724D01*
X85863300Y-69099723D01*
X85879291Y-69083912D01*
X85883133Y-69071080D01*
X85918204Y-69035565D01*
X85928226Y-69028867D01*
X85928231Y-69028867D01*
X85994552Y-68984552D01*
X86038867Y-68918231D01*
X86050500Y-68859748D01*
X86050500Y-65420283D01*
X86070185Y-65353244D01*
X86122989Y-65307489D01*
X86192147Y-65297545D01*
X86221945Y-65305720D01*
X86292740Y-65335044D01*
X86347255Y-65342221D01*
X86449501Y-65355682D01*
X86449501Y-65355681D01*
X86449502Y-65355682D01*
X86606264Y-65335044D01*
X86752343Y-65274536D01*
X86877784Y-65178282D01*
X86974038Y-65052841D01*
X87034546Y-64906762D01*
X87034546Y-64906758D01*
X87040233Y-64893030D01*
X87084073Y-64838626D01*
X87150367Y-64816561D01*
X87218067Y-64833840D01*
X87242474Y-64852800D01*
X87664209Y-65274536D01*
X87995955Y-65606282D01*
X88003263Y-65614256D01*
X88027545Y-65643194D01*
X88041003Y-65650963D01*
X88060261Y-65662083D01*
X88069382Y-65667894D01*
X88101195Y-65690169D01*
X88125901Y-65700402D01*
X88126954Y-65700587D01*
X88126955Y-65700588D01*
X88164143Y-65707145D01*
X88174701Y-65709484D01*
X88211193Y-65719263D01*
X88211193Y-65719262D01*
X88211194Y-65719263D01*
X88232086Y-65717435D01*
X88248811Y-65715971D01*
X88259618Y-65715500D01*
X94903812Y-65715500D01*
X94970851Y-65735185D01*
X94991492Y-65751818D01*
X98539252Y-69299579D01*
X98539253Y-69299580D01*
X98620420Y-69380747D01*
X98636809Y-69388389D01*
X98655516Y-69399190D01*
X98670316Y-69409553D01*
X98686136Y-69413791D01*
X98687760Y-69414227D01*
X98708073Y-69421620D01*
X98724454Y-69429259D01*
X98742465Y-69430834D01*
X98763737Y-69434585D01*
X98781193Y-69439263D01*
X98799194Y-69437688D01*
X98820795Y-69437688D01*
X98838807Y-69439264D01*
X98856263Y-69434585D01*
X98877551Y-69430833D01*
X98895545Y-69429259D01*
X98910857Y-69422119D01*
X98963263Y-69410500D01*
X106653507Y-69410500D01*
X106720546Y-69430185D01*
X106741187Y-69446818D01*
X107001320Y-69706952D01*
X107210650Y-69916282D01*
X107217958Y-69924256D01*
X107229843Y-69938420D01*
X107242240Y-69953194D01*
X107274961Y-69972085D01*
X107284055Y-69977878D01*
X107315011Y-69999554D01*
X107315012Y-69999554D01*
X107315896Y-70000173D01*
X107340586Y-70010400D01*
X107341649Y-70010587D01*
X107341650Y-70010588D01*
X107378841Y-70017145D01*
X107389399Y-70019486D01*
X107425886Y-70029263D01*
X107425887Y-70029262D01*
X107425888Y-70029263D01*
X107463506Y-70025971D01*
X107474313Y-70025500D01*
X110293617Y-70025500D01*
X110360656Y-70045185D01*
X110369103Y-70051124D01*
X110477159Y-70134038D01*
X110520234Y-70151880D01*
X110521578Y-70152437D01*
X110575981Y-70196278D01*
X110598046Y-70262572D01*
X110580767Y-70330271D01*
X110572502Y-70342483D01*
X110564655Y-70352709D01*
X110504148Y-70498787D01*
X110483509Y-70655550D01*
X110504148Y-70812312D01*
X110564655Y-70958390D01*
X110660909Y-71083832D01*
X110776909Y-71172841D01*
X110786351Y-71180086D01*
X110932430Y-71240594D01*
X111068552Y-71258514D01*
X111089191Y-71261232D01*
X111089191Y-71261231D01*
X111089192Y-71261232D01*
X111245954Y-71240594D01*
X111392033Y-71180086D01*
X111517474Y-71083832D01*
X111613728Y-70958391D01*
X111674236Y-70812312D01*
X111694874Y-70655550D01*
X111674236Y-70498788D01*
X111613728Y-70352709D01*
X111584185Y-70314208D01*
X111517474Y-70227267D01*
X111392034Y-70131014D01*
X111347612Y-70112614D01*
X111293209Y-70068772D01*
X111271145Y-70002478D01*
X111288425Y-69934779D01*
X111296685Y-69922573D01*
X111304536Y-69912343D01*
X111317933Y-69880000D01*
X111904317Y-69880000D01*
X111924956Y-70036762D01*
X111985463Y-70182840D01*
X112081717Y-70308282D01*
X112199681Y-70398798D01*
X112207159Y-70404536D01*
X112353238Y-70465044D01*
X112510000Y-70485682D01*
X112666762Y-70465044D01*
X112812841Y-70404536D01*
X112938282Y-70308282D01*
X113034536Y-70182841D01*
X113095044Y-70036762D01*
X113102517Y-69980000D01*
X121534317Y-69980000D01*
X121554956Y-70136762D01*
X121615463Y-70282840D01*
X121711717Y-70408282D01*
X121812588Y-70485682D01*
X121837159Y-70504536D01*
X121983238Y-70565044D01*
X122140000Y-70585682D01*
X122296762Y-70565044D01*
X122442841Y-70504536D01*
X122568282Y-70408282D01*
X122664536Y-70282841D01*
X122725044Y-70136762D01*
X122745682Y-69980000D01*
X122725044Y-69823238D01*
X122664536Y-69677159D01*
X122634092Y-69637483D01*
X122568282Y-69551717D01*
X122442840Y-69455463D01*
X122296762Y-69394956D01*
X122140000Y-69374317D01*
X121983237Y-69394956D01*
X121837159Y-69455463D01*
X121711717Y-69551717D01*
X121615463Y-69677159D01*
X121554956Y-69823237D01*
X121534317Y-69980000D01*
X113102517Y-69980000D01*
X113115682Y-69880000D01*
X113095044Y-69723238D01*
X113034536Y-69577159D01*
X113031527Y-69573237D01*
X112938282Y-69451717D01*
X112812840Y-69355463D01*
X112666762Y-69294956D01*
X112509999Y-69274317D01*
X112353237Y-69294956D01*
X112207159Y-69355463D01*
X112081717Y-69451717D01*
X111985463Y-69577159D01*
X111924956Y-69723237D01*
X111904317Y-69880000D01*
X111317933Y-69880000D01*
X111365044Y-69766264D01*
X111385682Y-69609502D01*
X111365044Y-69452740D01*
X111304536Y-69306661D01*
X111299102Y-69299579D01*
X111208282Y-69181219D01*
X111082840Y-69084965D01*
X110936762Y-69024458D01*
X110779999Y-69003819D01*
X110623237Y-69024458D01*
X110477159Y-69084965D01*
X110351717Y-69181219D01*
X110245526Y-69319612D01*
X110243110Y-69317758D01*
X110215233Y-69352354D01*
X110148939Y-69374421D01*
X110144510Y-69374500D01*
X107640884Y-69374500D01*
X107573845Y-69354815D01*
X107553203Y-69338181D01*
X107331327Y-69116305D01*
X107297842Y-69054982D01*
X107302826Y-68985290D01*
X107344698Y-68929357D01*
X107371554Y-68914063D01*
X107442841Y-68884536D01*
X107568282Y-68788282D01*
X107664536Y-68662841D01*
X107725044Y-68516762D01*
X107745682Y-68360000D01*
X107725044Y-68203238D01*
X107664536Y-68057159D01*
X107661474Y-68053169D01*
X107568282Y-67931717D01*
X107442840Y-67835463D01*
X107404448Y-67819561D01*
X107350044Y-67775721D01*
X107327979Y-67709427D01*
X107345258Y-67641727D01*
X107396395Y-67594116D01*
X107404448Y-67590439D01*
X107410213Y-67588050D01*
X107442841Y-67574536D01*
X107568282Y-67478282D01*
X107664536Y-67352841D01*
X107725044Y-67206762D01*
X107745682Y-67050000D01*
X107725044Y-66893238D01*
X107664536Y-66747159D01*
X107632615Y-66705558D01*
X107568282Y-66621717D01*
X107442840Y-66525463D01*
X107296762Y-66464956D01*
X107139999Y-66444317D01*
X106983237Y-66464956D01*
X106837159Y-66525463D01*
X106711717Y-66621717D01*
X106615463Y-66747159D01*
X106554956Y-66893237D01*
X106534317Y-67050000D01*
X106554956Y-67206762D01*
X106615463Y-67352840D01*
X106711717Y-67478282D01*
X106807970Y-67552139D01*
X106837159Y-67574536D01*
X106871287Y-67588672D01*
X106875552Y-67590439D01*
X106929955Y-67634280D01*
X106952020Y-67700574D01*
X106934741Y-67768273D01*
X106883604Y-67815884D01*
X106875552Y-67819561D01*
X106837158Y-67835464D01*
X106711717Y-67931717D01*
X106615463Y-68057159D01*
X106554956Y-68203237D01*
X106534317Y-68360000D01*
X106554956Y-68516762D01*
X106584483Y-68588048D01*
X106591952Y-68657518D01*
X106560676Y-68719997D01*
X106500587Y-68755648D01*
X106469922Y-68759500D01*
X98971189Y-68759500D01*
X98904150Y-68739815D01*
X98883508Y-68723181D01*
X98646847Y-68486520D01*
X98613362Y-68425197D01*
X98618346Y-68355505D01*
X98660218Y-68299572D01*
X98718343Y-68275900D01*
X98719999Y-68275681D01*
X98720000Y-68275682D01*
X98876762Y-68255044D01*
X99022841Y-68194536D01*
X99148282Y-68098282D01*
X99244536Y-67972841D01*
X99305044Y-67826762D01*
X99305934Y-67820000D01*
X104334317Y-67820000D01*
X104354956Y-67976762D01*
X104415463Y-68122840D01*
X104511717Y-68248282D01*
X104637159Y-68344535D01*
X104637159Y-68344536D01*
X104783238Y-68405044D01*
X104940000Y-68425682D01*
X105096762Y-68405044D01*
X105242841Y-68344536D01*
X105368282Y-68248282D01*
X105464536Y-68122841D01*
X105525044Y-67976762D01*
X105545682Y-67820000D01*
X105525044Y-67663238D01*
X105464536Y-67517159D01*
X105456204Y-67506301D01*
X105368282Y-67391717D01*
X105242840Y-67295463D01*
X105096762Y-67234956D01*
X104940000Y-67214317D01*
X104783237Y-67234956D01*
X104637159Y-67295463D01*
X104511717Y-67391717D01*
X104415463Y-67517159D01*
X104354956Y-67663237D01*
X104334317Y-67820000D01*
X99305934Y-67820000D01*
X99325682Y-67670000D01*
X99305044Y-67513238D01*
X99244536Y-67367159D01*
X99148281Y-67241716D01*
X99104013Y-67207748D01*
X99062811Y-67151320D01*
X99055500Y-67109373D01*
X99055500Y-64385477D01*
X99075185Y-64318438D01*
X99091814Y-64297800D01*
X99977819Y-63411795D01*
X100039142Y-63378311D01*
X100108834Y-63383295D01*
X100164767Y-63425167D01*
X100189184Y-63490631D01*
X100189500Y-63499477D01*
X100189499Y-63893420D01*
X100189500Y-63893434D01*
X100189500Y-63897658D01*
X100190075Y-63901842D01*
X100190076Y-63901855D01*
X100204930Y-64009920D01*
X100265219Y-64148719D01*
X100360721Y-64266107D01*
X100484354Y-64353378D01*
X100574673Y-64385477D01*
X100626944Y-64404054D01*
X100777921Y-64414381D01*
X100777921Y-64414380D01*
X100777922Y-64414381D01*
X100827622Y-64404053D01*
X100926085Y-64383592D01*
X101060447Y-64313971D01*
X101171044Y-64210680D01*
X101223219Y-64124881D01*
X101274870Y-64077830D01*
X101343760Y-64066172D01*
X101408017Y-64093609D01*
X101447240Y-64151431D01*
X101453167Y-64189310D01*
X101453167Y-64471080D01*
X101433482Y-64538119D01*
X101404655Y-64569455D01*
X101350384Y-64611099D01*
X101254130Y-64736540D01*
X101193623Y-64882618D01*
X101172984Y-65039381D01*
X101193623Y-65196143D01*
X101254130Y-65342221D01*
X101350384Y-65467663D01*
X101475826Y-65563916D01*
X101475826Y-65563917D01*
X101621905Y-65624425D01*
X101778667Y-65645063D01*
X101935429Y-65624425D01*
X102081508Y-65563917D01*
X102206949Y-65467663D01*
X102303203Y-65342222D01*
X102363711Y-65196143D01*
X102384349Y-65039381D01*
X102363711Y-64882619D01*
X102303203Y-64736540D01*
X102206949Y-64611099D01*
X102152679Y-64569455D01*
X102111477Y-64513027D01*
X102104167Y-64471080D01*
X102104167Y-63100000D01*
X102654389Y-63100000D01*
X102674804Y-63385429D01*
X102735629Y-63665041D01*
X102735631Y-63665046D01*
X102823956Y-63901855D01*
X102835634Y-63933163D01*
X102972772Y-64184313D01*
X103021161Y-64248953D01*
X103144261Y-64413395D01*
X103346605Y-64615739D01*
X103507976Y-64736540D01*
X103575686Y-64787227D01*
X103695776Y-64852801D01*
X103826839Y-64924367D01*
X104094954Y-65024369D01*
X104094957Y-65024369D01*
X104094958Y-65024370D01*
X104147217Y-65035738D01*
X104374572Y-65085196D01*
X104660000Y-65105610D01*
X104945428Y-65085196D01*
X105225046Y-65024369D01*
X105493161Y-64924367D01*
X105744315Y-64787226D01*
X105973395Y-64615739D01*
X106175739Y-64413395D01*
X106347226Y-64184315D01*
X106484367Y-63933161D01*
X106584369Y-63665046D01*
X106645196Y-63385428D01*
X106665610Y-63100000D01*
X106645196Y-62814572D01*
X106584369Y-62534954D01*
X106484367Y-62266839D01*
X106403847Y-62119378D01*
X106347227Y-62015686D01*
X106275958Y-61920482D01*
X106175739Y-61786605D01*
X105973395Y-61584261D01*
X105828059Y-61475464D01*
X105744313Y-61412772D01*
X105493163Y-61275634D01*
X105493162Y-61275633D01*
X105493161Y-61275633D01*
X105300492Y-61203771D01*
X105225041Y-61175629D01*
X104945429Y-61114804D01*
X104660000Y-61094389D01*
X104374570Y-61114804D01*
X104094958Y-61175629D01*
X103826836Y-61275634D01*
X103575686Y-61412772D01*
X103346602Y-61584263D01*
X103144263Y-61786602D01*
X102972772Y-62015686D01*
X102835634Y-62266836D01*
X102735629Y-62534958D01*
X102674804Y-62814570D01*
X102654389Y-63100000D01*
X102104167Y-63100000D01*
X102104167Y-61987521D01*
X102123852Y-61920482D01*
X102140486Y-61899840D01*
X103508508Y-60531819D01*
X103569831Y-60498334D01*
X103596189Y-60495500D01*
X105370373Y-60495500D01*
X105381180Y-60495971D01*
X105418807Y-60499264D01*
X105455324Y-60489478D01*
X105465830Y-60487149D01*
X105503045Y-60480588D01*
X105503047Y-60480586D01*
X105504112Y-60480399D01*
X105528799Y-60470173D01*
X105529682Y-60469554D01*
X105529684Y-60469554D01*
X105560625Y-60447887D01*
X105569722Y-60442091D01*
X105602455Y-60423194D01*
X105626748Y-60394241D01*
X105634036Y-60386288D01*
X108021290Y-57999034D01*
X108029258Y-57991734D01*
X108030094Y-57991033D01*
X108041317Y-57981615D01*
X108058192Y-57967457D01*
X108058192Y-57967456D01*
X108058194Y-57967455D01*
X108077091Y-57934722D01*
X108082887Y-57925625D01*
X108104554Y-57894684D01*
X108104554Y-57894682D01*
X108105173Y-57893799D01*
X108115399Y-57869112D01*
X108115586Y-57868047D01*
X108115588Y-57868045D01*
X108122149Y-57830830D01*
X108124478Y-57820324D01*
X108134264Y-57783807D01*
X108132628Y-57765112D01*
X108130972Y-57746176D01*
X108130500Y-57735369D01*
X108130500Y-56191188D01*
X108150185Y-56124149D01*
X108166819Y-56103507D01*
X108808508Y-55461819D01*
X108869831Y-55428334D01*
X108896189Y-55425500D01*
X109411701Y-55425500D01*
X109478740Y-55445185D01*
X109510076Y-55474013D01*
X109551718Y-55528282D01*
X109677159Y-55624536D01*
X109823238Y-55685044D01*
X109980000Y-55705682D01*
X110136762Y-55685044D01*
X110282841Y-55624536D01*
X110408282Y-55528282D01*
X110422093Y-55510282D01*
X110478519Y-55469079D01*
X110548265Y-55464922D01*
X110609187Y-55499133D01*
X110618846Y-55510281D01*
X110701717Y-55618282D01*
X110820205Y-55709200D01*
X110827159Y-55714536D01*
X110973238Y-55775044D01*
X111130000Y-55795682D01*
X111286762Y-55775044D01*
X111427692Y-55716668D01*
X111497158Y-55709200D01*
X111559638Y-55740475D01*
X111595290Y-55800564D01*
X111598081Y-55815043D01*
X111604956Y-55867260D01*
X111665463Y-56013338D01*
X111761717Y-56138780D01*
X111873431Y-56224500D01*
X111887159Y-56235034D01*
X112033238Y-56295542D01*
X112190000Y-56316180D01*
X112346762Y-56295542D01*
X112492841Y-56235034D01*
X112618282Y-56138780D01*
X112714536Y-56013339D01*
X112775044Y-55867260D01*
X112795682Y-55710498D01*
X112775044Y-55553736D01*
X112714536Y-55407657D01*
X112697149Y-55384998D01*
X112618282Y-55282215D01*
X112492840Y-55185961D01*
X112346762Y-55125454D01*
X112190000Y-55104815D01*
X112033237Y-55125454D01*
X111892309Y-55183828D01*
X111822840Y-55191297D01*
X111760361Y-55160022D01*
X111724709Y-55099932D01*
X111721918Y-55085452D01*
X111720319Y-55073308D01*
X111715044Y-55033238D01*
X111654536Y-54887159D01*
X111631586Y-54857250D01*
X111558282Y-54761717D01*
X111432840Y-54665463D01*
X111286762Y-54604956D01*
X111130000Y-54584317D01*
X110973237Y-54604956D01*
X110827159Y-54665463D01*
X110701718Y-54761717D01*
X110687904Y-54779720D01*
X110631475Y-54820922D01*
X110561729Y-54825076D01*
X110500809Y-54790862D01*
X110491153Y-54779718D01*
X110408282Y-54671717D01*
X110282840Y-54575463D01*
X110136762Y-54514956D01*
X109980000Y-54494317D01*
X109823237Y-54514956D01*
X109677159Y-54575463D01*
X109551718Y-54671717D01*
X109510077Y-54725986D01*
X109453650Y-54767189D01*
X109411701Y-54774500D01*
X108729619Y-54774500D01*
X108718812Y-54774028D01*
X108716298Y-54773808D01*
X108681191Y-54770736D01*
X108644710Y-54780511D01*
X108634155Y-54782852D01*
X108622814Y-54784851D01*
X108596955Y-54789412D01*
X108596953Y-54789412D01*
X108595897Y-54789599D01*
X108571192Y-54799832D01*
X108539378Y-54822107D01*
X108530261Y-54827915D01*
X108497545Y-54846804D01*
X108473262Y-54875743D01*
X108465956Y-54883715D01*
X107672180Y-55677492D01*
X107610857Y-55710977D01*
X107541166Y-55705993D01*
X107485232Y-55664121D01*
X107460815Y-55598657D01*
X107460499Y-55589811D01*
X107460499Y-53620000D01*
X109954317Y-53620000D01*
X109974956Y-53776762D01*
X110035463Y-53922840D01*
X110131717Y-54048282D01*
X110233246Y-54126187D01*
X110257159Y-54144536D01*
X110403238Y-54205044D01*
X110560000Y-54225682D01*
X110716762Y-54205044D01*
X110862841Y-54144536D01*
X110988282Y-54048282D01*
X111084536Y-53922841D01*
X111145044Y-53776762D01*
X111165682Y-53620000D01*
X111145044Y-53463238D01*
X111084536Y-53317159D01*
X111053407Y-53276591D01*
X110988282Y-53191717D01*
X110862840Y-53095463D01*
X110716762Y-53034956D01*
X110560000Y-53014317D01*
X110403237Y-53034956D01*
X110257159Y-53095463D01*
X110131717Y-53191717D01*
X110035463Y-53317159D01*
X109974956Y-53463237D01*
X109954317Y-53620000D01*
X107460499Y-53620000D01*
X107460499Y-52760000D01*
X108084317Y-52760000D01*
X108104956Y-52916762D01*
X108165463Y-53062840D01*
X108261717Y-53188282D01*
X108365976Y-53268282D01*
X108387159Y-53284536D01*
X108533238Y-53345044D01*
X108690000Y-53365682D01*
X108846762Y-53345044D01*
X108992841Y-53284536D01*
X109118282Y-53188282D01*
X109214536Y-53062841D01*
X109275044Y-52916762D01*
X109295682Y-52760000D01*
X109275044Y-52603238D01*
X109214536Y-52457159D01*
X109206551Y-52446753D01*
X109118282Y-52331717D01*
X108992840Y-52235463D01*
X108846762Y-52174956D01*
X108689999Y-52154317D01*
X108533237Y-52174956D01*
X108387159Y-52235463D01*
X108261717Y-52331717D01*
X108165463Y-52457159D01*
X108104956Y-52603237D01*
X108084317Y-52760000D01*
X107460499Y-52760000D01*
X107460499Y-47048647D01*
X107460541Y-47040003D01*
X107460540Y-47040001D01*
X107460541Y-47040000D01*
X107460383Y-47039617D01*
X107460379Y-47039615D01*
X107460097Y-47039499D01*
X107460000Y-47039459D01*
X107435446Y-47039459D01*
X107435240Y-47039500D01*
X98484760Y-47039500D01*
X98484554Y-47039459D01*
X98459999Y-47039459D01*
X98459900Y-47039500D01*
X98459618Y-47039615D01*
X98459615Y-47039618D01*
X98459459Y-47039999D01*
X98459476Y-47064616D01*
X98459471Y-47064616D01*
X98459500Y-47064759D01*
X98459500Y-54053916D01*
X98439815Y-54120955D01*
X98387011Y-54166710D01*
X98317853Y-54176654D01*
X98254297Y-54147629D01*
X98220939Y-54101369D01*
X98215046Y-54087143D01*
X98201276Y-54053899D01*
X98171394Y-54014956D01*
X98105022Y-53928457D01*
X97979580Y-53832203D01*
X97833502Y-53771696D01*
X97676739Y-53751057D01*
X97519977Y-53771696D01*
X97373899Y-53832203D01*
X97248457Y-53928457D01*
X97152203Y-54053899D01*
X97091696Y-54199977D01*
X97071057Y-54356739D01*
X97091695Y-54513499D01*
X97091695Y-54513501D01*
X97091696Y-54513502D01*
X97117361Y-54575463D01*
X97123388Y-54590013D01*
X97130856Y-54659483D01*
X97099580Y-54721962D01*
X97077719Y-54740566D01*
X97055448Y-54755447D01*
X97011132Y-54821769D01*
X97000107Y-54877200D01*
X96999500Y-54880252D01*
X96999500Y-55219748D01*
X97002340Y-55234026D01*
X97010651Y-55275809D01*
X97010651Y-55324188D01*
X96999500Y-55380251D01*
X96999500Y-55380252D01*
X96999500Y-55719748D01*
X97004113Y-55742939D01*
X97010651Y-55775810D01*
X97010651Y-55824190D01*
X97009215Y-55831412D01*
X96999500Y-55880252D01*
X96999500Y-56219748D01*
X97006522Y-56255050D01*
X97010651Y-56275809D01*
X97010651Y-56324188D01*
X96999500Y-56380251D01*
X96999500Y-56719748D01*
X97011132Y-56778230D01*
X97055447Y-56844552D01*
X97121769Y-56888867D01*
X97180251Y-56900500D01*
X97180252Y-56900500D01*
X97839749Y-56900500D01*
X97922422Y-56884055D01*
X97922654Y-56885221D01*
X97953637Y-56875520D01*
X97955851Y-56875500D01*
X99202507Y-56875500D01*
X99269546Y-56895185D01*
X99315301Y-56947989D01*
X99317068Y-56952047D01*
X99330255Y-56983883D01*
X99426508Y-57109324D01*
X99551948Y-57205577D01*
X99551949Y-57205577D01*
X99551950Y-57205578D01*
X99622736Y-57234898D01*
X99677137Y-57278737D01*
X99699203Y-57345031D01*
X99681925Y-57412730D01*
X99662963Y-57437139D01*
X99158111Y-57941992D01*
X99096788Y-57975477D01*
X99027097Y-57970493D01*
X98982749Y-57941992D01*
X98369474Y-57328717D01*
X98362165Y-57320741D01*
X98337885Y-57291805D01*
X98305167Y-57272915D01*
X98296058Y-57267112D01*
X98265115Y-57245446D01*
X98264234Y-57244829D01*
X98239538Y-57234599D01*
X98201283Y-57227853D01*
X98190727Y-57225512D01*
X98154238Y-57215735D01*
X98116611Y-57219028D01*
X98105803Y-57219500D01*
X92547304Y-57219500D01*
X92480265Y-57199815D01*
X92459623Y-57183181D01*
X92413141Y-57136699D01*
X92379656Y-57075376D01*
X92384640Y-57005684D01*
X92426512Y-56949751D01*
X92433769Y-56944711D01*
X92531128Y-56882143D01*
X92550357Y-56859952D01*
X92617778Y-56782143D01*
X92625377Y-56773373D01*
X92685165Y-56642457D01*
X92705647Y-56500000D01*
X92685165Y-56357543D01*
X92679232Y-56344552D01*
X92625376Y-56226625D01*
X92531129Y-56117858D01*
X92531128Y-56117857D01*
X92410053Y-56040047D01*
X92271961Y-55999500D01*
X92128039Y-55999500D01*
X91989945Y-56040047D01*
X91946538Y-56067943D01*
X91879498Y-56087627D01*
X91812459Y-56067941D01*
X91766705Y-56015137D01*
X91755500Y-55963627D01*
X91755500Y-53959615D01*
X91755972Y-53948807D01*
X91759263Y-53911194D01*
X91749485Y-53874703D01*
X91747144Y-53864140D01*
X91740400Y-53825891D01*
X91730173Y-53801201D01*
X91729554Y-53800317D01*
X91729554Y-53800316D01*
X91707878Y-53769360D01*
X91702085Y-53760266D01*
X91683194Y-53727545D01*
X91654261Y-53703267D01*
X91646286Y-53695959D01*
X90825827Y-52875500D01*
X89972010Y-52021684D01*
X89938526Y-51960362D01*
X89936753Y-51917818D01*
X89945682Y-51850000D01*
X89929983Y-51730755D01*
X89940748Y-51661721D01*
X89987128Y-51609465D01*
X90054397Y-51590580D01*
X90100373Y-51600009D01*
X90233238Y-51655044D01*
X90390000Y-51675682D01*
X90546762Y-51655044D01*
X90692841Y-51594536D01*
X90818282Y-51498282D01*
X90914536Y-51372841D01*
X90975044Y-51226762D01*
X90995682Y-51070000D01*
X90975044Y-50913238D01*
X90914536Y-50767159D01*
X90866884Y-50705057D01*
X90818282Y-50641717D01*
X90692840Y-50545463D01*
X90546762Y-50484956D01*
X90390000Y-50464317D01*
X90233237Y-50484956D01*
X90087159Y-50545463D01*
X89961717Y-50641717D01*
X89865463Y-50767159D01*
X89804956Y-50913237D01*
X89784317Y-51070000D01*
X89800016Y-51189243D01*
X89789250Y-51258278D01*
X89742870Y-51310534D01*
X89675601Y-51329419D01*
X89629625Y-51319989D01*
X89496762Y-51264956D01*
X89340000Y-51244317D01*
X89183237Y-51264956D01*
X89037159Y-51325463D01*
X88911717Y-51421717D01*
X88815463Y-51547159D01*
X88754956Y-51693237D01*
X88734317Y-51850000D01*
X88754956Y-52006762D01*
X88815463Y-52152840D01*
X88911717Y-52278282D01*
X89020243Y-52361556D01*
X89037159Y-52374536D01*
X89183238Y-52435044D01*
X89319361Y-52452964D01*
X89339999Y-52455682D01*
X89339999Y-52455681D01*
X89340000Y-52455682D01*
X89407818Y-52446753D01*
X89476853Y-52457518D01*
X89511684Y-52482011D01*
X91068182Y-54038508D01*
X91101666Y-54099829D01*
X91104500Y-54126187D01*
X91104500Y-55837921D01*
X91084815Y-55904960D01*
X91032011Y-55950715D01*
X90962853Y-55960659D01*
X90913464Y-55942239D01*
X90910053Y-55940047D01*
X90771961Y-55899500D01*
X90628039Y-55899500D01*
X90489947Y-55940047D01*
X90368870Y-56017858D01*
X90274623Y-56126625D01*
X90219754Y-56246770D01*
X90173999Y-56299574D01*
X90106959Y-56319258D01*
X90039920Y-56299573D01*
X89994165Y-56246768D01*
X89992399Y-56242710D01*
X89944536Y-56127159D01*
X89848282Y-56001717D01*
X89722840Y-55905463D01*
X89576762Y-55844956D01*
X89419999Y-55824317D01*
X89352180Y-55833246D01*
X89283144Y-55822480D01*
X89248314Y-55797988D01*
X87773166Y-54322840D01*
X86788239Y-53337912D01*
X86754755Y-53276591D01*
X86759739Y-53206899D01*
X86801611Y-53150966D01*
X86867075Y-53126549D01*
X86892105Y-53127293D01*
X86990000Y-53140182D01*
X87146762Y-53119544D01*
X87292841Y-53059036D01*
X87418282Y-52962782D01*
X87514536Y-52837341D01*
X87575044Y-52691262D01*
X87595682Y-52534500D01*
X87575044Y-52377738D01*
X87514536Y-52231659D01*
X87473319Y-52177944D01*
X87418282Y-52106217D01*
X87292840Y-52009963D01*
X87146762Y-51949456D01*
X86990000Y-51928817D01*
X86833237Y-51949456D01*
X86687159Y-52009963D01*
X86561717Y-52106217D01*
X86467876Y-52228515D01*
X86411448Y-52269718D01*
X86341702Y-52273873D01*
X86280782Y-52239661D01*
X86248029Y-52177944D01*
X86245500Y-52153029D01*
X86245500Y-47398299D01*
X86265185Y-47331260D01*
X86294014Y-47299923D01*
X86348282Y-47258282D01*
X86444536Y-47132841D01*
X86505044Y-46986762D01*
X86525682Y-46830000D01*
X86505044Y-46673238D01*
X86444536Y-46527159D01*
X86379200Y-46442011D01*
X86348282Y-46401717D01*
X86222840Y-46305463D01*
X86076762Y-46244956D01*
X85920000Y-46224317D01*
X85763237Y-46244956D01*
X85617159Y-46305463D01*
X85491717Y-46401717D01*
X85395463Y-46527159D01*
X85334956Y-46673237D01*
X85314317Y-46830000D01*
X85334956Y-46986762D01*
X85395463Y-47132840D01*
X85462930Y-47220764D01*
X85491718Y-47258282D01*
X85513326Y-47274862D01*
X85545986Y-47299923D01*
X85587189Y-47356350D01*
X85594500Y-47398299D01*
X85594500Y-52910372D01*
X85594028Y-52921180D01*
X85590735Y-52958807D01*
X85600512Y-52995296D01*
X85602853Y-53005852D01*
X85609599Y-53044107D01*
X85619829Y-53068803D01*
X85620446Y-53069684D01*
X85642112Y-53100627D01*
X85647915Y-53109736D01*
X85666806Y-53142455D01*
X85695742Y-53166735D01*
X85703718Y-53174044D01*
X88217493Y-55687819D01*
X88250978Y-55749142D01*
X88245994Y-55818834D01*
X88204122Y-55874767D01*
X88138658Y-55899184D01*
X88129812Y-55899500D01*
X88028039Y-55899500D01*
X87889947Y-55940047D01*
X87768870Y-56017858D01*
X87674623Y-56126625D01*
X87614834Y-56257542D01*
X87594353Y-56400000D01*
X87614834Y-56542457D01*
X87674623Y-56673374D01*
X87765481Y-56778230D01*
X87768872Y-56782143D01*
X87889947Y-56859953D01*
X88028039Y-56900500D01*
X88171961Y-56900500D01*
X88310053Y-56859953D01*
X88431128Y-56782143D01*
X88525377Y-56673373D01*
X88585165Y-56542457D01*
X88585164Y-56542457D01*
X88592572Y-56526239D01*
X88594006Y-56526894D01*
X88613390Y-56484447D01*
X88672167Y-56446670D01*
X88742037Y-56446668D01*
X88800816Y-56484440D01*
X88829843Y-56547995D01*
X88830045Y-56549460D01*
X88834956Y-56586762D01*
X88895463Y-56732840D01*
X88991717Y-56858282D01*
X89066239Y-56915464D01*
X89117159Y-56954536D01*
X89263238Y-57015044D01*
X89420000Y-57035682D01*
X89576762Y-57015044D01*
X89722841Y-56954536D01*
X89848282Y-56858282D01*
X89944536Y-56732841D01*
X90005044Y-56586762D01*
X90005044Y-56586758D01*
X90005431Y-56585825D01*
X90049271Y-56531421D01*
X90115565Y-56509356D01*
X90183265Y-56526635D01*
X90230875Y-56577772D01*
X90232786Y-56581765D01*
X90274622Y-56673371D01*
X90274623Y-56673373D01*
X90368872Y-56782143D01*
X90368873Y-56782144D01*
X90380548Y-56795617D01*
X90380210Y-56795909D01*
X90413292Y-56834084D01*
X90424500Y-56885601D01*
X90424500Y-57020656D01*
X90422117Y-57044847D01*
X90419103Y-57059999D01*
X90422117Y-57075151D01*
X90422117Y-57075155D01*
X90440483Y-57167493D01*
X90462080Y-57199815D01*
X90468528Y-57209465D01*
X90482230Y-57229971D01*
X90501376Y-57258624D01*
X90514222Y-57267207D01*
X90533011Y-57282627D01*
X91818203Y-58567819D01*
X91851688Y-58629142D01*
X91846704Y-58698834D01*
X91804832Y-58754767D01*
X91739368Y-58779184D01*
X91730522Y-58779500D01*
X89124628Y-58779500D01*
X89113820Y-58779028D01*
X89076192Y-58775735D01*
X89039704Y-58785512D01*
X89029148Y-58787852D01*
X88990899Y-58794597D01*
X88966193Y-58804831D01*
X88934380Y-58827106D01*
X88925264Y-58832914D01*
X88892545Y-58851805D01*
X88868262Y-58880744D01*
X88860956Y-58888716D01*
X88398714Y-59350958D01*
X88390741Y-59358264D01*
X88361806Y-59382544D01*
X88342914Y-59415264D01*
X88337106Y-59424380D01*
X88314831Y-59456193D01*
X88304597Y-59480899D01*
X88297852Y-59519148D01*
X88295512Y-59529704D01*
X88285735Y-59566191D01*
X88289028Y-59603817D01*
X88289500Y-59614626D01*
X88289500Y-60184116D01*
X88269815Y-60251155D01*
X88253181Y-60271797D01*
X87616798Y-60908181D01*
X87555475Y-60941666D01*
X87529117Y-60944500D01*
X87348685Y-60944500D01*
X87281646Y-60924815D01*
X87235891Y-60872011D01*
X87225746Y-60836686D01*
X87219373Y-60788282D01*
X87205544Y-60683238D01*
X87145036Y-60537159D01*
X87145035Y-60537158D01*
X87048783Y-60411718D01*
X87032413Y-60399158D01*
X86991209Y-60342730D01*
X86987054Y-60272984D01*
X87009519Y-60225298D01*
X87088138Y-60122841D01*
X87148646Y-59976762D01*
X87169284Y-59820000D01*
X87148646Y-59663238D01*
X87088138Y-59517159D01*
X87060315Y-59480899D01*
X86991884Y-59391717D01*
X86866442Y-59295463D01*
X86720364Y-59234956D01*
X86563602Y-59214317D01*
X86406839Y-59234956D01*
X86260761Y-59295463D01*
X86249985Y-59303732D01*
X86184815Y-59328925D01*
X86116371Y-59314886D01*
X86066382Y-59266071D01*
X86050500Y-59205355D01*
X86050500Y-56120251D01*
X86038867Y-56061769D01*
X86024387Y-56040099D01*
X85994552Y-55995448D01*
X85988578Y-55991456D01*
X85943773Y-55937843D01*
X85941813Y-55928302D01*
X85933299Y-55919725D01*
X85933300Y-55919724D01*
X81756302Y-55910583D01*
X81689306Y-55890752D01*
X81643667Y-55837849D01*
X81633875Y-55768668D01*
X81663039Y-55705176D01*
X81681088Y-55688208D01*
X81798282Y-55598282D01*
X81815822Y-55575423D01*
X81894536Y-55472841D01*
X81955044Y-55326762D01*
X81975682Y-55170000D01*
X81955044Y-55013238D01*
X81894536Y-54867159D01*
X81861641Y-54824289D01*
X81788344Y-54728766D01*
X81790624Y-54727016D01*
X81764077Y-54690659D01*
X81759923Y-54620913D01*
X81794136Y-54559993D01*
X81805281Y-54550336D01*
X81812838Y-54544537D01*
X81812841Y-54544536D01*
X81938282Y-54448282D01*
X82034536Y-54322841D01*
X82095044Y-54176762D01*
X82115682Y-54020000D01*
X82095044Y-53863238D01*
X82034536Y-53717159D01*
X82018269Y-53695959D01*
X81938282Y-53591717D01*
X81812840Y-53495463D01*
X81666762Y-53434956D01*
X81510000Y-53414317D01*
X81353237Y-53434956D01*
X81207159Y-53495463D01*
X81081717Y-53591717D01*
X80985463Y-53717159D01*
X80924956Y-53863237D01*
X80904317Y-54020000D01*
X80924956Y-54176762D01*
X80985463Y-54322840D01*
X81091656Y-54461234D01*
X81089375Y-54462983D01*
X81115921Y-54499337D01*
X81120076Y-54569083D01*
X81085865Y-54630004D01*
X81074718Y-54639663D01*
X80941717Y-54741717D01*
X80845463Y-54867159D01*
X80784956Y-55013237D01*
X80764317Y-55170000D01*
X80784956Y-55326762D01*
X80845463Y-55472840D01*
X80941717Y-55598282D01*
X81056700Y-55686511D01*
X81097903Y-55742939D01*
X81102058Y-55812685D01*
X81067846Y-55873605D01*
X81006129Y-55906358D01*
X80980943Y-55908887D01*
X78814644Y-55904147D01*
X78747647Y-55884316D01*
X78702008Y-55831412D01*
X78692216Y-55762231D01*
X78693298Y-55755955D01*
X78700500Y-55719748D01*
X78700500Y-54680251D01*
X78688867Y-54621769D01*
X78644552Y-54555447D01*
X78578230Y-54511132D01*
X78519749Y-54499500D01*
X78519748Y-54499500D01*
X77480252Y-54499500D01*
X77480251Y-54499500D01*
X77421769Y-54511132D01*
X77355447Y-54555447D01*
X77311132Y-54621769D01*
X77299500Y-54680251D01*
X77299500Y-55719748D01*
X77305992Y-55752386D01*
X77299765Y-55821978D01*
X77256902Y-55877155D01*
X77191012Y-55900400D01*
X77184104Y-55900578D01*
X72508740Y-55890347D01*
X72441743Y-55870515D01*
X72396104Y-55817612D01*
X72386312Y-55748431D01*
X72415476Y-55684939D01*
X72433520Y-55667974D01*
X72498282Y-55618282D01*
X72594536Y-55492841D01*
X72655044Y-55346762D01*
X72675682Y-55190000D01*
X72655044Y-55033238D01*
X72594536Y-54887159D01*
X72571586Y-54857250D01*
X72498282Y-54761717D01*
X72372840Y-54665463D01*
X72226762Y-54604956D01*
X72070000Y-54584317D01*
X71913237Y-54604956D01*
X71767159Y-54665463D01*
X71641717Y-54761717D01*
X71545463Y-54887159D01*
X71484956Y-55033237D01*
X71464317Y-55190000D01*
X71484956Y-55346762D01*
X71545463Y-55492840D01*
X71626371Y-55598282D01*
X71641718Y-55618282D01*
X71653094Y-55627011D01*
X71703964Y-55666045D01*
X71745166Y-55722473D01*
X71749321Y-55792219D01*
X71715108Y-55853140D01*
X71653391Y-55885892D01*
X71628206Y-55888421D01*
X68124229Y-55880753D01*
X68057232Y-55860921D01*
X68011593Y-55808018D01*
X68000500Y-55756753D01*
X68000500Y-54900000D01*
X69774317Y-54900000D01*
X69794956Y-55056762D01*
X69855463Y-55202840D01*
X69951717Y-55328282D01*
X70077159Y-55424536D01*
X70223238Y-55485044D01*
X70380000Y-55505682D01*
X70536762Y-55485044D01*
X70682841Y-55424536D01*
X70808282Y-55328282D01*
X70904536Y-55202841D01*
X70965044Y-55056762D01*
X70985682Y-54900000D01*
X70965044Y-54743238D01*
X70904536Y-54597159D01*
X70894682Y-54584317D01*
X70808282Y-54471717D01*
X70682840Y-54375463D01*
X70536762Y-54314956D01*
X70380000Y-54294317D01*
X70223237Y-54314956D01*
X70077159Y-54375463D01*
X69951717Y-54471717D01*
X69855463Y-54597159D01*
X69794956Y-54743237D01*
X69774317Y-54900000D01*
X68000500Y-54900000D01*
X68000500Y-53024759D01*
X68000528Y-53024616D01*
X68000524Y-53024616D01*
X68000539Y-53000002D01*
X68000541Y-53000000D01*
X68000462Y-52999808D01*
X68000384Y-52999618D01*
X68000383Y-52999617D01*
X68000379Y-52999615D01*
X68000097Y-52999499D01*
X68000000Y-52999459D01*
X67975446Y-52999459D01*
X67975240Y-52999500D01*
X65124500Y-52999500D01*
X65057461Y-52979815D01*
X65011706Y-52927011D01*
X65000500Y-52875500D01*
X65000500Y-51475889D01*
X73999416Y-51475889D01*
X73999459Y-51500000D01*
X73999501Y-51500101D01*
X73999616Y-51500382D01*
X73999618Y-51500384D01*
X73999808Y-51500462D01*
X74000000Y-51500541D01*
X74000002Y-51500539D01*
X74024616Y-51500524D01*
X74024616Y-51500528D01*
X74024760Y-51500500D01*
X74975240Y-51500500D01*
X74975383Y-51500528D01*
X74975384Y-51500524D01*
X74999997Y-51500539D01*
X75000000Y-51500541D01*
X75000383Y-51500383D01*
X75000500Y-51500099D01*
X75000541Y-51500000D01*
X75000540Y-51499997D01*
X75000583Y-51475889D01*
X75000500Y-51475467D01*
X75000500Y-50949999D01*
X81244591Y-50949999D01*
X81264197Y-51211627D01*
X81322580Y-51467418D01*
X81416007Y-51705464D01*
X81418432Y-51711643D01*
X81453580Y-51772522D01*
X81540595Y-51923237D01*
X81549614Y-51938857D01*
X81713195Y-52143981D01*
X81713197Y-52143983D01*
X81713198Y-52143984D01*
X81905514Y-52322428D01*
X81905520Y-52322432D01*
X81905521Y-52322433D01*
X82122296Y-52470228D01*
X82358677Y-52584063D01*
X82609385Y-52661396D01*
X82868818Y-52700500D01*
X83131182Y-52700500D01*
X83390615Y-52661396D01*
X83641323Y-52584063D01*
X83877704Y-52470228D01*
X84094479Y-52322433D01*
X84094482Y-52322429D01*
X84094485Y-52322428D01*
X84186811Y-52236762D01*
X84286805Y-52143981D01*
X84450386Y-51938857D01*
X84581568Y-51711643D01*
X84677420Y-51467416D01*
X84735802Y-51211630D01*
X84755408Y-50950000D01*
X84735802Y-50688370D01*
X84677420Y-50432584D01*
X84676991Y-50431492D01*
X84638273Y-50332840D01*
X84581568Y-50188357D01*
X84450386Y-49961143D01*
X84286805Y-49756019D01*
X84286801Y-49756015D01*
X84094485Y-49577571D01*
X84066869Y-49558743D01*
X83877704Y-49429772D01*
X83641323Y-49315937D01*
X83390615Y-49238604D01*
X83131182Y-49199500D01*
X82868818Y-49199500D01*
X82609385Y-49238604D01*
X82358677Y-49315937D01*
X82122296Y-49429772D01*
X82052922Y-49477070D01*
X81905514Y-49577571D01*
X81713198Y-49756015D01*
X81549613Y-49961143D01*
X81418431Y-50188358D01*
X81322580Y-50432581D01*
X81264197Y-50688372D01*
X81244591Y-50949999D01*
X75000500Y-50949999D01*
X75000500Y-46000000D01*
X77994389Y-46000000D01*
X78014804Y-46285429D01*
X78075629Y-46565041D01*
X78075631Y-46565046D01*
X78161187Y-46794431D01*
X78175634Y-46833163D01*
X78312772Y-47084313D01*
X78369645Y-47160286D01*
X78484261Y-47313395D01*
X78686605Y-47515739D01*
X78858415Y-47644354D01*
X78915686Y-47687227D01*
X79055435Y-47763535D01*
X79166839Y-47824367D01*
X79434954Y-47924369D01*
X79434957Y-47924369D01*
X79434958Y-47924370D01*
X79487217Y-47935738D01*
X79714572Y-47985196D01*
X80000000Y-48005610D01*
X80285428Y-47985196D01*
X80565046Y-47924369D01*
X80833161Y-47824367D01*
X81084315Y-47687226D01*
X81313395Y-47515739D01*
X81515739Y-47313395D01*
X81687226Y-47084315D01*
X81824367Y-46833161D01*
X81924369Y-46565046D01*
X81985196Y-46285428D01*
X82005610Y-46000000D01*
X81985196Y-45714572D01*
X81935738Y-45487217D01*
X81924370Y-45434958D01*
X81924369Y-45434954D01*
X81824367Y-45166839D01*
X81737955Y-45008588D01*
X81687227Y-44915686D01*
X81625830Y-44833670D01*
X81515739Y-44686605D01*
X81313395Y-44484261D01*
X81101072Y-44325318D01*
X81084313Y-44312772D01*
X80833163Y-44175634D01*
X80833162Y-44175633D01*
X80833161Y-44175633D01*
X80616770Y-44094923D01*
X80565041Y-44075629D01*
X80285429Y-44014804D01*
X80000000Y-43994389D01*
X79714570Y-44014804D01*
X79434958Y-44075629D01*
X79166836Y-44175634D01*
X78915686Y-44312772D01*
X78686602Y-44484263D01*
X78484263Y-44686602D01*
X78312772Y-44915686D01*
X78175634Y-45166836D01*
X78075629Y-45434958D01*
X78014804Y-45714570D01*
X77994389Y-46000000D01*
X75000500Y-46000000D01*
X75000500Y-43848807D01*
X92200735Y-43848807D01*
X92210512Y-43885296D01*
X92212853Y-43895852D01*
X92219599Y-43934107D01*
X92229829Y-43958803D01*
X92230446Y-43959684D01*
X92252112Y-43990627D01*
X92257915Y-43999736D01*
X92276806Y-44032455D01*
X92305742Y-44056735D01*
X92313718Y-44064044D01*
X93887988Y-45638314D01*
X93921473Y-45699637D01*
X93923246Y-45742180D01*
X93914317Y-45809999D01*
X93923246Y-45877818D01*
X93912480Y-45946853D01*
X93887988Y-45981684D01*
X92713214Y-47156458D01*
X92705241Y-47163764D01*
X92676306Y-47188044D01*
X92657414Y-47220764D01*
X92651606Y-47229880D01*
X92629331Y-47261693D01*
X92619099Y-47286395D01*
X92612353Y-47324649D01*
X92610013Y-47335204D01*
X92600236Y-47371694D01*
X92603527Y-47409316D01*
X92603999Y-47420121D01*
X92603999Y-52109955D01*
X92584314Y-52176994D01*
X92555487Y-52208329D01*
X92501219Y-52249971D01*
X92404963Y-52375415D01*
X92344456Y-52521493D01*
X92323817Y-52678256D01*
X92344456Y-52835018D01*
X92404963Y-52981096D01*
X92501217Y-53106538D01*
X92596316Y-53179509D01*
X92626659Y-53202792D01*
X92772738Y-53263300D01*
X92908861Y-53281220D01*
X92929499Y-53283938D01*
X92929499Y-53283937D01*
X92929500Y-53283938D01*
X93086262Y-53263300D01*
X93232341Y-53202792D01*
X93357782Y-53106538D01*
X93454036Y-52981097D01*
X93514544Y-52835018D01*
X93535182Y-52678256D01*
X93514544Y-52521494D01*
X93454036Y-52375415D01*
X93357782Y-52249974D01*
X93340564Y-52236762D01*
X93303512Y-52208330D01*
X93262310Y-52151902D01*
X93255000Y-52109955D01*
X93255000Y-47586686D01*
X93274685Y-47519647D01*
X93291314Y-47499010D01*
X94348315Y-46442009D01*
X94409636Y-46408526D01*
X94452180Y-46406753D01*
X94520000Y-46415682D01*
X94676762Y-46395044D01*
X94822841Y-46334536D01*
X94948282Y-46238282D01*
X95044536Y-46112841D01*
X95105044Y-45966762D01*
X95125682Y-45810000D01*
X95105044Y-45653238D01*
X95044536Y-45507159D01*
X95003161Y-45453238D01*
X94948282Y-45381717D01*
X94822840Y-45285463D01*
X94676762Y-45224956D01*
X94519999Y-45204317D01*
X94452180Y-45213246D01*
X94383144Y-45202480D01*
X94348314Y-45177988D01*
X93813021Y-44642695D01*
X93036798Y-43866471D01*
X93003315Y-43805151D01*
X93008299Y-43735459D01*
X93036798Y-43691114D01*
X94303855Y-42424057D01*
X94365176Y-42390574D01*
X94434868Y-42395558D01*
X94490801Y-42437430D01*
X94515005Y-42500299D01*
X94523602Y-42593083D01*
X94579418Y-42789251D01*
X94670324Y-42971818D01*
X94793236Y-43134580D01*
X94943958Y-43271981D01*
X95099408Y-43368231D01*
X95117363Y-43379348D01*
X95307544Y-43453024D01*
X95508024Y-43490500D01*
X95508026Y-43490500D01*
X95711974Y-43490500D01*
X95711976Y-43490500D01*
X95912456Y-43453024D01*
X96102637Y-43379348D01*
X96276041Y-43271981D01*
X96426764Y-43134579D01*
X96549673Y-42971821D01*
X96549673Y-42971819D01*
X96549675Y-42971818D01*
X96624800Y-42820944D01*
X96640582Y-42789250D01*
X96696397Y-42593083D01*
X96715215Y-42390000D01*
X96696397Y-42186917D01*
X96640582Y-41990750D01*
X96628879Y-41967247D01*
X96549675Y-41808181D01*
X96426763Y-41645419D01*
X96276041Y-41508018D01*
X96102638Y-41400652D01*
X95912456Y-41326976D01*
X95712736Y-41289642D01*
X95650455Y-41257974D01*
X95615182Y-41197661D01*
X95618116Y-41127853D01*
X95647838Y-41080074D01*
X98575254Y-38152658D01*
X98636575Y-38119175D01*
X98706267Y-38124159D01*
X98762200Y-38166031D01*
X98777494Y-38192889D01*
X98835463Y-38332840D01*
X98931717Y-38458282D01*
X99044787Y-38545043D01*
X99057159Y-38554536D01*
X99203238Y-38615044D01*
X99360000Y-38635682D01*
X99516762Y-38615044D01*
X99662841Y-38554536D01*
X99788282Y-38458282D01*
X99884536Y-38332841D01*
X99945044Y-38186762D01*
X99965682Y-38030000D01*
X99945044Y-37873238D01*
X99884536Y-37727159D01*
X99884536Y-37727158D01*
X99788282Y-37601717D01*
X99662840Y-37505463D01*
X99522889Y-37447494D01*
X99468485Y-37403653D01*
X99446420Y-37337359D01*
X99463699Y-37269660D01*
X99482655Y-37245257D01*
X99931094Y-36796819D01*
X99992418Y-36763334D01*
X100018776Y-36760500D01*
X100792696Y-36760500D01*
X100859735Y-36780185D01*
X100880377Y-36796819D01*
X101248689Y-37165131D01*
X101282174Y-37226454D01*
X101277190Y-37296146D01*
X101235318Y-37352079D01*
X101197767Y-37367374D01*
X101198320Y-37368709D01*
X101037159Y-37435463D01*
X100911717Y-37531717D01*
X100815463Y-37657159D01*
X100754956Y-37803237D01*
X100734317Y-37960000D01*
X100743246Y-38027818D01*
X100732480Y-38096853D01*
X100707988Y-38131684D01*
X97998893Y-40840779D01*
X97937570Y-40874264D01*
X97867878Y-40869280D01*
X97811945Y-40827408D01*
X97796654Y-40800558D01*
X97774536Y-40747159D01*
X97774534Y-40747156D01*
X97678282Y-40621717D01*
X97552840Y-40525463D01*
X97406762Y-40464956D01*
X97250000Y-40444317D01*
X97093237Y-40464956D01*
X96947159Y-40525463D01*
X96821717Y-40621717D01*
X96725463Y-40747159D01*
X96664956Y-40893237D01*
X96644317Y-41050000D01*
X96664956Y-41206762D01*
X96725463Y-41352840D01*
X96821717Y-41478282D01*
X96947159Y-41574536D01*
X97038042Y-41612181D01*
X97092446Y-41656022D01*
X97114511Y-41722316D01*
X97112706Y-41748278D01*
X97102853Y-41804148D01*
X97100512Y-41814704D01*
X97090735Y-41851191D01*
X97094028Y-41888817D01*
X97094500Y-41899626D01*
X97094500Y-44046488D01*
X97094028Y-44057296D01*
X97090735Y-44094923D01*
X97100512Y-44131412D01*
X97102853Y-44141968D01*
X97109599Y-44180223D01*
X97119830Y-44204921D01*
X97142104Y-44236732D01*
X97147914Y-44245851D01*
X97166806Y-44278571D01*
X97195735Y-44302846D01*
X97203710Y-44310153D01*
X97303181Y-44409623D01*
X97336666Y-44470946D01*
X97339500Y-44497305D01*
X97339500Y-44642695D01*
X97319815Y-44709734D01*
X97303185Y-44730371D01*
X97224293Y-44809264D01*
X97203714Y-44829843D01*
X97195741Y-44837148D01*
X97166806Y-44861428D01*
X97147914Y-44894148D01*
X97142106Y-44903264D01*
X97119831Y-44935077D01*
X97109597Y-44959783D01*
X97102852Y-44998032D01*
X97100512Y-45008588D01*
X97090735Y-45045075D01*
X97094028Y-45082701D01*
X97094500Y-45093510D01*
X97094500Y-46300372D01*
X97094028Y-46311180D01*
X97090642Y-46349875D01*
X97094500Y-46379180D01*
X97094500Y-50343811D01*
X97074815Y-50410850D01*
X97058181Y-50431492D01*
X93521684Y-53967988D01*
X93460361Y-54001473D01*
X93417818Y-54003246D01*
X93350000Y-53994317D01*
X93193237Y-54014956D01*
X93047159Y-54075463D01*
X92921717Y-54171717D01*
X92825463Y-54297159D01*
X92764956Y-54443237D01*
X92744317Y-54600000D01*
X92764956Y-54756762D01*
X92825463Y-54902840D01*
X92921717Y-55028282D01*
X93015094Y-55099932D01*
X93047159Y-55124536D01*
X93193238Y-55185044D01*
X93315738Y-55201171D01*
X93350583Y-55205759D01*
X93414480Y-55234026D01*
X93452951Y-55292350D01*
X93453782Y-55362215D01*
X93422080Y-55416379D01*
X93326774Y-55511685D01*
X93276028Y-55620512D01*
X93270034Y-55666045D01*
X93269500Y-55670099D01*
X93269500Y-55674151D01*
X93269500Y-55674152D01*
X93269500Y-56025840D01*
X93269500Y-56025855D01*
X93269501Y-56029900D01*
X93270029Y-56033916D01*
X93270030Y-56033921D01*
X93276028Y-56079488D01*
X93326776Y-56188317D01*
X93411683Y-56273224D01*
X93459543Y-56295541D01*
X93520513Y-56323972D01*
X93570099Y-56330500D01*
X93989900Y-56330499D01*
X94039487Y-56323972D01*
X94148316Y-56273224D01*
X94233224Y-56188316D01*
X94283972Y-56079487D01*
X94290500Y-56029901D01*
X94290499Y-55851187D01*
X94310183Y-55784148D01*
X94326813Y-55763511D01*
X94393729Y-55696595D01*
X94455050Y-55663112D01*
X94524742Y-55668096D01*
X94528860Y-55669717D01*
X94615689Y-55705682D01*
X94679673Y-55732185D01*
X94836435Y-55752823D01*
X94993197Y-55732185D01*
X95013998Y-55723568D01*
X95083465Y-55716100D01*
X95145944Y-55747375D01*
X95181597Y-55807463D01*
X95183067Y-55862320D01*
X95179500Y-55880253D01*
X95179500Y-56219748D01*
X95191132Y-56278230D01*
X95235447Y-56344552D01*
X95301769Y-56388867D01*
X95360251Y-56400500D01*
X95360252Y-56400500D01*
X96019749Y-56400500D01*
X96048989Y-56394683D01*
X96078231Y-56388867D01*
X96144552Y-56344552D01*
X96188867Y-56278231D01*
X96200500Y-56219748D01*
X96200500Y-55880252D01*
X96188867Y-55821769D01*
X96163729Y-55784148D01*
X96144552Y-55755447D01*
X96078230Y-55711132D01*
X96019749Y-55699500D01*
X96019748Y-55699500D01*
X95420957Y-55699500D01*
X95353918Y-55679815D01*
X95308163Y-55627011D01*
X95298219Y-55557853D01*
X95322581Y-55500014D01*
X95361714Y-55449014D01*
X95418141Y-55407811D01*
X95460090Y-55400500D01*
X96019749Y-55400500D01*
X96048989Y-55394683D01*
X96078231Y-55388867D01*
X96144552Y-55344552D01*
X96188867Y-55278231D01*
X96200500Y-55219748D01*
X96200500Y-54880252D01*
X96188867Y-54821769D01*
X96172104Y-54796682D01*
X96144552Y-54755447D01*
X96078230Y-54711132D01*
X96019749Y-54699500D01*
X96019748Y-54699500D01*
X95360252Y-54699500D01*
X95360250Y-54699500D01*
X95319453Y-54707615D01*
X95249862Y-54701388D01*
X95219776Y-54684374D01*
X95139275Y-54622604D01*
X94993197Y-54562097D01*
X94836435Y-54541458D01*
X94679672Y-54562097D01*
X94533594Y-54622604D01*
X94408152Y-54718858D01*
X94301962Y-54857250D01*
X94300414Y-54856062D01*
X94283813Y-54876659D01*
X94284457Y-54877200D01*
X94246121Y-54922885D01*
X94238814Y-54930858D01*
X93836491Y-55333181D01*
X93775168Y-55366666D01*
X93748810Y-55369500D01*
X93684834Y-55369500D01*
X93617795Y-55349815D01*
X93572040Y-55297011D01*
X93562096Y-55227853D01*
X93591121Y-55164297D01*
X93637382Y-55130939D01*
X93652841Y-55124536D01*
X93778282Y-55028282D01*
X93874536Y-54902841D01*
X93935044Y-54756762D01*
X93955682Y-54600000D01*
X93952452Y-54575464D01*
X93946753Y-54532180D01*
X93957518Y-54463144D01*
X93982008Y-54428316D01*
X97636296Y-50774029D01*
X97644249Y-50766741D01*
X97673194Y-50742455D01*
X97692082Y-50709738D01*
X97697881Y-50700635D01*
X97719554Y-50669684D01*
X97719554Y-50669682D01*
X97720173Y-50668799D01*
X97730398Y-50644112D01*
X97730585Y-50643049D01*
X97730588Y-50643045D01*
X97737150Y-50605822D01*
X97739479Y-50595316D01*
X97749263Y-50558807D01*
X97748889Y-50554536D01*
X97745972Y-50521187D01*
X97745500Y-50510380D01*
X97745500Y-46784500D01*
X97765185Y-46717461D01*
X97817989Y-46671706D01*
X97869500Y-46660500D01*
X109879000Y-46660500D01*
X109946039Y-46680185D01*
X109986394Y-46722513D01*
X109988525Y-46726205D01*
X109999829Y-46753498D01*
X110000446Y-46754379D01*
X110022112Y-46785322D01*
X110027915Y-46794431D01*
X110046806Y-46827150D01*
X110050202Y-46830000D01*
X110075742Y-46851430D01*
X110083718Y-46858739D01*
X111427456Y-48202477D01*
X111460941Y-48263800D01*
X111455957Y-48333492D01*
X111414085Y-48389425D01*
X111387228Y-48404719D01*
X111279929Y-48449163D01*
X111154488Y-48545417D01*
X111058234Y-48670859D01*
X110997727Y-48816937D01*
X110977088Y-48973700D01*
X110997727Y-49130462D01*
X111058234Y-49276540D01*
X111154488Y-49401982D01*
X111279929Y-49498236D01*
X111279930Y-49498236D01*
X111426009Y-49558744D01*
X111582771Y-49579382D01*
X111739533Y-49558744D01*
X111885612Y-49498236D01*
X112011053Y-49401982D01*
X112107307Y-49276541D01*
X112151750Y-49169244D01*
X112195592Y-49114840D01*
X112261886Y-49092775D01*
X112329585Y-49110054D01*
X112353993Y-49129015D01*
X114598672Y-51373694D01*
X114632157Y-51435017D01*
X114627173Y-51504709D01*
X114585301Y-51560642D01*
X114558444Y-51575936D01*
X114487158Y-51605463D01*
X114361717Y-51701717D01*
X114265463Y-51827159D01*
X114204956Y-51973237D01*
X114184317Y-52130000D01*
X114204956Y-52286762D01*
X114265463Y-52432840D01*
X114361717Y-52558282D01*
X114429475Y-52610274D01*
X114487159Y-52654536D01*
X114633238Y-52715044D01*
X114790000Y-52735682D01*
X114946762Y-52715044D01*
X115092841Y-52654536D01*
X115218282Y-52558282D01*
X115314536Y-52432841D01*
X115344063Y-52361555D01*
X115387903Y-52307152D01*
X115454197Y-52285087D01*
X115521897Y-52302366D01*
X115546305Y-52321327D01*
X115835252Y-52610274D01*
X115868737Y-52671597D01*
X115863753Y-52741289D01*
X115862133Y-52745405D01*
X115854599Y-52763594D01*
X115833960Y-52920357D01*
X115854599Y-53077119D01*
X115915106Y-53223197D01*
X116011360Y-53348639D01*
X116110933Y-53425043D01*
X116136802Y-53444893D01*
X116282881Y-53505401D01*
X116439643Y-53526039D01*
X116596405Y-53505401D01*
X116742484Y-53444893D01*
X116867925Y-53348639D01*
X116964179Y-53223198D01*
X116970663Y-53207542D01*
X117014501Y-53153141D01*
X117080794Y-53131074D01*
X117148494Y-53148351D01*
X117183600Y-53179509D01*
X117251717Y-53268282D01*
X117377159Y-53364535D01*
X117377159Y-53364536D01*
X117523238Y-53425044D01*
X117680000Y-53445682D01*
X117836762Y-53425044D01*
X117982841Y-53364536D01*
X118108282Y-53268282D01*
X118204536Y-53142841D01*
X118265044Y-52996762D01*
X118285682Y-52840000D01*
X118265044Y-52683238D01*
X118204536Y-52537159D01*
X118162220Y-52482011D01*
X118108282Y-52411717D01*
X117982840Y-52315463D01*
X117836762Y-52254956D01*
X117680000Y-52234317D01*
X117523237Y-52254956D01*
X117413057Y-52300594D01*
X117343588Y-52308063D01*
X117281109Y-52276788D01*
X117277924Y-52273714D01*
X115034210Y-50030000D01*
X116019817Y-50030000D01*
X116040456Y-50186762D01*
X116100963Y-50332840D01*
X116197217Y-50458282D01*
X116310835Y-50545463D01*
X116322659Y-50554536D01*
X116468738Y-50615044D01*
X116604861Y-50632964D01*
X116625499Y-50635682D01*
X116625499Y-50635681D01*
X116625500Y-50635682D01*
X116693318Y-50626753D01*
X116762353Y-50637518D01*
X116797185Y-50662011D01*
X121236794Y-55101620D01*
X121270279Y-55162943D01*
X121265295Y-55232635D01*
X121239461Y-55267580D01*
X121241656Y-55269264D01*
X121135463Y-55407657D01*
X121074956Y-55553735D01*
X121054317Y-55710497D01*
X121074956Y-55867260D01*
X121135463Y-56013338D01*
X121231717Y-56138780D01*
X121343431Y-56224500D01*
X121357159Y-56235034D01*
X121503238Y-56295542D01*
X121660000Y-56316180D01*
X121816762Y-56295542D01*
X121962841Y-56235034D01*
X122088282Y-56138780D01*
X122129923Y-56084511D01*
X122186350Y-56043309D01*
X122228299Y-56035998D01*
X123699875Y-56035998D01*
X123710682Y-56036469D01*
X123748309Y-56039762D01*
X123784809Y-56029981D01*
X123795340Y-56027646D01*
X123801200Y-56026612D01*
X123838905Y-56025790D01*
X123990000Y-56045682D01*
X124146762Y-56025044D01*
X124292841Y-55964536D01*
X124418282Y-55868282D01*
X124514536Y-55742841D01*
X124575044Y-55596762D01*
X124595682Y-55440000D01*
X124575044Y-55283238D01*
X124514536Y-55137159D01*
X124514535Y-55137158D01*
X124418282Y-55011717D01*
X124292840Y-54915463D01*
X124146762Y-54854956D01*
X123989999Y-54834317D01*
X123833237Y-54854956D01*
X123687159Y-54915463D01*
X123561717Y-55011717D01*
X123465464Y-55137158D01*
X123437081Y-55205682D01*
X123404957Y-55283237D01*
X123398709Y-55298320D01*
X123396760Y-55297512D01*
X123377485Y-55341082D01*
X123319160Y-55379552D01*
X123282814Y-55384998D01*
X122228299Y-55384998D01*
X122161260Y-55365313D01*
X122129923Y-55336484D01*
X122088282Y-55282215D01*
X122034013Y-55240574D01*
X121992810Y-55184146D01*
X121985499Y-55142198D01*
X121985499Y-55084096D01*
X121985969Y-55073336D01*
X121989263Y-55035693D01*
X121982839Y-55011718D01*
X121979486Y-54999204D01*
X121977144Y-54988640D01*
X121970400Y-54950391D01*
X121960173Y-54925701D01*
X121959554Y-54924817D01*
X121959554Y-54924816D01*
X121937878Y-54893860D01*
X121932085Y-54884766D01*
X121913194Y-54852045D01*
X121906950Y-54846806D01*
X121884261Y-54827767D01*
X121876286Y-54820459D01*
X119577320Y-52521493D01*
X119135827Y-52080000D01*
X120584317Y-52080000D01*
X120604956Y-52236762D01*
X120665463Y-52382840D01*
X120761717Y-52508282D01*
X120860478Y-52584063D01*
X120887159Y-52604536D01*
X121033238Y-52665044D01*
X121190000Y-52685682D01*
X121346762Y-52665044D01*
X121492841Y-52604536D01*
X121618282Y-52508282D01*
X121714536Y-52382841D01*
X121775044Y-52236762D01*
X121775934Y-52229999D01*
X122724317Y-52229999D01*
X122744956Y-52386762D01*
X122805463Y-52532840D01*
X122901717Y-52658282D01*
X123002588Y-52735682D01*
X123027159Y-52754536D01*
X123173238Y-52815044D01*
X123330000Y-52835682D01*
X123486762Y-52815044D01*
X123619650Y-52760000D01*
X124144317Y-52760000D01*
X124164956Y-52916762D01*
X124225463Y-53062840D01*
X124321717Y-53188282D01*
X124425976Y-53268282D01*
X124447159Y-53284536D01*
X124593238Y-53345044D01*
X124750000Y-53365682D01*
X124906762Y-53345044D01*
X125052841Y-53284536D01*
X125178282Y-53188282D01*
X125274536Y-53062841D01*
X125335044Y-52916762D01*
X125355682Y-52760000D01*
X125335044Y-52603238D01*
X125274536Y-52457159D01*
X125266551Y-52446753D01*
X125178282Y-52331717D01*
X125052840Y-52235463D01*
X124906762Y-52174956D01*
X124749999Y-52154317D01*
X124593237Y-52174956D01*
X124447159Y-52235463D01*
X124321717Y-52331717D01*
X124225463Y-52457159D01*
X124164956Y-52603237D01*
X124144317Y-52760000D01*
X123619650Y-52760000D01*
X123632841Y-52754536D01*
X123758282Y-52658282D01*
X123854536Y-52532841D01*
X123915044Y-52386762D01*
X123935682Y-52230000D01*
X123915044Y-52073238D01*
X123854536Y-51927159D01*
X123795330Y-51850000D01*
X123758282Y-51801717D01*
X123632840Y-51705463D01*
X123486762Y-51644956D01*
X123330000Y-51624317D01*
X123173237Y-51644956D01*
X123027159Y-51705463D01*
X122901717Y-51801717D01*
X122805463Y-51927159D01*
X122744956Y-52073237D01*
X122724317Y-52229999D01*
X121775934Y-52229999D01*
X121795682Y-52080000D01*
X121775044Y-51923238D01*
X121714536Y-51777159D01*
X121664264Y-51711643D01*
X121618282Y-51651717D01*
X121492840Y-51555463D01*
X121346762Y-51494956D01*
X121189999Y-51474317D01*
X121033237Y-51494956D01*
X120887159Y-51555463D01*
X120761717Y-51651717D01*
X120665463Y-51777159D01*
X120604956Y-51923237D01*
X120584317Y-52080000D01*
X119135827Y-52080000D01*
X118531716Y-51475889D01*
X118999416Y-51475889D01*
X118999459Y-51500000D01*
X118999501Y-51500101D01*
X118999616Y-51500382D01*
X118999618Y-51500384D01*
X118999808Y-51500462D01*
X119000000Y-51500541D01*
X119000002Y-51500539D01*
X119024616Y-51500524D01*
X119024616Y-51500528D01*
X119024760Y-51500500D01*
X119975240Y-51500500D01*
X119975383Y-51500528D01*
X119975384Y-51500524D01*
X119999997Y-51500539D01*
X120000000Y-51500541D01*
X120000383Y-51500383D01*
X120000385Y-51500379D01*
X120006893Y-51485031D01*
X120000521Y-51464747D01*
X120000499Y-51462417D01*
X120000499Y-43508647D01*
X120000541Y-43500003D01*
X120000540Y-43500001D01*
X120000541Y-43500000D01*
X120000383Y-43499617D01*
X120000379Y-43499615D01*
X120000097Y-43499499D01*
X120000000Y-43499459D01*
X119975446Y-43499459D01*
X119975240Y-43499500D01*
X119024760Y-43499500D01*
X119024554Y-43499459D01*
X118999999Y-43499459D01*
X118999900Y-43499500D01*
X118999618Y-43499615D01*
X118999615Y-43499618D01*
X118999459Y-43499999D01*
X118999476Y-43524616D01*
X118999471Y-43524616D01*
X118999500Y-43524759D01*
X118999500Y-51475467D01*
X118999416Y-51475889D01*
X118531716Y-51475889D01*
X117257510Y-50201684D01*
X117224026Y-50140362D01*
X117222253Y-50097818D01*
X117231182Y-50029999D01*
X117222117Y-49961143D01*
X117210544Y-49873238D01*
X117150036Y-49727159D01*
X117150036Y-49727158D01*
X117053782Y-49601717D01*
X116928340Y-49505463D01*
X116782262Y-49444956D01*
X116625499Y-49424317D01*
X116468737Y-49444956D01*
X116322659Y-49505463D01*
X116197217Y-49601717D01*
X116100963Y-49727159D01*
X116040456Y-49873237D01*
X116019817Y-50030000D01*
X115034210Y-50030000D01*
X113030425Y-48026215D01*
X112996940Y-47964892D01*
X113001924Y-47895200D01*
X113043796Y-47839267D01*
X113109260Y-47814850D01*
X113161440Y-47822352D01*
X113166831Y-47824363D01*
X113166839Y-47824367D01*
X113434954Y-47924369D01*
X113434957Y-47924369D01*
X113434958Y-47924370D01*
X113487217Y-47935738D01*
X113714572Y-47985196D01*
X114000000Y-48005610D01*
X114285428Y-47985196D01*
X114565046Y-47924369D01*
X114833161Y-47824367D01*
X115084315Y-47687226D01*
X115313395Y-47515739D01*
X115515739Y-47313395D01*
X115687226Y-47084315D01*
X115824367Y-46833161D01*
X115924369Y-46565046D01*
X115985196Y-46285428D01*
X116005610Y-46000000D01*
X115985196Y-45714572D01*
X115935738Y-45487217D01*
X115924370Y-45434958D01*
X115924369Y-45434954D01*
X115824367Y-45166839D01*
X115737955Y-45008588D01*
X115687227Y-44915686D01*
X115625830Y-44833670D01*
X115515739Y-44686605D01*
X115313395Y-44484261D01*
X115101072Y-44325318D01*
X115084313Y-44312772D01*
X114833163Y-44175634D01*
X114833162Y-44175633D01*
X114833161Y-44175633D01*
X114616770Y-44094923D01*
X114565041Y-44075629D01*
X114285429Y-44014804D01*
X114000000Y-43994389D01*
X113714570Y-44014804D01*
X113434958Y-44075629D01*
X113166836Y-44175634D01*
X112915686Y-44312772D01*
X112686602Y-44484263D01*
X112484263Y-44686602D01*
X112312772Y-44915686D01*
X112175634Y-45166836D01*
X112075629Y-45434958D01*
X112014804Y-45714570D01*
X111994389Y-46000000D01*
X112014804Y-46285429D01*
X112075629Y-46565041D01*
X112075631Y-46565046D01*
X112175633Y-46833161D01*
X112175634Y-46833163D01*
X112177647Y-46838559D01*
X112182631Y-46908251D01*
X112149146Y-46969574D01*
X112087823Y-47003059D01*
X112018132Y-46998075D01*
X111973784Y-46969574D01*
X107825154Y-42820944D01*
X107791669Y-42759621D01*
X107796653Y-42689929D01*
X107838525Y-42633996D01*
X107896648Y-42610325D01*
X107936762Y-42605044D01*
X108082841Y-42544536D01*
X108208282Y-42448282D01*
X108304536Y-42322841D01*
X108365044Y-42176762D01*
X108385682Y-42020000D01*
X108365044Y-41863238D01*
X108304536Y-41717159D01*
X108249490Y-41645421D01*
X108208282Y-41591717D01*
X108082840Y-41495463D01*
X107936762Y-41434956D01*
X107780000Y-41414317D01*
X107623237Y-41434956D01*
X107477159Y-41495463D01*
X107351717Y-41591717D01*
X107255463Y-41717159D01*
X107194956Y-41863237D01*
X107189675Y-41903350D01*
X107161408Y-41967247D01*
X107103083Y-42005717D01*
X107033218Y-42006548D01*
X106979055Y-41974845D01*
X105980099Y-40975889D01*
X108499416Y-40975889D01*
X108499459Y-41000000D01*
X108499501Y-41000101D01*
X108499616Y-41000382D01*
X108499618Y-41000384D01*
X108499808Y-41000462D01*
X108500000Y-41000541D01*
X108500002Y-41000539D01*
X108524616Y-41000524D01*
X108524616Y-41000528D01*
X108524760Y-41000500D01*
X116475240Y-41000500D01*
X116475383Y-41000528D01*
X116475384Y-41000524D01*
X116499997Y-41000539D01*
X116500000Y-41000541D01*
X116500383Y-41000383D01*
X116500500Y-41000099D01*
X116500541Y-41000000D01*
X116500540Y-40999997D01*
X116500583Y-40975889D01*
X116500500Y-40975467D01*
X116500500Y-40024759D01*
X116500528Y-40024616D01*
X116500524Y-40024616D01*
X116500539Y-40000002D01*
X116500541Y-40000000D01*
X116500462Y-39999808D01*
X116500384Y-39999618D01*
X116500383Y-39999617D01*
X116500379Y-39999615D01*
X116500097Y-39999499D01*
X116500000Y-39999459D01*
X116475446Y-39999459D01*
X116475240Y-39999500D01*
X108524760Y-39999500D01*
X108524554Y-39999459D01*
X108499999Y-39999459D01*
X108499900Y-39999500D01*
X108499618Y-39999615D01*
X108499615Y-39999618D01*
X108499459Y-39999999D01*
X108499476Y-40024616D01*
X108499471Y-40024616D01*
X108499500Y-40024759D01*
X108499500Y-40975467D01*
X108499416Y-40975889D01*
X105980099Y-40975889D01*
X101222927Y-36218717D01*
X101215618Y-36210741D01*
X101191338Y-36181805D01*
X101158620Y-36162915D01*
X101149511Y-36157112D01*
X101118568Y-36135446D01*
X101117687Y-36134829D01*
X101092991Y-36124599D01*
X101054736Y-36117853D01*
X101044180Y-36115512D01*
X101007691Y-36105735D01*
X100970064Y-36109028D01*
X100959256Y-36109500D01*
X99852216Y-36109500D01*
X99841408Y-36109028D01*
X99803780Y-36105735D01*
X99767292Y-36115512D01*
X99756736Y-36117852D01*
X99718487Y-36124597D01*
X99693781Y-36134831D01*
X99661968Y-36157106D01*
X99652852Y-36162914D01*
X99620133Y-36181805D01*
X99595850Y-36210744D01*
X99588544Y-36218716D01*
X92313714Y-43493546D01*
X92305741Y-43500852D01*
X92276806Y-43525132D01*
X92257914Y-43557852D01*
X92252106Y-43566968D01*
X92229831Y-43598781D01*
X92219597Y-43623487D01*
X92212852Y-43661736D01*
X92210512Y-43672292D01*
X92200735Y-43708779D01*
X92204028Y-43746405D01*
X92204500Y-43757214D01*
X92204500Y-43800372D01*
X92204028Y-43811180D01*
X92200735Y-43848807D01*
X75000500Y-43848807D01*
X75000500Y-43524759D01*
X75000528Y-43524616D01*
X75000524Y-43524616D01*
X75000539Y-43500002D01*
X75000541Y-43500000D01*
X75000462Y-43499808D01*
X75000384Y-43499618D01*
X75000383Y-43499617D01*
X75000379Y-43499615D01*
X75000097Y-43499499D01*
X75000000Y-43499459D01*
X74975446Y-43499459D01*
X74975240Y-43499500D01*
X74024760Y-43499500D01*
X74024554Y-43499459D01*
X73999999Y-43499459D01*
X73999900Y-43499500D01*
X73999618Y-43499615D01*
X73999615Y-43499618D01*
X73999459Y-43499999D01*
X73999476Y-43524616D01*
X73999471Y-43524616D01*
X73999500Y-43524759D01*
X73999500Y-51475467D01*
X73999416Y-51475889D01*
X65000500Y-51475889D01*
X65000500Y-43309748D01*
X84349500Y-43309748D01*
X84361132Y-43368230D01*
X84405447Y-43434552D01*
X84471769Y-43478867D01*
X84530251Y-43490500D01*
X84530252Y-43490500D01*
X86369749Y-43490500D01*
X86398989Y-43484683D01*
X86428231Y-43478867D01*
X86494552Y-43434552D01*
X86538867Y-43368231D01*
X86550500Y-43309748D01*
X86550500Y-42389999D01*
X89424785Y-42389999D01*
X89443602Y-42593083D01*
X89499418Y-42789251D01*
X89590324Y-42971818D01*
X89713236Y-43134580D01*
X89863958Y-43271981D01*
X90019408Y-43368231D01*
X90037363Y-43379348D01*
X90227544Y-43453024D01*
X90428024Y-43490500D01*
X90428026Y-43490500D01*
X90631974Y-43490500D01*
X90631976Y-43490500D01*
X90832456Y-43453024D01*
X91022637Y-43379348D01*
X91196041Y-43271981D01*
X91346764Y-43134579D01*
X91469673Y-42971821D01*
X91469673Y-42971819D01*
X91469675Y-42971818D01*
X91544800Y-42820944D01*
X91560582Y-42789250D01*
X91616397Y-42593083D01*
X91635215Y-42390000D01*
X91616397Y-42186917D01*
X91560582Y-41990750D01*
X91548879Y-41967247D01*
X91469675Y-41808181D01*
X91346763Y-41645419D01*
X91196041Y-41508018D01*
X91022638Y-41400652D01*
X90832457Y-41326976D01*
X90765629Y-41314484D01*
X90631976Y-41289500D01*
X90428024Y-41289500D01*
X90365793Y-41301133D01*
X90227542Y-41326976D01*
X90037361Y-41400652D01*
X89863958Y-41508018D01*
X89713236Y-41645419D01*
X89590324Y-41808181D01*
X89499418Y-41990748D01*
X89443602Y-42186916D01*
X89424785Y-42389999D01*
X86550500Y-42389999D01*
X86550500Y-41470252D01*
X86538867Y-41411769D01*
X86531439Y-41400652D01*
X86494552Y-41345447D01*
X86428230Y-41301132D01*
X86369749Y-41289500D01*
X86369748Y-41289500D01*
X84530252Y-41289500D01*
X84530251Y-41289500D01*
X84471769Y-41301132D01*
X84405447Y-41345447D01*
X84361132Y-41411769D01*
X84349500Y-41470251D01*
X84349500Y-43309748D01*
X65000500Y-43309748D01*
X65000500Y-40975889D01*
X77499416Y-40975889D01*
X77499459Y-41000000D01*
X77499501Y-41000101D01*
X77499616Y-41000382D01*
X77499618Y-41000384D01*
X77499808Y-41000462D01*
X77500000Y-41000541D01*
X77500002Y-41000539D01*
X77524616Y-41000524D01*
X77524616Y-41000528D01*
X77524760Y-41000500D01*
X85475240Y-41000500D01*
X85475383Y-41000528D01*
X85475384Y-41000524D01*
X85499997Y-41000539D01*
X85500000Y-41000541D01*
X85500383Y-41000383D01*
X85500500Y-41000099D01*
X85500541Y-41000000D01*
X85500540Y-40999997D01*
X85500583Y-40975889D01*
X85500500Y-40975467D01*
X85500500Y-40024759D01*
X85500528Y-40024616D01*
X85500524Y-40024616D01*
X85500539Y-40000002D01*
X85500541Y-40000000D01*
X85500462Y-39999808D01*
X85500384Y-39999618D01*
X85500383Y-39999617D01*
X85500379Y-39999615D01*
X85500097Y-39999499D01*
X85500000Y-39999459D01*
X85475446Y-39999459D01*
X85475240Y-39999500D01*
X77524760Y-39999500D01*
X77524554Y-39999459D01*
X77499999Y-39999459D01*
X77499900Y-39999500D01*
X77499618Y-39999615D01*
X77499615Y-39999618D01*
X77499459Y-39999999D01*
X77499476Y-40024616D01*
X77499471Y-40024616D01*
X77499500Y-40024759D01*
X77499500Y-40975467D01*
X77499416Y-40975889D01*
X65000500Y-40975889D01*
X65000500Y-34124500D01*
X65020185Y-34057461D01*
X65072989Y-34011706D01*
X65124500Y-34000500D01*
X128875500Y-34000500D01*
X128942539Y-34020185D01*
G37*
G04 #@! TD.AperFunction*
G04 #@! TA.AperFunction,Conductor*
G36*
X79900851Y-69555185D02*
G01*
X79921493Y-69571819D01*
X82969063Y-72619390D01*
X83002548Y-72680713D01*
X82997564Y-72750405D01*
X82955692Y-72806338D01*
X82928835Y-72821632D01*
X82847158Y-72855463D01*
X82721717Y-72951717D01*
X82625463Y-73077159D01*
X82564956Y-73223237D01*
X82544317Y-73380000D01*
X82556284Y-73470897D01*
X82545518Y-73539933D01*
X82541261Y-73547271D01*
X82540906Y-73548599D01*
X82529597Y-73575899D01*
X82522852Y-73614148D01*
X82520512Y-73624704D01*
X82510735Y-73661191D01*
X82514028Y-73698817D01*
X82514500Y-73709626D01*
X82514500Y-83821699D01*
X82494815Y-83888738D01*
X82465988Y-83920074D01*
X82411717Y-83961718D01*
X82315463Y-84087159D01*
X82254956Y-84233237D01*
X82234317Y-84390000D01*
X82254956Y-84546762D01*
X82315463Y-84692840D01*
X82397700Y-84800014D01*
X82422894Y-84865183D01*
X82408856Y-84933628D01*
X82360042Y-84983617D01*
X82299324Y-84999500D01*
X77824500Y-84999500D01*
X77757461Y-84979815D01*
X77711706Y-84927011D01*
X77700500Y-84875500D01*
X77700500Y-83720000D01*
X78344317Y-83720000D01*
X78364956Y-83876762D01*
X78425463Y-84022840D01*
X78521717Y-84148282D01*
X78586879Y-84198282D01*
X78647159Y-84244536D01*
X78793238Y-84305044D01*
X78950000Y-84325682D01*
X79106762Y-84305044D01*
X79252841Y-84244536D01*
X79378282Y-84148282D01*
X79419923Y-84094013D01*
X79476350Y-84052811D01*
X79518299Y-84045500D01*
X79735873Y-84045500D01*
X79746680Y-84045971D01*
X79784307Y-84049264D01*
X79820824Y-84039478D01*
X79831330Y-84037149D01*
X79868545Y-84030588D01*
X79868547Y-84030586D01*
X79869612Y-84030399D01*
X79894299Y-84020173D01*
X79895182Y-84019554D01*
X79895184Y-84019554D01*
X79926125Y-83997887D01*
X79935222Y-83992091D01*
X79967955Y-83973194D01*
X79992248Y-83944241D01*
X79999536Y-83936288D01*
X80448315Y-83487509D01*
X80509636Y-83454026D01*
X80552180Y-83452253D01*
X80620000Y-83461182D01*
X80776762Y-83440544D01*
X80922841Y-83380036D01*
X81048282Y-83283782D01*
X81144536Y-83158341D01*
X81205044Y-83012262D01*
X81225682Y-82855500D01*
X81205044Y-82698738D01*
X81144536Y-82552659D01*
X81104424Y-82500384D01*
X81048282Y-82427217D01*
X80922840Y-82330963D01*
X80776762Y-82270456D01*
X80620000Y-82249817D01*
X80463237Y-82270456D01*
X80317159Y-82330963D01*
X80191717Y-82427217D01*
X80095463Y-82552659D01*
X80034956Y-82698737D01*
X80014317Y-82855500D01*
X80023246Y-82923318D01*
X80012480Y-82992353D01*
X79987988Y-83027184D01*
X79656991Y-83358182D01*
X79595670Y-83391666D01*
X79569312Y-83394500D01*
X79518299Y-83394500D01*
X79451260Y-83374815D01*
X79419923Y-83345986D01*
X79378281Y-83291717D01*
X79252840Y-83195463D01*
X79106762Y-83134956D01*
X78950000Y-83114317D01*
X78793237Y-83134956D01*
X78647159Y-83195463D01*
X78521717Y-83291717D01*
X78425463Y-83417159D01*
X78364956Y-83563237D01*
X78344317Y-83720000D01*
X77700500Y-83720000D01*
X77700500Y-80000000D01*
X77994389Y-80000000D01*
X78014804Y-80285429D01*
X78075629Y-80565041D01*
X78175634Y-80833163D01*
X78312772Y-81084313D01*
X78360659Y-81148282D01*
X78484261Y-81313395D01*
X78686605Y-81515739D01*
X78754764Y-81566762D01*
X78915686Y-81687227D01*
X78988787Y-81727143D01*
X79166839Y-81824367D01*
X79434954Y-81924369D01*
X79434957Y-81924369D01*
X79434958Y-81924370D01*
X79481691Y-81934536D01*
X79714572Y-81985196D01*
X80000000Y-82005610D01*
X80285428Y-81985196D01*
X80565046Y-81924369D01*
X80833161Y-81824367D01*
X81084315Y-81687226D01*
X81313395Y-81515739D01*
X81515739Y-81313395D01*
X81687226Y-81084315D01*
X81824367Y-80833161D01*
X81924369Y-80565046D01*
X81985196Y-80285428D01*
X82005610Y-80000000D01*
X81985196Y-79714572D01*
X81924369Y-79434954D01*
X81824367Y-79166839D01*
X81763535Y-79055435D01*
X81687227Y-78915686D01*
X81561403Y-78747605D01*
X81515739Y-78686605D01*
X81313395Y-78484261D01*
X81098379Y-78323302D01*
X81084313Y-78312772D01*
X80833163Y-78175634D01*
X80833162Y-78175633D01*
X80833161Y-78175633D01*
X80640530Y-78103785D01*
X80565041Y-78075629D01*
X80285429Y-78014804D01*
X80000000Y-77994389D01*
X79714570Y-78014804D01*
X79434958Y-78075629D01*
X79166836Y-78175634D01*
X78915686Y-78312772D01*
X78686602Y-78484263D01*
X78484263Y-78686602D01*
X78312772Y-78915686D01*
X78175634Y-79166836D01*
X78075629Y-79434958D01*
X78014804Y-79714570D01*
X77994389Y-80000000D01*
X77700500Y-80000000D01*
X77700500Y-78036493D01*
X77720185Y-77969454D01*
X77736819Y-77948812D01*
X77821113Y-77864518D01*
X77911296Y-77774334D01*
X77919248Y-77767047D01*
X77934696Y-77754085D01*
X77998705Y-77726076D01*
X78067696Y-77737118D01*
X78112773Y-77773593D01*
X78131717Y-77798282D01*
X78222687Y-77868085D01*
X78257159Y-77894536D01*
X78403238Y-77955044D01*
X78560000Y-77975682D01*
X78716762Y-77955044D01*
X78862841Y-77894536D01*
X78988282Y-77798282D01*
X79084536Y-77672841D01*
X79145044Y-77526762D01*
X79165682Y-77370000D01*
X79145044Y-77213238D01*
X79084536Y-77067159D01*
X78988282Y-76941718D01*
X78971090Y-76928526D01*
X78934012Y-76900074D01*
X78892810Y-76843646D01*
X78885500Y-76801699D01*
X78885500Y-75381871D01*
X78905185Y-75314832D01*
X78911124Y-75306385D01*
X78927840Y-75284599D01*
X78944536Y-75262841D01*
X79005044Y-75116762D01*
X79025682Y-74960000D01*
X79025681Y-74959999D01*
X79027813Y-74943814D01*
X79030329Y-74944145D01*
X79037439Y-74898533D01*
X79061932Y-74863697D01*
X80216790Y-73708839D01*
X80224758Y-73701539D01*
X80253692Y-73677262D01*
X80253692Y-73677261D01*
X80253694Y-73677260D01*
X80272591Y-73644527D01*
X80278387Y-73635430D01*
X80300054Y-73604489D01*
X80300054Y-73604487D01*
X80300673Y-73603604D01*
X80310899Y-73578917D01*
X80311086Y-73577852D01*
X80311088Y-73577850D01*
X80317649Y-73540635D01*
X80319978Y-73530129D01*
X80329764Y-73493612D01*
X80326472Y-73455985D01*
X80326000Y-73445177D01*
X80326000Y-71479310D01*
X80326472Y-71468502D01*
X80329763Y-71430888D01*
X80319986Y-71394401D01*
X80317645Y-71383838D01*
X80310902Y-71345596D01*
X80300669Y-71320890D01*
X80278394Y-71289077D01*
X80272583Y-71279956D01*
X80253694Y-71247240D01*
X80224761Y-71222962D01*
X80216786Y-71215654D01*
X79819848Y-70818717D01*
X79812539Y-70810741D01*
X79788259Y-70781805D01*
X79755541Y-70762915D01*
X79746432Y-70757112D01*
X79718587Y-70737615D01*
X79714608Y-70734829D01*
X79689912Y-70724599D01*
X79651657Y-70717853D01*
X79641101Y-70715512D01*
X79604612Y-70705735D01*
X79566985Y-70709028D01*
X79556177Y-70709500D01*
X78994811Y-70709500D01*
X78984003Y-70709028D01*
X78946388Y-70705736D01*
X78909911Y-70715510D01*
X78899357Y-70717849D01*
X78861100Y-70724595D01*
X78836385Y-70734834D01*
X78804572Y-70757108D01*
X78795456Y-70762915D01*
X78762740Y-70781804D01*
X78738462Y-70810737D01*
X78731157Y-70818709D01*
X78451993Y-71097876D01*
X78390670Y-71131361D01*
X78364311Y-71134195D01*
X75365204Y-71134195D01*
X75298165Y-71114510D01*
X75252410Y-71061706D01*
X75242466Y-70992548D01*
X75250643Y-70962743D01*
X75260967Y-70937818D01*
X75280044Y-70891762D01*
X75300682Y-70735000D01*
X75300659Y-70734829D01*
X75290222Y-70655549D01*
X75280044Y-70578238D01*
X75219536Y-70432159D01*
X75192557Y-70396999D01*
X75123282Y-70306717D01*
X74997840Y-70210463D01*
X74851762Y-70149956D01*
X74694998Y-70129317D01*
X74686600Y-70130423D01*
X74617565Y-70119654D01*
X74565312Y-70073272D01*
X74547481Y-70023668D01*
X74545682Y-70010000D01*
X74525044Y-69853238D01*
X74489018Y-69766264D01*
X74464451Y-69706952D01*
X74456982Y-69637483D01*
X74488257Y-69575004D01*
X74548347Y-69539352D01*
X74579012Y-69535500D01*
X79833812Y-69535500D01*
X79900851Y-69555185D01*
G37*
G04 #@! TD.AperFunction*
G04 #@! TA.AperFunction,Conductor*
G36*
X78557655Y-71804880D02*
G01*
X78603410Y-71857684D01*
X78613354Y-71926842D01*
X78584329Y-71990398D01*
X78578297Y-71996876D01*
X77478714Y-73096458D01*
X77470741Y-73103764D01*
X77441806Y-73128044D01*
X77422914Y-73160764D01*
X77417106Y-73169880D01*
X77394831Y-73201693D01*
X77384597Y-73226399D01*
X77377852Y-73264648D01*
X77375512Y-73275204D01*
X77365735Y-73311691D01*
X77368235Y-73340251D01*
X77368707Y-73345655D01*
X77369028Y-73349317D01*
X77369500Y-73360126D01*
X77369500Y-75138575D01*
X77349815Y-75205614D01*
X77297011Y-75251369D01*
X77227853Y-75261313D01*
X77198048Y-75253136D01*
X77124462Y-75222656D01*
X76967699Y-75202017D01*
X76899880Y-75210946D01*
X76830844Y-75200180D01*
X76796014Y-75175688D01*
X73617202Y-71996876D01*
X73583717Y-71935553D01*
X73588701Y-71865861D01*
X73630573Y-71809928D01*
X73696037Y-71785511D01*
X73704883Y-71785195D01*
X78490616Y-71785195D01*
X78557655Y-71804880D01*
G37*
G04 #@! TD.AperFunction*
G04 #@! TA.AperFunction,Conductor*
G36*
X79635496Y-72339322D02*
G01*
X79671148Y-72399411D01*
X79675000Y-72430077D01*
X79675000Y-73278616D01*
X79655315Y-73345655D01*
X79638681Y-73366297D01*
X78667065Y-74337912D01*
X78605742Y-74371397D01*
X78563199Y-74373170D01*
X78420000Y-74354317D01*
X78263237Y-74374956D01*
X78191952Y-74404483D01*
X78122482Y-74411952D01*
X78060003Y-74380676D01*
X78024352Y-74320587D01*
X78020500Y-74289922D01*
X78020500Y-73526687D01*
X78040185Y-73459648D01*
X78056814Y-73439010D01*
X79103815Y-72392009D01*
X79165136Y-72358526D01*
X79207680Y-72356753D01*
X79275500Y-72365682D01*
X79432262Y-72345044D01*
X79503549Y-72315515D01*
X79573016Y-72308047D01*
X79635496Y-72339322D01*
G37*
G04 #@! TD.AperFunction*
G04 #@! TA.AperFunction,Conductor*
G36*
X92715851Y-59450185D02*
G01*
X92736493Y-59466819D01*
X93845950Y-60576276D01*
X93853258Y-60584250D01*
X93877545Y-60613194D01*
X93901594Y-60627079D01*
X93910256Y-60632080D01*
X93919379Y-60637892D01*
X93950316Y-60659554D01*
X93950317Y-60659554D01*
X93951198Y-60660171D01*
X93975891Y-60670400D01*
X93976954Y-60670587D01*
X93976955Y-60670588D01*
X94014143Y-60677145D01*
X94024706Y-60679487D01*
X94061192Y-60689264D01*
X94061192Y-60689263D01*
X94061193Y-60689264D01*
X94098819Y-60685971D01*
X94109627Y-60685500D01*
X95341701Y-60685500D01*
X95408740Y-60705185D01*
X95440076Y-60734013D01*
X95481718Y-60788282D01*
X95607159Y-60884536D01*
X95753238Y-60945044D01*
X95910000Y-60965682D01*
X96066762Y-60945044D01*
X96212841Y-60884536D01*
X96338282Y-60788282D01*
X96434536Y-60662841D01*
X96495044Y-60516762D01*
X96515682Y-60360000D01*
X96495044Y-60203238D01*
X96495043Y-60203235D01*
X96494423Y-60198526D01*
X96505188Y-60129490D01*
X96551568Y-60077234D01*
X96618837Y-60058349D01*
X96685638Y-60078829D01*
X96705043Y-60094659D01*
X97648203Y-61037819D01*
X97681688Y-61099142D01*
X97676704Y-61168834D01*
X97634832Y-61224767D01*
X97569368Y-61249184D01*
X97560522Y-61249500D01*
X97508039Y-61249500D01*
X97369947Y-61290047D01*
X97248870Y-61367858D01*
X97154623Y-61476625D01*
X97094834Y-61607542D01*
X97074353Y-61749999D01*
X97094834Y-61892457D01*
X97154623Y-62023374D01*
X97235611Y-62116839D01*
X97248872Y-62132143D01*
X97369947Y-62209953D01*
X97508039Y-62250500D01*
X97651961Y-62250500D01*
X97790053Y-62209953D01*
X97911128Y-62132143D01*
X98005377Y-62023373D01*
X98065165Y-61892457D01*
X98084928Y-61754996D01*
X98113953Y-61691442D01*
X98172730Y-61653667D01*
X98242600Y-61653667D01*
X98295347Y-61684963D01*
X99522702Y-62912318D01*
X99556187Y-62973641D01*
X99551203Y-63043333D01*
X99522702Y-63087680D01*
X98819857Y-63790525D01*
X98758534Y-63824010D01*
X98688842Y-63819026D01*
X98633800Y-63778331D01*
X98612093Y-63750042D01*
X98546001Y-63663909D01*
X98545999Y-63663908D01*
X98545999Y-63663907D01*
X98420559Y-63567654D01*
X98274481Y-63507147D01*
X98117719Y-63486508D01*
X97960956Y-63507147D01*
X97814878Y-63567654D01*
X97689436Y-63663908D01*
X97593182Y-63789350D01*
X97532675Y-63935428D01*
X97512036Y-64092190D01*
X97532675Y-64248953D01*
X97593182Y-64395031D01*
X97689436Y-64520473D01*
X97813590Y-64615739D01*
X97814878Y-64616727D01*
X97960957Y-64677235D01*
X98117719Y-64697873D01*
X98274481Y-64677235D01*
X98333051Y-64652974D01*
X98402516Y-64645506D01*
X98464995Y-64676781D01*
X98500648Y-64736869D01*
X98504500Y-64767536D01*
X98504500Y-67026431D01*
X98484815Y-67093470D01*
X98432011Y-67139225D01*
X98427956Y-67140991D01*
X98417159Y-67145463D01*
X98291717Y-67241717D01*
X98195463Y-67367159D01*
X98134956Y-67513237D01*
X98114099Y-67671657D01*
X98085832Y-67735553D01*
X98027507Y-67774024D01*
X97957643Y-67774855D01*
X97903479Y-67743152D01*
X95334043Y-65173717D01*
X95326734Y-65165741D01*
X95302454Y-65136805D01*
X95269736Y-65117915D01*
X95260627Y-65112112D01*
X95229684Y-65090446D01*
X95228803Y-65089829D01*
X95204107Y-65079599D01*
X95165852Y-65072853D01*
X95155296Y-65070512D01*
X95118807Y-65060735D01*
X95081180Y-65064028D01*
X95070372Y-65064500D01*
X91062570Y-65064500D01*
X90995531Y-65044815D01*
X90949776Y-64992011D01*
X90939832Y-64922853D01*
X90968857Y-64859297D01*
X91019234Y-64824319D01*
X91153161Y-64774367D01*
X91404315Y-64637226D01*
X91633395Y-64465739D01*
X91835739Y-64263395D01*
X92007226Y-64034315D01*
X92144367Y-63783161D01*
X92244369Y-63515046D01*
X92305196Y-63235428D01*
X92325610Y-62950000D01*
X92305196Y-62664572D01*
X92244369Y-62384954D01*
X92144367Y-62116839D01*
X92010431Y-61871554D01*
X92007227Y-61865686D01*
X91951023Y-61790606D01*
X91835739Y-61636605D01*
X91633395Y-61434261D01*
X91518855Y-61348517D01*
X91404313Y-61262772D01*
X91153163Y-61125634D01*
X91153162Y-61125633D01*
X91153161Y-61125633D01*
X90905020Y-61033081D01*
X90885041Y-61025629D01*
X90605429Y-60964804D01*
X90320000Y-60944389D01*
X90034570Y-60964804D01*
X89754958Y-61025629D01*
X89486836Y-61125634D01*
X89235686Y-61262772D01*
X89006602Y-61434263D01*
X88804263Y-61636602D01*
X88632772Y-61865686D01*
X88495634Y-62116836D01*
X88395629Y-62384958D01*
X88334804Y-62664570D01*
X88314389Y-62950000D01*
X88334804Y-63235429D01*
X88395629Y-63515041D01*
X88395631Y-63515046D01*
X88493831Y-63778331D01*
X88495634Y-63783163D01*
X88632772Y-64034313D01*
X88718416Y-64148719D01*
X88804261Y-64263395D01*
X89006605Y-64465739D01*
X89178415Y-64594354D01*
X89235686Y-64637227D01*
X89346751Y-64697873D01*
X89486839Y-64774367D01*
X89620765Y-64824319D01*
X89676697Y-64866190D01*
X89701114Y-64931654D01*
X89686262Y-64999927D01*
X89636857Y-65049332D01*
X89577430Y-65064500D01*
X88426189Y-65064500D01*
X88359150Y-65044815D01*
X88338508Y-65028181D01*
X87222011Y-63911685D01*
X87188526Y-63850362D01*
X87186753Y-63807818D01*
X87189030Y-63790525D01*
X87195682Y-63740000D01*
X87175044Y-63583238D01*
X87114536Y-63437159D01*
X87095074Y-63411796D01*
X87018282Y-63311717D01*
X86892840Y-63215463D01*
X86746762Y-63154956D01*
X86589999Y-63134317D01*
X86433237Y-63154956D01*
X86287159Y-63215463D01*
X86249986Y-63243987D01*
X86184816Y-63269181D01*
X86116372Y-63255142D01*
X86066382Y-63206328D01*
X86050500Y-63145611D01*
X86050500Y-62641082D01*
X86070185Y-62574043D01*
X86122989Y-62528288D01*
X86192147Y-62518344D01*
X86221947Y-62526519D01*
X86363238Y-62585044D01*
X86520000Y-62605682D01*
X86676762Y-62585044D01*
X86822841Y-62524536D01*
X86948282Y-62428282D01*
X87044536Y-62302841D01*
X87105044Y-62156762D01*
X87125682Y-62000000D01*
X87116753Y-61932180D01*
X87127518Y-61863146D01*
X87152011Y-61828314D01*
X87249519Y-61730807D01*
X87348506Y-61631819D01*
X87409830Y-61598334D01*
X87436188Y-61595500D01*
X87695678Y-61595500D01*
X87706485Y-61595971D01*
X87744112Y-61599264D01*
X87780629Y-61589478D01*
X87791135Y-61587149D01*
X87828350Y-61580588D01*
X87828352Y-61580586D01*
X87829417Y-61580399D01*
X87854104Y-61570173D01*
X87854987Y-61569554D01*
X87854989Y-61569554D01*
X87885930Y-61547887D01*
X87895027Y-61542091D01*
X87927760Y-61523194D01*
X87952053Y-61494241D01*
X87959341Y-61486288D01*
X88831290Y-60614339D01*
X88839244Y-60607050D01*
X88865337Y-60585157D01*
X88929344Y-60557146D01*
X88998336Y-60568187D01*
X89020525Y-60581773D01*
X89037158Y-60594536D01*
X89037159Y-60594536D01*
X89183238Y-60655044D01*
X89340000Y-60675682D01*
X89496762Y-60655044D01*
X89642841Y-60594536D01*
X89768282Y-60498282D01*
X89864536Y-60372841D01*
X89925044Y-60226762D01*
X89936831Y-60137229D01*
X89965096Y-60073335D01*
X90023420Y-60034863D01*
X90093285Y-60034031D01*
X90152508Y-60071103D01*
X90174329Y-60105962D01*
X90185462Y-60132839D01*
X90281717Y-60258282D01*
X90391773Y-60342730D01*
X90407159Y-60354536D01*
X90553238Y-60415044D01*
X90710000Y-60435682D01*
X90866762Y-60415044D01*
X91012841Y-60354536D01*
X91138282Y-60258282D01*
X91234536Y-60132841D01*
X91295044Y-59986762D01*
X91315682Y-59830000D01*
X91295044Y-59673238D01*
X91281328Y-59640125D01*
X91265517Y-59601952D01*
X91258048Y-59532482D01*
X91289324Y-59470003D01*
X91349413Y-59434352D01*
X91380078Y-59430500D01*
X92648812Y-59430500D01*
X92715851Y-59450185D01*
G37*
G04 #@! TD.AperFunction*
G04 #@! TA.AperFunction,Conductor*
G36*
X106425851Y-57250185D02*
G01*
X106446493Y-57266819D01*
X106447988Y-57268314D01*
X106481473Y-57329637D01*
X106483246Y-57372180D01*
X106474317Y-57439999D01*
X106494956Y-57596762D01*
X106555463Y-57742840D01*
X106651717Y-57868282D01*
X106777159Y-57964536D01*
X106858834Y-57998367D01*
X106913238Y-58042208D01*
X106935303Y-58108502D01*
X106918024Y-58176201D01*
X106899063Y-58200609D01*
X105291493Y-59808181D01*
X105230170Y-59841666D01*
X105203812Y-59844500D01*
X103429619Y-59844500D01*
X103418812Y-59844028D01*
X103416298Y-59843808D01*
X103381191Y-59840736D01*
X103344710Y-59850511D01*
X103334155Y-59852852D01*
X103322814Y-59854851D01*
X103296955Y-59859412D01*
X103296953Y-59859412D01*
X103295897Y-59859599D01*
X103271192Y-59869832D01*
X103239378Y-59892107D01*
X103230261Y-59897915D01*
X103197545Y-59916804D01*
X103173262Y-59945743D01*
X103165956Y-59953715D01*
X101562381Y-61557291D01*
X101554408Y-61564597D01*
X101525473Y-61588877D01*
X101521885Y-61595092D01*
X101471317Y-61643306D01*
X101402710Y-61656527D01*
X101337846Y-61630557D01*
X101297319Y-61573642D01*
X101290500Y-61533089D01*
X101290500Y-60949404D01*
X101310185Y-60882365D01*
X101326815Y-60861727D01*
X101868145Y-60320396D01*
X101871129Y-60317512D01*
X101918044Y-60273698D01*
X101939398Y-60238580D01*
X101946532Y-60228100D01*
X101971361Y-60195360D01*
X101977945Y-60178661D01*
X101987344Y-60159737D01*
X101996672Y-60144400D01*
X102007760Y-60104823D01*
X102011800Y-60092810D01*
X102026876Y-60054582D01*
X102028711Y-60036729D01*
X102032660Y-60015955D01*
X102037500Y-59998683D01*
X102037499Y-59957601D01*
X102038149Y-59944919D01*
X102042352Y-59904046D01*
X102039303Y-59886361D01*
X102037500Y-59865293D01*
X102037500Y-58593053D01*
X102037789Y-58584591D01*
X102038936Y-58567819D01*
X102041381Y-58532079D01*
X102030668Y-58480531D01*
X102029234Y-58472207D01*
X102027136Y-58456944D01*
X102022070Y-58420080D01*
X102019551Y-58414281D01*
X102011878Y-58390102D01*
X102010593Y-58383917D01*
X102009466Y-58381742D01*
X101986367Y-58337163D01*
X101982753Y-58329565D01*
X101961780Y-58281280D01*
X101957789Y-58276374D01*
X101943883Y-58255171D01*
X101940972Y-58249553D01*
X101905052Y-58211094D01*
X101899485Y-58204710D01*
X101866278Y-58163892D01*
X101861107Y-58160242D01*
X101841997Y-58143578D01*
X101837680Y-58138956D01*
X101820055Y-58128238D01*
X101792713Y-58111610D01*
X101785641Y-58106972D01*
X101742647Y-58076623D01*
X101736681Y-58074502D01*
X101713777Y-58063609D01*
X101708383Y-58060328D01*
X101694720Y-58056500D01*
X101657706Y-58046128D01*
X101649672Y-58043579D01*
X101600056Y-58025946D01*
X101600055Y-58025945D01*
X101600053Y-58025945D01*
X101593736Y-58025513D01*
X101568752Y-58021205D01*
X101562666Y-58019500D01*
X101562665Y-58019500D01*
X101510055Y-58019500D01*
X101501593Y-58019211D01*
X101493388Y-58018649D01*
X101443646Y-58015247D01*
X101378106Y-57991033D01*
X101344722Y-57953536D01*
X101312533Y-57897784D01*
X101185870Y-57757110D01*
X101032730Y-57645848D01*
X100859803Y-57568855D01*
X100746793Y-57544834D01*
X100685312Y-57511641D01*
X100651536Y-57450478D01*
X100656188Y-57380763D01*
X100684890Y-57335867D01*
X100753941Y-57266816D01*
X100815263Y-57233334D01*
X100841620Y-57230500D01*
X106358812Y-57230500D01*
X106425851Y-57250185D01*
G37*
G04 #@! TD.AperFunction*
M02*
