M48
; DRILL file {KiCad 7.0.2} date Tue Jun  6 15:13:49 2023
; FORMAT={-:-/ absolute / metric / decimal}
; #@! TF.CreationDate,2023-06-06T15:13:49-04:00
; #@! TF.GenerationSoftware,Kicad,Pcbnew,7.0.2
; #@! TF.FileFunction,Plated,1,4,PTH
FMAT,2
METRIC
; #@! TA.AperFunction,Plated,PTH,ViaDrill
T1C0.300
; #@! TA.AperFunction,Plated,PTH,ViaDrill
T2C0.400
; #@! TA.AperFunction,Plated,PTH,ComponentDrill
T3C0.700
; #@! TA.AperFunction,Plated,PTH,ComponentDrill
T4C1.200
%
G90
G05
T1
X66.83Y-39.81
X67.17Y-73.87
X67.51Y-82.22
X68.63Y-50.34
X70.47Y-35.82
X70.48Y-47.73
X70.57Y-79.48
X70.91Y-86.96
X71.31Y-53.12
X77.08Y-49.08
X82.01Y-36.38
X88.1Y-56.4
X89.21Y-36.11
X90.7Y-56.4
X92.2Y-56.5
X95.3Y-38.1
X96.59Y-89.4
X97.04Y-44.57
X97.58Y-61.75
X100.72Y-37.06
X100.74Y-63.86
X101.0Y-87.6
X102.2Y-57.53
X105.71Y-42.71
X106.92Y-89.34
X107.2Y-37.34
X109.82Y-44.28
X113.03Y-43.05
X114.61Y-36.2
X115.34Y-42.72
X115.7Y-48.0
X116.49Y-88.78
X117.35Y-43.1
X118.1Y-49.9
X119.53Y-38.85
X120.84Y-89.8
X126.83Y-44.37
T2
X67.04Y-45.25
X70.38Y-54.9
X71.74Y-69.73
X72.07Y-55.19
X72.36Y-71.82
X72.67Y-70.87
X73.94Y-70.01
X74.695Y-70.735
X75.38Y-90.32
X75.92Y-72.84
X76.24Y-48.31
X76.968Y-75.808
X77.63Y-69.934
X77.74Y-37.12
X78.35Y-42.87
X78.42Y-74.96
X78.56Y-77.37
X78.9Y-73.54
X78.95Y-83.72
X79.275Y-71.76
X79.53Y-69.94
X80.62Y-82.855
X81.01Y-76.29
X81.37Y-55.17
X81.5Y-90.39
X81.51Y-54.02
X81.975Y-70.03
X82.84Y-84.39
X83.15Y-73.38
X84.16Y-46.6
X84.3Y-89.11
X84.73Y-49.44
X85.92Y-46.83
X86.11Y-80.72
X86.45Y-64.75
X86.52Y-62.0
X86.564Y-59.82
X86.59Y-63.74
X86.62Y-60.84
X86.99Y-52.534
X87.14Y-87.63
X87.49Y-81.41
X89.3Y-47.5
X89.34Y-51.85
X89.34Y-60.07
X89.42Y-56.43
X90.13Y-87.92
X90.2Y-90.6
X90.39Y-51.07
X90.514Y-48.95
X90.7Y-46.0
X90.71Y-59.83
X92.929Y-52.678
X93.35Y-54.6
X93.535Y-40.485
X93.8Y-90.6
X93.85Y-88.45
X94.01Y-44.06
X94.05Y-64.2
X94.52Y-45.81
X94.836Y-55.147
X95.405Y-58.285
X95.628Y-53.548
X95.91Y-60.36
X97.25Y-41.05
X97.427Y-79.798
X97.611Y-77.58
X97.677Y-54.357
X98.118Y-64.092
X98.72Y-67.67
X99.01Y-70.53
X99.07Y-57.3
X99.36Y-38.03
X99.79Y-61.507
X99.855Y-56.681
X100.652Y-72.604
X101.27Y-75.79
X101.34Y-37.96
X101.779Y-65.039
X101.981Y-72.325
X103.51Y-67.02
X103.62Y-72.57
X104.717Y-76.478
X104.94Y-67.82
X104.98Y-72.42
X105.05Y-66.09
X105.23Y-79.51
X105.25Y-77.545
X106.21Y-72.6
X107.08Y-57.44
X107.14Y-67.05
X107.14Y-68.36
X107.447Y-76.45
X107.45Y-45.61
X107.62Y-72.55
X107.78Y-42.02
X108.69Y-52.76
X109.39Y-72.53
X109.887Y-80.143
X109.98Y-55.1
X110.56Y-53.62
X110.78Y-69.61
X110.995Y-80.26
X111.089Y-70.656
X111.13Y-55.19
X111.171Y-78.364
X111.534Y-74.134
X111.583Y-48.974
X111.72Y-83.77
X112.19Y-55.71
X112.51Y-69.88
X112.64Y-89.45
X113.03Y-76.33
X113.65Y-51.34
X114.79Y-52.13
X116.44Y-52.92
X116.625Y-50.03
X117.49Y-82.14
X117.599Y-73.68
X117.6Y-76.5
X117.68Y-52.84
X117.99Y-62.76
X120.72Y-62.22
X121.19Y-52.08
X121.26Y-73.35
X121.66Y-55.71
X122.14Y-69.98
X123.33Y-52.23
X123.57Y-60.02
X123.99Y-55.44
X124.5Y-80.7
X124.56Y-76.22
X124.75Y-52.76
X126.19Y-49.49
X126.81Y-89.83
T3
X97.54Y-58.57
X97.54Y-66.19
X100.58Y-58.43
X100.58Y-66.05
T4
X85.45Y-42.39
X90.53Y-42.39
X95.61Y-42.39
X98.54Y-83.48
X103.62Y-83.48
X108.7Y-83.48
T0
M30
