G04 #@! TF.GenerationSoftware,KiCad,Pcbnew,7.0.2*
G04 #@! TF.CreationDate,2023-06-06T15:13:29-04:00*
G04 #@! TF.ProjectId,baseplate,62617365-706c-4617-9465-2e6b69636164,rev?*
G04 #@! TF.SameCoordinates,Original*
G04 #@! TF.FileFunction,Profile,NP*
%FSLAX46Y46*%
G04 Gerber Fmt 4.6, Leading zero omitted, Abs format (unit mm)*
G04 Created by KiCad (PCBNEW 7.0.2) date 2023-06-06 15:13:29*
%MOMM*%
%LPD*%
G01*
G04 APERTURE LIST*
G04 #@! TA.AperFunction,Profile*
%ADD10C,0.050000*%
G04 #@! TD*
G04 #@! TA.AperFunction,Profile*
%ADD11C,0.200000*%
G04 #@! TD*
G04 APERTURE END LIST*
D10*
X75000000Y-74500000D02*
X75000000Y-82500000D01*
X116500000Y-40000000D02*
X116500000Y-41000000D01*
X119000000Y-82500000D02*
X119000000Y-74500000D01*
X74000000Y-74500000D02*
X75000000Y-74500000D01*
X126000000Y-73000000D02*
X126000000Y-53000000D01*
X120000000Y-51500000D02*
X119000000Y-51500000D01*
X116000000Y-80000000D02*
G75*
G03*
X116000000Y-80000000I-2000000J0D01*
G01*
X77500000Y-40000000D02*
X85500000Y-40000000D01*
X77500000Y-85000000D02*
X85500000Y-85000000D01*
X85500000Y-85000000D02*
X85500000Y-86000000D01*
X75000000Y-82500000D02*
X74000000Y-82500000D01*
X85500000Y-40000000D02*
X85500000Y-41000000D01*
X116500000Y-41000000D02*
X108500000Y-41000000D01*
X116500000Y-86000000D02*
X108500000Y-86000000D01*
X74000000Y-82500000D02*
X74000000Y-74500000D01*
X85500000Y-86000000D02*
X77500000Y-86000000D01*
X108500000Y-86000000D02*
X108500000Y-85000000D01*
D11*
X98160000Y-72330000D02*
G75*
G03*
X98160000Y-72330000I-6250000J0D01*
G01*
D10*
X120000000Y-43500000D02*
X120000000Y-51500000D01*
X65000000Y-92000000D02*
X129000000Y-92000000D01*
X116000000Y-46000000D02*
G75*
G03*
X116000000Y-46000000I-2000000J0D01*
G01*
X106660000Y-63100000D02*
G75*
G03*
X106660000Y-63100000I-2000000J0D01*
G01*
X129000000Y-53000000D02*
X129000000Y-34000000D01*
X82000000Y-46000000D02*
G75*
G03*
X82000000Y-46000000I-2000000J0D01*
G01*
X92320000Y-62950000D02*
G75*
G03*
X92320000Y-62950000I-2000000J0D01*
G01*
X82000000Y-80000000D02*
G75*
G03*
X82000000Y-80000000I-2000000J0D01*
G01*
X108500000Y-41000000D02*
X108500000Y-40000000D01*
X129000000Y-73000000D02*
X129000000Y-92000000D01*
X65000000Y-53000000D02*
X65000000Y-34000000D01*
X68000000Y-73000000D02*
X65000000Y-73000000D01*
X129000000Y-73000000D02*
X126000000Y-73000000D01*
X129000000Y-34000000D02*
X65000000Y-34000000D01*
X74000000Y-51500000D02*
X74000000Y-43500000D01*
X74000000Y-43500000D02*
X75000000Y-43500000D01*
X108500000Y-40000000D02*
X116500000Y-40000000D01*
X85500000Y-41000000D02*
X77500000Y-41000000D01*
X75000000Y-43500000D02*
X75000000Y-51500000D01*
X120000000Y-74500000D02*
X120000000Y-82500000D01*
X77500000Y-86000000D02*
X77500000Y-85000000D01*
X65000000Y-53000000D02*
X68000000Y-53000000D01*
X68000000Y-53000000D02*
X68000000Y-73000000D01*
X108500000Y-85000000D02*
X116500000Y-85000000D01*
X120000000Y-82500000D02*
X119000000Y-82500000D01*
X75000000Y-51500000D02*
X74000000Y-51500000D01*
X116500000Y-85000000D02*
X116500000Y-86000000D01*
X98460000Y-47040000D02*
X107460000Y-47040000D01*
X107460000Y-56040000D01*
X98460000Y-56040000D01*
X98460000Y-47040000D01*
X77500000Y-41000000D02*
X77500000Y-40000000D01*
X65000000Y-73000000D02*
X65000000Y-92000000D01*
X119000000Y-43500000D02*
X120000000Y-43500000D01*
X119000000Y-51500000D02*
X119000000Y-43500000D01*
X126000000Y-53000000D02*
X129000000Y-53000000D01*
X84750000Y-50950000D02*
G75*
G03*
X84750000Y-50950000I-1750000J0D01*
G01*
X119000000Y-74500000D02*
X120000000Y-74500000D01*
M02*
