%TF.GenerationSoftware,KiCad,Pcbnew,7.0.2*%
%TF.CreationDate,2023-06-06T15:13:50-04:00*%
%TF.ProjectId,baseplate,62617365-706c-4617-9465-2e6b69636164,rev?*%
%TF.SameCoordinates,Original*%
%TF.FileFunction,Drillmap*%
%TF.FilePolarity,Positive*%
%FSLAX45Y45*%
G04 Gerber Fmt 4.5, Leading zero omitted, Abs format (unit mm)*
G04 Created by KiCad (PCBNEW 7.0.2) date 2023-06-06 15:13:50*
%MOMM*%
%LPD*%
G01*
G04 APERTURE LIST*
%ADD10C,0.050000*%
%ADD11C,0.200000*%
%ADD12C,0.030000*%
%ADD13C,0.040000*%
%ADD14C,0.070000*%
%ADD15C,0.120000*%
G04 APERTURE END LIST*
D10*
X7500000Y-7450000D02*
X7500000Y-8250000D01*
X11650000Y-4000000D02*
X11650000Y-4100000D01*
X11900000Y-8250000D02*
X11900000Y-7450000D01*
X7400000Y-7450000D02*
X7500000Y-7450000D01*
X12600000Y-7300000D02*
X12600000Y-5300000D01*
X12000000Y-5150000D02*
X11900000Y-5150000D01*
X11600000Y-8000000D02*
G75*
G03*
X11600000Y-8000000I-200000J0D01*
G01*
X7750000Y-4000000D02*
X8550000Y-4000000D01*
X7750000Y-8500000D02*
X8550000Y-8500000D01*
X8550000Y-8500000D02*
X8550000Y-8600000D01*
X7500000Y-8250000D02*
X7400000Y-8250000D01*
X8550000Y-4000000D02*
X8550000Y-4100000D01*
X11650000Y-4100000D02*
X10850000Y-4100000D01*
X11650000Y-8600000D02*
X10850000Y-8600000D01*
X7400000Y-8250000D02*
X7400000Y-7450000D01*
X8550000Y-8600000D02*
X7750000Y-8600000D01*
X10850000Y-8600000D02*
X10850000Y-8500000D01*
D11*
X9816000Y-7233000D02*
G75*
G03*
X9816000Y-7233000I-625000J0D01*
G01*
D10*
X12000000Y-4350000D02*
X12000000Y-5150000D01*
X6500000Y-9200000D02*
X12900000Y-9200000D01*
X11600000Y-4600000D02*
G75*
G03*
X11600000Y-4600000I-200000J0D01*
G01*
X10666000Y-6310000D02*
G75*
G03*
X10666000Y-6310000I-200000J0D01*
G01*
X12900000Y-5300000D02*
X12900000Y-3400000D01*
X8200000Y-4600000D02*
G75*
G03*
X8200000Y-4600000I-200000J0D01*
G01*
X9232000Y-6295000D02*
G75*
G03*
X9232000Y-6295000I-200000J0D01*
G01*
X8200000Y-8000000D02*
G75*
G03*
X8200000Y-8000000I-200000J0D01*
G01*
X10850000Y-4100000D02*
X10850000Y-4000000D01*
X12900000Y-7300000D02*
X12900000Y-9200000D01*
X6500000Y-5300000D02*
X6500000Y-3400000D01*
X6800000Y-7300000D02*
X6500000Y-7300000D01*
X12900000Y-7300000D02*
X12600000Y-7300000D01*
X12900000Y-3400000D02*
X6500000Y-3400000D01*
X7400000Y-5150000D02*
X7400000Y-4350000D01*
X7400000Y-4350000D02*
X7500000Y-4350000D01*
X10850000Y-4000000D02*
X11650000Y-4000000D01*
X8550000Y-4100000D02*
X7750000Y-4100000D01*
X7500000Y-4350000D02*
X7500000Y-5150000D01*
X12000000Y-7450000D02*
X12000000Y-8250000D01*
X7750000Y-8600000D02*
X7750000Y-8500000D01*
X6500000Y-5300000D02*
X6800000Y-5300000D01*
X6800000Y-5300000D02*
X6800000Y-7300000D01*
X10850000Y-8500000D02*
X11650000Y-8500000D01*
X12000000Y-8250000D02*
X11900000Y-8250000D01*
X7500000Y-5150000D02*
X7400000Y-5150000D01*
X11650000Y-8500000D02*
X11650000Y-8600000D01*
X9846000Y-4704000D02*
X10746000Y-4704000D01*
X10746000Y-5604000D01*
X9846000Y-5604000D01*
X9846000Y-4704000D01*
X7750000Y-4100000D02*
X7750000Y-4000000D01*
X6500000Y-7300000D02*
X6500000Y-9200000D01*
X11900000Y-4350000D02*
X12000000Y-4350000D01*
X11900000Y-5150000D02*
X11900000Y-4350000D01*
X12600000Y-5300000D02*
X12900000Y-5300000D01*
X8475000Y-5095000D02*
G75*
G03*
X8475000Y-5095000I-175000J0D01*
G01*
X11900000Y-7450000D02*
X12000000Y-7450000D01*
D11*
D12*
X6668000Y-3966000D02*
X6698000Y-3996000D01*
X6698000Y-3966000D02*
X6668000Y-3996000D01*
X6702000Y-7372000D02*
X6732000Y-7402000D01*
X6732000Y-7372000D02*
X6702000Y-7402000D01*
X6736000Y-8207000D02*
X6766000Y-8237000D01*
X6766000Y-8207000D02*
X6736000Y-8237000D01*
X6848000Y-5019000D02*
X6878000Y-5049000D01*
X6878000Y-5019000D02*
X6848000Y-5049000D01*
X7032000Y-3567000D02*
X7062000Y-3597000D01*
X7062000Y-3567000D02*
X7032000Y-3597000D01*
X7033000Y-4758000D02*
X7063000Y-4788000D01*
X7063000Y-4758000D02*
X7033000Y-4788000D01*
X7042000Y-7933000D02*
X7072000Y-7963000D01*
X7072000Y-7933000D02*
X7042000Y-7963000D01*
X7076000Y-8681000D02*
X7106000Y-8711000D01*
X7106000Y-8681000D02*
X7076000Y-8711000D01*
X7116000Y-5297000D02*
X7146000Y-5327000D01*
X7146000Y-5297000D02*
X7116000Y-5327000D01*
X7693000Y-4893000D02*
X7723000Y-4923000D01*
X7723000Y-4893000D02*
X7693000Y-4923000D01*
X8186000Y-3623000D02*
X8216000Y-3653000D01*
X8216000Y-3623000D02*
X8186000Y-3653000D01*
X8795000Y-5625000D02*
X8825000Y-5655000D01*
X8825000Y-5625000D02*
X8795000Y-5655000D01*
X8906000Y-3596000D02*
X8936000Y-3626000D01*
X8936000Y-3596000D02*
X8906000Y-3626000D01*
X9055000Y-5625000D02*
X9085000Y-5655000D01*
X9085000Y-5625000D02*
X9055000Y-5655000D01*
X9205000Y-5635000D02*
X9235000Y-5665000D01*
X9235000Y-5635000D02*
X9205000Y-5665000D01*
X9515000Y-3795000D02*
X9545000Y-3825000D01*
X9545000Y-3795000D02*
X9515000Y-3825000D01*
X9644000Y-8925000D02*
X9674000Y-8955000D01*
X9674000Y-8925000D02*
X9644000Y-8955000D01*
X9689000Y-4442000D02*
X9719000Y-4472000D01*
X9719000Y-4442000D02*
X9689000Y-4472000D01*
X9743000Y-6160000D02*
X9773000Y-6190000D01*
X9773000Y-6160000D02*
X9743000Y-6190000D01*
X10057000Y-3691000D02*
X10087000Y-3721000D01*
X10087000Y-3691000D02*
X10057000Y-3721000D01*
X10059000Y-6371000D02*
X10089000Y-6401000D01*
X10089000Y-6371000D02*
X10059000Y-6401000D01*
X10085000Y-8745000D02*
X10115000Y-8775000D01*
X10115000Y-8745000D02*
X10085000Y-8775000D01*
X10205000Y-5738000D02*
X10235000Y-5768000D01*
X10235000Y-5738000D02*
X10205000Y-5768000D01*
X10556000Y-4256000D02*
X10586000Y-4286000D01*
X10586000Y-4256000D02*
X10556000Y-4286000D01*
X10677000Y-8919000D02*
X10707000Y-8949000D01*
X10707000Y-8919000D02*
X10677000Y-8949000D01*
X10705000Y-3719000D02*
X10735000Y-3749000D01*
X10735000Y-3719000D02*
X10705000Y-3749000D01*
X10967000Y-4413000D02*
X10997000Y-4443000D01*
X10997000Y-4413000D02*
X10967000Y-4443000D01*
X11288000Y-4290000D02*
X11318000Y-4320000D01*
X11318000Y-4290000D02*
X11288000Y-4320000D01*
X11446000Y-3605000D02*
X11476000Y-3635000D01*
X11476000Y-3605000D02*
X11446000Y-3635000D01*
X11519000Y-4257000D02*
X11549000Y-4287000D01*
X11549000Y-4257000D02*
X11519000Y-4287000D01*
X11555000Y-4785000D02*
X11585000Y-4815000D01*
X11585000Y-4785000D02*
X11555000Y-4815000D01*
X11634000Y-8863000D02*
X11664000Y-8893000D01*
X11664000Y-8863000D02*
X11634000Y-8893000D01*
X11720000Y-4295000D02*
X11750000Y-4325000D01*
X11750000Y-4295000D02*
X11720000Y-4325000D01*
X11795000Y-4975000D02*
X11825000Y-5005000D01*
X11825000Y-4975000D02*
X11795000Y-5005000D01*
X11938000Y-3870000D02*
X11968000Y-3900000D01*
X11968000Y-3870000D02*
X11938000Y-3900000D01*
X12069000Y-8965000D02*
X12099000Y-8995000D01*
X12099000Y-8965000D02*
X12069000Y-8995000D01*
X12668000Y-4422000D02*
X12698000Y-4452000D01*
X12698000Y-4422000D02*
X12668000Y-4452000D01*
D13*
X6724000Y-4525000D02*
G75*
G03*
X6724000Y-4525000I-20000J0D01*
G01*
X7058000Y-5490000D02*
G75*
G03*
X7058000Y-5490000I-20000J0D01*
G01*
X7194000Y-6973000D02*
G75*
G03*
X7194000Y-6973000I-20000J0D01*
G01*
X7227000Y-5519000D02*
G75*
G03*
X7227000Y-5519000I-20000J0D01*
G01*
X7255994Y-7182019D02*
G75*
G03*
X7255994Y-7182019I-20000J0D01*
G01*
X7287000Y-7087000D02*
G75*
G03*
X7287000Y-7087000I-20000J0D01*
G01*
X7414000Y-7001000D02*
G75*
G03*
X7414000Y-7001000I-20000J0D01*
G01*
X7489500Y-7073500D02*
G75*
G03*
X7489500Y-7073500I-20000J0D01*
G01*
X7558000Y-9032000D02*
G75*
G03*
X7558000Y-9032000I-20000J0D01*
G01*
X7612000Y-7284000D02*
G75*
G03*
X7612000Y-7284000I-20000J0D01*
G01*
X7644000Y-4831000D02*
G75*
G03*
X7644000Y-4831000I-20000J0D01*
G01*
X7716770Y-7580770D02*
G75*
G03*
X7716770Y-7580770I-20000J0D01*
G01*
X7783000Y-6993450D02*
G75*
G03*
X7783000Y-6993450I-20000J0D01*
G01*
X7794000Y-3712000D02*
G75*
G03*
X7794000Y-3712000I-20000J0D01*
G01*
X7855000Y-4287000D02*
G75*
G03*
X7855000Y-4287000I-20000J0D01*
G01*
X7862000Y-7496000D02*
G75*
G03*
X7862000Y-7496000I-20000J0D01*
G01*
X7876000Y-7737000D02*
G75*
G03*
X7876000Y-7737000I-20000J0D01*
G01*
X7910035Y-7353965D02*
G75*
G03*
X7910035Y-7353965I-20000J0D01*
G01*
X7915000Y-8372000D02*
G75*
G03*
X7915000Y-8372000I-20000J0D01*
G01*
X7947550Y-7176000D02*
G75*
G03*
X7947550Y-7176000I-20000J0D01*
G01*
X7973000Y-6994000D02*
G75*
G03*
X7973000Y-6994000I-20000J0D01*
G01*
X8082000Y-8285550D02*
G75*
G03*
X8082000Y-8285550I-20000J0D01*
G01*
X8121000Y-7629000D02*
G75*
G03*
X8121000Y-7629000I-20000J0D01*
G01*
X8157000Y-5517000D02*
G75*
G03*
X8157000Y-5517000I-20000J0D01*
G01*
X8170000Y-9039000D02*
G75*
G03*
X8170000Y-9039000I-20000J0D01*
G01*
X8171000Y-5402000D02*
G75*
G03*
X8171000Y-5402000I-20000J0D01*
G01*
X8217550Y-7003000D02*
G75*
G03*
X8217550Y-7003000I-20000J0D01*
G01*
X8304000Y-8439000D02*
G75*
G03*
X8304000Y-8439000I-20000J0D01*
G01*
X8335000Y-7338000D02*
G75*
G03*
X8335000Y-7338000I-20000J0D01*
G01*
X8436000Y-4660000D02*
G75*
G03*
X8436000Y-4660000I-20000J0D01*
G01*
X8450000Y-8911000D02*
G75*
G03*
X8450000Y-8911000I-20000J0D01*
G01*
X8493000Y-4944000D02*
G75*
G03*
X8493000Y-4944000I-20000J0D01*
G01*
X8612000Y-4683000D02*
G75*
G03*
X8612000Y-4683000I-20000J0D01*
G01*
X8631000Y-8072000D02*
G75*
G03*
X8631000Y-8072000I-20000J0D01*
G01*
X8664950Y-6475000D02*
G75*
G03*
X8664950Y-6475000I-20000J0D01*
G01*
X8672000Y-6200000D02*
G75*
G03*
X8672000Y-6200000I-20000J0D01*
G01*
X8676360Y-5982000D02*
G75*
G03*
X8676360Y-5982000I-20000J0D01*
G01*
X8679000Y-6374000D02*
G75*
G03*
X8679000Y-6374000I-20000J0D01*
G01*
X8682050Y-6084000D02*
G75*
G03*
X8682050Y-6084000I-20000J0D01*
G01*
X8719000Y-5253450D02*
G75*
G03*
X8719000Y-5253450I-20000J0D01*
G01*
X8734000Y-8763000D02*
G75*
G03*
X8734000Y-8763000I-20000J0D01*
G01*
X8769000Y-8141000D02*
G75*
G03*
X8769000Y-8141000I-20000J0D01*
G01*
X8950000Y-4750000D02*
G75*
G03*
X8950000Y-4750000I-20000J0D01*
G01*
X8954000Y-5185000D02*
G75*
G03*
X8954000Y-5185000I-20000J0D01*
G01*
X8954000Y-6007000D02*
G75*
G03*
X8954000Y-6007000I-20000J0D01*
G01*
X8962000Y-5643000D02*
G75*
G03*
X8962000Y-5643000I-20000J0D01*
G01*
X9033000Y-8792000D02*
G75*
G03*
X9033000Y-8792000I-20000J0D01*
G01*
X9040000Y-9060000D02*
G75*
G03*
X9040000Y-9060000I-20000J0D01*
G01*
X9059000Y-5107000D02*
G75*
G03*
X9059000Y-5107000I-20000J0D01*
G01*
X9071450Y-4895000D02*
G75*
G03*
X9071450Y-4895000I-20000J0D01*
G01*
X9090000Y-4600000D02*
G75*
G03*
X9090000Y-4600000I-20000J0D01*
G01*
X9091000Y-5983000D02*
G75*
G03*
X9091000Y-5983000I-20000J0D01*
G01*
X9312950Y-5267826D02*
G75*
G03*
X9312950Y-5267826I-20000J0D01*
G01*
X9355000Y-5460000D02*
G75*
G03*
X9355000Y-5460000I-20000J0D01*
G01*
X9373465Y-4048465D02*
G75*
G03*
X9373465Y-4048465I-20000J0D01*
G01*
X9400000Y-9060000D02*
G75*
G03*
X9400000Y-9060000I-20000J0D01*
G01*
X9405000Y-8845000D02*
G75*
G03*
X9405000Y-8845000I-20000J0D01*
G01*
X9421000Y-4406000D02*
G75*
G03*
X9421000Y-4406000I-20000J0D01*
G01*
X9425000Y-6420000D02*
G75*
G03*
X9425000Y-6420000I-20000J0D01*
G01*
X9472000Y-4581000D02*
G75*
G03*
X9472000Y-4581000I-20000J0D01*
G01*
X9503644Y-5514714D02*
G75*
G03*
X9503644Y-5514714I-20000J0D01*
G01*
X9560500Y-5828500D02*
G75*
G03*
X9560500Y-5828500I-20000J0D01*
G01*
X9582770Y-5354770D02*
G75*
G03*
X9582770Y-5354770I-20000J0D01*
G01*
X9611000Y-6036000D02*
G75*
G03*
X9611000Y-6036000I-20000J0D01*
G01*
X9745000Y-4105000D02*
G75*
G03*
X9745000Y-4105000I-20000J0D01*
G01*
X9762721Y-7979810D02*
G75*
G03*
X9762721Y-7979810I-20000J0D01*
G01*
X9781050Y-7758000D02*
G75*
G03*
X9781050Y-7758000I-20000J0D01*
G01*
X9787674Y-5435674D02*
G75*
G03*
X9787674Y-5435674I-20000J0D01*
G01*
X9831772Y-6409219D02*
G75*
G03*
X9831772Y-6409219I-20000J0D01*
G01*
X9892000Y-6767000D02*
G75*
G03*
X9892000Y-6767000I-20000J0D01*
G01*
X9921000Y-7053000D02*
G75*
G03*
X9921000Y-7053000I-20000J0D01*
G01*
X9927000Y-5730000D02*
G75*
G03*
X9927000Y-5730000I-20000J0D01*
G01*
X9956000Y-3803000D02*
G75*
G03*
X9956000Y-3803000I-20000J0D01*
G01*
X9999050Y-6150661D02*
G75*
G03*
X9999050Y-6150661I-20000J0D01*
G01*
X10005479Y-5668104D02*
G75*
G03*
X10005479Y-5668104I-20000J0D01*
G01*
X10085231Y-7260380D02*
G75*
G03*
X10085231Y-7260380I-20000J0D01*
G01*
X10147000Y-7579000D02*
G75*
G03*
X10147000Y-7579000I-20000J0D01*
G01*
X10154000Y-3796000D02*
G75*
G03*
X10154000Y-3796000I-20000J0D01*
G01*
X10197867Y-6503938D02*
G75*
G03*
X10197867Y-6503938I-20000J0D01*
G01*
X10218112Y-7232550D02*
G75*
G03*
X10218112Y-7232550I-20000J0D01*
G01*
X10371000Y-6702000D02*
G75*
G03*
X10371000Y-6702000I-20000J0D01*
G01*
X10382000Y-7257000D02*
G75*
G03*
X10382000Y-7257000I-20000J0D01*
G01*
X10491702Y-7647758D02*
G75*
G03*
X10491702Y-7647758I-20000J0D01*
G01*
X10514000Y-6782000D02*
G75*
G03*
X10514000Y-6782000I-20000J0D01*
G01*
X10518000Y-7242000D02*
G75*
G03*
X10518000Y-7242000I-20000J0D01*
G01*
X10525000Y-6609000D02*
G75*
G03*
X10525000Y-6609000I-20000J0D01*
G01*
X10543000Y-7951000D02*
G75*
G03*
X10543000Y-7951000I-20000J0D01*
G01*
X10544998Y-7754550D02*
G75*
G03*
X10544998Y-7754550I-20000J0D01*
G01*
X10641000Y-7260000D02*
G75*
G03*
X10641000Y-7260000I-20000J0D01*
G01*
X10728000Y-5744000D02*
G75*
G03*
X10728000Y-5744000I-20000J0D01*
G01*
X10734000Y-6705000D02*
G75*
G03*
X10734000Y-6705000I-20000J0D01*
G01*
X10734000Y-6836000D02*
G75*
G03*
X10734000Y-6836000I-20000J0D01*
G01*
X10764667Y-7644956D02*
G75*
G03*
X10764667Y-7644956I-20000J0D01*
G01*
X10765000Y-4561000D02*
G75*
G03*
X10765000Y-4561000I-20000J0D01*
G01*
X10782000Y-7255000D02*
G75*
G03*
X10782000Y-7255000I-20000J0D01*
G01*
X10798000Y-4202000D02*
G75*
G03*
X10798000Y-4202000I-20000J0D01*
G01*
X10889000Y-5276000D02*
G75*
G03*
X10889000Y-5276000I-20000J0D01*
G01*
X10959000Y-7253000D02*
G75*
G03*
X10959000Y-7253000I-20000J0D01*
G01*
X11008730Y-8014270D02*
G75*
G03*
X11008730Y-8014270I-20000J0D01*
G01*
X11018000Y-5510000D02*
G75*
G03*
X11018000Y-5510000I-20000J0D01*
G01*
X11076000Y-5362000D02*
G75*
G03*
X11076000Y-5362000I-20000J0D01*
G01*
X11098000Y-6960950D02*
G75*
G03*
X11098000Y-6960950I-20000J0D01*
G01*
X11119550Y-8026000D02*
G75*
G03*
X11119550Y-8026000I-20000J0D01*
G01*
X11128919Y-7065555D02*
G75*
G03*
X11128919Y-7065555I-20000J0D01*
G01*
X11133000Y-5519000D02*
G75*
G03*
X11133000Y-5519000I-20000J0D01*
G01*
X11137121Y-7836420D02*
G75*
G03*
X11137121Y-7836420I-20000J0D01*
G01*
X11173381Y-7413380D02*
G75*
G03*
X11173381Y-7413380I-20000J0D01*
G01*
X11178277Y-4897370D02*
G75*
G03*
X11178277Y-4897370I-20000J0D01*
G01*
X11192000Y-8377000D02*
G75*
G03*
X11192000Y-8377000I-20000J0D01*
G01*
X11239000Y-5571050D02*
G75*
G03*
X11239000Y-5571050I-20000J0D01*
G01*
X11271000Y-6988000D02*
G75*
G03*
X11271000Y-6988000I-20000J0D01*
G01*
X11284000Y-8945000D02*
G75*
G03*
X11284000Y-8945000I-20000J0D01*
G01*
X11323000Y-7633000D02*
G75*
G03*
X11323000Y-7633000I-20000J0D01*
G01*
X11385000Y-5134000D02*
G75*
G03*
X11385000Y-5134000I-20000J0D01*
G01*
X11499000Y-5213000D02*
G75*
G03*
X11499000Y-5213000I-20000J0D01*
G01*
X11663964Y-5292036D02*
G75*
G03*
X11663964Y-5292036I-20000J0D01*
G01*
X11682550Y-5003000D02*
G75*
G03*
X11682550Y-5003000I-20000J0D01*
G01*
X11769000Y-8214000D02*
G75*
G03*
X11769000Y-8214000I-20000J0D01*
G01*
X11779950Y-7368000D02*
G75*
G03*
X11779950Y-7368000I-20000J0D01*
G01*
X11780000Y-7650000D02*
G75*
G03*
X11780000Y-7650000I-20000J0D01*
G01*
X11788000Y-5284000D02*
G75*
G03*
X11788000Y-5284000I-20000J0D01*
G01*
X11819000Y-6276000D02*
G75*
G03*
X11819000Y-6276000I-20000J0D01*
G01*
X12092000Y-6222000D02*
G75*
G03*
X12092000Y-6222000I-20000J0D01*
G01*
X12139000Y-5208000D02*
G75*
G03*
X12139000Y-5208000I-20000J0D01*
G01*
X12146000Y-7335000D02*
G75*
G03*
X12146000Y-7335000I-20000J0D01*
G01*
X12186000Y-5571050D02*
G75*
G03*
X12186000Y-5571050I-20000J0D01*
G01*
X12234000Y-6998000D02*
G75*
G03*
X12234000Y-6998000I-20000J0D01*
G01*
X12353000Y-5223000D02*
G75*
G03*
X12353000Y-5223000I-20000J0D01*
G01*
X12377000Y-6002000D02*
G75*
G03*
X12377000Y-6002000I-20000J0D01*
G01*
X12419000Y-5544000D02*
G75*
G03*
X12419000Y-5544000I-20000J0D01*
G01*
X12470000Y-8070000D02*
G75*
G03*
X12470000Y-8070000I-20000J0D01*
G01*
X12476000Y-7622000D02*
G75*
G03*
X12476000Y-7622000I-20000J0D01*
G01*
X12495000Y-5276000D02*
G75*
G03*
X12495000Y-5276000I-20000J0D01*
G01*
X12639000Y-4949000D02*
G75*
G03*
X12639000Y-4949000I-20000J0D01*
G01*
X12701000Y-8983000D02*
G75*
G03*
X12701000Y-8983000I-20000J0D01*
G01*
D14*
X9754000Y-5822000D02*
X9754000Y-5892000D01*
X9719000Y-5857000D02*
X9789000Y-5857000D01*
X9754000Y-6584000D02*
X9754000Y-6654000D01*
X9719000Y-6619000D02*
X9789000Y-6619000D01*
X10058000Y-5808000D02*
X10058000Y-5878000D01*
X10023000Y-5843000D02*
X10093000Y-5843000D01*
X10058000Y-6570000D02*
X10058000Y-6640000D01*
X10023000Y-6605000D02*
X10093000Y-6605000D01*
D15*
X8587427Y-4281427D02*
X8587427Y-4196573D01*
X8502573Y-4196573D01*
X8502573Y-4281427D01*
X8587427Y-4281427D01*
X9095427Y-4281427D02*
X9095427Y-4196573D01*
X9010573Y-4196573D01*
X9010573Y-4281427D01*
X9095427Y-4281427D01*
X9603427Y-4281427D02*
X9603427Y-4196573D01*
X9518573Y-4196573D01*
X9518573Y-4281427D01*
X9603427Y-4281427D01*
X9896427Y-8390427D02*
X9896427Y-8305573D01*
X9811573Y-8305573D01*
X9811573Y-8390427D01*
X9896427Y-8390427D01*
X10404427Y-8390427D02*
X10404427Y-8305573D01*
X10319573Y-8305573D01*
X10319573Y-8390427D01*
X10404427Y-8390427D01*
X10912427Y-8390427D02*
X10912427Y-8305573D01*
X10827573Y-8305573D01*
X10827573Y-8390427D01*
X10912427Y-8390427D01*
D11*
X6745119Y-9515024D02*
X6745119Y-9315024D01*
X6745119Y-9315024D02*
X6792738Y-9315024D01*
X6792738Y-9315024D02*
X6821309Y-9324548D01*
X6821309Y-9324548D02*
X6840357Y-9343595D01*
X6840357Y-9343595D02*
X6849881Y-9362643D01*
X6849881Y-9362643D02*
X6859405Y-9400738D01*
X6859405Y-9400738D02*
X6859405Y-9429310D01*
X6859405Y-9429310D02*
X6849881Y-9467405D01*
X6849881Y-9467405D02*
X6840357Y-9486452D01*
X6840357Y-9486452D02*
X6821309Y-9505500D01*
X6821309Y-9505500D02*
X6792738Y-9515024D01*
X6792738Y-9515024D02*
X6745119Y-9515024D01*
X6945119Y-9515024D02*
X6945119Y-9381690D01*
X6945119Y-9419786D02*
X6954643Y-9400738D01*
X6954643Y-9400738D02*
X6964167Y-9391214D01*
X6964167Y-9391214D02*
X6983214Y-9381690D01*
X6983214Y-9381690D02*
X7002262Y-9381690D01*
X7068928Y-9515024D02*
X7068928Y-9381690D01*
X7068928Y-9315024D02*
X7059405Y-9324548D01*
X7059405Y-9324548D02*
X7068928Y-9334071D01*
X7068928Y-9334071D02*
X7078452Y-9324548D01*
X7078452Y-9324548D02*
X7068928Y-9315024D01*
X7068928Y-9315024D02*
X7068928Y-9334071D01*
X7192738Y-9515024D02*
X7173690Y-9505500D01*
X7173690Y-9505500D02*
X7164167Y-9486452D01*
X7164167Y-9486452D02*
X7164167Y-9315024D01*
X7297500Y-9515024D02*
X7278452Y-9505500D01*
X7278452Y-9505500D02*
X7268928Y-9486452D01*
X7268928Y-9486452D02*
X7268928Y-9315024D01*
X7526071Y-9515024D02*
X7526071Y-9315024D01*
X7526071Y-9315024D02*
X7592738Y-9457881D01*
X7592738Y-9457881D02*
X7659405Y-9315024D01*
X7659405Y-9315024D02*
X7659405Y-9515024D01*
X7840357Y-9515024D02*
X7840357Y-9410262D01*
X7840357Y-9410262D02*
X7830833Y-9391214D01*
X7830833Y-9391214D02*
X7811786Y-9381690D01*
X7811786Y-9381690D02*
X7773690Y-9381690D01*
X7773690Y-9381690D02*
X7754643Y-9391214D01*
X7840357Y-9505500D02*
X7821309Y-9515024D01*
X7821309Y-9515024D02*
X7773690Y-9515024D01*
X7773690Y-9515024D02*
X7754643Y-9505500D01*
X7754643Y-9505500D02*
X7745119Y-9486452D01*
X7745119Y-9486452D02*
X7745119Y-9467405D01*
X7745119Y-9467405D02*
X7754643Y-9448357D01*
X7754643Y-9448357D02*
X7773690Y-9438833D01*
X7773690Y-9438833D02*
X7821309Y-9438833D01*
X7821309Y-9438833D02*
X7840357Y-9429310D01*
X7935595Y-9381690D02*
X7935595Y-9581690D01*
X7935595Y-9391214D02*
X7954643Y-9381690D01*
X7954643Y-9381690D02*
X7992738Y-9381690D01*
X7992738Y-9381690D02*
X8011786Y-9391214D01*
X8011786Y-9391214D02*
X8021309Y-9400738D01*
X8021309Y-9400738D02*
X8030833Y-9419786D01*
X8030833Y-9419786D02*
X8030833Y-9476929D01*
X8030833Y-9476929D02*
X8021309Y-9495976D01*
X8021309Y-9495976D02*
X8011786Y-9505500D01*
X8011786Y-9505500D02*
X7992738Y-9515024D01*
X7992738Y-9515024D02*
X7954643Y-9515024D01*
X7954643Y-9515024D02*
X7935595Y-9505500D01*
X8116548Y-9495976D02*
X8126071Y-9505500D01*
X8126071Y-9505500D02*
X8116548Y-9515024D01*
X8116548Y-9515024D02*
X8107024Y-9505500D01*
X8107024Y-9505500D02*
X8116548Y-9495976D01*
X8116548Y-9495976D02*
X8116548Y-9515024D01*
X8116548Y-9391214D02*
X8126071Y-9400738D01*
X8126071Y-9400738D02*
X8116548Y-9410262D01*
X8116548Y-9410262D02*
X8107024Y-9400738D01*
X8107024Y-9400738D02*
X8116548Y-9391214D01*
X8116548Y-9391214D02*
X8116548Y-9410262D01*
D12*
X6467500Y-9827500D02*
X6497500Y-9857500D01*
X6497500Y-9827500D02*
X6467500Y-9857500D01*
D11*
X6783214Y-9735024D02*
X6802262Y-9735024D01*
X6802262Y-9735024D02*
X6821309Y-9744548D01*
X6821309Y-9744548D02*
X6830833Y-9754071D01*
X6830833Y-9754071D02*
X6840357Y-9773119D01*
X6840357Y-9773119D02*
X6849881Y-9811214D01*
X6849881Y-9811214D02*
X6849881Y-9858833D01*
X6849881Y-9858833D02*
X6840357Y-9896929D01*
X6840357Y-9896929D02*
X6830833Y-9915976D01*
X6830833Y-9915976D02*
X6821309Y-9925500D01*
X6821309Y-9925500D02*
X6802262Y-9935024D01*
X6802262Y-9935024D02*
X6783214Y-9935024D01*
X6783214Y-9935024D02*
X6764167Y-9925500D01*
X6764167Y-9925500D02*
X6754643Y-9915976D01*
X6754643Y-9915976D02*
X6745119Y-9896929D01*
X6745119Y-9896929D02*
X6735595Y-9858833D01*
X6735595Y-9858833D02*
X6735595Y-9811214D01*
X6735595Y-9811214D02*
X6745119Y-9773119D01*
X6745119Y-9773119D02*
X6754643Y-9754071D01*
X6754643Y-9754071D02*
X6764167Y-9744548D01*
X6764167Y-9744548D02*
X6783214Y-9735024D01*
X6935595Y-9915976D02*
X6945119Y-9925500D01*
X6945119Y-9925500D02*
X6935595Y-9935024D01*
X6935595Y-9935024D02*
X6926071Y-9925500D01*
X6926071Y-9925500D02*
X6935595Y-9915976D01*
X6935595Y-9915976D02*
X6935595Y-9935024D01*
X7011786Y-9735024D02*
X7135595Y-9735024D01*
X7135595Y-9735024D02*
X7068928Y-9811214D01*
X7068928Y-9811214D02*
X7097500Y-9811214D01*
X7097500Y-9811214D02*
X7116548Y-9820738D01*
X7116548Y-9820738D02*
X7126071Y-9830262D01*
X7126071Y-9830262D02*
X7135595Y-9849310D01*
X7135595Y-9849310D02*
X7135595Y-9896929D01*
X7135595Y-9896929D02*
X7126071Y-9915976D01*
X7126071Y-9915976D02*
X7116548Y-9925500D01*
X7116548Y-9925500D02*
X7097500Y-9935024D01*
X7097500Y-9935024D02*
X7040357Y-9935024D01*
X7040357Y-9935024D02*
X7021309Y-9925500D01*
X7021309Y-9925500D02*
X7011786Y-9915976D01*
X7259405Y-9735024D02*
X7278452Y-9735024D01*
X7278452Y-9735024D02*
X7297500Y-9744548D01*
X7297500Y-9744548D02*
X7307024Y-9754071D01*
X7307024Y-9754071D02*
X7316548Y-9773119D01*
X7316548Y-9773119D02*
X7326071Y-9811214D01*
X7326071Y-9811214D02*
X7326071Y-9858833D01*
X7326071Y-9858833D02*
X7316548Y-9896929D01*
X7316548Y-9896929D02*
X7307024Y-9915976D01*
X7307024Y-9915976D02*
X7297500Y-9925500D01*
X7297500Y-9925500D02*
X7278452Y-9935024D01*
X7278452Y-9935024D02*
X7259405Y-9935024D01*
X7259405Y-9935024D02*
X7240357Y-9925500D01*
X7240357Y-9925500D02*
X7230833Y-9915976D01*
X7230833Y-9915976D02*
X7221309Y-9896929D01*
X7221309Y-9896929D02*
X7211786Y-9858833D01*
X7211786Y-9858833D02*
X7211786Y-9811214D01*
X7211786Y-9811214D02*
X7221309Y-9773119D01*
X7221309Y-9773119D02*
X7230833Y-9754071D01*
X7230833Y-9754071D02*
X7240357Y-9744548D01*
X7240357Y-9744548D02*
X7259405Y-9735024D01*
X7449881Y-9735024D02*
X7468929Y-9735024D01*
X7468929Y-9735024D02*
X7487976Y-9744548D01*
X7487976Y-9744548D02*
X7497500Y-9754071D01*
X7497500Y-9754071D02*
X7507024Y-9773119D01*
X7507024Y-9773119D02*
X7516548Y-9811214D01*
X7516548Y-9811214D02*
X7516548Y-9858833D01*
X7516548Y-9858833D02*
X7507024Y-9896929D01*
X7507024Y-9896929D02*
X7497500Y-9915976D01*
X7497500Y-9915976D02*
X7487976Y-9925500D01*
X7487976Y-9925500D02*
X7468929Y-9935024D01*
X7468929Y-9935024D02*
X7449881Y-9935024D01*
X7449881Y-9935024D02*
X7430833Y-9925500D01*
X7430833Y-9925500D02*
X7421309Y-9915976D01*
X7421309Y-9915976D02*
X7411786Y-9896929D01*
X7411786Y-9896929D02*
X7402262Y-9858833D01*
X7402262Y-9858833D02*
X7402262Y-9811214D01*
X7402262Y-9811214D02*
X7411786Y-9773119D01*
X7411786Y-9773119D02*
X7421309Y-9754071D01*
X7421309Y-9754071D02*
X7430833Y-9744548D01*
X7430833Y-9744548D02*
X7449881Y-9735024D01*
X7602262Y-9935024D02*
X7602262Y-9801690D01*
X7602262Y-9820738D02*
X7611786Y-9811214D01*
X7611786Y-9811214D02*
X7630833Y-9801690D01*
X7630833Y-9801690D02*
X7659405Y-9801690D01*
X7659405Y-9801690D02*
X7678452Y-9811214D01*
X7678452Y-9811214D02*
X7687976Y-9830262D01*
X7687976Y-9830262D02*
X7687976Y-9935024D01*
X7687976Y-9830262D02*
X7697500Y-9811214D01*
X7697500Y-9811214D02*
X7716548Y-9801690D01*
X7716548Y-9801690D02*
X7745119Y-9801690D01*
X7745119Y-9801690D02*
X7764167Y-9811214D01*
X7764167Y-9811214D02*
X7773690Y-9830262D01*
X7773690Y-9830262D02*
X7773690Y-9935024D01*
X7868929Y-9935024D02*
X7868929Y-9801690D01*
X7868929Y-9820738D02*
X7878452Y-9811214D01*
X7878452Y-9811214D02*
X7897500Y-9801690D01*
X7897500Y-9801690D02*
X7926071Y-9801690D01*
X7926071Y-9801690D02*
X7945119Y-9811214D01*
X7945119Y-9811214D02*
X7954643Y-9830262D01*
X7954643Y-9830262D02*
X7954643Y-9935024D01*
X7954643Y-9830262D02*
X7964167Y-9811214D01*
X7964167Y-9811214D02*
X7983214Y-9801690D01*
X7983214Y-9801690D02*
X8011786Y-9801690D01*
X8011786Y-9801690D02*
X8030833Y-9811214D01*
X8030833Y-9811214D02*
X8040357Y-9830262D01*
X8040357Y-9830262D02*
X8040357Y-9935024D01*
X8430833Y-9725500D02*
X8259405Y-9982643D01*
X8687976Y-9735024D02*
X8707024Y-9735024D01*
X8707024Y-9735024D02*
X8726072Y-9744548D01*
X8726072Y-9744548D02*
X8735595Y-9754071D01*
X8735595Y-9754071D02*
X8745119Y-9773119D01*
X8745119Y-9773119D02*
X8754643Y-9811214D01*
X8754643Y-9811214D02*
X8754643Y-9858833D01*
X8754643Y-9858833D02*
X8745119Y-9896929D01*
X8745119Y-9896929D02*
X8735595Y-9915976D01*
X8735595Y-9915976D02*
X8726072Y-9925500D01*
X8726072Y-9925500D02*
X8707024Y-9935024D01*
X8707024Y-9935024D02*
X8687976Y-9935024D01*
X8687976Y-9935024D02*
X8668929Y-9925500D01*
X8668929Y-9925500D02*
X8659405Y-9915976D01*
X8659405Y-9915976D02*
X8649881Y-9896929D01*
X8649881Y-9896929D02*
X8640357Y-9858833D01*
X8640357Y-9858833D02*
X8640357Y-9811214D01*
X8640357Y-9811214D02*
X8649881Y-9773119D01*
X8649881Y-9773119D02*
X8659405Y-9754071D01*
X8659405Y-9754071D02*
X8668929Y-9744548D01*
X8668929Y-9744548D02*
X8687976Y-9735024D01*
X8840357Y-9915976D02*
X8849881Y-9925500D01*
X8849881Y-9925500D02*
X8840357Y-9935024D01*
X8840357Y-9935024D02*
X8830834Y-9925500D01*
X8830834Y-9925500D02*
X8840357Y-9915976D01*
X8840357Y-9915976D02*
X8840357Y-9935024D01*
X8973691Y-9735024D02*
X8992738Y-9735024D01*
X8992738Y-9735024D02*
X9011786Y-9744548D01*
X9011786Y-9744548D02*
X9021310Y-9754071D01*
X9021310Y-9754071D02*
X9030834Y-9773119D01*
X9030834Y-9773119D02*
X9040357Y-9811214D01*
X9040357Y-9811214D02*
X9040357Y-9858833D01*
X9040357Y-9858833D02*
X9030834Y-9896929D01*
X9030834Y-9896929D02*
X9021310Y-9915976D01*
X9021310Y-9915976D02*
X9011786Y-9925500D01*
X9011786Y-9925500D02*
X8992738Y-9935024D01*
X8992738Y-9935024D02*
X8973691Y-9935024D01*
X8973691Y-9935024D02*
X8954643Y-9925500D01*
X8954643Y-9925500D02*
X8945119Y-9915976D01*
X8945119Y-9915976D02*
X8935595Y-9896929D01*
X8935595Y-9896929D02*
X8926072Y-9858833D01*
X8926072Y-9858833D02*
X8926072Y-9811214D01*
X8926072Y-9811214D02*
X8935595Y-9773119D01*
X8935595Y-9773119D02*
X8945119Y-9754071D01*
X8945119Y-9754071D02*
X8954643Y-9744548D01*
X8954643Y-9744548D02*
X8973691Y-9735024D01*
X9230834Y-9935024D02*
X9116548Y-9935024D01*
X9173691Y-9935024D02*
X9173691Y-9735024D01*
X9173691Y-9735024D02*
X9154643Y-9763595D01*
X9154643Y-9763595D02*
X9135595Y-9782643D01*
X9135595Y-9782643D02*
X9116548Y-9792167D01*
X9421310Y-9935024D02*
X9307024Y-9935024D01*
X9364167Y-9935024D02*
X9364167Y-9735024D01*
X9364167Y-9735024D02*
X9345119Y-9763595D01*
X9345119Y-9763595D02*
X9326072Y-9782643D01*
X9326072Y-9782643D02*
X9307024Y-9792167D01*
X9535595Y-9820738D02*
X9516548Y-9811214D01*
X9516548Y-9811214D02*
X9507024Y-9801690D01*
X9507024Y-9801690D02*
X9497500Y-9782643D01*
X9497500Y-9782643D02*
X9497500Y-9773119D01*
X9497500Y-9773119D02*
X9507024Y-9754071D01*
X9507024Y-9754071D02*
X9516548Y-9744548D01*
X9516548Y-9744548D02*
X9535595Y-9735024D01*
X9535595Y-9735024D02*
X9573691Y-9735024D01*
X9573691Y-9735024D02*
X9592738Y-9744548D01*
X9592738Y-9744548D02*
X9602262Y-9754071D01*
X9602262Y-9754071D02*
X9611786Y-9773119D01*
X9611786Y-9773119D02*
X9611786Y-9782643D01*
X9611786Y-9782643D02*
X9602262Y-9801690D01*
X9602262Y-9801690D02*
X9592738Y-9811214D01*
X9592738Y-9811214D02*
X9573691Y-9820738D01*
X9573691Y-9820738D02*
X9535595Y-9820738D01*
X9535595Y-9820738D02*
X9516548Y-9830262D01*
X9516548Y-9830262D02*
X9507024Y-9839786D01*
X9507024Y-9839786D02*
X9497500Y-9858833D01*
X9497500Y-9858833D02*
X9497500Y-9896929D01*
X9497500Y-9896929D02*
X9507024Y-9915976D01*
X9507024Y-9915976D02*
X9516548Y-9925500D01*
X9516548Y-9925500D02*
X9535595Y-9935024D01*
X9535595Y-9935024D02*
X9573691Y-9935024D01*
X9573691Y-9935024D02*
X9592738Y-9925500D01*
X9592738Y-9925500D02*
X9602262Y-9915976D01*
X9602262Y-9915976D02*
X9611786Y-9896929D01*
X9611786Y-9896929D02*
X9611786Y-9858833D01*
X9611786Y-9858833D02*
X9602262Y-9839786D01*
X9602262Y-9839786D02*
X9592738Y-9830262D01*
X9592738Y-9830262D02*
X9573691Y-9820738D01*
X9687976Y-9735024D02*
X9687976Y-9773119D01*
X9764167Y-9735024D02*
X9764167Y-9773119D01*
X10059405Y-10011214D02*
X10049881Y-10001690D01*
X10049881Y-10001690D02*
X10030834Y-9973119D01*
X10030834Y-9973119D02*
X10021310Y-9954071D01*
X10021310Y-9954071D02*
X10011786Y-9925500D01*
X10011786Y-9925500D02*
X10002262Y-9877881D01*
X10002262Y-9877881D02*
X10002262Y-9839786D01*
X10002262Y-9839786D02*
X10011786Y-9792167D01*
X10011786Y-9792167D02*
X10021310Y-9763595D01*
X10021310Y-9763595D02*
X10030834Y-9744548D01*
X10030834Y-9744548D02*
X10049881Y-9715976D01*
X10049881Y-9715976D02*
X10059405Y-9706452D01*
X10116548Y-9735024D02*
X10240357Y-9735024D01*
X10240357Y-9735024D02*
X10173691Y-9811214D01*
X10173691Y-9811214D02*
X10202262Y-9811214D01*
X10202262Y-9811214D02*
X10221310Y-9820738D01*
X10221310Y-9820738D02*
X10230834Y-9830262D01*
X10230834Y-9830262D02*
X10240357Y-9849310D01*
X10240357Y-9849310D02*
X10240357Y-9896929D01*
X10240357Y-9896929D02*
X10230834Y-9915976D01*
X10230834Y-9915976D02*
X10221310Y-9925500D01*
X10221310Y-9925500D02*
X10202262Y-9935024D01*
X10202262Y-9935024D02*
X10145119Y-9935024D01*
X10145119Y-9935024D02*
X10126072Y-9925500D01*
X10126072Y-9925500D02*
X10116548Y-9915976D01*
X10307024Y-9735024D02*
X10440357Y-9735024D01*
X10440357Y-9735024D02*
X10354643Y-9935024D01*
X10668929Y-9935024D02*
X10668929Y-9735024D01*
X10754643Y-9935024D02*
X10754643Y-9830262D01*
X10754643Y-9830262D02*
X10745119Y-9811214D01*
X10745119Y-9811214D02*
X10726072Y-9801690D01*
X10726072Y-9801690D02*
X10697500Y-9801690D01*
X10697500Y-9801690D02*
X10678453Y-9811214D01*
X10678453Y-9811214D02*
X10668929Y-9820738D01*
X10878453Y-9935024D02*
X10859405Y-9925500D01*
X10859405Y-9925500D02*
X10849881Y-9915976D01*
X10849881Y-9915976D02*
X10840358Y-9896929D01*
X10840358Y-9896929D02*
X10840358Y-9839786D01*
X10840358Y-9839786D02*
X10849881Y-9820738D01*
X10849881Y-9820738D02*
X10859405Y-9811214D01*
X10859405Y-9811214D02*
X10878453Y-9801690D01*
X10878453Y-9801690D02*
X10907024Y-9801690D01*
X10907024Y-9801690D02*
X10926072Y-9811214D01*
X10926072Y-9811214D02*
X10935596Y-9820738D01*
X10935596Y-9820738D02*
X10945119Y-9839786D01*
X10945119Y-9839786D02*
X10945119Y-9896929D01*
X10945119Y-9896929D02*
X10935596Y-9915976D01*
X10935596Y-9915976D02*
X10926072Y-9925500D01*
X10926072Y-9925500D02*
X10907024Y-9935024D01*
X10907024Y-9935024D02*
X10878453Y-9935024D01*
X11059405Y-9935024D02*
X11040358Y-9925500D01*
X11040358Y-9925500D02*
X11030834Y-9906452D01*
X11030834Y-9906452D02*
X11030834Y-9735024D01*
X11211786Y-9925500D02*
X11192738Y-9935024D01*
X11192738Y-9935024D02*
X11154643Y-9935024D01*
X11154643Y-9935024D02*
X11135596Y-9925500D01*
X11135596Y-9925500D02*
X11126072Y-9906452D01*
X11126072Y-9906452D02*
X11126072Y-9830262D01*
X11126072Y-9830262D02*
X11135596Y-9811214D01*
X11135596Y-9811214D02*
X11154643Y-9801690D01*
X11154643Y-9801690D02*
X11192738Y-9801690D01*
X11192738Y-9801690D02*
X11211786Y-9811214D01*
X11211786Y-9811214D02*
X11221310Y-9830262D01*
X11221310Y-9830262D02*
X11221310Y-9849310D01*
X11221310Y-9849310D02*
X11126072Y-9868357D01*
X11297500Y-9925500D02*
X11316548Y-9935024D01*
X11316548Y-9935024D02*
X11354643Y-9935024D01*
X11354643Y-9935024D02*
X11373691Y-9925500D01*
X11373691Y-9925500D02*
X11383215Y-9906452D01*
X11383215Y-9906452D02*
X11383215Y-9896929D01*
X11383215Y-9896929D02*
X11373691Y-9877881D01*
X11373691Y-9877881D02*
X11354643Y-9868357D01*
X11354643Y-9868357D02*
X11326072Y-9868357D01*
X11326072Y-9868357D02*
X11307024Y-9858833D01*
X11307024Y-9858833D02*
X11297500Y-9839786D01*
X11297500Y-9839786D02*
X11297500Y-9830262D01*
X11297500Y-9830262D02*
X11307024Y-9811214D01*
X11307024Y-9811214D02*
X11326072Y-9801690D01*
X11326072Y-9801690D02*
X11354643Y-9801690D01*
X11354643Y-9801690D02*
X11373691Y-9811214D01*
X11449881Y-10011214D02*
X11459405Y-10001690D01*
X11459405Y-10001690D02*
X11478453Y-9973119D01*
X11478453Y-9973119D02*
X11487977Y-9954071D01*
X11487977Y-9954071D02*
X11497500Y-9925500D01*
X11497500Y-9925500D02*
X11507024Y-9877881D01*
X11507024Y-9877881D02*
X11507024Y-9839786D01*
X11507024Y-9839786D02*
X11497500Y-9792167D01*
X11497500Y-9792167D02*
X11487977Y-9763595D01*
X11487977Y-9763595D02*
X11478453Y-9744548D01*
X11478453Y-9744548D02*
X11459405Y-9715976D01*
X11459405Y-9715976D02*
X11449881Y-9706452D01*
D13*
X6497500Y-10106500D02*
G75*
G03*
X6497500Y-10106500I-20000J0D01*
G01*
D11*
X6783214Y-9999024D02*
X6802262Y-9999024D01*
X6802262Y-9999024D02*
X6821309Y-10008548D01*
X6821309Y-10008548D02*
X6830833Y-10018071D01*
X6830833Y-10018071D02*
X6840357Y-10037119D01*
X6840357Y-10037119D02*
X6849881Y-10075214D01*
X6849881Y-10075214D02*
X6849881Y-10122833D01*
X6849881Y-10122833D02*
X6840357Y-10160929D01*
X6840357Y-10160929D02*
X6830833Y-10179976D01*
X6830833Y-10179976D02*
X6821309Y-10189500D01*
X6821309Y-10189500D02*
X6802262Y-10199024D01*
X6802262Y-10199024D02*
X6783214Y-10199024D01*
X6783214Y-10199024D02*
X6764167Y-10189500D01*
X6764167Y-10189500D02*
X6754643Y-10179976D01*
X6754643Y-10179976D02*
X6745119Y-10160929D01*
X6745119Y-10160929D02*
X6735595Y-10122833D01*
X6735595Y-10122833D02*
X6735595Y-10075214D01*
X6735595Y-10075214D02*
X6745119Y-10037119D01*
X6745119Y-10037119D02*
X6754643Y-10018071D01*
X6754643Y-10018071D02*
X6764167Y-10008548D01*
X6764167Y-10008548D02*
X6783214Y-9999024D01*
X6935595Y-10179976D02*
X6945119Y-10189500D01*
X6945119Y-10189500D02*
X6935595Y-10199024D01*
X6935595Y-10199024D02*
X6926071Y-10189500D01*
X6926071Y-10189500D02*
X6935595Y-10179976D01*
X6935595Y-10179976D02*
X6935595Y-10199024D01*
X7116548Y-10065690D02*
X7116548Y-10199024D01*
X7068928Y-9989500D02*
X7021309Y-10132357D01*
X7021309Y-10132357D02*
X7145119Y-10132357D01*
X7259405Y-9999024D02*
X7278452Y-9999024D01*
X7278452Y-9999024D02*
X7297500Y-10008548D01*
X7297500Y-10008548D02*
X7307024Y-10018071D01*
X7307024Y-10018071D02*
X7316548Y-10037119D01*
X7316548Y-10037119D02*
X7326071Y-10075214D01*
X7326071Y-10075214D02*
X7326071Y-10122833D01*
X7326071Y-10122833D02*
X7316548Y-10160929D01*
X7316548Y-10160929D02*
X7307024Y-10179976D01*
X7307024Y-10179976D02*
X7297500Y-10189500D01*
X7297500Y-10189500D02*
X7278452Y-10199024D01*
X7278452Y-10199024D02*
X7259405Y-10199024D01*
X7259405Y-10199024D02*
X7240357Y-10189500D01*
X7240357Y-10189500D02*
X7230833Y-10179976D01*
X7230833Y-10179976D02*
X7221309Y-10160929D01*
X7221309Y-10160929D02*
X7211786Y-10122833D01*
X7211786Y-10122833D02*
X7211786Y-10075214D01*
X7211786Y-10075214D02*
X7221309Y-10037119D01*
X7221309Y-10037119D02*
X7230833Y-10018071D01*
X7230833Y-10018071D02*
X7240357Y-10008548D01*
X7240357Y-10008548D02*
X7259405Y-9999024D01*
X7449881Y-9999024D02*
X7468929Y-9999024D01*
X7468929Y-9999024D02*
X7487976Y-10008548D01*
X7487976Y-10008548D02*
X7497500Y-10018071D01*
X7497500Y-10018071D02*
X7507024Y-10037119D01*
X7507024Y-10037119D02*
X7516548Y-10075214D01*
X7516548Y-10075214D02*
X7516548Y-10122833D01*
X7516548Y-10122833D02*
X7507024Y-10160929D01*
X7507024Y-10160929D02*
X7497500Y-10179976D01*
X7497500Y-10179976D02*
X7487976Y-10189500D01*
X7487976Y-10189500D02*
X7468929Y-10199024D01*
X7468929Y-10199024D02*
X7449881Y-10199024D01*
X7449881Y-10199024D02*
X7430833Y-10189500D01*
X7430833Y-10189500D02*
X7421309Y-10179976D01*
X7421309Y-10179976D02*
X7411786Y-10160929D01*
X7411786Y-10160929D02*
X7402262Y-10122833D01*
X7402262Y-10122833D02*
X7402262Y-10075214D01*
X7402262Y-10075214D02*
X7411786Y-10037119D01*
X7411786Y-10037119D02*
X7421309Y-10018071D01*
X7421309Y-10018071D02*
X7430833Y-10008548D01*
X7430833Y-10008548D02*
X7449881Y-9999024D01*
X7602262Y-10199024D02*
X7602262Y-10065690D01*
X7602262Y-10084738D02*
X7611786Y-10075214D01*
X7611786Y-10075214D02*
X7630833Y-10065690D01*
X7630833Y-10065690D02*
X7659405Y-10065690D01*
X7659405Y-10065690D02*
X7678452Y-10075214D01*
X7678452Y-10075214D02*
X7687976Y-10094262D01*
X7687976Y-10094262D02*
X7687976Y-10199024D01*
X7687976Y-10094262D02*
X7697500Y-10075214D01*
X7697500Y-10075214D02*
X7716548Y-10065690D01*
X7716548Y-10065690D02*
X7745119Y-10065690D01*
X7745119Y-10065690D02*
X7764167Y-10075214D01*
X7764167Y-10075214D02*
X7773690Y-10094262D01*
X7773690Y-10094262D02*
X7773690Y-10199024D01*
X7868929Y-10199024D02*
X7868929Y-10065690D01*
X7868929Y-10084738D02*
X7878452Y-10075214D01*
X7878452Y-10075214D02*
X7897500Y-10065690D01*
X7897500Y-10065690D02*
X7926071Y-10065690D01*
X7926071Y-10065690D02*
X7945119Y-10075214D01*
X7945119Y-10075214D02*
X7954643Y-10094262D01*
X7954643Y-10094262D02*
X7954643Y-10199024D01*
X7954643Y-10094262D02*
X7964167Y-10075214D01*
X7964167Y-10075214D02*
X7983214Y-10065690D01*
X7983214Y-10065690D02*
X8011786Y-10065690D01*
X8011786Y-10065690D02*
X8030833Y-10075214D01*
X8030833Y-10075214D02*
X8040357Y-10094262D01*
X8040357Y-10094262D02*
X8040357Y-10199024D01*
X8430833Y-9989500D02*
X8259405Y-10246643D01*
X8687976Y-9999024D02*
X8707024Y-9999024D01*
X8707024Y-9999024D02*
X8726072Y-10008548D01*
X8726072Y-10008548D02*
X8735595Y-10018071D01*
X8735595Y-10018071D02*
X8745119Y-10037119D01*
X8745119Y-10037119D02*
X8754643Y-10075214D01*
X8754643Y-10075214D02*
X8754643Y-10122833D01*
X8754643Y-10122833D02*
X8745119Y-10160929D01*
X8745119Y-10160929D02*
X8735595Y-10179976D01*
X8735595Y-10179976D02*
X8726072Y-10189500D01*
X8726072Y-10189500D02*
X8707024Y-10199024D01*
X8707024Y-10199024D02*
X8687976Y-10199024D01*
X8687976Y-10199024D02*
X8668929Y-10189500D01*
X8668929Y-10189500D02*
X8659405Y-10179976D01*
X8659405Y-10179976D02*
X8649881Y-10160929D01*
X8649881Y-10160929D02*
X8640357Y-10122833D01*
X8640357Y-10122833D02*
X8640357Y-10075214D01*
X8640357Y-10075214D02*
X8649881Y-10037119D01*
X8649881Y-10037119D02*
X8659405Y-10018071D01*
X8659405Y-10018071D02*
X8668929Y-10008548D01*
X8668929Y-10008548D02*
X8687976Y-9999024D01*
X8840357Y-10179976D02*
X8849881Y-10189500D01*
X8849881Y-10189500D02*
X8840357Y-10199024D01*
X8840357Y-10199024D02*
X8830834Y-10189500D01*
X8830834Y-10189500D02*
X8840357Y-10179976D01*
X8840357Y-10179976D02*
X8840357Y-10199024D01*
X8973691Y-9999024D02*
X8992738Y-9999024D01*
X8992738Y-9999024D02*
X9011786Y-10008548D01*
X9011786Y-10008548D02*
X9021310Y-10018071D01*
X9021310Y-10018071D02*
X9030834Y-10037119D01*
X9030834Y-10037119D02*
X9040357Y-10075214D01*
X9040357Y-10075214D02*
X9040357Y-10122833D01*
X9040357Y-10122833D02*
X9030834Y-10160929D01*
X9030834Y-10160929D02*
X9021310Y-10179976D01*
X9021310Y-10179976D02*
X9011786Y-10189500D01*
X9011786Y-10189500D02*
X8992738Y-10199024D01*
X8992738Y-10199024D02*
X8973691Y-10199024D01*
X8973691Y-10199024D02*
X8954643Y-10189500D01*
X8954643Y-10189500D02*
X8945119Y-10179976D01*
X8945119Y-10179976D02*
X8935595Y-10160929D01*
X8935595Y-10160929D02*
X8926072Y-10122833D01*
X8926072Y-10122833D02*
X8926072Y-10075214D01*
X8926072Y-10075214D02*
X8935595Y-10037119D01*
X8935595Y-10037119D02*
X8945119Y-10018071D01*
X8945119Y-10018071D02*
X8954643Y-10008548D01*
X8954643Y-10008548D02*
X8973691Y-9999024D01*
X9230834Y-10199024D02*
X9116548Y-10199024D01*
X9173691Y-10199024D02*
X9173691Y-9999024D01*
X9173691Y-9999024D02*
X9154643Y-10027595D01*
X9154643Y-10027595D02*
X9135595Y-10046643D01*
X9135595Y-10046643D02*
X9116548Y-10056167D01*
X9411786Y-9999024D02*
X9316548Y-9999024D01*
X9316548Y-9999024D02*
X9307024Y-10094262D01*
X9307024Y-10094262D02*
X9316548Y-10084738D01*
X9316548Y-10084738D02*
X9335595Y-10075214D01*
X9335595Y-10075214D02*
X9383215Y-10075214D01*
X9383215Y-10075214D02*
X9402262Y-10084738D01*
X9402262Y-10084738D02*
X9411786Y-10094262D01*
X9411786Y-10094262D02*
X9421310Y-10113310D01*
X9421310Y-10113310D02*
X9421310Y-10160929D01*
X9421310Y-10160929D02*
X9411786Y-10179976D01*
X9411786Y-10179976D02*
X9402262Y-10189500D01*
X9402262Y-10189500D02*
X9383215Y-10199024D01*
X9383215Y-10199024D02*
X9335595Y-10199024D01*
X9335595Y-10199024D02*
X9316548Y-10189500D01*
X9316548Y-10189500D02*
X9307024Y-10179976D01*
X9487976Y-9999024D02*
X9621310Y-9999024D01*
X9621310Y-9999024D02*
X9535595Y-10199024D01*
X9687976Y-9999024D02*
X9687976Y-10037119D01*
X9764167Y-9999024D02*
X9764167Y-10037119D01*
X10059405Y-10275214D02*
X10049881Y-10265690D01*
X10049881Y-10265690D02*
X10030834Y-10237119D01*
X10030834Y-10237119D02*
X10021310Y-10218071D01*
X10021310Y-10218071D02*
X10011786Y-10189500D01*
X10011786Y-10189500D02*
X10002262Y-10141881D01*
X10002262Y-10141881D02*
X10002262Y-10103786D01*
X10002262Y-10103786D02*
X10011786Y-10056167D01*
X10011786Y-10056167D02*
X10021310Y-10027595D01*
X10021310Y-10027595D02*
X10030834Y-10008548D01*
X10030834Y-10008548D02*
X10049881Y-9979976D01*
X10049881Y-9979976D02*
X10059405Y-9970452D01*
X10240357Y-10199024D02*
X10126072Y-10199024D01*
X10183215Y-10199024D02*
X10183215Y-9999024D01*
X10183215Y-9999024D02*
X10164167Y-10027595D01*
X10164167Y-10027595D02*
X10145119Y-10046643D01*
X10145119Y-10046643D02*
X10126072Y-10056167D01*
X10307024Y-9999024D02*
X10430834Y-9999024D01*
X10430834Y-9999024D02*
X10364167Y-10075214D01*
X10364167Y-10075214D02*
X10392738Y-10075214D01*
X10392738Y-10075214D02*
X10411786Y-10084738D01*
X10411786Y-10084738D02*
X10421310Y-10094262D01*
X10421310Y-10094262D02*
X10430834Y-10113310D01*
X10430834Y-10113310D02*
X10430834Y-10160929D01*
X10430834Y-10160929D02*
X10421310Y-10179976D01*
X10421310Y-10179976D02*
X10411786Y-10189500D01*
X10411786Y-10189500D02*
X10392738Y-10199024D01*
X10392738Y-10199024D02*
X10335596Y-10199024D01*
X10335596Y-10199024D02*
X10316548Y-10189500D01*
X10316548Y-10189500D02*
X10307024Y-10179976D01*
X10611786Y-9999024D02*
X10516548Y-9999024D01*
X10516548Y-9999024D02*
X10507024Y-10094262D01*
X10507024Y-10094262D02*
X10516548Y-10084738D01*
X10516548Y-10084738D02*
X10535596Y-10075214D01*
X10535596Y-10075214D02*
X10583215Y-10075214D01*
X10583215Y-10075214D02*
X10602262Y-10084738D01*
X10602262Y-10084738D02*
X10611786Y-10094262D01*
X10611786Y-10094262D02*
X10621310Y-10113310D01*
X10621310Y-10113310D02*
X10621310Y-10160929D01*
X10621310Y-10160929D02*
X10611786Y-10179976D01*
X10611786Y-10179976D02*
X10602262Y-10189500D01*
X10602262Y-10189500D02*
X10583215Y-10199024D01*
X10583215Y-10199024D02*
X10535596Y-10199024D01*
X10535596Y-10199024D02*
X10516548Y-10189500D01*
X10516548Y-10189500D02*
X10507024Y-10179976D01*
X10859405Y-10199024D02*
X10859405Y-9999024D01*
X10945119Y-10199024D02*
X10945119Y-10094262D01*
X10945119Y-10094262D02*
X10935596Y-10075214D01*
X10935596Y-10075214D02*
X10916548Y-10065690D01*
X10916548Y-10065690D02*
X10887977Y-10065690D01*
X10887977Y-10065690D02*
X10868929Y-10075214D01*
X10868929Y-10075214D02*
X10859405Y-10084738D01*
X11068929Y-10199024D02*
X11049881Y-10189500D01*
X11049881Y-10189500D02*
X11040358Y-10179976D01*
X11040358Y-10179976D02*
X11030834Y-10160929D01*
X11030834Y-10160929D02*
X11030834Y-10103786D01*
X11030834Y-10103786D02*
X11040358Y-10084738D01*
X11040358Y-10084738D02*
X11049881Y-10075214D01*
X11049881Y-10075214D02*
X11068929Y-10065690D01*
X11068929Y-10065690D02*
X11097500Y-10065690D01*
X11097500Y-10065690D02*
X11116548Y-10075214D01*
X11116548Y-10075214D02*
X11126072Y-10084738D01*
X11126072Y-10084738D02*
X11135596Y-10103786D01*
X11135596Y-10103786D02*
X11135596Y-10160929D01*
X11135596Y-10160929D02*
X11126072Y-10179976D01*
X11126072Y-10179976D02*
X11116548Y-10189500D01*
X11116548Y-10189500D02*
X11097500Y-10199024D01*
X11097500Y-10199024D02*
X11068929Y-10199024D01*
X11249881Y-10199024D02*
X11230834Y-10189500D01*
X11230834Y-10189500D02*
X11221310Y-10170452D01*
X11221310Y-10170452D02*
X11221310Y-9999024D01*
X11402262Y-10189500D02*
X11383215Y-10199024D01*
X11383215Y-10199024D02*
X11345119Y-10199024D01*
X11345119Y-10199024D02*
X11326072Y-10189500D01*
X11326072Y-10189500D02*
X11316548Y-10170452D01*
X11316548Y-10170452D02*
X11316548Y-10094262D01*
X11316548Y-10094262D02*
X11326072Y-10075214D01*
X11326072Y-10075214D02*
X11345119Y-10065690D01*
X11345119Y-10065690D02*
X11383215Y-10065690D01*
X11383215Y-10065690D02*
X11402262Y-10075214D01*
X11402262Y-10075214D02*
X11411786Y-10094262D01*
X11411786Y-10094262D02*
X11411786Y-10113310D01*
X11411786Y-10113310D02*
X11316548Y-10132357D01*
X11487977Y-10189500D02*
X11507024Y-10199024D01*
X11507024Y-10199024D02*
X11545119Y-10199024D01*
X11545119Y-10199024D02*
X11564167Y-10189500D01*
X11564167Y-10189500D02*
X11573691Y-10170452D01*
X11573691Y-10170452D02*
X11573691Y-10160929D01*
X11573691Y-10160929D02*
X11564167Y-10141881D01*
X11564167Y-10141881D02*
X11545119Y-10132357D01*
X11545119Y-10132357D02*
X11516548Y-10132357D01*
X11516548Y-10132357D02*
X11497500Y-10122833D01*
X11497500Y-10122833D02*
X11487977Y-10103786D01*
X11487977Y-10103786D02*
X11487977Y-10094262D01*
X11487977Y-10094262D02*
X11497500Y-10075214D01*
X11497500Y-10075214D02*
X11516548Y-10065690D01*
X11516548Y-10065690D02*
X11545119Y-10065690D01*
X11545119Y-10065690D02*
X11564167Y-10075214D01*
X11640358Y-10275214D02*
X11649881Y-10265690D01*
X11649881Y-10265690D02*
X11668929Y-10237119D01*
X11668929Y-10237119D02*
X11678453Y-10218071D01*
X11678453Y-10218071D02*
X11687977Y-10189500D01*
X11687977Y-10189500D02*
X11697500Y-10141881D01*
X11697500Y-10141881D02*
X11697500Y-10103786D01*
X11697500Y-10103786D02*
X11687977Y-10056167D01*
X11687977Y-10056167D02*
X11678453Y-10027595D01*
X11678453Y-10027595D02*
X11668929Y-10008548D01*
X11668929Y-10008548D02*
X11649881Y-9979976D01*
X11649881Y-9979976D02*
X11640358Y-9970452D01*
D14*
X6462500Y-10335500D02*
X6462500Y-10405500D01*
X6427500Y-10370500D02*
X6497500Y-10370500D01*
D11*
X6783214Y-10263024D02*
X6802262Y-10263024D01*
X6802262Y-10263024D02*
X6821309Y-10272548D01*
X6821309Y-10272548D02*
X6830833Y-10282071D01*
X6830833Y-10282071D02*
X6840357Y-10301119D01*
X6840357Y-10301119D02*
X6849881Y-10339214D01*
X6849881Y-10339214D02*
X6849881Y-10386833D01*
X6849881Y-10386833D02*
X6840357Y-10424929D01*
X6840357Y-10424929D02*
X6830833Y-10443976D01*
X6830833Y-10443976D02*
X6821309Y-10453500D01*
X6821309Y-10453500D02*
X6802262Y-10463024D01*
X6802262Y-10463024D02*
X6783214Y-10463024D01*
X6783214Y-10463024D02*
X6764167Y-10453500D01*
X6764167Y-10453500D02*
X6754643Y-10443976D01*
X6754643Y-10443976D02*
X6745119Y-10424929D01*
X6745119Y-10424929D02*
X6735595Y-10386833D01*
X6735595Y-10386833D02*
X6735595Y-10339214D01*
X6735595Y-10339214D02*
X6745119Y-10301119D01*
X6745119Y-10301119D02*
X6754643Y-10282071D01*
X6754643Y-10282071D02*
X6764167Y-10272548D01*
X6764167Y-10272548D02*
X6783214Y-10263024D01*
X6935595Y-10443976D02*
X6945119Y-10453500D01*
X6945119Y-10453500D02*
X6935595Y-10463024D01*
X6935595Y-10463024D02*
X6926071Y-10453500D01*
X6926071Y-10453500D02*
X6935595Y-10443976D01*
X6935595Y-10443976D02*
X6935595Y-10463024D01*
X7011786Y-10263024D02*
X7145119Y-10263024D01*
X7145119Y-10263024D02*
X7059405Y-10463024D01*
X7259405Y-10263024D02*
X7278452Y-10263024D01*
X7278452Y-10263024D02*
X7297500Y-10272548D01*
X7297500Y-10272548D02*
X7307024Y-10282071D01*
X7307024Y-10282071D02*
X7316548Y-10301119D01*
X7316548Y-10301119D02*
X7326071Y-10339214D01*
X7326071Y-10339214D02*
X7326071Y-10386833D01*
X7326071Y-10386833D02*
X7316548Y-10424929D01*
X7316548Y-10424929D02*
X7307024Y-10443976D01*
X7307024Y-10443976D02*
X7297500Y-10453500D01*
X7297500Y-10453500D02*
X7278452Y-10463024D01*
X7278452Y-10463024D02*
X7259405Y-10463024D01*
X7259405Y-10463024D02*
X7240357Y-10453500D01*
X7240357Y-10453500D02*
X7230833Y-10443976D01*
X7230833Y-10443976D02*
X7221309Y-10424929D01*
X7221309Y-10424929D02*
X7211786Y-10386833D01*
X7211786Y-10386833D02*
X7211786Y-10339214D01*
X7211786Y-10339214D02*
X7221309Y-10301119D01*
X7221309Y-10301119D02*
X7230833Y-10282071D01*
X7230833Y-10282071D02*
X7240357Y-10272548D01*
X7240357Y-10272548D02*
X7259405Y-10263024D01*
X7449881Y-10263024D02*
X7468929Y-10263024D01*
X7468929Y-10263024D02*
X7487976Y-10272548D01*
X7487976Y-10272548D02*
X7497500Y-10282071D01*
X7497500Y-10282071D02*
X7507024Y-10301119D01*
X7507024Y-10301119D02*
X7516548Y-10339214D01*
X7516548Y-10339214D02*
X7516548Y-10386833D01*
X7516548Y-10386833D02*
X7507024Y-10424929D01*
X7507024Y-10424929D02*
X7497500Y-10443976D01*
X7497500Y-10443976D02*
X7487976Y-10453500D01*
X7487976Y-10453500D02*
X7468929Y-10463024D01*
X7468929Y-10463024D02*
X7449881Y-10463024D01*
X7449881Y-10463024D02*
X7430833Y-10453500D01*
X7430833Y-10453500D02*
X7421309Y-10443976D01*
X7421309Y-10443976D02*
X7411786Y-10424929D01*
X7411786Y-10424929D02*
X7402262Y-10386833D01*
X7402262Y-10386833D02*
X7402262Y-10339214D01*
X7402262Y-10339214D02*
X7411786Y-10301119D01*
X7411786Y-10301119D02*
X7421309Y-10282071D01*
X7421309Y-10282071D02*
X7430833Y-10272548D01*
X7430833Y-10272548D02*
X7449881Y-10263024D01*
X7602262Y-10463024D02*
X7602262Y-10329690D01*
X7602262Y-10348738D02*
X7611786Y-10339214D01*
X7611786Y-10339214D02*
X7630833Y-10329690D01*
X7630833Y-10329690D02*
X7659405Y-10329690D01*
X7659405Y-10329690D02*
X7678452Y-10339214D01*
X7678452Y-10339214D02*
X7687976Y-10358262D01*
X7687976Y-10358262D02*
X7687976Y-10463024D01*
X7687976Y-10358262D02*
X7697500Y-10339214D01*
X7697500Y-10339214D02*
X7716548Y-10329690D01*
X7716548Y-10329690D02*
X7745119Y-10329690D01*
X7745119Y-10329690D02*
X7764167Y-10339214D01*
X7764167Y-10339214D02*
X7773690Y-10358262D01*
X7773690Y-10358262D02*
X7773690Y-10463024D01*
X7868929Y-10463024D02*
X7868929Y-10329690D01*
X7868929Y-10348738D02*
X7878452Y-10339214D01*
X7878452Y-10339214D02*
X7897500Y-10329690D01*
X7897500Y-10329690D02*
X7926071Y-10329690D01*
X7926071Y-10329690D02*
X7945119Y-10339214D01*
X7945119Y-10339214D02*
X7954643Y-10358262D01*
X7954643Y-10358262D02*
X7954643Y-10463024D01*
X7954643Y-10358262D02*
X7964167Y-10339214D01*
X7964167Y-10339214D02*
X7983214Y-10329690D01*
X7983214Y-10329690D02*
X8011786Y-10329690D01*
X8011786Y-10329690D02*
X8030833Y-10339214D01*
X8030833Y-10339214D02*
X8040357Y-10358262D01*
X8040357Y-10358262D02*
X8040357Y-10463024D01*
X8430833Y-10253500D02*
X8259405Y-10510643D01*
X8687976Y-10263024D02*
X8707024Y-10263024D01*
X8707024Y-10263024D02*
X8726072Y-10272548D01*
X8726072Y-10272548D02*
X8735595Y-10282071D01*
X8735595Y-10282071D02*
X8745119Y-10301119D01*
X8745119Y-10301119D02*
X8754643Y-10339214D01*
X8754643Y-10339214D02*
X8754643Y-10386833D01*
X8754643Y-10386833D02*
X8745119Y-10424929D01*
X8745119Y-10424929D02*
X8735595Y-10443976D01*
X8735595Y-10443976D02*
X8726072Y-10453500D01*
X8726072Y-10453500D02*
X8707024Y-10463024D01*
X8707024Y-10463024D02*
X8687976Y-10463024D01*
X8687976Y-10463024D02*
X8668929Y-10453500D01*
X8668929Y-10453500D02*
X8659405Y-10443976D01*
X8659405Y-10443976D02*
X8649881Y-10424929D01*
X8649881Y-10424929D02*
X8640357Y-10386833D01*
X8640357Y-10386833D02*
X8640357Y-10339214D01*
X8640357Y-10339214D02*
X8649881Y-10301119D01*
X8649881Y-10301119D02*
X8659405Y-10282071D01*
X8659405Y-10282071D02*
X8668929Y-10272548D01*
X8668929Y-10272548D02*
X8687976Y-10263024D01*
X8840357Y-10443976D02*
X8849881Y-10453500D01*
X8849881Y-10453500D02*
X8840357Y-10463024D01*
X8840357Y-10463024D02*
X8830834Y-10453500D01*
X8830834Y-10453500D02*
X8840357Y-10443976D01*
X8840357Y-10443976D02*
X8840357Y-10463024D01*
X8973691Y-10263024D02*
X8992738Y-10263024D01*
X8992738Y-10263024D02*
X9011786Y-10272548D01*
X9011786Y-10272548D02*
X9021310Y-10282071D01*
X9021310Y-10282071D02*
X9030834Y-10301119D01*
X9030834Y-10301119D02*
X9040357Y-10339214D01*
X9040357Y-10339214D02*
X9040357Y-10386833D01*
X9040357Y-10386833D02*
X9030834Y-10424929D01*
X9030834Y-10424929D02*
X9021310Y-10443976D01*
X9021310Y-10443976D02*
X9011786Y-10453500D01*
X9011786Y-10453500D02*
X8992738Y-10463024D01*
X8992738Y-10463024D02*
X8973691Y-10463024D01*
X8973691Y-10463024D02*
X8954643Y-10453500D01*
X8954643Y-10453500D02*
X8945119Y-10443976D01*
X8945119Y-10443976D02*
X8935595Y-10424929D01*
X8935595Y-10424929D02*
X8926072Y-10386833D01*
X8926072Y-10386833D02*
X8926072Y-10339214D01*
X8926072Y-10339214D02*
X8935595Y-10301119D01*
X8935595Y-10301119D02*
X8945119Y-10282071D01*
X8945119Y-10282071D02*
X8954643Y-10272548D01*
X8954643Y-10272548D02*
X8973691Y-10263024D01*
X9116548Y-10282071D02*
X9126072Y-10272548D01*
X9126072Y-10272548D02*
X9145119Y-10263024D01*
X9145119Y-10263024D02*
X9192738Y-10263024D01*
X9192738Y-10263024D02*
X9211786Y-10272548D01*
X9211786Y-10272548D02*
X9221310Y-10282071D01*
X9221310Y-10282071D02*
X9230834Y-10301119D01*
X9230834Y-10301119D02*
X9230834Y-10320167D01*
X9230834Y-10320167D02*
X9221310Y-10348738D01*
X9221310Y-10348738D02*
X9107024Y-10463024D01*
X9107024Y-10463024D02*
X9230834Y-10463024D01*
X9297500Y-10263024D02*
X9430834Y-10263024D01*
X9430834Y-10263024D02*
X9345119Y-10463024D01*
X9592738Y-10263024D02*
X9554643Y-10263024D01*
X9554643Y-10263024D02*
X9535595Y-10272548D01*
X9535595Y-10272548D02*
X9526072Y-10282071D01*
X9526072Y-10282071D02*
X9507024Y-10310643D01*
X9507024Y-10310643D02*
X9497500Y-10348738D01*
X9497500Y-10348738D02*
X9497500Y-10424929D01*
X9497500Y-10424929D02*
X9507024Y-10443976D01*
X9507024Y-10443976D02*
X9516548Y-10453500D01*
X9516548Y-10453500D02*
X9535595Y-10463024D01*
X9535595Y-10463024D02*
X9573691Y-10463024D01*
X9573691Y-10463024D02*
X9592738Y-10453500D01*
X9592738Y-10453500D02*
X9602262Y-10443976D01*
X9602262Y-10443976D02*
X9611786Y-10424929D01*
X9611786Y-10424929D02*
X9611786Y-10377310D01*
X9611786Y-10377310D02*
X9602262Y-10358262D01*
X9602262Y-10358262D02*
X9592738Y-10348738D01*
X9592738Y-10348738D02*
X9573691Y-10339214D01*
X9573691Y-10339214D02*
X9535595Y-10339214D01*
X9535595Y-10339214D02*
X9516548Y-10348738D01*
X9516548Y-10348738D02*
X9507024Y-10358262D01*
X9507024Y-10358262D02*
X9497500Y-10377310D01*
X9687976Y-10263024D02*
X9687976Y-10301119D01*
X9764167Y-10263024D02*
X9764167Y-10301119D01*
X10059405Y-10539214D02*
X10049881Y-10529690D01*
X10049881Y-10529690D02*
X10030834Y-10501119D01*
X10030834Y-10501119D02*
X10021310Y-10482071D01*
X10021310Y-10482071D02*
X10011786Y-10453500D01*
X10011786Y-10453500D02*
X10002262Y-10405881D01*
X10002262Y-10405881D02*
X10002262Y-10367786D01*
X10002262Y-10367786D02*
X10011786Y-10320167D01*
X10011786Y-10320167D02*
X10021310Y-10291595D01*
X10021310Y-10291595D02*
X10030834Y-10272548D01*
X10030834Y-10272548D02*
X10049881Y-10243976D01*
X10049881Y-10243976D02*
X10059405Y-10234452D01*
X10221310Y-10329690D02*
X10221310Y-10463024D01*
X10173691Y-10253500D02*
X10126072Y-10396357D01*
X10126072Y-10396357D02*
X10249881Y-10396357D01*
X10478453Y-10463024D02*
X10478453Y-10263024D01*
X10564167Y-10463024D02*
X10564167Y-10358262D01*
X10564167Y-10358262D02*
X10554643Y-10339214D01*
X10554643Y-10339214D02*
X10535596Y-10329690D01*
X10535596Y-10329690D02*
X10507024Y-10329690D01*
X10507024Y-10329690D02*
X10487977Y-10339214D01*
X10487977Y-10339214D02*
X10478453Y-10348738D01*
X10687977Y-10463024D02*
X10668929Y-10453500D01*
X10668929Y-10453500D02*
X10659405Y-10443976D01*
X10659405Y-10443976D02*
X10649881Y-10424929D01*
X10649881Y-10424929D02*
X10649881Y-10367786D01*
X10649881Y-10367786D02*
X10659405Y-10348738D01*
X10659405Y-10348738D02*
X10668929Y-10339214D01*
X10668929Y-10339214D02*
X10687977Y-10329690D01*
X10687977Y-10329690D02*
X10716548Y-10329690D01*
X10716548Y-10329690D02*
X10735596Y-10339214D01*
X10735596Y-10339214D02*
X10745119Y-10348738D01*
X10745119Y-10348738D02*
X10754643Y-10367786D01*
X10754643Y-10367786D02*
X10754643Y-10424929D01*
X10754643Y-10424929D02*
X10745119Y-10443976D01*
X10745119Y-10443976D02*
X10735596Y-10453500D01*
X10735596Y-10453500D02*
X10716548Y-10463024D01*
X10716548Y-10463024D02*
X10687977Y-10463024D01*
X10868929Y-10463024D02*
X10849881Y-10453500D01*
X10849881Y-10453500D02*
X10840358Y-10434452D01*
X10840358Y-10434452D02*
X10840358Y-10263024D01*
X11021310Y-10453500D02*
X11002262Y-10463024D01*
X11002262Y-10463024D02*
X10964167Y-10463024D01*
X10964167Y-10463024D02*
X10945119Y-10453500D01*
X10945119Y-10453500D02*
X10935596Y-10434452D01*
X10935596Y-10434452D02*
X10935596Y-10358262D01*
X10935596Y-10358262D02*
X10945119Y-10339214D01*
X10945119Y-10339214D02*
X10964167Y-10329690D01*
X10964167Y-10329690D02*
X11002262Y-10329690D01*
X11002262Y-10329690D02*
X11021310Y-10339214D01*
X11021310Y-10339214D02*
X11030834Y-10358262D01*
X11030834Y-10358262D02*
X11030834Y-10377310D01*
X11030834Y-10377310D02*
X10935596Y-10396357D01*
X11107024Y-10453500D02*
X11126072Y-10463024D01*
X11126072Y-10463024D02*
X11164167Y-10463024D01*
X11164167Y-10463024D02*
X11183215Y-10453500D01*
X11183215Y-10453500D02*
X11192738Y-10434452D01*
X11192738Y-10434452D02*
X11192738Y-10424929D01*
X11192738Y-10424929D02*
X11183215Y-10405881D01*
X11183215Y-10405881D02*
X11164167Y-10396357D01*
X11164167Y-10396357D02*
X11135596Y-10396357D01*
X11135596Y-10396357D02*
X11116548Y-10386833D01*
X11116548Y-10386833D02*
X11107024Y-10367786D01*
X11107024Y-10367786D02*
X11107024Y-10358262D01*
X11107024Y-10358262D02*
X11116548Y-10339214D01*
X11116548Y-10339214D02*
X11135596Y-10329690D01*
X11135596Y-10329690D02*
X11164167Y-10329690D01*
X11164167Y-10329690D02*
X11183215Y-10339214D01*
X11259405Y-10539214D02*
X11268929Y-10529690D01*
X11268929Y-10529690D02*
X11287977Y-10501119D01*
X11287977Y-10501119D02*
X11297500Y-10482071D01*
X11297500Y-10482071D02*
X11307024Y-10453500D01*
X11307024Y-10453500D02*
X11316548Y-10405881D01*
X11316548Y-10405881D02*
X11316548Y-10367786D01*
X11316548Y-10367786D02*
X11307024Y-10320167D01*
X11307024Y-10320167D02*
X11297500Y-10291595D01*
X11297500Y-10291595D02*
X11287977Y-10272548D01*
X11287977Y-10272548D02*
X11268929Y-10243976D01*
X11268929Y-10243976D02*
X11259405Y-10234452D01*
D15*
X6479927Y-10676927D02*
X6479927Y-10592073D01*
X6395073Y-10592073D01*
X6395073Y-10676927D01*
X6479927Y-10676927D01*
D11*
X6849881Y-10727024D02*
X6735595Y-10727024D01*
X6792738Y-10727024D02*
X6792738Y-10527024D01*
X6792738Y-10527024D02*
X6773690Y-10555595D01*
X6773690Y-10555595D02*
X6754643Y-10574643D01*
X6754643Y-10574643D02*
X6735595Y-10584167D01*
X6935595Y-10707976D02*
X6945119Y-10717500D01*
X6945119Y-10717500D02*
X6935595Y-10727024D01*
X6935595Y-10727024D02*
X6926071Y-10717500D01*
X6926071Y-10717500D02*
X6935595Y-10707976D01*
X6935595Y-10707976D02*
X6935595Y-10727024D01*
X7021309Y-10546071D02*
X7030833Y-10536548D01*
X7030833Y-10536548D02*
X7049881Y-10527024D01*
X7049881Y-10527024D02*
X7097500Y-10527024D01*
X7097500Y-10527024D02*
X7116548Y-10536548D01*
X7116548Y-10536548D02*
X7126071Y-10546071D01*
X7126071Y-10546071D02*
X7135595Y-10565119D01*
X7135595Y-10565119D02*
X7135595Y-10584167D01*
X7135595Y-10584167D02*
X7126071Y-10612738D01*
X7126071Y-10612738D02*
X7011786Y-10727024D01*
X7011786Y-10727024D02*
X7135595Y-10727024D01*
X7259405Y-10527024D02*
X7278452Y-10527024D01*
X7278452Y-10527024D02*
X7297500Y-10536548D01*
X7297500Y-10536548D02*
X7307024Y-10546071D01*
X7307024Y-10546071D02*
X7316548Y-10565119D01*
X7316548Y-10565119D02*
X7326071Y-10603214D01*
X7326071Y-10603214D02*
X7326071Y-10650833D01*
X7326071Y-10650833D02*
X7316548Y-10688929D01*
X7316548Y-10688929D02*
X7307024Y-10707976D01*
X7307024Y-10707976D02*
X7297500Y-10717500D01*
X7297500Y-10717500D02*
X7278452Y-10727024D01*
X7278452Y-10727024D02*
X7259405Y-10727024D01*
X7259405Y-10727024D02*
X7240357Y-10717500D01*
X7240357Y-10717500D02*
X7230833Y-10707976D01*
X7230833Y-10707976D02*
X7221309Y-10688929D01*
X7221309Y-10688929D02*
X7211786Y-10650833D01*
X7211786Y-10650833D02*
X7211786Y-10603214D01*
X7211786Y-10603214D02*
X7221309Y-10565119D01*
X7221309Y-10565119D02*
X7230833Y-10546071D01*
X7230833Y-10546071D02*
X7240357Y-10536548D01*
X7240357Y-10536548D02*
X7259405Y-10527024D01*
X7449881Y-10527024D02*
X7468929Y-10527024D01*
X7468929Y-10527024D02*
X7487976Y-10536548D01*
X7487976Y-10536548D02*
X7497500Y-10546071D01*
X7497500Y-10546071D02*
X7507024Y-10565119D01*
X7507024Y-10565119D02*
X7516548Y-10603214D01*
X7516548Y-10603214D02*
X7516548Y-10650833D01*
X7516548Y-10650833D02*
X7507024Y-10688929D01*
X7507024Y-10688929D02*
X7497500Y-10707976D01*
X7497500Y-10707976D02*
X7487976Y-10717500D01*
X7487976Y-10717500D02*
X7468929Y-10727024D01*
X7468929Y-10727024D02*
X7449881Y-10727024D01*
X7449881Y-10727024D02*
X7430833Y-10717500D01*
X7430833Y-10717500D02*
X7421309Y-10707976D01*
X7421309Y-10707976D02*
X7411786Y-10688929D01*
X7411786Y-10688929D02*
X7402262Y-10650833D01*
X7402262Y-10650833D02*
X7402262Y-10603214D01*
X7402262Y-10603214D02*
X7411786Y-10565119D01*
X7411786Y-10565119D02*
X7421309Y-10546071D01*
X7421309Y-10546071D02*
X7430833Y-10536548D01*
X7430833Y-10536548D02*
X7449881Y-10527024D01*
X7602262Y-10727024D02*
X7602262Y-10593690D01*
X7602262Y-10612738D02*
X7611786Y-10603214D01*
X7611786Y-10603214D02*
X7630833Y-10593690D01*
X7630833Y-10593690D02*
X7659405Y-10593690D01*
X7659405Y-10593690D02*
X7678452Y-10603214D01*
X7678452Y-10603214D02*
X7687976Y-10622262D01*
X7687976Y-10622262D02*
X7687976Y-10727024D01*
X7687976Y-10622262D02*
X7697500Y-10603214D01*
X7697500Y-10603214D02*
X7716548Y-10593690D01*
X7716548Y-10593690D02*
X7745119Y-10593690D01*
X7745119Y-10593690D02*
X7764167Y-10603214D01*
X7764167Y-10603214D02*
X7773690Y-10622262D01*
X7773690Y-10622262D02*
X7773690Y-10727024D01*
X7868929Y-10727024D02*
X7868929Y-10593690D01*
X7868929Y-10612738D02*
X7878452Y-10603214D01*
X7878452Y-10603214D02*
X7897500Y-10593690D01*
X7897500Y-10593690D02*
X7926071Y-10593690D01*
X7926071Y-10593690D02*
X7945119Y-10603214D01*
X7945119Y-10603214D02*
X7954643Y-10622262D01*
X7954643Y-10622262D02*
X7954643Y-10727024D01*
X7954643Y-10622262D02*
X7964167Y-10603214D01*
X7964167Y-10603214D02*
X7983214Y-10593690D01*
X7983214Y-10593690D02*
X8011786Y-10593690D01*
X8011786Y-10593690D02*
X8030833Y-10603214D01*
X8030833Y-10603214D02*
X8040357Y-10622262D01*
X8040357Y-10622262D02*
X8040357Y-10727024D01*
X8430833Y-10517500D02*
X8259405Y-10774643D01*
X8687976Y-10527024D02*
X8707024Y-10527024D01*
X8707024Y-10527024D02*
X8726072Y-10536548D01*
X8726072Y-10536548D02*
X8735595Y-10546071D01*
X8735595Y-10546071D02*
X8745119Y-10565119D01*
X8745119Y-10565119D02*
X8754643Y-10603214D01*
X8754643Y-10603214D02*
X8754643Y-10650833D01*
X8754643Y-10650833D02*
X8745119Y-10688929D01*
X8745119Y-10688929D02*
X8735595Y-10707976D01*
X8735595Y-10707976D02*
X8726072Y-10717500D01*
X8726072Y-10717500D02*
X8707024Y-10727024D01*
X8707024Y-10727024D02*
X8687976Y-10727024D01*
X8687976Y-10727024D02*
X8668929Y-10717500D01*
X8668929Y-10717500D02*
X8659405Y-10707976D01*
X8659405Y-10707976D02*
X8649881Y-10688929D01*
X8649881Y-10688929D02*
X8640357Y-10650833D01*
X8640357Y-10650833D02*
X8640357Y-10603214D01*
X8640357Y-10603214D02*
X8649881Y-10565119D01*
X8649881Y-10565119D02*
X8659405Y-10546071D01*
X8659405Y-10546071D02*
X8668929Y-10536548D01*
X8668929Y-10536548D02*
X8687976Y-10527024D01*
X8840357Y-10707976D02*
X8849881Y-10717500D01*
X8849881Y-10717500D02*
X8840357Y-10727024D01*
X8840357Y-10727024D02*
X8830834Y-10717500D01*
X8830834Y-10717500D02*
X8840357Y-10707976D01*
X8840357Y-10707976D02*
X8840357Y-10727024D01*
X8973691Y-10527024D02*
X8992738Y-10527024D01*
X8992738Y-10527024D02*
X9011786Y-10536548D01*
X9011786Y-10536548D02*
X9021310Y-10546071D01*
X9021310Y-10546071D02*
X9030834Y-10565119D01*
X9030834Y-10565119D02*
X9040357Y-10603214D01*
X9040357Y-10603214D02*
X9040357Y-10650833D01*
X9040357Y-10650833D02*
X9030834Y-10688929D01*
X9030834Y-10688929D02*
X9021310Y-10707976D01*
X9021310Y-10707976D02*
X9011786Y-10717500D01*
X9011786Y-10717500D02*
X8992738Y-10727024D01*
X8992738Y-10727024D02*
X8973691Y-10727024D01*
X8973691Y-10727024D02*
X8954643Y-10717500D01*
X8954643Y-10717500D02*
X8945119Y-10707976D01*
X8945119Y-10707976D02*
X8935595Y-10688929D01*
X8935595Y-10688929D02*
X8926072Y-10650833D01*
X8926072Y-10650833D02*
X8926072Y-10603214D01*
X8926072Y-10603214D02*
X8935595Y-10565119D01*
X8935595Y-10565119D02*
X8945119Y-10546071D01*
X8945119Y-10546071D02*
X8954643Y-10536548D01*
X8954643Y-10536548D02*
X8973691Y-10527024D01*
X9211786Y-10593690D02*
X9211786Y-10727024D01*
X9164167Y-10517500D02*
X9116548Y-10660357D01*
X9116548Y-10660357D02*
X9240357Y-10660357D01*
X9297500Y-10527024D02*
X9430834Y-10527024D01*
X9430834Y-10527024D02*
X9345119Y-10727024D01*
X9497500Y-10546071D02*
X9507024Y-10536548D01*
X9507024Y-10536548D02*
X9526072Y-10527024D01*
X9526072Y-10527024D02*
X9573691Y-10527024D01*
X9573691Y-10527024D02*
X9592738Y-10536548D01*
X9592738Y-10536548D02*
X9602262Y-10546071D01*
X9602262Y-10546071D02*
X9611786Y-10565119D01*
X9611786Y-10565119D02*
X9611786Y-10584167D01*
X9611786Y-10584167D02*
X9602262Y-10612738D01*
X9602262Y-10612738D02*
X9487976Y-10727024D01*
X9487976Y-10727024D02*
X9611786Y-10727024D01*
X9687976Y-10527024D02*
X9687976Y-10565119D01*
X9764167Y-10527024D02*
X9764167Y-10565119D01*
X10059405Y-10803214D02*
X10049881Y-10793690D01*
X10049881Y-10793690D02*
X10030834Y-10765119D01*
X10030834Y-10765119D02*
X10021310Y-10746071D01*
X10021310Y-10746071D02*
X10011786Y-10717500D01*
X10011786Y-10717500D02*
X10002262Y-10669881D01*
X10002262Y-10669881D02*
X10002262Y-10631786D01*
X10002262Y-10631786D02*
X10011786Y-10584167D01*
X10011786Y-10584167D02*
X10021310Y-10555595D01*
X10021310Y-10555595D02*
X10030834Y-10536548D01*
X10030834Y-10536548D02*
X10049881Y-10507976D01*
X10049881Y-10507976D02*
X10059405Y-10498452D01*
X10221310Y-10527024D02*
X10183215Y-10527024D01*
X10183215Y-10527024D02*
X10164167Y-10536548D01*
X10164167Y-10536548D02*
X10154643Y-10546071D01*
X10154643Y-10546071D02*
X10135596Y-10574643D01*
X10135596Y-10574643D02*
X10126072Y-10612738D01*
X10126072Y-10612738D02*
X10126072Y-10688929D01*
X10126072Y-10688929D02*
X10135596Y-10707976D01*
X10135596Y-10707976D02*
X10145119Y-10717500D01*
X10145119Y-10717500D02*
X10164167Y-10727024D01*
X10164167Y-10727024D02*
X10202262Y-10727024D01*
X10202262Y-10727024D02*
X10221310Y-10717500D01*
X10221310Y-10717500D02*
X10230834Y-10707976D01*
X10230834Y-10707976D02*
X10240357Y-10688929D01*
X10240357Y-10688929D02*
X10240357Y-10641310D01*
X10240357Y-10641310D02*
X10230834Y-10622262D01*
X10230834Y-10622262D02*
X10221310Y-10612738D01*
X10221310Y-10612738D02*
X10202262Y-10603214D01*
X10202262Y-10603214D02*
X10164167Y-10603214D01*
X10164167Y-10603214D02*
X10145119Y-10612738D01*
X10145119Y-10612738D02*
X10135596Y-10622262D01*
X10135596Y-10622262D02*
X10126072Y-10641310D01*
X10478453Y-10727024D02*
X10478453Y-10527024D01*
X10564167Y-10727024D02*
X10564167Y-10622262D01*
X10564167Y-10622262D02*
X10554643Y-10603214D01*
X10554643Y-10603214D02*
X10535596Y-10593690D01*
X10535596Y-10593690D02*
X10507024Y-10593690D01*
X10507024Y-10593690D02*
X10487977Y-10603214D01*
X10487977Y-10603214D02*
X10478453Y-10612738D01*
X10687977Y-10727024D02*
X10668929Y-10717500D01*
X10668929Y-10717500D02*
X10659405Y-10707976D01*
X10659405Y-10707976D02*
X10649881Y-10688929D01*
X10649881Y-10688929D02*
X10649881Y-10631786D01*
X10649881Y-10631786D02*
X10659405Y-10612738D01*
X10659405Y-10612738D02*
X10668929Y-10603214D01*
X10668929Y-10603214D02*
X10687977Y-10593690D01*
X10687977Y-10593690D02*
X10716548Y-10593690D01*
X10716548Y-10593690D02*
X10735596Y-10603214D01*
X10735596Y-10603214D02*
X10745119Y-10612738D01*
X10745119Y-10612738D02*
X10754643Y-10631786D01*
X10754643Y-10631786D02*
X10754643Y-10688929D01*
X10754643Y-10688929D02*
X10745119Y-10707976D01*
X10745119Y-10707976D02*
X10735596Y-10717500D01*
X10735596Y-10717500D02*
X10716548Y-10727024D01*
X10716548Y-10727024D02*
X10687977Y-10727024D01*
X10868929Y-10727024D02*
X10849881Y-10717500D01*
X10849881Y-10717500D02*
X10840358Y-10698452D01*
X10840358Y-10698452D02*
X10840358Y-10527024D01*
X11021310Y-10717500D02*
X11002262Y-10727024D01*
X11002262Y-10727024D02*
X10964167Y-10727024D01*
X10964167Y-10727024D02*
X10945119Y-10717500D01*
X10945119Y-10717500D02*
X10935596Y-10698452D01*
X10935596Y-10698452D02*
X10935596Y-10622262D01*
X10935596Y-10622262D02*
X10945119Y-10603214D01*
X10945119Y-10603214D02*
X10964167Y-10593690D01*
X10964167Y-10593690D02*
X11002262Y-10593690D01*
X11002262Y-10593690D02*
X11021310Y-10603214D01*
X11021310Y-10603214D02*
X11030834Y-10622262D01*
X11030834Y-10622262D02*
X11030834Y-10641310D01*
X11030834Y-10641310D02*
X10935596Y-10660357D01*
X11107024Y-10717500D02*
X11126072Y-10727024D01*
X11126072Y-10727024D02*
X11164167Y-10727024D01*
X11164167Y-10727024D02*
X11183215Y-10717500D01*
X11183215Y-10717500D02*
X11192738Y-10698452D01*
X11192738Y-10698452D02*
X11192738Y-10688929D01*
X11192738Y-10688929D02*
X11183215Y-10669881D01*
X11183215Y-10669881D02*
X11164167Y-10660357D01*
X11164167Y-10660357D02*
X11135596Y-10660357D01*
X11135596Y-10660357D02*
X11116548Y-10650833D01*
X11116548Y-10650833D02*
X11107024Y-10631786D01*
X11107024Y-10631786D02*
X11107024Y-10622262D01*
X11107024Y-10622262D02*
X11116548Y-10603214D01*
X11116548Y-10603214D02*
X11135596Y-10593690D01*
X11135596Y-10593690D02*
X11164167Y-10593690D01*
X11164167Y-10593690D02*
X11183215Y-10603214D01*
X11259405Y-10803214D02*
X11268929Y-10793690D01*
X11268929Y-10793690D02*
X11287977Y-10765119D01*
X11287977Y-10765119D02*
X11297500Y-10746071D01*
X11297500Y-10746071D02*
X11307024Y-10717500D01*
X11307024Y-10717500D02*
X11316548Y-10669881D01*
X11316548Y-10669881D02*
X11316548Y-10631786D01*
X11316548Y-10631786D02*
X11307024Y-10584167D01*
X11307024Y-10584167D02*
X11297500Y-10555595D01*
X11297500Y-10555595D02*
X11287977Y-10536548D01*
X11287977Y-10536548D02*
X11268929Y-10507976D01*
X11268929Y-10507976D02*
X11259405Y-10498452D01*
M02*
