G04 #@! TF.GenerationSoftware,KiCad,Pcbnew,7.0.2*
G04 #@! TF.CreationDate,2023-06-06T15:13:29-04:00*
G04 #@! TF.ProjectId,baseplate,62617365-706c-4617-9465-2e6b69636164,rev?*
G04 #@! TF.SameCoordinates,Original*
G04 #@! TF.FileFunction,Legend,Top*
G04 #@! TF.FilePolarity,Positive*
%FSLAX46Y46*%
G04 Gerber Fmt 4.6, Leading zero omitted, Abs format (unit mm)*
G04 Created by KiCad (PCBNEW 7.0.2) date 2023-06-06 15:13:29*
%MOMM*%
%LPD*%
G01*
G04 APERTURE LIST*
G04 Aperture macros list*
%AMRoundRect*
0 Rectangle with rounded corners*
0 $1 Rounding radius*
0 $2 $3 $4 $5 $6 $7 $8 $9 X,Y pos of 4 corners*
0 Add a 4 corners polygon primitive as box body*
4,1,4,$2,$3,$4,$5,$6,$7,$8,$9,$2,$3,0*
0 Add four circle primitives for the rounded corners*
1,1,$1+$1,$2,$3*
1,1,$1+$1,$4,$5*
1,1,$1+$1,$6,$7*
1,1,$1+$1,$8,$9*
0 Add four rect primitives between the rounded corners*
20,1,$1+$1,$2,$3,$4,$5,0*
20,1,$1+$1,$4,$5,$6,$7,0*
20,1,$1+$1,$6,$7,$8,$9,0*
20,1,$1+$1,$8,$9,$2,$3,0*%
G04 Aperture macros list end*
%ADD10C,0.700000*%
%ADD11C,0.254000*%
%ADD12C,0.200000*%
%ADD13C,0.100000*%
%ADD14C,0.250000*%
%ADD15C,0.120000*%
%ADD16R,1.800000X1.800000*%
%ADD17C,1.800000*%
%ADD18R,17.780000X12.700000*%
%ADD19R,0.620000X0.300000*%
%ADD20R,0.600000X0.350000*%
%ADD21R,1.100000X1.700000*%
%ADD22R,1.000000X1.000000*%
%ADD23R,1.050000X2.200000*%
%ADD24RoundRect,0.140000X0.170000X-0.140000X0.170000X0.140000X-0.170000X0.140000X-0.170000X-0.140000X0*%
%ADD25C,1.400000*%
%ADD26O,1.400000X1.400000*%
G04 APERTURE END LIST*
D10*
X69761428Y-90445714D02*
X66332857Y-90445714D01*
X68047142Y-90445714D02*
X68047142Y-84445714D01*
X68047142Y-84445714D02*
X67475714Y-85302857D01*
X67475714Y-85302857D02*
X66904285Y-85874285D01*
X66904285Y-85874285D02*
X66332857Y-86160000D01*
X72332857Y-90445714D02*
X72332857Y-84445714D01*
X72332857Y-84445714D02*
X74618571Y-84445714D01*
X74618571Y-84445714D02*
X75190000Y-84731428D01*
X75190000Y-84731428D02*
X75475714Y-85017142D01*
X75475714Y-85017142D02*
X75761428Y-85588571D01*
X75761428Y-85588571D02*
X75761428Y-86445714D01*
X75761428Y-86445714D02*
X75475714Y-87017142D01*
X75475714Y-87017142D02*
X75190000Y-87302857D01*
X75190000Y-87302857D02*
X74618571Y-87588571D01*
X74618571Y-87588571D02*
X72332857Y-87588571D01*
D11*
X101986666Y-88047050D02*
X102168095Y-88107526D01*
X102168095Y-88107526D02*
X102470476Y-88107526D01*
X102470476Y-88107526D02*
X102591428Y-88047050D01*
X102591428Y-88047050D02*
X102651904Y-87986573D01*
X102651904Y-87986573D02*
X102712381Y-87865621D01*
X102712381Y-87865621D02*
X102712381Y-87744669D01*
X102712381Y-87744669D02*
X102651904Y-87623716D01*
X102651904Y-87623716D02*
X102591428Y-87563240D01*
X102591428Y-87563240D02*
X102470476Y-87502764D01*
X102470476Y-87502764D02*
X102228571Y-87442288D01*
X102228571Y-87442288D02*
X102107619Y-87381811D01*
X102107619Y-87381811D02*
X102047142Y-87321335D01*
X102047142Y-87321335D02*
X101986666Y-87200383D01*
X101986666Y-87200383D02*
X101986666Y-87079430D01*
X101986666Y-87079430D02*
X102047142Y-86958478D01*
X102047142Y-86958478D02*
X102107619Y-86898002D01*
X102107619Y-86898002D02*
X102228571Y-86837526D01*
X102228571Y-86837526D02*
X102530952Y-86837526D01*
X102530952Y-86837526D02*
X102712381Y-86898002D01*
X103135714Y-86837526D02*
X103438095Y-88107526D01*
X103438095Y-88107526D02*
X103680000Y-87200383D01*
X103680000Y-87200383D02*
X103921905Y-88107526D01*
X103921905Y-88107526D02*
X104224286Y-86837526D01*
X104647619Y-86958478D02*
X104708095Y-86898002D01*
X104708095Y-86898002D02*
X104829048Y-86837526D01*
X104829048Y-86837526D02*
X105131429Y-86837526D01*
X105131429Y-86837526D02*
X105252381Y-86898002D01*
X105252381Y-86898002D02*
X105312857Y-86958478D01*
X105312857Y-86958478D02*
X105373334Y-87079430D01*
X105373334Y-87079430D02*
X105373334Y-87200383D01*
X105373334Y-87200383D02*
X105312857Y-87381811D01*
X105312857Y-87381811D02*
X104587143Y-88107526D01*
X104587143Y-88107526D02*
X105373334Y-88107526D01*
X93760237Y-58587526D02*
X93760237Y-57317526D01*
X95090714Y-58466573D02*
X95030238Y-58527050D01*
X95030238Y-58527050D02*
X94848809Y-58587526D01*
X94848809Y-58587526D02*
X94727857Y-58587526D01*
X94727857Y-58587526D02*
X94546428Y-58527050D01*
X94546428Y-58527050D02*
X94425476Y-58406097D01*
X94425476Y-58406097D02*
X94364999Y-58285145D01*
X94364999Y-58285145D02*
X94304523Y-58043240D01*
X94304523Y-58043240D02*
X94304523Y-57861811D01*
X94304523Y-57861811D02*
X94364999Y-57619907D01*
X94364999Y-57619907D02*
X94425476Y-57498954D01*
X94425476Y-57498954D02*
X94546428Y-57378002D01*
X94546428Y-57378002D02*
X94727857Y-57317526D01*
X94727857Y-57317526D02*
X94848809Y-57317526D01*
X94848809Y-57317526D02*
X95030238Y-57378002D01*
X95030238Y-57378002D02*
X95090714Y-57438478D01*
X96179285Y-57317526D02*
X95937380Y-57317526D01*
X95937380Y-57317526D02*
X95816428Y-57378002D01*
X95816428Y-57378002D02*
X95755952Y-57438478D01*
X95755952Y-57438478D02*
X95634999Y-57619907D01*
X95634999Y-57619907D02*
X95574523Y-57861811D01*
X95574523Y-57861811D02*
X95574523Y-58345621D01*
X95574523Y-58345621D02*
X95634999Y-58466573D01*
X95634999Y-58466573D02*
X95695476Y-58527050D01*
X95695476Y-58527050D02*
X95816428Y-58587526D01*
X95816428Y-58587526D02*
X96058333Y-58587526D01*
X96058333Y-58587526D02*
X96179285Y-58527050D01*
X96179285Y-58527050D02*
X96239761Y-58466573D01*
X96239761Y-58466573D02*
X96300238Y-58345621D01*
X96300238Y-58345621D02*
X96300238Y-58043240D01*
X96300238Y-58043240D02*
X96239761Y-57922288D01*
X96239761Y-57922288D02*
X96179285Y-57861811D01*
X96179285Y-57861811D02*
X96058333Y-57801335D01*
X96058333Y-57801335D02*
X95816428Y-57801335D01*
X95816428Y-57801335D02*
X95695476Y-57861811D01*
X95695476Y-57861811D02*
X95634999Y-57922288D01*
X95634999Y-57922288D02*
X95574523Y-58043240D01*
X114260237Y-77377526D02*
X114260237Y-76107526D01*
X115590714Y-77256573D02*
X115530238Y-77317050D01*
X115530238Y-77317050D02*
X115348809Y-77377526D01*
X115348809Y-77377526D02*
X115227857Y-77377526D01*
X115227857Y-77377526D02*
X115046428Y-77317050D01*
X115046428Y-77317050D02*
X114925476Y-77196097D01*
X114925476Y-77196097D02*
X114864999Y-77075145D01*
X114864999Y-77075145D02*
X114804523Y-76833240D01*
X114804523Y-76833240D02*
X114804523Y-76651811D01*
X114804523Y-76651811D02*
X114864999Y-76409907D01*
X114864999Y-76409907D02*
X114925476Y-76288954D01*
X114925476Y-76288954D02*
X115046428Y-76168002D01*
X115046428Y-76168002D02*
X115227857Y-76107526D01*
X115227857Y-76107526D02*
X115348809Y-76107526D01*
X115348809Y-76107526D02*
X115530238Y-76168002D01*
X115530238Y-76168002D02*
X115590714Y-76228478D01*
X116739761Y-76107526D02*
X116134999Y-76107526D01*
X116134999Y-76107526D02*
X116074523Y-76712288D01*
X116074523Y-76712288D02*
X116134999Y-76651811D01*
X116134999Y-76651811D02*
X116255952Y-76591335D01*
X116255952Y-76591335D02*
X116558333Y-76591335D01*
X116558333Y-76591335D02*
X116679285Y-76651811D01*
X116679285Y-76651811D02*
X116739761Y-76712288D01*
X116739761Y-76712288D02*
X116800238Y-76833240D01*
X116800238Y-76833240D02*
X116800238Y-77135621D01*
X116800238Y-77135621D02*
X116739761Y-77256573D01*
X116739761Y-77256573D02*
X116679285Y-77317050D01*
X116679285Y-77317050D02*
X116558333Y-77377526D01*
X116558333Y-77377526D02*
X116255952Y-77377526D01*
X116255952Y-77377526D02*
X116134999Y-77317050D01*
X116134999Y-77317050D02*
X116074523Y-77256573D01*
X88946666Y-39037050D02*
X89128095Y-39097526D01*
X89128095Y-39097526D02*
X89430476Y-39097526D01*
X89430476Y-39097526D02*
X89551428Y-39037050D01*
X89551428Y-39037050D02*
X89611904Y-38976573D01*
X89611904Y-38976573D02*
X89672381Y-38855621D01*
X89672381Y-38855621D02*
X89672381Y-38734669D01*
X89672381Y-38734669D02*
X89611904Y-38613716D01*
X89611904Y-38613716D02*
X89551428Y-38553240D01*
X89551428Y-38553240D02*
X89430476Y-38492764D01*
X89430476Y-38492764D02*
X89188571Y-38432288D01*
X89188571Y-38432288D02*
X89067619Y-38371811D01*
X89067619Y-38371811D02*
X89007142Y-38311335D01*
X89007142Y-38311335D02*
X88946666Y-38190383D01*
X88946666Y-38190383D02*
X88946666Y-38069430D01*
X88946666Y-38069430D02*
X89007142Y-37948478D01*
X89007142Y-37948478D02*
X89067619Y-37888002D01*
X89067619Y-37888002D02*
X89188571Y-37827526D01*
X89188571Y-37827526D02*
X89490952Y-37827526D01*
X89490952Y-37827526D02*
X89672381Y-37888002D01*
X90095714Y-37827526D02*
X90398095Y-39097526D01*
X90398095Y-39097526D02*
X90640000Y-38190383D01*
X90640000Y-38190383D02*
X90881905Y-39097526D01*
X90881905Y-39097526D02*
X91184286Y-37827526D01*
X92333334Y-39097526D02*
X91607619Y-39097526D01*
X91970476Y-39097526D02*
X91970476Y-37827526D01*
X91970476Y-37827526D02*
X91849524Y-38008954D01*
X91849524Y-38008954D02*
X91728572Y-38129907D01*
X91728572Y-38129907D02*
X91607619Y-38190383D01*
D12*
X110020000Y-91280000D02*
X97220000Y-91280000D01*
X110020000Y-86280000D02*
X110020000Y-91280000D01*
D13*
X108700000Y-82080000D02*
X108700000Y-82080000D01*
X108700000Y-81980000D02*
X108700000Y-81980000D01*
D12*
X97220000Y-91280000D02*
X97220000Y-86280000D01*
X97220000Y-86280000D02*
X110020000Y-86280000D01*
D13*
X108700000Y-81980000D02*
G75*
G03*
X108700000Y-82080000I0J-50000D01*
G01*
X108700000Y-82080000D02*
G75*
G03*
X108700000Y-81980000I0J50000D01*
G01*
D12*
X95380000Y-54650000D02*
X96000000Y-54650000D01*
X96350000Y-54750000D02*
X96850000Y-54750000D01*
X96350000Y-56850000D02*
X96350000Y-54750000D01*
X96850000Y-54750000D02*
X96850000Y-56850000D01*
X96850000Y-56850000D02*
X96350000Y-56850000D01*
G36*
X67471369Y-40363442D02*
G01*
X67462592Y-40372219D01*
X67453815Y-40363442D01*
X67462592Y-40354665D01*
X67471369Y-40363442D01*
G37*
G36*
X67752226Y-36010159D02*
G01*
X67743449Y-36018936D01*
X67734672Y-36010159D01*
X67743449Y-36001382D01*
X67752226Y-36010159D01*
G37*
G36*
X68068190Y-43523082D02*
G01*
X68059413Y-43531859D01*
X68050636Y-43523082D01*
X68059413Y-43514306D01*
X68068190Y-43523082D01*
G37*
G36*
X68489475Y-43786386D02*
G01*
X68480698Y-43795163D01*
X68471921Y-43786386D01*
X68480698Y-43777609D01*
X68489475Y-43786386D01*
G37*
G36*
X68945868Y-36922944D02*
G01*
X68937091Y-36931721D01*
X68928314Y-36922944D01*
X68937091Y-36914167D01*
X68945868Y-36922944D01*
G37*
G36*
X69068742Y-42118798D02*
G01*
X69059966Y-42127574D01*
X69051189Y-42118798D01*
X69059966Y-42110021D01*
X69068742Y-42118798D01*
G37*
G36*
X69437367Y-42171458D02*
G01*
X69428590Y-42180235D01*
X69419814Y-42171458D01*
X69428590Y-42162682D01*
X69437367Y-42171458D01*
G37*
G36*
X69683117Y-44225225D02*
G01*
X69674340Y-44234002D01*
X69665564Y-44225225D01*
X69674340Y-44216448D01*
X69683117Y-44225225D01*
G37*
G36*
X70279938Y-37256462D02*
G01*
X70271161Y-37265239D01*
X70262385Y-37256462D01*
X70271161Y-37247685D01*
X70279938Y-37256462D01*
G37*
G36*
X70297492Y-37326676D02*
G01*
X70288715Y-37335453D01*
X70279938Y-37326676D01*
X70288715Y-37317899D01*
X70297492Y-37326676D01*
G37*
G36*
X70315045Y-37116033D02*
G01*
X70306268Y-37124810D01*
X70297492Y-37116033D01*
X70306268Y-37107257D01*
X70315045Y-37116033D01*
G37*
G36*
X72193276Y-36835176D02*
G01*
X72184499Y-36843953D01*
X72175722Y-36835176D01*
X72184499Y-36826400D01*
X72193276Y-36835176D01*
G37*
G36*
X72737436Y-39485764D02*
G01*
X72728660Y-39494541D01*
X72719883Y-39485764D01*
X72728660Y-39476987D01*
X72737436Y-39485764D01*
G37*
G36*
X72825204Y-35483552D02*
G01*
X72816427Y-35492329D01*
X72807651Y-35483552D01*
X72816427Y-35474776D01*
X72825204Y-35483552D01*
G37*
G36*
X72860311Y-41434209D02*
G01*
X72851534Y-41442986D01*
X72842758Y-41434209D01*
X72851534Y-41425432D01*
X72860311Y-41434209D01*
G37*
G36*
X73000740Y-39643746D02*
G01*
X72991963Y-39652523D01*
X72983186Y-39643746D01*
X72991963Y-39634969D01*
X73000740Y-39643746D01*
G37*
G36*
X73070954Y-39152246D02*
G01*
X73062177Y-39161023D01*
X73053400Y-39152246D01*
X73062177Y-39143469D01*
X73070954Y-39152246D01*
G37*
G36*
X73281597Y-43575743D02*
G01*
X73272820Y-43584520D01*
X73264043Y-43575743D01*
X73272820Y-43566966D01*
X73281597Y-43575743D01*
G37*
G36*
X73369364Y-36027713D02*
G01*
X73360588Y-36036489D01*
X73351811Y-36027713D01*
X73360588Y-36018936D01*
X73369364Y-36027713D01*
G37*
G36*
X73474686Y-38625639D02*
G01*
X73465909Y-38634416D01*
X73457132Y-38625639D01*
X73465909Y-38616863D01*
X73474686Y-38625639D01*
G37*
G36*
X73825757Y-38783621D02*
G01*
X73816980Y-38792398D01*
X73808203Y-38783621D01*
X73816980Y-38774845D01*
X73825757Y-38783621D01*
G37*
G36*
X73843311Y-38906496D02*
G01*
X73834534Y-38915273D01*
X73825757Y-38906496D01*
X73834534Y-38897720D01*
X73843311Y-38906496D01*
G37*
G36*
X73931078Y-36519212D02*
G01*
X73922302Y-36527989D01*
X73913525Y-36519212D01*
X73922302Y-36510436D01*
X73931078Y-36519212D01*
G37*
G36*
X73983739Y-36273462D02*
G01*
X73974962Y-36282239D01*
X73966185Y-36273462D01*
X73974962Y-36264686D01*
X73983739Y-36273462D01*
G37*
G36*
X74001293Y-36326123D02*
G01*
X73992516Y-36334900D01*
X73983739Y-36326123D01*
X73992516Y-36317346D01*
X74001293Y-36326123D01*
G37*
G36*
X74247042Y-36922944D02*
G01*
X74238266Y-36931721D01*
X74229489Y-36922944D01*
X74238266Y-36914167D01*
X74247042Y-36922944D01*
G37*
G36*
X74668328Y-37098480D02*
G01*
X74659551Y-37107257D01*
X74650774Y-37098480D01*
X74659551Y-37089703D01*
X74668328Y-37098480D01*
G37*
G36*
X74861417Y-37396890D02*
G01*
X74852640Y-37405667D01*
X74843863Y-37396890D01*
X74852640Y-37388113D01*
X74861417Y-37396890D01*
G37*
G36*
X66500072Y-38622714D02*
G01*
X66497662Y-38633149D01*
X66488369Y-38634416D01*
X66473921Y-38627994D01*
X66476667Y-38622714D01*
X66497499Y-38620613D01*
X66500072Y-38622714D01*
G37*
G36*
X67360196Y-38306750D02*
G01*
X67362297Y-38327582D01*
X67360196Y-38330154D01*
X67349761Y-38327745D01*
X67348494Y-38318452D01*
X67354916Y-38304004D01*
X67360196Y-38306750D01*
G37*
G36*
X70326748Y-35814144D02*
G01*
X70324338Y-35824580D01*
X70315045Y-35825847D01*
X70300597Y-35819424D01*
X70303343Y-35814144D01*
X70324175Y-35812044D01*
X70326748Y-35814144D01*
G37*
G36*
X72959781Y-39623267D02*
G01*
X72957372Y-39633702D01*
X72948079Y-39634969D01*
X72933630Y-39628546D01*
X72936377Y-39623267D01*
X72957209Y-39621166D01*
X72959781Y-39623267D01*
G37*
G36*
X72977335Y-36709376D02*
G01*
X72974925Y-36719811D01*
X72965633Y-36721078D01*
X72951184Y-36714656D01*
X72953930Y-36709376D01*
X72974762Y-36707275D01*
X72977335Y-36709376D01*
G37*
G36*
X67047371Y-36675518D02*
G01*
X67066068Y-36691836D01*
X67067637Y-36695784D01*
X67059306Y-36702999D01*
X67041962Y-36686832D01*
X67039630Y-36683259D01*
X67037561Y-36671247D01*
X67047371Y-36675518D01*
G37*
G36*
X70478047Y-37120029D02*
G01*
X70481804Y-37124810D01*
X70487982Y-37140598D01*
X70471375Y-37134652D01*
X70455474Y-37124810D01*
X70441979Y-37110719D01*
X70450049Y-37107525D01*
X70478047Y-37120029D01*
G37*
G36*
X72756802Y-39522727D02*
G01*
X72771223Y-39543463D01*
X72769913Y-39555375D01*
X72754880Y-39549408D01*
X72741133Y-39536654D01*
X72729944Y-39516846D01*
X72735708Y-39512094D01*
X72756802Y-39522727D01*
G37*
G36*
X68975226Y-38996520D02*
G01*
X68977610Y-39001724D01*
X68969137Y-39017730D01*
X68954644Y-39020594D01*
X68932798Y-39011688D01*
X68931678Y-39001724D01*
X68949800Y-38983589D01*
X68954644Y-38982854D01*
X68975226Y-38996520D01*
G37*
G36*
X68995179Y-37801010D02*
G01*
X68998528Y-37809399D01*
X68985930Y-37826450D01*
X68982011Y-37826952D01*
X68958237Y-37814193D01*
X68954644Y-37809399D01*
X68958624Y-37794371D01*
X68971162Y-37791845D01*
X68995179Y-37801010D01*
G37*
G36*
X72313188Y-36098079D02*
G01*
X72316151Y-36105668D01*
X72304536Y-36128589D01*
X72282023Y-36134079D01*
X72274715Y-36129631D01*
X72264037Y-36104150D01*
X72282825Y-36089660D01*
X72289821Y-36089150D01*
X72313188Y-36098079D01*
G37*
G36*
X68671995Y-36439494D02*
G01*
X68665011Y-36448998D01*
X68632829Y-36471129D01*
X68614589Y-36474770D01*
X68597707Y-36471138D01*
X68608777Y-36457297D01*
X68620093Y-36448440D01*
X68654499Y-36427452D01*
X68673969Y-36424497D01*
X68671995Y-36439494D01*
G37*
G36*
X74239807Y-40025806D02*
G01*
X74237046Y-40037346D01*
X74219852Y-40057205D01*
X74192584Y-40085152D01*
X74181718Y-40086454D01*
X74181262Y-40061505D01*
X74181393Y-40059728D01*
X74198242Y-40032261D01*
X74217269Y-40025572D01*
X74239807Y-40025806D01*
G37*
G36*
X74694939Y-38009043D02*
G01*
X74703435Y-38036213D01*
X74703435Y-38036374D01*
X74694059Y-38064397D01*
X74660521Y-38072689D01*
X74658264Y-38072702D01*
X74624908Y-38066285D01*
X74618626Y-38043808D01*
X74618948Y-38041984D01*
X74638981Y-38015451D01*
X74664119Y-38005656D01*
X74694939Y-38009043D01*
G37*
G36*
X74397982Y-39204607D02*
G01*
X74408446Y-39222460D01*
X74431639Y-39255464D01*
X74445867Y-39269140D01*
X74449831Y-39288893D01*
X74435455Y-39308635D01*
X74412054Y-39330024D01*
X74395457Y-39329858D01*
X74371348Y-39306368D01*
X74365529Y-39299989D01*
X74346337Y-39275354D01*
X74352304Y-39266862D01*
X74361141Y-39266344D01*
X74382585Y-39251313D01*
X74388005Y-39226849D01*
X74389714Y-39199230D01*
X74397982Y-39204607D01*
G37*
G36*
X69314432Y-36761414D02*
G01*
X69314492Y-36762907D01*
X69328655Y-36787364D01*
X69353988Y-36804976D01*
X69393483Y-36824024D01*
X69355209Y-36825212D01*
X69320355Y-36840581D01*
X69309327Y-36865895D01*
X69303126Y-36888234D01*
X69299486Y-36876033D01*
X69299329Y-36874106D01*
X69282701Y-36841522D01*
X69266220Y-36830222D01*
X69247520Y-36819054D01*
X69251967Y-36803201D01*
X69274997Y-36778755D01*
X69303180Y-36756738D01*
X69314432Y-36761414D01*
G37*
G36*
X67984993Y-41409077D02*
G01*
X68058829Y-41414568D01*
X68107741Y-41427197D01*
X68136805Y-41449809D01*
X68151098Y-41485246D01*
X68155696Y-41536356D01*
X68155957Y-41561859D01*
X68153156Y-41615768D01*
X68141465Y-41654401D01*
X68115955Y-41680258D01*
X68071694Y-41695841D01*
X68003752Y-41703649D01*
X67907200Y-41706183D01*
X67871195Y-41706289D01*
X67664458Y-41706289D01*
X67664458Y-41557084D01*
X67664458Y-41407879D01*
X67881157Y-41407879D01*
X67984993Y-41409077D01*
G37*
G36*
X67274486Y-39585050D02*
G01*
X67278826Y-39595474D01*
X67302742Y-39626311D01*
X67325986Y-39635503D01*
X67347510Y-39637499D01*
X67338549Y-39646751D01*
X67325432Y-39654556D01*
X67292959Y-39685766D01*
X67278272Y-39711071D01*
X67266709Y-39734114D01*
X67262159Y-39724786D01*
X67261839Y-39718966D01*
X67246807Y-39688175D01*
X67221881Y-39668076D01*
X67183036Y-39647286D01*
X67221881Y-39632917D01*
X67252727Y-39609774D01*
X67261839Y-39587262D01*
X67265061Y-39570319D01*
X67274486Y-39585050D01*
G37*
G36*
X70716797Y-35471440D02*
G01*
X70718777Y-35483552D01*
X70733179Y-35506096D01*
X70749496Y-35510441D01*
X70770272Y-35513336D01*
X70760642Y-35525869D01*
X70752343Y-35532383D01*
X70725346Y-35560431D01*
X70717236Y-35574935D01*
X70701934Y-35579706D01*
X70671290Y-35555699D01*
X70668662Y-35552993D01*
X70643869Y-35523745D01*
X70644276Y-35511450D01*
X70655497Y-35509883D01*
X70679931Y-35496619D01*
X70683670Y-35483552D01*
X70693148Y-35460193D01*
X70701223Y-35457222D01*
X70716797Y-35471440D01*
G37*
G36*
X74856252Y-40701348D02*
G01*
X74871685Y-40732213D01*
X74888968Y-40740843D01*
X74911533Y-40750720D01*
X74914078Y-40758397D01*
X74900644Y-40775352D01*
X74895958Y-40775950D01*
X74876233Y-40790316D01*
X74861964Y-40815446D01*
X74850158Y-40839645D01*
X74845451Y-40831731D01*
X74844976Y-40823672D01*
X74831011Y-40791739D01*
X74817533Y-40782298D01*
X74794305Y-40765068D01*
X74791203Y-40756519D01*
X74805448Y-40742603D01*
X74817533Y-40740843D01*
X74839341Y-40725811D01*
X74846254Y-40701348D01*
X74848644Y-40661852D01*
X74856252Y-40701348D01*
G37*
G36*
X72764401Y-41458447D02*
G01*
X72780877Y-41499256D01*
X72801670Y-41557054D01*
X72824036Y-41623480D01*
X72845228Y-41690174D01*
X72862501Y-41748776D01*
X72873108Y-41790925D01*
X72874778Y-41807706D01*
X72855742Y-41813373D01*
X72811281Y-41816069D01*
X72750994Y-41815214D01*
X72750602Y-41815197D01*
X72691252Y-41811045D01*
X72648745Y-41805110D01*
X72632121Y-41798664D01*
X72632115Y-41798544D01*
X72637415Y-41774158D01*
X72651389Y-41727383D01*
X72671147Y-41666578D01*
X72693801Y-41600105D01*
X72716461Y-41536324D01*
X72736237Y-41483597D01*
X72750240Y-41450283D01*
X72754990Y-41442986D01*
X72764401Y-41458447D01*
G37*
G36*
X67955248Y-37857590D02*
G01*
X67971247Y-37906342D01*
X67993764Y-37934289D01*
X68010742Y-37943133D01*
X68062677Y-37960385D01*
X68081439Y-37970936D01*
X68067064Y-37979465D01*
X68019591Y-37990650D01*
X68011141Y-37992510D01*
X67975801Y-38007253D01*
X67963554Y-38038042D01*
X67962868Y-38055483D01*
X67957938Y-38096646D01*
X67945413Y-38104828D01*
X67928695Y-38080388D01*
X67918226Y-38050760D01*
X67898099Y-38008033D01*
X67865039Y-37990038D01*
X67853159Y-37988157D01*
X67818097Y-37979337D01*
X67804886Y-37967381D01*
X67820064Y-37954579D01*
X67853159Y-37946605D01*
X67890501Y-37933790D01*
X67914336Y-37899595D01*
X67921755Y-37879613D01*
X67934402Y-37844918D01*
X67944089Y-37836779D01*
X67955248Y-37857590D01*
G37*
G36*
X70245096Y-41409188D02*
G01*
X70289737Y-41414102D01*
X70319995Y-41425936D01*
X70346217Y-41447494D01*
X70355645Y-41457111D01*
X70374528Y-41478009D01*
X70387550Y-41498844D01*
X70395800Y-41526269D01*
X70400367Y-41566937D01*
X70402339Y-41627500D01*
X70402804Y-41714612D01*
X70402813Y-41745395D01*
X70402813Y-41984445D01*
X70348802Y-42038456D01*
X70317759Y-42066765D01*
X70288120Y-42082965D01*
X70248682Y-42090401D01*
X70188242Y-42092418D01*
X70167933Y-42092467D01*
X70100737Y-42091414D01*
X70057401Y-42085883D01*
X70026689Y-42072322D01*
X69997368Y-42047174D01*
X69984971Y-42034583D01*
X69928867Y-41976698D01*
X69928867Y-41744701D01*
X69928867Y-41512705D01*
X69985916Y-41460806D01*
X70018453Y-41433949D01*
X70049810Y-41418323D01*
X70091052Y-41410873D01*
X70153243Y-41408543D01*
X70175721Y-41408393D01*
X70245096Y-41409188D01*
G37*
G36*
X74334462Y-40088312D02*
G01*
X74412656Y-40106134D01*
X74426413Y-40110542D01*
X74486735Y-40128739D01*
X74538089Y-40140898D01*
X74562453Y-40144022D01*
X74591297Y-40149832D01*
X74598114Y-40158065D01*
X74583396Y-40186714D01*
X74549714Y-40208920D01*
X74524389Y-40214237D01*
X74497725Y-40224309D01*
X74492523Y-40236178D01*
X74486455Y-40245316D01*
X74475239Y-40231790D01*
X74461045Y-40217508D01*
X74457954Y-40227402D01*
X74441507Y-40242854D01*
X74395797Y-40247978D01*
X74391859Y-40247918D01*
X74326033Y-40246492D01*
X74378694Y-40220792D01*
X74408311Y-40205729D01*
X74412988Y-40199362D01*
X74389217Y-40200017D01*
X74345042Y-40204731D01*
X74283779Y-40207556D01*
X74244351Y-40197776D01*
X74226556Y-40185252D01*
X74196199Y-40146364D01*
X74196070Y-40115634D01*
X74221910Y-40094654D01*
X74269461Y-40085016D01*
X74334462Y-40088312D01*
G37*
G36*
X71147246Y-34123193D02*
G01*
X71575364Y-34123315D01*
X71993025Y-34123515D01*
X72398902Y-34123790D01*
X72791669Y-34124135D01*
X73169998Y-34124549D01*
X73532562Y-34125028D01*
X73878033Y-34125568D01*
X74205084Y-34126167D01*
X74512388Y-34126822D01*
X74798618Y-34127528D01*
X75062445Y-34128284D01*
X75302544Y-34129086D01*
X75517587Y-34129930D01*
X75706245Y-34130814D01*
X75867193Y-34131734D01*
X75999103Y-34132688D01*
X76100647Y-34133671D01*
X76170499Y-34134681D01*
X76207331Y-34135715D01*
X76213041Y-34136317D01*
X76195709Y-34137363D01*
X76144596Y-34138387D01*
X76061032Y-34139386D01*
X75946342Y-34140357D01*
X75801854Y-34141297D01*
X75628895Y-34142202D01*
X75428793Y-34143069D01*
X75202875Y-34143896D01*
X74952468Y-34144678D01*
X74678900Y-34145413D01*
X74383497Y-34146098D01*
X74067588Y-34146729D01*
X73732498Y-34147304D01*
X73379557Y-34147818D01*
X73010090Y-34148269D01*
X72625425Y-34148654D01*
X72226890Y-34148970D01*
X71815812Y-34149213D01*
X71393518Y-34149380D01*
X70961335Y-34149468D01*
X70710000Y-34149482D01*
X70272754Y-34149440D01*
X69844637Y-34149318D01*
X69426976Y-34149118D01*
X69021098Y-34148844D01*
X68628331Y-34148498D01*
X68250002Y-34148084D01*
X67887438Y-34147606D01*
X67541967Y-34147065D01*
X67214916Y-34146466D01*
X66907612Y-34145812D01*
X66621383Y-34145105D01*
X66357555Y-34144349D01*
X66117456Y-34143548D01*
X65902414Y-34142703D01*
X65713755Y-34141819D01*
X65552807Y-34140899D01*
X65420897Y-34139946D01*
X65319353Y-34138962D01*
X65249501Y-34137952D01*
X65212670Y-34136918D01*
X65206960Y-34136317D01*
X65224292Y-34135271D01*
X65275404Y-34134246D01*
X65358969Y-34133247D01*
X65473659Y-34132276D01*
X65618147Y-34131337D01*
X65791105Y-34130432D01*
X65991207Y-34129564D01*
X66217125Y-34128738D01*
X66467532Y-34127955D01*
X66741101Y-34127220D01*
X67036503Y-34126535D01*
X67352413Y-34125904D01*
X67687502Y-34125330D01*
X68040444Y-34124815D01*
X68409911Y-34124364D01*
X68794575Y-34123979D01*
X69193110Y-34123663D01*
X69604189Y-34123420D01*
X70026483Y-34123253D01*
X70458666Y-34123165D01*
X70710000Y-34123152D01*
X71147246Y-34123193D01*
G37*
G36*
X74484846Y-39801213D02*
G01*
X74547845Y-39829747D01*
X74593111Y-39870883D01*
X74613345Y-39920871D01*
X74613147Y-39939885D01*
X74617998Y-39984632D01*
X74630340Y-40016759D01*
X74642790Y-40060952D01*
X74633221Y-40091362D01*
X74599470Y-40118469D01*
X74540296Y-40123120D01*
X74457276Y-40105297D01*
X74422578Y-40093638D01*
X74372761Y-40073171D01*
X74337228Y-40054160D01*
X74329085Y-40047478D01*
X74312115Y-40041971D01*
X74305681Y-40051866D01*
X74287240Y-40072675D01*
X74270602Y-40065770D01*
X74268215Y-40043089D01*
X74261058Y-40018171D01*
X74225101Y-40006816D01*
X74225100Y-40006816D01*
X74188745Y-39995417D01*
X74186204Y-39989208D01*
X74547068Y-39989208D01*
X74559644Y-40001395D01*
X74563006Y-40003594D01*
X74589420Y-40018921D01*
X74597562Y-40014363D01*
X74598114Y-40003594D01*
X74583640Y-39988840D01*
X74567395Y-39986309D01*
X74547068Y-39989208D01*
X74186204Y-39989208D01*
X74180875Y-39976189D01*
X74356364Y-39976189D01*
X74366460Y-39981603D01*
X74402863Y-39985181D01*
X74440132Y-39986040D01*
X74489735Y-39984245D01*
X74519112Y-39979618D01*
X74522893Y-39975183D01*
X74499315Y-39968507D01*
X74455820Y-39965679D01*
X74407375Y-39966609D01*
X74368951Y-39971205D01*
X74356364Y-39976189D01*
X74180875Y-39976189D01*
X74177053Y-39966850D01*
X74176828Y-39959162D01*
X74191291Y-39916883D01*
X74192472Y-39915826D01*
X74229489Y-39915826D01*
X74235911Y-39930275D01*
X74241191Y-39927528D01*
X74243292Y-39906696D01*
X74241191Y-39904124D01*
X74230756Y-39906533D01*
X74229489Y-39915826D01*
X74192472Y-39915826D01*
X74212298Y-39898078D01*
X74250244Y-39887755D01*
X74274307Y-39898668D01*
X74275336Y-39925816D01*
X74275587Y-39953122D01*
X74304628Y-39960677D01*
X74326049Y-39956784D01*
X74568858Y-39956784D01*
X74571267Y-39967220D01*
X74580560Y-39968487D01*
X74595009Y-39962064D01*
X74592262Y-39956784D01*
X74571430Y-39954683D01*
X74568858Y-39956784D01*
X74326049Y-39956784D01*
X74344960Y-39953347D01*
X74378236Y-39943292D01*
X74379787Y-39936554D01*
X74356621Y-39929407D01*
X74324926Y-39928395D01*
X74317149Y-39939411D01*
X74310407Y-39940112D01*
X74293998Y-39915377D01*
X74290818Y-39909431D01*
X74269032Y-39858213D01*
X74272156Y-39826524D01*
X74303326Y-39806355D01*
X74334848Y-39796943D01*
X74411414Y-39789028D01*
X74484846Y-39801213D01*
G37*
G36*
X66961213Y-38239219D02*
G01*
X66996678Y-38252760D01*
X67003962Y-38269379D01*
X67003640Y-38269932D01*
X67002997Y-38280398D01*
X67012399Y-38276161D01*
X67039721Y-38276592D01*
X67058168Y-38288922D01*
X67089525Y-38304498D01*
X67137007Y-38313400D01*
X67186614Y-38314765D01*
X67224345Y-38307734D01*
X67235079Y-38299793D01*
X67259372Y-38286030D01*
X67274927Y-38284579D01*
X67292058Y-38287796D01*
X67277520Y-38297363D01*
X67269503Y-38300899D01*
X67246281Y-38312308D01*
X67255535Y-38316358D01*
X67275178Y-38317218D01*
X67306645Y-38326581D01*
X67309282Y-38349451D01*
X67284914Y-38382217D01*
X67235364Y-38421269D01*
X67216609Y-38433214D01*
X67168332Y-38466314D01*
X67134508Y-38496376D01*
X67124187Y-38512245D01*
X67111143Y-38552347D01*
X67090928Y-38590921D01*
X67071090Y-38614574D01*
X67065221Y-38616863D01*
X67058585Y-38603676D01*
X67062458Y-38587485D01*
X67064634Y-38566583D01*
X67045600Y-38568902D01*
X67010226Y-38579283D01*
X66959589Y-38590858D01*
X66950397Y-38592686D01*
X66909499Y-38601514D01*
X66899998Y-38608032D01*
X66918677Y-38615792D01*
X66927208Y-38618296D01*
X66970689Y-38628514D01*
X66998992Y-38631192D01*
X67005367Y-38626488D01*
X66988646Y-38616863D01*
X66964956Y-38605324D01*
X66974226Y-38601357D01*
X66993034Y-38600543D01*
X67025419Y-38607491D01*
X67031042Y-38625455D01*
X67012204Y-38645750D01*
X66977675Y-38658552D01*
X66901411Y-38668650D01*
X66847140Y-38662221D01*
X66812077Y-38643751D01*
X66788902Y-38624476D01*
X66795296Y-38618216D01*
X66816463Y-38617421D01*
X66851846Y-38624139D01*
X66865771Y-38634416D01*
X66890797Y-38649545D01*
X66906302Y-38651436D01*
X66926203Y-38649141D01*
X66915576Y-38639143D01*
X66905266Y-38633010D01*
X66879948Y-38611001D01*
X66874548Y-38598437D01*
X66889059Y-38584156D01*
X66905266Y-38581487D01*
X66946922Y-38571548D01*
X66962315Y-38563400D01*
X66972234Y-38552920D01*
X66951880Y-38554021D01*
X66935985Y-38557312D01*
X66892220Y-38570288D01*
X66864600Y-38583655D01*
X66838592Y-38592455D01*
X66788409Y-38601480D01*
X66724930Y-38608772D01*
X66663216Y-38614763D01*
X66616484Y-38620477D01*
X66594606Y-38624702D01*
X66594449Y-38624786D01*
X66572578Y-38623520D01*
X66544650Y-38615083D01*
X66516821Y-38598472D01*
X66518342Y-38574321D01*
X66522037Y-38566891D01*
X66530749Y-38557682D01*
X66628798Y-38557682D01*
X66642544Y-38577655D01*
X66668293Y-38578588D01*
X66699172Y-38565660D01*
X66707789Y-38550397D01*
X66711259Y-38542939D01*
X67001053Y-38542939D01*
X67025575Y-38546495D01*
X67037345Y-38546648D01*
X67075839Y-38540319D01*
X67094402Y-38528391D01*
X67089944Y-38517770D01*
X67055942Y-38522084D01*
X67011205Y-38534764D01*
X67001053Y-38542939D01*
X66711259Y-38542939D01*
X66713198Y-38538770D01*
X66742701Y-38538770D01*
X66745424Y-38542694D01*
X66767917Y-38541415D01*
X66815192Y-38534668D01*
X66888288Y-38522843D01*
X66924018Y-38513624D01*
X66938554Y-38506047D01*
X66932411Y-38500167D01*
X66902350Y-38500209D01*
X66858798Y-38504818D01*
X66812182Y-38512642D01*
X66772928Y-38522327D01*
X66754733Y-38529908D01*
X66742701Y-38538770D01*
X66713198Y-38538770D01*
X66720913Y-38522185D01*
X66734119Y-38510368D01*
X66743624Y-38500216D01*
X66722354Y-38501624D01*
X66707789Y-38504658D01*
X66658947Y-38517398D01*
X66635704Y-38530859D01*
X66628968Y-38551143D01*
X66628798Y-38557682D01*
X66530749Y-38557682D01*
X66550335Y-38536980D01*
X66593020Y-38511819D01*
X66629497Y-38492421D01*
X66646235Y-38475060D01*
X66646351Y-38473970D01*
X66660725Y-38465940D01*
X66690235Y-38469226D01*
X66722579Y-38469732D01*
X66735452Y-38457337D01*
X66722514Y-38441260D01*
X66712384Y-38437007D01*
X66702245Y-38427108D01*
X67020248Y-38427108D01*
X67021955Y-38457350D01*
X67026342Y-38458856D01*
X67027613Y-38454481D01*
X67043284Y-38432774D01*
X67079894Y-38432487D01*
X67082091Y-38432904D01*
X67129074Y-38442057D01*
X67085190Y-38420236D01*
X67049118Y-38399142D01*
X67030843Y-38383710D01*
X67023887Y-38388608D01*
X67020353Y-38419712D01*
X67020248Y-38427108D01*
X66702245Y-38427108D01*
X66699855Y-38424774D01*
X66702062Y-38414997D01*
X66716566Y-38414997D01*
X66725342Y-38423773D01*
X66734119Y-38414997D01*
X66725342Y-38406220D01*
X66716566Y-38414997D01*
X66702062Y-38414997D01*
X66706300Y-38396228D01*
X66712986Y-38380737D01*
X66730412Y-38350137D01*
X66753280Y-38338224D01*
X66794446Y-38339788D01*
X66809324Y-38341704D01*
X66848007Y-38345534D01*
X66861714Y-38343852D01*
X66857308Y-38341030D01*
X66832992Y-38325882D01*
X66918432Y-38325882D01*
X66971092Y-38337644D01*
X67008287Y-38346452D01*
X67025166Y-38351430D01*
X67025216Y-38351482D01*
X67025617Y-38347675D01*
X67061818Y-38347675D01*
X67067737Y-38362332D01*
X67092609Y-38385562D01*
X67124990Y-38408378D01*
X67153435Y-38421790D01*
X67157072Y-38422490D01*
X67174977Y-38411741D01*
X67200956Y-38386099D01*
X67234396Y-38348424D01*
X67159789Y-38358099D01*
X67115740Y-38360875D01*
X67094949Y-38355959D01*
X67094999Y-38351889D01*
X67093994Y-38337868D01*
X67075679Y-38338500D01*
X67061818Y-38347675D01*
X67025617Y-38347675D01*
X67026511Y-38339187D01*
X67026678Y-38327229D01*
X67023991Y-38307444D01*
X67009378Y-38302616D01*
X66973013Y-38310670D01*
X66962315Y-38313630D01*
X66918432Y-38325882D01*
X66832992Y-38325882D01*
X66818639Y-38316941D01*
X66795787Y-38287528D01*
X66795473Y-38265926D01*
X66817934Y-38251696D01*
X66849074Y-38249129D01*
X66871709Y-38258254D01*
X66874548Y-38265791D01*
X66889021Y-38280545D01*
X66905266Y-38283076D01*
X66925404Y-38280070D01*
X66912310Y-38267846D01*
X66910163Y-38266477D01*
X66892439Y-38247627D01*
X66904005Y-38236307D01*
X66939341Y-38235465D01*
X66961213Y-38239219D01*
G37*
G36*
X68805439Y-36418210D02*
G01*
X68865002Y-36432100D01*
X68916885Y-36460655D01*
X68949905Y-36496786D01*
X68955594Y-36513378D01*
X68964264Y-36553129D01*
X68971509Y-36578479D01*
X68974058Y-36608107D01*
X68955827Y-36615757D01*
X68931718Y-36606635D01*
X68928314Y-36598203D01*
X68913658Y-36583800D01*
X68894243Y-36580650D01*
X68860639Y-36588710D01*
X68849323Y-36598203D01*
X68854554Y-36612150D01*
X68873581Y-36615757D01*
X68908381Y-36624709D01*
X68921001Y-36635678D01*
X68917947Y-36646972D01*
X68886673Y-36649172D01*
X68847434Y-36645711D01*
X68761555Y-36635822D01*
X68836643Y-36654716D01*
X68900395Y-36664797D01*
X68948690Y-36656503D01*
X68956473Y-36653225D01*
X68986707Y-36633969D01*
X68994262Y-36606208D01*
X68989914Y-36576026D01*
X68978613Y-36519212D01*
X69004991Y-36567306D01*
X69024347Y-36608445D01*
X69034021Y-36649911D01*
X69036426Y-36705538D01*
X69035657Y-36743020D01*
X69029284Y-36787127D01*
X69016719Y-36808023D01*
X69002788Y-36801570D01*
X68994717Y-36778127D01*
X68988448Y-36760971D01*
X68980696Y-36775876D01*
X68977513Y-36786928D01*
X68974787Y-36813359D01*
X68982612Y-36816611D01*
X68997602Y-36819014D01*
X68998528Y-36824328D01*
X68985704Y-36849097D01*
X68980688Y-36852907D01*
X68970562Y-36873944D01*
X68972948Y-36880273D01*
X68965319Y-36891638D01*
X68932964Y-36896605D01*
X68931300Y-36896614D01*
X68892713Y-36890385D01*
X68881878Y-36869573D01*
X68881992Y-36867784D01*
X68870685Y-36838793D01*
X68858100Y-36831341D01*
X68840710Y-36827945D01*
X68851969Y-36839197D01*
X68858100Y-36843953D01*
X68874312Y-36862351D01*
X68861766Y-36873323D01*
X68853267Y-36887264D01*
X68874112Y-36913315D01*
X68879320Y-36918022D01*
X68919537Y-36953578D01*
X68877844Y-36940769D01*
X68848722Y-36935935D01*
X68848036Y-36947193D01*
X68847423Y-36959209D01*
X68832681Y-36955972D01*
X68809586Y-36956268D01*
X68805439Y-36964950D01*
X68790755Y-36980731D01*
X68770332Y-36984382D01*
X68741821Y-36976254D01*
X68735225Y-36964950D01*
X68722433Y-36953275D01*
X68708597Y-36955736D01*
X68672847Y-36954303D01*
X68624365Y-36935179D01*
X68604433Y-36922944D01*
X68665011Y-36922944D01*
X68674489Y-36946304D01*
X68682564Y-36949275D01*
X68698137Y-36935057D01*
X68700118Y-36922944D01*
X68690639Y-36899584D01*
X68682564Y-36896614D01*
X68666991Y-36910831D01*
X68665011Y-36922944D01*
X68604433Y-36922944D01*
X68575535Y-36905206D01*
X68538739Y-36871228D01*
X68529566Y-36856805D01*
X68507052Y-36803756D01*
X68547069Y-36803756D01*
X68551355Y-36834570D01*
X68579739Y-36862315D01*
X68621710Y-36878031D01*
X68635408Y-36879060D01*
X68658389Y-36874785D01*
X68650632Y-36856642D01*
X68647457Y-36852730D01*
X68612799Y-36830198D01*
X68592647Y-36826400D01*
X68565311Y-36818622D01*
X68559689Y-36808846D01*
X68569012Y-36799802D01*
X68654583Y-36799802D01*
X68656234Y-36808846D01*
X68678675Y-36825730D01*
X68683600Y-36826400D01*
X68699645Y-36813011D01*
X68700118Y-36808846D01*
X68685830Y-36793441D01*
X68672751Y-36791292D01*
X68654583Y-36799802D01*
X68569012Y-36799802D01*
X68574391Y-36794584D01*
X68594796Y-36791292D01*
X68623621Y-36780033D01*
X68629904Y-36764345D01*
X68624250Y-36747409D01*
X68682564Y-36747409D01*
X68691341Y-36756185D01*
X68700118Y-36747409D01*
X68691341Y-36738632D01*
X68682564Y-36747409D01*
X68624250Y-36747409D01*
X68624086Y-36746918D01*
X68600810Y-36753088D01*
X68593805Y-36756716D01*
X68560365Y-36783632D01*
X68547069Y-36803756D01*
X68507052Y-36803756D01*
X68493084Y-36770842D01*
X68475260Y-36704757D01*
X68475269Y-36703525D01*
X68577243Y-36703525D01*
X68590601Y-36720568D01*
X68594796Y-36721078D01*
X68611840Y-36707720D01*
X68612350Y-36703525D01*
X68598992Y-36686481D01*
X68594796Y-36685971D01*
X68577753Y-36699329D01*
X68577243Y-36703525D01*
X68475269Y-36703525D01*
X68475386Y-36688120D01*
X68489475Y-36688120D01*
X68496372Y-36698839D01*
X68513032Y-36688273D01*
X68532668Y-36677194D01*
X68998528Y-36677194D01*
X69007305Y-36685971D01*
X69016082Y-36677194D01*
X69007305Y-36668418D01*
X68998528Y-36677194D01*
X68532668Y-36677194D01*
X68536533Y-36675013D01*
X68543751Y-36675832D01*
X68549867Y-36666039D01*
X68554539Y-36632515D01*
X68554549Y-36632368D01*
X68553464Y-36615757D01*
X68700118Y-36615757D01*
X68703073Y-36630333D01*
X68717926Y-36629549D01*
X68753657Y-36612554D01*
X68758062Y-36610274D01*
X68787789Y-36592714D01*
X68788387Y-36580095D01*
X68769083Y-36566390D01*
X68731182Y-36547922D01*
X68709880Y-36547153D01*
X68711481Y-36563411D01*
X68717671Y-36571873D01*
X68729421Y-36593684D01*
X68719821Y-36598203D01*
X68701082Y-36610344D01*
X68700118Y-36615757D01*
X68553464Y-36615757D01*
X68551948Y-36592544D01*
X68541384Y-36571409D01*
X68529821Y-36578949D01*
X68524610Y-36611614D01*
X68524582Y-36614721D01*
X68519588Y-36652141D01*
X68507523Y-36668396D01*
X68507029Y-36668418D01*
X68490334Y-36682045D01*
X68489475Y-36688120D01*
X68475386Y-36688120D01*
X68475684Y-36648949D01*
X68493946Y-36593817D01*
X68516545Y-36551473D01*
X68537405Y-36518031D01*
X68666871Y-36518031D01*
X68677087Y-36526349D01*
X68701154Y-36527989D01*
X68725628Y-36521508D01*
X68726922Y-36511202D01*
X68704087Y-36501639D01*
X68690779Y-36504303D01*
X68666871Y-36518031D01*
X68537405Y-36518031D01*
X68543718Y-36507910D01*
X68564064Y-36480354D01*
X68570242Y-36475328D01*
X68571724Y-36486649D01*
X68568466Y-36492882D01*
X68573783Y-36506751D01*
X68593336Y-36510436D01*
X68628001Y-36502427D01*
X68672081Y-36482862D01*
X68711173Y-36459783D01*
X68762583Y-36459783D01*
X68763250Y-36478071D01*
X68781860Y-36485459D01*
X68783477Y-36484262D01*
X68884662Y-36484262D01*
X68888009Y-36509986D01*
X68888489Y-36511843D01*
X68898899Y-36535372D01*
X68907035Y-36530389D01*
X68903159Y-36498592D01*
X68896164Y-36488817D01*
X68884662Y-36484262D01*
X68783477Y-36484262D01*
X68793085Y-36477150D01*
X68803912Y-36454698D01*
X68801048Y-36447533D01*
X68779808Y-36443970D01*
X68762583Y-36459783D01*
X68711173Y-36459783D01*
X68713466Y-36458429D01*
X68740047Y-36435818D01*
X68744002Y-36427212D01*
X68759361Y-36419504D01*
X68797153Y-36417749D01*
X68805439Y-36418210D01*
G37*
G36*
X71163537Y-35048272D02*
G01*
X71547349Y-35102329D01*
X71927231Y-35188611D01*
X72301248Y-35307096D01*
X72667462Y-35457764D01*
X73023936Y-35640595D01*
X73334257Y-35832238D01*
X73540876Y-35982336D01*
X73752440Y-36157380D01*
X73960851Y-36349722D01*
X74158011Y-36551716D01*
X74335821Y-36755714D01*
X74405699Y-36843953D01*
X74441007Y-36888161D01*
X74468618Y-36919333D01*
X74479497Y-36928795D01*
X74492784Y-36947810D01*
X74492792Y-36948305D01*
X74501882Y-36968065D01*
X74526255Y-37009679D01*
X74561565Y-37065894D01*
X74582507Y-37098035D01*
X74629044Y-37170321D01*
X74678410Y-37249848D01*
X74727065Y-37330561D01*
X74771470Y-37406403D01*
X74808083Y-37471320D01*
X74833365Y-37519255D01*
X74843776Y-37544152D01*
X74843863Y-37545113D01*
X74853531Y-37567703D01*
X74875709Y-37600777D01*
X74897113Y-37637826D01*
X74927246Y-37702204D01*
X74963792Y-37787913D01*
X75004438Y-37888957D01*
X75046869Y-37999338D01*
X75088770Y-38113061D01*
X75127827Y-38224129D01*
X75161726Y-38326544D01*
X75183846Y-38399154D01*
X75209794Y-38496739D01*
X75238036Y-38615563D01*
X75265546Y-38742166D01*
X75289300Y-38863083D01*
X75294264Y-38890654D01*
X75308828Y-38975269D01*
X75320196Y-39048229D01*
X75328759Y-39115760D01*
X75334908Y-39184087D01*
X75339034Y-39259438D01*
X75341528Y-39348038D01*
X75342779Y-39456114D01*
X75343180Y-39589893D01*
X75343182Y-39670076D01*
X75342011Y-39860794D01*
X75338108Y-40023917D01*
X75330593Y-40166906D01*
X75318587Y-40297224D01*
X75301211Y-40422333D01*
X75277585Y-40549697D01*
X75246831Y-40686776D01*
X75208069Y-40841035D01*
X75202848Y-40861013D01*
X75135997Y-41087199D01*
X75053200Y-41320182D01*
X74957784Y-41552718D01*
X74853074Y-41777561D01*
X74742394Y-41987465D01*
X74629071Y-42175187D01*
X74542848Y-42299062D01*
X74509256Y-42349044D01*
X74488837Y-42389707D01*
X74485902Y-42411484D01*
X74487683Y-42423393D01*
X74480781Y-42420634D01*
X74461600Y-42427350D01*
X74431719Y-42456352D01*
X74412243Y-42481194D01*
X74370205Y-42536003D01*
X74310909Y-42608276D01*
X74241042Y-42690361D01*
X74167294Y-42774602D01*
X74096352Y-42853347D01*
X74034904Y-42918940D01*
X73994679Y-42959065D01*
X73880693Y-43065787D01*
X73789622Y-43150475D01*
X73718988Y-43215338D01*
X73666315Y-43262585D01*
X73629123Y-43294426D01*
X73604937Y-43313069D01*
X73591278Y-43320724D01*
X73588559Y-43321216D01*
X73571288Y-43331251D01*
X73533802Y-43357871D01*
X73483394Y-43395845D01*
X73469921Y-43406273D01*
X73251898Y-43561081D01*
X73006688Y-43708932D01*
X72742068Y-43846023D01*
X72465817Y-43968553D01*
X72185710Y-44072720D01*
X71973857Y-44137592D01*
X71786036Y-44186667D01*
X71614485Y-44224851D01*
X71449874Y-44253396D01*
X71282876Y-44273554D01*
X71104160Y-44286577D01*
X70904397Y-44293716D01*
X70797768Y-44295426D01*
X70672321Y-44296478D01*
X70554314Y-44296848D01*
X70449641Y-44296566D01*
X70364199Y-44295662D01*
X70303881Y-44294165D01*
X70279938Y-44292798D01*
X69932007Y-44244998D01*
X69578157Y-44167945D01*
X69227375Y-44064172D01*
X68888650Y-43936209D01*
X68682564Y-43842894D01*
X68515294Y-43756381D01*
X68340165Y-43656231D01*
X68166014Y-43548064D01*
X68001676Y-43437503D01*
X67855988Y-43330171D01*
X67779898Y-43268556D01*
X67470641Y-42986344D01*
X67193403Y-42690440D01*
X66947422Y-42379722D01*
X66731940Y-42053073D01*
X66546196Y-41709373D01*
X66389430Y-41347501D01*
X66297080Y-41084505D01*
X66194675Y-40708608D01*
X66124119Y-40323605D01*
X66085477Y-39933331D01*
X66080852Y-39661299D01*
X66184005Y-39661299D01*
X66194944Y-40007974D01*
X66228206Y-40335098D01*
X66285444Y-40651497D01*
X66368308Y-40965995D01*
X66478452Y-41287418D01*
X66497775Y-41337664D01*
X66536334Y-41436303D01*
X66564625Y-41505298D01*
X66585410Y-41547607D01*
X66601449Y-41566185D01*
X66615503Y-41563989D01*
X66630333Y-41543977D01*
X66648701Y-41509104D01*
X66651943Y-41502752D01*
X66679961Y-41452453D01*
X66721610Y-41383133D01*
X66770767Y-41304794D01*
X66783638Y-41285004D01*
X67524029Y-41285004D01*
X67524029Y-41750173D01*
X67524029Y-42215342D01*
X67593650Y-42215342D01*
X67663270Y-42215342D01*
X67667350Y-42060817D01*
X68466337Y-42060817D01*
X68466802Y-42134339D01*
X68467780Y-42181784D01*
X68468996Y-42197916D01*
X68488551Y-42209009D01*
X68529929Y-42215000D01*
X68543599Y-42215342D01*
X68612350Y-42215342D01*
X68612350Y-42048583D01*
X68805225Y-42048583D01*
X68888712Y-42131222D01*
X68972198Y-42213861D01*
X69200394Y-42213927D01*
X69428590Y-42213993D01*
X69511720Y-42140065D01*
X69558323Y-42095818D01*
X69585211Y-42058218D01*
X69589793Y-42041733D01*
X69782428Y-42041733D01*
X69866635Y-42128538D01*
X69950842Y-42215342D01*
X70175466Y-42215342D01*
X70400091Y-42215342D01*
X70480443Y-42123488D01*
X70560795Y-42031633D01*
X70560795Y-42006770D01*
X71435441Y-42006770D01*
X71446535Y-42055239D01*
X71474667Y-42099158D01*
X71512895Y-42140638D01*
X71586211Y-42215342D01*
X71823918Y-42214903D01*
X72061624Y-42214464D01*
X72082884Y-42194410D01*
X72351326Y-42194410D01*
X72364220Y-42209349D01*
X72405621Y-42213011D01*
X72425371Y-42211963D01*
X72499484Y-42206565D01*
X72536199Y-42083691D01*
X72572914Y-41960816D01*
X72751196Y-41952039D01*
X72929477Y-41943262D01*
X72969957Y-42074914D01*
X73010437Y-42206565D01*
X73084580Y-42211963D01*
X73129896Y-42212855D01*
X73156118Y-42208711D01*
X73158722Y-42205893D01*
X73153582Y-42186453D01*
X73139325Y-42139088D01*
X73117696Y-42069259D01*
X73090437Y-41982427D01*
X73059295Y-41884051D01*
X73026011Y-41779592D01*
X72992332Y-41674512D01*
X72960000Y-41574269D01*
X72930759Y-41484324D01*
X72906355Y-41410138D01*
X72899273Y-41389092D01*
X73123151Y-41389092D01*
X73303307Y-41394097D01*
X73483463Y-41399102D01*
X73488175Y-41807222D01*
X73492886Y-42215342D01*
X73562777Y-42215342D01*
X73632668Y-42215342D01*
X73632668Y-41802834D01*
X73632668Y-41390325D01*
X73806156Y-41390325D01*
X73885685Y-41389832D01*
X73936924Y-41387409D01*
X73966685Y-41381640D01*
X73981781Y-41371107D01*
X73989026Y-41354393D01*
X73989622Y-41352172D01*
X73994001Y-41315799D01*
X73990633Y-41299511D01*
X73971306Y-41295477D01*
X73921781Y-41291874D01*
X73846969Y-41288866D01*
X73751779Y-41286618D01*
X73641121Y-41285294D01*
X73556375Y-41285004D01*
X73131082Y-41285004D01*
X73127117Y-41337048D01*
X73123151Y-41389092D01*
X72899273Y-41389092D01*
X72888531Y-41357172D01*
X72879999Y-41333276D01*
X72867281Y-41306950D01*
X72848857Y-41292480D01*
X72815225Y-41286341D01*
X72756883Y-41285008D01*
X72749865Y-41285004D01*
X72638549Y-41285004D01*
X72597220Y-41421044D01*
X72577715Y-41483579D01*
X72549858Y-41570655D01*
X72516480Y-41673533D01*
X72480411Y-41783474D01*
X72453642Y-41864271D01*
X72421118Y-41963170D01*
X72392857Y-42051373D01*
X72370627Y-42123174D01*
X72356197Y-42172864D01*
X72351326Y-42194410D01*
X72082884Y-42194410D01*
X72139986Y-42140548D01*
X72218348Y-42066632D01*
X72213504Y-41938743D01*
X72210027Y-41871722D01*
X72202731Y-41828003D01*
X72186931Y-41795791D01*
X72157942Y-41763291D01*
X72135142Y-41741457D01*
X72061624Y-41672060D01*
X71869667Y-41671621D01*
X71783408Y-41670765D01*
X71724686Y-41667831D01*
X71685942Y-41661563D01*
X71659614Y-41650707D01*
X71638144Y-41634007D01*
X71637082Y-41633015D01*
X71603704Y-41579769D01*
X71596944Y-41516058D01*
X71616955Y-41454484D01*
X71634622Y-41430952D01*
X71656950Y-41410955D01*
X71683673Y-41398876D01*
X71723691Y-41392828D01*
X71785903Y-41390920D01*
X71823323Y-41390909D01*
X71919850Y-41395231D01*
X71986500Y-41409030D01*
X72027817Y-41434868D01*
X72048343Y-41475308D01*
X72052848Y-41520402D01*
X72054449Y-41559119D01*
X72065625Y-41577452D01*
X72095929Y-41583025D01*
X72131839Y-41583414D01*
X72210830Y-41583414D01*
X72210830Y-41502420D01*
X72207989Y-41452792D01*
X72194946Y-41416754D01*
X72164918Y-41380805D01*
X72136227Y-41353934D01*
X72061624Y-41286443D01*
X71823825Y-41285724D01*
X71586026Y-41285004D01*
X71518819Y-41353831D01*
X71482930Y-41392666D01*
X71462858Y-41424860D01*
X71454087Y-41463124D01*
X71452098Y-41520171D01*
X71452143Y-41541490D01*
X71452676Y-41660323D01*
X71537731Y-41735292D01*
X71622785Y-41810262D01*
X71814492Y-41810936D01*
X71904907Y-41812345D01*
X71966947Y-41816411D01*
X72007297Y-41824024D01*
X72032644Y-41836070D01*
X72038300Y-41840661D01*
X72062650Y-41883200D01*
X72070802Y-41942448D01*
X72062801Y-42003991D01*
X72038694Y-42053416D01*
X72037623Y-42054674D01*
X72019093Y-42072184D01*
X71995096Y-42083251D01*
X71957863Y-42089276D01*
X71899629Y-42091660D01*
X71831369Y-42091883D01*
X71730841Y-42088773D01*
X71660264Y-42078457D01*
X71614779Y-42058273D01*
X71589524Y-42025558D01*
X71579640Y-41977652D01*
X71578901Y-41953614D01*
X71578901Y-41881825D01*
X71508687Y-41881825D01*
X71463558Y-41883928D01*
X71442991Y-41895715D01*
X71436472Y-41925404D01*
X71435692Y-41938874D01*
X71435441Y-42006770D01*
X70560795Y-42006770D01*
X70560795Y-41742301D01*
X70560795Y-41452968D01*
X70478075Y-41368986D01*
X70395356Y-41285004D01*
X70164859Y-41285004D01*
X69934362Y-41285004D01*
X69862442Y-41370297D01*
X69790522Y-41455590D01*
X69786475Y-41748662D01*
X69782428Y-42041733D01*
X69589793Y-42041733D01*
X69597206Y-42015060D01*
X69599129Y-41954140D01*
X69598131Y-41921320D01*
X69595349Y-41846717D01*
X69525135Y-41846717D01*
X69454921Y-41846717D01*
X69454921Y-41920360D01*
X69446840Y-41982994D01*
X69417755Y-42032248D01*
X69407753Y-42043235D01*
X69381775Y-42067714D01*
X69355293Y-42082379D01*
X69318636Y-42089723D01*
X69262133Y-42092238D01*
X69216746Y-42092467D01*
X69144884Y-42091725D01*
X69098150Y-42087622D01*
X69066567Y-42077347D01*
X69040161Y-42058087D01*
X69018165Y-42036474D01*
X68963421Y-41980481D01*
X68963421Y-41737222D01*
X68963421Y-41493962D01*
X69011693Y-41451475D01*
X69039484Y-41430376D01*
X69070262Y-41417586D01*
X69113560Y-41411038D01*
X69178912Y-41408665D01*
X69210275Y-41408433D01*
X69284252Y-41408909D01*
X69332446Y-41412530D01*
X69364172Y-41421593D01*
X69388744Y-41438394D01*
X69407753Y-41457111D01*
X69447585Y-41519647D01*
X69454921Y-41563442D01*
X69456819Y-41599139D01*
X69469053Y-41614687D01*
X69501432Y-41616929D01*
X69529024Y-41615142D01*
X69603126Y-41609744D01*
X69597961Y-41521977D01*
X69591227Y-41466408D01*
X69574195Y-41424099D01*
X69539767Y-41380226D01*
X69520204Y-41359606D01*
X69447611Y-41285004D01*
X69210508Y-41285004D01*
X68973404Y-41285004D01*
X68889421Y-41367723D01*
X68805439Y-41450443D01*
X68805332Y-41749513D01*
X68805225Y-42048583D01*
X68612350Y-42048583D01*
X68612350Y-41750173D01*
X68612350Y-41285004D01*
X68542714Y-41285004D01*
X68473077Y-41285004D01*
X68468111Y-41732746D01*
X68466982Y-41855123D01*
X68466394Y-41966112D01*
X68466337Y-42060817D01*
X67667350Y-42060817D01*
X67668252Y-42026641D01*
X67673235Y-41837941D01*
X67918604Y-41833031D01*
X68163973Y-41828121D01*
X68238604Y-41754040D01*
X68277426Y-41714023D01*
X68299750Y-41682321D01*
X68310176Y-41646716D01*
X68313307Y-41594990D01*
X68313587Y-41554931D01*
X68313939Y-41429903D01*
X68235341Y-41357453D01*
X68156742Y-41285004D01*
X67840386Y-41285004D01*
X67524029Y-41285004D01*
X66783638Y-41285004D01*
X66811021Y-41242899D01*
X66854974Y-41173796D01*
X66889270Y-41114608D01*
X66910455Y-41071685D01*
X66915143Y-41051486D01*
X66915568Y-41041980D01*
X66922576Y-41045168D01*
X66943530Y-41040079D01*
X66969755Y-41012412D01*
X66971873Y-41009268D01*
X67053220Y-40897075D01*
X67158214Y-40770657D01*
X67281347Y-40635342D01*
X67417112Y-40496459D01*
X67560001Y-40359339D01*
X67704505Y-40229312D01*
X67845115Y-40111707D01*
X67976325Y-40011853D01*
X68063733Y-39952774D01*
X68110195Y-39920299D01*
X68139815Y-39893346D01*
X68146201Y-39879134D01*
X68149763Y-39870170D01*
X68160050Y-39872574D01*
X68189004Y-39868429D01*
X68218812Y-39848701D01*
X68250938Y-39821676D01*
X68270856Y-39808775D01*
X68291953Y-39798075D01*
X68337333Y-39774007D01*
X68400482Y-39740054D01*
X68474884Y-39699702D01*
X68480698Y-39696535D01*
X68575422Y-39646471D01*
X68678986Y-39594211D01*
X68776957Y-39546927D01*
X68836403Y-39519782D01*
X68902819Y-39488672D01*
X68953394Y-39461332D01*
X68982002Y-39441305D01*
X68985609Y-39433460D01*
X68984982Y-39427086D01*
X68994638Y-39431633D01*
X69021172Y-39432146D01*
X69069872Y-39421324D01*
X69087527Y-39415550D01*
X72333704Y-39415550D01*
X72342481Y-39424326D01*
X72351258Y-39415550D01*
X72342481Y-39406773D01*
X72333704Y-39415550D01*
X69087527Y-39415550D01*
X69130559Y-39401477D01*
X69135067Y-39399781D01*
X69377486Y-39318934D01*
X69644009Y-39249994D01*
X69925160Y-39194625D01*
X70211462Y-39154493D01*
X70493441Y-39131262D01*
X70693925Y-39125931D01*
X70906046Y-39125916D01*
X71062550Y-39009980D01*
X71142640Y-38950494D01*
X71196583Y-38909088D01*
X71226358Y-38882833D01*
X71233941Y-38868799D01*
X71221312Y-38864054D01*
X71190450Y-38865670D01*
X71157616Y-38869174D01*
X71061071Y-38879737D01*
X70850429Y-38613267D01*
X70771852Y-38514323D01*
X70688387Y-38410004D01*
X70607186Y-38309198D01*
X70535400Y-38220793D01*
X70493926Y-38170254D01*
X70437874Y-38101767D01*
X70389334Y-38041260D01*
X70353092Y-37994782D01*
X70333933Y-37968383D01*
X70332921Y-37966697D01*
X70332544Y-37939964D01*
X70346154Y-37884963D01*
X70374077Y-37800636D01*
X70416638Y-37685926D01*
X70430243Y-37650732D01*
X70466570Y-37557148D01*
X70498042Y-37475581D01*
X70522615Y-37411370D01*
X70538244Y-37369853D01*
X70542977Y-37356341D01*
X70528067Y-37354971D01*
X70491537Y-37359055D01*
X70488697Y-37359495D01*
X70436359Y-37360091D01*
X70395054Y-37350276D01*
X70361530Y-37324137D01*
X70325929Y-37281403D01*
X70298214Y-37235735D01*
X70288251Y-37203801D01*
X70279276Y-37174398D01*
X70276201Y-37168694D01*
X70315045Y-37168694D01*
X70323822Y-37177471D01*
X70332599Y-37168694D01*
X70323822Y-37159917D01*
X70315045Y-37168694D01*
X70276201Y-37168694D01*
X70272374Y-37161593D01*
X70266206Y-37145279D01*
X70276863Y-37149240D01*
X70306286Y-37151315D01*
X70334354Y-37141424D01*
X70360096Y-37129979D01*
X70361217Y-37138322D01*
X70358168Y-37143595D01*
X70355239Y-37158475D01*
X70373326Y-37154781D01*
X70410091Y-37155912D01*
X70456178Y-37175019D01*
X70497113Y-37204265D01*
X70517625Y-37232898D01*
X70538302Y-37263260D01*
X70550606Y-37271044D01*
X70565780Y-37263079D01*
X70587442Y-37228255D01*
X70616732Y-37164348D01*
X70654786Y-37069135D01*
X70657351Y-37062437D01*
X70689709Y-36980425D01*
X70719338Y-36910201D01*
X70743300Y-36858398D01*
X70758655Y-36831649D01*
X70760364Y-36829942D01*
X70782032Y-36823793D01*
X70834121Y-36813339D01*
X70912309Y-36799317D01*
X71012274Y-36782464D01*
X71129695Y-36763518D01*
X71260250Y-36743218D01*
X71333152Y-36732182D01*
X71469502Y-36711681D01*
X71595575Y-36692623D01*
X71706940Y-36675686D01*
X71799164Y-36661548D01*
X71867817Y-36650887D01*
X71908467Y-36644380D01*
X71917037Y-36642869D01*
X71949612Y-36651524D01*
X71966190Y-36670492D01*
X71988826Y-36693007D01*
X72005456Y-36692425D01*
X72017805Y-36688622D01*
X72014766Y-36693445D01*
X72012429Y-36699761D01*
X72015347Y-36710862D01*
X72025496Y-36729382D01*
X72044856Y-36757952D01*
X72075402Y-36799207D01*
X72119112Y-36855777D01*
X72177965Y-36930297D01*
X72253938Y-37025398D01*
X72349007Y-37143712D01*
X72408307Y-37217345D01*
X72484034Y-37312261D01*
X72551796Y-37398984D01*
X72608617Y-37473555D01*
X72651520Y-37532018D01*
X72677528Y-37570418D01*
X72684171Y-37584001D01*
X72677749Y-37610665D01*
X72661267Y-37660196D01*
X72637979Y-37722977D01*
X72632020Y-37738231D01*
X72608676Y-37799698D01*
X72592345Y-37847153D01*
X72585766Y-37872480D01*
X72586042Y-37874498D01*
X72601880Y-37868249D01*
X72635600Y-37846040D01*
X72655182Y-37831568D01*
X72697566Y-37799868D01*
X72758471Y-37755107D01*
X72827859Y-37704642D01*
X72864135Y-37678461D01*
X72950084Y-37616215D01*
X73043972Y-37547538D01*
X73141009Y-37476006D01*
X73236404Y-37405195D01*
X73325367Y-37338682D01*
X73403106Y-37280041D01*
X73464832Y-37232849D01*
X73505754Y-37200682D01*
X73518069Y-37190318D01*
X73559884Y-37164635D01*
X73590704Y-37171995D01*
X73608713Y-37211557D01*
X73611733Y-37233779D01*
X73612902Y-37261758D01*
X73608014Y-37284749D01*
X73592520Y-37307980D01*
X73561870Y-37336680D01*
X73511518Y-37376077D01*
X73444974Y-37425459D01*
X73357866Y-37489743D01*
X73249825Y-37569599D01*
X73128097Y-37659661D01*
X72999927Y-37754563D01*
X72872563Y-37848939D01*
X72753250Y-37937421D01*
X72649234Y-38014645D01*
X72602387Y-38049469D01*
X72476114Y-38143395D01*
X72367690Y-38421091D01*
X72259265Y-38698786D01*
X71932248Y-38748100D01*
X71826161Y-38765122D01*
X71729602Y-38782529D01*
X71648945Y-38799022D01*
X71590562Y-38813300D01*
X71561348Y-38823742D01*
X71529101Y-38845120D01*
X71479747Y-38880212D01*
X71419144Y-38924588D01*
X71353151Y-38973818D01*
X71287627Y-39023469D01*
X71228428Y-39069111D01*
X71181415Y-39106313D01*
X71152444Y-39130645D01*
X71146103Y-39137808D01*
X71164351Y-39142079D01*
X71209959Y-39149895D01*
X71275503Y-39160042D01*
X71334170Y-39168577D01*
X71658445Y-39224863D01*
X71972887Y-39301430D01*
X72056673Y-39325527D01*
X72163630Y-39355480D01*
X72243020Y-39372212D01*
X72300107Y-39374944D01*
X72340153Y-39362892D01*
X72368422Y-39335277D01*
X72390178Y-39291315D01*
X72396117Y-39275121D01*
X72405484Y-39256092D01*
X72414164Y-39265008D01*
X72424363Y-39297632D01*
X72444825Y-39341941D01*
X72480770Y-39362929D01*
X72492336Y-39365652D01*
X72533370Y-39379286D01*
X72541555Y-39394430D01*
X72516402Y-39406824D01*
X72497429Y-39409995D01*
X72460723Y-39419929D01*
X72444771Y-39433103D01*
X72457772Y-39446265D01*
X72497403Y-39470967D01*
X72558331Y-39504227D01*
X72635223Y-39543067D01*
X72680331Y-39564755D01*
X72779468Y-39612894D01*
X72880906Y-39664313D01*
X72973988Y-39713477D01*
X73048061Y-39754855D01*
X73060531Y-39762232D01*
X73121827Y-39798656D01*
X73170721Y-39827010D01*
X73200213Y-39843271D01*
X73205549Y-39845612D01*
X73222825Y-39855525D01*
X73262445Y-39882520D01*
X73318771Y-39922477D01*
X73386164Y-39971278D01*
X73458986Y-40024803D01*
X73531596Y-40078936D01*
X73598357Y-40129556D01*
X73653630Y-40172545D01*
X73658998Y-40176816D01*
X73883362Y-40372279D01*
X74104672Y-40596901D01*
X74317881Y-40844791D01*
X74517942Y-41110056D01*
X74699808Y-41386806D01*
X74710309Y-41404107D01*
X74750503Y-41472444D01*
X74782774Y-41530722D01*
X74803319Y-41571854D01*
X74808756Y-41587542D01*
X74813415Y-41601529D01*
X74827659Y-41585331D01*
X74851893Y-41538167D01*
X74886520Y-41459255D01*
X74929913Y-41352906D01*
X75054087Y-41003849D01*
X75146552Y-40656567D01*
X75208556Y-40304513D01*
X75241347Y-39941138D01*
X75247595Y-39686039D01*
X75239051Y-39360914D01*
X75212493Y-39058128D01*
X75166535Y-38769099D01*
X75099791Y-38485245D01*
X75010874Y-38197986D01*
X75003956Y-38178024D01*
X74961890Y-38063786D01*
X74914434Y-37945601D01*
X74863810Y-37827996D01*
X74812240Y-37715498D01*
X74761944Y-37612633D01*
X74715146Y-37523930D01*
X74674066Y-37453914D01*
X74640926Y-37407113D01*
X74617948Y-37388053D01*
X74616163Y-37387845D01*
X74600491Y-37383369D01*
X74610172Y-37374327D01*
X74609809Y-37354882D01*
X74590396Y-37312222D01*
X74554787Y-37250566D01*
X74505836Y-37174137D01*
X74446396Y-37087154D01*
X74379322Y-36993839D01*
X74307467Y-36898411D01*
X74233684Y-36805093D01*
X74187865Y-36749723D01*
X74122968Y-36675415D01*
X74049714Y-36595782D01*
X73972216Y-36514836D01*
X73894590Y-36436590D01*
X73820949Y-36365058D01*
X73755407Y-36304253D01*
X73702079Y-36258189D01*
X73665079Y-36230878D01*
X73650136Y-36225190D01*
X73636556Y-36218570D01*
X73637056Y-36213998D01*
X73625826Y-36195278D01*
X73589582Y-36160523D01*
X73532611Y-36113042D01*
X73459197Y-36056145D01*
X73373626Y-35993139D01*
X73280182Y-35927334D01*
X73183150Y-35862038D01*
X73170699Y-35853892D01*
X72837504Y-35657399D01*
X72487624Y-35490735D01*
X72124097Y-35354690D01*
X71749963Y-35250051D01*
X71368260Y-35177606D01*
X70982026Y-35138143D01*
X70594301Y-35132449D01*
X70421127Y-35141045D01*
X70184058Y-35162838D01*
X69954846Y-35193996D01*
X69744003Y-35232957D01*
X69639233Y-35257258D01*
X69571597Y-35275337D01*
X69490328Y-35298609D01*
X69402483Y-35324863D01*
X69315124Y-35351888D01*
X69235308Y-35377474D01*
X69170097Y-35399411D01*
X69126548Y-35415488D01*
X69112626Y-35422151D01*
X69083161Y-35437099D01*
X69051189Y-35448495D01*
X68998041Y-35467932D01*
X68921578Y-35500532D01*
X68829331Y-35542695D01*
X68728832Y-35590822D01*
X68627612Y-35641312D01*
X68533204Y-35690567D01*
X68459891Y-35731091D01*
X68375411Y-35781913D01*
X68275218Y-35845770D01*
X68168536Y-35916448D01*
X68064589Y-35987732D01*
X67972600Y-36053409D01*
X67903071Y-36106240D01*
X67601183Y-36369918D01*
X67324646Y-36656887D01*
X67074759Y-36965285D01*
X66852822Y-37293250D01*
X66660135Y-37638921D01*
X66497997Y-38000434D01*
X66407879Y-38248238D01*
X66318088Y-38550164D01*
X66252590Y-38843612D01*
X66209718Y-39139113D01*
X66187802Y-39447196D01*
X66184005Y-39661299D01*
X66080852Y-39661299D01*
X66078817Y-39541620D01*
X66104202Y-39152306D01*
X66161700Y-38769225D01*
X66251019Y-38397443D01*
X66378144Y-38017231D01*
X66535883Y-37651155D01*
X66722838Y-37301750D01*
X66937608Y-36971551D01*
X67178794Y-36663092D01*
X67259658Y-36571229D01*
X67309238Y-36516310D01*
X67356653Y-36463516D01*
X67385838Y-36430801D01*
X67459551Y-36354545D01*
X67556559Y-36264482D01*
X67670590Y-36165739D01*
X67795374Y-36063442D01*
X67924640Y-35962716D01*
X68052117Y-35868688D01*
X68171536Y-35786484D01*
X68184035Y-35778302D01*
X68529549Y-35573839D01*
X68886629Y-35401762D01*
X69253339Y-35262051D01*
X69627741Y-35154685D01*
X70007899Y-35079645D01*
X70391876Y-35036909D01*
X70777734Y-35026458D01*
X71163537Y-35048272D01*
G37*
D14*
X114355000Y-72860000D02*
G75*
G03*
X114355000Y-72860000I-125000J0D01*
G01*
D12*
X84130000Y-34590000D02*
X96930000Y-34590000D01*
X84130000Y-39590000D02*
X84130000Y-34590000D01*
D13*
X85450000Y-43790000D02*
X85450000Y-43790000D01*
X85450000Y-43890000D02*
X85450000Y-43890000D01*
D12*
X96930000Y-34590000D02*
X96930000Y-39590000D01*
X96930000Y-39590000D02*
X84130000Y-39590000D01*
D13*
X85450000Y-43890000D02*
G75*
G03*
X85450000Y-43790000I0J50000D01*
G01*
X85450000Y-43790000D02*
G75*
G03*
X85450000Y-43890000I0J-50000D01*
G01*
D15*
X76500000Y-52200000D02*
X77300000Y-52200000D01*
X76500000Y-52400000D02*
X76500000Y-52200000D01*
X76700000Y-55200000D02*
X76500000Y-55000000D01*
X77300000Y-55200000D02*
X76700000Y-55200000D01*
X77300000Y-55200000D02*
X77300000Y-55700000D01*
X78700000Y-52200000D02*
X79500000Y-52200000D01*
X78700000Y-55200000D02*
X78700000Y-55700000D01*
X79500000Y-52200000D02*
X79500000Y-52400000D01*
X79500000Y-55000000D02*
X79500000Y-55200000D01*
X79500000Y-55200000D02*
X78700000Y-55200000D01*
X111630000Y-72337836D02*
X111630000Y-72122164D01*
X112350000Y-72337836D02*
X112350000Y-72122164D01*
G36*
X124373663Y-90563740D02*
G01*
X124370235Y-90570497D01*
X124370879Y-90555017D01*
X124373663Y-90563740D01*
G37*
G36*
X122830000Y-87241973D02*
G01*
X122787666Y-87284448D01*
X122745333Y-87241973D01*
X122787666Y-87199498D01*
X122830000Y-87241973D01*
G37*
G36*
X124362439Y-90758026D02*
G01*
X124414144Y-90963755D01*
X124502166Y-91073887D01*
X124603230Y-91167376D01*
X124580470Y-91183873D01*
X124462060Y-91121270D01*
X124404474Y-91081194D01*
X124289977Y-90919074D01*
X124289902Y-90728836D01*
X124370235Y-90570497D01*
X124362439Y-90758026D01*
G37*
G36*
X124705284Y-90453174D02*
G01*
X124756166Y-90479177D01*
X124888271Y-90638054D01*
X124936826Y-90848697D01*
X124885709Y-91030070D01*
X124869485Y-91048710D01*
X124764478Y-91078868D01*
X124653343Y-90975200D01*
X124557247Y-90880707D01*
X124517586Y-90894816D01*
X124488804Y-90890777D01*
X124438666Y-90767391D01*
X124420589Y-90710758D01*
X124551555Y-90710758D01*
X124563177Y-90761261D01*
X124608000Y-90767391D01*
X124677690Y-90736310D01*
X124664444Y-90710758D01*
X124563964Y-90700591D01*
X124551555Y-90710758D01*
X124420589Y-90710758D01*
X124373663Y-90563740D01*
X124377157Y-90556855D01*
X124422263Y-90524026D01*
X124462030Y-90524026D01*
X124478160Y-90547720D01*
X124585423Y-90595077D01*
X124723172Y-90707652D01*
X124724531Y-90806606D01*
X124729191Y-90917578D01*
X124774163Y-90937291D01*
X124841285Y-90867059D01*
X124846721Y-90746154D01*
X124760582Y-90583938D01*
X124608000Y-90534626D01*
X124462030Y-90524026D01*
X124422263Y-90524026D01*
X124524648Y-90449509D01*
X124705284Y-90453174D01*
G37*
G36*
X122877483Y-81115968D02*
G01*
X123019472Y-81214813D01*
X123197714Y-81405676D01*
X123291789Y-81530305D01*
X123830542Y-82241076D01*
X124483659Y-82997486D01*
X125216573Y-83764324D01*
X125994715Y-84506381D01*
X126783517Y-85188449D01*
X127227579Y-85539111D01*
X127626879Y-85852889D01*
X127893164Y-86093272D01*
X128036256Y-86278113D01*
X128065977Y-86425270D01*
X127992149Y-86552597D01*
X127846500Y-86664222D01*
X127263911Y-87073903D01*
X126616487Y-87595733D01*
X125933872Y-88200867D01*
X125245707Y-88860459D01*
X124581637Y-89545663D01*
X123971304Y-90227631D01*
X123444352Y-90877518D01*
X123258981Y-91128428D01*
X123073052Y-91366510D01*
X122912059Y-91500201D01*
X122754048Y-91522277D01*
X122577068Y-91425513D01*
X122359167Y-91202686D01*
X122078390Y-90846572D01*
X121973151Y-90705279D01*
X121490007Y-90100526D01*
X120901074Y-89441550D01*
X120243341Y-88765478D01*
X119553796Y-88109435D01*
X118869425Y-87510548D01*
X118469666Y-87188662D01*
X118045063Y-86847580D01*
X117744575Y-86579286D01*
X117575190Y-86390392D01*
X117555778Y-86346528D01*
X118850666Y-86346528D01*
X118913708Y-86548615D01*
X119089820Y-86837168D01*
X119359481Y-87192979D01*
X119703170Y-87596836D01*
X120101366Y-88029530D01*
X120534547Y-88471851D01*
X120983193Y-88904588D01*
X121427783Y-89308531D01*
X121848795Y-89664470D01*
X122226709Y-89953194D01*
X122542002Y-90155495D01*
X122775155Y-90252160D01*
X122825132Y-90257692D01*
X122973428Y-90212823D01*
X123199706Y-90097468D01*
X123366809Y-89994178D01*
X123720080Y-89732211D01*
X124135165Y-89380884D01*
X124586377Y-88966419D01*
X125048024Y-88515038D01*
X125494416Y-88052961D01*
X125899865Y-87606412D01*
X126238679Y-87201610D01*
X126485169Y-86864779D01*
X126566941Y-86727825D01*
X126679886Y-86498770D01*
X126715234Y-86345120D01*
X126679105Y-86194596D01*
X126622672Y-86069412D01*
X126442585Y-85769269D01*
X126156706Y-85386803D01*
X125789700Y-84948013D01*
X125366231Y-84478896D01*
X124910964Y-84005448D01*
X124448564Y-83553668D01*
X124003694Y-83149552D01*
X123601019Y-82819098D01*
X123403160Y-82675920D01*
X123115366Y-82511582D01*
X122858094Y-82450110D01*
X122594093Y-82497304D01*
X122286115Y-82658959D01*
X121946328Y-82902659D01*
X121539591Y-83235989D01*
X121106490Y-83626922D01*
X120665186Y-84055254D01*
X120233838Y-84500781D01*
X119830609Y-84943299D01*
X119473659Y-85362605D01*
X119181150Y-85738495D01*
X118971242Y-86050765D01*
X118862097Y-86279211D01*
X118850666Y-86346528D01*
X117555778Y-86346528D01*
X117538333Y-86307108D01*
X117609387Y-86174550D01*
X117815718Y-85965031D01*
X118147076Y-85688461D01*
X118300333Y-85570349D01*
X118992836Y-85012601D01*
X119713716Y-84372418D01*
X120417616Y-83693301D01*
X121059180Y-83018752D01*
X121524004Y-82478525D01*
X121905796Y-82008824D01*
X122197270Y-81656248D01*
X122413877Y-81405244D01*
X122571068Y-81240256D01*
X122684295Y-81145730D01*
X122769007Y-81106113D01*
X122840655Y-81105848D01*
X122877483Y-81115968D01*
G37*
G36*
X122947139Y-82727396D02*
G01*
X123150631Y-82825494D01*
X123414581Y-83005099D01*
X123758643Y-83279535D01*
X124186736Y-83648263D01*
X124603603Y-84033252D01*
X125019715Y-84449542D01*
X125416577Y-84875270D01*
X125775692Y-85288574D01*
X126078567Y-85667590D01*
X126306704Y-85990458D01*
X126441609Y-86235314D01*
X126470666Y-86347977D01*
X126407856Y-86545400D01*
X126232883Y-86828836D01*
X125965935Y-87178319D01*
X125627202Y-87573881D01*
X125236870Y-87995555D01*
X124815127Y-88423374D01*
X124382163Y-88837371D01*
X123958163Y-89217579D01*
X123563318Y-89544030D01*
X123217814Y-89796758D01*
X122941839Y-89955795D01*
X122775814Y-90002408D01*
X122664501Y-89954883D01*
X122461408Y-89829275D01*
X122208480Y-89651733D01*
X122183147Y-89632939D01*
X121778552Y-89310429D01*
X121340825Y-88925862D01*
X120891227Y-88501640D01*
X120451016Y-88060167D01*
X120041452Y-87623849D01*
X119683796Y-87215088D01*
X119399307Y-86856288D01*
X119209245Y-86569854D01*
X119146259Y-86432611D01*
X119144953Y-86376970D01*
X120489105Y-86376970D01*
X120503060Y-86439356D01*
X120618471Y-86583161D01*
X120852471Y-86741794D01*
X121158692Y-86891699D01*
X121490764Y-87009324D01*
X121729333Y-87062257D01*
X122147096Y-87126611D01*
X122419979Y-87174381D01*
X122571004Y-87211030D01*
X122623191Y-87242025D01*
X122604164Y-87269942D01*
X122560491Y-87374775D01*
X122516038Y-87608301D01*
X122477690Y-87929488D01*
X122462778Y-88112709D01*
X122408513Y-88898495D01*
X122787510Y-88898495D01*
X123166507Y-88898495D01*
X123121157Y-88240134D01*
X123094743Y-87890967D01*
X123067228Y-87581949D01*
X123044116Y-87374300D01*
X123042006Y-87359797D01*
X123033371Y-87234809D01*
X123080600Y-87162446D01*
X123220910Y-87120593D01*
X123491516Y-87087138D01*
X123502902Y-87085942D01*
X124009975Y-86999368D01*
X124397392Y-86851010D01*
X124671500Y-86658779D01*
X124834441Y-86443297D01*
X124828171Y-86233420D01*
X124653204Y-86027644D01*
X124521583Y-85901929D01*
X124486424Y-85821209D01*
X124488441Y-85818677D01*
X124439705Y-85776554D01*
X124267476Y-85715208D01*
X124099999Y-85670401D01*
X123852485Y-85617333D01*
X123683155Y-85593278D01*
X123639632Y-85597116D01*
X123644404Y-85690041D01*
X123684584Y-85821173D01*
X123781587Y-85962287D01*
X123947642Y-85966480D01*
X123955236Y-85964608D01*
X124166318Y-85971041D01*
X124355548Y-86068570D01*
X124477487Y-86218263D01*
X124486696Y-86381187D01*
X124473190Y-86408390D01*
X124266330Y-86605762D01*
X123929215Y-86760252D01*
X123497153Y-86864634D01*
X123005451Y-86911683D01*
X122489417Y-86894174D01*
X122254041Y-86862527D01*
X121794469Y-86755664D01*
X121478707Y-86620236D01*
X121311748Y-86464995D01*
X121298584Y-86298692D01*
X121444210Y-86130079D01*
X121745476Y-85971157D01*
X122105227Y-85826732D01*
X121896113Y-85665506D01*
X121710119Y-85546254D01*
X121536467Y-85514033D01*
X121319598Y-85569831D01*
X121074342Y-85680111D01*
X120736700Y-85893751D01*
X120537117Y-86132023D01*
X120489105Y-86376970D01*
X119144953Y-86376970D01*
X119142788Y-86284763D01*
X119219831Y-86088488D01*
X119387011Y-85830398D01*
X119653950Y-85497102D01*
X120016516Y-85090632D01*
X122237333Y-85090632D01*
X122308858Y-85146281D01*
X122418814Y-85160702D01*
X122503926Y-85168619D01*
X122553844Y-85213990D01*
X122573799Y-85329242D01*
X122569020Y-85546806D01*
X122544736Y-85899111D01*
X122542559Y-85928079D01*
X122522229Y-86277094D01*
X122516583Y-86562989D01*
X122525986Y-86742611D01*
X122535408Y-86777577D01*
X122650628Y-86841109D01*
X122792663Y-86859699D01*
X122886454Y-86853975D01*
X122946457Y-86816123D01*
X122980218Y-86715128D01*
X122995283Y-86519971D01*
X122999198Y-86199635D01*
X122999333Y-86010201D01*
X123000700Y-85624686D01*
X123009862Y-85378053D01*
X123034408Y-85239283D01*
X123081929Y-85177358D01*
X123160015Y-85161260D01*
X123207205Y-85160702D01*
X123415078Y-85160702D01*
X123204281Y-84587291D01*
X123045742Y-84157307D01*
X122934702Y-83865122D01*
X122859915Y-83689187D01*
X122810132Y-83607955D01*
X122774103Y-83599877D01*
X122740581Y-83643406D01*
X122725518Y-83670148D01*
X122661839Y-83814638D01*
X122568845Y-84059803D01*
X122463354Y-84356714D01*
X122362180Y-84656444D01*
X122282139Y-84910062D01*
X122240047Y-85068640D01*
X122237333Y-85090632D01*
X120016516Y-85090632D01*
X120030271Y-85075211D01*
X120417000Y-84664441D01*
X120855799Y-84221076D01*
X121295917Y-83803866D01*
X121717051Y-83429677D01*
X122098901Y-83115375D01*
X122421168Y-82877827D01*
X122663552Y-82733898D01*
X122784448Y-82697475D01*
X122947139Y-82727396D01*
G37*
G36*
X124975791Y-41540085D02*
G01*
X124984151Y-41566883D01*
X124978238Y-41618829D01*
X124942352Y-41717525D01*
X124872324Y-41785818D01*
X124769320Y-41822685D01*
X124741826Y-41826533D01*
X124671110Y-41837406D01*
X124618644Y-41851402D01*
X124604958Y-41858266D01*
X124573274Y-41867386D01*
X124564768Y-41862917D01*
X124549087Y-41817772D01*
X124561654Y-41753968D01*
X124599064Y-41686128D01*
X124608794Y-41673876D01*
X124672123Y-41622590D01*
X124762903Y-41577101D01*
X124862692Y-41545034D01*
X124947246Y-41533942D01*
X124975791Y-41540085D01*
G37*
G36*
X122942142Y-36153349D02*
G01*
X122941506Y-36180464D01*
X122934930Y-36219756D01*
X122898050Y-36319644D01*
X122827846Y-36392078D01*
X122731743Y-36430798D01*
X122678950Y-36435570D01*
X122614160Y-36440342D01*
X122570706Y-36452357D01*
X122563129Y-36458535D01*
X122535884Y-36481825D01*
X122514566Y-36464625D01*
X122505719Y-36412373D01*
X122505715Y-36410837D01*
X122526871Y-36334637D01*
X122583641Y-36263705D01*
X122665981Y-36208291D01*
X122726001Y-36186082D01*
X122828080Y-36159176D01*
X122893049Y-36143933D01*
X122928530Y-36141581D01*
X122942142Y-36153349D01*
G37*
G36*
X123814963Y-41547800D02*
G01*
X123914426Y-41583808D01*
X124003326Y-41635211D01*
X124069450Y-41695124D01*
X124099072Y-41749316D01*
X124103757Y-41797110D01*
X124098220Y-41844346D01*
X124086168Y-41878685D01*
X124071311Y-41887786D01*
X124061679Y-41873735D01*
X124027731Y-41847228D01*
X123951253Y-41829781D01*
X123927119Y-41827069D01*
X123844972Y-41813739D01*
X123788385Y-41787204D01*
X123741482Y-41743221D01*
X123699688Y-41681346D01*
X123678115Y-41618628D01*
X123678114Y-41566666D01*
X123701033Y-41537057D01*
X123717152Y-41534070D01*
X123814963Y-41547800D01*
G37*
G36*
X125774196Y-36144747D02*
G01*
X125842031Y-36161032D01*
X125936966Y-36186082D01*
X126021599Y-36222549D01*
X126094032Y-36278999D01*
X126142849Y-36344448D01*
X126157252Y-36397999D01*
X126148282Y-36448434D01*
X126127216Y-36473200D01*
X126102820Y-36462960D01*
X126100069Y-36458910D01*
X126070160Y-36444704D01*
X126011859Y-36436431D01*
X125984016Y-36435570D01*
X125878177Y-36415133D01*
X125794696Y-36357997D01*
X125740997Y-36270421D01*
X125728036Y-36219756D01*
X125721040Y-36177525D01*
X125721322Y-36151765D01*
X125736500Y-36141249D01*
X125774196Y-36144747D01*
G37*
G36*
X127021786Y-36151827D02*
G01*
X127033980Y-36188585D01*
X127027701Y-36243453D01*
X127004311Y-36305109D01*
X126965172Y-36362235D01*
X126963318Y-36364244D01*
X126910109Y-36411500D01*
X126854228Y-36431914D01*
X126792716Y-36435570D01*
X126709581Y-36444657D01*
X126655075Y-36469381D01*
X126652653Y-36471658D01*
X126629980Y-36489878D01*
X126619506Y-36478956D01*
X126616633Y-36431440D01*
X126616565Y-36413148D01*
X126634543Y-36321573D01*
X126690028Y-36251476D01*
X126785343Y-36200473D01*
X126840670Y-36183423D01*
X126913656Y-36164398D01*
X126972827Y-36148937D01*
X126989756Y-36144496D01*
X127021786Y-36151827D01*
G37*
G36*
X121693098Y-36149274D02*
G01*
X121766738Y-36168085D01*
X121855381Y-36198830D01*
X121902012Y-36218128D01*
X121987063Y-36265973D01*
X122032892Y-36321267D01*
X122046107Y-36394536D01*
X122042454Y-36441930D01*
X122033408Y-36480411D01*
X122016499Y-36478712D01*
X122005306Y-36467671D01*
X121963361Y-36447026D01*
X121894297Y-36436227D01*
X121871487Y-36435570D01*
X121794083Y-36428594D01*
X121737328Y-36401402D01*
X121700151Y-36368439D01*
X121657346Y-36315044D01*
X121634301Y-36265675D01*
X121633020Y-36255489D01*
X121625665Y-36196545D01*
X121618459Y-36171725D01*
X121615134Y-36148364D01*
X121636849Y-36141881D01*
X121693098Y-36149274D01*
G37*
G36*
X124354835Y-39124402D02*
G01*
X124414152Y-39158337D01*
X124506296Y-39212532D01*
X124628126Y-39285069D01*
X124776505Y-39374032D01*
X124948292Y-39477504D01*
X125140350Y-39593567D01*
X125349539Y-39720304D01*
X125572720Y-39855797D01*
X125806753Y-39998130D01*
X126048501Y-40145386D01*
X126294824Y-40295646D01*
X126542584Y-40446994D01*
X126788640Y-40597513D01*
X127029854Y-40745285D01*
X127263087Y-40888393D01*
X127485200Y-41024921D01*
X127693054Y-41152949D01*
X127883510Y-41270562D01*
X128053429Y-41375843D01*
X128199672Y-41466873D01*
X128319100Y-41541736D01*
X128408574Y-41598515D01*
X128464955Y-41635291D01*
X128483968Y-41648883D01*
X128490938Y-41682909D01*
X128480450Y-41750417D01*
X128454954Y-41843502D01*
X128416904Y-41954255D01*
X128368749Y-42074767D01*
X128315853Y-42191142D01*
X128226464Y-42354381D01*
X128120386Y-42506150D01*
X127993938Y-42649326D01*
X127843440Y-42786786D01*
X127665209Y-42921407D01*
X127455566Y-43056067D01*
X127210829Y-43193643D01*
X126927317Y-43337012D01*
X126731393Y-43429637D01*
X126376932Y-43593367D01*
X126044166Y-43746613D01*
X125734970Y-43888527D01*
X125451219Y-44018262D01*
X125194787Y-44134973D01*
X124967550Y-44237812D01*
X124771383Y-44325931D01*
X124608161Y-44398486D01*
X124479758Y-44454627D01*
X124388049Y-44493510D01*
X124334910Y-44514287D01*
X124322191Y-44517706D01*
X124290930Y-44507875D01*
X124224977Y-44481472D01*
X124131216Y-44441447D01*
X124016532Y-44390753D01*
X123887808Y-44332340D01*
X123860687Y-44319854D01*
X123746345Y-44267091D01*
X123597358Y-44198355D01*
X123420793Y-44116904D01*
X123223715Y-44025998D01*
X123013191Y-43928896D01*
X122796287Y-43828857D01*
X122580068Y-43729142D01*
X122494232Y-43689558D01*
X122212344Y-43558986D01*
X121968675Y-43444734D01*
X121759332Y-43344789D01*
X121580420Y-43257136D01*
X121428046Y-43179762D01*
X121298316Y-43110652D01*
X121187335Y-43047793D01*
X121091211Y-42989170D01*
X121006049Y-42932769D01*
X120940741Y-42886086D01*
X120786881Y-42759027D01*
X120767035Y-42739407D01*
X124067378Y-42739407D01*
X124087527Y-42793046D01*
X124139440Y-42848525D01*
X124210320Y-42896558D01*
X124287366Y-42927858D01*
X124336748Y-42934846D01*
X124404761Y-42920743D01*
X124477591Y-42874253D01*
X124503659Y-42851794D01*
X124554893Y-42802576D01*
X124588266Y-42764893D01*
X124595588Y-42751587D01*
X124575036Y-42738275D01*
X124521505Y-42720708D01*
X124456610Y-42704939D01*
X124356314Y-42688710D01*
X124271489Y-42689604D01*
X124192505Y-42703447D01*
X124124314Y-42720002D01*
X124078867Y-42733515D01*
X124067378Y-42739407D01*
X120767035Y-42739407D01*
X120637280Y-42611131D01*
X120504210Y-42455621D01*
X120399941Y-42305716D01*
X120396128Y-42299323D01*
X120354253Y-42219936D01*
X120308241Y-42118965D01*
X120262326Y-42007514D01*
X120220741Y-41896688D01*
X120187721Y-41797591D01*
X120167500Y-41721328D01*
X120163219Y-41688447D01*
X120182326Y-41671868D01*
X120237572Y-41633353D01*
X120325849Y-41574823D01*
X120444046Y-41498201D01*
X120589056Y-41405408D01*
X120757767Y-41298364D01*
X120947071Y-41178993D01*
X121153859Y-41049214D01*
X121181774Y-41031762D01*
X123332982Y-41031762D01*
X123343131Y-41084563D01*
X123368239Y-41155771D01*
X123383267Y-41189458D01*
X123401985Y-41233472D01*
X123416063Y-41282189D01*
X123426528Y-41343788D01*
X123434407Y-41426446D01*
X123440729Y-41538340D01*
X123446521Y-41687649D01*
X123446762Y-41694702D01*
X123452175Y-41841697D01*
X123457708Y-41951119D01*
X123464560Y-42031315D01*
X123473931Y-42090631D01*
X123487020Y-42137413D01*
X123505026Y-42180008D01*
X123521001Y-42211429D01*
X123620064Y-42360725D01*
X123741402Y-42479780D01*
X123878074Y-42562629D01*
X123964033Y-42592347D01*
X124045063Y-42601996D01*
X124130499Y-42595975D01*
X124203435Y-42576864D01*
X124245362Y-42549435D01*
X124275720Y-42482160D01*
X124260218Y-42416837D01*
X124198887Y-42353526D01*
X124119732Y-42305823D01*
X124044962Y-42253171D01*
X124011246Y-42193780D01*
X124020985Y-42131923D01*
X124021498Y-42130954D01*
X124040888Y-42100080D01*
X124060504Y-42100678D01*
X124095226Y-42130668D01*
X124169758Y-42173519D01*
X124268744Y-42195821D01*
X124376238Y-42197478D01*
X124476291Y-42178390D01*
X124552956Y-42138462D01*
X124558532Y-42133499D01*
X124603883Y-42101244D01*
X124630552Y-42109810D01*
X124641101Y-42160645D01*
X124641519Y-42180341D01*
X124632563Y-42227633D01*
X124598327Y-42263847D01*
X124552053Y-42290586D01*
X124462296Y-42343879D01*
X124410593Y-42395603D01*
X124390030Y-42453546D01*
X124388897Y-42474362D01*
X124401391Y-42536639D01*
X124442604Y-42575564D01*
X124518130Y-42594554D01*
X124591070Y-42597826D01*
X124725665Y-42581836D01*
X124845899Y-42531292D01*
X124960988Y-42441701D01*
X125006307Y-42395382D01*
X125075326Y-42315791D01*
X125126402Y-42242061D01*
X125162227Y-42165010D01*
X125185495Y-42075455D01*
X125198897Y-41964215D01*
X125205126Y-41822106D01*
X125206581Y-41712375D01*
X125207954Y-41573726D01*
X125210768Y-41471457D01*
X125216259Y-41396016D01*
X125225663Y-41337853D01*
X125240216Y-41287417D01*
X125261154Y-41235157D01*
X125271301Y-41212255D01*
X125311202Y-41111696D01*
X125324263Y-41045117D01*
X125310316Y-41009103D01*
X125269193Y-41000239D01*
X125260875Y-41001016D01*
X125128482Y-41016144D01*
X125030243Y-41023943D01*
X124954749Y-41022907D01*
X124890592Y-41011530D01*
X124826367Y-40988306D01*
X124750664Y-40951730D01*
X124704113Y-40927529D01*
X124607164Y-40878165D01*
X124535331Y-40847149D01*
X124473726Y-40830263D01*
X124407456Y-40823291D01*
X124331483Y-40822007D01*
X124248276Y-40823660D01*
X124183139Y-40831431D01*
X124121182Y-40849536D01*
X124047515Y-40882191D01*
X123958853Y-40927529D01*
X123864373Y-40976009D01*
X123796780Y-41006116D01*
X123742619Y-41021437D01*
X123688436Y-41025559D01*
X123620777Y-41022070D01*
X123608065Y-41021066D01*
X123519021Y-41012260D01*
X123439656Y-41001589D01*
X123395633Y-40993247D01*
X123350491Y-40986789D01*
X123334417Y-41005303D01*
X123332982Y-41031762D01*
X121181774Y-41031762D01*
X121375020Y-40910950D01*
X121607445Y-40766123D01*
X121848026Y-40616653D01*
X122093651Y-40464462D01*
X122341213Y-40311471D01*
X122587602Y-40159603D01*
X122829707Y-40010779D01*
X123064420Y-39866919D01*
X123288632Y-39729946D01*
X123499232Y-39601782D01*
X123693111Y-39484347D01*
X123867161Y-39379563D01*
X124018271Y-39289352D01*
X124143331Y-39215635D01*
X124239234Y-39160333D01*
X124302868Y-39125369D01*
X124331126Y-39112663D01*
X124331483Y-39112645D01*
X124354835Y-39124402D01*
G37*
G36*
X128568644Y-37240175D02*
G01*
X128568644Y-40157620D01*
X128519626Y-40131386D01*
X128493724Y-40115968D01*
X128431353Y-40078058D01*
X128335140Y-40019271D01*
X128207713Y-39941220D01*
X128051701Y-39845521D01*
X127869730Y-39733786D01*
X127664429Y-39607631D01*
X127438425Y-39468669D01*
X127194347Y-39318514D01*
X126934822Y-39158782D01*
X126662478Y-38991085D01*
X126405881Y-38833019D01*
X126125101Y-38660086D01*
X125855374Y-38494082D01*
X125599265Y-38336580D01*
X125359338Y-38189152D01*
X125138158Y-38053368D01*
X124938288Y-37930800D01*
X124762292Y-37823020D01*
X124612735Y-37731599D01*
X124492181Y-37658109D01*
X124403194Y-37604121D01*
X124348338Y-37571207D01*
X124330193Y-37560886D01*
X124309562Y-37572685D01*
X124252406Y-37607035D01*
X124161289Y-37662364D01*
X124038773Y-37737101D01*
X123887420Y-37829674D01*
X123709794Y-37938512D01*
X123508457Y-38062045D01*
X123285972Y-38198700D01*
X123044902Y-38346905D01*
X122787810Y-38505091D01*
X122517258Y-38671685D01*
X122253048Y-38834489D01*
X121971310Y-39008119D01*
X121700045Y-39175226D01*
X121441874Y-39334200D01*
X121199420Y-39483428D01*
X120975303Y-39621300D01*
X120772147Y-39746204D01*
X120592573Y-39856528D01*
X120439202Y-39950662D01*
X120314657Y-40026993D01*
X120221559Y-40083911D01*
X120162531Y-40119803D01*
X120140593Y-40132856D01*
X120094322Y-40157620D01*
X120094322Y-37357861D01*
X121995013Y-37357861D01*
X122071805Y-37437090D01*
X122168663Y-37514000D01*
X122265393Y-37545059D01*
X122361506Y-37530252D01*
X122456517Y-37469563D01*
X122477621Y-37449654D01*
X122547690Y-37379585D01*
X126125557Y-37379585D01*
X126154927Y-37422233D01*
X126187709Y-37455264D01*
X126284650Y-37523132D01*
X126382257Y-37545117D01*
X126479588Y-37521241D01*
X126575698Y-37451525D01*
X126580763Y-37446528D01*
X126621774Y-37397946D01*
X126630771Y-37362926D01*
X126604681Y-37339570D01*
X126540431Y-37325980D01*
X126434948Y-37320260D01*
X126375425Y-37319747D01*
X126251879Y-37322408D01*
X126171045Y-37331830D01*
X126129933Y-37350170D01*
X126125557Y-37379585D01*
X122547690Y-37379585D01*
X122559629Y-37367646D01*
X122492482Y-37338991D01*
X122412149Y-37318764D01*
X122306100Y-37310532D01*
X122193031Y-37314561D01*
X122091635Y-37331117D01*
X122083863Y-37333191D01*
X121995013Y-37357861D01*
X120094322Y-37357861D01*
X120094322Y-37240175D01*
X120094322Y-35657544D01*
X121289040Y-35657544D01*
X121299193Y-35710515D01*
X121324312Y-35781834D01*
X121339325Y-35815497D01*
X121358041Y-35859501D01*
X121372115Y-35908195D01*
X121382573Y-35969756D01*
X121390443Y-36052363D01*
X121396751Y-36164194D01*
X121402524Y-36313426D01*
X121402774Y-36320741D01*
X121409647Y-36487027D01*
X121419165Y-36615988D01*
X121433842Y-36716234D01*
X121456191Y-36796370D01*
X121488726Y-36865005D01*
X121533960Y-36930745D01*
X121594406Y-37002198D01*
X121605308Y-37014349D01*
X121696845Y-37095761D01*
X121803041Y-37158524D01*
X121914332Y-37200057D01*
X122021156Y-37217784D01*
X122113951Y-37209124D01*
X122183154Y-37171499D01*
X122184196Y-37170470D01*
X122226385Y-37105012D01*
X122223610Y-37040639D01*
X122176795Y-36980417D01*
X122114862Y-36940591D01*
X122020598Y-36884232D01*
X121969180Y-36831623D01*
X121958119Y-36779141D01*
X121975138Y-36737167D01*
X121995554Y-36721451D01*
X122028869Y-36732849D01*
X122065722Y-36758025D01*
X122154244Y-36798809D01*
X122264144Y-36814361D01*
X122378248Y-36804422D01*
X122479383Y-36768728D01*
X122486927Y-36764442D01*
X122549015Y-36732874D01*
X122582986Y-36732219D01*
X122596316Y-36764357D01*
X122597577Y-36792271D01*
X122581504Y-36834616D01*
X122530035Y-36883667D01*
X122477008Y-36920496D01*
X122408804Y-36967722D01*
X122371148Y-37005993D01*
X122354109Y-37048055D01*
X122349308Y-37084389D01*
X122349030Y-37143729D01*
X122366860Y-37175419D01*
X122402476Y-37193476D01*
X122529511Y-37218394D01*
X122660612Y-37201864D01*
X122789751Y-37147246D01*
X122910899Y-37057900D01*
X123018027Y-36937188D01*
X123096406Y-36806687D01*
X123120410Y-36755798D01*
X123137521Y-36710451D01*
X123148930Y-36661506D01*
X123155827Y-36599821D01*
X123159404Y-36516256D01*
X123160850Y-36401670D01*
X123161204Y-36309259D01*
X123161945Y-36170132D01*
X123164092Y-36067836D01*
X123168808Y-35993271D01*
X123177250Y-35937338D01*
X123190578Y-35890937D01*
X123209954Y-35844969D01*
X123224135Y-35815497D01*
X123257462Y-35740820D01*
X123280045Y-35677326D01*
X123281494Y-35670089D01*
X125379068Y-35670089D01*
X125402990Y-35739723D01*
X125437638Y-35815497D01*
X125460592Y-35865703D01*
X125476973Y-35911716D01*
X125487946Y-35962680D01*
X125494676Y-36027736D01*
X125498329Y-36116025D01*
X125500069Y-36236688D01*
X125500569Y-36309259D01*
X125501816Y-36448993D01*
X125504437Y-36552019D01*
X125509603Y-36627557D01*
X125518479Y-36684829D01*
X125532236Y-36733058D01*
X125552040Y-36781465D01*
X125563543Y-36806418D01*
X125642938Y-36938158D01*
X125746803Y-37055795D01*
X125862772Y-37146326D01*
X125912404Y-37173274D01*
X125988735Y-37197573D01*
X126078505Y-37209783D01*
X126167984Y-37210062D01*
X126243440Y-37198567D01*
X126291141Y-37175456D01*
X126296519Y-37168873D01*
X126312610Y-37121435D01*
X126317660Y-37074533D01*
X126305772Y-37023609D01*
X126265417Y-36974603D01*
X126190480Y-36921294D01*
X126136548Y-36890209D01*
X126080086Y-36843669D01*
X126065389Y-36796433D01*
X126071628Y-36743692D01*
X126095401Y-36727683D01*
X126144289Y-36745382D01*
X126164913Y-36756771D01*
X126237435Y-36790653D01*
X126310050Y-36813618D01*
X126310348Y-36813680D01*
X126391895Y-36816517D01*
X126486749Y-36800185D01*
X126573843Y-36769728D01*
X126623708Y-36738641D01*
X126657678Y-36714569D01*
X126679101Y-36724075D01*
X126686835Y-36735036D01*
X126702993Y-36787387D01*
X126678782Y-36837410D01*
X126616406Y-36887491D01*
X126530530Y-36943934D01*
X126476560Y-36984101D01*
X126447174Y-37015607D01*
X126435048Y-37046067D01*
X126432839Y-37078378D01*
X126450909Y-37147978D01*
X126500423Y-37193383D01*
X126574339Y-37215470D01*
X126665614Y-37215114D01*
X126767206Y-37193188D01*
X126872073Y-37150568D01*
X126973173Y-37088130D01*
X127063462Y-37006748D01*
X127070245Y-36999176D01*
X127138054Y-36914184D01*
X127188101Y-36829281D01*
X127222832Y-36735424D01*
X127244693Y-36623568D01*
X127256132Y-36484668D01*
X127259595Y-36309681D01*
X127259602Y-36299195D01*
X127260156Y-36164153D01*
X127262613Y-36065327D01*
X127268171Y-35993006D01*
X127278026Y-35937481D01*
X127293374Y-35889040D01*
X127315411Y-35837975D01*
X127316792Y-35835002D01*
X127348346Y-35758201D01*
X127369213Y-35690134D01*
X127374206Y-35657544D01*
X127371115Y-35624213D01*
X127353271Y-35611963D01*
X127308375Y-35616362D01*
X127276827Y-35622440D01*
X127194089Y-35634143D01*
X127096251Y-35641459D01*
X127052912Y-35642599D01*
X126973951Y-35638535D01*
X126906869Y-35621297D01*
X126832268Y-35584738D01*
X126788670Y-35558876D01*
X126631120Y-35477303D01*
X126482840Y-35434361D01*
X126335514Y-35429975D01*
X126180827Y-35464073D01*
X126010460Y-35536578D01*
X125981327Y-35551667D01*
X125890993Y-35598412D01*
X125820872Y-35629045D01*
X125758377Y-35645176D01*
X125690925Y-35648411D01*
X125605931Y-35640362D01*
X125490809Y-35622635D01*
X125462541Y-35617984D01*
X125408174Y-35614530D01*
X125380573Y-35630128D01*
X125379068Y-35670089D01*
X123281494Y-35670089D01*
X123286322Y-35645973D01*
X123280936Y-35619719D01*
X123256461Y-35611055D01*
X123200982Y-35616625D01*
X123188942Y-35618531D01*
X123068814Y-35637365D01*
X122981396Y-35647287D01*
X122914043Y-35646628D01*
X122854111Y-35633722D01*
X122788953Y-35606902D01*
X122705924Y-35564503D01*
X122681640Y-35551668D01*
X122507010Y-35472763D01*
X122349223Y-35432542D01*
X122200258Y-35431070D01*
X122052090Y-35468412D01*
X121896699Y-35544635D01*
X121874159Y-35558259D01*
X121789729Y-35606316D01*
X121722122Y-35632127D01*
X121652064Y-35641849D01*
X121610055Y-35642599D01*
X121515920Y-35638378D01*
X121422079Y-35628438D01*
X121386140Y-35622440D01*
X121325431Y-35612106D01*
X121297232Y-35616454D01*
X121289282Y-35639915D01*
X121289040Y-35657544D01*
X120094322Y-35657544D01*
X120094322Y-34322731D01*
X124331483Y-34322731D01*
X128568644Y-34322731D01*
X128568644Y-37240175D01*
G37*
X93420000Y-56437836D02*
X93420000Y-56222164D01*
X94140000Y-56437836D02*
X94140000Y-56222164D01*
%LPC*%
D16*
X108700000Y-83480000D03*
D17*
X103620000Y-83480000D03*
X98540000Y-83480000D03*
D18*
X117040000Y-62660000D03*
D19*
X95690000Y-55050000D03*
X95690000Y-55550000D03*
X95690000Y-56050000D03*
X95690000Y-56550000D03*
X97510000Y-56550000D03*
X97510000Y-56050000D03*
X97510000Y-55550000D03*
X97510000Y-55050000D03*
D20*
X114530000Y-73535000D03*
X114530000Y-74185000D03*
X114530000Y-74835000D03*
X116630000Y-74835000D03*
X116630000Y-74185000D03*
X116630000Y-73535000D03*
D21*
X115580000Y-74185000D03*
D16*
X85450000Y-42390000D03*
D17*
X90530000Y-42390000D03*
X95610000Y-42390000D03*
D22*
X78000000Y-55200000D03*
D23*
X76525000Y-53700000D03*
D22*
X78000000Y-52200000D03*
D23*
X79475000Y-53700000D03*
D24*
X111990000Y-72710000D03*
X111990000Y-71750000D03*
X93780000Y-56810000D03*
X93780000Y-55850000D03*
D18*
X76960000Y-62490000D03*
D25*
X97540000Y-58570000D03*
D26*
X97540000Y-66190000D03*
D25*
X100580000Y-58430000D03*
D26*
X100580000Y-66050000D03*
%LPD*%
M02*
