G04 #@! TF.GenerationSoftware,KiCad,Pcbnew,7.0.2*
G04 #@! TF.CreationDate,2023-06-06T15:13:29-04:00*
G04 #@! TF.ProjectId,baseplate,62617365-706c-4617-9465-2e6b69636164,rev?*
G04 #@! TF.SameCoordinates,Original*
G04 #@! TF.FileFunction,Copper,L4,Bot*
G04 #@! TF.FilePolarity,Positive*
%FSLAX46Y46*%
G04 Gerber Fmt 4.6, Leading zero omitted, Abs format (unit mm)*
G04 Created by KiCad (PCBNEW 7.0.2) date 2023-06-06 15:13:29*
%MOMM*%
%LPD*%
G01*
G04 APERTURE LIST*
G04 Aperture macros list*
%AMRoundRect*
0 Rectangle with rounded corners*
0 $1 Rounding radius*
0 $2 $3 $4 $5 $6 $7 $8 $9 X,Y pos of 4 corners*
0 Add a 4 corners polygon primitive as box body*
4,1,4,$2,$3,$4,$5,$6,$7,$8,$9,$2,$3,0*
0 Add four circle primitives for the rounded corners*
1,1,$1+$1,$2,$3*
1,1,$1+$1,$4,$5*
1,1,$1+$1,$6,$7*
1,1,$1+$1,$8,$9*
0 Add four rect primitives between the rounded corners*
20,1,$1+$1,$2,$3,$4,$5,0*
20,1,$1+$1,$4,$5,$6,$7,0*
20,1,$1+$1,$6,$7,$8,$9,0*
20,1,$1+$1,$8,$9,$2,$3,0*%
G04 Aperture macros list end*
G04 #@! TA.AperFunction,ComponentPad*
%ADD10R,1.800000X1.800000*%
G04 #@! TD*
G04 #@! TA.AperFunction,ComponentPad*
%ADD11C,1.800000*%
G04 #@! TD*
G04 #@! TA.AperFunction,SMDPad,CuDef*
%ADD12R,0.736600X1.676400*%
G04 #@! TD*
G04 #@! TA.AperFunction,SMDPad,CuDef*
%ADD13RoundRect,0.140000X-0.170000X0.140000X-0.170000X-0.140000X0.170000X-0.140000X0.170000X0.140000X0*%
G04 #@! TD*
G04 #@! TA.AperFunction,SMDPad,CuDef*
%ADD14RoundRect,0.140000X-0.140000X-0.170000X0.140000X-0.170000X0.140000X0.170000X-0.140000X0.170000X0*%
G04 #@! TD*
G04 #@! TA.AperFunction,SMDPad,CuDef*
%ADD15RoundRect,0.250000X2.350000X-0.325000X2.350000X0.325000X-2.350000X0.325000X-2.350000X-0.325000X0*%
G04 #@! TD*
G04 #@! TA.AperFunction,SMDPad,CuDef*
%ADD16R,0.740000X2.790000*%
G04 #@! TD*
G04 #@! TA.AperFunction,SMDPad,CuDef*
%ADD17RoundRect,0.008100X0.421900X0.126900X-0.421900X0.126900X-0.421900X-0.126900X0.421900X-0.126900X0*%
G04 #@! TD*
G04 #@! TA.AperFunction,SMDPad,CuDef*
%ADD18R,0.650000X0.300000*%
G04 #@! TD*
G04 #@! TA.AperFunction,SMDPad,CuDef*
%ADD19R,1.750000X2.750000*%
G04 #@! TD*
G04 #@! TA.AperFunction,SMDPad,CuDef*
%ADD20RoundRect,0.140000X0.140000X0.170000X-0.140000X0.170000X-0.140000X-0.170000X0.140000X-0.170000X0*%
G04 #@! TD*
G04 #@! TA.AperFunction,SMDPad,CuDef*
%ADD21R,0.150000X0.250000*%
G04 #@! TD*
G04 #@! TA.AperFunction,SMDPad,CuDef*
%ADD22R,0.500000X0.250000*%
G04 #@! TD*
G04 #@! TA.AperFunction,SMDPad,CuDef*
%ADD23R,2.790000X0.740000*%
G04 #@! TD*
G04 #@! TA.AperFunction,SMDPad,CuDef*
%ADD24R,1.050000X0.450000*%
G04 #@! TD*
G04 #@! TA.AperFunction,SMDPad,CuDef*
%ADD25RoundRect,0.250000X0.850000X-0.375000X0.850000X0.375000X-0.850000X0.375000X-0.850000X-0.375000X0*%
G04 #@! TD*
G04 #@! TA.AperFunction,SMDPad,CuDef*
%ADD26RoundRect,0.250000X-0.325000X-2.350000X0.325000X-2.350000X0.325000X2.350000X-0.325000X2.350000X0*%
G04 #@! TD*
G04 #@! TA.AperFunction,ComponentPad*
%ADD27C,1.400000*%
G04 #@! TD*
G04 #@! TA.AperFunction,ComponentPad*
%ADD28O,1.400000X1.400000*%
G04 #@! TD*
G04 #@! TA.AperFunction,SMDPad,CuDef*
%ADD29RoundRect,0.250000X0.375000X0.850000X-0.375000X0.850000X-0.375000X-0.850000X0.375000X-0.850000X0*%
G04 #@! TD*
G04 #@! TA.AperFunction,ViaPad*
%ADD30C,0.800000*%
G04 #@! TD*
G04 #@! TA.AperFunction,ViaPad*
%ADD31C,0.600000*%
G04 #@! TD*
G04 #@! TA.AperFunction,Conductor*
%ADD32C,0.300000*%
G04 #@! TD*
G04 #@! TA.AperFunction,Conductor*
%ADD33C,0.250000*%
G04 #@! TD*
G04 #@! TA.AperFunction,Conductor*
%ADD34C,0.400000*%
G04 #@! TD*
G04 #@! TA.AperFunction,Conductor*
%ADD35C,0.200000*%
G04 #@! TD*
G04 #@! TA.AperFunction,Conductor*
%ADD36C,0.700000*%
G04 #@! TD*
G04 #@! TA.AperFunction,Conductor*
%ADD37C,0.150000*%
G04 #@! TD*
G04 #@! TA.AperFunction,Conductor*
%ADD38C,0.500000*%
G04 #@! TD*
G04 APERTURE END LIST*
D10*
X108700000Y-83480000D03*
D11*
X103620000Y-83480000D03*
X98540000Y-83480000D03*
D10*
X85450000Y-42390000D03*
D11*
X90530000Y-42390000D03*
X95610000Y-42390000D03*
D12*
X109670000Y-70758500D03*
X109670000Y-74441500D03*
X108400000Y-70758500D03*
X108400000Y-74441500D03*
X107130000Y-70758500D03*
X107130000Y-74441500D03*
X105860000Y-70758500D03*
X105860000Y-74441500D03*
X104590000Y-70758500D03*
X104590000Y-74441500D03*
X103320000Y-70758500D03*
X103320000Y-74441500D03*
X102050000Y-70758500D03*
X102050000Y-74441500D03*
X100780000Y-70758500D03*
X100780000Y-74441500D03*
D13*
X70730000Y-77200000D03*
X70730000Y-78160000D03*
D14*
X116910000Y-46550000D03*
X117870000Y-46550000D03*
D15*
X94400000Y-49650000D03*
X94400000Y-47400000D03*
D14*
X116940000Y-47650000D03*
X117900000Y-47650000D03*
D16*
X105200000Y-44770000D03*
X105200000Y-40700000D03*
X103930000Y-44770000D03*
X103930000Y-40700000D03*
X102660000Y-44770000D03*
X102660000Y-40700000D03*
X101390000Y-44770000D03*
X101390000Y-40700000D03*
X100120000Y-44770000D03*
X100120000Y-40700000D03*
D13*
X69330000Y-77260000D03*
X69330000Y-78220000D03*
D17*
X78060000Y-70530000D03*
X78060000Y-71030000D03*
X78060000Y-71530000D03*
X78060000Y-72030000D03*
X76690000Y-72030000D03*
X76690000Y-71530000D03*
X76690000Y-71030000D03*
X76690000Y-70530000D03*
D18*
X112600000Y-49950000D03*
X112600000Y-50450000D03*
X112600000Y-50950000D03*
X112600000Y-51450000D03*
X112600000Y-51950000D03*
X112600000Y-52450000D03*
X109800000Y-52450000D03*
X109800000Y-51950000D03*
X109800000Y-51450000D03*
X109800000Y-50950000D03*
X109800000Y-50450000D03*
X109800000Y-49950000D03*
D19*
X111200000Y-51200000D03*
D20*
X77400000Y-73490000D03*
X76440000Y-73490000D03*
D13*
X113730000Y-48640000D03*
X113730000Y-49600000D03*
D21*
X98765000Y-61464000D03*
X99119000Y-61464000D03*
D22*
X98945000Y-60813000D03*
D23*
X119300000Y-54800000D03*
X115230000Y-54800000D03*
X119300000Y-56070000D03*
X115230000Y-56070000D03*
X119300000Y-57340000D03*
X115230000Y-57340000D03*
X119300000Y-58610000D03*
X115230000Y-58610000D03*
X119300000Y-59880000D03*
X115230000Y-59880000D03*
X78770000Y-54800000D03*
X74700000Y-54800000D03*
X78770000Y-56070000D03*
X74700000Y-56070000D03*
X78770000Y-57340000D03*
X74700000Y-57340000D03*
X78770000Y-58610000D03*
X74700000Y-58610000D03*
X78770000Y-59880000D03*
X74700000Y-59880000D03*
D24*
X96800000Y-51450000D03*
X96800000Y-52100000D03*
X96800000Y-52750000D03*
X96800000Y-53400000D03*
X94150000Y-53400000D03*
X94150000Y-52750000D03*
X94150000Y-52100000D03*
X94150000Y-51450000D03*
D15*
X101710000Y-79845000D03*
X101710000Y-77595000D03*
D23*
X119300000Y-66120000D03*
X115230000Y-66120000D03*
X119300000Y-67390000D03*
X115230000Y-67390000D03*
X119300000Y-68660000D03*
X115230000Y-68660000D03*
X119300000Y-69930000D03*
X115230000Y-69930000D03*
X119300000Y-71200000D03*
X115230000Y-71200000D03*
D25*
X70100000Y-73215000D03*
X70100000Y-71065000D03*
D24*
X82225000Y-74325000D03*
X82225000Y-74975000D03*
X82225000Y-75625000D03*
X82225000Y-76275000D03*
X79575000Y-76275000D03*
X79575000Y-75625000D03*
X79575000Y-74975000D03*
X79575000Y-74325000D03*
X109065000Y-78945000D03*
X109065000Y-78295000D03*
X109065000Y-77645000D03*
X109065000Y-76995000D03*
X106415000Y-76995000D03*
X106415000Y-77645000D03*
X106415000Y-78295000D03*
X106415000Y-78945000D03*
D26*
X80900000Y-70150000D03*
X83150000Y-70150000D03*
D16*
X93880000Y-85300000D03*
X93880000Y-81230000D03*
X92610000Y-85300000D03*
X92610000Y-81230000D03*
X91340000Y-85300000D03*
X91340000Y-81230000D03*
X90070000Y-85300000D03*
X90070000Y-81230000D03*
X88800000Y-85300000D03*
X88800000Y-81230000D03*
D27*
X97540000Y-58570000D03*
D28*
X97540000Y-66190000D03*
D29*
X111000000Y-47300000D03*
X108850000Y-47300000D03*
D27*
X100580000Y-58430000D03*
D28*
X100580000Y-66050000D03*
D14*
X116920000Y-48700000D03*
X117880000Y-48700000D03*
D13*
X114770000Y-48610000D03*
X114770000Y-49570000D03*
D12*
X91895000Y-54658500D03*
X91895000Y-58341500D03*
X90625000Y-54658500D03*
X90625000Y-58341500D03*
X89355000Y-54658500D03*
X89355000Y-58341500D03*
X88085000Y-54658500D03*
X88085000Y-58341500D03*
X86815000Y-54658500D03*
X86815000Y-58341500D03*
X85545000Y-54658500D03*
X85545000Y-58341500D03*
X84275000Y-54658500D03*
X84275000Y-58341500D03*
X83005000Y-54658500D03*
X83005000Y-58341500D03*
D21*
X99309000Y-63081000D03*
X98955000Y-63081000D03*
D22*
X99129000Y-63732000D03*
D30*
X67040000Y-45250000D03*
X93800000Y-90600000D03*
D31*
X89210000Y-36110000D03*
D30*
X93534649Y-40484649D03*
X95627700Y-53547700D03*
D31*
X70470000Y-35820000D03*
D30*
X90514500Y-48950000D03*
X89300000Y-47500000D03*
X105249977Y-77545500D03*
D31*
X66830000Y-39810000D03*
D30*
X84160000Y-46600000D03*
D31*
X109820000Y-44280000D03*
D30*
X126810000Y-89830000D03*
D31*
X95300000Y-38100000D03*
X113030000Y-43050000D03*
D30*
X78900353Y-73539647D03*
X84300000Y-89110000D03*
X120720000Y-62220000D03*
X81010000Y-76290000D03*
X78350000Y-42870000D03*
X101270000Y-75790000D03*
D31*
X114610000Y-36200000D03*
D30*
X117600000Y-76500000D03*
X112640000Y-89450000D03*
X77740000Y-37120000D03*
D31*
X70910000Y-86960000D03*
D30*
X109887299Y-80142701D03*
X117490000Y-82140000D03*
D31*
X101000000Y-87600000D03*
X100720000Y-37060000D03*
X102200000Y-57530000D03*
D30*
X99010000Y-70530000D03*
D31*
X120840000Y-89800000D03*
X97040000Y-44570000D03*
D30*
X94010000Y-44060000D03*
D31*
X96590000Y-89400000D03*
D30*
X87140000Y-87630000D03*
X81500000Y-90390000D03*
D31*
X118100000Y-49900000D03*
D30*
X84730000Y-49440000D03*
D31*
X77080000Y-49080000D03*
D30*
X123570000Y-60020000D03*
D31*
X68630000Y-50340000D03*
X82010000Y-36380000D03*
X106920000Y-89340000D03*
X117350000Y-43100000D03*
D30*
X109390000Y-72530000D03*
X90700000Y-46000000D03*
D31*
X119530000Y-38850000D03*
X67170000Y-73870000D03*
D30*
X124560000Y-76220000D03*
D31*
X115340000Y-42720000D03*
X107200000Y-37340000D03*
D30*
X76240000Y-48310000D03*
X126190000Y-49490000D03*
X124500000Y-80700000D03*
X94050000Y-64200000D03*
X121260000Y-73350000D03*
D31*
X126830000Y-44370000D03*
D30*
X113650000Y-51340000D03*
D31*
X105710000Y-42710000D03*
D30*
X105050000Y-66090000D03*
D31*
X70480000Y-47730000D03*
D30*
X117990000Y-62760000D03*
X75380000Y-90320000D03*
X77630000Y-69934500D03*
D31*
X70570000Y-79480000D03*
D30*
X90200000Y-90600000D03*
X75920000Y-72840000D03*
X103510000Y-67020000D03*
D31*
X67510000Y-82220000D03*
D30*
X99070000Y-57300000D03*
X79530000Y-69940000D03*
D31*
X116490000Y-88780000D03*
X71310000Y-53120000D03*
X115700000Y-48000000D03*
D30*
X107450000Y-45610000D03*
X95405000Y-58285000D03*
X101981116Y-72325500D03*
X81370000Y-55170000D03*
X121660000Y-55710498D03*
X79275500Y-71760000D03*
X123990000Y-55440000D03*
X98117719Y-64092191D03*
X116625500Y-50030000D03*
X99790500Y-61506612D03*
X111582771Y-48973700D03*
D31*
X92200000Y-56500000D03*
X97580000Y-61750000D03*
X90700000Y-56400000D03*
D30*
X98720000Y-67670000D03*
X99360000Y-38030000D03*
X73940000Y-70010000D03*
X113030000Y-76330000D03*
X86110000Y-80720000D03*
X101778667Y-65039381D03*
X86990000Y-52534500D03*
X87490000Y-81410000D03*
X105230000Y-79510000D03*
X109980000Y-55100000D03*
X107140000Y-67050000D03*
X107780000Y-42020000D03*
X110560000Y-53620000D03*
X81975500Y-70030000D03*
X74695000Y-70735000D03*
X70380000Y-54900000D03*
X78950000Y-83720000D03*
X80620000Y-82855500D03*
X90710000Y-59830000D03*
X76967700Y-75807700D03*
X112510000Y-69880000D03*
X72359937Y-71820193D03*
X97250000Y-41050000D03*
X111130000Y-55190000D03*
X117680000Y-52840000D03*
X92929500Y-52678256D03*
X110995500Y-80260000D03*
X93850000Y-88450000D03*
X94520000Y-45810000D03*
X123330000Y-52230000D03*
X78420000Y-74960000D03*
X101340000Y-37960000D03*
X72670000Y-70870000D03*
X93350000Y-54600000D03*
X116439643Y-52920357D03*
X78560000Y-77370000D03*
X97610500Y-77580000D03*
X111171206Y-78364196D03*
X86520000Y-62000000D03*
X112190000Y-55710498D03*
X95910000Y-60360000D03*
X104980000Y-72420000D03*
X114790000Y-52130000D03*
X106210000Y-72600000D03*
X121190000Y-52080000D03*
X90390000Y-51070000D03*
X83150000Y-73380000D03*
X111720000Y-83770000D03*
X94836435Y-55147141D03*
X90130000Y-87920000D03*
X124750000Y-52760000D03*
X82840000Y-84390000D03*
X117599500Y-73680000D03*
X122140000Y-69980000D03*
X97427211Y-79798105D03*
X86620500Y-60840000D03*
X71740000Y-69730000D03*
X107620000Y-72550000D03*
X81510000Y-54020000D03*
X86449502Y-64750000D03*
X85920000Y-46830000D03*
X89420000Y-56430000D03*
X107140000Y-68360000D03*
X108690000Y-52760000D03*
X107446674Y-76449557D03*
X104940000Y-67820000D03*
X99854791Y-56681042D03*
X97676740Y-54356740D03*
X104717018Y-76477581D03*
X111533805Y-74133805D03*
D31*
X88100000Y-56400000D03*
D30*
X72070000Y-55190000D03*
X86563602Y-59820000D03*
X111089192Y-70655550D03*
X89340000Y-60070000D03*
X89340000Y-51850000D03*
X107080000Y-57440000D03*
X86590000Y-63740000D03*
X110780000Y-69609502D03*
X103620000Y-72570000D03*
X100652306Y-72603800D03*
D31*
X100740000Y-63860000D03*
D32*
X95000000Y-49650000D02*
X96800000Y-51450000D01*
X94400000Y-49650000D02*
X95000000Y-49650000D01*
X116940000Y-47650000D02*
X116940000Y-46580000D01*
X116940000Y-46580000D02*
X116910000Y-46550000D01*
X116940000Y-48680000D02*
X116920000Y-48700000D01*
X116940000Y-47650000D02*
X116940000Y-48680000D01*
X112600000Y-50450000D02*
X112600000Y-49950000D01*
X113380000Y-49950000D02*
X113730000Y-49600000D01*
X112600000Y-49950000D02*
X113380000Y-49950000D01*
X98479000Y-61750000D02*
X98694000Y-61535000D01*
X98694000Y-61535000D02*
X98694000Y-61464000D01*
X97580000Y-61750000D02*
X98479000Y-61750000D01*
X100612000Y-63732000D02*
X100740000Y-63860000D01*
X99129000Y-63732000D02*
X100612000Y-63732000D01*
X107165000Y-78295000D02*
X107265000Y-78395000D01*
X106415000Y-78295000D02*
X107165000Y-78295000D01*
X102410000Y-78295000D02*
X106415000Y-78295000D01*
X101710000Y-77595000D02*
X102410000Y-78295000D01*
D33*
X105349477Y-77645000D02*
X105249977Y-77545500D01*
X106415000Y-77645000D02*
X105349477Y-77645000D01*
D34*
X101981116Y-70827384D02*
X102050000Y-70758500D01*
X101981116Y-72325500D02*
X101981116Y-70827384D01*
X95348500Y-58341500D02*
X95405000Y-58285000D01*
X91895000Y-58341500D02*
X95348500Y-58341500D01*
D33*
X112600000Y-51450000D02*
X111450000Y-51450000D01*
X109800000Y-50950000D02*
X110950000Y-50950000D01*
X81450000Y-75625000D02*
X81010000Y-76065000D01*
X119300000Y-71200000D02*
X119300000Y-71390000D01*
X112600000Y-50950000D02*
X111450000Y-50950000D01*
D35*
X110426900Y-50950000D02*
X110676900Y-51200000D01*
D33*
X109887299Y-79767299D02*
X109065000Y-78945000D01*
X77370000Y-71530000D02*
X77190000Y-71530000D01*
X95627700Y-53147300D02*
X95627700Y-53547700D01*
D35*
X109800000Y-51450000D02*
X110426900Y-51450000D01*
D33*
X78060000Y-70530000D02*
X78060000Y-70364500D01*
X78770000Y-69180000D02*
X78770000Y-59880000D01*
D35*
X115700000Y-48000000D02*
X115380000Y-48000000D01*
D33*
X90363164Y-49101337D02*
X92711827Y-51450000D01*
X119300000Y-71390000D02*
X121260000Y-73350000D01*
D35*
X111200000Y-51200000D02*
X111723100Y-51200000D01*
D33*
X78060000Y-70364500D02*
X77630000Y-69934500D01*
X79575000Y-74214294D02*
X78900353Y-73539647D01*
X117870000Y-47620000D02*
X117900000Y-47650000D01*
X78060000Y-71530000D02*
X77370000Y-71530000D01*
X111450000Y-50950000D02*
X111200000Y-51200000D01*
X76690000Y-72030000D02*
X76690000Y-71530000D01*
X113650000Y-51340000D02*
X112710000Y-51340000D01*
D35*
X110426900Y-51158100D02*
X110426900Y-51450000D01*
D33*
X96800000Y-52750000D02*
X96025000Y-52750000D01*
X112710000Y-51340000D02*
X112600000Y-51450000D01*
X79530000Y-69940000D02*
X78770000Y-69180000D01*
X94150000Y-51450000D02*
X94150000Y-52100000D01*
X77630000Y-69934500D02*
X76944500Y-69934500D01*
X79575000Y-74325000D02*
X79575000Y-74214294D01*
D35*
X110676900Y-51200000D02*
X111200000Y-51200000D01*
D33*
X75920000Y-72800000D02*
X76690000Y-72030000D01*
X82225000Y-75625000D02*
X81450000Y-75625000D01*
X110950000Y-50950000D02*
X111200000Y-51200000D01*
X75920000Y-72840000D02*
X75920000Y-72800000D01*
X90514500Y-48950000D02*
X90363164Y-49101337D01*
X109887299Y-80142701D02*
X109887299Y-79767299D01*
X81010000Y-76065000D02*
X81010000Y-76290000D01*
D35*
X111723100Y-51200000D02*
X111973100Y-51450000D01*
D33*
X77190000Y-71530000D02*
X76690000Y-72030000D01*
X111450000Y-51450000D02*
X111200000Y-51200000D01*
D35*
X111973100Y-51950000D02*
X111973100Y-51605500D01*
D33*
X113760000Y-48610000D02*
X113730000Y-48640000D01*
X96025000Y-52750000D02*
X95627700Y-53147300D01*
X77370000Y-71530000D02*
X76690000Y-71530000D01*
D35*
X111973100Y-51294500D02*
X111973100Y-50950000D01*
X115380000Y-48000000D02*
X114770000Y-48610000D01*
X84275000Y-54088400D02*
X84275000Y-54658500D01*
D33*
X76944500Y-69934500D02*
X76660000Y-69650000D01*
D35*
X112600000Y-51950000D02*
X111973100Y-51950000D01*
D33*
X92711827Y-51450000D02*
X94150000Y-51450000D01*
X114770000Y-48610000D02*
X113760000Y-48610000D01*
D36*
X98117719Y-64092191D02*
X98117719Y-63302281D01*
D33*
X92610000Y-86325000D02*
X93305000Y-87020000D01*
X104625000Y-46490000D02*
X103930000Y-45795000D01*
X78770000Y-56070000D02*
X80470000Y-56070000D01*
X78060000Y-72030000D02*
X78579875Y-72030000D01*
X77400000Y-72690000D02*
X78060000Y-72030000D01*
X111410000Y-49500000D02*
X111410000Y-49146471D01*
X106570000Y-46490000D02*
X107450000Y-45610000D01*
X112600000Y-49550000D02*
X112600000Y-49950000D01*
X104625000Y-46490000D02*
X106570000Y-46490000D01*
X78815000Y-71265125D02*
X78579875Y-71030000D01*
X78579875Y-71030000D02*
X78060000Y-71030000D01*
X109850000Y-49500000D02*
X111410000Y-49500000D01*
X107450000Y-84730000D02*
X108700000Y-83480000D01*
X99900000Y-87020000D02*
X102190000Y-84730000D01*
X111410000Y-49500000D02*
X112550000Y-49500000D01*
X79240625Y-71794875D02*
X79275500Y-71760000D01*
X120325000Y-67390000D02*
X119300000Y-67390000D01*
X93305000Y-87020000D02*
X99900000Y-87020000D01*
X78815000Y-71794875D02*
X78815000Y-71265125D01*
X113760000Y-49570000D02*
X113730000Y-49600000D01*
X103930000Y-45795000D02*
X103930000Y-44770000D01*
X121660000Y-55710498D02*
X121300498Y-56070000D01*
X102190000Y-84730000D02*
X107450000Y-84730000D01*
X109800000Y-49550000D02*
X109850000Y-49500000D01*
X112550000Y-49500000D02*
X112600000Y-49550000D01*
X119300000Y-56070000D02*
X121300498Y-56070000D01*
X114770000Y-49570000D02*
X113760000Y-49570000D01*
X125370000Y-56820000D02*
X125370000Y-62345000D01*
X91895000Y-58341500D02*
X92036500Y-58200000D01*
X123990000Y-55440000D02*
X125370000Y-56820000D01*
X108700000Y-83480000D02*
X107265000Y-82045000D01*
X111410000Y-49146471D02*
X111582771Y-48973700D01*
X109800000Y-49950000D02*
X109800000Y-49550000D01*
X77400000Y-73490000D02*
X77400000Y-72690000D01*
X125370000Y-62345000D02*
X120325000Y-67390000D01*
X107265000Y-82045000D02*
X107265000Y-78395000D01*
D36*
X98117719Y-63302281D02*
X98240000Y-63180000D01*
D33*
X80470000Y-56070000D02*
X81370000Y-55170000D01*
X92610000Y-85300000D02*
X92610000Y-86325000D01*
X114770000Y-49570000D02*
X116165500Y-49570000D01*
X78579875Y-72030000D02*
X78815000Y-71794875D01*
X102050000Y-72256616D02*
X101981116Y-72325500D01*
X116165500Y-49570000D02*
X116625500Y-50030000D01*
X95320000Y-58200000D02*
X95405000Y-58285000D01*
X78815000Y-71794875D02*
X79240625Y-71794875D01*
D37*
X91895000Y-56195000D02*
X91895000Y-54658500D01*
X92200000Y-56500000D02*
X91895000Y-56195000D01*
X90625000Y-54658500D02*
X90625000Y-56325000D01*
X98953000Y-62450000D02*
X98059100Y-62450000D01*
X99309000Y-62806000D02*
X98953000Y-62450000D01*
X96380000Y-64129100D02*
X96380000Y-66650000D01*
X97405500Y-67675500D02*
X98714500Y-67675500D01*
X96380000Y-66650000D02*
X97405500Y-67675500D01*
X90625000Y-56325000D02*
X90700000Y-56400000D01*
X99309000Y-63081000D02*
X99309000Y-62806000D01*
X98059100Y-62450000D02*
X96380000Y-64129100D01*
D33*
X80150000Y-53210000D02*
X80510000Y-53570000D01*
X100120000Y-38790000D02*
X100120000Y-40700000D01*
X75845000Y-59880000D02*
X76420000Y-59305000D01*
X86990000Y-52534500D02*
X85545000Y-53979500D01*
X112704695Y-76330000D02*
X110808805Y-74434110D01*
X102045000Y-79510000D02*
X101710000Y-79845000D01*
X113030000Y-76330000D02*
X112704695Y-76330000D01*
X100120000Y-40700000D02*
X99540000Y-40120000D01*
X86800000Y-81410000D02*
X86110000Y-80720000D01*
X106415000Y-78945000D02*
X105850000Y-79510000D01*
X80150000Y-49460000D02*
X80150000Y-53210000D01*
X76420000Y-59305000D02*
X76420000Y-54735000D01*
X81890000Y-47720000D02*
X80150000Y-49460000D01*
X99360000Y-38030000D02*
X100120000Y-38790000D01*
X87670000Y-81230000D02*
X87490000Y-81410000D01*
X73940000Y-70010000D02*
X73410000Y-69480000D01*
X110808805Y-74434110D02*
X110808805Y-73591195D01*
X85545000Y-53979500D02*
X85545000Y-54658500D01*
X80934695Y-53570000D02*
X81209695Y-53295000D01*
X73410000Y-61170000D02*
X74700000Y-59880000D01*
X88800000Y-81230000D02*
X87670000Y-81230000D01*
X82311700Y-55821700D02*
X85198300Y-55821700D01*
X99540000Y-40120000D02*
X94923897Y-40120000D01*
X77945000Y-53210000D02*
X80150000Y-53210000D01*
X113200000Y-71200000D02*
X115230000Y-71200000D01*
X80510000Y-53570000D02*
X80934695Y-53570000D01*
X73410000Y-69480000D02*
X73410000Y-61170000D01*
X94923897Y-40120000D02*
X87323897Y-47720000D01*
X115230000Y-59880000D02*
X114205000Y-59880000D01*
X85545000Y-55475000D02*
X85545000Y-54658500D01*
X87490000Y-81410000D02*
X86800000Y-81410000D01*
X82311700Y-53730000D02*
X82311700Y-55821700D01*
X76420000Y-54735000D02*
X77945000Y-53210000D01*
X110808805Y-73591195D02*
X113200000Y-71200000D01*
X81876700Y-53295000D02*
X82311700Y-53730000D01*
X109980000Y-55655000D02*
X109980000Y-55100000D01*
X81209695Y-53295000D02*
X81876700Y-53295000D01*
X85198300Y-55821700D02*
X85545000Y-55475000D01*
X74700000Y-59880000D02*
X75845000Y-59880000D01*
X87323897Y-47720000D02*
X81890000Y-47720000D01*
X114205000Y-59880000D02*
X109980000Y-55655000D01*
X105850000Y-79510000D02*
X102045000Y-79510000D01*
X106460000Y-40700000D02*
X105200000Y-40700000D01*
X107780000Y-42020000D02*
X106460000Y-40700000D01*
X109670000Y-69580000D02*
X107140000Y-67050000D01*
X109670000Y-70758500D02*
X109670000Y-69580000D01*
X74649214Y-70735000D02*
X74695000Y-70735000D01*
X73335000Y-72765000D02*
X71800000Y-72765000D01*
X70730000Y-77200000D02*
X68390000Y-74860000D01*
X82225000Y-71475000D02*
X80900000Y-70150000D01*
X74445305Y-70531091D02*
X74445305Y-71654695D01*
X74445305Y-70531091D02*
X74649214Y-70735000D01*
X76690000Y-70530000D02*
X74445305Y-70530000D01*
X68390000Y-72775000D02*
X70100000Y-71065000D01*
X68390000Y-74860000D02*
X68390000Y-72775000D01*
X80900000Y-70150000D02*
X81855500Y-70150000D01*
X74445305Y-71654695D02*
X73335000Y-72765000D01*
X70730000Y-77200000D02*
X70160000Y-76630000D01*
X71800000Y-72765000D02*
X70100000Y-71065000D01*
X82225000Y-74325000D02*
X82225000Y-71475000D01*
X74445305Y-70530000D02*
X74445305Y-70531091D01*
X69960000Y-76630000D02*
X70160000Y-76630000D01*
X69330000Y-77260000D02*
X69960000Y-76630000D01*
X81855500Y-70150000D02*
X81975500Y-70030000D01*
D37*
X117300000Y-50800000D02*
X117300000Y-49080000D01*
X94950000Y-52625000D02*
X96125000Y-51450000D01*
X114115000Y-52185000D02*
X114115000Y-51850405D01*
X114115000Y-51850405D02*
X115165405Y-50800000D01*
X98708859Y-58360000D02*
X99271141Y-58360000D01*
X96330404Y-57595000D02*
X97943859Y-57595000D01*
X115165405Y-50800000D02*
X117300000Y-50800000D01*
X116920000Y-47670000D02*
X116940000Y-47650000D01*
X94161435Y-54867546D02*
X94161435Y-55426031D01*
X97943859Y-57595000D02*
X98708859Y-58360000D01*
X94950000Y-54330000D02*
X94950000Y-52625000D01*
X94161435Y-55426031D02*
X96330404Y-57595000D01*
D33*
X116910000Y-47620000D02*
X116940000Y-47650000D01*
D37*
X107249314Y-56765000D02*
X109800000Y-54214314D01*
X109800000Y-54214314D02*
X109800000Y-52450000D01*
X96125000Y-51450000D02*
X96800000Y-51450000D01*
X112600000Y-52450000D02*
X113850000Y-52450000D01*
X94698981Y-54330000D02*
X94161435Y-54867546D01*
X117300000Y-49080000D02*
X116920000Y-48700000D01*
X94950000Y-54330000D02*
X94698981Y-54330000D01*
X110200000Y-52850000D02*
X109800000Y-52450000D01*
X113850000Y-52450000D02*
X114115000Y-52185000D01*
X99271141Y-58360000D02*
X100866141Y-56765000D01*
X112200000Y-52850000D02*
X110200000Y-52850000D01*
X100866141Y-56765000D02*
X107249314Y-56765000D01*
X112600000Y-52450000D02*
X112200000Y-52850000D01*
D33*
X112794197Y-57340000D02*
X111130000Y-55675803D01*
X76967700Y-75807700D02*
X76967700Y-81737700D01*
X80620000Y-82855500D02*
X80714500Y-82950000D01*
X73675000Y-57340000D02*
X72240000Y-58775000D01*
X72240000Y-58775000D02*
X72240000Y-69204695D01*
X113730000Y-68660000D02*
X112510000Y-69880000D01*
X76967700Y-81737700D02*
X78950000Y-83720000D01*
X90625000Y-59745000D02*
X90710000Y-59830000D01*
X90665000Y-82950000D02*
X91340000Y-82275000D01*
X70380000Y-54900000D02*
X72820000Y-57340000D01*
X91340000Y-82275000D02*
X91340000Y-81230000D01*
X102055000Y-42450000D02*
X98650000Y-42450000D01*
X71945000Y-70550305D02*
X71945000Y-71405256D01*
X115230000Y-57340000D02*
X112794197Y-57340000D01*
X74700000Y-57340000D02*
X73675000Y-57340000D01*
X72465000Y-70030305D02*
X71945000Y-70550305D01*
X80714500Y-82950000D02*
X90665000Y-82950000D01*
X102660000Y-40700000D02*
X102660000Y-41845000D01*
X72465000Y-69429695D02*
X72465000Y-70030305D01*
X90625000Y-58341500D02*
X90625000Y-59745000D01*
X72240000Y-69204695D02*
X72465000Y-69429695D01*
X102660000Y-41845000D02*
X102055000Y-42450000D01*
X98650000Y-42450000D02*
X97250000Y-41050000D01*
X115230000Y-68660000D02*
X113730000Y-68660000D01*
X71945000Y-71405256D02*
X72359937Y-71820193D01*
X72820000Y-57340000D02*
X74700000Y-57340000D01*
X111130000Y-55675803D02*
X111130000Y-55190000D01*
X102660000Y-43745000D02*
X101965000Y-43050000D01*
X122590000Y-55805803D02*
X122590000Y-52970000D01*
X117580000Y-52940000D02*
X117680000Y-52840000D01*
X101965000Y-43050000D02*
X97280000Y-43050000D01*
X79505000Y-71035000D02*
X79575805Y-71035000D01*
X80425000Y-75525000D02*
X80325000Y-75625000D01*
X80010000Y-83580000D02*
X90645000Y-83580000D01*
X77930305Y-69209500D02*
X78815000Y-70094195D01*
X108215000Y-77570000D02*
X108290000Y-77645000D01*
X117580000Y-56645000D02*
X117580000Y-52940000D01*
X108215000Y-74626500D02*
X108215000Y-77570000D01*
X109070000Y-77545000D02*
X109065000Y-77550000D01*
X78800000Y-75625000D02*
X77470000Y-76955000D01*
X80425000Y-73775000D02*
X80425000Y-75525000D01*
X80325000Y-75625000D02*
X79575000Y-75625000D01*
X80000000Y-73350000D02*
X80425000Y-73775000D01*
X97280000Y-43050000D02*
X94520000Y-45810000D01*
X78770000Y-57340000D02*
X77745000Y-57340000D01*
X109065000Y-77550000D02*
X109065000Y-78295000D01*
X109065000Y-77645000D02*
X109070000Y-77640000D01*
X110995500Y-79450500D02*
X110995500Y-80260000D01*
X119300000Y-57340000D02*
X118275000Y-57340000D01*
X119300000Y-57340000D02*
X121055803Y-57340000D01*
X78815000Y-70094195D02*
X78815000Y-70345000D01*
X77470000Y-76955000D02*
X77470000Y-81040000D01*
X91340000Y-84275000D02*
X91340000Y-85300000D01*
X79575805Y-71035000D02*
X80000000Y-71459195D01*
X109065000Y-78295000D02*
X109840000Y-78295000D01*
X80000000Y-71459195D02*
X80000000Y-73350000D01*
X94078256Y-52678256D02*
X94150000Y-52750000D01*
X121055803Y-57340000D02*
X122590000Y-55805803D01*
X118275000Y-57340000D02*
X117580000Y-56645000D01*
X77679500Y-69209500D02*
X77930305Y-69209500D01*
X91340000Y-86325000D02*
X92875000Y-87860000D01*
X90645000Y-83580000D02*
X91340000Y-84275000D01*
X77745000Y-57340000D02*
X77030000Y-58055000D01*
X108290000Y-77645000D02*
X109065000Y-77645000D01*
X77030000Y-68560000D02*
X77679500Y-69209500D01*
X92875000Y-87860000D02*
X93260000Y-87860000D01*
X92929500Y-52678256D02*
X94078256Y-52678256D01*
X91340000Y-85300000D02*
X91340000Y-86325000D01*
X78815000Y-70345000D02*
X79505000Y-71035000D01*
X108400000Y-74441500D02*
X108215000Y-74626500D01*
X93260000Y-87860000D02*
X93850000Y-88450000D01*
X77030000Y-58055000D02*
X77030000Y-68560000D01*
X109070000Y-77640000D02*
X109070000Y-77545000D01*
X77470000Y-81040000D02*
X80010000Y-83580000D01*
X79575000Y-75625000D02*
X78800000Y-75625000D01*
X102660000Y-44770000D02*
X102660000Y-43745000D01*
X122590000Y-52970000D02*
X123330000Y-52230000D01*
X109840000Y-78295000D02*
X110995500Y-79450500D01*
X116950000Y-57915000D02*
X116950000Y-53430714D01*
X73675000Y-58610000D02*
X72980000Y-59305000D01*
X72960000Y-69666396D02*
X72980000Y-69686396D01*
X109065000Y-76995000D02*
X109670000Y-76390000D01*
X90070000Y-80205000D02*
X90070000Y-81230000D01*
X97527302Y-77496802D02*
X97610500Y-77580000D01*
X109670000Y-76390000D02*
X109670000Y-74441500D01*
X94150000Y-53400000D02*
X94150000Y-53800000D01*
X95053604Y-79420000D02*
X96976802Y-77496802D01*
X101340000Y-37960000D02*
X101390000Y-38010000D01*
X79560000Y-74960000D02*
X79575000Y-74975000D01*
X115230000Y-58610000D02*
X116255000Y-58610000D01*
X109802010Y-76995000D02*
X109065000Y-76995000D01*
X72980000Y-70560000D02*
X72670000Y-70870000D01*
X96976802Y-77496802D02*
X97527302Y-77496802D01*
X74700000Y-58610000D02*
X73675000Y-58610000D01*
X72980000Y-60963604D02*
X72960000Y-60983604D01*
X72980000Y-69686396D02*
X72980000Y-70560000D01*
X94150000Y-53800000D02*
X93350000Y-54600000D01*
X78420000Y-74960000D02*
X79560000Y-74960000D01*
X72980000Y-59305000D02*
X72980000Y-60963604D01*
X101390000Y-38010000D02*
X101390000Y-40700000D01*
X116950000Y-53430714D02*
X116439643Y-52920357D01*
X87255000Y-77390000D02*
X90070000Y-80205000D01*
X111171206Y-78364196D02*
X109802010Y-76995000D01*
X79575000Y-76355000D02*
X79575000Y-76275000D01*
X72960000Y-60983604D02*
X72960000Y-69666396D01*
X78560000Y-77370000D02*
X79575000Y-76355000D01*
X90070000Y-80085000D02*
X90735000Y-79420000D01*
X116255000Y-58610000D02*
X116950000Y-57915000D01*
X78580000Y-77390000D02*
X87255000Y-77390000D01*
X90735000Y-79420000D02*
X95053604Y-79420000D01*
X78560000Y-77370000D02*
X78580000Y-77390000D01*
X90070000Y-81230000D02*
X90070000Y-80085000D01*
X84275000Y-58341500D02*
X84275000Y-59755000D01*
X84275000Y-59755000D02*
X86520000Y-62000000D01*
X115230000Y-56070000D02*
X112549502Y-56070000D01*
X112549502Y-56070000D02*
X112190000Y-55710498D01*
X104795305Y-72420000D02*
X103320000Y-73895305D01*
X103320000Y-73895305D02*
X103320000Y-74441500D01*
X104980000Y-72420000D02*
X104795305Y-72420000D01*
X115230000Y-54800000D02*
X115230000Y-52570000D01*
X115230000Y-52570000D02*
X114790000Y-52130000D01*
X119300000Y-53970000D02*
X121190000Y-52080000D01*
X105981700Y-72600000D02*
X106210000Y-72600000D01*
X104590000Y-74441500D02*
X105166700Y-73864800D01*
X105166700Y-73415000D02*
X105981700Y-72600000D01*
X105166700Y-73864800D02*
X105166700Y-73415000D01*
X119300000Y-54800000D02*
X119300000Y-53970000D01*
X107103604Y-77095000D02*
X106515000Y-77095000D01*
X100615000Y-46690000D02*
X101390000Y-45915000D01*
X83000000Y-74975000D02*
X83150000Y-74825000D01*
X122140000Y-69980000D02*
X122090000Y-69930000D01*
X124750000Y-52760000D02*
X124750000Y-53260000D01*
X122090000Y-69930000D02*
X119300000Y-69930000D01*
X82311700Y-59301700D02*
X82311700Y-69311700D01*
X86815000Y-54188600D02*
X88428600Y-52575000D01*
X98000000Y-48209314D02*
X97600000Y-47809314D01*
X111720000Y-83770000D02*
X111720000Y-83000000D01*
X101390000Y-45915000D02*
X101390000Y-44770000D01*
X111720000Y-83770000D02*
X111720000Y-78840000D01*
X82311700Y-57178300D02*
X82311700Y-58568300D01*
X90070000Y-86445000D02*
X86455000Y-90060000D01*
X97600000Y-47809314D02*
X97600000Y-46960000D01*
X119300000Y-58610000D02*
X121230000Y-58610000D01*
X86040000Y-90060000D02*
X86040000Y-84970000D01*
X81620000Y-58610000D02*
X82311700Y-59301700D01*
X115750000Y-74810000D02*
X117820000Y-74810000D01*
X108200000Y-79480000D02*
X108200000Y-78191396D01*
X82270000Y-58610000D02*
X78770000Y-58610000D01*
X117580000Y-70450000D02*
X118100000Y-69930000D01*
X82225000Y-76275000D02*
X83000000Y-76275000D01*
X123040000Y-54970000D02*
X123480000Y-54530000D01*
X111720000Y-83000000D02*
X108200000Y-79480000D01*
X90070000Y-87860000D02*
X90130000Y-87920000D01*
X97575000Y-53400000D02*
X98000000Y-52975000D01*
X83150000Y-74825000D02*
X83150000Y-73380000D01*
X82225000Y-74975000D02*
X83000000Y-74975000D01*
X94836435Y-55147141D02*
X95052859Y-55147141D01*
X111720000Y-78840000D02*
X115750000Y-74810000D01*
X98000000Y-52975000D02*
X98000000Y-48209314D01*
X85460000Y-84390000D02*
X82840000Y-84390000D01*
X90070000Y-85300000D02*
X90070000Y-87860000D01*
X86455000Y-90060000D02*
X86040000Y-90060000D01*
X90070000Y-85300000D02*
X90070000Y-86445000D01*
X95052859Y-55147141D02*
X96800000Y-53400000D01*
X83075000Y-76200000D02*
X83075000Y-75050000D01*
X108200000Y-78191396D02*
X107103604Y-77095000D01*
X78770000Y-58610000D02*
X81620000Y-58610000D01*
X124750000Y-53260000D02*
X123370000Y-54640000D01*
X86815000Y-54658500D02*
X86815000Y-54188600D01*
X86815000Y-54658500D02*
X86815000Y-55128400D01*
X89640305Y-52575000D02*
X90390000Y-51825305D01*
X86815000Y-55128400D02*
X84765100Y-57178300D01*
X84765100Y-57178300D02*
X82311700Y-57178300D01*
X117820000Y-74810000D02*
X117580000Y-74570000D01*
X96800000Y-53400000D02*
X97575000Y-53400000D01*
X121230000Y-58610000D02*
X123040000Y-56800000D01*
X83000000Y-76275000D02*
X83075000Y-76200000D01*
X90390000Y-51825305D02*
X90390000Y-51070000D01*
X83075000Y-75050000D02*
X83000000Y-74975000D01*
X82311700Y-58568300D02*
X82270000Y-58610000D01*
X106515000Y-77095000D02*
X106415000Y-76995000D01*
X82311700Y-69311700D02*
X83150000Y-70150000D01*
X97600000Y-46960000D02*
X97870000Y-46690000D01*
X123040000Y-56800000D02*
X123040000Y-54970000D01*
X117580000Y-74570000D02*
X117580000Y-70450000D01*
X118100000Y-69930000D02*
X119300000Y-69930000D01*
X88428600Y-52575000D02*
X89640305Y-52575000D01*
X83150000Y-73380000D02*
X83150000Y-70150000D01*
X86040000Y-84970000D02*
X85460000Y-84390000D01*
X97870000Y-46690000D02*
X100615000Y-46690000D01*
X86558297Y-60840000D02*
X85545000Y-59826703D01*
X97668144Y-80865740D02*
X97668144Y-80039038D01*
X95583884Y-82950000D02*
X97668144Y-80865740D01*
X92610000Y-82255000D02*
X93305000Y-82950000D01*
X86620500Y-60840000D02*
X86558297Y-60840000D01*
X92610000Y-81230000D02*
X92610000Y-82255000D01*
X85545000Y-59826703D02*
X85545000Y-58341500D01*
X97668144Y-80039038D02*
X97427211Y-79798105D01*
X93305000Y-82950000D02*
X95583884Y-82950000D01*
D37*
X101991700Y-73278300D02*
X100350000Y-73278300D01*
D33*
X100350000Y-73278300D02*
X100086700Y-73278300D01*
X100086700Y-73278300D02*
X99280000Y-74085000D01*
D37*
X102945000Y-72325000D02*
X101991700Y-73278300D01*
D33*
X98785000Y-77031827D02*
X98785000Y-80395000D01*
X98785000Y-80395000D02*
X93880000Y-85300000D01*
X99280000Y-76536827D02*
X98785000Y-77031827D01*
D37*
X102945000Y-71133500D02*
X102945000Y-72325000D01*
X103320000Y-70758500D02*
X102945000Y-71133500D01*
D33*
X99280000Y-74085000D02*
X99280000Y-76536827D01*
X70079695Y-54175000D02*
X69655000Y-54599695D01*
X74075000Y-54175000D02*
X70079695Y-54175000D01*
X107130000Y-72060000D02*
X107620000Y-72550000D01*
X70540000Y-56020000D02*
X71740000Y-57220000D01*
X107130000Y-70758500D02*
X107130000Y-72060000D01*
X69655000Y-54599695D02*
X69655000Y-55200305D01*
X69655000Y-55200305D02*
X70474695Y-56020000D01*
X74700000Y-54800000D02*
X74075000Y-54175000D01*
X70474695Y-56020000D02*
X70540000Y-56020000D01*
X71740000Y-57220000D02*
X71740000Y-69730000D01*
X87039502Y-65340000D02*
X94504314Y-65340000D01*
X86449502Y-64750000D02*
X87039502Y-65340000D01*
X105283300Y-69595300D02*
X105860000Y-70172000D01*
X98759614Y-69595300D02*
X105283300Y-69595300D01*
X78770000Y-54800000D02*
X79550000Y-54020000D01*
X79550000Y-54020000D02*
X81510000Y-54020000D01*
X94504314Y-65340000D02*
X98759614Y-69595300D01*
X105860000Y-70172000D02*
X105860000Y-70758500D01*
X88085000Y-58341500D02*
X88085000Y-57765000D01*
X103930000Y-39055000D02*
X101295000Y-36420000D01*
X103930000Y-40700000D02*
X103930000Y-39055000D01*
X85920000Y-45230000D02*
X85920000Y-46830000D01*
X101295000Y-36420000D02*
X94730000Y-36420000D01*
X88085000Y-57765000D02*
X89420000Y-56430000D01*
X94730000Y-36420000D02*
X85920000Y-45230000D01*
X108400000Y-69620000D02*
X108400000Y-70758500D01*
X107900000Y-51970000D02*
X108690000Y-52760000D01*
X107635305Y-44770000D02*
X108335000Y-45469695D01*
X107900000Y-46211827D02*
X107900000Y-51970000D01*
X108335000Y-45469695D02*
X108335000Y-45776827D01*
X105200000Y-44770000D02*
X107635305Y-44770000D01*
X107140000Y-68360000D02*
X108400000Y-69620000D01*
X108335000Y-45776827D02*
X107900000Y-46211827D01*
D32*
X109125000Y-49195000D02*
X110940000Y-47380000D01*
X109800000Y-50450000D02*
X109300000Y-50450000D01*
X109300000Y-50450000D02*
X109125000Y-50275000D01*
X109125000Y-50275000D02*
X109125000Y-49195000D01*
X108850000Y-47300000D02*
X108625499Y-47524501D01*
X108625499Y-47524501D02*
X108625499Y-51700499D01*
X108625499Y-51700499D02*
X108875000Y-51950000D01*
X108875000Y-51950000D02*
X109800000Y-51950000D01*
D37*
X91065000Y-52478600D02*
X91065000Y-50790405D01*
X96800000Y-52100000D02*
X97475000Y-52100000D01*
X89840000Y-48584595D02*
X91024595Y-47400000D01*
X89840000Y-49565405D02*
X89840000Y-48584595D01*
X97600000Y-48375000D02*
X96625000Y-47400000D01*
X96625000Y-47400000D02*
X94400000Y-47400000D01*
X89355000Y-54188600D02*
X91065000Y-52478600D01*
X91024595Y-47400000D02*
X94400000Y-47400000D01*
X97600000Y-51975000D02*
X97600000Y-48375000D01*
X91065000Y-50790405D02*
X89840000Y-49565405D01*
X97475000Y-52100000D02*
X97600000Y-51975000D01*
D33*
X114150000Y-69930000D02*
X113330000Y-70750000D01*
X107130000Y-76132883D02*
X107446674Y-76449557D01*
X113013604Y-70750000D02*
X110485304Y-73278300D01*
X115230000Y-69930000D02*
X114150000Y-69930000D01*
X107130000Y-73971600D02*
X107130000Y-74441500D01*
X113330000Y-70750000D02*
X113013604Y-70750000D01*
X110485304Y-73278300D02*
X107823300Y-73278300D01*
X107130000Y-74441500D02*
X107130000Y-76132883D01*
X107823300Y-73278300D02*
X107130000Y-73971600D01*
X117130000Y-71715000D02*
X114711195Y-74133805D01*
X105860000Y-74911400D02*
X105860000Y-74441500D01*
X117130000Y-69685000D02*
X117130000Y-71715000D01*
X119300000Y-68660000D02*
X118155000Y-68660000D01*
X118155000Y-68660000D02*
X117130000Y-69685000D01*
X104717018Y-76477581D02*
X104717018Y-76054382D01*
X114711195Y-74133805D02*
X111533805Y-74133805D01*
X104717018Y-76054382D02*
X105860000Y-74911400D01*
D36*
X88085000Y-54658500D02*
X88085000Y-56385000D01*
X88085000Y-56385000D02*
X88100000Y-56400000D01*
D33*
X86815000Y-59568602D02*
X86815000Y-58341500D01*
X86563602Y-59820000D02*
X86815000Y-59568602D01*
X72950000Y-56070000D02*
X72070000Y-55190000D01*
X74700000Y-56070000D02*
X72950000Y-56070000D01*
X111505000Y-70239742D02*
X111505000Y-69336396D01*
X89340000Y-58356500D02*
X89355000Y-58341500D01*
X89340000Y-60070000D02*
X89340000Y-58356500D01*
X111089192Y-70655550D02*
X111505000Y-70239742D01*
X113451396Y-67390000D02*
X115230000Y-67390000D01*
X111505000Y-69336396D02*
X113451396Y-67390000D01*
X109490000Y-57440000D02*
X118170000Y-66120000D01*
X83005000Y-54658500D02*
X83005000Y-53786904D01*
X80760000Y-52630000D02*
X80760000Y-49910000D01*
X82048096Y-52830000D02*
X80960000Y-52830000D01*
X82310000Y-48360000D02*
X87340000Y-48360000D01*
X83005000Y-53786904D02*
X82048096Y-52830000D01*
X107080000Y-57440000D02*
X109490000Y-57440000D01*
X118170000Y-66120000D02*
X119300000Y-66120000D01*
X89340000Y-50360000D02*
X89340000Y-51850000D01*
X80960000Y-52830000D02*
X80760000Y-52630000D01*
X87340000Y-48360000D02*
X89340000Y-50360000D01*
X80760000Y-49910000D02*
X82310000Y-48360000D01*
X83005000Y-59785000D02*
X83005000Y-58341500D01*
X86590000Y-63740000D02*
X86590000Y-63370000D01*
X115230000Y-66120000D02*
X114085000Y-66120000D01*
X110780000Y-69425000D02*
X110780000Y-69609502D01*
X86590000Y-63370000D02*
X83005000Y-59785000D01*
X114085000Y-66120000D02*
X110780000Y-69425000D01*
X97727516Y-79073105D02*
X98032206Y-79377794D01*
X98032206Y-79377794D02*
X98335000Y-79075000D01*
X103620000Y-72570000D02*
X104590000Y-71600000D01*
X98335000Y-79075000D02*
X98335000Y-74393604D01*
X104590000Y-71600000D02*
X104590000Y-70758500D01*
X93880000Y-81230000D02*
X96036895Y-79073105D01*
X96036895Y-79073105D02*
X97727516Y-79073105D01*
X98335000Y-74393604D02*
X100124804Y-72603800D01*
X100124804Y-72603800D02*
X100652306Y-72603800D01*
D38*
X97540000Y-59408000D02*
X97540000Y-58570000D01*
X98945000Y-60813000D02*
X97540000Y-59408000D01*
D36*
X100699208Y-63900792D02*
X100740000Y-63860000D01*
D33*
X70100000Y-73215000D02*
X73985125Y-73215000D01*
X76170125Y-71030000D02*
X76690000Y-71030000D01*
X73985125Y-73215000D02*
X76170125Y-71030000D01*
G04 #@! TA.AperFunction,Conductor*
G36*
X128942539Y-34020185D02*
G01*
X128988294Y-34072989D01*
X128999500Y-34124500D01*
X128999500Y-52875500D01*
X128979815Y-52942539D01*
X128927011Y-52988294D01*
X128875500Y-52999500D01*
X126024760Y-52999500D01*
X126024554Y-52999459D01*
X125999999Y-52999459D01*
X125999900Y-52999500D01*
X125999618Y-52999615D01*
X125999615Y-52999618D01*
X125999459Y-52999999D01*
X125999476Y-53024616D01*
X125999471Y-53024616D01*
X125999500Y-53024759D01*
X125999500Y-72975467D01*
X125999416Y-72975889D01*
X125999459Y-73000000D01*
X125999501Y-73000101D01*
X125999616Y-73000382D01*
X125999618Y-73000384D01*
X125999808Y-73000462D01*
X126000000Y-73000541D01*
X126000002Y-73000539D01*
X126024616Y-73000524D01*
X126024616Y-73000528D01*
X126024760Y-73000500D01*
X128875500Y-73000500D01*
X128942539Y-73020185D01*
X128988294Y-73072989D01*
X128999500Y-73124500D01*
X128999500Y-91875500D01*
X128979815Y-91942539D01*
X128927011Y-91988294D01*
X128875500Y-91999500D01*
X65124500Y-91999500D01*
X65057461Y-91979815D01*
X65011706Y-91927011D01*
X65000500Y-91875500D01*
X65000500Y-82475889D01*
X73999416Y-82475889D01*
X73999459Y-82500000D01*
X73999501Y-82500101D01*
X73999616Y-82500382D01*
X73999618Y-82500384D01*
X73999808Y-82500462D01*
X74000000Y-82500541D01*
X74000002Y-82500539D01*
X74024616Y-82500524D01*
X74024616Y-82500528D01*
X74024760Y-82500500D01*
X74975240Y-82500500D01*
X74975383Y-82500528D01*
X74975384Y-82500524D01*
X74999997Y-82500539D01*
X75000000Y-82500541D01*
X75000383Y-82500383D01*
X75000500Y-82500099D01*
X75000541Y-82500000D01*
X75000540Y-82499997D01*
X75000583Y-82475889D01*
X75000500Y-82475467D01*
X75000500Y-74524759D01*
X75000528Y-74524616D01*
X75000524Y-74524616D01*
X75000539Y-74500002D01*
X75000541Y-74500000D01*
X75000462Y-74499808D01*
X75000384Y-74499618D01*
X75000383Y-74499617D01*
X75000379Y-74499615D01*
X75000097Y-74499499D01*
X75000000Y-74499459D01*
X74975446Y-74499459D01*
X74975240Y-74499500D01*
X74024760Y-74499500D01*
X74024554Y-74499459D01*
X73999999Y-74499459D01*
X73999900Y-74499500D01*
X73999618Y-74499615D01*
X73999615Y-74499618D01*
X73999459Y-74499999D01*
X73999476Y-74524616D01*
X73999471Y-74524616D01*
X73999500Y-74524759D01*
X73999500Y-82475467D01*
X73999416Y-82475889D01*
X65000500Y-82475889D01*
X65000500Y-73124500D01*
X65020185Y-73057461D01*
X65072989Y-73011706D01*
X65124500Y-73000500D01*
X67940500Y-73000500D01*
X68007539Y-73020185D01*
X68053294Y-73072989D01*
X68064500Y-73124500D01*
X68064500Y-74840372D01*
X68064028Y-74851180D01*
X68060735Y-74888807D01*
X68070512Y-74925296D01*
X68072853Y-74935852D01*
X68079599Y-74974107D01*
X68089829Y-74998803D01*
X68090446Y-74999684D01*
X68112112Y-75030627D01*
X68117915Y-75039736D01*
X68136806Y-75072455D01*
X68165742Y-75096735D01*
X68173718Y-75104044D01*
X69511992Y-76442318D01*
X69545477Y-76503641D01*
X69540493Y-76573333D01*
X69511992Y-76617680D01*
X69386491Y-76743181D01*
X69325168Y-76776666D01*
X69298811Y-76779500D01*
X69124160Y-76779500D01*
X69124145Y-76779500D01*
X69120100Y-76779501D01*
X69116085Y-76780029D01*
X69116077Y-76780030D01*
X69070511Y-76786028D01*
X68961682Y-76836776D01*
X68876775Y-76921683D01*
X68826028Y-77030512D01*
X68820254Y-77074374D01*
X68819500Y-77080099D01*
X68819500Y-77084151D01*
X68819500Y-77084152D01*
X68819500Y-77435840D01*
X68819500Y-77435855D01*
X68819501Y-77439900D01*
X68820029Y-77443916D01*
X68820030Y-77443921D01*
X68826028Y-77489488D01*
X68876776Y-77598317D01*
X68961683Y-77683224D01*
X69012430Y-77706887D01*
X69070513Y-77733972D01*
X69120099Y-77740500D01*
X69539900Y-77740499D01*
X69589487Y-77733972D01*
X69698316Y-77683224D01*
X69783224Y-77598316D01*
X69833972Y-77489487D01*
X69840500Y-77439901D01*
X69840499Y-77261187D01*
X69860183Y-77194148D01*
X69876813Y-77173512D01*
X69972321Y-77078004D01*
X70033641Y-77044521D01*
X70103333Y-77049505D01*
X70147680Y-77078006D01*
X70183181Y-77113507D01*
X70216666Y-77174830D01*
X70219500Y-77201187D01*
X70219500Y-77375839D01*
X70219501Y-77375847D01*
X70219501Y-77379900D01*
X70220029Y-77383915D01*
X70220030Y-77383922D01*
X70226028Y-77429488D01*
X70276776Y-77538317D01*
X70361683Y-77623224D01*
X70412431Y-77646887D01*
X70470513Y-77673972D01*
X70520099Y-77680500D01*
X70939900Y-77680499D01*
X70989487Y-77673972D01*
X71098316Y-77623224D01*
X71183224Y-77538316D01*
X71233972Y-77429487D01*
X71240500Y-77379901D01*
X71240499Y-77020100D01*
X71233972Y-76970513D01*
X71183224Y-76861684D01*
X71183223Y-76861683D01*
X71183223Y-76861682D01*
X71098316Y-76776775D01*
X70989487Y-76726028D01*
X70943921Y-76720029D01*
X70943917Y-76720028D01*
X70939901Y-76719500D01*
X70935848Y-76719500D01*
X70761188Y-76719500D01*
X70694149Y-76699815D01*
X70673507Y-76683181D01*
X70404043Y-76413717D01*
X70396734Y-76405741D01*
X70385629Y-76392507D01*
X70372455Y-76376806D01*
X70372454Y-76376805D01*
X70371766Y-76375985D01*
X70348316Y-76357990D01*
X68751819Y-74761492D01*
X68718334Y-74700169D01*
X68715500Y-74673811D01*
X68715500Y-74001059D01*
X68735185Y-73934020D01*
X68787989Y-73888265D01*
X68857147Y-73878321D01*
X68913134Y-73901289D01*
X68927849Y-73912149D01*
X68927850Y-73912150D01*
X69037118Y-73992793D01*
X69165301Y-74037646D01*
X69195734Y-74040500D01*
X69198627Y-74040500D01*
X71001373Y-74040500D01*
X71004266Y-74040500D01*
X71034699Y-74037646D01*
X71162882Y-73992793D01*
X71162882Y-73992792D01*
X71162884Y-73992792D01*
X71272150Y-73912150D01*
X71352792Y-73802884D01*
X71357576Y-73789213D01*
X71397646Y-73674699D01*
X71399688Y-73652923D01*
X71425545Y-73588015D01*
X71482390Y-73547389D01*
X71523146Y-73540500D01*
X73965498Y-73540500D01*
X73976305Y-73540971D01*
X74013932Y-73544264D01*
X74050449Y-73534478D01*
X74060955Y-73532149D01*
X74098170Y-73525588D01*
X74098172Y-73525586D01*
X74099237Y-73525399D01*
X74123924Y-73515173D01*
X74124807Y-73514554D01*
X74124809Y-73514554D01*
X74155750Y-73492887D01*
X74164847Y-73487091D01*
X74197580Y-73468194D01*
X74221873Y-73439241D01*
X74229161Y-73431288D01*
X76258631Y-71401818D01*
X76319955Y-71368333D01*
X76346313Y-71365499D01*
X77132445Y-71365499D01*
X77132446Y-71365499D01*
X77193292Y-71353397D01*
X77262292Y-71307292D01*
X77271897Y-71292916D01*
X77325507Y-71248112D01*
X77394832Y-71239403D01*
X77457860Y-71269557D01*
X77478100Y-71292914D01*
X77487707Y-71307291D01*
X77487708Y-71307292D01*
X77556708Y-71353397D01*
X77617553Y-71365500D01*
X78365500Y-71365499D01*
X78432539Y-71385183D01*
X78478294Y-71437987D01*
X78489500Y-71489499D01*
X78489500Y-71570500D01*
X78469815Y-71637539D01*
X78417011Y-71683294D01*
X78365500Y-71694500D01*
X77617554Y-71694500D01*
X77556707Y-71706603D01*
X77487707Y-71752707D01*
X77441602Y-71821708D01*
X77429500Y-71882552D01*
X77429500Y-72148810D01*
X77409815Y-72215849D01*
X77393181Y-72236491D01*
X77183714Y-72445958D01*
X77175741Y-72453264D01*
X77146806Y-72477544D01*
X77127914Y-72510264D01*
X77122106Y-72519380D01*
X77099831Y-72551193D01*
X77089597Y-72575899D01*
X77082852Y-72614148D01*
X77080512Y-72624704D01*
X77070735Y-72661191D01*
X77074028Y-72698817D01*
X77074500Y-72709626D01*
X77074500Y-72972597D01*
X77054815Y-73039636D01*
X77038181Y-73060278D01*
X76976775Y-73121683D01*
X76926028Y-73230512D01*
X76920130Y-73275316D01*
X76919500Y-73280099D01*
X76919500Y-73284151D01*
X76919500Y-73284152D01*
X76919500Y-73695840D01*
X76919500Y-73695855D01*
X76919501Y-73699900D01*
X76920029Y-73703916D01*
X76920030Y-73703921D01*
X76926028Y-73749488D01*
X76976776Y-73858317D01*
X77061683Y-73943224D01*
X77112430Y-73966887D01*
X77170513Y-73993972D01*
X77220099Y-74000500D01*
X77579900Y-74000499D01*
X77629487Y-73993972D01*
X77738316Y-73943224D01*
X77823224Y-73858316D01*
X77873972Y-73749487D01*
X77880500Y-73699901D01*
X77880499Y-73280100D01*
X77873972Y-73230513D01*
X77823224Y-73121684D01*
X77823223Y-73121683D01*
X77823223Y-73121682D01*
X77761819Y-73060278D01*
X77728334Y-72998955D01*
X77725500Y-72972597D01*
X77725500Y-72876186D01*
X77745185Y-72809147D01*
X77761814Y-72788510D01*
X78148506Y-72401817D01*
X78209830Y-72368333D01*
X78236188Y-72365499D01*
X78502442Y-72365499D01*
X78502446Y-72365499D01*
X78539317Y-72358165D01*
X78574304Y-72356256D01*
X78608682Y-72359264D01*
X78645199Y-72349478D01*
X78655705Y-72347149D01*
X78692920Y-72340588D01*
X78692922Y-72340586D01*
X78693987Y-72340399D01*
X78718674Y-72330173D01*
X78719557Y-72329554D01*
X78719559Y-72329554D01*
X78750500Y-72307887D01*
X78759597Y-72302091D01*
X78792330Y-72283194D01*
X78792331Y-72283192D01*
X78811268Y-72272260D01*
X78811968Y-72273473D01*
X78844132Y-72252070D01*
X78913992Y-72250954D01*
X78956449Y-72272098D01*
X78961374Y-72275877D01*
X78972659Y-72284536D01*
X79118738Y-72345044D01*
X79254860Y-72362964D01*
X79275499Y-72365682D01*
X79275499Y-72365681D01*
X79275500Y-72365682D01*
X79432262Y-72345044D01*
X79503049Y-72315722D01*
X79572516Y-72308254D01*
X79634996Y-72339529D01*
X79670648Y-72399618D01*
X79674500Y-72430284D01*
X79674500Y-73330372D01*
X79674028Y-73341180D01*
X79670735Y-73378807D01*
X79680512Y-73415296D01*
X79682853Y-73425852D01*
X79689599Y-73464107D01*
X79699829Y-73488803D01*
X79700446Y-73489684D01*
X79722112Y-73520627D01*
X79727915Y-73529736D01*
X79741809Y-73553800D01*
X79746806Y-73562455D01*
X79771948Y-73583552D01*
X79775742Y-73586735D01*
X79783718Y-73594044D01*
X79939162Y-73749488D01*
X80063181Y-73873506D01*
X80096666Y-73934829D01*
X80099500Y-73961187D01*
X80099500Y-74425500D01*
X80079815Y-74492539D01*
X80027011Y-74538294D01*
X79975500Y-74549500D01*
X79030252Y-74549500D01*
X79006046Y-74554314D01*
X78959249Y-74563623D01*
X78889658Y-74557394D01*
X78859573Y-74540381D01*
X78722840Y-74435463D01*
X78576762Y-74374956D01*
X78420000Y-74354317D01*
X78263237Y-74374956D01*
X78117159Y-74435463D01*
X77991717Y-74531717D01*
X77895463Y-74657159D01*
X77834956Y-74803237D01*
X77814317Y-74960000D01*
X77834956Y-75116762D01*
X77895463Y-75262840D01*
X77991717Y-75388282D01*
X78087970Y-75462139D01*
X78117159Y-75484536D01*
X78166979Y-75505172D01*
X78202371Y-75519832D01*
X78256774Y-75563673D01*
X78278839Y-75629967D01*
X78261560Y-75697666D01*
X78242599Y-75722074D01*
X77636502Y-76328171D01*
X77575179Y-76361656D01*
X77505487Y-76356672D01*
X77449554Y-76314800D01*
X77425137Y-76249336D01*
X77439989Y-76181063D01*
X77450439Y-76165011D01*
X77492236Y-76110541D01*
X77552744Y-75964462D01*
X77573382Y-75807700D01*
X77552744Y-75650938D01*
X77492236Y-75504859D01*
X77473315Y-75480200D01*
X77395982Y-75379417D01*
X77270540Y-75283163D01*
X77124462Y-75222656D01*
X76967699Y-75202017D01*
X76810937Y-75222656D01*
X76664859Y-75283163D01*
X76539417Y-75379417D01*
X76443163Y-75504859D01*
X76382656Y-75650937D01*
X76362017Y-75807699D01*
X76382656Y-75964462D01*
X76443163Y-76110540D01*
X76534308Y-76229322D01*
X76539418Y-76235982D01*
X76591388Y-76275860D01*
X76593686Y-76277623D01*
X76634889Y-76334050D01*
X76642200Y-76375999D01*
X76642200Y-81718072D01*
X76641728Y-81728880D01*
X76638435Y-81766507D01*
X76648212Y-81802996D01*
X76650553Y-81813552D01*
X76657299Y-81851807D01*
X76667529Y-81876503D01*
X76668146Y-81877384D01*
X76689812Y-81908327D01*
X76695615Y-81917436D01*
X76714506Y-81950155D01*
X76743442Y-81974435D01*
X76751418Y-81981744D01*
X78317988Y-83548314D01*
X78351473Y-83609637D01*
X78353246Y-83652180D01*
X78344317Y-83719999D01*
X78364956Y-83876762D01*
X78425463Y-84022840D01*
X78521717Y-84148282D01*
X78586879Y-84198282D01*
X78647159Y-84244536D01*
X78793238Y-84305044D01*
X78950000Y-84325682D01*
X79106762Y-84305044D01*
X79252841Y-84244536D01*
X79378282Y-84148282D01*
X79474536Y-84022841D01*
X79535044Y-83876762D01*
X79538449Y-83850892D01*
X79566714Y-83786997D01*
X79625038Y-83748525D01*
X79694903Y-83747692D01*
X79749069Y-83779396D01*
X79765955Y-83796282D01*
X79773263Y-83804256D01*
X79797545Y-83833194D01*
X79809193Y-83839919D01*
X79830261Y-83852083D01*
X79839382Y-83857894D01*
X79871195Y-83880169D01*
X79895901Y-83890402D01*
X79896954Y-83890587D01*
X79896955Y-83890588D01*
X79934143Y-83897145D01*
X79944701Y-83899484D01*
X79981193Y-83909263D01*
X79981193Y-83909262D01*
X79981194Y-83909263D01*
X80002086Y-83907435D01*
X80018811Y-83905971D01*
X80029618Y-83905500D01*
X82205130Y-83905500D01*
X82272169Y-83925185D01*
X82317924Y-83977989D01*
X82327868Y-84047147D01*
X82319691Y-84076952D01*
X82254956Y-84233237D01*
X82234317Y-84390000D01*
X82254956Y-84546762D01*
X82315463Y-84692840D01*
X82397700Y-84800014D01*
X82422894Y-84865183D01*
X82408856Y-84933628D01*
X82360042Y-84983617D01*
X82299324Y-84999500D01*
X77524760Y-84999500D01*
X77524554Y-84999459D01*
X77499999Y-84999459D01*
X77499900Y-84999500D01*
X77499618Y-84999615D01*
X77499615Y-84999618D01*
X77499459Y-84999999D01*
X77499476Y-85024616D01*
X77499471Y-85024616D01*
X77499500Y-85024759D01*
X77499500Y-85975467D01*
X77499416Y-85975889D01*
X77499459Y-86000000D01*
X77499501Y-86000101D01*
X77499616Y-86000382D01*
X77499618Y-86000384D01*
X77499808Y-86000462D01*
X77500000Y-86000541D01*
X77500002Y-86000539D01*
X77524616Y-86000524D01*
X77524616Y-86000528D01*
X77524760Y-86000500D01*
X85475240Y-86000500D01*
X85475383Y-86000528D01*
X85475384Y-86000524D01*
X85499997Y-86000539D01*
X85500000Y-86000541D01*
X85500383Y-86000383D01*
X85500383Y-86000381D01*
X85502797Y-85997968D01*
X85564112Y-85964467D01*
X85633804Y-85969434D01*
X85689748Y-86011292D01*
X85714182Y-86076750D01*
X85714500Y-86085627D01*
X85714500Y-90117395D01*
X85720681Y-90134379D01*
X85726274Y-90155251D01*
X85729412Y-90173045D01*
X85738447Y-90188695D01*
X85747579Y-90208279D01*
X85753760Y-90225260D01*
X85765379Y-90239107D01*
X85777769Y-90256802D01*
X85786806Y-90272455D01*
X85800654Y-90284075D01*
X85815932Y-90299354D01*
X85827546Y-90313195D01*
X85843188Y-90322226D01*
X85860894Y-90334623D01*
X85869907Y-90342185D01*
X85874739Y-90346240D01*
X85891726Y-90352422D01*
X85911309Y-90361555D01*
X85926955Y-90370588D01*
X85944743Y-90373724D01*
X85965627Y-90379319D01*
X85982606Y-90385500D01*
X86011525Y-90385500D01*
X86435373Y-90385500D01*
X86446180Y-90385971D01*
X86483807Y-90389264D01*
X86520324Y-90379478D01*
X86530830Y-90377149D01*
X86568045Y-90370588D01*
X86568047Y-90370586D01*
X86569112Y-90370399D01*
X86593799Y-90360173D01*
X86594682Y-90359554D01*
X86594684Y-90359554D01*
X86625625Y-90337887D01*
X86634722Y-90332091D01*
X86667455Y-90313194D01*
X86691748Y-90284241D01*
X86699036Y-90276288D01*
X89339528Y-87635796D01*
X89400850Y-87602313D01*
X89470542Y-87607297D01*
X89526475Y-87649169D01*
X89550892Y-87714633D01*
X89545669Y-87746866D01*
X89547087Y-87747053D01*
X89524317Y-87920000D01*
X89544956Y-88076762D01*
X89605463Y-88222840D01*
X89701717Y-88348282D01*
X89827158Y-88444535D01*
X89827159Y-88444536D01*
X89973238Y-88505044D01*
X90130000Y-88525682D01*
X90286762Y-88505044D01*
X90432841Y-88444536D01*
X90558282Y-88348282D01*
X90654536Y-88222841D01*
X90715044Y-88076762D01*
X90735682Y-87920000D01*
X90715044Y-87763238D01*
X90654536Y-87617159D01*
X90643144Y-87602313D01*
X90558282Y-87491717D01*
X90444014Y-87404037D01*
X90402811Y-87347609D01*
X90395500Y-87305661D01*
X90395500Y-87010043D01*
X90415185Y-86943004D01*
X90467989Y-86897249D01*
X90495299Y-86888428D01*
X90518231Y-86883867D01*
X90584552Y-86839552D01*
X90601898Y-86813591D01*
X90655510Y-86768787D01*
X90724835Y-86760080D01*
X90787863Y-86790234D01*
X90808102Y-86813592D01*
X90825448Y-86839552D01*
X90891769Y-86883867D01*
X90950251Y-86895500D01*
X90950252Y-86895500D01*
X91398812Y-86895500D01*
X91465851Y-86915185D01*
X91486493Y-86931819D01*
X92630950Y-88076276D01*
X92638258Y-88084250D01*
X92662545Y-88113194D01*
X92686594Y-88127079D01*
X92695256Y-88132080D01*
X92704379Y-88137892D01*
X92735316Y-88159554D01*
X92735317Y-88159554D01*
X92736198Y-88160171D01*
X92760891Y-88170400D01*
X92761954Y-88170587D01*
X92761955Y-88170588D01*
X92799143Y-88177145D01*
X92809701Y-88179485D01*
X92846193Y-88189264D01*
X92883823Y-88185971D01*
X92894630Y-88185500D01*
X93073812Y-88185500D01*
X93140851Y-88205185D01*
X93161493Y-88221819D01*
X93217988Y-88278314D01*
X93251473Y-88339637D01*
X93253246Y-88382180D01*
X93244317Y-88449999D01*
X93264956Y-88606762D01*
X93325463Y-88752840D01*
X93421717Y-88878282D01*
X93547159Y-88974535D01*
X93547159Y-88974536D01*
X93693238Y-89035044D01*
X93850000Y-89055682D01*
X94006762Y-89035044D01*
X94152841Y-88974536D01*
X94278282Y-88878282D01*
X94374536Y-88752841D01*
X94435044Y-88606762D01*
X94455682Y-88450000D01*
X94435044Y-88293238D01*
X94374536Y-88147159D01*
X94348474Y-88113194D01*
X94278282Y-88021717D01*
X94152840Y-87925463D01*
X94006762Y-87864956D01*
X93849999Y-87844317D01*
X93782180Y-87853246D01*
X93713144Y-87842480D01*
X93678314Y-87817988D01*
X93504043Y-87643717D01*
X93496734Y-87635741D01*
X93472454Y-87606805D01*
X93439736Y-87587915D01*
X93430627Y-87582112D01*
X93414861Y-87571073D01*
X93371239Y-87516498D01*
X93364046Y-87446999D01*
X93395568Y-87384645D01*
X93455798Y-87349231D01*
X93485987Y-87345500D01*
X99880373Y-87345500D01*
X99891180Y-87345971D01*
X99928807Y-87349264D01*
X99965324Y-87339478D01*
X99975830Y-87337149D01*
X100013045Y-87330588D01*
X100013047Y-87330586D01*
X100014112Y-87330399D01*
X100038799Y-87320173D01*
X100039682Y-87319554D01*
X100039684Y-87319554D01*
X100070625Y-87297887D01*
X100079722Y-87292091D01*
X100112455Y-87273194D01*
X100136748Y-87244241D01*
X100144036Y-87236288D01*
X101404436Y-85975889D01*
X108499416Y-85975889D01*
X108499459Y-86000000D01*
X108499501Y-86000101D01*
X108499616Y-86000382D01*
X108499618Y-86000384D01*
X108499808Y-86000462D01*
X108500000Y-86000541D01*
X108500002Y-86000539D01*
X108524616Y-86000524D01*
X108524616Y-86000528D01*
X108524760Y-86000500D01*
X116475240Y-86000500D01*
X116475383Y-86000528D01*
X116475384Y-86000524D01*
X116499997Y-86000539D01*
X116500000Y-86000541D01*
X116500383Y-86000383D01*
X116500500Y-86000099D01*
X116500541Y-86000000D01*
X116500540Y-85999997D01*
X116500583Y-85975889D01*
X116500500Y-85975467D01*
X116500500Y-85024759D01*
X116500528Y-85024616D01*
X116500524Y-85024616D01*
X116500539Y-85000002D01*
X116500541Y-85000000D01*
X116500462Y-84999808D01*
X116500384Y-84999618D01*
X116500383Y-84999617D01*
X116500379Y-84999615D01*
X116500097Y-84999499D01*
X116500000Y-84999459D01*
X116475446Y-84999459D01*
X116475240Y-84999500D01*
X108524760Y-84999500D01*
X108524554Y-84999459D01*
X108499999Y-84999459D01*
X108499900Y-84999500D01*
X108499618Y-84999615D01*
X108499615Y-84999618D01*
X108499459Y-84999999D01*
X108499476Y-85024616D01*
X108499471Y-85024616D01*
X108499500Y-85024759D01*
X108499500Y-85975467D01*
X108499416Y-85975889D01*
X101404436Y-85975889D01*
X102288506Y-85091819D01*
X102349830Y-85058334D01*
X102376188Y-85055500D01*
X107430373Y-85055500D01*
X107441180Y-85055971D01*
X107478807Y-85059264D01*
X107515324Y-85049478D01*
X107525830Y-85047149D01*
X107563045Y-85040588D01*
X107563047Y-85040586D01*
X107564112Y-85040399D01*
X107588799Y-85030173D01*
X107589682Y-85029554D01*
X107589684Y-85029554D01*
X107620625Y-85007887D01*
X107629722Y-85002091D01*
X107662455Y-84983194D01*
X107686748Y-84954241D01*
X107694024Y-84946300D01*
X108023508Y-84616816D01*
X108084830Y-84583334D01*
X108111188Y-84580500D01*
X109619749Y-84580500D01*
X109648989Y-84574683D01*
X109678231Y-84568867D01*
X109744552Y-84524552D01*
X109788867Y-84458231D01*
X109800500Y-84399748D01*
X109800500Y-82560252D01*
X109788867Y-82501769D01*
X109787351Y-82499500D01*
X109744552Y-82435447D01*
X109678230Y-82391132D01*
X109619749Y-82379500D01*
X109619748Y-82379500D01*
X108111188Y-82379500D01*
X108044149Y-82359815D01*
X108023507Y-82343181D01*
X107626819Y-81946492D01*
X107593334Y-81885169D01*
X107590500Y-81858811D01*
X107590500Y-78563435D01*
X107593139Y-78537988D01*
X107596035Y-78524171D01*
X107596037Y-78524170D01*
X107620042Y-78409685D01*
X107616599Y-78382066D01*
X107627840Y-78313110D01*
X107674579Y-78261175D01*
X107741976Y-78242753D01*
X107808634Y-78263693D01*
X107827328Y-78279050D01*
X107838180Y-78289902D01*
X107871665Y-78351225D01*
X107874499Y-78377583D01*
X107874499Y-79460377D01*
X107874027Y-79471182D01*
X107871921Y-79495264D01*
X107870736Y-79508807D01*
X107877858Y-79535387D01*
X107880513Y-79545297D01*
X107882853Y-79555852D01*
X107889599Y-79594107D01*
X107899829Y-79618803D01*
X107900446Y-79619684D01*
X107922112Y-79650627D01*
X107927915Y-79659736D01*
X107946806Y-79692455D01*
X107975742Y-79716735D01*
X107983717Y-79724044D01*
X111358182Y-83098508D01*
X111391666Y-83159829D01*
X111394500Y-83186187D01*
X111394500Y-83201699D01*
X111374815Y-83268738D01*
X111345988Y-83300074D01*
X111291717Y-83341718D01*
X111195463Y-83467159D01*
X111134956Y-83613237D01*
X111114317Y-83770000D01*
X111134956Y-83926762D01*
X111195463Y-84072840D01*
X111291717Y-84198282D01*
X111386662Y-84271135D01*
X111417159Y-84294536D01*
X111563238Y-84355044D01*
X111720000Y-84375682D01*
X111876762Y-84355044D01*
X112022841Y-84294536D01*
X112148282Y-84198282D01*
X112244536Y-84072841D01*
X112305044Y-83926762D01*
X112325682Y-83770000D01*
X112305044Y-83613238D01*
X112244536Y-83467159D01*
X112206161Y-83417147D01*
X112148281Y-83341716D01*
X112094012Y-83300074D01*
X112052810Y-83243646D01*
X112045499Y-83201703D01*
X112045499Y-83019629D01*
X112045971Y-83008820D01*
X112046045Y-83007965D01*
X112049264Y-82971193D01*
X112049263Y-82971190D01*
X112049357Y-82970121D01*
X112045500Y-82940821D01*
X112045500Y-82475889D01*
X118999416Y-82475889D01*
X118999459Y-82500000D01*
X118999501Y-82500101D01*
X118999616Y-82500382D01*
X118999618Y-82500384D01*
X118999808Y-82500462D01*
X119000000Y-82500541D01*
X119000002Y-82500539D01*
X119024616Y-82500524D01*
X119024616Y-82500528D01*
X119024760Y-82500500D01*
X119975240Y-82500500D01*
X119975383Y-82500528D01*
X119975384Y-82500524D01*
X119999997Y-82500539D01*
X120000000Y-82500541D01*
X120000383Y-82500383D01*
X120000385Y-82500379D01*
X120006893Y-82485031D01*
X120000521Y-82464747D01*
X120000499Y-82462417D01*
X120000499Y-74508647D01*
X120000541Y-74500003D01*
X120000540Y-74500001D01*
X120000541Y-74500000D01*
X120000383Y-74499617D01*
X120000379Y-74499615D01*
X120000097Y-74499499D01*
X120000000Y-74499459D01*
X119975446Y-74499459D01*
X119975240Y-74499500D01*
X119024760Y-74499500D01*
X119024554Y-74499459D01*
X118999999Y-74499459D01*
X118999900Y-74499500D01*
X118999618Y-74499615D01*
X118999615Y-74499618D01*
X118999459Y-74499999D01*
X118999476Y-74524616D01*
X118999471Y-74524616D01*
X118999500Y-74524759D01*
X118999500Y-82475467D01*
X118999416Y-82475889D01*
X112045500Y-82475889D01*
X112045500Y-81080666D01*
X112065185Y-81013627D01*
X112117989Y-80967872D01*
X112187147Y-80957928D01*
X112250703Y-80986953D01*
X112278330Y-81021237D01*
X112312774Y-81084315D01*
X112484261Y-81313395D01*
X112686605Y-81515739D01*
X112739720Y-81555500D01*
X112915686Y-81687227D01*
X112980286Y-81722501D01*
X113166839Y-81824367D01*
X113434954Y-81924369D01*
X113434957Y-81924369D01*
X113434958Y-81924370D01*
X113481691Y-81934536D01*
X113714572Y-81985196D01*
X114000000Y-82005610D01*
X114285428Y-81985196D01*
X114565046Y-81924369D01*
X114833161Y-81824367D01*
X115084315Y-81687226D01*
X115313395Y-81515739D01*
X115515739Y-81313395D01*
X115687226Y-81084315D01*
X115824367Y-80833161D01*
X115924369Y-80565046D01*
X115985196Y-80285428D01*
X116005610Y-80000000D01*
X115985196Y-79714572D01*
X115924369Y-79434954D01*
X115824367Y-79166839D01*
X115726447Y-78987513D01*
X115687227Y-78915686D01*
X115633938Y-78844500D01*
X115515739Y-78686605D01*
X115313395Y-78484261D01*
X115158257Y-78368126D01*
X115084313Y-78312772D01*
X114833163Y-78175634D01*
X114833162Y-78175633D01*
X114833161Y-78175633D01*
X114640530Y-78103785D01*
X114565041Y-78075629D01*
X114285429Y-78014804D01*
X114000000Y-77994389D01*
X113714570Y-78014804D01*
X113434955Y-78075630D01*
X113187142Y-78168060D01*
X113117451Y-78173044D01*
X113056128Y-78139559D01*
X113022643Y-78078236D01*
X113027627Y-78008544D01*
X113056126Y-77964199D01*
X115848506Y-75171819D01*
X115909830Y-75138334D01*
X115936188Y-75135500D01*
X117760824Y-75135500D01*
X117790122Y-75139356D01*
X117791191Y-75139262D01*
X117791193Y-75139263D01*
X117828811Y-75135971D01*
X117839618Y-75135500D01*
X117848471Y-75135500D01*
X117848475Y-75135500D01*
X117857212Y-75133959D01*
X117867887Y-75132552D01*
X117905545Y-75129259D01*
X117905549Y-75129257D01*
X117906625Y-75129163D01*
X117932105Y-75121129D01*
X117933040Y-75120588D01*
X117933045Y-75120588D01*
X117965777Y-75101689D01*
X117975332Y-75096715D01*
X118009579Y-75080747D01*
X118009580Y-75080745D01*
X118010557Y-75080290D01*
X118031760Y-75064020D01*
X118032451Y-75063196D01*
X118032455Y-75063194D01*
X118056743Y-75034247D01*
X118064043Y-75026282D01*
X118070451Y-75019874D01*
X118090747Y-74999579D01*
X118090747Y-74999577D01*
X118091511Y-74998814D01*
X118105870Y-74976277D01*
X118106660Y-74974107D01*
X118119158Y-74939764D01*
X118123290Y-74929789D01*
X118139259Y-74895546D01*
X118139259Y-74895541D01*
X118139714Y-74894567D01*
X118145500Y-74868470D01*
X118145500Y-74829618D01*
X118145972Y-74818810D01*
X118149357Y-74780120D01*
X118145867Y-74753614D01*
X118135816Y-74726000D01*
X118132578Y-74717107D01*
X118129334Y-74706819D01*
X118119554Y-74670316D01*
X118119551Y-74670312D01*
X118119273Y-74669273D01*
X118106932Y-74645566D01*
X118106240Y-74644742D01*
X118106240Y-74644740D01*
X118081950Y-74615792D01*
X118075385Y-74607236D01*
X118070298Y-74599971D01*
X118064039Y-74593712D01*
X118056729Y-74585735D01*
X118031766Y-74555984D01*
X118008317Y-74537990D01*
X117941819Y-74471492D01*
X117908334Y-74410169D01*
X117905500Y-74383811D01*
X117905500Y-74263262D01*
X117925185Y-74196223D01*
X117954014Y-74164886D01*
X118027782Y-74108282D01*
X118071231Y-74051658D01*
X118124036Y-73982841D01*
X118184544Y-73836762D01*
X118205182Y-73680000D01*
X118184544Y-73523238D01*
X118124036Y-73377159D01*
X118098956Y-73344474D01*
X118027781Y-73251716D01*
X117954013Y-73195111D01*
X117912810Y-73138683D01*
X117905500Y-73096736D01*
X117905500Y-70636188D01*
X117925185Y-70569149D01*
X117941823Y-70548503D01*
X117953512Y-70536815D01*
X118014836Y-70503333D01*
X118041189Y-70500500D01*
X120714749Y-70500500D01*
X120743989Y-70494683D01*
X120773231Y-70488867D01*
X120839552Y-70444552D01*
X120883867Y-70378231D01*
X120885932Y-70367849D01*
X120888427Y-70355308D01*
X120920812Y-70293397D01*
X120981528Y-70258823D01*
X121010044Y-70255500D01*
X121533334Y-70255500D01*
X121600373Y-70275185D01*
X121631710Y-70304014D01*
X121711717Y-70408282D01*
X121801423Y-70477115D01*
X121837159Y-70504536D01*
X121983238Y-70565044D01*
X122140000Y-70585682D01*
X122296762Y-70565044D01*
X122442841Y-70504536D01*
X122568282Y-70408282D01*
X122664536Y-70282841D01*
X122725044Y-70136762D01*
X122745682Y-69980000D01*
X122725044Y-69823238D01*
X122664536Y-69677159D01*
X122641247Y-69646808D01*
X122568282Y-69551717D01*
X122442840Y-69455463D01*
X122296762Y-69394956D01*
X122140000Y-69374317D01*
X121983237Y-69394956D01*
X121837159Y-69455463D01*
X121711718Y-69551716D01*
X121708444Y-69555985D01*
X121652017Y-69597189D01*
X121610067Y-69604500D01*
X121010044Y-69604500D01*
X120943005Y-69584815D01*
X120897250Y-69532011D01*
X120888427Y-69504692D01*
X120883867Y-69481769D01*
X120839552Y-69415448D01*
X120830468Y-69409378D01*
X120813591Y-69398101D01*
X120768787Y-69344490D01*
X120760080Y-69275165D01*
X120790234Y-69212137D01*
X120813592Y-69191898D01*
X120818845Y-69188388D01*
X120839552Y-69174552D01*
X120883867Y-69108231D01*
X120895500Y-69049748D01*
X120895500Y-68270252D01*
X120895331Y-68269404D01*
X120883867Y-68211769D01*
X120839552Y-68145448D01*
X120813592Y-68128102D01*
X120768787Y-68074490D01*
X120760080Y-68005165D01*
X120790234Y-67942137D01*
X120813592Y-67921898D01*
X120839552Y-67904552D01*
X120883867Y-67838231D01*
X120895500Y-67779748D01*
X120895500Y-67331187D01*
X120915185Y-67264149D01*
X120931819Y-67243507D01*
X123256517Y-64918809D01*
X125586296Y-62589029D01*
X125594250Y-62581740D01*
X125623194Y-62557455D01*
X125642102Y-62524703D01*
X125647878Y-62515638D01*
X125669553Y-62484684D01*
X125669553Y-62484681D01*
X125670171Y-62483800D01*
X125680400Y-62459105D01*
X125680586Y-62458047D01*
X125680588Y-62458045D01*
X125687150Y-62420824D01*
X125689480Y-62410312D01*
X125699263Y-62373807D01*
X125695972Y-62336187D01*
X125695500Y-62325380D01*
X125695500Y-56839626D01*
X125695972Y-56828818D01*
X125697608Y-56810115D01*
X125699264Y-56791193D01*
X125699259Y-56791176D01*
X125689487Y-56754706D01*
X125687145Y-56744143D01*
X125683022Y-56720759D01*
X125680588Y-56706955D01*
X125680587Y-56706954D01*
X125680400Y-56705891D01*
X125670171Y-56681198D01*
X125669554Y-56680317D01*
X125669554Y-56680316D01*
X125647892Y-56649379D01*
X125642080Y-56640256D01*
X125623194Y-56607544D01*
X125594255Y-56583262D01*
X125586280Y-56575954D01*
X124622011Y-55611685D01*
X124588526Y-55550362D01*
X124586753Y-55507818D01*
X124595526Y-55441182D01*
X124595682Y-55440000D01*
X124575044Y-55283238D01*
X124514536Y-55137159D01*
X124513958Y-55136406D01*
X124418282Y-55011717D01*
X124292840Y-54915463D01*
X124146762Y-54854956D01*
X123989998Y-54834317D01*
X123944502Y-54840307D01*
X123875467Y-54829541D01*
X123823212Y-54783160D01*
X123804327Y-54715891D01*
X123824808Y-54649091D01*
X123840632Y-54629692D01*
X124966290Y-53504034D01*
X124974258Y-53496734D01*
X125003192Y-53472457D01*
X125003192Y-53472456D01*
X125003194Y-53472455D01*
X125022091Y-53439722D01*
X125027887Y-53430625D01*
X125049554Y-53399684D01*
X125049554Y-53399682D01*
X125050173Y-53398799D01*
X125060399Y-53374112D01*
X125060586Y-53373047D01*
X125060588Y-53373045D01*
X125067149Y-53335830D01*
X125069479Y-53325319D01*
X125076650Y-53298559D01*
X125113015Y-53238903D01*
X125120921Y-53232295D01*
X125178282Y-53188282D01*
X125274536Y-53062841D01*
X125335044Y-52916762D01*
X125355682Y-52760000D01*
X125335044Y-52603238D01*
X125274536Y-52457159D01*
X125255239Y-52432011D01*
X125178282Y-52331717D01*
X125052840Y-52235463D01*
X124906762Y-52174956D01*
X124749999Y-52154317D01*
X124593237Y-52174956D01*
X124447159Y-52235463D01*
X124321717Y-52331717D01*
X124225463Y-52457159D01*
X124164956Y-52603237D01*
X124144317Y-52760000D01*
X124164956Y-52916762D01*
X124225463Y-53062840D01*
X124272743Y-53124457D01*
X124297937Y-53189626D01*
X124283899Y-53258071D01*
X124262048Y-53287624D01*
X123211393Y-54338278D01*
X123211385Y-54338289D01*
X123127179Y-54422494D01*
X123065859Y-54455978D01*
X122996167Y-54450994D01*
X122940233Y-54409123D01*
X122915816Y-54343659D01*
X122915500Y-54334812D01*
X122915500Y-53156187D01*
X122935185Y-53089148D01*
X122951819Y-53068506D01*
X123045825Y-52974500D01*
X123158315Y-52862009D01*
X123219636Y-52828526D01*
X123262180Y-52826753D01*
X123330000Y-52835682D01*
X123486762Y-52815044D01*
X123632841Y-52754536D01*
X123758282Y-52658282D01*
X123854536Y-52532841D01*
X123915044Y-52386762D01*
X123935682Y-52230000D01*
X123915044Y-52073238D01*
X123854536Y-51927159D01*
X123843081Y-51912231D01*
X123758282Y-51801717D01*
X123632840Y-51705463D01*
X123486762Y-51644956D01*
X123330000Y-51624317D01*
X123173237Y-51644956D01*
X123027159Y-51705463D01*
X122901717Y-51801717D01*
X122805463Y-51927159D01*
X122744956Y-52073237D01*
X122724317Y-52230000D01*
X122733246Y-52297818D01*
X122722480Y-52366853D01*
X122697988Y-52401684D01*
X122373714Y-52725958D01*
X122365741Y-52733264D01*
X122336806Y-52757544D01*
X122317914Y-52790264D01*
X122312106Y-52799380D01*
X122289831Y-52831193D01*
X122279597Y-52855899D01*
X122272852Y-52894148D01*
X122270512Y-52904704D01*
X122260735Y-52941191D01*
X122264028Y-52978817D01*
X122264500Y-52989626D01*
X122264500Y-55165985D01*
X122244815Y-55233024D01*
X122192011Y-55278779D01*
X122122853Y-55288723D01*
X122065014Y-55264361D01*
X121962840Y-55185961D01*
X121816762Y-55125454D01*
X121659999Y-55104815D01*
X121503237Y-55125454D01*
X121357159Y-55185961D01*
X121231717Y-55282215D01*
X121135464Y-55407656D01*
X121073211Y-55557949D01*
X121029370Y-55612352D01*
X120963076Y-55634417D01*
X120895377Y-55617138D01*
X120855548Y-55579387D01*
X120839552Y-55555448D01*
X120813592Y-55538102D01*
X120768787Y-55484490D01*
X120760080Y-55415165D01*
X120790234Y-55352137D01*
X120813592Y-55331898D01*
X120839552Y-55314552D01*
X120883867Y-55248231D01*
X120895500Y-55189748D01*
X120895500Y-54410252D01*
X120895275Y-54409123D01*
X120883867Y-54351769D01*
X120839552Y-54285447D01*
X120773230Y-54241132D01*
X120714749Y-54229500D01*
X120714748Y-54229500D01*
X119800187Y-54229500D01*
X119733148Y-54209815D01*
X119687393Y-54157011D01*
X119677449Y-54087853D01*
X119706474Y-54024297D01*
X119712506Y-54017819D01*
X120364643Y-53365682D01*
X121018315Y-52712009D01*
X121079636Y-52678526D01*
X121122180Y-52676753D01*
X121190000Y-52685682D01*
X121346762Y-52665044D01*
X121492841Y-52604536D01*
X121618282Y-52508282D01*
X121714536Y-52382841D01*
X121775044Y-52236762D01*
X121795682Y-52080000D01*
X121775044Y-51923238D01*
X121714536Y-51777159D01*
X121618282Y-51651717D01*
X121492840Y-51555463D01*
X121346762Y-51494956D01*
X121189999Y-51474317D01*
X121033237Y-51494956D01*
X120887159Y-51555463D01*
X120761717Y-51651717D01*
X120665463Y-51777159D01*
X120604956Y-51923237D01*
X120584317Y-52080000D01*
X120593246Y-52147818D01*
X120582480Y-52216853D01*
X120557988Y-52251684D01*
X119083714Y-53725958D01*
X119075741Y-53733264D01*
X119046806Y-53757544D01*
X119027914Y-53790264D01*
X119022106Y-53799380D01*
X118999831Y-53831193D01*
X118989597Y-53855899D01*
X118982852Y-53894148D01*
X118980512Y-53904704D01*
X118970735Y-53941191D01*
X118974028Y-53978817D01*
X118974500Y-53989626D01*
X118974500Y-54105500D01*
X118954815Y-54172539D01*
X118902011Y-54218294D01*
X118850500Y-54229500D01*
X118029500Y-54229500D01*
X117962461Y-54209815D01*
X117916706Y-54157011D01*
X117905500Y-54105500D01*
X117905500Y-53479425D01*
X117925185Y-53412386D01*
X117977989Y-53366631D01*
X117982007Y-53364881D01*
X117982841Y-53364536D01*
X118108282Y-53268282D01*
X118204536Y-53142841D01*
X118265044Y-52996762D01*
X118285682Y-52840000D01*
X118265044Y-52683238D01*
X118204536Y-52537159D01*
X118189481Y-52517539D01*
X118108282Y-52411717D01*
X117982840Y-52315463D01*
X117836762Y-52254956D01*
X117680000Y-52234317D01*
X117523237Y-52254956D01*
X117377159Y-52315463D01*
X117251717Y-52411717D01*
X117155464Y-52537157D01*
X117148979Y-52552815D01*
X117105137Y-52607218D01*
X117038843Y-52629282D01*
X116971144Y-52612002D01*
X116936042Y-52580847D01*
X116867925Y-52492074D01*
X116742483Y-52395820D01*
X116596405Y-52335313D01*
X116439643Y-52314674D01*
X116282880Y-52335313D01*
X116136802Y-52395820D01*
X116011360Y-52492074D01*
X115915106Y-52617516D01*
X115854599Y-52763594D01*
X115833960Y-52920357D01*
X115854599Y-53077119D01*
X115915106Y-53223197D01*
X116011360Y-53348639D01*
X116130092Y-53439744D01*
X116136802Y-53444893D01*
X116282881Y-53505401D01*
X116439643Y-53526039D01*
X116484315Y-53520157D01*
X116553348Y-53530922D01*
X116605605Y-53577301D01*
X116624500Y-53643096D01*
X116624500Y-54105500D01*
X116604815Y-54172539D01*
X116552011Y-54218294D01*
X116500500Y-54229500D01*
X115679500Y-54229500D01*
X115612461Y-54209815D01*
X115566706Y-54157011D01*
X115555500Y-54105500D01*
X115555500Y-52589626D01*
X115555972Y-52578818D01*
X115559264Y-52541192D01*
X115549487Y-52504706D01*
X115547145Y-52494143D01*
X115542026Y-52465111D01*
X115540588Y-52456955D01*
X115540587Y-52456954D01*
X115540400Y-52455891D01*
X115530171Y-52431198D01*
X115529554Y-52430317D01*
X115529554Y-52430316D01*
X115507892Y-52399379D01*
X115502080Y-52390256D01*
X115483194Y-52357544D01*
X115454255Y-52333262D01*
X115446280Y-52325954D01*
X115422011Y-52301685D01*
X115388526Y-52240362D01*
X115386753Y-52197818D01*
X115395682Y-52130000D01*
X115375044Y-51973238D01*
X115314536Y-51827159D01*
X115295148Y-51801892D01*
X115218282Y-51701717D01*
X115092841Y-51605464D01*
X115030919Y-51579815D01*
X115021553Y-51575935D01*
X114967151Y-51532095D01*
X114948444Y-51475889D01*
X118999416Y-51475889D01*
X118999459Y-51500000D01*
X118999501Y-51500101D01*
X118999616Y-51500382D01*
X118999618Y-51500384D01*
X118999808Y-51500462D01*
X119000000Y-51500541D01*
X119000002Y-51500539D01*
X119024616Y-51500524D01*
X119024616Y-51500528D01*
X119024760Y-51500500D01*
X119975240Y-51500500D01*
X119975383Y-51500528D01*
X119975384Y-51500524D01*
X119999997Y-51500539D01*
X120000000Y-51500541D01*
X120000383Y-51500383D01*
X120000385Y-51500379D01*
X120006893Y-51485031D01*
X120000521Y-51464747D01*
X120000499Y-51462417D01*
X120000499Y-43508647D01*
X120000541Y-43500003D01*
X120000540Y-43500001D01*
X120000541Y-43500000D01*
X120000383Y-43499617D01*
X120000379Y-43499615D01*
X120000097Y-43499499D01*
X120000000Y-43499459D01*
X119975446Y-43499459D01*
X119975240Y-43499500D01*
X119024760Y-43499500D01*
X119024554Y-43499459D01*
X118999999Y-43499459D01*
X118999900Y-43499500D01*
X118999618Y-43499615D01*
X118999615Y-43499618D01*
X118999459Y-43499999D01*
X118999476Y-43524616D01*
X118999471Y-43524616D01*
X118999500Y-43524759D01*
X118999500Y-51475467D01*
X118999416Y-51475889D01*
X114948444Y-51475889D01*
X114945086Y-51465801D01*
X114962365Y-51398102D01*
X114981326Y-51373694D01*
X115072011Y-51283010D01*
X115243201Y-51111819D01*
X115304525Y-51078334D01*
X115330883Y-51075500D01*
X117260656Y-51075500D01*
X117284847Y-51077883D01*
X117300000Y-51080897D01*
X117407495Y-51059515D01*
X117498624Y-50998624D01*
X117559515Y-50907495D01*
X117575500Y-50827133D01*
X117575500Y-50827132D01*
X117577883Y-50815154D01*
X117577883Y-50815151D01*
X117580897Y-50800000D01*
X117577883Y-50784847D01*
X117575500Y-50760656D01*
X117575500Y-49119343D01*
X117577883Y-49095151D01*
X117580897Y-49080000D01*
X117575500Y-49052867D01*
X117559515Y-48972505D01*
X117517684Y-48909901D01*
X117513994Y-48904378D01*
X117507212Y-48894227D01*
X117507205Y-48894219D01*
X117498623Y-48881375D01*
X117485776Y-48872791D01*
X117466986Y-48857370D01*
X117436818Y-48827202D01*
X117403333Y-48765879D01*
X117400499Y-48739521D01*
X117400499Y-48494159D01*
X117400499Y-48494152D01*
X117400499Y-48490100D01*
X117393972Y-48440513D01*
X117343224Y-48331684D01*
X117343223Y-48331683D01*
X117343223Y-48331682D01*
X117326819Y-48315278D01*
X117293334Y-48253955D01*
X117290500Y-48227597D01*
X117290500Y-48142402D01*
X117310185Y-48075363D01*
X117326820Y-48054720D01*
X117343648Y-48037892D01*
X117363224Y-48018316D01*
X117413972Y-47909487D01*
X117420500Y-47859901D01*
X117420499Y-47440100D01*
X117413972Y-47390513D01*
X117363224Y-47281684D01*
X117363223Y-47281683D01*
X117363223Y-47281682D01*
X117326819Y-47245278D01*
X117293334Y-47183955D01*
X117290500Y-47157597D01*
X117290500Y-47012401D01*
X117310185Y-46945362D01*
X117326817Y-46924722D01*
X117333224Y-46918316D01*
X117383972Y-46809487D01*
X117390500Y-46759901D01*
X117390499Y-46340100D01*
X117383972Y-46290513D01*
X117333224Y-46181684D01*
X117333223Y-46181683D01*
X117333223Y-46181682D01*
X117248316Y-46096775D01*
X117139487Y-46046028D01*
X117093921Y-46040029D01*
X117093917Y-46040028D01*
X117089901Y-46039500D01*
X117085847Y-46039500D01*
X116734159Y-46039500D01*
X116734143Y-46039500D01*
X116730100Y-46039501D01*
X116726084Y-46040029D01*
X116726078Y-46040030D01*
X116680511Y-46046028D01*
X116571682Y-46096776D01*
X116486775Y-46181683D01*
X116436028Y-46290512D01*
X116430996Y-46328738D01*
X116429500Y-46340099D01*
X116429500Y-46344151D01*
X116429500Y-46344152D01*
X116429500Y-46755840D01*
X116429500Y-46755855D01*
X116429501Y-46759900D01*
X116430029Y-46763916D01*
X116430030Y-46763921D01*
X116436028Y-46809488D01*
X116456768Y-46853964D01*
X116486776Y-46918316D01*
X116553182Y-46984722D01*
X116586666Y-47046043D01*
X116589500Y-47072402D01*
X116589500Y-47157597D01*
X116569815Y-47224636D01*
X116553181Y-47245278D01*
X116516775Y-47281683D01*
X116466028Y-47390512D01*
X116463516Y-47409597D01*
X116459500Y-47440099D01*
X116459500Y-47444151D01*
X116459500Y-47444152D01*
X116459500Y-47855840D01*
X116459500Y-47855855D01*
X116459501Y-47859900D01*
X116460029Y-47863916D01*
X116460030Y-47863921D01*
X116466028Y-47909488D01*
X116516775Y-48018316D01*
X116553179Y-48054719D01*
X116586665Y-48116042D01*
X116589499Y-48142401D01*
X116589499Y-48187597D01*
X116569814Y-48254636D01*
X116553181Y-48275278D01*
X116496774Y-48331685D01*
X116446028Y-48440512D01*
X116441212Y-48477098D01*
X116439500Y-48490099D01*
X116439500Y-48494151D01*
X116439500Y-48494152D01*
X116439500Y-48905840D01*
X116439500Y-48905855D01*
X116439501Y-48909900D01*
X116440029Y-48913916D01*
X116440030Y-48913921D01*
X116446028Y-48959488D01*
X116496776Y-49068317D01*
X116581683Y-49153224D01*
X116659128Y-49189337D01*
X116711568Y-49235509D01*
X116730720Y-49302702D01*
X116710505Y-49369583D01*
X116657340Y-49414918D01*
X116622910Y-49424658D01*
X116557681Y-49433246D01*
X116488646Y-49422481D01*
X116453814Y-49397988D01*
X116409543Y-49353717D01*
X116402234Y-49345741D01*
X116377955Y-49316806D01*
X116377954Y-49316805D01*
X116345236Y-49297915D01*
X116336127Y-49292112D01*
X116305184Y-49270446D01*
X116304303Y-49269829D01*
X116279607Y-49259599D01*
X116241352Y-49252853D01*
X116230796Y-49250512D01*
X116194307Y-49240735D01*
X116156680Y-49244028D01*
X116145872Y-49244500D01*
X115287402Y-49244500D01*
X115220363Y-49224815D01*
X115199725Y-49208185D01*
X115138316Y-49146776D01*
X115138315Y-49146775D01*
X115138314Y-49146774D01*
X115029487Y-49096028D01*
X114983921Y-49090029D01*
X114983917Y-49090028D01*
X114979901Y-49089500D01*
X114975847Y-49089500D01*
X114564159Y-49089500D01*
X114564143Y-49089500D01*
X114560100Y-49089501D01*
X114556084Y-49090029D01*
X114556078Y-49090030D01*
X114510511Y-49096028D01*
X114401685Y-49146775D01*
X114401684Y-49146775D01*
X114401684Y-49146776D01*
X114340277Y-49208182D01*
X114278957Y-49241666D01*
X114252598Y-49244500D01*
X114217402Y-49244500D01*
X114150363Y-49224815D01*
X114129720Y-49208180D01*
X114098315Y-49176775D01*
X113989487Y-49126028D01*
X113943921Y-49120029D01*
X113943917Y-49120028D01*
X113939901Y-49119500D01*
X113935847Y-49119500D01*
X113524159Y-49119500D01*
X113524143Y-49119500D01*
X113520100Y-49119501D01*
X113516084Y-49120029D01*
X113516078Y-49120030D01*
X113470511Y-49126028D01*
X113361682Y-49176776D01*
X113276775Y-49261683D01*
X113226028Y-49370512D01*
X113220672Y-49411198D01*
X113219500Y-49420099D01*
X113219500Y-49424151D01*
X113219500Y-49424152D01*
X113219500Y-49475500D01*
X113199815Y-49542539D01*
X113147011Y-49588294D01*
X113095500Y-49599500D01*
X113045394Y-49599500D01*
X112978355Y-49579815D01*
X112932600Y-49527011D01*
X112925621Y-49507601D01*
X112919483Y-49484694D01*
X112917145Y-49474143D01*
X112913063Y-49450991D01*
X112910588Y-49436955D01*
X112910587Y-49436954D01*
X112910400Y-49435891D01*
X112900171Y-49411198D01*
X112899554Y-49410317D01*
X112899554Y-49410316D01*
X112877892Y-49379379D01*
X112872080Y-49370256D01*
X112853194Y-49337544D01*
X112824255Y-49313262D01*
X112816280Y-49305954D01*
X112794043Y-49283717D01*
X112786734Y-49275741D01*
X112774938Y-49261683D01*
X112762455Y-49246806D01*
X112762454Y-49246805D01*
X112729736Y-49227915D01*
X112720627Y-49222112D01*
X112689684Y-49200446D01*
X112688803Y-49199829D01*
X112664107Y-49189599D01*
X112625852Y-49182853D01*
X112615296Y-49180512D01*
X112578807Y-49170735D01*
X112541180Y-49174028D01*
X112530372Y-49174500D01*
X112303412Y-49174500D01*
X112236373Y-49154815D01*
X112190618Y-49102011D01*
X112180473Y-49034315D01*
X112188453Y-48973700D01*
X112180583Y-48913921D01*
X112167815Y-48816938D01*
X112107307Y-48670859D01*
X112100809Y-48662391D01*
X112011053Y-48545417D01*
X111885612Y-48449163D01*
X111873380Y-48444097D01*
X111818976Y-48400255D01*
X111796912Y-48333961D01*
X111803792Y-48288581D01*
X111822646Y-48234699D01*
X111825229Y-48207151D01*
X111825500Y-48204266D01*
X111825500Y-46568579D01*
X111845185Y-46501541D01*
X111897989Y-46455786D01*
X111967147Y-46445842D01*
X112030703Y-46474867D01*
X112068477Y-46533645D01*
X112070666Y-46542223D01*
X112075629Y-46565040D01*
X112075630Y-46565044D01*
X112075631Y-46565046D01*
X112170449Y-46819263D01*
X112175634Y-46833163D01*
X112312772Y-47084313D01*
X112388899Y-47186006D01*
X112484261Y-47313395D01*
X112686605Y-47515739D01*
X112830056Y-47623125D01*
X112915686Y-47687227D01*
X113026964Y-47747989D01*
X113166839Y-47824367D01*
X113434954Y-47924369D01*
X113434957Y-47924369D01*
X113434958Y-47924370D01*
X113487217Y-47935738D01*
X113714572Y-47985196D01*
X114000000Y-48005610D01*
X114285428Y-47985196D01*
X114565046Y-47924369D01*
X114833161Y-47824367D01*
X115084315Y-47687226D01*
X115313395Y-47515739D01*
X115515739Y-47313395D01*
X115687226Y-47084315D01*
X115824367Y-46833161D01*
X115924369Y-46565046D01*
X115985196Y-46285428D01*
X116005610Y-46000000D01*
X115985196Y-45714572D01*
X115933843Y-45478506D01*
X115924370Y-45434958D01*
X115909032Y-45393835D01*
X115824367Y-45166839D01*
X115742846Y-45017545D01*
X115687227Y-44915686D01*
X115644354Y-44858414D01*
X115515739Y-44686605D01*
X115313395Y-44484261D01*
X115198854Y-44398517D01*
X115084313Y-44312772D01*
X114833163Y-44175634D01*
X114833162Y-44175633D01*
X114833161Y-44175633D01*
X114658123Y-44110347D01*
X114565041Y-44075629D01*
X114285429Y-44014804D01*
X114000000Y-43994389D01*
X113714570Y-44014804D01*
X113434958Y-44075629D01*
X113166836Y-44175634D01*
X112915686Y-44312772D01*
X112686602Y-44484263D01*
X112484263Y-44686602D01*
X112312772Y-44915686D01*
X112175634Y-45166836D01*
X112075629Y-45434958D01*
X112014804Y-45714570D01*
X111994389Y-46000000D01*
X112005900Y-46160943D01*
X111991048Y-46229216D01*
X111941643Y-46278621D01*
X111873370Y-46293473D01*
X111807905Y-46269056D01*
X111782445Y-46243422D01*
X111777790Y-46237115D01*
X111697150Y-46127850D01*
X111697149Y-46127849D01*
X111697148Y-46127847D01*
X111587884Y-46047207D01*
X111459696Y-46002353D01*
X111432151Y-45999770D01*
X111432139Y-45999769D01*
X111429266Y-45999500D01*
X110570734Y-45999500D01*
X110567861Y-45999769D01*
X110567848Y-45999770D01*
X110540303Y-46002353D01*
X110412115Y-46047207D01*
X110302849Y-46127849D01*
X110222207Y-46237115D01*
X110177353Y-46365303D01*
X110174770Y-46392848D01*
X110174769Y-46392861D01*
X110174500Y-46395734D01*
X110174500Y-46398626D01*
X110174500Y-47598456D01*
X110154815Y-47665495D01*
X110138181Y-47686137D01*
X109887181Y-47937136D01*
X109825858Y-47970621D01*
X109756166Y-47965637D01*
X109700233Y-47923765D01*
X109675816Y-47858301D01*
X109675500Y-47849455D01*
X109675500Y-47124500D01*
X109675500Y-46395734D01*
X109672646Y-46365301D01*
X109627793Y-46237118D01*
X109627792Y-46237115D01*
X109547150Y-46127849D01*
X109437884Y-46047207D01*
X109309696Y-46002353D01*
X109282151Y-45999770D01*
X109282139Y-45999769D01*
X109279266Y-45999500D01*
X109276373Y-45999500D01*
X108774034Y-45999500D01*
X108706995Y-45979815D01*
X108661240Y-45927011D01*
X108651296Y-45857853D01*
X108651901Y-45854063D01*
X108652143Y-45852691D01*
X108654478Y-45842151D01*
X108664264Y-45805634D01*
X108660969Y-45767983D01*
X108660499Y-45757221D01*
X108660499Y-45489315D01*
X108660971Y-45478506D01*
X108663182Y-45453237D01*
X108664263Y-45440888D01*
X108654483Y-45404392D01*
X108652144Y-45393835D01*
X108650008Y-45381718D01*
X108645588Y-45356650D01*
X108645587Y-45356649D01*
X108645400Y-45355586D01*
X108635173Y-45330896D01*
X108634554Y-45330012D01*
X108634554Y-45330011D01*
X108612878Y-45299055D01*
X108607085Y-45289961D01*
X108588194Y-45257240D01*
X108559261Y-45232962D01*
X108551286Y-45225654D01*
X107879348Y-44553717D01*
X107872039Y-44545741D01*
X107847759Y-44516805D01*
X107815041Y-44497915D01*
X107805932Y-44492112D01*
X107774989Y-44470446D01*
X107774108Y-44469829D01*
X107749412Y-44459599D01*
X107711157Y-44452853D01*
X107700601Y-44450512D01*
X107664112Y-44440735D01*
X107626485Y-44444028D01*
X107615677Y-44444500D01*
X105894500Y-44444500D01*
X105827461Y-44424815D01*
X105781706Y-44372011D01*
X105770500Y-44320500D01*
X105770500Y-43355251D01*
X105758867Y-43296769D01*
X105714552Y-43230447D01*
X105648230Y-43186132D01*
X105589749Y-43174500D01*
X105589748Y-43174500D01*
X104810252Y-43174500D01*
X104810251Y-43174500D01*
X104751769Y-43186132D01*
X104685446Y-43230448D01*
X104668101Y-43256408D01*
X104614489Y-43301212D01*
X104545164Y-43309919D01*
X104482137Y-43279764D01*
X104461899Y-43256408D01*
X104444553Y-43230448D01*
X104378230Y-43186132D01*
X104319749Y-43174500D01*
X104319748Y-43174500D01*
X103540252Y-43174500D01*
X103540251Y-43174500D01*
X103481769Y-43186132D01*
X103415446Y-43230448D01*
X103398101Y-43256408D01*
X103344489Y-43301212D01*
X103275164Y-43309919D01*
X103212137Y-43279764D01*
X103191899Y-43256408D01*
X103174553Y-43230448D01*
X103108230Y-43186132D01*
X103049749Y-43174500D01*
X103049748Y-43174500D01*
X102601189Y-43174500D01*
X102534150Y-43154815D01*
X102513508Y-43138181D01*
X102261597Y-42886271D01*
X102228112Y-42824948D01*
X102233096Y-42755257D01*
X102254288Y-42718885D01*
X102267453Y-42703195D01*
X102267455Y-42703194D01*
X102291746Y-42674243D01*
X102299024Y-42666300D01*
X102633509Y-42331817D01*
X102694831Y-42298334D01*
X102721189Y-42295500D01*
X103049749Y-42295500D01*
X103078989Y-42289683D01*
X103108231Y-42283867D01*
X103174552Y-42239552D01*
X103191898Y-42213591D01*
X103245510Y-42168787D01*
X103314835Y-42160080D01*
X103377863Y-42190234D01*
X103398102Y-42213592D01*
X103415448Y-42239552D01*
X103481769Y-42283867D01*
X103540251Y-42295500D01*
X103540252Y-42295500D01*
X104319749Y-42295500D01*
X104348989Y-42289683D01*
X104378231Y-42283867D01*
X104444552Y-42239552D01*
X104461898Y-42213591D01*
X104515510Y-42168787D01*
X104584835Y-42160080D01*
X104647863Y-42190234D01*
X104668102Y-42213592D01*
X104685448Y-42239552D01*
X104751769Y-42283867D01*
X104810251Y-42295500D01*
X104810252Y-42295500D01*
X105589749Y-42295500D01*
X105618989Y-42289683D01*
X105648231Y-42283867D01*
X105714552Y-42239552D01*
X105758867Y-42173231D01*
X105770500Y-42114748D01*
X105770500Y-41149500D01*
X105790185Y-41082461D01*
X105842989Y-41036706D01*
X105894500Y-41025500D01*
X106273812Y-41025500D01*
X106340851Y-41045185D01*
X106361493Y-41061819D01*
X107147988Y-41848314D01*
X107181473Y-41909637D01*
X107183246Y-41952180D01*
X107174317Y-42019999D01*
X107194956Y-42176762D01*
X107255463Y-42322840D01*
X107351717Y-42448282D01*
X107435824Y-42512819D01*
X107477159Y-42544536D01*
X107623238Y-42605044D01*
X107780000Y-42625682D01*
X107936762Y-42605044D01*
X108082841Y-42544536D01*
X108208282Y-42448282D01*
X108304536Y-42322841D01*
X108365044Y-42176762D01*
X108385682Y-42020000D01*
X108365044Y-41863238D01*
X108304536Y-41717159D01*
X108258772Y-41657518D01*
X108208282Y-41591717D01*
X108082840Y-41495463D01*
X107936762Y-41434956D01*
X107779999Y-41414317D01*
X107712180Y-41423246D01*
X107643144Y-41412480D01*
X107608314Y-41387988D01*
X107196215Y-40975889D01*
X108499416Y-40975889D01*
X108499459Y-41000000D01*
X108499501Y-41000101D01*
X108499616Y-41000382D01*
X108499618Y-41000384D01*
X108499808Y-41000462D01*
X108500000Y-41000541D01*
X108500002Y-41000539D01*
X108524616Y-41000524D01*
X108524616Y-41000528D01*
X108524760Y-41000500D01*
X116475240Y-41000500D01*
X116475383Y-41000528D01*
X116475384Y-41000524D01*
X116499997Y-41000539D01*
X116500000Y-41000541D01*
X116500383Y-41000383D01*
X116500500Y-41000099D01*
X116500541Y-41000000D01*
X116500540Y-40999997D01*
X116500583Y-40975889D01*
X116500500Y-40975467D01*
X116500500Y-40024759D01*
X116500528Y-40024616D01*
X116500524Y-40024616D01*
X116500539Y-40000002D01*
X116500541Y-40000000D01*
X116500462Y-39999808D01*
X116500384Y-39999618D01*
X116500383Y-39999617D01*
X116500379Y-39999615D01*
X116500097Y-39999499D01*
X116500000Y-39999459D01*
X116475446Y-39999459D01*
X116475240Y-39999500D01*
X108524760Y-39999500D01*
X108524554Y-39999459D01*
X108499999Y-39999459D01*
X108499900Y-39999500D01*
X108499618Y-39999615D01*
X108499615Y-39999618D01*
X108499459Y-39999999D01*
X108499476Y-40024616D01*
X108499471Y-40024616D01*
X108499500Y-40024759D01*
X108499500Y-40975467D01*
X108499416Y-40975889D01*
X107196215Y-40975889D01*
X106704043Y-40483717D01*
X106696734Y-40475741D01*
X106687877Y-40465185D01*
X106672455Y-40446806D01*
X106672454Y-40446805D01*
X106639736Y-40427915D01*
X106630627Y-40422112D01*
X106599684Y-40400446D01*
X106598803Y-40399829D01*
X106574107Y-40389599D01*
X106535852Y-40382853D01*
X106525296Y-40380512D01*
X106488807Y-40370735D01*
X106451180Y-40374028D01*
X106440372Y-40374500D01*
X105894500Y-40374500D01*
X105827461Y-40354815D01*
X105781706Y-40302011D01*
X105770500Y-40250500D01*
X105770500Y-39285251D01*
X105758867Y-39226769D01*
X105714552Y-39160447D01*
X105648230Y-39116132D01*
X105589749Y-39104500D01*
X105589748Y-39104500D01*
X104810252Y-39104500D01*
X104810251Y-39104500D01*
X104751769Y-39116132D01*
X104685446Y-39160448D01*
X104668101Y-39186408D01*
X104614489Y-39231212D01*
X104545164Y-39239919D01*
X104482137Y-39209764D01*
X104461899Y-39186408D01*
X104444553Y-39160448D01*
X104378230Y-39116132D01*
X104353648Y-39111243D01*
X104291737Y-39078858D01*
X104258065Y-39021720D01*
X104249485Y-38989699D01*
X104247145Y-38979143D01*
X104246624Y-38976188D01*
X104240588Y-38941955D01*
X104240587Y-38941954D01*
X104240400Y-38940891D01*
X104230171Y-38916198D01*
X104229554Y-38915317D01*
X104229554Y-38915316D01*
X104207892Y-38884379D01*
X104202080Y-38875256D01*
X104183194Y-38842544D01*
X104154255Y-38818262D01*
X104146280Y-38810954D01*
X101539043Y-36203717D01*
X101531734Y-36195741D01*
X101507454Y-36166805D01*
X101474736Y-36147915D01*
X101465627Y-36142112D01*
X101437782Y-36122615D01*
X101433803Y-36119829D01*
X101409107Y-36109599D01*
X101370852Y-36102853D01*
X101360296Y-36100512D01*
X101323807Y-36090735D01*
X101286180Y-36094028D01*
X101275372Y-36094500D01*
X94749616Y-36094500D01*
X94738808Y-36094028D01*
X94701193Y-36090736D01*
X94664716Y-36100510D01*
X94654162Y-36102849D01*
X94615905Y-36109595D01*
X94591190Y-36119834D01*
X94559377Y-36142108D01*
X94550261Y-36147915D01*
X94517545Y-36166804D01*
X94493262Y-36195743D01*
X94485956Y-36203715D01*
X85703714Y-44985958D01*
X85695741Y-44993264D01*
X85666806Y-45017544D01*
X85647914Y-45050264D01*
X85642106Y-45059380D01*
X85619831Y-45091193D01*
X85609597Y-45115899D01*
X85602852Y-45154148D01*
X85600512Y-45164704D01*
X85590735Y-45201191D01*
X85594028Y-45238817D01*
X85594500Y-45249626D01*
X85594500Y-46261699D01*
X85574815Y-46328738D01*
X85545988Y-46360074D01*
X85491717Y-46401718D01*
X85395463Y-46527159D01*
X85334956Y-46673237D01*
X85314317Y-46830000D01*
X85334956Y-46986762D01*
X85395462Y-47132838D01*
X85395463Y-47132840D01*
X85395464Y-47132841D01*
X85443171Y-47195015D01*
X85468365Y-47260182D01*
X85454327Y-47328627D01*
X85405513Y-47378617D01*
X85344795Y-47394500D01*
X81909628Y-47394500D01*
X81898820Y-47394028D01*
X81861192Y-47390735D01*
X81824704Y-47400512D01*
X81814148Y-47402852D01*
X81775899Y-47409597D01*
X81751196Y-47419830D01*
X81750316Y-47420445D01*
X81750316Y-47420446D01*
X81723710Y-47439074D01*
X81657505Y-47461400D01*
X81589738Y-47444387D01*
X81541927Y-47393438D01*
X81529250Y-47324728D01*
X81553322Y-47263188D01*
X81687226Y-47084315D01*
X81824367Y-46833161D01*
X81924369Y-46565046D01*
X81985196Y-46285428D01*
X82005610Y-46000000D01*
X81985196Y-45714572D01*
X81933843Y-45478506D01*
X81924370Y-45434958D01*
X81909032Y-45393835D01*
X81824367Y-45166839D01*
X81742846Y-45017545D01*
X81687227Y-44915686D01*
X81644354Y-44858414D01*
X81515739Y-44686605D01*
X81313395Y-44484261D01*
X81198855Y-44398517D01*
X81084313Y-44312772D01*
X80833163Y-44175634D01*
X80833162Y-44175633D01*
X80833161Y-44175633D01*
X80658123Y-44110347D01*
X80565041Y-44075629D01*
X80285429Y-44014804D01*
X80000000Y-43994389D01*
X79714570Y-44014804D01*
X79434958Y-44075629D01*
X79166836Y-44175634D01*
X78915686Y-44312772D01*
X78686602Y-44484263D01*
X78484263Y-44686602D01*
X78312772Y-44915686D01*
X78175634Y-45166836D01*
X78075629Y-45434958D01*
X78014804Y-45714570D01*
X77994389Y-46000000D01*
X78014804Y-46285429D01*
X78075629Y-46565041D01*
X78075631Y-46565046D01*
X78170449Y-46819263D01*
X78175634Y-46833163D01*
X78312772Y-47084313D01*
X78388899Y-47186006D01*
X78484261Y-47313395D01*
X78686605Y-47515739D01*
X78830056Y-47623125D01*
X78915686Y-47687227D01*
X79026964Y-47747989D01*
X79166839Y-47824367D01*
X79434954Y-47924369D01*
X79434957Y-47924369D01*
X79434958Y-47924370D01*
X79487217Y-47935738D01*
X79714572Y-47985196D01*
X80000000Y-48005610D01*
X80285428Y-47985196D01*
X80565046Y-47924369D01*
X80833161Y-47824367D01*
X81084315Y-47687226D01*
X81200432Y-47600301D01*
X81265893Y-47575886D01*
X81334166Y-47590737D01*
X81383572Y-47640142D01*
X81398424Y-47708415D01*
X81374008Y-47773880D01*
X81362421Y-47787251D01*
X79933714Y-49215958D01*
X79925741Y-49223264D01*
X79896806Y-49247544D01*
X79877914Y-49280264D01*
X79872106Y-49289380D01*
X79849831Y-49321193D01*
X79839597Y-49345899D01*
X79832852Y-49384148D01*
X79830512Y-49394704D01*
X79820735Y-49431191D01*
X79824028Y-49468817D01*
X79824500Y-49479626D01*
X79824500Y-52760500D01*
X79804815Y-52827539D01*
X79752011Y-52873294D01*
X79700500Y-52884500D01*
X77964628Y-52884500D01*
X77953820Y-52884028D01*
X77916192Y-52880735D01*
X77879704Y-52890512D01*
X77869148Y-52892852D01*
X77830899Y-52899597D01*
X77806193Y-52909831D01*
X77774380Y-52932106D01*
X77765264Y-52937914D01*
X77732545Y-52956805D01*
X77708262Y-52985744D01*
X77700956Y-52993716D01*
X76413221Y-54281451D01*
X76351898Y-54314936D01*
X76282206Y-54309952D01*
X76256649Y-54296872D01*
X76173230Y-54241132D01*
X76114749Y-54229500D01*
X76114748Y-54229500D01*
X74641188Y-54229500D01*
X74574149Y-54209815D01*
X74553507Y-54193181D01*
X74319043Y-53958717D01*
X74311734Y-53950741D01*
X74302456Y-53939684D01*
X74287455Y-53921806D01*
X74287454Y-53921805D01*
X74254736Y-53902915D01*
X74245627Y-53897112D01*
X74216926Y-53877016D01*
X74213803Y-53874829D01*
X74189107Y-53864599D01*
X74150852Y-53857853D01*
X74140296Y-53855512D01*
X74103807Y-53845735D01*
X74066180Y-53849028D01*
X74055372Y-53849500D01*
X70099311Y-53849500D01*
X70088503Y-53849028D01*
X70050888Y-53845736D01*
X70014411Y-53855510D01*
X70003857Y-53857849D01*
X69965600Y-53864595D01*
X69940885Y-53874834D01*
X69909072Y-53897108D01*
X69899956Y-53902915D01*
X69867240Y-53921804D01*
X69842957Y-53950743D01*
X69835651Y-53958715D01*
X69438714Y-54355653D01*
X69430741Y-54362959D01*
X69401806Y-54387239D01*
X69382914Y-54419959D01*
X69377106Y-54429075D01*
X69354831Y-54460888D01*
X69344597Y-54485594D01*
X69337852Y-54523843D01*
X69335512Y-54534399D01*
X69325735Y-54570886D01*
X69329028Y-54608512D01*
X69329500Y-54619321D01*
X69329500Y-55180677D01*
X69329028Y-55191485D01*
X69325735Y-55229112D01*
X69335512Y-55265601D01*
X69337853Y-55276157D01*
X69344599Y-55314412D01*
X69354829Y-55339108D01*
X69355446Y-55339989D01*
X69377112Y-55370932D01*
X69382915Y-55380041D01*
X69401806Y-55412760D01*
X69430742Y-55437040D01*
X69438718Y-55444349D01*
X69711184Y-55716815D01*
X69744669Y-55778138D01*
X69739685Y-55847830D01*
X69697813Y-55903763D01*
X69632349Y-55928180D01*
X69623570Y-55928496D01*
X68124567Y-55929303D01*
X68057517Y-55909655D01*
X68011733Y-55856875D01*
X68000500Y-55805303D01*
X68000500Y-53024759D01*
X68000528Y-53024616D01*
X68000524Y-53024616D01*
X68000539Y-53000002D01*
X68000541Y-53000000D01*
X68000462Y-52999808D01*
X68000384Y-52999618D01*
X68000383Y-52999617D01*
X68000379Y-52999615D01*
X68000097Y-52999499D01*
X68000000Y-52999459D01*
X67975446Y-52999459D01*
X67975240Y-52999500D01*
X65124500Y-52999500D01*
X65057461Y-52979815D01*
X65011706Y-52927011D01*
X65000500Y-52875500D01*
X65000500Y-51475889D01*
X73999416Y-51475889D01*
X73999459Y-51500000D01*
X73999501Y-51500101D01*
X73999616Y-51500382D01*
X73999618Y-51500384D01*
X73999808Y-51500462D01*
X74000000Y-51500541D01*
X74000002Y-51500539D01*
X74024616Y-51500524D01*
X74024616Y-51500528D01*
X74024760Y-51500500D01*
X74975240Y-51500500D01*
X74975383Y-51500528D01*
X74975384Y-51500524D01*
X74999997Y-51500539D01*
X75000000Y-51500541D01*
X75000383Y-51500383D01*
X75000500Y-51500099D01*
X75000541Y-51500000D01*
X75000540Y-51499997D01*
X75000583Y-51475889D01*
X75000500Y-51475467D01*
X75000500Y-43524759D01*
X75000528Y-43524616D01*
X75000524Y-43524616D01*
X75000539Y-43500002D01*
X75000541Y-43500000D01*
X75000462Y-43499808D01*
X75000384Y-43499618D01*
X75000383Y-43499617D01*
X75000379Y-43499615D01*
X75000097Y-43499499D01*
X75000000Y-43499459D01*
X74975446Y-43499459D01*
X74975240Y-43499500D01*
X74024760Y-43499500D01*
X74024554Y-43499459D01*
X73999999Y-43499459D01*
X73999900Y-43499500D01*
X73999618Y-43499615D01*
X73999615Y-43499618D01*
X73999459Y-43499999D01*
X73999476Y-43524616D01*
X73999471Y-43524616D01*
X73999500Y-43524759D01*
X73999500Y-51475467D01*
X73999416Y-51475889D01*
X65000500Y-51475889D01*
X65000500Y-43309748D01*
X84349500Y-43309748D01*
X84361132Y-43368230D01*
X84405447Y-43434552D01*
X84471769Y-43478867D01*
X84530251Y-43490500D01*
X84530252Y-43490500D01*
X86369749Y-43490500D01*
X86398989Y-43484683D01*
X86428231Y-43478867D01*
X86494552Y-43434552D01*
X86538867Y-43368231D01*
X86550500Y-43309748D01*
X86550500Y-41470252D01*
X86538867Y-41411769D01*
X86522977Y-41387988D01*
X86494552Y-41345447D01*
X86428230Y-41301132D01*
X86369749Y-41289500D01*
X86369748Y-41289500D01*
X84530252Y-41289500D01*
X84530251Y-41289500D01*
X84471769Y-41301132D01*
X84405447Y-41345447D01*
X84361132Y-41411769D01*
X84349500Y-41470251D01*
X84349500Y-43309748D01*
X65000500Y-43309748D01*
X65000500Y-40975889D01*
X77499416Y-40975889D01*
X77499459Y-41000000D01*
X77499501Y-41000101D01*
X77499616Y-41000382D01*
X77499618Y-41000384D01*
X77499808Y-41000462D01*
X77500000Y-41000541D01*
X77500002Y-41000539D01*
X77524616Y-41000524D01*
X77524616Y-41000528D01*
X77524760Y-41000500D01*
X85475240Y-41000500D01*
X85475383Y-41000528D01*
X85475384Y-41000524D01*
X85499997Y-41000539D01*
X85500000Y-41000541D01*
X85500383Y-41000383D01*
X85500500Y-41000099D01*
X85500541Y-41000000D01*
X85500540Y-40999997D01*
X85500583Y-40975889D01*
X85500500Y-40975467D01*
X85500500Y-40024759D01*
X85500528Y-40024616D01*
X85500524Y-40024616D01*
X85500539Y-40000002D01*
X85500541Y-40000000D01*
X85500462Y-39999808D01*
X85500384Y-39999618D01*
X85500383Y-39999617D01*
X85500379Y-39999615D01*
X85500097Y-39999499D01*
X85500000Y-39999459D01*
X85475446Y-39999459D01*
X85475240Y-39999500D01*
X77524760Y-39999500D01*
X77524554Y-39999459D01*
X77499999Y-39999459D01*
X77499900Y-39999500D01*
X77499618Y-39999615D01*
X77499615Y-39999618D01*
X77499459Y-39999999D01*
X77499476Y-40024616D01*
X77499471Y-40024616D01*
X77499500Y-40024759D01*
X77499500Y-40975467D01*
X77499416Y-40975889D01*
X65000500Y-40975889D01*
X65000500Y-34124500D01*
X65020185Y-34057461D01*
X65072989Y-34011706D01*
X65124500Y-34000500D01*
X128875500Y-34000500D01*
X128942539Y-34020185D01*
G37*
G04 #@! TD.AperFunction*
G04 #@! TA.AperFunction,Conductor*
G36*
X89442539Y-83925185D02*
G01*
X89488294Y-83977989D01*
X89499500Y-84029500D01*
X89499500Y-86503812D01*
X89479815Y-86570851D01*
X89463181Y-86591493D01*
X86577181Y-89477493D01*
X86515858Y-89510978D01*
X86446166Y-89505994D01*
X86390233Y-89464122D01*
X86365816Y-89398658D01*
X86365500Y-89389812D01*
X86365500Y-84989626D01*
X86365972Y-84978818D01*
X86369264Y-84941192D01*
X86359487Y-84904706D01*
X86357145Y-84894143D01*
X86350588Y-84856955D01*
X86350587Y-84856954D01*
X86350400Y-84855891D01*
X86340171Y-84831198D01*
X86339554Y-84830317D01*
X86339554Y-84830316D01*
X86318337Y-84800015D01*
X86317892Y-84799379D01*
X86312080Y-84790256D01*
X86293194Y-84757544D01*
X86264255Y-84733262D01*
X86256280Y-84725954D01*
X85704043Y-84173717D01*
X85696734Y-84165741D01*
X85671994Y-84136257D01*
X85624379Y-84086317D01*
X85611158Y-84017710D01*
X85637128Y-83952846D01*
X85694043Y-83912319D01*
X85734596Y-83905500D01*
X89375500Y-83905500D01*
X89442539Y-83925185D01*
G37*
G04 #@! TD.AperFunction*
G04 #@! TA.AperFunction,Conductor*
G36*
X86082840Y-65225565D02*
G01*
X86122958Y-65256348D01*
X86146661Y-65274536D01*
X86292740Y-65335044D01*
X86428862Y-65352964D01*
X86449501Y-65355682D01*
X86449501Y-65355681D01*
X86449502Y-65355682D01*
X86517320Y-65346753D01*
X86586355Y-65357518D01*
X86621187Y-65382011D01*
X86795452Y-65556276D01*
X86802760Y-65564250D01*
X86827047Y-65593194D01*
X86851096Y-65607079D01*
X86859758Y-65612080D01*
X86868881Y-65617892D01*
X86879337Y-65625213D01*
X86899818Y-65639554D01*
X86899819Y-65639554D01*
X86900700Y-65640171D01*
X86925393Y-65650400D01*
X86926456Y-65650587D01*
X86926457Y-65650588D01*
X86963645Y-65657145D01*
X86974208Y-65659487D01*
X87010694Y-65669264D01*
X87010694Y-65669263D01*
X87010695Y-65669264D01*
X87048321Y-65665971D01*
X87059129Y-65665500D01*
X94318126Y-65665500D01*
X94385165Y-65685185D01*
X94405807Y-65701819D01*
X95926180Y-67222192D01*
X95959665Y-67283515D01*
X95954681Y-67353207D01*
X95912809Y-67409140D01*
X95847345Y-67433557D01*
X95779072Y-67418705D01*
X95761731Y-67407252D01*
X95588705Y-67270849D01*
X95588704Y-67270848D01*
X95586787Y-67269337D01*
X95548130Y-67243507D01*
X95493006Y-67206674D01*
X95486249Y-67201824D01*
X95469856Y-67189202D01*
X95462003Y-67185959D01*
X95180418Y-66997810D01*
X95180411Y-66997805D01*
X95178397Y-66996460D01*
X95132967Y-66971018D01*
X95076172Y-66939211D01*
X95069158Y-66934973D01*
X95052465Y-66924117D01*
X95044774Y-66921627D01*
X94749857Y-66756466D01*
X94747649Y-66755448D01*
X94747641Y-66755444D01*
X94639429Y-66705558D01*
X94632210Y-66701940D01*
X94615429Y-66692835D01*
X94607974Y-66691057D01*
X94466943Y-66626041D01*
X94306000Y-66551845D01*
X94305988Y-66551840D01*
X94303808Y-66550835D01*
X94235037Y-66525464D01*
X94185537Y-66507202D01*
X94178172Y-66504213D01*
X94161491Y-66496813D01*
X94154340Y-66495693D01*
X93858012Y-66386372D01*
X93843001Y-66380834D01*
X93840671Y-66380177D01*
X93840653Y-66380171D01*
X93717347Y-66345396D01*
X93709885Y-66343035D01*
X93693498Y-66337275D01*
X93686701Y-66336753D01*
X93372624Y-66248174D01*
X93372619Y-66248172D01*
X93370276Y-66247512D01*
X93367895Y-66247038D01*
X93367881Y-66247035D01*
X93237771Y-66221155D01*
X93230266Y-66219419D01*
X93214372Y-66215216D01*
X93207988Y-66215230D01*
X92890938Y-66152165D01*
X92890928Y-66152163D01*
X92888548Y-66151690D01*
X92886138Y-66151404D01*
X92886127Y-66151403D01*
X92749819Y-66135270D01*
X92742324Y-66134150D01*
X92727115Y-66131399D01*
X92721180Y-66131880D01*
X92400787Y-66093960D01*
X92398355Y-66093864D01*
X92398337Y-66093863D01*
X92256571Y-66088293D01*
X92249136Y-66087777D01*
X92234762Y-66086343D01*
X92229312Y-66087222D01*
X91912444Y-66074773D01*
X91912443Y-66074773D01*
X91910000Y-66074677D01*
X91907557Y-66074773D01*
X91761104Y-66080527D01*
X91753771Y-66080598D01*
X91740413Y-66080332D01*
X91735470Y-66081534D01*
X91421663Y-66093863D01*
X91421644Y-66093864D01*
X91419213Y-66093960D01*
X91266469Y-66112038D01*
X91259305Y-66112675D01*
X91247109Y-66113403D01*
X91242706Y-66114850D01*
X90933872Y-66151403D01*
X90933857Y-66151405D01*
X90931452Y-66151690D01*
X90929075Y-66152162D01*
X90929061Y-66152165D01*
X90775935Y-66182624D01*
X90768949Y-66183808D01*
X90758010Y-66185340D01*
X90754142Y-66186959D01*
X90452118Y-66247035D01*
X90452098Y-66247039D01*
X90449724Y-66247512D01*
X90292426Y-66291874D01*
X90285689Y-66293571D01*
X90276119Y-66295698D01*
X90272783Y-66297414D01*
X89979346Y-66380171D01*
X89979320Y-66380179D01*
X89976999Y-66380834D01*
X89974743Y-66381666D01*
X89974710Y-66381677D01*
X89819059Y-66439100D01*
X89812584Y-66441288D01*
X89804461Y-66443785D01*
X89801652Y-66445522D01*
X89556718Y-66535884D01*
X89516192Y-66550835D01*
X89514019Y-66551836D01*
X89513999Y-66551845D01*
X89358794Y-66623396D01*
X89352621Y-66626041D01*
X89346005Y-66628666D01*
X89343707Y-66630351D01*
X89072349Y-66755448D01*
X89072327Y-66755458D01*
X89070143Y-66756466D01*
X88914509Y-66843625D01*
X88908700Y-66846678D01*
X88903589Y-66849193D01*
X88901776Y-66850755D01*
X88643729Y-66995269D01*
X88643721Y-66995273D01*
X88641603Y-66996460D01*
X88639588Y-66997806D01*
X88639569Y-66997818D01*
X88489040Y-67098398D01*
X88483572Y-67101850D01*
X88479981Y-67103987D01*
X88478623Y-67105358D01*
X88235244Y-67267979D01*
X88235228Y-67267990D01*
X88233213Y-67269337D01*
X88231307Y-67270839D01*
X88231294Y-67270849D01*
X88085035Y-67386151D01*
X88079954Y-67389950D01*
X88077849Y-67391440D01*
X88076902Y-67392562D01*
X87849404Y-67571907D01*
X87849381Y-67571926D01*
X87847493Y-67573415D01*
X87845712Y-67575060D01*
X87845703Y-67575069D01*
X87705077Y-67705062D01*
X87700412Y-67709163D01*
X87699702Y-67709755D01*
X87699114Y-67710575D01*
X87488604Y-67905168D01*
X87488591Y-67905180D01*
X87486819Y-67906819D01*
X87485180Y-67908591D01*
X87485180Y-67908592D01*
X87351534Y-68053169D01*
X87347938Y-68056870D01*
X87347611Y-68057413D01*
X87155068Y-68265703D01*
X87155047Y-68265726D01*
X87153415Y-68267493D01*
X87151926Y-68269381D01*
X87151907Y-68269404D01*
X87026629Y-68428319D01*
X87024737Y-68430603D01*
X87024581Y-68430915D01*
X86850858Y-68651281D01*
X86850833Y-68651314D01*
X86849337Y-68653213D01*
X86847990Y-68655228D01*
X86847979Y-68655244D01*
X86732485Y-68828094D01*
X86732083Y-68828665D01*
X86732053Y-68828741D01*
X86577810Y-69059581D01*
X86577798Y-69059600D01*
X86576460Y-69061603D01*
X86575281Y-69063709D01*
X86575269Y-69063728D01*
X86337657Y-69488014D01*
X86337647Y-69488034D01*
X86336466Y-69490143D01*
X86335454Y-69492338D01*
X86335449Y-69492348D01*
X86131845Y-69933999D01*
X86131836Y-69934020D01*
X86130835Y-69936192D01*
X86130004Y-69938442D01*
X86130000Y-69938454D01*
X85961675Y-70394719D01*
X85960834Y-70396999D01*
X85960179Y-70399320D01*
X85960171Y-70399346D01*
X85831501Y-70855579D01*
X85827512Y-70869724D01*
X85827039Y-70872098D01*
X85827035Y-70872118D01*
X85732165Y-71349061D01*
X85732162Y-71349075D01*
X85731690Y-71351452D01*
X85731405Y-71353857D01*
X85731403Y-71353872D01*
X85674248Y-71836776D01*
X85673960Y-71839213D01*
X85673864Y-71841644D01*
X85673863Y-71841663D01*
X85655531Y-72308254D01*
X85654677Y-72330000D01*
X85654773Y-72332443D01*
X85673863Y-72818336D01*
X85673864Y-72818353D01*
X85673960Y-72820787D01*
X85674247Y-72823214D01*
X85674248Y-72823223D01*
X85730909Y-73301955D01*
X85731690Y-73308548D01*
X85732163Y-73310928D01*
X85732165Y-73310938D01*
X85827035Y-73787881D01*
X85827038Y-73787895D01*
X85827512Y-73790276D01*
X85828172Y-73792617D01*
X85828174Y-73792624D01*
X85960171Y-74260653D01*
X85960177Y-74260671D01*
X85960834Y-74263001D01*
X86044767Y-74490512D01*
X86129005Y-74718849D01*
X86130835Y-74723808D01*
X86131840Y-74725988D01*
X86131845Y-74726000D01*
X86290646Y-75070465D01*
X86336466Y-75169857D01*
X86337649Y-75171970D01*
X86337657Y-75171985D01*
X86575269Y-75596271D01*
X86576460Y-75598397D01*
X86577813Y-75600422D01*
X86577818Y-75600430D01*
X86732051Y-75831258D01*
X86732067Y-75831312D01*
X86732480Y-75831899D01*
X86847050Y-76003364D01*
X86849337Y-76006787D01*
X86850848Y-76008704D01*
X86850849Y-76008705D01*
X87024580Y-76229082D01*
X87024676Y-76229322D01*
X87026622Y-76231672D01*
X87153415Y-76392507D01*
X87347611Y-76602587D01*
X87347817Y-76603003D01*
X87351513Y-76606808D01*
X87486819Y-76753181D01*
X87699114Y-76949424D01*
X87699502Y-76950074D01*
X87700382Y-76950809D01*
X87705054Y-76954916D01*
X87845703Y-77084931D01*
X87845712Y-77084938D01*
X87847493Y-77086585D01*
X88076903Y-77267438D01*
X88077545Y-77268341D01*
X88079934Y-77270034D01*
X88085014Y-77273832D01*
X88233213Y-77390663D01*
X88235245Y-77392020D01*
X88235244Y-77392020D01*
X88478622Y-77554640D01*
X88479558Y-77555761D01*
X88483558Y-77558141D01*
X88489021Y-77561588D01*
X88641603Y-77663540D01*
X88901777Y-77809245D01*
X88903041Y-77810536D01*
X88908689Y-77813315D01*
X88914515Y-77816378D01*
X89070143Y-77903534D01*
X89297928Y-78008544D01*
X89343706Y-78029648D01*
X89345328Y-78031064D01*
X89352608Y-78033953D01*
X89358782Y-78036598D01*
X89516192Y-78109165D01*
X89518449Y-78109997D01*
X89518462Y-78110003D01*
X89687511Y-78172368D01*
X89801650Y-78214476D01*
X89803653Y-78215964D01*
X89812562Y-78218703D01*
X89819025Y-78220886D01*
X89935058Y-78263693D01*
X89961987Y-78273628D01*
X89976999Y-78279166D01*
X89979350Y-78279829D01*
X89979353Y-78279830D01*
X90272781Y-78362585D01*
X90275182Y-78364091D01*
X90285674Y-78366424D01*
X90292427Y-78368125D01*
X90449724Y-78412488D01*
X90754141Y-78473040D01*
X90756951Y-78474510D01*
X90768928Y-78476188D01*
X90775892Y-78477367D01*
X90931452Y-78508310D01*
X91242705Y-78545149D01*
X91245925Y-78546523D01*
X91259283Y-78547321D01*
X91266446Y-78547959D01*
X91419213Y-78566040D01*
X91735471Y-78578465D01*
X91739112Y-78579692D01*
X91753752Y-78579401D01*
X91761079Y-78579471D01*
X91910000Y-78585323D01*
X92229311Y-78572777D01*
X92233358Y-78573794D01*
X92249110Y-78572223D01*
X92256526Y-78571708D01*
X92400787Y-78566040D01*
X92721178Y-78528119D01*
X92725613Y-78528870D01*
X92742301Y-78525852D01*
X92749764Y-78524736D01*
X92888548Y-78508310D01*
X93207987Y-78444769D01*
X93212795Y-78445199D01*
X93230253Y-78440583D01*
X93237738Y-78438851D01*
X93370276Y-78412488D01*
X93686701Y-78323247D01*
X93691852Y-78323302D01*
X93709863Y-78316971D01*
X93717287Y-78314620D01*
X93843001Y-78279166D01*
X94154342Y-78164305D01*
X94159805Y-78163934D01*
X94178163Y-78155790D01*
X94185521Y-78152803D01*
X94303808Y-78109165D01*
X94607973Y-77968942D01*
X94613703Y-77968098D01*
X94632191Y-77958068D01*
X94639411Y-77954450D01*
X94749857Y-77903534D01*
X95044773Y-77738372D01*
X95050729Y-77737010D01*
X95069146Y-77725032D01*
X95076126Y-77720814D01*
X95178397Y-77663540D01*
X95462003Y-77474040D01*
X95468137Y-77472119D01*
X95486247Y-77458176D01*
X95492987Y-77453337D01*
X95586787Y-77390663D01*
X95857081Y-77177579D01*
X95863340Y-77175064D01*
X95880915Y-77159156D01*
X95887349Y-77153718D01*
X95972507Y-77086585D01*
X96227520Y-76850852D01*
X96233842Y-76847716D01*
X96250653Y-76829871D01*
X96256718Y-76823862D01*
X96333181Y-76753181D01*
X96571014Y-76495894D01*
X96577340Y-76492110D01*
X96593174Y-76472370D01*
X96598830Y-76465803D01*
X96666585Y-76392507D01*
X96885413Y-76114924D01*
X96891672Y-76110478D01*
X96906302Y-76088934D01*
X96911509Y-76081823D01*
X96970663Y-76006787D01*
X97168754Y-75710321D01*
X97174880Y-75705202D01*
X97188105Y-75681940D01*
X97192789Y-75674350D01*
X97243540Y-75598397D01*
X97419277Y-75284596D01*
X97425195Y-75278803D01*
X97436818Y-75253949D01*
X97440935Y-75245922D01*
X97483534Y-75169857D01*
X97635409Y-74840411D01*
X97641054Y-74833944D01*
X97650896Y-74807631D01*
X97654430Y-74799155D01*
X97688145Y-74726021D01*
X97688154Y-74726000D01*
X97689165Y-74723808D01*
X97746002Y-74569746D01*
X97769164Y-74506962D01*
X97810836Y-74450879D01*
X97876212Y-74426228D01*
X97944538Y-74440836D01*
X97994119Y-74490065D01*
X98009500Y-74549880D01*
X98009500Y-76909715D01*
X97989815Y-76976754D01*
X97937011Y-77022509D01*
X97867853Y-77032453D01*
X97838048Y-77024276D01*
X97767262Y-76994956D01*
X97610499Y-76974317D01*
X97453737Y-76994956D01*
X97307661Y-77055462D01*
X97280794Y-77076078D01*
X97190087Y-77145679D01*
X97124922Y-77170872D01*
X97114604Y-77171302D01*
X96996430Y-77171302D01*
X96985622Y-77170830D01*
X96947994Y-77167537D01*
X96911506Y-77177314D01*
X96900950Y-77179654D01*
X96862701Y-77186399D01*
X96837995Y-77196633D01*
X96806182Y-77218908D01*
X96797066Y-77224716D01*
X96764347Y-77243607D01*
X96740064Y-77272546D01*
X96732758Y-77280518D01*
X94955097Y-79058181D01*
X94893774Y-79091666D01*
X94867416Y-79094500D01*
X90754628Y-79094500D01*
X90743820Y-79094028D01*
X90706192Y-79090735D01*
X90669704Y-79100512D01*
X90659148Y-79102852D01*
X90620899Y-79109597D01*
X90596193Y-79119831D01*
X90564380Y-79142106D01*
X90555264Y-79147914D01*
X90522545Y-79166805D01*
X90498262Y-79195744D01*
X90490956Y-79203716D01*
X90097681Y-79596992D01*
X90036358Y-79630477D01*
X89966667Y-79625493D01*
X89922319Y-79596992D01*
X87499043Y-77173717D01*
X87491734Y-77165741D01*
X87481634Y-77153704D01*
X87467455Y-77136806D01*
X87467454Y-77136805D01*
X87434736Y-77117915D01*
X87425627Y-77112112D01*
X87394684Y-77090446D01*
X87393803Y-77089829D01*
X87369107Y-77079599D01*
X87330852Y-77072853D01*
X87320296Y-77070512D01*
X87283807Y-77060735D01*
X87246180Y-77064028D01*
X87235372Y-77064500D01*
X79625188Y-77064500D01*
X79558149Y-77044815D01*
X79512394Y-76992011D01*
X79502450Y-76922853D01*
X79531475Y-76859297D01*
X79537507Y-76852819D01*
X79653507Y-76736819D01*
X79714830Y-76703334D01*
X79741188Y-76700500D01*
X80119749Y-76700500D01*
X80148989Y-76694683D01*
X80178231Y-76688867D01*
X80244552Y-76644552D01*
X80288867Y-76578231D01*
X80300500Y-76519748D01*
X80300500Y-76063888D01*
X80320185Y-75996849D01*
X80372989Y-75951094D01*
X80402962Y-75941773D01*
X80438045Y-75935588D01*
X80438047Y-75935586D01*
X80439112Y-75935399D01*
X80463799Y-75925173D01*
X80464682Y-75924554D01*
X80464684Y-75924554D01*
X80495625Y-75902887D01*
X80504722Y-75897091D01*
X80537455Y-75878194D01*
X80561742Y-75849247D01*
X80569028Y-75841296D01*
X80641301Y-75769024D01*
X80649254Y-75761736D01*
X80678194Y-75737455D01*
X80697082Y-75704738D01*
X80702881Y-75695635D01*
X80724554Y-75664684D01*
X80724554Y-75664682D01*
X80725173Y-75663799D01*
X80735398Y-75639112D01*
X80735585Y-75638049D01*
X80735588Y-75638045D01*
X80742150Y-75600822D01*
X80744479Y-75590316D01*
X80754263Y-75553807D01*
X80753496Y-75545044D01*
X80750972Y-75516187D01*
X80750500Y-75505380D01*
X80750500Y-73794626D01*
X80750972Y-73783818D01*
X80754264Y-73746192D01*
X80744487Y-73709706D01*
X80742145Y-73699143D01*
X80741563Y-73695840D01*
X80735588Y-73661955D01*
X80735587Y-73661954D01*
X80735400Y-73660891D01*
X80725171Y-73636198D01*
X80724554Y-73635317D01*
X80724554Y-73635316D01*
X80703612Y-73605408D01*
X80702892Y-73604379D01*
X80697080Y-73595256D01*
X80678194Y-73562544D01*
X80649255Y-73538262D01*
X80641280Y-73530954D01*
X80361819Y-73251493D01*
X80328334Y-73190170D01*
X80325500Y-73163812D01*
X80325500Y-73064741D01*
X80345185Y-72997702D01*
X80397989Y-72951947D01*
X80467147Y-72942003D01*
X80490195Y-72947636D01*
X80490300Y-72947645D01*
X80490301Y-72947646D01*
X80520734Y-72950500D01*
X80523627Y-72950500D01*
X81276373Y-72950500D01*
X81279266Y-72950500D01*
X81309699Y-72947646D01*
X81437882Y-72902793D01*
X81437882Y-72902792D01*
X81437884Y-72902792D01*
X81547150Y-72822150D01*
X81627792Y-72712885D01*
X81632715Y-72698817D01*
X81658458Y-72625243D01*
X81699180Y-72568469D01*
X81764132Y-72542721D01*
X81832694Y-72556177D01*
X81883097Y-72604564D01*
X81899500Y-72666199D01*
X81899500Y-73775500D01*
X81879815Y-73842539D01*
X81827011Y-73888294D01*
X81775500Y-73899500D01*
X81680251Y-73899500D01*
X81621769Y-73911132D01*
X81555447Y-73955447D01*
X81511132Y-74021769D01*
X81499500Y-74080251D01*
X81499500Y-74569746D01*
X81510651Y-74625809D01*
X81510651Y-74674188D01*
X81499500Y-74730251D01*
X81499500Y-75219748D01*
X81511132Y-75278230D01*
X81555447Y-75344552D01*
X81621769Y-75388867D01*
X81680251Y-75400500D01*
X81680252Y-75400500D01*
X82625500Y-75400500D01*
X82692539Y-75420185D01*
X82738294Y-75472989D01*
X82749500Y-75524500D01*
X82749500Y-75725500D01*
X82729815Y-75792539D01*
X82677011Y-75838294D01*
X82625500Y-75849500D01*
X81680251Y-75849500D01*
X81621769Y-75861132D01*
X81555447Y-75905447D01*
X81511132Y-75971769D01*
X81499500Y-76030251D01*
X81499500Y-76519748D01*
X81511132Y-76578230D01*
X81555447Y-76644552D01*
X81621769Y-76688867D01*
X81680251Y-76700500D01*
X81680252Y-76700500D01*
X82769749Y-76700500D01*
X82798989Y-76694683D01*
X82828231Y-76688867D01*
X82894552Y-76644552D01*
X82894551Y-76644552D01*
X82915060Y-76630849D01*
X82915834Y-76632007D01*
X82940219Y-76611625D01*
X83000525Y-76601789D01*
X83028807Y-76604264D01*
X83065324Y-76594478D01*
X83075830Y-76592149D01*
X83113045Y-76585588D01*
X83113047Y-76585586D01*
X83114112Y-76585399D01*
X83138799Y-76575173D01*
X83139682Y-76574554D01*
X83139684Y-76574554D01*
X83170625Y-76552887D01*
X83179722Y-76547091D01*
X83212455Y-76528194D01*
X83236748Y-76499241D01*
X83244036Y-76491288D01*
X83291290Y-76444034D01*
X83299258Y-76436734D01*
X83328192Y-76412457D01*
X83328192Y-76412456D01*
X83328194Y-76412455D01*
X83347091Y-76379722D01*
X83352887Y-76370625D01*
X83374554Y-76339684D01*
X83374554Y-76339682D01*
X83375173Y-76338799D01*
X83385399Y-76314112D01*
X83385586Y-76313047D01*
X83385588Y-76313045D01*
X83392149Y-76275830D01*
X83394478Y-76265324D01*
X83404264Y-76228807D01*
X83400972Y-76191180D01*
X83400500Y-76180372D01*
X83400500Y-75075346D01*
X83417110Y-75013351D01*
X83422082Y-75004737D01*
X83427887Y-74995625D01*
X83449554Y-74964684D01*
X83449554Y-74964682D01*
X83450173Y-74963799D01*
X83460399Y-74939112D01*
X83460586Y-74938047D01*
X83460588Y-74938045D01*
X83467149Y-74900830D01*
X83469478Y-74890324D01*
X83479264Y-74853807D01*
X83475972Y-74816180D01*
X83475500Y-74805372D01*
X83475500Y-73948299D01*
X83495185Y-73881260D01*
X83524014Y-73849923D01*
X83533637Y-73842539D01*
X83578282Y-73808282D01*
X83674536Y-73682841D01*
X83735044Y-73536762D01*
X83755682Y-73380000D01*
X83735044Y-73223238D01*
X83674536Y-73077159D01*
X83670852Y-73072358D01*
X83645657Y-73007191D01*
X83659694Y-72938746D01*
X83695590Y-72897103D01*
X83797150Y-72822150D01*
X83797150Y-72822148D01*
X83797152Y-72822148D01*
X83877792Y-72712884D01*
X83882076Y-72700641D01*
X83922646Y-72584699D01*
X83925500Y-72554266D01*
X83925500Y-69212792D01*
X83945185Y-69145754D01*
X83997989Y-69099999D01*
X84050242Y-69088795D01*
X85863300Y-69099724D01*
X85883356Y-65323281D01*
X85903396Y-65256348D01*
X85956442Y-65210875D01*
X86025653Y-65201299D01*
X86082840Y-65225565D01*
G37*
G04 #@! TD.AperFunction*
G04 #@! TA.AperFunction,Conductor*
G36*
X109792781Y-78712811D02*
G01*
X109815306Y-78730632D01*
X110633681Y-79549007D01*
X110667166Y-79610330D01*
X110670000Y-79636688D01*
X110670000Y-79691699D01*
X110650315Y-79758738D01*
X110621488Y-79790074D01*
X110567217Y-79831718D01*
X110470963Y-79957159D01*
X110410456Y-80103237D01*
X110389817Y-80260000D01*
X110410456Y-80416762D01*
X110470963Y-80562840D01*
X110567217Y-80688282D01*
X110670108Y-80767232D01*
X110692659Y-80784536D01*
X110838738Y-80845044D01*
X110974860Y-80862964D01*
X110995499Y-80865682D01*
X110995499Y-80865681D01*
X110995500Y-80865682D01*
X111152262Y-80845044D01*
X111223049Y-80815722D01*
X111292516Y-80808254D01*
X111354996Y-80839529D01*
X111390648Y-80899618D01*
X111394500Y-80930284D01*
X111394500Y-81914811D01*
X111374815Y-81981850D01*
X111322011Y-82027605D01*
X111252853Y-82037549D01*
X111189297Y-82008524D01*
X111182819Y-82002492D01*
X108561819Y-79381492D01*
X108528334Y-79320169D01*
X108525500Y-79293811D01*
X108525500Y-78844500D01*
X108545185Y-78777461D01*
X108597989Y-78731706D01*
X108649500Y-78720500D01*
X109609749Y-78720500D01*
X109692422Y-78704055D01*
X109692535Y-78704626D01*
X109725399Y-78694333D01*
X109792781Y-78712811D01*
G37*
G04 #@! TD.AperFunction*
G04 #@! TA.AperFunction,Conductor*
G36*
X97001933Y-68300407D02*
G01*
X97017807Y-68313819D01*
X98515564Y-69811576D01*
X98522872Y-69819550D01*
X98547159Y-69848494D01*
X98568579Y-69860861D01*
X98579870Y-69867380D01*
X98588993Y-69873192D01*
X98619930Y-69894854D01*
X98619931Y-69894854D01*
X98620812Y-69895471D01*
X98645505Y-69905700D01*
X98646568Y-69905887D01*
X98646569Y-69905888D01*
X98683757Y-69912445D01*
X98694320Y-69914787D01*
X98730806Y-69924564D01*
X98730806Y-69924563D01*
X98730807Y-69924564D01*
X98768433Y-69921271D01*
X98779241Y-69920800D01*
X101357200Y-69920800D01*
X101424239Y-69940485D01*
X101469994Y-69993289D01*
X101481200Y-70044800D01*
X101481200Y-71616448D01*
X101492832Y-71674930D01*
X101550788Y-71761665D01*
X101571666Y-71828342D01*
X101553182Y-71895722D01*
X101546062Y-71906042D01*
X101456579Y-72022659D01*
X101396072Y-72168737D01*
X101388183Y-72228660D01*
X101359916Y-72292556D01*
X101301591Y-72331027D01*
X101231727Y-72331858D01*
X101172503Y-72294786D01*
X101166868Y-72287960D01*
X101080588Y-72175517D01*
X100955146Y-72079263D01*
X100809068Y-72018756D01*
X100652305Y-71998117D01*
X100495543Y-72018756D01*
X100349465Y-72079263D01*
X100224025Y-72175516D01*
X100186184Y-72224832D01*
X100129756Y-72266034D01*
X100116804Y-72267714D01*
X100117116Y-72268877D01*
X100059508Y-72284312D01*
X100048952Y-72286652D01*
X100010703Y-72293397D01*
X99985997Y-72303631D01*
X99954184Y-72325906D01*
X99945068Y-72331714D01*
X99912349Y-72350605D01*
X99888066Y-72379544D01*
X99880760Y-72387516D01*
X98137783Y-74130493D01*
X98076460Y-74163978D01*
X98006768Y-74158994D01*
X97950835Y-74117122D01*
X97926418Y-74051658D01*
X97930758Y-74009153D01*
X97933199Y-74000500D01*
X97959312Y-73907908D01*
X97964198Y-73900122D01*
X97970000Y-73871330D01*
X97972204Y-73862194D01*
X97992488Y-73790276D01*
X98088310Y-73308548D01*
X98146040Y-72820787D01*
X98165323Y-72330000D01*
X98146040Y-71839213D01*
X98088310Y-71351452D01*
X97992488Y-70869724D01*
X97972211Y-70797829D01*
X97970000Y-70788669D01*
X97964811Y-70762919D01*
X97959314Y-70752100D01*
X97859166Y-70396999D01*
X97858321Y-70394710D01*
X97858317Y-70394696D01*
X97831887Y-70323055D01*
X97828995Y-70314208D01*
X97821922Y-70289459D01*
X97815796Y-70279439D01*
X97768027Y-70149956D01*
X97689165Y-69936192D01*
X97654436Y-69860860D01*
X97650905Y-69852386D01*
X97642075Y-69828777D01*
X97635409Y-69819587D01*
X97635392Y-69819550D01*
X97483534Y-69490143D01*
X97440946Y-69414098D01*
X97436823Y-69406058D01*
X97426382Y-69383733D01*
X97419277Y-69375405D01*
X97243540Y-69061603D01*
X97192799Y-68985664D01*
X97188109Y-68978065D01*
X97176213Y-68957141D01*
X97168754Y-68949678D01*
X97162287Y-68940000D01*
X96970663Y-68653213D01*
X96911503Y-68578169D01*
X96906303Y-68571068D01*
X96893127Y-68551663D01*
X96885414Y-68545076D01*
X96832745Y-68478266D01*
X96806702Y-68413433D01*
X96819843Y-68344811D01*
X96867999Y-68294186D01*
X96935879Y-68277634D01*
X97001933Y-68300407D01*
G37*
G04 #@! TD.AperFunction*
G04 #@! TA.AperFunction,Conductor*
G36*
X103004841Y-72757287D02*
G01*
X103060774Y-72799159D01*
X103076068Y-72826016D01*
X103095463Y-72872841D01*
X103191717Y-72998282D01*
X103317159Y-73094536D01*
X103388443Y-73124063D01*
X103442847Y-73167904D01*
X103464912Y-73234198D01*
X103447633Y-73301897D01*
X103428673Y-73326304D01*
X103388498Y-73366480D01*
X103327176Y-73399966D01*
X103300816Y-73402800D01*
X102931951Y-73402800D01*
X102873469Y-73414432D01*
X102807147Y-73458747D01*
X102762832Y-73525069D01*
X102751199Y-73583551D01*
X102751199Y-75299448D01*
X102762832Y-75357930D01*
X102807147Y-75424252D01*
X102873469Y-75468567D01*
X102931951Y-75480200D01*
X102931952Y-75480200D01*
X103708049Y-75480200D01*
X103744300Y-75472989D01*
X103766531Y-75468567D01*
X103832852Y-75424252D01*
X103851898Y-75395747D01*
X103905510Y-75350943D01*
X103974835Y-75342236D01*
X104037863Y-75372391D01*
X104058102Y-75395748D01*
X104077147Y-75424252D01*
X104143469Y-75468567D01*
X104201951Y-75480200D01*
X104201952Y-75480200D01*
X104531511Y-75480200D01*
X104598550Y-75499885D01*
X104644305Y-75552689D01*
X104654249Y-75621847D01*
X104625224Y-75685403D01*
X104619200Y-75691872D01*
X104549348Y-75761725D01*
X104500732Y-75810341D01*
X104492759Y-75817646D01*
X104463824Y-75841926D01*
X104444932Y-75874646D01*
X104439124Y-75883762D01*
X104416849Y-75915575D01*
X104405536Y-75942884D01*
X104400465Y-75951667D01*
X104368567Y-75988041D01*
X104288735Y-76049299D01*
X104192481Y-76174740D01*
X104131974Y-76320818D01*
X104111335Y-76477580D01*
X104131973Y-76634341D01*
X104131974Y-76634343D01*
X104137651Y-76648048D01*
X104145120Y-76717516D01*
X104113845Y-76779996D01*
X104053756Y-76815648D01*
X104023090Y-76819500D01*
X99707429Y-76819500D01*
X99640390Y-76799815D01*
X99594635Y-76747011D01*
X99584691Y-76677853D01*
X99586913Y-76671432D01*
X99586790Y-76671411D01*
X99590587Y-76649873D01*
X99590588Y-76649872D01*
X99597149Y-76612657D01*
X99599478Y-76602151D01*
X99609264Y-76565634D01*
X99608149Y-76552894D01*
X99605972Y-76528003D01*
X99605500Y-76517196D01*
X99605500Y-74271188D01*
X99625185Y-74204149D01*
X99641819Y-74183507D01*
X100185207Y-73640119D01*
X100246530Y-73606634D01*
X100272888Y-73603800D01*
X100378475Y-73603800D01*
X100463045Y-73588888D01*
X100495047Y-73570411D01*
X100557045Y-73553800D01*
X101952356Y-73553800D01*
X101976547Y-73556183D01*
X101991700Y-73559197D01*
X102006853Y-73556183D01*
X102006853Y-73556182D01*
X102018832Y-73553800D01*
X102018833Y-73553800D01*
X102099195Y-73537815D01*
X102154973Y-73500545D01*
X102167322Y-73492294D01*
X102167321Y-73492294D01*
X102180752Y-73483321D01*
X102180754Y-73483317D01*
X102190324Y-73476924D01*
X102198911Y-73464071D01*
X102214324Y-73445290D01*
X102873828Y-72785786D01*
X102935149Y-72752303D01*
X103004841Y-72757287D01*
G37*
G04 #@! TD.AperFunction*
G04 #@! TA.AperFunction,Conductor*
G36*
X106577863Y-75372391D02*
G01*
X106598102Y-75395748D01*
X106617147Y-75424252D01*
X106650420Y-75446484D01*
X106683469Y-75468567D01*
X106704693Y-75472788D01*
X106766601Y-75505172D01*
X106801176Y-75565887D01*
X106804500Y-75594405D01*
X106804500Y-76113255D01*
X106804028Y-76124063D01*
X106800735Y-76161690D01*
X106810512Y-76198179D01*
X106812853Y-76208735D01*
X106819599Y-76246990D01*
X106829829Y-76271685D01*
X106830445Y-76272565D01*
X106830446Y-76272567D01*
X106831277Y-76273754D01*
X106853605Y-76339959D01*
X106852642Y-76361063D01*
X106839395Y-76461685D01*
X106811129Y-76525582D01*
X106752804Y-76564053D01*
X106716456Y-76569500D01*
X105870251Y-76569500D01*
X105811769Y-76581132D01*
X105745447Y-76625447D01*
X105701132Y-76691769D01*
X105689500Y-76750251D01*
X105689500Y-77239748D01*
X105701132Y-77298230D01*
X105745447Y-77364552D01*
X105811769Y-77408867D01*
X105870251Y-77420500D01*
X105870252Y-77420500D01*
X106455824Y-77420500D01*
X106485122Y-77424356D01*
X106486191Y-77424262D01*
X106486193Y-77424263D01*
X106523811Y-77420971D01*
X106534618Y-77420500D01*
X106917416Y-77420500D01*
X106984455Y-77440185D01*
X107005097Y-77456819D01*
X107279579Y-77731301D01*
X107313064Y-77792624D01*
X107308080Y-77862316D01*
X107266208Y-77918249D01*
X107200744Y-77942666D01*
X107197024Y-77942876D01*
X107166652Y-77944132D01*
X107160329Y-77944394D01*
X107155208Y-77944500D01*
X107150680Y-77944500D01*
X107083641Y-77924815D01*
X107081789Y-77923602D01*
X107018230Y-77881132D01*
X106959749Y-77869500D01*
X106959748Y-77869500D01*
X105870252Y-77869500D01*
X105870251Y-77869500D01*
X105811769Y-77881132D01*
X105748211Y-77923602D01*
X105681534Y-77944480D01*
X105679320Y-77944500D01*
X104634500Y-77944500D01*
X104567461Y-77924815D01*
X104521706Y-77872011D01*
X104510500Y-77820500D01*
X104510500Y-77218626D01*
X104510500Y-77218625D01*
X104510500Y-77215734D01*
X104509858Y-77208893D01*
X104523195Y-77140311D01*
X104571494Y-77089823D01*
X104639421Y-77073463D01*
X104649492Y-77074373D01*
X104717018Y-77083263D01*
X104873780Y-77062625D01*
X105019859Y-77002117D01*
X105145300Y-76905863D01*
X105241554Y-76780422D01*
X105302062Y-76634343D01*
X105322700Y-76477581D01*
X105302062Y-76320819D01*
X105248364Y-76191180D01*
X105241555Y-76174742D01*
X105241554Y-76174741D01*
X105241554Y-76174740D01*
X105227617Y-76156577D01*
X105202424Y-76091410D01*
X105216462Y-76022965D01*
X105238309Y-75993415D01*
X105715206Y-75516519D01*
X105776530Y-75483034D01*
X105802888Y-75480200D01*
X106248049Y-75480200D01*
X106284300Y-75472989D01*
X106306531Y-75468567D01*
X106372852Y-75424252D01*
X106391898Y-75395747D01*
X106445510Y-75350943D01*
X106514835Y-75342236D01*
X106577863Y-75372391D01*
G37*
G04 #@! TD.AperFunction*
G04 #@! TA.AperFunction,Conductor*
G36*
X110438286Y-70104210D02*
G01*
X110477159Y-70134038D01*
X110520234Y-70151880D01*
X110521578Y-70152437D01*
X110575981Y-70196278D01*
X110598046Y-70262572D01*
X110580767Y-70330271D01*
X110572502Y-70342483D01*
X110564655Y-70352709D01*
X110504148Y-70498787D01*
X110485739Y-70638618D01*
X110480163Y-70651221D01*
X110481777Y-70653732D01*
X110485739Y-70672482D01*
X110504148Y-70812312D01*
X110564655Y-70958390D01*
X110660909Y-71083832D01*
X110765614Y-71164174D01*
X110786351Y-71180086D01*
X110932430Y-71240594D01*
X111068552Y-71258514D01*
X111089191Y-71261232D01*
X111089191Y-71261231D01*
X111089192Y-71261232D01*
X111245954Y-71240594D01*
X111392033Y-71180086D01*
X111517474Y-71083832D01*
X111613728Y-70958391D01*
X111674236Y-70812312D01*
X111694874Y-70655550D01*
X111685945Y-70587730D01*
X111696710Y-70518696D01*
X111720666Y-70484403D01*
X111720747Y-70484321D01*
X111729249Y-70476483D01*
X111758194Y-70452197D01*
X111777082Y-70419480D01*
X111782881Y-70410377D01*
X111804554Y-70379426D01*
X111804554Y-70379424D01*
X111805173Y-70378541D01*
X111815398Y-70353854D01*
X111815585Y-70352791D01*
X111815588Y-70352787D01*
X111822150Y-70315564D01*
X111824487Y-70305029D01*
X111825345Y-70301826D01*
X111861723Y-70242175D01*
X111924576Y-70211659D01*
X111993950Y-70219969D01*
X112043489Y-70258461D01*
X112081717Y-70308282D01*
X112199681Y-70398798D01*
X112207159Y-70404536D01*
X112353238Y-70465044D01*
X112472538Y-70480750D01*
X112526185Y-70487813D01*
X112525839Y-70490434D01*
X112571086Y-70497485D01*
X112623347Y-70543859D01*
X112642240Y-70611126D01*
X112621767Y-70677929D01*
X112605930Y-70697346D01*
X110386797Y-72916481D01*
X110325474Y-72949966D01*
X110299116Y-72952800D01*
X108288711Y-72952800D01*
X108221672Y-72933115D01*
X108175917Y-72880311D01*
X108165973Y-72811153D01*
X108174150Y-72781348D01*
X108192052Y-72738127D01*
X108205044Y-72706762D01*
X108225682Y-72550000D01*
X108205044Y-72393238D01*
X108144536Y-72247159D01*
X108144536Y-72247158D01*
X108048282Y-72121717D01*
X107911988Y-72017136D01*
X107870785Y-71960708D01*
X107866630Y-71890962D01*
X107900842Y-71830042D01*
X107962559Y-71797289D01*
X108011665Y-71797143D01*
X108011952Y-71797200D01*
X108011955Y-71797200D01*
X108788049Y-71797200D01*
X108823315Y-71790185D01*
X108846531Y-71785567D01*
X108912852Y-71741252D01*
X108931898Y-71712747D01*
X108985510Y-71667943D01*
X109054835Y-71659236D01*
X109117863Y-71689391D01*
X109138102Y-71712748D01*
X109157147Y-71741252D01*
X109223469Y-71785567D01*
X109281951Y-71797200D01*
X109281952Y-71797200D01*
X110058049Y-71797200D01*
X110093315Y-71790185D01*
X110116531Y-71785567D01*
X110182852Y-71741252D01*
X110227167Y-71674931D01*
X110238800Y-71616448D01*
X110238800Y-70688667D01*
X110247893Y-70657696D01*
X110240281Y-70641538D01*
X110238800Y-70622432D01*
X110238800Y-70202586D01*
X110258485Y-70135547D01*
X110311289Y-70089792D01*
X110380447Y-70079848D01*
X110438286Y-70104210D01*
G37*
G04 #@! TD.AperFunction*
G04 #@! TA.AperFunction,Conductor*
G36*
X77005390Y-69046333D02*
G01*
X77072310Y-69066422D01*
X77092324Y-69082650D01*
X77435450Y-69425776D01*
X77442758Y-69433750D01*
X77467045Y-69462694D01*
X77491094Y-69476579D01*
X77499756Y-69481580D01*
X77508879Y-69487392D01*
X77509796Y-69488034D01*
X77539816Y-69509054D01*
X77539817Y-69509054D01*
X77540698Y-69509671D01*
X77565391Y-69519900D01*
X77566454Y-69520087D01*
X77566455Y-69520088D01*
X77603643Y-69526645D01*
X77614201Y-69528985D01*
X77650693Y-69538764D01*
X77688323Y-69535471D01*
X77699130Y-69535000D01*
X77744117Y-69535000D01*
X77811156Y-69554685D01*
X77831798Y-69571319D01*
X78453181Y-70192701D01*
X78486666Y-70254024D01*
X78489500Y-70280382D01*
X78489500Y-70325372D01*
X78489028Y-70336180D01*
X78485735Y-70373807D01*
X78495512Y-70410296D01*
X78497853Y-70420852D01*
X78504599Y-70459107D01*
X78514830Y-70483806D01*
X78525734Y-70499378D01*
X78548061Y-70565585D01*
X78531049Y-70633352D01*
X78480100Y-70681164D01*
X78424158Y-70694500D01*
X77617554Y-70694500D01*
X77556707Y-70706603D01*
X77513389Y-70735547D01*
X77446711Y-70756424D01*
X77379331Y-70737939D01*
X77332642Y-70685960D01*
X77320499Y-70632447D01*
X77320499Y-70382554D01*
X77308397Y-70321708D01*
X77282426Y-70282840D01*
X77262292Y-70252707D01*
X77193291Y-70206602D01*
X77132447Y-70194500D01*
X76247554Y-70194500D01*
X76209257Y-70202118D01*
X76185068Y-70204500D01*
X75008108Y-70204500D01*
X74960656Y-70195061D01*
X74851762Y-70149956D01*
X74694998Y-70129317D01*
X74686600Y-70130423D01*
X74617565Y-70119654D01*
X74565312Y-70073272D01*
X74547481Y-70023668D01*
X74544477Y-70000850D01*
X74525044Y-69853238D01*
X74464536Y-69707159D01*
X74441516Y-69677159D01*
X74368282Y-69581717D01*
X74242840Y-69485463D01*
X74096762Y-69424956D01*
X73939999Y-69404317D01*
X73875685Y-69412785D01*
X73806650Y-69402019D01*
X73754394Y-69355639D01*
X73735500Y-69289846D01*
X73735500Y-69151373D01*
X73755185Y-69084334D01*
X73807989Y-69038579D01*
X73860242Y-69027375D01*
X77005390Y-69046333D01*
G37*
G04 #@! TD.AperFunction*
G04 #@! TA.AperFunction,Conductor*
G36*
X80001247Y-69064390D02*
G01*
X80068167Y-69084479D01*
X80113603Y-69137557D01*
X80124500Y-69188388D01*
X80124500Y-70824006D01*
X80104815Y-70891045D01*
X80052011Y-70936800D01*
X79982853Y-70946744D01*
X79919297Y-70917719D01*
X79912819Y-70911688D01*
X79868506Y-70867375D01*
X79819836Y-70818705D01*
X79812539Y-70810741D01*
X79788259Y-70781805D01*
X79755541Y-70762915D01*
X79746432Y-70757112D01*
X79715489Y-70735446D01*
X79714608Y-70734829D01*
X79689909Y-70724598D01*
X79685935Y-70723898D01*
X79623333Y-70692869D01*
X79619790Y-70689463D01*
X79176819Y-70246491D01*
X79143334Y-70185168D01*
X79140500Y-70158810D01*
X79140500Y-70113821D01*
X79140972Y-70103013D01*
X79144264Y-70065387D01*
X79134487Y-70028901D01*
X79132145Y-70018338D01*
X79130675Y-70010000D01*
X79125588Y-69981150D01*
X79125587Y-69981149D01*
X79125400Y-69980086D01*
X79115171Y-69955393D01*
X79114554Y-69954512D01*
X79114554Y-69954511D01*
X79092892Y-69923574D01*
X79087080Y-69914451D01*
X79068194Y-69881739D01*
X79039255Y-69857457D01*
X79031280Y-69850149D01*
X78448373Y-69267242D01*
X78414888Y-69205919D01*
X78419872Y-69136227D01*
X78461744Y-69080294D01*
X78527208Y-69055877D01*
X78536781Y-69055563D01*
X80001247Y-69064390D01*
G37*
G04 #@! TD.AperFunction*
G04 #@! TA.AperFunction,Conductor*
G36*
X101175851Y-36765185D02*
G01*
X101196493Y-36781819D01*
X101575732Y-37161058D01*
X101609217Y-37222381D01*
X101604233Y-37292073D01*
X101562361Y-37348006D01*
X101496897Y-37372423D01*
X101471866Y-37371678D01*
X101340000Y-37354317D01*
X101183237Y-37374956D01*
X101037159Y-37435463D01*
X100911717Y-37531717D01*
X100815463Y-37657159D01*
X100754956Y-37803237D01*
X100734317Y-37960000D01*
X100754956Y-38116762D01*
X100815463Y-38262840D01*
X100911717Y-38388282D01*
X100915983Y-38391555D01*
X101015986Y-38468289D01*
X101057189Y-38524716D01*
X101064500Y-38566665D01*
X101064500Y-38989956D01*
X101044815Y-39056995D01*
X100992011Y-39102750D01*
X100964692Y-39111573D01*
X100941769Y-39116132D01*
X100875446Y-39160448D01*
X100858101Y-39186408D01*
X100804489Y-39231212D01*
X100735164Y-39239919D01*
X100672137Y-39209764D01*
X100651899Y-39186408D01*
X100634553Y-39160448D01*
X100568230Y-39116132D01*
X100545308Y-39111573D01*
X100483397Y-39079188D01*
X100448823Y-39018472D01*
X100445500Y-38989956D01*
X100445500Y-38809615D01*
X100445972Y-38798807D01*
X100449263Y-38761194D01*
X100439485Y-38724703D01*
X100437144Y-38714140D01*
X100430400Y-38675891D01*
X100420173Y-38651201D01*
X100419554Y-38650317D01*
X100419554Y-38650316D01*
X100397878Y-38619360D01*
X100392085Y-38610266D01*
X100373194Y-38577545D01*
X100344261Y-38553267D01*
X100336286Y-38545959D01*
X99992011Y-38201684D01*
X99958526Y-38140361D01*
X99956753Y-38097817D01*
X99965682Y-38029999D01*
X99956466Y-37960000D01*
X99945044Y-37873238D01*
X99884536Y-37727159D01*
X99868946Y-37706842D01*
X99788282Y-37601717D01*
X99662840Y-37505463D01*
X99516762Y-37444956D01*
X99360000Y-37424317D01*
X99203237Y-37444956D01*
X99057159Y-37505463D01*
X98931717Y-37601717D01*
X98835463Y-37727159D01*
X98774956Y-37873237D01*
X98754317Y-38030000D01*
X98774956Y-38186762D01*
X98835463Y-38332840D01*
X98931717Y-38458282D01*
X99045981Y-38545959D01*
X99057159Y-38554536D01*
X99203238Y-38615044D01*
X99339361Y-38632964D01*
X99359999Y-38635682D01*
X99359999Y-38635681D01*
X99360000Y-38635682D01*
X99427818Y-38626753D01*
X99496853Y-38637518D01*
X99531685Y-38662011D01*
X99758181Y-38888507D01*
X99791666Y-38949830D01*
X99794500Y-38976188D01*
X99794500Y-38989956D01*
X99774815Y-39056995D01*
X99722011Y-39102750D01*
X99694692Y-39111573D01*
X99671769Y-39116132D01*
X99605447Y-39160447D01*
X99561132Y-39226769D01*
X99549500Y-39285251D01*
X99549500Y-39670500D01*
X99529815Y-39737539D01*
X99477011Y-39783294D01*
X99425500Y-39794500D01*
X94943525Y-39794500D01*
X94932717Y-39794028D01*
X94895089Y-39790735D01*
X94858601Y-39800512D01*
X94848045Y-39802852D01*
X94809796Y-39809597D01*
X94785090Y-39819831D01*
X94753277Y-39842106D01*
X94744161Y-39847914D01*
X94711442Y-39866805D01*
X94687159Y-39895744D01*
X94679853Y-39903716D01*
X91805239Y-42778331D01*
X91743916Y-42811816D01*
X91674224Y-42806832D01*
X91618291Y-42764960D01*
X91593874Y-42699496D01*
X91598292Y-42656715D01*
X91616397Y-42593083D01*
X91629814Y-42448282D01*
X91635215Y-42390000D01*
X91616397Y-42186917D01*
X91560582Y-41990750D01*
X91511189Y-41891554D01*
X91469675Y-41808181D01*
X91346763Y-41645419D01*
X91196041Y-41508018D01*
X91022638Y-41400652D01*
X90832457Y-41326976D01*
X90763816Y-41314145D01*
X90631976Y-41289500D01*
X90620187Y-41289500D01*
X90553148Y-41269815D01*
X90507393Y-41217011D01*
X90497449Y-41147853D01*
X90526474Y-41084297D01*
X90532506Y-41077819D01*
X91585567Y-40024759D01*
X94828507Y-36781819D01*
X94889831Y-36748334D01*
X94916189Y-36745500D01*
X101108812Y-36745500D01*
X101175851Y-36765185D01*
G37*
G04 #@! TD.AperFunction*
G04 #@! TA.AperFunction,Conductor*
G36*
X96772526Y-40465185D02*
G01*
X96818281Y-40517989D01*
X96828225Y-40587147D01*
X96803863Y-40644986D01*
X96725463Y-40747159D01*
X96664956Y-40893237D01*
X96644317Y-41050000D01*
X96664956Y-41206762D01*
X96725463Y-41352840D01*
X96821717Y-41478282D01*
X96947158Y-41574536D01*
X96947159Y-41574536D01*
X97093238Y-41635044D01*
X97229360Y-41652964D01*
X97249999Y-41655682D01*
X97249999Y-41655681D01*
X97250000Y-41655682D01*
X97317818Y-41646753D01*
X97386853Y-41657518D01*
X97421685Y-41682011D01*
X98252493Y-42512819D01*
X98285978Y-42574142D01*
X98280994Y-42643834D01*
X98239122Y-42699767D01*
X98173658Y-42724184D01*
X98164812Y-42724500D01*
X97299616Y-42724500D01*
X97288808Y-42724028D01*
X97251193Y-42720736D01*
X97214716Y-42730510D01*
X97204162Y-42732849D01*
X97165905Y-42739595D01*
X97141190Y-42749834D01*
X97109377Y-42772108D01*
X97100261Y-42777915D01*
X97067545Y-42796804D01*
X97043262Y-42825743D01*
X97035956Y-42833715D01*
X96738976Y-43130695D01*
X96677653Y-43164180D01*
X96607961Y-43159196D01*
X96552028Y-43117324D01*
X96527611Y-43051860D01*
X96542463Y-42983587D01*
X96548372Y-42974434D01*
X96565121Y-42940795D01*
X96640582Y-42789250D01*
X96696397Y-42593083D01*
X96715215Y-42390000D01*
X96696397Y-42186917D01*
X96640582Y-41990750D01*
X96591189Y-41891554D01*
X96549675Y-41808181D01*
X96426763Y-41645419D01*
X96276041Y-41508018D01*
X96102638Y-41400652D01*
X95912457Y-41326976D01*
X95843816Y-41314145D01*
X95711976Y-41289500D01*
X95508024Y-41289500D01*
X95445793Y-41301133D01*
X95307542Y-41326976D01*
X95117361Y-41400652D01*
X94943958Y-41508018D01*
X94793236Y-41645419D01*
X94670324Y-41808181D01*
X94579418Y-41990748D01*
X94523602Y-42186916D01*
X94504785Y-42389999D01*
X94523602Y-42593083D01*
X94579418Y-42789251D01*
X94670324Y-42971818D01*
X94793236Y-43134580D01*
X94943958Y-43271981D01*
X95099408Y-43368231D01*
X95117363Y-43379348D01*
X95307544Y-43453024D01*
X95508024Y-43490500D01*
X95508026Y-43490500D01*
X95711974Y-43490500D01*
X95711976Y-43490500D01*
X95912456Y-43453024D01*
X96102637Y-43379348D01*
X96211929Y-43311676D01*
X96279287Y-43293122D01*
X96345986Y-43313930D01*
X96390848Y-43367495D01*
X96399628Y-43436811D01*
X96369540Y-43499870D01*
X96364885Y-43504786D01*
X94691684Y-45177988D01*
X94630361Y-45211473D01*
X94587818Y-45213246D01*
X94520000Y-45204317D01*
X94363237Y-45224956D01*
X94217159Y-45285463D01*
X94091717Y-45381717D01*
X93995463Y-45507159D01*
X93934956Y-45653237D01*
X93914317Y-45810000D01*
X93934956Y-45966762D01*
X93995463Y-46112840D01*
X94091717Y-46238282D01*
X94176902Y-46303646D01*
X94217159Y-46334536D01*
X94339436Y-46385185D01*
X94341257Y-46385939D01*
X94395661Y-46429780D01*
X94417726Y-46496074D01*
X94400447Y-46563773D01*
X94349310Y-46611384D01*
X94293805Y-46624500D01*
X91995734Y-46624500D01*
X91992861Y-46624769D01*
X91992848Y-46624770D01*
X91965303Y-46627353D01*
X91837115Y-46672207D01*
X91727849Y-46752849D01*
X91647207Y-46862115D01*
X91602353Y-46990303D01*
X91600312Y-47012076D01*
X91574455Y-47076985D01*
X91517610Y-47117611D01*
X91476854Y-47124500D01*
X91063939Y-47124500D01*
X91039748Y-47122117D01*
X91024595Y-47119102D01*
X90917101Y-47140484D01*
X90891490Y-47157597D01*
X90848973Y-47186006D01*
X90848971Y-47186007D01*
X90845741Y-47188164D01*
X90845738Y-47188167D01*
X90825970Y-47201376D01*
X90817387Y-47214222D01*
X90801967Y-47233010D01*
X89673010Y-48361967D01*
X89654222Y-48377387D01*
X89641376Y-48385970D01*
X89635504Y-48394758D01*
X89626007Y-48408969D01*
X89626005Y-48408972D01*
X89626006Y-48408973D01*
X89608528Y-48435129D01*
X89580485Y-48477098D01*
X89580484Y-48477100D01*
X89580485Y-48477100D01*
X89567191Y-48543934D01*
X89563025Y-48564880D01*
X89559103Y-48584595D01*
X89562117Y-48599746D01*
X89564500Y-48623938D01*
X89564500Y-49526061D01*
X89562116Y-49550252D01*
X89559103Y-49565405D01*
X89561969Y-49579815D01*
X89562117Y-49580556D01*
X89562117Y-49580559D01*
X89569072Y-49615523D01*
X89580485Y-49672900D01*
X89598574Y-49699972D01*
X89625039Y-49739580D01*
X89641376Y-49764029D01*
X89654222Y-49772612D01*
X89673011Y-49788032D01*
X90198673Y-50313694D01*
X90232158Y-50375017D01*
X90227174Y-50444709D01*
X90185302Y-50500642D01*
X90158445Y-50515936D01*
X90087158Y-50545463D01*
X89961719Y-50641716D01*
X89887876Y-50737951D01*
X89831448Y-50779153D01*
X89761702Y-50783308D01*
X89700782Y-50749096D01*
X89668029Y-50687378D01*
X89665500Y-50662464D01*
X89665500Y-50379618D01*
X89665972Y-50368810D01*
X89669263Y-50331191D01*
X89659486Y-50294704D01*
X89657144Y-50284140D01*
X89656459Y-50280253D01*
X89650588Y-50246955D01*
X89650587Y-50246954D01*
X89650400Y-50245891D01*
X89640171Y-50221198D01*
X89639554Y-50220317D01*
X89639554Y-50220316D01*
X89618971Y-50190920D01*
X89617892Y-50189379D01*
X89612080Y-50180256D01*
X89593194Y-50147544D01*
X89564255Y-50123262D01*
X89556280Y-50115954D01*
X87584043Y-48143717D01*
X87576735Y-48135742D01*
X87555227Y-48110110D01*
X87527214Y-48046102D01*
X87538253Y-47977110D01*
X87555225Y-47950700D01*
X87560641Y-47944246D01*
X87567933Y-47936288D01*
X95022403Y-40481819D01*
X95083727Y-40448334D01*
X95110085Y-40445500D01*
X96705487Y-40445500D01*
X96772526Y-40465185D01*
G37*
G04 #@! TD.AperFunction*
G04 #@! TA.AperFunction,Conductor*
G36*
X91543893Y-47695185D02*
G01*
X91589648Y-47747989D01*
X91600312Y-47787924D01*
X91602353Y-47809696D01*
X91647207Y-47937884D01*
X91727849Y-48047150D01*
X91837115Y-48127792D01*
X91837118Y-48127793D01*
X91965301Y-48172646D01*
X91995734Y-48175500D01*
X91998627Y-48175500D01*
X96801373Y-48175500D01*
X96804266Y-48175500D01*
X96834699Y-48172646D01*
X96889558Y-48153449D01*
X96959337Y-48149888D01*
X97018194Y-48182810D01*
X97288181Y-48452796D01*
X97321666Y-48514119D01*
X97324500Y-48540477D01*
X97324500Y-48967940D01*
X97304815Y-49034979D01*
X97252011Y-49080734D01*
X97182853Y-49090678D01*
X97119297Y-49061653D01*
X97100730Y-49041574D01*
X97072149Y-49002848D01*
X96962884Y-48922207D01*
X96834696Y-48877353D01*
X96807151Y-48874770D01*
X96807139Y-48874769D01*
X96804266Y-48874500D01*
X91995734Y-48874500D01*
X91992861Y-48874769D01*
X91992848Y-48874770D01*
X91965303Y-48877353D01*
X91837115Y-48922207D01*
X91727849Y-49002849D01*
X91647207Y-49112115D01*
X91602353Y-49240303D01*
X91599770Y-49267848D01*
X91599769Y-49267861D01*
X91599500Y-49270734D01*
X91599500Y-50029266D01*
X91599769Y-50032139D01*
X91599770Y-50032151D01*
X91602353Y-50059696D01*
X91647207Y-50187884D01*
X91727849Y-50297150D01*
X91837115Y-50377792D01*
X91837118Y-50377793D01*
X91965301Y-50422646D01*
X91995734Y-50425500D01*
X95228456Y-50425500D01*
X95295495Y-50445185D01*
X95316137Y-50461819D01*
X95927029Y-51072711D01*
X95960514Y-51134034D01*
X95955530Y-51203726D01*
X95936832Y-51228701D01*
X95940078Y-51230870D01*
X95917792Y-51264222D01*
X95902372Y-51283010D01*
X94880185Y-52305197D01*
X94818862Y-52338682D01*
X94768312Y-52339133D01*
X94753231Y-52336133D01*
X94731030Y-52331717D01*
X94694749Y-52324500D01*
X94694748Y-52324500D01*
X93605252Y-52324500D01*
X93605251Y-52324500D01*
X93572715Y-52330971D01*
X93546769Y-52336133D01*
X93546768Y-52336133D01*
X93522579Y-52340945D01*
X93522076Y-52338419D01*
X93495427Y-52346763D01*
X93428047Y-52328277D01*
X93394840Y-52298269D01*
X93357782Y-52249973D01*
X93232340Y-52153719D01*
X93086262Y-52093212D01*
X92929499Y-52072573D01*
X92772737Y-52093212D01*
X92626659Y-52153719D01*
X92501217Y-52249973D01*
X92404963Y-52375415D01*
X92344456Y-52521493D01*
X92323817Y-52678256D01*
X92344456Y-52835018D01*
X92404963Y-52981096D01*
X92501217Y-53106538D01*
X92607749Y-53188282D01*
X92626659Y-53202792D01*
X92772738Y-53263300D01*
X92901578Y-53280262D01*
X92929499Y-53283938D01*
X92929499Y-53283937D01*
X92929500Y-53283938D01*
X93086262Y-53263300D01*
X93193103Y-53219045D01*
X93247424Y-53196545D01*
X93248568Y-53199308D01*
X93290175Y-53183221D01*
X93358621Y-53197255D01*
X93408614Y-53246066D01*
X93424500Y-53306790D01*
X93424500Y-53644748D01*
X93436132Y-53703230D01*
X93480447Y-53769551D01*
X93489202Y-53775401D01*
X93534008Y-53829012D01*
X93542717Y-53898337D01*
X93512563Y-53961365D01*
X93453120Y-53998085D01*
X93404129Y-54001443D01*
X93350001Y-53994317D01*
X93193237Y-54014956D01*
X93047159Y-54075463D01*
X92921717Y-54171717D01*
X92825463Y-54297159D01*
X92764956Y-54443237D01*
X92744317Y-54600000D01*
X92764956Y-54756762D01*
X92825463Y-54902840D01*
X92921717Y-55028282D01*
X93013551Y-55098748D01*
X93047159Y-55124536D01*
X93193238Y-55185044D01*
X93350000Y-55205682D01*
X93506762Y-55185044D01*
X93652841Y-55124536D01*
X93686448Y-55098748D01*
X93751618Y-55073554D01*
X93820063Y-55087592D01*
X93870052Y-55136406D01*
X93885935Y-55197124D01*
X93885935Y-55386687D01*
X93883551Y-55410878D01*
X93880538Y-55426031D01*
X93883316Y-55439999D01*
X93883552Y-55441182D01*
X93883552Y-55441185D01*
X93889849Y-55472841D01*
X93901920Y-55533526D01*
X93913262Y-55550500D01*
X93944760Y-55597641D01*
X93950209Y-55605796D01*
X93960882Y-55621769D01*
X93962811Y-55624655D01*
X93975657Y-55633238D01*
X93994446Y-55648658D01*
X96107774Y-57761986D01*
X96123194Y-57780775D01*
X96131778Y-57793622D01*
X96131779Y-57793622D01*
X96131780Y-57793624D01*
X96144626Y-57802207D01*
X96144628Y-57802209D01*
X96154781Y-57808993D01*
X96154782Y-57808994D01*
X96222144Y-57854004D01*
X96222909Y-57854515D01*
X96303271Y-57870500D01*
X96315240Y-57872881D01*
X96315250Y-57872882D01*
X96330404Y-57875896D01*
X96345558Y-57872882D01*
X96369747Y-57870500D01*
X96689274Y-57870500D01*
X96756313Y-57890185D01*
X96802068Y-57942989D01*
X96812012Y-58012147D01*
X96796661Y-58056500D01*
X96712820Y-58201715D01*
X96654326Y-58381742D01*
X96654325Y-58381744D01*
X96654326Y-58381744D01*
X96634540Y-58570000D01*
X96643846Y-58658544D01*
X96654326Y-58758257D01*
X96712820Y-58938284D01*
X96807466Y-59102216D01*
X96934126Y-59242886D01*
X96934129Y-59242888D01*
X97033885Y-59315365D01*
X97076550Y-59370693D01*
X97081237Y-59406673D01*
X97081255Y-59406670D01*
X97095356Y-59481194D01*
X97096133Y-59485766D01*
X97105550Y-59548248D01*
X97107163Y-59553148D01*
X97136687Y-59609010D01*
X97138777Y-59613150D01*
X97166184Y-59670060D01*
X97169183Y-59674287D01*
X97213846Y-59718950D01*
X97217063Y-59722289D01*
X97260043Y-59768611D01*
X97274930Y-59780034D01*
X98487437Y-60992540D01*
X98502859Y-61011331D01*
X98507150Y-61017753D01*
X98528027Y-61084430D01*
X98509542Y-61151810D01*
X98471870Y-61190451D01*
X98453331Y-61202562D01*
X98381481Y-61294876D01*
X98374310Y-61315765D01*
X98333923Y-61372780D01*
X98269123Y-61398909D01*
X98257030Y-61399500D01*
X97995176Y-61399500D01*
X97928137Y-61379815D01*
X97923548Y-61375838D01*
X97830071Y-61315765D01*
X97790053Y-61290047D01*
X97651961Y-61249500D01*
X97508039Y-61249500D01*
X97369947Y-61290047D01*
X97248870Y-61367858D01*
X97154623Y-61476625D01*
X97094834Y-61607542D01*
X97074353Y-61749999D01*
X97094834Y-61892457D01*
X97154623Y-62023374D01*
X97235611Y-62116839D01*
X97248872Y-62132143D01*
X97369947Y-62209953D01*
X97508039Y-62250500D01*
X97569621Y-62250500D01*
X97636660Y-62270185D01*
X97682415Y-62322989D01*
X97692359Y-62392147D01*
X97663334Y-62455703D01*
X97657302Y-62462181D01*
X96213010Y-63906472D01*
X96194222Y-63921891D01*
X96181376Y-63930474D01*
X96120484Y-64021605D01*
X96106948Y-64089660D01*
X96099103Y-64129099D01*
X96102117Y-64144251D01*
X96104500Y-64168443D01*
X96104500Y-66180498D01*
X96084815Y-66247537D01*
X96032011Y-66293292D01*
X95962853Y-66303236D01*
X95899297Y-66274211D01*
X95892819Y-66268179D01*
X94748357Y-65123717D01*
X94741048Y-65115741D01*
X94716768Y-65086805D01*
X94684050Y-65067915D01*
X94674941Y-65062112D01*
X94643998Y-65040446D01*
X94643117Y-65039829D01*
X94618421Y-65029599D01*
X94580166Y-65022853D01*
X94569610Y-65020512D01*
X94533121Y-65010735D01*
X94495494Y-65014028D01*
X94484686Y-65014500D01*
X91196624Y-65014500D01*
X91129585Y-64994815D01*
X91083830Y-64942011D01*
X91073886Y-64872853D01*
X91102911Y-64809297D01*
X91145850Y-64779483D01*
X91145377Y-64778617D01*
X91153158Y-64774367D01*
X91153161Y-64774367D01*
X91404315Y-64637226D01*
X91633395Y-64465739D01*
X91835739Y-64263395D01*
X92007226Y-64034315D01*
X92144367Y-63783161D01*
X92244369Y-63515046D01*
X92305196Y-63235428D01*
X92325610Y-62950000D01*
X92305196Y-62664572D01*
X92244369Y-62384954D01*
X92144367Y-62116839D01*
X92045017Y-61934894D01*
X92007227Y-61865686D01*
X91951023Y-61790606D01*
X91835739Y-61636605D01*
X91633395Y-61434261D01*
X91475103Y-61315765D01*
X91404313Y-61262772D01*
X91153163Y-61125634D01*
X91153162Y-61125633D01*
X91153161Y-61125633D01*
X90978123Y-61060347D01*
X90885041Y-61025629D01*
X90605429Y-60964804D01*
X90320000Y-60944389D01*
X90034570Y-60964804D01*
X89754958Y-61025629D01*
X89486836Y-61125634D01*
X89235686Y-61262772D01*
X89006602Y-61434263D01*
X88804263Y-61636602D01*
X88632772Y-61865686D01*
X88495634Y-62116836D01*
X88395629Y-62384958D01*
X88334804Y-62664570D01*
X88314389Y-62950000D01*
X88334804Y-63235429D01*
X88395629Y-63515041D01*
X88495634Y-63783163D01*
X88632772Y-64034313D01*
X88683581Y-64102185D01*
X88804261Y-64263395D01*
X89006605Y-64465739D01*
X89102516Y-64537537D01*
X89235686Y-64637227D01*
X89346751Y-64697873D01*
X89486839Y-64774367D01*
X89486841Y-64774367D01*
X89494623Y-64778617D01*
X89493993Y-64779770D01*
X89542643Y-64816190D01*
X89567060Y-64881654D01*
X89552208Y-64949927D01*
X89502803Y-64999332D01*
X89443376Y-65014500D01*
X87225690Y-65014500D01*
X87158651Y-64994815D01*
X87138009Y-64978181D01*
X87081513Y-64921685D01*
X87048028Y-64860362D01*
X87046255Y-64817818D01*
X87050283Y-64787226D01*
X87055184Y-64750000D01*
X87034546Y-64593238D01*
X86974038Y-64447159D01*
X86931233Y-64391374D01*
X86906039Y-64326205D01*
X86920077Y-64257760D01*
X86954121Y-64217513D01*
X87018282Y-64168282D01*
X87114536Y-64042841D01*
X87175044Y-63896762D01*
X87195682Y-63740000D01*
X87175044Y-63583238D01*
X87114536Y-63437159D01*
X87114536Y-63437158D01*
X87018282Y-63311717D01*
X86883311Y-63208151D01*
X86851410Y-63171775D01*
X86843194Y-63157545D01*
X86814255Y-63133262D01*
X86806280Y-63125954D01*
X86491029Y-62810703D01*
X86457544Y-62749380D01*
X86462528Y-62679688D01*
X86504400Y-62623755D01*
X86562523Y-62600083D01*
X86676762Y-62585044D01*
X86822841Y-62524536D01*
X86948282Y-62428282D01*
X87044536Y-62302841D01*
X87105044Y-62156762D01*
X87125682Y-62000000D01*
X87105044Y-61843238D01*
X87044536Y-61697159D01*
X86948282Y-61571718D01*
X86929015Y-61556934D01*
X86887812Y-61500507D01*
X86883657Y-61430761D01*
X86917868Y-61369840D01*
X86929015Y-61360182D01*
X86942482Y-61349849D01*
X87048782Y-61268282D01*
X87145036Y-61142841D01*
X87205544Y-60996762D01*
X87226182Y-60840000D01*
X87205544Y-60683238D01*
X87145036Y-60537159D01*
X87115205Y-60498282D01*
X87048783Y-60411718D01*
X87032413Y-60399158D01*
X86991209Y-60342730D01*
X86987054Y-60272984D01*
X87009519Y-60225298D01*
X87088138Y-60122841D01*
X87148646Y-59976762D01*
X87169284Y-59820000D01*
X87148646Y-59663238D01*
X87148645Y-59663237D01*
X87146515Y-59647053D01*
X87148897Y-59646739D01*
X87143914Y-59600371D01*
X87144351Y-59598416D01*
X87140972Y-59559789D01*
X87140500Y-59548982D01*
X87140500Y-59494405D01*
X87160185Y-59427366D01*
X87212989Y-59381611D01*
X87240300Y-59372789D01*
X87261531Y-59368567D01*
X87327852Y-59324252D01*
X87346898Y-59295747D01*
X87400510Y-59250943D01*
X87469835Y-59242236D01*
X87532863Y-59272391D01*
X87553102Y-59295748D01*
X87572147Y-59324252D01*
X87638469Y-59368567D01*
X87696951Y-59380200D01*
X87696952Y-59380200D01*
X88473049Y-59380200D01*
X88502289Y-59374383D01*
X88531531Y-59368567D01*
X88597852Y-59324252D01*
X88616898Y-59295747D01*
X88670510Y-59250943D01*
X88739835Y-59242236D01*
X88802863Y-59272391D01*
X88823102Y-59295748D01*
X88842147Y-59324252D01*
X88858561Y-59335219D01*
X88908469Y-59368567D01*
X88914691Y-59369804D01*
X88976600Y-59402187D01*
X89011175Y-59462902D01*
X89014499Y-59491421D01*
X89014499Y-59501700D01*
X88994814Y-59568739D01*
X88965987Y-59600074D01*
X88911721Y-59641715D01*
X88911719Y-59641716D01*
X88911718Y-59641718D01*
X88889296Y-59670939D01*
X88815462Y-59767161D01*
X88754956Y-59913237D01*
X88734317Y-60070000D01*
X88754956Y-60226762D01*
X88815463Y-60372840D01*
X88911717Y-60498282D01*
X89037158Y-60594536D01*
X89037159Y-60594536D01*
X89183238Y-60655044D01*
X89340000Y-60675682D01*
X89496762Y-60655044D01*
X89642841Y-60594536D01*
X89768282Y-60498282D01*
X89864536Y-60372841D01*
X89925044Y-60226762D01*
X89936831Y-60137229D01*
X89965096Y-60073335D01*
X90023420Y-60034863D01*
X90093285Y-60034031D01*
X90152508Y-60071103D01*
X90174329Y-60105962D01*
X90185462Y-60132839D01*
X90281717Y-60258282D01*
X90391773Y-60342730D01*
X90407159Y-60354536D01*
X90553238Y-60415044D01*
X90710000Y-60435682D01*
X90866762Y-60415044D01*
X90999650Y-60360000D01*
X95304317Y-60360000D01*
X95324956Y-60516762D01*
X95385463Y-60662840D01*
X95481717Y-60788282D01*
X95607159Y-60884535D01*
X95607159Y-60884536D01*
X95753238Y-60945044D01*
X95910000Y-60965682D01*
X96066762Y-60945044D01*
X96212841Y-60884536D01*
X96338282Y-60788282D01*
X96434536Y-60662841D01*
X96495044Y-60516762D01*
X96515682Y-60360000D01*
X96495044Y-60203238D01*
X96434536Y-60057159D01*
X96380519Y-59986762D01*
X96338282Y-59931717D01*
X96212840Y-59835463D01*
X96066762Y-59774956D01*
X95909999Y-59754317D01*
X95753237Y-59774956D01*
X95607159Y-59835463D01*
X95481717Y-59931717D01*
X95385463Y-60057159D01*
X95324956Y-60203237D01*
X95304317Y-60360000D01*
X90999650Y-60360000D01*
X91012841Y-60354536D01*
X91138282Y-60258282D01*
X91234536Y-60132841D01*
X91295044Y-59986762D01*
X91315682Y-59830000D01*
X91295044Y-59673238D01*
X91234536Y-59527159D01*
X91226863Y-59517159D01*
X91216923Y-59504205D01*
X91191728Y-59439036D01*
X91205766Y-59370591D01*
X91254580Y-59320601D01*
X91322671Y-59304937D01*
X91384189Y-59325616D01*
X91448469Y-59368567D01*
X91506951Y-59380200D01*
X91506952Y-59380200D01*
X92283049Y-59380200D01*
X92312289Y-59374383D01*
X92341531Y-59368567D01*
X92407852Y-59324252D01*
X92452167Y-59257931D01*
X92463800Y-59199448D01*
X92463800Y-58865999D01*
X92483485Y-58798961D01*
X92536289Y-58753206D01*
X92587800Y-58742000D01*
X94972052Y-58742000D01*
X95039091Y-58761685D01*
X95047526Y-58767615D01*
X95102159Y-58809536D01*
X95248238Y-58870044D01*
X95405000Y-58890682D01*
X95561762Y-58870044D01*
X95707841Y-58809536D01*
X95833282Y-58713282D01*
X95929536Y-58587841D01*
X95990044Y-58441762D01*
X96010682Y-58285000D01*
X95990044Y-58128238D01*
X95929536Y-57982159D01*
X95928094Y-57980280D01*
X95833282Y-57856717D01*
X95707840Y-57760463D01*
X95561762Y-57699956D01*
X95405000Y-57679317D01*
X95248237Y-57699956D01*
X95102159Y-57760463D01*
X94976717Y-57856717D01*
X94949272Y-57892486D01*
X94892844Y-57933689D01*
X94850896Y-57941000D01*
X92587800Y-57941000D01*
X92520761Y-57921315D01*
X92475006Y-57868511D01*
X92463800Y-57817000D01*
X92463800Y-57483551D01*
X92452167Y-57425069D01*
X92407852Y-57358747D01*
X92341530Y-57314432D01*
X92283049Y-57302800D01*
X92283048Y-57302800D01*
X91506952Y-57302800D01*
X91506951Y-57302800D01*
X91448469Y-57314432D01*
X91382146Y-57358748D01*
X91363101Y-57387252D01*
X91309489Y-57432056D01*
X91240163Y-57440763D01*
X91177136Y-57410608D01*
X91156899Y-57387252D01*
X91137853Y-57358748D01*
X91071530Y-57314432D01*
X91013049Y-57302800D01*
X91013048Y-57302800D01*
X90236952Y-57302800D01*
X90236951Y-57302800D01*
X90178469Y-57314432D01*
X90112146Y-57358748D01*
X90093101Y-57387252D01*
X90039489Y-57432056D01*
X89970163Y-57440763D01*
X89907136Y-57410608D01*
X89886899Y-57387252D01*
X89867853Y-57358748D01*
X89801530Y-57314432D01*
X89743049Y-57302800D01*
X89743048Y-57302800D01*
X89306887Y-57302800D01*
X89239848Y-57283115D01*
X89194093Y-57230311D01*
X89184149Y-57161153D01*
X89213174Y-57097597D01*
X89219206Y-57091119D01*
X89248314Y-57062011D01*
X89309637Y-57028526D01*
X89352181Y-57026753D01*
X89420000Y-57035682D01*
X89576762Y-57015044D01*
X89722841Y-56954536D01*
X89848282Y-56858282D01*
X89944536Y-56732841D01*
X90005044Y-56586762D01*
X90005044Y-56586758D01*
X90005431Y-56585825D01*
X90049271Y-56531421D01*
X90115565Y-56509356D01*
X90183265Y-56526635D01*
X90230875Y-56577772D01*
X90232786Y-56581765D01*
X90274623Y-56673374D01*
X90367335Y-56780369D01*
X90368872Y-56782143D01*
X90489947Y-56859953D01*
X90628039Y-56900500D01*
X90771961Y-56900500D01*
X90910053Y-56859953D01*
X91031128Y-56782143D01*
X91125377Y-56673373D01*
X91185165Y-56542457D01*
X91205647Y-56400000D01*
X91185165Y-56257543D01*
X91182716Y-56252181D01*
X91125620Y-56127159D01*
X91125377Y-56126627D01*
X91125376Y-56126626D01*
X91125376Y-56126625D01*
X91031129Y-56017857D01*
X90957461Y-55970514D01*
X90911706Y-55917710D01*
X90900500Y-55866198D01*
X90900500Y-55821200D01*
X90920185Y-55754161D01*
X90972989Y-55708406D01*
X91001586Y-55702184D01*
X91001069Y-55699583D01*
X91049883Y-55689873D01*
X91071531Y-55685567D01*
X91137852Y-55641252D01*
X91156898Y-55612747D01*
X91210510Y-55567943D01*
X91279835Y-55559236D01*
X91342863Y-55589391D01*
X91363102Y-55612748D01*
X91382147Y-55641252D01*
X91448469Y-55685567D01*
X91518931Y-55699583D01*
X91518085Y-55703831D01*
X91562539Y-55716885D01*
X91608294Y-55769689D01*
X91619500Y-55821200D01*
X91619500Y-56155656D01*
X91617117Y-56179847D01*
X91614103Y-56194999D01*
X91617117Y-56210151D01*
X91617117Y-56210154D01*
X91635484Y-56302494D01*
X91646686Y-56319258D01*
X91658591Y-56337075D01*
X91680292Y-56369554D01*
X91680667Y-56370116D01*
X91680901Y-56370466D01*
X91701777Y-56437144D01*
X91700535Y-56456999D01*
X91694353Y-56499999D01*
X91694353Y-56500000D01*
X91695698Y-56509356D01*
X91714834Y-56642457D01*
X91774623Y-56773374D01*
X91868870Y-56882141D01*
X91868872Y-56882143D01*
X91989947Y-56959953D01*
X92128039Y-57000500D01*
X92271961Y-57000500D01*
X92410053Y-56959953D01*
X92531128Y-56882143D01*
X92625377Y-56773373D01*
X92685165Y-56642457D01*
X92705647Y-56500000D01*
X92685165Y-56357543D01*
X92683231Y-56353309D01*
X92625376Y-56226625D01*
X92531129Y-56117858D01*
X92531128Y-56117857D01*
X92442660Y-56061002D01*
X92410052Y-56040046D01*
X92259565Y-55995860D01*
X92200787Y-55958086D01*
X92171762Y-55894530D01*
X92170500Y-55876883D01*
X92170500Y-55821200D01*
X92190185Y-55754161D01*
X92242989Y-55708406D01*
X92271586Y-55702184D01*
X92271069Y-55699583D01*
X92319883Y-55689873D01*
X92341531Y-55685567D01*
X92407852Y-55641252D01*
X92452167Y-55574931D01*
X92463800Y-55516448D01*
X92463800Y-53800552D01*
X92457087Y-53766806D01*
X92452167Y-53742069D01*
X92407852Y-53675747D01*
X92341530Y-53631432D01*
X92283049Y-53619800D01*
X92283048Y-53619800D01*
X91506952Y-53619800D01*
X91506951Y-53619800D01*
X91448469Y-53631432D01*
X91382145Y-53675749D01*
X91363099Y-53704253D01*
X91309486Y-53749057D01*
X91240161Y-53757763D01*
X91177134Y-53727606D01*
X91156897Y-53704251D01*
X91156215Y-53703231D01*
X91137852Y-53675748D01*
X91104099Y-53653194D01*
X91071530Y-53631432D01*
X91013049Y-53619800D01*
X91013048Y-53619800D01*
X90612778Y-53619800D01*
X90545739Y-53600115D01*
X90499984Y-53547311D01*
X90490040Y-53478153D01*
X90519065Y-53414597D01*
X90525097Y-53408119D01*
X90700934Y-53232282D01*
X91231990Y-52701224D01*
X91250775Y-52685808D01*
X91263624Y-52677224D01*
X91279303Y-52653760D01*
X91324515Y-52586095D01*
X91332887Y-52544004D01*
X91335584Y-52530446D01*
X91342883Y-52493755D01*
X91342883Y-52493751D01*
X91345897Y-52478600D01*
X91342883Y-52463447D01*
X91340500Y-52439256D01*
X91340500Y-50829748D01*
X91342883Y-50805556D01*
X91343160Y-50804164D01*
X91345897Y-50790405D01*
X91324516Y-50682911D01*
X91278994Y-50614783D01*
X91272209Y-50604628D01*
X91272208Y-50604628D01*
X91272203Y-50604621D01*
X91263623Y-50591780D01*
X91250776Y-50583196D01*
X91231986Y-50567775D01*
X90678270Y-50014059D01*
X90151816Y-49487604D01*
X90118333Y-49426284D01*
X90115500Y-49399935D01*
X90115500Y-48750072D01*
X90135185Y-48683032D01*
X90151819Y-48662391D01*
X91102392Y-47711819D01*
X91163715Y-47678334D01*
X91190073Y-47675500D01*
X91476854Y-47675500D01*
X91543893Y-47695185D01*
G37*
G04 #@! TD.AperFunction*
G04 #@! TA.AperFunction,Conductor*
G36*
X95993834Y-52073295D02*
G01*
X96049767Y-52115167D01*
X96074184Y-52180631D01*
X96074500Y-52189477D01*
X96074500Y-52344748D01*
X96086132Y-52403230D01*
X96130447Y-52469552D01*
X96196769Y-52513867D01*
X96255251Y-52525500D01*
X96255252Y-52525500D01*
X97344749Y-52525500D01*
X97359368Y-52522591D01*
X97403231Y-52513867D01*
X97469552Y-52469552D01*
X97469553Y-52469549D01*
X97481608Y-52461495D01*
X97548285Y-52440617D01*
X97615666Y-52459101D01*
X97662356Y-52511079D01*
X97674500Y-52564597D01*
X97674500Y-52788811D01*
X97654815Y-52855850D01*
X97638181Y-52876493D01*
X97550306Y-52964367D01*
X97488982Y-52997851D01*
X97419291Y-52992867D01*
X97407977Y-52987077D01*
X97344749Y-52974500D01*
X97344748Y-52974500D01*
X96255252Y-52974500D01*
X96255251Y-52974500D01*
X96196769Y-52986132D01*
X96130447Y-53030447D01*
X96086132Y-53096769D01*
X96074500Y-53155251D01*
X96074500Y-53613810D01*
X96054815Y-53680849D01*
X96038181Y-53701491D01*
X95437181Y-54302491D01*
X95375858Y-54335976D01*
X95306166Y-54330992D01*
X95250233Y-54289120D01*
X95225816Y-54223656D01*
X95225500Y-54214810D01*
X95225500Y-52790477D01*
X95245185Y-52723438D01*
X95261814Y-52702801D01*
X95862821Y-52101794D01*
X95924142Y-52068311D01*
X95993834Y-52073295D01*
G37*
G04 #@! TD.AperFunction*
G04 #@! TA.AperFunction,Conductor*
G36*
X97143052Y-53845185D02*
G01*
X97188807Y-53897989D01*
X97198751Y-53967147D01*
X97174389Y-54024986D01*
X97152203Y-54053899D01*
X97091696Y-54199977D01*
X97071057Y-54356739D01*
X97091696Y-54513502D01*
X97152203Y-54659580D01*
X97248457Y-54785022D01*
X97320507Y-54840307D01*
X97373899Y-54881276D01*
X97519978Y-54941784D01*
X97676740Y-54962422D01*
X97833502Y-54941784D01*
X97979581Y-54881276D01*
X98105022Y-54785022D01*
X98201276Y-54659581D01*
X98218077Y-54619021D01*
X98220939Y-54612111D01*
X98264780Y-54557707D01*
X98331074Y-54535642D01*
X98398773Y-54552921D01*
X98446384Y-54604058D01*
X98459500Y-54659563D01*
X98459500Y-56015466D01*
X98459416Y-56015890D01*
X98459459Y-56040000D01*
X98459478Y-56040047D01*
X98459501Y-56040101D01*
X98459616Y-56040382D01*
X98459618Y-56040384D01*
X98459808Y-56040462D01*
X98460000Y-56040541D01*
X98460002Y-56040539D01*
X98484616Y-56040524D01*
X98484616Y-56040528D01*
X98484760Y-56040500D01*
X99337934Y-56040500D01*
X99404973Y-56060185D01*
X99450728Y-56112989D01*
X99460672Y-56182147D01*
X99436310Y-56239986D01*
X99330254Y-56378201D01*
X99269747Y-56524279D01*
X99249108Y-56681042D01*
X99269747Y-56837804D01*
X99330254Y-56983882D01*
X99426508Y-57109324D01*
X99551950Y-57205578D01*
X99713111Y-57272333D01*
X99712509Y-57273784D01*
X99757765Y-57293804D01*
X99796237Y-57352128D01*
X99797069Y-57421992D01*
X99765365Y-57476158D01*
X99193344Y-58048181D01*
X99132021Y-58081666D01*
X99105663Y-58084500D01*
X98874337Y-58084500D01*
X98807298Y-58064815D01*
X98786656Y-58048181D01*
X98166486Y-57428011D01*
X98151064Y-57409219D01*
X98142482Y-57396375D01*
X98119482Y-57381007D01*
X98119118Y-57380764D01*
X98063440Y-57343561D01*
X98063439Y-57343560D01*
X98051354Y-57335484D01*
X97959015Y-57317117D01*
X97959012Y-57317117D01*
X97943859Y-57314102D01*
X97928706Y-57317117D01*
X97904515Y-57319500D01*
X96495882Y-57319500D01*
X96428843Y-57299815D01*
X96408201Y-57283181D01*
X95028260Y-55903240D01*
X94994775Y-55841917D01*
X94999759Y-55772225D01*
X95041631Y-55716292D01*
X95068489Y-55700998D01*
X95083182Y-55694912D01*
X95139276Y-55671677D01*
X95264717Y-55575423D01*
X95360971Y-55449982D01*
X95421479Y-55303903D01*
X95425848Y-55270711D01*
X95454112Y-55206820D01*
X95461093Y-55199232D01*
X96798507Y-53861819D01*
X96859831Y-53828334D01*
X96886189Y-53825500D01*
X97076013Y-53825500D01*
X97143052Y-53845185D01*
G37*
G04 #@! TD.AperFunction*
G04 #@! TA.AperFunction,Conductor*
G36*
X106476961Y-57060185D02*
G01*
X106522716Y-57112989D01*
X106532660Y-57182147D01*
X106524483Y-57211952D01*
X106494956Y-57283237D01*
X106474317Y-57440000D01*
X106494956Y-57596762D01*
X106555463Y-57742840D01*
X106651717Y-57868282D01*
X106720832Y-57921315D01*
X106777159Y-57964536D01*
X106923238Y-58025044D01*
X107080000Y-58045682D01*
X107236762Y-58025044D01*
X107382841Y-57964536D01*
X107508282Y-57868282D01*
X107549923Y-57814013D01*
X107606350Y-57772811D01*
X107648299Y-57765500D01*
X109303812Y-57765500D01*
X109370851Y-57785185D01*
X109391493Y-57801819D01*
X117668181Y-66078507D01*
X117701666Y-66139830D01*
X117704500Y-66166188D01*
X117704500Y-66509748D01*
X117716132Y-66568230D01*
X117760448Y-66634553D01*
X117786408Y-66651899D01*
X117831212Y-66705511D01*
X117839919Y-66774836D01*
X117809764Y-66837863D01*
X117786408Y-66858101D01*
X117760448Y-66875446D01*
X117716132Y-66941769D01*
X117704500Y-67000251D01*
X117704500Y-67779748D01*
X117716132Y-67838230D01*
X117760448Y-67904553D01*
X117786408Y-67921899D01*
X117831212Y-67975511D01*
X117839919Y-68044836D01*
X117809764Y-68107863D01*
X117786408Y-68128101D01*
X117760448Y-68145446D01*
X117716132Y-68211769D01*
X117704500Y-68270251D01*
X117704500Y-68598811D01*
X117684815Y-68665850D01*
X117668181Y-68686492D01*
X116943221Y-69411451D01*
X116881898Y-69444936D01*
X116812206Y-69439952D01*
X116786649Y-69426872D01*
X116769552Y-69415448D01*
X116743591Y-69398101D01*
X116698787Y-69344490D01*
X116690080Y-69275165D01*
X116720235Y-69212137D01*
X116743592Y-69191898D01*
X116748845Y-69188388D01*
X116769552Y-69174552D01*
X116813867Y-69108231D01*
X116825500Y-69049748D01*
X116825500Y-68270252D01*
X116825331Y-68269404D01*
X116813867Y-68211769D01*
X116769552Y-68145448D01*
X116743592Y-68128102D01*
X116698787Y-68074490D01*
X116690080Y-68005165D01*
X116720234Y-67942137D01*
X116743592Y-67921898D01*
X116769552Y-67904552D01*
X116813867Y-67838231D01*
X116825500Y-67779748D01*
X116825500Y-67000252D01*
X116813867Y-66941769D01*
X116769552Y-66875448D01*
X116743591Y-66858101D01*
X116698787Y-66804490D01*
X116690080Y-66735165D01*
X116720234Y-66672137D01*
X116743592Y-66651898D01*
X116769552Y-66634552D01*
X116813867Y-66568231D01*
X116825500Y-66509748D01*
X116825500Y-65730252D01*
X116813867Y-65671769D01*
X116805660Y-65659487D01*
X116769552Y-65605447D01*
X116703230Y-65561132D01*
X116644749Y-65549500D01*
X116644748Y-65549500D01*
X113815252Y-65549500D01*
X113815251Y-65549500D01*
X113756769Y-65561132D01*
X113690447Y-65605447D01*
X113646132Y-65671769D01*
X113634499Y-65730251D01*
X113634499Y-66058811D01*
X113614814Y-66125851D01*
X113598180Y-66146492D01*
X110764682Y-68979990D01*
X110703359Y-69013475D01*
X110693188Y-69015248D01*
X110623238Y-69024458D01*
X110477158Y-69084966D01*
X110351717Y-69181219D01*
X110255464Y-69306660D01*
X110199903Y-69440796D01*
X110156062Y-69495199D01*
X110089768Y-69517264D01*
X110022068Y-69499985D01*
X109982759Y-69457764D01*
X109982096Y-69458229D01*
X109978768Y-69453477D01*
X109974458Y-69448847D01*
X109973191Y-69445512D01*
X109969554Y-69440318D01*
X109969554Y-69440316D01*
X109947878Y-69409360D01*
X109942085Y-69400266D01*
X109923194Y-69367545D01*
X109913606Y-69359500D01*
X109894261Y-69343267D01*
X109886286Y-69335959D01*
X108832052Y-68281725D01*
X107772010Y-67221684D01*
X107738526Y-67160362D01*
X107736753Y-67117818D01*
X107745682Y-67050000D01*
X107725044Y-66893238D01*
X107664536Y-66747159D01*
X107632615Y-66705558D01*
X107568282Y-66621717D01*
X107442840Y-66525463D01*
X107296762Y-66464956D01*
X107139999Y-66444317D01*
X106983237Y-66464956D01*
X106837159Y-66525463D01*
X106711717Y-66621717D01*
X106615463Y-66747159D01*
X106554956Y-66893237D01*
X106534317Y-67050000D01*
X106554956Y-67206762D01*
X106615463Y-67352840D01*
X106711717Y-67478282D01*
X106807970Y-67552139D01*
X106837159Y-67574536D01*
X106871287Y-67588672D01*
X106875552Y-67590439D01*
X106929955Y-67634280D01*
X106952020Y-67700574D01*
X106934741Y-67768273D01*
X106883604Y-67815884D01*
X106875552Y-67819561D01*
X106837158Y-67835464D01*
X106711717Y-67931717D01*
X106615463Y-68057159D01*
X106554956Y-68203237D01*
X106534317Y-68360000D01*
X106554956Y-68516762D01*
X106615463Y-68662840D01*
X106711717Y-68788282D01*
X106763602Y-68828094D01*
X106837159Y-68884536D01*
X106983238Y-68945044D01*
X107119361Y-68962964D01*
X107139999Y-68965682D01*
X107139999Y-68965681D01*
X107140000Y-68965682D01*
X107207818Y-68956753D01*
X107276853Y-68967518D01*
X107311685Y-68992011D01*
X107905159Y-69585485D01*
X107938644Y-69646808D01*
X107933660Y-69716500D01*
X107891788Y-69772433D01*
X107887185Y-69775690D01*
X107868101Y-69804252D01*
X107814489Y-69849056D01*
X107745163Y-69857763D01*
X107682136Y-69827608D01*
X107661899Y-69804252D01*
X107642853Y-69775748D01*
X107576530Y-69731432D01*
X107518049Y-69719800D01*
X107518048Y-69719800D01*
X106741952Y-69719800D01*
X106741951Y-69719800D01*
X106683469Y-69731432D01*
X106617146Y-69775748D01*
X106598101Y-69804252D01*
X106544489Y-69849056D01*
X106475163Y-69857763D01*
X106412136Y-69827608D01*
X106391899Y-69804252D01*
X106372853Y-69775748D01*
X106306530Y-69731432D01*
X106248049Y-69719800D01*
X106248048Y-69719800D01*
X105919488Y-69719800D01*
X105852449Y-69700115D01*
X105831807Y-69683481D01*
X105527343Y-69379017D01*
X105520034Y-69371041D01*
X105507110Y-69355639D01*
X105495755Y-69342106D01*
X105495754Y-69342105D01*
X105463036Y-69323215D01*
X105453927Y-69317412D01*
X105422984Y-69295746D01*
X105422103Y-69295129D01*
X105397407Y-69284899D01*
X105359152Y-69278153D01*
X105348596Y-69275812D01*
X105312107Y-69266035D01*
X105274480Y-69269328D01*
X105263672Y-69269800D01*
X98945802Y-69269800D01*
X98878763Y-69250115D01*
X98858121Y-69233481D01*
X97787321Y-68162681D01*
X97753836Y-68101358D01*
X97758820Y-68031666D01*
X97800692Y-67975733D01*
X97866156Y-67951316D01*
X97875002Y-67951000D01*
X98117554Y-67951000D01*
X98184593Y-67970685D01*
X98215930Y-67999513D01*
X98284979Y-68089500D01*
X98291719Y-68098283D01*
X98323724Y-68122841D01*
X98417159Y-68194536D01*
X98563238Y-68255044D01*
X98720000Y-68275682D01*
X98876762Y-68255044D01*
X99022841Y-68194536D01*
X99148282Y-68098282D01*
X99244536Y-67972841D01*
X99305044Y-67826762D01*
X99305934Y-67820000D01*
X104334317Y-67820000D01*
X104354956Y-67976762D01*
X104415463Y-68122840D01*
X104511717Y-68248282D01*
X104637159Y-68344535D01*
X104637159Y-68344536D01*
X104783238Y-68405044D01*
X104940000Y-68425682D01*
X105096762Y-68405044D01*
X105242841Y-68344536D01*
X105368282Y-68248282D01*
X105464536Y-68122841D01*
X105525044Y-67976762D01*
X105545682Y-67820000D01*
X105525044Y-67663238D01*
X105464536Y-67517159D01*
X105434705Y-67478282D01*
X105368282Y-67391717D01*
X105242840Y-67295463D01*
X105096762Y-67234956D01*
X104940000Y-67214317D01*
X104783237Y-67234956D01*
X104637159Y-67295463D01*
X104511717Y-67391717D01*
X104415463Y-67517159D01*
X104354956Y-67663237D01*
X104334317Y-67820000D01*
X99305934Y-67820000D01*
X99325682Y-67670000D01*
X99305044Y-67513238D01*
X99244536Y-67367159D01*
X99233830Y-67353207D01*
X99148282Y-67241717D01*
X99022840Y-67145463D01*
X98876762Y-67084956D01*
X98719999Y-67064317D01*
X98563237Y-67084956D01*
X98417159Y-67145463D01*
X98291717Y-67241717D01*
X98207490Y-67351486D01*
X98151062Y-67392689D01*
X98109114Y-67400000D01*
X97570978Y-67400000D01*
X97503939Y-67380315D01*
X97483297Y-67363681D01*
X96691819Y-66572202D01*
X96658334Y-66510879D01*
X96655500Y-66484521D01*
X96655500Y-65039381D01*
X101172984Y-65039381D01*
X101193623Y-65196143D01*
X101254130Y-65342221D01*
X101350384Y-65467663D01*
X101472198Y-65561133D01*
X101475826Y-65563917D01*
X101621905Y-65624425D01*
X101778667Y-65645063D01*
X101935429Y-65624425D01*
X102081508Y-65563917D01*
X102206949Y-65467663D01*
X102303203Y-65342222D01*
X102363711Y-65196143D01*
X102384349Y-65039381D01*
X102363711Y-64882619D01*
X102303203Y-64736540D01*
X102226998Y-64637227D01*
X102206949Y-64611098D01*
X102081507Y-64514844D01*
X101935429Y-64454337D01*
X101778667Y-64433698D01*
X101621904Y-64454337D01*
X101475826Y-64514844D01*
X101350384Y-64611098D01*
X101254130Y-64736540D01*
X101193623Y-64882618D01*
X101172984Y-65039381D01*
X96655500Y-65039381D01*
X96655500Y-64294577D01*
X96675185Y-64227538D01*
X96691819Y-64206896D01*
X97021967Y-63876748D01*
X97355540Y-63543174D01*
X97416861Y-63509691D01*
X97486552Y-63514675D01*
X97542486Y-63556546D01*
X97566903Y-63622011D01*
X97567219Y-63630857D01*
X97567219Y-63827367D01*
X97557780Y-63874819D01*
X97532675Y-63935428D01*
X97512036Y-64092190D01*
X97532675Y-64248953D01*
X97593182Y-64395031D01*
X97689436Y-64520473D01*
X97813590Y-64615739D01*
X97814878Y-64616727D01*
X97960957Y-64677235D01*
X98117719Y-64697873D01*
X98274481Y-64677235D01*
X98420560Y-64616727D01*
X98546001Y-64520473D01*
X98642255Y-64395032D01*
X98702763Y-64248953D01*
X98714037Y-64163310D01*
X98742303Y-64099417D01*
X98800627Y-64060945D01*
X98847039Y-64058596D01*
X98847039Y-64057500D01*
X98859252Y-64057500D01*
X98976999Y-64057500D01*
X99017262Y-64064219D01*
X99070512Y-64082500D01*
X100097702Y-64082500D01*
X100164741Y-64102185D01*
X100209683Y-64153244D01*
X100234559Y-64205552D01*
X100249454Y-64222634D01*
X100334016Y-64319613D01*
X100460555Y-64402609D01*
X100604792Y-64448388D01*
X100756034Y-64453554D01*
X100756034Y-64453553D01*
X100756035Y-64453554D01*
X100837514Y-64433698D01*
X100903060Y-64417725D01*
X101034967Y-64343558D01*
X101155891Y-64222634D01*
X101224361Y-64132342D01*
X101279876Y-63991564D01*
X101295352Y-63841028D01*
X101269640Y-63691899D01*
X101204647Y-63555238D01*
X101105193Y-63441179D01*
X101099064Y-63437159D01*
X100978653Y-63358181D01*
X100834416Y-63312403D01*
X100683172Y-63307236D01*
X100536149Y-63343065D01*
X100496097Y-63365586D01*
X100435323Y-63381500D01*
X99704613Y-63381500D01*
X99637574Y-63361815D01*
X99591819Y-63309011D01*
X99581875Y-63239853D01*
X99582992Y-63233328D01*
X99584500Y-63225748D01*
X99584500Y-63100000D01*
X102654389Y-63100000D01*
X102674804Y-63385429D01*
X102735629Y-63665041D01*
X102735631Y-63665046D01*
X102831429Y-63921891D01*
X102835634Y-63933163D01*
X102972772Y-64184313D01*
X103050865Y-64288632D01*
X103144261Y-64413395D01*
X103346605Y-64615739D01*
X103507976Y-64736540D01*
X103575686Y-64787227D01*
X103709623Y-64860362D01*
X103826839Y-64924367D01*
X104094954Y-65024369D01*
X104094957Y-65024369D01*
X104094958Y-65024370D01*
X104118136Y-65029412D01*
X104374572Y-65085196D01*
X104660000Y-65105610D01*
X104945428Y-65085196D01*
X105225046Y-65024369D01*
X105493161Y-64924367D01*
X105744315Y-64787226D01*
X105973395Y-64615739D01*
X106175739Y-64413395D01*
X106347226Y-64184315D01*
X106484367Y-63933161D01*
X106584369Y-63665046D01*
X106645196Y-63385428D01*
X106665610Y-63100000D01*
X106645196Y-62814572D01*
X106584369Y-62534954D01*
X106484367Y-62266839D01*
X106403847Y-62119378D01*
X106347227Y-62015686D01*
X106298232Y-61950237D01*
X106175739Y-61786605D01*
X105973395Y-61584261D01*
X105828059Y-61475464D01*
X105744313Y-61412772D01*
X105493163Y-61275634D01*
X105493162Y-61275633D01*
X105493161Y-61275633D01*
X105264780Y-61190451D01*
X105225041Y-61175629D01*
X104945429Y-61114804D01*
X104660000Y-61094389D01*
X104374570Y-61114804D01*
X104094958Y-61175629D01*
X103826836Y-61275634D01*
X103575686Y-61412772D01*
X103346602Y-61584263D01*
X103144263Y-61786602D01*
X102972772Y-62015686D01*
X102835634Y-62266836D01*
X102735629Y-62534958D01*
X102674804Y-62814570D01*
X102654389Y-63100000D01*
X99584500Y-63100000D01*
X99584500Y-62936252D01*
X99584500Y-62936251D01*
X99584500Y-62845343D01*
X99586883Y-62821151D01*
X99589897Y-62806000D01*
X99584500Y-62778867D01*
X99568515Y-62698505D01*
X99546422Y-62665441D01*
X99535185Y-62648623D01*
X99516210Y-62620225D01*
X99516209Y-62620225D01*
X99516205Y-62620219D01*
X99507623Y-62607375D01*
X99494776Y-62598791D01*
X99475986Y-62583370D01*
X99309797Y-62417181D01*
X99276312Y-62355858D01*
X99281296Y-62286166D01*
X99323168Y-62230233D01*
X99388632Y-62205816D01*
X99397478Y-62205500D01*
X99988499Y-62205500D01*
X99988500Y-62205500D01*
X100067134Y-62189860D01*
X100075266Y-62186492D01*
X100133572Y-62149856D01*
X100186492Y-62075266D01*
X100189860Y-62067134D01*
X100205500Y-61988500D01*
X100205500Y-61988498D01*
X100207882Y-61976523D01*
X100210561Y-61977056D01*
X100225185Y-61927256D01*
X100231111Y-61918826D01*
X100315036Y-61809453D01*
X100375544Y-61663374D01*
X100396182Y-61506612D01*
X100375544Y-61349850D01*
X100315036Y-61203771D01*
X100297942Y-61181494D01*
X100218782Y-61078329D01*
X100093340Y-60982075D01*
X99947262Y-60921568D01*
X99790500Y-60900929D01*
X99633737Y-60921568D01*
X99568203Y-60948713D01*
X99498734Y-60956182D01*
X99436255Y-60924906D01*
X99400603Y-60864817D01*
X99397531Y-60820270D01*
X99400270Y-60795965D01*
X99397661Y-60782180D01*
X99395500Y-60759128D01*
X99395500Y-60759127D01*
X99395500Y-60668252D01*
X99383867Y-60609769D01*
X99383867Y-60609768D01*
X99339552Y-60543447D01*
X99268334Y-60495861D01*
X99249544Y-60480440D01*
X98745866Y-59976762D01*
X98165644Y-59396541D01*
X98132160Y-59335219D01*
X98137144Y-59265527D01*
X98161175Y-59225891D01*
X98272533Y-59102216D01*
X98367179Y-58938284D01*
X98425674Y-58758256D01*
X98429363Y-58723156D01*
X98455946Y-58658544D01*
X98513243Y-58618559D01*
X98576888Y-58616134D01*
X98577173Y-58614703D01*
X98693695Y-58637881D01*
X98693705Y-58637882D01*
X98708859Y-58640896D01*
X98724013Y-58637882D01*
X98748202Y-58635500D01*
X99231797Y-58635500D01*
X99255988Y-58637883D01*
X99271141Y-58640897D01*
X99286294Y-58637883D01*
X99286294Y-58637882D01*
X99298273Y-58635500D01*
X99298274Y-58635500D01*
X99378636Y-58619515D01*
X99427654Y-58586762D01*
X99446763Y-58573994D01*
X99446763Y-58573993D01*
X99460193Y-58565020D01*
X99460194Y-58565018D01*
X99469765Y-58558624D01*
X99469766Y-58558622D01*
X99477434Y-58553499D01*
X99521426Y-58516731D01*
X99590751Y-58508020D01*
X99653780Y-58538171D01*
X99690502Y-58597612D01*
X99694242Y-58617460D01*
X99694325Y-58618252D01*
X99694325Y-58618254D01*
X99694326Y-58618256D01*
X99694735Y-58619514D01*
X99752820Y-58798284D01*
X99847466Y-58962216D01*
X99974129Y-59102889D01*
X100127269Y-59214151D01*
X100300197Y-59291144D01*
X100485352Y-59330500D01*
X100485354Y-59330500D01*
X100674648Y-59330500D01*
X100798084Y-59304262D01*
X100859803Y-59291144D01*
X101032730Y-59214151D01*
X101095058Y-59168867D01*
X101185870Y-59102889D01*
X101312533Y-58962216D01*
X101407179Y-58798284D01*
X101419071Y-58761685D01*
X101465674Y-58618256D01*
X101485460Y-58430000D01*
X101465674Y-58241744D01*
X101435332Y-58148363D01*
X101407179Y-58061715D01*
X101312533Y-57897783D01*
X101185870Y-57757110D01*
X101032730Y-57645848D01*
X100859802Y-57568855D01*
X100746793Y-57544834D01*
X100685311Y-57511641D01*
X100651535Y-57450478D01*
X100656187Y-57380764D01*
X100684891Y-57335865D01*
X100943938Y-57076819D01*
X101005261Y-57043334D01*
X101031619Y-57040500D01*
X106409922Y-57040500D01*
X106476961Y-57060185D01*
G37*
G04 #@! TD.AperFunction*
G04 #@! TA.AperFunction,Conductor*
G36*
X109322171Y-55184271D02*
G01*
X109378104Y-55226143D01*
X109393398Y-55253000D01*
X109394955Y-55256761D01*
X109394956Y-55256762D01*
X109442772Y-55372200D01*
X109455464Y-55402841D01*
X109551715Y-55528279D01*
X109551716Y-55528280D01*
X109551718Y-55528282D01*
X109603288Y-55567852D01*
X109644489Y-55624278D01*
X109651328Y-55677034D01*
X109650735Y-55683807D01*
X109660512Y-55720296D01*
X109662853Y-55730852D01*
X109669599Y-55769107D01*
X109679829Y-55793803D01*
X109680446Y-55794684D01*
X109702112Y-55825627D01*
X109707915Y-55834736D01*
X109726806Y-55867455D01*
X109730780Y-55870790D01*
X109755742Y-55891735D01*
X109763718Y-55899043D01*
X113598182Y-59733508D01*
X113631666Y-59794829D01*
X113634500Y-59821187D01*
X113634500Y-60269748D01*
X113646132Y-60328230D01*
X113690447Y-60394552D01*
X113756769Y-60438867D01*
X113815251Y-60450500D01*
X113815252Y-60450500D01*
X116644749Y-60450500D01*
X116673989Y-60444683D01*
X116703231Y-60438867D01*
X116769552Y-60394552D01*
X116813867Y-60328231D01*
X116825500Y-60269748D01*
X116825500Y-59490252D01*
X116815312Y-59439036D01*
X116813867Y-59431769D01*
X116769552Y-59365448D01*
X116743592Y-59348102D01*
X116698787Y-59294490D01*
X116690080Y-59225165D01*
X116720234Y-59162137D01*
X116743592Y-59141898D01*
X116769552Y-59124552D01*
X116813867Y-59058231D01*
X116825500Y-58999748D01*
X116825500Y-58551186D01*
X116845185Y-58484148D01*
X116861814Y-58463511D01*
X117166296Y-58159029D01*
X117174250Y-58151740D01*
X117203194Y-58127455D01*
X117222102Y-58094703D01*
X117227878Y-58085638D01*
X117249553Y-58054684D01*
X117249553Y-58054681D01*
X117250171Y-58053800D01*
X117260400Y-58029105D01*
X117260586Y-58028047D01*
X117260588Y-58028045D01*
X117267150Y-57990824D01*
X117269480Y-57980312D01*
X117279263Y-57943807D01*
X117279191Y-57942989D01*
X117275972Y-57906187D01*
X117275500Y-57895380D01*
X117275500Y-57100188D01*
X117295185Y-57033149D01*
X117347989Y-56987394D01*
X117417147Y-56977450D01*
X117480703Y-57006475D01*
X117487181Y-57012507D01*
X117668181Y-57193507D01*
X117701666Y-57254830D01*
X117704500Y-57281188D01*
X117704500Y-57729748D01*
X117716132Y-57788230D01*
X117760448Y-57854553D01*
X117786408Y-57871899D01*
X117831212Y-57925511D01*
X117839919Y-57994836D01*
X117809764Y-58057863D01*
X117786408Y-58078101D01*
X117760448Y-58095446D01*
X117716132Y-58161769D01*
X117704500Y-58220251D01*
X117704500Y-58999748D01*
X117716132Y-59058230D01*
X117760447Y-59124552D01*
X117826769Y-59168867D01*
X117885251Y-59180500D01*
X117885252Y-59180500D01*
X120714749Y-59180500D01*
X120743989Y-59174683D01*
X120773231Y-59168867D01*
X120839552Y-59124552D01*
X120883867Y-59058231D01*
X120888427Y-59035308D01*
X120920812Y-58973397D01*
X120981528Y-58938823D01*
X121010044Y-58935500D01*
X121210373Y-58935500D01*
X121221180Y-58935971D01*
X121258807Y-58939264D01*
X121295324Y-58929478D01*
X121305830Y-58927149D01*
X121343045Y-58920588D01*
X121343047Y-58920586D01*
X121344112Y-58920399D01*
X121368799Y-58910173D01*
X121369682Y-58909554D01*
X121369684Y-58909554D01*
X121400625Y-58887887D01*
X121409722Y-58882091D01*
X121442455Y-58863194D01*
X121466748Y-58834241D01*
X121474036Y-58826288D01*
X123256290Y-57044034D01*
X123264258Y-57036734D01*
X123269524Y-57032316D01*
X123285667Y-57018771D01*
X123293192Y-57012457D01*
X123293192Y-57012456D01*
X123293194Y-57012455D01*
X123312091Y-56979722D01*
X123317887Y-56970625D01*
X123339554Y-56939684D01*
X123339554Y-56939682D01*
X123340173Y-56938799D01*
X123350399Y-56914112D01*
X123350586Y-56913047D01*
X123350588Y-56913045D01*
X123357149Y-56875830D01*
X123359478Y-56865324D01*
X123369264Y-56828807D01*
X123365972Y-56791176D01*
X123365500Y-56780369D01*
X123365500Y-55969166D01*
X123385185Y-55902127D01*
X123437989Y-55856372D01*
X123507147Y-55846428D01*
X123564986Y-55870790D01*
X123642151Y-55930000D01*
X123687159Y-55964536D01*
X123833238Y-56025044D01*
X123969361Y-56042964D01*
X123989999Y-56045682D01*
X123989999Y-56045681D01*
X123990000Y-56045682D01*
X124057818Y-56036753D01*
X124126853Y-56047518D01*
X124161685Y-56072011D01*
X125008181Y-56918506D01*
X125041666Y-56979829D01*
X125044500Y-57006187D01*
X125044500Y-62158811D01*
X125024815Y-62225850D01*
X125008181Y-62246492D01*
X121107181Y-66147491D01*
X121045858Y-66180976D01*
X120976166Y-66175992D01*
X120920233Y-66134120D01*
X120895816Y-66068656D01*
X120895500Y-66059810D01*
X120895500Y-66058811D01*
X120895500Y-65730252D01*
X120883867Y-65671769D01*
X120875660Y-65659487D01*
X120839552Y-65605447D01*
X120773230Y-65561132D01*
X120714749Y-65549500D01*
X120714748Y-65549500D01*
X118111188Y-65549500D01*
X118044149Y-65529815D01*
X118023507Y-65513181D01*
X109734043Y-57223717D01*
X109726734Y-57215741D01*
X109702454Y-57186805D01*
X109669736Y-57167915D01*
X109660627Y-57162112D01*
X109629684Y-57140446D01*
X109628803Y-57139829D01*
X109604107Y-57129599D01*
X109565852Y-57122853D01*
X109555296Y-57120512D01*
X109518807Y-57110735D01*
X109481180Y-57114028D01*
X109470372Y-57114500D01*
X107648299Y-57114500D01*
X107581260Y-57094815D01*
X107549924Y-57065987D01*
X107526670Y-57035682D01*
X107524086Y-57032315D01*
X107498892Y-56967147D01*
X107512930Y-56898702D01*
X107534778Y-56869151D01*
X109191158Y-55212770D01*
X109252479Y-55179287D01*
X109322171Y-55184271D01*
G37*
G04 #@! TD.AperFunction*
G04 #@! TA.AperFunction,Conductor*
G36*
X112017539Y-49845185D02*
G01*
X112063294Y-49897989D01*
X112074500Y-49949499D01*
X112074500Y-50119748D01*
X112075199Y-50123262D01*
X112085651Y-50175810D01*
X112085651Y-50224190D01*
X112074500Y-50280253D01*
X112074500Y-50619748D01*
X112086132Y-50678230D01*
X112130447Y-50744552D01*
X112196769Y-50788867D01*
X112255251Y-50800500D01*
X112255252Y-50800500D01*
X112580376Y-50800500D01*
X112590614Y-50800923D01*
X112629344Y-50804132D01*
X112629347Y-50804131D01*
X112629744Y-50804164D01*
X112659142Y-50800500D01*
X112944749Y-50800500D01*
X112973989Y-50794683D01*
X113003231Y-50788867D01*
X113069552Y-50744552D01*
X113113867Y-50678231D01*
X113125500Y-50619748D01*
X113125500Y-50424499D01*
X113145185Y-50357461D01*
X113197989Y-50311706D01*
X113249500Y-50300500D01*
X113330788Y-50300500D01*
X113356234Y-50303139D01*
X113357556Y-50303416D01*
X113365315Y-50305043D01*
X113391364Y-50301795D01*
X113394123Y-50301452D01*
X113408795Y-50300541D01*
X113428013Y-50297334D01*
X113433069Y-50296596D01*
X113481393Y-50290573D01*
X113481394Y-50290572D01*
X113488808Y-50289648D01*
X113495378Y-50286092D01*
X113495381Y-50286092D01*
X113538201Y-50262918D01*
X113542747Y-50260577D01*
X113586484Y-50239198D01*
X113586485Y-50239196D01*
X113593194Y-50235917D01*
X113598254Y-50230419D01*
X113598258Y-50230418D01*
X113631255Y-50194572D01*
X113634733Y-50190947D01*
X113708865Y-50116815D01*
X113770187Y-50083333D01*
X113796544Y-50080499D01*
X113935841Y-50080499D01*
X113939900Y-50080499D01*
X113989487Y-50073972D01*
X114098316Y-50023224D01*
X114177319Y-49944220D01*
X114238640Y-49910736D01*
X114308331Y-49915720D01*
X114352680Y-49944221D01*
X114401683Y-49993224D01*
X114434458Y-50008507D01*
X114510513Y-50043972D01*
X114560099Y-50050500D01*
X114979900Y-50050499D01*
X115029487Y-50043972D01*
X115138316Y-49993224D01*
X115199722Y-49931817D01*
X115261043Y-49898334D01*
X115287402Y-49895500D01*
X115896130Y-49895500D01*
X115963169Y-49915185D01*
X116008924Y-49967989D01*
X116015829Y-50014059D01*
X116017687Y-50013815D01*
X116040456Y-50186762D01*
X116107211Y-50347924D01*
X116104283Y-50349136D01*
X116120152Y-50390179D01*
X116106115Y-50458625D01*
X116057303Y-50508616D01*
X115996582Y-50524500D01*
X115204749Y-50524500D01*
X115180558Y-50522117D01*
X115165405Y-50519102D01*
X115150252Y-50522117D01*
X115150250Y-50522117D01*
X115057910Y-50540485D01*
X115020651Y-50565381D01*
X115000822Y-50578629D01*
X115000813Y-50578636D01*
X114989783Y-50586006D01*
X114989781Y-50586007D01*
X114986561Y-50588158D01*
X114986550Y-50588165D01*
X114966780Y-50601376D01*
X114958197Y-50614222D01*
X114942777Y-50633010D01*
X113948010Y-51627777D01*
X113929222Y-51643197D01*
X113916376Y-51651780D01*
X113908112Y-51664148D01*
X113901007Y-51674781D01*
X113901006Y-51674783D01*
X113898404Y-51678676D01*
X113898404Y-51678677D01*
X113888675Y-51693238D01*
X113855483Y-51742911D01*
X113848206Y-51779500D01*
X113834103Y-51850405D01*
X113837117Y-51865556D01*
X113839500Y-51889748D01*
X113839500Y-52019520D01*
X113819815Y-52086559D01*
X113803183Y-52107200D01*
X113772204Y-52138180D01*
X113710881Y-52171666D01*
X113684521Y-52174500D01*
X113135680Y-52174500D01*
X113068641Y-52154815D01*
X113066789Y-52153602D01*
X113053996Y-52145054D01*
X113016123Y-52119747D01*
X113003230Y-52111132D01*
X112944749Y-52099500D01*
X112944748Y-52099500D01*
X112255252Y-52099500D01*
X112255251Y-52099500D01*
X112196769Y-52111132D01*
X112130447Y-52155447D01*
X112086132Y-52221769D01*
X112074500Y-52280251D01*
X112074500Y-52450500D01*
X112054815Y-52517539D01*
X112002011Y-52563294D01*
X111950500Y-52574500D01*
X110449500Y-52574500D01*
X110382461Y-52554815D01*
X110336706Y-52502011D01*
X110325500Y-52450500D01*
X110325500Y-52280252D01*
X110321044Y-52257852D01*
X110314348Y-52224187D01*
X110314348Y-52175812D01*
X110325500Y-52119748D01*
X110325500Y-51780252D01*
X110325350Y-51779500D01*
X110313867Y-51721769D01*
X110269552Y-51655447D01*
X110203230Y-51611132D01*
X110144749Y-51599500D01*
X110144748Y-51599500D01*
X109858488Y-51599500D01*
X109099999Y-51599500D01*
X109032960Y-51579815D01*
X108987205Y-51527011D01*
X108975999Y-51475500D01*
X108975999Y-50885538D01*
X108995684Y-50818499D01*
X109048488Y-50772744D01*
X109117646Y-50762800D01*
X109135380Y-50766693D01*
X109190578Y-50783126D01*
X109195452Y-50784687D01*
X109241512Y-50800500D01*
X109241513Y-50800500D01*
X109248577Y-50802925D01*
X109256043Y-50802616D01*
X109256046Y-50802617D01*
X109304668Y-50800605D01*
X109309792Y-50800500D01*
X110144749Y-50800500D01*
X110173989Y-50794683D01*
X110203231Y-50788867D01*
X110269552Y-50744552D01*
X110313867Y-50678231D01*
X110325500Y-50619748D01*
X110325500Y-50280252D01*
X110314348Y-50224187D01*
X110314348Y-50175812D01*
X110325500Y-50119748D01*
X110325500Y-49949500D01*
X110345185Y-49882461D01*
X110397989Y-49836706D01*
X110449500Y-49825500D01*
X111352606Y-49825500D01*
X111381525Y-49825500D01*
X111950500Y-49825500D01*
X112017539Y-49845185D01*
G37*
G04 #@! TD.AperFunction*
G04 #@! TA.AperFunction,Conductor*
G36*
X87220851Y-48705185D02*
G01*
X87241493Y-48721819D01*
X88978181Y-50458506D01*
X89011666Y-50519829D01*
X89014500Y-50546187D01*
X89014500Y-51281699D01*
X88994815Y-51348738D01*
X88965988Y-51380074D01*
X88911717Y-51421718D01*
X88815463Y-51547159D01*
X88754956Y-51693237D01*
X88734317Y-51850000D01*
X88754956Y-52006762D01*
X88784483Y-52078048D01*
X88791952Y-52147518D01*
X88760676Y-52209997D01*
X88700587Y-52245648D01*
X88669922Y-52249500D01*
X88448228Y-52249500D01*
X88437420Y-52249028D01*
X88399792Y-52245735D01*
X88363304Y-52255512D01*
X88352748Y-52257852D01*
X88314499Y-52264597D01*
X88289793Y-52274831D01*
X88257980Y-52297106D01*
X88248864Y-52302914D01*
X88216145Y-52321805D01*
X88191862Y-52350744D01*
X88184556Y-52358716D01*
X87791352Y-52751921D01*
X87730029Y-52785406D01*
X87660338Y-52780422D01*
X87604404Y-52738551D01*
X87579987Y-52673086D01*
X87580732Y-52648054D01*
X87582349Y-52635777D01*
X87595682Y-52534500D01*
X87595463Y-52532840D01*
X87592964Y-52513860D01*
X87575044Y-52377738D01*
X87514536Y-52231659D01*
X87501020Y-52214044D01*
X87418282Y-52106217D01*
X87292840Y-52009963D01*
X87146762Y-51949456D01*
X86990000Y-51928817D01*
X86833237Y-51949456D01*
X86687159Y-52009963D01*
X86561717Y-52106217D01*
X86465463Y-52231659D01*
X86404956Y-52377737D01*
X86384317Y-52534500D01*
X86393246Y-52602318D01*
X86382480Y-52671353D01*
X86357988Y-52706184D01*
X85480693Y-53583481D01*
X85419370Y-53616966D01*
X85393012Y-53619800D01*
X85156951Y-53619800D01*
X85098469Y-53631432D01*
X85032147Y-53675747D01*
X84987832Y-53742069D01*
X84976199Y-53800551D01*
X84976200Y-55372200D01*
X84956515Y-55439239D01*
X84903711Y-55484994D01*
X84852200Y-55496200D01*
X83697800Y-55496200D01*
X83630761Y-55476515D01*
X83585006Y-55423711D01*
X83573800Y-55372200D01*
X83573800Y-53800551D01*
X83562167Y-53742069D01*
X83517852Y-53675747D01*
X83451530Y-53631432D01*
X83393049Y-53619800D01*
X83393048Y-53619800D01*
X83355969Y-53619800D01*
X83288930Y-53600115D01*
X83276306Y-53586877D01*
X83274943Y-53588503D01*
X83229255Y-53550166D01*
X83221280Y-53542858D01*
X82558436Y-52880014D01*
X82524951Y-52818691D01*
X82529935Y-52748999D01*
X82571807Y-52693066D01*
X82637271Y-52668649D01*
X82664596Y-52669717D01*
X82868818Y-52700500D01*
X83131182Y-52700500D01*
X83390615Y-52661396D01*
X83641323Y-52584063D01*
X83877704Y-52470228D01*
X84094479Y-52322433D01*
X84094482Y-52322429D01*
X84094485Y-52322428D01*
X84186811Y-52236762D01*
X84286805Y-52143981D01*
X84450386Y-51938857D01*
X84581568Y-51711643D01*
X84677420Y-51467416D01*
X84735802Y-51211630D01*
X84755408Y-50950000D01*
X84735802Y-50688370D01*
X84677420Y-50432584D01*
X84674533Y-50425229D01*
X84627298Y-50304876D01*
X84581568Y-50188357D01*
X84450386Y-49961143D01*
X84286805Y-49756019D01*
X84226401Y-49699972D01*
X84094485Y-49577571D01*
X84020327Y-49527011D01*
X83877704Y-49429772D01*
X83641323Y-49315937D01*
X83390615Y-49238604D01*
X83131182Y-49199500D01*
X82868818Y-49199500D01*
X82609385Y-49238604D01*
X82358677Y-49315937D01*
X82195116Y-49394704D01*
X82122296Y-49429772D01*
X82008154Y-49507593D01*
X81905518Y-49577569D01*
X81875580Y-49605347D01*
X81813047Y-49636514D01*
X81743591Y-49628927D01*
X81689263Y-49584992D01*
X81667312Y-49518660D01*
X81684707Y-49450991D01*
X81703555Y-49426770D01*
X82408507Y-48721818D01*
X82469830Y-48688334D01*
X82496188Y-48685500D01*
X87153812Y-48685500D01*
X87220851Y-48705185D01*
G37*
G04 #@! TD.AperFunction*
G04 #@! TA.AperFunction,Conductor*
G36*
X100762539Y-43395185D02*
G01*
X100808294Y-43447989D01*
X100819500Y-43499500D01*
X100819500Y-45973812D01*
X100799815Y-46040851D01*
X100783181Y-46061493D01*
X100516493Y-46328181D01*
X100455170Y-46361666D01*
X100428812Y-46364500D01*
X97889628Y-46364500D01*
X97878820Y-46364028D01*
X97841192Y-46360735D01*
X97804704Y-46370512D01*
X97794148Y-46372852D01*
X97755899Y-46379597D01*
X97731193Y-46389831D01*
X97699380Y-46412106D01*
X97690264Y-46417914D01*
X97657545Y-46436805D01*
X97633262Y-46465744D01*
X97625956Y-46473716D01*
X97383714Y-46715958D01*
X97375741Y-46723264D01*
X97346806Y-46747544D01*
X97327914Y-46780264D01*
X97322105Y-46789382D01*
X97312469Y-46803144D01*
X97257892Y-46846770D01*
X97188394Y-46853964D01*
X97126039Y-46822442D01*
X97111123Y-46805656D01*
X97072149Y-46752848D01*
X96962884Y-46672207D01*
X96834696Y-46627353D01*
X96807151Y-46624770D01*
X96807139Y-46624769D01*
X96804266Y-46624500D01*
X94746195Y-46624500D01*
X94679156Y-46604815D01*
X94633401Y-46552011D01*
X94623457Y-46482853D01*
X94652482Y-46419297D01*
X94698743Y-46385939D01*
X94822841Y-46334536D01*
X94948282Y-46238282D01*
X95044536Y-46112841D01*
X95105044Y-45966762D01*
X95125682Y-45810000D01*
X95116752Y-45742180D01*
X95127518Y-45673144D01*
X95152008Y-45638316D01*
X97378507Y-43411819D01*
X97439831Y-43378334D01*
X97466189Y-43375500D01*
X100695500Y-43375500D01*
X100762539Y-43395185D01*
G37*
G04 #@! TD.AperFunction*
G04 #@! TA.AperFunction,Conductor*
G36*
X98931752Y-62818368D02*
G01*
X99030132Y-62916748D01*
X99033500Y-62924880D01*
X99033500Y-63225748D01*
X99045132Y-63284230D01*
X99061061Y-63308069D01*
X99062999Y-63314458D01*
X99062999Y-63377927D01*
X99059631Y-63386059D01*
X99053392Y-63389270D01*
X99013618Y-63395908D01*
X98996608Y-63405114D01*
X98991135Y-63406500D01*
X98859252Y-63406500D01*
X98817631Y-63414779D01*
X98815387Y-63415000D01*
X98229764Y-63415000D01*
X98221632Y-63411632D01*
X98183368Y-63373368D01*
X98180000Y-63365236D01*
X98180000Y-62885763D01*
X98181808Y-62881396D01*
X98181124Y-62881113D01*
X98181998Y-62879001D01*
X98182000Y-62879000D01*
X98182000Y-62826500D01*
X98185368Y-62818368D01*
X98193500Y-62815000D01*
X98923620Y-62815000D01*
X98931752Y-62818368D01*
G37*
G04 #@! TD.AperFunction*
G04 #@! TA.AperFunction,Conductor*
G36*
X99996632Y-61303368D02*
G01*
X100000000Y-61311500D01*
X100000000Y-61988500D01*
X99996632Y-61996632D01*
X99988500Y-62000000D01*
X99166764Y-62000000D01*
X99158632Y-61996632D01*
X99120368Y-61958368D01*
X99117000Y-61950236D01*
X99117000Y-61600001D01*
X99117000Y-61600000D01*
X99116999Y-61600000D01*
X99056000Y-61600000D01*
X99047868Y-61596632D01*
X99044500Y-61588500D01*
X99044500Y-61587740D01*
X99044978Y-61584459D01*
X99045107Y-61584022D01*
X99046617Y-61578954D01*
X99044510Y-61528009D01*
X99044500Y-61527534D01*
X99044500Y-61434959D01*
X99040657Y-61411929D01*
X99040500Y-61410036D01*
X99040500Y-61319252D01*
X99039404Y-61313744D01*
X99041121Y-61305111D01*
X99048439Y-61300221D01*
X99050683Y-61300000D01*
X99988500Y-61300000D01*
X99996632Y-61303368D01*
G37*
G04 #@! TD.AperFunction*
M02*
