G04 #@! TF.GenerationSoftware,KiCad,Pcbnew,7.0.2*
G04 #@! TF.CreationDate,2023-07-30T22:18:18-04:00*
G04 #@! TF.ProjectId,TopExternalFaceRev1,546f7045-7874-4657-926e-616c46616365,rev?*
G04 #@! TF.SameCoordinates,Original*
G04 #@! TF.FileFunction,Profile,NP*
%FSLAX46Y46*%
G04 Gerber Fmt 4.6, Leading zero omitted, Abs format (unit mm)*
G04 Created by KiCad (PCBNEW 7.0.2) date 2023-07-30 22:18:18*
%MOMM*%
%LPD*%
G01*
G04 APERTURE LIST*
G04 #@! TA.AperFunction,Profile*
%ADD10C,0.050000*%
G04 #@! TD*
G04 #@! TA.AperFunction,Profile*
%ADD11C,0.100000*%
G04 #@! TD*
G04 APERTURE END LIST*
D10*
X110600000Y-138900000D02*
G75*
G03*
X110600000Y-138900000I-1500000J0D01*
G01*
D11*
X146900000Y-117000000D02*
X146900000Y-125000000D01*
X103100000Y-117000000D02*
G75*
G03*
X101900000Y-117000000I-600000J0D01*
G01*
X125000000Y-103100000D02*
X133000000Y-103100000D01*
X125000000Y-146900000D02*
X117000000Y-146900000D01*
X117000000Y-101900000D02*
G75*
G03*
X117000000Y-103100000I0J-600000D01*
G01*
X148100000Y-117000000D02*
G75*
G03*
X146900000Y-117000000I-600000J0D01*
G01*
X117000000Y-103100000D02*
X125000000Y-103100000D01*
X125000000Y-148100000D02*
X133000000Y-148100000D01*
X117000000Y-148100000D02*
X125000000Y-148100000D01*
X101900000Y-125000000D02*
X101900000Y-133000000D01*
X146900000Y-125000000D02*
X146900000Y-133000000D01*
X117000000Y-146900000D02*
G75*
G03*
X117000000Y-148100000I0J-600000D01*
G01*
X133000000Y-148100000D02*
G75*
G03*
X133000000Y-146900000I0J600000D01*
G01*
X103100000Y-133000000D02*
X103100000Y-125000000D01*
D10*
X142400000Y-138900000D02*
G75*
G03*
X142400000Y-138900000I-1500000J0D01*
G01*
D11*
X150000000Y-150000000D02*
X100000000Y-150000000D01*
X148100000Y-125000000D02*
X148100000Y-117000000D01*
X101900000Y-133000000D02*
G75*
G03*
X103100000Y-133000000I600000J0D01*
G01*
X150000000Y-100000000D02*
X150000000Y-150000000D01*
D10*
X110600000Y-111100000D02*
G75*
G03*
X110600000Y-111100000I-1500000J0D01*
G01*
D11*
X133000000Y-103100000D02*
G75*
G03*
X133000000Y-101900000I0J600000D01*
G01*
X100000000Y-150000000D02*
X100000000Y-100000000D01*
X101900000Y-117000000D02*
X101900000Y-125000000D01*
D10*
X142400000Y-111100000D02*
G75*
G03*
X142400000Y-111100000I-1500000J0D01*
G01*
D11*
X103100000Y-125000000D02*
X103100000Y-117000000D01*
X133000000Y-146900000D02*
X125000000Y-146900000D01*
X100000000Y-100000000D02*
X150000000Y-100000000D01*
X148100000Y-133000000D02*
X148100000Y-125000000D01*
X125000000Y-101900000D02*
X117000000Y-101900000D01*
X133000000Y-101900000D02*
X125000000Y-101900000D01*
X146900000Y-133000000D02*
G75*
G03*
X148100000Y-133000000I600000J0D01*
G01*
M02*
