G04 #@! TF.GenerationSoftware,KiCad,Pcbnew,7.0.2*
G04 #@! TF.CreationDate,2023-07-30T22:18:18-04:00*
G04 #@! TF.ProjectId,TopExternalFaceRev1,546f7045-7874-4657-926e-616c46616365,rev?*
G04 #@! TF.SameCoordinates,Original*
G04 #@! TF.FileFunction,Legend,Bot*
G04 #@! TF.FilePolarity,Positive*
%FSLAX46Y46*%
G04 Gerber Fmt 4.6, Leading zero omitted, Abs format (unit mm)*
G04 Created by KiCad (PCBNEW 7.0.2) date 2023-07-30 22:18:18*
%MOMM*%
%LPD*%
G01*
G04 APERTURE LIST*
G04 Aperture macros list*
%AMRoundRect*
0 Rectangle with rounded corners*
0 $1 Rounding radius*
0 $2 $3 $4 $5 $6 $7 $8 $9 X,Y pos of 4 corners*
0 Add a 4 corners polygon primitive as box body*
4,1,4,$2,$3,$4,$5,$6,$7,$8,$9,$2,$3,0*
0 Add four circle primitives for the rounded corners*
1,1,$1+$1,$2,$3*
1,1,$1+$1,$4,$5*
1,1,$1+$1,$6,$7*
1,1,$1+$1,$8,$9*
0 Add four rect primitives between the rounded corners*
20,1,$1+$1,$2,$3,$4,$5,0*
20,1,$1+$1,$4,$5,$6,$7,0*
20,1,$1+$1,$6,$7,$8,$9,0*
20,1,$1+$1,$8,$9,$2,$3,0*%
G04 Aperture macros list end*
%ADD10C,0.150000*%
%ADD11C,0.254000*%
%ADD12C,0.120000*%
%ADD13C,0.200000*%
%ADD14C,0.250000*%
%ADD15RoundRect,0.140000X-0.170000X0.140000X-0.170000X-0.140000X0.170000X-0.140000X0.170000X0.140000X0*%
%ADD16R,1.500000X1.000000*%
%ADD17C,2.000000*%
%ADD18RoundRect,0.135000X-0.135000X-0.185000X0.135000X-0.185000X0.135000X0.185000X-0.135000X0.185000X0*%
%ADD19R,0.740000X2.790000*%
%ADD20RoundRect,0.140000X0.140000X0.170000X-0.140000X0.170000X-0.140000X-0.170000X0.140000X-0.170000X0*%
%ADD21R,1.200000X3.700000*%
%ADD22RoundRect,0.140000X0.170000X-0.140000X0.170000X0.140000X-0.170000X0.140000X-0.170000X-0.140000X0*%
%ADD23RoundRect,0.135000X0.135000X0.185000X-0.135000X0.185000X-0.135000X-0.185000X0.135000X-0.185000X0*%
%ADD24RoundRect,0.140000X-0.140000X-0.170000X0.140000X-0.170000X0.140000X0.170000X-0.140000X0.170000X0*%
%ADD25R,0.700000X0.300000*%
%ADD26R,1.000000X1.700000*%
%ADD27RoundRect,0.135000X-0.185000X0.135000X-0.185000X-0.135000X0.185000X-0.135000X0.185000X0.135000X0*%
%ADD28R,1.475000X0.450000*%
%ADD29RoundRect,0.225000X-0.375000X0.225000X-0.375000X-0.225000X0.375000X-0.225000X0.375000X0.225000X0*%
G04 APERTURE END LIST*
D10*
X128600000Y-121800000D02*
X122000000Y-128400000D01*
X122000000Y-121800000D02*
X128600000Y-121800000D01*
X128600000Y-128400000D01*
X122000000Y-128400000D01*
X122000000Y-121800000D01*
X122000000Y-121800000D02*
X128600000Y-128400000D01*
X134961904Y-145877619D02*
X134961904Y-144877619D01*
X134961904Y-144877619D02*
X134723809Y-144877619D01*
X134723809Y-144877619D02*
X134580952Y-144925238D01*
X134580952Y-144925238D02*
X134485714Y-145020476D01*
X134485714Y-145020476D02*
X134438095Y-145115714D01*
X134438095Y-145115714D02*
X134390476Y-145306190D01*
X134390476Y-145306190D02*
X134390476Y-145449047D01*
X134390476Y-145449047D02*
X134438095Y-145639523D01*
X134438095Y-145639523D02*
X134485714Y-145734761D01*
X134485714Y-145734761D02*
X134580952Y-145830000D01*
X134580952Y-145830000D02*
X134723809Y-145877619D01*
X134723809Y-145877619D02*
X134961904Y-145877619D01*
X133580952Y-145830000D02*
X133676190Y-145877619D01*
X133676190Y-145877619D02*
X133866666Y-145877619D01*
X133866666Y-145877619D02*
X133961904Y-145830000D01*
X133961904Y-145830000D02*
X134009523Y-145734761D01*
X134009523Y-145734761D02*
X134009523Y-145353809D01*
X134009523Y-145353809D02*
X133961904Y-145258571D01*
X133961904Y-145258571D02*
X133866666Y-145210952D01*
X133866666Y-145210952D02*
X133676190Y-145210952D01*
X133676190Y-145210952D02*
X133580952Y-145258571D01*
X133580952Y-145258571D02*
X133533333Y-145353809D01*
X133533333Y-145353809D02*
X133533333Y-145449047D01*
X133533333Y-145449047D02*
X134009523Y-145544285D01*
X133152380Y-145830000D02*
X133057142Y-145877619D01*
X133057142Y-145877619D02*
X132866666Y-145877619D01*
X132866666Y-145877619D02*
X132771428Y-145830000D01*
X132771428Y-145830000D02*
X132723809Y-145734761D01*
X132723809Y-145734761D02*
X132723809Y-145687142D01*
X132723809Y-145687142D02*
X132771428Y-145591904D01*
X132771428Y-145591904D02*
X132866666Y-145544285D01*
X132866666Y-145544285D02*
X133009523Y-145544285D01*
X133009523Y-145544285D02*
X133104761Y-145496666D01*
X133104761Y-145496666D02*
X133152380Y-145401428D01*
X133152380Y-145401428D02*
X133152380Y-145353809D01*
X133152380Y-145353809D02*
X133104761Y-145258571D01*
X133104761Y-145258571D02*
X133009523Y-145210952D01*
X133009523Y-145210952D02*
X132866666Y-145210952D01*
X132866666Y-145210952D02*
X132771428Y-145258571D01*
X132295237Y-145877619D02*
X132295237Y-145210952D01*
X132295237Y-144877619D02*
X132342856Y-144925238D01*
X132342856Y-144925238D02*
X132295237Y-144972857D01*
X132295237Y-144972857D02*
X132247618Y-144925238D01*
X132247618Y-144925238D02*
X132295237Y-144877619D01*
X132295237Y-144877619D02*
X132295237Y-144972857D01*
X131390476Y-145210952D02*
X131390476Y-146020476D01*
X131390476Y-146020476D02*
X131438095Y-146115714D01*
X131438095Y-146115714D02*
X131485714Y-146163333D01*
X131485714Y-146163333D02*
X131580952Y-146210952D01*
X131580952Y-146210952D02*
X131723809Y-146210952D01*
X131723809Y-146210952D02*
X131819047Y-146163333D01*
X131390476Y-145830000D02*
X131485714Y-145877619D01*
X131485714Y-145877619D02*
X131676190Y-145877619D01*
X131676190Y-145877619D02*
X131771428Y-145830000D01*
X131771428Y-145830000D02*
X131819047Y-145782380D01*
X131819047Y-145782380D02*
X131866666Y-145687142D01*
X131866666Y-145687142D02*
X131866666Y-145401428D01*
X131866666Y-145401428D02*
X131819047Y-145306190D01*
X131819047Y-145306190D02*
X131771428Y-145258571D01*
X131771428Y-145258571D02*
X131676190Y-145210952D01*
X131676190Y-145210952D02*
X131485714Y-145210952D01*
X131485714Y-145210952D02*
X131390476Y-145258571D01*
X130914285Y-145210952D02*
X130914285Y-145877619D01*
X130914285Y-145306190D02*
X130866666Y-145258571D01*
X130866666Y-145258571D02*
X130771428Y-145210952D01*
X130771428Y-145210952D02*
X130628571Y-145210952D01*
X130628571Y-145210952D02*
X130533333Y-145258571D01*
X130533333Y-145258571D02*
X130485714Y-145353809D01*
X130485714Y-145353809D02*
X130485714Y-145877619D01*
X129628571Y-145830000D02*
X129723809Y-145877619D01*
X129723809Y-145877619D02*
X129914285Y-145877619D01*
X129914285Y-145877619D02*
X130009523Y-145830000D01*
X130009523Y-145830000D02*
X130057142Y-145734761D01*
X130057142Y-145734761D02*
X130057142Y-145353809D01*
X130057142Y-145353809D02*
X130009523Y-145258571D01*
X130009523Y-145258571D02*
X129914285Y-145210952D01*
X129914285Y-145210952D02*
X129723809Y-145210952D01*
X129723809Y-145210952D02*
X129628571Y-145258571D01*
X129628571Y-145258571D02*
X129580952Y-145353809D01*
X129580952Y-145353809D02*
X129580952Y-145449047D01*
X129580952Y-145449047D02*
X130057142Y-145544285D01*
X128723809Y-145877619D02*
X128723809Y-144877619D01*
X128723809Y-145830000D02*
X128819047Y-145877619D01*
X128819047Y-145877619D02*
X129009523Y-145877619D01*
X129009523Y-145877619D02*
X129104761Y-145830000D01*
X129104761Y-145830000D02*
X129152380Y-145782380D01*
X129152380Y-145782380D02*
X129199999Y-145687142D01*
X129199999Y-145687142D02*
X129199999Y-145401428D01*
X129199999Y-145401428D02*
X129152380Y-145306190D01*
X129152380Y-145306190D02*
X129104761Y-145258571D01*
X129104761Y-145258571D02*
X129009523Y-145210952D01*
X129009523Y-145210952D02*
X128819047Y-145210952D01*
X128819047Y-145210952D02*
X128723809Y-145258571D01*
X127485713Y-145877619D02*
X127485713Y-144877619D01*
X127485713Y-145258571D02*
X127390475Y-145210952D01*
X127390475Y-145210952D02*
X127199999Y-145210952D01*
X127199999Y-145210952D02*
X127104761Y-145258571D01*
X127104761Y-145258571D02*
X127057142Y-145306190D01*
X127057142Y-145306190D02*
X127009523Y-145401428D01*
X127009523Y-145401428D02*
X127009523Y-145687142D01*
X127009523Y-145687142D02*
X127057142Y-145782380D01*
X127057142Y-145782380D02*
X127104761Y-145830000D01*
X127104761Y-145830000D02*
X127199999Y-145877619D01*
X127199999Y-145877619D02*
X127390475Y-145877619D01*
X127390475Y-145877619D02*
X127485713Y-145830000D01*
X126676189Y-145210952D02*
X126438094Y-145877619D01*
X126199999Y-145210952D02*
X126438094Y-145877619D01*
X126438094Y-145877619D02*
X126533332Y-146115714D01*
X126533332Y-146115714D02*
X126580951Y-146163333D01*
X126580951Y-146163333D02*
X126676189Y-146210952D01*
X125819046Y-145782380D02*
X125771427Y-145830000D01*
X125771427Y-145830000D02*
X125819046Y-145877619D01*
X125819046Y-145877619D02*
X125866665Y-145830000D01*
X125866665Y-145830000D02*
X125819046Y-145782380D01*
X125819046Y-145782380D02*
X125819046Y-145877619D01*
X125819046Y-145258571D02*
X125771427Y-145306190D01*
X125771427Y-145306190D02*
X125819046Y-145353809D01*
X125819046Y-145353809D02*
X125866665Y-145306190D01*
X125866665Y-145306190D02*
X125819046Y-145258571D01*
X125819046Y-145258571D02*
X125819046Y-145353809D01*
X124580951Y-145877619D02*
X124580951Y-144877619D01*
X124009523Y-145877619D02*
X124438094Y-145306190D01*
X124009523Y-144877619D02*
X124580951Y-145449047D01*
X123580951Y-145877619D02*
X123580951Y-145210952D01*
X123580951Y-144877619D02*
X123628570Y-144925238D01*
X123628570Y-144925238D02*
X123580951Y-144972857D01*
X123580951Y-144972857D02*
X123533332Y-144925238D01*
X123533332Y-144925238D02*
X123580951Y-144877619D01*
X123580951Y-144877619D02*
X123580951Y-144972857D01*
X122723809Y-145830000D02*
X122819047Y-145877619D01*
X122819047Y-145877619D02*
X123009523Y-145877619D01*
X123009523Y-145877619D02*
X123104761Y-145830000D01*
X123104761Y-145830000D02*
X123152380Y-145734761D01*
X123152380Y-145734761D02*
X123152380Y-145353809D01*
X123152380Y-145353809D02*
X123104761Y-145258571D01*
X123104761Y-145258571D02*
X123009523Y-145210952D01*
X123009523Y-145210952D02*
X122819047Y-145210952D01*
X122819047Y-145210952D02*
X122723809Y-145258571D01*
X122723809Y-145258571D02*
X122676190Y-145353809D01*
X122676190Y-145353809D02*
X122676190Y-145449047D01*
X122676190Y-145449047D02*
X123152380Y-145544285D01*
X122247618Y-145877619D02*
X122247618Y-145210952D01*
X122247618Y-145401428D02*
X122199999Y-145306190D01*
X122199999Y-145306190D02*
X122152380Y-145258571D01*
X122152380Y-145258571D02*
X122057142Y-145210952D01*
X122057142Y-145210952D02*
X121961904Y-145210952D01*
X121199999Y-145877619D02*
X121199999Y-145353809D01*
X121199999Y-145353809D02*
X121247618Y-145258571D01*
X121247618Y-145258571D02*
X121342856Y-145210952D01*
X121342856Y-145210952D02*
X121533332Y-145210952D01*
X121533332Y-145210952D02*
X121628570Y-145258571D01*
X121199999Y-145830000D02*
X121295237Y-145877619D01*
X121295237Y-145877619D02*
X121533332Y-145877619D01*
X121533332Y-145877619D02*
X121628570Y-145830000D01*
X121628570Y-145830000D02*
X121676189Y-145734761D01*
X121676189Y-145734761D02*
X121676189Y-145639523D01*
X121676189Y-145639523D02*
X121628570Y-145544285D01*
X121628570Y-145544285D02*
X121533332Y-145496666D01*
X121533332Y-145496666D02*
X121295237Y-145496666D01*
X121295237Y-145496666D02*
X121199999Y-145449047D01*
X120723808Y-145210952D02*
X120723808Y-145877619D01*
X120723808Y-145306190D02*
X120676189Y-145258571D01*
X120676189Y-145258571D02*
X120580951Y-145210952D01*
X120580951Y-145210952D02*
X120438094Y-145210952D01*
X120438094Y-145210952D02*
X120342856Y-145258571D01*
X120342856Y-145258571D02*
X120295237Y-145353809D01*
X120295237Y-145353809D02*
X120295237Y-145877619D01*
X119104760Y-145830000D02*
X118961903Y-145877619D01*
X118961903Y-145877619D02*
X118723808Y-145877619D01*
X118723808Y-145877619D02*
X118628570Y-145830000D01*
X118628570Y-145830000D02*
X118580951Y-145782380D01*
X118580951Y-145782380D02*
X118533332Y-145687142D01*
X118533332Y-145687142D02*
X118533332Y-145591904D01*
X118533332Y-145591904D02*
X118580951Y-145496666D01*
X118580951Y-145496666D02*
X118628570Y-145449047D01*
X118628570Y-145449047D02*
X118723808Y-145401428D01*
X118723808Y-145401428D02*
X118914284Y-145353809D01*
X118914284Y-145353809D02*
X119009522Y-145306190D01*
X119009522Y-145306190D02*
X119057141Y-145258571D01*
X119057141Y-145258571D02*
X119104760Y-145163333D01*
X119104760Y-145163333D02*
X119104760Y-145068095D01*
X119104760Y-145068095D02*
X119057141Y-144972857D01*
X119057141Y-144972857D02*
X119009522Y-144925238D01*
X119009522Y-144925238D02*
X118914284Y-144877619D01*
X118914284Y-144877619D02*
X118676189Y-144877619D01*
X118676189Y-144877619D02*
X118533332Y-144925238D01*
X118104760Y-145877619D02*
X118104760Y-144877619D01*
X117676189Y-145877619D02*
X117676189Y-145353809D01*
X117676189Y-145353809D02*
X117723808Y-145258571D01*
X117723808Y-145258571D02*
X117819046Y-145210952D01*
X117819046Y-145210952D02*
X117961903Y-145210952D01*
X117961903Y-145210952D02*
X118057141Y-145258571D01*
X118057141Y-145258571D02*
X118104760Y-145306190D01*
X116771427Y-145877619D02*
X116771427Y-145353809D01*
X116771427Y-145353809D02*
X116819046Y-145258571D01*
X116819046Y-145258571D02*
X116914284Y-145210952D01*
X116914284Y-145210952D02*
X117104760Y-145210952D01*
X117104760Y-145210952D02*
X117199998Y-145258571D01*
X116771427Y-145830000D02*
X116866665Y-145877619D01*
X116866665Y-145877619D02*
X117104760Y-145877619D01*
X117104760Y-145877619D02*
X117199998Y-145830000D01*
X117199998Y-145830000D02*
X117247617Y-145734761D01*
X117247617Y-145734761D02*
X117247617Y-145639523D01*
X117247617Y-145639523D02*
X117199998Y-145544285D01*
X117199998Y-145544285D02*
X117104760Y-145496666D01*
X117104760Y-145496666D02*
X116866665Y-145496666D01*
X116866665Y-145496666D02*
X116771427Y-145449047D01*
X116295236Y-145210952D02*
X116295236Y-145877619D01*
X116295236Y-145306190D02*
X116247617Y-145258571D01*
X116247617Y-145258571D02*
X116152379Y-145210952D01*
X116152379Y-145210952D02*
X116009522Y-145210952D01*
X116009522Y-145210952D02*
X115914284Y-145258571D01*
X115914284Y-145258571D02*
X115866665Y-145353809D01*
X115866665Y-145353809D02*
X115866665Y-145877619D01*
X115247617Y-145877619D02*
X115342855Y-145830000D01*
X115342855Y-145830000D02*
X115390474Y-145734761D01*
X115390474Y-145734761D02*
X115390474Y-144877619D01*
X114485712Y-145830000D02*
X114580950Y-145877619D01*
X114580950Y-145877619D02*
X114771426Y-145877619D01*
X114771426Y-145877619D02*
X114866664Y-145830000D01*
X114866664Y-145830000D02*
X114914283Y-145734761D01*
X114914283Y-145734761D02*
X114914283Y-145353809D01*
X114914283Y-145353809D02*
X114866664Y-145258571D01*
X114866664Y-145258571D02*
X114771426Y-145210952D01*
X114771426Y-145210952D02*
X114580950Y-145210952D01*
X114580950Y-145210952D02*
X114485712Y-145258571D01*
X114485712Y-145258571D02*
X114438093Y-145353809D01*
X114438093Y-145353809D02*
X114438093Y-145449047D01*
X114438093Y-145449047D02*
X114914283Y-145544285D01*
X114104759Y-145210952D02*
X113866664Y-145877619D01*
X113628569Y-145210952D02*
X113866664Y-145877619D01*
X113866664Y-145877619D02*
X113961902Y-146115714D01*
X113961902Y-146115714D02*
X114009521Y-146163333D01*
X114009521Y-146163333D02*
X114104759Y-146210952D01*
X103877619Y-114942857D02*
X104877619Y-115180952D01*
X104877619Y-115180952D02*
X104163333Y-115371428D01*
X104163333Y-115371428D02*
X104877619Y-115561904D01*
X104877619Y-115561904D02*
X103877619Y-115800000D01*
X104830000Y-116561904D02*
X104877619Y-116466666D01*
X104877619Y-116466666D02*
X104877619Y-116276190D01*
X104877619Y-116276190D02*
X104830000Y-116180952D01*
X104830000Y-116180952D02*
X104734761Y-116133333D01*
X104734761Y-116133333D02*
X104353809Y-116133333D01*
X104353809Y-116133333D02*
X104258571Y-116180952D01*
X104258571Y-116180952D02*
X104210952Y-116276190D01*
X104210952Y-116276190D02*
X104210952Y-116466666D01*
X104210952Y-116466666D02*
X104258571Y-116561904D01*
X104258571Y-116561904D02*
X104353809Y-116609523D01*
X104353809Y-116609523D02*
X104449047Y-116609523D01*
X104449047Y-116609523D02*
X104544285Y-116133333D01*
X104210952Y-117038095D02*
X104877619Y-117038095D01*
X104306190Y-117038095D02*
X104258571Y-117085714D01*
X104258571Y-117085714D02*
X104210952Y-117180952D01*
X104210952Y-117180952D02*
X104210952Y-117323809D01*
X104210952Y-117323809D02*
X104258571Y-117419047D01*
X104258571Y-117419047D02*
X104353809Y-117466666D01*
X104353809Y-117466666D02*
X104877619Y-117466666D01*
X104210952Y-117800000D02*
X104210952Y-118180952D01*
X103877619Y-117942857D02*
X104734761Y-117942857D01*
X104734761Y-117942857D02*
X104830000Y-117990476D01*
X104830000Y-117990476D02*
X104877619Y-118085714D01*
X104877619Y-118085714D02*
X104877619Y-118180952D01*
X104210952Y-118419048D02*
X104877619Y-118609524D01*
X104877619Y-118609524D02*
X104401428Y-118800000D01*
X104401428Y-118800000D02*
X104877619Y-118990476D01*
X104877619Y-118990476D02*
X104210952Y-119180952D01*
X104877619Y-119704762D02*
X104830000Y-119609524D01*
X104830000Y-119609524D02*
X104782380Y-119561905D01*
X104782380Y-119561905D02*
X104687142Y-119514286D01*
X104687142Y-119514286D02*
X104401428Y-119514286D01*
X104401428Y-119514286D02*
X104306190Y-119561905D01*
X104306190Y-119561905D02*
X104258571Y-119609524D01*
X104258571Y-119609524D02*
X104210952Y-119704762D01*
X104210952Y-119704762D02*
X104210952Y-119847619D01*
X104210952Y-119847619D02*
X104258571Y-119942857D01*
X104258571Y-119942857D02*
X104306190Y-119990476D01*
X104306190Y-119990476D02*
X104401428Y-120038095D01*
X104401428Y-120038095D02*
X104687142Y-120038095D01*
X104687142Y-120038095D02*
X104782380Y-119990476D01*
X104782380Y-119990476D02*
X104830000Y-119942857D01*
X104830000Y-119942857D02*
X104877619Y-119847619D01*
X104877619Y-119847619D02*
X104877619Y-119704762D01*
X104877619Y-120466667D02*
X104210952Y-120466667D01*
X104401428Y-120466667D02*
X104306190Y-120514286D01*
X104306190Y-120514286D02*
X104258571Y-120561905D01*
X104258571Y-120561905D02*
X104210952Y-120657143D01*
X104210952Y-120657143D02*
X104210952Y-120752381D01*
X104210952Y-120942858D02*
X104210952Y-121323810D01*
X103877619Y-121085715D02*
X104734761Y-121085715D01*
X104734761Y-121085715D02*
X104830000Y-121133334D01*
X104830000Y-121133334D02*
X104877619Y-121228572D01*
X104877619Y-121228572D02*
X104877619Y-121323810D01*
X104877619Y-121657144D02*
X103877619Y-121657144D01*
X104877619Y-122085715D02*
X104353809Y-122085715D01*
X104353809Y-122085715D02*
X104258571Y-122038096D01*
X104258571Y-122038096D02*
X104210952Y-121942858D01*
X104210952Y-121942858D02*
X104210952Y-121800001D01*
X104210952Y-121800001D02*
X104258571Y-121704763D01*
X104258571Y-121704763D02*
X104306190Y-121657144D01*
X104877619Y-123323811D02*
X103877619Y-123323811D01*
X103877619Y-123323811D02*
X103877619Y-123704763D01*
X103877619Y-123704763D02*
X103925238Y-123800001D01*
X103925238Y-123800001D02*
X103972857Y-123847620D01*
X103972857Y-123847620D02*
X104068095Y-123895239D01*
X104068095Y-123895239D02*
X104210952Y-123895239D01*
X104210952Y-123895239D02*
X104306190Y-123847620D01*
X104306190Y-123847620D02*
X104353809Y-123800001D01*
X104353809Y-123800001D02*
X104401428Y-123704763D01*
X104401428Y-123704763D02*
X104401428Y-123323811D01*
X104877619Y-124323811D02*
X104210952Y-124323811D01*
X103877619Y-124323811D02*
X103925238Y-124276192D01*
X103925238Y-124276192D02*
X103972857Y-124323811D01*
X103972857Y-124323811D02*
X103925238Y-124371430D01*
X103925238Y-124371430D02*
X103877619Y-124323811D01*
X103877619Y-124323811D02*
X103972857Y-124323811D01*
X104830000Y-125228572D02*
X104877619Y-125133334D01*
X104877619Y-125133334D02*
X104877619Y-124942858D01*
X104877619Y-124942858D02*
X104830000Y-124847620D01*
X104830000Y-124847620D02*
X104782380Y-124800001D01*
X104782380Y-124800001D02*
X104687142Y-124752382D01*
X104687142Y-124752382D02*
X104401428Y-124752382D01*
X104401428Y-124752382D02*
X104306190Y-124800001D01*
X104306190Y-124800001D02*
X104258571Y-124847620D01*
X104258571Y-124847620D02*
X104210952Y-124942858D01*
X104210952Y-124942858D02*
X104210952Y-125133334D01*
X104210952Y-125133334D02*
X104258571Y-125228572D01*
X104877619Y-125800001D02*
X104830000Y-125704763D01*
X104830000Y-125704763D02*
X104782380Y-125657144D01*
X104782380Y-125657144D02*
X104687142Y-125609525D01*
X104687142Y-125609525D02*
X104401428Y-125609525D01*
X104401428Y-125609525D02*
X104306190Y-125657144D01*
X104306190Y-125657144D02*
X104258571Y-125704763D01*
X104258571Y-125704763D02*
X104210952Y-125800001D01*
X104210952Y-125800001D02*
X104210952Y-125942858D01*
X104210952Y-125942858D02*
X104258571Y-126038096D01*
X104258571Y-126038096D02*
X104306190Y-126085715D01*
X104306190Y-126085715D02*
X104401428Y-126133334D01*
X104401428Y-126133334D02*
X104687142Y-126133334D01*
X104687142Y-126133334D02*
X104782380Y-126085715D01*
X104782380Y-126085715D02*
X104830000Y-126038096D01*
X104830000Y-126038096D02*
X104877619Y-125942858D01*
X104877619Y-125942858D02*
X104877619Y-125800001D01*
X104830000Y-126514287D02*
X104877619Y-126657144D01*
X104877619Y-126657144D02*
X104877619Y-126895239D01*
X104877619Y-126895239D02*
X104830000Y-126990477D01*
X104830000Y-126990477D02*
X104782380Y-127038096D01*
X104782380Y-127038096D02*
X104687142Y-127085715D01*
X104687142Y-127085715D02*
X104591904Y-127085715D01*
X104591904Y-127085715D02*
X104496666Y-127038096D01*
X104496666Y-127038096D02*
X104449047Y-126990477D01*
X104449047Y-126990477D02*
X104401428Y-126895239D01*
X104401428Y-126895239D02*
X104353809Y-126704763D01*
X104353809Y-126704763D02*
X104306190Y-126609525D01*
X104306190Y-126609525D02*
X104258571Y-126561906D01*
X104258571Y-126561906D02*
X104163333Y-126514287D01*
X104163333Y-126514287D02*
X104068095Y-126514287D01*
X104068095Y-126514287D02*
X103972857Y-126561906D01*
X103972857Y-126561906D02*
X103925238Y-126609525D01*
X103925238Y-126609525D02*
X103877619Y-126704763D01*
X103877619Y-126704763D02*
X103877619Y-126942858D01*
X103877619Y-126942858D02*
X103925238Y-127085715D01*
X104877619Y-127942858D02*
X104353809Y-127942858D01*
X104353809Y-127942858D02*
X104258571Y-127895239D01*
X104258571Y-127895239D02*
X104210952Y-127800001D01*
X104210952Y-127800001D02*
X104210952Y-127609525D01*
X104210952Y-127609525D02*
X104258571Y-127514287D01*
X104830000Y-127942858D02*
X104877619Y-127847620D01*
X104877619Y-127847620D02*
X104877619Y-127609525D01*
X104877619Y-127609525D02*
X104830000Y-127514287D01*
X104830000Y-127514287D02*
X104734761Y-127466668D01*
X104734761Y-127466668D02*
X104639523Y-127466668D01*
X104639523Y-127466668D02*
X104544285Y-127514287D01*
X104544285Y-127514287D02*
X104496666Y-127609525D01*
X104496666Y-127609525D02*
X104496666Y-127847620D01*
X104496666Y-127847620D02*
X104449047Y-127942858D01*
X104210952Y-128276192D02*
X104210952Y-128657144D01*
X103877619Y-128419049D02*
X104734761Y-128419049D01*
X104734761Y-128419049D02*
X104830000Y-128466668D01*
X104830000Y-128466668D02*
X104877619Y-128561906D01*
X104877619Y-128561906D02*
X104877619Y-128657144D01*
X104877619Y-129752383D02*
X103877619Y-129752383D01*
X104210952Y-130228573D02*
X104877619Y-130228573D01*
X104306190Y-130228573D02*
X104258571Y-130276192D01*
X104258571Y-130276192D02*
X104210952Y-130371430D01*
X104210952Y-130371430D02*
X104210952Y-130514287D01*
X104210952Y-130514287D02*
X104258571Y-130609525D01*
X104258571Y-130609525D02*
X104353809Y-130657144D01*
X104353809Y-130657144D02*
X104877619Y-130657144D01*
X104210952Y-130990478D02*
X104210952Y-131371430D01*
X103877619Y-131133335D02*
X104734761Y-131133335D01*
X104734761Y-131133335D02*
X104830000Y-131180954D01*
X104830000Y-131180954D02*
X104877619Y-131276192D01*
X104877619Y-131276192D02*
X104877619Y-131371430D01*
X104877619Y-131704764D02*
X104210952Y-131704764D01*
X103877619Y-131704764D02*
X103925238Y-131657145D01*
X103925238Y-131657145D02*
X103972857Y-131704764D01*
X103972857Y-131704764D02*
X103925238Y-131752383D01*
X103925238Y-131752383D02*
X103877619Y-131704764D01*
X103877619Y-131704764D02*
X103972857Y-131704764D01*
X104877619Y-132609525D02*
X104353809Y-132609525D01*
X104353809Y-132609525D02*
X104258571Y-132561906D01*
X104258571Y-132561906D02*
X104210952Y-132466668D01*
X104210952Y-132466668D02*
X104210952Y-132276192D01*
X104210952Y-132276192D02*
X104258571Y-132180954D01*
X104830000Y-132609525D02*
X104877619Y-132514287D01*
X104877619Y-132514287D02*
X104877619Y-132276192D01*
X104877619Y-132276192D02*
X104830000Y-132180954D01*
X104830000Y-132180954D02*
X104734761Y-132133335D01*
X104734761Y-132133335D02*
X104639523Y-132133335D01*
X104639523Y-132133335D02*
X104544285Y-132180954D01*
X104544285Y-132180954D02*
X104496666Y-132276192D01*
X104496666Y-132276192D02*
X104496666Y-132514287D01*
X104496666Y-132514287D02*
X104449047Y-132609525D01*
X104210952Y-132942859D02*
X104210952Y-133323811D01*
X103877619Y-133085716D02*
X104734761Y-133085716D01*
X104734761Y-133085716D02*
X104830000Y-133133335D01*
X104830000Y-133133335D02*
X104877619Y-133228573D01*
X104877619Y-133228573D02*
X104877619Y-133323811D01*
X104877619Y-133657145D02*
X104210952Y-133657145D01*
X103877619Y-133657145D02*
X103925238Y-133609526D01*
X103925238Y-133609526D02*
X103972857Y-133657145D01*
X103972857Y-133657145D02*
X103925238Y-133704764D01*
X103925238Y-133704764D02*
X103877619Y-133657145D01*
X103877619Y-133657145D02*
X103972857Y-133657145D01*
X104210952Y-134038097D02*
X104877619Y-134276192D01*
X104877619Y-134276192D02*
X104210952Y-134514287D01*
X104830000Y-135276192D02*
X104877619Y-135180954D01*
X104877619Y-135180954D02*
X104877619Y-134990478D01*
X104877619Y-134990478D02*
X104830000Y-134895240D01*
X104830000Y-134895240D02*
X104734761Y-134847621D01*
X104734761Y-134847621D02*
X104353809Y-134847621D01*
X104353809Y-134847621D02*
X104258571Y-134895240D01*
X104258571Y-134895240D02*
X104210952Y-134990478D01*
X104210952Y-134990478D02*
X104210952Y-135180954D01*
X104210952Y-135180954D02*
X104258571Y-135276192D01*
X104258571Y-135276192D02*
X104353809Y-135323811D01*
X104353809Y-135323811D02*
X104449047Y-135323811D01*
X104449047Y-135323811D02*
X104544285Y-134847621D01*
X132467380Y-125757142D02*
X132515000Y-125709523D01*
X132515000Y-125709523D02*
X132562619Y-125566666D01*
X132562619Y-125566666D02*
X132562619Y-125471428D01*
X132562619Y-125471428D02*
X132515000Y-125328571D01*
X132515000Y-125328571D02*
X132419761Y-125233333D01*
X132419761Y-125233333D02*
X132324523Y-125185714D01*
X132324523Y-125185714D02*
X132134047Y-125138095D01*
X132134047Y-125138095D02*
X131991190Y-125138095D01*
X131991190Y-125138095D02*
X131800714Y-125185714D01*
X131800714Y-125185714D02*
X131705476Y-125233333D01*
X131705476Y-125233333D02*
X131610238Y-125328571D01*
X131610238Y-125328571D02*
X131562619Y-125471428D01*
X131562619Y-125471428D02*
X131562619Y-125566666D01*
X131562619Y-125566666D02*
X131610238Y-125709523D01*
X131610238Y-125709523D02*
X131657857Y-125757142D01*
X132562619Y-126709523D02*
X132562619Y-126138095D01*
X132562619Y-126423809D02*
X131562619Y-126423809D01*
X131562619Y-126423809D02*
X131705476Y-126328571D01*
X131705476Y-126328571D02*
X131800714Y-126233333D01*
X131800714Y-126233333D02*
X131848333Y-126138095D01*
X131562619Y-127328571D02*
X131562619Y-127423809D01*
X131562619Y-127423809D02*
X131610238Y-127519047D01*
X131610238Y-127519047D02*
X131657857Y-127566666D01*
X131657857Y-127566666D02*
X131753095Y-127614285D01*
X131753095Y-127614285D02*
X131943571Y-127661904D01*
X131943571Y-127661904D02*
X132181666Y-127661904D01*
X132181666Y-127661904D02*
X132372142Y-127614285D01*
X132372142Y-127614285D02*
X132467380Y-127566666D01*
X132467380Y-127566666D02*
X132515000Y-127519047D01*
X132515000Y-127519047D02*
X132562619Y-127423809D01*
X132562619Y-127423809D02*
X132562619Y-127328571D01*
X132562619Y-127328571D02*
X132515000Y-127233333D01*
X132515000Y-127233333D02*
X132467380Y-127185714D01*
X132467380Y-127185714D02*
X132372142Y-127138095D01*
X132372142Y-127138095D02*
X132181666Y-127090476D01*
X132181666Y-127090476D02*
X131943571Y-127090476D01*
X131943571Y-127090476D02*
X131753095Y-127138095D01*
X131753095Y-127138095D02*
X131657857Y-127185714D01*
X131657857Y-127185714D02*
X131610238Y-127233333D01*
X131610238Y-127233333D02*
X131562619Y-127328571D01*
X138476666Y-117662619D02*
X138809999Y-117186428D01*
X139048094Y-117662619D02*
X139048094Y-116662619D01*
X139048094Y-116662619D02*
X138667142Y-116662619D01*
X138667142Y-116662619D02*
X138571904Y-116710238D01*
X138571904Y-116710238D02*
X138524285Y-116757857D01*
X138524285Y-116757857D02*
X138476666Y-116853095D01*
X138476666Y-116853095D02*
X138476666Y-116995952D01*
X138476666Y-116995952D02*
X138524285Y-117091190D01*
X138524285Y-117091190D02*
X138571904Y-117138809D01*
X138571904Y-117138809D02*
X138667142Y-117186428D01*
X138667142Y-117186428D02*
X139048094Y-117186428D01*
X137524285Y-117662619D02*
X138095713Y-117662619D01*
X137809999Y-117662619D02*
X137809999Y-116662619D01*
X137809999Y-116662619D02*
X137905237Y-116805476D01*
X137905237Y-116805476D02*
X138000475Y-116900714D01*
X138000475Y-116900714D02*
X138095713Y-116948333D01*
X141033333Y-107762619D02*
X141033333Y-108476904D01*
X141033333Y-108476904D02*
X141080952Y-108619761D01*
X141080952Y-108619761D02*
X141176190Y-108715000D01*
X141176190Y-108715000D02*
X141319047Y-108762619D01*
X141319047Y-108762619D02*
X141414285Y-108762619D01*
X140033333Y-108762619D02*
X140604761Y-108762619D01*
X140319047Y-108762619D02*
X140319047Y-107762619D01*
X140319047Y-107762619D02*
X140414285Y-107905476D01*
X140414285Y-107905476D02*
X140509523Y-108000714D01*
X140509523Y-108000714D02*
X140604761Y-108048333D01*
X138067380Y-109933333D02*
X138115000Y-109885714D01*
X138115000Y-109885714D02*
X138162619Y-109742857D01*
X138162619Y-109742857D02*
X138162619Y-109647619D01*
X138162619Y-109647619D02*
X138115000Y-109504762D01*
X138115000Y-109504762D02*
X138019761Y-109409524D01*
X138019761Y-109409524D02*
X137924523Y-109361905D01*
X137924523Y-109361905D02*
X137734047Y-109314286D01*
X137734047Y-109314286D02*
X137591190Y-109314286D01*
X137591190Y-109314286D02*
X137400714Y-109361905D01*
X137400714Y-109361905D02*
X137305476Y-109409524D01*
X137305476Y-109409524D02*
X137210238Y-109504762D01*
X137210238Y-109504762D02*
X137162619Y-109647619D01*
X137162619Y-109647619D02*
X137162619Y-109742857D01*
X137162619Y-109742857D02*
X137210238Y-109885714D01*
X137210238Y-109885714D02*
X137257857Y-109933333D01*
X137495952Y-110790476D02*
X138162619Y-110790476D01*
X137115000Y-110552381D02*
X137829285Y-110314286D01*
X137829285Y-110314286D02*
X137829285Y-110933333D01*
X135166666Y-126067380D02*
X135214285Y-126115000D01*
X135214285Y-126115000D02*
X135357142Y-126162619D01*
X135357142Y-126162619D02*
X135452380Y-126162619D01*
X135452380Y-126162619D02*
X135595237Y-126115000D01*
X135595237Y-126115000D02*
X135690475Y-126019761D01*
X135690475Y-126019761D02*
X135738094Y-125924523D01*
X135738094Y-125924523D02*
X135785713Y-125734047D01*
X135785713Y-125734047D02*
X135785713Y-125591190D01*
X135785713Y-125591190D02*
X135738094Y-125400714D01*
X135738094Y-125400714D02*
X135690475Y-125305476D01*
X135690475Y-125305476D02*
X135595237Y-125210238D01*
X135595237Y-125210238D02*
X135452380Y-125162619D01*
X135452380Y-125162619D02*
X135357142Y-125162619D01*
X135357142Y-125162619D02*
X135214285Y-125210238D01*
X135214285Y-125210238D02*
X135166666Y-125257857D01*
X134833332Y-125162619D02*
X134166666Y-125162619D01*
X134166666Y-125162619D02*
X134595237Y-126162619D01*
D11*
X145911666Y-119887526D02*
X146516428Y-119887526D01*
X146516428Y-119887526D02*
X146516428Y-118617526D01*
X144823094Y-119887526D02*
X145548809Y-119887526D01*
X145185952Y-119887526D02*
X145185952Y-118617526D01*
X145185952Y-118617526D02*
X145306904Y-118798954D01*
X145306904Y-118798954D02*
X145427856Y-118919907D01*
X145427856Y-118919907D02*
X145548809Y-118980383D01*
D10*
X135467380Y-109933333D02*
X135515000Y-109885714D01*
X135515000Y-109885714D02*
X135562619Y-109742857D01*
X135562619Y-109742857D02*
X135562619Y-109647619D01*
X135562619Y-109647619D02*
X135515000Y-109504762D01*
X135515000Y-109504762D02*
X135419761Y-109409524D01*
X135419761Y-109409524D02*
X135324523Y-109361905D01*
X135324523Y-109361905D02*
X135134047Y-109314286D01*
X135134047Y-109314286D02*
X134991190Y-109314286D01*
X134991190Y-109314286D02*
X134800714Y-109361905D01*
X134800714Y-109361905D02*
X134705476Y-109409524D01*
X134705476Y-109409524D02*
X134610238Y-109504762D01*
X134610238Y-109504762D02*
X134562619Y-109647619D01*
X134562619Y-109647619D02*
X134562619Y-109742857D01*
X134562619Y-109742857D02*
X134610238Y-109885714D01*
X134610238Y-109885714D02*
X134657857Y-109933333D01*
X135562619Y-110885714D02*
X135562619Y-110314286D01*
X135562619Y-110600000D02*
X134562619Y-110600000D01*
X134562619Y-110600000D02*
X134705476Y-110504762D01*
X134705476Y-110504762D02*
X134800714Y-110409524D01*
X134800714Y-110409524D02*
X134848333Y-110314286D01*
X139366666Y-123962619D02*
X139699999Y-123486428D01*
X139938094Y-123962619D02*
X139938094Y-122962619D01*
X139938094Y-122962619D02*
X139557142Y-122962619D01*
X139557142Y-122962619D02*
X139461904Y-123010238D01*
X139461904Y-123010238D02*
X139414285Y-123057857D01*
X139414285Y-123057857D02*
X139366666Y-123153095D01*
X139366666Y-123153095D02*
X139366666Y-123295952D01*
X139366666Y-123295952D02*
X139414285Y-123391190D01*
X139414285Y-123391190D02*
X139461904Y-123438809D01*
X139461904Y-123438809D02*
X139557142Y-123486428D01*
X139557142Y-123486428D02*
X139938094Y-123486428D01*
X138985713Y-123057857D02*
X138938094Y-123010238D01*
X138938094Y-123010238D02*
X138842856Y-122962619D01*
X138842856Y-122962619D02*
X138604761Y-122962619D01*
X138604761Y-122962619D02*
X138509523Y-123010238D01*
X138509523Y-123010238D02*
X138461904Y-123057857D01*
X138461904Y-123057857D02*
X138414285Y-123153095D01*
X138414285Y-123153095D02*
X138414285Y-123248333D01*
X138414285Y-123248333D02*
X138461904Y-123391190D01*
X138461904Y-123391190D02*
X139033332Y-123962619D01*
X139033332Y-123962619D02*
X138414285Y-123962619D01*
X143366666Y-126167380D02*
X143414285Y-126215000D01*
X143414285Y-126215000D02*
X143557142Y-126262619D01*
X143557142Y-126262619D02*
X143652380Y-126262619D01*
X143652380Y-126262619D02*
X143795237Y-126215000D01*
X143795237Y-126215000D02*
X143890475Y-126119761D01*
X143890475Y-126119761D02*
X143938094Y-126024523D01*
X143938094Y-126024523D02*
X143985713Y-125834047D01*
X143985713Y-125834047D02*
X143985713Y-125691190D01*
X143985713Y-125691190D02*
X143938094Y-125500714D01*
X143938094Y-125500714D02*
X143890475Y-125405476D01*
X143890475Y-125405476D02*
X143795237Y-125310238D01*
X143795237Y-125310238D02*
X143652380Y-125262619D01*
X143652380Y-125262619D02*
X143557142Y-125262619D01*
X143557142Y-125262619D02*
X143414285Y-125310238D01*
X143414285Y-125310238D02*
X143366666Y-125357857D01*
X143033332Y-125262619D02*
X142414285Y-125262619D01*
X142414285Y-125262619D02*
X142747618Y-125643571D01*
X142747618Y-125643571D02*
X142604761Y-125643571D01*
X142604761Y-125643571D02*
X142509523Y-125691190D01*
X142509523Y-125691190D02*
X142461904Y-125738809D01*
X142461904Y-125738809D02*
X142414285Y-125834047D01*
X142414285Y-125834047D02*
X142414285Y-126072142D01*
X142414285Y-126072142D02*
X142461904Y-126167380D01*
X142461904Y-126167380D02*
X142509523Y-126215000D01*
X142509523Y-126215000D02*
X142604761Y-126262619D01*
X142604761Y-126262619D02*
X142890475Y-126262619D01*
X142890475Y-126262619D02*
X142985713Y-126215000D01*
X142985713Y-126215000D02*
X143033332Y-126167380D01*
X139366666Y-125067380D02*
X139414285Y-125115000D01*
X139414285Y-125115000D02*
X139557142Y-125162619D01*
X139557142Y-125162619D02*
X139652380Y-125162619D01*
X139652380Y-125162619D02*
X139795237Y-125115000D01*
X139795237Y-125115000D02*
X139890475Y-125019761D01*
X139890475Y-125019761D02*
X139938094Y-124924523D01*
X139938094Y-124924523D02*
X139985713Y-124734047D01*
X139985713Y-124734047D02*
X139985713Y-124591190D01*
X139985713Y-124591190D02*
X139938094Y-124400714D01*
X139938094Y-124400714D02*
X139890475Y-124305476D01*
X139890475Y-124305476D02*
X139795237Y-124210238D01*
X139795237Y-124210238D02*
X139652380Y-124162619D01*
X139652380Y-124162619D02*
X139557142Y-124162619D01*
X139557142Y-124162619D02*
X139414285Y-124210238D01*
X139414285Y-124210238D02*
X139366666Y-124257857D01*
X138461904Y-124162619D02*
X138938094Y-124162619D01*
X138938094Y-124162619D02*
X138985713Y-124638809D01*
X138985713Y-124638809D02*
X138938094Y-124591190D01*
X138938094Y-124591190D02*
X138842856Y-124543571D01*
X138842856Y-124543571D02*
X138604761Y-124543571D01*
X138604761Y-124543571D02*
X138509523Y-124591190D01*
X138509523Y-124591190D02*
X138461904Y-124638809D01*
X138461904Y-124638809D02*
X138414285Y-124734047D01*
X138414285Y-124734047D02*
X138414285Y-124972142D01*
X138414285Y-124972142D02*
X138461904Y-125067380D01*
X138461904Y-125067380D02*
X138509523Y-125115000D01*
X138509523Y-125115000D02*
X138604761Y-125162619D01*
X138604761Y-125162619D02*
X138842856Y-125162619D01*
X138842856Y-125162619D02*
X138938094Y-125115000D01*
X138938094Y-125115000D02*
X138985713Y-125067380D01*
X130666666Y-117367380D02*
X130714285Y-117415000D01*
X130714285Y-117415000D02*
X130857142Y-117462619D01*
X130857142Y-117462619D02*
X130952380Y-117462619D01*
X130952380Y-117462619D02*
X131095237Y-117415000D01*
X131095237Y-117415000D02*
X131190475Y-117319761D01*
X131190475Y-117319761D02*
X131238094Y-117224523D01*
X131238094Y-117224523D02*
X131285713Y-117034047D01*
X131285713Y-117034047D02*
X131285713Y-116891190D01*
X131285713Y-116891190D02*
X131238094Y-116700714D01*
X131238094Y-116700714D02*
X131190475Y-116605476D01*
X131190475Y-116605476D02*
X131095237Y-116510238D01*
X131095237Y-116510238D02*
X130952380Y-116462619D01*
X130952380Y-116462619D02*
X130857142Y-116462619D01*
X130857142Y-116462619D02*
X130714285Y-116510238D01*
X130714285Y-116510238D02*
X130666666Y-116557857D01*
X130095237Y-116891190D02*
X130190475Y-116843571D01*
X130190475Y-116843571D02*
X130238094Y-116795952D01*
X130238094Y-116795952D02*
X130285713Y-116700714D01*
X130285713Y-116700714D02*
X130285713Y-116653095D01*
X130285713Y-116653095D02*
X130238094Y-116557857D01*
X130238094Y-116557857D02*
X130190475Y-116510238D01*
X130190475Y-116510238D02*
X130095237Y-116462619D01*
X130095237Y-116462619D02*
X129904761Y-116462619D01*
X129904761Y-116462619D02*
X129809523Y-116510238D01*
X129809523Y-116510238D02*
X129761904Y-116557857D01*
X129761904Y-116557857D02*
X129714285Y-116653095D01*
X129714285Y-116653095D02*
X129714285Y-116700714D01*
X129714285Y-116700714D02*
X129761904Y-116795952D01*
X129761904Y-116795952D02*
X129809523Y-116843571D01*
X129809523Y-116843571D02*
X129904761Y-116891190D01*
X129904761Y-116891190D02*
X130095237Y-116891190D01*
X130095237Y-116891190D02*
X130190475Y-116938809D01*
X130190475Y-116938809D02*
X130238094Y-116986428D01*
X130238094Y-116986428D02*
X130285713Y-117081666D01*
X130285713Y-117081666D02*
X130285713Y-117272142D01*
X130285713Y-117272142D02*
X130238094Y-117367380D01*
X130238094Y-117367380D02*
X130190475Y-117415000D01*
X130190475Y-117415000D02*
X130095237Y-117462619D01*
X130095237Y-117462619D02*
X129904761Y-117462619D01*
X129904761Y-117462619D02*
X129809523Y-117415000D01*
X129809523Y-117415000D02*
X129761904Y-117367380D01*
X129761904Y-117367380D02*
X129714285Y-117272142D01*
X129714285Y-117272142D02*
X129714285Y-117081666D01*
X129714285Y-117081666D02*
X129761904Y-116986428D01*
X129761904Y-116986428D02*
X129809523Y-116938809D01*
X129809523Y-116938809D02*
X129904761Y-116891190D01*
X136767380Y-109933333D02*
X136815000Y-109885714D01*
X136815000Y-109885714D02*
X136862619Y-109742857D01*
X136862619Y-109742857D02*
X136862619Y-109647619D01*
X136862619Y-109647619D02*
X136815000Y-109504762D01*
X136815000Y-109504762D02*
X136719761Y-109409524D01*
X136719761Y-109409524D02*
X136624523Y-109361905D01*
X136624523Y-109361905D02*
X136434047Y-109314286D01*
X136434047Y-109314286D02*
X136291190Y-109314286D01*
X136291190Y-109314286D02*
X136100714Y-109361905D01*
X136100714Y-109361905D02*
X136005476Y-109409524D01*
X136005476Y-109409524D02*
X135910238Y-109504762D01*
X135910238Y-109504762D02*
X135862619Y-109647619D01*
X135862619Y-109647619D02*
X135862619Y-109742857D01*
X135862619Y-109742857D02*
X135910238Y-109885714D01*
X135910238Y-109885714D02*
X135957857Y-109933333D01*
X135957857Y-110314286D02*
X135910238Y-110361905D01*
X135910238Y-110361905D02*
X135862619Y-110457143D01*
X135862619Y-110457143D02*
X135862619Y-110695238D01*
X135862619Y-110695238D02*
X135910238Y-110790476D01*
X135910238Y-110790476D02*
X135957857Y-110838095D01*
X135957857Y-110838095D02*
X136053095Y-110885714D01*
X136053095Y-110885714D02*
X136148333Y-110885714D01*
X136148333Y-110885714D02*
X136291190Y-110838095D01*
X136291190Y-110838095D02*
X136862619Y-110266667D01*
X136862619Y-110266667D02*
X136862619Y-110885714D01*
D11*
X137239762Y-117387526D02*
X137239762Y-116117526D01*
X135909285Y-117266573D02*
X135969761Y-117327050D01*
X135969761Y-117327050D02*
X136151190Y-117387526D01*
X136151190Y-117387526D02*
X136272142Y-117387526D01*
X136272142Y-117387526D02*
X136453571Y-117327050D01*
X136453571Y-117327050D02*
X136574523Y-117206097D01*
X136574523Y-117206097D02*
X136635000Y-117085145D01*
X136635000Y-117085145D02*
X136695476Y-116843240D01*
X136695476Y-116843240D02*
X136695476Y-116661811D01*
X136695476Y-116661811D02*
X136635000Y-116419907D01*
X136635000Y-116419907D02*
X136574523Y-116298954D01*
X136574523Y-116298954D02*
X136453571Y-116178002D01*
X136453571Y-116178002D02*
X136272142Y-116117526D01*
X136272142Y-116117526D02*
X136151190Y-116117526D01*
X136151190Y-116117526D02*
X135969761Y-116178002D01*
X135969761Y-116178002D02*
X135909285Y-116238478D01*
X134699761Y-117387526D02*
X135425476Y-117387526D01*
X135062619Y-117387526D02*
X135062619Y-116117526D01*
X135062619Y-116117526D02*
X135183571Y-116298954D01*
X135183571Y-116298954D02*
X135304523Y-116419907D01*
X135304523Y-116419907D02*
X135425476Y-116480383D01*
D10*
X130666666Y-118962619D02*
X130999999Y-118486428D01*
X131238094Y-118962619D02*
X131238094Y-117962619D01*
X131238094Y-117962619D02*
X130857142Y-117962619D01*
X130857142Y-117962619D02*
X130761904Y-118010238D01*
X130761904Y-118010238D02*
X130714285Y-118057857D01*
X130714285Y-118057857D02*
X130666666Y-118153095D01*
X130666666Y-118153095D02*
X130666666Y-118295952D01*
X130666666Y-118295952D02*
X130714285Y-118391190D01*
X130714285Y-118391190D02*
X130761904Y-118438809D01*
X130761904Y-118438809D02*
X130857142Y-118486428D01*
X130857142Y-118486428D02*
X131238094Y-118486428D01*
X129809523Y-118295952D02*
X129809523Y-118962619D01*
X130047618Y-117915000D02*
X130285713Y-118629285D01*
X130285713Y-118629285D02*
X129666666Y-118629285D01*
X131262619Y-125933333D02*
X130786428Y-125600000D01*
X131262619Y-125361905D02*
X130262619Y-125361905D01*
X130262619Y-125361905D02*
X130262619Y-125742857D01*
X130262619Y-125742857D02*
X130310238Y-125838095D01*
X130310238Y-125838095D02*
X130357857Y-125885714D01*
X130357857Y-125885714D02*
X130453095Y-125933333D01*
X130453095Y-125933333D02*
X130595952Y-125933333D01*
X130595952Y-125933333D02*
X130691190Y-125885714D01*
X130691190Y-125885714D02*
X130738809Y-125838095D01*
X130738809Y-125838095D02*
X130786428Y-125742857D01*
X130786428Y-125742857D02*
X130786428Y-125361905D01*
X130262619Y-126266667D02*
X130262619Y-126885714D01*
X130262619Y-126885714D02*
X130643571Y-126552381D01*
X130643571Y-126552381D02*
X130643571Y-126695238D01*
X130643571Y-126695238D02*
X130691190Y-126790476D01*
X130691190Y-126790476D02*
X130738809Y-126838095D01*
X130738809Y-126838095D02*
X130834047Y-126885714D01*
X130834047Y-126885714D02*
X131072142Y-126885714D01*
X131072142Y-126885714D02*
X131167380Y-126838095D01*
X131167380Y-126838095D02*
X131215000Y-126790476D01*
X131215000Y-126790476D02*
X131262619Y-126695238D01*
X131262619Y-126695238D02*
X131262619Y-126409524D01*
X131262619Y-126409524D02*
X131215000Y-126314286D01*
X131215000Y-126314286D02*
X131167380Y-126266667D01*
D11*
X136301762Y-121587526D02*
X136301762Y-120317526D01*
X134971285Y-121466573D02*
X135031761Y-121527050D01*
X135031761Y-121527050D02*
X135213190Y-121587526D01*
X135213190Y-121587526D02*
X135334142Y-121587526D01*
X135334142Y-121587526D02*
X135515571Y-121527050D01*
X135515571Y-121527050D02*
X135636523Y-121406097D01*
X135636523Y-121406097D02*
X135697000Y-121285145D01*
X135697000Y-121285145D02*
X135757476Y-121043240D01*
X135757476Y-121043240D02*
X135757476Y-120861811D01*
X135757476Y-120861811D02*
X135697000Y-120619907D01*
X135697000Y-120619907D02*
X135636523Y-120498954D01*
X135636523Y-120498954D02*
X135515571Y-120378002D01*
X135515571Y-120378002D02*
X135334142Y-120317526D01*
X135334142Y-120317526D02*
X135213190Y-120317526D01*
X135213190Y-120317526D02*
X135031761Y-120378002D01*
X135031761Y-120378002D02*
X134971285Y-120438478D01*
X133882714Y-120740859D02*
X133882714Y-121587526D01*
X134185095Y-120257050D02*
X134487476Y-121164192D01*
X134487476Y-121164192D02*
X133701285Y-121164192D01*
D10*
X136762619Y-128061905D02*
X135762619Y-128061905D01*
X135762619Y-128061905D02*
X135762619Y-128300000D01*
X135762619Y-128300000D02*
X135810238Y-128442857D01*
X135810238Y-128442857D02*
X135905476Y-128538095D01*
X135905476Y-128538095D02*
X136000714Y-128585714D01*
X136000714Y-128585714D02*
X136191190Y-128633333D01*
X136191190Y-128633333D02*
X136334047Y-128633333D01*
X136334047Y-128633333D02*
X136524523Y-128585714D01*
X136524523Y-128585714D02*
X136619761Y-128538095D01*
X136619761Y-128538095D02*
X136715000Y-128442857D01*
X136715000Y-128442857D02*
X136762619Y-128300000D01*
X136762619Y-128300000D02*
X136762619Y-128061905D01*
X136762619Y-129585714D02*
X136762619Y-129014286D01*
X136762619Y-129300000D02*
X135762619Y-129300000D01*
X135762619Y-129300000D02*
X135905476Y-129204762D01*
X135905476Y-129204762D02*
X136000714Y-129109524D01*
X136000714Y-129109524D02*
X136048333Y-129014286D01*
D12*
X132460000Y-123872164D02*
X132460000Y-124087836D01*
X131740000Y-123872164D02*
X131740000Y-124087836D01*
X122200000Y-106250000D02*
X120200000Y-106250000D01*
X120200000Y-106250000D02*
X120200000Y-109050000D01*
X122200000Y-109050000D02*
X122200000Y-106250000D01*
X120200000Y-109050000D02*
X122200000Y-109050000D01*
X145100000Y-114600000D02*
G75*
G03*
X145100000Y-114600000I-1200000J0D01*
G01*
X145800000Y-111200000D02*
G75*
G03*
X145800000Y-111200000I-1200000J0D01*
G01*
X138156359Y-118120000D02*
X138463641Y-118120000D01*
X138156359Y-118880000D02*
X138463641Y-118880000D01*
D13*
X133310000Y-106515000D02*
X133310000Y-103085000D01*
X139830000Y-103085000D02*
X139830000Y-106515000D01*
X132880000Y-102765000D02*
G75*
G03*
X132880000Y-102765000I-100000J0D01*
G01*
D12*
X138060000Y-112012164D02*
X138060000Y-112227836D01*
X137340000Y-112012164D02*
X137340000Y-112227836D01*
X137107836Y-126060000D02*
X136892164Y-126060000D01*
X137107836Y-125340000D02*
X136892164Y-125340000D01*
X127200000Y-106250000D02*
X125200000Y-106250000D01*
X125200000Y-106250000D02*
X125200000Y-109050000D01*
X127200000Y-109050000D02*
X127200000Y-106250000D01*
X125200000Y-109050000D02*
X127200000Y-109050000D01*
D13*
X142000000Y-119000000D02*
X142800000Y-119000000D01*
X142000000Y-123000000D02*
X142800000Y-123000000D01*
D12*
X135340000Y-112227836D02*
X135340000Y-112012164D01*
X136060000Y-112227836D02*
X136060000Y-112012164D01*
X137163641Y-123880000D02*
X136856359Y-123880000D01*
X137163641Y-123120000D02*
X136856359Y-123120000D01*
X129700000Y-106250000D02*
X127700000Y-106250000D01*
X127700000Y-106250000D02*
X127700000Y-109050000D01*
X129700000Y-109050000D02*
X129700000Y-106250000D01*
X127700000Y-109050000D02*
X129700000Y-109050000D01*
X143307836Y-124960000D02*
X143092164Y-124960000D01*
X143307836Y-124240000D02*
X143092164Y-124240000D01*
X137107836Y-124960000D02*
X136892164Y-124960000D01*
X137107836Y-124240000D02*
X136892164Y-124240000D01*
X132392164Y-116640000D02*
X132607836Y-116640000D01*
X132392164Y-117360000D02*
X132607836Y-117360000D01*
X136340000Y-112227836D02*
X136340000Y-112012164D01*
X137060000Y-112227836D02*
X137060000Y-112012164D01*
D14*
X138225000Y-113112500D02*
G75*
G03*
X138225000Y-113112500I-125000J0D01*
G01*
D12*
X132653641Y-118880000D02*
X132346359Y-118880000D01*
X132653641Y-118120000D02*
X132346359Y-118120000D01*
X131380000Y-123846359D02*
X131380000Y-124153641D01*
X130620000Y-123846359D02*
X130620000Y-124153641D01*
X124700000Y-106250000D02*
X122700000Y-106250000D01*
X122700000Y-106250000D02*
X122700000Y-109050000D01*
X124700000Y-109050000D02*
X124700000Y-106250000D01*
X122700000Y-109050000D02*
X124700000Y-109050000D01*
D13*
X138737000Y-119450000D02*
X137262000Y-119450000D01*
X136912000Y-122500000D02*
X136912000Y-119500000D01*
X136912000Y-119500000D02*
X133212000Y-119500000D01*
X133212000Y-122500000D02*
X136912000Y-122500000D01*
X133212000Y-119500000D02*
X133212000Y-122500000D01*
D12*
X139300000Y-126440000D02*
X139300000Y-130450000D01*
X137300000Y-126440000D02*
X139300000Y-126440000D01*
X137300000Y-126440000D02*
X137300000Y-130450000D01*
%LPC*%
D15*
X132100000Y-123500000D03*
X132100000Y-124460000D03*
D16*
X121200000Y-107000000D03*
X121200000Y-108300000D03*
D17*
X143900000Y-114600000D03*
X144600000Y-111200000D03*
D18*
X137800000Y-118500000D03*
X138820000Y-118500000D03*
D19*
X134030000Y-102765000D03*
X134030000Y-106835000D03*
X135300000Y-102765000D03*
X135300000Y-106835000D03*
X136570000Y-102765000D03*
X136570000Y-106835000D03*
X137840000Y-102765000D03*
X137840000Y-106835000D03*
X139110000Y-102765000D03*
X139110000Y-106835000D03*
D15*
X137700000Y-111640000D03*
X137700000Y-112600000D03*
D20*
X137480000Y-125700000D03*
X136520000Y-125700000D03*
D16*
X126200000Y-107000000D03*
X126200000Y-108300000D03*
D21*
X141000000Y-121000000D03*
X143800000Y-121000000D03*
D22*
X135700000Y-112600000D03*
X135700000Y-111640000D03*
D23*
X137520000Y-123500000D03*
X136500000Y-123500000D03*
D16*
X128700000Y-107000000D03*
X128700000Y-108300000D03*
D20*
X143680000Y-124600000D03*
X142720000Y-124600000D03*
X137480000Y-124600000D03*
X136520000Y-124600000D03*
D24*
X132020000Y-117000000D03*
X132980000Y-117000000D03*
D22*
X136700000Y-112600000D03*
X136700000Y-111640000D03*
D25*
X137750000Y-113762500D03*
X137750000Y-114262500D03*
X137750000Y-114762500D03*
X137750000Y-115262500D03*
X135650000Y-115262500D03*
X135650000Y-114762500D03*
X135650000Y-114262500D03*
X135650000Y-113762500D03*
D26*
X136700000Y-114512500D03*
D23*
X133010000Y-118500000D03*
X131990000Y-118500000D03*
D27*
X131000000Y-123490000D03*
X131000000Y-124510000D03*
D16*
X123700000Y-107000000D03*
X123700000Y-108300000D03*
D28*
X138000000Y-120025000D03*
X138000000Y-120675000D03*
X138000000Y-121325000D03*
X138000000Y-121975000D03*
X132124000Y-121975000D03*
X132124000Y-121325000D03*
X132124000Y-120675000D03*
X132124000Y-120025000D03*
D29*
X138300000Y-127150000D03*
X138300000Y-130450000D03*
%LPD*%
M02*
