G04 #@! TF.GenerationSoftware,KiCad,Pcbnew,7.0.2*
G04 #@! TF.CreationDate,2023-07-30T22:18:18-04:00*
G04 #@! TF.ProjectId,TopExternalFaceRev1,546f7045-7874-4657-926e-616c46616365,rev?*
G04 #@! TF.SameCoordinates,Original*
G04 #@! TF.FileFunction,Copper,L4,Bot*
G04 #@! TF.FilePolarity,Positive*
%FSLAX46Y46*%
G04 Gerber Fmt 4.6, Leading zero omitted, Abs format (unit mm)*
G04 Created by KiCad (PCBNEW 7.0.2) date 2023-07-30 22:18:18*
%MOMM*%
%LPD*%
G01*
G04 APERTURE LIST*
G04 Aperture macros list*
%AMRoundRect*
0 Rectangle with rounded corners*
0 $1 Rounding radius*
0 $2 $3 $4 $5 $6 $7 $8 $9 X,Y pos of 4 corners*
0 Add a 4 corners polygon primitive as box body*
4,1,4,$2,$3,$4,$5,$6,$7,$8,$9,$2,$3,0*
0 Add four circle primitives for the rounded corners*
1,1,$1+$1,$2,$3*
1,1,$1+$1,$4,$5*
1,1,$1+$1,$6,$7*
1,1,$1+$1,$8,$9*
0 Add four rect primitives between the rounded corners*
20,1,$1+$1,$2,$3,$4,$5,0*
20,1,$1+$1,$4,$5,$6,$7,0*
20,1,$1+$1,$6,$7,$8,$9,0*
20,1,$1+$1,$8,$9,$2,$3,0*%
G04 Aperture macros list end*
G04 #@! TA.AperFunction,SMDPad,CuDef*
%ADD10RoundRect,0.140000X-0.170000X0.140000X-0.170000X-0.140000X0.170000X-0.140000X0.170000X0.140000X0*%
G04 #@! TD*
G04 #@! TA.AperFunction,SMDPad,CuDef*
%ADD11R,1.500000X1.000000*%
G04 #@! TD*
G04 #@! TA.AperFunction,SMDPad,CuDef*
%ADD12C,2.000000*%
G04 #@! TD*
G04 #@! TA.AperFunction,SMDPad,CuDef*
%ADD13RoundRect,0.135000X-0.135000X-0.185000X0.135000X-0.185000X0.135000X0.185000X-0.135000X0.185000X0*%
G04 #@! TD*
G04 #@! TA.AperFunction,SMDPad,CuDef*
%ADD14R,0.740000X2.790000*%
G04 #@! TD*
G04 #@! TA.AperFunction,SMDPad,CuDef*
%ADD15RoundRect,0.140000X0.140000X0.170000X-0.140000X0.170000X-0.140000X-0.170000X0.140000X-0.170000X0*%
G04 #@! TD*
G04 #@! TA.AperFunction,SMDPad,CuDef*
%ADD16R,1.200000X3.700000*%
G04 #@! TD*
G04 #@! TA.AperFunction,SMDPad,CuDef*
%ADD17RoundRect,0.140000X0.170000X-0.140000X0.170000X0.140000X-0.170000X0.140000X-0.170000X-0.140000X0*%
G04 #@! TD*
G04 #@! TA.AperFunction,SMDPad,CuDef*
%ADD18RoundRect,0.135000X0.135000X0.185000X-0.135000X0.185000X-0.135000X-0.185000X0.135000X-0.185000X0*%
G04 #@! TD*
G04 #@! TA.AperFunction,SMDPad,CuDef*
%ADD19RoundRect,0.140000X-0.140000X-0.170000X0.140000X-0.170000X0.140000X0.170000X-0.140000X0.170000X0*%
G04 #@! TD*
G04 #@! TA.AperFunction,SMDPad,CuDef*
%ADD20R,0.700000X0.300000*%
G04 #@! TD*
G04 #@! TA.AperFunction,SMDPad,CuDef*
%ADD21R,1.000000X1.700000*%
G04 #@! TD*
G04 #@! TA.AperFunction,SMDPad,CuDef*
%ADD22RoundRect,0.135000X-0.185000X0.135000X-0.185000X-0.135000X0.185000X-0.135000X0.185000X0.135000X0*%
G04 #@! TD*
G04 #@! TA.AperFunction,SMDPad,CuDef*
%ADD23R,1.475000X0.450000*%
G04 #@! TD*
G04 #@! TA.AperFunction,SMDPad,CuDef*
%ADD24RoundRect,0.225000X-0.375000X0.225000X-0.375000X-0.225000X0.375000X-0.225000X0.375000X0.225000X0*%
G04 #@! TD*
G04 #@! TA.AperFunction,ViaPad*
%ADD25C,0.600000*%
G04 #@! TD*
G04 #@! TA.AperFunction,ViaPad*
%ADD26C,0.400000*%
G04 #@! TD*
G04 #@! TA.AperFunction,ViaPad*
%ADD27C,0.500000*%
G04 #@! TD*
G04 #@! TA.AperFunction,Conductor*
%ADD28C,0.200000*%
G04 #@! TD*
G04 #@! TA.AperFunction,Conductor*
%ADD29C,0.300000*%
G04 #@! TD*
G04 #@! TA.AperFunction,Conductor*
%ADD30C,1.000000*%
G04 #@! TD*
G04 #@! TA.AperFunction,Conductor*
%ADD31C,0.400000*%
G04 #@! TD*
G04 #@! TA.AperFunction,Conductor*
%ADD32C,0.130700*%
G04 #@! TD*
G04 APERTURE END LIST*
D10*
X132100000Y-123500000D03*
X132100000Y-124460000D03*
D11*
X121200000Y-107000000D03*
X121200000Y-108300000D03*
D12*
X143900000Y-114600000D03*
X144600000Y-111200000D03*
D13*
X137800000Y-118500000D03*
X138820000Y-118500000D03*
D14*
X134030000Y-102765000D03*
X134030000Y-106835000D03*
X135300000Y-102765000D03*
X135300000Y-106835000D03*
X136570000Y-102765000D03*
X136570000Y-106835000D03*
X137840000Y-102765000D03*
X137840000Y-106835000D03*
X139110000Y-102765000D03*
X139110000Y-106835000D03*
D10*
X137700000Y-111640000D03*
X137700000Y-112600000D03*
D15*
X137480000Y-125700000D03*
X136520000Y-125700000D03*
D11*
X126200000Y-107000000D03*
X126200000Y-108300000D03*
D16*
X141000000Y-121000000D03*
X143800000Y-121000000D03*
D17*
X135700000Y-112600000D03*
X135700000Y-111640000D03*
D18*
X137520000Y-123500000D03*
X136500000Y-123500000D03*
D11*
X128700000Y-107000000D03*
X128700000Y-108300000D03*
D15*
X143680000Y-124600000D03*
X142720000Y-124600000D03*
X137480000Y-124600000D03*
X136520000Y-124600000D03*
D19*
X132020000Y-117000000D03*
X132980000Y-117000000D03*
D17*
X136700000Y-112600000D03*
X136700000Y-111640000D03*
D20*
X137750000Y-113762500D03*
X137750000Y-114262500D03*
X137750000Y-114762500D03*
X137750000Y-115262500D03*
X135650000Y-115262500D03*
X135650000Y-114762500D03*
X135650000Y-114262500D03*
X135650000Y-113762500D03*
D21*
X136700000Y-114512500D03*
D18*
X133010000Y-118500000D03*
X131990000Y-118500000D03*
D22*
X131000000Y-123490000D03*
X131000000Y-124510000D03*
D11*
X123700000Y-107000000D03*
X123700000Y-108300000D03*
D23*
X138000000Y-120025000D03*
X138000000Y-120675000D03*
X138000000Y-121325000D03*
X138000000Y-121975000D03*
X132124000Y-121975000D03*
X132124000Y-121325000D03*
X132124000Y-120675000D03*
X132124000Y-120025000D03*
D24*
X138300000Y-127150000D03*
X138300000Y-130450000D03*
D25*
X131200000Y-107700000D03*
X144500000Y-127600000D03*
X109200000Y-106500000D03*
X119600000Y-109500000D03*
X109600000Y-115400000D03*
X122600000Y-122400000D03*
X122600000Y-127800000D03*
X114200000Y-103000000D03*
X147000000Y-147000000D03*
X128000000Y-127800000D03*
X147000000Y-103000000D03*
X148900000Y-108900000D03*
X103000000Y-147000000D03*
X127200000Y-123000000D03*
X113500000Y-147000000D03*
X103000000Y-103000000D03*
X146000000Y-122200000D03*
X144300000Y-109200000D03*
X143800000Y-118200000D03*
D26*
X139800000Y-106089500D03*
D27*
X141000000Y-125200000D03*
D26*
X104900000Y-108400000D03*
X143000000Y-103500000D03*
X123700000Y-108300000D03*
X138600000Y-111400000D03*
X127700000Y-122400000D03*
X139100000Y-113700000D03*
X132700000Y-105700000D03*
X134300000Y-104900000D03*
X137800000Y-105000000D03*
X128200000Y-109300000D03*
X109000000Y-108400000D03*
X128700000Y-105700000D03*
X105700000Y-105000000D03*
X126400000Y-109100000D03*
X110600000Y-108500000D03*
X136775419Y-104624581D03*
X137900000Y-109000000D03*
D27*
X142400000Y-119300000D03*
D28*
X135000000Y-111500000D02*
X135000000Y-113112500D01*
X135000000Y-113112500D02*
X135650000Y-113762500D01*
X135900000Y-110600000D02*
X135000000Y-111500000D01*
X135300000Y-104690000D02*
X135900000Y-105290000D01*
X135900000Y-105290000D02*
X135900000Y-110600000D01*
X135300000Y-102765000D02*
X135300000Y-104690000D01*
D29*
X143800000Y-124480000D02*
X143800000Y-121000000D01*
D30*
X143800000Y-118200000D02*
X143800000Y-121000000D01*
D29*
X143680000Y-124600000D02*
X143800000Y-124480000D01*
X137520000Y-123500000D02*
X137520000Y-122455000D01*
X139050000Y-127150000D02*
X141000000Y-125200000D01*
X138300000Y-127150000D02*
X138300000Y-126520000D01*
X138300000Y-127150000D02*
X139050000Y-127150000D01*
X137520000Y-122455000D02*
X138000000Y-121975000D01*
D31*
X139110000Y-106835000D02*
X139800000Y-106145000D01*
D29*
X137480000Y-125700000D02*
X137480000Y-124600000D01*
X137480000Y-123540000D02*
X137520000Y-123500000D01*
D31*
X139800000Y-106145000D02*
X139800000Y-106089500D01*
D29*
X137480000Y-124600000D02*
X137480000Y-123540000D01*
X138300000Y-126520000D02*
X137480000Y-125700000D01*
D28*
X137840000Y-102765000D02*
X137840000Y-101740000D01*
X121389398Y-110610602D02*
X123700000Y-108300000D01*
X110600000Y-107800000D02*
X113410602Y-110610602D01*
X104900000Y-108400000D02*
X105500000Y-107800000D01*
X137840000Y-101740000D02*
X138400000Y-101180000D01*
X113410602Y-110610602D02*
X121389398Y-110610602D01*
X105500000Y-107800000D02*
X110600000Y-107800000D01*
X138400000Y-101180000D02*
X140680000Y-101180000D01*
X140680000Y-101180000D02*
X143000000Y-103500000D01*
D29*
X133010000Y-118500000D02*
X133010000Y-117030000D01*
X138000000Y-118700000D02*
X137800000Y-118500000D01*
X138000000Y-120025000D02*
X138000000Y-118700000D01*
X133010000Y-117030000D02*
X132980000Y-117000000D01*
X133010000Y-118500000D02*
X137800000Y-118500000D01*
X131000000Y-123490000D02*
X132090000Y-123490000D01*
X132090000Y-123490000D02*
X132100000Y-123500000D01*
X132124000Y-121975000D02*
X132124000Y-123476000D01*
X132100000Y-123500000D02*
X136500000Y-123500000D01*
X132124000Y-123476000D02*
X132100000Y-123500000D01*
D32*
X138537500Y-114762500D02*
X139100000Y-114200000D01*
X139100000Y-111900000D02*
X139100000Y-112700000D01*
X138600000Y-111400000D02*
X138600000Y-113893200D01*
X140400000Y-114000000D02*
X141800000Y-114000000D01*
X138600000Y-111400000D02*
X139100000Y-111900000D01*
X141800000Y-114000000D02*
X144600000Y-111200000D01*
X139100000Y-113700000D02*
X140000000Y-114600000D01*
X137750000Y-114762500D02*
X138537500Y-114762500D01*
X139100000Y-112700000D02*
X140400000Y-114000000D01*
X138230700Y-114262500D02*
X137750000Y-114262500D01*
X138600000Y-113893200D02*
X138230700Y-114262500D01*
X140000000Y-114600000D02*
X143900000Y-114600000D01*
X139100000Y-114200000D02*
X139100000Y-113700000D01*
D28*
X134030000Y-106835000D02*
X134030000Y-105170000D01*
X134030000Y-105170000D02*
X134300000Y-104900000D01*
X135100000Y-115262500D02*
X135650000Y-115262500D01*
X133000000Y-113162500D02*
X135100000Y-115262500D01*
X132700000Y-105700000D02*
X133000000Y-106000000D01*
X133000000Y-106000000D02*
X133000000Y-113162500D01*
X133470000Y-112872622D02*
X133470000Y-103325000D01*
X133470000Y-103325000D02*
X134030000Y-102765000D01*
X135650000Y-114762500D02*
X135359878Y-114762500D01*
X135359878Y-114762500D02*
X133470000Y-112872622D01*
X135650000Y-114262500D02*
X135270000Y-114262500D01*
X134710499Y-113702999D02*
X134710499Y-107424501D01*
X135270000Y-114262500D02*
X134710499Y-113702999D01*
X134710499Y-107424501D02*
X135300000Y-106835000D01*
X137840000Y-106835000D02*
X137840000Y-107860000D01*
X128700000Y-108300000D02*
X125100000Y-111900000D01*
X125100000Y-111900000D02*
X113200000Y-111900000D01*
X137937500Y-106200000D02*
X137700000Y-106437500D01*
X137840000Y-105040000D02*
X137800000Y-105000000D01*
X109700000Y-108400000D02*
X109000000Y-108400000D01*
X113200000Y-111900000D02*
X109700000Y-108400000D01*
X128200000Y-109300000D02*
X128200000Y-108800000D01*
X128200000Y-108800000D02*
X128700000Y-108300000D01*
X137840000Y-106835000D02*
X137840000Y-105040000D01*
X105800000Y-105100000D02*
X105700000Y-105000000D01*
X106700000Y-107400000D02*
X105800000Y-106500000D01*
D30*
X123700000Y-107000000D02*
X126200000Y-107000000D01*
D28*
X128700000Y-105700000D02*
X128700000Y-107000000D01*
X105800000Y-106500000D02*
X105800000Y-105100000D01*
X120950000Y-107000000D02*
X118550000Y-109400000D01*
X113000000Y-109400000D02*
X111000000Y-107400000D01*
X121200000Y-107000000D02*
X120950000Y-107000000D01*
X118550000Y-109400000D02*
X113000000Y-109400000D01*
X111000000Y-107400000D02*
X106700000Y-107400000D01*
D30*
X121200000Y-107000000D02*
X123700000Y-107000000D01*
X126200000Y-107000000D02*
X128700000Y-107000000D01*
D28*
X123300000Y-111200000D02*
X126200000Y-108300000D01*
X126400000Y-109100000D02*
X126400000Y-108500000D01*
X136570000Y-102765000D02*
X136570000Y-104419162D01*
X110600000Y-108500000D02*
X113300000Y-111200000D01*
X126400000Y-108500000D02*
X126200000Y-108300000D01*
X113300000Y-111200000D02*
X123300000Y-111200000D01*
X136570000Y-104419162D02*
X136775419Y-104624581D01*
D29*
X138000000Y-121325000D02*
X140675000Y-121325000D01*
D28*
X138820000Y-118820000D02*
X141000000Y-121000000D01*
X138820000Y-118500000D02*
X138820000Y-118820000D01*
D29*
X140675000Y-121325000D02*
X141000000Y-121000000D01*
X132124000Y-118634000D02*
X131990000Y-118500000D01*
D28*
X134656690Y-117900000D02*
X133256690Y-116500000D01*
X142400000Y-119300000D02*
X141000000Y-117900000D01*
X132500000Y-116703310D02*
X132500000Y-117990000D01*
X136570000Y-107670000D02*
X137900000Y-109000000D01*
X136570000Y-106835000D02*
X136570000Y-107670000D01*
D29*
X132124000Y-120025000D02*
X132124000Y-118634000D01*
D28*
X132500000Y-117990000D02*
X131990000Y-118500000D01*
X133256690Y-116500000D02*
X132703310Y-116500000D01*
X132703310Y-116500000D02*
X132500000Y-116703310D01*
X141000000Y-117900000D02*
X134656690Y-117900000D01*
G04 #@! TA.AperFunction,Conductor*
G36*
X122708691Y-107719407D02*
G01*
X122744655Y-107768907D01*
X122749500Y-107799500D01*
X122749500Y-108784520D01*
X122730593Y-108842711D01*
X122720504Y-108854524D01*
X121293923Y-110281106D01*
X121239406Y-110308883D01*
X121223919Y-110310102D01*
X113576082Y-110310102D01*
X113517891Y-110291195D01*
X113506078Y-110281106D01*
X113094476Y-109869504D01*
X113066699Y-109814987D01*
X113076270Y-109754555D01*
X113119535Y-109711290D01*
X113164480Y-109700500D01*
X118484835Y-109700500D01*
X118500755Y-109703097D01*
X118507764Y-109702772D01*
X118507765Y-109702773D01*
X118554641Y-109700606D01*
X118559214Y-109700500D01*
X118577844Y-109700500D01*
X118577951Y-109700480D01*
X118591571Y-109698898D01*
X118619992Y-109697585D01*
X118628982Y-109693615D01*
X118650772Y-109686866D01*
X118660433Y-109685061D01*
X118684623Y-109670082D01*
X118696722Y-109663704D01*
X118722765Y-109652206D01*
X118729710Y-109645259D01*
X118747597Y-109631091D01*
X118755952Y-109625919D01*
X118773095Y-109603216D01*
X118782082Y-109592887D01*
X120645475Y-107729496D01*
X120699993Y-107701719D01*
X120715480Y-107700500D01*
X121157628Y-107700500D01*
X122650500Y-107700500D01*
X122708691Y-107719407D01*
G37*
G04 #@! TD.AperFunction*
G04 #@! TA.AperFunction,Conductor*
G36*
X149933691Y-100044407D02*
G01*
X149969655Y-100093907D01*
X149974500Y-100124500D01*
X149974500Y-149875500D01*
X149955593Y-149933691D01*
X149906093Y-149969655D01*
X149875500Y-149974500D01*
X100124500Y-149974500D01*
X100066309Y-149955593D01*
X100030345Y-149906093D01*
X100025500Y-149875500D01*
X100025500Y-147500000D01*
X116369905Y-147500000D01*
X116388214Y-147650788D01*
X116442079Y-147792820D01*
X116497703Y-147873405D01*
X116528368Y-147917830D01*
X116642066Y-148018557D01*
X116642068Y-148018558D01*
X116748656Y-148074500D01*
X116776566Y-148089148D01*
X116924051Y-148125500D01*
X133075949Y-148125500D01*
X133223434Y-148089148D01*
X133357934Y-148018557D01*
X133471632Y-147917830D01*
X133557921Y-147792819D01*
X133611785Y-147650791D01*
X133630094Y-147500000D01*
X133611785Y-147349209D01*
X133557921Y-147207181D01*
X133471632Y-147082170D01*
X133357934Y-146981443D01*
X133357932Y-146981442D01*
X133357931Y-146981441D01*
X133223435Y-146910852D01*
X133075949Y-146874500D01*
X133005072Y-146874500D01*
X125005072Y-146874500D01*
X117008285Y-146874500D01*
X117000000Y-146874500D01*
X116924051Y-146874500D01*
X116776564Y-146910852D01*
X116642068Y-146981441D01*
X116528367Y-147082171D01*
X116442079Y-147207179D01*
X116388214Y-147349211D01*
X116369905Y-147500000D01*
X100025500Y-147500000D01*
X100025500Y-138900000D01*
X107569783Y-138900000D01*
X107588623Y-139139379D01*
X107644677Y-139372863D01*
X107736567Y-139594704D01*
X107862028Y-139799439D01*
X107862029Y-139799441D01*
X107862031Y-139799443D01*
X108017972Y-139982027D01*
X108196381Y-140134402D01*
X108200561Y-140137972D01*
X108405296Y-140263433D01*
X108627137Y-140355323D01*
X108860621Y-140411377D01*
X109100000Y-140430217D01*
X109339379Y-140411377D01*
X109572863Y-140355323D01*
X109794704Y-140263433D01*
X109999439Y-140137972D01*
X110182027Y-139982027D01*
X110337972Y-139799439D01*
X110463433Y-139594704D01*
X110555323Y-139372863D01*
X110611377Y-139139379D01*
X110630217Y-138900000D01*
X139369783Y-138900000D01*
X139388623Y-139139379D01*
X139444677Y-139372863D01*
X139536567Y-139594704D01*
X139662028Y-139799439D01*
X139662029Y-139799441D01*
X139662031Y-139799443D01*
X139817972Y-139982027D01*
X139996381Y-140134402D01*
X140000561Y-140137972D01*
X140205296Y-140263433D01*
X140427137Y-140355323D01*
X140660621Y-140411377D01*
X140900000Y-140430217D01*
X141139379Y-140411377D01*
X141372863Y-140355323D01*
X141594704Y-140263433D01*
X141799439Y-140137972D01*
X141982027Y-139982027D01*
X142137972Y-139799439D01*
X142263433Y-139594704D01*
X142355323Y-139372863D01*
X142411377Y-139139379D01*
X142430217Y-138900000D01*
X142411377Y-138660621D01*
X142355323Y-138427137D01*
X142263433Y-138205296D01*
X142137972Y-138000561D01*
X142137968Y-138000556D01*
X141982027Y-137817972D01*
X141799443Y-137662031D01*
X141799441Y-137662029D01*
X141799439Y-137662028D01*
X141594704Y-137536567D01*
X141594702Y-137536566D01*
X141372864Y-137444677D01*
X141256121Y-137416649D01*
X141139379Y-137388623D01*
X140900000Y-137369783D01*
X140899999Y-137369783D01*
X140660621Y-137388623D01*
X140427135Y-137444677D01*
X140205297Y-137536566D01*
X140000556Y-137662031D01*
X139817972Y-137817972D01*
X139662031Y-138000556D01*
X139536566Y-138205297D01*
X139444677Y-138427135D01*
X139444677Y-138427137D01*
X139388623Y-138660621D01*
X139369783Y-138900000D01*
X110630217Y-138900000D01*
X110611377Y-138660621D01*
X110555323Y-138427137D01*
X110463433Y-138205296D01*
X110337972Y-138000561D01*
X110337968Y-138000556D01*
X110182027Y-137817972D01*
X109999443Y-137662031D01*
X109999441Y-137662029D01*
X109999439Y-137662028D01*
X109794704Y-137536567D01*
X109794702Y-137536566D01*
X109572864Y-137444677D01*
X109456120Y-137416649D01*
X109339379Y-137388623D01*
X109100000Y-137369783D01*
X109099999Y-137369783D01*
X108860621Y-137388623D01*
X108627135Y-137444677D01*
X108405297Y-137536566D01*
X108200556Y-137662031D01*
X108017972Y-137817972D01*
X107862031Y-138000556D01*
X107736566Y-138205297D01*
X107644677Y-138427135D01*
X107644677Y-138427137D01*
X107588623Y-138660621D01*
X107569783Y-138900000D01*
X100025500Y-138900000D01*
X100025500Y-125014616D01*
X101874499Y-125014616D01*
X101874500Y-125014621D01*
X101874500Y-133075949D01*
X101910852Y-133223435D01*
X101933708Y-133266983D01*
X101981443Y-133357934D01*
X102082170Y-133471632D01*
X102162756Y-133527256D01*
X102207179Y-133557920D01*
X102207180Y-133557920D01*
X102207181Y-133557921D01*
X102349209Y-133611785D01*
X102500000Y-133630094D01*
X102650791Y-133611785D01*
X102792819Y-133557921D01*
X102917830Y-133471632D01*
X103018557Y-133357934D01*
X103089148Y-133223434D01*
X103125500Y-133075949D01*
X146874500Y-133075949D01*
X146910852Y-133223435D01*
X146933708Y-133266983D01*
X146981443Y-133357934D01*
X147082170Y-133471632D01*
X147162756Y-133527256D01*
X147207179Y-133557920D01*
X147207180Y-133557920D01*
X147207181Y-133557921D01*
X147349209Y-133611785D01*
X147500000Y-133630094D01*
X147650791Y-133611785D01*
X147792819Y-133557921D01*
X147917830Y-133471632D01*
X148018557Y-133357934D01*
X148089148Y-133223434D01*
X148125500Y-133075949D01*
X148125500Y-133000000D01*
X148125500Y-132991715D01*
X148125500Y-124994928D01*
X148125500Y-124994927D01*
X148125500Y-116994928D01*
X148125500Y-116924051D01*
X148089148Y-116776566D01*
X148018557Y-116642066D01*
X147917830Y-116528368D01*
X147868108Y-116494047D01*
X147792820Y-116442079D01*
X147650788Y-116388214D01*
X147500000Y-116369905D01*
X147349211Y-116388214D01*
X147207179Y-116442079D01*
X147082171Y-116528367D01*
X146981441Y-116642068D01*
X146910852Y-116776564D01*
X146874500Y-116924050D01*
X146874500Y-133075949D01*
X103125500Y-133075949D01*
X103125500Y-133000000D01*
X103125500Y-132991715D01*
X103125500Y-124994928D01*
X103125500Y-124994927D01*
X103125500Y-123664316D01*
X130479500Y-123664316D01*
X130479923Y-123667529D01*
X130485932Y-123713174D01*
X130535933Y-123820401D01*
X130535934Y-123820402D01*
X130535935Y-123820404D01*
X130619596Y-123904065D01*
X130726827Y-123954068D01*
X130775684Y-123960500D01*
X130778925Y-123960500D01*
X131221075Y-123960500D01*
X131224316Y-123960500D01*
X131273173Y-123954068D01*
X131380404Y-123904065D01*
X131404973Y-123879496D01*
X131414974Y-123869496D01*
X131469491Y-123841719D01*
X131484977Y-123840500D01*
X131607952Y-123840500D01*
X131666143Y-123859407D01*
X131677955Y-123869496D01*
X131705431Y-123896971D01*
X131731684Y-123923224D01*
X131840513Y-123973972D01*
X131890099Y-123980500D01*
X132309900Y-123980499D01*
X132359487Y-123973972D01*
X132468316Y-123923224D01*
X132495315Y-123896225D01*
X132512045Y-123879496D01*
X132566562Y-123851719D01*
X132582048Y-123850500D01*
X136015023Y-123850500D01*
X136073214Y-123869407D01*
X136085026Y-123879496D01*
X136128754Y-123923223D01*
X136169596Y-123964065D01*
X136276827Y-124014068D01*
X136325684Y-124020500D01*
X136328925Y-124020500D01*
X136671075Y-124020500D01*
X136674316Y-124020500D01*
X136723173Y-124014068D01*
X136830404Y-123964065D01*
X136914065Y-123880404D01*
X136920276Y-123867083D01*
X136962003Y-123822337D01*
X137022064Y-123810662D01*
X137077517Y-123836520D01*
X137099722Y-123867081D01*
X137105935Y-123880404D01*
X137105936Y-123880405D01*
X137113313Y-123896225D01*
X137111712Y-123896971D01*
X137128281Y-123929489D01*
X137129500Y-123944976D01*
X137129500Y-124117952D01*
X137110593Y-124176143D01*
X137100504Y-124187955D01*
X137056775Y-124231684D01*
X137006028Y-124340511D01*
X137006027Y-124340513D01*
X137006028Y-124340513D01*
X136999500Y-124390099D01*
X136999500Y-124393338D01*
X136999500Y-124393339D01*
X136999500Y-124806657D01*
X136999500Y-124806672D01*
X136999501Y-124809900D01*
X136999923Y-124813108D01*
X136999924Y-124813119D01*
X137006027Y-124859486D01*
X137056775Y-124968315D01*
X137056776Y-124968316D01*
X137083388Y-124994928D01*
X137100503Y-125012042D01*
X137128281Y-125066558D01*
X137129500Y-125082046D01*
X137129500Y-125217952D01*
X137110593Y-125276143D01*
X137100504Y-125287955D01*
X137056775Y-125331684D01*
X137006028Y-125440511D01*
X137006027Y-125440513D01*
X137006028Y-125440513D01*
X136999500Y-125490099D01*
X136999500Y-125493338D01*
X136999500Y-125493339D01*
X136999500Y-125906657D01*
X136999500Y-125906672D01*
X136999501Y-125909900D01*
X136999923Y-125913108D01*
X136999924Y-125913119D01*
X137006027Y-125959486D01*
X137056775Y-126068314D01*
X137056776Y-126068316D01*
X137141684Y-126153224D01*
X137250513Y-126203972D01*
X137300099Y-126210500D01*
X137453808Y-126210499D01*
X137511999Y-126229406D01*
X137523813Y-126239495D01*
X137700639Y-126416321D01*
X137728416Y-126470838D01*
X137718845Y-126531270D01*
X137675585Y-126574532D01*
X137671784Y-126576468D01*
X137576471Y-126671781D01*
X137515280Y-126791875D01*
X137499500Y-126891511D01*
X137499500Y-127408488D01*
X137515280Y-127508124D01*
X137515280Y-127508125D01*
X137515281Y-127508126D01*
X137576472Y-127628220D01*
X137671780Y-127723528D01*
X137791874Y-127784719D01*
X137891512Y-127800500D01*
X138708488Y-127800500D01*
X138808126Y-127784719D01*
X138928220Y-127723528D01*
X139023528Y-127628220D01*
X139065903Y-127545053D01*
X139109167Y-127501790D01*
X139141866Y-127491760D01*
X139151393Y-127490573D01*
X139151393Y-127490572D01*
X139156822Y-127489896D01*
X139160572Y-127488694D01*
X139165379Y-127486092D01*
X139165381Y-127486092D01*
X139208655Y-127462671D01*
X139212259Y-127460816D01*
X139256484Y-127439198D01*
X139256485Y-127439196D01*
X139261398Y-127436795D01*
X139264550Y-127434444D01*
X139268254Y-127430420D01*
X139268258Y-127430418D01*
X139301602Y-127394195D01*
X139304364Y-127391316D01*
X141019174Y-125676507D01*
X141061286Y-125651523D01*
X141064770Y-125650500D01*
X141064772Y-125650500D01*
X141189069Y-125614004D01*
X141298049Y-125543967D01*
X141382882Y-125446063D01*
X141382881Y-125446063D01*
X141382883Y-125446062D01*
X141436697Y-125328227D01*
X141455133Y-125200000D01*
X141436697Y-125071772D01*
X141382883Y-124953937D01*
X141298050Y-124856034D01*
X141298049Y-124856033D01*
X141226266Y-124809901D01*
X141189068Y-124785995D01*
X141064772Y-124749500D01*
X140935228Y-124749500D01*
X140810931Y-124785995D01*
X140701949Y-124856034D01*
X140617116Y-124953937D01*
X140563302Y-125071772D01*
X140556365Y-125120024D01*
X140529369Y-125174932D01*
X140528377Y-125175939D01*
X139098036Y-126606281D01*
X139043519Y-126634058D01*
X138983087Y-126624487D01*
X138958031Y-126606283D01*
X138928220Y-126576472D01*
X138808126Y-126515281D01*
X138808125Y-126515280D01*
X138808124Y-126515280D01*
X138723033Y-126501803D01*
X138668517Y-126474025D01*
X138647842Y-126433447D01*
X138647831Y-126433453D01*
X138647495Y-126432765D01*
X138640740Y-126419508D01*
X138640281Y-126416268D01*
X138639896Y-126413182D01*
X138638693Y-126409426D01*
X138612686Y-126361370D01*
X138610813Y-126357731D01*
X138598978Y-126333523D01*
X138589198Y-126313516D01*
X138589196Y-126313514D01*
X138586801Y-126308614D01*
X138584436Y-126305441D01*
X138580418Y-126301742D01*
X138544221Y-126268420D01*
X138541294Y-126265612D01*
X137989495Y-125713813D01*
X137961718Y-125659296D01*
X137960499Y-125643809D01*
X137960499Y-125493342D01*
X137960499Y-125493339D01*
X137960499Y-125490100D01*
X137953972Y-125440513D01*
X137903224Y-125331684D01*
X137899766Y-125328226D01*
X137859496Y-125287955D01*
X137831719Y-125233438D01*
X137830500Y-125217952D01*
X137830500Y-125082046D01*
X137849407Y-125023855D01*
X137859497Y-125012042D01*
X137903224Y-124968316D01*
X137953972Y-124859487D01*
X137960500Y-124809901D01*
X137960499Y-124390100D01*
X137953972Y-124340513D01*
X137903224Y-124231684D01*
X137903223Y-124231683D01*
X137859496Y-124187955D01*
X137831719Y-124133438D01*
X137830500Y-124117952D01*
X137830500Y-124024976D01*
X137849407Y-123966785D01*
X137859490Y-123954978D01*
X137934065Y-123880404D01*
X137984068Y-123773173D01*
X137990500Y-123724316D01*
X137990500Y-123275684D01*
X137984068Y-123226827D01*
X137934065Y-123119596D01*
X137924973Y-123110504D01*
X137899496Y-123085026D01*
X137871719Y-123030509D01*
X137870500Y-123015023D01*
X137870500Y-122641188D01*
X137889407Y-122582997D01*
X137899497Y-122571184D01*
X138041186Y-122429496D01*
X138095702Y-122401719D01*
X138111189Y-122400500D01*
X138757247Y-122400500D01*
X138757248Y-122400500D01*
X138815731Y-122388867D01*
X138882052Y-122344552D01*
X138926367Y-122278231D01*
X138938000Y-122219748D01*
X138938000Y-121774499D01*
X138956907Y-121716309D01*
X139006407Y-121680345D01*
X139037000Y-121675500D01*
X140100500Y-121675500D01*
X140158691Y-121694407D01*
X140194655Y-121743907D01*
X140199500Y-121774500D01*
X140199500Y-122869746D01*
X140211133Y-122928231D01*
X140255447Y-122994552D01*
X140292785Y-123019500D01*
X140321769Y-123038867D01*
X140380252Y-123050500D01*
X140380253Y-123050500D01*
X141619747Y-123050500D01*
X141619748Y-123050500D01*
X141678231Y-123038867D01*
X141744552Y-122994552D01*
X141788867Y-122928231D01*
X141800500Y-122869748D01*
X141800500Y-119526832D01*
X141819407Y-119468642D01*
X141868907Y-119432678D01*
X141930093Y-119432678D01*
X141979593Y-119468642D01*
X141989553Y-119485707D01*
X142017116Y-119546062D01*
X142089568Y-119629676D01*
X142101951Y-119643967D01*
X142210931Y-119714004D01*
X142335228Y-119750500D01*
X142464772Y-119750500D01*
X142589069Y-119714004D01*
X142698049Y-119643967D01*
X142782882Y-119546063D01*
X142782881Y-119546063D01*
X142782883Y-119546062D01*
X142810447Y-119485707D01*
X142851819Y-119440629D01*
X142911785Y-119428478D01*
X142967441Y-119453896D01*
X142997528Y-119507173D01*
X142999500Y-119526833D01*
X142999500Y-122869746D01*
X143011133Y-122928231D01*
X143055447Y-122994552D01*
X143092785Y-123019500D01*
X143121769Y-123038867D01*
X143180252Y-123050500D01*
X143350500Y-123050500D01*
X143408691Y-123069407D01*
X143444655Y-123118907D01*
X143449500Y-123149500D01*
X143449500Y-124033430D01*
X143430593Y-124091621D01*
X143392340Y-124123154D01*
X143341686Y-124146774D01*
X143256774Y-124231686D01*
X143206028Y-124340511D01*
X143206027Y-124340513D01*
X143206028Y-124340513D01*
X143199500Y-124390099D01*
X143199500Y-124393338D01*
X143199500Y-124393339D01*
X143199500Y-124806657D01*
X143199500Y-124806672D01*
X143199501Y-124809900D01*
X143199923Y-124813108D01*
X143199924Y-124813119D01*
X143206027Y-124859486D01*
X143206028Y-124859488D01*
X143256776Y-124968316D01*
X143341684Y-125053224D01*
X143450513Y-125103972D01*
X143500099Y-125110500D01*
X143859900Y-125110499D01*
X143909487Y-125103972D01*
X144018316Y-125053224D01*
X144103224Y-124968316D01*
X144153972Y-124859487D01*
X144160500Y-124809901D01*
X144160499Y-124390100D01*
X144153972Y-124340513D01*
X144151984Y-124325405D01*
X144153617Y-124325190D01*
X144150500Y-124311119D01*
X144150500Y-123149500D01*
X144169407Y-123091309D01*
X144218907Y-123055345D01*
X144249500Y-123050500D01*
X144419747Y-123050500D01*
X144419748Y-123050500D01*
X144478231Y-123038867D01*
X144544552Y-122994552D01*
X144588867Y-122928231D01*
X144600500Y-122869748D01*
X144600500Y-119130252D01*
X144588867Y-119071769D01*
X144544552Y-119005448D01*
X144544495Y-119005410D01*
X144506618Y-118957359D01*
X144500500Y-118923097D01*
X144500500Y-118160615D01*
X144500500Y-118157628D01*
X144485140Y-118031128D01*
X144424818Y-117872070D01*
X144328183Y-117732071D01*
X144317013Y-117722175D01*
X144200854Y-117619266D01*
X144050223Y-117540209D01*
X143885057Y-117499500D01*
X143885056Y-117499500D01*
X143714944Y-117499500D01*
X143714943Y-117499500D01*
X143549776Y-117540209D01*
X143399145Y-117619266D01*
X143271818Y-117732069D01*
X143175182Y-117872070D01*
X143114859Y-118031129D01*
X143102111Y-118136122D01*
X143099500Y-118157628D01*
X143099500Y-118160615D01*
X143099500Y-118923097D01*
X143080593Y-118981288D01*
X143055505Y-119005409D01*
X143055448Y-119005448D01*
X143011131Y-119071770D01*
X143004155Y-119106843D01*
X142974258Y-119160226D01*
X142918693Y-119185841D01*
X142858683Y-119173903D01*
X142817151Y-119128973D01*
X142817005Y-119128653D01*
X142782883Y-119053937D01*
X142698050Y-118956034D01*
X142698049Y-118956033D01*
X142643559Y-118921014D01*
X142589068Y-118885995D01*
X142464772Y-118849500D01*
X142415479Y-118849500D01*
X142357288Y-118830593D01*
X142345475Y-118820504D01*
X141258566Y-117733595D01*
X141249145Y-117720501D01*
X141209273Y-117684152D01*
X141205967Y-117680995D01*
X141192796Y-117667825D01*
X141192697Y-117667757D01*
X141181954Y-117659247D01*
X141160934Y-117640085D01*
X141160933Y-117640084D01*
X141151762Y-117636531D01*
X141131587Y-117625896D01*
X141123481Y-117620344D01*
X141095797Y-117613832D01*
X141082704Y-117609777D01*
X141056175Y-117599500D01*
X141056173Y-117599500D01*
X141046348Y-117599500D01*
X141023682Y-117596870D01*
X141014119Y-117594621D01*
X141014118Y-117594621D01*
X140985947Y-117598551D01*
X140972269Y-117599500D01*
X134822169Y-117599500D01*
X134763978Y-117580593D01*
X134752165Y-117570504D01*
X133515256Y-116333595D01*
X133505835Y-116320501D01*
X133465963Y-116284152D01*
X133462657Y-116280995D01*
X133449486Y-116267825D01*
X133449387Y-116267757D01*
X133438644Y-116259247D01*
X133433703Y-116254743D01*
X133417623Y-116240084D01*
X133408452Y-116236531D01*
X133388277Y-116225896D01*
X133380171Y-116220344D01*
X133352487Y-116213832D01*
X133339394Y-116209777D01*
X133312865Y-116199500D01*
X133312863Y-116199500D01*
X133303038Y-116199500D01*
X133280372Y-116196870D01*
X133270809Y-116194621D01*
X133270808Y-116194621D01*
X133242637Y-116198551D01*
X133228959Y-116199500D01*
X132768476Y-116199500D01*
X132752555Y-116196902D01*
X132698669Y-116199394D01*
X132694097Y-116199500D01*
X132675464Y-116199500D01*
X132675341Y-116199523D01*
X132661730Y-116201101D01*
X132633319Y-116202414D01*
X132624326Y-116206385D01*
X132602537Y-116213132D01*
X132592875Y-116214938D01*
X132568690Y-116229912D01*
X132556569Y-116236301D01*
X132530544Y-116247792D01*
X132523594Y-116254743D01*
X132505718Y-116268903D01*
X132497358Y-116274080D01*
X132480217Y-116296777D01*
X132471220Y-116307117D01*
X132333589Y-116444748D01*
X132320497Y-116454169D01*
X132284141Y-116494047D01*
X132280989Y-116497348D01*
X132267825Y-116510513D01*
X132267754Y-116510617D01*
X132259256Y-116521344D01*
X132240083Y-116542377D01*
X132236530Y-116551548D01*
X132225895Y-116571724D01*
X132220343Y-116579829D01*
X132213830Y-116607517D01*
X132209777Y-116620606D01*
X132199500Y-116647136D01*
X132199500Y-116656963D01*
X132196870Y-116679629D01*
X132194621Y-116689189D01*
X132198551Y-116717363D01*
X132199500Y-116731040D01*
X132199500Y-117824521D01*
X132180593Y-117882712D01*
X132170504Y-117894525D01*
X132114525Y-117950504D01*
X132060008Y-117978281D01*
X132044521Y-117979500D01*
X131815684Y-117979500D01*
X131812471Y-117979922D01*
X131812470Y-117979923D01*
X131766825Y-117985932D01*
X131659598Y-118035933D01*
X131575933Y-118119598D01*
X131525932Y-118226825D01*
X131524025Y-118241309D01*
X131519500Y-118275684D01*
X131519500Y-118724316D01*
X131519923Y-118727529D01*
X131525932Y-118773174D01*
X131575933Y-118880401D01*
X131575934Y-118880402D01*
X131575935Y-118880404D01*
X131659596Y-118964065D01*
X131716340Y-118990525D01*
X131761087Y-119032253D01*
X131773500Y-119080249D01*
X131773500Y-119500500D01*
X131754593Y-119558691D01*
X131705093Y-119594655D01*
X131674500Y-119599500D01*
X131366752Y-119599500D01*
X131337510Y-119605316D01*
X131308268Y-119611133D01*
X131241947Y-119655447D01*
X131197633Y-119721768D01*
X131197632Y-119721769D01*
X131197633Y-119721769D01*
X131187139Y-119774529D01*
X131186000Y-119780253D01*
X131186000Y-120269746D01*
X131197633Y-120328231D01*
X131241947Y-120394552D01*
X131286262Y-120424162D01*
X131308269Y-120438867D01*
X131366752Y-120450500D01*
X131366753Y-120450500D01*
X132881247Y-120450500D01*
X132881248Y-120450500D01*
X132939731Y-120438867D01*
X133006052Y-120394552D01*
X133050367Y-120328231D01*
X133062000Y-120269748D01*
X133062000Y-119780252D01*
X133050367Y-119721769D01*
X133035662Y-119699761D01*
X133006052Y-119655447D01*
X132939731Y-119611133D01*
X132881248Y-119599500D01*
X132881247Y-119599500D01*
X132573500Y-119599500D01*
X132515309Y-119580593D01*
X132479345Y-119531093D01*
X132474500Y-119500500D01*
X132474500Y-119273629D01*
X132474500Y-118997972D01*
X132493406Y-118939785D01*
X132542906Y-118903821D01*
X132604091Y-118903821D01*
X132643502Y-118927972D01*
X132665031Y-118949500D01*
X132679596Y-118964065D01*
X132786827Y-119014068D01*
X132835684Y-119020500D01*
X132838925Y-119020500D01*
X133181075Y-119020500D01*
X133184316Y-119020500D01*
X133233173Y-119014068D01*
X133340404Y-118964065D01*
X133400648Y-118903821D01*
X133424974Y-118879496D01*
X133479490Y-118851719D01*
X133494977Y-118850500D01*
X137315023Y-118850500D01*
X137373214Y-118869407D01*
X137385026Y-118879496D01*
X137469596Y-118964065D01*
X137590637Y-119020508D01*
X137588815Y-119024414D01*
X137618644Y-119038641D01*
X137647841Y-119092411D01*
X137649500Y-119110456D01*
X137649500Y-119500500D01*
X137630593Y-119558691D01*
X137581093Y-119594655D01*
X137550500Y-119599500D01*
X137242752Y-119599500D01*
X137213510Y-119605316D01*
X137184268Y-119611133D01*
X137117947Y-119655447D01*
X137073633Y-119721768D01*
X137073632Y-119721769D01*
X137073633Y-119721769D01*
X137063139Y-119774529D01*
X137062000Y-119780253D01*
X137062000Y-120269746D01*
X137073633Y-120328231D01*
X137117947Y-120394552D01*
X137162262Y-120424162D01*
X137184269Y-120438867D01*
X137242752Y-120450500D01*
X137242753Y-120450500D01*
X138757247Y-120450500D01*
X138757248Y-120450500D01*
X138815731Y-120438867D01*
X138882052Y-120394552D01*
X138926367Y-120328231D01*
X138938000Y-120269748D01*
X138938000Y-119780252D01*
X138926367Y-119721769D01*
X138911662Y-119699761D01*
X138882052Y-119655447D01*
X138815731Y-119611133D01*
X138815730Y-119611133D01*
X138757248Y-119599500D01*
X138757247Y-119599500D01*
X138449500Y-119599500D01*
X138391309Y-119580593D01*
X138355345Y-119531093D01*
X138350500Y-119500500D01*
X138350500Y-119054602D01*
X138369407Y-118996411D01*
X138418907Y-118960447D01*
X138480093Y-118960447D01*
X138491328Y-118964872D01*
X138555844Y-118994956D01*
X138578856Y-119015401D01*
X138579311Y-119014799D01*
X138616772Y-119043087D01*
X138627117Y-119052088D01*
X140170504Y-120595475D01*
X140198281Y-120649992D01*
X140199500Y-120665479D01*
X140199500Y-120875500D01*
X140180593Y-120933691D01*
X140131093Y-120969655D01*
X140100500Y-120974500D01*
X138940597Y-120974500D01*
X138885595Y-120957815D01*
X138815731Y-120911133D01*
X138815730Y-120911133D01*
X138757248Y-120899500D01*
X137242752Y-120899500D01*
X137213510Y-120905316D01*
X137184268Y-120911133D01*
X137117947Y-120955447D01*
X137073633Y-121021768D01*
X137062000Y-121080253D01*
X137062000Y-121569748D01*
X137074121Y-121630687D01*
X137074121Y-121669313D01*
X137062000Y-121730251D01*
X137062000Y-122219746D01*
X137073633Y-122278231D01*
X137117947Y-122344551D01*
X137124126Y-122348680D01*
X137162005Y-122396731D01*
X137168038Y-122426901D01*
X137169415Y-122460173D01*
X137169500Y-122464267D01*
X137169500Y-123015023D01*
X137150593Y-123073214D01*
X137140504Y-123085026D01*
X137105934Y-123119595D01*
X137099724Y-123132915D01*
X137057996Y-123177663D01*
X136997934Y-123189337D01*
X136942482Y-123163479D01*
X136920276Y-123132915D01*
X136914066Y-123119598D01*
X136914065Y-123119597D01*
X136914065Y-123119596D01*
X136830404Y-123035935D01*
X136830402Y-123035934D01*
X136830401Y-123035933D01*
X136723174Y-122985932D01*
X136677529Y-122979923D01*
X136674316Y-122979500D01*
X136325684Y-122979500D01*
X136322471Y-122979922D01*
X136322470Y-122979923D01*
X136276825Y-122985932D01*
X136169596Y-123035934D01*
X136085026Y-123120504D01*
X136030510Y-123148281D01*
X136015023Y-123149500D01*
X132582047Y-123149500D01*
X132523856Y-123130593D01*
X132512052Y-123120512D01*
X132503493Y-123111952D01*
X132475718Y-123057439D01*
X132474500Y-123041964D01*
X132474500Y-122499499D01*
X132493407Y-122441309D01*
X132542907Y-122405345D01*
X132573500Y-122400500D01*
X132881247Y-122400500D01*
X132881248Y-122400500D01*
X132939731Y-122388867D01*
X133006052Y-122344552D01*
X133050367Y-122278231D01*
X133062000Y-122219748D01*
X133062000Y-121730252D01*
X133050367Y-121671769D01*
X133035662Y-121649761D01*
X133006052Y-121605447D01*
X132939731Y-121561133D01*
X132881248Y-121549500D01*
X131366752Y-121549500D01*
X131337510Y-121555316D01*
X131308268Y-121561133D01*
X131241947Y-121605447D01*
X131197633Y-121671768D01*
X131197632Y-121671769D01*
X131197633Y-121671769D01*
X131188774Y-121716309D01*
X131186000Y-121730253D01*
X131186000Y-122219746D01*
X131197633Y-122278231D01*
X131241947Y-122344552D01*
X131286261Y-122374162D01*
X131308269Y-122388867D01*
X131366752Y-122400500D01*
X131674500Y-122400500D01*
X131732691Y-122419407D01*
X131768655Y-122468907D01*
X131773500Y-122499500D01*
X131773500Y-122994207D01*
X131754593Y-123052398D01*
X131742208Y-123062616D01*
X131744026Y-123064434D01*
X131697955Y-123110504D01*
X131643438Y-123138281D01*
X131627952Y-123139500D01*
X131484977Y-123139500D01*
X131426786Y-123120593D01*
X131414974Y-123110504D01*
X131380403Y-123075934D01*
X131273174Y-123025932D01*
X131227529Y-123019923D01*
X131224316Y-123019500D01*
X130775684Y-123019500D01*
X130772471Y-123019922D01*
X130772470Y-123019923D01*
X130726825Y-123025932D01*
X130619598Y-123075933D01*
X130535933Y-123159598D01*
X130485932Y-123266825D01*
X130485931Y-123266827D01*
X130485932Y-123266827D01*
X130479500Y-123315684D01*
X130479500Y-123664316D01*
X103125500Y-123664316D01*
X103125500Y-122400000D01*
X127294507Y-122400000D01*
X127314353Y-122525302D01*
X127314353Y-122525303D01*
X127314354Y-122525304D01*
X127371950Y-122638342D01*
X127461658Y-122728050D01*
X127574696Y-122785646D01*
X127700000Y-122805492D01*
X127825304Y-122785646D01*
X127938342Y-122728050D01*
X128028050Y-122638342D01*
X128085646Y-122525304D01*
X128105492Y-122400000D01*
X128085646Y-122274696D01*
X128028050Y-122161658D01*
X127938342Y-122071950D01*
X127825304Y-122014354D01*
X127825303Y-122014353D01*
X127825302Y-122014353D01*
X127700000Y-121994507D01*
X127574697Y-122014353D01*
X127461659Y-122071949D01*
X127371949Y-122161659D01*
X127314353Y-122274697D01*
X127294507Y-122400000D01*
X103125500Y-122400000D01*
X103125500Y-116994928D01*
X103125500Y-116953930D01*
X103125499Y-116953924D01*
X103125500Y-116924051D01*
X103089148Y-116776566D01*
X103018557Y-116642066D01*
X102917830Y-116528368D01*
X102868108Y-116494047D01*
X102792820Y-116442079D01*
X102650788Y-116388214D01*
X102499999Y-116369905D01*
X102349211Y-116388214D01*
X102207179Y-116442079D01*
X102082171Y-116528367D01*
X101981441Y-116642068D01*
X101910852Y-116776564D01*
X101874500Y-116924050D01*
X101874500Y-116994928D01*
X101874499Y-125014616D01*
X100025500Y-125014616D01*
X100025500Y-111100000D01*
X107569783Y-111100000D01*
X107588623Y-111339378D01*
X107644677Y-111572864D01*
X107713782Y-111739697D01*
X107736567Y-111794704D01*
X107862028Y-111999439D01*
X107862029Y-111999441D01*
X107862031Y-111999443D01*
X108017972Y-112182027D01*
X108196381Y-112334402D01*
X108200561Y-112337972D01*
X108405296Y-112463433D01*
X108627137Y-112555323D01*
X108860621Y-112611377D01*
X109100000Y-112630217D01*
X109339379Y-112611377D01*
X109572863Y-112555323D01*
X109794704Y-112463433D01*
X109999439Y-112337972D01*
X110182027Y-112182027D01*
X110337972Y-111999439D01*
X110463433Y-111794704D01*
X110555323Y-111572863D01*
X110611377Y-111339379D01*
X110630217Y-111100000D01*
X110611377Y-110860621D01*
X110555323Y-110627137D01*
X110463433Y-110405296D01*
X110337972Y-110200561D01*
X110337968Y-110200556D01*
X110182027Y-110017972D01*
X109999443Y-109862031D01*
X109999441Y-109862029D01*
X109999439Y-109862028D01*
X109794704Y-109736567D01*
X109794702Y-109736566D01*
X109572864Y-109644677D01*
X109400205Y-109603226D01*
X109339379Y-109588623D01*
X109100000Y-109569783D01*
X109099999Y-109569783D01*
X108860621Y-109588623D01*
X108627135Y-109644677D01*
X108405297Y-109736566D01*
X108200556Y-109862031D01*
X108017972Y-110017972D01*
X107862031Y-110200556D01*
X107736566Y-110405297D01*
X107644677Y-110627135D01*
X107588623Y-110860621D01*
X107569783Y-111100000D01*
X100025500Y-111100000D01*
X100025500Y-108400000D01*
X104494507Y-108400000D01*
X104514353Y-108525302D01*
X104514353Y-108525303D01*
X104514354Y-108525304D01*
X104571950Y-108638342D01*
X104661658Y-108728050D01*
X104774696Y-108785646D01*
X104837348Y-108795568D01*
X104899999Y-108805492D01*
X104899999Y-108805491D01*
X104900000Y-108805492D01*
X105025304Y-108785646D01*
X105138342Y-108728050D01*
X105228050Y-108638342D01*
X105285646Y-108525304D01*
X105296794Y-108454914D01*
X105324567Y-108400402D01*
X105595474Y-108129496D01*
X105649991Y-108101719D01*
X105665478Y-108100500D01*
X108541558Y-108100500D01*
X108599749Y-108119407D01*
X108635713Y-108168907D01*
X108635713Y-108230093D01*
X108629769Y-108244442D01*
X108627067Y-108249746D01*
X108614353Y-108274697D01*
X108594507Y-108400000D01*
X108614353Y-108525302D01*
X108614353Y-108525303D01*
X108614354Y-108525304D01*
X108671950Y-108638342D01*
X108761658Y-108728050D01*
X108874696Y-108785646D01*
X108937347Y-108795568D01*
X108999999Y-108805492D01*
X108999999Y-108805491D01*
X109000000Y-108805492D01*
X109125304Y-108785646D01*
X109238342Y-108728050D01*
X109238342Y-108728049D01*
X109252313Y-108720931D01*
X109252599Y-108721494D01*
X109291412Y-108701719D01*
X109306899Y-108700500D01*
X109534521Y-108700500D01*
X109592712Y-108719407D01*
X109604525Y-108729496D01*
X112941436Y-112066407D01*
X112950857Y-112079501D01*
X112990726Y-112115847D01*
X112994031Y-112119003D01*
X113007201Y-112132173D01*
X113007295Y-112132237D01*
X113018039Y-112140746D01*
X113039067Y-112159916D01*
X113048230Y-112163465D01*
X113068413Y-112174103D01*
X113076519Y-112179656D01*
X113104211Y-112186169D01*
X113117298Y-112190222D01*
X113143827Y-112200500D01*
X113153652Y-112200500D01*
X113176317Y-112203129D01*
X113185881Y-112205379D01*
X113214053Y-112201448D01*
X113227731Y-112200500D01*
X125034835Y-112200500D01*
X125050755Y-112203097D01*
X125057764Y-112202772D01*
X125057765Y-112202773D01*
X125104641Y-112200606D01*
X125109214Y-112200500D01*
X125127844Y-112200500D01*
X125127951Y-112200480D01*
X125141571Y-112198898D01*
X125169992Y-112197585D01*
X125178982Y-112193615D01*
X125200772Y-112186866D01*
X125210433Y-112185061D01*
X125234623Y-112170082D01*
X125246722Y-112163704D01*
X125272765Y-112152206D01*
X125279710Y-112145259D01*
X125297597Y-112131091D01*
X125305952Y-112125919D01*
X125323095Y-112103216D01*
X125332082Y-112092887D01*
X127809287Y-109615682D01*
X127863802Y-109587907D01*
X127924234Y-109597478D01*
X127949289Y-109615681D01*
X127961658Y-109628050D01*
X128074696Y-109685646D01*
X128200000Y-109705492D01*
X128325304Y-109685646D01*
X128438342Y-109628050D01*
X128528050Y-109538342D01*
X128585646Y-109425304D01*
X128605492Y-109300000D01*
X128585646Y-109174696D01*
X128570231Y-109144444D01*
X128560661Y-109084013D01*
X128588439Y-109029496D01*
X128642955Y-109001719D01*
X128658442Y-109000500D01*
X129469747Y-109000500D01*
X129469748Y-109000500D01*
X129528231Y-108988867D01*
X129594552Y-108944552D01*
X129638867Y-108878231D01*
X129650500Y-108819748D01*
X129650500Y-107780252D01*
X129638867Y-107721769D01*
X129627663Y-107705002D01*
X129611054Y-107646115D01*
X129627664Y-107594997D01*
X129638867Y-107578231D01*
X129650500Y-107519748D01*
X129650500Y-106480252D01*
X129638867Y-106421769D01*
X129624162Y-106399762D01*
X129594552Y-106355447D01*
X129528231Y-106311133D01*
X129469748Y-106299500D01*
X129469747Y-106299500D01*
X129099500Y-106299500D01*
X129041309Y-106280593D01*
X129005345Y-106231093D01*
X129000500Y-106200500D01*
X129000500Y-106006899D01*
X129019407Y-105948708D01*
X129027738Y-105938953D01*
X129028048Y-105938343D01*
X129028050Y-105938342D01*
X129085646Y-105825304D01*
X129105492Y-105700000D01*
X129085646Y-105574696D01*
X129028050Y-105461658D01*
X128938342Y-105371950D01*
X128825304Y-105314354D01*
X128825303Y-105314353D01*
X128825302Y-105314353D01*
X128700000Y-105294507D01*
X128574697Y-105314353D01*
X128461659Y-105371949D01*
X128371949Y-105461659D01*
X128314353Y-105574697D01*
X128294507Y-105700000D01*
X128314353Y-105825302D01*
X128379069Y-105952313D01*
X128378505Y-105952599D01*
X128398281Y-105991412D01*
X128399500Y-106006899D01*
X128399500Y-106200500D01*
X128380593Y-106258691D01*
X128331093Y-106294655D01*
X128300500Y-106299500D01*
X126969748Y-106299500D01*
X126242372Y-106299500D01*
X124469748Y-106299500D01*
X123742372Y-106299500D01*
X121969748Y-106299500D01*
X120430252Y-106299500D01*
X120401010Y-106305316D01*
X120371768Y-106311133D01*
X120305447Y-106355447D01*
X120261133Y-106421768D01*
X120249499Y-106480253D01*
X120249499Y-107234520D01*
X120230592Y-107292711D01*
X120220503Y-107304524D01*
X118454525Y-109070504D01*
X118400008Y-109098281D01*
X118384521Y-109099500D01*
X113165479Y-109099500D01*
X113107288Y-109080593D01*
X113095475Y-109070504D01*
X111258566Y-107233595D01*
X111249145Y-107220501D01*
X111209273Y-107184152D01*
X111205967Y-107180995D01*
X111192796Y-107167825D01*
X111192697Y-107167757D01*
X111181954Y-107159247D01*
X111160934Y-107140085D01*
X111160933Y-107140084D01*
X111151762Y-107136531D01*
X111131587Y-107125896D01*
X111123481Y-107120344D01*
X111095797Y-107113832D01*
X111082704Y-107109777D01*
X111056175Y-107099500D01*
X111056173Y-107099500D01*
X111046348Y-107099500D01*
X111023682Y-107096870D01*
X111014119Y-107094621D01*
X111014118Y-107094621D01*
X110985947Y-107098551D01*
X110972269Y-107099500D01*
X106865479Y-107099500D01*
X106807288Y-107080593D01*
X106795475Y-107070504D01*
X106526866Y-106801895D01*
X106129494Y-106404522D01*
X106101718Y-106350007D01*
X106100499Y-106334532D01*
X106100499Y-105165172D01*
X106103097Y-105149252D01*
X106100606Y-105095357D01*
X106100500Y-105090785D01*
X106100500Y-105072156D01*
X106100480Y-105072050D01*
X106098897Y-105058424D01*
X106098762Y-105055495D01*
X106099875Y-105035456D01*
X106105492Y-105000000D01*
X106085646Y-104874696D01*
X106028050Y-104761658D01*
X105938342Y-104671950D01*
X105825304Y-104614354D01*
X105825303Y-104614353D01*
X105825302Y-104614353D01*
X105700000Y-104594507D01*
X105574697Y-104614353D01*
X105461659Y-104671949D01*
X105371949Y-104761659D01*
X105314353Y-104874697D01*
X105294507Y-105000000D01*
X105314353Y-105125302D01*
X105314353Y-105125303D01*
X105314354Y-105125304D01*
X105371950Y-105238342D01*
X105461658Y-105328050D01*
X105461659Y-105328050D01*
X105470503Y-105336894D01*
X105498281Y-105391411D01*
X105499500Y-105406898D01*
X105499500Y-106434834D01*
X105496902Y-106450758D01*
X105499394Y-106504641D01*
X105499500Y-106509213D01*
X105499500Y-106527845D01*
X105499521Y-106527958D01*
X105501101Y-106541578D01*
X105502414Y-106569991D01*
X105506384Y-106578982D01*
X105513132Y-106600773D01*
X105514938Y-106610432D01*
X105529911Y-106634616D01*
X105536300Y-106646736D01*
X105547794Y-106672765D01*
X105547795Y-106672766D01*
X105554743Y-106679715D01*
X105568910Y-106697600D01*
X105574081Y-106705953D01*
X105596772Y-106723087D01*
X105607117Y-106732088D01*
X106205525Y-107330496D01*
X106233302Y-107385013D01*
X106223731Y-107445445D01*
X106180466Y-107488710D01*
X106135521Y-107499500D01*
X105565165Y-107499500D01*
X105549244Y-107496902D01*
X105495358Y-107499394D01*
X105490786Y-107499500D01*
X105472154Y-107499500D01*
X105472031Y-107499523D01*
X105458420Y-107501101D01*
X105430008Y-107502414D01*
X105421015Y-107506385D01*
X105399228Y-107513132D01*
X105389566Y-107514938D01*
X105365381Y-107529912D01*
X105353261Y-107536301D01*
X105327234Y-107547794D01*
X105320285Y-107554743D01*
X105302408Y-107568904D01*
X105294047Y-107574081D01*
X105276907Y-107596777D01*
X105267910Y-107607117D01*
X104899599Y-107975428D01*
X104845083Y-108003205D01*
X104774697Y-108014353D01*
X104661659Y-108071949D01*
X104571949Y-108161659D01*
X104514353Y-108274697D01*
X104494507Y-108400000D01*
X100025500Y-108400000D01*
X100025500Y-102499999D01*
X116369905Y-102499999D01*
X116388214Y-102650788D01*
X116442079Y-102792820D01*
X116475591Y-102841370D01*
X116528368Y-102917830D01*
X116642066Y-103018557D01*
X116709315Y-103053852D01*
X116748656Y-103074500D01*
X116776566Y-103089148D01*
X116924051Y-103125500D01*
X133080503Y-103125500D01*
X133138694Y-103144407D01*
X133174658Y-103193907D01*
X133174658Y-103255093D01*
X133172822Y-103260249D01*
X133172277Y-103261659D01*
X133169500Y-103268827D01*
X133169500Y-103278653D01*
X133166870Y-103301319D01*
X133164620Y-103310882D01*
X133168550Y-103339056D01*
X133169499Y-103352730D01*
X133169499Y-105364100D01*
X133150592Y-105422291D01*
X133101092Y-105458255D01*
X133039906Y-105458255D01*
X133000497Y-105434105D01*
X132938342Y-105371950D01*
X132825304Y-105314354D01*
X132825303Y-105314353D01*
X132825302Y-105314353D01*
X132700000Y-105294507D01*
X132574697Y-105314353D01*
X132461659Y-105371949D01*
X132371949Y-105461659D01*
X132314353Y-105574697D01*
X132294507Y-105700000D01*
X132314353Y-105825302D01*
X132314353Y-105825303D01*
X132314354Y-105825304D01*
X132371950Y-105938342D01*
X132461658Y-106028050D01*
X132574696Y-106085646D01*
X132615987Y-106092185D01*
X132670503Y-106119962D01*
X132698281Y-106174478D01*
X132699500Y-106189966D01*
X132699500Y-113097334D01*
X132696902Y-113113258D01*
X132699394Y-113167141D01*
X132699500Y-113171713D01*
X132699500Y-113190345D01*
X132699521Y-113190458D01*
X132701101Y-113204078D01*
X132702414Y-113232491D01*
X132706384Y-113241482D01*
X132713132Y-113263273D01*
X132714938Y-113272932D01*
X132729911Y-113297116D01*
X132736300Y-113309236D01*
X132747794Y-113335265D01*
X132747795Y-113335266D01*
X132754743Y-113342215D01*
X132768910Y-113360100D01*
X132774081Y-113368453D01*
X132796772Y-113385587D01*
X132807117Y-113394588D01*
X134841436Y-115428907D01*
X134850857Y-115442001D01*
X134890726Y-115478347D01*
X134894031Y-115481503D01*
X134907201Y-115494673D01*
X134907295Y-115494737D01*
X134918039Y-115503246D01*
X134939067Y-115522416D01*
X134948230Y-115525965D01*
X134968413Y-115536603D01*
X134976519Y-115542156D01*
X135004211Y-115548669D01*
X135017298Y-115552722D01*
X135043827Y-115563000D01*
X135053652Y-115563000D01*
X135076317Y-115565629D01*
X135085881Y-115567879D01*
X135114053Y-115563948D01*
X135127731Y-115563000D01*
X135134318Y-115563000D01*
X135189320Y-115579685D01*
X135221769Y-115601367D01*
X135280252Y-115613000D01*
X135280253Y-115613000D01*
X136019747Y-115613000D01*
X136019748Y-115613000D01*
X136078231Y-115601367D01*
X136144552Y-115557052D01*
X136188867Y-115490731D01*
X136200500Y-115432248D01*
X136200500Y-115092752D01*
X136188867Y-115034269D01*
X136188866Y-115034268D01*
X136188378Y-115031813D01*
X136188378Y-114993184D01*
X136188865Y-114990733D01*
X136188867Y-114990731D01*
X136200500Y-114932248D01*
X136200500Y-114592752D01*
X136188867Y-114534269D01*
X136188865Y-114534267D01*
X136188378Y-114531815D01*
X136188378Y-114493185D01*
X136188865Y-114490732D01*
X136188867Y-114490731D01*
X136200500Y-114432248D01*
X136200500Y-114092752D01*
X136188867Y-114034269D01*
X136188865Y-114034266D01*
X136188378Y-114031816D01*
X136188378Y-113993187D01*
X136200500Y-113932246D01*
X136200500Y-113849202D01*
X136201719Y-113833715D01*
X136205000Y-113813000D01*
X136205000Y-113766500D01*
X136223907Y-113708309D01*
X136273407Y-113672345D01*
X136304000Y-113667500D01*
X137096000Y-113667500D01*
X137154191Y-113686407D01*
X137190155Y-113735907D01*
X137195000Y-113766499D01*
X137195000Y-113813000D01*
X137195151Y-113814923D01*
X137195152Y-113814939D01*
X137197377Y-113843207D01*
X137197378Y-113843220D01*
X137197530Y-113845144D01*
X137198281Y-113849889D01*
X137199500Y-113865371D01*
X137199500Y-113932247D01*
X137211621Y-113993185D01*
X137211621Y-114031812D01*
X137199500Y-114092751D01*
X137199500Y-114432247D01*
X137211621Y-114493185D01*
X137211621Y-114531812D01*
X137199500Y-114592751D01*
X137199500Y-114592752D01*
X137199500Y-114932248D01*
X137204070Y-114955221D01*
X137211133Y-114990731D01*
X137255447Y-115057052D01*
X137299761Y-115086662D01*
X137321769Y-115101367D01*
X137380252Y-115113000D01*
X137380253Y-115113000D01*
X138119747Y-115113000D01*
X138119748Y-115113000D01*
X138178231Y-115101367D01*
X138244552Y-115057052D01*
X138244551Y-115057052D01*
X138260925Y-115046112D01*
X138263233Y-115049566D01*
X138282404Y-115034461D01*
X138316647Y-115028350D01*
X138501566Y-115028350D01*
X138520878Y-115030252D01*
X138525664Y-115031203D01*
X138537500Y-115033558D01*
X138641230Y-115012925D01*
X138706971Y-114968998D01*
X138706971Y-114968997D01*
X138727590Y-114955221D01*
X138727591Y-114955219D01*
X138729167Y-114954167D01*
X138738582Y-114940074D01*
X138750884Y-114925083D01*
X139262582Y-114413385D01*
X139277571Y-114401084D01*
X139291667Y-114391667D01*
X139291668Y-114391664D01*
X139298464Y-114387124D01*
X139357353Y-114370517D01*
X139414756Y-114391696D01*
X139423468Y-114399437D01*
X139786609Y-114762578D01*
X139798920Y-114777580D01*
X139808333Y-114791668D01*
X139830528Y-114806498D01*
X139874455Y-114835848D01*
X139896270Y-114850425D01*
X140000000Y-114871058D01*
X140012746Y-114868522D01*
X140016622Y-114867752D01*
X140035934Y-114865850D01*
X142652732Y-114865850D01*
X142710923Y-114884757D01*
X142746887Y-114934257D01*
X142747945Y-114937731D01*
X142775771Y-115035528D01*
X142775772Y-115035530D01*
X142874940Y-115234686D01*
X142874941Y-115234687D01*
X142874942Y-115234689D01*
X143009019Y-115412236D01*
X143173438Y-115562124D01*
X143362599Y-115679247D01*
X143570060Y-115759618D01*
X143570063Y-115759619D01*
X143788755Y-115800500D01*
X143788757Y-115800500D01*
X144011245Y-115800500D01*
X144229936Y-115759619D01*
X144229937Y-115759618D01*
X144229940Y-115759618D01*
X144437401Y-115679247D01*
X144626562Y-115562124D01*
X144790981Y-115412236D01*
X144925058Y-115234689D01*
X145024229Y-115035528D01*
X145085115Y-114821536D01*
X145105643Y-114600000D01*
X145085115Y-114378464D01*
X145024229Y-114164472D01*
X144925058Y-113965311D01*
X144790981Y-113787764D01*
X144626562Y-113637876D01*
X144437401Y-113520753D01*
X144437399Y-113520752D01*
X144229936Y-113440380D01*
X144011245Y-113399500D01*
X144011243Y-113399500D01*
X143788757Y-113399500D01*
X143788755Y-113399500D01*
X143570063Y-113440380D01*
X143362600Y-113520752D01*
X143173436Y-113637877D01*
X143065903Y-113735907D01*
X143009019Y-113787764D01*
X142968505Y-113841413D01*
X142874940Y-113965313D01*
X142808025Y-114099697D01*
X142775771Y-114164472D01*
X142747952Y-114262244D01*
X142713842Y-114313038D01*
X142656390Y-114334082D01*
X142652732Y-114334150D01*
X142081678Y-114334150D01*
X142023487Y-114315243D01*
X141987523Y-114265743D01*
X141987523Y-114204557D01*
X141999346Y-114180173D01*
X142001073Y-114177588D01*
X142013384Y-114162583D01*
X143904706Y-112271261D01*
X143959221Y-112243486D01*
X144019653Y-112253057D01*
X144026803Y-112257083D01*
X144062599Y-112279247D01*
X144270060Y-112359618D01*
X144270063Y-112359619D01*
X144488755Y-112400500D01*
X144488757Y-112400500D01*
X144711245Y-112400500D01*
X144929936Y-112359619D01*
X144929937Y-112359618D01*
X144929940Y-112359618D01*
X145137401Y-112279247D01*
X145326562Y-112162124D01*
X145490981Y-112012236D01*
X145625058Y-111834689D01*
X145724229Y-111635528D01*
X145785115Y-111421536D01*
X145805643Y-111200000D01*
X145785115Y-110978464D01*
X145724229Y-110764472D01*
X145625058Y-110565311D01*
X145490981Y-110387764D01*
X145326562Y-110237876D01*
X145137401Y-110120753D01*
X145137399Y-110120752D01*
X144929936Y-110040380D01*
X144711245Y-109999500D01*
X144711243Y-109999500D01*
X144488757Y-109999500D01*
X144488755Y-109999500D01*
X144270063Y-110040380D01*
X144062600Y-110120752D01*
X143873436Y-110237877D01*
X143709020Y-110387763D01*
X143709019Y-110387764D01*
X143695779Y-110405297D01*
X143574940Y-110565313D01*
X143477533Y-110760933D01*
X143475771Y-110764472D01*
X143414885Y-110978464D01*
X143394357Y-111200000D01*
X143414885Y-111421536D01*
X143466549Y-111603117D01*
X143475772Y-111635530D01*
X143547977Y-111780537D01*
X143556990Y-111841055D01*
X143529360Y-111894669D01*
X141718877Y-113705154D01*
X141664360Y-113732931D01*
X141648873Y-113734150D01*
X140551127Y-113734150D01*
X140492936Y-113715243D01*
X140481123Y-113705154D01*
X139394846Y-112618876D01*
X139367069Y-112564359D01*
X139365850Y-112548872D01*
X139365850Y-111935934D01*
X139367752Y-111916619D01*
X139371058Y-111900000D01*
X139371057Y-111899998D01*
X139371058Y-111899997D01*
X139368660Y-111887942D01*
X139375850Y-111827181D01*
X139417382Y-111782251D01*
X139477392Y-111770313D01*
X139532957Y-111795928D01*
X139550168Y-111816900D01*
X139662027Y-111999438D01*
X139817972Y-112182027D01*
X139996381Y-112334402D01*
X140000561Y-112337972D01*
X140205296Y-112463433D01*
X140427137Y-112555323D01*
X140660621Y-112611377D01*
X140900000Y-112630217D01*
X141139379Y-112611377D01*
X141372863Y-112555323D01*
X141594704Y-112463433D01*
X141799439Y-112337972D01*
X141982027Y-112182027D01*
X142137972Y-111999439D01*
X142263433Y-111794704D01*
X142355323Y-111572863D01*
X142411377Y-111339379D01*
X142430217Y-111100000D01*
X142411377Y-110860621D01*
X142355323Y-110627137D01*
X142263433Y-110405296D01*
X142137972Y-110200561D01*
X142137968Y-110200556D01*
X141982027Y-110017972D01*
X141799443Y-109862031D01*
X141799441Y-109862029D01*
X141799439Y-109862028D01*
X141594704Y-109736567D01*
X141594702Y-109736566D01*
X141372864Y-109644677D01*
X141200205Y-109603226D01*
X141139379Y-109588623D01*
X140900000Y-109569783D01*
X140899999Y-109569783D01*
X140660621Y-109588623D01*
X140427135Y-109644677D01*
X140205297Y-109736566D01*
X140000556Y-109862031D01*
X139817972Y-110017972D01*
X139662031Y-110200556D01*
X139536566Y-110405297D01*
X139444677Y-110627135D01*
X139404906Y-110792797D01*
X139388623Y-110860621D01*
X139369783Y-111100000D01*
X139388623Y-111339379D01*
X139415710Y-111452206D01*
X139444678Y-111572867D01*
X139457208Y-111603117D01*
X139462009Y-111664113D01*
X139430039Y-111716282D01*
X139373511Y-111739697D01*
X139314016Y-111725413D01*
X139306696Y-111718375D01*
X139277580Y-111698920D01*
X139262578Y-111686609D01*
X139033792Y-111457823D01*
X139006015Y-111403306D01*
X139005491Y-111400001D01*
X139005492Y-111400000D01*
X138985646Y-111274696D01*
X138928050Y-111161658D01*
X138838342Y-111071950D01*
X138725304Y-111014354D01*
X138725303Y-111014353D01*
X138725302Y-111014353D01*
X138600000Y-110994507D01*
X138474697Y-111014353D01*
X138361659Y-111071949D01*
X138271949Y-111161659D01*
X138214353Y-111274697D01*
X138194507Y-111400000D01*
X138214353Y-111525302D01*
X138214353Y-111525303D01*
X138214354Y-111525304D01*
X138271950Y-111638342D01*
X138305155Y-111671547D01*
X138332931Y-111726062D01*
X138334150Y-111741549D01*
X138334150Y-112075330D01*
X138315243Y-112133521D01*
X138265743Y-112169485D01*
X138204557Y-112169485D01*
X138184373Y-112160316D01*
X138122695Y-112123465D01*
X138122694Y-112123464D01*
X138122693Y-112123464D01*
X138064502Y-112104557D01*
X138064496Y-112104555D01*
X138001003Y-112094500D01*
X138001000Y-112094500D01*
X135399500Y-112094500D01*
X135341309Y-112075593D01*
X135305345Y-112026093D01*
X135300500Y-111995500D01*
X135300500Y-111665478D01*
X135319407Y-111607287D01*
X135329490Y-111595480D01*
X136066405Y-110858564D01*
X136079496Y-110849147D01*
X136084225Y-110843959D01*
X136084228Y-110843958D01*
X136115877Y-110809239D01*
X136118994Y-110805975D01*
X136132174Y-110792797D01*
X136132238Y-110792702D01*
X136140745Y-110781961D01*
X136159916Y-110760933D01*
X136163466Y-110751766D01*
X136174104Y-110731585D01*
X136179656Y-110723481D01*
X136186169Y-110695785D01*
X136190221Y-110682702D01*
X136200500Y-110656173D01*
X136200500Y-110646347D01*
X136203130Y-110623679D01*
X136203706Y-110621231D01*
X136205379Y-110614119D01*
X136201449Y-110585946D01*
X136200500Y-110572268D01*
X136200500Y-108529500D01*
X136219407Y-108471309D01*
X136268907Y-108435345D01*
X136299500Y-108430500D01*
X136864521Y-108430500D01*
X136922712Y-108449407D01*
X136934525Y-108459496D01*
X137475428Y-109000399D01*
X137503205Y-109054915D01*
X137514353Y-109125302D01*
X137514353Y-109125303D01*
X137514354Y-109125304D01*
X137571950Y-109238342D01*
X137661658Y-109328050D01*
X137774696Y-109385646D01*
X137900000Y-109405492D01*
X138025304Y-109385646D01*
X138138342Y-109328050D01*
X138228050Y-109238342D01*
X138285646Y-109125304D01*
X138305492Y-109000000D01*
X138285646Y-108874696D01*
X138228050Y-108761658D01*
X138138342Y-108671950D01*
X138031887Y-108617708D01*
X137988624Y-108574445D01*
X137979053Y-108514013D01*
X138006830Y-108459496D01*
X138061347Y-108431719D01*
X138076834Y-108430500D01*
X138229747Y-108430500D01*
X138229748Y-108430500D01*
X138288231Y-108418867D01*
X138354552Y-108374552D01*
X138355906Y-108372525D01*
X138392685Y-108317483D01*
X138440735Y-108279604D01*
X138501873Y-108277202D01*
X138552747Y-108311195D01*
X138557315Y-108317483D01*
X138595447Y-108374552D01*
X138633533Y-108400000D01*
X138661769Y-108418867D01*
X138720252Y-108430500D01*
X138720253Y-108430500D01*
X139499747Y-108430500D01*
X139499748Y-108430500D01*
X139558231Y-108418867D01*
X139624552Y-108374552D01*
X139668867Y-108308231D01*
X139680500Y-108249748D01*
X139680500Y-106871899D01*
X139699407Y-106813708D01*
X139709490Y-106801901D01*
X140105483Y-106405909D01*
X140105482Y-106405909D01*
X140128050Y-106383342D01*
X140128052Y-106383337D01*
X140129410Y-106381980D01*
X140131160Y-106377236D01*
X140139003Y-106361841D01*
X140147113Y-106348608D01*
X140161296Y-106329090D01*
X140168751Y-106306144D01*
X140174695Y-106291796D01*
X140185645Y-106270305D01*
X140185646Y-106270304D01*
X140189419Y-106246473D01*
X140193045Y-106231370D01*
X140200499Y-106208433D01*
X140200499Y-106184718D01*
X140200500Y-106184705D01*
X140200500Y-106128808D01*
X140201719Y-106113320D01*
X140205492Y-106089500D01*
X140185646Y-105964196D01*
X140128050Y-105851158D01*
X140038342Y-105761450D01*
X139925304Y-105703854D01*
X139925303Y-105703853D01*
X139925302Y-105703853D01*
X139799999Y-105684007D01*
X139794983Y-105684802D01*
X139734551Y-105675228D01*
X139691288Y-105631961D01*
X139680500Y-105587020D01*
X139680500Y-105420253D01*
X139680500Y-105420252D01*
X139668867Y-105361769D01*
X139646336Y-105328050D01*
X139624552Y-105295447D01*
X139558231Y-105251133D01*
X139558221Y-105251131D01*
X139499748Y-105239500D01*
X138720252Y-105239500D01*
X138695211Y-105244481D01*
X138661768Y-105251133D01*
X138595447Y-105295448D01*
X138557315Y-105352516D01*
X138509264Y-105390395D01*
X138448126Y-105392797D01*
X138397253Y-105358803D01*
X138392685Y-105352516D01*
X138354552Y-105295448D01*
X138288229Y-105251131D01*
X138262814Y-105246076D01*
X138209430Y-105216179D01*
X138183815Y-105160614D01*
X138184348Y-105133491D01*
X138185644Y-105125307D01*
X138185646Y-105125304D01*
X138205492Y-105000000D01*
X138185646Y-104874696D01*
X138128050Y-104761658D01*
X138038342Y-104671950D01*
X137925304Y-104614354D01*
X137925303Y-104614353D01*
X137925302Y-104614353D01*
X137800000Y-104594507D01*
X137674697Y-104614353D01*
X137561659Y-104671949D01*
X137471949Y-104761659D01*
X137414353Y-104874697D01*
X137394507Y-105000000D01*
X137414354Y-105125304D01*
X137416508Y-105129532D01*
X137426079Y-105189964D01*
X137398301Y-105244481D01*
X137383301Y-105256791D01*
X137325447Y-105295448D01*
X137287315Y-105352516D01*
X137239264Y-105390395D01*
X137178126Y-105392797D01*
X137127253Y-105358803D01*
X137122685Y-105352516D01*
X137084552Y-105295448D01*
X137018231Y-105251133D01*
X137018221Y-105251131D01*
X136959748Y-105239500D01*
X136959747Y-105239500D01*
X136277313Y-105239500D01*
X136219122Y-105220593D01*
X136193141Y-105192617D01*
X136185061Y-105179567D01*
X136170085Y-105155379D01*
X136163696Y-105143257D01*
X136152205Y-105117233D01*
X136145256Y-105110284D01*
X136131090Y-105092399D01*
X136125919Y-105084048D01*
X136103221Y-105066907D01*
X136092879Y-105057908D01*
X135629496Y-104594525D01*
X135601719Y-104540008D01*
X135600500Y-104524521D01*
X135600500Y-104459499D01*
X135619407Y-104401308D01*
X135668907Y-104365344D01*
X135680187Y-104362401D01*
X135689744Y-104360500D01*
X135689748Y-104360500D01*
X135748231Y-104348867D01*
X135814552Y-104304552D01*
X135852684Y-104247483D01*
X135900735Y-104209604D01*
X135961873Y-104207202D01*
X136012747Y-104241195D01*
X136017315Y-104247483D01*
X136055447Y-104304552D01*
X136071232Y-104315099D01*
X136121769Y-104348867D01*
X136180252Y-104360500D01*
X136180253Y-104360500D01*
X136189815Y-104362402D01*
X136189035Y-104366320D01*
X136229312Y-104379407D01*
X136265276Y-104428907D01*
X136268436Y-104441313D01*
X136269522Y-104447124D01*
X136271101Y-104460740D01*
X136272414Y-104489153D01*
X136276384Y-104498144D01*
X136283132Y-104519935D01*
X136284938Y-104529594D01*
X136299911Y-104553778D01*
X136306300Y-104565898D01*
X136317794Y-104591927D01*
X136317795Y-104591928D01*
X136324743Y-104598877D01*
X136338908Y-104616759D01*
X136343751Y-104624581D01*
X136352989Y-104639500D01*
X136376703Y-104673439D01*
X136379781Y-104686802D01*
X136389772Y-104749883D01*
X136389772Y-104749884D01*
X136389773Y-104749885D01*
X136447369Y-104862923D01*
X136537077Y-104952631D01*
X136650115Y-105010227D01*
X136775419Y-105030073D01*
X136900723Y-105010227D01*
X137013761Y-104952631D01*
X137103469Y-104862923D01*
X137161065Y-104749885D01*
X137180911Y-104624581D01*
X137161065Y-104499277D01*
X137158635Y-104494508D01*
X137098013Y-104375531D01*
X137088441Y-104315099D01*
X137103907Y-104275585D01*
X137122686Y-104247480D01*
X137170738Y-104209603D01*
X137231876Y-104207203D01*
X137282749Y-104241198D01*
X137287315Y-104247483D01*
X137325447Y-104304552D01*
X137341232Y-104315099D01*
X137391769Y-104348867D01*
X137450252Y-104360500D01*
X137450253Y-104360500D01*
X138229747Y-104360500D01*
X138229748Y-104360500D01*
X138288231Y-104348867D01*
X138354552Y-104304552D01*
X138398867Y-104238231D01*
X138410500Y-104179748D01*
X138410500Y-101635477D01*
X138429407Y-101577287D01*
X138439497Y-101565474D01*
X138495476Y-101509496D01*
X138549993Y-101481719D01*
X138565479Y-101480500D01*
X140514521Y-101480500D01*
X140572712Y-101499407D01*
X140584525Y-101509496D01*
X142575428Y-103500399D01*
X142603205Y-103554915D01*
X142614353Y-103625302D01*
X142614353Y-103625303D01*
X142614354Y-103625304D01*
X142671950Y-103738342D01*
X142761658Y-103828050D01*
X142874696Y-103885646D01*
X143000000Y-103905492D01*
X143125304Y-103885646D01*
X143238342Y-103828050D01*
X143328050Y-103738342D01*
X143385646Y-103625304D01*
X143405492Y-103500000D01*
X143385646Y-103374696D01*
X143328050Y-103261658D01*
X143238342Y-103171950D01*
X143125304Y-103114354D01*
X143125303Y-103114353D01*
X143125302Y-103114353D01*
X143054916Y-103103205D01*
X143000400Y-103075428D01*
X140938566Y-101013595D01*
X140929145Y-101000501D01*
X140889273Y-100964152D01*
X140885967Y-100960995D01*
X140872796Y-100947825D01*
X140872697Y-100947757D01*
X140861954Y-100939247D01*
X140857013Y-100934743D01*
X140840933Y-100920084D01*
X140831762Y-100916531D01*
X140811587Y-100905896D01*
X140803481Y-100900344D01*
X140775797Y-100893832D01*
X140762704Y-100889777D01*
X140736175Y-100879500D01*
X140736173Y-100879500D01*
X140726348Y-100879500D01*
X140703682Y-100876870D01*
X140694119Y-100874621D01*
X140694118Y-100874621D01*
X140665947Y-100878551D01*
X140652269Y-100879500D01*
X138465169Y-100879500D01*
X138449243Y-100876901D01*
X138395346Y-100879394D01*
X138390773Y-100879500D01*
X138372151Y-100879500D01*
X138372022Y-100879524D01*
X138358427Y-100881100D01*
X138330009Y-100882414D01*
X138321014Y-100886386D01*
X138299227Y-100893132D01*
X138289565Y-100894938D01*
X138265380Y-100909912D01*
X138253259Y-100916301D01*
X138227234Y-100927792D01*
X138220284Y-100934743D01*
X138202408Y-100948903D01*
X138194048Y-100954080D01*
X138176904Y-100976781D01*
X138167907Y-100987120D01*
X138014526Y-101140503D01*
X137960010Y-101168281D01*
X137944522Y-101169500D01*
X137450252Y-101169500D01*
X137421010Y-101175316D01*
X137391768Y-101181133D01*
X137325447Y-101225448D01*
X137287315Y-101282516D01*
X137239264Y-101320395D01*
X137178126Y-101322797D01*
X137127253Y-101288803D01*
X137122685Y-101282516D01*
X137084552Y-101225448D01*
X137018231Y-101181133D01*
X137018230Y-101181133D01*
X136959748Y-101169500D01*
X136180252Y-101169500D01*
X136151010Y-101175316D01*
X136121768Y-101181133D01*
X136055447Y-101225448D01*
X136017315Y-101282516D01*
X135969264Y-101320395D01*
X135908126Y-101322797D01*
X135857253Y-101288803D01*
X135852685Y-101282516D01*
X135814552Y-101225448D01*
X135748231Y-101181133D01*
X135689748Y-101169500D01*
X134910252Y-101169500D01*
X134881010Y-101175316D01*
X134851768Y-101181133D01*
X134785447Y-101225448D01*
X134747315Y-101282516D01*
X134699264Y-101320395D01*
X134638126Y-101322797D01*
X134587253Y-101288803D01*
X134582685Y-101282516D01*
X134544552Y-101225448D01*
X134478231Y-101181133D01*
X134478230Y-101181133D01*
X134419748Y-101169500D01*
X133640252Y-101169500D01*
X133611010Y-101175316D01*
X133581768Y-101181133D01*
X133515447Y-101225447D01*
X133471133Y-101291768D01*
X133459499Y-101350253D01*
X133459499Y-101870983D01*
X133440592Y-101929174D01*
X133391092Y-101965138D01*
X133329906Y-101965138D01*
X133314497Y-101958645D01*
X133223434Y-101910852D01*
X133075949Y-101874500D01*
X133005072Y-101874500D01*
X125005072Y-101874500D01*
X117008285Y-101874500D01*
X117000000Y-101874500D01*
X116924051Y-101874500D01*
X116776564Y-101910852D01*
X116642068Y-101981441D01*
X116528367Y-102082171D01*
X116442079Y-102207179D01*
X116388214Y-102349211D01*
X116369905Y-102499999D01*
X100025500Y-102499999D01*
X100025500Y-100124500D01*
X100044407Y-100066309D01*
X100093907Y-100030345D01*
X100124500Y-100025500D01*
X149875500Y-100025500D01*
X149933691Y-100044407D01*
G37*
G04 #@! TD.AperFunction*
G04 #@! TA.AperFunction,Conductor*
G36*
X138059191Y-112318907D02*
G01*
X138095155Y-112368407D01*
X138100000Y-112399000D01*
X138100000Y-113813000D01*
X138081093Y-113871191D01*
X138031593Y-113907155D01*
X138001000Y-113912000D01*
X137499500Y-113912000D01*
X137441309Y-113893093D01*
X137405345Y-113843593D01*
X137400500Y-113813000D01*
X137400500Y-113642753D01*
X137396400Y-113622142D01*
X137388867Y-113584269D01*
X137374162Y-113562261D01*
X137344552Y-113517947D01*
X137278231Y-113473633D01*
X137264114Y-113470825D01*
X137219748Y-113462000D01*
X136180252Y-113462000D01*
X136151043Y-113467810D01*
X136121768Y-113473633D01*
X136055447Y-113517947D01*
X136011133Y-113584268D01*
X135999500Y-113642753D01*
X135999500Y-113813000D01*
X135980593Y-113871191D01*
X135931093Y-113907155D01*
X135900500Y-113912000D01*
X135399000Y-113912000D01*
X135340809Y-113893093D01*
X135304845Y-113843593D01*
X135300000Y-113813000D01*
X135300000Y-112399000D01*
X135318907Y-112340809D01*
X135368407Y-112304845D01*
X135399000Y-112300000D01*
X138001000Y-112300000D01*
X138059191Y-112318907D01*
G37*
G04 #@! TD.AperFunction*
M02*
