G04 #@! TF.GenerationSoftware,KiCad,Pcbnew,7.0.2*
G04 #@! TF.CreationDate,2023-07-30T22:18:18-04:00*
G04 #@! TF.ProjectId,TopExternalFaceRev1,546f7045-7874-4657-926e-616c46616365,rev?*
G04 #@! TF.SameCoordinates,Original*
G04 #@! TF.FileFunction,Copper,L3,Inr*
G04 #@! TF.FilePolarity,Positive*
%FSLAX46Y46*%
G04 Gerber Fmt 4.6, Leading zero omitted, Abs format (unit mm)*
G04 Created by KiCad (PCBNEW 7.0.2) date 2023-07-30 22:18:18*
%MOMM*%
%LPD*%
G01*
G04 APERTURE LIST*
G04 #@! TA.AperFunction,ViaPad*
%ADD10C,0.600000*%
G04 #@! TD*
G04 #@! TA.AperFunction,ViaPad*
%ADD11C,0.400000*%
G04 #@! TD*
G04 #@! TA.AperFunction,ViaPad*
%ADD12C,0.500000*%
G04 #@! TD*
G04 #@! TA.AperFunction,Conductor*
%ADD13C,0.130700*%
G04 #@! TD*
G04 APERTURE END LIST*
D10*
X131200000Y-107700000D03*
X144500000Y-127600000D03*
X109200000Y-106500000D03*
X119600000Y-109500000D03*
X109600000Y-115400000D03*
X122600000Y-122400000D03*
X122600000Y-127800000D03*
X114200000Y-103000000D03*
X147000000Y-147000000D03*
X128000000Y-127800000D03*
X147000000Y-103000000D03*
X148900000Y-108900000D03*
X103000000Y-147000000D03*
X127200000Y-123000000D03*
X113500000Y-147000000D03*
X103000000Y-103000000D03*
X146000000Y-122200000D03*
X144300000Y-109200000D03*
X143800000Y-118200000D03*
D11*
X139800000Y-106089500D03*
D12*
X141000000Y-125200000D03*
D11*
X104900000Y-108400000D03*
X143000000Y-103500000D03*
X123700000Y-108300000D03*
X138600000Y-111400000D03*
X127700000Y-122400000D03*
X139100000Y-113700000D03*
X132700000Y-105700000D03*
X134300000Y-104900000D03*
X137800000Y-105000000D03*
X128200000Y-109300000D03*
X109000000Y-108400000D03*
X128700000Y-105700000D03*
X105700000Y-105000000D03*
X126400000Y-109100000D03*
X110600000Y-108500000D03*
X136775419Y-104624581D03*
X137900000Y-109000000D03*
D12*
X142400000Y-119300000D03*
D13*
X121279000Y-129103800D02*
X121279000Y-121096200D01*
X113666800Y-113484000D02*
X136668100Y-113484000D01*
X131362600Y-118789500D02*
X131362600Y-131179800D01*
X116665600Y-116482800D02*
X133669400Y-116482800D01*
X119203000Y-131179800D02*
X119203000Y-119020200D01*
X129286600Y-129103800D02*
X121279000Y-129103800D01*
X120587000Y-120404200D02*
X129747900Y-120404200D01*
X131824000Y-131641200D02*
X118741600Y-131641200D01*
X113205500Y-137177300D02*
X113205500Y-113022700D01*
X118049600Y-117866800D02*
X132285300Y-117866800D01*
X129978600Y-129795800D02*
X120587000Y-129795800D01*
X130439900Y-119712200D02*
X130439900Y-130257100D01*
X134822700Y-115329400D02*
X134822700Y-134639900D01*
X133438700Y-133255900D02*
X117126900Y-133255900D01*
X114589500Y-114406700D02*
X135745400Y-114406700D01*
X136206700Y-113945400D02*
X136206700Y-136023900D01*
X132516000Y-117636100D02*
X132516000Y-132333200D01*
X138052100Y-112100000D02*
X138052100Y-137869300D01*
X137129400Y-136946600D02*
X113436200Y-136946600D01*
X112513500Y-137869300D02*
X112513500Y-112330700D01*
X133900000Y-116252100D02*
X133900000Y-133717200D01*
X112282800Y-138100000D02*
X112282800Y-112100000D01*
X114820200Y-114637400D02*
X135514700Y-114637400D01*
X117357600Y-117174800D02*
X132977300Y-117174800D01*
X135745400Y-135562600D02*
X114820200Y-135562600D01*
X129517300Y-120634900D02*
X129517300Y-129334500D01*
X128825200Y-121326900D02*
X128825200Y-128642400D01*
X136898800Y-113253400D02*
X136898800Y-136716000D01*
X132977300Y-117174800D02*
X132977300Y-132794500D01*
X135514700Y-114637400D02*
X135514700Y-135331900D01*
X130670600Y-130487800D02*
X119895000Y-130487800D01*
X115512200Y-134870600D02*
X115512200Y-115329400D01*
X135745400Y-114406700D02*
X135745400Y-135562600D01*
X119664300Y-119481500D02*
X130670600Y-119481500D01*
X118049600Y-132333200D02*
X118049600Y-117866800D01*
X135976100Y-114176100D02*
X135976100Y-135793300D01*
X115742900Y-115560100D02*
X134592000Y-115560100D01*
X117818900Y-132563900D02*
X117818900Y-117636100D01*
X121048300Y-129334500D02*
X121048300Y-120865500D01*
X114820200Y-135562600D02*
X114820200Y-114637400D01*
X129747900Y-120404200D02*
X129747900Y-129565100D01*
X114128200Y-113945400D02*
X136206700Y-113945400D01*
X118511000Y-131871800D02*
X118511000Y-118328200D01*
X117818900Y-117636100D02*
X132516000Y-117636100D01*
X112513500Y-112330700D02*
X137821500Y-112330700D01*
X132746700Y-132563900D02*
X117818900Y-132563900D01*
X137821500Y-137638700D02*
X112744100Y-137638700D01*
X133669400Y-133486600D02*
X116896200Y-133486600D01*
X136437400Y-136254600D02*
X114128200Y-136254600D01*
X115050900Y-135331900D02*
X115050900Y-114868100D01*
X136668100Y-113484000D02*
X136668100Y-136485300D01*
X120125700Y-119942900D02*
X130209300Y-119942900D01*
X133669400Y-116482800D02*
X133669400Y-133486600D01*
X135053400Y-134870600D02*
X115512200Y-134870600D01*
X118511000Y-118328200D02*
X131824000Y-118328200D01*
X138282800Y-111869300D02*
X138282800Y-111717200D01*
X130209300Y-119942900D02*
X130209300Y-130026500D01*
X112974800Y-112792000D02*
X137360100Y-112792000D01*
X116434900Y-116252100D02*
X133900000Y-116252100D01*
X120587000Y-129795800D02*
X120587000Y-120404200D01*
X115281500Y-115098700D02*
X135053400Y-115098700D01*
X118972300Y-118789500D02*
X131362600Y-118789500D01*
X119203000Y-119020200D02*
X131132000Y-119020200D01*
X120356300Y-120173500D02*
X129978600Y-120173500D01*
X121509700Y-121326900D02*
X128825200Y-121326900D01*
X112744100Y-137638700D02*
X112744100Y-112561300D01*
X137821500Y-112330700D02*
X137821500Y-137638700D01*
X115973600Y-115790800D02*
X134361400Y-115790800D01*
X128825200Y-128642400D02*
X121740400Y-128642400D01*
X121279000Y-121096200D02*
X129055900Y-121096200D01*
X136668100Y-136485300D02*
X113897500Y-136485300D01*
X132746700Y-117405500D02*
X132746700Y-132563900D01*
X138282800Y-111869300D02*
X138282800Y-138100000D01*
X134592000Y-115560100D02*
X134592000Y-134409200D01*
X131132000Y-130949200D02*
X119433600Y-130949200D01*
X130901300Y-130718500D02*
X119664300Y-130718500D01*
X113666800Y-136716000D02*
X113666800Y-113484000D01*
X132977300Y-132794500D02*
X117588300Y-132794500D01*
X115281500Y-135101300D02*
X115281500Y-115098700D01*
X129517300Y-129334500D02*
X121048300Y-129334500D01*
X119895000Y-130487800D02*
X119895000Y-119712200D01*
X131132000Y-119020200D02*
X131132000Y-130949200D01*
X133900000Y-133717200D02*
X116665600Y-133717200D01*
X120125700Y-130257100D02*
X120125700Y-119942900D01*
X116204200Y-116021400D02*
X134130700Y-116021400D01*
X134822700Y-134639900D02*
X115742900Y-134639900D01*
X121740400Y-128642400D02*
X121740400Y-121557600D01*
X117357600Y-133025200D02*
X117357600Y-117174800D01*
X136898800Y-136716000D02*
X113666800Y-136716000D01*
X114128200Y-136254600D02*
X114128200Y-113945400D01*
X135053400Y-115098700D02*
X135053400Y-134870600D01*
X113897500Y-136485300D02*
X113897500Y-113714700D01*
X115973600Y-134409200D02*
X115973600Y-115790800D01*
X134361400Y-115790800D02*
X134361400Y-134178600D01*
X133208000Y-133025200D02*
X117357600Y-133025200D01*
X117126900Y-116944100D02*
X133208000Y-116944100D01*
X114589500Y-135793300D02*
X114589500Y-114406700D01*
X131362600Y-131179800D02*
X119203000Y-131179800D01*
X120817700Y-129565100D02*
X120817700Y-120634900D01*
X113436200Y-113253400D02*
X136898800Y-113253400D01*
X132054600Y-118097500D02*
X132054600Y-131871800D01*
X133208000Y-116944100D02*
X133208000Y-133025200D01*
X130901300Y-119250800D02*
X130901300Y-130718500D01*
X131593300Y-118558800D02*
X131593300Y-131410500D01*
X114358900Y-136023900D02*
X114358900Y-114176100D01*
X131824000Y-118328200D02*
X131824000Y-131641200D01*
X133438700Y-116713400D02*
X133438700Y-133255900D01*
X116896200Y-133486600D02*
X116896200Y-116713400D01*
X112744100Y-112561300D02*
X137590800Y-112561300D01*
X119433600Y-130949200D02*
X119433600Y-119250800D01*
X136206700Y-136023900D02*
X114358900Y-136023900D01*
X128311800Y-121788200D02*
X127700000Y-122400000D01*
X117588300Y-132794500D02*
X117588300Y-117405500D01*
X135284100Y-114868100D02*
X135284100Y-135101300D01*
X117588300Y-117405500D02*
X132746700Y-117405500D01*
X120356300Y-130026500D02*
X120356300Y-120173500D01*
X130209300Y-130026500D02*
X120356300Y-130026500D01*
X135976100Y-135793300D02*
X114589500Y-135793300D01*
X116434900Y-133947900D02*
X116434900Y-116252100D01*
X132516000Y-132333200D02*
X118049600Y-132333200D01*
X138282800Y-111717200D02*
X138600000Y-111400000D01*
X117126900Y-133255900D02*
X117126900Y-116944100D01*
X134130700Y-116021400D02*
X134130700Y-133947900D01*
X119433600Y-119250800D02*
X130901300Y-119250800D01*
X116204200Y-134178600D02*
X116204200Y-116021400D01*
X138282800Y-138100000D02*
X112282800Y-138100000D01*
X118741600Y-131641200D02*
X118741600Y-118558800D01*
X129055900Y-121096200D02*
X129055900Y-128873100D01*
X121971000Y-128411800D02*
X121971000Y-121788200D01*
X132054600Y-131871800D02*
X118511000Y-131871800D01*
X134592000Y-134409200D02*
X115973600Y-134409200D01*
X130439900Y-130257100D02*
X120125700Y-130257100D01*
X112974800Y-137408000D02*
X112974800Y-112792000D01*
X115512200Y-115329400D02*
X134822700Y-115329400D01*
X131593300Y-131410500D02*
X118972300Y-131410500D01*
X137590800Y-137408000D02*
X112974800Y-137408000D01*
X113436200Y-136946600D02*
X113436200Y-113253400D01*
X128594600Y-121557600D02*
X128594600Y-128411800D01*
X137360100Y-137177300D02*
X113205500Y-137177300D01*
X138052100Y-137869300D02*
X112513500Y-137869300D01*
X121509700Y-128873100D02*
X121509700Y-121326900D01*
X116896200Y-116713400D02*
X133438700Y-116713400D01*
X119664300Y-130718500D02*
X119664300Y-119481500D01*
X113205500Y-113022700D02*
X137129400Y-113022700D01*
X132285300Y-117866800D02*
X132285300Y-132102500D01*
X121048300Y-120865500D02*
X129286600Y-120865500D01*
X134361400Y-134178600D02*
X116204200Y-134178600D01*
X128594600Y-128411800D02*
X121971000Y-128411800D01*
X118741600Y-118558800D02*
X131593300Y-118558800D01*
X115742900Y-134639900D02*
X115742900Y-115560100D01*
X121971000Y-121788200D02*
X128363900Y-121788200D01*
X137129400Y-113022700D02*
X137129400Y-136946600D01*
X137590800Y-112561300D02*
X137590800Y-137408000D01*
X129286600Y-120865500D02*
X129286600Y-129103800D01*
X118280300Y-132102500D02*
X118280300Y-118097500D01*
X118280300Y-118097500D02*
X132054600Y-118097500D01*
X132285300Y-132102500D02*
X118280300Y-132102500D01*
X128363900Y-121788200D02*
X128311800Y-121788200D01*
X130670600Y-119481500D02*
X130670600Y-130487800D01*
X113897500Y-113714700D02*
X136437400Y-113714700D01*
X129747900Y-129565100D02*
X120817700Y-129565100D01*
X136437400Y-113714700D02*
X136437400Y-136254600D01*
X114358900Y-114176100D02*
X135976100Y-114176100D01*
X115050900Y-114868100D02*
X135284100Y-114868100D01*
X129055900Y-128873100D02*
X121509700Y-128873100D01*
X129978600Y-120173500D02*
X129978600Y-129795800D01*
X135284100Y-135101300D02*
X115281500Y-135101300D01*
X119895000Y-119712200D02*
X130439900Y-119712200D01*
X121740400Y-121557600D02*
X128594600Y-121557600D01*
X137360100Y-112792000D02*
X137360100Y-137177300D01*
X120817700Y-120634900D02*
X129517300Y-120634900D01*
X135514700Y-135331900D02*
X115050900Y-135331900D01*
X112282800Y-112100000D02*
X138052100Y-112100000D01*
X118972300Y-131410500D02*
X118972300Y-118789500D01*
X134130700Y-133947900D02*
X116434900Y-133947900D01*
X116665600Y-133717200D02*
X116665600Y-116482800D01*
G04 #@! TA.AperFunction,Conductor*
G36*
X127323417Y-122072957D02*
G01*
X127359381Y-122122457D01*
X127359381Y-122183643D01*
X127353439Y-122197987D01*
X127330313Y-122243373D01*
X127314353Y-122274697D01*
X127294507Y-122400000D01*
X127314353Y-122525302D01*
X127314353Y-122525303D01*
X127314354Y-122525304D01*
X127371950Y-122638342D01*
X127461658Y-122728050D01*
X127574696Y-122785646D01*
X127700000Y-122805492D01*
X127825304Y-122785646D01*
X127938342Y-122728050D01*
X128028050Y-122638342D01*
X128085646Y-122525304D01*
X128105492Y-122400000D01*
X128105491Y-122399999D01*
X128106016Y-122396691D01*
X128133792Y-122342176D01*
X128134690Y-122341278D01*
X128159746Y-122316221D01*
X128214260Y-122288444D01*
X128274692Y-122298014D01*
X128317958Y-122341278D01*
X128328749Y-122386225D01*
X128328750Y-128046950D01*
X128309843Y-128105141D01*
X128260343Y-128141105D01*
X128229750Y-128145950D01*
X122335850Y-128145950D01*
X122277659Y-128127043D01*
X122241695Y-128077543D01*
X122236850Y-128046950D01*
X122236850Y-122153050D01*
X122255757Y-122094859D01*
X122305257Y-122058895D01*
X122335850Y-122054050D01*
X127265226Y-122054050D01*
X127323417Y-122072957D01*
G37*
G04 #@! TD.AperFunction*
G04 #@! TA.AperFunction,Conductor*
G36*
X149933691Y-100044407D02*
G01*
X149969655Y-100093907D01*
X149974500Y-100124500D01*
X149974500Y-149875500D01*
X149955593Y-149933691D01*
X149906093Y-149969655D01*
X149875500Y-149974500D01*
X100124500Y-149974500D01*
X100066309Y-149955593D01*
X100030345Y-149906093D01*
X100025500Y-149875500D01*
X100025500Y-147500000D01*
X116369905Y-147500000D01*
X116388214Y-147650788D01*
X116442079Y-147792820D01*
X116497703Y-147873405D01*
X116528368Y-147917830D01*
X116642066Y-148018557D01*
X116642068Y-148018558D01*
X116748656Y-148074500D01*
X116776566Y-148089148D01*
X116924051Y-148125500D01*
X133075949Y-148125500D01*
X133223434Y-148089148D01*
X133357934Y-148018557D01*
X133471632Y-147917830D01*
X133557921Y-147792819D01*
X133611785Y-147650791D01*
X133630094Y-147500000D01*
X133611785Y-147349209D01*
X133557921Y-147207181D01*
X133471632Y-147082170D01*
X133357934Y-146981443D01*
X133357932Y-146981442D01*
X133357931Y-146981441D01*
X133223435Y-146910852D01*
X133075949Y-146874500D01*
X133005072Y-146874500D01*
X125005072Y-146874500D01*
X117008285Y-146874500D01*
X117000000Y-146874500D01*
X116924051Y-146874500D01*
X116776564Y-146910852D01*
X116642068Y-146981441D01*
X116528367Y-147082171D01*
X116442079Y-147207179D01*
X116388214Y-147349211D01*
X116369905Y-147500000D01*
X100025500Y-147500000D01*
X100025500Y-138900000D01*
X107569783Y-138900000D01*
X107588623Y-139139379D01*
X107644677Y-139372863D01*
X107736567Y-139594704D01*
X107862028Y-139799439D01*
X107862029Y-139799441D01*
X107862031Y-139799443D01*
X108017972Y-139982027D01*
X108196381Y-140134402D01*
X108200561Y-140137972D01*
X108405296Y-140263433D01*
X108627137Y-140355323D01*
X108860621Y-140411377D01*
X109100000Y-140430217D01*
X109339379Y-140411377D01*
X109572863Y-140355323D01*
X109794704Y-140263433D01*
X109999439Y-140137972D01*
X110182027Y-139982027D01*
X110337972Y-139799439D01*
X110463433Y-139594704D01*
X110555323Y-139372863D01*
X110611377Y-139139379D01*
X110630217Y-138900000D01*
X139369783Y-138900000D01*
X139388623Y-139139379D01*
X139444677Y-139372863D01*
X139536567Y-139594704D01*
X139662028Y-139799439D01*
X139662029Y-139799441D01*
X139662031Y-139799443D01*
X139817972Y-139982027D01*
X139996381Y-140134402D01*
X140000561Y-140137972D01*
X140205296Y-140263433D01*
X140427137Y-140355323D01*
X140660621Y-140411377D01*
X140900000Y-140430217D01*
X141139379Y-140411377D01*
X141372863Y-140355323D01*
X141594704Y-140263433D01*
X141799439Y-140137972D01*
X141982027Y-139982027D01*
X142137972Y-139799439D01*
X142263433Y-139594704D01*
X142355323Y-139372863D01*
X142411377Y-139139379D01*
X142430217Y-138900000D01*
X142411377Y-138660621D01*
X142355323Y-138427137D01*
X142263433Y-138205296D01*
X142137972Y-138000561D01*
X142137968Y-138000556D01*
X141982027Y-137817972D01*
X141799443Y-137662031D01*
X141799441Y-137662029D01*
X141799439Y-137662028D01*
X141594704Y-137536567D01*
X141594702Y-137536566D01*
X141372864Y-137444677D01*
X141256121Y-137416649D01*
X141139379Y-137388623D01*
X140900000Y-137369783D01*
X140899999Y-137369783D01*
X140660621Y-137388623D01*
X140427135Y-137444677D01*
X140205297Y-137536566D01*
X140000556Y-137662031D01*
X139817972Y-137817972D01*
X139662031Y-138000556D01*
X139536566Y-138205297D01*
X139444677Y-138427135D01*
X139444677Y-138427137D01*
X139388623Y-138660621D01*
X139369783Y-138900000D01*
X110630217Y-138900000D01*
X110611377Y-138660621D01*
X110555323Y-138427137D01*
X110463433Y-138205296D01*
X110398907Y-138099999D01*
X112011741Y-138099999D01*
X112015913Y-138120973D01*
X112016950Y-138126182D01*
X112032375Y-138203729D01*
X112091133Y-138291667D01*
X112179071Y-138350425D01*
X112256618Y-138365850D01*
X112282799Y-138371058D01*
X112282799Y-138371057D01*
X112282800Y-138371058D01*
X112299421Y-138367751D01*
X112318734Y-138365850D01*
X138246866Y-138365850D01*
X138266178Y-138367751D01*
X138282800Y-138371058D01*
X138386529Y-138350425D01*
X138474467Y-138291667D01*
X138533225Y-138203729D01*
X138548650Y-138126182D01*
X138553858Y-138100000D01*
X138550552Y-138083378D01*
X138548650Y-138064064D01*
X138548650Y-133075949D01*
X146874500Y-133075949D01*
X146910852Y-133223435D01*
X146933708Y-133266983D01*
X146981443Y-133357934D01*
X147082170Y-133471632D01*
X147162756Y-133527256D01*
X147207179Y-133557920D01*
X147207180Y-133557920D01*
X147207181Y-133557921D01*
X147349209Y-133611785D01*
X147500000Y-133630094D01*
X147650791Y-133611785D01*
X147792819Y-133557921D01*
X147917830Y-133471632D01*
X148018557Y-133357934D01*
X148089148Y-133223434D01*
X148125500Y-133075949D01*
X148125500Y-133000000D01*
X148125500Y-132991715D01*
X148125500Y-124994928D01*
X148125500Y-124994927D01*
X148125500Y-116994928D01*
X148125500Y-116924051D01*
X148089148Y-116776566D01*
X148018557Y-116642066D01*
X147917830Y-116528368D01*
X147873405Y-116497703D01*
X147792820Y-116442079D01*
X147650788Y-116388214D01*
X147500000Y-116369905D01*
X147349211Y-116388214D01*
X147207179Y-116442079D01*
X147082171Y-116528367D01*
X146981441Y-116642068D01*
X146910852Y-116776564D01*
X146874500Y-116924050D01*
X146874500Y-133075949D01*
X138548650Y-133075949D01*
X138548650Y-125200000D01*
X140544866Y-125200000D01*
X140563302Y-125328227D01*
X140617116Y-125446062D01*
X140701949Y-125543965D01*
X140701951Y-125543967D01*
X140810931Y-125614004D01*
X140935228Y-125650500D01*
X141064772Y-125650500D01*
X141189069Y-125614004D01*
X141298049Y-125543967D01*
X141382882Y-125446063D01*
X141382881Y-125446063D01*
X141382883Y-125446062D01*
X141436697Y-125328227D01*
X141455133Y-125200000D01*
X141436697Y-125071772D01*
X141382883Y-124953937D01*
X141298050Y-124856034D01*
X141298049Y-124856033D01*
X141243559Y-124821014D01*
X141189068Y-124785995D01*
X141064772Y-124749500D01*
X140935228Y-124749500D01*
X140810931Y-124785995D01*
X140701949Y-124856034D01*
X140617116Y-124953937D01*
X140563302Y-125071772D01*
X140544866Y-125200000D01*
X138548650Y-125200000D01*
X138548650Y-119300000D01*
X141944866Y-119300000D01*
X141963302Y-119428227D01*
X142017116Y-119546062D01*
X142101949Y-119643965D01*
X142101951Y-119643967D01*
X142210931Y-119714004D01*
X142335228Y-119750500D01*
X142464772Y-119750500D01*
X142589069Y-119714004D01*
X142698049Y-119643967D01*
X142782882Y-119546063D01*
X142782881Y-119546063D01*
X142782883Y-119546062D01*
X142836697Y-119428227D01*
X142855133Y-119300000D01*
X142836697Y-119171772D01*
X142782883Y-119053937D01*
X142698050Y-118956034D01*
X142698049Y-118956033D01*
X142643559Y-118921014D01*
X142589068Y-118885995D01*
X142464772Y-118849500D01*
X142335228Y-118849500D01*
X142210931Y-118885995D01*
X142101949Y-118956034D01*
X142017116Y-119053937D01*
X141963302Y-119171772D01*
X141944866Y-119300000D01*
X138548650Y-119300000D01*
X138548650Y-118200000D01*
X143294352Y-118200000D01*
X143314834Y-118342455D01*
X143314835Y-118342457D01*
X143374623Y-118473373D01*
X143468872Y-118582143D01*
X143468874Y-118582145D01*
X143589945Y-118659952D01*
X143589947Y-118659953D01*
X143728039Y-118700500D01*
X143871961Y-118700500D01*
X144010053Y-118659953D01*
X144131128Y-118582143D01*
X144225377Y-118473373D01*
X144285165Y-118342457D01*
X144305647Y-118200000D01*
X144285165Y-118057543D01*
X144225377Y-117926627D01*
X144131128Y-117817857D01*
X144131127Y-117817856D01*
X144131125Y-117817854D01*
X144010054Y-117740047D01*
X143871961Y-117699500D01*
X143728039Y-117699500D01*
X143589945Y-117740047D01*
X143468874Y-117817854D01*
X143374622Y-117926628D01*
X143314834Y-118057544D01*
X143294352Y-118200000D01*
X138548650Y-118200000D01*
X138548650Y-113912455D01*
X138567557Y-113854264D01*
X138617057Y-113818300D01*
X138678243Y-113818300D01*
X138727743Y-113854264D01*
X138735854Y-113867501D01*
X138771950Y-113938342D01*
X138861658Y-114028050D01*
X138974696Y-114085646D01*
X139100000Y-114105492D01*
X139225304Y-114085646D01*
X139338342Y-114028050D01*
X139428050Y-113938342D01*
X139485646Y-113825304D01*
X139505492Y-113700000D01*
X139485646Y-113574696D01*
X139428050Y-113461658D01*
X139338342Y-113371950D01*
X139225304Y-113314354D01*
X139225303Y-113314353D01*
X139225302Y-113314353D01*
X139100000Y-113294507D01*
X138974697Y-113314353D01*
X138861659Y-113371949D01*
X138771949Y-113461659D01*
X138735860Y-113532489D01*
X138692595Y-113575754D01*
X138632163Y-113585325D01*
X138577646Y-113557547D01*
X138549869Y-113503031D01*
X138548650Y-113487544D01*
X138548650Y-111898178D01*
X138567557Y-111839987D01*
X138617057Y-111804023D01*
X138632154Y-111800399D01*
X138725304Y-111785646D01*
X138838342Y-111728050D01*
X138928050Y-111638342D01*
X138985646Y-111525304D01*
X139005492Y-111400000D01*
X138985646Y-111274696D01*
X138928050Y-111161658D01*
X138866391Y-111099999D01*
X139369783Y-111099999D01*
X139388623Y-111339378D01*
X139444677Y-111572864D01*
X139529066Y-111776595D01*
X139536567Y-111794704D01*
X139662028Y-111999439D01*
X139662029Y-111999441D01*
X139662031Y-111999443D01*
X139817972Y-112182027D01*
X139996381Y-112334402D01*
X140000561Y-112337972D01*
X140205296Y-112463433D01*
X140427137Y-112555323D01*
X140660621Y-112611377D01*
X140900000Y-112630217D01*
X141139379Y-112611377D01*
X141372863Y-112555323D01*
X141594704Y-112463433D01*
X141799439Y-112337972D01*
X141982027Y-112182027D01*
X142137972Y-111999439D01*
X142263433Y-111794704D01*
X142355323Y-111572863D01*
X142411377Y-111339379D01*
X142430217Y-111100000D01*
X142411377Y-110860621D01*
X142355323Y-110627137D01*
X142263433Y-110405296D01*
X142137972Y-110200561D01*
X142137968Y-110200556D01*
X141982027Y-110017972D01*
X141799443Y-109862031D01*
X141799441Y-109862029D01*
X141799439Y-109862028D01*
X141594704Y-109736567D01*
X141519683Y-109705492D01*
X141372864Y-109644677D01*
X141256121Y-109616650D01*
X141139379Y-109588623D01*
X140900000Y-109569783D01*
X140899999Y-109569783D01*
X140660621Y-109588623D01*
X140427135Y-109644677D01*
X140205297Y-109736566D01*
X140000556Y-109862031D01*
X139817972Y-110017972D01*
X139662031Y-110200556D01*
X139536566Y-110405297D01*
X139444677Y-110627135D01*
X139388623Y-110860621D01*
X139369783Y-111099999D01*
X138866391Y-111099999D01*
X138838342Y-111071950D01*
X138725304Y-111014354D01*
X138725303Y-111014353D01*
X138725302Y-111014353D01*
X138600000Y-110994507D01*
X138474697Y-111014353D01*
X138361659Y-111071949D01*
X138271949Y-111161659D01*
X138214353Y-111274697D01*
X138193984Y-111403305D01*
X138166207Y-111457822D01*
X138120218Y-111503811D01*
X138105217Y-111516121D01*
X138091133Y-111525531D01*
X138068148Y-111559930D01*
X138068144Y-111559938D01*
X138032375Y-111613469D01*
X138010671Y-111722580D01*
X138004280Y-111776595D01*
X137962749Y-111821526D01*
X137914373Y-111834150D01*
X112318734Y-111834150D01*
X112299421Y-111832248D01*
X112282800Y-111828942D01*
X112282799Y-111828942D01*
X112269709Y-111831546D01*
X112256618Y-111834150D01*
X112217844Y-111841862D01*
X112179070Y-111849575D01*
X112091133Y-111908333D01*
X112032375Y-111996270D01*
X112011741Y-112099999D01*
X112015048Y-112116619D01*
X112016950Y-112135934D01*
X112016950Y-138064064D01*
X112015048Y-138083378D01*
X112011741Y-138099999D01*
X110398907Y-138099999D01*
X110337972Y-138000561D01*
X110337968Y-138000556D01*
X110182027Y-137817972D01*
X109999443Y-137662031D01*
X109999441Y-137662029D01*
X109999439Y-137662028D01*
X109794704Y-137536567D01*
X109794702Y-137536566D01*
X109572864Y-137444677D01*
X109456120Y-137416649D01*
X109339379Y-137388623D01*
X109100000Y-137369783D01*
X109099999Y-137369783D01*
X108860621Y-137388623D01*
X108627135Y-137444677D01*
X108405297Y-137536566D01*
X108200556Y-137662031D01*
X108017972Y-137817972D01*
X107862031Y-138000556D01*
X107736566Y-138205297D01*
X107644677Y-138427135D01*
X107644677Y-138427137D01*
X107588623Y-138660621D01*
X107569783Y-138900000D01*
X100025500Y-138900000D01*
X100025500Y-125014616D01*
X101874499Y-125014616D01*
X101874500Y-125014621D01*
X101874500Y-133075949D01*
X101910852Y-133223435D01*
X101933708Y-133266983D01*
X101981443Y-133357934D01*
X102082170Y-133471632D01*
X102162756Y-133527256D01*
X102207179Y-133557920D01*
X102207180Y-133557920D01*
X102207181Y-133557921D01*
X102349209Y-133611785D01*
X102500000Y-133630094D01*
X102650791Y-133611785D01*
X102792819Y-133557921D01*
X102917830Y-133471632D01*
X103018557Y-133357934D01*
X103089148Y-133223434D01*
X103125500Y-133075949D01*
X103125500Y-133000000D01*
X103125500Y-132991715D01*
X103125500Y-124994928D01*
X103125500Y-124994927D01*
X103125500Y-116994928D01*
X103125500Y-116953930D01*
X103125499Y-116953924D01*
X103125500Y-116924051D01*
X103089148Y-116776566D01*
X103018557Y-116642066D01*
X102917830Y-116528368D01*
X102873405Y-116497703D01*
X102792820Y-116442079D01*
X102650788Y-116388214D01*
X102499999Y-116369905D01*
X102349211Y-116388214D01*
X102207179Y-116442079D01*
X102082171Y-116528367D01*
X101981441Y-116642068D01*
X101910852Y-116776564D01*
X101874500Y-116924050D01*
X101874500Y-116994928D01*
X101874499Y-125014616D01*
X100025500Y-125014616D01*
X100025500Y-111100000D01*
X107569783Y-111100000D01*
X107588623Y-111339378D01*
X107644677Y-111572864D01*
X107729066Y-111776595D01*
X107736567Y-111794704D01*
X107862028Y-111999439D01*
X107862029Y-111999441D01*
X107862031Y-111999443D01*
X108017972Y-112182027D01*
X108196381Y-112334402D01*
X108200561Y-112337972D01*
X108405296Y-112463433D01*
X108627137Y-112555323D01*
X108860621Y-112611377D01*
X109100000Y-112630217D01*
X109339379Y-112611377D01*
X109572863Y-112555323D01*
X109794704Y-112463433D01*
X109999439Y-112337972D01*
X110182027Y-112182027D01*
X110337972Y-111999439D01*
X110463433Y-111794704D01*
X110555323Y-111572863D01*
X110611377Y-111339379D01*
X110630217Y-111100000D01*
X110611377Y-110860621D01*
X110555323Y-110627137D01*
X110463433Y-110405296D01*
X110337972Y-110200561D01*
X110337968Y-110200556D01*
X110182027Y-110017972D01*
X109999443Y-109862031D01*
X109999441Y-109862029D01*
X109999439Y-109862028D01*
X109794704Y-109736567D01*
X109719683Y-109705492D01*
X109572864Y-109644677D01*
X109456121Y-109616650D01*
X109339379Y-109588623D01*
X109100000Y-109569783D01*
X109099999Y-109569783D01*
X108860621Y-109588623D01*
X108627135Y-109644677D01*
X108405297Y-109736566D01*
X108200556Y-109862031D01*
X108017972Y-110017972D01*
X107862031Y-110200556D01*
X107736566Y-110405297D01*
X107644677Y-110627135D01*
X107588623Y-110860621D01*
X107569783Y-111100000D01*
X100025500Y-111100000D01*
X100025500Y-109100000D01*
X125994507Y-109100000D01*
X126014353Y-109225302D01*
X126014353Y-109225303D01*
X126014354Y-109225304D01*
X126071950Y-109338342D01*
X126161658Y-109428050D01*
X126274696Y-109485646D01*
X126400000Y-109505492D01*
X126525304Y-109485646D01*
X126638342Y-109428050D01*
X126728050Y-109338342D01*
X126747586Y-109300000D01*
X127794507Y-109300000D01*
X127814353Y-109425302D01*
X127814353Y-109425303D01*
X127814354Y-109425304D01*
X127871950Y-109538342D01*
X127961658Y-109628050D01*
X128074696Y-109685646D01*
X128200000Y-109705492D01*
X128325304Y-109685646D01*
X128438342Y-109628050D01*
X128528050Y-109538342D01*
X128585646Y-109425304D01*
X128605492Y-109300000D01*
X128585646Y-109174696D01*
X128528050Y-109061658D01*
X128466392Y-109000000D01*
X137494507Y-109000000D01*
X137514353Y-109125302D01*
X137514353Y-109125303D01*
X137514354Y-109125304D01*
X137571950Y-109238342D01*
X137661658Y-109328050D01*
X137774696Y-109385646D01*
X137900000Y-109405492D01*
X138025304Y-109385646D01*
X138138342Y-109328050D01*
X138228050Y-109238342D01*
X138285646Y-109125304D01*
X138305492Y-109000000D01*
X138285646Y-108874696D01*
X138228050Y-108761658D01*
X138138342Y-108671950D01*
X138025304Y-108614354D01*
X138025303Y-108614353D01*
X138025302Y-108614353D01*
X137900000Y-108594507D01*
X137774697Y-108614353D01*
X137661659Y-108671949D01*
X137571949Y-108761659D01*
X137514353Y-108874697D01*
X137494507Y-109000000D01*
X128466392Y-109000000D01*
X128438342Y-108971950D01*
X128325304Y-108914354D01*
X128325303Y-108914353D01*
X128325302Y-108914353D01*
X128200000Y-108894507D01*
X128074697Y-108914353D01*
X127961659Y-108971949D01*
X127871949Y-109061659D01*
X127814353Y-109174697D01*
X127794507Y-109300000D01*
X126747586Y-109300000D01*
X126785646Y-109225304D01*
X126805492Y-109100000D01*
X126785646Y-108974696D01*
X126728050Y-108861658D01*
X126638342Y-108771950D01*
X126525304Y-108714354D01*
X126525303Y-108714353D01*
X126525302Y-108714353D01*
X126399999Y-108694507D01*
X126274697Y-108714353D01*
X126161659Y-108771949D01*
X126071949Y-108861659D01*
X126014353Y-108974697D01*
X125994507Y-109100000D01*
X100025500Y-109100000D01*
X100025500Y-108400000D01*
X104494507Y-108400000D01*
X104514353Y-108525302D01*
X104514353Y-108525303D01*
X104514354Y-108525304D01*
X104571950Y-108638342D01*
X104661658Y-108728050D01*
X104774696Y-108785646D01*
X104837348Y-108795568D01*
X104899999Y-108805492D01*
X104899999Y-108805491D01*
X104900000Y-108805492D01*
X105025304Y-108785646D01*
X105138342Y-108728050D01*
X105228050Y-108638342D01*
X105285646Y-108525304D01*
X105305492Y-108400000D01*
X108594507Y-108400000D01*
X108614353Y-108525302D01*
X108614353Y-108525303D01*
X108614354Y-108525304D01*
X108671950Y-108638342D01*
X108761658Y-108728050D01*
X108874696Y-108785646D01*
X108937347Y-108795568D01*
X108999999Y-108805492D01*
X108999999Y-108805491D01*
X109000000Y-108805492D01*
X109125304Y-108785646D01*
X109238342Y-108728050D01*
X109328050Y-108638342D01*
X109385646Y-108525304D01*
X109389654Y-108500000D01*
X110194507Y-108500000D01*
X110214353Y-108625302D01*
X110214353Y-108625303D01*
X110214354Y-108625304D01*
X110271950Y-108738342D01*
X110361658Y-108828050D01*
X110474696Y-108885646D01*
X110600000Y-108905492D01*
X110725304Y-108885646D01*
X110838342Y-108828050D01*
X110928050Y-108738342D01*
X110985646Y-108625304D01*
X111005492Y-108500000D01*
X110985646Y-108374696D01*
X110947586Y-108300000D01*
X123294507Y-108300000D01*
X123314353Y-108425302D01*
X123314353Y-108425303D01*
X123314354Y-108425304D01*
X123371950Y-108538342D01*
X123461658Y-108628050D01*
X123574696Y-108685646D01*
X123700000Y-108705492D01*
X123825304Y-108685646D01*
X123938342Y-108628050D01*
X124028050Y-108538342D01*
X124085646Y-108425304D01*
X124105492Y-108300000D01*
X124085646Y-108174696D01*
X124028050Y-108061658D01*
X123938342Y-107971950D01*
X123825304Y-107914354D01*
X123825303Y-107914353D01*
X123825302Y-107914353D01*
X123699999Y-107894507D01*
X123574697Y-107914353D01*
X123461659Y-107971949D01*
X123371949Y-108061659D01*
X123314353Y-108174697D01*
X123294507Y-108300000D01*
X110947586Y-108300000D01*
X110928050Y-108261658D01*
X110838342Y-108171950D01*
X110725304Y-108114354D01*
X110725303Y-108114353D01*
X110725302Y-108114353D01*
X110600000Y-108094507D01*
X110474697Y-108114353D01*
X110361659Y-108171949D01*
X110271949Y-108261659D01*
X110214353Y-108374697D01*
X110194507Y-108500000D01*
X109389654Y-108500000D01*
X109405492Y-108400000D01*
X109385646Y-108274696D01*
X109328050Y-108161658D01*
X109238342Y-108071950D01*
X109125304Y-108014354D01*
X109125303Y-108014353D01*
X109125302Y-108014353D01*
X109000000Y-107994507D01*
X108874697Y-108014353D01*
X108761659Y-108071949D01*
X108671949Y-108161659D01*
X108614353Y-108274697D01*
X108594507Y-108400000D01*
X105305492Y-108400000D01*
X105285646Y-108274696D01*
X105228050Y-108161658D01*
X105138342Y-108071950D01*
X105025304Y-108014354D01*
X105025303Y-108014353D01*
X105025302Y-108014353D01*
X104900000Y-107994507D01*
X104774697Y-108014353D01*
X104661659Y-108071949D01*
X104571949Y-108161659D01*
X104514353Y-108274697D01*
X104494507Y-108400000D01*
X100025500Y-108400000D01*
X100025500Y-105700000D01*
X128294507Y-105700000D01*
X128314353Y-105825302D01*
X128314353Y-105825303D01*
X128314354Y-105825304D01*
X128371950Y-105938342D01*
X128461658Y-106028050D01*
X128574696Y-106085646D01*
X128700000Y-106105492D01*
X128825304Y-106085646D01*
X128938342Y-106028050D01*
X129028050Y-105938342D01*
X129085646Y-105825304D01*
X129105492Y-105700000D01*
X132294507Y-105700000D01*
X132314353Y-105825302D01*
X132314353Y-105825303D01*
X132314354Y-105825304D01*
X132371950Y-105938342D01*
X132461658Y-106028050D01*
X132574696Y-106085646D01*
X132700000Y-106105492D01*
X132800971Y-106089500D01*
X139394507Y-106089500D01*
X139414353Y-106214802D01*
X139414353Y-106214803D01*
X139414354Y-106214804D01*
X139471950Y-106327842D01*
X139561658Y-106417550D01*
X139674696Y-106475146D01*
X139800000Y-106494992D01*
X139925304Y-106475146D01*
X140038342Y-106417550D01*
X140128050Y-106327842D01*
X140185646Y-106214804D01*
X140205492Y-106089500D01*
X140185646Y-105964196D01*
X140128050Y-105851158D01*
X140038342Y-105761450D01*
X139925304Y-105703854D01*
X139925303Y-105703853D01*
X139925302Y-105703853D01*
X139800000Y-105684007D01*
X139674697Y-105703853D01*
X139561659Y-105761449D01*
X139471949Y-105851159D01*
X139414353Y-105964197D01*
X139394507Y-106089500D01*
X132800971Y-106089500D01*
X132825304Y-106085646D01*
X132938342Y-106028050D01*
X133028050Y-105938342D01*
X133085646Y-105825304D01*
X133105492Y-105700000D01*
X133085646Y-105574696D01*
X133028050Y-105461658D01*
X132938342Y-105371950D01*
X132825304Y-105314354D01*
X132825303Y-105314353D01*
X132825302Y-105314353D01*
X132700000Y-105294507D01*
X132574697Y-105314353D01*
X132461659Y-105371949D01*
X132371949Y-105461659D01*
X132314353Y-105574697D01*
X132294507Y-105700000D01*
X129105492Y-105700000D01*
X129085646Y-105574696D01*
X129028050Y-105461658D01*
X128938342Y-105371950D01*
X128825304Y-105314354D01*
X128825303Y-105314353D01*
X128825302Y-105314353D01*
X128700000Y-105294507D01*
X128574697Y-105314353D01*
X128461659Y-105371949D01*
X128371949Y-105461659D01*
X128314353Y-105574697D01*
X128294507Y-105700000D01*
X100025500Y-105700000D01*
X100025500Y-105000000D01*
X105294507Y-105000000D01*
X105314353Y-105125302D01*
X105314353Y-105125303D01*
X105314354Y-105125304D01*
X105371950Y-105238342D01*
X105461658Y-105328050D01*
X105574696Y-105385646D01*
X105700000Y-105405492D01*
X105825304Y-105385646D01*
X105938342Y-105328050D01*
X106028050Y-105238342D01*
X106085646Y-105125304D01*
X106105492Y-105000000D01*
X106089654Y-104900000D01*
X133894507Y-104900000D01*
X133914353Y-105025302D01*
X133914353Y-105025303D01*
X133914354Y-105025304D01*
X133971950Y-105138342D01*
X134061658Y-105228050D01*
X134174696Y-105285646D01*
X134300000Y-105305492D01*
X134425304Y-105285646D01*
X134538342Y-105228050D01*
X134628050Y-105138342D01*
X134685646Y-105025304D01*
X134705492Y-104900000D01*
X134685646Y-104774696D01*
X134628050Y-104661658D01*
X134590973Y-104624581D01*
X136369926Y-104624581D01*
X136389772Y-104749883D01*
X136389772Y-104749884D01*
X136389773Y-104749885D01*
X136447369Y-104862923D01*
X136537077Y-104952631D01*
X136650115Y-105010227D01*
X136775419Y-105030073D01*
X136900723Y-105010227D01*
X136920795Y-105000000D01*
X137394507Y-105000000D01*
X137414353Y-105125302D01*
X137414353Y-105125303D01*
X137414354Y-105125304D01*
X137471950Y-105238342D01*
X137561658Y-105328050D01*
X137674696Y-105385646D01*
X137800000Y-105405492D01*
X137925304Y-105385646D01*
X138038342Y-105328050D01*
X138128050Y-105238342D01*
X138185646Y-105125304D01*
X138205492Y-105000000D01*
X138185646Y-104874696D01*
X138128050Y-104761658D01*
X138038342Y-104671950D01*
X137925304Y-104614354D01*
X137925303Y-104614353D01*
X137925302Y-104614353D01*
X137800000Y-104594507D01*
X137674697Y-104614353D01*
X137561659Y-104671949D01*
X137471949Y-104761659D01*
X137414353Y-104874697D01*
X137394507Y-105000000D01*
X136920795Y-105000000D01*
X137013761Y-104952631D01*
X137103469Y-104862923D01*
X137161065Y-104749885D01*
X137180911Y-104624581D01*
X137161065Y-104499277D01*
X137103469Y-104386239D01*
X137013761Y-104296531D01*
X136900723Y-104238935D01*
X136900722Y-104238934D01*
X136900721Y-104238934D01*
X136775418Y-104219088D01*
X136650116Y-104238934D01*
X136537078Y-104296530D01*
X136447368Y-104386240D01*
X136389772Y-104499278D01*
X136369926Y-104624581D01*
X134590973Y-104624581D01*
X134538342Y-104571950D01*
X134425304Y-104514354D01*
X134425303Y-104514353D01*
X134425302Y-104514353D01*
X134300000Y-104494507D01*
X134174697Y-104514353D01*
X134061659Y-104571949D01*
X133971949Y-104661659D01*
X133914353Y-104774697D01*
X133894507Y-104900000D01*
X106089654Y-104900000D01*
X106085646Y-104874696D01*
X106028050Y-104761658D01*
X105938342Y-104671950D01*
X105825304Y-104614354D01*
X105825303Y-104614353D01*
X105825302Y-104614353D01*
X105700000Y-104594507D01*
X105574697Y-104614353D01*
X105461659Y-104671949D01*
X105371949Y-104761659D01*
X105314353Y-104874697D01*
X105294507Y-105000000D01*
X100025500Y-105000000D01*
X100025500Y-103500000D01*
X142594507Y-103500000D01*
X142614353Y-103625302D01*
X142614353Y-103625303D01*
X142614354Y-103625304D01*
X142671950Y-103738342D01*
X142761658Y-103828050D01*
X142874696Y-103885646D01*
X143000000Y-103905492D01*
X143125304Y-103885646D01*
X143238342Y-103828050D01*
X143328050Y-103738342D01*
X143385646Y-103625304D01*
X143405492Y-103500000D01*
X143385646Y-103374696D01*
X143328050Y-103261658D01*
X143238342Y-103171950D01*
X143125304Y-103114354D01*
X143125303Y-103114353D01*
X143125302Y-103114353D01*
X142999999Y-103094507D01*
X142874697Y-103114353D01*
X142761659Y-103171949D01*
X142671949Y-103261659D01*
X142614353Y-103374697D01*
X142594507Y-103500000D01*
X100025500Y-103500000D01*
X100025500Y-102499999D01*
X116369905Y-102499999D01*
X116388214Y-102650788D01*
X116442079Y-102792820D01*
X116497703Y-102873405D01*
X116528368Y-102917830D01*
X116642066Y-103018557D01*
X116642068Y-103018558D01*
X116748656Y-103074500D01*
X116776566Y-103089148D01*
X116924051Y-103125500D01*
X133075949Y-103125500D01*
X133223434Y-103089148D01*
X133357934Y-103018557D01*
X133471632Y-102917830D01*
X133557921Y-102792819D01*
X133611785Y-102650791D01*
X133630094Y-102500000D01*
X133611785Y-102349209D01*
X133557921Y-102207181D01*
X133471632Y-102082170D01*
X133357934Y-101981443D01*
X133357932Y-101981442D01*
X133357931Y-101981441D01*
X133223435Y-101910852D01*
X133075949Y-101874500D01*
X133005072Y-101874500D01*
X125005072Y-101874500D01*
X117008285Y-101874500D01*
X117000000Y-101874500D01*
X116924051Y-101874500D01*
X116776564Y-101910852D01*
X116642068Y-101981441D01*
X116528367Y-102082171D01*
X116442079Y-102207179D01*
X116388214Y-102349211D01*
X116369905Y-102499999D01*
X100025500Y-102499999D01*
X100025500Y-100124500D01*
X100044407Y-100066309D01*
X100093907Y-100030345D01*
X100124500Y-100025500D01*
X149875500Y-100025500D01*
X149933691Y-100044407D01*
G37*
G04 #@! TD.AperFunction*
M02*
