M48
; DRILL file {KiCad 7.0.2} date Sun Jul 30 22:18:23 2023
; FORMAT={-:-/ absolute / metric / decimal}
; #@! TF.CreationDate,2023-07-30T22:18:23-04:00
; #@! TF.GenerationSoftware,Kicad,Pcbnew,7.0.2
; #@! TF.FileFunction,Plated,1,4,PTH
FMAT,2
METRIC
; #@! TA.AperFunction,Plated,PTH,ViaDrill
T1C0.200
; #@! TA.AperFunction,Plated,PTH,ViaDrill
T2C0.300
%
G90
G05
T1
X104.9Y-108.4
X105.7Y-105.0
X109.0Y-108.4
X110.6Y-108.5
X123.7Y-108.3
X126.4Y-109.1
X127.7Y-122.4
X128.2Y-109.3
X128.7Y-105.7
X132.7Y-105.7
X134.3Y-104.9
X136.775Y-104.625
X137.8Y-105.0
X137.9Y-109.0
X138.6Y-111.4
X139.1Y-113.7
X139.8Y-106.09
X143.0Y-103.5
T2
X103.0Y-103.0
X103.0Y-147.0
X109.2Y-106.5
X109.6Y-115.4
X113.5Y-147.0
X114.2Y-103.0
X119.6Y-109.5
X122.6Y-122.4
X122.6Y-127.8
X127.2Y-123.0
X128.0Y-127.8
X131.2Y-107.7
X141.0Y-125.2
X142.4Y-119.3
X143.8Y-118.2
X144.3Y-109.2
X144.5Y-127.6
X146.0Y-122.2
X147.0Y-103.0
X147.0Y-147.0
X148.9Y-108.9
T0
M30
