G04 #@! TF.GenerationSoftware,KiCad,Pcbnew,7.0.2*
G04 #@! TF.CreationDate,2023-07-30T22:18:18-04:00*
G04 #@! TF.ProjectId,TopExternalFaceRev1,546f7045-7874-4657-926e-616c46616365,rev?*
G04 #@! TF.SameCoordinates,Original*
G04 #@! TF.FileFunction,Copper,L1,Top*
G04 #@! TF.FilePolarity,Positive*
%FSLAX46Y46*%
G04 Gerber Fmt 4.6, Leading zero omitted, Abs format (unit mm)*
G04 Created by KiCad (PCBNEW 7.0.2) date 2023-07-30 22:18:18*
%MOMM*%
%LPD*%
G01*
G04 APERTURE LIST*
G04 Aperture macros list*
%AMRoundRect*
0 Rectangle with rounded corners*
0 $1 Rounding radius*
0 $2 $3 $4 $5 $6 $7 $8 $9 X,Y pos of 4 corners*
0 Add a 4 corners polygon primitive as box body*
4,1,4,$2,$3,$4,$5,$6,$7,$8,$9,$2,$3,0*
0 Add four circle primitives for the rounded corners*
1,1,$1+$1,$2,$3*
1,1,$1+$1,$4,$5*
1,1,$1+$1,$6,$7*
1,1,$1+$1,$8,$9*
0 Add four rect primitives between the rounded corners*
20,1,$1+$1,$2,$3,$4,$5,0*
20,1,$1+$1,$4,$5,$6,$7,0*
20,1,$1+$1,$6,$7,$8,$9,0*
20,1,$1+$1,$8,$9,$2,$3,0*%
%AMOutline4P*
0 Free polygon, 4 corners , with rotation*
0 The origin of the aperture is its center*
0 number of corners: always 4*
0 $1 to $8 corner X, Y*
0 $9 Rotation angle, in degrees counterclockwise*
0 create outline with 4 corners*
4,1,4,$1,$2,$3,$4,$5,$6,$7,$8,$1,$2,$9*%
G04 Aperture macros list end*
G04 #@! TA.AperFunction,SMDPad,CuDef*
%ADD10C,3.500000*%
G04 #@! TD*
G04 #@! TA.AperFunction,SMDPad,CuDef*
%ADD11R,1.000000X1.000000*%
G04 #@! TD*
G04 #@! TA.AperFunction,SMDPad,CuDef*
%ADD12RoundRect,0.140000X0.170000X-0.140000X0.170000X0.140000X-0.170000X0.140000X-0.170000X-0.140000X0*%
G04 #@! TD*
G04 #@! TA.AperFunction,SMDPad,CuDef*
%ADD13RoundRect,0.140000X-0.170000X0.140000X-0.170000X-0.140000X0.170000X-0.140000X0.170000X0.140000X0*%
G04 #@! TD*
G04 #@! TA.AperFunction,SMDPad,CuDef*
%ADD14R,0.300000X0.620000*%
G04 #@! TD*
G04 #@! TA.AperFunction,SMDPad,CuDef*
%ADD15Outline4P,-8.500000X-1.500000X8.500000X-1.500000X2.500000X1.500000X-2.500000X1.500000X25.000000*%
G04 #@! TD*
G04 #@! TA.AperFunction,SMDPad,CuDef*
%ADD16R,2.530000X7.220000*%
G04 #@! TD*
G04 #@! TA.AperFunction,SMDPad,CuDef*
%ADD17Outline4P,-8.500000X-1.500000X8.500000X-1.500000X2.500000X1.500000X-2.500000X1.500000X205.000000*%
G04 #@! TD*
G04 #@! TA.AperFunction,SMDPad,CuDef*
%ADD18R,0.600000X0.350000*%
G04 #@! TD*
G04 #@! TA.AperFunction,SMDPad,CuDef*
%ADD19R,1.100000X1.700000*%
G04 #@! TD*
G04 #@! TA.AperFunction,ViaPad*
%ADD20C,0.600000*%
G04 #@! TD*
G04 #@! TA.AperFunction,ViaPad*
%ADD21C,0.400000*%
G04 #@! TD*
G04 #@! TA.AperFunction,ViaPad*
%ADD22C,0.500000*%
G04 #@! TD*
G04 #@! TA.AperFunction,Conductor*
%ADD23C,1.000000*%
G04 #@! TD*
G04 #@! TA.AperFunction,Conductor*
%ADD24C,0.200000*%
G04 #@! TD*
G04 APERTURE END LIST*
D10*
X144500000Y-125100000D03*
X105500000Y-125100000D03*
D11*
X107500000Y-103100000D03*
D12*
X143800000Y-105280000D03*
X143800000Y-104320000D03*
D13*
X104700000Y-105220000D03*
X104700000Y-106180000D03*
D14*
X142600000Y-104380000D03*
X142100000Y-104380000D03*
X141600000Y-104380000D03*
X141100000Y-104380000D03*
X141100000Y-106200000D03*
X141600000Y-106200000D03*
X142100000Y-106200000D03*
X142600000Y-106200000D03*
D15*
X119150500Y-138792003D03*
D16*
X135675500Y-142484003D03*
D17*
X130649500Y-111007997D03*
D16*
X114124500Y-107315997D03*
D18*
X107900000Y-106900000D03*
X107900000Y-106250000D03*
X107900000Y-105600000D03*
X105800000Y-105600000D03*
X105800000Y-106250000D03*
X105800000Y-106900000D03*
D19*
X106850000Y-106250000D03*
D20*
X131200000Y-107700000D03*
X144500000Y-127600000D03*
X109200000Y-106500000D03*
X119600000Y-109500000D03*
X109600000Y-115400000D03*
X122600000Y-122400000D03*
X122600000Y-127800000D03*
X114200000Y-103000000D03*
X147000000Y-147000000D03*
X128000000Y-127800000D03*
X147000000Y-103000000D03*
X148900000Y-108900000D03*
X103000000Y-147000000D03*
X127200000Y-123000000D03*
X113500000Y-147000000D03*
X103000000Y-103000000D03*
X146000000Y-122200000D03*
X144300000Y-109200000D03*
X143800000Y-118200000D03*
D21*
X139800000Y-106089500D03*
D22*
X141000000Y-125200000D03*
D21*
X104900000Y-108400000D03*
X143000000Y-103500000D03*
X123700000Y-108300000D03*
X138600000Y-111400000D03*
X127700000Y-122400000D03*
X139100000Y-113700000D03*
X132700000Y-105700000D03*
X134300000Y-104900000D03*
X137800000Y-105000000D03*
X128200000Y-109300000D03*
X109000000Y-108400000D03*
X128700000Y-105700000D03*
X105700000Y-105000000D03*
X126400000Y-109100000D03*
X110600000Y-108500000D03*
X136775419Y-104624581D03*
X137900000Y-109000000D03*
D22*
X142400000Y-119300000D03*
D23*
X114157000Y-116443000D02*
X114157000Y-107348497D01*
X114157000Y-116443000D02*
X115914000Y-118200000D01*
X114124500Y-107315997D02*
X111715997Y-107315997D01*
X105500000Y-125100000D02*
X114157000Y-116443000D01*
X111715997Y-107315997D02*
X107500000Y-103100000D01*
X115914000Y-118200000D02*
X143800000Y-118200000D01*
X114157000Y-107348497D02*
X114124500Y-107315997D01*
D24*
X104900000Y-108400000D02*
X104700000Y-108200000D01*
X142600000Y-104380000D02*
X143740000Y-104380000D01*
X142931497Y-103431497D02*
X128568503Y-103431497D01*
X142600000Y-103900000D02*
X143000000Y-103500000D01*
X128568503Y-103431497D02*
X123700000Y-108300000D01*
X104700000Y-106180000D02*
X105730000Y-106180000D01*
X104700000Y-108200000D02*
X104700000Y-106180000D01*
X142600000Y-104380000D02*
X142600000Y-103900000D01*
X105730000Y-106180000D02*
X105800000Y-106250000D01*
X143000000Y-103500000D02*
X142931497Y-103431497D01*
X143740000Y-104380000D02*
X143800000Y-104320000D01*
X133500000Y-104900000D02*
X132700000Y-105700000D01*
X134300000Y-104900000D02*
X133500000Y-104900000D01*
X140200000Y-107100000D02*
X139900000Y-107100000D01*
X109000000Y-108400000D02*
X109000000Y-108000000D01*
X136900000Y-105300000D02*
X135900000Y-104300000D01*
X133200000Y-104300000D02*
X128200000Y-109300000D01*
X109000000Y-108000000D02*
X107900000Y-106900000D01*
X135900000Y-104300000D02*
X133200000Y-104300000D01*
X137500000Y-105300000D02*
X136900000Y-105300000D01*
X139900000Y-107100000D02*
X137800000Y-105000000D01*
X141100000Y-106200000D02*
X140200000Y-107100000D01*
X137800000Y-105000000D02*
X137500000Y-105300000D01*
X142100000Y-104380000D02*
X142100000Y-103870000D01*
X105700000Y-105000000D02*
X105700000Y-105500000D01*
X141950998Y-103720998D02*
X130679002Y-103720998D01*
X105700000Y-105500000D02*
X105800000Y-105600000D01*
X130679002Y-103720998D02*
X128700000Y-105700000D01*
X142100000Y-103870000D02*
X141950998Y-103720998D01*
X126400000Y-109100000D02*
X131489501Y-104010499D01*
X106500000Y-109000000D02*
X110100000Y-109000000D01*
X142440000Y-105700000D02*
X140700000Y-105700000D01*
X142600000Y-105860000D02*
X142440000Y-105700000D01*
X140700000Y-105700000D02*
X139500000Y-104500000D01*
X136633997Y-104624581D02*
X136775419Y-104624581D01*
X136900000Y-104500000D02*
X136775419Y-104624581D01*
X105800000Y-108300000D02*
X105800000Y-106900000D01*
X106500000Y-109000000D02*
X105800000Y-108300000D01*
X131489501Y-104010499D02*
X136019915Y-104010499D01*
X142600000Y-106200000D02*
X142600000Y-105860000D01*
X139500000Y-104500000D02*
X136900000Y-104500000D01*
X136019915Y-104010499D02*
X136633997Y-104624581D01*
X110100000Y-109000000D02*
X110600000Y-108500000D01*
D23*
X134948784Y-111007997D02*
X130649500Y-111007997D01*
X141051286Y-117110499D02*
X134948784Y-111007997D01*
D24*
X132750000Y-109000000D02*
X132650000Y-109100000D01*
D23*
X144351286Y-117110499D02*
X145189501Y-117948714D01*
D24*
X134000000Y-109000000D02*
X132750000Y-109000000D01*
D23*
X145189501Y-119251286D02*
X135821500Y-128619287D01*
X135821500Y-128619287D02*
X135821500Y-140300000D01*
X145189501Y-117948714D02*
X145189501Y-119251286D01*
X141051286Y-117110499D02*
X144351286Y-117110499D01*
G04 #@! TA.AperFunction,Conductor*
G36*
X149933691Y-100044407D02*
G01*
X149969655Y-100093907D01*
X149974500Y-100124500D01*
X149974500Y-149875500D01*
X149955593Y-149933691D01*
X149906093Y-149969655D01*
X149875500Y-149974500D01*
X100124500Y-149974500D01*
X100066309Y-149955593D01*
X100030345Y-149906093D01*
X100025500Y-149875500D01*
X100025500Y-147500000D01*
X116369905Y-147500000D01*
X116388214Y-147650788D01*
X116442079Y-147792820D01*
X116497703Y-147873405D01*
X116528368Y-147917830D01*
X116642066Y-148018557D01*
X116642068Y-148018558D01*
X116748656Y-148074500D01*
X116776566Y-148089148D01*
X116924051Y-148125500D01*
X133075949Y-148125500D01*
X133223434Y-148089148D01*
X133357934Y-148018557D01*
X133471632Y-147917830D01*
X133557921Y-147792819D01*
X133611785Y-147650791D01*
X133630094Y-147500000D01*
X133611785Y-147349209D01*
X133557921Y-147207181D01*
X133471632Y-147082170D01*
X133357934Y-146981443D01*
X133357932Y-146981442D01*
X133357931Y-146981441D01*
X133223435Y-146910852D01*
X133075949Y-146874500D01*
X133005072Y-146874500D01*
X125005072Y-146874500D01*
X117008285Y-146874500D01*
X117000000Y-146874500D01*
X116924051Y-146874500D01*
X116776564Y-146910852D01*
X116642068Y-146981441D01*
X116528367Y-147082171D01*
X116442079Y-147207179D01*
X116388214Y-147349211D01*
X116369905Y-147500000D01*
X100025500Y-147500000D01*
X100025500Y-138900000D01*
X107569783Y-138900000D01*
X107588623Y-139139379D01*
X107644677Y-139372863D01*
X107736567Y-139594704D01*
X107862028Y-139799439D01*
X107862029Y-139799441D01*
X107862031Y-139799443D01*
X108017972Y-139982027D01*
X108196381Y-140134402D01*
X108200561Y-140137972D01*
X108405296Y-140263433D01*
X108627137Y-140355323D01*
X108860621Y-140411377D01*
X109100000Y-140430217D01*
X109339379Y-140411377D01*
X109572863Y-140355323D01*
X109794704Y-140263433D01*
X109999439Y-140137972D01*
X110182027Y-139982027D01*
X110337972Y-139799439D01*
X110463433Y-139594704D01*
X110555323Y-139372863D01*
X110611377Y-139139379D01*
X110630217Y-138900000D01*
X110611377Y-138660621D01*
X110555323Y-138427137D01*
X110463433Y-138205296D01*
X110337972Y-138000561D01*
X110337968Y-138000556D01*
X110182027Y-137817972D01*
X109999443Y-137662031D01*
X109999441Y-137662029D01*
X109999439Y-137662028D01*
X109794704Y-137536567D01*
X109794702Y-137536566D01*
X109572864Y-137444677D01*
X109456120Y-137416649D01*
X109339379Y-137388623D01*
X109100000Y-137369783D01*
X109099999Y-137369783D01*
X108860621Y-137388623D01*
X108627135Y-137444677D01*
X108405297Y-137536566D01*
X108200556Y-137662031D01*
X108017972Y-137817972D01*
X107862031Y-138000556D01*
X107736566Y-138205297D01*
X107644677Y-138427135D01*
X107644677Y-138427137D01*
X107588623Y-138660621D01*
X107569783Y-138900000D01*
X100025500Y-138900000D01*
X100025500Y-125014616D01*
X101874499Y-125014616D01*
X101874500Y-125014621D01*
X101874500Y-133075949D01*
X101910852Y-133223435D01*
X101933708Y-133266983D01*
X101981443Y-133357934D01*
X102082170Y-133471632D01*
X102162756Y-133527256D01*
X102207179Y-133557920D01*
X102207180Y-133557920D01*
X102207181Y-133557921D01*
X102349209Y-133611785D01*
X102500000Y-133630094D01*
X102650791Y-133611785D01*
X102792819Y-133557921D01*
X102917830Y-133471632D01*
X103018557Y-133357934D01*
X103089148Y-133223434D01*
X103125500Y-133075949D01*
X103125500Y-133000000D01*
X103125500Y-132991715D01*
X103125500Y-125100000D01*
X103544518Y-125100000D01*
X103564422Y-125378299D01*
X103623728Y-125650919D01*
X103721230Y-125912337D01*
X103854943Y-126157212D01*
X103854944Y-126157213D01*
X104022145Y-126380568D01*
X104219432Y-126577855D01*
X104219435Y-126577857D01*
X104442787Y-126745056D01*
X104687662Y-126878769D01*
X104753016Y-126903144D01*
X104949077Y-126976271D01*
X105134826Y-127016678D01*
X105221700Y-127035577D01*
X105221702Y-127035577D01*
X105221706Y-127035578D01*
X105500000Y-127055482D01*
X105778294Y-127035578D01*
X106050923Y-126976271D01*
X106312337Y-126878769D01*
X106557213Y-126745056D01*
X106780568Y-126577855D01*
X106977855Y-126380568D01*
X107145056Y-126157213D01*
X107278769Y-125912337D01*
X107376271Y-125650923D01*
X107435578Y-125378294D01*
X107455482Y-125100000D01*
X107435578Y-124821706D01*
X107419870Y-124749500D01*
X107397426Y-124646324D01*
X107376271Y-124549077D01*
X107307582Y-124364918D01*
X107304963Y-124303790D01*
X107330335Y-124260320D01*
X109190655Y-122400000D01*
X127294507Y-122400000D01*
X127314353Y-122525302D01*
X127314353Y-122525303D01*
X127314354Y-122525304D01*
X127371950Y-122638342D01*
X127461658Y-122728050D01*
X127574696Y-122785646D01*
X127700000Y-122805492D01*
X127825304Y-122785646D01*
X127938342Y-122728050D01*
X128028050Y-122638342D01*
X128085646Y-122525304D01*
X128105492Y-122400000D01*
X128085646Y-122274696D01*
X128028050Y-122161658D01*
X127938342Y-122071950D01*
X127825304Y-122014354D01*
X127825303Y-122014353D01*
X127825302Y-122014353D01*
X127700000Y-121994507D01*
X127574697Y-122014353D01*
X127461659Y-122071949D01*
X127371949Y-122161659D01*
X127314353Y-122274697D01*
X127294507Y-122400000D01*
X109190655Y-122400000D01*
X114086999Y-117503657D01*
X114141512Y-117475883D01*
X114201944Y-117485454D01*
X114227003Y-117503660D01*
X115401597Y-118678254D01*
X115405695Y-118682609D01*
X115446069Y-118728182D01*
X115496191Y-118762779D01*
X115501007Y-118766323D01*
X115532393Y-118790912D01*
X115548943Y-118803878D01*
X115560252Y-118808967D01*
X115575855Y-118817767D01*
X115586070Y-118824818D01*
X115643018Y-118846415D01*
X115648530Y-118848698D01*
X115704068Y-118873694D01*
X115716272Y-118875930D01*
X115733532Y-118880742D01*
X115745128Y-118885140D01*
X115805605Y-118892483D01*
X115811470Y-118893375D01*
X115871394Y-118904357D01*
X115871394Y-118904356D01*
X115871395Y-118904357D01*
X115908059Y-118902139D01*
X115932167Y-118900680D01*
X115938144Y-118900500D01*
X141933292Y-118900500D01*
X141991483Y-118919407D01*
X142027447Y-118968907D01*
X142027447Y-119030093D01*
X142021645Y-119040356D01*
X142023030Y-119040989D01*
X141963302Y-119171772D01*
X141944866Y-119300000D01*
X141963302Y-119428227D01*
X142017116Y-119546062D01*
X142078013Y-119616341D01*
X142101951Y-119643967D01*
X142210931Y-119714004D01*
X142335228Y-119750500D01*
X142464772Y-119750500D01*
X142589069Y-119714004D01*
X142698049Y-119643967D01*
X142782882Y-119546063D01*
X142782881Y-119546063D01*
X142782883Y-119546062D01*
X142836697Y-119428227D01*
X142855133Y-119300000D01*
X142836697Y-119171772D01*
X142776970Y-119040989D01*
X142781208Y-119039053D01*
X142768077Y-119008043D01*
X142781893Y-118948438D01*
X142828104Y-118908337D01*
X142866708Y-118900500D01*
X143839385Y-118900500D01*
X143842372Y-118900500D01*
X143968872Y-118885140D01*
X144127930Y-118824818D01*
X144267929Y-118728183D01*
X144315899Y-118674034D01*
X144368638Y-118643017D01*
X144429538Y-118648922D01*
X144475336Y-118689496D01*
X144489001Y-118739685D01*
X144489001Y-118920120D01*
X144470094Y-118978311D01*
X144460005Y-118990124D01*
X135343243Y-128106885D01*
X135338890Y-128110982D01*
X135293318Y-128151357D01*
X135258723Y-128201474D01*
X135255182Y-128206286D01*
X135217621Y-128254231D01*
X135212529Y-128265544D01*
X135203730Y-128281144D01*
X135196682Y-128291354D01*
X135175093Y-128348280D01*
X135172806Y-128353802D01*
X135147805Y-128409354D01*
X135145567Y-128421566D01*
X135140758Y-128438818D01*
X135136360Y-128450416D01*
X135129021Y-128510849D01*
X135128122Y-128516756D01*
X135117141Y-128576682D01*
X135120819Y-128637463D01*
X135121000Y-128643441D01*
X135121000Y-138574503D01*
X135102093Y-138632694D01*
X135052593Y-138668658D01*
X135022000Y-138673503D01*
X134390752Y-138673503D01*
X134361510Y-138679319D01*
X134332268Y-138685136D01*
X134265947Y-138729450D01*
X134221633Y-138795771D01*
X134209999Y-138854256D01*
X134209999Y-146113749D01*
X134221633Y-146172234D01*
X134265947Y-146238555D01*
X134310262Y-146268165D01*
X134332269Y-146282870D01*
X134390752Y-146294503D01*
X134390753Y-146294503D01*
X136960247Y-146294503D01*
X136960248Y-146294503D01*
X137018731Y-146282870D01*
X137085052Y-146238555D01*
X137129367Y-146172234D01*
X137141000Y-146113751D01*
X137141000Y-138900000D01*
X139369783Y-138900000D01*
X139388623Y-139139379D01*
X139444677Y-139372863D01*
X139536567Y-139594704D01*
X139662028Y-139799439D01*
X139662029Y-139799441D01*
X139662031Y-139799443D01*
X139817972Y-139982027D01*
X139996381Y-140134402D01*
X140000561Y-140137972D01*
X140205296Y-140263433D01*
X140427137Y-140355323D01*
X140660621Y-140411377D01*
X140900000Y-140430217D01*
X141139379Y-140411377D01*
X141372863Y-140355323D01*
X141594704Y-140263433D01*
X141799439Y-140137972D01*
X141982027Y-139982027D01*
X142137972Y-139799439D01*
X142263433Y-139594704D01*
X142355323Y-139372863D01*
X142411377Y-139139379D01*
X142430217Y-138900000D01*
X142411377Y-138660621D01*
X142355323Y-138427137D01*
X142263433Y-138205296D01*
X142137972Y-138000561D01*
X142137968Y-138000556D01*
X141982027Y-137817972D01*
X141799443Y-137662031D01*
X141799441Y-137662029D01*
X141799439Y-137662028D01*
X141594704Y-137536567D01*
X141594702Y-137536566D01*
X141372864Y-137444677D01*
X141256121Y-137416649D01*
X141139379Y-137388623D01*
X140900000Y-137369783D01*
X140899999Y-137369783D01*
X140660621Y-137388623D01*
X140427135Y-137444677D01*
X140205297Y-137536566D01*
X140000556Y-137662031D01*
X139817972Y-137817972D01*
X139662031Y-138000556D01*
X139536566Y-138205297D01*
X139444677Y-138427135D01*
X139444677Y-138427137D01*
X139388623Y-138660621D01*
X139369783Y-138900000D01*
X137141000Y-138900000D01*
X137141000Y-138854255D01*
X137129367Y-138795772D01*
X137114662Y-138773765D01*
X137085052Y-138729450D01*
X137018731Y-138685136D01*
X136960248Y-138673503D01*
X136960247Y-138673503D01*
X136621000Y-138673503D01*
X136562809Y-138654596D01*
X136526845Y-138605096D01*
X136522000Y-138574503D01*
X136522000Y-133075949D01*
X146874500Y-133075949D01*
X146910852Y-133223435D01*
X146933708Y-133266983D01*
X146981443Y-133357934D01*
X147082170Y-133471632D01*
X147162756Y-133527256D01*
X147207179Y-133557920D01*
X147207180Y-133557920D01*
X147207181Y-133557921D01*
X147349209Y-133611785D01*
X147500000Y-133630094D01*
X147650791Y-133611785D01*
X147792819Y-133557921D01*
X147917830Y-133471632D01*
X148018557Y-133357934D01*
X148089148Y-133223434D01*
X148125500Y-133075949D01*
X148125500Y-133000000D01*
X148125500Y-132991715D01*
X148125500Y-124994928D01*
X148125500Y-124994927D01*
X148125500Y-116994928D01*
X148125500Y-116924051D01*
X148089148Y-116776566D01*
X148018557Y-116642066D01*
X147917830Y-116528368D01*
X147866195Y-116492727D01*
X147792820Y-116442079D01*
X147650788Y-116388214D01*
X147500000Y-116369905D01*
X147349211Y-116388214D01*
X147207179Y-116442079D01*
X147082171Y-116528367D01*
X146981441Y-116642068D01*
X146910852Y-116776564D01*
X146874500Y-116924050D01*
X146874500Y-133075949D01*
X136522000Y-133075949D01*
X136522000Y-128950451D01*
X136540907Y-128892260D01*
X136550990Y-128880453D01*
X140387172Y-125044271D01*
X140441686Y-125016496D01*
X140502118Y-125026067D01*
X140545383Y-125069332D01*
X140555166Y-125128365D01*
X140544867Y-125200000D01*
X140563302Y-125328227D01*
X140617116Y-125446062D01*
X140701949Y-125543965D01*
X140701951Y-125543967D01*
X140810931Y-125614004D01*
X140935228Y-125650500D01*
X141064772Y-125650500D01*
X141189069Y-125614004D01*
X141298049Y-125543967D01*
X141382882Y-125446063D01*
X141382881Y-125446063D01*
X141382883Y-125446062D01*
X141436697Y-125328227D01*
X141455133Y-125200000D01*
X141436697Y-125071772D01*
X141382883Y-124953937D01*
X141298050Y-124856034D01*
X141298049Y-124856033D01*
X141243559Y-124821014D01*
X141189068Y-124785995D01*
X141064772Y-124749500D01*
X140935228Y-124749500D01*
X140920994Y-124749500D01*
X140920994Y-124744758D01*
X140886380Y-124743291D01*
X140838448Y-124705263D01*
X140822022Y-124646324D01*
X140843377Y-124588986D01*
X140850916Y-124580527D01*
X145667779Y-119763663D01*
X145672081Y-119759614D01*
X145717684Y-119719215D01*
X145752279Y-119669093D01*
X145755821Y-119664281D01*
X145793379Y-119616343D01*
X145798467Y-119605035D01*
X145807269Y-119589427D01*
X145814319Y-119579216D01*
X145835918Y-119522260D01*
X145838186Y-119516785D01*
X145863196Y-119461218D01*
X145865434Y-119449000D01*
X145870241Y-119431758D01*
X145874641Y-119420158D01*
X145881980Y-119359705D01*
X145882876Y-119353820D01*
X145893859Y-119293892D01*
X145890182Y-119233108D01*
X145890001Y-119227130D01*
X145890001Y-117972868D01*
X145890182Y-117966890D01*
X145893859Y-117906109D01*
X145893859Y-117906108D01*
X145882874Y-117846168D01*
X145881982Y-117840303D01*
X145874641Y-117779842D01*
X145870241Y-117768242D01*
X145865432Y-117750987D01*
X145863196Y-117738783D01*
X145863196Y-117738782D01*
X145838190Y-117683221D01*
X145835912Y-117677721D01*
X145814319Y-117620785D01*
X145814319Y-117620784D01*
X145807271Y-117610573D01*
X145798468Y-117594965D01*
X145793379Y-117583657D01*
X145755824Y-117535721D01*
X145752280Y-117530905D01*
X145717683Y-117480783D01*
X145672110Y-117440409D01*
X145667755Y-117436311D01*
X144863687Y-116632243D01*
X144859588Y-116627888D01*
X144851746Y-116619036D01*
X144819215Y-116582316D01*
X144769085Y-116547713D01*
X144764277Y-116544175D01*
X144716342Y-116506620D01*
X144705032Y-116501530D01*
X144689424Y-116492727D01*
X144679217Y-116485681D01*
X144661505Y-116478964D01*
X144622260Y-116464080D01*
X144616767Y-116461804D01*
X144561218Y-116436804D01*
X144549007Y-116434566D01*
X144531751Y-116429755D01*
X144520159Y-116425359D01*
X144459723Y-116418020D01*
X144453815Y-116417121D01*
X144393890Y-116406140D01*
X144333109Y-116409818D01*
X144327131Y-116409999D01*
X141382451Y-116409999D01*
X141324260Y-116391092D01*
X141312447Y-116381003D01*
X139182948Y-114251504D01*
X139155171Y-114196987D01*
X139164742Y-114136555D01*
X139208007Y-114093290D01*
X139214333Y-114091235D01*
X139225301Y-114085646D01*
X139225304Y-114085646D01*
X139338342Y-114028050D01*
X139428050Y-113938342D01*
X139485646Y-113825304D01*
X139505492Y-113700000D01*
X139485646Y-113574696D01*
X139428050Y-113461658D01*
X139338342Y-113371950D01*
X139225304Y-113314354D01*
X139225303Y-113314353D01*
X139225302Y-113314353D01*
X139100000Y-113294507D01*
X138974697Y-113314353D01*
X138861659Y-113371949D01*
X138771949Y-113461659D01*
X138707236Y-113588667D01*
X138703845Y-113586939D01*
X138688495Y-113617058D01*
X138633975Y-113644830D01*
X138573544Y-113635252D01*
X138548495Y-113617051D01*
X136331444Y-111400000D01*
X138194507Y-111400000D01*
X138214353Y-111525302D01*
X138214353Y-111525303D01*
X138214354Y-111525304D01*
X138271950Y-111638342D01*
X138361658Y-111728050D01*
X138474696Y-111785646D01*
X138600000Y-111805492D01*
X138725304Y-111785646D01*
X138838342Y-111728050D01*
X138928050Y-111638342D01*
X138985646Y-111525304D01*
X139005492Y-111400000D01*
X138985646Y-111274696D01*
X138928050Y-111161658D01*
X138866392Y-111100000D01*
X139369783Y-111100000D01*
X139373357Y-111145404D01*
X139388623Y-111339378D01*
X139444677Y-111572864D01*
X139504701Y-111717773D01*
X139536567Y-111794704D01*
X139662028Y-111999439D01*
X139662029Y-111999441D01*
X139662031Y-111999443D01*
X139817972Y-112182027D01*
X139996381Y-112334402D01*
X140000561Y-112337972D01*
X140205296Y-112463433D01*
X140427137Y-112555323D01*
X140660621Y-112611377D01*
X140900000Y-112630217D01*
X141139379Y-112611377D01*
X141372863Y-112555323D01*
X141594704Y-112463433D01*
X141799439Y-112337972D01*
X141982027Y-112182027D01*
X142137972Y-111999439D01*
X142263433Y-111794704D01*
X142355323Y-111572863D01*
X142411377Y-111339379D01*
X142430217Y-111100000D01*
X142411377Y-110860621D01*
X142355323Y-110627137D01*
X142263433Y-110405296D01*
X142137972Y-110200561D01*
X142137968Y-110200556D01*
X141982027Y-110017972D01*
X141799443Y-109862031D01*
X141799441Y-109862029D01*
X141799439Y-109862028D01*
X141594704Y-109736567D01*
X141519683Y-109705492D01*
X141372864Y-109644677D01*
X141256121Y-109616650D01*
X141139379Y-109588623D01*
X140900000Y-109569783D01*
X140899999Y-109569783D01*
X140660621Y-109588623D01*
X140427135Y-109644677D01*
X140205297Y-109736566D01*
X140000556Y-109862031D01*
X139817972Y-110017972D01*
X139662031Y-110200556D01*
X139536566Y-110405297D01*
X139444677Y-110627135D01*
X139444677Y-110627137D01*
X139388623Y-110860621D01*
X139369783Y-111100000D01*
X138866392Y-111100000D01*
X138838342Y-111071950D01*
X138725304Y-111014354D01*
X138725303Y-111014353D01*
X138725302Y-111014353D01*
X138600000Y-110994507D01*
X138474697Y-111014353D01*
X138361659Y-111071949D01*
X138271949Y-111161659D01*
X138214353Y-111274697D01*
X138194507Y-111400000D01*
X136331444Y-111400000D01*
X135461185Y-110529741D01*
X135457086Y-110525386D01*
X135416713Y-110479814D01*
X135366583Y-110445211D01*
X135361775Y-110441673D01*
X135313840Y-110404118D01*
X135302530Y-110399028D01*
X135286922Y-110390225D01*
X135276715Y-110383179D01*
X135259003Y-110376462D01*
X135219758Y-110361578D01*
X135214265Y-110359302D01*
X135158716Y-110334302D01*
X135146505Y-110332064D01*
X135129249Y-110327253D01*
X135117657Y-110322857D01*
X135057221Y-110315518D01*
X135051313Y-110314619D01*
X134991388Y-110303638D01*
X134930607Y-110307316D01*
X134924629Y-110307497D01*
X134806407Y-110307497D01*
X134748216Y-110288590D01*
X134712252Y-110239090D01*
X134712252Y-110177904D01*
X134728859Y-110146956D01*
X135639064Y-109000000D01*
X137494507Y-109000000D01*
X137514353Y-109125302D01*
X137514353Y-109125303D01*
X137514354Y-109125304D01*
X137571950Y-109238342D01*
X137661658Y-109328050D01*
X137774696Y-109385646D01*
X137900000Y-109405492D01*
X138025304Y-109385646D01*
X138138342Y-109328050D01*
X138228050Y-109238342D01*
X138285646Y-109125304D01*
X138305492Y-109000000D01*
X138285646Y-108874696D01*
X138228050Y-108761658D01*
X138138342Y-108671950D01*
X138025304Y-108614354D01*
X138025303Y-108614353D01*
X138025302Y-108614353D01*
X137900000Y-108594507D01*
X137774697Y-108614353D01*
X137661659Y-108671949D01*
X137571949Y-108761659D01*
X137514353Y-108874697D01*
X137494507Y-109000000D01*
X135639064Y-109000000D01*
X135715879Y-108903205D01*
X137889769Y-106163872D01*
X137913647Y-106119342D01*
X137922978Y-106040125D01*
X137901283Y-105963369D01*
X137851866Y-105900757D01*
X137851865Y-105900756D01*
X137782250Y-105861821D01*
X137703033Y-105852490D01*
X137654171Y-105865369D01*
X122207502Y-113068269D01*
X122166231Y-113097420D01*
X122122456Y-113164103D01*
X122107535Y-113242456D01*
X122107535Y-113242458D01*
X122123735Y-113320560D01*
X122168588Y-113386517D01*
X122235269Y-113430290D01*
X122284730Y-113440622D01*
X122777332Y-113454080D01*
X129045905Y-113625351D01*
X129059174Y-113624172D01*
X129071819Y-113619976D01*
X132547073Y-111999439D01*
X133151108Y-111717773D01*
X133192947Y-111708497D01*
X134617619Y-111708497D01*
X134675810Y-111727404D01*
X134687623Y-111737493D01*
X140280626Y-117330496D01*
X140308403Y-117385013D01*
X140298832Y-117445445D01*
X140255567Y-117488710D01*
X140210622Y-117499500D01*
X116245165Y-117499500D01*
X116186974Y-117480593D01*
X116175161Y-117470504D01*
X115567170Y-116862513D01*
X114886493Y-116181836D01*
X114858718Y-116127322D01*
X114857500Y-116111847D01*
X114857500Y-111225496D01*
X114876407Y-111167306D01*
X114925907Y-111131342D01*
X114956500Y-111126497D01*
X115409247Y-111126497D01*
X115409248Y-111126497D01*
X115467731Y-111114864D01*
X115534052Y-111070549D01*
X115578367Y-111004228D01*
X115590000Y-110945745D01*
X115590000Y-103686249D01*
X115578367Y-103627766D01*
X115563662Y-103605759D01*
X115534052Y-103561444D01*
X115467731Y-103517130D01*
X115467730Y-103517130D01*
X115409248Y-103505497D01*
X112839752Y-103505497D01*
X112810510Y-103511313D01*
X112781268Y-103517130D01*
X112714947Y-103561444D01*
X112670633Y-103627765D01*
X112659000Y-103686250D01*
X112659000Y-106516497D01*
X112640093Y-106574688D01*
X112590593Y-106610652D01*
X112560000Y-106615497D01*
X112047162Y-106615497D01*
X111988971Y-106596590D01*
X111977158Y-106586501D01*
X108229496Y-102838839D01*
X108201719Y-102784322D01*
X108200500Y-102768835D01*
X108200500Y-102580253D01*
X108198311Y-102569248D01*
X108188867Y-102521769D01*
X108174320Y-102499999D01*
X116369905Y-102499999D01*
X116388214Y-102650788D01*
X116442079Y-102792820D01*
X116473844Y-102838839D01*
X116528368Y-102917830D01*
X116642066Y-103018557D01*
X116642068Y-103018558D01*
X116748656Y-103074500D01*
X116776566Y-103089148D01*
X116924051Y-103125500D01*
X128210520Y-103125500D01*
X128268711Y-103144407D01*
X128304675Y-103193907D01*
X128304675Y-103255093D01*
X128280524Y-103294504D01*
X123699599Y-107875428D01*
X123645083Y-107903205D01*
X123574697Y-107914353D01*
X123461659Y-107971949D01*
X123371949Y-108061659D01*
X123314353Y-108174697D01*
X123294507Y-108300000D01*
X123314353Y-108425302D01*
X123314353Y-108425303D01*
X123314354Y-108425304D01*
X123371950Y-108538342D01*
X123461658Y-108628050D01*
X123574696Y-108685646D01*
X123700000Y-108705492D01*
X123825304Y-108685646D01*
X123938342Y-108628050D01*
X124028050Y-108538342D01*
X124085646Y-108425304D01*
X124096794Y-108354914D01*
X124124567Y-108300402D01*
X128663977Y-103760993D01*
X128718495Y-103733216D01*
X128733982Y-103731997D01*
X130004023Y-103731997D01*
X130062214Y-103750904D01*
X130098178Y-103800404D01*
X130098178Y-103861590D01*
X130074027Y-103901001D01*
X128699599Y-105275428D01*
X128645083Y-105303205D01*
X128574697Y-105314353D01*
X128461659Y-105371949D01*
X128371949Y-105461659D01*
X128314353Y-105574697D01*
X128294507Y-105700000D01*
X128314353Y-105825302D01*
X128314353Y-105825303D01*
X128314354Y-105825304D01*
X128371950Y-105938342D01*
X128461658Y-106028050D01*
X128574696Y-106085646D01*
X128700000Y-106105492D01*
X128719319Y-106102432D01*
X128779750Y-106112003D01*
X128823015Y-106155267D01*
X128832587Y-106215699D01*
X128804810Y-106270216D01*
X128804810Y-106270217D01*
X126399599Y-108675428D01*
X126345083Y-108703205D01*
X126274697Y-108714353D01*
X126161659Y-108771949D01*
X126071949Y-108861659D01*
X126014353Y-108974697D01*
X125994507Y-109100000D01*
X126014353Y-109225302D01*
X126014353Y-109225303D01*
X126014354Y-109225304D01*
X126071950Y-109338342D01*
X126161658Y-109428050D01*
X126274696Y-109485646D01*
X126400000Y-109505492D01*
X126525304Y-109485646D01*
X126638342Y-109428050D01*
X126728050Y-109338342D01*
X126785646Y-109225304D01*
X126796794Y-109154914D01*
X126824567Y-109100402D01*
X131584975Y-104339995D01*
X131639493Y-104312218D01*
X131654980Y-104310999D01*
X132525022Y-104310999D01*
X132583213Y-104329906D01*
X132619177Y-104379406D01*
X132619177Y-104440592D01*
X132595026Y-104480003D01*
X128199599Y-108875428D01*
X128145083Y-108903205D01*
X128074697Y-108914353D01*
X127961659Y-108971949D01*
X127871949Y-109061659D01*
X127814353Y-109174697D01*
X127794507Y-109300000D01*
X127814353Y-109425302D01*
X127814353Y-109425303D01*
X127814354Y-109425304D01*
X127871950Y-109538342D01*
X127961658Y-109628050D01*
X128074696Y-109685646D01*
X128200000Y-109705492D01*
X128325304Y-109685646D01*
X128438342Y-109628050D01*
X128528050Y-109538342D01*
X128585646Y-109425304D01*
X128596794Y-109354914D01*
X128624567Y-109300402D01*
X132147612Y-105777357D01*
X132202127Y-105749582D01*
X132262559Y-105759153D01*
X132305824Y-105802418D01*
X132311332Y-105819373D01*
X132314353Y-105825303D01*
X132314354Y-105825304D01*
X132371950Y-105938342D01*
X132461658Y-106028050D01*
X132574696Y-106085646D01*
X132700000Y-106105492D01*
X132825304Y-106085646D01*
X132938342Y-106028050D01*
X133028050Y-105938342D01*
X133085646Y-105825304D01*
X133096794Y-105754914D01*
X133124567Y-105700402D01*
X133239910Y-105585060D01*
X133595476Y-105229496D01*
X133649992Y-105201719D01*
X133665479Y-105200500D01*
X133993101Y-105200500D01*
X134051292Y-105219407D01*
X134061046Y-105227738D01*
X134061657Y-105228049D01*
X134061658Y-105228050D01*
X134174696Y-105285646D01*
X134300000Y-105305492D01*
X134425304Y-105285646D01*
X134538342Y-105228050D01*
X134628050Y-105138342D01*
X134685646Y-105025304D01*
X134705492Y-104900000D01*
X134685646Y-104774696D01*
X134670231Y-104744444D01*
X134660661Y-104684013D01*
X134688439Y-104629496D01*
X134742955Y-104601719D01*
X134758442Y-104600500D01*
X135734521Y-104600500D01*
X135792712Y-104619407D01*
X135804525Y-104629496D01*
X136641437Y-105466409D01*
X136650856Y-105479500D01*
X136690715Y-105515837D01*
X136694020Y-105518993D01*
X136707200Y-105532173D01*
X136707203Y-105532175D01*
X136707300Y-105532241D01*
X136718050Y-105540757D01*
X136739064Y-105559914D01*
X136739065Y-105559914D01*
X136739067Y-105559916D01*
X136748228Y-105563464D01*
X136768417Y-105574107D01*
X136776518Y-105579656D01*
X136776520Y-105579657D01*
X136804204Y-105586167D01*
X136817299Y-105590222D01*
X136843827Y-105600500D01*
X136853654Y-105600500D01*
X136876318Y-105603129D01*
X136885882Y-105605379D01*
X136914055Y-105601449D01*
X136927732Y-105600500D01*
X137434835Y-105600500D01*
X137450755Y-105603097D01*
X137457764Y-105602772D01*
X137457765Y-105602773D01*
X137504641Y-105600606D01*
X137509214Y-105600500D01*
X137527844Y-105600500D01*
X137527951Y-105600480D01*
X137541571Y-105598898D01*
X137569992Y-105597585D01*
X137578982Y-105593615D01*
X137600772Y-105586866D01*
X137610433Y-105585061D01*
X137634623Y-105570082D01*
X137646722Y-105563704D01*
X137672765Y-105552206D01*
X137679710Y-105545259D01*
X137697597Y-105531091D01*
X137705952Y-105525919D01*
X137721286Y-105505612D01*
X137771439Y-105470567D01*
X137832614Y-105471695D01*
X137870295Y-105495266D01*
X139641436Y-107266407D01*
X139650857Y-107279501D01*
X139690726Y-107315847D01*
X139694031Y-107319003D01*
X139707201Y-107332173D01*
X139707295Y-107332237D01*
X139718039Y-107340746D01*
X139739067Y-107359916D01*
X139748230Y-107363465D01*
X139768413Y-107374103D01*
X139776519Y-107379656D01*
X139804211Y-107386169D01*
X139817298Y-107390222D01*
X139843827Y-107400500D01*
X139853652Y-107400500D01*
X139876317Y-107403129D01*
X139885881Y-107405379D01*
X139914053Y-107401448D01*
X139927731Y-107400500D01*
X140134835Y-107400500D01*
X140150755Y-107403097D01*
X140157764Y-107402772D01*
X140157765Y-107402773D01*
X140204641Y-107400606D01*
X140209214Y-107400500D01*
X140227844Y-107400500D01*
X140227951Y-107400480D01*
X140241571Y-107398898D01*
X140269992Y-107397585D01*
X140278982Y-107393615D01*
X140300772Y-107386866D01*
X140310433Y-107385061D01*
X140334623Y-107370082D01*
X140346722Y-107363704D01*
X140372765Y-107352206D01*
X140379710Y-107345259D01*
X140397597Y-107331091D01*
X140405952Y-107325919D01*
X140423095Y-107303216D01*
X140432090Y-107292880D01*
X140985476Y-106739496D01*
X141039992Y-106711719D01*
X141055479Y-106710500D01*
X141269746Y-106710500D01*
X141269748Y-106710500D01*
X141328231Y-106698867D01*
X141328232Y-106698865D01*
X141330685Y-106698378D01*
X141369315Y-106698378D01*
X141371767Y-106698865D01*
X141371769Y-106698867D01*
X141430252Y-106710500D01*
X141430254Y-106710500D01*
X141769746Y-106710500D01*
X141769748Y-106710500D01*
X141828231Y-106698867D01*
X141828232Y-106698865D01*
X141830685Y-106698378D01*
X141869315Y-106698378D01*
X141871767Y-106698865D01*
X141871769Y-106698867D01*
X141930252Y-106710500D01*
X141930254Y-106710500D01*
X142269746Y-106710500D01*
X142269748Y-106710500D01*
X142328231Y-106698867D01*
X142328232Y-106698865D01*
X142330685Y-106698378D01*
X142369315Y-106698378D01*
X142371767Y-106698865D01*
X142371769Y-106698867D01*
X142430252Y-106710500D01*
X142430254Y-106710500D01*
X142769747Y-106710500D01*
X142769748Y-106710500D01*
X142828231Y-106698867D01*
X142894552Y-106654552D01*
X142938867Y-106588231D01*
X142950500Y-106529748D01*
X142950500Y-105870252D01*
X142938867Y-105811769D01*
X142915875Y-105777359D01*
X142893998Y-105744618D01*
X142859317Y-105703340D01*
X142852206Y-105687235D01*
X142852204Y-105687233D01*
X142852204Y-105687232D01*
X142845256Y-105680284D01*
X142831090Y-105662399D01*
X142825919Y-105654048D01*
X142803221Y-105636907D01*
X142792879Y-105627908D01*
X142698566Y-105533595D01*
X142689145Y-105520501D01*
X142649273Y-105484152D01*
X142645967Y-105480995D01*
X142632796Y-105467825D01*
X142632697Y-105467757D01*
X142621954Y-105459247D01*
X142600934Y-105440085D01*
X142600933Y-105440084D01*
X142591762Y-105436531D01*
X142571587Y-105425896D01*
X142563481Y-105420344D01*
X142535797Y-105413832D01*
X142522704Y-105409777D01*
X142496175Y-105399500D01*
X142496173Y-105399500D01*
X142486348Y-105399500D01*
X142463682Y-105396870D01*
X142454119Y-105394621D01*
X142454118Y-105394621D01*
X142425947Y-105398551D01*
X142412269Y-105399500D01*
X140865479Y-105399500D01*
X140807288Y-105380593D01*
X140795475Y-105370504D01*
X139758566Y-104333595D01*
X139749145Y-104320501D01*
X139709273Y-104284152D01*
X139705967Y-104280995D01*
X139692796Y-104267825D01*
X139692697Y-104267757D01*
X139681954Y-104259247D01*
X139660934Y-104240085D01*
X139660933Y-104240084D01*
X139651762Y-104236531D01*
X139631587Y-104225896D01*
X139623481Y-104220344D01*
X139608701Y-104216867D01*
X139556386Y-104185139D01*
X139532712Y-104128720D01*
X139546721Y-104069160D01*
X139593064Y-104029209D01*
X139631370Y-104021498D01*
X141150500Y-104021498D01*
X141208691Y-104040405D01*
X141244655Y-104089905D01*
X141249500Y-104120498D01*
X141249500Y-104709746D01*
X141261133Y-104768231D01*
X141305447Y-104834552D01*
X141349761Y-104864162D01*
X141371769Y-104878867D01*
X141430252Y-104890500D01*
X141430253Y-104890500D01*
X141769746Y-104890500D01*
X141769748Y-104890500D01*
X141828231Y-104878867D01*
X141828232Y-104878865D01*
X141830685Y-104878378D01*
X141869315Y-104878378D01*
X141871767Y-104878865D01*
X141871769Y-104878867D01*
X141930252Y-104890500D01*
X141930254Y-104890500D01*
X142269746Y-104890500D01*
X142269748Y-104890500D01*
X142328231Y-104878867D01*
X142328232Y-104878865D01*
X142330685Y-104878378D01*
X142369315Y-104878378D01*
X142371767Y-104878865D01*
X142371769Y-104878867D01*
X142430252Y-104890500D01*
X142430254Y-104890500D01*
X142769747Y-104890500D01*
X142769748Y-104890500D01*
X142828231Y-104878867D01*
X142894552Y-104834552D01*
X142938867Y-104768231D01*
X142940467Y-104760185D01*
X142970364Y-104706802D01*
X143025929Y-104681186D01*
X143037565Y-104680500D01*
X143327952Y-104680500D01*
X143386143Y-104699407D01*
X143397955Y-104709496D01*
X143431684Y-104743224D01*
X143540513Y-104793972D01*
X143590099Y-104800500D01*
X144009900Y-104800499D01*
X144059487Y-104793972D01*
X144168316Y-104743224D01*
X144253224Y-104658316D01*
X144303972Y-104549487D01*
X144310500Y-104499901D01*
X144310499Y-104140100D01*
X144303972Y-104090513D01*
X144253224Y-103981684D01*
X144168316Y-103896776D01*
X144168314Y-103896775D01*
X144168313Y-103896774D01*
X144059488Y-103846028D01*
X144013114Y-103839923D01*
X144009901Y-103839500D01*
X144006660Y-103839500D01*
X143593342Y-103839500D01*
X143593326Y-103839500D01*
X143590100Y-103839501D01*
X143586892Y-103839923D01*
X143586880Y-103839924D01*
X143540515Y-103846027D01*
X143449489Y-103888473D01*
X143388760Y-103895929D01*
X143339517Y-103868633D01*
X143361081Y-103910954D01*
X143353025Y-103968280D01*
X143327818Y-104022338D01*
X143286090Y-104067087D01*
X143238093Y-104079500D01*
X143157208Y-104079500D01*
X143099017Y-104060593D01*
X143063053Y-104011093D01*
X143063053Y-103949907D01*
X143099017Y-103900407D01*
X143112262Y-103892291D01*
X143125302Y-103885646D01*
X143125304Y-103885646D01*
X143218358Y-103838232D01*
X143278786Y-103828661D01*
X143329840Y-103854673D01*
X143309388Y-103810813D01*
X143321063Y-103750752D01*
X143323110Y-103748036D01*
X143328048Y-103738343D01*
X143328050Y-103738342D01*
X143385646Y-103625304D01*
X143405492Y-103500000D01*
X143385646Y-103374696D01*
X143328050Y-103261658D01*
X143238342Y-103171950D01*
X143125304Y-103114354D01*
X143125303Y-103114353D01*
X143125302Y-103114353D01*
X142999999Y-103094507D01*
X142874695Y-103114354D01*
X142863208Y-103120207D01*
X142818264Y-103130997D01*
X133492057Y-103130997D01*
X133433866Y-103112090D01*
X133397902Y-103062590D01*
X133397902Y-103001404D01*
X133426406Y-102957895D01*
X133471632Y-102917830D01*
X133557921Y-102792819D01*
X133611785Y-102650791D01*
X133630094Y-102500000D01*
X133611785Y-102349209D01*
X133557921Y-102207181D01*
X133471632Y-102082170D01*
X133357934Y-101981443D01*
X133357932Y-101981442D01*
X133357931Y-101981441D01*
X133223435Y-101910852D01*
X133075949Y-101874500D01*
X133005072Y-101874500D01*
X125005072Y-101874500D01*
X117008285Y-101874500D01*
X117000000Y-101874500D01*
X116924051Y-101874500D01*
X116776564Y-101910852D01*
X116642068Y-101981441D01*
X116528367Y-102082171D01*
X116442079Y-102207179D01*
X116388214Y-102349211D01*
X116369905Y-102499999D01*
X108174320Y-102499999D01*
X108174162Y-102499762D01*
X108144552Y-102455447D01*
X108078231Y-102411133D01*
X108078230Y-102411133D01*
X108019748Y-102399500D01*
X108019747Y-102399500D01*
X107572653Y-102399500D01*
X107554808Y-102397878D01*
X107552968Y-102397540D01*
X107542605Y-102395641D01*
X107481823Y-102399319D01*
X107475845Y-102399500D01*
X106980252Y-102399500D01*
X106951010Y-102405316D01*
X106921768Y-102411133D01*
X106855447Y-102455447D01*
X106811133Y-102521768D01*
X106799500Y-102580253D01*
X106799500Y-103075844D01*
X106799319Y-103081822D01*
X106795641Y-103142605D01*
X106797878Y-103154807D01*
X106799500Y-103172652D01*
X106799500Y-103619748D01*
X106801095Y-103627765D01*
X106811133Y-103678231D01*
X106855447Y-103744552D01*
X106880053Y-103760993D01*
X106921769Y-103788867D01*
X106980252Y-103800500D01*
X107168835Y-103800500D01*
X107227026Y-103819407D01*
X107238839Y-103829496D01*
X111203594Y-107794251D01*
X111207692Y-107798606D01*
X111248066Y-107844179D01*
X111298188Y-107878776D01*
X111303004Y-107882320D01*
X111323239Y-107898173D01*
X111350940Y-107919875D01*
X111362249Y-107924964D01*
X111377852Y-107933764D01*
X111388067Y-107940815D01*
X111445015Y-107962412D01*
X111450527Y-107964695D01*
X111506065Y-107989691D01*
X111518269Y-107991927D01*
X111535529Y-107996739D01*
X111547125Y-108001137D01*
X111607602Y-108008480D01*
X111613467Y-108009372D01*
X111673391Y-108020354D01*
X111673391Y-108020353D01*
X111673392Y-108020354D01*
X111710056Y-108018136D01*
X111734164Y-108016677D01*
X111740141Y-108016497D01*
X112560000Y-108016497D01*
X112618191Y-108035404D01*
X112654155Y-108084904D01*
X112659000Y-108115497D01*
X112659000Y-110945743D01*
X112670633Y-111004228D01*
X112714947Y-111070549D01*
X112759022Y-111099999D01*
X112781269Y-111114864D01*
X112839752Y-111126497D01*
X113357500Y-111126497D01*
X113415691Y-111145404D01*
X113451655Y-111194904D01*
X113456500Y-111225497D01*
X113456500Y-116111834D01*
X113437593Y-116170025D01*
X113427504Y-116181838D01*
X106339680Y-123269661D01*
X106285163Y-123297438D01*
X106235079Y-123292415D01*
X106139233Y-123256666D01*
X106050923Y-123223729D01*
X106050919Y-123223728D01*
X105778299Y-123164422D01*
X105500000Y-123144518D01*
X105221700Y-123164422D01*
X104949080Y-123223728D01*
X104687662Y-123321230D01*
X104442787Y-123454943D01*
X104219435Y-123622142D01*
X104022142Y-123819435D01*
X103854943Y-124042787D01*
X103721230Y-124287662D01*
X103623728Y-124549080D01*
X103564422Y-124821700D01*
X103544518Y-125100000D01*
X103125500Y-125100000D01*
X103125500Y-124994928D01*
X103125500Y-124994927D01*
X103125500Y-116994928D01*
X103125500Y-116953930D01*
X103125499Y-116953924D01*
X103125500Y-116924051D01*
X103089148Y-116776566D01*
X103018557Y-116642066D01*
X102917830Y-116528368D01*
X102866195Y-116492727D01*
X102792820Y-116442079D01*
X102650788Y-116388214D01*
X102499999Y-116369905D01*
X102349211Y-116388214D01*
X102207179Y-116442079D01*
X102082171Y-116528367D01*
X101981441Y-116642068D01*
X101910852Y-116776564D01*
X101874500Y-116924050D01*
X101874500Y-116994928D01*
X101874499Y-125014616D01*
X100025500Y-125014616D01*
X100025500Y-111100000D01*
X107569783Y-111100000D01*
X107588623Y-111339378D01*
X107644677Y-111572864D01*
X107704701Y-111717773D01*
X107736567Y-111794704D01*
X107862028Y-111999439D01*
X107862029Y-111999441D01*
X107862031Y-111999443D01*
X108017972Y-112182027D01*
X108196381Y-112334402D01*
X108200561Y-112337972D01*
X108405296Y-112463433D01*
X108627137Y-112555323D01*
X108860621Y-112611377D01*
X109100000Y-112630217D01*
X109339379Y-112611377D01*
X109572863Y-112555323D01*
X109794704Y-112463433D01*
X109999439Y-112337972D01*
X110182027Y-112182027D01*
X110337972Y-111999439D01*
X110463433Y-111794704D01*
X110555323Y-111572863D01*
X110611377Y-111339379D01*
X110630217Y-111100000D01*
X110611377Y-110860621D01*
X110555323Y-110627137D01*
X110463433Y-110405296D01*
X110337972Y-110200561D01*
X110337968Y-110200556D01*
X110182027Y-110017972D01*
X109999443Y-109862031D01*
X109999441Y-109862029D01*
X109999439Y-109862028D01*
X109794704Y-109736567D01*
X109719683Y-109705492D01*
X109572864Y-109644677D01*
X109456121Y-109616650D01*
X109339379Y-109588623D01*
X109100000Y-109569783D01*
X109099999Y-109569783D01*
X108860621Y-109588623D01*
X108627135Y-109644677D01*
X108405297Y-109736566D01*
X108200556Y-109862031D01*
X108017972Y-110017972D01*
X107862031Y-110200556D01*
X107736566Y-110405297D01*
X107644677Y-110627135D01*
X107588623Y-110860621D01*
X107569783Y-111100000D01*
X100025500Y-111100000D01*
X100025500Y-106356672D01*
X104189500Y-106356672D01*
X104189501Y-106359900D01*
X104189923Y-106363108D01*
X104189924Y-106363119D01*
X104196027Y-106409486D01*
X104239742Y-106503231D01*
X104246776Y-106518316D01*
X104331684Y-106603224D01*
X104331685Y-106603224D01*
X104331686Y-106603225D01*
X104342339Y-106608193D01*
X104387087Y-106649921D01*
X104399500Y-106697917D01*
X104399500Y-108134834D01*
X104396902Y-108150758D01*
X104399394Y-108204641D01*
X104399500Y-108209213D01*
X104399500Y-108227845D01*
X104399521Y-108227958D01*
X104401101Y-108241578D01*
X104402414Y-108269991D01*
X104406384Y-108278982D01*
X104413132Y-108300773D01*
X104414938Y-108310432D01*
X104429911Y-108334616D01*
X104436300Y-108346736D01*
X104447794Y-108372765D01*
X104447795Y-108372766D01*
X104454743Y-108379715D01*
X104468908Y-108397597D01*
X104474081Y-108405952D01*
X104483824Y-108421687D01*
X104482190Y-108422698D01*
X104501521Y-108450360D01*
X104504601Y-108463728D01*
X104514353Y-108525302D01*
X104514353Y-108525303D01*
X104514354Y-108525304D01*
X104571950Y-108638342D01*
X104661658Y-108728050D01*
X104774696Y-108785646D01*
X104837348Y-108795568D01*
X104899999Y-108805492D01*
X104899999Y-108805491D01*
X104900000Y-108805492D01*
X105025304Y-108785646D01*
X105138342Y-108728050D01*
X105228050Y-108638342D01*
X105285646Y-108525304D01*
X105305492Y-108400000D01*
X105285646Y-108274696D01*
X105228050Y-108161658D01*
X105138342Y-108071950D01*
X105054553Y-108029257D01*
X105011289Y-107985993D01*
X105000500Y-107941052D01*
X105000500Y-106697917D01*
X105019407Y-106639726D01*
X105057661Y-106608193D01*
X105063641Y-106605403D01*
X105068316Y-106603224D01*
X105153224Y-106518316D01*
X105153224Y-106518313D01*
X105162043Y-106509496D01*
X105216560Y-106481719D01*
X105232047Y-106480500D01*
X105237014Y-106480500D01*
X105295205Y-106499407D01*
X105331169Y-106548907D01*
X105331169Y-106610093D01*
X105319330Y-106634501D01*
X105311133Y-106646768D01*
X105299500Y-106705253D01*
X105299500Y-107094746D01*
X105311133Y-107153231D01*
X105355447Y-107219552D01*
X105428296Y-107268228D01*
X105473195Y-107293370D01*
X105498813Y-107348934D01*
X105499500Y-107360575D01*
X105499500Y-108234834D01*
X105496902Y-108250758D01*
X105499394Y-108304641D01*
X105499500Y-108309213D01*
X105499500Y-108327845D01*
X105499521Y-108327958D01*
X105501101Y-108341580D01*
X105502413Y-108369989D01*
X105506384Y-108378982D01*
X105513132Y-108400773D01*
X105514938Y-108410432D01*
X105529911Y-108434616D01*
X105536300Y-108446736D01*
X105547794Y-108472765D01*
X105547795Y-108472766D01*
X105554743Y-108479715D01*
X105568910Y-108497600D01*
X105574081Y-108505953D01*
X105596772Y-108523087D01*
X105607117Y-108532088D01*
X106241436Y-109166407D01*
X106250857Y-109179501D01*
X106290726Y-109215847D01*
X106294031Y-109219003D01*
X106307201Y-109232173D01*
X106307295Y-109232237D01*
X106318039Y-109240746D01*
X106339067Y-109259916D01*
X106348230Y-109263465D01*
X106368413Y-109274103D01*
X106376519Y-109279656D01*
X106404211Y-109286169D01*
X106417298Y-109290222D01*
X106443827Y-109300500D01*
X106453652Y-109300500D01*
X106476317Y-109303129D01*
X106485881Y-109305379D01*
X106514053Y-109301448D01*
X106527731Y-109300500D01*
X110034835Y-109300500D01*
X110050755Y-109303097D01*
X110057764Y-109302772D01*
X110057765Y-109302773D01*
X110104641Y-109300606D01*
X110109214Y-109300500D01*
X110127844Y-109300500D01*
X110127951Y-109300480D01*
X110141571Y-109298898D01*
X110169992Y-109297585D01*
X110178982Y-109293615D01*
X110200772Y-109286866D01*
X110210433Y-109285061D01*
X110234623Y-109270082D01*
X110246722Y-109263704D01*
X110272765Y-109252206D01*
X110279710Y-109245259D01*
X110297597Y-109231091D01*
X110305952Y-109225919D01*
X110323095Y-109203216D01*
X110332082Y-109192887D01*
X110600401Y-108924568D01*
X110654913Y-108896794D01*
X110725304Y-108885646D01*
X110838342Y-108828050D01*
X110928050Y-108738342D01*
X110985646Y-108625304D01*
X111005492Y-108500000D01*
X110985646Y-108374696D01*
X110928050Y-108261658D01*
X110838342Y-108171950D01*
X110725304Y-108114354D01*
X110725303Y-108114353D01*
X110725302Y-108114353D01*
X110600000Y-108094507D01*
X110474697Y-108114353D01*
X110361659Y-108171949D01*
X110271949Y-108261659D01*
X110214353Y-108374697D01*
X110203205Y-108445084D01*
X110175428Y-108499599D01*
X110004526Y-108670503D01*
X109950010Y-108698281D01*
X109934522Y-108699500D01*
X109458442Y-108699500D01*
X109400251Y-108680593D01*
X109364287Y-108631093D01*
X109364287Y-108569907D01*
X109370232Y-108555555D01*
X109385646Y-108525304D01*
X109405492Y-108400000D01*
X109385646Y-108274696D01*
X109328050Y-108161658D01*
X109320931Y-108147686D01*
X109321493Y-108147399D01*
X109301718Y-108108586D01*
X109300499Y-108093099D01*
X109300499Y-108065163D01*
X109303097Y-108049246D01*
X109300606Y-107995358D01*
X109300500Y-107990786D01*
X109300500Y-107972156D01*
X109300480Y-107972050D01*
X109298898Y-107958430D01*
X109297585Y-107930009D01*
X109293614Y-107921016D01*
X109286866Y-107899225D01*
X109285061Y-107889567D01*
X109280574Y-107882320D01*
X109270086Y-107865381D01*
X109263693Y-107853251D01*
X109252206Y-107827234D01*
X109245256Y-107820284D01*
X109231090Y-107802399D01*
X109225919Y-107794048D01*
X109203221Y-107776907D01*
X109192879Y-107767908D01*
X108429496Y-107004524D01*
X108401719Y-106950007D01*
X108400500Y-106934520D01*
X108400500Y-106705253D01*
X108399230Y-106698867D01*
X108388867Y-106646769D01*
X108374162Y-106624762D01*
X108344552Y-106580447D01*
X108278231Y-106536133D01*
X108246121Y-106529746D01*
X108219748Y-106524500D01*
X107580252Y-106524500D01*
X107560766Y-106528376D01*
X107521768Y-106536133D01*
X107455447Y-106580447D01*
X107411133Y-106646768D01*
X107399500Y-106705253D01*
X107399500Y-107094746D01*
X107411133Y-107153231D01*
X107455447Y-107219552D01*
X107499761Y-107249162D01*
X107521769Y-107263867D01*
X107580252Y-107275500D01*
X107809521Y-107275500D01*
X107867712Y-107294407D01*
X107879525Y-107304496D01*
X108642940Y-108067911D01*
X108670717Y-108122428D01*
X108661146Y-108182859D01*
X108614354Y-108274695D01*
X108594507Y-108400000D01*
X108614353Y-108525302D01*
X108629768Y-108555555D01*
X108639339Y-108615987D01*
X108611561Y-108670504D01*
X108557045Y-108698281D01*
X108541558Y-108699500D01*
X106665480Y-108699500D01*
X106607289Y-108680593D01*
X106595476Y-108670504D01*
X106129496Y-108204524D01*
X106101719Y-108150007D01*
X106100500Y-108134520D01*
X106100500Y-107360575D01*
X106119407Y-107302384D01*
X106168907Y-107266420D01*
X106177935Y-107264064D01*
X106178229Y-107263867D01*
X106178231Y-107263867D01*
X106244552Y-107219552D01*
X106288867Y-107153231D01*
X106300500Y-107094748D01*
X106300500Y-106705252D01*
X106288867Y-106646769D01*
X106277663Y-106630002D01*
X106261054Y-106571115D01*
X106277664Y-106519997D01*
X106278787Y-106518316D01*
X106288867Y-106503231D01*
X106300500Y-106444748D01*
X106300500Y-106055252D01*
X106288867Y-105996769D01*
X106277663Y-105980001D01*
X106261054Y-105921113D01*
X106277662Y-105869999D01*
X106288867Y-105853231D01*
X106300500Y-105794748D01*
X106300500Y-105405252D01*
X106288867Y-105346769D01*
X106256396Y-105298173D01*
X106244552Y-105280447D01*
X106178231Y-105236133D01*
X106178230Y-105236133D01*
X106164811Y-105233463D01*
X106111429Y-105203567D01*
X106085813Y-105148002D01*
X106086345Y-105120885D01*
X106105492Y-105000000D01*
X106085646Y-104874696D01*
X106028050Y-104761658D01*
X105938342Y-104671950D01*
X105825304Y-104614354D01*
X105825303Y-104614353D01*
X105825302Y-104614353D01*
X105700000Y-104594507D01*
X105574697Y-104614353D01*
X105461659Y-104671949D01*
X105371949Y-104761659D01*
X105314353Y-104874697D01*
X105294507Y-105000000D01*
X105314353Y-105125302D01*
X105350640Y-105196518D01*
X105360211Y-105256950D01*
X105344745Y-105296465D01*
X105311133Y-105346768D01*
X105299500Y-105405253D01*
X105299500Y-105748953D01*
X105280593Y-105807144D01*
X105231093Y-105843108D01*
X105169907Y-105843108D01*
X105130498Y-105818958D01*
X105068316Y-105756776D01*
X105068314Y-105756775D01*
X105068313Y-105756774D01*
X104959488Y-105706028D01*
X104913114Y-105699923D01*
X104909901Y-105699500D01*
X104906660Y-105699500D01*
X104493342Y-105699500D01*
X104493326Y-105699500D01*
X104490100Y-105699501D01*
X104486892Y-105699923D01*
X104486880Y-105699924D01*
X104440513Y-105706027D01*
X104331685Y-105756775D01*
X104246774Y-105841686D01*
X104196028Y-105950511D01*
X104189938Y-105996769D01*
X104189500Y-106000099D01*
X104189500Y-106003338D01*
X104189500Y-106003339D01*
X104189500Y-106356657D01*
X104189500Y-106356672D01*
X100025500Y-106356672D01*
X100025500Y-100124500D01*
X100044407Y-100066309D01*
X100093907Y-100030345D01*
X100124500Y-100025500D01*
X149875500Y-100025500D01*
X149933691Y-100044407D01*
G37*
G04 #@! TD.AperFunction*
M02*
