G04 #@! TF.GenerationSoftware,KiCad,Pcbnew,7.0.2*
G04 #@! TF.CreationDate,2023-06-06T15:19:24-04:00*
G04 #@! TF.ProjectId,ExternalFaces,45787465-726e-4616-9c46-616365732e6b,rev?*
G04 #@! TF.SameCoordinates,Original*
G04 #@! TF.FileFunction,Legend,Bot*
G04 #@! TF.FilePolarity,Positive*
%FSLAX46Y46*%
G04 Gerber Fmt 4.6, Leading zero omitted, Abs format (unit mm)*
G04 Created by KiCad (PCBNEW 7.0.2) date 2023-06-06 15:19:24*
%MOMM*%
%LPD*%
G01*
G04 APERTURE LIST*
G04 Aperture macros list*
%AMRoundRect*
0 Rectangle with rounded corners*
0 $1 Rounding radius*
0 $2 $3 $4 $5 $6 $7 $8 $9 X,Y pos of 4 corners*
0 Add a 4 corners polygon primitive as box body*
4,1,4,$2,$3,$4,$5,$6,$7,$8,$9,$2,$3,0*
0 Add four circle primitives for the rounded corners*
1,1,$1+$1,$2,$3*
1,1,$1+$1,$4,$5*
1,1,$1+$1,$6,$7*
1,1,$1+$1,$8,$9*
0 Add four rect primitives between the rounded corners*
20,1,$1+$1,$2,$3,$4,$5,0*
20,1,$1+$1,$4,$5,$6,$7,0*
20,1,$1+$1,$6,$7,$8,$9,0*
20,1,$1+$1,$8,$9,$2,$3,0*%
G04 Aperture macros list end*
%ADD10C,0.150000*%
%ADD11C,0.254000*%
%ADD12C,0.120000*%
%ADD13C,0.200000*%
%ADD14C,0.250000*%
%ADD15C,0.010000*%
%ADD16RoundRect,0.135000X0.185000X-0.135000X0.185000X0.135000X-0.185000X0.135000X-0.185000X-0.135000X0*%
%ADD17R,1.500000X1.000000*%
%ADD18R,0.380000X1.520000*%
%ADD19R,1.400000X2.290000*%
%ADD20RoundRect,0.140000X-0.140000X-0.170000X0.140000X-0.170000X0.140000X0.170000X-0.140000X0.170000X0*%
%ADD21RoundRect,0.140000X0.170000X-0.140000X0.170000X0.140000X-0.170000X0.140000X-0.170000X-0.140000X0*%
%ADD22R,0.700000X0.300000*%
%ADD23R,1.000000X1.700000*%
%ADD24R,0.450000X1.475000*%
%ADD25RoundRect,0.135000X0.135000X0.185000X-0.135000X0.185000X-0.135000X-0.185000X0.135000X-0.185000X0*%
%ADD26RoundRect,0.140000X-0.170000X0.140000X-0.170000X-0.140000X0.170000X-0.140000X0.170000X0.140000X0*%
%ADD27RoundRect,0.140000X0.140000X0.170000X-0.140000X0.170000X-0.140000X-0.170000X0.140000X-0.170000X0*%
%ADD28R,1.200000X3.700000*%
%ADD29R,0.900000X1.200000*%
G04 APERTURE END LIST*
D10*
X132300000Y-98400000D02*
X127369952Y-93569952D01*
X130519804Y-95700000D02*
G75*
G03*
X130519804Y-95700000I-1019804J0D01*
G01*
X124600000Y-100600000D02*
X131900000Y-93600000D01*
X134400000Y-98400000D02*
X132300000Y-98400000D01*
X132300000Y-100600000D01*
X124600000Y-100600000D01*
X124600000Y-93600000D01*
X131900000Y-93600000D01*
X134400000Y-93600000D01*
X134400000Y-98400000D01*
X150919048Y-75162619D02*
X150919048Y-74162619D01*
X150919048Y-74162619D02*
X150680953Y-74162619D01*
X150680953Y-74162619D02*
X150538096Y-74210238D01*
X150538096Y-74210238D02*
X150442858Y-74305476D01*
X150442858Y-74305476D02*
X150395239Y-74400714D01*
X150395239Y-74400714D02*
X150347620Y-74591190D01*
X150347620Y-74591190D02*
X150347620Y-74734047D01*
X150347620Y-74734047D02*
X150395239Y-74924523D01*
X150395239Y-74924523D02*
X150442858Y-75019761D01*
X150442858Y-75019761D02*
X150538096Y-75115000D01*
X150538096Y-75115000D02*
X150680953Y-75162619D01*
X150680953Y-75162619D02*
X150919048Y-75162619D01*
X149538096Y-75115000D02*
X149633334Y-75162619D01*
X149633334Y-75162619D02*
X149823810Y-75162619D01*
X149823810Y-75162619D02*
X149919048Y-75115000D01*
X149919048Y-75115000D02*
X149966667Y-75019761D01*
X149966667Y-75019761D02*
X149966667Y-74638809D01*
X149966667Y-74638809D02*
X149919048Y-74543571D01*
X149919048Y-74543571D02*
X149823810Y-74495952D01*
X149823810Y-74495952D02*
X149633334Y-74495952D01*
X149633334Y-74495952D02*
X149538096Y-74543571D01*
X149538096Y-74543571D02*
X149490477Y-74638809D01*
X149490477Y-74638809D02*
X149490477Y-74734047D01*
X149490477Y-74734047D02*
X149966667Y-74829285D01*
X149109524Y-75115000D02*
X149014286Y-75162619D01*
X149014286Y-75162619D02*
X148823810Y-75162619D01*
X148823810Y-75162619D02*
X148728572Y-75115000D01*
X148728572Y-75115000D02*
X148680953Y-75019761D01*
X148680953Y-75019761D02*
X148680953Y-74972142D01*
X148680953Y-74972142D02*
X148728572Y-74876904D01*
X148728572Y-74876904D02*
X148823810Y-74829285D01*
X148823810Y-74829285D02*
X148966667Y-74829285D01*
X148966667Y-74829285D02*
X149061905Y-74781666D01*
X149061905Y-74781666D02*
X149109524Y-74686428D01*
X149109524Y-74686428D02*
X149109524Y-74638809D01*
X149109524Y-74638809D02*
X149061905Y-74543571D01*
X149061905Y-74543571D02*
X148966667Y-74495952D01*
X148966667Y-74495952D02*
X148823810Y-74495952D01*
X148823810Y-74495952D02*
X148728572Y-74543571D01*
X148252381Y-75162619D02*
X148252381Y-74495952D01*
X148252381Y-74162619D02*
X148300000Y-74210238D01*
X148300000Y-74210238D02*
X148252381Y-74257857D01*
X148252381Y-74257857D02*
X148204762Y-74210238D01*
X148204762Y-74210238D02*
X148252381Y-74162619D01*
X148252381Y-74162619D02*
X148252381Y-74257857D01*
X147347620Y-74495952D02*
X147347620Y-75305476D01*
X147347620Y-75305476D02*
X147395239Y-75400714D01*
X147395239Y-75400714D02*
X147442858Y-75448333D01*
X147442858Y-75448333D02*
X147538096Y-75495952D01*
X147538096Y-75495952D02*
X147680953Y-75495952D01*
X147680953Y-75495952D02*
X147776191Y-75448333D01*
X147347620Y-75115000D02*
X147442858Y-75162619D01*
X147442858Y-75162619D02*
X147633334Y-75162619D01*
X147633334Y-75162619D02*
X147728572Y-75115000D01*
X147728572Y-75115000D02*
X147776191Y-75067380D01*
X147776191Y-75067380D02*
X147823810Y-74972142D01*
X147823810Y-74972142D02*
X147823810Y-74686428D01*
X147823810Y-74686428D02*
X147776191Y-74591190D01*
X147776191Y-74591190D02*
X147728572Y-74543571D01*
X147728572Y-74543571D02*
X147633334Y-74495952D01*
X147633334Y-74495952D02*
X147442858Y-74495952D01*
X147442858Y-74495952D02*
X147347620Y-74543571D01*
X146871429Y-74495952D02*
X146871429Y-75162619D01*
X146871429Y-74591190D02*
X146823810Y-74543571D01*
X146823810Y-74543571D02*
X146728572Y-74495952D01*
X146728572Y-74495952D02*
X146585715Y-74495952D01*
X146585715Y-74495952D02*
X146490477Y-74543571D01*
X146490477Y-74543571D02*
X146442858Y-74638809D01*
X146442858Y-74638809D02*
X146442858Y-75162619D01*
X145585715Y-75115000D02*
X145680953Y-75162619D01*
X145680953Y-75162619D02*
X145871429Y-75162619D01*
X145871429Y-75162619D02*
X145966667Y-75115000D01*
X145966667Y-75115000D02*
X146014286Y-75019761D01*
X146014286Y-75019761D02*
X146014286Y-74638809D01*
X146014286Y-74638809D02*
X145966667Y-74543571D01*
X145966667Y-74543571D02*
X145871429Y-74495952D01*
X145871429Y-74495952D02*
X145680953Y-74495952D01*
X145680953Y-74495952D02*
X145585715Y-74543571D01*
X145585715Y-74543571D02*
X145538096Y-74638809D01*
X145538096Y-74638809D02*
X145538096Y-74734047D01*
X145538096Y-74734047D02*
X146014286Y-74829285D01*
X144680953Y-75162619D02*
X144680953Y-74162619D01*
X144680953Y-75115000D02*
X144776191Y-75162619D01*
X144776191Y-75162619D02*
X144966667Y-75162619D01*
X144966667Y-75162619D02*
X145061905Y-75115000D01*
X145061905Y-75115000D02*
X145109524Y-75067380D01*
X145109524Y-75067380D02*
X145157143Y-74972142D01*
X145157143Y-74972142D02*
X145157143Y-74686428D01*
X145157143Y-74686428D02*
X145109524Y-74591190D01*
X145109524Y-74591190D02*
X145061905Y-74543571D01*
X145061905Y-74543571D02*
X144966667Y-74495952D01*
X144966667Y-74495952D02*
X144776191Y-74495952D01*
X144776191Y-74495952D02*
X144680953Y-74543571D01*
X143442857Y-75162619D02*
X143442857Y-74162619D01*
X143442857Y-74543571D02*
X143347619Y-74495952D01*
X143347619Y-74495952D02*
X143157143Y-74495952D01*
X143157143Y-74495952D02*
X143061905Y-74543571D01*
X143061905Y-74543571D02*
X143014286Y-74591190D01*
X143014286Y-74591190D02*
X142966667Y-74686428D01*
X142966667Y-74686428D02*
X142966667Y-74972142D01*
X142966667Y-74972142D02*
X143014286Y-75067380D01*
X143014286Y-75067380D02*
X143061905Y-75115000D01*
X143061905Y-75115000D02*
X143157143Y-75162619D01*
X143157143Y-75162619D02*
X143347619Y-75162619D01*
X143347619Y-75162619D02*
X143442857Y-75115000D01*
X142633333Y-74495952D02*
X142395238Y-75162619D01*
X142157143Y-74495952D02*
X142395238Y-75162619D01*
X142395238Y-75162619D02*
X142490476Y-75400714D01*
X142490476Y-75400714D02*
X142538095Y-75448333D01*
X142538095Y-75448333D02*
X142633333Y-75495952D01*
X141776190Y-75067380D02*
X141728571Y-75115000D01*
X141728571Y-75115000D02*
X141776190Y-75162619D01*
X141776190Y-75162619D02*
X141823809Y-75115000D01*
X141823809Y-75115000D02*
X141776190Y-75067380D01*
X141776190Y-75067380D02*
X141776190Y-75162619D01*
X141776190Y-74543571D02*
X141728571Y-74591190D01*
X141728571Y-74591190D02*
X141776190Y-74638809D01*
X141776190Y-74638809D02*
X141823809Y-74591190D01*
X141823809Y-74591190D02*
X141776190Y-74543571D01*
X141776190Y-74543571D02*
X141776190Y-74638809D01*
X140538095Y-75162619D02*
X140538095Y-74162619D01*
X139966667Y-75162619D02*
X140395238Y-74591190D01*
X139966667Y-74162619D02*
X140538095Y-74734047D01*
X139538095Y-75162619D02*
X139538095Y-74495952D01*
X139538095Y-74162619D02*
X139585714Y-74210238D01*
X139585714Y-74210238D02*
X139538095Y-74257857D01*
X139538095Y-74257857D02*
X139490476Y-74210238D01*
X139490476Y-74210238D02*
X139538095Y-74162619D01*
X139538095Y-74162619D02*
X139538095Y-74257857D01*
X138680953Y-75115000D02*
X138776191Y-75162619D01*
X138776191Y-75162619D02*
X138966667Y-75162619D01*
X138966667Y-75162619D02*
X139061905Y-75115000D01*
X139061905Y-75115000D02*
X139109524Y-75019761D01*
X139109524Y-75019761D02*
X139109524Y-74638809D01*
X139109524Y-74638809D02*
X139061905Y-74543571D01*
X139061905Y-74543571D02*
X138966667Y-74495952D01*
X138966667Y-74495952D02*
X138776191Y-74495952D01*
X138776191Y-74495952D02*
X138680953Y-74543571D01*
X138680953Y-74543571D02*
X138633334Y-74638809D01*
X138633334Y-74638809D02*
X138633334Y-74734047D01*
X138633334Y-74734047D02*
X139109524Y-74829285D01*
X138204762Y-75162619D02*
X138204762Y-74495952D01*
X138204762Y-74686428D02*
X138157143Y-74591190D01*
X138157143Y-74591190D02*
X138109524Y-74543571D01*
X138109524Y-74543571D02*
X138014286Y-74495952D01*
X138014286Y-74495952D02*
X137919048Y-74495952D01*
X137157143Y-75162619D02*
X137157143Y-74638809D01*
X137157143Y-74638809D02*
X137204762Y-74543571D01*
X137204762Y-74543571D02*
X137300000Y-74495952D01*
X137300000Y-74495952D02*
X137490476Y-74495952D01*
X137490476Y-74495952D02*
X137585714Y-74543571D01*
X137157143Y-75115000D02*
X137252381Y-75162619D01*
X137252381Y-75162619D02*
X137490476Y-75162619D01*
X137490476Y-75162619D02*
X137585714Y-75115000D01*
X137585714Y-75115000D02*
X137633333Y-75019761D01*
X137633333Y-75019761D02*
X137633333Y-74924523D01*
X137633333Y-74924523D02*
X137585714Y-74829285D01*
X137585714Y-74829285D02*
X137490476Y-74781666D01*
X137490476Y-74781666D02*
X137252381Y-74781666D01*
X137252381Y-74781666D02*
X137157143Y-74734047D01*
X136680952Y-74495952D02*
X136680952Y-75162619D01*
X136680952Y-74591190D02*
X136633333Y-74543571D01*
X136633333Y-74543571D02*
X136538095Y-74495952D01*
X136538095Y-74495952D02*
X136395238Y-74495952D01*
X136395238Y-74495952D02*
X136300000Y-74543571D01*
X136300000Y-74543571D02*
X136252381Y-74638809D01*
X136252381Y-74638809D02*
X136252381Y-75162619D01*
X135061904Y-75115000D02*
X134919047Y-75162619D01*
X134919047Y-75162619D02*
X134680952Y-75162619D01*
X134680952Y-75162619D02*
X134585714Y-75115000D01*
X134585714Y-75115000D02*
X134538095Y-75067380D01*
X134538095Y-75067380D02*
X134490476Y-74972142D01*
X134490476Y-74972142D02*
X134490476Y-74876904D01*
X134490476Y-74876904D02*
X134538095Y-74781666D01*
X134538095Y-74781666D02*
X134585714Y-74734047D01*
X134585714Y-74734047D02*
X134680952Y-74686428D01*
X134680952Y-74686428D02*
X134871428Y-74638809D01*
X134871428Y-74638809D02*
X134966666Y-74591190D01*
X134966666Y-74591190D02*
X135014285Y-74543571D01*
X135014285Y-74543571D02*
X135061904Y-74448333D01*
X135061904Y-74448333D02*
X135061904Y-74353095D01*
X135061904Y-74353095D02*
X135014285Y-74257857D01*
X135014285Y-74257857D02*
X134966666Y-74210238D01*
X134966666Y-74210238D02*
X134871428Y-74162619D01*
X134871428Y-74162619D02*
X134633333Y-74162619D01*
X134633333Y-74162619D02*
X134490476Y-74210238D01*
X134061904Y-75162619D02*
X134061904Y-74162619D01*
X133633333Y-75162619D02*
X133633333Y-74638809D01*
X133633333Y-74638809D02*
X133680952Y-74543571D01*
X133680952Y-74543571D02*
X133776190Y-74495952D01*
X133776190Y-74495952D02*
X133919047Y-74495952D01*
X133919047Y-74495952D02*
X134014285Y-74543571D01*
X134014285Y-74543571D02*
X134061904Y-74591190D01*
X132728571Y-75162619D02*
X132728571Y-74638809D01*
X132728571Y-74638809D02*
X132776190Y-74543571D01*
X132776190Y-74543571D02*
X132871428Y-74495952D01*
X132871428Y-74495952D02*
X133061904Y-74495952D01*
X133061904Y-74495952D02*
X133157142Y-74543571D01*
X132728571Y-75115000D02*
X132823809Y-75162619D01*
X132823809Y-75162619D02*
X133061904Y-75162619D01*
X133061904Y-75162619D02*
X133157142Y-75115000D01*
X133157142Y-75115000D02*
X133204761Y-75019761D01*
X133204761Y-75019761D02*
X133204761Y-74924523D01*
X133204761Y-74924523D02*
X133157142Y-74829285D01*
X133157142Y-74829285D02*
X133061904Y-74781666D01*
X133061904Y-74781666D02*
X132823809Y-74781666D01*
X132823809Y-74781666D02*
X132728571Y-74734047D01*
X132252380Y-74495952D02*
X132252380Y-75162619D01*
X132252380Y-74591190D02*
X132204761Y-74543571D01*
X132204761Y-74543571D02*
X132109523Y-74495952D01*
X132109523Y-74495952D02*
X131966666Y-74495952D01*
X131966666Y-74495952D02*
X131871428Y-74543571D01*
X131871428Y-74543571D02*
X131823809Y-74638809D01*
X131823809Y-74638809D02*
X131823809Y-75162619D01*
X131204761Y-75162619D02*
X131299999Y-75115000D01*
X131299999Y-75115000D02*
X131347618Y-75019761D01*
X131347618Y-75019761D02*
X131347618Y-74162619D01*
X130442856Y-75115000D02*
X130538094Y-75162619D01*
X130538094Y-75162619D02*
X130728570Y-75162619D01*
X130728570Y-75162619D02*
X130823808Y-75115000D01*
X130823808Y-75115000D02*
X130871427Y-75019761D01*
X130871427Y-75019761D02*
X130871427Y-74638809D01*
X130871427Y-74638809D02*
X130823808Y-74543571D01*
X130823808Y-74543571D02*
X130728570Y-74495952D01*
X130728570Y-74495952D02*
X130538094Y-74495952D01*
X130538094Y-74495952D02*
X130442856Y-74543571D01*
X130442856Y-74543571D02*
X130395237Y-74638809D01*
X130395237Y-74638809D02*
X130395237Y-74734047D01*
X130395237Y-74734047D02*
X130871427Y-74829285D01*
X130061903Y-74495952D02*
X129823808Y-75162619D01*
X129585713Y-74495952D02*
X129823808Y-75162619D01*
X129823808Y-75162619D02*
X129919046Y-75400714D01*
X129919046Y-75400714D02*
X129966665Y-75448333D01*
X129966665Y-75448333D02*
X130061903Y-75495952D01*
X131662619Y-99333333D02*
X131186428Y-99000000D01*
X131662619Y-98761905D02*
X130662619Y-98761905D01*
X130662619Y-98761905D02*
X130662619Y-99142857D01*
X130662619Y-99142857D02*
X130710238Y-99238095D01*
X130710238Y-99238095D02*
X130757857Y-99285714D01*
X130757857Y-99285714D02*
X130853095Y-99333333D01*
X130853095Y-99333333D02*
X130995952Y-99333333D01*
X130995952Y-99333333D02*
X131091190Y-99285714D01*
X131091190Y-99285714D02*
X131138809Y-99238095D01*
X131138809Y-99238095D02*
X131186428Y-99142857D01*
X131186428Y-99142857D02*
X131186428Y-98761905D01*
X130757857Y-99714286D02*
X130710238Y-99761905D01*
X130710238Y-99761905D02*
X130662619Y-99857143D01*
X130662619Y-99857143D02*
X130662619Y-100095238D01*
X130662619Y-100095238D02*
X130710238Y-100190476D01*
X130710238Y-100190476D02*
X130757857Y-100238095D01*
X130757857Y-100238095D02*
X130853095Y-100285714D01*
X130853095Y-100285714D02*
X130948333Y-100285714D01*
X130948333Y-100285714D02*
X131091190Y-100238095D01*
X131091190Y-100238095D02*
X131662619Y-99666667D01*
X131662619Y-99666667D02*
X131662619Y-100285714D01*
X123090833Y-114997619D02*
X123090833Y-115711904D01*
X123090833Y-115711904D02*
X123138452Y-115854761D01*
X123138452Y-115854761D02*
X123233690Y-115950000D01*
X123233690Y-115950000D02*
X123376547Y-115997619D01*
X123376547Y-115997619D02*
X123471785Y-115997619D01*
X122662261Y-115092857D02*
X122614642Y-115045238D01*
X122614642Y-115045238D02*
X122519404Y-114997619D01*
X122519404Y-114997619D02*
X122281309Y-114997619D01*
X122281309Y-114997619D02*
X122186071Y-115045238D01*
X122186071Y-115045238D02*
X122138452Y-115092857D01*
X122138452Y-115092857D02*
X122090833Y-115188095D01*
X122090833Y-115188095D02*
X122090833Y-115283333D01*
X122090833Y-115283333D02*
X122138452Y-115426190D01*
X122138452Y-115426190D02*
X122709880Y-115997619D01*
X122709880Y-115997619D02*
X122090833Y-115997619D01*
X143366666Y-96267380D02*
X143414285Y-96315000D01*
X143414285Y-96315000D02*
X143557142Y-96362619D01*
X143557142Y-96362619D02*
X143652380Y-96362619D01*
X143652380Y-96362619D02*
X143795237Y-96315000D01*
X143795237Y-96315000D02*
X143890475Y-96219761D01*
X143890475Y-96219761D02*
X143938094Y-96124523D01*
X143938094Y-96124523D02*
X143985713Y-95934047D01*
X143985713Y-95934047D02*
X143985713Y-95791190D01*
X143985713Y-95791190D02*
X143938094Y-95600714D01*
X143938094Y-95600714D02*
X143890475Y-95505476D01*
X143890475Y-95505476D02*
X143795237Y-95410238D01*
X143795237Y-95410238D02*
X143652380Y-95362619D01*
X143652380Y-95362619D02*
X143557142Y-95362619D01*
X143557142Y-95362619D02*
X143414285Y-95410238D01*
X143414285Y-95410238D02*
X143366666Y-95457857D01*
X142795237Y-95791190D02*
X142890475Y-95743571D01*
X142890475Y-95743571D02*
X142938094Y-95695952D01*
X142938094Y-95695952D02*
X142985713Y-95600714D01*
X142985713Y-95600714D02*
X142985713Y-95553095D01*
X142985713Y-95553095D02*
X142938094Y-95457857D01*
X142938094Y-95457857D02*
X142890475Y-95410238D01*
X142890475Y-95410238D02*
X142795237Y-95362619D01*
X142795237Y-95362619D02*
X142604761Y-95362619D01*
X142604761Y-95362619D02*
X142509523Y-95410238D01*
X142509523Y-95410238D02*
X142461904Y-95457857D01*
X142461904Y-95457857D02*
X142414285Y-95553095D01*
X142414285Y-95553095D02*
X142414285Y-95600714D01*
X142414285Y-95600714D02*
X142461904Y-95695952D01*
X142461904Y-95695952D02*
X142509523Y-95743571D01*
X142509523Y-95743571D02*
X142604761Y-95791190D01*
X142604761Y-95791190D02*
X142795237Y-95791190D01*
X142795237Y-95791190D02*
X142890475Y-95838809D01*
X142890475Y-95838809D02*
X142938094Y-95886428D01*
X142938094Y-95886428D02*
X142985713Y-95981666D01*
X142985713Y-95981666D02*
X142985713Y-96172142D01*
X142985713Y-96172142D02*
X142938094Y-96267380D01*
X142938094Y-96267380D02*
X142890475Y-96315000D01*
X142890475Y-96315000D02*
X142795237Y-96362619D01*
X142795237Y-96362619D02*
X142604761Y-96362619D01*
X142604761Y-96362619D02*
X142509523Y-96315000D01*
X142509523Y-96315000D02*
X142461904Y-96267380D01*
X142461904Y-96267380D02*
X142414285Y-96172142D01*
X142414285Y-96172142D02*
X142414285Y-95981666D01*
X142414285Y-95981666D02*
X142461904Y-95886428D01*
X142461904Y-95886428D02*
X142509523Y-95838809D01*
X142509523Y-95838809D02*
X142604761Y-95791190D01*
X142986130Y-101370833D02*
X143033750Y-101323214D01*
X143033750Y-101323214D02*
X143081369Y-101180357D01*
X143081369Y-101180357D02*
X143081369Y-101085119D01*
X143081369Y-101085119D02*
X143033750Y-100942262D01*
X143033750Y-100942262D02*
X142938511Y-100847024D01*
X142938511Y-100847024D02*
X142843273Y-100799405D01*
X142843273Y-100799405D02*
X142652797Y-100751786D01*
X142652797Y-100751786D02*
X142509940Y-100751786D01*
X142509940Y-100751786D02*
X142319464Y-100799405D01*
X142319464Y-100799405D02*
X142224226Y-100847024D01*
X142224226Y-100847024D02*
X142128988Y-100942262D01*
X142128988Y-100942262D02*
X142081369Y-101085119D01*
X142081369Y-101085119D02*
X142081369Y-101180357D01*
X142081369Y-101180357D02*
X142128988Y-101323214D01*
X142128988Y-101323214D02*
X142176607Y-101370833D01*
X142176607Y-101751786D02*
X142128988Y-101799405D01*
X142128988Y-101799405D02*
X142081369Y-101894643D01*
X142081369Y-101894643D02*
X142081369Y-102132738D01*
X142081369Y-102132738D02*
X142128988Y-102227976D01*
X142128988Y-102227976D02*
X142176607Y-102275595D01*
X142176607Y-102275595D02*
X142271845Y-102323214D01*
X142271845Y-102323214D02*
X142367083Y-102323214D01*
X142367083Y-102323214D02*
X142509940Y-102275595D01*
X142509940Y-102275595D02*
X143081369Y-101704167D01*
X143081369Y-101704167D02*
X143081369Y-102323214D01*
D11*
X144008512Y-108687526D02*
X144008512Y-107417526D01*
X142678035Y-108566573D02*
X142738511Y-108627050D01*
X142738511Y-108627050D02*
X142919940Y-108687526D01*
X142919940Y-108687526D02*
X143040892Y-108687526D01*
X143040892Y-108687526D02*
X143222321Y-108627050D01*
X143222321Y-108627050D02*
X143343273Y-108506097D01*
X143343273Y-108506097D02*
X143403750Y-108385145D01*
X143403750Y-108385145D02*
X143464226Y-108143240D01*
X143464226Y-108143240D02*
X143464226Y-107961811D01*
X143464226Y-107961811D02*
X143403750Y-107719907D01*
X143403750Y-107719907D02*
X143343273Y-107598954D01*
X143343273Y-107598954D02*
X143222321Y-107478002D01*
X143222321Y-107478002D02*
X143040892Y-107417526D01*
X143040892Y-107417526D02*
X142919940Y-107417526D01*
X142919940Y-107417526D02*
X142738511Y-107478002D01*
X142738511Y-107478002D02*
X142678035Y-107538478D01*
X141468511Y-108687526D02*
X142194226Y-108687526D01*
X141831369Y-108687526D02*
X141831369Y-107417526D01*
X141831369Y-107417526D02*
X141952321Y-107598954D01*
X141952321Y-107598954D02*
X142073273Y-107719907D01*
X142073273Y-107719907D02*
X142194226Y-107780383D01*
D10*
X130267380Y-99333333D02*
X130315000Y-99285714D01*
X130315000Y-99285714D02*
X130362619Y-99142857D01*
X130362619Y-99142857D02*
X130362619Y-99047619D01*
X130362619Y-99047619D02*
X130315000Y-98904762D01*
X130315000Y-98904762D02*
X130219761Y-98809524D01*
X130219761Y-98809524D02*
X130124523Y-98761905D01*
X130124523Y-98761905D02*
X129934047Y-98714286D01*
X129934047Y-98714286D02*
X129791190Y-98714286D01*
X129791190Y-98714286D02*
X129600714Y-98761905D01*
X129600714Y-98761905D02*
X129505476Y-98809524D01*
X129505476Y-98809524D02*
X129410238Y-98904762D01*
X129410238Y-98904762D02*
X129362619Y-99047619D01*
X129362619Y-99047619D02*
X129362619Y-99142857D01*
X129362619Y-99142857D02*
X129410238Y-99285714D01*
X129410238Y-99285714D02*
X129457857Y-99333333D01*
X129362619Y-100238095D02*
X129362619Y-99761905D01*
X129362619Y-99761905D02*
X129838809Y-99714286D01*
X129838809Y-99714286D02*
X129791190Y-99761905D01*
X129791190Y-99761905D02*
X129743571Y-99857143D01*
X129743571Y-99857143D02*
X129743571Y-100095238D01*
X129743571Y-100095238D02*
X129791190Y-100190476D01*
X129791190Y-100190476D02*
X129838809Y-100238095D01*
X129838809Y-100238095D02*
X129934047Y-100285714D01*
X129934047Y-100285714D02*
X130172142Y-100285714D01*
X130172142Y-100285714D02*
X130267380Y-100238095D01*
X130267380Y-100238095D02*
X130315000Y-100190476D01*
X130315000Y-100190476D02*
X130362619Y-100095238D01*
X130362619Y-100095238D02*
X130362619Y-99857143D01*
X130362619Y-99857143D02*
X130315000Y-99761905D01*
X130315000Y-99761905D02*
X130267380Y-99714286D01*
D11*
X138987526Y-97660237D02*
X137717526Y-97660237D01*
X138866573Y-98990714D02*
X138927050Y-98930238D01*
X138927050Y-98930238D02*
X138987526Y-98748809D01*
X138987526Y-98748809D02*
X138987526Y-98627857D01*
X138987526Y-98627857D02*
X138927050Y-98446428D01*
X138927050Y-98446428D02*
X138806097Y-98325476D01*
X138806097Y-98325476D02*
X138685145Y-98264999D01*
X138685145Y-98264999D02*
X138443240Y-98204523D01*
X138443240Y-98204523D02*
X138261811Y-98204523D01*
X138261811Y-98204523D02*
X138019907Y-98264999D01*
X138019907Y-98264999D02*
X137898954Y-98325476D01*
X137898954Y-98325476D02*
X137778002Y-98446428D01*
X137778002Y-98446428D02*
X137717526Y-98627857D01*
X137717526Y-98627857D02*
X137717526Y-98748809D01*
X137717526Y-98748809D02*
X137778002Y-98930238D01*
X137778002Y-98930238D02*
X137838478Y-98990714D01*
X138140859Y-100079285D02*
X138987526Y-100079285D01*
X137657050Y-99776904D02*
X138564192Y-99474523D01*
X138564192Y-99474523D02*
X138564192Y-100260714D01*
D10*
X143366666Y-95162619D02*
X143699999Y-94686428D01*
X143938094Y-95162619D02*
X143938094Y-94162619D01*
X143938094Y-94162619D02*
X143557142Y-94162619D01*
X143557142Y-94162619D02*
X143461904Y-94210238D01*
X143461904Y-94210238D02*
X143414285Y-94257857D01*
X143414285Y-94257857D02*
X143366666Y-94353095D01*
X143366666Y-94353095D02*
X143366666Y-94495952D01*
X143366666Y-94495952D02*
X143414285Y-94591190D01*
X143414285Y-94591190D02*
X143461904Y-94638809D01*
X143461904Y-94638809D02*
X143557142Y-94686428D01*
X143557142Y-94686428D02*
X143938094Y-94686428D01*
X142509523Y-94495952D02*
X142509523Y-95162619D01*
X142747618Y-94115000D02*
X142985713Y-94829285D01*
X142985713Y-94829285D02*
X142366666Y-94829285D01*
X134533333Y-114962619D02*
X134533333Y-115676904D01*
X134533333Y-115676904D02*
X134580952Y-115819761D01*
X134580952Y-115819761D02*
X134676190Y-115915000D01*
X134676190Y-115915000D02*
X134819047Y-115962619D01*
X134819047Y-115962619D02*
X134914285Y-115962619D01*
X133533333Y-115962619D02*
X134104761Y-115962619D01*
X133819047Y-115962619D02*
X133819047Y-114962619D01*
X133819047Y-114962619D02*
X133914285Y-115105476D01*
X133914285Y-115105476D02*
X134009523Y-115200714D01*
X134009523Y-115200714D02*
X134104761Y-115248333D01*
X133511666Y-95262619D02*
X133844999Y-94786428D01*
X134083094Y-95262619D02*
X134083094Y-94262619D01*
X134083094Y-94262619D02*
X133702142Y-94262619D01*
X133702142Y-94262619D02*
X133606904Y-94310238D01*
X133606904Y-94310238D02*
X133559285Y-94357857D01*
X133559285Y-94357857D02*
X133511666Y-94453095D01*
X133511666Y-94453095D02*
X133511666Y-94595952D01*
X133511666Y-94595952D02*
X133559285Y-94691190D01*
X133559285Y-94691190D02*
X133606904Y-94738809D01*
X133606904Y-94738809D02*
X133702142Y-94786428D01*
X133702142Y-94786428D02*
X134083094Y-94786428D01*
X133178332Y-94262619D02*
X132559285Y-94262619D01*
X132559285Y-94262619D02*
X132892618Y-94643571D01*
X132892618Y-94643571D02*
X132749761Y-94643571D01*
X132749761Y-94643571D02*
X132654523Y-94691190D01*
X132654523Y-94691190D02*
X132606904Y-94738809D01*
X132606904Y-94738809D02*
X132559285Y-94834047D01*
X132559285Y-94834047D02*
X132559285Y-95072142D01*
X132559285Y-95072142D02*
X132606904Y-95167380D01*
X132606904Y-95167380D02*
X132654523Y-95215000D01*
X132654523Y-95215000D02*
X132749761Y-95262619D01*
X132749761Y-95262619D02*
X133035475Y-95262619D01*
X133035475Y-95262619D02*
X133130713Y-95215000D01*
X133130713Y-95215000D02*
X133178332Y-95167380D01*
X131967380Y-105933333D02*
X132015000Y-105885714D01*
X132015000Y-105885714D02*
X132062619Y-105742857D01*
X132062619Y-105742857D02*
X132062619Y-105647619D01*
X132062619Y-105647619D02*
X132015000Y-105504762D01*
X132015000Y-105504762D02*
X131919761Y-105409524D01*
X131919761Y-105409524D02*
X131824523Y-105361905D01*
X131824523Y-105361905D02*
X131634047Y-105314286D01*
X131634047Y-105314286D02*
X131491190Y-105314286D01*
X131491190Y-105314286D02*
X131300714Y-105361905D01*
X131300714Y-105361905D02*
X131205476Y-105409524D01*
X131205476Y-105409524D02*
X131110238Y-105504762D01*
X131110238Y-105504762D02*
X131062619Y-105647619D01*
X131062619Y-105647619D02*
X131062619Y-105742857D01*
X131062619Y-105742857D02*
X131110238Y-105885714D01*
X131110238Y-105885714D02*
X131157857Y-105933333D01*
X131062619Y-106266667D02*
X131062619Y-106885714D01*
X131062619Y-106885714D02*
X131443571Y-106552381D01*
X131443571Y-106552381D02*
X131443571Y-106695238D01*
X131443571Y-106695238D02*
X131491190Y-106790476D01*
X131491190Y-106790476D02*
X131538809Y-106838095D01*
X131538809Y-106838095D02*
X131634047Y-106885714D01*
X131634047Y-106885714D02*
X131872142Y-106885714D01*
X131872142Y-106885714D02*
X131967380Y-106838095D01*
X131967380Y-106838095D02*
X132015000Y-106790476D01*
X132015000Y-106790476D02*
X132062619Y-106695238D01*
X132062619Y-106695238D02*
X132062619Y-106409524D01*
X132062619Y-106409524D02*
X132015000Y-106314286D01*
X132015000Y-106314286D02*
X131967380Y-106266667D01*
X141786130Y-101433333D02*
X141833750Y-101385714D01*
X141833750Y-101385714D02*
X141881369Y-101242857D01*
X141881369Y-101242857D02*
X141881369Y-101147619D01*
X141881369Y-101147619D02*
X141833750Y-101004762D01*
X141833750Y-101004762D02*
X141738511Y-100909524D01*
X141738511Y-100909524D02*
X141643273Y-100861905D01*
X141643273Y-100861905D02*
X141452797Y-100814286D01*
X141452797Y-100814286D02*
X141309940Y-100814286D01*
X141309940Y-100814286D02*
X141119464Y-100861905D01*
X141119464Y-100861905D02*
X141024226Y-100909524D01*
X141024226Y-100909524D02*
X140928988Y-101004762D01*
X140928988Y-101004762D02*
X140881369Y-101147619D01*
X140881369Y-101147619D02*
X140881369Y-101242857D01*
X140881369Y-101242857D02*
X140928988Y-101385714D01*
X140928988Y-101385714D02*
X140976607Y-101433333D01*
X141881369Y-102385714D02*
X141881369Y-101814286D01*
X141881369Y-102100000D02*
X140881369Y-102100000D01*
X140881369Y-102100000D02*
X141024226Y-102004762D01*
X141024226Y-102004762D02*
X141119464Y-101909524D01*
X141119464Y-101909524D02*
X141167083Y-101814286D01*
X133542857Y-96405380D02*
X133590476Y-96453000D01*
X133590476Y-96453000D02*
X133733333Y-96500619D01*
X133733333Y-96500619D02*
X133828571Y-96500619D01*
X133828571Y-96500619D02*
X133971428Y-96453000D01*
X133971428Y-96453000D02*
X134066666Y-96357761D01*
X134066666Y-96357761D02*
X134114285Y-96262523D01*
X134114285Y-96262523D02*
X134161904Y-96072047D01*
X134161904Y-96072047D02*
X134161904Y-95929190D01*
X134161904Y-95929190D02*
X134114285Y-95738714D01*
X134114285Y-95738714D02*
X134066666Y-95643476D01*
X134066666Y-95643476D02*
X133971428Y-95548238D01*
X133971428Y-95548238D02*
X133828571Y-95500619D01*
X133828571Y-95500619D02*
X133733333Y-95500619D01*
X133733333Y-95500619D02*
X133590476Y-95548238D01*
X133590476Y-95548238D02*
X133542857Y-95595857D01*
X132590476Y-96500619D02*
X133161904Y-96500619D01*
X132876190Y-96500619D02*
X132876190Y-95500619D01*
X132876190Y-95500619D02*
X132971428Y-95643476D01*
X132971428Y-95643476D02*
X133066666Y-95738714D01*
X133066666Y-95738714D02*
X133161904Y-95786333D01*
X131971428Y-95500619D02*
X131876190Y-95500619D01*
X131876190Y-95500619D02*
X131780952Y-95548238D01*
X131780952Y-95548238D02*
X131733333Y-95595857D01*
X131733333Y-95595857D02*
X131685714Y-95691095D01*
X131685714Y-95691095D02*
X131638095Y-95881571D01*
X131638095Y-95881571D02*
X131638095Y-96119666D01*
X131638095Y-96119666D02*
X131685714Y-96310142D01*
X131685714Y-96310142D02*
X131733333Y-96405380D01*
X131733333Y-96405380D02*
X131780952Y-96453000D01*
X131780952Y-96453000D02*
X131876190Y-96500619D01*
X131876190Y-96500619D02*
X131971428Y-96500619D01*
X131971428Y-96500619D02*
X132066666Y-96453000D01*
X132066666Y-96453000D02*
X132114285Y-96405380D01*
X132114285Y-96405380D02*
X132161904Y-96310142D01*
X132161904Y-96310142D02*
X132209523Y-96119666D01*
X132209523Y-96119666D02*
X132209523Y-95881571D01*
X132209523Y-95881571D02*
X132161904Y-95691095D01*
X132161904Y-95691095D02*
X132114285Y-95595857D01*
X132114285Y-95595857D02*
X132066666Y-95548238D01*
X132066666Y-95548238D02*
X131971428Y-95500619D01*
D11*
X131111666Y-104387526D02*
X131716428Y-104387526D01*
X131716428Y-104387526D02*
X131716428Y-103117526D01*
X130023094Y-104387526D02*
X130748809Y-104387526D01*
X130385952Y-104387526D02*
X130385952Y-103117526D01*
X130385952Y-103117526D02*
X130506904Y-103298954D01*
X130506904Y-103298954D02*
X130627856Y-103419907D01*
X130627856Y-103419907D02*
X130748809Y-103480383D01*
D10*
X128992380Y-99371333D02*
X129040000Y-99323714D01*
X129040000Y-99323714D02*
X129087619Y-99180857D01*
X129087619Y-99180857D02*
X129087619Y-99085619D01*
X129087619Y-99085619D02*
X129040000Y-98942762D01*
X129040000Y-98942762D02*
X128944761Y-98847524D01*
X128944761Y-98847524D02*
X128849523Y-98799905D01*
X128849523Y-98799905D02*
X128659047Y-98752286D01*
X128659047Y-98752286D02*
X128516190Y-98752286D01*
X128516190Y-98752286D02*
X128325714Y-98799905D01*
X128325714Y-98799905D02*
X128230476Y-98847524D01*
X128230476Y-98847524D02*
X128135238Y-98942762D01*
X128135238Y-98942762D02*
X128087619Y-99085619D01*
X128087619Y-99085619D02*
X128087619Y-99180857D01*
X128087619Y-99180857D02*
X128135238Y-99323714D01*
X128135238Y-99323714D02*
X128182857Y-99371333D01*
X128087619Y-99704667D02*
X128087619Y-100371333D01*
X128087619Y-100371333D02*
X129087619Y-99942762D01*
X144236130Y-101433333D02*
X144283750Y-101385714D01*
X144283750Y-101385714D02*
X144331369Y-101242857D01*
X144331369Y-101242857D02*
X144331369Y-101147619D01*
X144331369Y-101147619D02*
X144283750Y-101004762D01*
X144283750Y-101004762D02*
X144188511Y-100909524D01*
X144188511Y-100909524D02*
X144093273Y-100861905D01*
X144093273Y-100861905D02*
X143902797Y-100814286D01*
X143902797Y-100814286D02*
X143759940Y-100814286D01*
X143759940Y-100814286D02*
X143569464Y-100861905D01*
X143569464Y-100861905D02*
X143474226Y-100909524D01*
X143474226Y-100909524D02*
X143378988Y-101004762D01*
X143378988Y-101004762D02*
X143331369Y-101147619D01*
X143331369Y-101147619D02*
X143331369Y-101242857D01*
X143331369Y-101242857D02*
X143378988Y-101385714D01*
X143378988Y-101385714D02*
X143426607Y-101433333D01*
X143664702Y-102290476D02*
X144331369Y-102290476D01*
X143283750Y-102052381D02*
X143998035Y-101814286D01*
X143998035Y-101814286D02*
X143998035Y-102433333D01*
X131462619Y-100961905D02*
X130462619Y-100961905D01*
X130462619Y-100961905D02*
X130462619Y-101200000D01*
X130462619Y-101200000D02*
X130510238Y-101342857D01*
X130510238Y-101342857D02*
X130605476Y-101438095D01*
X130605476Y-101438095D02*
X130700714Y-101485714D01*
X130700714Y-101485714D02*
X130891190Y-101533333D01*
X130891190Y-101533333D02*
X131034047Y-101533333D01*
X131034047Y-101533333D02*
X131224523Y-101485714D01*
X131224523Y-101485714D02*
X131319761Y-101438095D01*
X131319761Y-101438095D02*
X131415000Y-101342857D01*
X131415000Y-101342857D02*
X131462619Y-101200000D01*
X131462619Y-101200000D02*
X131462619Y-100961905D01*
X131462619Y-102485714D02*
X131462619Y-101914286D01*
X131462619Y-102200000D02*
X130462619Y-102200000D01*
X130462619Y-102200000D02*
X130605476Y-102104762D01*
X130605476Y-102104762D02*
X130700714Y-102009524D01*
X130700714Y-102009524D02*
X130748333Y-101914286D01*
X139266666Y-105262619D02*
X139599999Y-104786428D01*
X139838094Y-105262619D02*
X139838094Y-104262619D01*
X139838094Y-104262619D02*
X139457142Y-104262619D01*
X139457142Y-104262619D02*
X139361904Y-104310238D01*
X139361904Y-104310238D02*
X139314285Y-104357857D01*
X139314285Y-104357857D02*
X139266666Y-104453095D01*
X139266666Y-104453095D02*
X139266666Y-104595952D01*
X139266666Y-104595952D02*
X139314285Y-104691190D01*
X139314285Y-104691190D02*
X139361904Y-104738809D01*
X139361904Y-104738809D02*
X139457142Y-104786428D01*
X139457142Y-104786428D02*
X139838094Y-104786428D01*
X138314285Y-105262619D02*
X138885713Y-105262619D01*
X138599999Y-105262619D02*
X138599999Y-104262619D01*
X138599999Y-104262619D02*
X138695237Y-104405476D01*
X138695237Y-104405476D02*
X138790475Y-104500714D01*
X138790475Y-104500714D02*
X138885713Y-104548333D01*
X117290833Y-77762619D02*
X117290833Y-78476904D01*
X117290833Y-78476904D02*
X117338452Y-78619761D01*
X117338452Y-78619761D02*
X117433690Y-78715000D01*
X117433690Y-78715000D02*
X117576547Y-78762619D01*
X117576547Y-78762619D02*
X117671785Y-78762619D01*
X116909880Y-77762619D02*
X116290833Y-77762619D01*
X116290833Y-77762619D02*
X116624166Y-78143571D01*
X116624166Y-78143571D02*
X116481309Y-78143571D01*
X116481309Y-78143571D02*
X116386071Y-78191190D01*
X116386071Y-78191190D02*
X116338452Y-78238809D01*
X116338452Y-78238809D02*
X116290833Y-78334047D01*
X116290833Y-78334047D02*
X116290833Y-78572142D01*
X116290833Y-78572142D02*
X116338452Y-78667380D01*
X116338452Y-78667380D02*
X116386071Y-78715000D01*
X116386071Y-78715000D02*
X116481309Y-78762619D01*
X116481309Y-78762619D02*
X116767023Y-78762619D01*
X116767023Y-78762619D02*
X116862261Y-78715000D01*
X116862261Y-78715000D02*
X116909880Y-78667380D01*
D12*
X135520000Y-99653641D02*
X135520000Y-99346359D01*
X136280000Y-99653641D02*
X136280000Y-99346359D01*
X124450000Y-93150000D02*
X126450000Y-93150000D01*
X126450000Y-93150000D02*
X126450000Y-90350000D01*
X124450000Y-90350000D02*
X124450000Y-93150000D01*
X126450000Y-90350000D02*
X124450000Y-90350000D01*
D13*
X127435000Y-117530000D02*
X127435000Y-116995000D01*
X127435000Y-114005000D02*
X127435000Y-113215000D01*
X127435000Y-113215000D02*
X126197500Y-113215000D01*
X119402500Y-113215000D02*
X118165000Y-113215000D01*
X118165000Y-117530000D02*
X127435000Y-117530000D01*
X118165000Y-116995000D02*
X118165000Y-117530000D01*
X118165000Y-113215000D02*
X118165000Y-114005000D01*
X120677500Y-110710000D02*
G75*
G03*
X120677500Y-110710000I-100000J0D01*
G01*
D12*
X141117164Y-95478000D02*
X141332836Y-95478000D01*
X141117164Y-96198000D02*
X141332836Y-96198000D01*
D14*
X144293750Y-104500000D02*
G75*
G03*
X144293750Y-104500000I-125000J0D01*
G01*
D12*
X134440000Y-99607836D02*
X134440000Y-99392164D01*
X135160000Y-99607836D02*
X135160000Y-99392164D01*
D13*
X139950000Y-102575000D02*
X139950000Y-101100000D01*
X136900000Y-100750000D02*
X139900000Y-100750000D01*
X139900000Y-100750000D02*
X139900000Y-97050000D01*
X136900000Y-97050000D02*
X136900000Y-100750000D01*
X139900000Y-97050000D02*
X136900000Y-97050000D01*
G36*
X126152198Y-102944273D02*
G01*
X126032233Y-103156197D01*
X125806442Y-103393038D01*
X125459173Y-103670827D01*
X124974774Y-104005598D01*
X124624188Y-104242208D01*
X123990083Y-104700648D01*
X123369836Y-105193957D01*
X122734212Y-105747006D01*
X122053978Y-106384661D01*
X121299900Y-107131793D01*
X121005770Y-107431142D01*
X120318766Y-108148869D01*
X119708751Y-108819095D01*
X119137528Y-109485877D01*
X118566897Y-110193270D01*
X117958660Y-110985331D01*
X117759637Y-111246833D01*
X117489987Y-111592287D01*
X117263110Y-111872541D01*
X117098298Y-112063936D01*
X117014842Y-112142813D01*
X116815815Y-112186468D01*
X116549413Y-112172916D01*
X116346984Y-112092167D01*
X116339407Y-112085607D01*
X116229492Y-111964631D01*
X116045983Y-111740609D01*
X115812571Y-111443099D01*
X115552951Y-111101656D01*
X115513601Y-111049225D01*
X114907058Y-110268577D01*
X114280777Y-109517587D01*
X113605649Y-108763677D01*
X112852567Y-107974268D01*
X111992421Y-107116784D01*
X111589955Y-106729918D01*
X110921602Y-106111372D01*
X110233557Y-105500365D01*
X109553065Y-104919959D01*
X108907373Y-104393217D01*
X108323727Y-103943202D01*
X107829373Y-103592976D01*
X107532324Y-103378495D01*
X107259156Y-103109722D01*
X107148652Y-102863716D01*
X107158937Y-102816843D01*
X109689869Y-102816843D01*
X109712113Y-103108390D01*
X109830934Y-103435000D01*
X109963665Y-103681530D01*
X110252794Y-104109660D01*
X110643911Y-104612813D01*
X111119271Y-105172927D01*
X111661130Y-105771939D01*
X112251743Y-106391787D01*
X112873367Y-107014411D01*
X113508256Y-107621746D01*
X114138668Y-108195733D01*
X114746856Y-108718308D01*
X115315078Y-109171410D01*
X115825589Y-109536977D01*
X115848692Y-109552245D01*
X116154699Y-109734804D01*
X116425444Y-109840845D01*
X116687940Y-109864421D01*
X116969203Y-109799583D01*
X117296245Y-109640384D01*
X117696081Y-109380874D01*
X118195723Y-109015107D01*
X118407135Y-108853477D01*
X119084762Y-108306711D01*
X119771757Y-107712733D01*
X120452157Y-107088249D01*
X121109999Y-106449964D01*
X121729320Y-105814583D01*
X122294156Y-105198813D01*
X122788544Y-104619358D01*
X123196523Y-104092924D01*
X123502127Y-103636217D01*
X123689395Y-103265941D01*
X123835110Y-102884392D01*
X123570147Y-102355363D01*
X123305634Y-101902533D01*
X122886766Y-101321541D01*
X122331374Y-100649569D01*
X121638286Y-99885210D01*
X120806333Y-99027054D01*
X120561429Y-98782878D01*
X119791844Y-98040108D01*
X119085005Y-97396340D01*
X118448051Y-96857140D01*
X117888118Y-96428073D01*
X117412344Y-96114706D01*
X117027864Y-95922604D01*
X116741817Y-95857333D01*
X116714062Y-95857956D01*
X116370745Y-95937442D01*
X115933560Y-96146386D01*
X115409716Y-96479425D01*
X114806423Y-96931194D01*
X114130891Y-97496327D01*
X113390329Y-98169461D01*
X112591948Y-98945230D01*
X111915151Y-99634686D01*
X111339955Y-100250100D01*
X110868220Y-100792524D01*
X110485800Y-101279016D01*
X110178551Y-101726632D01*
X109932326Y-102152431D01*
X109768660Y-102503974D01*
X109689869Y-102816843D01*
X107158937Y-102816843D01*
X107200463Y-102627593D01*
X107414238Y-102388470D01*
X107789625Y-102133460D01*
X108131215Y-101923070D01*
X108928383Y-101364633D01*
X109788714Y-100677883D01*
X110697600Y-99875444D01*
X111640433Y-98969942D01*
X112602604Y-97974000D01*
X112684816Y-97885582D01*
X113229642Y-97288009D01*
X113785093Y-96660723D01*
X114325422Y-96033936D01*
X114824885Y-95437860D01*
X115257736Y-94902708D01*
X115598228Y-94458691D01*
X115643178Y-94397750D01*
X115933266Y-94016449D01*
X116155315Y-93754682D01*
X116330427Y-93592457D01*
X116479704Y-93509782D01*
X116624249Y-93486667D01*
X116628061Y-93486669D01*
X116827085Y-93500262D01*
X116989849Y-93557065D01*
X117148094Y-93682025D01*
X117333562Y-93900085D01*
X117577995Y-94236191D01*
X117627815Y-94305854D01*
X117977552Y-94760845D01*
X118429264Y-95305523D01*
X118963270Y-95919168D01*
X119559890Y-96581060D01*
X120199442Y-97270479D01*
X120862246Y-97966706D01*
X121528621Y-98649020D01*
X122178886Y-99296703D01*
X122793359Y-99889033D01*
X123352361Y-100405291D01*
X123836209Y-100824758D01*
X124130517Y-101060905D01*
X124527680Y-101361205D01*
X124902826Y-101626953D01*
X125203186Y-101819738D01*
X125580518Y-102065165D01*
X125900085Y-102328606D01*
X126108281Y-102570252D01*
X126182666Y-102768367D01*
X126162570Y-102884392D01*
X126152198Y-102944273D01*
G37*
G36*
X121972994Y-100925800D02*
G01*
X122427506Y-101461561D01*
X122795342Y-101937212D01*
X123057685Y-102334334D01*
X123217016Y-102636506D01*
X123281814Y-102851850D01*
X123288417Y-102873795D01*
X123268949Y-103087232D01*
X123164669Y-103333371D01*
X122978593Y-103641936D01*
X122646332Y-104092502D01*
X122214252Y-104611345D01*
X121701569Y-105179889D01*
X121127500Y-105779557D01*
X120511261Y-106391774D01*
X119872070Y-106997963D01*
X119271387Y-107541334D01*
X119229141Y-107579549D01*
X118601692Y-108117955D01*
X118008940Y-108594605D01*
X117470101Y-108990924D01*
X117004391Y-109288335D01*
X116893632Y-109350378D01*
X116705858Y-109448499D01*
X116610743Y-109487647D01*
X116570895Y-109478175D01*
X116397416Y-109385521D01*
X116129859Y-109208209D01*
X115792619Y-108963655D01*
X115410090Y-108669274D01*
X115006666Y-108342482D01*
X114816169Y-108182430D01*
X114180554Y-107625398D01*
X114089799Y-107541334D01*
X116107333Y-107541334D01*
X117476884Y-107541334D01*
X117431091Y-107223834D01*
X117418885Y-107124885D01*
X117391316Y-106835046D01*
X117362195Y-106461289D01*
X117336096Y-106059667D01*
X117323152Y-105850793D01*
X117294696Y-105456662D01*
X117265438Y-105119547D01*
X117240005Y-104895500D01*
X117193116Y-104578000D01*
X116216847Y-104578000D01*
X116162090Y-105225774D01*
X116153621Y-105335989D01*
X116130006Y-105764534D01*
X116113527Y-106250103D01*
X116107333Y-106707441D01*
X116107333Y-107541334D01*
X114089799Y-107541334D01*
X113538331Y-107030524D01*
X112906642Y-106416027D01*
X112302624Y-105800123D01*
X111743417Y-105201029D01*
X111246161Y-104636963D01*
X110827993Y-104126141D01*
X110506055Y-103686782D01*
X110297485Y-103337102D01*
X110079981Y-102892542D01*
X110091047Y-102868611D01*
X112974666Y-102868611D01*
X113013687Y-103037175D01*
X113192009Y-103296660D01*
X113490907Y-103561458D01*
X113884121Y-103812897D01*
X114345392Y-104032305D01*
X114848460Y-104201010D01*
X115001534Y-104232503D01*
X115383869Y-104276127D01*
X115870719Y-104303553D01*
X116421027Y-104314809D01*
X116993734Y-104309923D01*
X117547782Y-104288919D01*
X118042112Y-104251827D01*
X118435666Y-104198671D01*
X119007410Y-104065807D01*
X119763001Y-103796925D01*
X120401667Y-103450476D01*
X120429829Y-103431312D01*
X120756334Y-103144345D01*
X120913658Y-102851850D01*
X120901825Y-102554873D01*
X120720854Y-102254459D01*
X120370769Y-101951656D01*
X120182367Y-101831343D01*
X119816521Y-101635754D01*
X119475819Y-101492095D01*
X119013960Y-101335104D01*
X118476050Y-101638242D01*
X117938141Y-101941379D01*
X118440050Y-102163347D01*
X118706906Y-102291402D01*
X119080138Y-102529772D01*
X119284103Y-102764016D01*
X119318810Y-102993736D01*
X119184269Y-103218537D01*
X118880487Y-103438020D01*
X118407473Y-103651790D01*
X118294952Y-103691116D01*
X117797094Y-103809185D01*
X117228848Y-103873237D01*
X116619931Y-103886785D01*
X116000057Y-103853344D01*
X115398943Y-103776426D01*
X114846305Y-103659544D01*
X114371858Y-103506213D01*
X114005319Y-103319945D01*
X113776403Y-103104253D01*
X113693632Y-102962741D01*
X113683077Y-102834351D01*
X113773863Y-102668958D01*
X114028774Y-102391986D01*
X114372177Y-102213945D01*
X114744070Y-102183052D01*
X114865633Y-102197547D01*
X115008941Y-102185413D01*
X115091266Y-102089216D01*
X115165773Y-101869413D01*
X115193357Y-101770777D01*
X115234741Y-101571423D01*
X115232638Y-101473750D01*
X115160239Y-101472487D01*
X114962433Y-101509990D01*
X114681993Y-101578447D01*
X114360130Y-101666095D01*
X114038056Y-101761170D01*
X113756980Y-101851906D01*
X113558113Y-101926540D01*
X113482666Y-101973307D01*
X113485676Y-101990034D01*
X113570898Y-102038000D01*
X113575090Y-102070415D01*
X113486906Y-102188592D01*
X113316898Y-102363557D01*
X113186543Y-102500903D01*
X113033852Y-102711006D01*
X112974666Y-102868611D01*
X110091047Y-102868611D01*
X110287343Y-102444104D01*
X110396276Y-102232999D01*
X110705707Y-101748889D01*
X111121919Y-101195682D01*
X111500534Y-100742203D01*
X115526510Y-100742203D01*
X115553063Y-100812476D01*
X115676605Y-100844845D01*
X115933122Y-100852667D01*
X116100926Y-100858295D01*
X116277304Y-100883834D01*
X116327850Y-100923013D01*
X116318354Y-100968590D01*
X116303188Y-101161571D01*
X116289601Y-101474944D01*
X116278792Y-101878287D01*
X116271959Y-102341180D01*
X116259544Y-103689000D01*
X117235002Y-103740590D01*
X117180485Y-102296628D01*
X117125968Y-100852667D01*
X117472376Y-100852667D01*
X117563565Y-100850826D01*
X117745580Y-100819783D01*
X117779849Y-100746834D01*
X117756616Y-100679350D01*
X117685798Y-100468122D01*
X117578749Y-100146183D01*
X117445120Y-99742573D01*
X117294559Y-99286334D01*
X117181657Y-98947146D01*
X117040598Y-98533640D01*
X116921876Y-98197351D01*
X116835419Y-97966244D01*
X116791153Y-97868285D01*
X116755341Y-97909248D01*
X116664334Y-98078031D01*
X116532340Y-98349514D01*
X116372134Y-98694875D01*
X116196492Y-99085294D01*
X116018191Y-99491948D01*
X115850006Y-99886017D01*
X115704713Y-100238680D01*
X115595089Y-100521115D01*
X115533909Y-100704500D01*
X115526510Y-100742203D01*
X111500534Y-100742203D01*
X111624706Y-100593479D01*
X112193861Y-99962382D01*
X112809178Y-99322491D01*
X113450450Y-98693906D01*
X114097473Y-98096730D01*
X114730038Y-97551061D01*
X115327940Y-97077002D01*
X115870973Y-96694653D01*
X116338931Y-96424115D01*
X116456794Y-96367649D01*
X116644276Y-96299624D01*
X116792316Y-96305738D01*
X116975953Y-96380897D01*
X117086921Y-96438428D01*
X117474715Y-96686245D01*
X117945193Y-97039739D01*
X118479536Y-97480489D01*
X119058928Y-97990073D01*
X119664551Y-98550072D01*
X120277586Y-99142065D01*
X120879217Y-99747631D01*
X121450626Y-100348349D01*
X121811100Y-100746834D01*
X121972994Y-100925800D01*
G37*
D12*
X141368641Y-95118000D02*
X141061359Y-95118000D01*
X141368641Y-94358000D02*
X141061359Y-94358000D01*
D13*
X138835000Y-117530000D02*
X138835000Y-116995000D01*
X138835000Y-114005000D02*
X138835000Y-113215000D01*
X138835000Y-113215000D02*
X137597500Y-113215000D01*
X130802500Y-113215000D02*
X129565000Y-113215000D01*
X129565000Y-117530000D02*
X138835000Y-117530000D01*
X129565000Y-116995000D02*
X129565000Y-117530000D01*
X129565000Y-113215000D02*
X129565000Y-114005000D01*
X132077500Y-110710000D02*
G75*
G03*
X132077500Y-110710000I-100000J0D01*
G01*
D12*
X135598641Y-95380000D02*
X135291359Y-95380000D01*
X135598641Y-94620000D02*
X135291359Y-94620000D01*
X132550000Y-93150000D02*
X134550000Y-93150000D01*
X134550000Y-93150000D02*
X134550000Y-90350000D01*
X132550000Y-90350000D02*
X132550000Y-93150000D01*
X134550000Y-90350000D02*
X132550000Y-90350000D01*
D15*
X147125049Y-81881975D02*
X147126527Y-81899145D01*
X147127627Y-81934549D01*
X147128175Y-81984307D01*
X147128159Y-82045309D01*
X147127564Y-82114443D01*
X147126377Y-82188599D01*
X147124336Y-82270870D01*
X147119561Y-82384925D01*
X147112364Y-82486252D01*
X147102210Y-82579435D01*
X147088567Y-82669058D01*
X147070900Y-82759705D01*
X147048675Y-82855960D01*
X147022239Y-82955276D01*
X146955535Y-83154621D01*
X146874231Y-83340133D01*
X146778682Y-83511500D01*
X146669246Y-83668408D01*
X146546277Y-83810541D01*
X146410131Y-83937588D01*
X146261166Y-84049233D01*
X146099736Y-84145163D01*
X145926198Y-84225064D01*
X145740908Y-84288623D01*
X145544222Y-84335524D01*
X145336495Y-84365456D01*
X145334777Y-84365625D01*
X145275398Y-84369614D01*
X145199179Y-84371879D01*
X145109411Y-84372455D01*
X145009383Y-84371378D01*
X144902385Y-84368680D01*
X144791708Y-84364398D01*
X144680640Y-84358564D01*
X144587516Y-84359153D01*
X144483236Y-84375553D01*
X144387348Y-84407930D01*
X144301473Y-84455152D01*
X144227233Y-84516091D01*
X144166250Y-84589616D01*
X144120144Y-84674597D01*
X144090537Y-84769903D01*
X144087951Y-84786626D01*
X144084802Y-84830191D01*
X144083737Y-84884681D01*
X144084621Y-84944060D01*
X144087322Y-85002291D01*
X144091706Y-85053336D01*
X144097639Y-85091160D01*
X144098063Y-85093025D01*
X144100791Y-85108008D01*
X144097995Y-85110947D01*
X144087184Y-85100649D01*
X144065871Y-85075920D01*
X144057836Y-85066315D01*
X143974740Y-84952019D01*
X143900569Y-84821833D01*
X143836548Y-84678466D01*
X143783900Y-84524629D01*
X143743850Y-84363031D01*
X143738466Y-84335504D01*
X143731792Y-84296013D01*
X143726997Y-84257164D01*
X143723797Y-84214766D01*
X143721909Y-84164626D01*
X143721049Y-84102555D01*
X143720933Y-84024360D01*
X143721120Y-83973657D01*
X143721909Y-83906201D01*
X143723550Y-83852493D01*
X143726332Y-83808483D01*
X143730543Y-83770124D01*
X143736471Y-83733366D01*
X143744403Y-83694160D01*
X143773161Y-83579385D01*
X143831029Y-83412029D01*
X143905362Y-83256533D01*
X143996332Y-83112643D01*
X144104109Y-82980100D01*
X144228861Y-82858648D01*
X144370760Y-82748030D01*
X144499951Y-82662671D01*
X144706906Y-82543846D01*
X144930636Y-82435253D01*
X145170523Y-82337159D01*
X145425946Y-82249835D01*
X145696287Y-82173547D01*
X145707443Y-82170747D01*
X145761983Y-82157741D01*
X145832276Y-82141777D01*
X145914988Y-82123573D01*
X146006789Y-82103847D01*
X146104343Y-82083318D01*
X146204319Y-82062704D01*
X146303384Y-82042723D01*
X146305296Y-82042342D01*
X146442863Y-82014716D01*
X146562294Y-81990244D01*
X146665427Y-81968499D01*
X146754104Y-81949058D01*
X146830165Y-81931495D01*
X146895450Y-81915386D01*
X146951799Y-81900306D01*
X147001054Y-81885830D01*
X147045054Y-81871533D01*
X147118388Y-81846472D01*
X147125049Y-81881975D01*
G36*
X147125049Y-81881975D02*
G01*
X147126527Y-81899145D01*
X147127627Y-81934549D01*
X147128175Y-81984307D01*
X147128159Y-82045309D01*
X147127564Y-82114443D01*
X147126377Y-82188599D01*
X147124336Y-82270870D01*
X147119561Y-82384925D01*
X147112364Y-82486252D01*
X147102210Y-82579435D01*
X147088567Y-82669058D01*
X147070900Y-82759705D01*
X147048675Y-82855960D01*
X147022239Y-82955276D01*
X146955535Y-83154621D01*
X146874231Y-83340133D01*
X146778682Y-83511500D01*
X146669246Y-83668408D01*
X146546277Y-83810541D01*
X146410131Y-83937588D01*
X146261166Y-84049233D01*
X146099736Y-84145163D01*
X145926198Y-84225064D01*
X145740908Y-84288623D01*
X145544222Y-84335524D01*
X145336495Y-84365456D01*
X145334777Y-84365625D01*
X145275398Y-84369614D01*
X145199179Y-84371879D01*
X145109411Y-84372455D01*
X145009383Y-84371378D01*
X144902385Y-84368680D01*
X144791708Y-84364398D01*
X144680640Y-84358564D01*
X144587516Y-84359153D01*
X144483236Y-84375553D01*
X144387348Y-84407930D01*
X144301473Y-84455152D01*
X144227233Y-84516091D01*
X144166250Y-84589616D01*
X144120144Y-84674597D01*
X144090537Y-84769903D01*
X144087951Y-84786626D01*
X144084802Y-84830191D01*
X144083737Y-84884681D01*
X144084621Y-84944060D01*
X144087322Y-85002291D01*
X144091706Y-85053336D01*
X144097639Y-85091160D01*
X144098063Y-85093025D01*
X144100791Y-85108008D01*
X144097995Y-85110947D01*
X144087184Y-85100649D01*
X144065871Y-85075920D01*
X144057836Y-85066315D01*
X143974740Y-84952019D01*
X143900569Y-84821833D01*
X143836548Y-84678466D01*
X143783900Y-84524629D01*
X143743850Y-84363031D01*
X143738466Y-84335504D01*
X143731792Y-84296013D01*
X143726997Y-84257164D01*
X143723797Y-84214766D01*
X143721909Y-84164626D01*
X143721049Y-84102555D01*
X143720933Y-84024360D01*
X143721120Y-83973657D01*
X143721909Y-83906201D01*
X143723550Y-83852493D01*
X143726332Y-83808483D01*
X143730543Y-83770124D01*
X143736471Y-83733366D01*
X143744403Y-83694160D01*
X143773161Y-83579385D01*
X143831029Y-83412029D01*
X143905362Y-83256533D01*
X143996332Y-83112643D01*
X144104109Y-82980100D01*
X144228861Y-82858648D01*
X144370760Y-82748030D01*
X144499951Y-82662671D01*
X144706906Y-82543846D01*
X144930636Y-82435253D01*
X145170523Y-82337159D01*
X145425946Y-82249835D01*
X145696287Y-82173547D01*
X145707443Y-82170747D01*
X145761983Y-82157741D01*
X145832276Y-82141777D01*
X145914988Y-82123573D01*
X146006789Y-82103847D01*
X146104343Y-82083318D01*
X146204319Y-82062704D01*
X146303384Y-82042723D01*
X146305296Y-82042342D01*
X146442863Y-82014716D01*
X146562294Y-81990244D01*
X146665427Y-81968499D01*
X146754104Y-81949058D01*
X146830165Y-81931495D01*
X146895450Y-81915386D01*
X146951799Y-81900306D01*
X147001054Y-81885830D01*
X147045054Y-81871533D01*
X147118388Y-81846472D01*
X147125049Y-81881975D01*
G37*
X137167037Y-81853653D02*
X137198643Y-81862683D01*
X137238051Y-81875388D01*
X137269861Y-81885859D01*
X137312288Y-81898889D01*
X137358171Y-81911813D01*
X137409577Y-81925107D01*
X137468570Y-81939246D01*
X137537216Y-81954706D01*
X137617581Y-81971963D01*
X137711729Y-81991493D01*
X137821727Y-82013771D01*
X137949640Y-82039273D01*
X138074754Y-82064335D01*
X138217914Y-82093847D01*
X138345501Y-82121275D01*
X138460033Y-82147231D01*
X138564028Y-82172327D01*
X138660004Y-82197175D01*
X138750480Y-82222387D01*
X138837973Y-82248576D01*
X138925000Y-82276352D01*
X139018377Y-82308130D01*
X139208968Y-82380231D01*
X139390134Y-82458631D01*
X139560317Y-82542430D01*
X139717962Y-82630724D01*
X139861511Y-82722612D01*
X139989410Y-82817192D01*
X140100101Y-82913561D01*
X140192028Y-83010817D01*
X140295265Y-83146526D01*
X140382840Y-83291853D01*
X140451879Y-83444030D01*
X140502825Y-83604215D01*
X140536120Y-83773565D01*
X140552208Y-83953240D01*
X140553213Y-83981906D01*
X140552001Y-84128891D01*
X140539010Y-84269950D01*
X140513443Y-84414587D01*
X140493002Y-84497829D01*
X140451581Y-84627410D01*
X140400059Y-84754084D01*
X140340461Y-84873523D01*
X140274813Y-84981397D01*
X140205141Y-85073380D01*
X140189406Y-85091407D01*
X140172886Y-85109538D01*
X140165451Y-85116560D01*
X140165887Y-85108536D01*
X140169731Y-85085630D01*
X140176191Y-85053060D01*
X140179879Y-85032987D01*
X140187033Y-84967459D01*
X140189240Y-84895931D01*
X140186429Y-84826954D01*
X140178530Y-84769080D01*
X140166137Y-84721801D01*
X140127363Y-84630872D01*
X140072040Y-84549983D01*
X140001730Y-84480822D01*
X139917999Y-84425079D01*
X139822409Y-84384443D01*
X139803023Y-84378586D01*
X139776605Y-84372122D01*
X139747577Y-84367164D01*
X139713727Y-84363647D01*
X139672844Y-84361510D01*
X139622719Y-84360691D01*
X139561141Y-84361127D01*
X139485899Y-84362758D01*
X139394783Y-84365519D01*
X139285583Y-84369350D01*
X139206244Y-84371478D01*
X139039366Y-84370004D01*
X138885048Y-84359456D01*
X138739160Y-84339329D01*
X138597572Y-84309121D01*
X138456156Y-84268329D01*
X138389162Y-84244185D01*
X138301422Y-84207233D01*
X138209750Y-84163882D01*
X138120028Y-84117075D01*
X138038138Y-84069759D01*
X137969960Y-84024877D01*
X137854347Y-83934555D01*
X137715912Y-83803878D01*
X137592072Y-83659075D01*
X137482835Y-83500160D01*
X137388208Y-83327148D01*
X137308200Y-83140051D01*
X137242817Y-82938886D01*
X137192068Y-82723666D01*
X137155960Y-82494406D01*
X137155687Y-82492123D01*
X137152022Y-82452462D01*
X137148662Y-82400357D01*
X137145662Y-82338784D01*
X137143078Y-82270720D01*
X137140965Y-82199142D01*
X137139378Y-82127026D01*
X137138372Y-82057349D01*
X137138003Y-81993087D01*
X137138326Y-81937219D01*
X137139396Y-81892719D01*
X137141268Y-81862566D01*
X137143998Y-81849735D01*
X137147720Y-81849520D01*
X137167037Y-81853653D01*
G36*
X137167037Y-81853653D02*
G01*
X137198643Y-81862683D01*
X137238051Y-81875388D01*
X137269861Y-81885859D01*
X137312288Y-81898889D01*
X137358171Y-81911813D01*
X137409577Y-81925107D01*
X137468570Y-81939246D01*
X137537216Y-81954706D01*
X137617581Y-81971963D01*
X137711729Y-81991493D01*
X137821727Y-82013771D01*
X137949640Y-82039273D01*
X138074754Y-82064335D01*
X138217914Y-82093847D01*
X138345501Y-82121275D01*
X138460033Y-82147231D01*
X138564028Y-82172327D01*
X138660004Y-82197175D01*
X138750480Y-82222387D01*
X138837973Y-82248576D01*
X138925000Y-82276352D01*
X139018377Y-82308130D01*
X139208968Y-82380231D01*
X139390134Y-82458631D01*
X139560317Y-82542430D01*
X139717962Y-82630724D01*
X139861511Y-82722612D01*
X139989410Y-82817192D01*
X140100101Y-82913561D01*
X140192028Y-83010817D01*
X140295265Y-83146526D01*
X140382840Y-83291853D01*
X140451879Y-83444030D01*
X140502825Y-83604215D01*
X140536120Y-83773565D01*
X140552208Y-83953240D01*
X140553213Y-83981906D01*
X140552001Y-84128891D01*
X140539010Y-84269950D01*
X140513443Y-84414587D01*
X140493002Y-84497829D01*
X140451581Y-84627410D01*
X140400059Y-84754084D01*
X140340461Y-84873523D01*
X140274813Y-84981397D01*
X140205141Y-85073380D01*
X140189406Y-85091407D01*
X140172886Y-85109538D01*
X140165451Y-85116560D01*
X140165887Y-85108536D01*
X140169731Y-85085630D01*
X140176191Y-85053060D01*
X140179879Y-85032987D01*
X140187033Y-84967459D01*
X140189240Y-84895931D01*
X140186429Y-84826954D01*
X140178530Y-84769080D01*
X140166137Y-84721801D01*
X140127363Y-84630872D01*
X140072040Y-84549983D01*
X140001730Y-84480822D01*
X139917999Y-84425079D01*
X139822409Y-84384443D01*
X139803023Y-84378586D01*
X139776605Y-84372122D01*
X139747577Y-84367164D01*
X139713727Y-84363647D01*
X139672844Y-84361510D01*
X139622719Y-84360691D01*
X139561141Y-84361127D01*
X139485899Y-84362758D01*
X139394783Y-84365519D01*
X139285583Y-84369350D01*
X139206244Y-84371478D01*
X139039366Y-84370004D01*
X138885048Y-84359456D01*
X138739160Y-84339329D01*
X138597572Y-84309121D01*
X138456156Y-84268329D01*
X138389162Y-84244185D01*
X138301422Y-84207233D01*
X138209750Y-84163882D01*
X138120028Y-84117075D01*
X138038138Y-84069759D01*
X137969960Y-84024877D01*
X137854347Y-83934555D01*
X137715912Y-83803878D01*
X137592072Y-83659075D01*
X137482835Y-83500160D01*
X137388208Y-83327148D01*
X137308200Y-83140051D01*
X137242817Y-82938886D01*
X137192068Y-82723666D01*
X137155960Y-82494406D01*
X137155687Y-82492123D01*
X137152022Y-82452462D01*
X137148662Y-82400357D01*
X137145662Y-82338784D01*
X137143078Y-82270720D01*
X137140965Y-82199142D01*
X137139378Y-82127026D01*
X137138372Y-82057349D01*
X137138003Y-81993087D01*
X137138326Y-81937219D01*
X137139396Y-81892719D01*
X137141268Y-81862566D01*
X137143998Y-81849735D01*
X137147720Y-81849520D01*
X137167037Y-81853653D01*
G37*
X150297466Y-78374228D02*
X150270951Y-78491463D01*
X150239932Y-78609929D01*
X150203701Y-78731673D01*
X150161547Y-78858737D01*
X150112759Y-78993165D01*
X150056627Y-79137001D01*
X149992443Y-79292290D01*
X149919494Y-79461075D01*
X149837072Y-79645400D01*
X149830301Y-79660344D01*
X149758128Y-79821037D01*
X149694494Y-79965869D01*
X149638739Y-80096889D01*
X149590203Y-80216148D01*
X149548227Y-80325693D01*
X149512151Y-80427575D01*
X149481315Y-80523842D01*
X149455061Y-80616543D01*
X149432728Y-80707727D01*
X149413658Y-80799444D01*
X149397189Y-80893742D01*
X149382664Y-80992671D01*
X149369422Y-81098280D01*
X149367448Y-81115424D01*
X149357593Y-81211500D01*
X149349733Y-81309245D01*
X149343909Y-81410083D01*
X149340158Y-81515435D01*
X149338522Y-81626725D01*
X149339038Y-81745375D01*
X149341746Y-81872809D01*
X149346684Y-82010448D01*
X149353893Y-82159716D01*
X149363412Y-82322035D01*
X149375279Y-82498828D01*
X149389533Y-82691518D01*
X149406214Y-82901528D01*
X149425362Y-83130280D01*
X149430629Y-83192017D01*
X149442020Y-83326765D01*
X149451786Y-83444778D01*
X149460078Y-83548525D01*
X149467045Y-83640476D01*
X149472836Y-83723102D01*
X149477601Y-83798873D01*
X149481490Y-83870259D01*
X149484651Y-83939730D01*
X149487235Y-84009758D01*
X149489391Y-84082812D01*
X149491268Y-84161362D01*
X149493017Y-84247880D01*
X149494247Y-84330466D01*
X149490292Y-84735472D01*
X149469652Y-85131918D01*
X149432412Y-85519179D01*
X149378659Y-85896631D01*
X149308479Y-86263650D01*
X149221957Y-86619611D01*
X149119179Y-86963891D01*
X149072466Y-87101338D01*
X148944366Y-87435645D01*
X148799518Y-87758459D01*
X148637955Y-88069744D01*
X148459706Y-88369466D01*
X148264803Y-88657591D01*
X148053276Y-88934084D01*
X147825156Y-89198911D01*
X147580475Y-89452036D01*
X147319262Y-89693426D01*
X147041549Y-89923046D01*
X146747367Y-90140860D01*
X146436746Y-90346835D01*
X146109718Y-90540936D01*
X145766313Y-90723129D01*
X145617782Y-90797578D01*
X145428129Y-91070778D01*
X145288911Y-91271326D01*
X145262927Y-91308694D01*
X145197192Y-91402705D01*
X145131654Y-91495738D01*
X145067930Y-91585540D01*
X145007634Y-91669857D01*
X144952382Y-91746438D01*
X144903789Y-91813028D01*
X144863470Y-91867375D01*
X144833040Y-91907225D01*
X144761492Y-91997388D01*
X144583538Y-92210948D01*
X144408171Y-92405680D01*
X144234490Y-92582389D01*
X144061594Y-92741880D01*
X143888582Y-92884959D01*
X143714553Y-93012429D01*
X143538606Y-93125097D01*
X143359840Y-93223768D01*
X143224974Y-93288633D01*
X143067839Y-93353671D01*
X142909165Y-93407238D01*
X142744500Y-93450644D01*
X142569395Y-93485197D01*
X142379400Y-93512207D01*
X142347528Y-93514773D01*
X142294588Y-93516756D01*
X142229371Y-93517650D01*
X142156224Y-93517519D01*
X142079492Y-93516429D01*
X142003521Y-93514447D01*
X141932658Y-93511637D01*
X141871248Y-93508066D01*
X141823638Y-93503799D01*
X141702834Y-93486827D01*
X141479524Y-93440083D01*
X141259831Y-93373757D01*
X141043594Y-93287765D01*
X140830654Y-93182024D01*
X140620850Y-93056450D01*
X140414021Y-92910960D01*
X140210008Y-92745470D01*
X140008649Y-92559898D01*
X139932260Y-92483546D01*
X139841063Y-92387817D01*
X139749269Y-92286223D01*
X139655699Y-92177286D01*
X139559173Y-92059532D01*
X139458513Y-91931486D01*
X139352538Y-91791671D01*
X139240068Y-91638613D01*
X139119925Y-91470835D01*
X138990928Y-91286863D01*
X138840788Y-91070812D01*
X140212793Y-91070812D01*
X140219177Y-91085186D01*
X140236825Y-91112250D01*
X140264192Y-91150037D01*
X140299733Y-91196584D01*
X140341904Y-91249926D01*
X140389160Y-91308099D01*
X140439955Y-91369139D01*
X140492746Y-91431080D01*
X140545986Y-91491960D01*
X140585455Y-91535478D01*
X140645346Y-91598972D01*
X140711214Y-91666532D01*
X140779802Y-91734960D01*
X140847851Y-91801058D01*
X140912102Y-91861628D01*
X140969297Y-91913472D01*
X141016177Y-91953393D01*
X141089037Y-92009826D01*
X141217196Y-92098494D01*
X141349631Y-92178031D01*
X141481514Y-92245624D01*
X141608020Y-92298458D01*
X141639513Y-92309106D01*
X141693773Y-92325442D01*
X141753738Y-92341806D01*
X141811220Y-92355882D01*
X141871380Y-92367447D01*
X141967931Y-92379749D01*
X142071474Y-92386971D01*
X142175410Y-92388874D01*
X142273142Y-92385219D01*
X142358070Y-92375764D01*
X142455545Y-92356858D01*
X142616085Y-92312013D01*
X142774458Y-92250171D01*
X142931359Y-92170883D01*
X143087482Y-92073700D01*
X143243523Y-91958173D01*
X143400176Y-91823854D01*
X143558137Y-91670292D01*
X143718100Y-91497040D01*
X143721212Y-91493500D01*
X143777462Y-91428706D01*
X143832494Y-91363900D01*
X143884791Y-91300997D01*
X143932832Y-91241912D01*
X143975101Y-91188561D01*
X144010079Y-91142856D01*
X144036248Y-91106715D01*
X144052089Y-91082050D01*
X144056084Y-91070778D01*
X144051107Y-91067267D01*
X144030048Y-91062165D01*
X143999837Y-91060160D01*
X143976340Y-91059309D01*
X143932933Y-91054723D01*
X143878384Y-91045900D01*
X143811317Y-91032541D01*
X143730354Y-91014347D01*
X143634119Y-90991018D01*
X143521233Y-90962255D01*
X143390320Y-90927760D01*
X143301521Y-90904252D01*
X143156237Y-90866841D01*
X143026080Y-90834955D01*
X142908367Y-90808086D01*
X142800414Y-90785725D01*
X142699535Y-90767364D01*
X142603048Y-90752494D01*
X142508266Y-90740608D01*
X142412506Y-90731197D01*
X142313084Y-90723752D01*
X142200926Y-90718467D01*
X142079977Y-90717561D01*
X141957562Y-90721973D01*
X141831517Y-90732009D01*
X141699679Y-90747976D01*
X141559885Y-90770181D01*
X141409970Y-90798932D01*
X141247772Y-90834535D01*
X141071126Y-90877298D01*
X140877871Y-90927529D01*
X140796501Y-90949181D01*
X140694819Y-90975838D01*
X140608960Y-90997733D01*
X140536733Y-91015357D01*
X140475953Y-91029202D01*
X140424430Y-91039760D01*
X140379978Y-91047523D01*
X140340407Y-91052983D01*
X140303530Y-91056631D01*
X140296720Y-91057196D01*
X140258607Y-91061112D01*
X140228877Y-91065374D01*
X140213479Y-91069156D01*
X140212793Y-91070812D01*
X138840788Y-91070812D01*
X138651631Y-90798615D01*
X138534316Y-90740322D01*
X138458496Y-90702179D01*
X138116657Y-90517923D01*
X137791236Y-90321726D01*
X137482268Y-90113637D01*
X137189788Y-89893708D01*
X136913832Y-89661987D01*
X136654435Y-89418524D01*
X136411634Y-89163369D01*
X136185464Y-88896570D01*
X135975960Y-88618179D01*
X135783158Y-88328245D01*
X135607093Y-88026816D01*
X135447802Y-87713943D01*
X135305320Y-87389676D01*
X135179682Y-87054064D01*
X135070925Y-86707157D01*
X134979083Y-86349004D01*
X134904192Y-85979655D01*
X134846288Y-85599160D01*
X134839858Y-85547855D01*
X134816868Y-85341037D01*
X134799257Y-85137465D01*
X134786789Y-84932513D01*
X134779227Y-84721555D01*
X134776334Y-84499965D01*
X134777873Y-84263120D01*
X134778657Y-84211850D01*
X134780187Y-84121818D01*
X134781865Y-84041222D01*
X134783847Y-83967363D01*
X134786285Y-83897545D01*
X134789334Y-83829070D01*
X134793148Y-83759240D01*
X134797879Y-83685358D01*
X134803681Y-83604727D01*
X134810709Y-83514649D01*
X134819116Y-83412427D01*
X134829056Y-83295363D01*
X134840682Y-83160760D01*
X134848732Y-83067650D01*
X134862171Y-82910079D01*
X134873864Y-82769443D01*
X134883944Y-82643606D01*
X134892543Y-82530434D01*
X134899797Y-82427790D01*
X134905836Y-82333539D01*
X134910796Y-82245547D01*
X134914808Y-82161678D01*
X134918007Y-82079795D01*
X134920526Y-81997765D01*
X134922497Y-81913452D01*
X134924054Y-81824720D01*
X134925519Y-81698760D01*
X134925711Y-81575140D01*
X134924245Y-81465249D01*
X134920962Y-81365645D01*
X134915707Y-81272883D01*
X134908321Y-81183522D01*
X134898649Y-81094117D01*
X134886532Y-81001226D01*
X134875622Y-80926347D01*
X134861599Y-80839995D01*
X134846255Y-80757812D01*
X134828956Y-80677930D01*
X134809068Y-80598479D01*
X134785957Y-80517593D01*
X134758987Y-80433402D01*
X134727525Y-80344038D01*
X134690936Y-80247633D01*
X134648586Y-80142318D01*
X134599840Y-80026226D01*
X134544064Y-79897487D01*
X134480624Y-79754235D01*
X134408884Y-79594600D01*
X134392013Y-79557155D01*
X134315425Y-79384117D01*
X134248019Y-79226059D01*
X134189018Y-79080791D01*
X134137642Y-78946121D01*
X134093111Y-78819859D01*
X134054646Y-78699815D01*
X134021466Y-78583798D01*
X133992794Y-78469616D01*
X133968145Y-78356440D01*
X134785402Y-78356440D01*
X134787907Y-78414783D01*
X134793071Y-78471282D01*
X134800800Y-78520608D01*
X134802005Y-78526341D01*
X134814589Y-78577449D01*
X134833027Y-78642631D01*
X134855948Y-78717632D01*
X134881982Y-78798197D01*
X134909758Y-78880070D01*
X134937907Y-78958996D01*
X134965058Y-79030720D01*
X134982581Y-79074784D01*
X135011808Y-79145869D01*
X135043679Y-79220343D01*
X135079302Y-79300653D01*
X135119786Y-79389244D01*
X135166239Y-79488565D01*
X135219770Y-79601062D01*
X135281487Y-79729182D01*
X135296347Y-79759941D01*
X135375402Y-79925988D01*
X135444929Y-80077201D01*
X135505516Y-80215901D01*
X135557749Y-80344409D01*
X135602217Y-80465049D01*
X135639508Y-80580141D01*
X135670209Y-80692008D01*
X135694908Y-80802972D01*
X135714193Y-80915354D01*
X135728653Y-81031478D01*
X135738874Y-81153663D01*
X135745444Y-81284233D01*
X135748952Y-81425510D01*
X135749985Y-81579815D01*
X135749952Y-81621249D01*
X135749751Y-81680017D01*
X135749308Y-81736145D01*
X135748552Y-81791399D01*
X135747412Y-81847541D01*
X135745817Y-81906336D01*
X135743698Y-81969545D01*
X135740984Y-82038934D01*
X135737605Y-82116265D01*
X135733489Y-82203302D01*
X135728567Y-82301809D01*
X135722768Y-82413548D01*
X135716021Y-82540284D01*
X135708257Y-82683780D01*
X135699404Y-82845800D01*
X135698881Y-82855358D01*
X135689313Y-83031235D01*
X135680899Y-83188906D01*
X135673568Y-83330346D01*
X135667248Y-83457532D01*
X135661868Y-83572438D01*
X135657357Y-83677040D01*
X135653643Y-83773313D01*
X135650655Y-83863233D01*
X135648322Y-83948775D01*
X135646571Y-84031915D01*
X135645333Y-84114628D01*
X135644534Y-84198889D01*
X135644105Y-84286675D01*
X135643974Y-84379960D01*
X135644140Y-84478216D01*
X135645092Y-84607367D01*
X135647044Y-84722279D01*
X135650171Y-84826558D01*
X135654649Y-84923811D01*
X135660655Y-85017643D01*
X135668364Y-85111662D01*
X135677952Y-85209472D01*
X135689596Y-85314680D01*
X135722472Y-85556779D01*
X135778949Y-85861481D01*
X135851526Y-86156023D01*
X135940895Y-86442363D01*
X136047750Y-86722454D01*
X136172783Y-86998253D01*
X136316689Y-87271717D01*
X136480160Y-87544800D01*
X136650549Y-87800510D01*
X136839629Y-88057284D01*
X137037633Y-88300239D01*
X137243797Y-88528731D01*
X137457359Y-88742113D01*
X137677554Y-88939738D01*
X137903620Y-89120961D01*
X138134794Y-89285135D01*
X138370311Y-89431615D01*
X138609410Y-89559754D01*
X138851326Y-89668906D01*
X139095296Y-89758426D01*
X139105067Y-89761585D01*
X139328051Y-89825571D01*
X139548400Y-89872636D01*
X139770314Y-89903368D01*
X139997994Y-89918356D01*
X140235640Y-89918189D01*
X140339437Y-89914147D01*
X140523627Y-89902180D01*
X140690567Y-89884453D01*
X140841790Y-89860750D01*
X140978825Y-89830852D01*
X141103206Y-89794540D01*
X141164949Y-89772486D01*
X141267408Y-89727399D01*
X141352546Y-89676799D01*
X141422127Y-89619354D01*
X141477918Y-89553730D01*
X141521685Y-89478594D01*
X141547258Y-89421658D01*
X141601899Y-89267820D01*
X141638147Y-89109846D01*
X141639133Y-89103843D01*
X141651102Y-88978492D01*
X141645492Y-88858368D01*
X141622002Y-88743010D01*
X141580330Y-88631957D01*
X141520174Y-88524749D01*
X141441234Y-88420925D01*
X141343207Y-88320026D01*
X141225794Y-88221590D01*
X141088692Y-88125158D01*
X140931600Y-88030269D01*
X140916874Y-88022075D01*
X140871504Y-87997518D01*
X140812725Y-87966365D01*
X140743859Y-87930350D01*
X140668228Y-87891203D01*
X140589155Y-87850657D01*
X140509960Y-87810444D01*
X140386962Y-87747504D01*
X140266258Y-87683566D01*
X140161579Y-87625342D01*
X140071428Y-87571861D01*
X139994309Y-87522155D01*
X139928724Y-87475254D01*
X139873175Y-87430188D01*
X139826166Y-87385987D01*
X139786200Y-87341682D01*
X139743453Y-87284429D01*
X139697144Y-87201129D01*
X139665394Y-87110857D01*
X139647130Y-87010319D01*
X139641280Y-86896216D01*
X139646600Y-86788919D01*
X139669393Y-86650532D01*
X139709268Y-86517872D01*
X139765285Y-86393342D01*
X139836503Y-86279347D01*
X139921983Y-86178292D01*
X139926895Y-86173395D01*
X139957409Y-86145638D01*
X139993372Y-86116114D01*
X140030641Y-86087861D01*
X140065079Y-86063919D01*
X140092544Y-86047326D01*
X140108895Y-86041120D01*
X140113914Y-86045470D01*
X140128226Y-86063814D01*
X140148768Y-86093197D01*
X140172944Y-86130020D01*
X140197551Y-86167240D01*
X140293077Y-86291090D01*
X140402907Y-86403797D01*
X140528219Y-86506357D01*
X140670191Y-86599764D01*
X140830000Y-86685014D01*
X140956006Y-86741190D01*
X141160628Y-86815059D01*
X141376469Y-86873048D01*
X141602160Y-86914749D01*
X141624350Y-86917903D01*
X141848120Y-86942206D01*
X142070224Y-86952995D01*
X142289198Y-86950609D01*
X142503573Y-86935382D01*
X142711883Y-86907654D01*
X142912662Y-86867760D01*
X143104443Y-86816039D01*
X143285759Y-86752826D01*
X143455144Y-86678460D01*
X143611132Y-86593278D01*
X143752254Y-86497616D01*
X143877045Y-86391812D01*
X143934394Y-86334462D01*
X144005564Y-86254928D01*
X144065909Y-86177260D01*
X144112037Y-86105593D01*
X144129128Y-86075416D01*
X144142213Y-86052649D01*
X144148214Y-86042652D01*
X144148840Y-86042154D01*
X144161528Y-86044960D01*
X144185587Y-86057146D01*
X144216855Y-86076070D01*
X144251169Y-86099089D01*
X144284368Y-86123561D01*
X144312290Y-86146842D01*
X144331926Y-86165534D01*
X144406981Y-86253108D01*
X144471351Y-86354773D01*
X144524331Y-86467544D01*
X144565216Y-86588438D01*
X144593301Y-86714469D01*
X144607881Y-86842654D01*
X144608251Y-86970008D01*
X144593706Y-87093547D01*
X144563540Y-87210286D01*
X144554208Y-87235750D01*
X144516515Y-87312435D01*
X144464748Y-87384819D01*
X144396007Y-87457174D01*
X144379418Y-87472567D01*
X144340716Y-87506377D01*
X144299263Y-87539356D01*
X144253316Y-87572547D01*
X144201134Y-87606995D01*
X144140974Y-87643742D01*
X144071096Y-87683834D01*
X143989758Y-87728313D01*
X143895217Y-87778223D01*
X143785732Y-87834609D01*
X143659560Y-87898514D01*
X143569083Y-87944370D01*
X143452725Y-88004591D01*
X143351559Y-88058811D01*
X143263565Y-88108302D01*
X143186721Y-88154336D01*
X143119006Y-88198185D01*
X143058399Y-88241120D01*
X143002878Y-88284415D01*
X142950424Y-88329340D01*
X142899013Y-88377169D01*
X142812182Y-88469934D01*
X142740840Y-88567806D01*
X142686319Y-88670642D01*
X142646846Y-88781280D01*
X142642435Y-88797962D01*
X142625983Y-88900721D01*
X142624297Y-89013119D01*
X142636897Y-89132005D01*
X142663305Y-89254229D01*
X142703039Y-89376638D01*
X142755621Y-89496083D01*
X142764521Y-89512816D01*
X142816446Y-89586345D01*
X142885627Y-89652363D01*
X142972301Y-89710959D01*
X143076705Y-89762220D01*
X143199073Y-89806235D01*
X143339643Y-89843090D01*
X143498650Y-89872874D01*
X143676330Y-89895675D01*
X143872920Y-89911580D01*
X143909552Y-89913670D01*
X144139210Y-89920299D01*
X144356354Y-89914566D01*
X144564414Y-89896068D01*
X144766820Y-89864404D01*
X144967001Y-89819173D01*
X145168388Y-89759973D01*
X145382307Y-89682673D01*
X145624800Y-89576416D01*
X145864262Y-89451209D01*
X146101286Y-89306712D01*
X146336467Y-89142585D01*
X146570400Y-88958489D01*
X146584483Y-88946608D01*
X146638988Y-88898445D01*
X146703547Y-88838778D01*
X146775418Y-88770349D01*
X146851858Y-88695899D01*
X146930123Y-88618172D01*
X147007472Y-88539908D01*
X147081160Y-88463849D01*
X147148446Y-88392736D01*
X147206586Y-88329313D01*
X147252838Y-88276320D01*
X147287714Y-88234486D01*
X147503137Y-87959781D01*
X147703407Y-87675394D01*
X147886841Y-87383832D01*
X148051755Y-87087600D01*
X148056019Y-87079403D01*
X148113024Y-86967347D01*
X148161881Y-86865534D01*
X148205145Y-86767956D01*
X148245371Y-86668608D01*
X148285112Y-86561486D01*
X148326922Y-86440582D01*
X148364352Y-86326075D01*
X148420615Y-86137705D01*
X148468961Y-85951850D01*
X148509941Y-85765307D01*
X148544103Y-85574873D01*
X148571996Y-85377345D01*
X148594170Y-85169518D01*
X148611174Y-84948191D01*
X148623556Y-84710160D01*
X148623859Y-84702711D01*
X148627139Y-84593297D01*
X148628685Y-84471753D01*
X148628474Y-84337270D01*
X148626478Y-84189038D01*
X148622674Y-84026248D01*
X148617036Y-83848092D01*
X148609537Y-83653759D01*
X148600154Y-83442441D01*
X148588860Y-83213328D01*
X148575630Y-82965610D01*
X148560439Y-82698480D01*
X148556366Y-82626742D01*
X148547759Y-82460101D01*
X148540296Y-82293682D01*
X148534015Y-82129489D01*
X148528954Y-81969526D01*
X148525150Y-81815797D01*
X148522642Y-81670307D01*
X148521468Y-81535060D01*
X148521666Y-81412058D01*
X148523273Y-81303308D01*
X148526327Y-81210812D01*
X148530867Y-81136575D01*
X148532644Y-81115620D01*
X148550449Y-80954633D01*
X148575460Y-80802764D01*
X148608917Y-80655138D01*
X148652065Y-80506879D01*
X148706146Y-80353111D01*
X148772402Y-80188960D01*
X148773773Y-80185756D01*
X148789508Y-80150286D01*
X148812647Y-80099622D01*
X148841901Y-80036517D01*
X148875983Y-79963726D01*
X148913602Y-79884004D01*
X148953470Y-79800104D01*
X148994298Y-79714780D01*
X149032523Y-79634980D01*
X149089759Y-79514450D01*
X149139505Y-79408080D01*
X149182853Y-79313406D01*
X149220893Y-79227959D01*
X149254718Y-79149273D01*
X149285418Y-79074883D01*
X149314084Y-79002320D01*
X149341807Y-78929120D01*
X149366525Y-78861164D01*
X149410617Y-78730108D01*
X149444281Y-78613985D01*
X149467877Y-78511319D01*
X149481770Y-78420637D01*
X149486320Y-78340462D01*
X149483871Y-78285703D01*
X149471319Y-78223014D01*
X149446506Y-78174798D01*
X149407642Y-78138926D01*
X149352939Y-78113270D01*
X149280607Y-78095701D01*
X149260009Y-78092590D01*
X149223706Y-78089765D01*
X149185020Y-78090696D01*
X149141578Y-78095882D01*
X149091009Y-78105822D01*
X149030942Y-78121015D01*
X148959006Y-78141960D01*
X148872829Y-78169154D01*
X148770040Y-78203098D01*
X148767075Y-78204091D01*
X148601982Y-78257921D01*
X148451340Y-78303903D01*
X148311406Y-78343088D01*
X148178434Y-78376526D01*
X148048680Y-78405265D01*
X148023669Y-78410368D01*
X147750758Y-78457293D01*
X147484654Y-78486886D01*
X147225907Y-78499195D01*
X146975068Y-78494268D01*
X146732689Y-78472155D01*
X146499320Y-78432902D01*
X146275513Y-78376560D01*
X146061818Y-78303175D01*
X145858788Y-78212797D01*
X145846896Y-78206831D01*
X145814194Y-78190204D01*
X145782707Y-78173733D01*
X145750592Y-78156324D01*
X145716002Y-78136887D01*
X145677093Y-78114330D01*
X145632018Y-78087561D01*
X145578935Y-78055487D01*
X145515996Y-78017018D01*
X145441358Y-77971060D01*
X145353174Y-77916524D01*
X145249600Y-77852315D01*
X145194249Y-77818010D01*
X145076556Y-77745356D01*
X144972824Y-77681831D01*
X144880848Y-77626157D01*
X144798422Y-77577056D01*
X144723342Y-77533249D01*
X144653401Y-77493458D01*
X144586393Y-77456406D01*
X144520115Y-77420814D01*
X144452359Y-77385404D01*
X144380920Y-77348898D01*
X144276548Y-77297207D01*
X144013045Y-77177546D01*
X143752613Y-77075463D01*
X143492128Y-76989995D01*
X143228467Y-76920178D01*
X142958506Y-76865047D01*
X142679120Y-76823638D01*
X142629059Y-76817832D01*
X142577689Y-76812771D01*
X142525975Y-76808839D01*
X142470586Y-76805899D01*
X142408196Y-76803811D01*
X142335474Y-76802434D01*
X142249092Y-76801629D01*
X142145720Y-76801257D01*
X142100267Y-76801242D01*
X141984256Y-76801883D01*
X141881886Y-76803489D01*
X141794823Y-76806017D01*
X141724732Y-76809421D01*
X141673280Y-76813660D01*
X141558661Y-76827492D01*
X141282713Y-76870175D01*
X141018427Y-76925371D01*
X140761905Y-76994199D01*
X140509251Y-77077775D01*
X140256567Y-77177217D01*
X139999957Y-77293644D01*
X139948374Y-77318723D01*
X139857462Y-77364078D01*
X139767828Y-77410464D01*
X139677208Y-77459172D01*
X139583337Y-77511497D01*
X139483951Y-77568731D01*
X139376785Y-77632167D01*
X139259574Y-77703099D01*
X139130054Y-77782820D01*
X138985960Y-77872621D01*
X138912453Y-77918556D01*
X138809869Y-77982210D01*
X138721091Y-78036614D01*
X138644165Y-78082908D01*
X138577134Y-78122235D01*
X138518044Y-78155734D01*
X138464939Y-78184546D01*
X138415863Y-78209813D01*
X138368862Y-78232675D01*
X138171962Y-78316042D01*
X137951485Y-78388239D01*
X137721775Y-78442511D01*
X137483022Y-78478854D01*
X137235415Y-78497260D01*
X136979143Y-78497722D01*
X136714395Y-78480235D01*
X136441360Y-78444791D01*
X136160227Y-78391384D01*
X135871185Y-78320007D01*
X135842858Y-78311999D01*
X135781800Y-78293821D01*
X135709210Y-78271361D01*
X135629923Y-78246145D01*
X135548775Y-78219700D01*
X135470600Y-78193552D01*
X135385152Y-78165020D01*
X135298282Y-78137556D01*
X135225585Y-78116822D01*
X135164529Y-78102310D01*
X135112586Y-78093514D01*
X135067225Y-78089925D01*
X135025916Y-78091036D01*
X134986130Y-78096339D01*
X134934312Y-78108720D01*
X134870685Y-78135959D01*
X134824410Y-78173459D01*
X134795637Y-78221121D01*
X134794750Y-78223649D01*
X134788731Y-78255543D01*
X134785645Y-78301583D01*
X134785402Y-78356440D01*
X133968145Y-78356440D01*
X133967849Y-78355080D01*
X133942932Y-78212670D01*
X133925187Y-78048877D01*
X133921681Y-77898146D01*
X133932358Y-77760734D01*
X133957164Y-77636899D01*
X133996044Y-77526899D01*
X134048942Y-77430991D01*
X134115805Y-77349433D01*
X134196576Y-77282483D01*
X134284009Y-77232360D01*
X134392017Y-77191276D01*
X134511353Y-77165821D01*
X134642295Y-77155991D01*
X134785123Y-77161786D01*
X134940117Y-77183201D01*
X135107557Y-77220236D01*
X135287720Y-77272887D01*
X135408940Y-77311664D01*
X135601367Y-77370826D01*
X135779444Y-77422232D01*
X135945683Y-77466508D01*
X136102596Y-77504276D01*
X136252692Y-77536162D01*
X136398483Y-77562788D01*
X136542480Y-77584780D01*
X136586359Y-77589936D01*
X136667239Y-77596340D01*
X136759150Y-77600720D01*
X136857628Y-77603078D01*
X136958207Y-77603415D01*
X137056425Y-77601733D01*
X137147815Y-77598032D01*
X137227915Y-77592314D01*
X137292259Y-77584580D01*
X137334904Y-77577358D01*
X137437958Y-77556905D01*
X137543393Y-77532329D01*
X137643657Y-77505463D01*
X137731200Y-77478138D01*
X137750156Y-77471587D01*
X137825820Y-77444098D01*
X137899296Y-77414923D01*
X137972965Y-77382856D01*
X138049208Y-77346691D01*
X138130407Y-77305221D01*
X138218943Y-77257240D01*
X138317199Y-77201542D01*
X138427555Y-77136920D01*
X138552393Y-77062168D01*
X138583043Y-77043668D01*
X138695993Y-76975568D01*
X138794148Y-76916549D01*
X138879550Y-76865408D01*
X138954244Y-76820943D01*
X139020271Y-76781951D01*
X139079676Y-76747231D01*
X139134502Y-76715580D01*
X139186791Y-76685797D01*
X139238588Y-76656678D01*
X139291934Y-76627021D01*
X139470887Y-76531313D01*
X139770397Y-76386221D01*
X140069407Y-76260546D01*
X140369256Y-76153830D01*
X140671279Y-76065614D01*
X140976815Y-75995440D01*
X141287200Y-75942849D01*
X141405851Y-75927368D01*
X141748527Y-75895717D01*
X142090039Y-75883435D01*
X142429468Y-75890409D01*
X142765892Y-75916522D01*
X143098393Y-75961658D01*
X143426050Y-76025703D01*
X143747944Y-76108540D01*
X144063154Y-76210055D01*
X144370760Y-76330131D01*
X144399579Y-76342482D01*
X144489488Y-76382037D01*
X144578158Y-76422772D01*
X144667419Y-76465672D01*
X144759099Y-76511724D01*
X144855028Y-76561916D01*
X144957036Y-76617235D01*
X145066951Y-76678667D01*
X145186603Y-76747199D01*
X145317822Y-76823818D01*
X145462436Y-76909510D01*
X145622276Y-77005263D01*
X145637714Y-77014544D01*
X145785843Y-77102764D01*
X145919269Y-77180425D01*
X146039865Y-77248374D01*
X146149504Y-77307457D01*
X146250062Y-77358517D01*
X146343411Y-77402402D01*
X146431426Y-77439956D01*
X146515981Y-77472025D01*
X146598949Y-77499454D01*
X146682205Y-77523089D01*
X146767621Y-77543775D01*
X146857073Y-77562357D01*
X146897867Y-77569937D01*
X147033700Y-77590557D01*
X147170446Y-77603862D01*
X147309652Y-77609648D01*
X147452865Y-77607710D01*
X147601633Y-77597847D01*
X147757503Y-77579853D01*
X147922022Y-77553526D01*
X148096738Y-77518662D01*
X148283198Y-77475057D01*
X148482949Y-77422507D01*
X148697539Y-77360809D01*
X148928514Y-77289760D01*
X149029319Y-77258483D01*
X149124051Y-77230733D01*
X149206753Y-77208715D01*
X149281032Y-77191604D01*
X149350498Y-77178573D01*
X149418760Y-77168798D01*
X149489427Y-77161453D01*
X149593826Y-77156475D01*
X149722867Y-77162877D01*
X149842368Y-77183462D01*
X149950936Y-77217765D01*
X150047178Y-77265320D01*
X150129701Y-77325659D01*
X150197112Y-77398317D01*
X150223127Y-77436343D01*
X150265049Y-77513397D01*
X150300480Y-77598668D01*
X150325984Y-77684520D01*
X150333760Y-77726737D01*
X150341568Y-77801482D01*
X150345319Y-77887918D01*
X150345059Y-77981190D01*
X150340833Y-78076444D01*
X150332687Y-78168825D01*
X150320665Y-78253480D01*
X150320188Y-78256183D01*
X150303965Y-78340462D01*
X150297466Y-78374228D01*
G36*
X150297466Y-78374228D02*
G01*
X150270951Y-78491463D01*
X150239932Y-78609929D01*
X150203701Y-78731673D01*
X150161547Y-78858737D01*
X150112759Y-78993165D01*
X150056627Y-79137001D01*
X149992443Y-79292290D01*
X149919494Y-79461075D01*
X149837072Y-79645400D01*
X149830301Y-79660344D01*
X149758128Y-79821037D01*
X149694494Y-79965869D01*
X149638739Y-80096889D01*
X149590203Y-80216148D01*
X149548227Y-80325693D01*
X149512151Y-80427575D01*
X149481315Y-80523842D01*
X149455061Y-80616543D01*
X149432728Y-80707727D01*
X149413658Y-80799444D01*
X149397189Y-80893742D01*
X149382664Y-80992671D01*
X149369422Y-81098280D01*
X149367448Y-81115424D01*
X149357593Y-81211500D01*
X149349733Y-81309245D01*
X149343909Y-81410083D01*
X149340158Y-81515435D01*
X149338522Y-81626725D01*
X149339038Y-81745375D01*
X149341746Y-81872809D01*
X149346684Y-82010448D01*
X149353893Y-82159716D01*
X149363412Y-82322035D01*
X149375279Y-82498828D01*
X149389533Y-82691518D01*
X149406214Y-82901528D01*
X149425362Y-83130280D01*
X149430629Y-83192017D01*
X149442020Y-83326765D01*
X149451786Y-83444778D01*
X149460078Y-83548525D01*
X149467045Y-83640476D01*
X149472836Y-83723102D01*
X149477601Y-83798873D01*
X149481490Y-83870259D01*
X149484651Y-83939730D01*
X149487235Y-84009758D01*
X149489391Y-84082812D01*
X149491268Y-84161362D01*
X149493017Y-84247880D01*
X149494247Y-84330466D01*
X149490292Y-84735472D01*
X149469652Y-85131918D01*
X149432412Y-85519179D01*
X149378659Y-85896631D01*
X149308479Y-86263650D01*
X149221957Y-86619611D01*
X149119179Y-86963891D01*
X149072466Y-87101338D01*
X148944366Y-87435645D01*
X148799518Y-87758459D01*
X148637955Y-88069744D01*
X148459706Y-88369466D01*
X148264803Y-88657591D01*
X148053276Y-88934084D01*
X147825156Y-89198911D01*
X147580475Y-89452036D01*
X147319262Y-89693426D01*
X147041549Y-89923046D01*
X146747367Y-90140860D01*
X146436746Y-90346835D01*
X146109718Y-90540936D01*
X145766313Y-90723129D01*
X145617782Y-90797578D01*
X145428129Y-91070778D01*
X145288911Y-91271326D01*
X145262927Y-91308694D01*
X145197192Y-91402705D01*
X145131654Y-91495738D01*
X145067930Y-91585540D01*
X145007634Y-91669857D01*
X144952382Y-91746438D01*
X144903789Y-91813028D01*
X144863470Y-91867375D01*
X144833040Y-91907225D01*
X144761492Y-91997388D01*
X144583538Y-92210948D01*
X144408171Y-92405680D01*
X144234490Y-92582389D01*
X144061594Y-92741880D01*
X143888582Y-92884959D01*
X143714553Y-93012429D01*
X143538606Y-93125097D01*
X143359840Y-93223768D01*
X143224974Y-93288633D01*
X143067839Y-93353671D01*
X142909165Y-93407238D01*
X142744500Y-93450644D01*
X142569395Y-93485197D01*
X142379400Y-93512207D01*
X142347528Y-93514773D01*
X142294588Y-93516756D01*
X142229371Y-93517650D01*
X142156224Y-93517519D01*
X142079492Y-93516429D01*
X142003521Y-93514447D01*
X141932658Y-93511637D01*
X141871248Y-93508066D01*
X141823638Y-93503799D01*
X141702834Y-93486827D01*
X141479524Y-93440083D01*
X141259831Y-93373757D01*
X141043594Y-93287765D01*
X140830654Y-93182024D01*
X140620850Y-93056450D01*
X140414021Y-92910960D01*
X140210008Y-92745470D01*
X140008649Y-92559898D01*
X139932260Y-92483546D01*
X139841063Y-92387817D01*
X139749269Y-92286223D01*
X139655699Y-92177286D01*
X139559173Y-92059532D01*
X139458513Y-91931486D01*
X139352538Y-91791671D01*
X139240068Y-91638613D01*
X139119925Y-91470835D01*
X138990928Y-91286863D01*
X138840788Y-91070812D01*
X140212793Y-91070812D01*
X140219177Y-91085186D01*
X140236825Y-91112250D01*
X140264192Y-91150037D01*
X140299733Y-91196584D01*
X140341904Y-91249926D01*
X140389160Y-91308099D01*
X140439955Y-91369139D01*
X140492746Y-91431080D01*
X140545986Y-91491960D01*
X140585455Y-91535478D01*
X140645346Y-91598972D01*
X140711214Y-91666532D01*
X140779802Y-91734960D01*
X140847851Y-91801058D01*
X140912102Y-91861628D01*
X140969297Y-91913472D01*
X141016177Y-91953393D01*
X141089037Y-92009826D01*
X141217196Y-92098494D01*
X141349631Y-92178031D01*
X141481514Y-92245624D01*
X141608020Y-92298458D01*
X141639513Y-92309106D01*
X141693773Y-92325442D01*
X141753738Y-92341806D01*
X141811220Y-92355882D01*
X141871380Y-92367447D01*
X141967931Y-92379749D01*
X142071474Y-92386971D01*
X142175410Y-92388874D01*
X142273142Y-92385219D01*
X142358070Y-92375764D01*
X142455545Y-92356858D01*
X142616085Y-92312013D01*
X142774458Y-92250171D01*
X142931359Y-92170883D01*
X143087482Y-92073700D01*
X143243523Y-91958173D01*
X143400176Y-91823854D01*
X143558137Y-91670292D01*
X143718100Y-91497040D01*
X143721212Y-91493500D01*
X143777462Y-91428706D01*
X143832494Y-91363900D01*
X143884791Y-91300997D01*
X143932832Y-91241912D01*
X143975101Y-91188561D01*
X144010079Y-91142856D01*
X144036248Y-91106715D01*
X144052089Y-91082050D01*
X144056084Y-91070778D01*
X144051107Y-91067267D01*
X144030048Y-91062165D01*
X143999837Y-91060160D01*
X143976340Y-91059309D01*
X143932933Y-91054723D01*
X143878384Y-91045900D01*
X143811317Y-91032541D01*
X143730354Y-91014347D01*
X143634119Y-90991018D01*
X143521233Y-90962255D01*
X143390320Y-90927760D01*
X143301521Y-90904252D01*
X143156237Y-90866841D01*
X143026080Y-90834955D01*
X142908367Y-90808086D01*
X142800414Y-90785725D01*
X142699535Y-90767364D01*
X142603048Y-90752494D01*
X142508266Y-90740608D01*
X142412506Y-90731197D01*
X142313084Y-90723752D01*
X142200926Y-90718467D01*
X142079977Y-90717561D01*
X141957562Y-90721973D01*
X141831517Y-90732009D01*
X141699679Y-90747976D01*
X141559885Y-90770181D01*
X141409970Y-90798932D01*
X141247772Y-90834535D01*
X141071126Y-90877298D01*
X140877871Y-90927529D01*
X140796501Y-90949181D01*
X140694819Y-90975838D01*
X140608960Y-90997733D01*
X140536733Y-91015357D01*
X140475953Y-91029202D01*
X140424430Y-91039760D01*
X140379978Y-91047523D01*
X140340407Y-91052983D01*
X140303530Y-91056631D01*
X140296720Y-91057196D01*
X140258607Y-91061112D01*
X140228877Y-91065374D01*
X140213479Y-91069156D01*
X140212793Y-91070812D01*
X138840788Y-91070812D01*
X138651631Y-90798615D01*
X138534316Y-90740322D01*
X138458496Y-90702179D01*
X138116657Y-90517923D01*
X137791236Y-90321726D01*
X137482268Y-90113637D01*
X137189788Y-89893708D01*
X136913832Y-89661987D01*
X136654435Y-89418524D01*
X136411634Y-89163369D01*
X136185464Y-88896570D01*
X135975960Y-88618179D01*
X135783158Y-88328245D01*
X135607093Y-88026816D01*
X135447802Y-87713943D01*
X135305320Y-87389676D01*
X135179682Y-87054064D01*
X135070925Y-86707157D01*
X134979083Y-86349004D01*
X134904192Y-85979655D01*
X134846288Y-85599160D01*
X134839858Y-85547855D01*
X134816868Y-85341037D01*
X134799257Y-85137465D01*
X134786789Y-84932513D01*
X134779227Y-84721555D01*
X134776334Y-84499965D01*
X134777873Y-84263120D01*
X134778657Y-84211850D01*
X134780187Y-84121818D01*
X134781865Y-84041222D01*
X134783847Y-83967363D01*
X134786285Y-83897545D01*
X134789334Y-83829070D01*
X134793148Y-83759240D01*
X134797879Y-83685358D01*
X134803681Y-83604727D01*
X134810709Y-83514649D01*
X134819116Y-83412427D01*
X134829056Y-83295363D01*
X134840682Y-83160760D01*
X134848732Y-83067650D01*
X134862171Y-82910079D01*
X134873864Y-82769443D01*
X134883944Y-82643606D01*
X134892543Y-82530434D01*
X134899797Y-82427790D01*
X134905836Y-82333539D01*
X134910796Y-82245547D01*
X134914808Y-82161678D01*
X134918007Y-82079795D01*
X134920526Y-81997765D01*
X134922497Y-81913452D01*
X134924054Y-81824720D01*
X134925519Y-81698760D01*
X134925711Y-81575140D01*
X134924245Y-81465249D01*
X134920962Y-81365645D01*
X134915707Y-81272883D01*
X134908321Y-81183522D01*
X134898649Y-81094117D01*
X134886532Y-81001226D01*
X134875622Y-80926347D01*
X134861599Y-80839995D01*
X134846255Y-80757812D01*
X134828956Y-80677930D01*
X134809068Y-80598479D01*
X134785957Y-80517593D01*
X134758987Y-80433402D01*
X134727525Y-80344038D01*
X134690936Y-80247633D01*
X134648586Y-80142318D01*
X134599840Y-80026226D01*
X134544064Y-79897487D01*
X134480624Y-79754235D01*
X134408884Y-79594600D01*
X134392013Y-79557155D01*
X134315425Y-79384117D01*
X134248019Y-79226059D01*
X134189018Y-79080791D01*
X134137642Y-78946121D01*
X134093111Y-78819859D01*
X134054646Y-78699815D01*
X134021466Y-78583798D01*
X133992794Y-78469616D01*
X133968145Y-78356440D01*
X134785402Y-78356440D01*
X134787907Y-78414783D01*
X134793071Y-78471282D01*
X134800800Y-78520608D01*
X134802005Y-78526341D01*
X134814589Y-78577449D01*
X134833027Y-78642631D01*
X134855948Y-78717632D01*
X134881982Y-78798197D01*
X134909758Y-78880070D01*
X134937907Y-78958996D01*
X134965058Y-79030720D01*
X134982581Y-79074784D01*
X135011808Y-79145869D01*
X135043679Y-79220343D01*
X135079302Y-79300653D01*
X135119786Y-79389244D01*
X135166239Y-79488565D01*
X135219770Y-79601062D01*
X135281487Y-79729182D01*
X135296347Y-79759941D01*
X135375402Y-79925988D01*
X135444929Y-80077201D01*
X135505516Y-80215901D01*
X135557749Y-80344409D01*
X135602217Y-80465049D01*
X135639508Y-80580141D01*
X135670209Y-80692008D01*
X135694908Y-80802972D01*
X135714193Y-80915354D01*
X135728653Y-81031478D01*
X135738874Y-81153663D01*
X135745444Y-81284233D01*
X135748952Y-81425510D01*
X135749985Y-81579815D01*
X135749952Y-81621249D01*
X135749751Y-81680017D01*
X135749308Y-81736145D01*
X135748552Y-81791399D01*
X135747412Y-81847541D01*
X135745817Y-81906336D01*
X135743698Y-81969545D01*
X135740984Y-82038934D01*
X135737605Y-82116265D01*
X135733489Y-82203302D01*
X135728567Y-82301809D01*
X135722768Y-82413548D01*
X135716021Y-82540284D01*
X135708257Y-82683780D01*
X135699404Y-82845800D01*
X135698881Y-82855358D01*
X135689313Y-83031235D01*
X135680899Y-83188906D01*
X135673568Y-83330346D01*
X135667248Y-83457532D01*
X135661868Y-83572438D01*
X135657357Y-83677040D01*
X135653643Y-83773313D01*
X135650655Y-83863233D01*
X135648322Y-83948775D01*
X135646571Y-84031915D01*
X135645333Y-84114628D01*
X135644534Y-84198889D01*
X135644105Y-84286675D01*
X135643974Y-84379960D01*
X135644140Y-84478216D01*
X135645092Y-84607367D01*
X135647044Y-84722279D01*
X135650171Y-84826558D01*
X135654649Y-84923811D01*
X135660655Y-85017643D01*
X135668364Y-85111662D01*
X135677952Y-85209472D01*
X135689596Y-85314680D01*
X135722472Y-85556779D01*
X135778949Y-85861481D01*
X135851526Y-86156023D01*
X135940895Y-86442363D01*
X136047750Y-86722454D01*
X136172783Y-86998253D01*
X136316689Y-87271717D01*
X136480160Y-87544800D01*
X136650549Y-87800510D01*
X136839629Y-88057284D01*
X137037633Y-88300239D01*
X137243797Y-88528731D01*
X137457359Y-88742113D01*
X137677554Y-88939738D01*
X137903620Y-89120961D01*
X138134794Y-89285135D01*
X138370311Y-89431615D01*
X138609410Y-89559754D01*
X138851326Y-89668906D01*
X139095296Y-89758426D01*
X139105067Y-89761585D01*
X139328051Y-89825571D01*
X139548400Y-89872636D01*
X139770314Y-89903368D01*
X139997994Y-89918356D01*
X140235640Y-89918189D01*
X140339437Y-89914147D01*
X140523627Y-89902180D01*
X140690567Y-89884453D01*
X140841790Y-89860750D01*
X140978825Y-89830852D01*
X141103206Y-89794540D01*
X141164949Y-89772486D01*
X141267408Y-89727399D01*
X141352546Y-89676799D01*
X141422127Y-89619354D01*
X141477918Y-89553730D01*
X141521685Y-89478594D01*
X141547258Y-89421658D01*
X141601899Y-89267820D01*
X141638147Y-89109846D01*
X141639133Y-89103843D01*
X141651102Y-88978492D01*
X141645492Y-88858368D01*
X141622002Y-88743010D01*
X141580330Y-88631957D01*
X141520174Y-88524749D01*
X141441234Y-88420925D01*
X141343207Y-88320026D01*
X141225794Y-88221590D01*
X141088692Y-88125158D01*
X140931600Y-88030269D01*
X140916874Y-88022075D01*
X140871504Y-87997518D01*
X140812725Y-87966365D01*
X140743859Y-87930350D01*
X140668228Y-87891203D01*
X140589155Y-87850657D01*
X140509960Y-87810444D01*
X140386962Y-87747504D01*
X140266258Y-87683566D01*
X140161579Y-87625342D01*
X140071428Y-87571861D01*
X139994309Y-87522155D01*
X139928724Y-87475254D01*
X139873175Y-87430188D01*
X139826166Y-87385987D01*
X139786200Y-87341682D01*
X139743453Y-87284429D01*
X139697144Y-87201129D01*
X139665394Y-87110857D01*
X139647130Y-87010319D01*
X139641280Y-86896216D01*
X139646600Y-86788919D01*
X139669393Y-86650532D01*
X139709268Y-86517872D01*
X139765285Y-86393342D01*
X139836503Y-86279347D01*
X139921983Y-86178292D01*
X139926895Y-86173395D01*
X139957409Y-86145638D01*
X139993372Y-86116114D01*
X140030641Y-86087861D01*
X140065079Y-86063919D01*
X140092544Y-86047326D01*
X140108895Y-86041120D01*
X140113914Y-86045470D01*
X140128226Y-86063814D01*
X140148768Y-86093197D01*
X140172944Y-86130020D01*
X140197551Y-86167240D01*
X140293077Y-86291090D01*
X140402907Y-86403797D01*
X140528219Y-86506357D01*
X140670191Y-86599764D01*
X140830000Y-86685014D01*
X140956006Y-86741190D01*
X141160628Y-86815059D01*
X141376469Y-86873048D01*
X141602160Y-86914749D01*
X141624350Y-86917903D01*
X141848120Y-86942206D01*
X142070224Y-86952995D01*
X142289198Y-86950609D01*
X142503573Y-86935382D01*
X142711883Y-86907654D01*
X142912662Y-86867760D01*
X143104443Y-86816039D01*
X143285759Y-86752826D01*
X143455144Y-86678460D01*
X143611132Y-86593278D01*
X143752254Y-86497616D01*
X143877045Y-86391812D01*
X143934394Y-86334462D01*
X144005564Y-86254928D01*
X144065909Y-86177260D01*
X144112037Y-86105593D01*
X144129128Y-86075416D01*
X144142213Y-86052649D01*
X144148214Y-86042652D01*
X144148840Y-86042154D01*
X144161528Y-86044960D01*
X144185587Y-86057146D01*
X144216855Y-86076070D01*
X144251169Y-86099089D01*
X144284368Y-86123561D01*
X144312290Y-86146842D01*
X144331926Y-86165534D01*
X144406981Y-86253108D01*
X144471351Y-86354773D01*
X144524331Y-86467544D01*
X144565216Y-86588438D01*
X144593301Y-86714469D01*
X144607881Y-86842654D01*
X144608251Y-86970008D01*
X144593706Y-87093547D01*
X144563540Y-87210286D01*
X144554208Y-87235750D01*
X144516515Y-87312435D01*
X144464748Y-87384819D01*
X144396007Y-87457174D01*
X144379418Y-87472567D01*
X144340716Y-87506377D01*
X144299263Y-87539356D01*
X144253316Y-87572547D01*
X144201134Y-87606995D01*
X144140974Y-87643742D01*
X144071096Y-87683834D01*
X143989758Y-87728313D01*
X143895217Y-87778223D01*
X143785732Y-87834609D01*
X143659560Y-87898514D01*
X143569083Y-87944370D01*
X143452725Y-88004591D01*
X143351559Y-88058811D01*
X143263565Y-88108302D01*
X143186721Y-88154336D01*
X143119006Y-88198185D01*
X143058399Y-88241120D01*
X143002878Y-88284415D01*
X142950424Y-88329340D01*
X142899013Y-88377169D01*
X142812182Y-88469934D01*
X142740840Y-88567806D01*
X142686319Y-88670642D01*
X142646846Y-88781280D01*
X142642435Y-88797962D01*
X142625983Y-88900721D01*
X142624297Y-89013119D01*
X142636897Y-89132005D01*
X142663305Y-89254229D01*
X142703039Y-89376638D01*
X142755621Y-89496083D01*
X142764521Y-89512816D01*
X142816446Y-89586345D01*
X142885627Y-89652363D01*
X142972301Y-89710959D01*
X143076705Y-89762220D01*
X143199073Y-89806235D01*
X143339643Y-89843090D01*
X143498650Y-89872874D01*
X143676330Y-89895675D01*
X143872920Y-89911580D01*
X143909552Y-89913670D01*
X144139210Y-89920299D01*
X144356354Y-89914566D01*
X144564414Y-89896068D01*
X144766820Y-89864404D01*
X144967001Y-89819173D01*
X145168388Y-89759973D01*
X145382307Y-89682673D01*
X145624800Y-89576416D01*
X145864262Y-89451209D01*
X146101286Y-89306712D01*
X146336467Y-89142585D01*
X146570400Y-88958489D01*
X146584483Y-88946608D01*
X146638988Y-88898445D01*
X146703547Y-88838778D01*
X146775418Y-88770349D01*
X146851858Y-88695899D01*
X146930123Y-88618172D01*
X147007472Y-88539908D01*
X147081160Y-88463849D01*
X147148446Y-88392736D01*
X147206586Y-88329313D01*
X147252838Y-88276320D01*
X147287714Y-88234486D01*
X147503137Y-87959781D01*
X147703407Y-87675394D01*
X147886841Y-87383832D01*
X148051755Y-87087600D01*
X148056019Y-87079403D01*
X148113024Y-86967347D01*
X148161881Y-86865534D01*
X148205145Y-86767956D01*
X148245371Y-86668608D01*
X148285112Y-86561486D01*
X148326922Y-86440582D01*
X148364352Y-86326075D01*
X148420615Y-86137705D01*
X148468961Y-85951850D01*
X148509941Y-85765307D01*
X148544103Y-85574873D01*
X148571996Y-85377345D01*
X148594170Y-85169518D01*
X148611174Y-84948191D01*
X148623556Y-84710160D01*
X148623859Y-84702711D01*
X148627139Y-84593297D01*
X148628685Y-84471753D01*
X148628474Y-84337270D01*
X148626478Y-84189038D01*
X148622674Y-84026248D01*
X148617036Y-83848092D01*
X148609537Y-83653759D01*
X148600154Y-83442441D01*
X148588860Y-83213328D01*
X148575630Y-82965610D01*
X148560439Y-82698480D01*
X148556366Y-82626742D01*
X148547759Y-82460101D01*
X148540296Y-82293682D01*
X148534015Y-82129489D01*
X148528954Y-81969526D01*
X148525150Y-81815797D01*
X148522642Y-81670307D01*
X148521468Y-81535060D01*
X148521666Y-81412058D01*
X148523273Y-81303308D01*
X148526327Y-81210812D01*
X148530867Y-81136575D01*
X148532644Y-81115620D01*
X148550449Y-80954633D01*
X148575460Y-80802764D01*
X148608917Y-80655138D01*
X148652065Y-80506879D01*
X148706146Y-80353111D01*
X148772402Y-80188960D01*
X148773773Y-80185756D01*
X148789508Y-80150286D01*
X148812647Y-80099622D01*
X148841901Y-80036517D01*
X148875983Y-79963726D01*
X148913602Y-79884004D01*
X148953470Y-79800104D01*
X148994298Y-79714780D01*
X149032523Y-79634980D01*
X149089759Y-79514450D01*
X149139505Y-79408080D01*
X149182853Y-79313406D01*
X149220893Y-79227959D01*
X149254718Y-79149273D01*
X149285418Y-79074883D01*
X149314084Y-79002320D01*
X149341807Y-78929120D01*
X149366525Y-78861164D01*
X149410617Y-78730108D01*
X149444281Y-78613985D01*
X149467877Y-78511319D01*
X149481770Y-78420637D01*
X149486320Y-78340462D01*
X149483871Y-78285703D01*
X149471319Y-78223014D01*
X149446506Y-78174798D01*
X149407642Y-78138926D01*
X149352939Y-78113270D01*
X149280607Y-78095701D01*
X149260009Y-78092590D01*
X149223706Y-78089765D01*
X149185020Y-78090696D01*
X149141578Y-78095882D01*
X149091009Y-78105822D01*
X149030942Y-78121015D01*
X148959006Y-78141960D01*
X148872829Y-78169154D01*
X148770040Y-78203098D01*
X148767075Y-78204091D01*
X148601982Y-78257921D01*
X148451340Y-78303903D01*
X148311406Y-78343088D01*
X148178434Y-78376526D01*
X148048680Y-78405265D01*
X148023669Y-78410368D01*
X147750758Y-78457293D01*
X147484654Y-78486886D01*
X147225907Y-78499195D01*
X146975068Y-78494268D01*
X146732689Y-78472155D01*
X146499320Y-78432902D01*
X146275513Y-78376560D01*
X146061818Y-78303175D01*
X145858788Y-78212797D01*
X145846896Y-78206831D01*
X145814194Y-78190204D01*
X145782707Y-78173733D01*
X145750592Y-78156324D01*
X145716002Y-78136887D01*
X145677093Y-78114330D01*
X145632018Y-78087561D01*
X145578935Y-78055487D01*
X145515996Y-78017018D01*
X145441358Y-77971060D01*
X145353174Y-77916524D01*
X145249600Y-77852315D01*
X145194249Y-77818010D01*
X145076556Y-77745356D01*
X144972824Y-77681831D01*
X144880848Y-77626157D01*
X144798422Y-77577056D01*
X144723342Y-77533249D01*
X144653401Y-77493458D01*
X144586393Y-77456406D01*
X144520115Y-77420814D01*
X144452359Y-77385404D01*
X144380920Y-77348898D01*
X144276548Y-77297207D01*
X144013045Y-77177546D01*
X143752613Y-77075463D01*
X143492128Y-76989995D01*
X143228467Y-76920178D01*
X142958506Y-76865047D01*
X142679120Y-76823638D01*
X142629059Y-76817832D01*
X142577689Y-76812771D01*
X142525975Y-76808839D01*
X142470586Y-76805899D01*
X142408196Y-76803811D01*
X142335474Y-76802434D01*
X142249092Y-76801629D01*
X142145720Y-76801257D01*
X142100267Y-76801242D01*
X141984256Y-76801883D01*
X141881886Y-76803489D01*
X141794823Y-76806017D01*
X141724732Y-76809421D01*
X141673280Y-76813660D01*
X141558661Y-76827492D01*
X141282713Y-76870175D01*
X141018427Y-76925371D01*
X140761905Y-76994199D01*
X140509251Y-77077775D01*
X140256567Y-77177217D01*
X139999957Y-77293644D01*
X139948374Y-77318723D01*
X139857462Y-77364078D01*
X139767828Y-77410464D01*
X139677208Y-77459172D01*
X139583337Y-77511497D01*
X139483951Y-77568731D01*
X139376785Y-77632167D01*
X139259574Y-77703099D01*
X139130054Y-77782820D01*
X138985960Y-77872621D01*
X138912453Y-77918556D01*
X138809869Y-77982210D01*
X138721091Y-78036614D01*
X138644165Y-78082908D01*
X138577134Y-78122235D01*
X138518044Y-78155734D01*
X138464939Y-78184546D01*
X138415863Y-78209813D01*
X138368862Y-78232675D01*
X138171962Y-78316042D01*
X137951485Y-78388239D01*
X137721775Y-78442511D01*
X137483022Y-78478854D01*
X137235415Y-78497260D01*
X136979143Y-78497722D01*
X136714395Y-78480235D01*
X136441360Y-78444791D01*
X136160227Y-78391384D01*
X135871185Y-78320007D01*
X135842858Y-78311999D01*
X135781800Y-78293821D01*
X135709210Y-78271361D01*
X135629923Y-78246145D01*
X135548775Y-78219700D01*
X135470600Y-78193552D01*
X135385152Y-78165020D01*
X135298282Y-78137556D01*
X135225585Y-78116822D01*
X135164529Y-78102310D01*
X135112586Y-78093514D01*
X135067225Y-78089925D01*
X135025916Y-78091036D01*
X134986130Y-78096339D01*
X134934312Y-78108720D01*
X134870685Y-78135959D01*
X134824410Y-78173459D01*
X134795637Y-78221121D01*
X134794750Y-78223649D01*
X134788731Y-78255543D01*
X134785645Y-78301583D01*
X134785402Y-78356440D01*
X133968145Y-78356440D01*
X133967849Y-78355080D01*
X133942932Y-78212670D01*
X133925187Y-78048877D01*
X133921681Y-77898146D01*
X133932358Y-77760734D01*
X133957164Y-77636899D01*
X133996044Y-77526899D01*
X134048942Y-77430991D01*
X134115805Y-77349433D01*
X134196576Y-77282483D01*
X134284009Y-77232360D01*
X134392017Y-77191276D01*
X134511353Y-77165821D01*
X134642295Y-77155991D01*
X134785123Y-77161786D01*
X134940117Y-77183201D01*
X135107557Y-77220236D01*
X135287720Y-77272887D01*
X135408940Y-77311664D01*
X135601367Y-77370826D01*
X135779444Y-77422232D01*
X135945683Y-77466508D01*
X136102596Y-77504276D01*
X136252692Y-77536162D01*
X136398483Y-77562788D01*
X136542480Y-77584780D01*
X136586359Y-77589936D01*
X136667239Y-77596340D01*
X136759150Y-77600720D01*
X136857628Y-77603078D01*
X136958207Y-77603415D01*
X137056425Y-77601733D01*
X137147815Y-77598032D01*
X137227915Y-77592314D01*
X137292259Y-77584580D01*
X137334904Y-77577358D01*
X137437958Y-77556905D01*
X137543393Y-77532329D01*
X137643657Y-77505463D01*
X137731200Y-77478138D01*
X137750156Y-77471587D01*
X137825820Y-77444098D01*
X137899296Y-77414923D01*
X137972965Y-77382856D01*
X138049208Y-77346691D01*
X138130407Y-77305221D01*
X138218943Y-77257240D01*
X138317199Y-77201542D01*
X138427555Y-77136920D01*
X138552393Y-77062168D01*
X138583043Y-77043668D01*
X138695993Y-76975568D01*
X138794148Y-76916549D01*
X138879550Y-76865408D01*
X138954244Y-76820943D01*
X139020271Y-76781951D01*
X139079676Y-76747231D01*
X139134502Y-76715580D01*
X139186791Y-76685797D01*
X139238588Y-76656678D01*
X139291934Y-76627021D01*
X139470887Y-76531313D01*
X139770397Y-76386221D01*
X140069407Y-76260546D01*
X140369256Y-76153830D01*
X140671279Y-76065614D01*
X140976815Y-75995440D01*
X141287200Y-75942849D01*
X141405851Y-75927368D01*
X141748527Y-75895717D01*
X142090039Y-75883435D01*
X142429468Y-75890409D01*
X142765892Y-75916522D01*
X143098393Y-75961658D01*
X143426050Y-76025703D01*
X143747944Y-76108540D01*
X144063154Y-76210055D01*
X144370760Y-76330131D01*
X144399579Y-76342482D01*
X144489488Y-76382037D01*
X144578158Y-76422772D01*
X144667419Y-76465672D01*
X144759099Y-76511724D01*
X144855028Y-76561916D01*
X144957036Y-76617235D01*
X145066951Y-76678667D01*
X145186603Y-76747199D01*
X145317822Y-76823818D01*
X145462436Y-76909510D01*
X145622276Y-77005263D01*
X145637714Y-77014544D01*
X145785843Y-77102764D01*
X145919269Y-77180425D01*
X146039865Y-77248374D01*
X146149504Y-77307457D01*
X146250062Y-77358517D01*
X146343411Y-77402402D01*
X146431426Y-77439956D01*
X146515981Y-77472025D01*
X146598949Y-77499454D01*
X146682205Y-77523089D01*
X146767621Y-77543775D01*
X146857073Y-77562357D01*
X146897867Y-77569937D01*
X147033700Y-77590557D01*
X147170446Y-77603862D01*
X147309652Y-77609648D01*
X147452865Y-77607710D01*
X147601633Y-77597847D01*
X147757503Y-77579853D01*
X147922022Y-77553526D01*
X148096738Y-77518662D01*
X148283198Y-77475057D01*
X148482949Y-77422507D01*
X148697539Y-77360809D01*
X148928514Y-77289760D01*
X149029319Y-77258483D01*
X149124051Y-77230733D01*
X149206753Y-77208715D01*
X149281032Y-77191604D01*
X149350498Y-77178573D01*
X149418760Y-77168798D01*
X149489427Y-77161453D01*
X149593826Y-77156475D01*
X149722867Y-77162877D01*
X149842368Y-77183462D01*
X149950936Y-77217765D01*
X150047178Y-77265320D01*
X150129701Y-77325659D01*
X150197112Y-77398317D01*
X150223127Y-77436343D01*
X150265049Y-77513397D01*
X150300480Y-77598668D01*
X150325984Y-77684520D01*
X150333760Y-77726737D01*
X150341568Y-77801482D01*
X150345319Y-77887918D01*
X150345059Y-77981190D01*
X150340833Y-78076444D01*
X150332687Y-78168825D01*
X150320665Y-78253480D01*
X150320188Y-78256183D01*
X150303965Y-78340462D01*
X150297466Y-78374228D01*
G37*
D12*
X141258750Y-103645336D02*
X141258750Y-103429664D01*
X141978750Y-103645336D02*
X141978750Y-103429664D01*
X135532836Y-96398000D02*
X135317164Y-96398000D01*
X135532836Y-95678000D02*
X135317164Y-95678000D01*
X129750000Y-93150000D02*
X131750000Y-93150000D01*
X131750000Y-93150000D02*
X131750000Y-90350000D01*
X129750000Y-90350000D02*
X129750000Y-93150000D01*
X131750000Y-90350000D02*
X129750000Y-90350000D01*
D13*
X135400000Y-108000000D02*
X134600000Y-108000000D01*
X135400000Y-104000000D02*
X134600000Y-104000000D01*
D12*
X127150000Y-93150000D02*
X129150000Y-93150000D01*
X129150000Y-93150000D02*
X129150000Y-90350000D01*
X127150000Y-90350000D02*
X127150000Y-93150000D01*
X129150000Y-90350000D02*
X127150000Y-90350000D01*
X133340000Y-99607836D02*
X133340000Y-99392164D01*
X134060000Y-99607836D02*
X134060000Y-99392164D01*
X143978750Y-103442164D02*
X143978750Y-103657836D01*
X143258750Y-103442164D02*
X143258750Y-103657836D01*
X136350000Y-102700000D02*
X132450000Y-102700000D01*
X136350000Y-100700000D02*
X136350000Y-102700000D01*
X136350000Y-100700000D02*
X132450000Y-100700000D01*
X139253641Y-103880000D02*
X138946359Y-103880000D01*
X139253641Y-103120000D02*
X138946359Y-103120000D01*
D13*
X112282500Y-76270000D02*
X112282500Y-76805000D01*
X112282500Y-79795000D02*
X112282500Y-80585000D01*
X112282500Y-80585000D02*
X113520000Y-80585000D01*
X120315000Y-80585000D02*
X121552500Y-80585000D01*
X121552500Y-76270000D02*
X112282500Y-76270000D01*
X121552500Y-76805000D02*
X121552500Y-76270000D01*
X121552500Y-80585000D02*
X121552500Y-79795000D01*
X119240000Y-83090000D02*
G75*
G03*
X119240000Y-83090000I-100000J0D01*
G01*
%LPC*%
D16*
X135900000Y-100010000D03*
X135900000Y-98990000D03*
D17*
X125450000Y-92400000D03*
X125450000Y-91100000D03*
D18*
X120577500Y-112070000D03*
X119942500Y-112070000D03*
X121847500Y-112070000D03*
X121212500Y-112070000D03*
X123117500Y-112070000D03*
X122482500Y-112070000D03*
X124387500Y-112070000D03*
X123752500Y-112070000D03*
X125657500Y-112070000D03*
X125022500Y-112070000D03*
D19*
X127510000Y-115500000D03*
X118090000Y-115500000D03*
D20*
X140745000Y-95838000D03*
X141705000Y-95838000D03*
D21*
X142618750Y-104017500D03*
X142618750Y-103057500D03*
D22*
X143818750Y-105150000D03*
X143818750Y-105650000D03*
X143818750Y-106150000D03*
X143818750Y-106650000D03*
X141718750Y-106650000D03*
X141718750Y-106150000D03*
X141718750Y-105650000D03*
X141718750Y-105150000D03*
D23*
X142768750Y-105900000D03*
D21*
X134800000Y-99980000D03*
X134800000Y-99020000D03*
D24*
X139375000Y-101838000D03*
X138725000Y-101838000D03*
X138075000Y-101838000D03*
X137425000Y-101838000D03*
X137425000Y-95962000D03*
X138075000Y-95962000D03*
X138725000Y-95962000D03*
X139375000Y-95962000D03*
D25*
X141725000Y-94738000D03*
X140705000Y-94738000D03*
D18*
X131977500Y-112070000D03*
X131342500Y-112070000D03*
X133247500Y-112070000D03*
X132612500Y-112070000D03*
X134517500Y-112070000D03*
X133882500Y-112070000D03*
X135787500Y-112070000D03*
X135152500Y-112070000D03*
X137057500Y-112070000D03*
X136422500Y-112070000D03*
D19*
X138910000Y-115500000D03*
X129490000Y-115500000D03*
D25*
X135955000Y-95000000D03*
X134935000Y-95000000D03*
D26*
X131300000Y-107620000D03*
X131300000Y-108580000D03*
D17*
X133550000Y-92400000D03*
X133550000Y-91100000D03*
D21*
X141618750Y-104017500D03*
X141618750Y-103057500D03*
D27*
X135905000Y-96038000D03*
X134945000Y-96038000D03*
D17*
X130750000Y-92400000D03*
X130750000Y-91100000D03*
D28*
X136400000Y-106000000D03*
X133600000Y-106000000D03*
D17*
X128150000Y-92400000D03*
X128150000Y-91100000D03*
D21*
X133700000Y-99980000D03*
X133700000Y-99020000D03*
D26*
X143618750Y-103070000D03*
X143618750Y-104030000D03*
D29*
X135750000Y-101700000D03*
X132450000Y-101700000D03*
D25*
X139610000Y-103500000D03*
X138590000Y-103500000D03*
D18*
X119140000Y-81730000D03*
X119775000Y-81730000D03*
X117870000Y-81730000D03*
X118505000Y-81730000D03*
X116600000Y-81730000D03*
X117235000Y-81730000D03*
X115330000Y-81730000D03*
X115965000Y-81730000D03*
X114060000Y-81730000D03*
X114695000Y-81730000D03*
D19*
X112207500Y-78300000D03*
X121627500Y-78300000D03*
%LPD*%
M02*
