G04 #@! TF.GenerationSoftware,KiCad,Pcbnew,7.0.2*
G04 #@! TF.CreationDate,2023-06-06T15:19:24-04:00*
G04 #@! TF.ProjectId,ExternalFaces,45787465-726e-4616-9c46-616365732e6b,rev?*
G04 #@! TF.SameCoordinates,Original*
G04 #@! TF.FileFunction,Legend,Top*
G04 #@! TF.FilePolarity,Positive*
%FSLAX46Y46*%
G04 Gerber Fmt 4.6, Leading zero omitted, Abs format (unit mm)*
G04 Created by KiCad (PCBNEW 7.0.2) date 2023-06-06 15:19:24*
%MOMM*%
%LPD*%
G01*
G04 APERTURE LIST*
G04 Aperture macros list*
%AMRoundRect*
0 Rectangle with rounded corners*
0 $1 Rounding radius*
0 $2 $3 $4 $5 $6 $7 $8 $9 X,Y pos of 4 corners*
0 Add a 4 corners polygon primitive as box body*
4,1,4,$2,$3,$4,$5,$6,$7,$8,$9,$2,$3,0*
0 Add four circle primitives for the rounded corners*
1,1,$1+$1,$2,$3*
1,1,$1+$1,$4,$5*
1,1,$1+$1,$6,$7*
1,1,$1+$1,$8,$9*
0 Add four rect primitives between the rounded corners*
20,1,$1+$1,$2,$3,$4,$5,0*
20,1,$1+$1,$4,$5,$6,$7,0*
20,1,$1+$1,$6,$7,$8,$9,0*
20,1,$1+$1,$8,$9,$2,$3,0*%
G04 Aperture macros list end*
%ADD10C,0.150000*%
%ADD11C,0.254000*%
%ADD12C,0.120000*%
%ADD13C,0.200000*%
%ADD14C,0.250000*%
%ADD15RoundRect,0.140000X0.140000X0.170000X-0.140000X0.170000X-0.140000X-0.170000X0.140000X-0.170000X0*%
%ADD16R,0.620000X0.300000*%
%ADD17R,0.600000X0.350000*%
%ADD18R,1.100000X1.700000*%
%ADD19C,3.500000*%
%ADD20R,1.000000X1.000000*%
%ADD21C,2.000000*%
G04 APERTURE END LIST*
D10*
X107157143Y-96262619D02*
X107395238Y-97262619D01*
X107395238Y-97262619D02*
X107585714Y-96548333D01*
X107585714Y-96548333D02*
X107776190Y-97262619D01*
X107776190Y-97262619D02*
X108014286Y-96262619D01*
X108395238Y-97262619D02*
X108395238Y-96262619D01*
X108728571Y-96262619D02*
X109299999Y-96262619D01*
X109014285Y-97262619D02*
X109014285Y-96262619D01*
X110395238Y-97262619D02*
X110395238Y-96262619D01*
X110395238Y-96262619D02*
X110776190Y-96262619D01*
X110776190Y-96262619D02*
X110871428Y-96310238D01*
X110871428Y-96310238D02*
X110919047Y-96357857D01*
X110919047Y-96357857D02*
X110966666Y-96453095D01*
X110966666Y-96453095D02*
X110966666Y-96595952D01*
X110966666Y-96595952D02*
X110919047Y-96691190D01*
X110919047Y-96691190D02*
X110871428Y-96738809D01*
X110871428Y-96738809D02*
X110776190Y-96786428D01*
X110776190Y-96786428D02*
X110395238Y-96786428D01*
X111395238Y-97262619D02*
X111395238Y-96595952D01*
X111395238Y-96262619D02*
X111347619Y-96310238D01*
X111347619Y-96310238D02*
X111395238Y-96357857D01*
X111395238Y-96357857D02*
X111442857Y-96310238D01*
X111442857Y-96310238D02*
X111395238Y-96262619D01*
X111395238Y-96262619D02*
X111395238Y-96357857D01*
X112299999Y-97215000D02*
X112204761Y-97262619D01*
X112204761Y-97262619D02*
X112014285Y-97262619D01*
X112014285Y-97262619D02*
X111919047Y-97215000D01*
X111919047Y-97215000D02*
X111871428Y-97167380D01*
X111871428Y-97167380D02*
X111823809Y-97072142D01*
X111823809Y-97072142D02*
X111823809Y-96786428D01*
X111823809Y-96786428D02*
X111871428Y-96691190D01*
X111871428Y-96691190D02*
X111919047Y-96643571D01*
X111919047Y-96643571D02*
X112014285Y-96595952D01*
X112014285Y-96595952D02*
X112204761Y-96595952D01*
X112204761Y-96595952D02*
X112299999Y-96643571D01*
X112871428Y-97262619D02*
X112776190Y-97215000D01*
X112776190Y-97215000D02*
X112728571Y-97167380D01*
X112728571Y-97167380D02*
X112680952Y-97072142D01*
X112680952Y-97072142D02*
X112680952Y-96786428D01*
X112680952Y-96786428D02*
X112728571Y-96691190D01*
X112728571Y-96691190D02*
X112776190Y-96643571D01*
X112776190Y-96643571D02*
X112871428Y-96595952D01*
X112871428Y-96595952D02*
X113014285Y-96595952D01*
X113014285Y-96595952D02*
X113109523Y-96643571D01*
X113109523Y-96643571D02*
X113157142Y-96691190D01*
X113157142Y-96691190D02*
X113204761Y-96786428D01*
X113204761Y-96786428D02*
X113204761Y-97072142D01*
X113204761Y-97072142D02*
X113157142Y-97167380D01*
X113157142Y-97167380D02*
X113109523Y-97215000D01*
X113109523Y-97215000D02*
X113014285Y-97262619D01*
X113014285Y-97262619D02*
X112871428Y-97262619D01*
X113585714Y-97215000D02*
X113728571Y-97262619D01*
X113728571Y-97262619D02*
X113966666Y-97262619D01*
X113966666Y-97262619D02*
X114061904Y-97215000D01*
X114061904Y-97215000D02*
X114109523Y-97167380D01*
X114109523Y-97167380D02*
X114157142Y-97072142D01*
X114157142Y-97072142D02*
X114157142Y-96976904D01*
X114157142Y-96976904D02*
X114109523Y-96881666D01*
X114109523Y-96881666D02*
X114061904Y-96834047D01*
X114061904Y-96834047D02*
X113966666Y-96786428D01*
X113966666Y-96786428D02*
X113776190Y-96738809D01*
X113776190Y-96738809D02*
X113680952Y-96691190D01*
X113680952Y-96691190D02*
X113633333Y-96643571D01*
X113633333Y-96643571D02*
X113585714Y-96548333D01*
X113585714Y-96548333D02*
X113585714Y-96453095D01*
X113585714Y-96453095D02*
X113633333Y-96357857D01*
X113633333Y-96357857D02*
X113680952Y-96310238D01*
X113680952Y-96310238D02*
X113776190Y-96262619D01*
X113776190Y-96262619D02*
X114014285Y-96262619D01*
X114014285Y-96262619D02*
X114157142Y-96310238D01*
X115014285Y-97262619D02*
X115014285Y-96738809D01*
X115014285Y-96738809D02*
X114966666Y-96643571D01*
X114966666Y-96643571D02*
X114871428Y-96595952D01*
X114871428Y-96595952D02*
X114680952Y-96595952D01*
X114680952Y-96595952D02*
X114585714Y-96643571D01*
X115014285Y-97215000D02*
X114919047Y-97262619D01*
X114919047Y-97262619D02*
X114680952Y-97262619D01*
X114680952Y-97262619D02*
X114585714Y-97215000D01*
X114585714Y-97215000D02*
X114538095Y-97119761D01*
X114538095Y-97119761D02*
X114538095Y-97024523D01*
X114538095Y-97024523D02*
X114585714Y-96929285D01*
X114585714Y-96929285D02*
X114680952Y-96881666D01*
X114680952Y-96881666D02*
X114919047Y-96881666D01*
X114919047Y-96881666D02*
X115014285Y-96834047D01*
X115347619Y-96595952D02*
X115728571Y-96595952D01*
X115490476Y-96262619D02*
X115490476Y-97119761D01*
X115490476Y-97119761D02*
X115538095Y-97215000D01*
X115538095Y-97215000D02*
X115633333Y-97262619D01*
X115633333Y-97262619D02*
X115728571Y-97262619D01*
X116823810Y-97262619D02*
X116823810Y-96262619D01*
X117300000Y-96595952D02*
X117300000Y-97262619D01*
X117300000Y-96691190D02*
X117347619Y-96643571D01*
X117347619Y-96643571D02*
X117442857Y-96595952D01*
X117442857Y-96595952D02*
X117585714Y-96595952D01*
X117585714Y-96595952D02*
X117680952Y-96643571D01*
X117680952Y-96643571D02*
X117728571Y-96738809D01*
X117728571Y-96738809D02*
X117728571Y-97262619D01*
X118061905Y-96595952D02*
X118442857Y-96595952D01*
X118204762Y-96262619D02*
X118204762Y-97119761D01*
X118204762Y-97119761D02*
X118252381Y-97215000D01*
X118252381Y-97215000D02*
X118347619Y-97262619D01*
X118347619Y-97262619D02*
X118442857Y-97262619D01*
X118776191Y-97262619D02*
X118776191Y-96595952D01*
X118776191Y-96262619D02*
X118728572Y-96310238D01*
X118728572Y-96310238D02*
X118776191Y-96357857D01*
X118776191Y-96357857D02*
X118823810Y-96310238D01*
X118823810Y-96310238D02*
X118776191Y-96262619D01*
X118776191Y-96262619D02*
X118776191Y-96357857D01*
X119680952Y-97262619D02*
X119680952Y-96738809D01*
X119680952Y-96738809D02*
X119633333Y-96643571D01*
X119633333Y-96643571D02*
X119538095Y-96595952D01*
X119538095Y-96595952D02*
X119347619Y-96595952D01*
X119347619Y-96595952D02*
X119252381Y-96643571D01*
X119680952Y-97215000D02*
X119585714Y-97262619D01*
X119585714Y-97262619D02*
X119347619Y-97262619D01*
X119347619Y-97262619D02*
X119252381Y-97215000D01*
X119252381Y-97215000D02*
X119204762Y-97119761D01*
X119204762Y-97119761D02*
X119204762Y-97024523D01*
X119204762Y-97024523D02*
X119252381Y-96929285D01*
X119252381Y-96929285D02*
X119347619Y-96881666D01*
X119347619Y-96881666D02*
X119585714Y-96881666D01*
X119585714Y-96881666D02*
X119680952Y-96834047D01*
X120014286Y-96595952D02*
X120395238Y-96595952D01*
X120157143Y-96262619D02*
X120157143Y-97119761D01*
X120157143Y-97119761D02*
X120204762Y-97215000D01*
X120204762Y-97215000D02*
X120300000Y-97262619D01*
X120300000Y-97262619D02*
X120395238Y-97262619D01*
X120728572Y-97262619D02*
X120728572Y-96595952D01*
X120728572Y-96262619D02*
X120680953Y-96310238D01*
X120680953Y-96310238D02*
X120728572Y-96357857D01*
X120728572Y-96357857D02*
X120776191Y-96310238D01*
X120776191Y-96310238D02*
X120728572Y-96262619D01*
X120728572Y-96262619D02*
X120728572Y-96357857D01*
X121109524Y-96595952D02*
X121347619Y-97262619D01*
X121347619Y-97262619D02*
X121585714Y-96595952D01*
X122347619Y-97215000D02*
X122252381Y-97262619D01*
X122252381Y-97262619D02*
X122061905Y-97262619D01*
X122061905Y-97262619D02*
X121966667Y-97215000D01*
X121966667Y-97215000D02*
X121919048Y-97119761D01*
X121919048Y-97119761D02*
X121919048Y-96738809D01*
X121919048Y-96738809D02*
X121966667Y-96643571D01*
X121966667Y-96643571D02*
X122061905Y-96595952D01*
X122061905Y-96595952D02*
X122252381Y-96595952D01*
X122252381Y-96595952D02*
X122347619Y-96643571D01*
X122347619Y-96643571D02*
X122395238Y-96738809D01*
X122395238Y-96738809D02*
X122395238Y-96834047D01*
X122395238Y-96834047D02*
X121919048Y-96929285D01*
X107285713Y-118838809D02*
X107619046Y-118838809D01*
X107761903Y-119362619D02*
X107285713Y-119362619D01*
X107285713Y-119362619D02*
X107285713Y-118362619D01*
X107285713Y-118362619D02*
X107761903Y-118362619D01*
X108095237Y-119362619D02*
X108619046Y-118695952D01*
X108095237Y-118695952D02*
X108619046Y-119362619D01*
X108857142Y-118695952D02*
X109238094Y-118695952D01*
X108999999Y-118362619D02*
X108999999Y-119219761D01*
X108999999Y-119219761D02*
X109047618Y-119315000D01*
X109047618Y-119315000D02*
X109142856Y-119362619D01*
X109142856Y-119362619D02*
X109238094Y-119362619D01*
X109952380Y-119315000D02*
X109857142Y-119362619D01*
X109857142Y-119362619D02*
X109666666Y-119362619D01*
X109666666Y-119362619D02*
X109571428Y-119315000D01*
X109571428Y-119315000D02*
X109523809Y-119219761D01*
X109523809Y-119219761D02*
X109523809Y-118838809D01*
X109523809Y-118838809D02*
X109571428Y-118743571D01*
X109571428Y-118743571D02*
X109666666Y-118695952D01*
X109666666Y-118695952D02*
X109857142Y-118695952D01*
X109857142Y-118695952D02*
X109952380Y-118743571D01*
X109952380Y-118743571D02*
X109999999Y-118838809D01*
X109999999Y-118838809D02*
X109999999Y-118934047D01*
X109999999Y-118934047D02*
X109523809Y-119029285D01*
X110428571Y-119362619D02*
X110428571Y-118695952D01*
X110428571Y-118886428D02*
X110476190Y-118791190D01*
X110476190Y-118791190D02*
X110523809Y-118743571D01*
X110523809Y-118743571D02*
X110619047Y-118695952D01*
X110619047Y-118695952D02*
X110714285Y-118695952D01*
X111047619Y-118695952D02*
X111047619Y-119362619D01*
X111047619Y-118791190D02*
X111095238Y-118743571D01*
X111095238Y-118743571D02*
X111190476Y-118695952D01*
X111190476Y-118695952D02*
X111333333Y-118695952D01*
X111333333Y-118695952D02*
X111428571Y-118743571D01*
X111428571Y-118743571D02*
X111476190Y-118838809D01*
X111476190Y-118838809D02*
X111476190Y-119362619D01*
X112380952Y-119362619D02*
X112380952Y-118838809D01*
X112380952Y-118838809D02*
X112333333Y-118743571D01*
X112333333Y-118743571D02*
X112238095Y-118695952D01*
X112238095Y-118695952D02*
X112047619Y-118695952D01*
X112047619Y-118695952D02*
X111952381Y-118743571D01*
X112380952Y-119315000D02*
X112285714Y-119362619D01*
X112285714Y-119362619D02*
X112047619Y-119362619D01*
X112047619Y-119362619D02*
X111952381Y-119315000D01*
X111952381Y-119315000D02*
X111904762Y-119219761D01*
X111904762Y-119219761D02*
X111904762Y-119124523D01*
X111904762Y-119124523D02*
X111952381Y-119029285D01*
X111952381Y-119029285D02*
X112047619Y-118981666D01*
X112047619Y-118981666D02*
X112285714Y-118981666D01*
X112285714Y-118981666D02*
X112380952Y-118934047D01*
X113000000Y-119362619D02*
X112904762Y-119315000D01*
X112904762Y-119315000D02*
X112857143Y-119219761D01*
X112857143Y-119219761D02*
X112857143Y-118362619D01*
X113714286Y-118838809D02*
X113380953Y-118838809D01*
X113380953Y-119362619D02*
X113380953Y-118362619D01*
X113380953Y-118362619D02*
X113857143Y-118362619D01*
X114666667Y-119362619D02*
X114666667Y-118838809D01*
X114666667Y-118838809D02*
X114619048Y-118743571D01*
X114619048Y-118743571D02*
X114523810Y-118695952D01*
X114523810Y-118695952D02*
X114333334Y-118695952D01*
X114333334Y-118695952D02*
X114238096Y-118743571D01*
X114666667Y-119315000D02*
X114571429Y-119362619D01*
X114571429Y-119362619D02*
X114333334Y-119362619D01*
X114333334Y-119362619D02*
X114238096Y-119315000D01*
X114238096Y-119315000D02*
X114190477Y-119219761D01*
X114190477Y-119219761D02*
X114190477Y-119124523D01*
X114190477Y-119124523D02*
X114238096Y-119029285D01*
X114238096Y-119029285D02*
X114333334Y-118981666D01*
X114333334Y-118981666D02*
X114571429Y-118981666D01*
X114571429Y-118981666D02*
X114666667Y-118934047D01*
X115571429Y-119315000D02*
X115476191Y-119362619D01*
X115476191Y-119362619D02*
X115285715Y-119362619D01*
X115285715Y-119362619D02*
X115190477Y-119315000D01*
X115190477Y-119315000D02*
X115142858Y-119267380D01*
X115142858Y-119267380D02*
X115095239Y-119172142D01*
X115095239Y-119172142D02*
X115095239Y-118886428D01*
X115095239Y-118886428D02*
X115142858Y-118791190D01*
X115142858Y-118791190D02*
X115190477Y-118743571D01*
X115190477Y-118743571D02*
X115285715Y-118695952D01*
X115285715Y-118695952D02*
X115476191Y-118695952D01*
X115476191Y-118695952D02*
X115571429Y-118743571D01*
X116380953Y-119315000D02*
X116285715Y-119362619D01*
X116285715Y-119362619D02*
X116095239Y-119362619D01*
X116095239Y-119362619D02*
X116000001Y-119315000D01*
X116000001Y-119315000D02*
X115952382Y-119219761D01*
X115952382Y-119219761D02*
X115952382Y-118838809D01*
X115952382Y-118838809D02*
X116000001Y-118743571D01*
X116000001Y-118743571D02*
X116095239Y-118695952D01*
X116095239Y-118695952D02*
X116285715Y-118695952D01*
X116285715Y-118695952D02*
X116380953Y-118743571D01*
X116380953Y-118743571D02*
X116428572Y-118838809D01*
X116428572Y-118838809D02*
X116428572Y-118934047D01*
X116428572Y-118934047D02*
X115952382Y-119029285D01*
X118190477Y-119362619D02*
X117857144Y-118886428D01*
X117619049Y-119362619D02*
X117619049Y-118362619D01*
X117619049Y-118362619D02*
X118000001Y-118362619D01*
X118000001Y-118362619D02*
X118095239Y-118410238D01*
X118095239Y-118410238D02*
X118142858Y-118457857D01*
X118142858Y-118457857D02*
X118190477Y-118553095D01*
X118190477Y-118553095D02*
X118190477Y-118695952D01*
X118190477Y-118695952D02*
X118142858Y-118791190D01*
X118142858Y-118791190D02*
X118095239Y-118838809D01*
X118095239Y-118838809D02*
X118000001Y-118886428D01*
X118000001Y-118886428D02*
X117619049Y-118886428D01*
X119000001Y-119315000D02*
X118904763Y-119362619D01*
X118904763Y-119362619D02*
X118714287Y-119362619D01*
X118714287Y-119362619D02*
X118619049Y-119315000D01*
X118619049Y-119315000D02*
X118571430Y-119219761D01*
X118571430Y-119219761D02*
X118571430Y-118838809D01*
X118571430Y-118838809D02*
X118619049Y-118743571D01*
X118619049Y-118743571D02*
X118714287Y-118695952D01*
X118714287Y-118695952D02*
X118904763Y-118695952D01*
X118904763Y-118695952D02*
X119000001Y-118743571D01*
X119000001Y-118743571D02*
X119047620Y-118838809D01*
X119047620Y-118838809D02*
X119047620Y-118934047D01*
X119047620Y-118934047D02*
X118571430Y-119029285D01*
X119380954Y-118695952D02*
X119619049Y-119362619D01*
X119619049Y-119362619D02*
X119857144Y-118695952D01*
X120761906Y-119362619D02*
X120190478Y-119362619D01*
X120476192Y-119362619D02*
X120476192Y-118362619D01*
X120476192Y-118362619D02*
X120380954Y-118505476D01*
X120380954Y-118505476D02*
X120285716Y-118600714D01*
X120285716Y-118600714D02*
X120190478Y-118648333D01*
X132047618Y-111957857D02*
X132095237Y-111910238D01*
X132095237Y-111910238D02*
X132190475Y-111862619D01*
X132190475Y-111862619D02*
X132428570Y-111862619D01*
X132428570Y-111862619D02*
X132523808Y-111910238D01*
X132523808Y-111910238D02*
X132571427Y-111957857D01*
X132571427Y-111957857D02*
X132619046Y-112053095D01*
X132619046Y-112053095D02*
X132619046Y-112148333D01*
X132619046Y-112148333D02*
X132571427Y-112291190D01*
X132571427Y-112291190D02*
X131999999Y-112862619D01*
X131999999Y-112862619D02*
X132619046Y-112862619D01*
X133047618Y-112481666D02*
X133809523Y-112481666D01*
X134428570Y-112862619D02*
X134333332Y-112815000D01*
X134333332Y-112815000D02*
X134285713Y-112719761D01*
X134285713Y-112719761D02*
X134285713Y-111862619D01*
X135238094Y-112862619D02*
X135238094Y-112338809D01*
X135238094Y-112338809D02*
X135190475Y-112243571D01*
X135190475Y-112243571D02*
X135095237Y-112195952D01*
X135095237Y-112195952D02*
X134904761Y-112195952D01*
X134904761Y-112195952D02*
X134809523Y-112243571D01*
X135238094Y-112815000D02*
X135142856Y-112862619D01*
X135142856Y-112862619D02*
X134904761Y-112862619D01*
X134904761Y-112862619D02*
X134809523Y-112815000D01*
X134809523Y-112815000D02*
X134761904Y-112719761D01*
X134761904Y-112719761D02*
X134761904Y-112624523D01*
X134761904Y-112624523D02*
X134809523Y-112529285D01*
X134809523Y-112529285D02*
X134904761Y-112481666D01*
X134904761Y-112481666D02*
X135142856Y-112481666D01*
X135142856Y-112481666D02*
X135238094Y-112434047D01*
X135619047Y-112195952D02*
X135857142Y-112862619D01*
X136095237Y-112195952D02*
X135857142Y-112862619D01*
X135857142Y-112862619D02*
X135761904Y-113100714D01*
X135761904Y-113100714D02*
X135714285Y-113148333D01*
X135714285Y-113148333D02*
X135619047Y-113195952D01*
X136857142Y-112815000D02*
X136761904Y-112862619D01*
X136761904Y-112862619D02*
X136571428Y-112862619D01*
X136571428Y-112862619D02*
X136476190Y-112815000D01*
X136476190Y-112815000D02*
X136428571Y-112719761D01*
X136428571Y-112719761D02*
X136428571Y-112338809D01*
X136428571Y-112338809D02*
X136476190Y-112243571D01*
X136476190Y-112243571D02*
X136571428Y-112195952D01*
X136571428Y-112195952D02*
X136761904Y-112195952D01*
X136761904Y-112195952D02*
X136857142Y-112243571D01*
X136857142Y-112243571D02*
X136904761Y-112338809D01*
X136904761Y-112338809D02*
X136904761Y-112434047D01*
X136904761Y-112434047D02*
X136428571Y-112529285D01*
X137333333Y-112862619D02*
X137333333Y-112195952D01*
X137333333Y-112386428D02*
X137380952Y-112291190D01*
X137380952Y-112291190D02*
X137428571Y-112243571D01*
X137428571Y-112243571D02*
X137523809Y-112195952D01*
X137523809Y-112195952D02*
X137619047Y-112195952D01*
X139238095Y-112862619D02*
X138666667Y-112862619D01*
X138952381Y-112862619D02*
X138952381Y-111862619D01*
X138952381Y-111862619D02*
X138857143Y-112005476D01*
X138857143Y-112005476D02*
X138761905Y-112100714D01*
X138761905Y-112100714D02*
X138666667Y-112148333D01*
X139857143Y-111862619D02*
X139952381Y-111862619D01*
X139952381Y-111862619D02*
X140047619Y-111910238D01*
X140047619Y-111910238D02*
X140095238Y-111957857D01*
X140095238Y-111957857D02*
X140142857Y-112053095D01*
X140142857Y-112053095D02*
X140190476Y-112243571D01*
X140190476Y-112243571D02*
X140190476Y-112481666D01*
X140190476Y-112481666D02*
X140142857Y-112672142D01*
X140142857Y-112672142D02*
X140095238Y-112767380D01*
X140095238Y-112767380D02*
X140047619Y-112815000D01*
X140047619Y-112815000D02*
X139952381Y-112862619D01*
X139952381Y-112862619D02*
X139857143Y-112862619D01*
X139857143Y-112862619D02*
X139761905Y-112815000D01*
X139761905Y-112815000D02*
X139714286Y-112767380D01*
X139714286Y-112767380D02*
X139666667Y-112672142D01*
X139666667Y-112672142D02*
X139619048Y-112481666D01*
X139619048Y-112481666D02*
X139619048Y-112243571D01*
X139619048Y-112243571D02*
X139666667Y-112053095D01*
X139666667Y-112053095D02*
X139714286Y-111957857D01*
X139714286Y-111957857D02*
X139761905Y-111910238D01*
X139761905Y-111910238D02*
X139857143Y-111862619D01*
X140809524Y-111862619D02*
X140904762Y-111862619D01*
X140904762Y-111862619D02*
X141000000Y-111910238D01*
X141000000Y-111910238D02*
X141047619Y-111957857D01*
X141047619Y-111957857D02*
X141095238Y-112053095D01*
X141095238Y-112053095D02*
X141142857Y-112243571D01*
X141142857Y-112243571D02*
X141142857Y-112481666D01*
X141142857Y-112481666D02*
X141095238Y-112672142D01*
X141095238Y-112672142D02*
X141047619Y-112767380D01*
X141047619Y-112767380D02*
X141000000Y-112815000D01*
X141000000Y-112815000D02*
X140904762Y-112862619D01*
X140904762Y-112862619D02*
X140809524Y-112862619D01*
X140809524Y-112862619D02*
X140714286Y-112815000D01*
X140714286Y-112815000D02*
X140666667Y-112767380D01*
X140666667Y-112767380D02*
X140619048Y-112672142D01*
X140619048Y-112672142D02*
X140571429Y-112481666D01*
X140571429Y-112481666D02*
X140571429Y-112243571D01*
X140571429Y-112243571D02*
X140619048Y-112053095D01*
X140619048Y-112053095D02*
X140666667Y-111957857D01*
X140666667Y-111957857D02*
X140714286Y-111910238D01*
X140714286Y-111910238D02*
X140809524Y-111862619D01*
X141714286Y-112862619D02*
X141619048Y-112815000D01*
X141619048Y-112815000D02*
X141571429Y-112767380D01*
X141571429Y-112767380D02*
X141523810Y-112672142D01*
X141523810Y-112672142D02*
X141523810Y-112386428D01*
X141523810Y-112386428D02*
X141571429Y-112291190D01*
X141571429Y-112291190D02*
X141619048Y-112243571D01*
X141619048Y-112243571D02*
X141714286Y-112195952D01*
X141714286Y-112195952D02*
X141857143Y-112195952D01*
X141857143Y-112195952D02*
X141952381Y-112243571D01*
X141952381Y-112243571D02*
X142000000Y-112291190D01*
X142000000Y-112291190D02*
X142047619Y-112386428D01*
X142047619Y-112386428D02*
X142047619Y-112672142D01*
X142047619Y-112672142D02*
X142000000Y-112767380D01*
X142000000Y-112767380D02*
X141952381Y-112815000D01*
X141952381Y-112815000D02*
X141857143Y-112862619D01*
X141857143Y-112862619D02*
X141714286Y-112862619D01*
X142476191Y-112862619D02*
X142476191Y-111862619D01*
X142904762Y-112862619D02*
X142904762Y-112338809D01*
X142904762Y-112338809D02*
X142857143Y-112243571D01*
X142857143Y-112243571D02*
X142761905Y-112195952D01*
X142761905Y-112195952D02*
X142619048Y-112195952D01*
X142619048Y-112195952D02*
X142523810Y-112243571D01*
X142523810Y-112243571D02*
X142476191Y-112291190D01*
X143380953Y-112862619D02*
X143380953Y-112195952D01*
X143380953Y-112291190D02*
X143428572Y-112243571D01*
X143428572Y-112243571D02*
X143523810Y-112195952D01*
X143523810Y-112195952D02*
X143666667Y-112195952D01*
X143666667Y-112195952D02*
X143761905Y-112243571D01*
X143761905Y-112243571D02*
X143809524Y-112338809D01*
X143809524Y-112338809D02*
X143809524Y-112862619D01*
X143809524Y-112338809D02*
X143857143Y-112243571D01*
X143857143Y-112243571D02*
X143952381Y-112195952D01*
X143952381Y-112195952D02*
X144095238Y-112195952D01*
X144095238Y-112195952D02*
X144190477Y-112243571D01*
X144190477Y-112243571D02*
X144238096Y-112338809D01*
X144238096Y-112338809D02*
X144238096Y-112862619D01*
X146047619Y-112767380D02*
X146000000Y-112815000D01*
X146000000Y-112815000D02*
X145857143Y-112862619D01*
X145857143Y-112862619D02*
X145761905Y-112862619D01*
X145761905Y-112862619D02*
X145619048Y-112815000D01*
X145619048Y-112815000D02*
X145523810Y-112719761D01*
X145523810Y-112719761D02*
X145476191Y-112624523D01*
X145476191Y-112624523D02*
X145428572Y-112434047D01*
X145428572Y-112434047D02*
X145428572Y-112291190D01*
X145428572Y-112291190D02*
X145476191Y-112100714D01*
X145476191Y-112100714D02*
X145523810Y-112005476D01*
X145523810Y-112005476D02*
X145619048Y-111910238D01*
X145619048Y-111910238D02*
X145761905Y-111862619D01*
X145761905Y-111862619D02*
X145857143Y-111862619D01*
X145857143Y-111862619D02*
X146000000Y-111910238D01*
X146000000Y-111910238D02*
X146047619Y-111957857D01*
X146619048Y-112862619D02*
X146523810Y-112815000D01*
X146523810Y-112815000D02*
X146476191Y-112767380D01*
X146476191Y-112767380D02*
X146428572Y-112672142D01*
X146428572Y-112672142D02*
X146428572Y-112386428D01*
X146428572Y-112386428D02*
X146476191Y-112291190D01*
X146476191Y-112291190D02*
X146523810Y-112243571D01*
X146523810Y-112243571D02*
X146619048Y-112195952D01*
X146619048Y-112195952D02*
X146761905Y-112195952D01*
X146761905Y-112195952D02*
X146857143Y-112243571D01*
X146857143Y-112243571D02*
X146904762Y-112291190D01*
X146904762Y-112291190D02*
X146952381Y-112386428D01*
X146952381Y-112386428D02*
X146952381Y-112672142D01*
X146952381Y-112672142D02*
X146904762Y-112767380D01*
X146904762Y-112767380D02*
X146857143Y-112815000D01*
X146857143Y-112815000D02*
X146761905Y-112862619D01*
X146761905Y-112862619D02*
X146619048Y-112862619D01*
X147380953Y-112862619D02*
X147380953Y-112195952D01*
X147380953Y-111862619D02*
X147333334Y-111910238D01*
X147333334Y-111910238D02*
X147380953Y-111957857D01*
X147380953Y-111957857D02*
X147428572Y-111910238D01*
X147428572Y-111910238D02*
X147380953Y-111862619D01*
X147380953Y-111862619D02*
X147380953Y-111957857D01*
X148000000Y-112862619D02*
X147904762Y-112815000D01*
X147904762Y-112815000D02*
X147857143Y-112719761D01*
X147857143Y-112719761D02*
X147857143Y-111862619D01*
X140513333Y-96467380D02*
X140465714Y-96515000D01*
X140465714Y-96515000D02*
X140322857Y-96562619D01*
X140322857Y-96562619D02*
X140227619Y-96562619D01*
X140227619Y-96562619D02*
X140084762Y-96515000D01*
X140084762Y-96515000D02*
X139989524Y-96419761D01*
X139989524Y-96419761D02*
X139941905Y-96324523D01*
X139941905Y-96324523D02*
X139894286Y-96134047D01*
X139894286Y-96134047D02*
X139894286Y-95991190D01*
X139894286Y-95991190D02*
X139941905Y-95800714D01*
X139941905Y-95800714D02*
X139989524Y-95705476D01*
X139989524Y-95705476D02*
X140084762Y-95610238D01*
X140084762Y-95610238D02*
X140227619Y-95562619D01*
X140227619Y-95562619D02*
X140322857Y-95562619D01*
X140322857Y-95562619D02*
X140465714Y-95610238D01*
X140465714Y-95610238D02*
X140513333Y-95657857D01*
X140989524Y-96562619D02*
X141180000Y-96562619D01*
X141180000Y-96562619D02*
X141275238Y-96515000D01*
X141275238Y-96515000D02*
X141322857Y-96467380D01*
X141322857Y-96467380D02*
X141418095Y-96324523D01*
X141418095Y-96324523D02*
X141465714Y-96134047D01*
X141465714Y-96134047D02*
X141465714Y-95753095D01*
X141465714Y-95753095D02*
X141418095Y-95657857D01*
X141418095Y-95657857D02*
X141370476Y-95610238D01*
X141370476Y-95610238D02*
X141275238Y-95562619D01*
X141275238Y-95562619D02*
X141084762Y-95562619D01*
X141084762Y-95562619D02*
X140989524Y-95610238D01*
X140989524Y-95610238D02*
X140941905Y-95657857D01*
X140941905Y-95657857D02*
X140894286Y-95753095D01*
X140894286Y-95753095D02*
X140894286Y-95991190D01*
X140894286Y-95991190D02*
X140941905Y-96086428D01*
X140941905Y-96086428D02*
X140989524Y-96134047D01*
X140989524Y-96134047D02*
X141084762Y-96181666D01*
X141084762Y-96181666D02*
X141275238Y-96181666D01*
X141275238Y-96181666D02*
X141370476Y-96134047D01*
X141370476Y-96134047D02*
X141418095Y-96086428D01*
X141418095Y-96086428D02*
X141465714Y-95991190D01*
D11*
X127177526Y-97889762D02*
X125907526Y-97889762D01*
X127056573Y-96559285D02*
X127117050Y-96619761D01*
X127117050Y-96619761D02*
X127177526Y-96801190D01*
X127177526Y-96801190D02*
X127177526Y-96922142D01*
X127177526Y-96922142D02*
X127117050Y-97103571D01*
X127117050Y-97103571D02*
X126996097Y-97224523D01*
X126996097Y-97224523D02*
X126875145Y-97285000D01*
X126875145Y-97285000D02*
X126633240Y-97345476D01*
X126633240Y-97345476D02*
X126451811Y-97345476D01*
X126451811Y-97345476D02*
X126209907Y-97285000D01*
X126209907Y-97285000D02*
X126088954Y-97224523D01*
X126088954Y-97224523D02*
X125968002Y-97103571D01*
X125968002Y-97103571D02*
X125907526Y-96922142D01*
X125907526Y-96922142D02*
X125907526Y-96801190D01*
X125907526Y-96801190D02*
X125968002Y-96619761D01*
X125968002Y-96619761D02*
X126028478Y-96559285D01*
X125907526Y-96135952D02*
X125907526Y-95349761D01*
X125907526Y-95349761D02*
X126391335Y-95773095D01*
X126391335Y-95773095D02*
X126391335Y-95591666D01*
X126391335Y-95591666D02*
X126451811Y-95470714D01*
X126451811Y-95470714D02*
X126512288Y-95410238D01*
X126512288Y-95410238D02*
X126633240Y-95349761D01*
X126633240Y-95349761D02*
X126935621Y-95349761D01*
X126935621Y-95349761D02*
X127056573Y-95410238D01*
X127056573Y-95410238D02*
X127117050Y-95470714D01*
X127117050Y-95470714D02*
X127177526Y-95591666D01*
X127177526Y-95591666D02*
X127177526Y-95954523D01*
X127177526Y-95954523D02*
X127117050Y-96075476D01*
X127117050Y-96075476D02*
X127056573Y-96135952D01*
X134310237Y-99987526D02*
X134310237Y-98717526D01*
X135640714Y-99866573D02*
X135580238Y-99927050D01*
X135580238Y-99927050D02*
X135398809Y-99987526D01*
X135398809Y-99987526D02*
X135277857Y-99987526D01*
X135277857Y-99987526D02*
X135096428Y-99927050D01*
X135096428Y-99927050D02*
X134975476Y-99806097D01*
X134975476Y-99806097D02*
X134914999Y-99685145D01*
X134914999Y-99685145D02*
X134854523Y-99443240D01*
X134854523Y-99443240D02*
X134854523Y-99261811D01*
X134854523Y-99261811D02*
X134914999Y-99019907D01*
X134914999Y-99019907D02*
X134975476Y-98898954D01*
X134975476Y-98898954D02*
X135096428Y-98778002D01*
X135096428Y-98778002D02*
X135277857Y-98717526D01*
X135277857Y-98717526D02*
X135398809Y-98717526D01*
X135398809Y-98717526D02*
X135580238Y-98778002D01*
X135580238Y-98778002D02*
X135640714Y-98838478D01*
X136124523Y-98838478D02*
X136184999Y-98778002D01*
X136184999Y-98778002D02*
X136305952Y-98717526D01*
X136305952Y-98717526D02*
X136608333Y-98717526D01*
X136608333Y-98717526D02*
X136729285Y-98778002D01*
X136729285Y-98778002D02*
X136789761Y-98838478D01*
X136789761Y-98838478D02*
X136850238Y-98959430D01*
X136850238Y-98959430D02*
X136850238Y-99080383D01*
X136850238Y-99080383D02*
X136789761Y-99261811D01*
X136789761Y-99261811D02*
X136064047Y-99987526D01*
X136064047Y-99987526D02*
X136850238Y-99987526D01*
D10*
X140433333Y-97667380D02*
X140385714Y-97715000D01*
X140385714Y-97715000D02*
X140242857Y-97762619D01*
X140242857Y-97762619D02*
X140147619Y-97762619D01*
X140147619Y-97762619D02*
X140004762Y-97715000D01*
X140004762Y-97715000D02*
X139909524Y-97619761D01*
X139909524Y-97619761D02*
X139861905Y-97524523D01*
X139861905Y-97524523D02*
X139814286Y-97334047D01*
X139814286Y-97334047D02*
X139814286Y-97191190D01*
X139814286Y-97191190D02*
X139861905Y-97000714D01*
X139861905Y-97000714D02*
X139909524Y-96905476D01*
X139909524Y-96905476D02*
X140004762Y-96810238D01*
X140004762Y-96810238D02*
X140147619Y-96762619D01*
X140147619Y-96762619D02*
X140242857Y-96762619D01*
X140242857Y-96762619D02*
X140385714Y-96810238D01*
X140385714Y-96810238D02*
X140433333Y-96857857D01*
X141290476Y-96762619D02*
X141100000Y-96762619D01*
X141100000Y-96762619D02*
X141004762Y-96810238D01*
X141004762Y-96810238D02*
X140957143Y-96857857D01*
X140957143Y-96857857D02*
X140861905Y-97000714D01*
X140861905Y-97000714D02*
X140814286Y-97191190D01*
X140814286Y-97191190D02*
X140814286Y-97572142D01*
X140814286Y-97572142D02*
X140861905Y-97667380D01*
X140861905Y-97667380D02*
X140909524Y-97715000D01*
X140909524Y-97715000D02*
X141004762Y-97762619D01*
X141004762Y-97762619D02*
X141195238Y-97762619D01*
X141195238Y-97762619D02*
X141290476Y-97715000D01*
X141290476Y-97715000D02*
X141338095Y-97667380D01*
X141338095Y-97667380D02*
X141385714Y-97572142D01*
X141385714Y-97572142D02*
X141385714Y-97334047D01*
X141385714Y-97334047D02*
X141338095Y-97238809D01*
X141338095Y-97238809D02*
X141290476Y-97191190D01*
X141290476Y-97191190D02*
X141195238Y-97143571D01*
X141195238Y-97143571D02*
X141004762Y-97143571D01*
X141004762Y-97143571D02*
X140909524Y-97191190D01*
X140909524Y-97191190D02*
X140861905Y-97238809D01*
X140861905Y-97238809D02*
X140814286Y-97334047D01*
X129915000Y-84961904D02*
X129962619Y-84819047D01*
X129962619Y-84819047D02*
X129962619Y-84580952D01*
X129962619Y-84580952D02*
X129915000Y-84485714D01*
X129915000Y-84485714D02*
X129867380Y-84438095D01*
X129867380Y-84438095D02*
X129772142Y-84390476D01*
X129772142Y-84390476D02*
X129676904Y-84390476D01*
X129676904Y-84390476D02*
X129581666Y-84438095D01*
X129581666Y-84438095D02*
X129534047Y-84485714D01*
X129534047Y-84485714D02*
X129486428Y-84580952D01*
X129486428Y-84580952D02*
X129438809Y-84771428D01*
X129438809Y-84771428D02*
X129391190Y-84866666D01*
X129391190Y-84866666D02*
X129343571Y-84914285D01*
X129343571Y-84914285D02*
X129248333Y-84961904D01*
X129248333Y-84961904D02*
X129153095Y-84961904D01*
X129153095Y-84961904D02*
X129057857Y-84914285D01*
X129057857Y-84914285D02*
X129010238Y-84866666D01*
X129010238Y-84866666D02*
X128962619Y-84771428D01*
X128962619Y-84771428D02*
X128962619Y-84533333D01*
X128962619Y-84533333D02*
X129010238Y-84390476D01*
X129057857Y-84009523D02*
X129010238Y-83961904D01*
X129010238Y-83961904D02*
X128962619Y-83866666D01*
X128962619Y-83866666D02*
X128962619Y-83628571D01*
X128962619Y-83628571D02*
X129010238Y-83533333D01*
X129010238Y-83533333D02*
X129057857Y-83485714D01*
X129057857Y-83485714D02*
X129153095Y-83438095D01*
X129153095Y-83438095D02*
X129248333Y-83438095D01*
X129248333Y-83438095D02*
X129391190Y-83485714D01*
X129391190Y-83485714D02*
X129962619Y-84057142D01*
X129962619Y-84057142D02*
X129962619Y-83438095D01*
X129915000Y-109961904D02*
X129962619Y-109819047D01*
X129962619Y-109819047D02*
X129962619Y-109580952D01*
X129962619Y-109580952D02*
X129915000Y-109485714D01*
X129915000Y-109485714D02*
X129867380Y-109438095D01*
X129867380Y-109438095D02*
X129772142Y-109390476D01*
X129772142Y-109390476D02*
X129676904Y-109390476D01*
X129676904Y-109390476D02*
X129581666Y-109438095D01*
X129581666Y-109438095D02*
X129534047Y-109485714D01*
X129534047Y-109485714D02*
X129486428Y-109580952D01*
X129486428Y-109580952D02*
X129438809Y-109771428D01*
X129438809Y-109771428D02*
X129391190Y-109866666D01*
X129391190Y-109866666D02*
X129343571Y-109914285D01*
X129343571Y-109914285D02*
X129248333Y-109961904D01*
X129248333Y-109961904D02*
X129153095Y-109961904D01*
X129153095Y-109961904D02*
X129057857Y-109914285D01*
X129057857Y-109914285D02*
X129010238Y-109866666D01*
X129010238Y-109866666D02*
X128962619Y-109771428D01*
X128962619Y-109771428D02*
X128962619Y-109533333D01*
X128962619Y-109533333D02*
X129010238Y-109390476D01*
X129962619Y-108438095D02*
X129962619Y-109009523D01*
X129962619Y-108723809D02*
X128962619Y-108723809D01*
X128962619Y-108723809D02*
X129105476Y-108819047D01*
X129105476Y-108819047D02*
X129200714Y-108914285D01*
X129200714Y-108914285D02*
X129248333Y-109009523D01*
D12*
X138787836Y-96560000D02*
X138572164Y-96560000D01*
X138787836Y-95840000D02*
X138572164Y-95840000D01*
D13*
X130710000Y-97800000D02*
X130090000Y-97800000D01*
X129740000Y-97700000D02*
X129240000Y-97700000D01*
X129740000Y-95600000D02*
X129740000Y-97700000D01*
X129240000Y-97700000D02*
X129240000Y-95600000D01*
X129240000Y-95600000D02*
X129740000Y-95600000D01*
D14*
X134325000Y-95400000D02*
G75*
G03*
X134325000Y-95400000I-125000J0D01*
G01*
D12*
X138807836Y-97660000D02*
X138592164Y-97660000D01*
X138807836Y-96940000D02*
X138592164Y-96940000D01*
X152000000Y-95200000D02*
X152000000Y-93200000D01*
X152000000Y-95200000D02*
X150000000Y-95200000D01*
X152000000Y-73200000D02*
X152000000Y-75200000D01*
X152000000Y-73200000D02*
X150000000Y-73200000D01*
X107000000Y-95200000D02*
X109000000Y-95200000D01*
X107000000Y-95200000D02*
X107000000Y-93200000D01*
X107000000Y-73200000D02*
X109000000Y-73200000D01*
X107000000Y-73200000D02*
X107000000Y-75200000D01*
X129100000Y-118000000D02*
X130500000Y-118000000D01*
X129100000Y-119400000D02*
X129100000Y-118000000D01*
X130500000Y-118000000D02*
X130500000Y-119400000D01*
X130500000Y-119400000D02*
X129100000Y-119400000D01*
X152000000Y-120200000D02*
X152000000Y-118200000D01*
X152000000Y-120200000D02*
X150000000Y-120200000D01*
X152000000Y-98200000D02*
X152000000Y-100200000D01*
X152000000Y-98200000D02*
X150000000Y-98200000D01*
X107000000Y-120200000D02*
X109000000Y-120200000D01*
X107000000Y-120200000D02*
X107000000Y-118200000D01*
X107000000Y-98200000D02*
X109000000Y-98200000D01*
X107000000Y-98200000D02*
X107000000Y-100200000D01*
X147700000Y-114500000D02*
G75*
G03*
X147700000Y-114500000I-1200000J0D01*
G01*
X150900000Y-113400000D02*
G75*
G03*
X150900000Y-113400000I-1200000J0D01*
G01*
%LPC*%
D15*
X139160000Y-96200000D03*
X138200000Y-96200000D03*
D16*
X130400000Y-97400000D03*
X130400000Y-96900000D03*
X130400000Y-96400000D03*
X130400000Y-95900000D03*
X128580000Y-95900000D03*
X128580000Y-96400000D03*
X128580000Y-96900000D03*
X128580000Y-97400000D03*
D17*
X134500000Y-96075000D03*
X134500000Y-96725000D03*
X134500000Y-97375000D03*
X136600000Y-97375000D03*
X136600000Y-96725000D03*
X136600000Y-96075000D03*
D18*
X135550000Y-96725000D03*
D15*
X139180000Y-97300000D03*
X138220000Y-97300000D03*
D19*
X149000000Y-84200000D03*
X110000000Y-84200000D03*
D20*
X129800000Y-118700000D03*
D19*
X149000000Y-109200000D03*
X110000000Y-109200000D03*
D21*
X146500000Y-114500000D03*
X149700000Y-113400000D03*
%LPD*%
M02*
