G04 #@! TF.GenerationSoftware,KiCad,Pcbnew,7.0.2*
G04 #@! TF.CreationDate,2023-06-06T15:19:24-04:00*
G04 #@! TF.ProjectId,ExternalFaces,45787465-726e-4616-9c46-616365732e6b,rev?*
G04 #@! TF.SameCoordinates,Original*
G04 #@! TF.FileFunction,Profile,NP*
%FSLAX46Y46*%
G04 Gerber Fmt 4.6, Leading zero omitted, Abs format (unit mm)*
G04 Created by KiCad (PCBNEW 7.0.2) date 2023-06-06 15:19:24*
%MOMM*%
%LPD*%
G01*
G04 APERTURE LIST*
G04 #@! TA.AperFunction,Profile*
%ADD10C,0.100000*%
G04 #@! TD*
G04 APERTURE END LIST*
D10*
X106500000Y-72800000D02*
X119500000Y-72800000D01*
X126000000Y-120300000D02*
X126000000Y-120600000D01*
X129300000Y-120600000D02*
X131000000Y-120600000D01*
X136500000Y-71800000D02*
X120500000Y-71800000D01*
X106500000Y-120600000D02*
X106500000Y-72800000D01*
X136500000Y-72800000D02*
X136500000Y-71800000D01*
X120500000Y-71800000D02*
X120500000Y-72800000D01*
X140000000Y-120600000D02*
X140000000Y-122200000D01*
X117000000Y-122200000D02*
X109000000Y-122200000D01*
X108000000Y-120600000D02*
X109000000Y-120600000D01*
X140000000Y-120600000D02*
X137400000Y-120600000D01*
X139500000Y-72800000D02*
X137500000Y-72800000D01*
X149000000Y-120600000D02*
X150500000Y-120600000D01*
X119600000Y-120300000D02*
X120000000Y-120300000D01*
X117000000Y-120600000D02*
X117000000Y-122200000D01*
X131000000Y-120300000D02*
X131000000Y-120600000D01*
X117000000Y-120600000D02*
X119600000Y-120600000D01*
X119500000Y-72800000D02*
G75*
G03*
X120500000Y-72800000I500000J0D01*
G01*
X149000000Y-120600000D02*
X148000000Y-120600000D01*
X150500000Y-120600000D02*
X152500000Y-120600000D01*
X126000000Y-120300000D02*
X120000000Y-120300000D01*
X148000000Y-122200000D02*
X148000000Y-120600000D01*
X137400000Y-120300000D02*
X137400000Y-120600000D01*
X109000000Y-122200000D02*
X109000000Y-120600000D01*
X126000000Y-120600000D02*
X127700000Y-120600000D01*
X152500000Y-72800000D02*
X152500000Y-120600000D01*
X108000000Y-120600000D02*
X106500000Y-120600000D01*
X136500000Y-72800000D02*
G75*
G03*
X137500000Y-72800000I500000J0D01*
G01*
X129300000Y-120600000D02*
X127700000Y-120600000D01*
X140000000Y-122200000D02*
X148000000Y-122200000D01*
X119600000Y-120600000D02*
X119600000Y-120300000D01*
X137400000Y-120300000D02*
X131000000Y-120300000D01*
X152500000Y-72800000D02*
X139500000Y-72800000D01*
M02*
