%TF.GenerationSoftware,KiCad,Pcbnew,7.0.2*%
%TF.CreationDate,2023-06-06T15:16:26-04:00*%
%TF.ProjectId,ExternalFaces,45787465-726e-4616-9c46-616365732e6b,rev?*%
%TF.SameCoordinates,Original*%
%TF.FileFunction,Drillmap*%
%TF.FilePolarity,Positive*%
%FSLAX45Y45*%
G04 Gerber Fmt 4.5, Leading zero omitted, Abs format (unit mm)*
G04 Created by KiCad (PCBNEW 7.0.2) date 2023-06-06 15:16:26*
%MOMM*%
%LPD*%
G01*
G04 APERTURE LIST*
%ADD10C,0.100000*%
%ADD11C,0.200000*%
G04 APERTURE END LIST*
D10*
X10650000Y-7280000D02*
X11950000Y-7280000D01*
X12600000Y-12030000D02*
X12600000Y-12060000D01*
X12930000Y-12060000D02*
X13100000Y-12060000D01*
X13650000Y-7180000D02*
X12050000Y-7180000D01*
X10650000Y-12060000D02*
X10650000Y-7280000D01*
X13650000Y-7280000D02*
X13650000Y-7180000D01*
X12050000Y-7180000D02*
X12050000Y-7280000D01*
X14000000Y-12060000D02*
X14000000Y-12220000D01*
X11700000Y-12220000D02*
X10900000Y-12220000D01*
X10800000Y-12060000D02*
X10900000Y-12060000D01*
X14000000Y-12060000D02*
X13740000Y-12060000D01*
X13950000Y-7280000D02*
X13750000Y-7280000D01*
X14900000Y-12060000D02*
X15050000Y-12060000D01*
X11960000Y-12030000D02*
X12000000Y-12030000D01*
X11700000Y-12060000D02*
X11700000Y-12220000D01*
X13100000Y-12030000D02*
X13100000Y-12060000D01*
X11700000Y-12060000D02*
X11960000Y-12060000D01*
X11950000Y-7280000D02*
G75*
G03*
X12050000Y-7280000I50000J0D01*
G01*
X14900000Y-12060000D02*
X14800000Y-12060000D01*
X15050000Y-12060000D02*
X15250000Y-12060000D01*
X12600000Y-12030000D02*
X12000000Y-12030000D01*
X14800000Y-12220000D02*
X14800000Y-12060000D01*
X13740000Y-12030000D02*
X13740000Y-12060000D01*
X10900000Y-12220000D02*
X10900000Y-12060000D01*
X12600000Y-12060000D02*
X12770000Y-12060000D01*
X15250000Y-7280000D02*
X15250000Y-12060000D01*
X10800000Y-12060000D02*
X10650000Y-12060000D01*
X13650000Y-7280000D02*
G75*
G03*
X13750000Y-7280000I50000J0D01*
G01*
X12930000Y-12060000D02*
X12770000Y-12060000D01*
X14000000Y-12220000D02*
X14800000Y-12220000D01*
X11960000Y-12060000D02*
X11960000Y-12030000D01*
X13740000Y-12030000D02*
X13100000Y-12030000D01*
X15250000Y-7280000D02*
X13950000Y-7280000D01*
D11*
X10892619Y-12537524D02*
X10892619Y-12337524D01*
X10892619Y-12337524D02*
X10940238Y-12337524D01*
X10940238Y-12337524D02*
X10968810Y-12347048D01*
X10968810Y-12347048D02*
X10987857Y-12366095D01*
X10987857Y-12366095D02*
X10997381Y-12385143D01*
X10997381Y-12385143D02*
X11006905Y-12423238D01*
X11006905Y-12423238D02*
X11006905Y-12451809D01*
X11006905Y-12451809D02*
X10997381Y-12489905D01*
X10997381Y-12489905D02*
X10987857Y-12508952D01*
X10987857Y-12508952D02*
X10968810Y-12528000D01*
X10968810Y-12528000D02*
X10940238Y-12537524D01*
X10940238Y-12537524D02*
X10892619Y-12537524D01*
X11092619Y-12537524D02*
X11092619Y-12404190D01*
X11092619Y-12442286D02*
X11102143Y-12423238D01*
X11102143Y-12423238D02*
X11111667Y-12413714D01*
X11111667Y-12413714D02*
X11130714Y-12404190D01*
X11130714Y-12404190D02*
X11149762Y-12404190D01*
X11216428Y-12537524D02*
X11216428Y-12404190D01*
X11216428Y-12337524D02*
X11206905Y-12347048D01*
X11206905Y-12347048D02*
X11216428Y-12356571D01*
X11216428Y-12356571D02*
X11225952Y-12347048D01*
X11225952Y-12347048D02*
X11216428Y-12337524D01*
X11216428Y-12337524D02*
X11216428Y-12356571D01*
X11340238Y-12537524D02*
X11321190Y-12528000D01*
X11321190Y-12528000D02*
X11311667Y-12508952D01*
X11311667Y-12508952D02*
X11311667Y-12337524D01*
X11445000Y-12537524D02*
X11425952Y-12528000D01*
X11425952Y-12528000D02*
X11416428Y-12508952D01*
X11416428Y-12508952D02*
X11416428Y-12337524D01*
X11673571Y-12537524D02*
X11673571Y-12337524D01*
X11673571Y-12337524D02*
X11740238Y-12480381D01*
X11740238Y-12480381D02*
X11806905Y-12337524D01*
X11806905Y-12337524D02*
X11806905Y-12537524D01*
X11987857Y-12537524D02*
X11987857Y-12432762D01*
X11987857Y-12432762D02*
X11978333Y-12413714D01*
X11978333Y-12413714D02*
X11959286Y-12404190D01*
X11959286Y-12404190D02*
X11921190Y-12404190D01*
X11921190Y-12404190D02*
X11902143Y-12413714D01*
X11987857Y-12528000D02*
X11968809Y-12537524D01*
X11968809Y-12537524D02*
X11921190Y-12537524D01*
X11921190Y-12537524D02*
X11902143Y-12528000D01*
X11902143Y-12528000D02*
X11892619Y-12508952D01*
X11892619Y-12508952D02*
X11892619Y-12489905D01*
X11892619Y-12489905D02*
X11902143Y-12470857D01*
X11902143Y-12470857D02*
X11921190Y-12461333D01*
X11921190Y-12461333D02*
X11968809Y-12461333D01*
X11968809Y-12461333D02*
X11987857Y-12451809D01*
X12083095Y-12404190D02*
X12083095Y-12604190D01*
X12083095Y-12413714D02*
X12102143Y-12404190D01*
X12102143Y-12404190D02*
X12140238Y-12404190D01*
X12140238Y-12404190D02*
X12159286Y-12413714D01*
X12159286Y-12413714D02*
X12168809Y-12423238D01*
X12168809Y-12423238D02*
X12178333Y-12442286D01*
X12178333Y-12442286D02*
X12178333Y-12499428D01*
X12178333Y-12499428D02*
X12168809Y-12518476D01*
X12168809Y-12518476D02*
X12159286Y-12528000D01*
X12159286Y-12528000D02*
X12140238Y-12537524D01*
X12140238Y-12537524D02*
X12102143Y-12537524D01*
X12102143Y-12537524D02*
X12083095Y-12528000D01*
X12264048Y-12518476D02*
X12273571Y-12528000D01*
X12273571Y-12528000D02*
X12264048Y-12537524D01*
X12264048Y-12537524D02*
X12254524Y-12528000D01*
X12254524Y-12528000D02*
X12264048Y-12518476D01*
X12264048Y-12518476D02*
X12264048Y-12537524D01*
X12264048Y-12413714D02*
X12273571Y-12423238D01*
X12273571Y-12423238D02*
X12264048Y-12432762D01*
X12264048Y-12432762D02*
X12254524Y-12423238D01*
X12254524Y-12423238D02*
X12264048Y-12413714D01*
X12264048Y-12413714D02*
X12264048Y-12432762D01*
M02*
